<svg  viewBox="0 0 31 32" fill="none" xmlns="http://www.w3.org/2000/svg">
<path d="M25.66 20.7062C25.66 20.7062 25.6612 20.7049 25.6618 20.7049L29.7638 16.5153C30.3278 15.9422 30.6383 15.1801 30.6383 14.3693C30.6383 13.5586 30.3278 12.7965 29.7638 12.2234C29.4772 11.9321 29.1471 11.7126 28.7937 11.5654C29.3443 10.9948 29.6474 10.2415 29.6474 9.4407C29.6474 8.63994 29.3369 7.86787 28.7729 7.29474C28.4452 6.96172 28.0594 6.72224 27.6485 6.57693C27.8555 6.15909 27.9657 5.69572 27.9657 5.21427C27.9657 4.40354 27.6552 3.64145 27.0912 3.06832C26.3526 2.31745 25.3201 2.0443 24.3665 2.24761C24.2465 1.72562 23.9856 1.24541 23.6016 0.855014C22.4803 -0.285004 20.6553 -0.285004 19.5339 0.855014L14.16 6.31687C14.1704 6.19464 14.1741 6.07303 14.1728 5.95267C14.1459 4.0543 12.8549 2.43158 11.0342 2.00626L11.022 2.00314C10.0108 1.76678 8.97586 2.37109 8.66721 3.37889C8.4057 4.23079 7.92618 5.75747 7.31866 7.52986C6.87772 7.19808 6.37003 6.95798 5.81946 6.82951C4.79122 6.5894 3.75255 7.20743 3.45492 8.23707C3.104 9.44943 1.62747 14.3937 0.4504 18.3282C-0.84915 22.6719 0.725988 27.3536 4.36926 29.9779C6.12261 31.2407 8.22014 31.9149 10.3563 31.9149C10.6459 31.9149 10.9362 31.9024 11.2265 31.8775C13.6578 31.6679 15.9464 30.5872 17.6722 28.8329L25.5914 20.7823C25.6152 20.7579 25.6385 20.7324 25.6618 20.7074L25.66 20.7062ZM28.8004 14.3693C28.8004 14.6799 28.6816 14.9718 28.4636 15.1932L26.2356 17.4688C26.0874 17.1071 25.87 16.7747 25.5889 16.4897C25.3023 16.1985 24.9716 15.9796 24.6188 15.8318L26.9375 13.4619C27.387 13.0952 28.0478 13.1239 28.4648 13.548C28.681 13.7675 28.7998 14.0594 28.7998 14.37L28.8004 14.3693ZM27.4727 10.2639L25.69 12.0862C25.6397 12.1311 25.5901 12.1779 25.5424 12.2265L25.2429 12.534C25.0947 12.1741 24.8779 11.8442 24.5986 11.5598C24.3108 11.2673 23.9783 11.0472 23.6231 10.8994L25.9043 8.57072C26.3538 8.16535 27.044 8.18032 27.4745 8.61811C27.6907 8.83764 27.8095 9.1295 27.8095 9.44007C27.8095 9.75065 27.6907 10.0425 27.4727 10.2639ZM25.7929 4.39169C26.009 4.61121 26.1278 4.90308 26.1278 5.21365C26.1278 5.52422 26.009 5.81609 25.7916 6.03686L24.6513 7.2012C24.6188 7.23113 24.587 7.26169 24.5558 7.2935C24.538 7.31158 24.5215 7.33091 24.5055 7.35025L23.5636 8.31128C23.4154 7.95019 23.198 7.61779 22.9175 7.33279C22.6291 7.03967 22.2953 6.8189 21.9395 6.6711L24.1724 4.39044C24.6195 3.93643 25.3464 3.93643 25.7935 4.39044L25.7929 4.39169ZM20.8317 2.17838C21.2377 1.76553 21.8979 1.76615 22.3033 2.17838C22.4974 2.37608 22.6046 2.63614 22.6046 2.91116C22.6046 3.18619 22.4956 3.45373 22.2978 3.65517C22.2959 3.65704 22.2941 3.65891 22.2923 3.6614L20.0441 5.95765C19.902 5.63336 19.7024 5.33464 19.4482 5.07645C19.1898 4.81327 18.8934 4.61183 18.5767 4.47027L20.831 2.17901L20.8317 2.17838ZM10.4199 3.93581C10.4444 3.85536 10.5283 3.80671 10.6104 3.82605L10.6227 3.82916C11.6166 4.06116 12.3209 4.94548 12.3356 5.97948C12.3386 6.20025 12.3007 6.43848 12.2217 6.68732L11.4286 9.09395L8.86747 11.6977C9.04017 10.8788 8.96423 10.0431 8.65618 9.28229C9.45906 7.01348 10.1003 4.97729 10.4193 3.93643L10.4199 3.93581ZM16.3726 27.5082C14.9537 28.9507 13.0705 29.8407 11.0703 30.0128C9.07018 30.1849 7.06696 29.6299 5.42935 28.4499C2.43402 26.2921 1.13876 22.443 2.20681 18.8727C3.3851 14.9344 4.86348 9.98389 5.21623 8.76529C5.24012 8.68235 5.32463 8.63308 5.40731 8.65241C5.98359 8.78712 6.47291 9.14197 6.78586 9.65149C7.09758 10.1598 7.19618 10.7603 7.06328 11.3441L6.35472 14.4542C6.26224 14.8608 6.44535 15.2805 6.80362 15.4832C7.16188 15.6859 7.60895 15.6222 7.89862 15.3273L16.6789 6.40106C17.0849 5.98821 17.7451 5.98884 18.1505 6.40106C18.3465 6.60063 18.4543 6.86505 18.4543 7.14694C18.4543 7.42883 18.3465 7.69325 18.1505 7.89282L18.1487 7.89469L14.8263 11.2723L13.0356 13.0927L12.8862 13.2449C12.5273 13.6097 12.5267 14.2022 12.8849 14.5677C13.2432 14.9331 13.825 14.9337 14.1839 14.5689L16.3273 12.3899L19.4482 9.21743H19.4488V9.21619L19.458 9.20683L19.9963 8.65927C20.4434 8.20464 21.1709 8.20464 21.618 8.65927C21.8342 8.8788 21.953 9.17066 21.953 9.48123C21.953 9.76561 21.8519 10.0332 21.6694 10.2452L20.3907 11.5505L15.8111 16.2066L15.8049 16.2128C15.4461 16.5777 15.4454 17.1701 15.8037 17.5356C15.9152 17.6491 16.0474 17.727 16.1883 17.7701C16.1895 17.7701 16.1901 17.7707 16.1914 17.7713C16.2122 17.7775 16.233 17.7819 16.2538 17.7869C16.2618 17.7888 16.2698 17.7913 16.2777 17.7931C16.2955 17.7969 16.3132 17.7987 16.331 17.8012C16.3426 17.8031 16.3537 17.805 16.3653 17.8062C16.3806 17.8075 16.3953 17.8075 16.4106 17.8087C16.4247 17.8094 16.4394 17.8106 16.4535 17.8106C16.4676 17.8106 16.481 17.8094 16.4951 17.8087C16.5104 17.8081 16.5257 17.8081 16.5417 17.8062C16.5515 17.805 16.5613 17.8031 16.5711 17.8019C16.5907 17.7994 16.6096 17.7969 16.6292 17.7931C16.6335 17.7925 16.6378 17.7906 16.6415 17.79C16.8105 17.7545 16.9716 17.6703 17.1026 17.5368L21.678 12.8857C22.1251 12.4311 22.8526 12.4311 23.2997 12.8857C23.5159 13.1052 23.6347 13.3971 23.6347 13.7077C23.6347 14.0182 23.5159 14.3101 23.2997 14.5296L23.2966 14.5327L21.3712 16.4903C21.3712 16.4903 21.3712 16.4903 21.3706 16.491L16.5827 21.3585C16.4033 21.5412 16.3132 21.7801 16.3132 22.0196C16.3132 22.2291 16.3818 22.4386 16.519 22.6101C16.5386 22.6345 16.5594 22.6582 16.5821 22.6812C16.6047 22.7043 16.628 22.7255 16.6519 22.7455C16.6672 22.7586 16.6831 22.7692 16.6997 22.781C16.7089 22.7879 16.7174 22.7947 16.7266 22.801C16.7505 22.8172 16.7756 22.8322 16.8007 22.8459C16.8019 22.8465 16.8038 22.8478 16.805 22.8484C16.8277 22.8609 16.8509 22.8708 16.8742 22.8814C16.8785 22.8833 16.8822 22.8858 16.8865 22.887C16.9079 22.8958 16.9299 22.9033 16.952 22.9107C16.9581 22.9126 16.9642 22.9151 16.9704 22.917C16.9887 22.9226 17.0077 22.9263 17.0261 22.9307C17.0365 22.9332 17.0463 22.9363 17.0567 22.9382C17.0726 22.9413 17.0892 22.9432 17.1051 22.945C17.118 22.9469 17.1308 22.9494 17.1443 22.9507C17.159 22.9519 17.1737 22.9519 17.1878 22.9525C17.2025 22.9532 17.2172 22.9544 17.2325 22.9544C17.2466 22.9544 17.2613 22.9532 17.2753 22.9525C17.29 22.9519 17.3054 22.9519 17.3201 22.9507C17.3317 22.9494 17.3427 22.9475 17.3537 22.9457C17.3715 22.9432 17.3893 22.9413 17.407 22.9376C17.4131 22.9363 17.4193 22.9344 17.426 22.9332C17.5926 22.8964 17.7512 22.8135 17.881 22.6812L22.6689 17.8137C23.116 17.3591 23.8435 17.3591 24.2906 17.8137C24.5068 18.0332 24.6256 18.3251 24.6256 18.6357C24.6256 18.9463 24.5068 19.2381 24.2906 19.4576L16.3714 27.5082H16.3726Z" fill="black"/>
</svg>
