<svg viewBox="0 0 18 21" fill="none" xmlns="http://www.w3.org/2000/svg">
<path d="M15.3739 13.505V9.73517C15.3739 6.935 13.5804 4.49327 11.111 3.58122C11.1399 3.43719 11.1559 3.29001 11.1559 3.14278C11.1559 1.93631 10.1759 0.957031 8.96844 0.957031C7.76102 0.957031 6.78097 1.93631 6.78097 3.14278C6.78097 3.2868 6.79696 3.43078 6.82258 3.56839C5.97388 3.86922 5.18921 4.34603 4.51985 4.99247C3.25799 6.20856 2.56301 7.84384 2.56301 9.59756V13.505C2.56301 13.6426 2.45091 13.7578 2.30997 13.7578C1.12818 13.7578 0.119296 14.6475 0.0104012 15.7804C-0.0504643 16.4108 0.157751 17.038 0.583703 17.5053C1.00645 17.9693 1.61178 18.2381 2.24269 18.2381H6.10519C6.26532 19.675 7.48878 20.7983 8.96844 20.7983C10.4481 20.7983 11.6715 19.675 11.8317 18.2381H15.6942C16.3251 18.2381 16.9304 17.9693 17.3532 17.5053C17.7759 17.038 17.9841 16.4108 17.9265 15.7804C17.8176 14.6475 16.8055 13.7578 15.6269 13.7578C15.486 13.7578 15.3739 13.6458 15.3739 13.505ZM8.96844 2.23709C9.46804 2.23709 9.87479 2.64352 9.87479 3.14272C9.87479 3.1843 9.86837 3.22273 9.86195 3.2643C9.64416 3.23229 9.42316 3.2099 9.20216 3.20349C8.82103 3.19066 8.44632 3.21631 8.07481 3.26751C8.0684 3.22593 8.06198 3.18751 8.06198 3.14593C8.06209 2.64352 8.46884 2.23709 8.96844 2.23709ZM8.96844 19.5181C8.1966 19.5181 7.54965 18.9677 7.39909 18.2381H10.5377C10.3873 18.9677 9.74033 19.5181 8.96844 19.5181ZM16.6518 15.902C16.6774 16.1772 16.5909 16.4428 16.4084 16.6444C16.2194 16.846 15.9696 16.958 15.6942 16.958H2.24274C1.9673 16.958 1.71752 16.846 1.53172 16.6444C1.34597 16.4428 1.25948 16.1771 1.2851 15.902C1.32992 15.4187 1.78155 15.0379 2.30997 15.0379C3.15551 15.0379 3.84407 14.3499 3.84407 13.505V9.59756C3.84407 8.19587 4.40133 6.88701 5.41021 5.91414C6.37422 4.98291 7.62972 4.47723 8.96844 4.47723C9.03251 4.47723 9.09332 4.47723 9.1574 4.48044C11.8765 4.57642 14.0928 6.935 14.0928 9.73517V13.505C14.0928 14.3499 14.7814 15.0379 15.6269 15.0379C16.1553 15.0379 16.6037 15.4187 16.6518 15.902Z" fill="black"/>
</svg>
