<svg viewBox="0 0 15 14" fill="none" xmlns="http://www.w3.org/2000/svg">
<path d="M4.69922 5.7255V5.40732C4.69922 4.88094 5.13959 4.45277 5.68097 4.45277H6.00822V3.81641H6.66273V4.45277H7.5354V3.81641H8.1899V4.45277H9.06257V3.81641H9.71707V4.45277H10.0443C10.5857 4.45277 11.0261 4.88094 11.0261 5.40732V5.7255H4.69922ZM11.0261 6.36186V9.2255C11.0261 9.75188 10.5857 10.18 10.0443 10.18H5.68097C5.13959 10.18 4.69922 9.75188 4.69922 9.2255V6.36186H11.0261ZM6.66273 8.48307H6.00822V9.11944H6.66273V8.48307ZM6.66273 7.21035H6.00822V7.84671H6.66273V7.21035ZM8.1899 8.48307H7.5354V9.11944H8.1899V8.48307ZM8.1899 7.21035H7.5354V7.84671H8.1899V7.21035ZM9.71707 8.48307H9.06257V9.11944H9.71707V8.48307ZM9.71707 7.21035H9.06257V7.84671H9.71707V7.21035Z" fill="#313131"/>
<path d="M7.8623 0.400391C11.4827 0.400616 14.4219 3.35287 14.4219 7C14.4219 10.6471 11.4827 13.5994 7.8623 13.5996C4.24175 13.5996 1.30273 10.6473 1.30273 7C1.30273 3.35273 4.24175 0.400391 7.8623 0.400391Z" stroke="#313131" stroke-width="0.8"/>
</svg>
