<svg  viewBox="0 0 28 28" fill="none" xmlns="http://www.w3.org/2000/svg">
<path d="M15.4479 16.4785C15.4479 16.0147 15.0719 15.6387 14.6081 15.6387H10.9223C10.4586 15.6387 10.0825 16.0147 10.0825 16.4785C10.0825 16.9422 10.4586 17.3183 10.9223 17.3183H14.6081C15.0719 17.3192 15.4479 16.9422 15.4479 16.4785Z" fill="black"/>
<path d="M19.2297 12.3193C19.2297 11.8555 18.8536 11.4795 18.3899 11.4795H10.924C10.4603 11.4795 10.0842 11.8555 10.0842 12.3193C10.0842 12.783 10.4603 13.1591 10.924 13.1591H18.3899C18.8536 13.1591 19.2297 12.783 19.2297 12.3193Z" fill="black"/>
<path d="M7.33587 11.4795H6.54366C6.0799 11.4795 5.70386 11.8555 5.70386 12.3193C5.70386 12.783 6.0799 13.1591 6.54366 13.1591H7.33587C7.79963 13.1591 8.17567 12.783 8.17567 12.3193C8.17567 11.8555 7.79963 11.4795 7.33587 11.4795Z" fill="black"/>
<path d="M13.9923 19.8105H10.9223C10.4586 19.8105 10.0825 20.1866 10.0825 20.6503C10.0825 21.1141 10.4586 21.4901 10.9223 21.4901H13.9923C14.456 21.4901 14.8321 21.1141 14.8321 20.6503C14.8321 20.1866 14.456 19.8105 13.9923 19.8105Z" fill="black"/>
<path d="M7.33587 19.8086H6.54366C6.0799 19.8086 5.70386 20.1846 5.70386 20.6484C5.70386 21.1122 6.0799 21.4882 6.54366 21.4882H7.33587C7.79963 21.4882 8.17567 21.1122 8.17567 20.6484C8.17567 20.1846 7.79963 19.8086 7.33587 19.8086Z" fill="black"/>
<path d="M7.33587 15.6445H6.54366C6.0799 15.6445 5.70386 16.0206 5.70386 16.4843C5.70386 16.9481 6.0799 17.3241 6.54366 17.3241H7.33587C7.79963 17.3241 8.17567 16.9481 8.17567 16.4843C8.17567 16.0206 7.79963 15.6445 7.33587 15.6445Z" fill="black"/>
<path d="M15.0279 25.9228H5.02497C3.44521 25.9228 2.16031 24.6379 2.16031 23.0581V7.7271C2.16031 6.14734 3.44521 4.86245 5.02497 4.86245H6.86507C6.80441 5.3262 6.91639 5.79183 7.20659 6.16787C7.54344 6.6055 8.05385 6.85557 8.60532 6.85557H16.3296C16.882 6.85557 17.3924 6.60457 17.7293 6.16694C18.0195 5.78996 18.1315 5.32434 18.0699 4.86151H19.909C21.4888 4.86151 22.7737 6.14641 22.7737 7.72617V12.0931C22.7737 12.5569 23.1497 12.9329 23.6135 12.9329C24.0773 12.9329 24.4533 12.5569 24.4533 12.0931V7.7271C24.4533 5.2217 22.4144 3.18285 19.909 3.18285H17.6528L17.4223 2.31225C17.1676 1.34648 16.4043 0.60279 15.431 0.372312C14.4447 0.139034 13.4519 0.0139967 12.4563 0C11.484 0.0139967 10.4921 0.139034 9.50484 0.372312C8.53254 0.60279 7.76925 1.34555 7.51358 2.31225L7.2831 3.18285H5.02497C2.51863 3.18285 0.480713 5.2217 0.480713 7.7271V23.0581C0.480713 25.5645 2.51956 27.6033 5.02497 27.6033H15.0279C15.4917 27.6033 15.8677 27.2273 15.8677 26.7635C15.8677 26.2998 15.4917 25.9228 15.0279 25.9228ZM9.13719 2.74242C9.23424 2.37664 9.52257 2.09577 9.89115 2.00806C10.7589 1.80277 11.6295 1.69267 12.4563 1.68053C13.3054 1.69267 14.176 1.80277 15.0438 2.00806C15.4124 2.09484 15.7016 2.37664 15.7977 2.74242L16.4127 5.06867L16.3296 5.17691L8.5372 5.14331C8.51108 5.10972 8.51854 5.07986 8.52134 5.06867L9.13719 2.74242Z" fill="black"/>
<path d="M27.2108 22.4355L26.8291 21.8906C26.7274 21.7459 26.6733 21.5742 26.6733 21.3969V19.4523C26.6733 16.9124 24.8145 14.8036 22.3875 14.4014V14.0673C22.3875 13.6036 22.0115 13.2275 21.5477 13.2275C21.084 13.2275 20.7079 13.6036 20.7079 14.0673V14.4014C18.28 14.8045 16.4212 16.9124 16.4212 19.4523V21.3969C16.4212 21.5742 16.3671 21.7441 16.2654 21.8887L15.8828 22.4327C15.5599 22.8936 15.4872 23.4834 15.6887 24.0087C15.8921 24.5359 16.3428 24.9278 16.8943 25.0547C17.5531 25.2059 18.2212 25.3188 18.8939 25.4056C18.9863 26.795 20.1331 27.9007 21.5459 27.9007C22.9577 27.9007 24.1054 26.7941 24.1968 25.4047C24.8696 25.3179 25.5396 25.205 26.2011 25.0529C26.7526 24.926 27.2024 24.535 27.4049 24.0087C27.6073 23.4834 27.5346 22.8946 27.2108 22.4355ZM21.5477 26.2211C21.1166 26.2211 20.7592 25.9412 20.623 25.5558C20.9309 25.5698 21.2389 25.5819 21.5477 25.5819C21.8556 25.5819 22.1636 25.5698 22.4715 25.5558C22.3362 25.9403 21.9779 26.2211 21.5477 26.2211ZM17.2563 23.4022C17.2563 23.4022 17.2563 23.4003 17.2582 23.3975L17.6398 22.8545C17.9412 22.4252 18.1008 21.9213 18.1008 21.396V19.4514C18.1008 17.5506 19.647 16.0054 21.5477 16.0054C23.4485 16.0054 24.9937 17.5506 24.9937 19.4514V21.396C24.9937 21.9213 25.1533 22.4262 25.4547 22.8545L25.827 23.4162C23.0183 24.0619 20.0725 24.0768 17.2563 23.4022Z" fill="black"/>
</svg>
