<svg viewBox="0 0 91 91" fill="none" xmlns="http://www.w3.org/2000/svg">
<path d="M65.1854 36.8208C64.7822 36.8821 64.5052 37.2595 64.5673 37.6627C64.6817 38.4108 64.8317 39.1767 65.0133 39.9381C65.0938 40.2763 65.3966 40.5045 65.7304 40.5045C65.7873 40.5045 65.8449 40.4978 65.9025 40.4846C66.2998 40.39 66.5443 39.9912 66.4497 39.5947C66.2777 38.8724 66.1351 38.1472 66.0266 37.439C65.9653 37.0365 65.5864 36.7603 65.1854 36.8208Z" fill="black"/>
<path d="M67.838 43.9217C67.6866 43.5428 67.259 43.3582 66.8779 43.5096C66.4991 43.661 66.3152 44.0908 66.4666 44.4697C70.0801 53.5001 77.0752 60.6407 79.8697 63.2558L41.7399 68.8884C21.9361 55.2895 21.6318 33.7347 21.6976 30.6042C24.9647 29.9063 37.8421 28.0652 65.5966 34.0604C65.8145 34.1062 66.0434 34.0538 66.2177 33.912C66.3912 33.7709 66.4917 33.5582 66.4909 33.3345L66.4222 20.5856C66.4208 20.2673 66.2155 19.986 65.9127 19.8878C64.4563 19.4129 63.0022 18.9838 61.5548 18.5932C61.52 17.6641 61.4004 16.7262 61.1729 15.795C60.4293 12.753 58.7366 10.1306 56.4066 8.40989C54.0375 6.65889 51.2939 6.04667 48.6811 6.68548C44.9354 7.60197 42.1697 10.988 41.542 15.3629C38.6315 15.1753 35.8894 15.1081 33.3807 15.1222C33.3158 14.6687 33.236 14.2145 33.1252 13.7626C32.3815 10.7207 30.6889 8.09824 28.3589 6.37752C25.989 4.62652 23.247 4.01356 20.6341 4.65311C16.7791 5.59618 13.9551 9.15283 13.4389 13.7146C13.3931 14.12 13.6848 14.4856 14.0895 14.5314C14.4957 14.5735 14.8605 14.2854 14.9063 13.88C15.3523 9.94081 17.7377 6.88192 20.9849 6.08803C23.1642 5.55261 25.4706 6.07917 27.4823 7.56504C29.5346 9.08119 31.0293 11.406 31.691 14.1126C31.7745 14.4546 31.8424 14.7972 31.8971 15.1399C23.7048 15.2906 18.3263 16.2462 18.2148 16.2669C18.1646 16.2765 18.1158 16.2905 18.0686 16.3104C11.3747 19.0569 9.54693 24.8771 9.47308 25.1238C9.44502 25.2161 9.43542 25.3128 9.44502 25.4096L10.6384 37.6215C10.665 37.8911 10.8371 38.1252 11.0875 38.23C11.1783 38.2692 11.2758 38.2876 11.3725 38.2876C11.5379 38.2876 11.7019 38.2322 11.8356 38.1237L20.2183 31.3715C20.2715 36.6105 21.7677 57.1299 41.1469 70.2716C41.2702 70.355 41.4142 70.3994 41.5619 70.3994C41.5981 70.3994 41.6343 70.3964 41.6697 70.3912L75.5805 65.3819C77.3204 67.743 78.7907 69.601 79.6459 70.6578L38.6655 78.0924C28.915 71.0071 22.781 61.0728 19.9185 47.7331C19.8328 47.3351 19.4414 47.0788 19.0412 47.166C18.6424 47.2509 18.3883 47.6438 18.474 48.0433C21.4413 61.8733 27.8471 72.154 38.0577 79.4756C38.184 79.5664 38.3346 79.6144 38.4883 79.6144C38.5326 79.6144 38.5761 79.6107 38.6204 79.6026L72.495 73.4575C74.2785 76.0386 75.8094 78.0244 76.6926 79.1315L34.3083 86.3267C17.9039 71.7287 14.4683 49.9154 13.7535 41.1811C13.7202 40.7749 13.368 40.4773 12.9574 40.5054C12.5512 40.5393 12.2484 40.8953 12.2816 41.3022C13.015 50.2618 16.5598 72.7153 33.5964 87.6686C33.7323 87.7875 33.9058 87.8517 34.0838 87.8517C34.1252 87.8517 34.1665 87.848 34.2071 87.8414L78.1889 80.3751C78.4503 80.33 78.6682 80.1484 78.759 79.8995C78.8498 79.6499 78.8004 79.3707 78.6283 79.1691C78.6076 79.144 76.6668 76.8473 74.0909 73.1673L81.1459 71.8874C81.4051 71.8402 81.62 71.6578 81.7086 71.4104C81.798 71.1622 81.7485 70.8853 81.5786 70.6844C81.5587 70.6608 79.7353 68.4925 77.2369 65.1375L81.6384 64.4876C81.9257 64.4448 82.1613 64.2387 82.2403 63.9596C82.3193 63.6804 82.2292 63.3813 82.0077 63.1937C81.9102 63.1103 72.1878 54.7896 67.838 43.9217ZM49.0319 8.1204C51.2105 7.58572 53.5176 8.11153 55.5293 9.59741C57.5809 11.1136 59.0763 13.4384 59.738 16.145C59.9064 16.8318 60.012 17.5231 60.063 18.2091C54.1091 16.7107 48.3119 15.8791 43.0183 15.4678C43.5876 11.7457 45.9088 8.88475 49.0319 8.1204ZM31.0456 21.7266C30.872 22.0959 31.0308 22.5353 31.4001 22.7088C31.502 22.7568 31.6083 22.779 31.7139 22.779C31.9909 22.779 32.2567 22.6217 32.383 22.3544C33.2065 20.6011 33.5794 18.6212 33.5092 16.5962C40.8854 16.5608 50.2792 17.224 60.0733 19.7349C59.9972 21.1528 59.6745 22.5227 59.0933 23.7597C58.9198 24.1283 59.0785 24.5684 59.4478 24.742C59.5497 24.7892 59.6561 24.8121 59.7617 24.8121C60.0386 24.8121 60.3045 24.6555 60.4307 24.3875C61.0504 23.0685 61.4174 21.6218 61.5326 20.1241C62.6684 20.4357 63.8072 20.7658 64.9489 21.1299L65.0095 32.4246C36.8997 26.4516 24.3252 28.4596 21.1769 29.1988L18.9607 17.642C20.4296 17.4101 25.2535 16.7314 32.0337 16.6125C32.1009 18.4159 31.7745 20.175 31.0456 21.7266ZM10.9294 25.4243C11.2093 24.6489 12.8791 20.5487 17.5575 18.1685L19.7915 29.8192L11.9744 36.1164L10.9294 25.4243Z" fill="black"/>
<path d="M89.8283 10.9848C85.7976 10.0048 82.653 6.74722 81.817 2.68469L81.515 1.21507C81.4448 0.871661 81.1428 0.625 80.792 0.625C80.4412 0.625 80.1391 0.871661 80.069 1.21507L79.7669 2.68469C78.9317 6.74722 75.7864 10.0048 71.7556 10.9848C71.424 11.066 71.1914 11.3621 71.1914 11.7026C71.1914 12.043 71.424 12.3392 71.7556 12.4204C75.7864 13.4004 78.9309 16.658 79.7669 20.7205L80.069 22.1901C80.1391 22.5335 80.4412 22.7802 80.792 22.7802C81.1428 22.7802 81.4448 22.5335 81.515 22.1901L81.817 20.7205C82.6523 16.658 85.7976 13.4004 89.8283 12.4204C90.1599 12.3392 90.3926 12.043 90.3926 11.7026C90.3926 11.3621 90.1599 11.066 89.8283 10.9848Z" fill="black"/>
<path d="M80.7921 18.8904C79.6821 15.692 77.2761 13.0799 74.1995 11.7011C77.2761 10.3223 79.6821 7.71019 80.7921 4.51172C81.9021 7.71019 84.3081 10.3223 87.3848 11.7011C84.3081 13.0799 81.9021 15.692 80.7921 18.8904Z" fill="#00953B"/>
<path d="M17.4716 78.9299C13.7968 77.9558 10.9676 74.9131 10.2638 71.177L9.8849 69.1675C9.81917 68.819 9.51417 68.5664 9.15895 68.5664C8.80373 68.5664 8.49872 68.819 8.433 69.1676L8.05414 71.177C7.34961 74.9131 4.52039 77.9558 0.846323 78.9299C0.522119 79.0155 0.296875 79.3095 0.296875 79.644C0.296875 79.9785 0.522119 80.2725 0.846324 80.3581C4.52113 81.3322 7.35035 84.3749 8.05414 88.111L8.433 90.1204C8.49872 90.469 8.80373 90.7216 9.15895 90.7216C9.51417 90.7216 9.81917 90.469 9.8849 90.1204L10.2638 88.111C10.9683 84.3749 13.7975 81.3322 17.4716 80.3581C17.7958 80.2725 18.021 79.9785 18.021 79.644C18.021 79.3095 17.7958 79.0155 17.4716 78.9299Z" fill="black"/>
<path d="M9.15968 86.4719C8.19372 83.4714 6.00552 80.9885 3.17188 79.6422C6.00552 78.2959 8.19372 75.8131 9.15968 72.8125C10.1256 75.8131 12.3138 78.2959 15.1475 79.6422C12.3138 80.9885 10.1256 83.4714 9.15968 86.4719Z" fill="#00953B"/>
<path d="M58.2414 45.9079C57.9607 45.0858 57.1898 44.5333 56.3234 44.5333L51.6087 44.5323L50.1474 40.052C49.8818 39.2178 49.1129 38.6562 48.2324 38.6562C47.3518 38.6562 46.582 39.2178 46.3193 40.046L44.8642 44.5333H40.1414C39.2739 44.5333 38.486 45.1069 38.2263 45.9291C37.9637 46.7533 38.2545 47.6539 38.9569 48.1752L42.773 50.9467L41.3158 55.4501C41.0511 56.2863 41.347 57.187 42.0484 57.6882C42.7559 58.1974 43.7884 58.1642 44.4163 57.6861L48.2324 54.9147L52.0514 57.6882C52.4097 57.9468 52.8283 58.0746 53.2429 58.0746C53.6576 58.0746 54.0681 57.9468 54.4133 57.6902C55.1359 57.1739 55.4287 56.2662 55.1479 55.445L53.6928 50.9477L57.5088 48.1762C57.5118 48.1742 57.5149 48.1712 57.5169 48.1692C58.2143 47.6499 58.5091 46.7502 58.2414 45.9079Z" fill="black"/>
<path d="M56.3195 46.5549L52.5105 49.3204C51.803 49.8336 51.5082 50.7373 51.7779 51.5685L53.232 56.0588L49.415 53.2874C48.7085 52.7741 47.7586 52.7741 47.0511 53.2874L43.233 56.0659L44.6892 51.5685C44.9589 50.7363 44.6641 49.8316 43.9566 49.3204L40.1426 46.5489H44.8653C45.7399 46.5489 46.5097 45.9894 46.7794 45.1571L48.2326 40.6719L49.6968 45.1591C49.9675 45.9904 50.7363 46.5489 51.6098 46.5489L56.3306 46.5388C56.3306 46.5388 56.3296 46.5459 56.3195 46.5549Z" fill="#00953B"/>
</svg>
