<svg viewBox="0 0 73 82" fill="none" xmlns="http://www.w3.org/2000/svg">
<path d="M37.8172 33.3164H33.7246V43.4626C33.7246 43.4626 35.8046 43.1911 37.8172 43.9179V33.3164Z" fill="#00953B"/>
<path d="M26.2226 48.1523H21.5332C21.5332 48.1523 23.4098 53.6952 25.7963 56.0817C25.7963 56.0817 24.211 51.8159 26.2226 48.1523Z" fill="#00953B"/>
<path d="M55.9785 33.3164H59.9005C59.9005 33.3164 59.6165 38.1699 58.5364 40.3079C58.5364 40.3079 57.8527 39.0327 55.9785 38.9863V33.3164Z" fill="#00953B"/>
<path d="M18.8906 33.3164H30.2304V44.4004L29.7189 44.6562H20.4253C20.4253 44.6562 18.8906 38.8341 18.8906 33.3164Z" fill="#00953B"/>
<path d="M33.7246 18.4805H43.5297C43.5297 18.4805 44.1118 20.6891 44.1265 21.2941C44.1265 21.2941 37.8172 22.73 37.8172 29.8203H33.7246V18.4805Z" fill="#00953B"/>
<path d="M47.6229 20.8678L47.1113 18.4805H56.6606C56.6606 18.4805 59.9006 24.3402 59.9006 29.8203H55.9786C55.9786 29.8203 55.7098 20.8678 47.6229 20.8678Z" fill="#00953B"/>
<path d="M31.8495 0.0664062C14.4561 0.0664062 0.302734 14.2198 0.302734 31.6132C0.302734 48.4097 13.5183 62.1368 30.059 63.0748C28.6948 60.6874 26.478 57.2769 26.478 57.2769C26.2222 56.9359 26.0517 56.5096 25.7959 56.0833C24.0907 54.1223 22.6412 51.3939 21.5328 48.154H26.2222C26.9043 46.875 29.0359 44.914 29.718 44.6582H20.4245C19.5718 41.2478 18.975 37.3257 18.8898 33.3184H30.2295V44.4024C31.3379 43.8909 32.5316 43.5498 33.7252 43.4646V33.3184H37.8178V29.8227H33.7252V18.4829H43.5303C43.7862 19.4208 43.9566 20.3587 44.1272 21.2966C44.9798 21.0407 46.4292 20.785 47.6229 20.8703C47.4524 20.0176 47.2819 19.2503 47.1113 18.4829H56.6606C58.4511 21.8934 59.6448 25.7301 59.9006 29.8227H55.9786V33.3184H59.9006C59.73 35.7057 59.3037 38.0931 58.5364 40.3099C58.6216 40.3099 58.7069 40.3951 58.7069 40.4804C59.8153 40.1394 60.9237 40.0541 62.1174 40.4804C62.97 37.6668 63.3963 34.6826 63.3963 31.6132C63.3963 14.2198 49.2429 0.0664062 31.8495 0.0664062ZM7.29415 18.4829H16.8435C15.9908 21.9786 15.4793 25.8154 15.394 29.8227H4.05421C4.30999 25.7301 5.50367 21.8934 7.29415 18.4829ZM4.05421 33.3184H15.394C15.4793 37.411 15.9908 41.2478 16.8435 44.6582H7.29415C5.50367 41.2478 4.30999 37.411 4.05421 33.3184ZM22.8971 58.0443C17.5255 56.1685 12.8362 52.6728 9.51098 48.2392H17.8666C19.1455 52.2465 20.8508 55.5717 22.8971 58.0443ZM17.8666 14.9019H9.51098C12.8362 10.4683 17.5255 6.97258 22.8971 5.09686C20.8508 7.65471 19.1455 10.9799 17.8666 14.9019ZM30.3148 29.8227H18.975C19.0603 25.7301 19.6571 21.8934 20.5097 18.4829H30.3148V29.8227ZM30.3148 14.9019H21.6181C23.6644 9.01888 26.7338 4.92633 30.3148 3.81794V14.9019ZM33.8105 14.9019V3.81794C37.3062 4.84104 40.4609 9.01888 42.5072 14.9019H33.8105ZM46.1735 14.9019C44.8945 10.8946 43.1893 7.56942 41.143 5.09686C46.5998 6.97258 51.2039 10.4683 54.5291 14.9019H46.1735Z" fill="black"/>
<path d="M54.5306 14.9066H46.175C44.8961 10.8993 43.1908 7.57412 41.1445 5.10156C46.6013 6.97728 51.2054 10.473 54.5306 14.9066Z" fill="#00953B"/>
<path d="M42.5072 14.9004H33.8105V3.81641C37.3063 4.8395 40.4609 9.01734 42.5072 14.9004Z" fill="#00953B"/>
<path d="M30.3144 18.4805V29.8203H18.9746C19.0599 25.7277 19.6567 21.8909 20.5093 18.4805H30.3144Z" fill="#00953B"/>
<path d="M30.3138 3.81641V14.9004H21.6172C23.6634 9.01734 26.7329 4.9248 30.3138 3.81641Z" fill="#00953B"/>
<path d="M22.8978 5.10156C20.8515 7.65941 19.1463 10.9846 17.8673 14.9066H9.51172C12.8369 10.473 17.5263 6.97728 22.8978 5.10156Z" fill="#00953B"/>
<path d="M16.8439 18.4805C15.9913 21.9762 15.4798 25.813 15.3945 29.8203H4.05469C4.31046 25.7277 5.50415 21.8909 7.29462 18.4805H16.8439Z" fill="#00953B"/>
<path d="M16.8439 44.6562H7.29462C5.50415 41.2457 4.31046 37.409 4.05469 33.3164H15.3945C15.4798 37.409 15.9913 41.2457 16.8439 44.6562Z" fill="#00953B"/>
<path d="M22.8978 58.0434C17.5263 56.1676 12.8369 52.6719 9.51172 48.2383H17.8673C19.1463 52.2456 20.8515 55.5708 22.8978 58.0434Z" fill="#00953B"/>
<path d="M67.4031 45.5088C66.5505 45.5088 65.7831 45.6793 65.101 46.0203C64.0779 44.6562 62.4579 43.8036 60.6674 43.8036C59.7295 43.8036 58.8769 44.0593 58.1095 44.4004C57.0864 43.1215 55.5517 42.4394 53.8465 42.4394C53.4202 42.4394 52.9938 42.5246 52.6528 42.6099V29.9912C52.6528 26.9218 50.1802 24.4492 47.1108 24.4492C44.0414 24.4492 41.5688 26.9218 41.5688 29.9912V53.3529L38.8404 49.2604C38.073 48.0667 36.7941 47.2994 35.3447 47.1288C33.9805 46.9583 32.5311 47.2141 31.3374 48.0667C30.1437 48.8341 29.2911 50.0277 28.8648 51.3919C28.5237 52.8414 28.6942 54.2908 29.4616 55.3992C29.5468 55.5698 40.6309 72.281 42.5066 75.0947C44.8939 78.5904 49.6686 81.063 54.1022 81.063H58.4505C66.2946 81.063 72.6892 74.7536 72.7744 66.9948V51.0509C72.6893 47.8961 70.4725 45.5088 67.4031 45.5088ZM69.5346 66.9947C69.4494 73.0483 64.5042 77.9083 58.4506 77.9083H54.1023C50.2655 77.9083 46.5993 75.5209 45.1498 73.3041C43.2741 70.4904 32.19 53.7792 32.1048 53.6087C31.849 53.1824 31.7637 52.6708 31.9343 52.1592C32.1048 51.5624 32.4458 51.0508 33.0427 50.6245C33.469 50.3688 33.9805 50.1982 34.4921 50.1982H34.8332C35.3447 50.2835 35.8563 50.5393 36.1121 50.9656L41.7394 59.4918C42.1657 60.0886 42.8477 60.3444 43.5298 60.1739C44.2119 60.0034 44.6382 59.3213 44.6382 58.6392V29.906C44.6382 28.5419 45.7466 27.5187 47.0255 27.5187C48.3045 27.5187 49.4128 28.6271 49.4128 29.906V52.6709C49.4128 53.5235 50.0949 54.2909 51.0328 54.2909C51.8855 54.2909 52.6528 53.6088 52.6528 52.6709V45.9352C52.9939 45.6794 53.4202 45.5941 53.8465 45.5941C54.7844 45.5941 55.637 46.191 56.0633 47.0436V53.0972C56.0633 53.9498 56.7454 54.7171 57.6833 54.7171C58.5359 54.7171 59.3033 54.0351 59.3033 53.0972V47.4699C59.7296 47.1288 60.2411 46.9584 60.7527 46.9584C61.7759 46.9584 62.7137 47.6404 63.0548 48.6636V53.9498C63.0548 54.8024 63.7369 55.5698 64.6748 55.5698C65.6127 55.5698 66.2948 54.8877 66.2948 53.9498V49.1752C66.7211 48.9194 67.1474 48.7489 67.659 48.7489C69.0231 48.7489 69.7905 49.9426 69.7905 51.1362L69.5346 66.9947Z" fill="black"/>
</svg>
