<svg viewBox="0 0 91 95" fill="none" xmlns="http://www.w3.org/2000/svg">
<path d="M56.0699 53.8478C55.4572 51.2846 53.0165 49.7834 51.5767 49.5792L51.5868 49.5689L51.4541 49.5383C50.9946 49.0277 50.3717 48.6805 49.6874 48.5477C49.1258 48.1188 44.4997 44.6263 41.8956 44.177C39.9043 43.8298 37.4636 44.6365 35.3089 45.3514C34.5021 45.6169 33.7362 45.8722 33.0622 46.0356L25.1887 44.902C23.5548 44.657 22.0026 45.719 21.6349 47.2916L13.9555 80.3276C13.9249 80.4604 13.9146 80.5932 13.9044 80.7361C13.9044 80.7667 13.884 80.7973 13.8942 80.828V80.8485C13.884 81.1038 13.8942 81.3591 13.9452 81.6041L14.0576 83.2177C14.0678 83.4321 14.1189 83.6465 14.2005 83.8406L14.3333 84.1572C14.5069 84.5963 14.8337 84.9537 15.2422 85.1886C15.0277 85.5255 14.9052 85.9136 14.9052 86.3323C14.9052 87.5271 15.8958 88.5075 17.111 88.5075C18.3262 88.5075 19.3168 87.5373 19.3168 86.3323C19.3168 85.74 19.0717 85.1987 18.6836 84.8107L24.239 86.5366C24.1471 87.425 24.6781 88.2726 25.5768 88.5688C25.781 88.6403 25.9954 88.6709 26.2099 88.6709C26.9145 88.6709 27.5579 88.2828 27.9153 87.6701L34.2162 89.6206V89.9371C34.2162 90.0086 34.2366 90.0801 34.2672 90.1414C34.2672 90.1414 34.7063 90.8767 35.125 91.52C34.9923 91.8162 34.9208 92.1328 34.9208 92.4698C34.9208 93.7973 36.0135 94.8798 37.3615 94.8798C38.7095 94.8798 39.8022 93.7973 39.8022 92.4698C39.8022 91.7243 39.4448 91.0605 38.8933 90.6112C39.1895 90.6214 39.5162 90.6418 39.9349 90.652C39.9656 90.652 40.0983 90.6724 40.3128 90.6724C40.5885 90.6724 40.9868 90.652 41.4463 90.5601C42.008 90.7133 42.7739 90.8256 43.6214 90.8358C43.8564 91.0707 44.1627 91.2954 44.4588 91.469C44.224 91.8162 44.081 92.2349 44.081 92.6842C44.081 93.8892 45.0818 94.8798 46.3072 94.8798C47.5327 94.8798 48.5334 93.8994 48.5334 92.6842C48.5334 91.8162 48.0126 91.0707 47.2672 90.7133L47.1854 90.1108C47.2467 90.0801 47.3182 90.0597 47.3795 90.0189C48.1148 89.59 49.0952 88.4258 49.2891 87.5067L56.0597 56.0025C56.2231 55.2162 56.2231 54.4912 56.0699 53.8478ZM41.5075 45.8517C42.4981 45.9947 43.9687 46.9853 44.9797 47.7512L37.5351 46.6789C38.7503 46.2398 40.5068 45.6985 41.5075 45.8517ZM39.3835 87.7109C38.9035 87.7109 35.6152 87.037 34.5736 86.6999L34.2877 86.608C33.6647 86.3936 33.1133 86.2098 32.7354 86.5059C32.3984 86.7714 32.4392 87.2616 32.4495 87.425C32.4801 87.762 32.6537 88.0888 32.8682 88.3747L18.1118 83.8099C17.8769 83.238 17.2744 81.7573 17.0395 81.4203C16.7842 81.0731 15.7017 80.7361 14.7214 80.5012L22.4008 47.4653L22.4111 47.4755C22.6561 46.4032 23.6569 45.6475 24.7496 45.6475C24.8619 45.6475 24.9742 45.6475 25.0968 45.6679L33.052 46.8117L35.9726 47.2303L45.3575 48.5783C46.0213 48.6703 46.6034 49.0277 46.9813 49.5689C47.3489 50.0999 47.4816 50.7331 47.3591 51.3561L39.9145 87.7824C39.7613 87.7314 39.5877 87.7007 39.4039 87.7109H39.3835ZM39.9962 89.8657C39.8022 89.8657 39.6388 89.8555 39.4754 89.8453C39.8124 89.59 40.0881 89.2836 40.3025 88.9262C40.3434 88.8751 40.374 88.8343 40.3842 88.8138C40.3945 88.7934 40.3842 88.773 40.4047 88.7526C40.5272 88.5075 40.6293 88.2522 40.6906 87.9867L48.1352 51.5194C48.3088 50.682 48.1352 49.8345 47.6348 49.1298L47.6144 49.14C47.5735 49.0787 47.5122 49.0175 47.4612 48.9562C47.7472 49.0073 48.0331 49.0686 48.2986 49.1196C49.2993 49.4055 49.9836 50.3246 49.9836 51.3152C49.9836 51.4684 49.9632 51.6216 49.9325 51.7747L42.6002 87.7416C42.3552 88.9262 41.0991 89.9269 39.9962 89.8657ZM55.304 55.8595L48.5437 87.3433C48.5028 87.5476 48.3905 87.7824 48.2373 88.0377C47.4919 87.9254 46.4094 87.8232 46.0213 88.0275C45.8886 88.099 45.6945 88.2522 45.4596 88.436C45.0307 88.773 44.4384 89.2427 43.7951 89.4674C43.6827 89.5083 43.6011 89.5491 43.5296 89.6002C44.3159 88.9466 44.8776 88.0479 45.092 87.0165L52.1996 52.2241C52.3221 51.642 52.2609 51.0497 52.0464 50.5084C53.3025 50.9475 54.8854 52.2241 55.3245 54.0418C55.447 54.5728 55.447 55.1856 55.304 55.8595ZM54.0378 55.0732C53.9867 54.9915 53.8948 54.9303 53.7927 54.9098L52.3527 54.6341C52.1383 54.5933 51.9341 54.7362 51.8932 54.9405L50.6473 61.0881C50.627 61.1903 50.6576 61.3026 50.7086 61.3843C50.7597 61.4659 50.8516 61.5272 50.9537 61.5477L52.3834 61.8234H52.4549C52.6285 61.8234 52.7919 61.7009 52.8327 61.5171L54.0786 55.3694C54.099 55.2672 54.0786 55.1549 54.0173 55.0732H54.0378Z" fill="black"/>
<path d="M43.2526 90.0335C43.1402 90.0335 43.0279 90.0233 42.9258 90.0131C43.1198 89.9007 43.3036 89.768 43.4874 89.625C43.3241 89.768 43.273 89.9212 43.2526 90.0335Z" fill="black"/>
<path d="M49.9848 51.3121C49.9848 51.4653 49.9644 51.6185 49.9337 51.7717L42.6014 87.7385C42.3564 88.9231 41.1003 89.9239 39.9974 89.8626C39.8034 89.8626 39.64 89.8524 39.4766 89.8422C39.8136 89.5869 40.0893 89.2805 40.3037 88.9231C40.3446 88.8721 40.3752 88.8312 40.3854 88.8108C40.3957 88.7903 40.3854 88.7699 40.4059 88.7495C40.5284 88.5044 40.6305 88.2491 40.6918 87.9836L48.1364 51.5164C48.31 50.679 48.1364 49.8314 47.636 49.1268L47.6156 49.1369C47.5747 49.0757 47.5134 49.0144 47.4624 48.9531C47.7484 49.0042 48.0343 49.0655 48.2998 49.1166C49.3006 49.4025 49.9848 50.3216 49.9848 51.3121Z" fill="#00953B"/>
<path d="M55.3242 54.0412C54.8851 52.2234 53.3022 50.9469 52.0461 50.5078C52.2606 51.0491 52.3219 51.6413 52.1993 52.2234L45.0917 87.0159C44.8773 88.0473 44.3156 88.946 43.5293 89.5996C43.6008 89.5485 43.6824 89.5076 43.7948 89.4668C44.4381 89.2421 45.0304 88.7723 45.4593 88.4354C45.6942 88.2516 45.8883 88.0984 46.021 88.0269C46.4091 87.8226 47.4916 87.9248 48.237 88.0371C48.3902 87.7818 48.5026 87.5469 48.5434 87.3427L55.3038 55.8589C55.4467 55.1849 55.4467 54.5722 55.3242 54.0412ZM52.8325 61.5164C52.7916 61.7002 52.6282 61.8228 52.4546 61.8228H52.3831L50.9534 61.547C50.8513 61.5266 50.7594 61.4653 50.7083 61.3837C50.6573 61.302 50.6267 61.1896 50.6471 61.0875L51.893 54.9399C51.9338 54.7356 52.138 54.5926 52.3525 54.6335L53.7924 54.9092C53.8945 54.9296 53.9864 54.9909 54.0375 55.0726H54.017C54.0783 55.1543 54.0987 55.2666 54.0783 55.3688L52.8325 61.5164Z" fill="#00953B"/>
<path d="M54.0802 55.3673L52.8344 61.515C52.7935 61.6988 52.6301 61.8213 52.4565 61.8213H52.385L50.9553 61.5456C50.8532 61.5251 50.7613 61.4638 50.7102 61.3822C50.6592 61.3005 50.6286 61.1882 50.649 61.086L51.8949 54.9384C51.9357 54.7341 52.1399 54.5912 52.3544 54.632L53.7943 54.9077C53.8964 54.9282 53.9883 54.9894 54.0394 55.0711H54.0189C54.0802 55.1528 54.1006 55.2651 54.0802 55.3673Z" fill="black"/>
<path d="M54.0802 55.3673L52.8344 61.515C52.7935 61.6988 52.6301 61.8213 52.4565 61.8213H52.385L50.9553 61.5456C50.8532 61.5251 50.7613 61.4638 50.7102 61.3822C50.6592 61.3005 50.6286 61.1882 50.649 61.086L51.8949 54.9384C51.9357 54.7341 52.1399 54.5912 52.3544 54.632L53.7943 54.9077C53.8964 54.9282 53.9883 54.9894 54.0394 55.0711H54.0189C54.0802 55.1528 54.1006 55.2651 54.0802 55.3673Z" fill="black"/>
<path d="M20.298 18.2763C16.5911 16.9181 11.2501 18.3784 4.44891 22.6369C1.95717 24.1993 0.445806 26.5175 0.190504 29.1828C-0.105685 32.2056 1.25254 35.4223 3.79533 37.812C7.07342 40.8756 11.5769 43.2346 15.3248 43.2346C16.8667 43.2346 18.2862 42.8363 19.4402 41.9172C21.1456 40.5692 22.0851 38.8945 22.1055 37.1686C26.2415 36.3312 28.6617 34.105 29.3051 30.541C29.9178 27.171 24.5258 19.8387 20.298 18.2763ZM28.5392 30.4082C27.9571 33.6454 25.8329 35.6061 22.0545 36.3925C21.8809 35.2079 21.258 34.1254 20.4104 33.5434C20.2163 33.4106 20.053 33.2881 19.8793 33.1655C19.5424 32.9102 19.2053 32.6651 18.7458 32.3996C18.7458 29.4891 17.9493 27.4059 16.5298 26.497C15.7843 26.0273 14.5078 25.6698 12.5981 26.5889C11.5259 27.1098 11.005 27.7429 11.0459 28.4679C11.1276 30.01 13.793 31.1844 15.3758 31.7562C17.8982 32.6549 18.6437 33.2063 19.43 33.7782C19.6036 33.911 19.7874 34.0335 19.9815 34.1765C20.5431 34.5646 21.2171 35.453 21.3295 36.7397C21.309 36.801 21.309 36.8623 21.3192 36.9235C21.3192 36.9541 21.3295 36.9848 21.3498 37.0053C21.3703 38.0979 20.972 39.7216 18.9806 41.3045C15.3656 44.1638 8.74821 41.3454 4.34682 37.2401H4.32637C1.94695 35.0139 0.690885 32.0319 0.956408 29.2543C1.19127 26.8034 2.53926 24.7406 4.85742 23.3006C9.90217 20.1451 14.0686 18.5622 17.3161 18.5622C18.3067 18.5622 19.2156 18.7154 20.0325 19.0116C24.1173 20.5128 29.0395 27.6714 28.5392 30.4082ZM17.9697 31.9809C17.3978 31.7052 16.6523 31.3886 15.6311 31.0312C13.3539 30.2244 11.8629 29.2032 11.822 28.4373C11.7914 27.9573 12.4143 27.5489 12.9453 27.2936C13.6295 26.9566 14.2627 26.7932 14.8243 26.7932C15.3043 26.7932 15.7332 26.9157 16.1213 27.1608C17.2344 27.8655 17.8982 29.6015 17.9697 31.9809Z" fill="black"/>
<path d="M28.5397 30.4085C27.9576 33.6457 25.8334 35.6064 22.055 36.3928C21.8814 35.2082 21.2585 34.1257 20.4108 33.5436C20.2168 33.4109 20.0534 33.2883 19.8798 33.1658C19.5428 32.9105 19.2058 32.6654 18.7463 32.3999C18.7463 29.4894 17.9498 27.4062 16.5303 26.4973C15.7847 26.0276 14.5082 25.6701 12.5986 26.5892C11.5263 27.11 11.0055 27.7432 11.0464 28.4682C11.1281 30.0102 13.7935 31.1846 15.3763 31.7565C17.8987 32.6552 18.6442 33.2066 19.4305 33.7785C19.6041 33.9112 19.7879 34.0338 19.9819 34.1768C20.5436 34.5648 21.2176 35.4533 21.3299 36.74C21.3095 36.8013 21.3095 36.8625 21.3197 36.9238C21.3197 36.9544 21.3299 36.9851 21.3503 37.0055C21.3708 38.0982 20.9725 39.7219 18.9811 41.3048C15.3661 44.1641 8.7487 41.3456 4.3473 37.2404H4.32686C1.94743 35.0142 0.691372 32.0322 0.956895 29.2545C1.19175 26.8036 2.53975 24.7408 4.85791 23.3009C9.90266 20.1454 14.0691 18.5625 17.3166 18.5625C18.3072 18.5625 19.216 18.7157 20.033 19.0118C24.1178 20.513 29.04 27.6717 28.5397 30.4085Z" fill="#00953B"/>
<path d="M89.7603 30.788V30.8084L82.908 28.429L88.5757 20.2185C88.7595 19.953 88.7902 19.6262 88.6778 19.33C88.5553 19.0339 88.3 18.8194 87.9834 18.7582L86.9009 18.5335C86.6354 18.4825 86.3495 18.5335 86.135 18.7071L76.3008 26.1313L75.8821 25.9883C72.0016 24.3646 67.9474 23.1085 63.8319 22.2711L60.6559 21.6278L74.1359 2.09216C74.2074 1.99 74.2278 1.84702 74.1768 1.72448C74.1256 1.60194 74.0235 1.52029 73.8908 1.48962L71.0927 0.917751C70.9701 0.887085 70.8476 0.917751 70.7557 1.00969L63.1375 8.03552L59.3591 7.25946C58.4297 7.07558 57.5311 7.6679 57.337 8.57679C57.2451 9.0159 57.337 9.46523 57.5822 9.84307C57.8375 10.2209 58.2153 10.4864 58.6646 10.5784L60.0637 10.8643L57.2758 13.4377L53.63 12.6922C52.711 12.4982 51.8021 13.0905 51.6081 14.0096C51.5162 14.4487 51.6081 14.898 51.8532 15.2759C52.1085 15.6537 52.4863 15.9193 52.9356 16.0111L54.202 16.2664L50.6379 19.5547L41.1612 17.6246C39.5579 17.2979 32.869 17.3387 32.4197 19.473C32.3482 19.8305 32.44 20.2185 32.7056 20.6168C33.8698 22.3835 38.2507 24.2931 39.7111 24.5995L49.1878 26.5296L51.1485 30.9514L49.872 30.6961C48.953 30.5123 48.0441 31.0943 47.8501 32.0135C47.7581 32.4526 47.8501 32.9019 48.0951 33.2797C48.3504 33.6576 48.7283 33.9231 49.1776 34.015L52.8233 34.7605L54.3551 38.2223L52.9561 37.9364C52.037 37.7424 51.1281 38.3449 50.9341 39.2538C50.8422 39.6929 50.9341 40.1422 51.1792 40.52C51.4345 40.8979 51.8123 41.1634 52.2617 41.2553L56.0401 42.0315L60.2168 51.4674C60.2679 51.5797 60.37 51.6614 60.4926 51.692L63.2907 52.2639H63.3724C63.4745 52.2639 63.5766 52.2231 63.6481 52.1516C63.74 52.0597 63.7808 51.9269 63.7604 51.8044L59.1956 28.5822L62.3716 29.2255C66.487 30.0629 70.7148 30.502 74.9018 30.5327L75.3613 30.5633L81.4273 41.2349C81.56 41.4698 81.7949 41.6434 82.0706 41.6945L83.1531 41.9192C83.2144 41.9293 83.2859 41.9395 83.3471 41.9395C83.5922 41.9395 83.8373 41.8374 84.0211 41.6639C84.2458 41.4392 84.3479 41.1226 84.2866 40.806L82.3565 31.0433L89.6071 31.5437H89.6377C89.8216 31.5437 89.985 31.4109 90.0156 31.2373C90.0565 31.0433 89.9442 30.8595 89.7603 30.788ZM86.6252 19.33C86.6252 19.33 86.7171 19.2892 86.7682 19.2994L87.8506 19.5241C87.9324 19.5445 87.963 19.5956 87.9834 19.6262C87.9936 19.6568 88.0141 19.7181 87.963 19.7794L82.1727 28.1635L77.2097 26.4377L86.6252 19.33ZM58.8178 9.83285C58.5727 9.7818 58.3685 9.63882 58.2357 9.43463C58.1029 9.23037 58.0519 8.98529 58.1029 8.75038C58.2051 8.24999 58.7055 7.93342 59.2058 8.03552L62.4329 8.69933L60.7683 10.2311L58.8178 9.83285ZM53.0991 15.2759C52.854 15.2248 52.6395 15.0819 52.5067 14.8776C52.374 14.6734 52.3229 14.4283 52.374 14.1934C52.4761 13.693 52.9663 13.3765 53.4769 13.4786L56.5813 14.1117L54.9168 15.6435L53.0991 15.2759ZM71.154 1.72448L73.1759 2.14321L59.8492 21.4644L51.5979 19.7794L71.154 1.72448ZM49.3614 33.2797H49.3513C49.1061 33.2287 48.8917 33.0857 48.7589 32.8815C48.6262 32.6772 48.5751 32.4321 48.6262 32.1973C48.7283 31.6969 49.2185 31.3803 49.7291 31.4824L51.5468 31.85L52.4659 33.9129L49.3614 33.2797ZM52.4557 40.52H52.4455C52.2004 40.469 51.9859 40.3261 51.8532 40.1218C51.7204 39.9176 51.6693 39.6725 51.7204 39.4376C51.8226 38.9372 52.3127 38.6206 52.8233 38.7228L54.7739 39.121L55.6929 41.1839L52.4557 40.52ZM62.9026 51.4061L60.8806 50.9874L50.1375 26.7542L58.3889 28.4392L62.9026 51.4061ZM83.531 40.9796H83.5412C83.5514 41.0511 83.5207 41.1124 83.4901 41.1328C83.4697 41.1532 83.4084 41.1941 83.3267 41.1839L82.2442 40.9592C82.2442 40.9592 82.1524 40.9183 82.1319 40.8775L76.3213 30.6552L81.5703 31.0126L83.531 40.9796ZM81.9277 30.2672V30.257L75.6371 29.7872C75.586 29.7872 75.5349 29.7974 75.4839 29.8178L74.963 29.777C70.8067 29.7566 66.63 29.3175 62.5554 28.4903L39.8949 23.8642C38.5162 23.5783 34.3804 21.7401 33.3796 20.2185C33.2366 19.9939 33.1753 19.81 33.2059 19.6568C33.4 18.7276 36.5555 18.2578 38.986 18.2578C39.7927 18.2578 40.5178 18.3088 41.0284 18.411L63.6889 23.037C67.7635 23.8642 71.7667 25.0999 75.6166 26.7236L76.0864 26.887C76.0864 26.887 76.168 26.9585 76.2192 26.9789L82.1932 29.0111L86.7784 30.6042L81.9277 30.2672Z" fill="black"/>
<path d="M73.1757 2.14529L59.849 21.4665L51.5977 19.7815L71.1538 1.72656L73.1757 2.14529Z" fill="#00953B"/>
<path d="M62.9037 51.4019L60.8818 50.9832L50.1387 26.75L58.39 28.435L62.9037 51.4019Z" fill="#00953B"/>
<path d="M87.9643 19.7824L82.174 28.1665L77.2109 26.4406L86.6265 19.333C86.6265 19.333 86.7184 19.2922 86.7694 19.3024L87.8519 19.5271C87.9336 19.5475 87.9643 19.5986 87.9846 19.6292C87.9949 19.6598 88.0153 19.7211 87.9643 19.7824Z" fill="#00953B"/>
<path d="M83.5402 40.9767C83.5505 41.0482 83.5198 41.1095 83.4892 41.1299C83.4687 41.1504 83.4075 41.1912 83.3258 41.181L82.2433 40.9563C82.2433 40.9563 82.1514 40.9154 82.131 40.8746L76.3203 30.6523L81.5693 31.0097L83.53 40.9767H83.5402Z" fill="#00953B"/>
</svg>
