<svg viewBox="0 0 85 94" fill="none" xmlns="http://www.w3.org/2000/svg">
<g opacity="0.3">
<path d="M18.338 72.496C18.2776 72.4233 18.181 72.4173 18.1267 72.4839C13.5633 77.6386 11.8128 85.5734 13.5513 93.1994C13.5513 93.2236 13.5694 93.2479 13.5814 93.266L13.847 93.1994C13.847 93.1994 13.847 93.157 13.847 93.1388C12.1327 85.634 13.8591 77.8203 18.35 72.7504C18.4104 72.6838 18.4044 72.5748 18.35 72.5021L18.338 72.496Z" fill="black"/>
<path d="M15.7456 86.3572C13.9045 85.9393 13.0957 89.2101 13.1621 89.2586C13.1802 89.6281 13.2043 90.0036 13.2406 90.3792C13.3432 89.9067 14.1158 89.1617 15.4196 88.7134C16.6933 88.2167 17.5021 86.6782 15.7456 86.3572Z" fill="black"/>
<path d="M10.4077 85.4371C8.5968 85.1039 9.32718 87.9629 10.7276 88.5928C12.0857 89.2591 12.9912 89.9375 13.2085 90.3858C13.1541 90.0102 13.1059 89.6407 13.0696 89.2652C13.0032 89.2955 12.122 85.8308 10.4137 85.4431L10.4077 85.4371Z" fill="black"/>
<path d="M16.1471 83.2421C14.3664 82.4789 13.0868 85.4591 13.1471 85.5196C13.1109 85.877 13.0807 86.2404 13.0626 86.6039C13.2377 86.1738 14.119 85.6165 15.4831 85.4469C16.8292 85.2228 17.8614 83.9024 16.1471 83.2421Z" fill="black"/>
<path d="M10.9483 81.2973C9.18569 80.6189 9.50561 83.5142 10.8155 84.3925C12.077 85.3011 12.8799 86.1309 13.0308 86.5973C13.0308 86.2278 13.0368 85.8644 13.0549 85.501C12.9885 85.5191 12.6022 82.0181 10.9483 81.2973Z" fill="black"/>
<path d="M16.9953 80.2992C15.3293 79.2089 13.621 81.8437 13.6693 81.9104C13.5788 82.2496 13.5003 82.5948 13.4279 82.9401C13.6633 82.5585 14.623 82.1951 16.0174 82.3041C17.3936 82.3586 18.613 81.2804 16.9953 80.2992Z" fill="black"/>
<path d="M12.0769 77.3898C10.4109 76.3843 10.3203 79.2554 11.5034 80.3638C12.6322 81.4904 13.3203 82.4535 13.4048 82.9321C13.4591 82.5807 13.5135 82.2294 13.5859 81.8781C13.5135 81.8842 13.6282 78.4195 12.0769 77.3898Z" fill="black"/>
<path d="M18.2718 77.5936C16.7568 76.2065 14.6743 78.4416 14.7165 78.5082C14.5777 78.8232 14.4509 79.1382 14.3302 79.4592C14.6199 79.1382 15.634 78.9746 17.0103 79.3501C18.3805 79.6712 19.7568 78.8595 18.2779 77.5936H18.2718Z" fill="black"/>
<path d="M13.771 73.7998C12.2499 72.4975 11.7428 75.2778 12.769 76.5801C13.7408 77.9005 14.2901 78.9666 14.3022 79.4451C14.4048 79.1119 14.5134 78.7849 14.6281 78.4578C14.5557 78.4578 15.1714 75.1021 13.771 73.7938V73.7998Z" fill="black"/>
<path d="M19.9503 75.2099C18.6344 73.5684 16.2138 75.3431 16.244 75.4158C16.0629 75.6945 15.8879 75.9791 15.7189 76.2699C16.0509 76.0094 17.0891 76.0518 18.4171 76.6878C19.739 77.2693 21.242 76.7423 19.9503 75.2159V75.2099Z" fill="black"/>
<path d="M16.0032 70.6322C14.6692 69.0634 13.7456 71.6861 14.5847 73.158C15.3633 74.636 15.7557 75.7808 15.7014 76.2532C15.8523 75.9504 16.0092 75.6475 16.1722 75.3507C16.0997 75.3325 17.2104 72.1768 16.0032 70.6322Z" fill="black"/>
<path d="M17.2869 73.7702C17.2386 73.7702 18.2829 70.9657 19.3754 69.9057C20.4197 68.8276 21.4277 69.5544 21.5545 70.2934C21.6933 71.0324 20.9388 71.7471 20.2024 72.1711C19.4418 72.5164 17.2809 73.7157 17.2929 73.7702H17.2869Z" fill="black"/>
<path d="M17.3025 73.8932C17.3025 73.8932 17.2965 73.8932 17.2904 73.8932C17.2482 73.8932 17.2059 73.8568 17.1878 73.8084C17.1878 73.8084 17.1878 73.8023 17.1878 73.7963C17.1818 73.766 17.1757 73.7417 17.1938 73.7054C17.3025 73.1481 18.3649 70.7253 19.3005 69.8167C19.8136 69.2837 20.4051 69.1141 20.9182 69.3503C21.2924 69.5199 21.5761 69.8894 21.6425 70.2831C21.8296 71.2825 20.6164 72.0639 20.2361 72.282C19.4936 72.6212 17.5258 73.7114 17.3568 73.8508C17.3447 73.875 17.3206 73.8871 17.2965 73.8871L17.3025 73.8932ZM20.3327 69.4896C20.0791 69.5199 19.7773 69.6592 19.4393 70.0045C18.5822 70.8404 17.7552 72.7544 17.4775 73.4995C17.6586 73.3904 17.9484 73.2269 18.395 72.9785C18.9745 72.6575 19.7411 72.2517 20.1455 72.0639C20.8518 71.6581 21.5701 70.9857 21.4433 70.3134C21.389 69.9984 21.1596 69.7077 20.8578 69.5684C20.7371 69.5138 20.55 69.4593 20.3266 69.4896H20.3327Z" fill="black"/>
<path d="M12.3254 93.5972C6.265 83.6937 4.73783 71.0282 8.34145 60.4766C8.38974 60.3434 8.32938 60.1738 8.20866 60.1132C8.08793 60.0466 7.9491 60.1071 7.90685 60.2404C4.26097 70.907 5.7821 83.6816 11.8485 93.7244L12.3254 93.6032V93.5972Z" fill="black"/>
<path d="M11.6664 82.4813C8.90784 83.1415 9.44507 88.5566 9.56579 88.5869C9.77706 89.126 10.0064 89.659 10.2418 90.1921C10.1453 89.4228 10.8394 87.7753 12.4149 86.2065C13.9239 84.5831 14.262 81.7363 11.6664 82.4813Z" fill="black"/>
<path d="M3.8174 84.8175C1.14336 85.5808 3.60614 89.318 5.86368 89.2756C8.07897 89.318 9.67857 89.6996 10.2037 90.2084C9.93812 89.6936 9.6846 89.1726 9.43712 88.6457C9.36468 88.7365 6.38279 84.2118 3.8174 84.8175Z" fill="black"/>
<path d="M10.6305 77.5581C7.78145 77.6611 7.5219 82.9732 7.63658 83.0217C7.76938 83.579 7.91425 84.1362 8.07119 84.6874C8.0893 83.9303 9.03095 82.4887 10.8358 81.2893C12.5863 80.0234 13.3408 77.3522 10.6366 77.5581H10.6305Z" fill="black"/>
<path d="M2.44723 78.2822C-0.335467 78.5002 1.57801 82.5767 3.83556 82.9644C6.04481 83.4368 7.57801 84.1092 8.02469 84.6967C7.83756 84.1516 7.66251 83.6064 7.4935 83.0552C7.40899 83.134 5.09712 78.2034 2.44119 78.2822H2.44723Z" fill="black"/>
<path d="M10.3149 72.6107C7.45377 72.1564 6.43365 77.2445 6.53626 77.3111C6.58455 77.8744 6.65095 78.4377 6.72339 79.001C6.85618 78.2742 7.99703 77.0688 9.9769 76.2632C11.9085 75.3849 13.0493 72.9439 10.3149 72.6107Z" fill="black"/>
<path d="M2.03467 71.7136C-0.778202 71.3804 0.555801 75.7052 2.75298 76.523C4.8898 77.4073 6.32642 78.3583 6.68859 79.0125C6.57994 78.4491 6.48336 77.8858 6.39885 77.3225C6.30831 77.3831 4.70268 72.1618 2.03467 71.7136Z" fill="black"/>
<path d="M10.7083 67.7317C7.9135 66.7323 6.15697 71.4872 6.25354 71.5659C6.22336 72.1232 6.20525 72.6865 6.19922 73.2437C6.43463 72.5653 7.75053 71.6204 9.84509 71.2207C11.9034 70.7482 13.3944 68.5858 10.7022 67.7317H10.7083Z" fill="black"/>
<path d="M2.55017 65.2187C-0.214419 64.3404 0.491817 68.8227 2.57431 70.0462C4.58437 71.3303 5.88819 72.5297 6.15378 73.2323C6.1236 72.669 6.11153 72.0996 6.10549 71.5363C6.00288 71.5848 5.14574 66.1818 2.54413 65.2187H2.55017Z" fill="black"/>
<path d="M11.8197 63.0216C9.16375 61.4952 6.71304 65.814 6.80359 65.9049C6.69493 66.4439 6.59232 66.9891 6.50781 67.5342C6.8398 66.9225 8.29453 66.2562 10.4495 66.2743C12.5742 66.2138 14.3851 64.3906 11.8197 63.0216Z" fill="black"/>
<path d="M4.02664 58.9676C1.38278 57.5684 1.43711 62.0992 3.34455 63.6983C5.16748 65.3458 6.29626 66.7753 6.46527 67.5143C6.5196 66.957 6.58599 66.4058 6.66446 65.8486C6.55581 65.8789 6.48941 60.4214 4.03268 58.9616L4.02664 58.9676Z" fill="black"/>
</g>
<g opacity="0.3">
<path d="M69.0648 76.8859C69.1071 76.8435 69.1735 76.8435 69.2157 76.898C72.4209 80.9805 73.6523 86.7348 72.427 91.9137C72.427 91.9319 72.4149 91.944 72.4089 91.9561L72.2217 91.8834C72.2217 91.8834 72.2217 91.8531 72.2217 91.841C73.429 86.747 72.2157 81.0835 69.0588 77.0616C69.0165 77.0131 69.0225 76.9344 69.0588 76.8859H69.0648Z" fill="black"/>
<path d="M70.8913 86.8928C72.183 86.7898 72.7504 89.1642 72.7082 89.1945C72.6961 89.455 72.678 89.7154 72.6538 89.9698C72.5814 89.6306 72.0381 89.0249 71.1206 88.5767C70.2273 88.0981 69.6538 86.9352 70.8913 86.8867V86.8928Z" fill="black"/>
<path d="M74.6338 86.79C75.9074 86.7415 75.3943 88.6737 74.4104 88.9705C73.4567 89.2976 72.8229 89.6853 72.672 89.976C72.7082 89.7216 72.7444 89.4612 72.7686 89.2068C72.8108 89.237 73.4326 86.8929 74.6338 86.79Z" fill="black"/>
<path d="M70.606 84.6521C71.8555 84.2947 72.7549 86.5237 72.7126 86.554C72.7368 86.8084 72.7609 87.0689 72.773 87.3233C72.6523 87.0022 72.0305 86.5237 71.0708 86.2633C70.1231 85.9665 69.3988 84.9368 70.606 84.646V84.6521Z" fill="black"/>
<path d="M74.2583 83.815C75.4958 83.5182 75.2724 85.5231 74.3489 86.0016C73.4616 86.5104 72.9002 87.0132 72.7915 87.3221C72.7915 87.0616 72.7915 86.8072 72.7734 86.5468C72.8217 86.5649 73.0934 84.1481 74.2523 83.8089L74.2583 83.815Z" fill="black"/>
<path d="M70.0095 82.4996C71.1805 81.906 72.3817 83.9291 72.3455 83.9715C72.4058 84.2198 72.4662 84.4682 72.5145 84.7165C72.3515 84.4258 71.6755 84.0745 70.6976 84.0078C69.7318 83.9049 68.8747 83.0266 70.0095 82.4996Z" fill="black"/>
<path d="M73.4606 80.9635C74.6317 80.4304 74.692 82.4535 73.8651 83.1077C73.0683 83.7861 72.5914 84.3858 72.5311 84.7189C72.4948 84.4645 72.4526 84.2101 72.4043 83.9618C72.4526 83.9739 72.3741 81.5268 73.4606 80.9635Z" fill="black"/>
<path d="M69.1097 80.4762C70.1721 79.6585 71.6389 81.4393 71.6087 81.4817C71.7053 81.7119 71.7959 81.9481 71.8804 82.1904C71.6812 81.936 70.9689 81.7179 70.0031 81.8391C69.0433 81.9239 68.0776 81.2152 69.1097 80.4762Z" fill="black"/>
<path d="M72.273 78.2752C73.3414 77.512 73.6976 79.523 72.9793 80.3346C72.2972 81.1645 71.9109 81.855 71.9048 82.1942C71.8324 81.9519 71.7539 81.7096 71.6754 81.4673C71.7237 81.4673 71.2952 79.0566 72.2791 78.2813L72.273 78.2752Z" fill="black"/>
<path d="M67.9351 78.6243C68.8586 77.6067 70.5608 79.0968 70.5367 79.1452C70.6635 79.3572 70.7902 79.5753 70.9049 79.7994C70.6695 79.5813 69.9391 79.5026 69.0095 79.8176C68.08 80.0901 67.0236 79.5692 67.9351 78.6243Z" fill="black"/>
<path d="M70.7131 75.8167C71.6488 74.8536 72.3007 76.7858 71.7091 77.7368C71.1598 78.6938 70.8882 79.457 70.9244 79.7962C70.8158 79.5661 70.7071 79.3419 70.5924 79.1178C70.6467 79.1178 69.862 76.7798 70.7131 75.8167Z" fill="black"/>
<path d="M69.814 77.8934C69.8502 77.8934 69.1138 75.8219 68.3472 74.9678C67.6168 74.1017 66.9046 74.5135 66.82 75.0163C66.7235 75.519 67.2547 76.1005 67.7738 76.4761C68.311 76.7971 69.8261 77.8632 69.82 77.8934H69.814Z" fill="black"/>
<path d="M69.7985 77.9744C69.7985 77.9744 69.8045 77.9744 69.8106 77.9744C69.8408 77.9744 69.8709 77.9562 69.883 77.9259C69.883 77.9259 69.883 77.9259 69.883 77.9199C69.883 77.8956 69.8951 77.8835 69.877 77.8533C69.7985 77.4535 69.056 75.6424 68.3981 74.9034C68.0359 74.4794 67.6255 74.2977 67.2573 74.4128C66.9977 74.4915 66.7985 74.7217 66.7502 74.9943C66.6174 75.6787 67.4746 76.3511 67.7341 76.5388C68.2593 76.8538 69.6355 77.823 69.7562 77.9381C69.7683 77.9562 69.7804 77.9683 69.7985 77.9744ZM67.6677 74.5703C67.8428 74.6187 68.0601 74.7459 68.2955 75.0185C68.8991 75.6908 69.4786 77.1203 69.6717 77.6715C69.545 77.5746 69.3458 77.4353 69.0259 77.2112C68.6214 76.9265 68.0842 76.5631 67.7945 76.3935C67.2995 76.0361 66.7925 75.491 66.883 75.0306C66.9192 74.8126 67.0822 74.6308 67.2935 74.5642C67.378 74.54 67.5108 74.5218 67.6677 74.5642V74.5703Z" fill="black"/>
<path d="M73.293 92.3064C77.5485 85.9706 78.6229 77.2302 76.0877 69.4528C76.0576 69.3498 76.0998 69.2408 76.1843 69.2105C76.2688 69.1741 76.3654 69.2287 76.3956 69.3316C78.9549 77.1938 77.8865 86.013 73.625 92.4457L73.293 92.3125V92.3064Z" fill="black"/>
<path d="M73.7674 84.5748C75.705 85.3198 75.3248 89.0692 75.2402 89.0753C75.0893 89.4327 74.9324 89.784 74.7634 90.1353C74.8298 89.6023 74.3469 88.3787 73.2362 87.1128C72.1739 85.8165 71.9384 83.7874 73.7614 84.5748H73.7674Z" fill="black"/>
<path d="M79.274 87.0134C81.1512 87.819 79.4188 90.1934 77.8374 89.9329C76.28 89.7391 75.1573 89.8421 74.7891 90.1449C74.9762 89.8118 75.1573 89.4726 75.3263 89.1273C75.3806 89.2 77.4691 86.3228 79.274 87.0134Z" fill="black"/>
<path d="M74.4827 81.2272C76.4807 81.5906 76.6618 85.346 76.5893 85.3703C76.4988 85.7458 76.3962 86.1213 76.2875 86.4969C76.2755 85.9639 75.6175 84.8554 74.3439 83.8257C73.1125 82.7596 72.5873 80.8032 74.4827 81.2272Z" fill="black"/>
<path d="M80.23 82.5702C82.1857 83.0063 80.8397 85.6715 79.2521 85.7199C77.7008 85.8229 76.6264 86.1379 76.3125 86.5074C76.4453 86.1439 76.566 85.7744 76.6807 85.405C76.7411 85.4655 78.3648 82.2431 80.23 82.5702Z" fill="black"/>
<path d="M74.7093 77.7765C76.7193 77.7523 77.4376 81.429 77.3652 81.4593C77.329 81.853 77.2867 82.2407 77.2324 82.6283C77.1419 82.1074 76.333 81.1383 74.9447 80.369C73.5865 79.5513 72.7898 77.722 74.7093 77.7705V77.7765Z" fill="black"/>
<path d="M80.5273 77.9904C82.5011 78.0449 81.5655 80.9463 80.0263 81.2916C78.5233 81.6974 77.5152 82.2123 77.2617 82.6363C77.3402 82.2547 77.4066 81.867 77.467 81.4794C77.5334 81.5339 78.6561 78.0268 80.5333 77.9844L80.5273 77.9904Z" fill="black"/>
<path d="M74.4284 74.3079C76.3902 73.89 77.6215 77.4092 77.5552 77.4516C77.5733 77.8453 77.5914 78.239 77.5914 78.6388C77.4284 78.136 76.4988 77.3365 75.026 76.8459C73.5773 76.3007 72.533 74.635 74.4224 74.3079H74.4284Z" fill="black"/>
<path d="M80.1561 73.3807C82.0998 73.0475 81.5988 76.1185 80.138 76.7666C78.7255 77.4632 77.8141 78.1719 77.627 78.6383C77.6451 78.2446 77.6571 77.8508 77.6632 77.4511C77.7356 77.4935 78.3332 73.7865 80.1622 73.3746L80.1561 73.3807Z" fill="black"/>
<path d="M73.6515 70.8871C75.5167 70.0876 77.237 73.3706 77.1766 73.4251C77.2551 73.8127 77.3215 74.2065 77.3819 74.6002C77.1465 74.1338 76.1263 73.5159 74.6112 73.316C73.1203 73.0556 71.8467 71.5898 73.6455 70.8932L73.6515 70.8871Z" fill="black"/>
<path d="M79.1263 68.8381C80.9794 68.1234 80.9432 71.3034 79.6032 72.2301C78.3235 73.1993 77.5267 74.0897 77.412 74.5924C77.3758 74.1987 77.3275 73.7989 77.2732 73.4052C77.3517 73.4355 77.3939 69.6074 79.1203 68.8381H79.1263Z" fill="black"/>
</g>
<path d="M23.1546 56.6426C23.1183 56.6426 23.0821 56.6365 23.0459 56.6184C23.0157 56.6002 19.9493 54.8254 17.9272 53.3657L17.7401 53.2263C17.2934 52.9174 16.563 52.2814 16.3457 52.0331C15.6033 51.173 15.2411 50.016 15.4101 49.0106C15.5489 48.1807 16.0198 47.5144 16.7683 47.0783C18.3196 46.1758 20.6435 48.3079 21.5006 49.1802C21.6093 48.4351 22.0077 47.0178 23.4141 46.2424C24.2049 45.8063 25.1284 45.7094 25.9373 45.9759C26.6314 46.2061 27.1747 46.6846 27.4705 47.3267C27.4825 47.3509 27.7904 47.9869 27.724 48.8046L27.5127 48.7864L27.724 48.8167C27.7179 48.9197 27.7059 49.0287 27.6938 49.1438C27.3195 51.8635 23.4684 56.3761 23.3055 56.5699C23.2632 56.6184 23.2029 56.6426 23.1425 56.6426H23.1546Z" fill="#1A2E35"/>
<path d="M64.4674 60.0719C64.3889 60.0719 64.3104 60.0294 64.2622 59.9568C64.1595 59.7932 61.7994 56.0014 61.4915 54.6689C61.2984 53.833 61.4734 52.9365 61.9382 52.3247C62.3245 51.8159 62.8799 51.5313 63.5378 51.5131C64.8115 51.4525 65.6082 53.4271 65.9161 54.4023C66.2903 53.9359 67.0207 53.2818 68.1193 53.2636C69.0428 53.2636 69.8577 53.7179 70.244 54.4569C70.6062 55.1595 70.5036 55.9893 69.9664 56.7465C69.6465 57.1947 69.0791 57.6793 68.2883 58.1881C68.1736 58.2608 68.0288 58.2244 67.9563 58.1154C67.8839 58.0003 67.9201 57.8549 68.0288 57.7822C68.7652 57.3098 69.2843 56.8676 69.574 56.4678C70.0086 55.8621 70.0992 55.2261 69.8155 54.687C69.5137 54.1055 68.8497 53.7542 68.1314 53.7542C66.7612 53.7724 66.0489 55.0686 66.0428 55.0807C65.9946 55.1716 65.904 55.2201 65.8014 55.208C65.7048 55.1958 65.6203 55.1232 65.5962 55.0262C65.3849 54.1722 64.6123 51.9674 63.568 52.0037C63.0549 52.0219 62.6324 52.2399 62.3306 52.6276C61.9503 53.1243 61.8115 53.8693 61.9744 54.5659C62.228 55.6683 64.1052 58.7696 64.576 59.5328C64.9805 59.3632 65.9885 58.9392 67.0086 58.3819C67.1233 58.3213 67.2742 58.3637 67.3346 58.4788C67.395 58.5939 67.3527 58.7453 67.238 58.8059C65.8919 59.5328 64.576 60.0537 64.564 60.0597C64.5338 60.0718 64.5036 60.0779 64.4734 60.0779L64.4674 60.0719Z" fill="#1A2E35"/>
<path d="M44.8424 27.7295C44.764 27.7295 44.6855 27.6871 44.6372 27.6144C44.5949 27.5417 43.5446 25.8639 42.9772 24.6645C42.9169 24.5434 42.9712 24.398 43.0919 24.3435C43.2127 24.2829 43.3575 24.3375 43.4118 24.4586C43.8646 25.4156 44.6553 26.724 44.939 27.1904C45.597 26.9178 47.8002 25.9487 48.4702 25.0219C48.772 24.604 48.8324 24.1739 48.6392 23.8105C48.434 23.4168 47.9632 23.1624 47.4803 23.1745C46.5326 23.1866 46.0497 24.0588 46.0316 24.0952C45.9833 24.186 45.8867 24.2345 45.7901 24.2224C45.6935 24.2103 45.609 24.1376 45.5849 24.0407C45.4461 23.4773 44.8726 21.8843 44.1905 21.9146C43.4662 21.9388 43.1402 22.5203 43.0738 23.0533C43.0557 23.1866 42.941 23.2835 42.8022 23.2653C42.6694 23.2472 42.5788 23.126 42.5909 22.9928C42.7056 22.0781 43.3273 21.4664 44.1724 21.43C45.102 21.4058 45.6694 22.702 45.9169 23.4471C46.2127 23.1139 46.7318 22.702 47.4742 22.696C48.1442 22.6596 48.778 23.0412 49.0678 23.5924C49.3454 24.1194 49.267 24.7493 48.8626 25.3127C47.9994 26.518 45.0597 27.675 44.933 27.7234C44.9028 27.7355 44.8726 27.7416 44.8424 27.7416V27.7295Z" fill="#1A2E35"/>
<path d="M56.6201 69.8068C56.5838 69.8068 56.5476 69.7886 56.5295 69.7583C56.4571 69.6432 54.7609 66.9114 54.5376 65.9605C54.4048 65.3729 54.5255 64.749 54.8454 64.325C55.111 63.9737 55.4973 63.7799 55.95 63.7617H55.9802C56.9038 63.7617 57.4531 65.3124 57.6341 65.9181C57.8696 65.6031 58.4007 65.0337 59.2518 65.0216H59.276C59.8977 65.0216 60.4651 65.3426 60.7247 65.8514C60.9722 66.336 60.8997 66.9114 60.5255 67.4324C60.2599 67.8018 59.7589 68.2077 59.0345 68.6377L58.4611 68.9588C57.5376 69.4555 56.6623 69.7947 56.6563 69.8007C56.6442 69.8007 56.6321 69.8068 56.614 69.8068H56.6201Z" fill="#1A2E35"/>
<path d="M83.6491 15.5222C84.1018 14.0987 84.8744 12.3482 84.1682 12.4754C83.4559 12.6026 81.2648 15.1345 81.7779 13.7716C82.297 12.4088 83.6491 11.1125 83.4559 10.4039C83.2628 9.68911 81.6451 9.04099 80.8724 9.04099C80.0998 9.04099 79.1944 9.81631 78.3553 11.373C77.5163 12.9297 77.0636 12.7359 77.0636 12.7359C77.0636 12.7359 79.5143 8.91379 79.128 7.74476C78.7417 6.57573 75.0596 4.50418 74.4801 4.31035C73.9006 4.11652 71.8966 6.76956 70.798 8.06579C69.6994 9.36202 72.5425 3.98326 72.6089 3.20795C72.6753 2.43263 71.5103 2.75366 70.6712 3.98326C69.8322 5.21287 68.2809 7.80533 68.9268 5.92761C69.5726 4.04989 70.9308 2.366 70.9308 1.84509C70.9308 1.79057 70.9308 1.74211 70.9187 1.69971L70.5324 1.44531C70.5324 1.44531 68.7336 3.99538 67.7799 5.80041C66.8262 7.60544 66.301 9.83448 65.5586 10.9005C64.8161 11.9605 61.6411 13.0266 60.8986 14.9346C60.1562 16.8487 59.9449 20.3497 59.9449 20.3497L56.456 25.4741C56.456 25.4741 56.293 25.68 57.8564 25.995C59.4197 26.31 62.4801 28.4421 63.79 30.2592C65.0998 32.0764 65.5405 35.529 65.5405 35.529C65.5405 35.529 66.2286 36.4678 66.79 36.0317C67.3513 35.5956 67.6048 34.1479 68.9147 32.9607C70.2246 31.7675 72.7899 27.5698 72.7899 27.5698C72.7899 27.5698 74.6672 28.9509 76.4781 27.3821C78.2889 25.8133 80.9751 18.793 82.5988 16.8487C82.9187 16.4671 83.2628 16.0491 83.6189 15.6251C83.631 15.5888 83.637 15.5585 83.6491 15.5222Z" fill="#1A2E35"/>
<path d="M66.463 36.4C66.4268 36.4 66.3906 36.4 66.3544 36.394C65.8292 36.3213 65.3946 35.7519 65.3463 35.6853C65.3222 35.655 65.3041 35.6126 65.3041 35.5702C65.3041 35.5339 64.8574 32.16 63.5958 30.4156C62.2558 28.556 59.2437 26.5329 57.8071 26.2482C56.5335 25.9938 56.292 25.7879 56.2256 25.6122C56.1954 25.5335 56.2136 25.4063 56.2619 25.3397L59.7025 20.2819C59.7387 19.7731 59.9681 16.6598 60.6683 14.8608C61.1512 13.6191 62.5154 12.765 63.7286 12.0018C64.4288 11.5596 65.0928 11.1477 65.3524 10.7722C65.7266 10.2392 66.0586 9.34876 66.4148 8.40384C66.7407 7.54372 67.1029 6.56246 67.5616 5.69629C68.5093 3.89731 70.3142 1.34119 70.3323 1.31696C70.4047 1.20793 70.5496 1.18371 70.6582 1.25639L71.0445 1.51079C71.0989 1.54714 71.1351 1.60165 71.1471 1.66828C71.1592 1.72279 71.1653 1.78942 71.1653 1.86211C71.1653 2.14679 70.9359 2.55262 70.4952 3.30371C70.1089 3.96394 69.6381 4.76954 69.294 5.62966C69.4993 5.3268 69.7226 4.9876 69.9037 4.70897C70.1029 4.40006 70.296 4.10326 70.4651 3.86097C71.0868 2.9524 71.956 2.40725 72.4811 2.59502C72.7347 2.68588 72.8675 2.92817 72.8373 3.24314C72.8071 3.59446 72.3966 4.51514 71.7206 5.99309C71.5395 6.39286 71.3222 6.86532 71.1411 7.27115C71.1894 7.21058 71.2437 7.15001 71.292 7.08944C73.1391 4.83012 73.9962 3.90943 74.5395 4.0972C75.0465 4.2668 78.8976 6.35652 79.3383 7.68304C79.5375 8.2827 79.121 9.40933 78.6019 10.4693C79.3323 9.39116 80.1109 8.80967 80.8473 8.80967C81.6441 8.80967 83.4248 9.47596 83.6602 10.3482C83.799 10.857 83.3826 11.4991 82.8936 12.232C82.5858 12.6984 82.2357 13.2314 82.0184 13.7523C82.1994 13.613 82.4288 13.4192 82.622 13.2556C83.292 12.6863 83.7628 12.3047 84.0948 12.2441C84.3423 12.1956 84.4811 12.3107 84.5415 12.3834C84.8252 12.7165 84.5898 13.4555 84.1431 14.7275C84.0405 15.0183 83.9379 15.3211 83.8473 15.6058L83.8353 15.6543C83.8292 15.6906 83.799 15.7633 83.7749 15.7936L82.7548 17.0171C82.0546 17.8591 81.1371 19.6944 80.1653 21.6327C78.9278 24.1101 77.6481 26.6722 76.6039 27.5748C75.0405 28.9255 73.4168 28.235 72.8373 27.914C72.3001 28.7862 70.2176 32.0934 69.0465 33.1534C68.3041 33.8257 67.9178 34.5889 67.6039 35.2007C67.3685 35.6611 67.1814 36.0245 66.9097 36.2365C66.7709 36.3455 66.6079 36.4061 66.4329 36.4061L66.463 36.4ZM65.7749 35.443C65.8956 35.5884 66.1733 35.8791 66.4208 35.9155C66.5053 35.9276 66.5777 35.9094 66.6441 35.8549C66.8313 35.7095 67.0063 35.3703 67.2055 34.9766C67.5375 34.3285 67.948 33.5289 68.7568 32.796C70.0304 31.6391 72.5596 27.496 72.5898 27.4597C72.626 27.3991 72.6803 27.3628 72.7467 27.3506C72.8131 27.3385 72.8795 27.3506 72.9339 27.393C73.0063 27.4476 74.6783 28.6348 76.3202 27.2174C77.292 26.3754 78.5475 23.8617 79.7669 21.4207C80.7508 19.4521 81.6803 17.5926 82.4168 16.7082L83.4188 15.4604C83.5093 15.1697 83.618 14.8668 83.7206 14.57C83.95 13.9037 84.3001 12.8922 84.2035 12.6923C83.9801 12.765 83.3946 13.2677 82.9661 13.6312C82.2115 14.2732 81.8675 14.564 81.5958 14.3701C81.3665 14.2066 81.4932 13.8613 81.5596 13.6978C81.789 13.086 82.1813 12.4924 82.5254 11.9715C82.9117 11.384 83.3101 10.7782 83.2316 10.4814C83.0868 9.94236 81.6622 9.3003 80.8836 9.3003C80.1773 9.3003 79.3323 10.1059 78.5777 11.5051C77.7266 13.086 77.1773 13.0557 76.9781 12.9709C76.9117 12.9407 76.8634 12.8861 76.8453 12.8195C76.8272 12.7529 76.8333 12.6802 76.8755 12.6196C77.7991 11.178 79.1693 8.60979 78.9158 7.84053C78.5838 6.84109 75.0828 4.78166 74.4188 4.55754C74.0204 4.55754 72.451 6.47766 71.6964 7.39835C71.4429 7.70727 71.2075 7.99801 71.0023 8.2403C70.8816 8.38567 70.6703 8.62796 70.453 8.48258C70.1874 8.31298 70.2538 8.1131 71.3162 5.78715C71.7809 4.76349 72.3665 3.49148 72.3906 3.20074C72.3966 3.11594 72.3906 3.06143 72.3544 3.04931C72.1552 2.97057 71.4731 3.28554 70.8936 4.13354C70.7306 4.37583 70.5375 4.67263 70.3383 4.97549C69.1673 6.76841 68.9983 6.95618 68.7146 6.81686C68.461 6.68966 68.5516 6.35652 68.7206 5.85983C69.0828 4.80589 69.6502 3.83068 70.1089 3.05537C70.4047 2.55262 70.7125 2.02565 70.7125 1.86211L70.616 1.79548C70.1814 2.41937 68.7991 4.44246 68.0144 5.93252C67.5737 6.77447 67.2236 7.69515 66.8916 8.5795C66.5113 9.59104 66.1854 10.4693 65.7749 11.0508C65.455 11.5051 64.785 11.9291 64.0123 12.4137C62.8655 13.1345 61.5677 13.9461 61.1451 15.0364C60.4268 16.8899 60.2095 20.3425 60.2095 20.3788C60.2095 20.4212 60.1914 20.4636 60.1673 20.5L56.787 25.4608C56.9319 25.5274 57.2458 25.6365 57.9218 25.7697C59.624 26.1089 62.6964 28.3137 64.0063 30.1309C65.2558 31.8572 65.7206 34.9342 65.793 35.443H65.7749ZM56.6723 25.6001L56.6602 25.6243C56.6602 25.6243 56.6723 25.6122 56.6723 25.6001Z" fill="#1A2E35"/>
<path d="M66.3851 13.3979C66.3549 13.3979 66.3247 13.3857 66.3006 13.3555C66.2643 13.307 66.2704 13.2404 66.3187 13.204C66.874 12.7497 67.1879 12.4227 67.3207 12.1622C67.8458 11.1022 68.9142 8.2311 68.9263 8.20082C68.9444 8.1463 69.0108 8.11602 69.0652 8.13419C69.1195 8.15236 69.1497 8.21899 69.1316 8.2735C69.1195 8.30379 68.0511 11.187 67.5199 12.2531C67.375 12.5438 67.0491 12.8891 66.4635 13.3676C66.4454 13.3857 66.4213 13.3918 66.3971 13.3918L66.3851 13.3979Z" fill="white"/>
<path d="M60.8396 22.4135C60.8396 22.4135 60.8034 22.4135 60.7852 22.4013C60.7309 22.3711 60.7128 22.3044 60.743 22.256L61.4734 20.9295C61.5217 20.6387 62.0408 17.6465 62.7531 16.3381C63.1454 15.6173 64.2198 14.8117 65.2581 14.0243L65.3848 13.9274C65.4331 13.891 65.4995 13.9032 65.5357 13.9516C65.572 14.0001 65.5599 14.0667 65.5116 14.103L65.3848 14.2C64.3647 14.9692 63.3144 15.7627 62.9402 16.4411C62.2219 17.7555 61.6846 20.9476 61.6786 20.984C61.6786 20.9961 61.6786 21.0082 61.6665 21.0203L60.9241 22.365C60.906 22.4013 60.8698 22.4195 60.8275 22.4195L60.8396 22.4135Z" fill="white"/>
<path d="M59.1657 25.4388C59.1657 25.4388 59.1295 25.4388 59.1114 25.4266C59.0571 25.3964 59.039 25.3297 59.0692 25.2813L60.216 23.1976C60.2462 23.1431 60.3126 23.1249 60.3609 23.1552C60.4152 23.1855 60.4333 23.2521 60.4032 23.3006L59.2563 25.3842C59.2382 25.4206 59.202 25.4388 59.1597 25.4388H59.1657Z" fill="white"/>
<path d="M73.5019 10.3043C73.5019 10.3043 73.4596 10.3043 73.4415 10.2862C73.3932 10.2559 73.3751 10.1893 73.4053 10.1347C73.9667 9.2504 74.2866 8.6568 74.2926 8.65074C74.3228 8.59623 74.3892 8.57805 74.4375 8.60834C74.4918 8.63863 74.5099 8.70525 74.4798 8.75371C74.4798 8.75371 74.1538 9.35337 73.5864 10.2498C73.5683 10.2801 73.5321 10.2983 73.4959 10.2983L73.5019 10.3043Z" fill="white"/>
<path d="M61.9184 26.6525C61.9184 26.6525 61.8882 26.6525 61.8761 26.6404C61.8218 26.6161 61.7977 26.5495 61.8218 26.495L63.8319 21.9885C63.85 21.9097 64.3812 19.6141 65.522 18.1967C66.023 17.5789 66.7353 17.0822 67.5622 16.5067C68.6488 15.7496 69.8862 14.8955 71.021 13.4842C71.5763 12.7937 72.1316 12.0487 72.6628 11.2734C72.6991 11.2249 72.7655 11.2128 72.8137 11.2431C72.862 11.2794 72.8741 11.346 72.8439 11.3945C72.3067 12.1759 71.7514 12.927 71.19 13.6175C70.031 15.047 68.7876 15.9131 67.689 16.6824C66.8741 17.2457 66.1739 17.7364 65.697 18.33C64.5864 19.7049 64.0492 22.0309 64.0431 22.0551L62.027 26.5859C62.0089 26.6283 61.9667 26.6525 61.9305 26.6525H61.9184Z" fill="white"/>
<path d="M71.4351 18.6412C71.4351 18.6412 71.3928 18.6412 71.3747 18.623C71.3264 18.5867 71.3143 18.5201 71.3445 18.4716C73.264 15.6126 75.8113 11.7845 75.8355 11.7421C75.8717 11.6937 75.9381 11.6815 75.9864 11.7118C76.0347 11.7482 76.0467 11.8148 76.0165 11.8633C75.9924 11.8996 73.4451 15.7338 71.5256 18.5928C71.5075 18.623 71.4713 18.6412 71.4351 18.6412Z" fill="white"/>
<path d="M64.1933 28.3926C64.1933 28.3926 64.1511 28.3926 64.1329 28.3745C64.0847 28.3442 64.0665 28.2775 64.0967 28.223L67.0484 23.5832C67.0484 23.5832 67.0786 23.5469 67.0967 23.5408C67.1088 23.5408 68.2376 23.0381 69.9337 20.5547C70.145 20.2457 70.3925 19.8763 70.6641 19.4765C70.7003 19.428 70.7667 19.4159 70.815 19.4462C70.8633 19.4825 70.8754 19.5492 70.8452 19.5976C70.5736 20.0035 70.3261 20.3669 70.1148 20.6758C68.5152 23.026 67.4227 23.6317 67.2174 23.7286L64.2838 28.3442C64.2657 28.3745 64.2295 28.3926 64.1933 28.3926Z" fill="white"/>
<path d="M79.4822 13.5065C79.4822 13.5065 79.446 13.5065 79.4279 13.4883C79.3796 13.458 79.3615 13.3914 79.3916 13.3369L80.2609 11.8832C80.291 11.8347 80.3574 11.8166 80.4118 11.8468C80.4601 11.8771 80.4782 11.9438 80.448 11.9983L79.5788 13.452C79.5607 13.4883 79.5244 13.5065 79.4882 13.5065H79.4822Z" fill="white"/>
<path d="M69.0813 27.2953C69.0813 27.2953 69.033 27.2892 69.0149 27.2711C68.9666 27.2347 68.9606 27.162 69.0028 27.1196L70.4817 25.3328C70.4817 25.3328 70.4938 25.3146 70.5058 25.3086L73.367 23.4369L78.709 14.4783C78.7392 14.4238 78.8056 14.4117 78.8599 14.442C78.9082 14.4723 78.9263 14.5389 78.8962 14.5934L73.536 23.5701C73.536 23.5701 73.5179 23.5944 73.4998 23.6065L70.6326 25.4782L69.1597 27.2529C69.1597 27.2529 69.1054 27.2892 69.0752 27.2892L69.0813 27.2953Z" fill="white"/>
<path d="M66.2785 30.6846C66.2785 30.6846 66.2303 30.6785 66.2121 30.6603C66.1639 30.624 66.1578 30.5513 66.2001 30.5089L68.3248 27.9467C68.361 27.8983 68.4335 27.8922 68.4757 27.9346C68.524 27.9709 68.53 28.0436 68.4878 28.086L66.363 30.6482C66.363 30.6482 66.3087 30.6846 66.2785 30.6846Z" fill="white"/>
<path d="M80.4176 17.8253C80.4176 17.8253 80.3874 17.8253 80.3754 17.8192C80.321 17.795 80.2909 17.7344 80.315 17.6799C80.8764 16.3049 81.2566 15.8627 81.2748 15.8446C81.317 15.8022 81.3834 15.7961 81.4257 15.8325C81.4679 15.8749 81.4739 15.9415 81.4377 15.9839C81.4377 15.9839 81.0635 16.4261 80.5202 17.7586C80.5021 17.801 80.4599 17.8253 80.4176 17.8253Z" fill="white"/>
<path d="M67.1446 33.7815C67.1446 33.7815 67.1023 33.7755 67.0842 33.7634C67.0359 33.727 67.0238 33.6604 67.0601 33.6119C67.5671 32.8911 72.046 26.5917 72.4504 26.3191C72.6134 26.2101 72.9937 26.2283 73.6516 26.2767C74.6174 26.3433 75.9393 26.4342 76.38 25.8709C77.0138 25.0592 78.7703 21.6066 79.6697 19.3776C79.6938 19.3231 79.7542 19.2928 79.8085 19.317C79.8629 19.3413 79.893 19.4018 79.8689 19.4564C78.9393 21.7399 77.2009 25.1622 76.549 25.9981C76.0359 26.6523 74.6476 26.5553 73.6335 26.4827C73.1627 26.4524 72.6798 26.416 72.5651 26.4887C72.2814 26.6765 69.221 30.9226 67.2291 33.727C67.211 33.7573 67.1747 33.7755 67.1385 33.7755L67.1446 33.7815Z" fill="white"/>
<path d="M27.0566 63.2248C27.0566 63.2248 28.5898 61.1956 29.2599 59.4754C29.9359 57.7551 30.2981 56.2166 31.0345 55.6654C31.7709 55.1142 35.8755 52.5944 36.3645 51.3648C36.8534 50.1352 37.5295 48.2939 38.447 47.3065C39.3645 46.3253 44.9359 41.0374 48.6723 35.9978C52.4087 30.9583 55.1612 27.6995 55.6562 26.7788C56.1451 25.8581 56.453 25.4886 56.453 25.4886C56.453 25.4886 58.783 24.5074 62.3926 27.4572C66.0083 30.4071 66.4369 32.9268 66.4369 33.8475V35.0771L50.7608 49.7657L31.958 65.3145C31.958 65.3145 30.6723 65.3145 29.1391 64.3938C27.6059 63.4731 27.0566 63.2248 27.0566 63.2248Z" fill="white"/>
<path d="M31.9581 65.5482C31.9038 65.5482 30.5879 65.5361 29.0184 64.5912C27.5275 63.6947 26.9661 63.4403 26.9601 63.4342C26.8937 63.404 26.8454 63.3434 26.8273 63.2707C26.8092 63.198 26.8273 63.1253 26.8696 63.0648C26.8816 63.0466 28.3907 61.0417 29.0426 59.3759C29.2116 58.9459 29.3565 58.5279 29.5013 58.1342C29.942 56.8925 30.2921 55.9173 30.9017 55.457C31.0527 55.3419 31.3545 55.142 31.7287 54.8876C33.0446 54.0032 35.785 52.1679 36.1472 51.2594L36.286 50.908C36.7629 49.7027 37.4088 48.0551 38.278 47.1284C38.447 46.9467 38.7669 46.6256 39.2076 46.1835C41.2297 44.1604 45.443 39.9446 48.4852 35.8378C50.284 33.4089 51.8897 31.3555 53.0607 29.8533C54.3041 28.2603 55.2035 27.1095 55.451 26.6491C55.946 25.7163 56.2599 25.3347 56.2719 25.3165C56.2961 25.2863 56.3263 25.262 56.3625 25.2499C56.4651 25.2075 58.8675 24.2444 62.5496 27.2548C66.28 30.2955 66.6784 32.8698 66.6784 33.8329V35.0625C66.6784 35.1291 66.6482 35.1958 66.5999 35.2382L50.9239 49.9268L32.109 65.4876C32.0667 65.524 32.0124 65.5421 31.9581 65.5421V65.5482ZM27.4249 63.1253C27.7267 63.2828 28.3062 63.5978 29.2659 64.1732C30.4973 64.9182 31.5778 65.0394 31.8796 65.0576L50.61 49.5694L66.2015 34.9656V33.839C66.2015 33.1424 65.9178 30.6287 62.2478 27.6364C59.109 25.0742 56.9661 25.577 56.6039 25.686C56.5074 25.8132 56.2478 26.1888 55.8736 26.8853C55.608 27.382 54.7448 28.4905 53.441 30.1623C52.2699 31.6584 50.6703 33.7118 48.8715 36.1346C45.8052 40.2717 41.5798 44.4996 39.5456 46.5348C39.111 46.9709 38.7911 47.2859 38.6281 47.4676C37.8253 48.3277 37.1915 49.9268 36.7327 51.0958L36.5939 51.4471C36.2076 52.4102 34.0164 53.9427 31.9943 55.2995C31.6261 55.5478 31.3364 55.7417 31.1854 55.8507C30.6905 56.2202 30.3464 57.1833 29.9541 58.3038C29.8152 58.7036 29.6643 59.1216 29.4893 59.5577C28.94 60.9629 27.8474 62.5378 27.4249 63.1314V63.1253Z" fill="#1A2E35"/>
<path d="M51.8008 70.1654C51.8008 70.1654 52.6278 69.3841 53.3039 69.481C53.9799 69.5779 54.1308 69.9171 54.2274 71.2376C54.324 72.552 54.2757 73.8179 53.7928 74.357C53.3099 74.8961 52.6761 75.6229 52.6761 75.6229C52.6761 75.6229 53.0141 72.455 52.9658 71.5283C52.9175 70.6016 51.8008 70.1654 51.8008 70.1654Z" fill="white"/>
<path d="M52.6728 75.8655C52.6426 75.8655 52.6064 75.8594 52.5762 75.8473C52.4796 75.8049 52.4192 75.7019 52.4313 75.599C52.4313 75.5687 52.7693 72.4432 52.7211 71.5467C52.6788 70.7835 51.719 70.4019 51.707 70.3959C51.6285 70.3656 51.5742 70.299 51.5561 70.2142C51.538 70.1354 51.5681 70.0506 51.6285 69.99C51.719 69.8992 52.5581 69.136 53.3307 69.245C54.2301 69.3722 54.3629 69.9476 54.4595 71.2196C54.5862 72.9278 54.4233 74.0059 53.9585 74.5208C53.4756 75.0538 52.8478 75.7807 52.8478 75.7807C52.7995 75.8352 52.7331 75.8655 52.6667 75.8655H52.6728ZM52.2382 70.1172C52.6184 70.3474 53.1677 70.8017 53.2039 71.5164C53.2402 72.1767 53.0893 73.8848 52.9866 74.8903C53.1798 74.6662 53.4092 74.4118 53.6084 74.1937C53.8559 73.9151 54.1275 73.1822 53.9826 71.256C53.88 69.881 53.717 69.7902 53.2643 69.7235C52.9384 69.6751 52.5219 69.9113 52.2321 70.1172H52.2382Z" fill="#1A2E35"/>
<path d="M46.5176 81.3308C46.5176 81.3308 47.9724 81.9183 48.8476 81.3792C49.7229 80.8462 50.3023 79.1865 50.5498 78.7504C50.7913 78.3143 52.3969 77.6298 52.6866 75.631C52.9764 73.6321 53.8516 71.1487 53.7551 70.4642C53.6585 69.7798 52.4935 69.7313 51.8114 70.1735C51.1293 70.6156 51.1293 70.9064 50.8396 71.5363C50.5498 72.1723 49.5297 77.2361 49.0408 77.6783C48.5579 78.1144 47.1937 78.5081 47.0005 79.2834C46.8074 80.0648 46.5176 81.3308 46.5176 81.3308Z" fill="white"/>
<path d="M47.9106 81.847C47.1681 81.847 46.4679 81.5744 46.4257 81.5562C46.317 81.5138 46.2506 81.3927 46.2808 81.2776C46.2808 81.2776 46.5705 80.0056 46.7697 79.2242C46.9267 78.6064 47.6088 78.2369 48.2184 77.9098C48.49 77.7645 48.7436 77.6251 48.8824 77.4979C49.1359 77.2496 49.7033 74.9539 50.0414 73.579C50.3311 72.4099 50.5122 71.6831 50.6208 71.4347C50.6752 71.3136 50.7234 71.2045 50.7597 71.1076C50.9407 70.6776 51.0675 70.3626 51.6772 69.9689C52.2023 69.6297 52.975 69.5509 53.476 69.7751C53.7657 69.9083 53.9528 70.1385 53.989 70.4292C54.0494 70.8351 53.8321 71.6891 53.5544 72.7733C53.319 73.694 53.0534 74.7298 52.9206 75.6626C52.6913 77.2133 51.7194 78.0249 51.1399 78.5034C50.9649 78.6488 50.8019 78.7821 50.7597 78.8608C50.7114 78.9517 50.651 79.091 50.5725 79.2545C50.2587 79.9511 49.7275 81.1141 48.9729 81.5805C48.653 81.7743 48.2788 81.8409 47.9106 81.8409V81.847ZM46.7999 81.1746C47.2043 81.3018 48.1339 81.532 48.7194 81.1746C49.3472 80.787 49.8361 79.7088 50.1259 79.0667C50.2104 78.879 50.2768 78.7336 50.3311 78.6367C50.4156 78.4792 50.5906 78.3338 50.8261 78.14C51.3874 77.6736 52.2385 76.971 52.4377 75.602C52.5766 74.645 52.8482 73.5911 53.0836 72.6643C53.3251 71.7194 53.5544 70.8229 53.5061 70.508C53.5001 70.4595 53.482 70.3202 53.2647 70.2233C52.9146 70.0658 52.317 70.1324 51.9307 70.3808C51.4478 70.6957 51.3633 70.8956 51.1943 71.2954C51.152 71.3984 51.1037 71.5135 51.0434 71.6407C50.9468 71.8587 50.7234 72.7491 50.488 73.7001C49.8361 76.3531 49.4921 77.5827 49.1842 77.8614C48.9971 78.031 48.7194 78.1824 48.4236 78.3399C47.9045 78.6185 47.319 78.9335 47.2164 79.3454C47.0715 79.9269 46.8723 80.7809 46.7818 81.1746H46.7999Z" fill="#1A2E35"/>
<path d="M52.5799 74.1736C52.5316 74.1736 52.4833 74.1615 52.441 74.1312L52.1875 73.9495C51.7831 73.6588 51.9823 71.878 52.0547 71.3389C52.0909 71.0603 52.1996 70.8725 52.3686 70.7877C52.5316 70.7089 52.7066 70.7453 52.8093 70.7998C52.9239 70.8664 52.9662 71.0118 52.9058 71.1269C52.8455 71.242 52.7006 71.2844 52.5859 71.2238C52.5859 71.2359 52.5557 71.2844 52.5376 71.3995C52.429 72.2293 52.3867 73.3862 52.5014 73.574L52.7247 73.7315C52.8334 73.8102 52.8575 73.9616 52.7791 74.0707C52.7308 74.1373 52.6583 74.1736 52.5799 74.1736Z" fill="#1A2E35"/>
<path d="M53.0534 71.1066C52.9689 71.1066 52.8905 71.0642 52.8422 70.9855C52.7758 70.8704 52.818 70.719 52.9327 70.6523L53.6329 70.2465C53.7476 70.1799 53.8985 70.2223 53.9649 70.3374C54.0313 70.4525 53.989 70.6039 53.8744 70.6705L53.1742 71.0763C53.1379 71.1006 53.0957 71.1066 53.0534 71.1066Z" fill="#1A2E35"/>
<path d="M34.3706 79.7223C34.3706 79.7223 36.0728 82.7932 37.1895 83.1324C38.3062 83.4716 41.1251 83.7684 41.8012 83.9138C42.4772 84.0592 44.6684 85.0344 45.6402 84.0107C46.612 82.9871 47.2941 81.0851 47.6321 80.013C47.9702 78.9409 48.4591 77.8203 48.4591 77.8203L33.9903 78.5532L34.3766 79.7223H34.3706Z" fill="#E0E0E0"/>
<path d="M44.3501 84.7192C43.6016 84.7192 42.8048 84.4709 42.2313 84.2892C42.0322 84.2286 41.8692 84.1741 41.7485 84.1499C41.5251 84.1014 41.0301 84.0348 40.4567 83.956C39.3038 83.7985 37.8672 83.5987 37.1187 83.3685C35.9416 83.0111 34.342 80.1642 34.1609 79.8432C34.1549 79.8311 34.1489 79.819 34.1428 79.8008L33.7565 78.6318C33.7324 78.5591 33.7444 78.4804 33.7867 78.4198C33.8289 78.3592 33.9014 78.3168 33.9738 78.3168L48.4426 77.5839C48.5271 77.5718 48.6056 77.6202 48.6539 77.6869C48.7022 77.7535 48.7082 77.8443 48.678 77.9231C48.678 77.9352 48.1951 79.0437 47.8631 80.0916C47.2535 82.0177 46.5653 83.3927 45.8169 84.1801C45.4366 84.586 44.9114 84.7192 44.3561 84.7192H44.3501ZM34.5895 79.6252C35.0603 80.4671 36.4245 82.6477 37.2515 82.9021C37.9637 83.1201 39.4426 83.3261 40.5171 83.4715C41.1207 83.5563 41.6036 83.6229 41.845 83.6713C41.9718 83.7016 42.1529 83.7561 42.3702 83.8228C43.2635 84.1014 44.7666 84.5678 45.4547 83.8409C46.1428 83.1201 46.8128 81.7694 47.3923 79.9401C47.6157 79.2375 47.9054 78.5046 48.0744 78.0806L34.3058 78.7772L34.5895 79.6252Z" fill="#1A2E35"/>
<path d="M43.3945 28.0661C43.3945 28.0661 43.159 26.5942 43.0504 26.1581C42.9357 25.722 41.7828 23.9169 41.3784 23.7352L40.9739 23.5535C40.9739 23.5535 39.5192 17.1814 38.6198 15.552C37.7204 13.9287 36.4588 13.0867 35.982 12.905C35.5051 12.7233 34.5454 9.65838 34.1832 8.75587C33.821 7.85335 33.1631 4.30385 30.7667 3.7042C28.3703 3.10454 25.6721 7.25369 24.8331 8.33792C23.9941 9.42216 26.2094 4.60671 25.9739 2.98339C25.7385 1.36007 23.5776 -1.40805 17.2214 4.30385C10.8653 10.0158 10.6299 11.2817 11.4086 12.5416C12.1872 13.8075 16.3824 8.33187 15.6641 10.3186C14.9458 12.3054 12.7848 14.8312 12.2476 16.7574C11.7104 18.6836 12.308 19.9434 13.0263 20.3069C13.7446 20.6703 15.3683 20.9489 15.3683 20.9489C15.3683 20.9489 17.0283 20.8944 17.5836 21.27L18.1389 21.6455L22.2074 25.2071C22.2074 25.2071 22.7084 27.206 22.8049 27.7693C22.9015 28.3326 23.2818 30.1134 23.7043 30.4768C24.1269 30.8403 27.8331 32.5847 27.8331 32.5847C27.8331 32.5847 27.9417 33.4873 28.6118 34.1475C29.2818 34.8077 30.0846 35.0137 30.0846 35.0137C30.0846 35.0137 30.7788 30.8342 34.9739 29.332C39.1691 27.8299 42.7667 28.0116 42.7667 28.0116L43.4065 28.0722L43.3945 28.0661Z" fill="#00953B"/>
<path d="M30.0755 35.3172C30.0453 35.3172 30.0091 35.3172 29.9789 35.299C29.9427 35.2869 29.1339 35.0144 28.4035 34.3723C27.8059 33.8453 27.6067 33.1063 27.5463 32.7793C27.1661 32.5794 26.0252 31.9918 24.498 31.2953C22.8924 30.5623 22.7838 29.6174 22.6993 28.9269C22.6751 28.7331 22.657 28.5635 22.6087 28.4363C22.494 28.1213 22.4276 27.6186 22.3612 27.0855C22.2888 26.498 22.1741 25.6076 21.987 25.4198C21.818 25.2502 21.1479 24.6808 20.4417 24.0812C19.0836 22.9303 18.1057 22.0944 17.9005 21.834C17.653 21.5251 16.1319 21.1677 15.4015 21.2525C14.4538 21.3615 10.6087 20.3439 9.11174 15.9282C7.72341 11.8336 5.45983 11.2703 5.44172 11.2642C5.27875 11.2279 5.17613 11.0643 5.21235 10.9008C5.24857 10.7373 5.40551 10.6343 5.56848 10.6706C5.6711 10.6949 8.17613 11.2763 9.68518 15.7284C11.158 20.0774 14.828 20.7073 15.3351 20.6468C16.162 20.5559 17.9246 20.8951 18.3713 21.4524C18.5584 21.6886 19.8743 22.8031 20.8341 23.6148C21.5826 24.2508 22.2284 24.802 22.4156 24.9837C22.7234 25.2926 22.8321 25.9831 22.9588 27.0007C23.0192 27.4793 23.0795 27.9699 23.1761 28.2182C23.2486 28.4181 23.2787 28.6301 23.3029 28.8542C23.3753 29.4902 23.4538 30.1505 24.7516 30.7441C26.6409 31.6042 27.9568 32.3068 27.9689 32.3129C28.0594 32.3613 28.1198 32.4522 28.1258 32.5491C28.1258 32.5552 28.2164 33.3971 28.8019 33.912C29.0554 34.1361 29.327 34.3117 29.5564 34.4389C29.4296 33.912 29.3572 33.1306 29.6349 32.2462C30.0997 30.7743 31.3673 29.5084 33.3954 28.4908C38.0011 26.177 41.9427 27.2248 43.1439 27.6489C43.1318 27.4005 43.0534 26.9704 42.7636 26.2739C42.1962 24.8928 40.7958 23.8086 40.7837 23.7965C40.7355 23.7602 40.6992 23.7056 40.6811 23.6451C40.6449 23.53 39.8059 20.8285 39.6308 19.6049C39.4497 18.3451 38.7556 15.9828 38.2002 15.0257C37.9226 14.5472 37.325 14.1535 36.7516 13.7719C36.1721 13.3903 35.6228 13.0269 35.4176 12.5665C35.3029 12.3061 35.0675 11.5731 34.7415 10.5616C34.0775 8.50217 33.0755 5.39485 32.5021 4.54079C31.657 3.26878 29.7737 1.03369 29.7556 1.00946C29.6469 0.882261 29.665 0.688432 29.7918 0.579403C29.9186 0.470374 30.1117 0.488546 30.2143 0.615746C30.2928 0.706603 32.1399 2.8993 33.0031 4.20158C33.6188 5.12833 34.5966 8.16297 35.3149 10.3738C35.6107 11.2945 35.8703 12.088 35.9729 12.3182C36.1057 12.615 36.6007 12.9421 37.0835 13.2631C37.6872 13.6629 38.3753 14.1172 38.7254 14.7168C39.3833 15.8495 40.0715 18.3511 40.2344 19.5141C40.3854 20.5741 41.0856 22.8879 41.2365 23.3725C41.5564 23.633 42.7757 24.6869 43.331 26.0376C43.9467 27.5398 43.7355 28.085 43.657 28.2182C43.5785 28.3515 43.4155 28.3999 43.2767 28.3394C43.2344 28.3212 38.834 26.4374 33.6731 29.0299C31.8019 29.9687 30.6369 31.1075 30.2204 32.4158C29.7858 33.7787 30.3411 34.8569 30.3471 34.869C30.4075 34.978 30.3894 35.1113 30.3109 35.2082C30.2506 35.2748 30.166 35.3172 30.0815 35.3172H30.0755Z" fill="#1A2E35"/>
<path d="M39.7682 23.6008C39.7682 23.6008 39.7562 23.6008 39.7501 23.6008C39.7441 23.6008 39.1465 23.5706 38.2471 23.5706C38.0962 23.5706 37.9453 23.4373 37.9453 23.2677C37.9453 23.0799 38.1264 22.9648 38.3075 22.9648C39.2008 22.9648 39.7682 22.9951 39.7924 23.0012C39.9614 23.0133 40.0882 23.1526 40.0761 23.3222C40.064 23.4858 39.9312 23.6069 39.7743 23.6069L39.7682 23.6008Z" fill="#1A2E35"/>
<path d="M26.011 31.6725C26.011 31.6725 25.9989 31.6725 25.9929 31.6725C25.8239 31.6604 25.7032 31.515 25.7092 31.3515C25.7213 31.1819 26.011 27.1902 29.1197 24.8764C31.0271 23.4529 34.5522 23.0592 37.172 22.9805C37.3289 22.9865 37.4798 23.1077 37.4858 23.2712C37.4858 23.4408 37.3591 23.5801 37.1961 23.5862C33.6166 23.6952 30.8762 24.3312 29.4879 25.367C26.6146 27.5112 26.3249 31.3575 26.3189 31.3939C26.3068 31.5514 26.174 31.6786 26.017 31.6786L26.011 31.6725Z" fill="#1A2E35"/>
<path d="M30.5789 9.46769C30.4702 9.46769 30.3676 9.41318 30.3133 9.31021C30.2348 9.16484 30.2892 8.97706 30.434 8.89832C31.4843 8.32289 32.2388 8.1654 32.269 8.15935C32.432 8.123 32.5889 8.23203 32.6252 8.39558C32.6553 8.55912 32.5527 8.71661 32.3898 8.75295C32.3837 8.75295 31.6835 8.89832 30.7238 9.43135C30.6755 9.45558 30.6272 9.46769 30.5789 9.46769Z" fill="#1A2E35"/>
<path d="M22.7969 24.5894C22.7969 24.5894 22.7607 24.5894 22.7426 24.5894C22.5796 24.5591 22.4709 24.4016 22.5011 24.2381C22.5072 24.1896 23.3583 19.5256 25.646 14.3588C26.3462 12.7779 27.2818 11.4332 28.4227 10.3672C28.5434 10.2521 28.7365 10.2581 28.8512 10.3853C28.9659 10.5065 28.9599 10.7003 28.8331 10.8154C27.7466 11.8269 26.8593 13.105 26.1953 14.6072C23.9377 19.7073 23.1047 24.3047 23.0927 24.3471C23.0685 24.4925 22.9418 24.5954 22.7969 24.5954V24.5894Z" fill="#1A2E35"/>
<path d="M22.2217 17.7474C22.0527 17.7474 21.9199 17.6141 21.9199 17.4445C21.9199 13.6103 25.3545 7.95901 25.4994 7.72278C25.5899 7.5774 25.771 7.535 25.9159 7.62586C26.0608 7.71066 26.103 7.89843 26.0125 8.04381C25.9763 8.09832 22.5235 13.786 22.5235 17.4506C22.5235 17.6202 22.3907 17.7534 22.2217 17.7534V17.7474Z" fill="#1A2E35"/>
<path d="M52.7769 66.4074C52.7286 66.0198 52.632 65.3353 52.632 65.3353C52.632 65.3353 52.2457 59.4902 52.2457 54.178C52.2457 48.8659 52.1974 46.6247 51.4671 44.8197C50.7367 43.0147 49.4751 41.458 49.4751 41.458C49.4751 41.458 45.9801 34.783 45.0566 32.5903C44.1331 30.3976 43.3966 28.0717 43.3966 28.0717C43.3966 28.0717 41.6582 26.3514 37.1431 26.5513C32.628 26.7512 29.8574 29.3316 29.2296 31.0821C28.5958 32.8386 30.0747 35.0192 30.0747 35.0192C30.0747 35.0192 35.6944 41.4459 37.0888 42.7663C38.4832 44.0868 39.8836 48.0421 39.7991 49.4474C39.7145 50.8466 35.6884 53.7359 34.8675 55.7165C34.0465 57.6972 32.7307 61.7374 31.4993 64.2087C30.2679 66.68 28.789 69.4057 28.457 70.6414C28.1311 71.877 26.0727 75.0934 25.9942 76.0807C25.9097 77.068 27.1834 77.5223 27.7689 77.5223C28.3544 77.5223 29.0305 77.3769 29.0305 77.3769C29.0305 77.3769 28.6441 78.0614 30.292 78.6429C31.9459 79.2304 36.6542 80.3026 37.4329 80.1996C38.2115 80.1027 38.9359 79.3698 39.8594 78.6914C40.783 78.0069 45.8836 74.3544 46.1733 74.1606C46.463 73.9668 49.1854 71.9194 50.2538 71.235C51.3222 70.5505 52.4872 69.5269 52.632 68.5577C52.7769 67.5825 52.8252 66.8011 52.7769 66.4135V66.4074ZM36.0747 72.6948C34.958 73.7669 34.1793 75.7173 34.1793 75.7173C34.1793 75.7173 32.3323 75.0328 31.9459 75.1297C31.9459 75.1297 32.8695 74.2999 33.4007 73.4216C33.9319 72.5433 35.3443 69.6722 35.5858 68.9878C35.8272 68.3033 37.8675 68.4002 37.8675 69.2301C37.8675 70.0599 37.1854 71.6166 36.0687 72.6887L36.0747 72.6948Z" fill="#E0E0E0"/>
<path d="M37.3238 80.4433C36.1649 80.4433 31.7283 79.4014 30.2192 78.8623C29.4345 78.5837 28.9576 78.2384 28.8067 77.8266C28.7826 77.772 28.7705 77.7175 28.7645 77.663C28.5049 77.7054 28.1246 77.7539 27.7745 77.7539C27.2856 77.7539 26.5371 77.5055 26.1085 77.0452C25.849 76.7605 25.7283 76.4213 25.7584 76.0518C25.8067 75.4703 26.4164 74.3074 27.0562 73.0777C27.5633 72.1086 28.0824 71.1092 28.2273 70.5701C28.4868 69.6009 29.4164 67.7777 30.4003 65.8455C30.6961 65.264 30.9979 64.6704 31.2876 64.0889C32.0844 62.4898 32.9053 60.2608 33.6297 58.2983C34.0039 57.2746 34.36 56.3055 34.6498 55.6089C35.0663 54.6095 36.2132 53.4404 37.3178 52.3077C38.3983 51.1993 39.521 50.0545 39.5572 49.4185C39.6357 48.1041 38.2655 44.1972 36.9194 42.9313C35.5311 41.6169 30.1166 35.4325 29.8872 35.166C29.8087 35.0509 28.3299 32.834 28.9939 30.9865C29.6095 29.2845 32.356 26.4982 37.1246 26.2983C41.694 26.0924 43.4868 27.8186 43.5592 27.8913C43.5894 27.9216 43.6075 27.9519 43.6196 27.9882C43.6256 28.0125 44.362 30.3324 45.2735 32.4887C46.1789 34.6451 49.6498 41.2716 49.686 41.3382C49.7101 41.3625 50.9536 42.907 51.684 44.7242C52.4445 46.614 52.4808 48.9824 52.4808 54.1733C52.4808 59.3643 52.861 65.2398 52.8671 65.3125C52.8671 65.3125 52.9636 65.9848 53.0119 66.3725C53.0663 66.7965 53.0119 67.6021 52.8671 68.5833C52.6799 69.8372 51.0622 70.9941 50.3802 71.4302C49.6437 71.9027 48.0743 73.0596 47.1327 73.7501C46.7101 74.0651 46.3963 74.2952 46.3057 74.3558C46.022 74.5436 40.9033 78.2142 40.0039 78.8805C39.7926 79.038 39.5934 79.1955 39.4003 79.3469C38.7182 79.886 38.1266 80.3524 37.4627 80.4372C37.4204 80.4372 37.3721 80.4433 37.3178 80.4433H37.3238ZM29.2474 77.4874C29.2474 77.4874 29.2172 77.56 29.2655 77.6751C29.3258 77.8266 29.5552 78.1173 30.3822 78.408C32.1327 79.0259 36.7323 80.0435 37.4083 79.9526C37.9395 79.886 38.4767 79.462 39.1045 78.9653C39.3037 78.8078 39.5089 78.6503 39.7202 78.4868C40.6498 77.8023 45.7323 74.1559 46.0401 73.95C46.1307 73.8894 46.4325 73.6653 46.849 73.3564C47.851 72.6174 49.3721 71.5029 50.1206 71.0183C51.4305 70.1824 52.2816 69.2436 52.3902 68.5046C52.529 67.5839 52.5834 66.8025 52.5351 66.427C52.4868 66.0393 52.3902 65.3609 52.3902 65.3609C52.3902 65.2822 51.9979 59.4249 51.9979 54.1673C51.9979 48.9097 51.9375 46.6261 51.2373 44.9059C50.5311 43.1614 49.2936 41.6229 49.2816 41.6047C49.2212 41.4957 45.7443 34.8571 44.8268 32.6765C43.9938 30.7019 43.3057 28.5879 43.179 28.2002C42.8953 27.958 41.1146 26.6133 37.1427 26.7829C32.6095 26.9767 30.014 29.5692 29.4466 31.1561C28.8671 32.7734 30.2494 34.851 30.2675 34.8752C30.3037 34.9176 35.8751 41.2837 37.2514 42.5799C38.7182 43.967 40.1186 48.0435 40.0401 49.4488C39.9918 50.2665 38.9114 51.3689 37.6619 52.6469C36.5814 53.7493 35.4707 54.882 35.0904 55.7967C34.8067 56.4872 34.4506 57.4442 34.0763 58.4679C33.346 60.4486 32.525 62.6897 31.7162 64.307C31.4264 64.8885 31.1246 65.4821 30.8289 66.0636C29.857 67.9716 28.9395 69.7705 28.6981 70.6912C28.5411 71.2848 28.0281 72.2661 27.4848 73.3019C26.9174 74.38 26.2776 75.6096 26.2413 76.0942C26.2232 76.3244 26.2957 76.5303 26.4647 76.7181C26.8087 77.0936 27.4486 77.2754 27.7745 77.2754C28.3238 77.2754 28.9818 77.136 28.9878 77.136C29.0784 77.1179 29.1749 77.1542 29.2353 77.233C29.2896 77.3117 29.2957 77.4147 29.2474 77.4934V77.4874ZM34.185 75.9549C34.185 75.9549 34.1307 75.9549 34.1005 75.9428C33.2494 75.6278 32.2051 75.3189 32.0059 75.3674C31.8973 75.3916 31.7886 75.3371 31.7343 75.2402C31.68 75.1432 31.7041 75.0221 31.7826 74.9494C31.7886 74.9433 32.688 74.1317 33.1951 73.2958C33.7323 72.4115 35.1327 69.5464 35.356 68.9044C35.5492 68.3713 36.3761 68.2078 37.0643 68.3289C37.7162 68.444 38.1085 68.7772 38.1085 69.2314C38.1085 70.134 37.4083 71.7452 36.2373 72.8657C35.1749 73.8894 34.4083 75.7853 34.4023 75.8035C34.3661 75.9004 34.2755 75.9549 34.179 75.9549H34.185ZM32.4949 74.9373C33.0019 75.0403 33.6598 75.2644 34.0522 75.4037C34.2936 74.8585 34.9818 73.4048 35.9114 72.5144C36.9435 71.5271 37.6317 70.0189 37.6317 69.2314C37.6317 69.0013 37.2876 68.862 36.9858 68.8074C36.4124 68.7105 35.8872 68.868 35.8148 69.0679C35.5552 69.8008 34.1307 72.684 33.6116 73.5441C33.2796 74.0832 32.8148 74.6041 32.4888 74.9312L32.4949 74.9373Z" fill="#1A2E35"/>
<path d="M28.9409 77.1132C28.9047 77.1132 28.8625 77.1011 28.8263 77.0829C28.7116 77.0224 28.6633 76.8709 28.7297 76.7558C28.9591 76.3318 29.3393 75.6232 29.1401 74.7267C28.9591 73.9029 27.6613 73.4668 27.6492 73.4608C27.5224 73.4184 27.456 73.2851 27.4923 73.1579C27.5345 73.0307 27.6673 72.958 27.7941 73.0004C27.8605 73.0186 29.3635 73.5213 29.6049 74.6177C29.8403 75.6958 29.3937 76.5317 29.1522 76.986C29.11 77.0648 29.0255 77.1132 28.9409 77.1132Z" fill="#1A2E35"/>
<path d="M39.0544 64.0475C39.0544 64.0475 39.0182 64.0475 38.994 64.0415C38.8672 64.0112 38.7888 63.8779 38.819 63.7447C38.8733 63.5327 38.9216 63.3267 38.9638 63.1329C39 62.9633 39.0363 62.8058 39.0725 62.6665C39.1027 62.5393 39.2355 62.4606 39.3683 62.4909C39.495 62.5211 39.5735 62.6544 39.5433 62.7877C39.5071 62.927 39.4769 63.0784 39.4347 63.248C39.3924 63.4418 39.3441 63.6538 39.2898 63.8719C39.2596 63.9809 39.163 64.0536 39.0544 64.0536V64.0475Z" fill="#1A2E35"/>
<path d="M36.0009 68.6222C35.9466 68.6222 35.8923 68.604 35.844 68.5677C35.7414 68.4829 35.7293 68.3314 35.8138 68.2285C35.8379 68.1982 36.4476 67.4713 37.5462 66.3689C37.9385 65.9752 38.2524 65.4664 38.4999 64.8122C38.5482 64.685 38.687 64.6244 38.8138 64.6729C38.9405 64.7214 39.0009 64.8607 38.9526 64.9879C38.681 65.7087 38.3309 66.272 37.8902 66.7142C36.8098 67.7984 36.1941 68.5374 36.188 68.5434C36.1397 68.604 36.0733 68.6282 36.0009 68.6282V68.6222Z" fill="#1A2E35"/>
<path d="M39.0843 69.9189C39.042 69.9189 38.9937 69.9068 38.9515 69.8826C38.8368 69.8099 38.8066 69.6584 38.879 69.5434C38.9816 69.3738 39.5853 68.9437 40.0501 68.6287L39.8569 68.3864C39.4163 67.8352 39.8629 66.8479 39.9173 66.7389C39.9776 66.6177 40.1165 66.5693 40.2372 66.6238C40.3579 66.6783 40.4062 66.8237 40.3519 66.9448C40.2553 67.1568 40.0199 67.8171 40.2311 68.0836L40.5873 68.5318C40.6295 68.5863 40.6476 68.653 40.6356 68.7196C40.6235 68.7862 40.5873 68.8468 40.5329 68.8831C39.9957 69.2405 39.3619 69.6948 39.2774 69.8038C39.2352 69.8765 39.1567 69.9128 39.0782 69.9128L39.0843 69.9189Z" fill="#1A2E35"/>
<path d="M29.0346 77.6146C28.9139 77.6146 28.8113 77.5237 28.7932 77.4026C28.7751 77.2693 28.8717 77.1482 29.0045 77.1361C29.9582 77.027 31.3163 75.5491 31.757 74.9858C31.8415 74.8828 31.9924 74.8646 32.095 74.9434C32.1976 75.0282 32.2157 75.1796 32.1373 75.2826C32.0648 75.3734 30.4109 77.4571 29.0648 77.6146C29.0528 77.6146 29.0467 77.6146 29.0346 77.6146Z" fill="#1A2E35"/>
<path d="M28.5907 61.7422C28.5907 61.7422 27.2446 62.1117 26.816 63.5836C26.3875 65.0615 27.4921 65.1827 27.8543 67.0846C28.2225 68.9926 28.5907 71.0763 29.7557 70.834C30.9207 70.5856 31.9589 69.6044 32.5142 67.5752C33.0696 65.5461 32.635 62.8446 31.7778 62.2268" fill="white"/>
<path d="M29.5699 71.1013C29.3707 71.1013 29.1836 71.0407 29.0146 70.9317C28.254 70.4229 27.9462 68.8359 27.6504 67.2974L27.6202 67.1399C27.4693 66.3525 27.1856 65.8921 26.9382 65.4863C26.6001 64.9351 26.3104 64.4566 26.582 63.5238C27.0408 61.9368 28.4653 61.531 28.5257 61.5128C28.6524 61.4765 28.7852 61.5552 28.8215 61.6824C28.8577 61.8096 28.7792 61.9429 28.6524 61.9792C28.6042 61.9913 27.4271 62.3366 27.0408 63.657C26.8295 64.3839 27.0227 64.7049 27.3426 65.2319C27.5961 65.6498 27.916 66.1768 28.085 67.049L28.1152 67.2065C28.3808 68.5815 28.6766 70.1321 29.2742 70.5319C29.4009 70.6167 29.5398 70.6409 29.6967 70.6107C30.8979 70.3563 31.7913 69.2902 32.2681 67.5276C32.8114 65.5347 32.3647 62.9726 31.6283 62.4395C31.5196 62.3608 31.4955 62.2094 31.574 62.1003C31.6524 61.9913 31.8033 61.9671 31.912 62.0458C32.8899 62.7424 33.3064 65.5771 32.739 67.6548C32.0689 70.12 30.7711 70.8772 29.7993 71.0831C29.7208 71.1013 29.6424 71.1073 29.5639 71.1073L29.5699 71.1013Z" fill="#1A2E35"/>
<path d="M29.1232 70.742C29.081 70.742 29.0387 70.7299 28.9965 70.7056C28.8818 70.639 28.8456 70.4876 28.912 70.3725C28.912 70.3604 29.4613 69.4579 29.8898 68.8097C30.2882 68.2101 30.4452 67.8164 30.1494 66.8169C30.0468 66.4777 29.8536 66.2839 29.6122 66.29C29.3345 66.3021 28.9904 66.611 28.8576 67.2652C28.586 68.5675 28.8878 69.9606 28.8939 69.9727C28.924 70.106 28.8395 70.2332 28.7128 70.2635C28.586 70.2938 28.4532 70.2089 28.423 70.0817C28.411 70.0212 28.091 68.5735 28.3868 67.1683C28.5558 66.3627 29.0327 65.8296 29.5941 65.8054C30.0588 65.7872 30.4452 66.1204 30.6142 66.6776C30.9522 67.8043 30.7832 68.3494 30.2943 69.0823C29.8717 69.7183 29.3345 70.6148 29.3285 70.6208C29.2862 70.6935 29.2017 70.7359 29.1232 70.7359V70.742Z" fill="#1A2E35"/>
<path d="M33.9395 72.5514C33.9395 72.5514 36.1246 75.0833 36.8067 75.6709C37.4887 76.2584 39.4264 75.7193 39.9153 75.4286C40.3982 75.1378 45.0642 73.7205 46.1326 73.1874C47.201 72.6544 48.366 71.237 48.704 70.8009C49.0421 70.3648 50.3036 69.438 50.4545 68.6567C50.6054 67.8753 49.7724 66.7547 48.0763 67.2938C46.3801 67.8329 43.2231 69.3411 43.2231 69.3411L39.0944 69.6803C39.0944 69.6803 36.861 67.7784 35.5994 68.9959L33.9455 72.5514H33.9395Z" fill="white"/>
<path d="M37.7907 76.1753C37.3379 76.1753 36.9214 76.0905 36.6498 75.8542C35.9617 75.2667 33.849 72.8135 33.7585 72.7106C33.6981 72.6379 33.68 72.5349 33.7222 72.4501L35.3701 68.8945C35.3701 68.8945 35.4003 68.84 35.4245 68.8219C36.7041 67.5923 38.7323 69.0884 39.1669 69.4276L43.1508 69.1005C43.5371 68.9127 46.3862 67.568 47.9979 67.0592C49.187 66.6837 49.8812 67.0835 50.183 67.3621C50.5754 67.7134 50.7685 68.2343 50.684 68.7007C50.5693 69.3246 49.8993 69.9606 49.3621 70.4694C49.1629 70.6572 48.9818 70.8328 48.8912 70.9479C48.6558 71.2568 47.4063 72.8135 46.2353 73.4011C45.6438 73.6979 44.0019 74.2491 42.5593 74.7336C41.4184 75.1152 40.2414 75.515 40.0361 75.6362C39.686 75.8482 38.6719 76.1753 37.7907 76.1753ZM34.2233 72.5107C34.6639 73.0134 36.3842 74.988 36.9577 75.4847C37.4949 75.9451 39.2756 75.5211 39.7826 75.2182C40.018 75.0789 40.9295 74.77 42.4023 74.2733C43.8329 73.7948 45.4566 73.2496 46.018 72.965C47.1226 72.4138 48.3721 70.8268 48.511 70.6451C48.6257 70.4997 48.8128 70.318 49.0301 70.112C49.4888 69.6759 50.1226 69.0763 50.2132 68.6038C50.2675 68.3009 50.1347 67.9557 49.8691 67.7134C49.6397 67.5075 49.1086 67.2107 48.1488 67.5135C46.4828 68.0405 43.356 69.5305 43.3259 69.5487C43.3017 69.5608 43.2715 69.5669 43.2414 69.5729L39.1126 69.9121C39.0462 69.9121 38.9858 69.9 38.9375 69.8576C38.9194 69.8395 36.8913 68.1435 35.7987 69.1368L34.2353 72.5107H34.2233Z" fill="#1A2E35"/>
<path d="M47.9101 71.2389C47.8075 71.2389 47.7049 71.2147 47.6022 71.1663C47.2461 70.9967 46.9684 70.5303 46.9141 70.0215C46.8417 69.3612 47.7773 68.5072 48.6586 67.7561C48.7431 67.6834 48.8155 67.6228 48.8638 67.5804C49.3346 67.1564 50.1556 67.5683 50.2521 67.6168C50.3729 67.6773 50.4151 67.8227 50.3548 67.9438C50.2944 68.065 50.1495 68.1074 50.0288 68.0468C49.8296 67.9438 49.3648 67.7803 49.1898 67.9378C49.1415 67.9862 49.063 68.0468 48.9725 68.1256C48.568 68.4648 47.3487 69.5066 47.397 69.9669C47.4393 70.3546 47.6385 70.6453 47.8135 70.7301C47.9041 70.7725 47.9584 70.7544 48.0006 70.7301C48.1153 70.6575 48.2602 70.6938 48.3326 70.8028C48.4051 70.9119 48.3688 71.0633 48.2602 71.136C48.1515 71.2026 48.0308 71.2389 47.9101 71.2389Z" fill="#1A2E35"/>
<path d="M38.3496 79.7619C38.3496 79.7619 40.4381 82.8329 41.6031 82.5422C42.7681 82.2514 48.5448 78.6898 49.3717 78.1568C50.1987 77.6237 50.585 76.0125 51.1222 74.2075C51.6534 72.4025 52.0941 71.3788 51.9009 70.9427C51.7077 70.5066 50.3013 70.3067 49.082 71.0881C47.8687 71.8694 46.752 73.7653 46.752 73.7653L38.3496 79.7559V79.7619Z" fill="white"/>
<path d="M41.4526 82.8038C40.1669 82.8038 38.362 80.2114 38.1508 79.9025C38.0783 79.7934 38.1025 79.642 38.2111 79.5693L46.5713 73.603C46.7524 73.3002 47.7966 71.6284 48.9556 70.8894C49.8731 70.3019 50.9113 70.2231 51.527 70.4109C51.8288 70.5017 52.0341 70.6532 52.1186 70.847C52.2997 71.2589 52.0944 71.9009 51.7262 73.0639C51.6115 73.4213 51.4848 73.8271 51.352 74.2754L51.189 74.8447C50.7242 76.4499 50.3198 77.8309 49.5049 78.3579C49.0039 78.6789 42.9254 82.4586 41.6639 82.7736C41.5975 82.7917 41.525 82.7978 41.4526 82.7978V82.8038ZM38.688 79.8237C39.4848 80.9503 40.8671 82.4828 41.5492 82.3071C42.6236 82.0406 48.2192 78.6183 49.2453 77.952C49.9093 77.522 50.2896 76.2197 50.7242 74.7115L50.8932 74.1421C51.026 73.6878 51.1588 73.282 51.2735 72.9186C51.5632 72.01 51.7926 71.2892 51.684 71.0469C51.6719 71.0166 51.5934 70.9379 51.3942 70.8773C50.8993 70.7259 50.0059 70.7925 49.2212 71.2952C48.0683 72.0342 46.9818 73.8756 46.9697 73.8938C46.9516 73.924 46.9274 73.9483 46.9033 73.9664L38.7001 79.8177L38.688 79.8237Z" fill="#1A2E35"/>
<path d="M50.3202 74.6263C50.2417 74.6263 50.1572 74.6142 50.0666 74.59C49.3604 74.378 49.6441 72.5185 49.795 71.8885C50.0847 70.6892 51.0445 70.5923 51.0868 70.5862C51.2196 70.5802 51.3342 70.671 51.3463 70.8043C51.3584 70.9375 51.2618 71.0526 51.129 71.0647C51.0988 71.0647 50.465 71.1495 50.2658 71.9975C50.0002 73.0939 50.0908 74.0146 50.2236 74.1297C50.4409 74.1902 50.6703 74.0206 50.6763 74.0146C50.7849 73.9358 50.9358 73.954 51.0143 74.063C51.0928 74.166 51.0747 74.3174 50.9721 74.4022C50.96 74.4144 50.6823 74.6263 50.3262 74.6263H50.3202Z" fill="#1A2E35"/>
<path d="M46.1362 75.3135C46.0336 75.3135 45.943 75.2529 45.9068 75.1499C45.5748 74.2111 46.5829 73.5872 46.6251 73.5569C46.7398 73.4902 46.8847 73.5266 46.9571 73.6356C47.0235 73.7507 46.9873 73.8961 46.8786 73.9688C46.8485 73.9869 46.1664 74.417 46.3656 74.9803C46.4078 75.1075 46.3414 75.2468 46.2207 75.2892C46.1966 75.3013 46.1664 75.3013 46.1422 75.3013L46.1362 75.3135Z" fill="#1A2E35"/>
<path d="M17.6078 47.2917C17.3845 47.2917 17.1732 47.3401 16.9861 47.4492C16.3462 47.8187 15.9539 48.382 15.8332 49.0846C15.6883 49.9629 16.0082 50.9866 16.6722 51.7558C16.8472 51.9557 17.5354 52.5675 17.9881 52.8764L18.1813 53.0157C19.9257 54.2756 22.4609 55.7778 23.1068 56.1533C23.7527 55.378 26.9579 51.4227 27.2778 49.0846C27.2899 48.9816 27.302 48.8787 27.308 48.7817H27.5193L27.308 48.7696C27.3623 48.0791 27.0967 47.5158 27.0907 47.5097C26.8432 46.9707 26.3845 46.5709 25.805 46.3771C25.1048 46.1469 24.308 46.2317 23.6199 46.6133C21.9116 47.5582 21.8814 49.6479 21.8814 49.6661C21.8814 49.7569 21.8271 49.8357 21.7426 49.866C21.6581 49.8963 21.5676 49.8781 21.5072 49.8115C20.807 49.024 18.9418 47.2917 17.5957 47.2917H17.6078Z" fill="#00953B"/>
<path d="M55.9863 63.9904H55.9622C55.5759 64.0025 55.2499 64.1661 55.0205 64.4689C54.7308 64.8445 54.6282 65.4018 54.7489 65.9227C54.936 66.7525 56.3787 69.1208 56.6624 69.5751C56.9038 69.4782 57.6101 69.1814 58.3586 68.7816L58.926 68.4606C59.6201 68.0427 60.103 67.6611 60.3505 67.3158C60.6825 66.8555 60.7429 66.377 60.5316 65.9651C60.3082 65.529 59.8193 65.2503 59.2761 65.2503H59.2579C58.2258 65.2685 57.6946 66.2376 57.6946 66.2437C57.6765 66.28 57.6402 66.2982 57.598 66.2982H57.5859C57.5437 66.2922 57.5074 66.2558 57.4954 66.2134C57.4954 66.1952 56.94 63.9844 55.9863 63.9844V63.9904Z" fill="#00953B"/>
</svg>
