<svg viewBox="0 0 95 97" fill="none" xmlns="http://www.w3.org/2000/svg">
<g clip-path="url(#clip0_28814_279327)">
<path d="M13.1989 51.6524C13.1144 51.6524 13.0469 51.5795 13.0469 51.4955L13.9928 17.5726C14.0041 17.4886 14.0773 17.4157 14.1561 17.4269C14.2406 17.4269 14.3194 17.4998 14.3081 17.5838L13.3566 51.5067C13.3566 51.5852 13.2777 51.6524 13.1933 51.6524H13.1989Z" fill="black"/>
<path d="M19.3706 19.2733C19.3706 19.2733 19.3538 19.2733 19.3256 19.2677C9.42128 16.4543 9.56204 15.9555 9.60709 15.793C9.74785 15.2718 16.4877 1.6085 16.7693 1.03125C16.8087 0.958398 16.8988 0.924772 16.972 0.958398L26.5723 4.97668C26.606 4.9935 26.6342 5.02712 26.6567 5.06635C26.668 5.11119 26.668 5.15602 26.6455 5.18965L19.5058 19.1892C19.4833 19.2396 19.4269 19.2789 19.3594 19.2789L19.3706 19.2733ZM9.93367 15.8266C10.4404 16.2918 15.8459 17.9562 19.2974 18.9314L26.302 5.19525L16.9889 1.30026C15.0463 5.24009 10.2659 14.9636 9.93367 15.8266Z" fill="black"/>
<path d="M19.7921 17.7974C19.7921 17.7974 19.7583 17.7974 19.7527 17.7862L11.1547 14.8272C11.0702 14.7991 11.0251 14.7095 11.0533 14.631C11.0871 14.5525 11.1715 14.5077 11.2504 14.5357L19.8484 17.4948C19.9328 17.5172 19.9779 17.6125 19.9441 17.691C19.9216 17.7582 19.8596 17.7974 19.7921 17.7974Z" fill="black"/>
<path d="M17.6589 4.53556C17.2141 4.53556 16.8594 4.12645 16.8594 3.62767C16.8594 3.12888 17.2028 2.74219 17.6589 2.74219C18.115 2.74219 18.4697 3.14009 18.4697 3.62767C18.4697 4.11524 18.1037 4.53556 17.6589 4.53556Z" fill="black"/>
<path d="M19.9228 5.60197C19.4836 5.60197 19.1289 5.19846 19.1289 4.69968C19.1289 4.20089 19.4836 3.80859 19.9228 3.80859C20.362 3.80859 20.7449 4.2121 20.7449 4.69968C20.7449 5.18725 20.3789 5.60197 19.9228 5.60197Z" fill="black"/>
<path d="M22.3047 6.33074C21.8486 6.33074 21.4883 5.93284 21.4883 5.44526C21.4883 4.95769 21.8655 4.54297 22.3047 4.54297C22.7439 4.54297 23.1043 4.94648 23.1043 5.44526C23.1043 5.94404 22.7495 6.33074 22.3047 6.33074Z" fill="black"/>
<path d="M24.1062 7.26433C23.6614 7.26433 23.3066 6.86643 23.3066 6.36204C23.3066 5.85766 23.6501 5.47656 24.1062 5.47656C24.5623 5.47656 24.917 5.87447 24.917 6.36204C24.917 6.84962 24.551 7.26433 24.1062 7.26433Z" fill="black"/>
<path d="M16.3074 6.93791C15.8569 6.93791 15.5078 6.54 15.5078 6.03001C15.5078 5.52002 15.8569 5.14453 16.3074 5.14453C16.7578 5.14453 17.1182 5.54244 17.1182 6.03001C17.1182 6.51759 16.7522 6.93791 16.3074 6.93791Z" fill="black"/>
<path d="M18.571 7.9965C18.1318 7.9965 17.7715 7.5986 17.7715 7.10542C17.7715 6.61224 18.1262 6.20312 18.571 6.20312C19.0159 6.20312 19.3931 6.61224 19.3931 7.10542C19.3931 7.5986 19.0215 7.9965 18.571 7.9965Z" fill="black"/>
<path d="M20.9571 8.72969C20.5066 8.72969 20.1406 8.33178 20.1406 7.84421C20.1406 7.35663 20.5066 6.95312 20.9571 6.95312C21.4075 6.95312 21.751 7.34543 21.751 7.84421C21.751 8.34299 21.3963 8.72969 20.9571 8.72969Z" fill="black"/>
<path d="M22.7605 9.66668C22.3157 9.66668 21.9609 9.26317 21.9609 8.76439C21.9609 8.2656 22.3044 7.87891 22.7605 7.87891C23.2166 7.87891 23.5657 8.27681 23.5657 8.76439C23.5657 9.25196 23.1997 9.66668 22.7605 9.66668Z" fill="black"/>
<path d="M15.1413 9.10588C14.6965 9.10588 14.3418 8.71918 14.3418 8.21479C14.3418 7.71041 14.7078 7.3125 15.1413 7.3125C15.5749 7.3125 15.9578 7.72722 15.9578 8.21479C15.9578 8.70237 15.5918 9.10588 15.1413 9.10588Z" fill="black"/>
<path d="M17.4167 10.1594C16.9719 10.1594 16.6172 9.76147 16.6172 9.2739C16.6172 8.78632 16.9719 8.38281 17.4167 8.38281C17.8616 8.38281 18.2276 8.78632 18.2276 9.2739C18.2276 9.76147 17.8616 10.1594 17.4167 10.1594Z" fill="black"/>
<path d="M19.7932 10.905C19.3484 10.905 18.9824 10.5015 18.9824 10.0027C18.9824 9.50388 19.3484 9.11719 19.7932 9.11719C20.2381 9.11719 20.5928 9.51509 20.5928 10.0027C20.5928 10.4902 20.2381 10.905 19.7932 10.905Z" fill="black"/>
<path d="M21.5945 11.8285C21.1497 11.8285 20.7949 11.4362 20.7949 10.9374C20.7949 10.4387 21.1609 10.0352 21.5945 10.0352C22.028 10.0352 22.4109 10.4499 22.4109 10.9374C22.4109 11.425 22.0449 11.8285 21.5945 11.8285Z" fill="black"/>
<path d="M14.4553 11.3664C14.0105 11.3664 13.6445 10.9629 13.6445 10.4753C13.6445 9.98775 14.0105 9.58984 14.4553 9.58984C14.9002 9.58984 15.2605 9.98775 15.2605 10.4753C15.2605 10.9629 14.8945 11.3664 14.4553 11.3664Z" fill="black"/>
<path d="M16.7305 12.434C16.2857 12.434 15.9141 12.0193 15.9141 11.5261C15.9141 11.0329 16.2801 10.6406 16.7305 10.6406C17.181 10.6406 17.5301 11.0329 17.5301 11.5261C17.5301 12.0193 17.1753 12.434 16.7305 12.434Z" fill="black"/>
<path d="M19.0886 13.1684C18.6438 13.1684 18.2891 12.7761 18.2891 12.2829C18.2891 11.7897 18.6438 11.375 19.0886 11.375C19.5334 11.375 19.9107 11.7897 19.9107 12.2829C19.9107 12.7761 19.5447 13.1684 19.0886 13.1684Z" fill="black"/>
<path d="M20.9007 14.093C20.4615 14.093 20.0898 13.6951 20.0898 13.2075C20.0898 12.7199 20.4615 12.3164 20.9007 12.3164C21.3399 12.3164 21.7115 12.7031 21.7115 13.2075C21.7115 13.7119 21.3567 14.093 20.9007 14.093Z" fill="black"/>
<path d="M13.1995 13.5807C12.7547 13.5807 12.3887 13.1716 12.3887 12.6784C12.3887 12.1853 12.7547 11.793 13.1995 11.793C13.6443 11.793 13.999 12.1909 13.999 12.6784C13.999 13.166 13.633 13.5807 13.1995 13.5807Z" fill="black"/>
<path d="M15.4805 14.6528C15.0301 14.6528 14.6641 14.2548 14.6641 13.7617C14.6641 13.2685 15.0301 12.8594 15.4805 12.8594C15.931 12.8594 16.2801 13.2573 16.2801 13.7617C16.2801 14.2661 15.9253 14.6528 15.4805 14.6528Z" fill="black"/>
<path d="M17.8445 15.3803C17.3884 15.3803 17.0449 14.9936 17.0449 14.5005C17.0449 14.0073 17.394 13.6094 17.8445 13.6094C18.2949 13.6094 18.6497 14.0073 18.6497 14.5005C18.6497 14.9936 18.2949 15.3803 17.8445 15.3803Z" fill="black"/>
<path d="M19.6507 16.3129C19.2058 16.3129 18.8398 15.8982 18.8398 15.4106C18.8398 14.923 19.2058 14.5195 19.6507 14.5195C20.0955 14.5195 20.4502 14.9118 20.4502 15.4106C20.4502 15.9094 20.0955 16.3129 19.6507 16.3129Z" fill="black"/>
<path d="M17.66 3.05859C17.3785 3.05859 17.1758 3.31079 17.1758 3.63584C17.1758 3.96089 17.3954 4.22989 17.66 4.22989C17.9247 4.22989 18.1555 3.95528 18.1555 3.63584C18.1555 3.31639 17.9303 3.05859 17.66 3.05859Z" fill="#00953B"/>
<path d="M19.9217 4.12109C19.6627 4.12109 19.4375 4.3901 19.4375 4.70394C19.4375 5.02899 19.6571 5.29239 19.9217 5.29239C20.2033 5.29239 20.4285 5.02899 20.4285 4.70394C20.4285 4.37889 20.2033 4.12109 19.9217 4.12109Z" fill="#00953B"/>
<path d="M22.3036 4.85547C22.039 4.85547 21.7969 5.11887 21.7969 5.44392C21.7969 5.76897 22.0221 6.01556 22.3036 6.01556C22.5852 6.01556 22.7879 5.76337 22.7879 5.44392C22.7879 5.12448 22.5739 4.85547 22.3036 4.85547Z" fill="#00953B"/>
<path d="M24.1053 5.78125C23.8238 5.78125 23.6211 6.03344 23.6211 6.35849C23.6211 6.68354 23.8351 6.94694 24.1053 6.94694C24.3756 6.94694 24.6008 6.68354 24.6008 6.35849C24.6008 6.03344 24.3756 5.78125 24.1053 5.78125Z" fill="#00953B"/>
<path d="M16.3085 5.46094C16.0382 5.46094 15.8242 5.71313 15.8242 6.03818C15.8242 6.36323 16.0438 6.63224 16.3085 6.63224C16.5731 6.63224 16.804 6.36883 16.804 6.03818C16.804 5.70753 16.5787 5.46094 16.3085 5.46094Z" fill="#00953B"/>
<path d="M18.5702 6.51562C18.2999 6.51562 18.0859 6.78463 18.0859 7.10408C18.0859 7.42352 18.3112 7.68692 18.5702 7.68692C18.8517 7.68692 19.0769 7.42352 19.0769 7.10408C19.0769 6.78463 18.8517 6.51562 18.5702 6.51562Z" fill="#00953B"/>
<path d="M20.9579 7.26562C20.6764 7.26562 20.4512 7.52903 20.4512 7.84847C20.4512 8.16792 20.6764 8.42572 20.9579 8.42572C21.2395 8.42572 21.4422 8.17352 21.4422 7.84847C21.4422 7.52342 21.2282 7.26562 20.9579 7.26562Z" fill="#00953B"/>
<path d="M22.7616 8.19141C22.4913 8.19141 22.2773 8.4436 22.2773 8.76865C22.2773 9.0937 22.4913 9.3571 22.7616 9.3571C23.0319 9.3571 23.2571 9.08809 23.2571 8.76865C23.2571 8.4492 23.0319 8.19141 22.7616 8.19141Z" fill="#00953B"/>
<path d="M15.1424 7.625C14.8834 7.625 14.6582 7.89401 14.6582 8.21345C14.6582 8.5329 14.8722 8.79069 15.1424 8.79069C15.4127 8.79069 15.6492 8.5329 15.6492 8.21345C15.6492 7.89401 15.424 7.625 15.1424 7.625Z" fill="#00953B"/>
<path d="M17.4159 8.69531C17.1456 8.69531 16.9316 8.96432 16.9316 9.27256C16.9316 9.58079 17.1456 9.84419 17.4159 9.84419C17.6861 9.84419 17.9114 9.5864 17.9114 9.27256C17.9114 8.95871 17.6861 8.69531 17.4159 8.69531Z" fill="#00953B"/>
<path d="M19.7924 9.42969C19.5221 9.42969 19.2969 9.68749 19.2969 10.0013C19.2969 10.3152 19.5221 10.5898 19.7924 10.5898C20.0626 10.5898 20.2766 10.3264 20.2766 10.0013C20.2766 9.67628 20.0626 9.42969 19.7924 9.42969Z" fill="#00953B"/>
<path d="M21.5936 10.3477C21.3346 10.3477 21.1094 10.6111 21.1094 10.9361C21.1094 11.2612 21.329 11.5077 21.5936 11.5077C21.8583 11.5077 22.1004 11.2499 22.1004 10.9361C22.1004 10.6223 21.8751 10.3477 21.5936 10.3477Z" fill="#00953B"/>
<path d="M14.4545 9.89844C14.1842 9.89844 13.959 10.1562 13.959 10.4757C13.959 10.7951 14.1842 11.0473 14.4545 11.0473C14.7248 11.0473 14.9387 10.7839 14.9387 10.4757C14.9387 10.1674 14.7248 9.89844 14.4545 9.89844Z" fill="#00953B"/>
<path d="M16.7299 10.9531C16.4483 10.9531 16.2344 11.2165 16.2344 11.5304C16.2344 11.8442 16.4596 12.1244 16.7299 12.1244C17.0001 12.1244 17.2141 11.8554 17.2141 11.5304C17.2141 11.2053 17.0001 10.9531 16.7299 10.9531Z" fill="#00953B"/>
<path d="M19.0897 11.6875C18.8194 11.6875 18.6055 11.9565 18.6055 12.2816C18.6055 12.6066 18.8194 12.8532 19.0897 12.8532C19.36 12.8532 19.5965 12.601 19.5965 12.2816C19.5965 11.9621 19.36 11.6875 19.0897 11.6875Z" fill="#00953B"/>
<path d="M20.9017 12.6289C20.6315 12.6289 20.4062 12.8867 20.4062 13.2005C20.4062 13.5144 20.6315 13.7778 20.9017 13.7778C21.1833 13.7778 21.386 13.5256 21.386 13.2005C21.386 12.8755 21.1833 12.6289 20.9017 12.6289Z" fill="#00953B"/>
<path d="M13.1986 12.1094C12.9284 12.1094 12.7031 12.3672 12.7031 12.681C12.7031 12.9949 12.934 13.2695 13.1986 13.2695C13.4633 13.2695 13.6829 12.9949 13.6829 12.681C13.6829 12.3672 13.4689 12.1094 13.1986 12.1094Z" fill="#00953B"/>
<path d="M15.4794 13.1641C15.1979 13.1641 14.9727 13.4275 14.9727 13.7525C14.9727 14.0776 15.1979 14.3354 15.4794 14.3354C15.7609 14.3354 15.9637 14.0832 15.9637 13.7525C15.9637 13.4219 15.7497 13.1641 15.4794 13.1641Z" fill="#00953B"/>
<path d="M17.8436 13.9141C17.5733 13.9141 17.3594 14.1663 17.3594 14.4913C17.3594 14.8164 17.5733 15.0629 17.8436 15.0629C18.1139 15.0629 18.3391 14.8051 18.3391 14.4913C18.3391 14.1775 18.1251 13.9141 17.8436 13.9141Z" fill="#00953B"/>
<path d="M19.6517 14.832C19.3815 14.832 19.1562 15.0954 19.1562 15.4149C19.1562 15.7343 19.3815 16.0033 19.6517 16.0033C19.922 16.0033 20.136 15.7399 20.136 15.4149C20.136 15.0898 19.9277 14.832 19.6517 14.832Z" fill="#00953B"/>
<path d="M86.3137 51.56C86.3869 51.56 86.4432 51.4927 86.4432 51.4199L85.6211 21.93C85.6099 21.8572 85.5479 21.7955 85.4803 21.8011C85.4071 21.8011 85.3396 21.8684 85.3508 21.9412L86.1785 51.4311C86.1785 51.4983 86.2461 51.56 86.3193 51.56H86.3137Z" fill="black"/>
<path d="M80.8291 23.3363L74.6241 11.1638C74.6016 11.1301 74.6016 11.0909 74.6129 11.0573C74.6298 11.0237 74.6579 10.99 74.6861 10.9788L83.0307 7.48735C83.0983 7.45933 83.1715 7.48735 83.2109 7.5546C83.453 8.05899 89.3145 19.9345 89.4384 20.3885C89.4778 20.5286 89.6017 20.9657 80.9924 23.4092C80.9699 23.4148 80.9642 23.4148 80.953 23.4148C80.8967 23.4148 80.846 23.3868 80.8291 23.3419V23.3363ZM83.0251 7.78438L74.9338 11.175L81.0206 23.1177C84.0217 22.2659 88.7177 20.82 89.1568 20.4165C88.8641 19.6655 84.7143 11.2142 83.0251 7.78998V7.78438Z" fill="black"/>
<path d="M80.5859 22.1212C80.5859 22.1212 80.6141 22.1212 80.6197 22.1099L88.0972 19.5376C88.1704 19.5152 88.2098 19.4367 88.1817 19.3638C88.1535 19.2966 88.0747 19.2574 88.0127 19.2798L80.5409 21.8521C80.4677 21.8746 80.4282 21.953 80.4564 22.0203C80.4789 22.0763 80.5296 22.1155 80.5859 22.1155V22.1212Z" fill="black"/>
<path d="M81.7344 9.81466C81.7344 9.38874 82.0553 9.04688 82.4382 9.04688C82.8211 9.04688 83.1308 9.38874 83.1308 9.81466C83.1308 10.2462 82.8211 10.6049 82.4382 10.6049C82.0553 10.6049 81.7344 10.2518 81.7344 9.81466Z" fill="black"/>
<path d="M79.7598 10.736C79.7598 10.3101 80.0807 9.95703 80.4749 9.95703C80.869 9.95703 81.1674 10.3101 81.1674 10.736C81.1674 11.1676 80.8577 11.5206 80.4749 11.5206C80.092 11.5206 79.7598 11.1732 79.7598 10.736Z" fill="black"/>
<path d="M77.7031 11.3901C77.7031 10.9529 78.0128 10.6055 78.3957 10.6055C78.7786 10.6055 79.1052 10.9641 79.1052 11.3901C79.1052 11.8104 78.7898 12.1579 78.3957 12.1579C78.0015 12.1579 77.7031 11.8216 77.7031 11.3901Z" fill="black"/>
<path d="M76.1328 12.1858C76.1328 11.7598 76.4538 11.418 76.8366 11.418C77.2195 11.418 77.5292 11.7542 77.5292 12.1858C77.5292 12.6229 77.2195 12.9704 76.8366 12.9704C76.4538 12.9704 76.1328 12.6117 76.1328 12.1858Z" fill="black"/>
<path d="M82.9121 11.9006C82.9121 11.4747 83.2331 11.1328 83.6159 11.1328C83.9988 11.1328 84.3085 11.4691 84.3085 11.9006C84.3085 12.3433 84.0101 12.6908 83.6159 12.6908C83.2218 12.6908 82.9121 12.3377 82.9121 11.9006Z" fill="black"/>
<path d="M80.9297 12.8354C80.9297 12.4039 81.2506 12.0508 81.6448 12.0508C82.0389 12.0508 82.3374 12.4039 82.3374 12.8354C82.3374 13.2669 82.0277 13.6088 81.6448 13.6088C81.2619 13.6088 80.9297 13.2669 80.9297 12.8354Z" fill="black"/>
<path d="M78.8809 13.4743C78.8809 13.0372 79.1905 12.6953 79.5734 12.6953C79.9563 12.6953 80.2829 13.0484 80.2829 13.4743C80.2829 13.9002 79.9619 14.2421 79.5734 14.2421C79.1849 14.2421 78.8809 13.9058 78.8809 13.4743Z" fill="black"/>
<path d="M77.3047 14.2717C77.3047 13.8458 77.6256 13.5039 78.0085 13.5039C78.3914 13.5039 78.7011 13.8402 78.7011 14.2717C78.7011 14.7032 78.3914 15.0563 78.0085 15.0563C77.6256 15.0563 77.3047 14.6976 77.3047 14.2717Z" fill="black"/>
<path d="M83.9141 13.8002C83.9141 13.3743 84.2406 13.0156 84.6235 13.0156C85.0064 13.0156 85.3161 13.3743 85.3161 13.8002C85.3161 14.2374 85.0064 14.5736 84.6235 14.5736C84.2406 14.5736 83.9141 14.2318 83.9141 13.8002Z" fill="black"/>
<path d="M81.9434 14.7204C81.9434 14.2945 82.2643 13.9414 82.6472 13.9414C83.0301 13.9414 83.3398 14.2945 83.3398 14.7204C83.3398 15.1463 83.0301 15.4882 82.6472 15.4882C82.2643 15.4882 81.9434 15.1407 81.9434 14.7204Z" fill="black"/>
<path d="M79.8887 15.3537C79.8887 14.9278 80.1984 14.5859 80.5812 14.5859C80.9641 14.5859 81.2851 14.9334 81.2851 15.3537C81.2851 15.7909 80.9641 16.1383 80.5812 16.1383C80.1984 16.1383 79.8887 15.7909 79.8887 15.3537Z" fill="black"/>
<path d="M78.3066 16.1635C78.3066 15.7376 78.6332 15.3789 79.0161 15.3789C79.399 15.3789 79.7087 15.732 79.7087 16.1635C79.7087 16.595 79.399 16.9369 79.0161 16.9369C78.6332 16.9369 78.3066 16.5838 78.3066 16.1635Z" fill="black"/>
<path d="M84.5234 15.7539C84.5234 15.3279 84.8388 14.9805 85.2273 14.9805C85.6158 14.9805 85.9311 15.3279 85.9311 15.7539C85.9311 16.1798 85.6102 16.5273 85.2273 16.5273C84.8444 16.5273 84.5234 16.1742 84.5234 15.7539Z" fill="black"/>
<path d="M82.5508 16.6796C82.5508 16.2481 82.8605 15.9062 83.2433 15.9062C83.6262 15.9062 83.9528 16.2481 83.9528 16.6796C83.9528 17.1112 83.6262 17.4698 83.2433 17.4698C82.8605 17.4698 82.5508 17.1112 82.5508 16.6796Z" fill="black"/>
<path d="M80.4805 17.3332C80.4805 16.9016 80.807 16.543 81.1955 16.543C81.5841 16.543 81.8881 16.896 81.8881 17.3332C81.8881 17.7591 81.5784 18.101 81.1955 18.101C80.8127 18.101 80.4805 17.7591 80.4805 17.3332Z" fill="black"/>
<path d="M78.9141 18.1289C78.9141 17.6917 79.2237 17.3555 79.6179 17.3555C80.012 17.3555 80.3217 17.7085 80.3217 18.1289C80.3217 18.5492 80.0008 18.9023 79.6179 18.9023C79.235 18.9023 78.9141 18.566 78.9141 18.1289Z" fill="black"/>
<path d="M85.6209 17.6779C85.6209 17.252 85.9306 16.9102 86.3135 16.9102C86.6964 16.9102 87.0173 17.252 87.0173 17.6779C87.0173 18.1039 86.6964 18.4625 86.3135 18.4625C85.9306 18.4625 85.6209 18.1039 85.6209 17.6779Z" fill="black"/>
<path d="M83.6387 18.6205C83.6387 18.1834 83.9484 17.8359 84.3312 17.8359C84.7141 17.8359 85.0407 18.189 85.0407 18.6205C85.0407 19.0521 84.7198 19.3939 84.3312 19.3939C83.9427 19.3939 83.6387 19.0521 83.6387 18.6205Z" fill="black"/>
<path d="M81.5781 19.2595C81.5781 18.8279 81.8878 18.4805 82.282 18.4805C82.6761 18.4805 82.9802 18.8223 82.9802 19.2595C82.9802 19.691 82.6817 20.0273 82.282 20.0273C81.8822 20.0273 81.5781 19.6854 81.5781 19.2595Z" fill="black"/>
<path d="M80.0117 20.0546C80.0117 19.6175 80.3101 19.2812 80.7043 19.2812C81.0984 19.2812 81.4081 19.6287 81.4081 20.0546C81.4081 20.4806 81.0928 20.8392 80.7043 20.8392C80.3158 20.8392 80.0117 20.4862 80.0117 20.0546Z" fill="black"/>
<path d="M82.0117 9.81128C82.0117 10.0915 82.2088 10.3269 82.4453 10.3269C82.6818 10.3269 82.8676 10.0915 82.8676 9.81128C82.8676 9.53107 82.6874 9.3125 82.4453 9.3125C82.2032 9.3125 82.0117 9.53667 82.0117 9.81128Z" fill="#00953B"/>
<path d="M80.0293 10.7349C80.0293 11.0207 80.2264 11.2505 80.4685 11.2505C80.7106 11.2505 80.8908 11.0207 80.8908 10.7349C80.8908 10.4658 80.6937 10.2305 80.4685 10.2305C80.2207 10.2305 80.0293 10.4602 80.0293 10.7349Z" fill="#00953B"/>
<path d="M77.9805 11.3928C77.9805 11.673 78.1663 11.8916 78.4028 11.8916C78.6393 11.8916 78.842 11.6674 78.842 11.3928C78.842 11.1182 78.6336 10.8828 78.4028 10.8828C78.1719 10.8828 77.9805 11.107 77.9805 11.3928Z" fill="#00953B"/>
<path d="M76.4023 12.1824C76.4023 12.4626 76.5994 12.6924 76.8359 12.6924C77.0724 12.6924 77.2582 12.4626 77.2582 12.1824C77.2582 11.9022 77.078 11.6836 76.8359 11.6836C76.5938 11.6836 76.4023 11.9078 76.4023 12.1824Z" fill="#00953B"/>
<path d="M83.1836 11.9011C83.1836 12.1869 83.3807 12.4167 83.6172 12.4167C83.8536 12.4167 84.0395 12.1926 84.0395 11.9011C84.0395 11.6209 83.8536 11.4023 83.6172 11.4023C83.3807 11.4023 83.1836 11.6265 83.1836 11.9011Z" fill="#00953B"/>
<path d="M81.207 12.8359C81.207 13.1161 81.4041 13.3403 81.6462 13.3403C81.8658 13.3403 82.0685 13.1105 82.0685 12.8359C82.0685 12.5557 81.8827 12.3203 81.6462 12.3203C81.4097 12.3203 81.207 12.5501 81.207 12.8359Z" fill="#00953B"/>
<path d="M79.1504 13.4731C79.1504 13.7534 79.3362 13.9719 79.5727 13.9719C79.8204 13.9719 80.0119 13.7477 80.0119 13.4731C80.0119 13.1985 79.8148 12.9688 79.5727 12.9688C79.3306 12.9688 79.1504 13.1929 79.1504 13.4731Z" fill="#00953B"/>
<path d="M77.5742 14.2722C77.5742 14.5524 77.7713 14.7822 78.0022 14.7822C78.233 14.7822 78.4245 14.5524 78.4245 14.2722C78.4245 13.992 78.2386 13.7734 78.0022 13.7734C77.7657 13.7734 77.5742 13.9976 77.5742 14.2722Z" fill="#00953B"/>
<path d="M84.1855 13.8008C84.1855 14.081 84.3826 14.3051 84.6247 14.3051C84.8669 14.3051 85.047 14.0866 85.047 13.8008C85.047 13.5205 84.85 13.2852 84.6247 13.2852C84.3826 13.2852 84.1855 13.5261 84.1855 13.8008Z" fill="#00953B"/>
<path d="M82.2148 14.7231C82.2148 14.9977 82.4119 15.2219 82.6484 15.2219C82.8849 15.2219 83.0707 14.9921 83.0707 14.7231C83.0707 14.4485 82.8849 14.2188 82.6484 14.2188C82.4119 14.2188 82.2148 14.4485 82.2148 14.7231Z" fill="#00953B"/>
<path d="M80.1641 15.3582C80.1641 15.644 80.3499 15.8738 80.5864 15.8738C80.8228 15.8738 81.0199 15.644 81.0199 15.3582C81.0199 15.0835 80.8228 14.8594 80.5864 14.8594C80.3499 14.8594 80.1641 15.0892 80.1641 15.3582Z" fill="#00953B"/>
<path d="M78.5781 16.1718C78.5781 16.4465 78.7752 16.6706 79.0173 16.6706C79.2594 16.6706 79.4396 16.4521 79.4396 16.1718C79.4396 15.886 79.2426 15.6562 79.0173 15.6562C78.7752 15.6562 78.5781 15.886 78.5781 16.1718Z" fill="#00953B"/>
<path d="M84.8047 15.7566C84.8047 16.0256 84.9905 16.2554 85.227 16.2554C85.4635 16.2554 85.6605 16.0312 85.6605 15.7566C85.6605 15.482 85.4635 15.2578 85.227 15.2578C84.9905 15.2578 84.8047 15.4876 84.8047 15.7566Z" fill="#00953B"/>
<path d="M82.8283 16.6802C82.8283 16.9604 83.0142 17.1958 83.2506 17.1958C83.4871 17.1958 83.6842 16.9548 83.6842 16.6802C83.6842 16.4056 83.4984 16.1758 83.2506 16.1758C83.0029 16.1758 82.8283 16.3943 82.8283 16.6802Z" fill="#00953B"/>
<path d="M80.75 17.3359C80.75 17.6105 80.9471 17.8347 81.1892 17.8347C81.4313 17.8347 81.6115 17.6161 81.6115 17.3359C81.6115 17.0501 81.4257 16.8203 81.1892 16.8203C80.9527 16.8203 80.75 17.0557 80.75 17.3359Z" fill="#00953B"/>
<path d="M79.1953 18.1277C79.1953 18.4079 79.3755 18.6265 79.6176 18.6265C79.8597 18.6265 80.0512 18.4023 80.0512 18.1277C80.0512 17.8531 79.8541 17.6289 79.6176 17.6289C79.3699 17.6289 79.1953 17.8475 79.1953 18.1277Z" fill="#00953B"/>
<path d="M85.8906 17.6863C85.8906 17.9609 86.0877 18.2019 86.3129 18.2019C86.5382 18.2019 86.7465 17.9721 86.7465 17.6863C86.7465 17.4117 86.5494 17.1875 86.3129 17.1875C86.0764 17.1875 85.8906 17.4173 85.8906 17.6863Z" fill="#00953B"/>
<path d="M83.9141 18.6211C83.9141 18.9069 84.0999 19.1255 84.3364 19.1255C84.5728 19.1255 84.7756 18.8957 84.7756 18.6211C84.7756 18.3352 84.5785 18.1055 84.3364 18.1055C84.0942 18.1055 83.9141 18.3296 83.9141 18.6211Z" fill="#00953B"/>
<path d="M81.8477 19.2583C81.8477 19.5329 82.0335 19.7571 82.2756 19.7571C82.5177 19.7571 82.6979 19.5385 82.6979 19.2583C82.6979 18.9781 82.5121 18.7539 82.2756 18.7539C82.0391 18.7539 81.8477 18.9781 81.8477 19.2583Z" fill="#00953B"/>
<path d="M80.2832 20.0552C80.2832 20.341 80.4746 20.5708 80.7055 20.5708C80.9364 20.5708 81.1391 20.3354 81.1391 20.0552C81.1391 19.7806 80.942 19.5508 80.7055 19.5508C80.469 19.5508 80.2832 19.775 80.2832 20.0552Z" fill="#00953B"/>
<path d="M60.1415 55.5583C60.0232 55.5583 59.9219 55.4687 59.9163 55.3454C59.9106 55.2221 60.0007 55.1156 60.1246 55.11C71.1269 54.4599 81.949 52.6889 92.2869 49.8364C92.4051 49.8027 92.529 49.8756 92.5628 49.9933C92.5966 50.111 92.5234 50.2343 92.4051 50.2679C82.0391 53.1261 71.1832 54.9082 60.1528 55.5583H60.1415Z" fill="black"/>
<path d="M43.9719 55.7171C43.9719 55.7171 43.9663 55.7171 43.9606 55.7171C18.6959 54.7363 1.17891 48.3082 1.00436 48.2465C0.886115 48.2017 0.829808 48.0728 0.874853 47.9607C0.919899 47.843 1.0494 47.787 1.16202 47.8318C1.33657 47.8991 18.786 54.2992 43.9775 55.2743C44.1014 55.2743 44.1971 55.3808 44.1915 55.5041C44.1915 55.6218 44.0845 55.7171 43.9663 55.7171H43.9719Z" fill="black"/>
<path d="M59.653 59.9172C59.5347 59.9172 59.4334 59.822 59.4277 59.6987C59.4277 59.5754 59.5235 59.4745 59.6473 59.4689C67.9751 59.1999 75.5708 58.3649 82.2206 56.9806C82.3445 56.9582 82.4627 57.031 82.4853 57.1543C82.5078 57.2776 82.4346 57.3953 82.3107 57.4177C75.6384 58.8076 68.0201 59.6426 59.6642 59.9116C59.6642 59.9116 59.6642 59.9116 59.6586 59.9116L59.653 59.9172Z" fill="black"/>
<path d="M42.5298 59.7324C42.5298 59.7324 42.5242 59.7324 42.5185 59.7324C23.8867 58.8021 9.62988 55.9551 9.55105 55.9327C9.43281 55.8934 9.37087 55.7645 9.41029 55.6524C9.4497 55.5404 9.57358 55.4787 9.68619 55.5067C9.86637 55.546 24.0894 58.3705 42.5411 59.2896C42.6649 59.2952 42.7607 59.4017 42.755 59.525C42.7494 59.6427 42.648 59.738 42.5298 59.738V59.7324Z" fill="black"/>
<path d="M57.5983 67.5924C57.48 67.5924 57.3787 67.4972 57.373 67.3739C57.373 67.2506 57.4688 67.1497 57.5926 67.1441C69.3044 66.7742 81.6187 65.6534 94.1919 63.8264C94.3158 63.8095 94.4284 63.8936 94.4453 64.0169C94.4622 64.1402 94.3777 64.2523 94.2538 64.2691C81.6637 66.1017 69.3382 67.2226 57.6039 67.5924C57.6039 67.5924 57.6039 67.5924 57.5983 67.5924Z" fill="black"/>
<path d="M41.4197 67.6252H41.414C37.1798 67.5075 33.137 67.2777 29.0435 66.9359C28.9196 66.9247 28.8295 66.8182 28.8408 66.6949C28.8521 66.5716 28.959 66.4819 29.0829 66.4931C33.1651 66.835 37.2023 67.0592 41.4253 67.1825C41.5492 67.1825 41.6449 67.2889 41.6449 67.4122C41.6449 67.5355 41.5436 67.6308 41.4197 67.6308V67.6252Z" fill="black"/>
<path d="M21.5789 66.1618C21.5789 66.1618 21.562 66.1618 21.5507 66.1618C10.7511 64.8224 5.03038 63.0907 4.97407 63.0739C4.85583 63.0402 4.78826 62.9113 4.82768 62.7937C4.86146 62.676 4.99097 62.6087 5.10921 62.6479C5.16552 62.6648 10.8525 64.3909 21.6127 65.7191C21.7365 65.7359 21.821 65.848 21.8097 65.9713C21.7928 66.0834 21.6971 66.1674 21.5845 66.1674L21.5789 66.1618Z" fill="black"/>
<path d="M56.776 69.8263C56.6521 69.8263 56.5508 69.7254 56.5508 69.6021C56.5508 69.4788 56.6521 69.3779 56.776 69.3779C66.9675 69.3723 77.0407 68.7727 86.7198 67.5958C86.8437 67.579 86.9563 67.6686 86.9676 67.7919C86.9788 67.9152 86.8944 68.0273 86.7705 68.0385C77.0745 69.2154 66.9844 69.8151 56.7704 69.8207L56.776 69.8263Z" fill="black"/>
<path d="M41.7305 69.4233C41.7305 69.4233 41.7249 69.4233 41.7192 69.4233C37.5019 69.1991 33.2282 68.874 29.0221 68.4649C28.8982 68.4537 28.8081 68.3416 28.8194 68.2183C28.8307 68.095 28.9433 68.0054 29.0672 68.0166C33.2676 68.4257 37.5357 68.7507 41.7418 68.9749C41.8656 68.9805 41.9614 69.087 41.9557 69.2103C41.9501 69.328 41.8487 69.4233 41.7305 69.4233Z" fill="black"/>
<path d="M21.4098 67.6123C21.4098 67.6123 21.3929 67.6123 21.3816 67.6123C8.6451 66.0094 0.677721 64.0872 0.598892 64.0703C0.480648 64.0423 0.401819 63.919 0.435603 63.8013C0.463756 63.6836 0.587631 63.6108 0.705874 63.6388C0.784703 63.6556 8.72956 65.5723 21.4379 67.1695C21.5618 67.1863 21.6463 67.2984 21.635 67.4217C21.6181 67.5338 21.5224 67.6179 21.4098 67.6179V67.6123Z" fill="black"/>
<path d="M87.5807 90.6975L28.7291 90.378C28.6053 90.378 28.5039 90.2772 28.5039 90.1539C28.5039 90.0306 28.6053 89.9297 28.7291 89.9297L87.5807 90.2491C87.7046 90.2491 87.806 90.35 87.806 90.4733C87.806 90.5966 87.7046 90.6975 87.5807 90.6975Z" fill="black"/>
<path d="M21.3188 90.3347L11.8424 90.2843C11.7185 90.2843 11.6172 90.1834 11.6172 90.0601C11.6172 89.9368 11.7185 89.8359 11.8424 89.8359L21.3188 89.8864C21.4427 89.8864 21.544 89.9873 21.544 90.1106C21.544 90.2338 21.4427 90.3347 21.3188 90.3347Z" fill="black"/>
<path d="M24.5236 65.1493C24.4391 65.1493 24.3659 65.082 24.3659 64.998V64.4319L22.3783 64.3703V64.9643C22.3783 65.0484 22.3163 65.1157 22.2319 65.1157C22.1474 65.1157 22.0742 65.0484 22.0742 64.9643V64.2134C22.0742 64.1685 22.0967 64.1237 22.1305 64.1013C22.153 64.0677 22.1925 64.0508 22.2375 64.0621L24.5348 64.1293C24.6193 64.1349 24.6868 64.1966 24.6868 64.2806V64.9924C24.6868 65.0764 24.6193 65.1437 24.5348 65.1437L24.5236 65.1493Z" fill="#141515"/>
<path d="M27.9804 64.9792C27.8959 64.9792 27.8283 64.912 27.8283 64.8279V64.2675L25.8294 64.2058V64.7831C25.8294 64.8672 25.7675 64.9344 25.683 64.9344C25.5986 64.9344 25.5254 64.8672 25.5254 64.7831V64.0489C25.5254 64.0097 25.5479 63.9593 25.5761 63.9312C25.5986 63.8976 25.6324 63.8864 25.683 63.892L27.9916 63.9593C28.0704 63.9649 28.138 64.0377 28.138 64.1162V64.8223C28.138 64.912 28.0648 64.9736 27.9804 64.9736V64.9792Z" fill="#141515"/>
<path fill-rule="evenodd" clip-rule="evenodd" d="M45.045 27.8906C45.045 27.8906 47.7871 31.7744 50.7714 33.7751C53.7725 35.7871 57.9111 36.1065 60.259 36.7566C62.6014 37.3843 62.1509 38.7125 60.4111 38.8863C58.6656 39.06 53.643 37.5693 49.8311 35.2323C46.0304 32.8785 44.5664 28.4118 44.5664 28.4118L45.045 27.8906Z" fill="#00953B"/>
<path fill-rule="evenodd" clip-rule="evenodd" d="M58.2617 23.1577C58.2617 23.1577 58.2842 23.0905 58.3237 23.0064C58.5714 22.4628 59.4723 20.6975 61.3192 20.1931C63.5264 19.5822 66.184 21.667 66.4262 22.1882C66.6964 22.7262 62.0511 21.0954 58.2617 23.1577Z" fill="#00953B"/>
<path fill-rule="evenodd" clip-rule="evenodd" d="M57.8334 1.64062C57.9517 1.67425 58.0643 1.67425 58.0643 1.8648C58.0643 2.08336 46.1104 19.5352 46.1104 19.5352L45.5586 19.3334L57.8334 1.64062Z" fill="#00953B"/>
<path fill-rule="evenodd" clip-rule="evenodd" d="M41.5544 32.8789C41.5544 32.8789 43.0352 38.0405 45.1073 38.4216C47.1681 38.8083 46.926 39.1894 45.8393 39.4696C44.7751 39.7442 43.0859 39.5088 42.1287 37.2727C41.1827 35.0141 41.5544 32.8789 41.5544 32.8789Z" fill="#00953B"/>
<path fill-rule="evenodd" clip-rule="evenodd" d="M52.6084 37.9531C52.6084 37.9531 57.1129 44.342 57.7266 46.7911C58.3404 49.229 50.2153 42.3637 52.6084 37.9531Z" fill="#00953B"/>
<path fill-rule="evenodd" clip-rule="evenodd" d="M42.2031 64.8225C42.2031 64.8225 42.2031 59.5993 44.2133 55.0934C46.2347 50.5987 47.434 50.9518 47.434 50.9518C47.434 50.9518 48.532 52.5378 47.1581 56.9372C45.7617 61.3646 48.3743 66.8064 48.3743 66.8064C48.3743 66.8064 44.0838 62.3734 42.2031 64.8225Z" fill="#00953B"/>
<path fill-rule="evenodd" clip-rule="evenodd" d="M46.6556 91.4888C46.6556 91.4888 46.2108 85.8565 44.6398 81.7934C43.097 77.7078 42.3538 75.0626 42.061 72.238C41.7851 69.3966 41.3909 68.1525 41.9878 67.2894C42.5508 66.4432 43.5756 65.5857 43.7783 66.6954C43.981 67.8106 44.088 74.9841 44.9495 78.5821C45.8335 82.1913 48.1365 91.4608 46.6556 91.4944V91.4888Z" fill="#00953B"/>
<path d="M46.5437 21.4671C46.5155 21.4671 46.4817 21.4559 46.4479 21.4391L45.0853 20.3967C45.0177 20.3462 45.0121 20.2509 45.0628 20.1781C45.1078 20.1108 45.2036 20.0996 45.2768 20.1501L46.5155 21.1028C47.2982 20.1613 52.6867 13.6547 54.9108 10.69C57.1011 7.77576 58.5257 2.58058 58.7565 1.72872L57.8556 1.29719L45.5132 19.6681L46.2396 20.0772C46.3128 20.122 46.3353 20.2117 46.2903 20.2902C46.2452 20.363 46.1495 20.3911 46.0763 20.3518L45.2148 19.8586C45.1698 19.8362 45.1529 19.797 45.136 19.7578C45.1247 19.7241 45.136 19.6737 45.1585 19.6457L57.6755 1.01137C57.7205 0.949723 57.805 0.927306 57.8725 0.960932L58.9987 1.49894C59.0606 1.53257 59.1056 1.60543 59.0775 1.67268C59.0606 1.72872 57.5797 7.65247 55.1642 10.8693C52.7599 14.0582 46.7295 21.3438 46.6675 21.4166C46.6337 21.4559 46.5943 21.4671 46.5493 21.4671H46.5437Z" fill="black"/>
<path d="M46.1501 20.3692C46.1164 20.3692 46.0882 20.3523 46.0544 20.3243C45.9925 20.2739 45.9812 20.173 46.0432 20.1057C46.0657 20.0777 48.7177 17.1074 53.0139 11.1501C57.2876 5.21512 58.3236 1.79649 58.3349 1.76847C58.3574 1.68441 58.4419 1.63957 58.5263 1.66199C58.5995 1.68441 58.6502 1.77408 58.6333 1.85254C58.622 1.88616 57.5804 5.34402 53.2617 11.335C48.9542 17.3148 46.3022 20.2907 46.274 20.3187C46.2402 20.3523 46.2008 20.3748 46.1558 20.3748L46.1501 20.3692Z" fill="black"/>
<path d="M38.5258 31.1944C38.0979 31.1944 37.5461 30.5443 37.3771 30.3201C37.3321 30.2697 37.3321 30.1968 37.3659 30.1408L38.4526 28.4987C38.492 28.4258 38.5877 28.409 38.6666 28.4539C38.7285 28.4987 38.751 28.594 38.7116 28.6668L37.6868 30.2136C38.0247 30.6227 38.4188 30.9366 38.5483 30.8805C38.751 30.7965 39.6857 29.5691 40.4853 28.4314C40.5359 28.3642 40.6317 28.3474 40.7105 28.3922C40.7724 28.4483 40.7949 28.5379 40.7443 28.6108C40.3501 29.1656 39.0438 31.0094 38.6722 31.1663C38.6271 31.1832 38.5877 31.1944 38.5371 31.1944H38.5258Z" fill="black"/>
<path d="M39.1737 28.9458C38.926 28.9458 38.5881 28.8281 38.2278 28.4862C37.7154 28.0099 36.8877 26.7713 37.2086 26.1997C37.507 25.6953 37.9969 25.3758 38.0138 25.359C38.087 25.3142 38.1827 25.3366 38.2278 25.4095C38.2728 25.4767 38.2503 25.5776 38.1827 25.6224C38.1715 25.6224 38.087 25.6785 37.9744 25.7849C38.0363 25.8914 38.971 27.3093 39.3989 27.64C39.6411 27.8361 39.7706 28.1219 39.7255 28.419C39.703 28.6375 39.5848 28.8281 39.4609 28.8841C39.3877 28.9234 39.292 28.9458 39.1737 28.9458ZM37.7379 25.9979C37.6422 26.0988 37.5465 26.2165 37.4733 26.351C37.2818 26.7097 37.9293 27.7969 38.4305 28.2677C38.8697 28.6712 39.2075 28.6712 39.3257 28.6095C39.3539 28.5927 39.4215 28.4918 39.4327 28.3461C39.4327 28.2228 39.4046 28.0435 39.2075 27.8866C38.7739 27.5447 37.9293 26.2781 37.7379 25.9979Z" fill="black"/>
<path d="M40.683 28.5103C40.0693 28.5103 39.5963 28.0564 39.5794 28.034C39.5175 27.9723 39.5175 27.8826 39.5794 27.821C39.6413 27.7593 39.7427 27.7593 39.7934 27.8154C39.8046 27.821 40.2326 28.2301 40.7337 28.2021C40.9308 28.1853 41.0715 28.1236 41.094 28.034C41.1166 27.9555 41.0377 27.7818 40.7618 27.5744C40.3902 27.3166 39.8553 26.6833 39.3936 26.1285C39.1121 25.7922 38.7742 25.3831 38.6785 25.3383C38.5603 25.2878 38.3181 25.4896 38.2224 25.6017C38.1605 25.6689 38.0648 25.6745 37.9972 25.6241C37.9352 25.5625 37.9352 25.4728 37.9859 25.4055C38.0253 25.3551 38.442 24.8955 38.8136 25.0581C38.9544 25.1253 39.1909 25.4055 39.6244 25.9323C40.0636 26.4479 40.6042 27.0924 40.9308 27.3334C41.4206 27.6865 41.4319 27.9835 41.3868 28.1292C41.3249 28.3534 41.0884 28.4935 40.7506 28.5215H40.6886L40.683 28.5103Z" fill="black"/>
<path d="M41.173 27.6013C41.0886 27.6013 41.021 27.5397 41.0097 27.4612C40.9985 27.3715 41.0604 27.3043 41.1449 27.2931C41.1899 27.2819 41.2969 27.181 41.3082 26.8896C41.3307 26.5365 40.8859 25.8191 40.137 25.0121L40.0413 24.9112C39.6584 24.5133 39.3487 24.1995 39.1685 24.2948C38.9546 24.4069 38.6843 25.0458 38.6561 25.1859C38.6787 25.2699 38.6111 25.3372 38.5266 25.3484C38.4422 25.3596 38.369 25.2923 38.3577 25.2083C38.3239 25.0345 38.6787 24.1939 39.0165 24.0202C39.4106 23.8296 39.771 24.1939 40.2665 24.6983L40.3622 24.7992C40.8521 25.326 41.6516 26.2955 41.6179 26.9008C41.5953 27.5453 41.2068 27.5957 41.1843 27.6013H41.173Z" fill="black"/>
<path d="M40.7445 25.3642C40.6825 25.3642 40.6206 25.3194 40.5981 25.2521C40.5755 25.1737 40.6319 25.0896 40.7163 25.0616C40.8402 25.0224 41.1949 24.8766 41.2681 24.6188C41.3413 24.3106 40.7557 23.554 40.4291 23.3859C40.035 23.1841 39.8942 23.2458 39.821 23.3186C39.6634 23.4475 39.3424 24.0248 39.3368 24.1313C39.3368 24.2153 39.258 24.277 39.1735 24.277C39.0891 24.277 39.0215 24.2041 39.0215 24.1201C39.0215 23.9351 39.4156 23.2514 39.6183 23.0833C39.9055 22.8255 40.2996 22.9712 40.5755 23.1113C40.981 23.3242 41.696 24.1873 41.5665 24.6973C41.4427 25.1793 40.8177 25.353 40.7895 25.3586C40.7782 25.3642 40.767 25.3642 40.7501 25.3642H40.7445Z" fill="black"/>
<path d="M42.6928 27.0138C42.6646 27.0138 42.6196 26.997 42.5914 26.9745C42.5577 26.9409 42.5351 26.8961 42.5464 26.8456C42.5464 26.8456 42.5351 26.6607 42.248 25.9153C41.9158 25.0859 41.409 24.1107 41.409 24.0995C41.364 24.0267 41.3978 23.937 41.4709 23.8922C41.5441 23.8585 41.6399 23.881 41.6737 23.9594C41.6793 23.9594 41.9777 24.5423 42.2649 25.1924C42.2987 25.1475 42.3606 25.1195 42.4113 25.1195C42.4113 25.1195 43.1883 25.1531 44.6748 24.5647C46.0825 24.0155 46.2514 23.5615 46.2514 23.5559C46.2626 23.4999 46.3021 23.4606 46.3584 23.4494C46.4147 23.4382 46.4766 23.4494 46.5104 23.4887C46.6343 23.6176 47.2311 24.2901 46.9777 24.6768L46.9439 24.7216C46.7469 25.0523 46.4485 25.5454 44.9 26.2068C43.3291 26.8849 42.7435 26.997 42.721 27.0026C42.7097 27.0026 42.6984 27.0026 42.6872 27.0026L42.6928 27.0138ZM42.3775 25.4278C42.4282 25.551 42.4788 25.6799 42.5351 25.8032C42.7041 26.246 42.7773 26.515 42.8223 26.6719C43.0757 26.5934 43.6838 26.4085 44.7818 25.9377C46.2401 25.3157 46.5048 24.8841 46.6962 24.5703L46.7131 24.5255C46.7863 24.4246 46.6286 24.1276 46.4259 23.8698C46.2401 24.0939 45.8066 24.4638 44.7874 24.8561C43.2333 25.4782 42.4225 25.4334 42.3944 25.4334C42.3944 25.4334 42.3887 25.4334 42.3775 25.4334V25.4278Z" fill="black"/>
<path d="M40.2148 30.73C39.877 30.73 39.7024 30.6627 39.6968 30.6571C39.6405 30.6347 39.6123 30.5955 39.6011 30.5394L39.5053 30.035C39.4941 29.951 39.5504 29.8725 39.6348 29.8557C39.7193 29.8445 39.7925 29.8949 39.815 29.979L39.8938 30.3881C40.0853 30.4273 40.6596 30.4946 41.6281 30.0911C42.9344 29.5587 42.9344 29.4073 42.9288 29.1944C42.9288 28.8637 43.0527 27.104 43.0695 27.0255C43.0695 26.9414 43.154 26.8854 43.2272 26.891C43.3173 26.891 43.3736 26.9695 43.3736 27.0535C43.3736 27.0703 43.2385 28.8805 43.2385 29.1944C43.2554 29.6539 42.9794 29.8781 41.7463 30.3825C41.0707 30.6627 40.5639 30.73 40.2261 30.73H40.2148Z" fill="black"/>
<path d="M41.4317 32.4885C41.167 32.4885 40.9306 32.4324 40.7279 32.3091C40.0691 31.9336 39.8438 31.0706 39.7706 30.7848C39.7481 30.7063 39.8044 30.6222 39.8776 30.5998C39.9621 30.5774 40.0466 30.6278 40.0691 30.7119C40.131 30.9585 40.3337 31.7319 40.8743 32.0457C41.1502 32.2026 41.4824 32.2251 41.8652 32.1186C43.0364 31.7823 43.3461 31.1995 43.3968 31.0482L43.0139 29.7648C42.997 29.6807 43.0364 29.5966 43.1209 29.5742C43.1941 29.5462 43.2785 29.5966 43.3123 29.6751L43.7065 31.0089C43.7065 31.0089 43.7177 31.065 43.7177 31.093C43.7065 31.1322 43.47 31.9841 41.9497 32.4156C41.7695 32.4717 41.5893 32.4885 41.4317 32.4885Z" fill="black"/>
<path d="M42.0661 23.9895C42.0154 23.9895 41.9591 23.9615 41.931 23.9111C41.9197 23.8942 41.2384 22.6221 40.9963 22.2802C40.9006 22.1401 40.7823 22.056 40.6753 22.056C40.5796 22.056 40.5064 22.1289 40.467 22.1905C40.2981 22.4539 40.2192 22.7734 40.2418 22.8462C40.2755 22.9191 40.2418 23.0032 40.1686 23.048C40.0841 23.0872 39.9996 23.048 39.9546 22.9695C39.8589 22.7902 40.0165 22.3194 40.208 22.0224C40.3375 21.8431 40.4951 21.7422 40.6753 21.7422C40.8893 21.7422 41.092 21.8711 41.2497 22.1009C41.503 22.4651 42.1731 23.7037 42.2069 23.7597C42.2406 23.8382 42.2181 23.9279 42.1449 23.9727C42.1111 23.9839 42.0886 23.9895 42.0661 23.9895Z" fill="black"/>
<path d="M42.6918 23.0164C42.6411 23.0164 42.5736 22.9828 42.5567 22.9211C42.2582 22.1814 41.8247 21.3295 41.622 21.2342C41.5938 21.223 41.5375 21.2006 41.4305 21.2566C41.1828 21.3743 40.9519 21.7218 40.9407 21.8059C40.9181 21.8899 40.845 21.946 40.7549 21.9348C40.6817 21.9236 40.6197 21.8563 40.6254 21.7778C40.6366 21.6041 40.935 21.1726 41.2447 20.9988C41.47 20.8755 41.6389 20.9092 41.7459 20.9596C42.1625 21.139 42.7256 22.5344 42.8438 22.809C42.8776 22.8875 42.8326 22.9772 42.7594 23.0052C42.7369 23.0164 42.7143 23.0164 42.6918 23.0164Z" fill="black"/>
<path d="M43.6113 22.5917C43.5381 22.5917 43.4818 22.5413 43.4649 22.474C43.2734 21.7398 42.868 20.4957 42.5584 20.2939C42.5077 20.2547 42.4514 20.2547 42.3894 20.2659C42.198 20.3107 41.9221 20.6078 41.6687 21.0617L41.5279 21.0001L41.3984 20.916C41.6124 20.5349 41.9502 20.0585 42.3275 19.9745C42.4683 19.9353 42.6034 19.9633 42.7329 20.0473C43.2453 20.378 43.7126 22.1994 43.7633 22.4068C43.7858 22.4908 43.7295 22.5693 43.6451 22.5917C43.6338 22.5973 43.6282 22.5973 43.6169 22.5973L43.6113 22.5917Z" fill="black"/>
<path d="M45.2877 22.2821C45.2257 22.2821 45.1582 22.2429 45.1357 22.17C44.9442 21.447 44.3305 19.508 43.8181 19.1661C43.7111 19.1044 43.6041 19.082 43.4971 19.1157C43.1537 19.2053 42.8496 19.7321 42.7539 19.9171C42.7201 19.9955 42.6244 20.0292 42.5512 19.9899C42.478 19.9507 42.4442 19.861 42.478 19.7826C42.4893 19.7489 42.8721 18.9587 43.4183 18.813C43.621 18.7626 43.8125 18.7906 43.9926 18.9083C44.6965 19.3678 45.3665 21.8057 45.4397 22.0859C45.4622 22.17 45.4172 22.2485 45.3327 22.2709C45.3215 22.2709 45.2989 22.2709 45.2877 22.2709V22.2821Z" fill="black"/>
<path d="M41.9269 24.1996C41.8988 24.1996 41.865 24.1884 41.8425 24.1716C41.7693 24.1267 41.7468 24.0315 41.8031 23.9586L41.8256 23.925C42.4731 22.877 43.3965 22.4342 44.0722 22.2493C45.508 21.857 45.8571 22.0083 45.9416 22.0924C46.0035 22.154 46.0035 22.2493 45.9416 22.3109C45.8909 22.3782 45.7839 22.367 45.7276 22.3109C45.7276 22.3109 45.6882 22.2941 45.5475 22.2941C45.3335 22.2941 44.9168 22.339 44.1398 22.5519C43.5317 22.7201 42.6815 23.1236 42.0846 24.0875L42.0565 24.1323C42.0227 24.1716 41.972 24.1996 41.9269 24.1996Z" fill="black"/>
<path d="M46.409 23.7613C46.319 23.7613 46.2458 23.694 46.2458 23.61C46.2458 23.61 46.2458 23.3466 46.1444 22.7861C46.0599 22.2425 45.4237 20.7462 45.1309 20.3482C44.9563 20.1129 44.8325 20.0905 44.7987 20.1017C44.7255 20.1409 44.6354 20.1185 44.596 20.0456C44.5566 19.9728 44.5847 19.8775 44.6579 19.8327C44.6917 19.8158 44.9957 19.6589 45.3786 20.1689C45.6883 20.606 46.3471 22.1416 46.4428 22.7413C46.5498 23.3241 46.5498 23.5987 46.5498 23.61C46.5498 23.694 46.4822 23.7613 46.4034 23.7613H46.409Z" fill="black"/>
<path d="M44.4036 28.7998C44.2572 28.7998 44.1277 28.6878 43.2549 27.3763C43.1254 27.1858 43.0016 26.9953 42.9565 26.9504C42.9115 26.9056 42.9058 26.8439 42.9171 26.7879C42.9509 26.7094 43.0353 26.659 43.1198 26.687C43.1611 26.7057 43.2906 26.8813 43.5083 27.2138C43.7335 27.5501 44.1784 28.2002 44.3698 28.4356C44.3698 28.4356 44.3736 28.4318 44.3811 28.4243C44.4881 28.217 44.6908 27.8247 45.3777 27.5501C45.9745 27.3259 46.5376 27.2531 46.8811 27.2194C46.6164 26.984 46.2054 26.603 46.0196 26.2331C45.8056 25.8296 45.7324 25.7287 45.7099 25.7119C45.6536 25.667 45.6367 25.5886 45.6761 25.5213C45.7099 25.4485 45.8056 25.4148 45.8788 25.4541C45.907 25.4709 45.9858 25.5101 46.2842 26.093C46.4982 26.4741 46.9881 26.9112 47.202 27.0905C47.2978 27.1746 47.3203 27.197 47.3372 27.2194C47.3822 27.2643 47.3822 27.3371 47.3484 27.3932C47.3034 27.4772 47.2302 27.4884 46.9824 27.5165C46.6727 27.5557 46.0984 27.6117 45.4903 27.8415C44.9047 28.0657 44.7471 28.3795 44.6401 28.5645C44.5894 28.6709 44.5331 28.7886 44.3923 28.7998H44.4036Z" fill="black"/>
<path d="M46.7692 35.2172C46.7692 35.2172 46.7354 35.206 46.7185 35.206C46.6847 35.1948 45.9865 34.9089 44.6745 33.8777C43.3232 32.7905 43.464 31.2998 43.4696 31.2325C43.4808 31.1541 43.5484 31.0924 43.6385 31.098C43.723 31.098 43.7905 31.1821 43.7793 31.2605C43.7793 31.2773 43.6498 32.6504 44.866 33.6312C46.1329 34.6287 46.8198 34.9089 46.8311 34.9089C46.9043 34.9426 46.9437 35.0266 46.9155 35.1107C46.893 35.1723 46.8311 35.2116 46.7635 35.2116L46.7692 35.2172Z" fill="black"/>
<path d="M46.1722 35.4682C46.1103 35.4682 46.0427 35.4289 46.0258 35.3617C46.0033 35.2832 46.0427 35.1936 46.1215 35.1655C46.1441 35.1655 47.6756 34.6443 48.1092 34.4762C48.5483 34.3081 48.7173 34.2969 48.7511 34.2969C48.8355 34.2969 48.9087 34.3697 48.9087 34.4482C48.9087 34.5267 48.8355 34.5995 48.7511 34.5995C48.7623 34.5995 48.6103 34.6051 48.2161 34.762C47.7713 34.9302 46.2792 35.4346 46.2285 35.457C46.2116 35.4682 46.1891 35.4682 46.1778 35.4682H46.1722Z" fill="black"/>
<path d="M44.4263 39.7616C43.2664 39.7616 43.075 39.4086 42.0727 37.5143L41.9883 37.3518C40.8396 35.1549 40.6594 32.4816 40.6594 32.3696C40.6482 32.2855 40.7157 32.2126 40.8002 32.207C40.8734 32.207 40.9635 32.2743 40.9691 32.3527C40.9691 32.3808 41.1493 35.0652 42.2585 37.2061L42.3543 37.3686C43.4297 39.4086 43.4691 39.4814 44.6797 39.4422C45.6144 39.4254 47.1403 39.1452 48.2552 38.949C48.7169 38.8649 49.1167 38.7921 49.3926 38.7585C50.3385 38.6352 51.1493 38.3942 51.1606 38.3942C51.2338 38.3662 51.3295 38.4166 51.352 38.4951C51.3746 38.5791 51.3295 38.6632 51.2451 38.68C51.2113 38.6912 50.4061 38.9378 49.4376 39.0611C49.1617 39.0947 48.7676 39.1732 48.3115 39.2516C47.191 39.4534 45.6538 39.7336 44.6966 39.756C44.6009 39.756 44.5164 39.7672 44.432 39.7672L44.4263 39.7616Z" fill="black"/>
<path d="M53.2501 32.6805C53.1994 32.6805 53.1431 32.6581 53.115 32.6076C53.0699 32.5348 53.0925 32.4395 53.1657 32.3946C54.4945 31.6157 55.2265 31.1841 56.7974 31.2682C56.8819 31.2682 56.9438 31.3466 56.9438 31.4307C56.9382 31.5148 56.8594 31.582 56.7749 31.5764C55.3053 31.5036 54.6465 31.8959 53.329 32.6637C53.3121 32.6805 53.2783 32.6805 53.2501 32.6805Z" fill="black"/>
<path d="M58.464 34.4546C55.2095 34.4546 53.0473 32.7789 50.5867 30.8735C48.9651 29.6237 46.9606 27.4829 46.938 27.4604C46.8817 27.3988 46.8817 27.2979 46.9437 27.2419C47.0056 27.1858 47.107 27.1914 47.1576 27.2531C47.1802 27.2755 49.179 29.3939 50.7781 30.6325C53.5034 32.7509 55.8514 34.5779 59.7872 34.0623C60.0462 34.0231 60.2883 33.9895 60.5079 33.9502C61.6566 33.7709 62.3942 33.6588 63.9145 34.0511C63.9989 34.0735 64.0552 34.1464 64.0327 34.2361C64.0102 34.3145 63.9201 34.3649 63.8413 34.3481C62.3829 33.967 61.6566 34.0847 60.5698 34.2585C60.3334 34.2921 60.1025 34.3257 59.8322 34.3649C59.3536 34.4266 58.8975 34.4602 58.4584 34.4602L58.464 34.4546Z" fill="black"/>
<path d="M63.0076 39.7024C62.1799 39.7024 61.1664 39.6184 59.9502 39.4558C55.8848 38.9234 51.1269 36.8218 48.3904 34.3727C46.8138 32.9548 44.5503 28.8469 44.4546 28.6788C44.4096 28.6003 44.4321 28.5106 44.5109 28.4658C44.5954 28.4266 44.6798 28.4602 44.7249 28.533C44.7474 28.5723 47.0616 32.7587 48.5931 34.1429C51.2958 36.564 55.9805 38.6264 59.9896 39.1532C63.109 39.5679 64.8714 39.4502 65.5189 38.7833C65.5864 38.7217 65.6765 38.7217 65.7441 38.7833C65.806 38.8393 65.806 38.9346 65.7441 38.9963C65.2768 39.467 64.3984 39.6968 63.0076 39.6968V39.7024Z" fill="black"/>
<path d="M58.1761 39.11C58.1761 39.11 58.1311 39.11 58.1142 39.0988C58.0354 39.0651 57.9903 38.9755 58.0241 38.897C58.0354 38.8858 58.452 37.8322 58.0241 36.2798C57.5905 34.6882 57.4723 34.3575 57.4723 34.3519C57.4385 34.2735 57.4835 34.1894 57.5624 34.1614C57.6356 34.1334 57.7257 34.1726 57.7595 34.251C57.7707 34.2679 57.8777 34.5873 58.3281 36.2013C58.7842 37.8602 58.3394 38.9699 58.3169 39.0203C58.2944 39.0763 58.2381 39.1156 58.1817 39.1156L58.1761 39.11Z" fill="black"/>
<path d="M55.9985 33.8799C55.9591 33.8799 55.9084 33.8631 55.8803 33.8238C55.824 33.7566 55.8352 33.6613 55.8972 33.6053L58.4647 31.5933C58.5098 31.5653 58.5605 31.5485 58.5999 31.5653L59.0672 31.6998C59.1404 31.7222 59.1967 31.8119 59.1629 31.8904C59.1404 31.9688 59.056 32.0193 58.9659 31.9912L58.5886 31.8791L56.0886 33.8406C56.0548 33.8631 56.0267 33.8743 55.9929 33.8743L55.9985 33.8799Z" fill="black"/>
<path d="M58.9645 32.7592C58.9645 32.7592 58.9308 32.7536 58.9251 32.7536L58.1143 32.5406C58.0355 32.5182 57.9848 32.4342 58.0073 32.3557C58.0299 32.2716 58.1143 32.2212 58.1988 32.2436L59.0096 32.4622C59.0772 32.4846 59.1335 32.5687 59.1109 32.6471C59.094 32.7144 59.0321 32.7648 58.9702 32.7648L58.9645 32.7592Z" fill="black"/>
<path d="M59.1684 33.5873C59.0783 33.5873 59.0051 33.5256 59.0051 33.4416C59.0051 33.3855 59.0389 33.3351 59.0726 33.3071L58.9375 31.8668C58.9375 31.8275 58.9488 31.7771 58.9825 31.7491C59.0163 31.7154 59.0557 31.7042 59.1064 31.7098C59.1289 31.7098 61.629 31.906 63.1098 31.7491C63.8868 31.6818 64.0445 31.4913 64.0839 31.4184C64.1177 31.3287 64.067 31.2447 64.067 31.2447C64.0445 31.2055 64.0332 31.1662 64.0445 31.1158C64.0558 31.071 64.0783 31.0317 64.1177 31.0149C64.1402 31.0037 64.3091 30.9252 64.4893 31.0317C64.6977 31.1662 64.8215 31.4913 64.8215 32.0237C64.8441 33.3071 63.3632 33.4248 62.8114 33.4696C62.2427 33.5312 59.2866 33.5929 59.1627 33.5929L59.1684 33.5873ZM59.2753 32.0181L59.3879 33.279C60.1087 33.2622 62.3271 33.2118 62.8001 33.1558C63.6109 33.0941 64.5344 32.9092 64.5231 32.0237C64.5231 31.6594 64.4668 31.4745 64.4161 31.3848C64.4161 31.4296 64.3936 31.4857 64.3767 31.5361C64.2416 31.8163 63.8418 31.9845 63.1492 32.0517C61.8654 32.1806 59.8834 32.0629 59.281 32.0181H59.2753Z" fill="black"/>
<path d="M54.1843 33.3249C54.1336 33.3249 54.0773 33.2969 54.0604 33.2464C54.021 33.1736 54.0435 33.0783 54.1111 33.0391C54.1392 33.0167 54.9726 32.5571 56.3127 32.3778C56.4028 32.361 56.476 32.4226 56.4872 32.5011C56.4929 32.5851 56.4422 32.6636 56.3577 32.6748C55.0852 32.8598 54.2744 33.3025 54.2631 33.3025C54.2462 33.3193 54.2181 33.3249 54.1899 33.3249H54.1843Z" fill="black"/>
<path d="M65.4114 29.3083C65.4114 29.3083 65.3776 29.3027 65.3607 29.2971L61.7627 27.9464L58.0239 26.7807L55.4057 25.8672C55.3325 25.8448 55.2874 25.7664 55.3043 25.6879C55.3325 25.615 55.4057 25.559 55.4732 25.5702C55.4845 25.5702 56.5487 25.7047 57.0498 25.4301C57.596 25.1499 58.2435 24.6119 58.2435 24.6063C58.3167 24.5558 58.4125 24.5558 58.4688 24.6231C58.5194 24.6903 58.5138 24.7856 58.4519 24.8416C58.4125 24.8641 57.7649 25.4077 57.2019 25.7047C56.9879 25.8168 56.7007 25.8672 56.4248 25.8953L58.1197 26.4837L61.8809 27.6494L65.355 28.9552L66.4192 27.0441C66.4587 26.9713 66.5544 26.9433 66.6276 26.9881C66.7064 27.0273 66.7346 27.1226 66.6895 27.1955L65.5634 29.2242C65.5296 29.2746 65.4902 29.3027 65.4226 29.3027L65.4114 29.3083Z" fill="black"/>
<path d="M57.3036 31.7424C57.3036 31.7424 57.2698 31.7424 57.2586 31.7424L56.0255 31.3388C55.9635 31.322 55.9185 31.2716 55.9185 31.2043C55.834 30.0274 55.6933 28.2397 55.682 28.1444C55.6764 28.0547 55.6482 26.5079 55.6426 25.8522C55.6426 25.7682 55.7045 25.6953 55.789 25.6953C55.8791 25.6953 55.9523 25.7626 55.9523 25.8466C55.9635 26.6985 55.986 28.0043 55.9917 28.1052C55.9973 28.1892 56.1719 30.4141 56.2113 31.081L57.3149 31.4397C57.3825 31.4397 57.5852 31.4173 58.2271 31.3501C58.593 31.322 58.6493 31.2884 58.7563 31.2436C58.9196 31.1707 59.1505 31.0642 60.1302 30.8625C61.4703 30.5711 62.2023 30.2516 62.4726 30.1227L61.5041 27.6848C61.4816 27.64 61.4928 27.5896 61.5266 27.5447C61.5491 27.5055 61.5998 27.4831 61.6617 27.4831C61.6617 27.4831 62.3825 27.5223 63.3284 27.0516C64.2068 26.6312 64.1111 26.1829 64.1055 26.1661C64.0942 26.0876 64.1392 25.9979 64.2237 25.9811C64.3082 25.9643 64.387 26.0092 64.4151 26.0876C64.4151 26.1156 64.5841 26.7882 63.4636 27.3262C62.7654 27.6736 62.1798 27.7633 61.8757 27.7801L62.816 30.1395C62.8329 30.2068 62.816 30.2852 62.7541 30.3245C62.7203 30.3469 61.9714 30.7728 60.1978 31.1539C59.2518 31.3557 59.0322 31.4565 58.9027 31.5182C58.7563 31.5854 58.6662 31.6135 58.2665 31.6527C57.7147 31.7143 57.3599 31.7424 57.3036 31.7424Z" fill="black"/>
<path d="M56.1378 30.4528C56.0928 30.4528 56.059 30.436 56.0308 30.4136C55.9689 30.3463 55.9689 30.2567 56.0308 30.195L57.5849 28.581L56.3067 26.1431C56.2786 26.0702 56.2955 25.975 56.3687 25.9357C56.4419 25.8965 56.5376 25.9245 56.5826 25.9974L57.9115 28.5361C57.9452 28.5978 57.934 28.6706 57.8777 28.7155L56.2504 30.4024C56.2166 30.436 56.1772 30.4472 56.1378 30.4472V30.4528Z" fill="black"/>
<path d="M55.8567 28.382C55.8172 28.382 55.7722 28.3652 55.744 28.3316C55.6877 28.2699 55.6877 28.1746 55.7553 28.113C56.8195 27.1098 56.8814 27.0874 56.904 27.0762C56.9772 27.037 57.0729 27.065 57.1067 27.1434C57.1517 27.2107 57.1179 27.3004 57.0504 27.3396C56.9772 27.4012 56.431 27.8944 55.9636 28.3316C55.9299 28.3596 55.8961 28.3764 55.8567 28.3764V28.382Z" fill="black"/>
<path d="M63.3236 30.4574H63.3123C62.8675 30.4406 62.676 30.3733 62.5972 30.3341L56.06 28.3614C55.9756 28.3333 55.9305 28.2493 55.953 28.1708C55.9868 28.0868 56.0656 28.0419 56.1445 28.0643L62.7042 30.0483C62.7042 30.0483 62.738 30.0595 62.7549 30.0651C62.7549 30.0651 62.89 30.1323 63.3236 30.1491C63.7121 30.1491 64.7481 29.387 65.1028 29.1348C65.2098 29.0563 65.2887 29.0003 65.3112 28.9946C65.3788 28.9554 65.4801 28.9946 65.5083 29.0619C65.5533 29.1348 65.5195 29.2244 65.4463 29.2637C65.4238 29.2749 65.3562 29.3197 65.2887 29.3813C64.551 29.9138 63.7571 30.4518 63.3236 30.4518V30.4574Z" fill="black"/>
<path d="M57.2537 31.6035C57.1692 31.6035 57.1073 31.5474 57.0904 31.469L56.8032 28.5379C56.792 28.5043 56.8032 28.4707 56.8258 28.4427L57.9294 26.5596C57.9744 26.4811 58.0645 26.4531 58.1377 26.498C58.2165 26.5372 58.2334 26.6325 58.194 26.7109L57.1129 28.5603L57.3945 31.441C57.4057 31.525 57.3438 31.6035 57.2537 31.6147H57.2424L57.2537 31.6035Z" fill="black"/>
<path d="M57.3603 31.5777C57.304 31.5777 57.2533 31.5552 57.2196 31.4992C57.1745 31.4263 57.2083 31.3311 57.2815 31.2918L60.536 29.5881C60.6993 29.5041 62.0507 28.7979 62.1914 28.7363C62.366 28.6858 63.8187 28.5401 64.1058 28.5121C64.2016 28.5065 64.2635 28.5625 64.2804 28.6522C64.286 28.7363 64.2297 28.8091 64.1453 28.8203C63.3232 28.8988 62.4054 29.0053 62.2984 29.0333C62.2027 29.0725 61.1103 29.6442 60.6937 29.8627L57.4392 31.5664C57.4054 31.5777 57.3885 31.5833 57.3716 31.5833L57.3603 31.5777Z" fill="black"/>
<path d="M66.8822 27.435C66.8822 27.435 66.8371 27.435 66.8146 27.4182L63.6952 25.8546C63.6164 25.821 63.5939 25.7425 63.6107 25.6753L63.881 24.7954C63.8923 24.7505 63.9204 24.7225 63.9598 24.7001C63.9993 24.6833 64.0499 24.6833 64.0837 24.7001L67.265 26.2357C67.3439 26.2693 67.372 26.3534 67.3439 26.4262L67.0285 27.3341C67.0173 27.379 66.9835 27.407 66.9385 27.4238C66.9159 27.4238 66.899 27.435 66.8765 27.435H66.8822ZM63.943 25.636L66.7977 27.0651L67.0173 26.4543L64.1231 25.0532L63.943 25.6304V25.636Z" fill="black"/>
<path d="M64.0282 26.8256C64.0282 26.8256 64.0001 26.8256 63.9719 26.8144L63.9212 26.7976C55.9539 24.2196 56.0383 23.8329 56.0665 23.648C56.1115 23.4574 56.3536 23.435 56.7647 23.463C57.6881 23.5247 58.0372 23.5359 58.0372 23.5359C58.1273 23.5359 58.1892 23.6088 58.1892 23.6928C58.1892 23.7769 58.1273 23.8497 58.0259 23.8385C58.0259 23.8385 57.6712 23.8273 56.7365 23.7657C56.6408 23.7545 56.5676 23.7545 56.5169 23.7545C57.2095 24.1692 60.0868 25.2284 64.017 26.5006L64.0676 26.5118C64.1521 26.5398 64.1971 26.6295 64.1746 26.7079C64.1521 26.7696 64.0845 26.8144 64.0282 26.8144V26.8256Z" fill="black"/>
<path d="M64.9498 30.3934C64.9047 30.3934 64.8653 30.3766 64.8428 30.3429L64.4937 29.9618C64.443 29.9002 64.443 29.7937 64.505 29.7433C64.5669 29.6872 64.6739 29.6928 64.7246 29.7545L64.9948 30.0515C65.2369 29.917 65.9577 29.4518 66.5601 28.2077C67.2583 26.7113 67.7257 25.3831 66.9655 23.0629C66.6164 21.9813 65.5297 20.9613 64.1559 20.4121C62.9115 19.9133 61.6333 19.8909 60.7493 20.3561C59.1108 21.2191 58.2211 22.7099 58.1311 23.4496C58.1142 23.6234 58.1311 23.7523 58.1986 23.8083C58.5421 24.0997 61.6784 25.1926 64.2628 26.05L64.2403 26.2013L64.1671 26.3415C62.8326 25.9043 58.4745 24.4528 57.9903 24.0493C57.8889 23.9596 57.782 23.7803 57.827 23.4216C57.9171 22.5978 58.8461 21.0174 60.6085 20.0927C61.5826 19.5771 62.9227 19.5883 64.2797 20.1319C65.7324 20.7203 66.8867 21.8132 67.2696 22.9789C68.0635 25.3999 67.5455 26.8402 66.8417 28.3478C66.059 30.0011 65.0511 30.3766 65.0173 30.3934C64.9948 30.3934 64.9836 30.4046 64.9554 30.4046L64.9498 30.3934Z" fill="black"/>
<path d="M60.7956 52.3822C60.7168 52.3822 60.6492 52.3149 60.6492 52.2421C60.317 48.8907 61.7754 46.5649 63.3294 44.099C64.1797 42.7372 65.0637 41.3249 65.6549 39.6941C67.2315 35.3227 64.4556 33.2995 64.343 33.2155C64.281 33.1706 64.2529 33.0754 64.3092 33.0081C64.3542 32.9409 64.4443 32.9185 64.5231 32.9689C64.5569 32.9857 67.6031 35.1882 65.9477 39.8005C65.3508 41.4594 64.4556 42.8829 63.5828 44.256C62.0738 46.677 60.638 48.958 60.9589 52.2085C60.9646 52.2869 60.9026 52.3654 60.8182 52.3822H60.7956Z" fill="black"/>
<path d="M60.1933 53.0872C60.1933 53.0872 60.1426 53.0872 60.1201 53.0703C60.1032 53.0591 59.3825 52.7453 54.6865 52.3698C50.2946 52.0223 46.7023 51.1817 46.1674 50.3915C46.0604 50.2402 46.0604 50.1001 46.0942 50.016C46.2969 49.265 47.8228 45.6502 49.9793 41.4526C51.8937 37.7258 51.5672 37.1317 51.5559 37.1093C51.4827 37.0588 51.4827 36.9748 51.5221 36.9075C51.5728 36.8403 51.6798 36.8347 51.753 36.8851C51.9106 36.9972 52.271 37.6641 50.2496 41.5983C48.0987 45.7791 46.5897 49.3659 46.387 50.1057C46.3813 50.1225 46.3701 50.1617 46.4264 50.2234C46.8487 50.8454 50.0581 51.6973 54.7091 52.0672C59.5514 52.4595 60.244 52.7901 60.2609 52.8013C60.351 52.8406 60.3679 52.9358 60.3397 53.0087C60.3059 53.0535 60.2553 53.0872 60.1989 53.0872H60.1933Z" fill="black"/>
<path d="M60.1923 53.0864H60.1586C60.0797 53.0696 60.0178 52.9911 60.0459 52.9071C60.0459 52.8734 60.7273 49.3203 60.5978 46.4005C60.4683 43.4358 59.4716 40.5608 59.1732 39.7481C59.1394 39.6697 59.1732 39.58 59.252 39.552C59.3421 39.524 59.4266 39.5632 59.4547 39.6417C59.7644 40.4655 60.7779 43.3797 60.9074 46.3892C61.0426 49.3539 60.35 52.9351 60.3387 52.9687C60.3275 53.036 60.2655 53.092 60.1867 53.092L60.1923 53.0864Z" fill="black"/>
<path d="M63.3459 44.3588C63.2671 44.3588 63.1995 44.2972 63.1883 44.2131C63.1151 41.5567 60.463 40.1051 60.4349 40.0883C60.356 40.0547 60.3279 39.9594 60.3673 39.8866C60.4123 39.8137 60.5024 39.7801 60.5813 39.8249C60.6995 39.8866 63.4247 41.3773 63.4979 44.2075C63.5092 44.2916 63.436 44.3644 63.3459 44.3644V44.3588Z" fill="black"/>
<path d="M65.4297 40.7988C65.4297 40.7988 65.3903 40.7988 65.3678 40.7876C63.8137 40.087 61.8599 40.1879 61.8373 40.1879C61.7416 40.1879 61.6909 40.1263 61.6797 40.0422C61.6797 39.9638 61.7416 39.8853 61.8261 39.8797C61.9105 39.8797 63.8813 39.7788 65.4973 40.513C65.5761 40.5466 65.6099 40.6363 65.5761 40.7091C65.5536 40.7708 65.486 40.8044 65.4353 40.8044L65.4297 40.7988Z" fill="black"/>
<path d="M50.4623 51.8336C50.406 51.8336 50.3441 51.7944 50.3216 51.7384C48.7675 47.664 49.3418 43.3992 49.3531 43.3487C49.3644 43.2703 49.4376 43.2086 49.522 43.2254C49.6065 43.2366 49.6684 43.3151 49.6628 43.3992C49.6515 43.4384 49.0716 47.6248 50.6087 51.6319C50.6425 51.7104 50.5975 51.8 50.5187 51.828C50.5018 51.8337 50.4736 51.8393 50.4567 51.8393L50.4623 51.8336Z" fill="black"/>
<path d="M58.5153 52.7569C58.2957 52.7569 57.6763 52.5103 56.2405 50.6105C54.5626 48.38 52.0513 42.9662 52.0288 42.9102C51.995 42.8317 52.0288 42.742 52.102 42.7084C52.1752 42.6748 52.2709 42.7084 52.3047 42.7813C52.3385 42.8373 54.8272 48.2174 56.4883 50.4199C58.0029 52.4319 58.5097 52.4543 58.5153 52.4543C58.6054 52.4207 58.6786 52.4711 58.7011 52.5496C58.7349 52.6336 58.6786 52.7121 58.5941 52.7513C58.5829 52.7513 58.5491 52.7569 58.5153 52.7569Z" fill="black"/>
<path d="M41.7249 67.0132C41.6404 67.0132 41.5785 66.9515 41.5672 66.8731C41.0999 61.0446 44.4839 53.2322 46.5166 50.5029C46.5672 50.4356 46.663 50.4132 46.7305 50.4693C46.7925 50.5197 46.815 50.615 46.7643 50.6766C44.7598 53.3779 41.4096 61.095 41.8769 66.8394C41.8882 66.9291 41.8262 67.002 41.7361 67.0076H41.7249V67.0132Z" fill="black"/>
<path d="M49.7703 72.9752C49.6858 72.9752 49.607 72.9023 49.6183 72.8127C49.6183 72.7903 49.714 70.358 50.2996 66.4686C50.857 62.596 50.553 58.0958 50.553 58.0509C50.553 57.9613 50.6149 57.8884 50.705 57.8828C50.7894 57.8828 50.857 57.9445 50.8626 58.0229C50.8626 58.0678 51.1723 62.6016 50.598 66.5022C50.0237 70.3804 49.928 72.7959 49.928 72.8183C49.9167 72.9079 49.8548 72.9696 49.7703 72.9696V72.9752Z" fill="black"/>
<path d="M54.561 74.7789C54.561 74.7789 54.5159 74.7733 54.4934 74.7621C54.4258 74.7229 54.3864 74.6388 54.4258 74.5548C54.454 74.4819 57.9957 66.9161 59.1443 61.1212C60.3042 55.3488 59.8707 53.2472 59.8538 53.2248C59.8482 53.1407 59.8876 53.0623 59.9777 53.0342C60.0678 53.0174 60.1466 53.0735 60.1635 53.1575C60.1747 53.2416 60.6139 55.3264 59.454 61.1773C58.2828 67.0114 54.7355 74.6108 54.6961 74.6837C54.6736 74.7453 54.6229 74.7789 54.561 74.7789Z" fill="black"/>
<path d="M54.2469 89.5791C54.1624 89.5791 54.0892 89.5118 54.1005 89.4277C54.1005 89.3773 54.1737 85.1573 54.5172 83.0725C54.5679 82.725 54.6411 82.3551 54.7199 81.9572C55.1028 79.9397 55.5757 77.4289 54.6298 75.5347C53.5262 73.3154 49.8043 73.0352 49.7593 73.0352C49.6692 73.0352 49.6072 72.9567 49.6185 72.8726C49.6185 72.783 49.6804 72.7213 49.7762 72.7269C49.9395 72.7381 53.7233 73.0183 54.9057 75.3946C55.9023 77.3785 55.4181 79.9453 55.0239 82.0076C54.9395 82.4055 54.8719 82.781 54.8212 83.1229C54.4834 85.1797 54.4102 89.3941 54.3989 89.439C54.3989 89.5174 54.337 89.5791 54.2469 89.5791Z" fill="black"/>
<path d="M47.0572 70.7531C46.9953 70.7531 46.9334 70.7139 46.9109 70.6522C46.3816 69.1447 46.2746 66.2585 46.2746 66.1296C46.2633 66.0511 46.3365 65.9783 46.421 65.9727C46.5054 65.9839 46.5674 66.0399 46.5786 66.124C46.5786 66.152 46.6856 69.083 47.1924 70.5514C47.2262 70.6298 47.1868 70.7195 47.0967 70.7531C47.0854 70.7531 47.0629 70.7531 47.0516 70.7531H47.0572Z" fill="black"/>
<path d="M48.3001 70.4864C48.2325 70.4864 48.1706 70.4472 48.1537 70.3799C47.8666 69.4104 47.4161 67.0117 47.3992 66.8996C47.3767 66.8212 47.4386 66.7371 47.5175 66.7203C47.6019 66.7091 47.6864 66.7595 47.6976 66.8436C47.7089 66.8716 48.165 69.3431 48.4521 70.2846C48.4747 70.3687 48.4353 70.4472 48.3452 70.4752C48.3395 70.4808 48.3283 70.4808 48.3057 70.4808L48.3001 70.4864Z" fill="black"/>
<path d="M45.6209 71.0728C45.5477 71.0728 45.4857 71.0224 45.4632 70.9495C45.345 70.3331 44.8382 65.7936 44.8157 65.6086C44.8044 65.519 44.872 65.4461 44.9564 65.4349C45.0409 65.4237 45.1197 65.4853 45.131 65.575C45.1423 65.6142 45.6603 70.2826 45.7785 70.8879C45.7954 70.9664 45.7391 71.0504 45.6546 71.0672H45.6321L45.6209 71.0728Z" fill="black"/>
<path d="M44.2689 71.3538H44.2577C44.1732 71.3426 44.1056 71.2641 44.1225 71.18C44.1225 71.18 44.1732 70.6981 44.0268 69.7846C43.8804 68.8374 43.5595 65.6542 43.5482 65.5141C43.5369 65.4356 43.5989 65.3572 43.689 65.3516C43.7847 65.3516 43.8466 65.4076 43.8579 65.4861C43.8579 65.5253 44.1845 68.7982 44.3365 69.7341C44.4998 70.6981 44.4322 71.2081 44.4322 71.2249C44.4209 71.3033 44.359 71.3594 44.2746 71.3594L44.2689 71.3538Z" fill="black"/>
<path d="M43.312 71.7495C43.2275 71.7495 43.16 71.6823 43.16 71.5982C43.16 71.5814 43.1431 70.4325 43.0023 68.6223C42.8728 66.8794 42.3942 66.0612 42.3942 66.05C42.3548 65.9771 42.3773 65.8874 42.4505 65.837C42.5237 65.7922 42.6194 65.8258 42.6645 65.8874C42.687 65.9267 43.1769 66.7729 43.312 68.5999C43.4528 70.4157 43.4696 71.5814 43.4696 71.5982C43.4696 71.6879 43.4021 71.7495 43.3233 71.7495H43.312Z" fill="black"/>
<path d="M42.6538 71.9307C42.5694 71.9307 42.5074 71.8635 42.4962 71.7794C42.4962 71.7794 42.4849 71.1853 42.3442 69.7002C42.1978 68.2263 41.6516 66.8196 41.6403 66.814C41.6065 66.7355 41.6516 66.6403 41.7248 66.6066C41.8092 66.5786 41.8937 66.6178 41.9275 66.7019C41.95 66.7523 42.4962 68.1478 42.6538 69.6722C42.7946 71.1685 42.8002 71.7514 42.8002 71.7738C42.8115 71.8523 42.7383 71.9251 42.6538 71.9307Z" fill="black"/>
<path d="M48.2727 91.334C48.2051 91.334 48.1544 91.3004 48.1375 91.2275C46.9438 87.6183 47.0565 87.4782 47.124 87.4054C47.1578 87.3549 47.2592 87.226 50.9303 86.2285C51.0204 86.206 51.0936 86.2509 51.1274 86.3237L52.4281 89.9945C52.4619 90.073 52.4168 90.1683 52.3324 90.1907C52.2423 90.2131 52.1578 90.1739 52.1409 90.0954L50.8853 86.5591C49.6297 86.901 47.7547 87.4278 47.3943 87.5791C47.4225 87.9546 47.9348 89.6359 48.4247 91.1322C48.4585 91.2219 48.4078 91.3004 48.329 91.3228C48.3065 91.334 48.2952 91.334 48.2783 91.334H48.2727Z" fill="black"/>
<path d="M53.6093 90.4813C53.553 90.4813 53.5023 90.4477 53.4798 90.3917C53.4685 90.3692 52.3762 88.2844 51.5034 85.2973C50.6307 82.3159 48.8852 74.8621 48.8683 74.7837C48.8457 74.6996 48.902 74.6155 48.9865 74.5987C49.0597 74.5763 49.1498 74.6324 49.1667 74.7108C49.1836 74.7893 50.9291 82.243 51.8075 85.2133C52.669 88.1724 53.7444 90.2347 53.75 90.2516C53.7951 90.33 53.7613 90.4197 53.6881 90.4589C53.66 90.4757 53.6431 90.4813 53.6149 90.4813H53.6093Z" fill="black"/>
<path d="M50.7615 86.5753C50.6995 86.5753 50.6376 86.5248 50.6151 86.4576C50.6151 86.4576 49.9732 84.1654 49.3819 82.0694C48.7964 79.9678 47.6139 74.9519 47.6027 74.9015C47.5801 74.8174 47.6364 74.739 47.7153 74.7166C47.7885 74.7053 47.8786 74.7502 47.8955 74.823C47.9067 74.8791 49.0892 79.8893 49.6691 81.9797C50.266 84.0926 50.9022 86.3791 50.9022 86.3791C50.9247 86.4632 50.8853 86.5416 50.7952 86.5696C50.784 86.5696 50.7615 86.5753 50.7502 86.5753H50.7615Z" fill="black"/>
<path d="M49.6019 86.8939C49.5343 86.8939 49.4723 86.849 49.4555 86.7762C49.4555 86.7538 48.9205 84.6297 48.0084 81.6819C47.0906 78.7452 46.0827 75.108 46.0714 75.0744C46.0489 74.9847 46.1052 74.9007 46.1784 74.8782C46.2629 74.8614 46.353 74.9119 46.3699 74.9847C46.3811 75.024 47.3946 78.6612 48.3068 81.5922C49.219 84.5401 49.7482 86.6753 49.7482 86.6977C49.7708 86.7874 49.7201 86.8659 49.6413 86.8883C49.6187 86.8883 49.6075 86.8883 49.6019 86.8883V86.8939Z" fill="black"/>
<path d="M48.3799 87.2471C48.3123 87.2471 48.2504 87.1967 48.2279 87.1238C48.2279 87.1182 48.059 86.3729 47.7099 85.3753C47.3608 84.3497 44.8776 75.7975 44.7706 75.4277C44.7481 75.3436 44.8044 75.2595 44.8776 75.2427C44.9621 75.2147 45.0466 75.2595 45.0691 75.3436C45.1085 75.4277 47.6535 84.26 48.0083 85.2688C48.3574 86.2832 48.5319 87.0454 48.5432 87.0566C48.5544 87.135 48.4981 87.2191 48.4249 87.2415H48.3855L48.3799 87.2471Z" fill="black"/>
<path d="M47.2359 87.6505C47.1683 87.6505 47.112 87.6112 47.0839 87.5384C47.0839 87.516 46.4589 85.42 45.7888 82.898C45.13 80.3817 43.7674 75.8366 43.7561 75.7862C43.7224 75.7077 43.7787 75.618 43.8519 75.5956C43.9363 75.5732 44.0208 75.618 44.0433 75.6965C44.0658 75.7413 45.4284 80.292 46.0872 82.814C46.7629 85.3359 47.3767 87.4263 47.3879 87.4487C47.4048 87.5328 47.3654 87.6112 47.2809 87.6449C47.2697 87.6449 47.2471 87.6449 47.2359 87.6449V87.6505Z" fill="black"/>
<path d="M55.1642 76.6744C55.091 76.6744 55.0291 76.6352 55.0178 76.5567C55.0065 76.5455 54.7306 75.5031 53.5876 75.0043C52.3601 74.4775 50.0854 73.7938 49.984 73.7714C49.8883 73.7714 49.832 73.7041 49.832 73.6201C49.832 73.5416 49.9164 73.4688 50.0009 73.4688C50.1191 73.4688 52.5347 74.2197 53.7059 74.7297C55.0065 75.2901 55.2993 76.439 55.3106 76.4895C55.3331 76.5791 55.2768 76.6632 55.1924 76.6744C55.1811 76.6744 55.1755 76.6744 55.1586 76.6744H55.1642Z" fill="black"/>
<path d="M50.7219 77.3396H50.7106C50.6205 77.3396 50.5586 77.2668 50.5586 77.1827L50.7219 73.8818C50.7219 73.8033 50.7838 73.7305 50.8683 73.7305H50.8795C50.9696 73.7361 51.0259 73.8145 51.0259 73.8986L50.8626 77.2051C50.8626 77.2836 50.7894 77.3453 50.7163 77.3453L50.7219 77.3396Z" fill="black"/>
<path d="M51.8764 79.4518H51.8651C51.7751 79.4518 51.7188 79.3734 51.7188 79.2893L51.9215 74.4192C51.9215 74.3407 51.9947 74.2734 52.0791 74.2734C52.1636 74.279 52.2255 74.3407 52.2255 74.4304L52.0228 79.3061C52.0228 79.3846 51.9496 79.4574 51.8764 79.4574V79.4518Z" fill="black"/>
<path d="M53.312 79.1032H53.3063C53.2162 79.1032 53.1543 79.0359 53.1543 78.9463L53.2613 74.8215C53.2613 74.743 53.3345 74.6758 53.4189 74.6758C53.509 74.6758 53.571 74.7486 53.571 74.8327L53.464 78.9575C53.464 79.0359 53.3908 79.0976 53.312 79.0976V79.1032Z" fill="black"/>
<path d="M54.5162 78.8027C54.4261 78.8027 54.3529 78.7354 54.3529 78.6514L54.291 75.5074C54.291 75.4233 54.3642 75.3448 54.4543 75.3448C54.5388 75.3336 54.6007 75.4121 54.6007 75.4961L54.6683 78.6458C54.6683 78.7298 54.6007 78.7971 54.5219 78.8083L54.5162 78.8027Z" fill="black"/>
<path d="M55.3453 78.2291C55.2946 78.1507 55.1933 78.1283 55.1313 78.1731C55.1201 78.1843 54.1178 78.7615 53.4196 78.9465C52.7777 79.109 51.5784 79.2771 51.3475 79.3108C51.1167 78.2628 50.8689 77.1811 50.6212 76.1051C50.1032 73.8634 49.602 71.7394 49.3374 70.0973C49.0615 68.4104 48.1381 66.9309 46.7923 66.0398C45.8013 65.3785 44.6865 65.1207 43.718 65.3448C42.7214 65.569 42.0175 66.023 41.6347 66.6955C41.2518 67.3792 41.2292 68.2759 41.584 69.2791C42.1583 70.9155 41.8205 72.2606 41.8205 72.2774C41.8092 72.2998 41.8092 72.3166 41.8092 72.339C41.4939 72.9219 41.7754 73.656 41.8824 73.8746C41.6572 74.379 41.9162 74.8553 42.1189 75.0851C41.9669 75.9762 42.3948 76.3741 42.5412 76.4862C42.6257 76.7104 42.9804 77.7191 43.5716 79.9048C43.7968 80.6894 44.129 81.8047 44.4894 82.9816C45.2946 85.666 46.2236 88.7092 46.3926 89.9141C46.4995 90.6258 46.5108 91.2199 46.5108 91.6907C46.5108 92.4248 46.5221 92.8956 46.905 93.1254C46.9556 93.159 47.0119 93.1758 47.0626 93.1758C47.0964 93.1758 47.1302 93.1702 47.1583 93.1702C47.4399 93.0805 47.6876 92.6266 48.1155 91.8364C48.4815 91.1302 48.9432 90.2504 49.405 89.987C50.3453 89.4321 51.1505 89.7124 52.4005 90.4633C53.414 91.063 54.146 91.0574 54.5007 90.8444C54.664 90.7547 54.7597 90.6034 54.7485 90.4353C54.7485 90.3008 54.6077 89.9477 54.2586 89.0903C53.6448 87.5715 52.5581 84.8758 52.0288 82.494H52.0345C52.0964 82.494 53.414 82.3259 54.0108 82.1409C54.6584 81.9336 54.9174 81.3787 54.9061 80.2131C54.9061 79.2659 54.7935 78.8568 54.7541 78.7391C55.0469 78.5878 55.2665 78.4589 55.289 78.4477C55.3678 78.4085 55.396 78.3132 55.3566 78.2403L55.3453 78.2291ZM42.1752 71.9691C42.2484 71.4255 42.3047 70.3831 41.8768 69.1726C41.5446 68.2591 41.5671 67.4521 41.9106 66.8412C42.2428 66.2471 42.8678 65.8492 43.7856 65.6419C43.9995 65.5914 44.2135 65.5746 44.4331 65.5746C45.1426 65.5746 45.9196 65.8212 46.6234 66.292C47.8903 67.1382 48.7743 68.5449 49.039 70.1421V70.1982C48.9883 70.187 48.825 70.2094 48.2732 70.3159C46.7022 70.6297 43.2056 71.3751 42.1752 71.9691ZM54.4331 90.4297C54.4444 90.5026 54.3825 90.5474 54.3374 90.5754C54.1234 90.6987 53.521 90.7547 52.5581 90.1887C51.2293 89.3873 50.3002 89.0847 49.2529 89.7123C48.7068 90.0262 48.2394 90.9061 47.834 91.6907C47.6032 92.1278 47.2203 92.862 47.057 92.862C46.8374 92.7331 46.8149 92.3968 46.8149 91.6907C46.8149 91.2031 46.8036 90.6034 46.6966 89.8637C46.5164 88.6363 45.5874 85.582 44.7822 82.8863C44.4218 81.7094 44.0896 80.5998 43.8644 79.8152C43.245 77.5846 42.9072 76.6151 42.8396 76.4189C43.2056 76.2228 45.0919 75.2701 46.995 75.0851C49.0728 74.889 49.2923 74.8834 49.2923 74.8834C49.3036 74.8834 49.3149 74.8834 49.3261 74.8834C49.3599 74.8834 49.3487 74.8385 49.3712 74.8161C49.405 74.7881 49.4556 74.7769 49.4556 74.732C49.4556 74.7208 49.4387 74.7208 49.4331 74.7152C49.4331 74.7096 49.4444 74.7096 49.4387 74.704C49.1009 73.1572 48.5773 70.809 48.5491 70.6185C48.5491 70.6073 48.5322 70.6073 48.5322 70.5961C48.8813 70.5288 48.9883 70.512 49.0108 70.512C49.0333 70.512 49.0784 70.512 49.0953 70.4896C49.3712 72.0924 49.8385 74.0875 50.3284 76.1836C50.7901 78.1675 51.2631 80.2243 51.5728 81.928C52.0288 84.4723 53.2845 87.5491 53.9658 89.208C54.1966 89.7964 54.4331 90.3456 54.4331 90.4409V90.4297Z" fill="black"/>
<path d="M53.6946 88.282C53.6101 88.282 53.5482 88.2204 53.5369 88.1419C53.3905 86.7296 53.9818 82.0837 54.0043 81.8819C54.0156 81.7979 54.0944 81.7362 54.1788 81.7474C54.2633 81.7642 54.3252 81.8371 54.3196 81.9212C54.3083 81.9716 53.7002 86.724 53.8523 88.1083C53.8635 88.1868 53.8016 88.2652 53.7115 88.2764H53.7002L53.6946 88.282Z" fill="black"/>
<path d="M52.85 85.9329C52.7824 85.9329 52.7036 85.8712 52.7036 85.7928C52.6642 84.6215 52.8218 82.2957 52.8331 82.1948C52.8331 82.1107 52.9063 82.0603 52.9907 82.0547C53.0752 82.0603 53.1371 82.1331 53.1259 82.2228C53.1259 82.2508 52.9682 84.6327 53.0133 85.7815C53.0133 85.8712 52.9513 85.9329 52.8612 85.9385H52.85V85.9329Z" fill="black"/>
<path d="M50.8278 94.5736C50.6195 94.5736 50.4393 94.5008 50.2929 94.3439C50.0508 94.0917 49.9438 93.548 49.8143 92.9764C49.7073 92.5 49.606 91.9957 49.4258 91.6874C48.9866 90.9364 49.4877 89.9052 49.5103 89.8548C49.5497 89.7819 49.651 89.7539 49.7242 89.7876C49.7974 89.8268 49.8312 89.9165 49.7862 89.9893C49.7862 90.0005 49.3413 90.9308 49.6904 91.5361C49.8931 91.8892 50.0114 92.4048 50.1184 92.9148C50.2366 93.4191 50.3436 93.9459 50.5238 94.1309C50.8391 94.4615 51.4078 94.2206 52.7592 93.2006L52.9281 93.0717C54.1499 92.1638 54.5722 91.8499 54.5553 91.4632C54.5215 91.127 54.4315 91.0373 54.4315 91.0373C54.3526 91.0037 54.3245 90.914 54.3526 90.8356C54.392 90.7571 54.4934 90.7291 54.5666 90.7683C54.6285 90.7963 54.82 90.9196 54.8594 91.4576C54.8706 92.0013 54.4258 92.3319 53.1026 93.3183L52.945 93.4472C51.9877 94.1533 51.329 94.5792 50.8335 94.5792L50.8278 94.5736Z" fill="black"/>
<path d="M50.5473 93.8863C50.5473 93.8863 50.5135 93.8863 50.5079 93.8751C50.4178 93.8583 50.3728 93.7742 50.4009 93.7013C50.4122 93.6341 50.7725 92.3395 51.7523 91.5941C52.7207 90.8207 54.4888 90.9328 54.562 90.9384C54.6464 90.9496 54.7084 91.0169 54.6971 91.1065C54.6971 91.1906 54.6239 91.2522 54.5338 91.241C54.5169 91.241 52.8221 91.1346 51.9381 91.8239C51.0428 92.5244 50.6881 93.7686 50.6881 93.7742C50.6656 93.847 50.6036 93.8919 50.5417 93.8919L50.5473 93.8863Z" fill="black"/>
<path d="M49.8932 94.04C49.7243 94.04 49.3527 94.0344 48.8741 93.9727C48.7558 93.9615 48.6432 93.9503 48.5363 93.9391C48.1365 93.8999 47.8437 93.8495 47.7142 93.6589C47.6635 93.5636 47.6635 93.4403 47.7142 93.3058C47.8212 93.0032 47.6072 92.6894 47.6016 92.6838C47.5565 92.6165 47.579 92.5212 47.6466 92.4652C47.7142 92.426 47.8155 92.4316 47.8549 92.51C47.8775 92.5324 48.1646 92.9696 48.0013 93.4123C47.9788 93.474 47.9788 93.4908 47.9788 93.502C48.0239 93.5692 48.3392 93.6141 48.5757 93.6309C48.6826 93.6421 48.7896 93.6533 48.9022 93.6701C49.5554 93.7486 49.989 93.7262 49.989 93.7262C50.079 93.7262 50.1522 93.7878 50.1522 93.8663C50.1579 93.9559 50.0847 94.0288 50.0002 94.0288C50.0002 94.0288 49.9552 94.0344 49.8932 94.0344V94.04Z" fill="black"/>
<path d="M48.0977 93.4731H48.0864C48.002 93.4619 47.94 93.3834 47.9457 93.3049C47.9457 93.2825 48.0132 92.7613 48.779 92.4082C49.6011 92.0328 49.8939 92.4419 49.9051 92.4531C49.9558 92.5315 49.9389 92.6212 49.8714 92.6773C49.7982 92.7165 49.6968 92.7053 49.6574 92.6324C49.6574 92.6324 49.4659 92.4307 48.9029 92.6829C48.306 92.9631 48.2554 93.3161 48.2554 93.3274C48.2441 93.4058 48.1822 93.4675 48.0921 93.4675L48.0977 93.4731Z" fill="black"/>
<path d="M60.0685 53.8664C49.0774 53.6086 46.1326 51.7368 46.0144 51.6583C45.9412 51.6079 45.9186 51.5238 45.9749 51.4509C46.0144 51.3781 46.1157 51.3557 46.1889 51.4061C46.2114 51.4285 49.2126 53.306 60.0854 53.5582C60.1642 53.5582 60.2318 53.6366 60.2318 53.7207C60.2318 53.7991 60.1642 53.8664 60.0741 53.8664H60.0685Z" fill="black"/>
<path d="M63.9192 31.7627C63.9192 31.7627 63.8798 31.7627 63.8572 31.7515C63.0352 31.4153 62.8381 30.4794 62.8325 30.4401C62.8268 30.3617 62.8775 30.2832 62.9676 30.2608C63.0521 30.244 63.1309 30.3 63.1421 30.3841C63.1421 30.3953 63.2998 31.1967 63.9698 31.4713C64.0599 31.505 64.0881 31.5946 64.0599 31.6731C64.0374 31.7291 63.9698 31.7684 63.9192 31.7684V31.7627Z" fill="#141515"/>
<path d="M45.7042 6.48937C44.3753 6.48937 43.2773 5.40213 43.2773 4.07391C43.2773 2.74569 44.3753 1.66406 45.7042 1.66406C47.033 1.66406 48.131 2.74009 48.131 4.07391C48.131 5.40774 47.0443 6.48937 45.7042 6.48937ZM45.7042 1.9723C44.5442 1.9723 43.587 2.91382 43.587 4.07391C43.587 5.234 44.5442 6.18113 45.7042 6.18113C46.8641 6.18113 47.8213 5.234 47.8213 4.07391C47.8213 2.91382 46.8753 1.9723 45.7042 1.9723Z" fill="black"/>
<path d="M41.1947 88.9252C41.1835 88.8355 41.099 88.7907 41.0146 88.8019L29.4323 91.1557L29.7927 65.006C29.7927 64.9275 29.742 64.8659 29.6575 64.8547L28.1035 64.6417C28.0641 64.6361 28.0077 64.6529 27.9796 64.6753C27.9458 64.7034 27.9233 64.7426 27.9233 64.793C27.9233 64.793 27.9233 64.9612 27.9233 65.2021L26.296 65.1629L24.7251 64.9387C24.6857 64.9331 24.6406 64.9387 24.6012 64.978C24.5674 65.0116 24.5505 65.0452 24.5505 65.0901C24.5505 65.0901 24.5505 65.2302 24.5505 65.4431L22.4672 65.3927V65.3703C22.4672 65.2918 22.4109 65.2246 22.3377 65.2077L20.7724 65.0004C20.7329 64.9892 20.6879 65.006 20.6541 65.0396C20.6203 65.062 20.6034 65.1069 20.6034 65.1461C20.6034 65.1461 20.4683 90.1917 20.4458 92.9939L2.64165 96.6143C2.55719 96.6367 2.50651 96.7095 2.51214 96.7992C2.53467 96.8721 2.5966 96.9225 2.67543 96.9225C2.68669 96.9225 2.69232 96.9225 2.70359 96.9113L29.2915 91.5143L41.0878 89.1213C41.1722 89.1045 41.2229 89.0148 41.206 88.942L41.1947 88.9252ZM27.7656 91.4975L26.0652 91.845L26.4143 65.4768L27.912 65.5048C27.8895 69.1251 27.7994 86.3304 27.7656 91.4975ZM24.528 65.7458C24.5111 69.3437 24.421 87.6866 24.3929 92.1813L22.0956 92.6464L22.439 65.6953L24.528 65.7458Z" fill="#141515"/>
<path fill-rule="evenodd" clip-rule="evenodd" d="M43.7184 4.46568C43.7071 4.3536 43.7409 3.23834 44.3265 2.60505C44.9121 1.98858 46.179 1.77001 47.0686 2.5378C47.9639 3.3168 44.6981 2.89087 43.7184 4.46008V4.46568Z" fill="#00953B"/>
<path d="M42.1306 73.6782C42.0236 73.4091 41.8096 72.7591 42.1869 72.3387C42.5135 71.9857 44.8896 71.3187 48.2511 70.6406C48.2624 70.7303 48.313 70.9993 48.4876 71.7951C44.3603 72.3611 42.6204 73.3419 42.1306 73.6782Z" fill="#00953B"/>
<path d="M42.1693 74.0294C42.2144 74.0014 43.7628 72.7405 48.5545 72.1016C48.6164 72.3818 48.6896 72.7124 48.7741 73.1047C48.4363 73.1215 47.6536 73.2 45.7504 73.4858C43.4193 73.8501 42.5691 74.4834 42.282 74.7916C42.1693 74.6347 42.0398 74.3545 42.175 74.0294H42.1693Z" fill="#00953B"/>
<path d="M42.4276 75.0948C42.4727 75.022 43.0132 74.2262 45.7891 73.789C47.9457 73.464 48.627 73.4136 48.8353 73.4023C48.9141 73.7442 49.0042 74.1533 49.1 74.5849C48.8522 74.6017 48.2722 74.6521 46.9603 74.781C44.8713 74.9772 42.8612 76.0532 42.6472 76.1765C42.5177 76.0476 42.3094 75.7281 42.4276 75.1005V75.0948Z" fill="#00953B"/>
<path d="M54.5906 80.2043C54.5906 80.2043 54.5906 80.2435 54.5906 80.2716C54.54 80.3444 54.219 80.7255 53.2956 80.8936C52.4848 81.0393 51.9442 81.0842 51.7134 81.101C51.6852 80.9665 51.6571 80.8264 51.6289 80.6863C51.9273 80.6751 53.0535 80.619 53.8981 80.3444C54.2415 80.2379 54.4499 80.1371 54.585 80.0586C54.585 80.1146 54.585 80.1483 54.585 80.2099L54.5906 80.2043Z" fill="#00953B"/>
<path d="M53.9092 81.8335C53.3461 82.0016 52.006 82.1698 51.9948 82.1698C51.9722 82.1698 51.9779 82.209 51.9553 82.2202C51.9328 82.1025 51.8878 81.9736 51.8653 81.8559C51.8427 81.7158 51.7977 81.5421 51.7695 81.402C52.0229 81.3852 52.5466 81.3347 53.3405 81.1946C53.9542 81.0881 54.3315 80.8808 54.5623 80.707C54.5004 81.458 54.2695 81.727 53.9035 81.8391L53.9092 81.8335Z" fill="#00953B"/>
<path d="M54.5746 79.6591C54.5746 79.6591 54.5521 79.6815 54.5521 79.6983C54.5183 79.7376 54.3663 79.8609 53.8032 80.0514C52.9586 80.326 51.7649 80.3708 51.5678 80.3821C51.5115 80.1243 51.4665 79.8777 51.4102 79.6143C51.6917 79.5806 52.846 79.4125 53.5104 79.2388C53.8201 79.1603 54.1635 79.0146 54.4732 78.8633C54.5014 78.9642 54.5464 79.2164 54.5746 79.6591Z" fill="#00953B"/>
<path d="M26.111 65.4545L25.7619 91.9124L24.709 92.1254C24.7428 87.2832 24.8385 67.3543 24.8441 65.2695L26.111 65.4489V65.4545Z" fill="#00953B"/>
<path d="M20.8959 65.3242L22.1403 65.4923L21.7912 92.7181L20.7383 92.931C20.7608 90.0784 20.8847 67.5435 20.8959 65.3242Z" fill="#00953B"/>
<path d="M29.4782 65.1447L29.1178 91.2271L28.0762 91.4401C28.0987 85.8974 28.2113 66.9997 28.2226 64.9766L29.4782 65.1503V65.1447Z" fill="#00953B"/>
</g>
<defs>
<clipPath id="clip0_28814_279327">
<rect width="94.015" height="95.9737" fill="white" transform="translate(0.429688 0.949219)"/>
</clipPath>
</defs>
</svg>
