<svg viewBox="0 0 111 99" fill="none" xmlns="http://www.w3.org/2000/svg">
<path d="M20.844 14.7925L55.622 2.11899L90.3937 14.7925H93.7615L55.622 0.894531L17.4824 14.7925H20.844Z" fill="#D8D8D8"/>
<path d="M87.027 14.7944H24.2129L55.623 3.35156L87.027 14.7944Z" fill="#D8D8D8"/>
<path d="M54.7971 6.66406V7.441L54.1112 7.57153V10.9403C54.1112 11.363 54.2225 11.6862 54.4511 11.8975C54.6797 12.1089 54.9887 12.2145 55.3842 12.2145C55.7797 12.2145 56.101 12.1089 56.3297 11.8975C56.5583 11.6862 56.6757 11.3692 56.6757 10.9403V7.57153L55.996 7.441V6.66406H58.6531V7.441L57.9672 7.57153V10.9403C57.9672 11.6613 57.7324 12.2207 57.2566 12.6123C56.7808 13.0039 56.1628 13.2028 55.3904 13.2028C54.6179 13.2028 54.0062 13.0039 53.5365 12.6123C53.0669 12.2207 52.8321 11.6613 52.8321 10.9403V7.57153L52.1523 7.441V6.66406H54.8095H54.7971Z" fill="white"/>
<path d="M88.4215 16.1055V17.7339H85.8385V16.1055H84.2195V17.7339H81.6365V16.1055H80.0175V17.7339H77.4345V16.1055H75.8155V17.7339H73.2324V16.1055H71.6196V17.7339H69.0304V16.1055H67.4176V17.7339H64.8284V16.1055H63.2156V17.7339H60.6325V16.1055H59.0135V17.7339H56.4305V16.1055H54.8115V17.7339H52.2285V16.1055H50.6095V17.7339H48.0265V16.1055H46.4075V17.7339H43.8244V16.1055H42.2054V17.7339H39.6224V16.1055H38.0034V17.7339H35.4204V16.1055H33.8014V17.7339H31.2184V16.1055H29.5994V17.7339H27.0164V16.1055H25.3973V17.7339H22.8143V16.1055H21.1953V17.7339V21.022H90.0405V17.7339V16.1055H88.4215Z" fill="#D8D8D8"/>
<path d="M31.2664 21.8125H22.7264V23.2607H31.2664V21.8125Z" fill="#D8D8D8"/>
<path d="M31.2664 51.1094H22.7264V52.5576H31.2664V51.1094Z" fill="#D8D8D8"/>
<path d="M30.2214 23.8633H23.7577V50.5465H30.2214V23.8633Z" fill="#D8D8D8"/>
<path d="M49.9619 21.8125H41.4219V23.2607H49.9619V21.8125Z" fill="#D8D8D8"/>
<path d="M49.9619 51.1094H41.4219V52.5576H49.9619V51.1094Z" fill="#D8D8D8"/>
<path d="M48.9207 23.8633H42.457V50.5465H48.9207V23.8633Z" fill="#D8D8D8"/>
<path d="M79.9717 23.2578H88.5117V21.8096H79.9717V23.2578Z" fill="#D8D8D8"/>
<path d="M79.9717 52.5508H88.5117V51.1026H79.9717V52.5508Z" fill="#D8D8D8"/>
<path d="M81.0168 50.5391H87.4805V23.8558H81.0168V50.5391Z" fill="#D8D8D8"/>
<path d="M61.2608 23.2578H69.8008V21.8096H61.2608V23.2578Z" fill="#D8D8D8"/>
<path d="M61.2608 52.5508H69.8008V51.1026H61.2608V52.5508Z" fill="#D8D8D8"/>
<path d="M62.3058 50.5391H68.7695V23.8558H62.3058V50.5391Z" fill="#D8D8D8"/>
<path d="M99.7667 34.1217C99.9089 35.2405 98.5556 36.1728 97.3753 35.9615C97.4494 36.639 96.504 37.0244 96.127 36.6825C96.504 37.1798 97.1219 38.7523 96.127 39.61C95.1321 40.4678 93.8468 39.9767 93.8468 39.9767C93.8468 39.9767 93.3772 41.1453 91.6099 40.8345C89.8364 40.5175 89.4718 38.7026 89.6819 38.0561C88.5201 38.7336 86.1596 38.2115 85.0967 36.639C84.04 35.0665 84.1265 33.1148 85.0287 32.226C84.4108 31.6417 84.6085 30.7094 84.9731 30.2743C85.3377 29.8392 85.8568 29.8765 85.8568 29.8765C85.8568 29.8765 85.3563 29.2985 85.9433 28.9069C85.1091 28.4159 84.7259 26.6693 86.0669 25.364C87.4016 24.0526 89.4038 24.5747 89.4038 24.5747C89.4038 24.5747 88.9959 23.2818 89.8796 22.132C90.6397 21.1437 91.9003 21.2431 91.9003 21.2431C91.9003 21.2431 91.8447 20.317 92.7469 20.2673C92.2216 19.3101 92.7221 18.1043 93.4081 17.576C94.6872 16.5939 97.95 16.3329 97.9253 18.7818C99.2477 17.7562 101.237 19.1423 100.922 20.5097C102.016 19.5525 103.783 20.8453 103.369 22.1693C104.951 21.7155 106.601 23.6113 105.718 25.364C106.335 25.0035 107.726 25.2646 107.689 26.4455C108.486 26.2031 109.37 26.6755 109.598 27.5146C109.827 28.3537 109.468 28.9939 108.844 29.4166C109.438 29.3295 109.802 30.3302 109.407 30.6224C110.568 30.6224 111.359 33.0713 109.938 33.8793C110.754 34.4574 111.162 37.9567 108.665 39.3676C106.169 40.7848 102.572 39.927 102.387 37.6335C101.33 37.3724 100.879 36.2226 101.596 35.5948C100.904 35.8745 99.8223 34.9981 99.7605 34.1279L99.7667 34.1217Z" fill="#ECECEC"/>
<path opacity="0.07" d="M108.677 39.3619C111.173 37.9448 110.765 34.4454 109.95 33.8736C111.371 33.0656 110.58 30.6166 109.418 30.6166C109.814 30.3245 109.449 29.3238 108.856 29.4108C109.48 28.9944 109.832 28.348 109.61 27.5089C109.499 27.0924 109.221 26.763 108.875 26.5703C109.381 27.3908 109.177 28.8266 107.812 29.1187C106.638 29.3735 106.014 28.5282 106.014 28.5282C106.014 28.5282 105.729 29.0255 104.45 28.8701C103.171 28.7085 102.534 27.4405 102.868 26.4212C103.468 25.4018 102.528 24.1525 101.317 24.339C101.373 26.9122 99.1667 27.6891 97.078 26.6822C98.0914 29.2554 95.873 30.5048 94.7484 29.3673C94.3714 30.3121 93.1293 30.2002 92.567 29.6346C92.0047 30.2375 90.2374 29.6346 90.2374 28.1988C89.1869 29.5227 87.3021 29.1436 87.1538 27.7451C86.3505 28.8017 85.3494 28.2112 85.2444 27.7948C85.3494 28.2982 85.6151 28.7085 85.955 28.9074C85.368 29.299 85.8685 29.877 85.8685 29.877C85.8685 29.877 85.3494 29.8397 84.9848 30.2748C84.6203 30.7099 84.4225 31.6422 85.0405 32.2265C84.1383 33.1153 84.0517 35.0732 85.1084 36.6395C86.1651 38.212 88.5318 38.7279 89.6936 38.0566C89.4835 38.703 89.8481 40.518 91.6216 40.835C93.3951 41.152 93.8585 39.9772 93.8585 39.9772C93.8585 39.9772 95.1439 40.4683 96.1387 39.6105C97.1336 38.7528 96.5157 37.1865 96.1387 36.683C96.5157 37.0249 97.4611 36.6395 97.387 35.962C98.5673 36.1795 99.9206 35.241 99.7784 34.1222C99.8464 34.9924 100.922 35.8688 101.614 35.5891C100.903 36.2168 101.348 37.3667 102.405 37.6278C102.59 39.9213 106.18 40.779 108.683 39.3619H108.677Z" fill="black"/>
<path d="M94.7756 32.0971C94.7756 32.0971 92.5325 32.7684 91.9084 31.1524C90.7652 31.8174 88.6271 31.6558 87.9041 30.2076C86.6867 30.2076 85.9514 28.9023 85.9514 28.9023C85.3643 29.2939 85.8649 29.872 85.8649 29.872C85.8649 29.872 85.3458 29.8347 84.9812 30.2698C84.6166 30.7048 84.4189 31.6372 85.0368 32.2214C84.9441 32.3147 84.8576 32.4265 84.7773 32.5384C84.4065 33.5205 85.6918 34.2726 86.489 33.8002C86.1862 34.8009 87.3232 37.8154 90.4809 36.5599C92.3657 37.7595 94.2751 36.3113 94.0279 33.6634C94.9672 33.6634 95.4121 32.6317 94.7756 32.1033V32.0971Z" fill="#ECECEC"/>
<path d="M106.718 34.7696C107.688 33.6073 107.41 32.4015 107.41 32.4015C107.41 32.4015 106.458 33.7876 104.475 32.936C102.485 32.0845 103.56 30.1142 103.56 30.1142C103.56 30.1142 102.034 30.2385 102.312 28.8959C101.818 29.1446 101.064 28.8587 101.064 27.8828C100.848 29.5734 99.4324 30.3877 97.6528 30.0023C98.8454 30.4498 98.7589 31.3759 97.9308 32.041C96.9916 32.9858 97.1028 35.3601 99.3583 35.2731C99.6549 34.9499 99.8217 34.5459 99.7661 34.117C99.8341 34.9872 100.909 35.8636 101.601 35.5839C101.601 35.5839 102.25 36.1681 103.029 35.416C103.597 35.9879 105.748 35.9381 106.712 34.7758L106.718 34.7696Z" fill="#ECECEC"/>
<path d="M104.18 39.0903C104.18 39.0903 105.953 36.4798 105.861 36.2747C105.762 36.0696 104.18 38.6676 103.204 39.37C102.227 40.0724 100.268 41.272 99.7802 41.272C99.292 41.272 99.2549 40.6753 99.4279 39.513C99.601 38.3507 99.6442 38.0337 100.441 36.9832C101.245 35.9266 103.543 33.0737 103.414 32.9369C103.284 32.8064 100.361 36.5482 99.638 37.0143C98.9274 37.4681 98.3033 34.41 98.0623 34.41C97.8213 34.41 98.7544 36.5979 98.8162 37.6172C98.8718 38.6366 98.7606 39.861 98.3095 40.178C97.8522 40.495 96.6163 39.5067 95.813 38.6304C95.0096 37.754 94.9911 33.9563 94.676 33.9563C94.3608 33.9563 94.8799 37.4432 94.8799 37.7788C94.8799 38.5123 91.8087 36.5046 91.2525 36.5917C90.6964 36.6787 94.0827 37.8969 95.4113 39.196C96.573 40.3272 96.7708 40.6815 97.1663 41.5206C97.5865 42.4094 97.7101 43.5593 97.7101 46.8286C97.7101 50.098 96.8326 59.2597 96.8326 61.286C96.8326 61.5532 97.0118 61.8205 97.364 62.0256C98.0685 62.4358 99.2178 62.4358 99.9223 62.0256C100.275 61.8205 100.454 61.5532 100.454 61.286C100.454 59.2597 99.5763 50.098 99.5763 46.8286C99.5763 43.5593 99.706 42.3348 100.676 41.6449C101.64 40.955 103.29 39.7305 104.019 39.513C104.748 39.2954 106.849 39.6559 106.849 39.513C106.849 39.37 104.192 39.0903 104.192 39.0903H104.18Z" fill="#F0F0F0"/>
<path d="M11.4752 34.1139C11.3331 35.2327 12.6864 36.165 13.8667 35.9537C13.7925 36.6312 14.738 37.0166 15.1149 36.6747C14.738 37.1719 14.12 38.7445 15.1149 39.6022C16.1098 40.46 17.3951 39.9689 17.3951 39.9689C17.3951 39.9689 17.8648 41.1375 19.6321 40.8267C21.4056 40.5097 21.7702 38.6947 21.5601 38.0483C22.7218 38.7258 25.0824 38.2037 26.1452 36.6312C27.2019 35.0587 27.1154 33.107 26.2132 32.2182C26.8312 31.6339 26.6334 30.7016 26.2688 30.2665C25.9042 29.8314 25.3852 29.8687 25.3852 29.8687C25.3852 29.8687 25.8857 29.2907 25.2987 28.8991C26.1329 28.408 26.516 26.6615 25.1751 25.3562C23.8403 24.0447 21.8382 24.5668 21.8382 24.5668C21.8382 24.5668 22.246 23.274 21.3624 22.1241C20.6023 21.1359 19.3417 21.2353 19.3417 21.2353C19.3417 21.2353 19.3973 20.3092 18.4951 20.2595C19.0203 19.3023 18.5198 18.0965 17.8339 17.5682C16.5547 16.5861 13.292 16.3251 13.3167 18.774C11.9943 17.7484 10.0045 19.1345 10.3197 20.5019C9.22592 19.5447 7.45859 20.8375 7.87262 22.1614C6.29068 21.7077 4.64077 23.6034 5.52443 25.3562C4.90648 24.9957 3.51611 25.2568 3.55318 26.4377C2.75603 26.1953 1.87237 26.6677 1.64373 27.5068C1.41509 28.3459 1.7735 28.9861 2.39763 29.4087C1.8044 29.3217 1.43981 30.3224 1.8353 30.6146C0.67356 30.6146 -0.117409 33.0635 1.30386 33.8715C0.488177 34.4495 0.0803334 37.9489 2.57683 39.3598C5.07333 40.777 8.66977 39.9192 8.85515 37.6257C9.91184 37.3646 10.3629 36.2148 9.64612 35.587C10.3382 35.8667 11.4196 34.9903 11.4814 34.1201L11.4752 34.1139Z" fill="#ECECEC"/>
<path opacity="0.07" d="M2.56914 39.3541C0.0726429 37.9369 0.480486 34.4376 1.29617 33.8658C-0.125099 33.0578 0.66587 30.6088 1.82761 30.6088C1.43212 30.3167 1.79671 29.316 2.38994 29.403C1.76581 28.9866 1.41358 28.3402 1.63604 27.5011C1.74727 27.0846 2.02535 26.7552 2.3714 26.5625C1.86468 27.383 2.0686 28.8188 3.43426 29.1109C4.60836 29.3657 5.23248 28.5204 5.23248 28.5204C5.23248 28.5204 5.51674 29.0177 6.79588 28.8623C8.07503 28.7007 8.71151 27.4327 8.37782 26.4133C7.77841 25.394 8.71769 24.1447 9.92886 24.3311C9.87325 26.9044 12.0793 27.6813 14.168 26.6744C13.1545 29.2476 15.373 30.497 16.4976 29.3595C16.8746 30.3043 18.1166 30.1924 18.679 29.6268C19.2413 30.2297 21.0086 29.6268 21.0086 28.191C22.0591 29.5149 23.9439 29.1358 24.0922 27.7373C24.8955 28.7939 25.8966 28.2034 26.0016 27.787C25.8966 28.2904 25.6308 28.7007 25.291 28.8996C25.878 29.2911 25.3775 29.8692 25.3775 29.8692C25.3775 29.8692 25.8966 29.8319 26.2611 30.267C26.6257 30.7021 26.8235 31.6344 26.2055 32.2187C27.1077 33.1075 27.1942 35.0654 26.1376 36.6317C25.0809 38.2042 22.7141 38.7201 21.5524 38.0488C21.7625 38.6952 21.3979 40.5102 19.6244 40.8272C17.8509 41.1442 17.3875 39.9694 17.3875 39.9694C17.3875 39.9694 16.1021 40.4604 15.1072 39.6027C14.1123 38.745 14.7303 37.1786 15.1072 36.6752C14.7303 37.017 13.7848 36.6317 13.859 35.9542C12.6787 36.1717 11.3254 35.2332 11.4675 34.1144C11.3996 34.9846 10.3243 35.861 9.63225 35.5813C10.3429 36.209 9.89797 37.3589 8.84128 37.6199C8.6559 39.9135 5.06564 40.7712 2.56296 39.3541H2.56914Z" fill="black"/>
<path d="M16.4679 32.0893C16.4679 32.0893 18.711 32.7606 19.3351 31.1446C20.4783 31.8096 22.6164 31.648 23.3394 30.1998C24.5568 30.1998 25.2921 28.8945 25.2921 28.8945C25.8792 29.2861 25.3786 29.8642 25.3786 29.8642C25.3786 29.8642 25.8977 29.8269 26.2623 30.2619C26.6269 30.697 26.8246 31.6294 26.2067 32.2136C26.2994 32.3069 26.3859 32.4187 26.4662 32.5306C26.837 33.5127 25.5517 34.2648 24.7545 33.7924C25.0573 34.7931 23.9203 37.8076 20.7626 36.5521C18.8779 37.7517 16.9684 36.3034 17.2156 33.6556C16.2763 33.6556 15.8314 32.6239 16.4679 32.0955V32.0893Z" fill="#ECECEC"/>
<path d="M4.52199 34.7696C3.55181 33.6073 3.82989 32.4015 3.82989 32.4015C3.82989 32.4015 4.78152 33.7876 6.76513 32.936C8.75491 32.0845 7.67968 30.1142 7.67968 30.1142C7.67968 30.1142 9.20601 30.2385 8.92793 28.8959C9.42229 29.1446 10.1762 28.8587 10.1762 27.8828C10.3925 29.5734 11.8076 30.3877 13.5872 30.0023C12.3946 30.4498 12.4811 31.3759 13.3092 32.041C14.2484 32.9858 14.1372 35.3601 11.8817 35.2731C11.5851 34.9499 11.4182 34.5459 11.4739 34.117C11.4059 34.9872 10.3307 35.8636 9.63857 35.5839C9.63857 35.5839 8.98973 36.1681 8.21112 35.416C7.64261 35.9879 5.49216 35.9381 4.52817 34.7758L4.52199 34.7696Z" fill="#ECECEC"/>
<path d="M7.06796 39.0825C7.06796 39.0825 5.29446 36.472 5.38715 36.2669C5.48602 36.0617 7.06796 38.6598 8.04431 39.3622C9.02066 40.0645 10.9796 41.2641 11.4677 41.2641C11.9559 41.2641 11.993 40.6675 11.82 39.5051C11.6469 38.3428 11.6037 38.0259 10.8065 36.9754C10.0032 35.9188 7.70444 33.0659 7.83421 32.9291C7.96398 32.7986 10.8869 36.5403 11.6099 37.0065C12.3205 37.4602 12.9446 34.4022 13.1856 34.4022C13.4266 34.4022 12.4935 36.5901 12.4317 37.6094C12.3761 38.6288 12.4873 39.8532 12.9384 40.1702C13.3957 40.4872 14.6316 39.4989 15.4349 38.6225C16.2383 37.7462 16.2568 33.9485 16.5719 33.9485C16.8871 33.9485 16.368 37.4354 16.368 37.771C16.368 38.5044 19.4392 36.4968 19.9954 36.5838C20.5515 36.6709 17.1652 37.8891 15.8366 39.1882C14.6749 40.3194 14.4771 40.6737 14.0816 41.5128C13.6614 42.4016 13.5378 43.5515 13.5378 46.8208C13.5378 50.0902 14.4153 59.2519 14.4153 61.2782C14.4153 61.5454 14.2361 61.8127 13.8839 62.0178C13.1794 62.428 12.0301 62.428 11.3256 62.0178C10.9734 61.8127 10.7942 61.5454 10.7942 61.2782C10.7942 59.2519 11.6716 50.0902 11.6716 46.8208C11.6716 43.5515 11.5419 42.327 10.5717 41.6371C9.60771 40.9471 7.9578 39.7227 7.22862 39.5051C6.49945 39.2876 4.39844 39.6481 4.39844 39.5051C4.39844 39.3622 7.0556 39.0825 7.0556 39.0825H7.06796Z" fill="#F0F0F0"/>
<path d="M12.093 89.2356C12.3587 86.4137 12.1548 85.009 12.4823 80.6022C12.5256 79.471 12.5936 78.259 12.6924 77.1837C13.0261 73.5662 13.607 72.3356 13.6688 71.6394C13.6688 71.6394 13.8851 66.0019 14.2867 58.0771C14.4783 54.3478 15.5782 53.2415 16.4743 51.2773L26.6827 51.4949C27.7209 56.4052 27.8197 67.071 27.6776 72.1056C27.6034 74.6726 26.4973 87.489 26.4726 87.806C26.3737 88.9248 26.4664 89.3723 26.8928 89.8509C27.7888 90.8578 29.0927 91.8275 30.2235 92.7101C30.0505 93.1451 28.4686 93.3067 27.795 92.9587C26.7136 92.3993 25.6507 91.5602 25.2861 91.2743C24.3592 90.5533 23.1666 89.9628 23.1728 88.8999C23.1728 88.7694 23.1357 88.7321 23.1481 88.7073C23.1481 88.0857 21.8813 79.558 21.8071 77.4199C21.7453 75.5863 22.0296 72.4785 22.0296 72.4785L21.0162 64.6905C21.0162 64.6905 20.1943 69.2651 19.3971 72.3853C18.7483 74.9212 17.6669 79.2534 16.9315 82.3799C16.2085 85.9849 15.3434 87.8557 15.1395 89.6582C15.0839 90.0871 14.3794 94.3137 14.1631 95.2833C13.9407 96.2529 11.8335 96.2343 11.7346 94.5561C11.6666 93.4435 12.0498 89.7763 12.0992 89.2418L12.093 89.2356Z" fill="#FFBEA7"/>
<path d="M21.0117 64.6851L21.9881 59.1036C21.9881 59.1036 25.3188 58.7804 26.5547 57.6367C26.5547 57.6367 24.9851 59.7686 22.7234 60.0732L21.6791 64.6976L22.019 72.4172L21.0179 64.6913L21.0117 64.6851Z" fill="#B0494C"/>
<path d="M31.9445 94.086C32.0001 94.086 32.0866 94.7324 31.7653 95.0059C31.3945 95.3167 30.3193 95.8264 28.9042 95.6275C27.4891 95.4286 26.7229 94.981 26.1605 94.4962C25.5982 94.0114 24.8072 93.3277 24.1708 93.1785C23.5775 93.0418 22.9349 92.7621 22.7433 92.5756C22.5517 92.3892 22.5888 91.5625 22.5888 91.5625L31.9445 94.0798V94.086Z" fill="#1A2E35"/>
<path d="M23.1141 88.3992C23.1141 88.3992 23.0091 88.3992 22.9658 88.5918C22.9226 88.8156 22.8669 89.4807 22.7681 89.8474C22.6321 90.3633 22.5333 91.4261 22.6074 91.8488C22.6816 92.2714 23.6517 92.576 24.2697 92.8184C24.9 93.067 25.6292 93.5767 26.2656 94.1174C26.9268 94.6768 28.3234 95.2487 29.2441 95.2673C30.6531 95.3046 31.5738 94.9255 31.858 94.422C32.2165 93.7942 32.1423 93.2224 30.5295 92.4455C30.2267 92.2963 29.1514 91.6437 28.7869 91.4075C28.4037 91.1588 28.033 90.8792 27.6931 90.5684C27.5201 90.413 27.3594 90.2452 27.2049 90.0711C27.069 89.9157 26.8774 89.7293 26.7971 89.5366C26.7785 89.4931 26.7662 89.4434 26.7538 89.3999C26.7106 89.2693 26.6797 89.1512 26.6549 89.0145C26.6302 88.8778 26.6179 88.6789 26.4881 88.5981C26.3398 88.5048 26.0741 88.511 25.9072 88.5235C25.6971 88.5359 25.2337 88.6353 25.0298 88.6851C24.6652 88.7783 24.5663 88.8778 24.4242 89.1015C24.3129 89.2755 24.2944 89.4931 24.282 89.692C24.282 89.7852 24.282 89.8847 24.282 89.9779C24.282 90.0214 24.3006 90.0898 24.2388 90.0773C24.1832 90.0587 24.1276 89.9157 24.109 89.8722C24.0658 89.7666 24.0349 89.6485 23.9916 89.5428C23.936 89.4247 23.8742 89.3004 23.7939 89.1947C23.7197 89.0953 23.6332 89.0083 23.5405 88.9275C23.454 88.8591 23.3428 88.8218 23.2624 88.741C23.1636 88.6416 23.1265 88.4675 23.1141 88.3867V88.3992Z" fill="#2B454E"/>
<path d="M30.7978 92.5781C28.7524 92.6962 27.8997 94.1631 27.8008 94.9525C28.3075 95.1389 28.8266 95.2632 29.2468 95.2757C30.6557 95.313 31.632 94.94 31.9225 94.4304C32.2562 93.8399 32.2376 93.15 30.7978 92.5843V92.5781Z" fill="white"/>
<path d="M27.5282 92.7713C27.5282 92.7713 27.4849 92.7651 27.4664 92.7465C27.4231 92.7092 27.417 92.647 27.454 92.6035C27.7445 92.2554 28.7703 91.5966 29.5118 91.6836C29.5674 91.6898 29.6045 91.7396 29.5983 91.7955C29.5921 91.8514 29.5427 91.8887 29.4871 91.8825C28.795 91.8017 27.8372 92.4543 27.6085 92.7278C27.59 92.7527 27.5591 92.7651 27.5282 92.7651V92.7713Z" fill="#F0F0F0"/>
<path d="M26.659 92.244C26.659 92.244 26.6158 92.2378 26.5973 92.2191C26.554 92.1818 26.5478 92.1197 26.5849 92.0762C26.8753 91.7281 27.9011 91.0693 28.6426 91.1563C28.6983 91.1625 28.7353 91.2122 28.7292 91.2682C28.723 91.3241 28.6735 91.3614 28.6179 91.3552C27.9258 91.2744 26.968 91.927 26.7394 92.2005C26.7208 92.2253 26.6899 92.2378 26.659 92.2378V92.244Z" fill="#F0F0F0"/>
<path d="M25.8505 91.6463C25.8505 91.6463 25.8072 91.6401 25.7887 91.6215C25.7454 91.5842 25.7392 91.522 25.7763 91.4785C26.0667 91.1305 27.0925 90.4716 27.8341 90.5586C27.8897 90.5648 27.9267 90.6146 27.9206 90.6705C27.9144 90.7264 27.865 90.7637 27.8093 90.7575C27.1172 90.6767 26.1594 91.3293 25.9308 91.6028C25.9122 91.6277 25.8813 91.6401 25.8505 91.6401V91.6463Z" fill="#F0F0F0"/>
<path d="M25.0575 91.05C25.0575 91.05 25.0142 91.0438 24.9957 91.0252C24.9524 90.9879 24.9463 90.9257 24.9833 90.8822C25.3788 90.3912 26.4664 89.8629 27.2079 89.9561C27.2635 89.9623 27.3006 90.012 27.2944 90.068C27.2883 90.1239 27.2388 90.1612 27.1832 90.155C26.5158 90.0742 25.49 90.5714 25.1378 91.0065C25.1193 91.0314 25.0884 91.0438 25.0575 91.0438V91.05Z" fill="#F0F0F0"/>
<path d="M14.9104 95.8897C14.8301 96.9091 14.6571 97.5866 14.2863 98.1771C13.9155 98.7675 13.2296 98.9416 12.5437 98.7551C11.8578 98.5624 10.9865 98.0776 10.8073 97.1888C10.6281 96.3 10.523 95.6971 10.7022 94.7461L14.9166 95.8897H14.9104Z" fill="#1A2E35"/>
<path d="M12.1629 88.3867C11.8787 88.4054 11.7736 89.8039 11.5821 91.1775C11.3781 92.6506 10.927 93.2473 10.7417 94.4531C10.5316 95.8329 10.7417 96.4545 11.2113 97.2998C11.6748 98.1451 13.3617 99.0028 14.2269 97.8219C14.9313 96.8585 14.9808 95.777 14.9499 94.3971C14.9128 92.9676 15.0364 91.9855 15.1167 90.904C15.1909 89.8722 15.5678 88.7161 15.3206 88.598C15.2774 88.828 15.2341 89.0145 15.2094 89.1637C15.1785 89.3439 15.0982 89.5801 15.0302 89.7541C14.9993 89.8287 14.9375 89.9095 14.9128 89.7852C14.8942 89.6982 14.9128 89.6112 14.9128 89.5304C14.9622 89.1512 14.7707 89.1139 14.6718 89.0829C14.4493 89.0145 13.5718 88.884 13.3556 88.8653C13.1393 88.8467 12.3916 88.7969 12.2927 88.9213C12.2247 89.0021 12.2124 89.145 12.1876 89.319C12.1567 89.5242 12.1073 89.6795 12.1011 89.6112C12.0888 89.462 12.1135 89.1574 12.1197 89.058C12.1197 88.971 12.1382 88.7783 12.1444 88.6851C12.1444 88.598 12.1567 88.4737 12.1691 88.3867H12.1629Z" fill="#2B454E"/>
<path d="M10.6386 95.2454C10.5706 96.1031 10.7621 96.6936 11.1267 97.3587C11.5902 98.204 13.4131 99.0679 14.2782 97.887C14.7108 97.3027 14.8344 96.6004 14.9086 95.8794C14.4266 94.947 11.4481 94.4747 10.6386 95.2454Z" fill="white"/>
<path d="M14.3193 94.3758C14.3193 94.3758 14.2946 94.3758 14.2822 94.3634C14.2698 94.3634 12.966 93.7854 11.6807 94.0526C11.625 94.0651 11.5694 94.0278 11.5571 93.9718C11.5447 93.9159 11.5818 93.8599 11.6374 93.8475C12.9969 93.5616 14.3255 94.1521 14.3749 94.1769C14.4243 94.2018 14.4491 94.2702 14.4243 94.3199C14.4058 94.3634 14.3625 94.382 14.3193 94.3758Z" fill="#F0F0F0"/>
<path d="M11.7657 93.0286C11.7287 93.0286 11.6916 92.9975 11.6792 92.954C11.6607 92.8981 11.6916 92.8359 11.7472 92.8235C13.0325 92.4195 14.4291 93.097 14.4847 93.128C14.5341 93.1591 14.5527 93.2213 14.5279 93.271C14.497 93.3207 14.4353 93.3394 14.3858 93.3145C14.3735 93.3083 13.0078 92.6494 11.8152 93.0286C11.8028 93.0286 11.7843 93.0286 11.7719 93.0286H11.7657Z" fill="#F0F0F0"/>
<path d="M11.838 92.0561C11.8009 92.0561 11.7638 92.025 11.7515 91.9815C11.7329 91.9255 11.7638 91.8634 11.8195 91.8447C13.2346 91.3723 14.557 92.112 14.6064 92.1431C14.6558 92.1741 14.6682 92.2425 14.6373 92.2922C14.6064 92.342 14.5384 92.3544 14.489 92.3233C14.4766 92.3171 13.1975 91.6085 11.8813 92.0498C11.8627 92.0498 11.8504 92.056 11.8318 92.0498L11.838 92.0561Z" fill="#F0F0F0"/>
<path d="M11.9181 91.1022C11.881 91.1022 11.844 91.0712 11.8316 91.0339C11.8131 90.9779 11.844 90.9158 11.8934 90.8971C13.2158 90.431 14.6494 91.1893 14.6989 91.2266C14.7483 91.2576 14.7668 91.3198 14.736 91.3695C14.7051 91.4192 14.6433 91.4379 14.5938 91.4068C14.5815 91.4006 13.1973 90.6671 11.9676 91.096C11.949 91.096 11.9367 91.1022 11.9181 91.096V91.1022Z" fill="#ECECEC"/>
<path d="M15.755 51.2562C14.5006 53.4503 13.8085 55.2466 13.5489 61.8413C13.2894 68.4359 13.2029 70.4622 13.1596 71.2578C13.1164 72.0534 12.3316 73.2219 12.1647 76.9264C11.9546 81.4886 12.1277 85.0874 12.1277 85.0874C12.1277 85.0874 12.5664 85.7648 14.0556 85.9264C15.4275 86.0818 16.2741 85.5784 16.2741 85.5784C16.2741 85.5784 18.2453 78.6791 18.82 76.3297C19.3885 73.9802 20.9704 66.2543 20.9704 66.2543L21.7367 72.5693C21.7367 72.5693 21.2732 74.7198 21.6193 78.1695C21.9653 81.6129 22.4844 84.3601 22.4844 84.3601C22.4844 84.3601 23.5658 84.8387 24.7461 84.8449C25.9202 84.8512 26.8162 84.3601 26.8162 84.3601C26.8162 84.3601 27.9779 74.8939 28.0583 70.9967C28.1386 67.0996 28.0583 57.1672 27.3044 51.3805L15.755 51.25V51.2562Z" fill="#00953B"/>
<path d="M14.5755 86.0581C14.4086 86.0581 14.2294 86.0518 14.0441 86.027C12.5301 85.8592 12.0666 85.1692 12.0481 85.1444C12.0357 85.1319 12.0357 85.1133 12.0296 85.0946C12.0296 85.0574 11.8565 81.4399 12.0605 76.9212C12.1779 74.3666 12.5795 73.0365 12.8452 72.1539C12.9627 71.7685 13.043 71.4888 13.0554 71.2527C13.0986 70.4757 13.1728 68.6297 13.4447 61.8423C13.7166 55.0736 14.4643 53.3084 15.6631 51.2138C15.6816 51.1827 15.7125 51.1641 15.7434 51.1641L27.2928 51.2946C27.3422 51.2946 27.3793 51.3319 27.3855 51.3754C28.1456 57.1807 28.2197 67.1069 28.1394 71.004C28.0591 74.8577 26.9097 84.2804 26.8973 84.3736C26.8973 84.4047 26.8726 84.4296 26.8479 84.4482C26.8108 84.4669 25.9271 84.9455 24.753 84.9455H24.7283C23.5481 84.9393 22.4728 84.4669 22.4296 84.4482C22.3987 84.4358 22.3801 84.4109 22.374 84.3799C22.374 84.355 21.8487 81.5891 21.5027 78.183C21.1751 74.9198 21.5768 72.7817 21.6201 72.5703L20.928 66.8583C20.551 68.6981 19.3707 74.4164 18.8949 76.3618C18.3326 78.6864 16.3675 85.5422 16.349 85.6105C16.3428 85.6354 16.3243 85.654 16.3057 85.6665C16.2748 85.6851 15.626 86.0581 14.557 86.0581H14.5755ZM12.2211 85.0574C12.3076 85.163 12.7896 85.6975 14.0626 85.8405C15.2367 85.971 16.0277 85.6105 16.1945 85.5235C16.3552 84.9579 18.1843 78.5497 18.7281 76.3183C19.2904 73.9999 20.86 66.3237 20.8785 66.2429C20.8909 66.1994 20.9341 66.1684 20.9774 66.1684C21.0268 66.1684 21.0639 66.2056 21.0701 66.2554L21.8363 72.5703C21.8363 72.5703 21.8363 72.589 21.8363 72.6014C21.8363 72.6201 21.3791 74.7831 21.7189 78.1705C22.0341 81.3156 22.5037 83.9137 22.5779 84.3053C22.7942 84.3923 23.7458 84.759 24.753 84.7652H24.7778C25.7603 84.7652 26.5451 84.4047 26.7366 84.3115C26.8293 83.5594 27.8922 74.7085 27.9725 71.0103C28.0529 67.138 27.9787 57.2988 27.231 51.4935L15.8176 51.363C14.6435 53.4141 13.9143 55.1855 13.6486 61.8548C13.3767 68.6421 13.3025 70.4881 13.2593 71.2713C13.2469 71.5324 13.1604 71.8183 13.0368 72.2223C12.7711 73.0925 12.3756 74.4101 12.2582 76.9399C12.0605 81.2286 12.2088 84.7093 12.2211 85.0636V85.0574Z" fill="#1A2E35"/>
<path d="M22.3585 58.7969L20.9743 66.2617L21.7406 72.5767L21.4934 66.1934L22.7169 60.0711C23.6562 59.8659 25.8005 58.7844 26.4184 57.187C24.9477 58.6726 22.3523 58.8031 22.3523 58.8031L22.3585 58.7969ZM18.0885 54.3279C18.2677 53.7001 18.4531 53.0786 18.6632 52.457C18.2986 53.0102 18.0205 53.6131 17.7857 54.2285C17.5447 54.8438 17.3531 55.4778 17.1863 56.1118C17.0256 56.752 16.8897 57.3922 16.7908 58.0448C16.6919 58.6974 16.6178 59.3501 16.6178 60.0151C16.7846 59.3749 16.9453 58.7471 17.106 58.1132C17.2666 57.4792 17.4211 56.8452 17.588 56.2174C17.7486 55.5897 17.9155 54.9619 18.0947 54.3341L18.0885 54.3279ZM17.1616 53.8369C17.3779 53.4577 17.6003 53.0786 17.8042 52.6746C17.4644 52.9729 17.1678 53.3023 16.8959 53.6566C16.6178 54.0047 16.3768 54.3838 16.1543 54.7692C15.9381 55.1608 15.7403 55.5586 15.5796 55.9812C15.4252 56.3977 15.3016 56.8328 15.2521 57.2803L15.8701 56.1118C16.0802 55.7326 16.2903 55.3473 16.5066 54.9743C16.7167 54.5952 16.9391 54.2222 17.1554 53.8369H17.1616ZM15.8577 78.8295C15.4499 80.8496 15.0729 82.8758 14.7207 84.9083C15.2336 82.9131 15.7156 80.9055 16.1729 78.8979C16.6363 76.8903 17.0751 74.8827 17.5138 72.8626C17.9278 70.8364 18.2183 68.7914 18.4593 66.7403C18.7064 64.6954 18.898 62.6381 19.0649 60.5869C18.7373 62.6256 18.4407 64.6643 18.1441 66.6968C17.8351 68.7293 17.5324 70.768 17.1122 72.7756C16.6858 74.7832 16.2594 76.8033 15.8639 78.8233L15.8577 78.8295ZM26.6594 68.8101C26.6841 69.7051 26.715 70.6064 26.6841 71.489C26.647 72.3778 26.5729 73.2728 26.5111 74.1679L26.3195 76.853C26.1898 78.6431 26.0785 80.4331 25.992 82.2294C26.2392 80.4518 26.4555 78.6679 26.6409 76.8841C26.8262 75.094 26.9993 73.3164 27.0981 71.5076C27.129 69.6927 27.0178 67.9026 26.8942 66.1126C26.7644 64.3225 26.5914 62.5324 26.3504 60.7486L26.5729 66.125C26.6038 67.02 26.6409 67.9151 26.6656 68.8101H26.6594Z" fill="#1A2E35"/>
<path d="M41.6984 41.345C41.5377 41.2455 41.34 41.2207 41.1546 41.2331C40.8456 41.2517 40.5676 41.3761 40.271 41.4444C39.8199 41.5439 39.0907 41.7117 38.6458 41.5625C38.5531 41.5314 38.3739 41.4382 38.5345 41.3636C38.7385 41.258 38.9547 41.1709 39.1401 41.0342C39.3255 40.8975 39.48 40.6986 39.5047 40.4686C39.5109 40.4002 39.5047 40.3256 39.4614 40.2697C39.3997 40.1889 39.3379 40.2138 39.2699 40.2386C39.1957 40.2697 39.1092 40.2821 39.0289 40.3008C38.862 40.3381 38.7014 40.3816 38.5345 40.4251C37.5767 40.6737 36.588 40.9969 35.8588 41.7055C35.7538 41.8111 35.0493 42.6565 34.6229 43.1226C34.2584 43.5577 31.9225 45.671 31.9225 45.671C31.9225 45.671 30.7793 44.3346 29.9451 43.4023C28.462 41.7303 27.8873 41.0653 27.3621 40.5121C26.9048 40.0211 26.1386 39.4306 25.2734 39.3125L25.8419 45.3851C25.8419 45.3851 28.6783 48.0142 29.5002 48.6855C31.1995 50.0778 31.7804 50.4694 32.695 49.8416C33.6775 49.1641 34.3325 48.4431 35.315 46.709C36.1122 45.2918 36.3099 44.9624 36.588 44.5335C36.8228 44.1668 37.3975 44.1979 37.7003 44.1917C38.2565 44.1793 38.4048 44.1544 38.9486 44.0239C39.307 43.9369 39.653 43.8125 39.9805 43.6385C40.1165 43.5639 40.3327 43.4707 40.4254 43.3402C40.5058 43.2159 40.5243 43.0605 40.6232 42.9424C40.7344 42.8056 40.9074 42.731 41.0001 42.5819C41.0743 42.47 41.0928 42.327 41.1361 42.1965C41.2041 41.9914 41.3709 41.9044 41.5501 41.8111C41.6366 41.7676 41.7355 41.7241 41.7973 41.6433C41.8962 41.5128 41.8158 41.4133 41.7046 41.3512L41.6984 41.345Z" fill="#FFBEA7"/>
<path d="M24.9141 39.0352C26.0696 39.2092 26.3786 39.3894 27.3364 40.3404C28.2942 41.2914 29.4807 42.5656 29.4807 42.5656C29.4807 42.5656 29.0172 44.1381 27.8493 45.3999C27.3982 45.8847 26.2859 46.5124 26.2859 46.5124L25.1427 45.6671L24.9141 39.0352Z" fill="#E7E7E7"/>
<path d="M31.9128 45.6691C31.9128 45.6691 31.7398 45.5075 31.6038 45.3086C30.955 45.9364 30.6028 47.0303 30.8685 47.9502C30.8685 47.5835 31.0724 46.4958 31.9128 45.6691Z" fill="#FF9A79"/>
<path d="M38.0069 41.8047C37.6671 42.2709 36.9811 42.7059 36.6289 42.7867C36.6289 42.7867 37.1356 42.88 37.494 42.6189C37.8833 42.333 37.976 42.0222 38.0069 41.8047Z" fill="#FF9A79"/>
<path d="M14.4141 54.296C14.9084 52.2511 15.3348 50.6847 15.341 50.231C15.3595 48.2607 14.9022 45.6564 14.7539 44.5127C14.4388 42.0141 15.1556 39.6708 15.7426 39.1922L18.6099 38.4961C18.6099 38.4961 21.9406 38.5645 22.4844 38.6328C22.7501 38.6639 24.9129 39.0244 24.9191 39.0244C24.9191 39.0244 25.7039 40.05 26.6061 41.4795C28.0768 43.8104 28.1942 44.8981 27.7493 46.9492C27.1437 49.7586 27.6937 52.5556 27.6504 54.7C25.8522 56.6827 18.9374 57.6896 14.4202 54.2898L14.4141 54.296Z" fill="#00953B"/>
<path d="M21.5808 56.6092C19.1708 56.6092 16.5074 55.9939 14.357 54.3779C14.3261 54.353 14.3137 54.3157 14.3199 54.2784C14.4559 53.719 14.5856 53.1969 14.703 52.7245C15.012 51.4628 15.2406 50.5553 15.2468 50.2383C15.2654 48.6844 14.9749 46.7203 14.7895 45.4213C14.7401 45.0732 14.6969 44.7749 14.666 44.5325C14.3446 42.0027 15.0553 39.6408 15.6856 39.1249C15.6979 39.1187 15.7103 39.1125 15.7226 39.1063L18.5899 38.4102C18.5899 38.4102 18.6084 38.4102 18.6146 38.4102C18.7506 38.4102 21.9577 38.4847 22.5015 38.5469C22.5262 38.5469 24.9362 38.926 24.9795 38.9633C25.0042 38.9882 25.7951 40.0262 26.6912 41.4433C28.1928 43.8177 28.2978 44.9116 27.8467 46.9814C27.4389 48.8709 27.5563 50.7604 27.6613 52.4324C27.7108 53.2466 27.7602 54.0111 27.7478 54.7135C27.7478 54.7384 27.7355 54.757 27.7231 54.7756C26.7962 55.8012 24.3615 56.6092 21.5869 56.6092H21.5808ZM14.5238 54.2598C19.0534 57.6224 25.8199 56.516 27.5501 54.67C27.5625 53.9863 27.513 53.2342 27.4636 52.4448C27.3585 50.7604 27.235 48.8522 27.649 46.9379C28.0815 44.924 27.9827 43.8612 26.5181 41.5428C25.7086 40.2624 24.9918 39.299 24.8559 39.1249C24.5654 39.0752 22.7054 38.7644 22.4644 38.7396C21.9453 38.6774 18.8371 38.6091 18.6084 38.6028L15.7783 39.2928C15.1974 39.7962 14.5362 42.1084 14.839 44.5138C14.8699 44.75 14.9131 45.0546 14.9626 45.3964C15.1541 46.7017 15.4384 48.6782 15.426 50.2445C15.426 50.5864 15.1974 51.5063 14.8822 52.7805C14.771 53.2342 14.6474 53.7377 14.5176 54.2722L14.5238 54.2598Z" fill="#1A2E35"/>
<path d="M17.1903 29.3681C17.1779 29.4302 16.8381 29.6167 16.7763 29.6726C16.6589 29.7845 16.5538 29.9088 16.4611 30.0456C16.2696 30.3439 16.1707 30.6858 16.1089 31.0338C16.0039 31.6181 16.0286 32.221 15.9853 32.8115C15.9421 33.3895 15.8123 33.9427 15.6825 34.5083C15.5713 35.0056 15.4601 35.5028 15.4786 36.0125C15.4971 36.5221 15.664 37.038 16.0347 37.3861C15.9173 36.8889 15.9235 36.3668 16.0347 35.8695C16.0656 36.1865 16.1027 36.5035 16.2263 36.7956C16.4179 37.2556 16.8134 37.6037 17.2521 37.8398C17.6908 38.0698 18.179 38.1941 18.661 38.2998C19.452 38.4738 20.2677 38.5608 21.071 38.536C21.5715 38.5236 22.0659 38.48 22.5664 38.4179C23.2091 38.3371 23.8579 38.2003 24.4017 37.8461C24.9393 37.4918 25.3472 36.864 25.2854 36.2238C25.4646 36.5346 25.5573 36.9013 25.5387 37.2618C25.891 36.8764 26.0455 36.3419 26.0269 35.8198C26.0146 35.2977 25.8415 34.7942 25.6067 34.3281C25.4584 34.0297 25.2854 33.75 25.1742 33.433C25.0876 33.172 25.0197 32.8115 25.1371 32.5504C25.2236 32.364 25.3657 32.1961 25.4584 32.0097C25.7056 31.5 25.8786 30.922 25.8354 30.3501C25.755 29.163 25.0567 27.6153 22.9063 27.1243C21.1143 26.7203 17.6661 27.0435 17.1779 29.3805L17.1903 29.3681Z" fill="#1A2E35"/>
<path d="M17.3696 57.2069L12.4569 55.0625C12.4569 55.0625 11.289 58.133 10.8997 60.5632C10.5969 62.4528 11.153 63.5156 12.3457 64.4293C13.5445 65.343 15.6826 66.7415 16.7084 66.6855C17.7341 66.6296 18.9144 66.1075 19.3099 65.2622C19.7054 64.4169 19.7054 56.7407 19.7054 56.7407L17.3696 57.2131V57.2069Z" fill="#566E72"/>
<path d="M16.2969 65.987C16.3154 66.4469 16.5008 66.6769 17.3103 66.5961C17.3103 66.5961 17.3165 66.5961 17.3227 66.5961C17.3536 66.5837 17.3968 66.5775 17.4339 66.5713C18.2372 66.3661 19.0097 65.9124 19.3186 65.2598C19.7141 64.4145 19.7141 56.7383 19.7141 56.7383L17.3783 57.2107C16.7789 60.3246 16.2783 65.3841 16.3031 65.9932L16.2969 65.987Z" fill="#1A2E35"/>
<path d="M19.6983 56.7328C17.4181 55.5332 14.2851 53.8736 13.4756 54.1036C12.6661 54.3273 12.1903 55.3529 11.9554 56.2604C11.7206 57.1678 12.5363 59.3681 13.1172 59.7597C13.698 60.1513 16.0153 59.2811 16.5715 58.672C17.1338 58.0691 17.3625 57.2051 17.3625 57.2051L19.6983 56.7328Z" fill="#334F56"/>
<path d="M24.9201 39.0309L22.8871 38.6953C23.919 40.8397 22.7697 45.7686 21.404 49.2928C20.0383 52.8108 17.375 57.2052 17.375 57.2052L19.7108 56.7328C19.7108 56.7328 21.9787 53.0718 23.3505 49.5476C24.7162 46.0296 25.9583 41.1691 24.9263 39.0247L24.9201 39.0309Z" fill="#D268CC"/>
<path d="M24.9201 39.0309L22.8871 38.6953C23.919 40.8397 22.7697 45.7686 21.404 49.2928C20.0383 52.8108 17.375 57.2052 17.375 57.2052L19.7108 56.7328C19.7108 56.7328 21.9787 53.0718 23.3505 49.5476C24.7162 46.0296 25.9583 41.1691 24.9263 39.0247L24.9201 39.0309Z" fill="#1A2E35"/>
<path d="M18.1521 35.4785C17.6763 35.5593 17.2314 35.3169 16.9533 34.9999C16.3292 34.2914 16.2859 33.589 16.5887 33.1229C16.8421 32.7437 17.4476 32.5075 17.8678 32.7748C18.3128 33.0607 18.3251 33.2907 18.4858 33.6139C18.6526 33.9433 19.0914 33.6947 18.974 32.4267C19.8576 32.0351 19.7464 30.5869 20.2346 30.0027C20.9946 29.089 22.212 29.3562 22.6013 29.5862C22.9597 29.3127 23.6703 29.1884 24.2698 29.5178C24.8506 29.8411 25.2337 30.5061 25.3944 32.7624C25.5613 35.0621 25.1287 36.5849 24.5787 37.0635C24.2018 37.3929 23.5097 37.6042 22.694 37.5421L22.6755 38.6858C22.6755 38.6858 23.6642 40.1775 20.6795 39.674C19.2088 39.4254 18.6094 38.6298 18.6094 38.6298L18.665 35.1491C18.665 35.1491 18.6094 35.4288 18.1583 35.4972L18.1521 35.4785Z" fill="#FFBEA7"/>
<path d="M22.6889 37.532C21.5087 37.4636 19.9391 37.0161 19.5312 36.2578C19.7475 37.072 20.5694 37.5071 21.2306 37.706C22.0339 37.9484 22.6704 37.9857 22.6704 37.9857L22.6889 37.532Z" fill="#FF9A79"/>
<path d="M23.1057 35.1687C23.0254 35.5292 22.667 35.753 22.3024 35.6722C21.9378 35.5914 21.7092 35.2371 21.7895 34.8828L23.1057 35.1687Z" fill="#C76668"/>
<path d="M21.7835 35.1024C21.8144 35.3759 22.0183 35.6121 22.3026 35.6804C22.3829 35.6991 22.4633 35.6991 22.5374 35.6867C22.488 35.3199 22.1481 35.0589 21.7773 35.1024H21.7835Z" fill="#FF9090"/>
<path d="M24.7444 32.5929C24.8124 32.7918 24.6703 32.8601 24.4787 32.9223C24.2871 32.9845 24.1141 33.028 24.0461 32.8228C23.9782 32.624 24.0832 32.4064 24.2748 32.338C24.4663 32.2759 24.6826 32.3815 24.7444 32.5867V32.5929Z" fill="#1A2E35"/>
<path d="M24.0862 32.4074C24.1727 32.3577 24.2716 32.3328 24.3643 32.308C24.457 32.2893 24.5559 32.2831 24.6485 32.2955C24.8092 32.3204 24.8895 32.3577 24.939 32.3825C24.9452 32.3825 24.9513 32.4074 24.939 32.4074C24.8586 32.395 24.7907 32.3825 24.6794 32.3763C24.5867 32.3763 24.4508 32.3888 24.3581 32.4136C24.2098 32.4509 24.1542 32.4633 23.9935 32.5441C23.9564 32.5628 23.8823 32.6001 23.8761 32.6063C23.8638 32.6125 23.8576 32.5877 23.8638 32.5752C23.9132 32.5006 24.0121 32.4447 24.0862 32.4012V32.4074Z" fill="#1A2E35"/>
<path d="M21.0174 32.6364C20.968 32.8415 21.1163 32.8975 21.314 32.941C21.5117 32.9845 21.691 33.0094 21.7342 32.8043C21.7836 32.5991 21.6601 32.394 21.4623 32.3443C21.2646 32.3008 21.0606 32.4313 21.0174 32.6364Z" fill="#1A2E35"/>
<path d="M21.6551 32.403C21.5686 32.3595 21.4636 32.3408 21.3709 32.3346C21.2782 32.3222 21.1793 32.3284 21.0866 32.347C20.9321 32.3843 20.8518 32.434 20.8024 32.4651C20.8024 32.4651 20.79 32.49 20.8024 32.49C20.8765 32.4713 20.9445 32.4527 21.0619 32.4403C21.1546 32.4278 21.2905 32.434 21.3832 32.4403C21.5315 32.4589 21.5872 32.4713 21.7602 32.5397C21.7973 32.5521 21.8776 32.5894 21.8838 32.5894C21.8961 32.5956 21.9023 32.5646 21.8961 32.5584C21.8405 32.49 21.7355 32.4403 21.6613 32.403H21.6551Z" fill="#1A2E35"/>
<path d="M24.7733 31.2987L23.9082 30.9941C23.9885 30.7517 24.2419 30.6274 24.4829 30.7082C24.7239 30.789 24.8537 31.0562 24.7733 31.2987Z" fill="#1A2E35"/>
<path d="M21.5685 30.9751L20.6972 31.4164C20.5613 31.1802 20.6478 30.8881 20.8888 30.77C21.1298 30.6457 21.4326 30.7389 21.5685 30.9751Z" fill="#1A2E35"/>
<path d="M25.8671 31.5522C25.8115 31.5522 25.7559 31.5398 25.6941 31.5335C25.1379 31.49 24.4149 31.49 23.9824 31.6268C23.4448 31.8008 23.2594 31.9811 22.9566 31.9873C22.6353 31.9873 22.419 31.8195 21.8319 31.6765C21.3623 31.5584 20.5899 31.5957 20.0028 31.6641C19.941 31.6703 19.8792 31.6827 19.8174 31.6889C19.7186 31.7014 19.6135 31.8319 19.6259 31.9873C19.6382 32.1364 19.7618 32.2545 19.8174 32.3229C19.8422 32.354 19.8669 32.3975 19.8854 32.4596C19.9596 32.6958 20.0214 33.1434 20.1511 33.392C20.2067 33.4914 20.2809 33.6157 20.3983 33.7214C20.4354 33.7587 20.4786 33.7898 20.5219 33.8209C20.5466 33.8333 20.5713 33.8519 20.596 33.8644C20.6578 33.9017 20.7258 33.9265 20.8061 33.9514C20.8185 33.9514 20.8309 33.9576 20.8432 33.9638C20.8618 33.9638 20.8803 33.9762 20.8988 33.9762C20.9174 33.9762 20.9359 33.9825 20.9545 33.9887C21.0101 34.0011 21.0719 34.0073 21.1398 34.0135C21.1646 34.0135 21.1893 34.0135 21.2202 34.0135C21.2511 34.0135 21.282 34.0135 21.319 34.0135C22.0729 34.0011 22.3695 33.6468 22.5364 33.2925C22.7094 32.932 22.6353 32.4348 22.9813 32.4286C22.9937 32.4286 23.006 32.4286 23.0122 32.4286C23.0246 32.4286 23.0307 32.4286 23.0431 32.4286C23.3026 32.4783 23.2903 32.9382 23.4695 33.2677C23.5375 33.392 23.6178 33.5163 23.729 33.622C23.7476 33.6406 23.7661 33.6592 23.7908 33.6779C23.8032 33.6841 23.8094 33.6965 23.8217 33.7028C23.8341 33.709 23.8464 33.7214 23.8526 33.7276C23.865 33.7338 23.8712 33.74 23.8835 33.7463C23.9021 33.7587 23.9082 33.7649 23.9144 33.7649C23.9206 33.7649 23.9329 33.7773 23.9391 33.7773C23.9391 33.7773 23.9515 33.7836 23.9577 33.7898C24.0442 33.8395 24.1492 33.8768 24.2605 33.8954C24.2666 33.8954 24.279 33.8954 24.2914 33.8954C24.4026 33.9141 24.52 33.9265 24.6559 33.9203C25.3604 33.9017 25.5829 33.4976 25.6879 33.249C25.793 32.9942 25.8115 32.5467 25.8609 32.3105C25.8733 32.2608 25.8918 32.2172 25.9166 32.1862C25.966 32.1302 26.0587 31.9873 26.0587 31.8381C26.0587 31.6889 25.9536 31.5522 25.8548 31.546L25.8671 31.5522ZM22.3263 32.9569C22.3016 33.0936 22.2398 33.2925 22.0915 33.4541C21.937 33.622 21.6898 33.7525 21.2881 33.7525C20.8803 33.7525 20.6331 33.5971 20.4848 33.4106C20.4725 33.3982 20.4663 33.3858 20.4601 33.3733C20.4539 33.3609 20.4416 33.3485 20.4354 33.336C20.4292 33.3236 20.423 33.3174 20.4168 33.305C20.4168 33.2925 20.4045 33.2863 20.3983 33.2739C20.3983 33.2677 20.3921 33.2615 20.3859 33.249C20.3859 33.2428 20.3798 33.2366 20.3736 33.2304C20.3736 33.2179 20.3612 33.2055 20.355 33.1931C20.3365 33.1558 20.3241 33.1247 20.3118 33.0874C20.3056 33.0688 20.2994 33.0439 20.2871 33.0253C20.2747 32.988 20.2624 32.9569 20.2562 32.9258C20.2562 32.9196 20.2562 32.9134 20.2562 32.9072C20.2562 32.9072 20.2562 32.8947 20.2562 32.8885C20.1882 32.6399 20.0955 32.1551 20.2191 32.0432C20.3365 31.9375 20.6826 31.807 21.2387 31.8505C21.2572 31.8505 21.2758 31.8505 21.3005 31.8505C21.387 31.8567 21.4735 31.8692 21.56 31.8878C21.5909 31.894 21.628 31.9003 21.6589 31.9065C21.7454 31.9251 21.8319 31.95 21.9123 31.9811C21.937 31.9873 21.9679 31.9997 21.9926 32.0121C22.0235 32.0246 22.0482 32.037 22.0791 32.0494C22.0791 32.0494 22.0915 32.0494 22.0977 32.0556C22.11 32.0556 22.1162 32.0681 22.1285 32.0681C22.2089 32.1054 22.2707 32.1489 22.3016 32.1924C22.419 32.3416 22.4004 32.6648 22.351 32.9382L22.3263 32.9569ZM25.5829 32.7766C25.5458 32.9693 25.4778 33.392 25.0885 33.5784C24.9773 33.6344 24.8413 33.6717 24.6745 33.6779C24.2296 33.6965 23.97 33.5225 23.8217 33.3236C23.8217 33.3174 23.8094 33.3112 23.8032 33.2987C23.797 33.2925 23.7908 33.2801 23.7846 33.2739C23.7846 33.2739 23.7846 33.2677 23.7785 33.2615C23.7723 33.249 23.7599 33.2366 23.7537 33.2242C23.7476 33.2117 23.7352 33.1931 23.729 33.1807C23.729 33.1744 23.7228 33.1682 23.7167 33.1558C23.7167 33.1558 23.7167 33.1496 23.7167 33.1434C23.7167 33.1371 23.7167 33.1309 23.7105 33.1247V33.1123C23.6796 33.0439 23.6611 32.9818 23.6487 32.9258C23.5807 32.6523 23.5313 32.3291 23.6302 32.1799C23.729 32.0246 24.1307 31.8505 24.5262 31.7946C24.6189 31.7822 24.7054 31.7759 24.7795 31.7697C24.7919 31.7697 24.7981 31.7697 24.8104 31.7697C24.8228 31.7697 24.8351 31.7697 24.8413 31.7697C24.8722 31.7697 24.9031 31.7697 24.9278 31.7697C24.9402 31.7697 24.9526 31.7697 24.9587 31.7697C24.9711 31.7697 24.9896 31.7697 25.002 31.7697C25.0267 31.7697 25.0514 31.7697 25.07 31.7697C25.1132 31.7697 25.1627 31.7822 25.1997 31.7884C25.2121 31.7884 25.2183 31.7884 25.2306 31.7946C25.2306 31.7946 25.2306 31.7946 25.2368 31.7946C25.243 31.7946 25.2492 31.7946 25.2553 31.7946C25.2677 31.7946 25.2739 31.7946 25.2862 31.8008C25.2986 31.8008 25.311 31.807 25.3233 31.8132C25.348 31.8194 25.3666 31.8257 25.3851 31.8381C25.3851 31.8381 25.3913 31.8381 25.3975 31.8381C25.4593 31.863 25.5087 31.894 25.5396 31.9189C25.6632 32.0246 25.6199 32.5156 25.5767 32.7642L25.5829 32.7766Z" fill="#2B454E"/>
<path d="M24.1669 34.0356L22.8816 34.5515L22.6406 32.9292C22.6901 32.6868 22.7457 32.4382 22.9558 32.4258L24.1669 34.0356Z" fill="#FF9A79"/>
<path d="M19.8531 31.875L17.8633 32.7638C17.9622 32.8322 18.0178 32.8757 18.1599 33.0124L19.8901 32.279L19.8469 31.875H19.8531Z" fill="#2B454E"/>
<path d="M15.7389 39.1953C13.9283 39.6615 13.2177 40.1276 12.6986 41.4578C12.0189 43.1857 10.5172 47.2444 10.0291 49.2645C9.76953 50.3522 9.59033 50.8494 10.5667 52.0117C11.3762 52.9814 13.3536 54.6347 15.1704 55.9027C15.5288 56.1513 16.6596 57.0463 16.9995 57.2328C19.0758 58.3827 21.5105 58.1465 21.5105 58.1465L19.2364 56.6982L18.841 55.9089L14.1817 50.3211C14.1817 50.3211 15.9243 45.6532 16.3815 44.3356C16.845 43.0241 17.1045 40.0531 15.7389 39.1953Z" fill="#FFBEA7"/>
<path d="M14.177 50.3193C13.5281 49.6355 12.5703 49.6169 12.5703 49.6169C12.5703 49.6169 13.2871 49.2875 14.35 49.8655L14.177 50.3193Z" fill="#FF9A79"/>
<path d="M17.1695 54.7992L17.1572 55.0167C17.1448 55.2342 17.2561 55.4456 17.4414 55.5637L23.108 59.1811C23.2007 59.237 23.3057 59.2743 23.4108 59.2743C23.5158 59.2743 23.6209 59.2557 23.7198 59.206L34.645 53.4815C34.8366 53.382 34.9664 53.1831 34.9725 52.9656V52.8164L23.4293 58.8703L17.1695 54.8054V54.7992Z" fill="#D268CC"/>
<g opacity="0.5">
<path d="M17.1676 54.7992L17.1552 55.0167C17.1429 55.2342 17.2541 55.4456 17.4395 55.5637L23.106 59.1811C23.1987 59.237 23.3038 59.2743 23.4088 59.2743C23.5139 59.2743 23.6189 59.2557 23.7178 59.206L34.6431 53.4815C34.8346 53.382 34.9644 53.1831 34.9706 52.9656V52.8164L23.4274 58.8703L17.1676 54.8054V54.7992Z" fill="white"/>
</g>
<path d="M17.1695 54.7992L17.1572 55.0167C17.1448 55.2342 17.2561 55.4456 17.4414 55.5637L23.108 59.1811C23.2007 59.237 23.3057 59.2743 23.4108 59.2743C23.5158 59.2743 23.6209 59.2557 23.7198 59.206L34.645 53.4815C34.8366 53.382 34.9664 53.1831 34.9725 52.9656V52.8164L23.4293 58.8703L17.1695 54.8054V54.7992Z" fill="#566E72"/>
<path d="M34.9756 52.8119L28.8147 48.865C28.7035 48.7966 28.5675 48.7904 28.4501 48.8464L17.2097 54.7387C17.1541 54.7698 17.1541 54.8443 17.2097 54.8816L23.4324 58.8658L34.9818 52.8119H34.9756Z" fill="#B7B7B7"/>
<path d="M23.4886 58.2729L20.1641 56.1472L30.2798 50.8516L33.6229 52.9648L23.4886 58.2729Z" fill="#D268CC"/>
<path d="M23.4886 58.2729L20.1641 56.1472L30.2798 50.8516L33.6229 52.9648L23.4886 58.2729Z" fill="#566E72"/>
<path d="M21.9492 52.7457L22.011 52.7892L23.6362 53.8272L26.6827 52.236L26.7445 52.1987L25.0575 51.1172L21.9492 52.7457Z" fill="#1A2E35"/>
<path d="M22.0117 52.7927L23.6369 53.8307L26.6834 52.2395L25.052 51.1953L22.0117 52.7927Z" fill="#D268CC"/>
<path d="M22.0117 52.7927L23.6369 53.8307L26.6834 52.2395L25.052 51.1953L22.0117 52.7927Z" fill="#566E72"/>
<path d="M23.4209 58.8641L23.4023 59.2743C23.5074 59.2743 23.6124 59.2557 23.7113 59.206L34.6366 53.4815C34.8281 53.382 34.9579 53.1831 34.9641 52.9656V52.8164L23.4209 58.8703V58.8641Z" fill="#D268CC"/>
<g opacity="0.03">
<path d="M23.4228 58.8641L23.4043 59.2743C23.5093 59.2743 23.6144 59.2557 23.7133 59.206L34.6385 53.4815C34.8301 53.382 34.9599 53.1831 34.966 52.9656V52.8164L23.4228 58.8703V58.8641Z" fill="white"/>
</g>
<path d="M23.4209 58.8641L23.4023 59.2743C23.5074 59.2743 23.6124 59.2557 23.7113 59.206L34.6366 53.4815C34.8281 53.382 34.9579 53.1831 34.9641 52.9656V52.8164L23.4209 58.8703V58.8641Z" fill="#1A2E35"/>
<path d="M23.5843 58.9611C23.782 59.0481 24.0107 59.0419 24.2084 58.9425L35.0904 53.2428C35.282 53.1434 35.4179 52.9631 35.4612 52.7518L36.9257 45.8339C36.9319 45.7966 36.9381 45.7531 36.9381 45.7158C36.9443 45.5231 36.8763 45.3305 36.7465 45.1875L25.4381 51.1109C25.296 51.1855 25.1971 51.316 25.1601 51.4776L23.5781 58.9673L23.5843 58.9611Z" fill="#566E72"/>
<path d="M23.4238 58.8633L23.4918 58.9068C23.5227 58.9254 23.5536 58.9441 23.5907 58.9565L25.1726 51.4668C25.2035 51.3114 25.3086 51.1747 25.4507 51.1001L36.7591 45.1767C36.7158 45.1332 36.6726 45.0897 36.6169 45.0586L25.29 50.9944C25.1479 51.069 25.049 51.1995 25.0119 51.3611L23.43 58.8571L23.4238 58.8633Z" fill="#334F56"/>
<path d="M25.2838 51.2463L25.117 51.1406C25.0676 51.2028 25.0243 51.2836 25.0058 51.3644L23.4238 58.8603L23.4918 58.9038C23.5227 58.9225 23.5536 58.9411 23.5907 58.9535L25.1726 51.4638C25.1911 51.3768 25.2282 51.3022 25.2838 51.2401V51.2463Z" fill="#D268CC"/>
<path opacity="0.5" d="M25.2838 51.2463L25.117 51.1406C25.0676 51.2028 25.0243 51.2836 25.0058 51.3644L23.4238 58.8603L23.4918 58.9038C23.5227 58.9225 23.5536 58.9411 23.5907 58.9535L25.1726 51.4638C25.1911 51.3768 25.2282 51.3022 25.2838 51.2401V51.2463Z" fill="white"/>
<path d="M25.2838 51.2463L25.117 51.1406C25.0676 51.2028 25.0243 51.2836 25.0058 51.3644L23.4238 58.8603L23.4918 58.9038C23.5227 58.9225 23.5536 58.9411 23.5907 58.9535L25.1726 51.4638C25.1911 51.3768 25.2282 51.3022 25.2838 51.2401V51.2463Z" fill="#334F56"/>
<path d="M29.8528 52.7893C29.9517 52.3231 30.4584 51.7264 30.9836 51.4529C31.5089 51.1795 31.8549 51.3286 31.7561 51.7948C31.6572 52.261 31.1505 52.8577 30.6252 53.1311C30.1 53.4046 29.7539 53.2554 29.8528 52.7893Z" fill="#334F56"/>
<path d="M16.9728 54.1758C17.566 54.6109 18.3817 54.2877 19.1789 54.4058C19.976 54.5176 20.6557 54.729 21.2922 54.729C21.9349 54.729 22.2439 54.8595 21.7866 55.3692C21.3293 55.8788 20.044 55.5494 19.6979 55.6986C19.3457 55.8478 19.1171 56.4072 19.5125 56.8857C19.8771 57.3333 17.3806 56.432 17.0531 55.9037C16.7256 55.3754 16.5155 54.2379 16.9728 54.182V54.1758Z" fill="#FFBEA7"/>
<path d="M15.738 39.1953C14.5206 39.4129 14.0139 39.6801 13.3712 40.1712C12.7286 40.6684 10.7759 44.9385 10.7759 44.9385C10.7759 44.9385 11.8202 46.4861 15.4908 47.145C15.4908 47.145 16.6155 44.348 16.8441 43.4592C17.0727 42.5703 17.425 39.9163 15.7318 39.2015L15.738 39.1953Z" fill="#E7E7E7"/>
<path d="M58.3242 32.6602C60.2769 32.7099 61.4201 33.7852 62.0566 35.8301C62.6807 37.8253 63.5768 40.8709 63.7869 42.2942C63.997 43.7176 64.6705 50.1693 64.6705 50.1693L62.2234 50.3868L59.7826 43.0712L58.6517 38.2479L58.3242 32.6602Z" fill="#DD8669"/>
<path d="M66.7431 53.8484L66.7308 48.242L59.334 43.8477L59.3463 49.4541L66.7431 53.8484Z" fill="#F5F5F5"/>
<path d="M66.5332 48.3008V53.7269C66.1871 53.7891 66.0635 53.8699 65.7422 54.2055V48.8167C65.7422 48.8167 65.7298 48.7234 66.5332 48.3008Z" fill="#F5F5F5"/>
<path d="M65.5312 49.1896C65.5312 48.9161 65.7228 48.5805 65.9638 48.4499L66.5076 48.1392C66.7424 48.0024 66.934 48.1205 66.934 48.394V53.7456L66.7486 53.8512L66.7362 48.5742C66.7362 48.4126 66.625 48.3443 66.4829 48.4251L65.9947 48.7048C65.8526 48.7856 65.7352 48.9845 65.7352 49.1523V54.4231L65.5312 54.5411V49.1896Z" fill="#026827"/>
<path d="M65.5335 54.5453L58.1367 50.1509V44.7993C58.1367 44.5258 58.3345 44.1902 58.5693 44.0597L59.1131 43.7489C59.2305 43.6805 59.3355 43.6743 59.4159 43.724L66.8127 48.1184C66.7323 48.0749 66.6273 48.0811 66.5099 48.1433L65.9661 48.454C65.7313 48.5908 65.5397 48.9202 65.5335 49.1937V54.5453Z" fill="#00953B"/>
<path d="M65.5328 54.6435C65.5328 54.6435 65.5019 54.6435 65.4833 54.6311L58.0865 50.2367C58.0865 50.2367 58.0371 50.187 58.0371 50.1559V44.8043C58.0371 44.4936 58.2534 44.1331 58.5191 43.9777L59.0629 43.6669C59.2112 43.5861 59.3533 43.5737 59.4584 43.642L66.8552 48.0364C66.8984 48.0613 66.917 48.1234 66.8861 48.1669C66.8614 48.2104 66.7996 48.2291 66.7563 48.198C66.7069 48.1669 66.6327 48.1794 66.5524 48.2229L66.0086 48.5337C65.8047 48.6518 65.6255 48.9501 65.6255 49.1925V54.5441C65.6255 54.5814 65.6069 54.6124 65.576 54.6249C65.5637 54.6311 65.5451 54.6373 65.5266 54.6373L65.5328 54.6435ZM58.2287 50.0938L65.4339 54.3763V49.1925C65.4339 48.8817 65.644 48.5212 65.9159 48.3658L66.4597 48.0551C66.4597 48.0551 66.4844 48.0426 66.4906 48.0364L59.3595 43.7974C59.3101 43.7663 59.2359 43.7788 59.1556 43.8223L58.6118 44.1331C58.4079 44.2512 58.2287 44.5495 58.2287 44.7919V50.0875V50.0938Z" fill="#1A2E35"/>
<path d="M65.6663 48.7704C65.7467 48.6336 65.8517 48.5218 65.9691 48.4534L66.5129 48.1426C66.6303 48.0742 66.7354 48.068 66.8157 48.1177L59.4189 43.7234C59.3386 43.6799 59.2335 43.6861 59.1161 43.7482L58.5723 44.059C58.4549 44.1274 58.3499 44.2455 58.2695 44.376L65.6663 48.7704Z" fill="#D268CC"/>
<path d="M65.6663 48.7704C65.7467 48.6336 65.8517 48.5218 65.9691 48.4534L66.5129 48.1426C66.6303 48.0742 66.7354 48.068 66.8157 48.1177L59.4189 43.7234C59.3386 43.6799 59.2335 43.6861 59.1161 43.7482L58.5723 44.059C58.4549 44.1274 58.3499 44.2455 58.2695 44.376L65.6663 48.7704Z" fill="#026827"/>
<path d="M59.2578 44.9674C59.7151 44.5448 59.9623 44.408 60.4134 44.3086L60.7656 44.5199C60.3145 44.6194 60.0673 44.7561 59.61 45.1788L59.2578 44.9674Z" fill="#D268CC"/>
<g opacity="0.4">
<path d="M59.2461 44.9674C59.7034 44.5448 59.9506 44.408 60.4017 44.3086L60.7539 44.5199C60.3028 44.6194 60.0556 44.7561 59.5983 45.1788L59.2461 44.9674Z" fill="white"/>
</g>
<path d="M64.1176 53.6936C64.0496 53.9733 63.444 54.11 63.2154 54.0292C62.9867 53.9546 61.757 53.3455 61.6273 53.1155C61.4975 52.8856 61.2132 52.2391 61.2688 51.9532C61.3245 51.6673 61.4604 50.9836 61.7447 51.0582C62.0289 51.1328 62.0351 51.4125 62.0351 51.4125C62.0351 51.4125 62.171 50.8966 62.3997 50.9401C62.5789 50.9712 62.7952 51.226 62.7704 51.5119C63.0856 51.4809 63.2957 51.717 63.2957 52.0403C63.5367 52.09 63.6726 52.3386 63.6109 52.8731C63.5985 53.159 63.7468 53.476 63.7468 53.476L64.1176 53.6998V53.6936Z" fill="#DD8669"/>
<path d="M58.252 32.4922C59.9451 32.6351 60.9956 33.1324 61.6815 34.6614C62.3675 36.1904 63.3994 40.187 63.3994 40.187C63.3994 40.187 62.2995 41.5917 59.2777 41.3618L58.5424 38.2353L58.252 32.4922Z" fill="#375A64"/>
<path d="M42.8539 37.6542C42.9651 37.7039 44.1083 37.4367 45.1897 37.014V32.918C45.1897 32.918 43.787 33.0609 43.342 34.6645C42.5758 37.4304 42.8539 37.648 42.8539 37.648V37.6542Z" fill="#1A2E35"/>
<path d="M51.2723 31.02C52.2858 31.0014 53.4722 31.5111 53.8244 32.3004C53.8862 32.4372 54.3126 33.4752 54.3126 33.4752C54.8811 36.2411 55.9131 43.3641 55.1901 44.2467C54.1087 45.5706 48.7758 48.1625 46.44 48.0879C44.512 48.0257 42.652 46.2605 42.3863 45.7322C41.5088 43.9856 43.8137 34.2459 44.4255 33.27C45.4142 31.6851 49.987 31.0387 51.2785 31.02H51.2723Z" fill="#00953B"/>
<path d="M46.5306 48.1886C46.4935 48.1886 46.4626 48.1886 46.4255 48.1886C44.4728 48.1265 42.5881 46.3737 42.2853 45.777C41.3769 43.9807 43.7128 34.2037 44.3307 33.2216C45.3627 31.5683 50.0838 30.9467 51.2641 30.9219C51.2641 30.9219 51.295 30.9219 51.3135 30.9219C52.3022 30.9219 53.5319 31.4129 53.9089 32.2644C53.9707 32.4012 54.3785 33.4019 54.397 33.4454C54.9408 36.0808 56.0222 43.384 55.256 44.3163C54.2055 45.603 49.0024 48.1948 46.5306 48.1948V48.1886ZM51.2702 31.1146C49.7686 31.1394 45.4121 31.8542 44.4976 33.3211C43.9043 34.272 41.6056 43.9931 42.4583 45.69C42.7364 46.2432 44.5841 47.94 46.4317 47.9959C48.749 48.0705 54.0881 45.4351 55.1077 44.192C55.2807 43.9869 55.5093 43.1105 55.1324 39.5801C54.8914 37.2866 54.4835 34.819 54.2117 33.4951C54.2117 33.4951 53.7914 32.4695 53.7297 32.339C53.3836 31.5621 52.2404 31.1146 51.3135 31.1146C51.295 31.1146 51.2826 31.1146 51.2641 31.1146H51.2702Z" fill="#1A2E35"/>
<path opacity="0.18" d="M55.1843 44.2481C54.1029 45.572 48.77 48.1639 46.4342 48.0893C45.9151 48.0706 45.3961 47.9277 44.9141 47.7226C45.4579 47.9836 46.1005 47.7226 46.2735 47.0078C46.4527 46.293 46.7494 40.5871 46.7494 35.7017L54.313 33.4766C54.8815 36.2425 55.9135 43.3655 55.1905 44.2481H55.1843Z" fill="black"/>
<path opacity="0.5" d="M44.1797 33.7893C44.2724 33.4723 44.3589 33.2797 44.4207 33.1802C45.4094 31.5952 49.9822 30.9488 51.2737 30.9302C52.2871 30.9115 53.4736 31.4212 53.8258 32.2106C53.8814 32.3411 54.314 33.3853 54.314 33.3853C52.2871 34.4668 47.22 35.567 46.6824 35.3681C46.0212 35.1257 44.1797 33.7893 44.1797 33.7893Z" fill="black"/>
<path d="M42.7946 41.3202C42.844 41.2953 43.567 40.7919 43.6474 40.7484C43.7957 40.68 45.8349 42.1717 46.0203 42.4204C46.15 42.5944 45.7978 46.1372 45.7051 46.3175C45.6742 46.3859 44.8833 46.8209 44.8524 46.8893C44.7658 47.0696 42.6092 45.553 42.4795 45.1987C42.3559 44.8444 42.5721 41.4259 42.7884 41.3202H42.7946Z" fill="#D268CC"/>
<path d="M42.7946 41.3202C42.844 41.2953 43.567 40.7919 43.6474 40.7484C43.7957 40.68 45.8349 42.1717 46.0203 42.4204C46.15 42.5944 45.7978 46.1372 45.7051 46.3175C45.6742 46.3859 44.8833 46.8209 44.8524 46.8893C44.7658 47.0696 42.6092 45.553 42.4795 45.1987C42.3559 44.8444 42.5721 41.4259 42.7884 41.3202H42.7946Z" fill="#026827"/>
<path d="M45.1675 42.9946C45.2973 43.1686 44.9451 46.7115 44.8524 46.8917C44.7658 47.072 42.6092 45.5554 42.4795 45.2011C42.3559 44.8468 42.5721 41.4283 42.7884 41.3226C42.9367 41.2542 44.976 42.7459 45.1613 42.9946H45.1675Z" fill="#D268CC"/>
<path opacity="0.4" d="M43.6516 40.7539C43.5713 40.7912 42.8483 41.3009 42.7988 41.3257C42.9471 41.2574 44.9864 42.7491 45.1717 42.9977L46.0245 42.4321C45.8391 42.1835 43.7999 40.6918 43.6516 40.7601V40.7539Z" fill="black"/>
<path d="M45.1675 42.9946C45.2973 43.1686 44.9451 46.7115 44.8524 46.8917C44.7658 47.072 42.6092 45.5554 42.4795 45.2011C42.3559 44.8468 42.5721 41.4283 42.7884 41.3226C42.9367 41.2542 44.976 42.7459 45.1613 42.9946H45.1675Z" fill="#2B454E"/>
<path d="M46.0181 42.4244C45.8636 42.3188 45.3939 42.5487 45.1838 42.7166C44.9799 42.8844 44.7327 43.6924 44.2075 43.7981C43.6822 43.9099 42.9778 43.1952 42.8418 42.7476C42.7059 42.3001 42.5514 41.3678 42.8171 41.0446C43.0828 40.7214 43.5216 40.5598 43.8862 40.7711C44.2446 40.9824 45.9934 42.0142 46.0181 42.4244Z" fill="#D268CC"/>
<path d="M46.0181 42.4244C45.8636 42.3188 45.3939 42.5487 45.1838 42.7166C44.9799 42.8844 44.7327 43.6924 44.2075 43.7981C43.6822 43.9099 42.9778 43.1952 42.8418 42.7476C42.7059 42.3001 42.5514 41.3678 42.8171 41.0446C43.0828 40.7214 43.5216 40.5598 43.8862 40.7711C44.2446 40.9824 45.9934 42.0142 46.0181 42.4244Z" fill="#026827"/>
<path d="M43.7477 42.8326C43.859 42.901 43.9331 43.0626 43.9146 43.1994C43.896 43.3361 43.7848 43.392 43.6736 43.3299C43.5624 43.2677 43.4882 43.0999 43.5067 42.9632C43.5253 42.8264 43.6365 42.7643 43.7477 42.8326Z" fill="#D8D8D8"/>
<path d="M46.7518 35.6091C46.7518 35.6091 46.0412 35.1181 45.176 34.6147C44.3109 34.1112 43.8289 33.9372 43.5199 34.9503C43.1924 36.0256 42.8773 37.3619 42.8526 37.654C42.6857 37.5732 42.7043 37.2749 42.8217 35.9883C42.9885 34.1112 42.7537 33.2783 44.6817 32.5262C47.6725 31.3639 50.1814 30.4502 51.8931 30.8356C53.6048 31.221 54.0065 32.1844 54.3154 33.384C54.3154 33.384 52.2391 35.2797 46.7518 35.6091Z" fill="#2B454E"/>
<path d="M60.4199 79.0995C60.4384 77.9434 60.7536 69.0117 60.7536 69.0117L55.9336 71.6471C56.4465 76.8184 56.947 79.2673 56.9903 80.1624C56.9903 80.1624 57.015 80.2183 57.015 80.3426C56.9841 81.362 58.2138 81.9525 59.1654 82.6672C59.5424 82.9469 60.6362 83.7798 61.7485 84.3454C62.4467 84.6997 64.0348 84.5257 64.2264 84.1155C63.0709 83.2391 61.8906 82.4559 61.0749 81.3931C60.6423 80.8337 60.4075 80.1686 60.4261 79.0995H60.4199Z" fill="#DD8669"/>
<path d="M66.0491 85.5352C66.1109 85.5352 66.1788 86.1568 65.839 86.4054C65.4497 86.6976 64.3127 87.1513 62.8419 86.9213C61.3712 86.6913 60.5865 86.2438 60.0056 85.7652C59.4309 85.2866 58.6214 84.6154 57.9602 84.46C57.3422 84.3108 56.6749 84.0311 56.4833 83.8446C56.2917 83.6582 56.3473 82.875 56.3473 82.875L66.0491 85.529V85.5352Z" fill="#1A2E35"/>
<path d="M56.9522 79.8908C56.9522 79.8908 56.8471 79.8784 56.8039 80.0586C56.7483 80.2762 56.6803 80.9039 56.569 81.252C56.4146 81.743 56.291 82.75 56.3589 83.154C56.4269 83.558 57.428 83.875 58.0707 84.1236C58.7257 84.3784 59.4734 84.8819 60.1284 85.4164C60.8082 85.9696 62.248 86.5476 63.212 86.5974C64.6827 86.672 65.6467 86.3363 65.9556 85.8577C66.3388 85.2672 66.2214 84.6581 64.5529 83.8812C64.2377 83.732 63.1131 83.0421 62.7609 82.7748C61.7721 82.0165 61.5188 81.6871 60.9935 80.6802C60.9317 80.5621 60.8885 80.3881 60.7649 80.2327C60.6969 80.1456 60.5486 80.0213 60.2149 80.0711C59.9368 80.1146 59.0285 80.2327 58.7689 80.3321C58.5403 80.4253 58.2128 80.531 58.2066 80.7983C58.2066 80.8915 58.2313 80.9847 58.2622 81.0718C58.2808 81.1277 58.2931 81.2023 58.2437 81.2334C58.1942 81.2644 58.1325 81.2271 58.0892 81.1899C57.9162 81.0407 57.7926 80.848 57.6505 80.6678C57.5763 80.5745 57.4898 80.4813 57.3909 80.4067C57.3044 80.3383 57.187 80.301 57.1067 80.2264C57.0078 80.127 56.9831 80.0524 56.9522 79.897V79.8908Z" fill="#2B454E"/>
<path d="M64.8293 84.0078C62.6974 84.07 61.8261 85.5058 61.7148 86.2516C62.2339 86.4443 62.7777 86.5748 63.2164 86.5997C64.6872 86.6743 65.7129 86.3386 66.0219 85.8663C66.3865 85.3131 66.3247 84.5921 64.8293 84.014V84.0078Z" fill="#FAFAFA"/>
<path d="M61.4875 84.1648C61.4875 84.1648 61.4442 84.1586 61.4195 84.14C61.3763 84.1027 61.3701 84.0467 61.4072 84.0032C61.7161 83.68 62.7419 83.015 63.5082 83.1206C63.5638 83.1268 63.607 83.1766 63.5947 83.2263C63.5885 83.276 63.5329 83.3133 63.4773 83.3071C62.7543 83.2139 61.8026 83.8727 61.5616 84.1275C61.5431 84.1524 61.5122 84.1586 61.4813 84.1586L61.4875 84.1648Z" fill="#F0F0F0"/>
<path d="M60.5812 83.6375C60.5812 83.6375 60.538 83.6313 60.5133 83.6126C60.47 83.5753 60.4638 83.5194 60.5009 83.4759C60.8099 83.1527 61.8357 82.4876 62.6019 82.5933C62.6575 82.5995 62.7008 82.6492 62.6884 82.6989C62.6823 82.7487 62.6328 82.786 62.571 82.7798C61.8542 82.6803 60.8964 83.3454 60.6554 83.6002C60.6369 83.6251 60.606 83.6313 60.5751 83.6313L60.5812 83.6375Z" fill="#F0F0F0"/>
<path d="M59.757 83.0528C59.757 83.0528 59.7138 83.0466 59.689 83.0279C59.6458 82.9906 59.6396 82.9347 59.6767 82.8912C59.9857 82.568 61.2401 81.7724 62.0063 81.8718C62.062 81.878 62.1052 81.9278 62.0929 81.9775C62.0867 82.0272 62.0372 82.0645 61.9754 82.0583C61.2586 81.9651 60.0722 82.7544 59.8312 83.0093C59.8126 83.0341 59.7817 83.0403 59.7508 83.0403L59.757 83.0528Z" fill="#F0F0F0"/>
<path d="M58.9422 82.4578C58.9422 82.4578 58.899 82.4516 58.8805 82.4329C58.8372 82.3956 58.831 82.3397 58.8681 82.2962C59.2945 81.8362 60.6107 81.1712 61.377 81.2768C61.4326 81.283 61.4758 81.3328 61.4635 81.3825C61.4573 81.4322 61.4078 81.4695 61.3461 81.4633C60.654 81.3701 59.3995 82.0103 59.0226 82.4205C59.004 82.4453 58.9731 82.4578 58.9422 82.4516V82.4578Z" fill="#F0F0F0"/>
<path d="M50.3211 74.0907L45.6556 73.3945C45.4331 76.2537 45.532 78.7772 45.2107 81.3318C45.1489 81.8104 44.6174 85.0549 44.6607 86.068C44.7287 87.5908 46.7061 87.7897 46.9471 86.9133C47.1881 86.0431 48.2262 81.972 48.2942 81.5866C48.733 80.0514 49.1717 78.3297 50.0801 75.0665C50.1172 74.9235 50.2778 74.2274 50.3211 74.0845V74.0907Z" fill="#DD8669"/>
<path d="M47.7303 87.5632C47.6994 88.5018 47.4089 89.2787 46.9764 89.6516C46.5067 90.0557 45.932 90.2173 45.2894 90.037C44.6467 89.8568 43.899 89.403 43.6889 88.6509C43.4294 87.7435 43.5591 87.2338 43.7445 86.4258L47.7303 87.5632Z" fill="#1A2E35"/>
<path d="M45.2438 81.0234C44.978 81.0297 44.8421 82.2044 44.6382 83.3791C44.4157 84.6347 43.9832 85.1443 43.7854 86.1761C43.563 87.3571 43.6495 88.0221 44.0635 88.7556C44.4837 89.4952 46.0471 90.2659 46.8813 89.2777C47.5611 88.4696 47.833 87.587 47.833 86.3999C47.833 85.1754 47.9565 84.3301 48.0554 83.404C48.1481 82.5214 48.5189 81.6947 48.2902 81.5891C48.1357 82.0304 47.9689 82.6954 47.8824 82.5214C47.8762 82.4095 47.8824 82.3038 47.8947 82.1857C47.9071 82.0863 47.9009 81.9744 47.833 81.8936C47.765 81.8128 47.6476 81.7817 47.5425 81.7569C47.283 81.6947 46.4797 81.471 46.2139 81.4399C46.0842 81.4212 45.9482 81.4088 45.8123 81.4088C45.7072 81.4088 45.5775 81.4088 45.4724 81.4399C45.4106 81.4585 45.3488 81.4958 45.3241 81.5518C45.3056 81.5953 45.3056 81.6388 45.3056 81.6885C45.3056 81.7693 45.287 81.8501 45.2623 81.9309C45.2499 81.9682 45.2252 82.0055 45.182 81.9993C45.1511 81.9931 45.1387 81.9558 45.1449 81.9247C45.1449 81.7817 45.1758 81.6761 45.1882 81.5145C45.1943 81.4399 45.2129 81.3342 45.219 81.2534C45.219 81.1788 45.2252 81.1042 45.2376 81.0234H45.2438Z" fill="#2B454E"/>
<path d="M43.6625 86.8615C43.5822 87.5949 43.644 88.2351 43.9715 88.8132C44.3917 89.5528 45.986 90.2428 46.9191 89.3415C47.3887 88.894 47.6545 88.1792 47.7348 87.5701C47.2961 86.7558 44.435 86.2213 43.6625 86.8615Z" fill="#FAFAFA"/>
<path d="M47.1452 86.3526C47.1452 86.3526 47.1205 86.3526 47.1143 86.3402C47.1019 86.3402 45.7919 85.6378 44.5807 85.8367C44.5251 85.843 44.4757 85.8119 44.4633 85.7622C44.451 85.7124 44.488 85.6627 44.5437 85.6565C45.829 85.4452 47.1637 86.1537 47.207 86.1786C47.2564 86.2035 47.275 86.2594 47.2503 86.3029C47.2317 86.3402 47.1885 86.3526 47.1514 86.3526H47.1452Z" fill="#F0F0F0"/>
<path d="M44.6889 84.956C44.6518 84.956 44.6209 84.925 44.6086 84.8939C44.5962 84.8442 44.6209 84.7944 44.6766 84.782C45.8877 84.465 47.2905 85.2544 47.3399 85.2792C47.3893 85.3041 47.4017 85.36 47.377 85.4035C47.3523 85.4471 47.2905 85.4595 47.241 85.4346C47.2287 85.4346 45.863 84.6577 44.7322 84.956C44.7198 84.956 44.7013 84.956 44.6889 84.956Z" fill="#F0F0F0"/>
<path d="M44.7928 84.1288C44.7557 84.1288 44.7248 84.0977 44.7125 84.0667C44.6939 84.0169 44.7248 83.9672 44.7743 83.9548C46.109 83.5818 47.4376 84.4209 47.487 84.4458C47.5303 84.4769 47.5427 84.5328 47.5118 84.5701C47.4809 84.6136 47.4191 84.6198 47.3758 84.595C47.3635 84.5888 46.0781 83.7745 44.8361 84.1226C44.8237 84.1226 44.8052 84.1226 44.7928 84.1226V84.1288Z" fill="#F0F0F0"/>
<path d="M44.9178 83.1986C44.8807 83.1986 44.8498 83.1676 44.8375 83.1365C44.8189 83.0868 44.8498 83.037 44.8993 83.0246C46.1475 82.6579 47.575 83.5156 47.6244 83.5467C47.6677 83.5716 47.6862 83.6275 47.6553 83.671C47.6244 83.7145 47.5626 83.727 47.5193 83.6959C47.507 83.6897 46.1228 82.8506 44.9611 83.1986C44.9487 83.1986 44.9302 83.1986 44.9178 83.1986Z" fill="#ECECEC"/>
<path d="M50.2002 43.0804C50.0828 43.6088 49.9777 43.8201 49.7676 44.0749C48.5008 45.6474 47.9014 47.1889 47.6728 50.1351C47.1043 57.4197 46.9498 64.9902 46.9498 64.9902C46.8695 65.6304 46.2577 66.7492 45.8499 70.0683C45.4915 72.9771 45.3926 76.9799 45.3926 76.9799C45.3926 76.9799 48.7851 77.5891 49.78 76.6692C50.3423 74.5062 52.1035 69.0365 53.0613 65.8914C53.9264 63.0385 54.6123 58.8182 54.6123 58.8182L55.6443 64.754C55.6443 64.754 55.3539 66.37 55.5207 68.5579C55.669 70.522 56.3611 75.6187 56.3611 75.6187C56.979 76.3024 59.9019 76.2962 60.6682 75.3453C60.6682 75.3453 61.5209 66.774 61.6445 64.4121C61.8732 60.0178 62.7507 51.1295 60.8536 45.1067C60.7732 44.8519 60.4148 43.4161 60.4148 43.4161C58.7834 44.6219 52.2518 44.5411 50.2002 43.0742V43.0804Z" fill="#1A2E35"/>
<path d="M53.0579 45.2747C53.0085 45.2623 52.9652 45.2871 52.9467 45.3306C52.8416 45.6663 52.7613 45.9708 52.6872 46.263C52.4091 47.3196 52.2052 48.0841 51.3338 48.8735C50.5305 49.6069 49.5171 49.6069 49.2143 49.5821C49.6716 47.4128 50.5058 45.7036 51.7788 44.3237C51.8097 44.2926 51.8035 44.2367 51.7664 44.2118C51.7293 44.1808 51.6737 44.187 51.6428 44.2181C50.3328 45.6414 49.48 47.4004 49.0227 49.6318C49.0227 49.6318 49.0227 49.638 49.0227 49.6442C49.0227 49.6442 49.0227 49.6442 49.0227 49.6504C48.8497 50.4833 48.7385 51.3783 48.6767 52.3542C48.411 56.4564 48.0155 62.6533 47.8795 64.2818C47.8054 65.152 47.5706 65.8978 47.274 66.8488C47.0144 67.663 46.724 68.5891 46.4459 69.8633C45.8403 72.6168 45.8774 77.179 45.8774 77.2287C45.8774 77.2722 45.9145 77.3095 45.9639 77.3095C46.0133 77.3095 46.0504 77.2722 46.0504 77.2287C46.0504 77.1852 46.0133 72.6355 46.6128 69.9006C46.8908 68.6327 47.1813 67.7128 47.4346 66.8985C47.7374 65.9413 47.9722 65.1893 48.0464 64.3004C48.1823 62.672 48.584 56.4751 48.8435 52.3728C48.9053 51.4343 49.0166 50.5641 49.1772 49.7561C49.2019 49.7561 49.2328 49.7561 49.2699 49.7561C49.6654 49.7747 50.6479 49.7312 51.4574 48.9916C52.3596 48.1711 52.5697 47.388 52.854 46.3065C52.9343 46.0143 53.0085 45.716 53.1135 45.3804C53.1259 45.3368 53.1012 45.2933 53.0517 45.2809L53.0579 45.2747Z" fill="#375A64"/>
<path d="M45.4218 76.082C46.0336 76.6974 48.7773 77.1387 49.7783 76.6663L49.2901 78.245C49.2901 78.245 48.5672 78.562 47.1459 78.3693C45.5021 78.1518 45.3477 77.6297 45.3477 77.6297L45.4156 76.082H45.4218Z" fill="#375A64"/>
<path d="M56.3555 75.629C57.1959 75.9397 59.7109 75.8714 60.6625 75.3555L60.576 76.6732C60.576 76.6732 59.9087 77.1331 58.4812 77.2201C57.0476 77.3009 56.4914 76.8969 56.4914 76.8969L56.3555 75.6352V75.629Z" fill="#375A64"/>
<path d="M54.6116 58.8179L55.8661 51.6514C55.8661 51.6514 58.0227 51.9062 59.6788 50.0664C59.6788 50.0664 59.6603 51.8689 56.5829 52.5588L55.1678 59.1535L55.6374 64.7537L54.6055 58.8179H54.6116Z" fill="black"/>
<path d="M48.0841 47.119C48.5785 44.5644 49.6228 43.141 49.6475 42.333C49.6475 42.333 48.9183 38.2681 48.8133 37.3109C48.5414 34.8184 48.5599 33.6002 49.1037 32.9724C49.6104 32.8295 52.0822 32.3384 52.4715 32.326C54.5478 32.239 54.8506 32.2452 56.4511 32.2701C57.0505 32.3012 58.2555 32.4938 58.2555 32.4938C58.8054 32.9103 59.3369 33.4572 60.0413 34.2715C61.3081 35.7508 61.7098 36.7515 61.5059 38.2743C61.3699 39.3061 60.6655 40.0706 60.6655 40.0706C60.5666 40.8102 60.4059 42.8986 60.4059 42.8986C60.4245 43.7191 60.9374 44.8627 61.3452 46.8393C59.2318 49.9408 50.7104 49.2944 48.0841 47.1252V47.119Z" fill="#F0F0F0"/>
<path d="M59.2879 25.7292C59.7885 24.6601 59.3745 23.2056 58.8307 22.5095C58.0459 21.5088 56.7915 21.0489 54.882 21.111C53.4298 21.1545 51.6749 21.7574 51.3535 23.2429C49.9879 23.8831 50.4081 25.7789 50.7418 26.5745C51.4462 28.2527 52.472 29.5828 52.4658 30.4654L59.2818 25.7292H59.2879Z" fill="#1A2E35"/>
<path d="M58.5092 23.4378C58.8367 23.6926 59.3743 24.4136 59.2878 25.7251C59.2446 26.1229 59.3682 26.6077 59.3682 27.3473C59.3682 30.1443 58.5957 30.7286 57.8418 31.058C57.3907 31.2569 57.1436 31.288 56.4267 31.2755V32.5746C56.4267 32.5746 58.0519 35.1292 57.3166 37.3668C53.9426 35.0608 52.4534 32.3695 52.4534 32.3633L52.4286 29.2058C52.4101 29.2182 51.9837 29.5973 51.2793 29.2182C50.5192 28.808 50.2288 27.5151 50.7231 26.9247C51.2236 26.3342 51.9281 26.6947 52.2433 27.223C52.5584 27.7451 53.337 27.6022 53.1022 26.8066C53.4606 26.6387 53.8993 26.272 53.578 24.8114C53.5039 24.4385 53.6398 23.792 53.992 23.475C54.5791 22.9467 55.7285 23.071 56.3711 23.7237C57.2548 22.9902 57.8233 22.9032 58.4969 23.4315L58.5092 23.4378Z" fill="#DD8669"/>
<path d="M55.7421 28.6328L57.0274 29.0865C56.9162 29.4533 56.533 29.6459 56.1808 29.5216C55.8286 29.3973 55.6308 28.9995 55.7421 28.6328Z" fill="#C66150"/>
<path d="M56.4767 29.5544C56.4767 29.2188 56.2048 28.9453 55.8711 28.9453C55.8217 28.9453 55.7722 28.9515 55.7228 28.964C55.766 29.2126 55.9329 29.4363 56.1801 29.5234C56.2789 29.5607 56.3778 29.5669 56.4767 29.5544Z" fill="#FF9090"/>
<path d="M56.7657 25.7852L56.9388 28.2776L58.1808 27.6933L56.7657 25.7852Z" fill="#C66150"/>
<path d="M56.4347 31.2849C55.5387 31.2352 53.6355 30.7442 53.172 29.5508C53.172 29.5508 53.24 30.4023 54.3337 31.0612C55.1989 31.5833 56.4286 31.6889 56.4286 31.6889V31.2849H56.4347Z" fill="#C66150"/>
<path d="M55.7551 26.571C55.7366 26.7885 55.545 26.9501 55.3287 26.9315C55.1125 26.9128 54.9518 26.7201 54.9703 26.5026C54.9889 26.285 55.1804 26.1234 55.3967 26.1421C55.613 26.1607 55.7737 26.3534 55.7551 26.571Z" fill="#1A2E35"/>
<path d="M58.7007 26.4693C58.6513 26.6806 58.4412 26.8174 58.2249 26.7676C58.0148 26.7179 57.8788 26.5066 57.9283 26.289C57.9777 26.0777 58.1878 25.941 58.4041 25.9907C58.6142 26.0404 58.7501 26.2517 58.7007 26.4693Z" fill="#1A2E35"/>
<path d="M58.553 24.9188C58.2502 24.8442 57.9474 25.0307 57.8733 25.3352L58.9732 25.6025C59.0474 25.2979 58.862 24.9934 58.5592 24.9188H58.553Z" fill="#1A2E35"/>
<path d="M54.8445 25.132C54.5602 25.2563 54.4243 25.5857 54.5478 25.8778L55.586 25.4303C55.4624 25.1444 55.1349 25.0077 54.8445 25.132Z" fill="#1A2E35"/>
<path d="M58.2702 22H54.0311C51.17 23.1312 52.2205 26.8357 52.8199 27.2894C54.5192 26.5684 54.408 24.8591 54.2844 23.8895C55.1495 24.7038 56.5832 25.3004 57.2567 25.375C56.9416 24.9959 56.682 24.0573 56.682 24.0573C56.682 24.0573 57.0775 24.9648 58.023 25.518C59.0735 26.1271 59.7841 25.7169 59.7841 25.7169C59.7841 25.7169 60.1425 23.1437 58.264 22H58.2702Z" fill="#1A2E35"/>
<path d="M50.6589 32.5898C50.6589 32.5898 52.4571 34.3426 52.7414 37.3261C53.4582 44.8717 47.9708 46.4132 47.9708 46.4132C47.9708 46.4132 48.0759 45.686 48.4219 44.5112C48.4219 44.5112 51.6538 41.534 51.2954 37.6804C51.042 34.9331 49.7938 33.1617 49.1017 32.9814C49.1017 32.9814 49.7258 32.7328 50.6589 32.5898Z" fill="#1A2E35"/>
<path d="M47.0253 46.5278C47.7421 46.273 48.2179 45.9746 48.9471 45.2971C50.3004 44.0478 50.3745 43.8613 51.4992 42.7612C51.8823 42.3883 52.2222 42.0153 52.3828 41.8475C52.5435 41.6797 52.9575 41.3689 53.2294 40.909C53.4148 40.5982 53.6558 40.2066 53.6867 39.8337C53.7238 39.4234 53.8474 39.007 53.7547 38.5906C53.73 38.4725 53.6805 38.3544 53.662 38.2363C53.6311 38.0685 53.6373 37.9006 53.6373 37.7328C53.6373 37.4345 53.6002 37.1361 53.489 36.8626C53.3963 36.6265 53.2541 36.4276 53.0626 36.2597C52.9204 36.1354 52.7412 36.0236 52.5311 36.0981C52.5868 36.3157 52.6238 36.4959 52.6671 36.757C52.6177 37.2045 52.4879 37.4034 52.2592 37.7453C51.8452 38.3482 51.4806 38.6652 51.4188 38.5533C51.357 38.429 51.5115 38.0622 51.4188 37.478C51.3385 36.9124 51.1655 36.6824 50.9801 36.6451C50.6897 36.5829 50.7082 36.8999 50.6093 37.3785C50.4919 37.9504 50.2633 38.2674 50.2756 39.1065C50.2818 39.8399 50.4116 40.0015 50.0161 40.3496C49.7936 40.5485 49.219 40.8903 49.219 40.8903C49.219 40.8903 49.324 40.2439 49.5094 38.8516C49.8863 35.9552 49.6268 33.5684 49.0398 33.2266C47.7791 33.5995 46.5494 34.3143 45.9933 36.4897C45.4001 38.8019 45.4001 39.15 44.8995 43.7122C44.5349 47.0313 45.9191 46.9194 47.0129 46.5402L47.0253 46.5278Z" fill="#DD8669"/>
<path d="M49.2274 40.879C48.1645 41.4757 46.2118 42.4267 45.9955 43.5455C45.9955 43.5455 45.8287 42.6567 47.1078 41.6684C48.4364 40.6428 49.3263 40.1953 49.3263 40.1953L49.2212 40.879H49.2274Z" fill="#C66150"/>
<path d="M49.3363 40.5774C49.3363 40.5774 49.6577 38.576 49.8183 37.5691C50.0408 36.1706 50.0902 34.0263 49.1015 32.9883C48.2179 33.1934 46.8769 33.6471 46.3517 34.623C45.8326 35.5988 45.7832 36.3695 45.536 37.9918C45.468 38.4642 45.2888 39.8129 45.2208 40.5774C46.5062 41.1555 48.1437 41.2239 49.3302 40.5774H49.3363Z" fill="#375A64"/>
<path d="M89.148 54.1841L87.8133 53.4258C87.8133 53.4258 80.7069 55.0543 79.953 55.8685C79.5019 56.3533 78.507 61.2263 78.8654 61.2076C79.4154 61.1828 87.047 58.7525 87.047 58.7525L89.1418 54.1779L89.148 54.1841Z" fill="#D268CC"/>
<path d="M89.148 54.1841L87.8133 53.4258C87.8133 53.4258 80.7069 55.0543 79.953 55.8685C79.5019 56.3533 78.507 61.2263 78.8654 61.2076C79.4154 61.1828 87.047 58.7525 87.047 58.7525L89.1418 54.1779L89.148 54.1841Z" fill="#00953B"/>
<path d="M80.9238 66.8446C82.1721 66.9938 88.8026 63.5939 89.3526 63.1526C89.8964 62.7051 89.1425 54.1836 89.1425 54.1836L81.6468 56.6885L80.9238 66.8446Z" fill="#1A2E35"/>
<path d="M80.0881 56.0508C79.4392 58.1019 78.2343 65.1441 78.4567 65.7594C78.6792 66.381 80.5577 66.928 80.9223 66.8534C81.2931 66.7788 81.6453 56.6972 81.6453 56.6972L80.0881 56.0508Z" fill="#2B454E"/>
<path d="M86.7974 86.7788L87.162 83.3789L83.2875 83.6337C83.2875 83.6337 83.3493 85.4798 83.3987 86.524C83.4296 87.1393 82.6016 88.2892 82.6016 88.2892C82.6016 88.2892 84.4183 89.2712 85.3947 88.9294C86.371 88.5875 86.8839 87.3693 86.8716 87.102C86.8592 86.8347 86.7912 86.7788 86.7912 86.7788H86.7974Z" fill="#FFAAA8"/>
<path d="M77.4719 92.0971C77.4101 92.0971 77.3113 92.7311 77.6388 93.0046C78.0157 93.3216 79.1342 93.8499 80.6234 93.6945C82.1127 93.5391 82.9222 93.1227 83.5278 92.6627C84.1272 92.2028 84.9738 91.5564 85.6473 91.4321C86.2715 91.314 86.9574 91.0591 87.1613 90.8789C87.3652 90.6986 87.3467 89.8906 87.3467 89.8906L77.4781 92.0971H77.4719Z" fill="#1A2E35"/>
<path d="M86.7969 86.7773C86.7969 86.7773 86.9823 86.7774 87.0194 86.97C87.0626 87.1938 87.0997 87.8402 87.1924 88.2069C87.3222 88.7166 87.3963 89.7608 87.3098 90.171C87.2233 90.5813 86.1975 90.8547 85.5425 91.0723C84.8751 91.296 84.0965 91.7746 83.4167 92.2905C82.7123 92.8188 81.2292 93.3596 80.2652 93.3347C79.122 93.3099 77.8367 92.9369 77.5463 92.4335C77.1879 91.8057 76.9345 91.0847 78.6462 90.3761C78.9675 90.2394 80.1107 89.6303 80.5 89.4127C81.5505 88.816 82.2921 88.2629 82.7926 87.1751C82.8482 87.0508 82.91 86.9079 83.0398 86.8457C83.1387 86.796 83.2623 86.8084 83.3735 86.8209C83.6577 86.8644 84.7824 87.026 85.0358 87.1503C85.2644 87.2559 85.5857 87.3803 85.5734 87.6537C85.5734 87.747 85.5363 87.8402 85.5054 87.9334C85.4868 87.9894 85.4683 88.064 85.5177 88.095C85.5672 88.1261 85.6352 88.095 85.6784 88.0578C85.8576 87.9086 85.9936 87.7221 86.1419 87.5481C86.2222 87.4548 86.3149 87.3678 86.4138 87.2932C86.5065 87.2249 86.6239 87.1938 86.7104 87.1192C86.8154 87.026 86.7907 86.9017 86.7969 86.7773Z" fill="#375A64"/>
<path d="M83.4167 92.2931C83.7195 92.0694 84.0347 91.8518 84.356 91.6591C84.356 91.6591 82.3415 92.7655 81.5382 92.231C81.0253 91.8891 81.2787 91.4851 81.291 91.3546C81.3034 91.2241 79.4866 90.2793 78.9799 90.2109C78.8378 90.2793 78.7204 90.3415 78.6462 90.3725C76.9345 91.0811 77.1879 91.8083 77.5463 92.4299C77.8367 92.9333 78.7636 93.3436 80.2405 93.3684C81.2107 93.3871 82.7061 92.8215 83.4167 92.2931Z" fill="#2B454E"/>
<path d="M81.4391 90.979C80.3762 91.3582 80.8211 91.5509 81.1178 91.5944C81.4144 91.6379 83.2064 90.6931 84.3064 89.9038C85.4496 89.0833 86.1787 88.1696 86.6051 87.8713C86.7658 87.7594 86.9326 87.6227 87.0871 87.4921C87.0624 87.2746 87.0438 87.0757 87.0253 86.97C86.9882 86.7836 86.8028 86.7773 86.8028 86.7773C86.7967 86.9079 86.8214 87.026 86.7163 87.1192C86.636 87.1938 86.5186 87.2249 86.4197 87.2932C86.3147 87.3678 86.2282 87.4548 86.1478 87.5481C85.9933 87.7221 85.8636 87.9086 85.6844 88.0577C84.7451 89.1455 82.5081 90.6061 81.4453 90.9853L81.4391 90.979Z" fill="#2B454E"/>
<path d="M81.197 91.45C81.197 91.45 81.2465 91.4438 81.265 91.4313C81.3083 91.4003 81.3206 91.3381 81.2836 91.2946C80.9931 90.9465 79.5904 90.1074 78.8118 90.1758C78.7562 90.1758 78.7129 90.2255 78.7191 90.2815C78.7191 90.3374 78.7685 90.3747 78.8303 90.3685C79.5595 90.3063 80.8881 91.1392 81.1167 91.4127C81.1353 91.4376 81.1662 91.45 81.197 91.45Z" fill="#1A2E35"/>
<path d="M82.1267 90.9305C82.1267 90.9305 82.1762 90.9242 82.1947 90.9118C82.238 90.8807 82.2503 90.8186 82.2132 90.7751C81.9228 90.427 80.5201 89.5879 79.7415 89.6563C79.6859 89.6563 79.6426 89.706 79.6488 89.7619C79.6488 89.8179 79.7044 89.8552 79.76 89.849C80.4892 89.7868 81.8178 90.6197 82.0464 90.8932C82.0649 90.918 82.0958 90.9305 82.1267 90.9305Z" fill="#1A2E35"/>
<path d="M83.0584 90.45C83.0584 90.45 83.1078 90.4438 83.1264 90.4314C83.1696 90.4003 83.182 90.3381 83.1449 90.2946C82.8545 89.9465 81.4517 89.1074 80.6731 89.1758C80.6175 89.1758 80.5742 89.2255 80.5804 89.2815C80.5804 89.3374 80.636 89.3747 80.6917 89.3685C81.4208 89.3064 82.7494 90.1392 82.9781 90.4127C82.9966 90.4376 83.0275 90.45 83.0584 90.45Z" fill="#1A2E35"/>
<path d="M83.9197 89.8836C83.9197 89.8836 83.9692 89.8774 83.9877 89.8649C84.0309 89.8339 84.0433 89.7717 84.0062 89.7282C83.7158 89.3801 82.3131 88.541 81.5344 88.6094C81.4788 88.6094 81.4356 88.6591 81.4418 88.7151C81.4418 88.771 81.4974 88.8083 81.553 88.8021C82.2822 88.7399 83.6107 89.5728 83.8394 89.8463C83.8579 89.8712 83.8888 89.8836 83.9197 89.8836Z" fill="#1A2E35"/>
<path d="M84.763 89.3147C84.763 89.3147 84.8062 89.3147 84.831 89.296C84.8742 89.2649 84.8866 89.2028 84.8495 89.1593C84.4478 88.6682 82.9771 87.9597 82.1985 88.028C82.1429 88.028 82.0996 88.0778 82.1058 88.1337C82.1058 88.1896 82.1614 88.2269 82.217 88.2207C82.9153 88.1586 84.3242 88.8423 84.6826 89.2774C84.7012 89.3022 84.7321 89.3147 84.763 89.3147Z" fill="#1A2E35"/>
<path d="M94.4579 88.642L93.5742 85.4161L97.5167 84.8008L97.6959 87.921C97.6959 87.921 98.1161 89.0336 97.8751 89.4438C97.6341 89.854 95.014 90.3202 94.773 90.0529C94.5259 89.7856 94.4641 88.642 94.4641 88.642H94.4579Z" fill="#FFAAA8"/>
<path d="M94.8652 95.6729C94.995 96.6736 95.2113 97.3138 95.65 97.8545C96.0888 98.389 96.855 98.4699 97.6089 98.1964C98.3628 97.9167 99.3144 97.32 99.4813 96.4187C99.6481 95.5175 99.5678 94.927 99.333 94.0195L94.8652 95.6729Z" fill="#1A2E35"/>
<path d="M97.6944 87.9221C98.0095 87.9034 97.9477 89.2708 98.2134 90.601C98.4977 92.0243 99.0229 92.5588 99.2701 93.7274C99.5544 95.0575 99.5111 95.679 99.0291 96.5741C98.5471 97.4691 96.7057 98.5382 95.6984 97.4878C94.8765 96.63 94.7839 95.5734 94.7653 94.206C94.7468 92.795 94.753 91.7943 94.617 90.7377C94.4934 89.7308 94.1844 88.8295 94.4563 88.6804C94.4872 88.8295 94.5181 89.016 94.549 89.1589C94.5737 89.2708 94.6417 89.8178 94.8148 89.7991C94.8209 89.6686 94.8147 89.5443 94.7962 89.4138C94.7777 89.3019 94.7838 89.1714 94.8642 89.0719C94.9445 88.9725 95.2411 88.842 95.3709 88.8047C95.6799 88.7052 96.2298 88.5809 96.5388 88.5125C96.6933 88.4752 96.854 88.4504 97.0084 88.4317C97.1382 88.4131 97.2865 88.4069 97.4101 88.4317C97.4843 88.4442 97.5584 88.4815 97.5893 88.5436C97.614 88.5871 97.614 88.6431 97.614 88.699C97.614 88.7922 97.6388 88.8855 97.6697 88.9725C97.682 89.0098 97.7191 89.0533 97.7623 89.0409C97.7994 89.0284 97.8118 88.9849 97.8056 88.9538C97.7994 88.7922 97.7685 88.6741 97.7438 88.4815C97.7314 88.3944 97.7129 88.2763 97.7067 88.1893C97.7005 88.1023 97.6944 88.0153 97.682 87.9283L97.6944 87.9221Z" fill="#375A64"/>
<path d="M99.1755 93.3523C99.2187 93.5449 99.4844 94.8191 99.1013 95.1051C98.6873 95.4158 98.3907 94.4276 98.3907 94.4276C98.3907 94.4276 97.3649 94.2908 95.9374 95.0615C96.024 95.2604 95.8448 95.9877 95.4307 95.8944C95.0229 95.8012 94.7695 94.3343 94.7695 94.3157C94.7881 95.6272 94.9055 96.6527 95.7026 97.4794C96.7099 98.5298 98.5452 97.4607 99.0333 96.5657C99.5153 95.6707 99.5586 95.0491 99.2743 93.719C99.2434 93.5885 99.2126 93.4642 99.1817 93.3398L99.1755 93.3523Z" fill="#2B454E"/>
<path d="M98.2863 94.5372C98.3233 95.0283 98.8548 94.7858 98.8362 94.0897C98.8177 93.3936 98.2863 91.8024 98.2183 90.609C98.1071 88.9681 98.0144 87.9053 97.6992 87.9301C97.6992 87.9488 97.6992 87.9612 97.6992 87.9798L97.7857 88.6636C97.7981 88.763 97.8166 88.85 97.8228 88.9557C97.8908 89.9564 97.934 91.9081 98.0885 92.8093C98.243 93.7106 98.2492 94.0524 98.2863 94.5434V94.5372Z" fill="#2B454E"/>
<path d="M96.1055 95.032C95.9696 94.5658 95.8645 94.2488 95.6977 93.3475C95.5308 92.4525 94.9747 90.6687 94.6966 89.7052C94.6101 89.5499 94.5668 89.2391 94.5545 89.1583C94.5236 89.0215 94.4927 88.8537 94.468 88.7108C94.468 88.6983 94.468 88.6921 94.4618 88.6797C94.2702 88.7916 94.3444 89.5685 94.4556 89.9663C94.5607 90.3703 94.6966 90.7992 94.8325 91.371C95.1786 92.5022 95.228 94.2115 95.4505 94.8641C95.673 95.5168 96.2476 95.4919 96.1117 95.0257L96.1055 95.032Z" fill="#2B454E"/>
<path d="M95.91 95.1195C95.91 95.1195 95.9409 95.1133 95.9532 95.1009C95.9656 95.0946 97.0779 94.4172 98.3694 94.5415C98.4312 94.5415 98.493 94.5042 98.5053 94.4482C98.5177 94.3923 98.4806 94.3364 98.4126 94.3301C97.0284 94.1934 95.8791 94.8957 95.8296 94.9268C95.774 94.9641 95.7555 95.0263 95.7864 95.076C95.8111 95.1133 95.8605 95.1257 95.9038 95.1133L95.91 95.1195Z" fill="#1A2E35"/>
<path d="M95.582 94.0823C95.582 94.0823 95.6068 94.0761 95.6191 94.0698C95.6315 94.0636 96.8859 93.3488 98.3257 93.4483C98.3875 93.4483 98.4493 93.411 98.4617 93.3488C98.474 93.2929 98.4308 93.237 98.369 93.237C96.8488 93.1313 95.5635 93.8647 95.5141 93.8958C95.4585 93.9269 95.4337 93.9953 95.4646 94.045C95.4893 94.0823 95.5388 94.1009 95.5882 94.0885L95.582 94.0823Z" fill="#1A2E35"/>
<path d="M98.1858 92.4384C98.2291 92.4259 98.2662 92.3949 98.2785 92.3576C98.2971 92.3016 98.26 92.2457 98.1982 92.2333C96.7584 91.9971 95.3989 92.8362 95.3433 92.8672C95.2877 92.9045 95.2691 92.9667 95.3 93.0164C95.3309 93.0661 95.4051 93.0724 95.4607 93.0413C95.4731 93.0351 96.7893 92.227 98.1302 92.4446C98.1488 92.4446 98.1611 92.4446 98.1797 92.4446L98.1858 92.4384Z" fill="#1A2E35"/>
<path d="M98.044 91.4886C98.0873 91.4761 98.1243 91.4451 98.1367 91.4078C98.1552 91.3518 98.1182 91.2959 98.0564 91.2835C96.4682 90.9976 95.1953 91.8802 95.1458 91.9175C95.0902 91.9547 95.0779 92.0231 95.1149 92.0666C95.152 92.1101 95.2262 92.1164 95.2756 92.0791C95.288 92.0728 96.5115 91.2275 97.9884 91.4886C98.0069 91.4886 98.0255 91.4886 98.0378 91.4886H98.044Z" fill="#1A2E35"/>
<path d="M97.8821 90.4323C97.9254 90.4199 97.9624 90.395 97.9748 90.3515C97.9933 90.2956 97.9625 90.2396 97.9007 90.2272C96.4114 89.9413 95.0272 90.855 94.9716 90.8923C94.916 90.9295 94.9036 90.9979 94.9345 91.0414C94.9716 91.0849 95.0396 91.0974 95.0952 91.0601C95.1075 91.0539 96.4485 90.165 97.8265 90.4323C97.845 90.4323 97.8636 90.4323 97.8821 90.4323Z" fill="#1A2E35"/>
<path d="M96.2312 53.8672C96.9728 61.7733 96.775 73.0856 96.775 73.0856C96.8368 73.6885 97.2941 75.4724 97.6834 78.431C98.0295 81.0663 97.6834 86.5298 97.6834 86.8592C97.6834 86.8592 95.8296 88.1645 94.0993 87.6051C94.0993 87.6051 91.9612 79.4752 91.0158 75.8018C90.1198 72.3273 88.9333 66.7458 88.9333 66.7458L88.2536 72.4268C88.2536 72.4268 88.4142 74.7203 88.3772 76.299C88.3339 78.1388 87.0486 85.4421 87.0486 85.4421C87.0486 85.4421 84.9785 86.6168 83.1679 85.2432C83.1679 85.2432 82.0679 74.5525 81.9753 72.346C81.8022 68.0137 81.5489 59.2125 82.0741 53.8921L96.2251 53.8734L96.2312 53.8672Z" fill="#375A64"/>
<path d="M88.9377 66.7487L87.9552 61.1298C87.9552 61.1298 85.8666 60.8563 84.7852 59.8867C84.7852 59.8867 85.4958 61.1795 87.467 61.6581L88.4372 66.7673L88.2642 72.4234L88.9439 66.7424L88.9377 66.7487Z" fill="#1A2E35"/>
<path d="M97.7907 86.934C97.3705 87.5307 95.5908 88.0777 94.0397 87.5618L93.6875 86.2689C94.8554 86.6294 96.8514 86.3808 97.7907 85.5977V86.934Z" fill="#00953B"/>
<path d="M87.0866 85.5197C86.5737 86.0294 84.5901 86.3153 83.1565 85.5322L83.0762 84.2891C84.1638 84.8485 86.2462 84.8982 87.2967 84.2891L87.0866 85.5135V85.5197Z" fill="#00953B"/>
<path d="M66.5056 40.898C66.6786 40.7986 66.8949 40.7737 67.0926 40.7924C67.4201 40.8234 67.7229 40.9602 68.0381 41.0348C68.5201 41.1529 69.7622 41.389 70.2442 41.2337C70.343 41.2026 70.5346 41.1094 70.3677 41.0223C70.1515 40.9042 69.9166 40.811 69.7189 40.6556C69.5212 40.5064 69.3605 40.2889 69.342 40.0403C69.342 39.9657 69.342 39.8849 69.3914 39.829C69.4594 39.7481 69.5212 39.7668 69.6015 39.8041C69.6818 39.8352 69.7683 39.8538 69.8548 39.8787C70.034 39.9222 70.2071 39.9719 70.3863 40.0216C71.4121 40.3075 72.4626 40.6805 73.2288 41.4574C73.3401 41.5693 74.0754 42.4954 74.5265 43.0051C74.9096 43.4775 77.3691 45.8083 77.3691 45.8083C77.3691 45.8083 78.6297 44.4036 79.5442 43.4153C81.1756 41.6563 81.8121 40.954 82.3806 40.3697C82.8811 39.8538 83.7215 39.2385 84.6546 39.1328L83.9069 45.6405C83.9069 45.6405 80.8048 48.394 79.9026 49.1025C78.0426 50.557 77.4123 50.9672 76.4483 50.271C75.4102 49.519 74.7181 48.7296 73.7108 46.8463C72.889 45.311 72.685 44.9443 72.3946 44.4782C72.1474 44.0804 71.5357 44.099 71.2081 44.0866C70.6087 44.0617 69.997 43.9934 69.4161 43.8442C69.033 43.7447 68.6622 43.6018 68.3162 43.4091C68.174 43.3283 67.9392 43.2164 67.8465 43.0735C67.76 42.9367 67.7477 42.7689 67.6426 42.6384C67.5252 42.4892 67.346 42.4022 67.2409 42.2468C67.1606 42.1225 67.1421 41.9671 67.0988 41.8303C67.0308 41.6066 66.8578 41.5134 66.6601 41.4077C66.5674 41.358 66.4623 41.3145 66.4005 41.2274C66.3017 41.0845 66.3882 40.985 66.5056 40.9167V40.898Z" fill="#FFAAA8"/>
<path d="M77.375 45.8088L77.7149 45.4297C78.4008 46.1196 78.753 47.3068 78.444 48.2826C78.4564 47.8848 78.2587 46.7163 77.375 45.8088Z" fill="#FF9090"/>
<path d="M70.916 41.5117C71.2682 42.0152 71.9974 42.5062 72.3744 42.5994C72.3744 42.5994 71.8244 42.6865 71.4536 42.4005C71.0458 42.0835 70.9531 41.7479 70.9222 41.5117H70.916Z" fill="#FF9090"/>
<path d="M86.1964 38.7555C84.1819 38.6684 83.4219 39.0041 82.4949 39.9116C81.5618 40.819 79.0468 43.7776 79.0468 43.7776C79.0468 43.7776 78.88 43.5787 78.1199 44.5483C77.3475 45.5304 77.4587 45.7044 77.4587 45.7044C77.4587 45.7044 78.4536 45.8598 79.0777 46.8419C79.708 47.8239 79.9428 49.067 79.9428 49.067C79.9428 49.067 80.1715 49.0111 80.845 48.4517C81.5186 47.8923 86.1223 43.759 86.1223 43.759L86.1964 38.7492V38.7555Z" fill="#D268CC"/>
<path d="M86.1964 38.7555C84.1819 38.6684 83.4219 39.0041 82.4949 39.9116C81.5618 40.819 79.0468 43.7776 79.0468 43.7776C79.0468 43.7776 78.88 43.5787 78.1199 44.5483C77.3475 45.5304 77.4587 45.7044 77.4587 45.7044C77.4587 45.7044 78.4536 45.8598 79.0777 46.8419C79.708 47.8239 79.9428 49.067 79.9428 49.067C79.9428 49.067 80.1715 49.0111 80.845 48.4517C81.5186 47.8923 86.1223 43.759 86.1223 43.759L86.1964 38.7492V38.7555Z" fill="#026827"/>
<path opacity="0.1" d="M81.3942 46.3879C81.5116 46.7671 81.5301 47.1462 81.5239 47.5378C81.5239 47.5875 81.5734 47.5626 81.5795 47.5378C81.8453 46.8354 81.5548 46.0461 81.1532 45.4618C80.9369 45.1386 80.665 44.8527 80.3746 44.5978C80.2263 44.4673 80.0656 44.3492 79.9049 44.2373C79.7443 44.1317 79.5712 44.0011 79.3858 43.939C79.3426 43.9266 79.2808 43.9949 79.3179 44.0322C79.4476 44.1627 79.633 44.2436 79.7813 44.3554C79.9173 44.4549 80.0532 44.5668 80.1768 44.6786C80.4364 44.9148 80.6774 45.1634 80.8875 45.4494C81.1037 45.7353 81.2829 46.0523 81.388 46.3941L81.3942 46.3879ZM78.8173 44.89C78.9286 44.9956 79.0892 45.064 79.219 45.151C79.355 45.238 79.4847 45.3313 79.6145 45.4245C79.8678 45.6172 80.1027 45.8347 80.3066 46.0771C80.5167 46.3258 80.7021 46.6117 80.8257 46.9162C80.8936 47.084 80.9369 47.2581 80.9616 47.4383C80.9863 47.6062 80.9801 47.7988 81.0234 47.9604C81.0296 47.9853 81.0543 47.9604 81.0605 47.948C81.0914 47.774 81.0914 47.5751 81.079 47.401C81.0667 47.2208 81.0358 47.053 80.974 46.8852C80.8627 46.5806 80.6774 46.2947 80.4734 46.0398C80.2572 45.7726 79.9976 45.5302 79.7195 45.3251C79.5836 45.2256 79.4476 45.1324 79.2993 45.0454C79.1572 44.9646 79.0027 44.8589 78.8421 44.8278C78.8173 44.8278 78.7926 44.8713 78.8112 44.89H78.8173Z" fill="black"/>
<path d="M91.694 38.2383C92.485 38.3999 94.895 39.3757 95.8034 39.8854C95.8034 39.8854 96.86 42.1043 96.3224 47.2446C96.2359 48.065 96.0196 50.284 95.9208 51.9933C95.7848 54.3054 95.8837 54.9518 95.9455 56.1763C95.9455 56.1763 93.795 58.0658 88.1965 57.6432C83.8029 57.3075 82.4805 55.4926 82.4805 55.4926C82.4805 55.4926 82.499 49.5257 82.6164 46.2687C82.7647 41.9862 84.0562 39.5125 85.0079 38.7666L87.8937 38.2818L91.694 38.2383Z" fill="#F0F0F0"/>
<path d="M92.2077 38.2656L92.1953 38.5515C92.1953 38.5515 91.1386 41.0999 91.0521 46.1221C90.9656 51.1442 91.0521 59.3238 91.0521 59.3238C91.0521 59.3238 93.907 60.1256 96.8484 58.8639C96.8484 58.8639 96.626 55.0911 96.6754 53.0959C96.7249 51.1007 96.4962 48.1483 96.6754 45.2581C96.8546 42.3679 95.8968 39.8257 95.8968 39.8257L92.2077 38.2718V38.2656Z" fill="#00953B"/>
<path d="M87.8329 38.0977L85.0027 38.7689C85.0027 38.7689 83.3157 39.8318 82.7163 43.7724C82.1169 47.7131 81.8203 57.2601 81.8203 57.2601C82.2034 57.5025 83.2169 57.9003 83.6989 57.9687C83.6989 57.9687 83.8781 53.2635 84.1252 48.9375C84.4219 43.7103 84.7803 40.4223 87.7897 38.2903L87.8329 38.0977Z" fill="#00953B"/>
<path opacity="0.3" d="M92.9091 46.8794C92.4085 47.3704 91.9204 47.8739 91.4384 48.3836C91.9883 47.9112 92.526 47.4388 93.0574 46.954L93.1006 46.9167C92.8905 46.4878 92.6928 46.0527 92.4765 45.6239C92.4765 45.6239 92.0131 44.6977 91.9204 44.5113C92.3776 44.3435 92.8349 44.1632 93.2922 43.9892L93.3602 43.9643V43.8897C93.4158 42.3296 93.4529 40.7136 93.4343 39.1597C93.2984 40.6825 93.2119 42.2737 93.1439 43.8089C92.6248 44.0016 92.1119 44.1943 91.599 44.3932L91.6547 44.5051C92.0192 45.2074 92.526 46.1957 92.9029 46.8918L92.9091 46.8794ZM82.8304 45.3442L82.8489 45.3814C83.1332 46.0403 83.4298 46.6991 83.7388 47.3518C83.5101 46.6805 83.2691 46.0216 83.0158 45.3628C83.4113 44.791 83.7944 44.2191 84.1775 43.6411L84.2208 43.5789L84.1775 43.5168L83.6337 42.6839C83.7511 42.3358 83.8933 41.9878 84.0478 41.6521C84.5668 40.5893 85.2095 39.601 85.9201 38.6562C84.8387 39.831 83.8809 41.1798 83.368 42.715L83.3989 42.7647L83.9365 43.5852C83.5658 44.157 83.2012 44.735 82.8489 45.3131L82.8242 45.3504L82.8304 45.3442Z" fill="black"/>
<path d="M89.012 48.215C88.2087 47.7178 87.8132 47.5313 87.4486 47.4629C87.084 47.3946 85.811 46.9843 85.329 46.9098C85.0201 46.86 84.9459 47.3511 85.3537 47.6494C85.6689 47.8794 86.4599 48.1404 86.8121 48.2958C87.1643 48.4512 87.8935 49.1971 87.8935 49.1971L89.012 48.215Z" fill="#FF9090"/>
<path d="M98.033 41.4058C97.551 40.4734 96.8527 40.3429 95.9814 40.0508C93.4726 41.3623 95.3326 46.72 95.3326 46.72L96.4511 51.0336C96.4511 51.0336 92.7558 50.9217 92.2182 50.642C91.6805 50.3623 90.1851 49.0011 89.6846 48.5971C89.011 48.0502 88.7082 48.1558 88.3931 48.2366C87.3673 48.4853 87.151 48.5909 86.9409 48.7525C86.7308 48.9141 86.7741 49.1752 86.7741 49.1752C86.5022 49.2311 86.0881 49.2622 86.0758 49.7221C86.0696 50.0267 86.0881 50.0889 86.0881 50.0889C86.0881 50.0889 85.9893 50.1075 85.9151 50.207C85.7112 50.4929 86.1808 51.3879 86.4527 51.5868C86.6443 51.7298 86.8915 51.7298 87.219 51.6552C87.4971 51.593 87.3426 51.3195 87.3426 51.3195L87.7381 51.3071C88.6341 51.8354 88.7824 53.0288 89.9194 53.1904C90.1604 53.2277 90.6424 53.178 91.3036 53.3334C93.7816 53.9363 97.6561 55.3286 99.8127 55.3223C101.92 55.3223 101.382 52.9231 101.104 51.3879C100.9 50.2505 99.2256 43.7117 98.033 41.3933V41.4058Z" fill="#FFAAA8"/>
<path d="M86.772 49.1769L87.9831 48.8164L86.7843 49.0029C86.772 49.065 86.7658 49.121 86.772 49.1769Z" fill="#FF9090"/>
<path d="M86.0869 50.092L87.4896 49.7812L86.0684 49.9242C86.0684 49.9739 86.0684 50.0299 86.0869 50.092Z" fill="#FF9090"/>
<path d="M86.5545 50.8095C86.6163 50.8281 86.6843 50.8406 86.7461 50.8468C86.9005 50.8592 87.2466 50.8344 87.2466 50.8344C87.2466 50.8344 87.2651 50.9338 87.4443 51.0954C87.5432 51.1824 87.7409 51.3005 87.7409 51.3005L87.3455 51.313C87.3455 51.313 87.2404 51.1638 86.9253 51.1141C86.8635 51.1078 86.7955 51.1265 86.7399 51.1638C86.6843 51.2073 86.641 51.2632 86.6101 51.3316C86.6286 51.257 86.6595 51.1886 86.7152 51.1327C86.7522 51.0954 86.8017 51.0706 86.8573 51.0643L86.7584 50.8965C86.6843 50.8841 86.6101 50.8717 86.536 50.8406C86.4556 50.8095 86.3815 50.7598 86.332 50.6914C86.3938 50.7473 86.4742 50.7784 86.5483 50.8033L86.5545 50.8095Z" fill="#FF9090"/>
<path d="M95.8947 39.8203C97.6002 40.417 98.212 40.9018 98.8361 42.3998C99.6086 44.2644 100.498 48.2299 100.758 49.0007C101.413 49.9454 101.116 51.3626 101.116 51.3626C101.116 51.3626 98.867 49.6533 96.4509 51.0393C96.4509 51.0393 95.4498 47.4033 95.1655 46.7382C94.8813 46.0793 93.3117 41.2747 95.8947 39.8203Z" fill="#D268CC"/>
<path d="M95.8947 39.8203C97.6002 40.417 98.212 40.9018 98.8361 42.3998C99.6086 44.2644 100.498 48.2299 100.758 49.0007C101.413 49.9454 101.116 51.3626 101.116 51.3626C101.116 51.3626 98.867 49.6533 96.4509 51.0393C96.4509 51.0393 95.4498 47.4033 95.1655 46.7382C94.8813 46.0793 93.3117 41.2747 95.8947 39.8203Z" fill="#026827"/>
<path opacity="0.1" d="M96.5528 49.8887C96.8 49.7022 97.041 49.522 97.3252 49.3915C97.6157 49.2547 97.9247 49.1553 98.2398 49.0931C98.6106 49.0185 98.9937 49.0061 99.3768 49.0247C99.7476 49.0434 100.112 49.1242 100.471 49.1988C100.477 49.1988 100.471 49.1801 100.471 49.1801C99.7908 48.9191 99.0122 48.8445 98.3016 48.9688C97.6589 49.0807 96.9916 49.3604 96.5343 49.8452C96.5219 49.8576 96.5343 49.9074 96.5528 49.8887ZM96.6764 50.4605C96.6764 50.4605 96.6764 50.5103 96.6888 50.4978C96.8865 50.3797 97.0719 50.243 97.282 50.1311C97.4983 50.0192 97.7207 49.9322 97.9494 49.8639C98.4252 49.7333 98.901 49.7022 99.3892 49.7333C99.3954 49.7333 99.3892 49.7209 99.3892 49.7209C98.9257 49.6028 98.419 49.6277 97.9617 49.752C97.4983 49.8763 97.0039 50.1 96.6702 50.4543L96.6764 50.4605Z" fill="black"/>
<path d="M92.8185 29.157C92.8185 29.157 93.628 29.1632 94.0358 29.7661C94.4437 30.369 94.7218 31.4878 94.2954 32.7744C93.8257 34.1915 92.8494 35.5776 92.6393 35.9754C92.4292 36.3732 92.0028 36.4851 92.0028 36.4851L92.0461 34.7634L92.1079 33.5638C92.1079 33.5638 91.15 32.6874 91.0635 31.8234C90.9585 30.7171 91.3849 30.0893 91.3849 30.0893L92.8185 29.1445V29.157Z" fill="#2B454E"/>
<path d="M86.9804 31.1668C87.4438 30.9431 88.0309 30.8623 88.5314 30.8312C89.0072 30.8001 89.4892 30.769 89.965 30.738C90.4779 30.7069 90.9908 30.6696 91.4975 30.6385C91.4975 30.6385 93.1351 30.365 93.1351 29.1965C93.1351 28.6247 92.857 28.2393 92.7952 28.1585C92.5851 27.8664 92.2453 27.537 91.9486 27.3381C91.2318 26.8719 90.583 26.6357 89.7117 26.5736C89.0814 26.53 88.4511 26.6171 87.8331 26.7414C87.4129 26.8222 86.9866 26.9216 86.5664 26.847C86.2636 26.7973 85.9422 26.6171 85.8928 26.3125C85.5715 26.7103 85.5097 27.307 85.7568 27.7545C85.3428 27.7359 84.9597 28.0528 84.8485 28.4569C84.7311 28.9044 84.935 29.2649 85.1945 29.6005C85.1636 29.557 84.9968 29.8864 84.9844 29.9175C84.8917 30.1102 84.867 30.3277 84.9041 30.5391C84.9597 30.8374 85.2316 31.0549 85.5035 31.1855C85.9855 31.4217 86.4984 31.3906 86.9804 31.1606V31.1668Z" fill="#2B454E"/>
<path d="M93.6115 35.2762C92.7278 35.7113 92.32 35.0028 92.32 35.0028L92.184 38.5456C90.4847 40.8329 85.9428 40.0063 87.809 38.2908V37.4827C87.809 37.4827 87.5124 37.4827 87.0427 37.4082C86.258 37.2839 85.5411 36.5815 85.3063 35.73C84.9603 34.4682 85.053 32.5165 85.5226 30.366C85.6153 29.9495 85.7945 29.4958 86.1714 29.3093C87.1107 28.8432 87.982 29.5144 89.2921 30.0303C89.8359 30.2417 91.1521 30.3349 91.4981 30.1733C91.0408 30.683 91.047 32.2866 91.7206 32.9392C91.838 33.163 91.9616 33.2997 92.0605 33.3805C92.3447 33.6291 92.5795 32.9827 92.8205 32.7279C93.0615 32.4792 93.9699 32.2493 94.3592 33.0822C94.7547 33.9337 94.4272 34.866 93.6053 35.27L93.6115 35.2762Z" fill="#FFAAA8"/>
<path d="M87.8164 37.4888C88.8484 37.4888 89.7568 37.3521 90.3685 37.0973C90.9741 36.8424 91.5117 36.0158 91.6909 35.1953C91.6909 35.8542 91.4005 37.0227 90.4798 37.5075C89.559 37.9923 88.49 38.0172 87.8164 38.0358V37.4888Z" fill="#FF9090"/>
<path d="M89.2988 31.3595L90.1701 31.7262C90.269 31.4776 90.1516 31.1917 89.9106 31.086C89.6696 30.9865 89.3977 31.1046 89.2988 31.3533V31.3595Z" fill="#2B454E"/>
<path d="M86.0412 31.3329L86.9249 30.9786C86.8383 30.73 86.5665 30.6057 86.3255 30.6989C86.0783 30.7984 85.9547 31.0781 86.0412 31.3329Z" fill="#2B454E"/>
<path d="M89.825 32.4526C89.8188 32.664 89.6396 32.8318 89.4295 32.8256C89.2194 32.8194 89.0526 32.6391 89.0588 32.4278C89.0649 32.2165 89.2441 32.0486 89.4542 32.0549C89.6643 32.0611 89.8312 32.2413 89.825 32.4526Z" fill="#1A2E35"/>
<path d="M86.7254 32.2964C86.7192 32.5077 86.54 32.6755 86.3299 32.6693C86.1198 32.6631 85.953 32.4829 85.9592 32.2715C85.9653 32.0602 86.1445 31.8924 86.3546 31.8986C86.5956 31.9048 86.7316 32.054 86.7254 32.2964Z" fill="#1A2E35"/>
<path d="M88.1789 31.5938L87.8638 34.0551L86.5723 33.5765C87.0357 32.7063 87.5672 32.0475 88.1851 31.5938H88.1789Z" fill="#FF9090"/>
<path d="M89.0256 34.4883L87.4746 35.0042C87.6106 35.4517 88.0617 35.6941 88.4942 35.5574C88.9206 35.4144 89.1616 34.9358 89.0256 34.4945V34.4883Z" fill="#C76668"/>
<path d="M88.8597 34.7726C88.9277 34.7601 88.9895 34.7539 89.0575 34.7539C89.0575 35.1082 88.835 35.4438 88.489 35.5557C88.4025 35.5868 88.316 35.593 88.2294 35.593C88.1676 35.2263 88.4395 34.8658 88.8597 34.7726Z" fill="#FF9090"/>
<path d="M92.8257 38.5977C89.6186 41.0155 83.2475 45.7579 80.0898 56.0446L81.6471 56.6911C83.9582 47.3864 91.2314 41.5749 94.4385 39.1571L92.8257 38.5977Z" fill="#375A64"/>
</svg>
