<svg viewBox="0 0 113 83" fill="none" xmlns="http://www.w3.org/2000/svg">
<path d="M49.9042 28.9913L49.0658 28.1647L41.5669 30.7918L39.0334 31.9106L41.7997 34.7541L45.6191 45.1026L48.0411 52.7009V55.964L46.3178 59.4405L45.4794 60.5789L43.6163 62.0162L43.2843 65.1471L42.7313 67.5711L39.8901 70.0417L38.8574 70.974L39.9366 77.3603L50.9134 80.5487L55.5969 81.4072L63.2807 80.9798L68.6228 79.6332L72.0622 78.0952L73.9649 77.2163L74.4005 72.6713L74.9558 69.7372L75.2023 66.5558L73.9209 64.7555L71.6045 62.3633L70.6434 59.6504L71.6045 56.1977L72.3684 51.8819L73.1816 48.5032L73.3999 47.1185L72.8859 45.1783L73.083 43.7187L74.7776 43.1515L75.3008 41.479L75.153 40.2907L79.2682 39.4029L78.5692 33.8883L74.0578 29.2467L71.3777 27.5687L67.1642 26.7148L66.9955 28.0862L66.3842 30.1539L65.056 31.8629L64.1074 33.1499L62.716 34.0571L60.1651 34.8377L57.4667 34.5213L55.0213 34.0993L53.904 33.4663L52.4704 32.3903L51.1634 30.7868L49.9042 28.9913Z" fill="#00953B"/>
<path d="M3.72852 46.1665L5.71629 39.4611L8.79172 35.0319L11.0045 33.6055L17.793 31.8789C17.793 31.8789 22.7812 35.6325 27.3193 35.0694C26.9443 36.4958 26.3817 39.3109 26.3817 39.3109L25.5566 43.4023L23.3062 45.767L19.1807 49.1828L13.9674 51.8853H13.1048L13.4424 50.1587L13.6674 48.8825L13.9299 47.5312L3.72852 46.1665Z" fill="#00953B"/>
<path d="M6.39262 66.7121L13.4549 65.3556L18.4484 62.543L23.1566 58.0376L26.6521 53.6471L28.4355 50.671L29.4235 48.3687L30.2594 47.1478L32.7897 44.9999L33.9659 42.5993L34.4827 40.3895L35.4693 38.5977L36.722 39.1827L38.4966 41.0006L38.8573 42.0244V45.8482L38.768 51.6361L38.6655 55.7256L37.3433 59.4362L38.0206 66.7121L39.5189 78.3011V81.7172H34.6721H31.0639H26.3382H22.209L16.9098 81.0553L10.4636 80.2518L6.77023 79.4712L4.02037 78.461L3.55859 77.0146L5.39381 71.8489L6.21966 68.4969L6.39262 66.7121Z" fill="#00953B"/>
<path d="M83.825 41.4787H87.3914L90.6281 40.7018L94.0162 38.4822L97.129 35.4528L99.3194 33.9531L101.987 34.3131L103.425 36.1518L101.387 36.7938L100.278 37.5637L98.75 40.1019L98.108 43.7612V46.9706L98.8998 51.4397L99.5292 54.0942L100.368 57.6973L100.009 58.2783L97.3414 57.6973L93.6251 55.3689L91.1975 52.8794L88.74 48.7925L85.1436 44.691L83.7051 43.5869L83.825 41.4787Z" fill="#00953B"/>
<path d="M104.928 66.8578L106.121 69.5149L105.524 71.4403L103.658 74.1744L101.85 75.5993L99.31 77.2166L94.4618 79.2191L89.0364 80.6119L86.5111 81.0039H85.6504L86.5971 80.2444L86.8128 77.1075L86.7204 74.0713L86.6115 69.9272L86.5111 66.1859V61.6244V60.0703L87.963 61.4373L89.4296 63.7109L91.4431 65.5481L93.3003 66.8317L94.8599 67.495L96.8484 68.7827L97.3942 68.9803L98.2715 69.1729H99.4216L100.669 68.8803L103.243 67.4365L104.928 66.8578Z" fill="#00953B"/>
<path d="M76.7413 56.4087C76.7413 56.4087 80.2324 56.8381 83.2772 55.5664L83.8443 56.393C83.8443 56.393 81.1 57.9307 76.4746 57.2414L76.7413 56.4087Z" fill="#00953B"/>
<path d="M75.9732 58.8644C75.9732 58.8644 80.6074 59.3905 84.6493 57.832L85.4021 58.8451C85.4021 58.8451 81.7591 60.7296 75.6191 59.8848L75.9732 58.8644Z" fill="#00953B"/>
<path d="M75.5313 61.548C75.5313 61.548 81.6424 62.0741 86.9723 60.5156L87.965 61.5287C87.965 61.5287 83.1611 63.4132 75.0645 62.5684L75.5313 61.548Z" fill="#00953B"/>
<path d="M75.5313 64.2355C75.5313 64.2355 81.6424 64.7616 86.9723 63.2031L87.965 64.2162C87.965 64.2162 83.1611 66.1007 75.0645 65.2559L75.5313 64.2355Z" fill="#00953B"/>
<path d="M75.5041 66.7589C75.5041 66.7589 81.2592 67.2851 86.2786 65.7266L87.2135 66.7396C87.2135 66.7396 82.6894 68.6242 75.0645 67.7794L75.5041 66.7589Z" fill="#00953B"/>
<path d="M75.2429 68.8761C75.2429 68.8761 81.3105 69.4023 86.6026 67.8438L87.5882 68.8568C87.5882 68.8568 82.8184 70.7414 74.7793 69.8965L75.2429 68.8761Z" fill="#00953B"/>
<path d="M74.8679 71.4034C74.8679 71.4034 80.9355 71.9296 86.2276 70.3711L87.2132 71.3841C87.2132 71.3841 82.4434 73.2687 74.4043 72.4239L74.8679 71.4034Z" fill="#00953B"/>
<path d="M74.6709 73.673C74.6709 73.673 80.9983 74.1991 86.5169 72.6406L87.5447 73.6537C87.5447 73.6537 82.5707 75.5382 74.1875 74.6934L74.6709 73.673Z" fill="#00953B"/>
<path d="M73.9214 75.9464C73.9214 75.9464 80.5874 76.4726 86.4014 74.9141L87.4842 75.9271C87.4842 75.9271 82.244 77.8117 73.4121 76.9669L73.9214 75.9464Z" fill="#00953B"/>
<path d="M73.9213 78.212C73.9213 78.212 80.5873 78.7382 86.4013 77.1797L87.4841 78.1927C87.4841 78.1927 82.2439 80.0773 73.412 79.2325L73.9213 78.212Z" fill="#00953B"/>
<path d="M79.2695 80.8602C79.2695 80.8602 83.9287 81.0116 86.6973 79.4531L87.2129 80.4662C87.2129 80.4662 84.7176 82.3507 80.5119 81.5059L79.2695 80.8602Z" fill="#00953B"/>
<path d="M38.9842 82.4882C38.8459 82.4451 38.7095 82.3721 38.5691 82.3635C36.9106 82.2614 35.2525 82.1345 33.5922 82.0829C31.5759 82.0204 29.5572 81.9855 27.5405 82.0104C25.967 82.0299 24.3957 82.1821 22.8221 82.232C21.5336 82.2728 20.2648 82.0646 19.0007 81.8222C18.1553 81.6601 17.3033 81.5012 16.447 81.4349C14.7461 81.3032 13.0547 81.1205 11.3802 80.7919C9.85832 80.4932 8.32576 80.2391 6.81861 79.8786C5.87248 79.6524 4.9312 79.3384 4.04899 78.931C3.18517 78.5321 2.97638 78.1272 3.26245 76.9719C3.73146 75.0778 4.42338 73.2561 5.12988 71.4397C5.59701 70.2387 5.87813 68.9894 5.98771 67.7017C6.00542 67.4936 5.91706 67.4459 5.75617 67.3917C5.30006 67.2379 4.81329 67.1307 4.40315 66.8934C3.31762 66.2654 2.64771 65.2592 2.13308 64.1482C1.61277 63.025 1.36176 61.8295 1.18139 60.6067C0.955063 59.0723 0.847538 57.5371 0.913952 55.9895C0.959055 54.9386 1.18774 53.9201 1.46783 52.9089C1.96206 51.1245 2.4406 49.3357 2.91715 47.5465C3.36062 45.8815 3.78072 44.2102 4.23472 42.5481C4.50681 41.552 4.8238 40.5681 5.12131 39.579C5.4233 38.5749 5.95616 37.6943 6.57436 36.8593C7.43822 35.6925 8.36588 34.5879 9.60638 33.7957C10.5379 33.2009 11.5411 32.7604 12.6099 32.4853C13.6834 32.209 14.7655 31.9663 15.8426 31.7036C15.9632 31.6742 16.0755 31.6106 16.1886 31.4845C16.0378 31.4662 15.8875 31.4411 15.7362 31.4307C15.0692 31.3853 14.4012 31.3523 13.7348 31.2996C12.3837 31.1927 11.1987 30.6431 10.1179 29.865C8.99431 29.0562 8.06294 28.0623 7.39486 26.8359C7.0181 26.1443 6.87098 25.3939 6.88483 24.622C6.90578 23.4543 7.27737 22.4004 8.04926 21.5068C8.46111 21.0301 8.95036 20.6764 9.61639 20.767C10.3487 20.8667 10.4231 21.099 10.3616 21.6412C10.2912 22.262 10.1996 22.8849 10.1943 23.5075C10.1886 24.1799 10.4588 24.7637 10.9809 25.2151C11.5181 25.6795 12.1808 25.7416 12.8102 25.399C13.5986 24.9699 14.1563 24.3047 14.6998 23.616C15.4384 22.6801 15.7904 21.5784 16.1175 20.4577C16.7502 18.2902 17.5527 16.1933 18.7428 14.26C19.5463 12.9545 20.4091 11.6937 21.4282 10.5451C21.4728 10.4948 21.5065 10.4348 21.491 10.3251C21.4118 10.3987 21.3307 10.4703 21.2536 10.546C19.6416 12.1277 18.4558 14.0033 17.4709 16.0202C16.7542 17.4878 16.2974 19.0488 15.7846 20.5912C15.3439 21.9169 14.7863 23.1876 13.789 24.2076C13.4111 24.5939 12.9929 24.9218 12.4668 25.1039C11.657 25.3842 10.8611 24.9726 10.614 24.1437C10.3749 23.3417 10.5052 22.5525 10.6939 21.7761C10.8254 21.2355 11.0491 20.7168 11.2421 20.1922C11.2857 20.0736 11.3591 19.9588 11.443 19.8636C11.6812 19.5933 12.0022 19.6614 12.0991 20.0061C12.1423 20.1596 12.1394 20.326 12.1564 20.4867C12.1791 20.7009 12.1762 20.9213 12.228 21.1281C12.3438 21.5896 12.4664 21.7369 12.95 21.5905C13.371 21.463 13.801 21.3644 14.2191 21.2286C14.413 21.1656 14.5714 21.0556 14.5618 20.7875C14.5115 19.3876 14.9058 18.0853 15.4546 16.8171C16.226 15.0347 17.1913 13.3592 18.2257 11.7203C19.5036 9.69573 21.2923 8.24837 23.3672 7.11285C24.6181 6.42828 25.8975 5.79555 27.2993 5.52005C28.3306 5.31736 29.3942 5.17202 30.4411 5.1853C31.5662 5.19958 32.6903 5.41607 33.8116 5.56834C34.8283 5.70641 35.6546 6.25266 36.4348 6.87503C37.9615 8.09273 38.9618 9.68391 39.6375 11.4893C40.0409 12.5671 40.4199 13.6561 40.7527 14.7574C40.9066 15.2666 40.9747 15.8155 40.9922 16.3493C41.0263 17.3962 40.997 18.4452 40.9953 19.4934C40.9936 20.5422 40.5915 21.471 40.0989 22.3607C39.1299 24.1111 38.1793 25.8744 37.1332 27.5783C36.5961 28.4531 35.8698 29.2118 35.2284 30.0223C35.182 30.0809 35.1265 30.1323 35.0824 30.1922C35.066 30.2146 35.0701 30.2521 35.0587 30.319C36.1327 30.5248 36.9845 31.1825 37.8953 31.7208C38.1849 31.8919 38.4293 31.794 38.6826 31.6657C39.5652 31.2189 40.431 30.7349 41.3331 30.3321C42.3034 29.8988 43.296 29.5084 44.2995 29.1586C45.6597 28.6844 47.0368 28.2582 48.412 27.8286C49.0175 27.6394 49.6412 27.5087 50.2477 27.3224C50.9638 27.1024 51.5738 26.7103 51.8452 25.9802C51.9732 25.6361 52.0073 25.2399 52.0056 24.8677C51.9982 23.2799 51.9688 21.6938 51.6713 20.1232C51.531 19.3821 51.4822 18.6239 51.3688 17.8771C51.3516 17.7636 51.2276 17.6115 51.12 17.5753C50.3518 17.3168 49.9354 16.7821 49.9384 15.9879C49.9406 15.4009 50.0202 14.8075 50.135 14.2308C50.1807 14.0013 50.4173 13.8114 50.5604 13.5991C50.6228 13.5066 50.7108 13.405 50.7158 13.304C50.7734 12.15 50.8086 10.9949 50.869 9.84115C50.8916 9.41016 50.8401 9.01439 50.6313 8.62587C50.3878 8.1728 50.5471 7.57754 51.0348 7.10766C51.349 6.80485 51.6809 6.5019 52.1739 6.51801C52.2455 6.52035 52.3259 6.44984 52.3915 6.39907C52.5361 6.28702 52.6651 6.15285 52.8164 6.05166C53.0804 5.87512 53.3421 5.75502 53.2637 5.31956C53.2057 4.99782 53.7094 4.60648 54.1776 4.53676C54.623 4.47042 55.0746 4.44552 55.5233 4.40018C55.5929 4.39314 55.6613 4.37418 55.7915 4.34876C55.6953 4.241 55.6459 4.15812 55.5736 4.10889C54.8159 3.59303 54.6442 2.90823 54.979 2.07526C55.1893 1.55209 55.4335 1.04912 55.8866 0.685231C56.2797 0.369454 56.4154 0.378873 56.678 0.805621C57.0954 1.48416 57.5936 2.10011 58.3742 2.32217C59.0509 2.51467 59.7672 2.57402 60.4693 2.6672C60.7335 2.70225 60.7714 2.4913 60.7168 2.29475C60.6746 2.14252 60.5407 2.01202 60.5139 1.86014C60.4773 1.65258 60.4422 1.40771 60.5191 1.22679C60.6093 1.01461 60.8544 1.0493 61.0662 1.1063C61.5236 1.2294 61.9813 1.35458 62.4445 1.45144C62.6392 1.49215 62.8511 1.48519 63.0504 1.46104C63.3709 1.42222 63.4842 1.47138 63.4551 1.77601C63.4081 2.26881 63.6594 2.5806 63.9856 2.89028C65.0307 3.88245 66.227 4.62605 67.5699 5.14064C67.7198 5.19805 67.8605 5.28052 68.0027 5.3565C68.2505 5.48892 68.4042 5.68681 68.3847 5.97936C68.3622 6.31589 68.5175 6.51993 68.8166 6.65445C69.9726 7.17448 70.3049 8.10375 70.0939 9.28785C69.9183 10.2736 69.7917 11.2737 69.5304 12.2368C69.3043 13.07 69.0791 13.9263 68.5532 14.6476C68.4314 14.8146 68.4311 14.9713 68.5336 15.1566C69.2045 16.3688 68.7105 18.665 66.9433 19.267C66.6817 19.3561 66.4014 19.4049 66.1257 19.4334C65.9032 19.4564 65.8137 19.5498 65.7642 19.7633C65.5378 20.7386 65.2725 21.7053 65.064 22.6842C64.9003 23.453 64.7974 24.2348 64.6715 25.0114C64.6367 25.2262 64.7882 25.2911 64.956 25.3334C65.7493 25.5334 66.546 25.721 67.3352 25.9359C68.1135 26.1478 68.8832 26.3915 69.659 26.6131C70.3001 26.7962 70.9419 26.9784 71.5884 27.1416C72.6173 27.4013 73.4814 27.9612 74.2683 28.6384C75.4128 29.6233 76.5219 30.6493 77.6576 31.6446C79.0932 32.9026 79.6824 34.5209 79.7246 36.3851C79.7434 37.2165 79.7823 38.0475 79.8036 38.8788C79.8103 39.1421 79.9066 39.2445 80.1825 39.2052C80.7051 39.1309 81.2348 39.1027 81.7538 39.0116C81.8958 38.9867 82.108 38.8178 82.1221 38.6957C82.2178 37.869 82.6713 37.2633 83.2417 36.7124C83.9922 35.9874 84.8617 35.4297 85.764 34.9224C86.0349 34.7701 86.1627 34.6033 86.1009 34.2855C86.0351 33.9471 85.9994 33.6024 85.9598 33.2594C85.9391 33.0802 85.8629 33.0194 85.68 33.0523C85.4576 33.0924 85.2309 33.1151 85.0051 33.1277C84.0916 33.1789 83.3663 32.6848 83.0662 31.828C82.8423 31.1889 82.6996 30.5331 82.7716 29.8585C82.8448 29.1732 82.6102 28.5677 82.4051 27.9412C82.1474 27.154 81.9091 26.3584 81.7107 25.5544C81.5042 24.7178 81.3437 23.8691 81.1837 23.0217C80.8255 21.125 80.6989 19.2216 81.2618 17.3445C81.6451 16.0662 82.2767 14.9236 83.3722 14.0925C83.4758 14.0139 83.5642 13.8816 83.6032 13.7566C83.9781 12.5559 84.6717 11.5565 85.5364 10.6656C85.6857 10.5117 85.7709 10.4007 85.631 10.1749C84.6672 8.61922 85.0685 6.68762 86.5552 5.61482C87.3167 5.06533 88.1496 4.81284 89.0819 4.99495C89.3411 5.04559 89.5857 5.17128 89.8369 5.26253C89.8295 5.30105 89.822 5.33957 89.8146 5.3781C89.4637 5.44989 89.1115 5.51584 88.7623 5.5946C87.8273 5.80544 87.0324 6.23158 86.4967 7.06489C86.104 7.67563 86.0522 8.88943 86.5645 9.40945C86.6505 9.4967 86.8451 9.5671 86.9404 9.52737C87.023 9.49293 87.1058 9.26516 87.0692 9.16752C86.6652 8.0876 87.1085 7.25994 87.8707 6.56773C88.5214 5.97678 89.3071 5.64378 90.2011 5.55786C90.5233 5.52689 90.8413 5.37984 91.146 5.25008C92.2009 4.80088 93.262 4.73358 94.3609 5.09186C95.1686 5.35517 95.9976 5.55216 96.8091 5.80442C97.9328 6.15372 98.8967 6.79392 99.7199 7.61209C101.453 9.33432 103.015 11.2001 104.216 13.3434C104.977 14.7024 105.352 16.1817 105.463 17.7225C105.518 18.4923 105.159 19.1877 104.914 19.9004C104.808 20.2073 104.731 20.5476 104.745 20.8681C104.886 24.1012 103.645 26.7011 101.169 28.7327C100.235 29.4992 99.1086 29.774 97.9314 29.8809C97.8272 29.8903 97.7233 29.903 97.5532 29.9213C97.6915 30.3003 97.7988 30.6452 97.9416 30.9748C98.2147 31.6052 98.5103 32.2259 98.7917 32.8528C98.8746 33.0373 98.9996 33.1059 99.2017 33.075C100.657 32.852 101.776 33.4411 102.711 34.5101C103.406 35.3054 104.16 36.0511 104.828 36.8682C105.786 38.0414 106.469 39.3683 106.773 40.8671C107.21 43.0164 108.083 44.9806 109.244 46.83C110.165 48.2985 110.691 49.9001 110.825 51.6338C110.843 51.8628 110.933 52.1449 111.091 52.2939C111.693 52.8606 111.988 53.5826 112.183 54.346C112.419 55.2666 112.547 56.2035 112.537 57.1645C112.517 58.9397 111.962 60.5268 110.846 61.8786C109.401 63.628 107.805 65.2353 105.948 66.559C105.516 66.8671 105.509 66.8532 105.742 67.347C105.977 67.8429 106.211 68.3391 106.434 68.8399C106.882 69.8433 106.749 70.7992 106.155 71.6967C104.903 73.5867 103.519 75.3671 101.587 76.6105C100.934 77.0301 100.181 77.2973 99.4617 77.6057C98.4157 78.0541 97.3438 78.4445 96.3096 78.9179C94.7239 79.6437 93.1454 80.3932 91.4374 80.7776C90.2732 81.0397 89.0898 81.2407 87.9045 81.3785C86.3412 81.5602 84.7689 81.7372 83.198 81.7616C81.4965 81.788 79.7845 81.7125 78.0918 81.5384C76.7925 81.4047 75.497 81.1011 74.3481 80.4086C73.555 79.9305 72.9581 79.3099 73.0215 78.2853C73.024 78.2456 73.001 78.2044 72.974 78.1064C72.4961 78.3331 72.0354 78.5503 71.5759 78.7698C69.9743 79.5348 68.375 80.3232 66.6536 80.7716C65.469 81.0803 64.246 81.2487 63.0346 81.4463C60.2286 81.9038 57.4114 81.494 54.5995 81.515C54.0588 81.519 53.5191 81.3259 52.9749 81.2539C52.1952 81.1508 51.4034 81.1205 50.6319 80.9773C49.5533 80.7771 48.4799 80.534 47.4201 80.2502C45.9355 79.8525 44.4682 79.3906 42.9881 78.9755C42.1391 78.7374 41.2778 78.5432 40.4251 78.3174C40.1335 78.2402 40.0482 78.3442 40.0822 78.6205C40.1205 78.9312 40.1644 79.2425 40.1764 79.5546C40.1966 80.0811 40.2108 80.609 40.1954 81.1354C40.1821 81.587 40.1239 82.0373 40.0856 82.4882H38.9842ZM47.4239 47.9089C47.4598 47.9028 47.4957 47.8968 47.5316 47.8907C47.5189 47.7065 47.5125 47.5215 47.4925 47.3381C47.3669 46.1899 47.2303 45.0429 47.1158 43.8936C47.0828 43.5622 47.0882 43.2223 47.1221 42.891C47.1356 42.7593 47.2739 42.6404 47.3555 42.5156C47.4692 42.6235 47.6544 42.7141 47.6852 42.842C47.8993 43.7316 48.1279 44.6219 48.263 45.5253C48.4752 46.9443 48.6199 48.3735 48.7888 49.799C49.0095 51.6612 49.0772 53.5229 48.7664 55.3837C48.591 56.4339 48.2631 57.4284 47.7423 58.3607C46.9545 59.7711 45.7544 60.8063 44.506 61.7565C43.9662 62.1673 43.7639 62.58 43.7748 63.1901C43.7777 63.3519 43.7763 63.5152 43.759 63.6758C43.6606 64.5859 43.5889 65.5005 43.4469 66.4039C43.2645 67.5644 42.6888 68.5429 41.8003 69.2921C41.1465 69.8434 40.4174 70.3096 39.6973 70.7759C39.4255 70.9519 39.3367 71.1078 39.4224 71.4235C39.5237 71.7963 39.5728 72.1846 39.6281 72.5685C39.8173 73.8812 40.0098 75.1936 40.1756 76.5093C40.2109 76.7892 40.3268 76.9005 40.5814 76.9501C41.057 77.0427 41.5367 77.1268 42.0008 77.2623C43.0636 77.5725 44.1208 77.9029 45.1752 78.2412C46.1984 78.5695 47.2084 78.9402 48.2369 79.2504C49.0802 79.5048 49.9417 79.6987 50.7956 79.9175C51.5347 80.107 52.2921 80.2431 53.0096 80.494C54.0335 80.8521 55.0625 81.0497 56.1475 80.9527C57.2648 80.8529 58.3833 80.7645 59.5025 80.6879C60.4059 80.626 61.3133 80.6142 62.2148 80.5334C63.0296 80.4604 63.8459 80.3606 64.6488 80.2061C65.6201 80.0192 66.6184 79.8671 67.5332 79.5137C69.3959 78.7942 71.2099 77.9486 73.0453 77.1582C73.3118 77.0435 73.43 76.8771 73.4143 76.5652C73.3462 75.2157 73.5972 73.902 73.8899 72.5926C74.0827 71.7305 74.2945 70.8676 74.4052 69.9933C74.5448 68.8916 74.5697 67.7758 74.6864 66.6705C74.7307 66.2517 74.578 66.0011 74.2909 65.7272C73.3395 64.8194 72.3754 63.9188 71.4938 62.9449C70.1222 61.4298 69.9531 59.6521 70.6934 57.813C71.3297 56.2323 71.616 54.5932 71.8356 52.9223C71.9504 52.0493 72.1653 51.1875 72.369 50.3288C72.5653 49.5014 72.8187 48.6875 73.0172 47.8606C73.0673 47.6517 73.0289 47.4108 72.9879 47.1927C72.7991 46.1885 72.5875 45.1886 72.3992 44.1844C72.2862 43.5815 72.7744 43.3647 73.1712 43.4128C73.4857 43.4508 73.7065 43.3876 73.9157 43.1727C73.989 43.0974 74.085 43.0257 74.1836 42.9969C74.7195 42.8406 74.7896 42.4715 74.6709 41.9974C74.6317 41.841 74.5996 41.6765 74.6041 41.5168C74.6136 41.1744 74.6429 40.8321 74.6759 40.4908C74.7036 40.2043 74.9055 40.0479 75.1533 39.9781C75.6191 39.8468 76.09 39.7279 76.5649 39.6354C77.2522 39.5014 77.9447 39.3939 78.6356 39.2783C78.8718 39.2387 78.9424 39.1622 78.8759 38.8867C78.7166 38.228 78.6143 37.5549 78.5034 36.8853C78.3749 36.1093 78.3124 35.3186 78.129 34.5565C77.9031 33.6182 77.305 32.8739 76.6174 32.2264C75.5349 31.2071 74.4311 30.2093 73.3097 29.2332C72.6156 28.6291 71.8332 28.1401 70.9313 27.9072C69.9733 27.6599 69.0038 27.4572 68.0379 27.2411C67.6775 27.1604 67.629 27.2015 67.6013 27.5818C67.4727 29.3438 66.7855 30.8764 65.643 32.1986C63.9705 34.134 61.8198 35.1172 59.2831 35.2784C57.868 35.3683 56.5236 35.0865 55.2263 34.5158C53.9592 33.9583 52.8443 33.1781 51.8278 32.2549C50.8409 31.3586 49.9854 30.3464 49.3595 29.1601C49.0151 28.5074 49.0205 28.4711 48.3228 28.6924C47.053 29.0953 45.7845 29.5071 44.5353 29.9688C43.3167 30.4193 42.1189 30.9271 40.9204 31.4301C40.4934 31.6093 40.0915 31.8483 39.6063 32.0968C39.9123 32.3262 40.1259 32.5057 40.3581 32.6566C40.9411 33.0355 41.5216 33.4346 41.8863 34.0315C42.3553 34.7991 42.8219 35.5823 43.1624 36.4112C43.8072 37.981 44.3699 39.5851 44.9503 41.1809C45.3069 42.1615 45.6193 43.1583 45.9772 44.1385C46.2907 44.9972 46.6421 45.8419 46.9723 46.6944C47.1283 47.0971 47.2737 47.5039 47.4239 47.9089ZM35.667 39.0621C35.4872 39.5275 35.4267 40.0226 35.1517 40.3168C34.7405 40.7567 34.6531 41.2086 34.7107 41.7515C34.7254 41.89 34.7095 42.0322 34.7037 42.1725C34.6685 43.0312 34.4668 43.8306 33.919 44.5222C33.2559 45.3592 32.4763 46.0613 31.5791 46.6372C31.2445 46.852 30.9075 47.0658 30.5915 47.3064C29.9111 47.8245 29.7165 48.6171 29.4831 49.3763C29.0539 50.7721 28.4835 52.1004 27.702 53.3372C26.322 55.5214 24.7374 57.5466 23.0043 59.4597C20.7701 61.9259 18.2912 64.074 15.1862 65.3756C14.2089 65.7852 13.1907 66.115 12.1667 66.3895C11.3481 66.6089 10.4906 66.6804 9.65332 66.8335C8.86936 66.9767 8.09127 67.1526 7.30663 67.2917C6.80889 67.3799 6.76135 67.379 6.73304 67.8924C6.62322 69.8838 5.95684 71.7222 5.23999 73.5534C4.76997 74.7541 4.27517 75.9501 4.06003 77.2354C3.96355 77.8118 4.01759 78.0216 4.55656 78.2292C5.54837 78.6113 6.54553 78.9988 7.57065 79.2696C8.66089 79.5575 9.78087 79.7472 10.8973 79.9179C12.6664 80.1882 14.4371 80.485 16.2186 80.6253C17.9454 80.7614 19.6322 81.1005 21.3375 81.3468C22.1163 81.4593 22.9261 81.3777 23.7208 81.3521C24.2674 81.3345 24.8121 81.223 25.3578 81.2221C26.3827 81.2203 27.4076 81.2912 28.4325 81.2907C30.8276 81.2894 33.2226 81.261 35.6177 81.2494C36.5134 81.2451 37.4095 81.2757 38.3047 81.2552C39.0234 81.2387 39.07 81.1641 39.0196 80.4684C39.0103 80.3395 38.9848 80.2118 38.971 80.083C38.8384 78.8497 38.6992 77.6171 38.5775 76.3828C38.4917 75.5129 38.4694 74.6351 38.3486 73.7707C38.1604 72.4251 37.8789 71.0925 37.6977 69.7462C37.4114 67.618 37.2097 65.4781 36.9045 63.3529C36.7364 62.1824 36.4383 61.03 36.1824 59.873C36.073 59.3782 35.9071 58.9135 36.296 58.4392C37.0708 57.4943 37.5796 56.3977 37.9067 55.2292C38.1059 54.5175 38.3017 53.7804 38.3261 53.0489C38.3796 51.4426 38.3219 49.8327 38.3132 48.2242C38.3121 48.0087 38.3305 47.793 38.3419 47.5775C38.4342 45.8305 38.5248 44.0835 38.6211 42.3368C38.6467 41.873 38.4867 41.482 38.1547 41.1759C37.5844 40.65 37.0003 40.1389 36.4128 39.6322C36.1714 39.424 35.9062 39.2436 35.667 39.0621ZM13.7468 51.4182C13.8795 51.359 13.9916 51.3203 14.0926 51.2623C15.8995 50.2235 17.7024 49.1777 19.5119 48.1435C20.5615 47.5436 21.5644 46.8899 22.412 46.01C23.0462 45.3515 23.7065 44.7149 24.3926 44.1111C24.7086 43.8331 24.9327 43.5328 25.0358 43.1353C25.0926 42.9162 25.1394 42.6943 25.185 42.4725C25.5454 40.72 25.8887 38.9638 26.2692 37.2157C26.5497 35.9269 27.0012 34.6913 27.6703 33.5523C28.2214 32.6143 28.7901 31.6723 29.8743 31.2314C29.8847 31.2271 29.8829 31.1928 29.8782 31.2172C29.4464 30.9494 28.9937 30.7339 28.6194 30.4237C27.6956 29.6583 27.1406 28.6094 26.5763 27.5784C25.6415 25.8704 24.7358 24.1476 23.9978 22.3417C23.9216 22.1552 23.7776 21.9964 23.665 21.8248C23.6242 21.8329 23.5834 21.841 23.5426 21.8491C23.51 22.006 23.457 22.162 23.4502 22.32C23.4429 22.4909 23.488 22.6633 23.4942 22.8357C23.5788 25.1646 23.0336 27.3471 21.9406 29.3945C21.6826 29.8776 21.3961 30.3522 21.0686 30.7902C20.1658 31.9979 18.8335 32.32 17.4357 32.4916C16.5473 32.6007 15.6488 32.6669 14.7754 32.8506C13.1319 33.1963 11.5907 33.8217 10.1863 34.7603C8.58975 35.8274 7.42174 37.2613 6.70067 39.0275C6.21782 40.2101 5.87057 41.4476 5.43941 42.6522C4.70717 44.698 4.28478 46.823 3.78242 48.9291C3.503 50.1005 3.14331 51.2538 2.79156 52.4066C2.50175 53.3565 2.16384 54.2977 2.14118 55.3001C2.10485 56.908 2.03767 58.5162 2.25814 60.1215C2.46158 61.6028 2.84807 63.018 3.66691 64.2787C4.48165 65.533 5.54134 66.1503 7.01509 65.8852C8.05328 65.6985 9.10655 65.5875 10.1568 65.4784C11.3433 65.3551 12.4918 65.0832 13.6019 64.6585C15.4615 63.947 17.1028 62.867 18.6237 61.5976C20.776 59.8012 22.673 57.7531 24.4567 55.5979C25.6879 54.1103 26.8168 52.5505 27.7144 50.8317C28.2074 49.8875 28.6412 48.8958 29.2564 48.0364C29.9294 47.0962 30.7501 46.2538 31.562 45.423C32.7388 44.2189 33.5489 42.8831 33.4649 41.1253C33.4558 40.9354 33.5784 40.7073 33.706 40.5509C33.8585 40.3638 34.0683 40.2117 34.2778 40.0852C34.7365 39.808 34.7974 39.3645 34.8639 38.7888C34.4356 38.9023 34.0665 38.9875 33.7059 39.1C33.4508 39.1796 33.2139 39.3262 32.9557 39.3843C32.8213 39.4145 32.5757 39.3598 32.5291 39.2679C32.4698 39.1508 32.5184 38.9303 32.5984 38.8037C32.6974 38.6469 32.8562 38.4958 33.0243 38.4206C33.6194 38.154 34.2271 37.9149 34.8348 37.6774C35.1676 37.5474 35.3483 37.3022 35.3608 36.91C35.3722 36.5527 35.1801 36.245 34.8521 36.1284C34.0389 35.8393 33.2616 35.9715 32.5154 36.3585C32.172 36.5366 31.8383 36.7343 31.5042 36.9299C31.3521 37.0189 31.1734 37.1536 31.0574 36.9549C30.9913 36.8416 31.0068 36.5865 31.0922 36.4956C31.3901 36.1784 31.7089 35.8669 32.0673 35.6235C32.6333 35.239 33.245 34.9457 33.9723 35.0585C34.0746 35.0744 34.2157 35.0286 34.2965 34.9608C34.601 34.7051 34.8026 34.3537 34.7185 33.9689C34.6182 33.5095 34.3696 33.0882 33.8654 32.9549C32.9658 32.7171 32.0933 32.8791 31.2356 33.1885C30.5243 33.4452 29.9283 33.8839 29.3442 34.3469C29.2045 34.4577 29.0414 34.5387 28.8891 34.6334C28.8615 34.5972 28.8339 34.5609 28.8063 34.5246C29.12 33.8075 29.7549 33.382 30.3453 32.9167C30.964 32.4293 31.7012 32.2049 32.472 32.0266C32.3086 31.6732 32.1284 31.4984 31.7503 31.5754C30.7556 31.778 29.8986 32.2284 29.2351 32.9915C28.1114 34.2837 27.4632 35.8052 27.1834 37.4881C27.0595 38.2334 26.9567 38.9823 26.8237 39.7259C26.6074 40.9355 26.366 42.1407 26.1548 43.3512C26.1099 43.6083 26.005 43.7735 25.7928 43.9209C25.4511 44.1584 25.1114 44.4096 24.8169 44.7016C24.5121 45.0038 24.264 45.3629 23.9879 45.6945C22.9068 46.9928 21.7471 48.2155 20.2792 49.0776C18.8535 49.9149 17.4152 50.7394 15.9329 51.4688C14.6633 52.0935 13.3298 52.5912 12.013 53.1159C10.9065 53.5568 9.73452 53.8591 8.67802 54.394C6.75933 55.3653 5.30282 56.773 5.00593 59.0612C4.99468 59.1479 4.86853 59.2825 4.79658 59.2821C4.7121 59.2816 4.61686 59.1671 4.54909 59.0835C4.51511 59.0416 4.52749 58.9587 4.52607 58.8941C4.49276 57.3834 5.00935 56.0799 6.04846 54.9962C7.16788 53.8287 8.58661 53.1646 10.1079 52.7086C10.8493 52.4863 11.6122 52.3364 12.3611 52.1377C12.4819 52.1057 12.6267 52.0133 12.6805 51.908C12.8314 51.6125 12.9891 51.3059 13.057 50.9853C13.2465 50.0905 13.3988 49.1875 13.5533 48.2856C13.8189 46.736 13.6783 45.2105 13.2621 43.7028C13.1676 43.3608 13.0882 43.0147 13.0018 42.6704L13.1056 42.6146C13.2008 42.7033 13.3361 42.7743 13.3842 42.8837C13.6071 43.3915 13.8497 43.897 14.0046 44.427C14.4148 45.8305 14.3826 47.2681 14.2029 48.7002C14.0906 49.595 13.9067 50.4807 13.7468 51.4182ZM85.6089 14.0363C85.5971 13.9987 85.5852 13.9612 85.5733 13.9236C85.3726 13.9623 85.1467 13.9544 84.9753 14.0473C84.034 14.5576 83.3368 15.3336 82.7651 16.2191C81.9103 17.5431 81.75 19.0332 81.7814 20.5654C81.8229 22.5934 82.1417 24.5823 82.6156 26.5483C82.8068 27.3414 83.1299 28.0831 83.6742 28.7023C83.799 28.8442 84.0029 28.9817 84.1815 28.9979C84.6059 29.0363 85.037 28.9958 85.4652 28.999C85.5633 28.9997 85.661 29.0479 85.7589 29.0742C85.708 29.1715 85.6692 29.2786 85.6018 29.3627C85.5589 29.4162 85.4768 29.4553 85.4066 29.4671C84.9099 29.5508 84.4129 29.6356 83.9134 29.6981C83.7322 29.7208 83.621 29.7611 83.6494 29.9667C83.7128 30.4252 83.7435 30.8913 83.8474 31.3403C83.9624 31.8376 84.3243 32.1206 84.7746 32.1569C85.307 32.1999 85.7472 31.9433 85.9881 31.487C86.0967 31.2811 86.2606 31.105 86.3944 30.9118C86.711 30.4545 87.0828 30.0235 87.3241 29.5291C87.6097 28.944 87.7902 28.3063 88.0012 27.6863C88.4549 26.3528 88.9477 25.03 89.3336 23.6769C89.7392 22.255 89.5606 20.8481 88.9007 19.5236C88.551 18.8218 88.1378 18.1519 87.7639 17.4618C87.6624 17.2743 87.4546 17.0372 87.6984 16.8594C87.9262 16.6933 88.1191 16.9175 88.2736 17.0814C89.5276 18.4118 90.19 20.0151 90.3278 21.817C90.4367 23.2422 90.0422 24.595 89.516 25.9072C89.1801 26.745 88.813 27.5708 88.4988 28.4164C88.2741 29.021 88.1342 29.6568 87.9193 30.2654C87.6981 30.8916 87.3503 31.4498 86.6814 31.6669C86.3639 31.77 86.3764 31.9288 86.4373 32.1686C86.583 32.742 86.7229 33.317 86.8668 33.8909C87.0196 34.5001 87.2684 35.0452 87.8069 35.4242C88.4317 35.864 89.1155 36.1225 89.8791 36.1441C91.537 36.191 93.1185 35.9544 94.5186 34.958C95.1827 34.4853 95.8793 34.0541 96.5859 33.6472C96.9325 33.4476 97.3356 33.3462 97.7233 33.1965C97.7025 33.1232 97.6905 33.0722 97.6737 33.0227C97.4447 32.3512 97.1901 31.6871 96.9942 31.0061C96.862 30.5464 96.6409 30.1968 96.2226 29.9555C96.0305 29.8446 95.8588 29.6822 95.7107 29.5142C95.3032 29.0517 95.3608 28.8457 95.8897 28.5457C96.5049 28.1966 97.1195 27.8405 97.7003 27.4382C98.0869 27.1704 98.4008 26.7993 98.7753 26.5109C98.8931 26.4202 99.1573 26.3707 99.2551 26.4409C99.3791 26.5299 99.4462 26.7586 99.4533 26.9304C99.4585 27.059 99.3463 27.2053 99.2582 27.3225C98.8319 27.8893 98.3022 28.3414 97.6982 28.7116C97.5492 28.803 97.4223 28.9306 97.2852 29.0416C98.3568 28.9906 99.3447 28.743 100.243 28.2235C101.321 27.6004 102.253 26.819 102.832 25.6811C103.448 24.4711 103.609 23.1604 103.704 21.8319C103.749 21.1859 103.809 20.5402 103.886 19.8973C103.907 19.7244 104.013 19.5602 104.087 19.3956C104.21 19.1233 104.4 18.8657 104.456 18.5811C104.662 17.5256 104.488 16.4968 104.122 15.4995C103.473 13.7349 102.519 12.1482 101.353 10.6754C99.7453 8.64457 97.8448 7.03003 95.3143 6.28376C93.8999 5.86664 92.4691 5.56678 90.9866 5.91022C90.216 6.08874 89.467 6.32803 88.8324 6.82082C88.2269 7.29098 87.7764 7.86355 87.729 8.67372C87.7161 8.89522 87.7757 8.99027 88.0236 8.94985C88.4287 8.8838 88.7441 8.70206 88.9893 8.3688C89.2524 8.01118 89.5738 7.71224 90.008 7.54239C89.8362 7.88357 89.6644 8.22475 89.4806 8.58961C89.5854 8.61436 89.655 8.63466 89.726 8.64688C90.1295 8.71638 90.5443 8.74591 90.9349 8.85936C92.0719 9.18966 92.8254 9.99865 93.3753 10.9939C94.0587 12.2311 94.5622 13.5477 94.9437 14.9105C95.3485 16.3568 95.3372 17.7874 94.8043 19.2008C94.6565 19.5929 94.4863 19.9765 94.3398 20.3691C94.3011 20.4729 94.3124 20.5955 94.3008 20.7094C94.411 20.7079 94.5441 20.7458 94.6272 20.6975C94.9116 20.5323 95.2068 20.3671 95.4441 20.1445C95.7009 19.9036 95.8894 19.5912 96.1243 19.3247C96.2212 19.2146 96.3613 19.1427 96.4891 19.048C96.5411 19.1296 96.5697 19.1545 96.5731 19.1825C96.7192 20.3883 96.8008 21.6034 96.5254 22.7927C96.2274 24.0796 95.5948 25.2227 94.7606 26.2456C94.3009 26.8092 93.7392 27.2389 93.0017 27.3705C92.8823 27.3919 92.7475 27.3265 92.6197 27.3012C92.648 27.1709 92.6416 27.0163 92.7121 26.9157C92.8406 26.7326 93.003 26.5682 93.1717 26.4193C94.3305 25.397 95.1551 24.1543 95.6036 22.6763C95.7474 22.2023 95.8036 21.7017 95.8999 21.2133C95.865 21.1963 95.83 21.1793 95.795 21.1624C95.6963 21.2165 95.5957 21.2674 95.4993 21.3253C95.022 21.6121 94.5153 21.8191 93.9532 21.8384C93.3859 21.8578 93.1707 21.579 93.3454 21.0408C93.5743 20.3357 93.8438 19.6437 94.0667 18.9369C94.3215 18.1292 94.4699 17.3046 94.3466 16.4496C94.085 14.6362 93.4172 12.9573 92.5982 11.3408C92.1717 10.4989 91.4756 9.91185 90.531 9.65247C89.7225 9.43051 88.9562 9.55919 88.1911 9.83647C86.6086 10.4099 85.5445 11.5383 84.7727 12.9911C84.8014 13.0077 84.8195 13.0269 84.8373 13.0266C84.8796 13.0257 84.9236 13.0212 84.9638 13.0084C85.5175 12.833 86.0101 12.9858 86.3756 13.3934C87.0254 14.1182 87.3023 14.9831 87.1695 15.9651C87.1368 16.2071 87.0053 16.2815 86.7896 16.2298C86.6875 16.2054 86.5813 16.1623 86.4987 16.0991C86.1255 15.814 85.7736 15.7372 85.34 16.0284C85.1939 16.1265 84.8726 16.0672 84.6842 15.9735C84.4215 15.8429 84.3361 15.5485 84.4334 15.2699C84.5016 15.0746 84.6306 14.8829 84.7791 14.7371C85.0367 14.4841 85.3304 14.2679 85.6089 14.0363ZM81.2957 47.3055C81.2957 47.3019 81.2957 47.2983 81.2957 47.2947C82.0503 47.2947 82.805 47.2877 83.5595 47.2986C83.8167 47.3023 84.0788 47.3275 84.3287 47.3855C84.6051 47.4496 84.6716 47.7011 84.4667 47.8979C84.3484 48.0115 84.1896 48.1173 84.0332 48.1492C83.7614 48.2046 83.4758 48.1877 83.1988 48.2235C82.807 48.2743 82.4074 48.3092 82.0303 48.4176C81.6089 48.5387 81.22 48.7758 80.7974 48.8896C79.6056 49.2102 78.387 49.3644 77.1515 49.3749C77.0761 49.3755 76.99 49.3616 76.928 49.3927C76.8519 49.4309 76.7453 49.5089 76.7447 49.5706C76.744 49.6413 76.8326 49.7532 76.9046 49.7754C77.0233 49.8121 77.1614 49.806 77.2885 49.792C77.8461 49.7306 78.4015 49.6481 78.9599 49.5964C79.4424 49.5517 79.9275 49.5311 80.412 49.5171C80.5007 49.5146 80.5918 49.5947 80.6817 49.6367C80.5992 49.703 80.526 49.7935 80.4319 49.8302C80.2827 49.8883 80.1214 49.9256 79.962 49.9455C79.0417 50.0601 78.1195 50.1606 77.2006 50.2845C77.0784 50.3009 76.9706 50.4234 76.8562 50.4968C76.9771 50.5489 77.0986 50.6462 77.2188 50.6446C77.5741 50.6401 77.9308 50.6108 78.2835 50.565C78.8584 50.4903 79.4547 50.4689 79.9986 50.2917C80.902 49.9972 81.7933 49.7111 82.7507 49.6301C83.2131 49.591 83.6697 49.4182 84.115 49.2652C84.4626 49.1457 84.7445 49.1722 84.8586 49.4106C84.9598 49.622 84.8234 49.9089 84.538 50.0777C84.4924 50.1047 84.4406 50.1281 84.3889 50.137C84.0194 50.2004 83.6512 50.2851 83.2788 50.3149C82.4712 50.3794 81.659 50.4204 80.9047 50.7479C80.7294 50.824 80.4887 51.006 80.4796 51.1518C80.4634 51.4107 80.7412 51.4806 80.9742 51.5047C81.4566 51.5547 81.9392 51.6064 82.4229 51.6398C83.442 51.7102 83.7333 52.1463 83.418 53.1198C83.2469 53.648 83.2472 54.1696 83.485 54.6942C83.8795 55.5649 84.5032 56.2647 85.126 56.9642C86.3893 58.383 87.5847 59.8456 88.5122 61.5189C89.5092 63.3173 90.8643 64.8313 92.5454 66.0012C93.6522 66.7714 94.8703 67.3828 96.047 68.0506C96.5236 68.3211 96.9985 68.634 97.5157 68.7857C98.8624 69.1809 100.168 68.9814 101.374 68.2668C102.179 67.7901 102.946 67.2492 103.751 66.7709C104.322 66.4309 104.953 66.1878 105.513 65.8309C107.14 64.7926 108.468 63.4235 109.65 61.9112C110.783 60.4618 111.404 58.8307 111.272 56.9638C111.208 56.0499 111.151 55.1348 110.847 54.2542C110.605 53.5536 110.225 53.264 109.485 53.3597C108.963 53.4273 108.441 53.5285 107.933 53.6669C106.683 54.0075 105.488 54.4991 104.378 55.1676C103.588 55.643 102.838 56.1838 102.077 56.706C101.898 56.8287 101.843 56.994 101.999 57.2032C102.153 57.409 102.261 57.6481 102.408 57.8601C102.556 58.0744 102.536 58.2546 102.363 58.4402C102.042 58.7826 101.629 58.7591 101.217 58.7375C100.529 58.7013 99.8396 58.6646 99.1512 58.6201C98.9589 58.6077 98.7606 58.5921 98.5786 58.5348C98.0768 58.3769 97.5791 58.2048 97.0854 58.0229C95.0189 57.262 93.2381 56.0555 91.7042 54.4887C91.2388 54.0133 90.8573 53.4561 90.4299 52.9426C90.3767 52.8787 90.2773 52.8533 90.1993 52.8101C90.1788 52.8973 90.1393 52.985 90.1415 53.0716C90.1489 53.3628 90.2236 53.6628 90.174 53.942C90.1176 54.2594 89.9822 54.5728 89.8254 54.8572C89.7641 54.9686 89.5514 54.9964 89.4077 55.0623C89.3854 54.913 89.3366 54.7619 89.3465 54.6148C89.3651 54.3368 89.4409 54.0619 89.4512 53.7842C89.4827 52.9372 89.3574 52.1088 89.1504 51.2866C88.8548 50.1128 88.3574 49.0485 87.4571 48.2255C86.7023 47.5356 85.9068 46.8889 85.11 46.247C84.5802 45.8202 83.9669 45.5756 83.2758 45.5225C81.9452 45.4203 80.644 45.5665 79.3989 46.0365C78.957 46.2034 78.5694 46.5221 78.1727 46.7944C78.0863 46.8537 78.03 47.012 78.0335 47.1223C78.0351 47.1716 78.2163 47.247 78.3204 47.2554C78.6855 47.2851 79.0523 47.2995 79.4186 47.3036C80.0443 47.3106 80.67 47.3055 81.2957 47.3055ZM86.1564 65.9752C86.1297 65.9752 86.1031 65.9752 86.0765 65.9752C86.0765 64.1386 86.0759 62.302 86.0769 60.4653C86.0772 59.9738 85.9491 59.5304 85.6201 59.1526C85.3438 58.8354 85.0792 58.5081 84.8035 58.1902C83.9775 57.2378 83.1437 56.2927 82.5478 55.1661C82.4929 55.0623 82.2937 54.9798 82.1639 54.983C81.9424 54.9885 81.7251 55.0943 81.502 55.1152C80.2362 55.2343 78.9698 55.3479 77.7022 55.4442C77.4965 55.4598 77.374 55.527 77.3116 55.7076C77.2449 55.9007 77.1886 56.0976 77.1347 56.2948C76.8135 57.4687 76.5298 58.6542 76.1645 59.8141C75.8028 60.9625 75.4895 62.1091 75.5146 63.3251C75.5373 64.4254 75.6021 65.5277 75.5617 66.626C75.5175 67.831 75.3923 69.0343 75.2665 70.2346C75.2037 70.8336 75.0607 71.4242 74.9543 72.0186C74.7756 73.0165 74.5476 74.0088 74.4318 75.014C74.2985 76.1712 74.2595 77.3396 74.1917 78.5038C74.178 78.7387 74.1803 78.9884 74.2469 79.2097C74.3041 79.4001 74.4267 79.6177 74.5864 79.7196C74.8346 79.878 75.1303 79.9984 75.4206 80.048C77.1723 80.3468 78.9227 80.6628 80.6841 80.8911C82.3412 81.1059 84.0022 81.0306 85.6371 80.6421C86.0583 80.542 86.378 80.2876 86.4186 79.8406C86.4807 79.1566 86.5214 78.4671 86.5099 77.7809C86.49 76.5844 86.4225 75.3888 86.3772 74.1927C86.3621 73.7939 86.3684 73.3938 86.3395 72.9961C86.2888 72.297 86.1761 71.6 86.1649 70.9008C86.1384 69.2594 86.1564 67.6171 86.1564 65.9752ZM38.8848 13.1849C38.8773 13.0918 38.8857 13.0358 38.8671 12.991C38.7434 12.6932 38.6277 12.3909 38.4842 12.1027C37.7288 10.586 36.5929 9.3621 35.4441 8.14628C35.1997 7.88771 35.0065 7.92408 34.7189 8.07653C33.8281 8.54885 32.9328 9.01883 32.0105 9.42433C31.0283 9.8562 29.9958 10.1742 29.0162 10.6114C26.9784 11.521 25.6507 13.1129 24.8931 15.1791C24.624 15.9127 24.4882 16.696 24.3011 17.4589C24.0973 18.2898 23.7832 18.5663 22.9779 18.6309C22.8534 18.6409 22.7352 18.7299 22.6141 18.7824C22.6692 18.9019 22.704 19.0373 22.783 19.138C23.0628 19.4947 22.9969 19.8388 22.5556 19.9111C22.2265 19.965 21.8642 19.8643 21.5249 19.7932C21.2069 19.7267 20.9442 19.9047 20.9984 20.2272C21.0598 20.5935 21.1801 20.9647 21.5656 21.1102C22.0255 21.2837 22.4988 21.4335 22.9786 21.5366C23.1623 21.5762 23.3995 21.4966 23.578 21.4046C23.9553 21.2101 23.9669 21.1806 24.1811 21.5723C24.9393 22.9586 25.6654 24.3626 26.4355 25.7422C27.0697 26.8784 27.6816 28.0316 28.5439 29.0244C29.1958 29.775 30.0061 30.281 30.9631 30.4849C32.6428 30.8427 34.0409 30.3114 35.06 28.9301C35.4844 28.3549 35.8163 27.7039 36.1364 27.0605C36.7779 25.7709 37.3529 24.4477 38.0107 23.1668C38.625 21.9705 39.3203 20.8129 39.7026 19.5133C40.212 17.7814 39.9935 16.1139 39.1387 14.5397C38.8194 13.9516 38.3268 13.5785 37.5861 13.6369C37.3044 13.659 37.0093 13.5872 36.7296 13.5198C36.6197 13.4933 36.4465 13.3474 36.4571 13.2806C36.4808 13.1323 36.5753 12.9152 36.6897 12.8785C36.9233 12.8036 37.1978 12.7807 37.4398 12.824C37.9118 12.9085 38.3731 13.0532 38.8848 13.1849ZM86.7212 80.6173C87.1677 80.5562 87.5526 80.5222 87.9298 80.4485C89.0495 80.2297 90.1673 80.0012 91.2836 79.7656C92.6564 79.4759 93.9765 79.0288 95.2488 78.4336C96.5135 77.842 97.7757 77.2423 99.0617 76.7001C100.069 76.2753 101.065 75.8558 101.832 75.0392C101.98 74.8825 102.148 74.7455 102.304 74.5972C103.378 73.5788 104.399 72.5148 105.152 71.2245C105.521 70.5928 105.695 69.9369 105.409 69.2206C105.19 68.6721 104.986 68.1174 104.745 67.579C104.711 67.5042 104.484 67.4502 104.381 67.486C104.14 67.5699 103.92 67.7136 103.692 67.834C102.753 68.3295 101.849 68.9142 100.866 69.2992C99.532 69.8223 98.1142 69.782 96.7743 69.3075C95.7174 68.9333 94.6996 68.4229 93.7107 67.8873C91.9469 66.9319 90.3855 65.7012 89.0569 64.188C88.3723 63.4082 87.7784 62.5656 87.2989 61.6426C87.2287 61.5075 87.1077 61.3988 87.0102 61.2779C86.9753 61.2937 86.9405 61.3096 86.9056 61.3255C86.8895 61.5914 86.8592 61.8573 86.8596 62.1232C86.8631 64.4236 86.85 66.7244 86.8886 69.0243C86.9092 70.2533 87.0504 71.4799 87.0862 72.7091C87.1359 74.4147 87.1506 76.1217 87.1526 77.8281C87.1533 78.3745 87.0891 78.9242 87.0116 79.4663C86.9591 79.8342 86.8317 80.1914 86.7212 80.6173ZM67.6721 15.0788C67.5267 14.7386 67.2582 14.6575 67 14.874C66.9176 14.9431 66.8542 15.0385 66.7652 15.0955C66.6542 15.1664 66.5258 15.21 66.4049 15.2653C66.3557 15.139 66.2717 15.0148 66.2638 14.8859C66.2378 14.466 66.2622 14.0424 66.2266 13.6237C66.0922 12.0429 65.9436 10.4633 65.7935 8.88383C65.7829 8.77178 65.7436 8.64303 65.6734 8.559C64.8292 7.54789 63.8323 6.73839 62.5521 6.35577C61.6466 6.08515 60.73 5.84552 59.8079 5.63895C59.083 5.47655 58.3455 5.35077 57.5932 5.47553C57.0188 5.5708 56.441 5.64664 55.8677 5.74778C55.7523 5.76814 55.6293 5.84279 55.545 5.92749C54.9558 6.51944 54.4619 7.17387 54.1265 7.95224C53.7085 8.92231 53.2792 9.8832 53.1108 10.938C52.9799 11.758 52.841 12.5772 52.6835 13.3925C52.6122 13.7616 52.5153 14.1312 52.3798 14.4811C52.2006 14.9441 51.8343 14.9945 51.5132 14.6318C51.4703 14.5833 51.434 14.5279 51.3862 14.4852C51.1667 14.2892 50.9089 14.3134 50.8223 14.5901C50.7016 14.9757 50.6338 15.383 50.5932 15.7861C50.5752 15.965 50.6246 16.2084 50.7404 16.3296C50.9063 16.5031 51.1611 16.5915 51.378 16.7163C51.4658 16.5572 51.5619 16.4018 51.639 16.2377C51.7028 16.1018 51.7169 15.9349 51.8034 15.8196C51.8913 15.7025 52.0563 15.5442 52.1595 15.5625C52.2907 15.5857 52.4387 15.7496 52.4967 15.8876C52.5595 16.0372 52.5338 16.2268 52.5353 16.3991C52.5435 17.3928 52.5111 18.3888 52.5689 19.3795C52.6017 19.9428 52.6919 20.5349 52.9088 21.0496C53.7853 23.1294 55.2519 24.7232 57.1791 25.8718C58.0055 26.3644 58.9206 26.4696 59.8572 26.1227C60.5795 25.8551 61.1736 25.3944 61.7376 24.8934C63.4981 23.3298 64.8961 21.5626 65.0209 19.0664C65.048 18.5256 65.2296 18.426 65.7715 18.4919C65.9427 18.5128 66.1173 18.5253 66.2829 18.5698C66.6331 18.6639 66.9393 18.5735 67.2376 18.394C67.9931 17.9393 68.1659 16.8386 67.8628 16.0493C67.8386 15.9863 67.7418 15.9274 67.6688 15.9113C67.3463 15.8402 67.2179 15.97 67.2206 16.3444C67.2238 16.7824 67.018 17.0603 66.6146 17.1906C66.3748 17.2681 66.3071 17.1474 66.338 16.9515C66.3528 16.8571 66.427 16.7495 66.5063 16.6926C66.6892 16.5616 66.7117 16.4185 66.6342 16.2172C66.4887 15.839 66.6011 15.5135 66.9609 15.329C67.1756 15.2188 67.4193 15.1653 67.6721 15.0788ZM102.714 35.9673C102.296 35.2535 101.787 34.763 101.112 34.4528C100.763 34.2924 100.418 34.0899 100.005 34.2177C99.0094 34.5252 98.1586 35.0496 97.4127 35.7888C96.0959 37.0937 94.835 38.4639 93.3244 39.5582C91.4556 40.9118 89.459 41.8891 87.0597 41.7678C86.1886 41.7238 85.3117 41.7982 84.4374 41.8157C84.2612 41.8192 84.1055 41.8355 84.1148 42.0699C84.1318 42.5017 84.1382 42.9344 84.1748 43.3645C84.1805 43.4318 84.3474 43.5561 84.3968 43.5378C84.7702 43.3995 84.9883 43.5992 85.199 43.8552C85.5759 44.313 85.9505 44.7732 86.3418 45.2186C87.2452 46.2471 88.1721 47.2552 89.0632 48.2942C89.9326 49.308 90.7726 50.3474 91.6177 51.3818C91.7732 51.572 91.9157 51.7808 92.0221 52.0014C92.2133 52.3976 92.3485 52.8217 92.5502 53.2118C93.0026 54.087 93.7421 54.7046 94.5085 55.2853C95.6235 56.1303 96.8715 56.735 98.1729 57.2277C98.6682 57.4153 99.1868 57.5411 99.6948 57.6951C99.7241 57.6673 99.7534 57.6396 99.7827 57.6119C99.7282 57.334 99.6863 57.0529 99.6169 56.7788C99.3423 55.6931 99.0922 54.5996 98.7698 53.5281C98.4277 52.391 98.1173 51.248 97.9654 50.0719C97.7229 48.1949 97.6108 46.3052 97.6802 44.4141C97.7173 43.4035 97.8116 42.3839 98.0056 41.393C98.2728 40.0283 98.8994 38.7939 99.6588 37.6316C100.29 36.6658 101.118 36.0242 102.327 36.0106C102.43 36.0095 102.533 35.9883 102.714 35.9673ZM39.2029 45.3032C39.1704 45.3033 39.1379 45.3034 39.1054 45.3034C39.1054 46.7064 39.1045 48.1093 39.1071 49.5123C39.1073 49.6303 39.1215 49.7502 39.1451 49.866C39.3022 50.6393 39.4401 51.4118 39.3383 52.2088C39.3158 52.3845 39.3597 52.5757 39.4045 52.7518C39.5134 53.1793 39.6493 53.5999 39.7592 54.0272C40.085 55.2939 40.5739 56.4751 41.4697 57.4592C41.9703 58.0091 42.4368 58.5903 42.9413 59.1364C43.28 59.5029 43.7062 59.6963 44.2233 59.5779C45.8097 59.2144 47.0907 57.8816 47.3677 56.1377C47.5937 54.7148 47.364 53.3169 46.9948 51.9439C46.7435 51.0093 46.4502 50.0854 46.1552 49.1633C45.8898 48.3336 45.6056 47.5096 45.313 46.6891C44.9412 45.6458 44.5343 44.6147 44.1774 43.5665C43.9313 42.8436 43.7617 42.0949 43.5268 41.3678C43.2062 40.3753 42.8743 39.3856 42.5141 38.4069C42.0011 37.0129 41.3719 35.6886 40.214 34.6846C39.4309 34.0057 38.642 33.3416 37.7193 32.8559C37.492 32.7362 37.2697 32.6473 37.0217 32.799C36.6192 33.0453 36.2008 33.2685 35.8153 33.539C35.4608 33.7878 35.4759 33.8406 35.8104 34.1339C35.8348 34.1552 35.8623 34.1728 35.8865 34.1944C36.4896 34.7317 37.0981 35.2632 37.6895 35.8133C37.7825 35.8998 37.8709 36.1032 37.8303 36.1939C37.777 36.3131 37.6045 36.405 37.4643 36.4536C37.1748 36.5539 36.9382 36.4268 36.7471 36.2076C36.3789 35.7852 36.0208 35.3536 35.6397 34.9433C35.56 34.8576 35.3989 34.8476 35.2753 34.8026C35.2609 34.9622 35.1933 35.1429 35.2458 35.276C35.3089 35.436 35.4623 35.5689 35.5977 35.6899C35.9904 36.0405 36.1305 36.4877 36.1273 36.9948C36.126 37.2 36.0918 37.4079 36.116 37.6094C36.1378 37.7911 36.1663 38.0185 36.2827 38.1346C36.8517 38.7027 37.413 39.2904 38.0496 39.7757C38.7846 40.336 39.1941 41.0186 39.2009 41.9358C39.2092 43.0582 39.2029 44.1807 39.2029 45.3032ZM100.403 56.406C100.476 56.3934 100.512 56.3964 100.537 56.3814C100.601 56.3427 100.663 56.2999 100.72 56.2518C102.311 54.9114 104.042 53.8075 105.987 53.0399C107.209 52.5575 108.485 52.4028 109.773 52.288C110.021 52.2659 110.103 52.2028 110.087 51.9405C110.022 50.8378 109.754 49.7899 109.241 48.815C108.5 47.4064 107.705 46.0258 106.987 44.6063C106.419 43.4846 105.955 42.3169 105.647 41.0864C105.464 40.3501 105.21 39.6239 104.912 38.9256C104.62 38.2417 104.225 37.5992 103.583 37.1703C102.959 36.7528 102.305 36.6504 101.605 37.0157C100.777 37.4478 100.235 38.1464 99.7696 38.9205C98.8421 40.4624 98.5266 42.1785 98.4529 43.9349C98.3801 45.6718 98.4473 47.4112 98.8282 49.1202C99.0694 50.2026 99.3306 51.2805 99.5741 52.3624C99.7536 53.1604 99.9238 53.9607 100.089 54.7618C100.201 55.3066 100.298 55.8547 100.403 56.406ZM50.4371 28.6018C50.5019 28.7441 50.5349 28.8474 50.5914 28.9355C50.9343 29.4701 51.2615 30.0164 51.6332 30.5305C52.4427 31.6501 53.4123 32.5999 54.6126 33.31C55.6804 33.9418 56.8437 34.1793 58.0583 34.2737C59.6575 34.3979 61.2048 34.2136 62.6581 33.5072C64.0882 32.8121 65.1554 31.7223 65.9147 30.3348C66.3759 29.492 66.6642 28.597 66.5788 27.6136C66.5621 27.421 66.4999 27.3253 66.2905 27.3103C65.9468 27.2857 65.6051 27.2319 65.263 27.1864C64.723 27.1146 64.284 26.8551 64.0884 26.3462C63.9133 25.8903 63.8394 25.3954 63.7211 24.9176C63.6948 24.8115 63.6693 24.7053 63.6264 24.5288C63.088 25.0374 62.5966 25.4814 62.253 26.0609C61.9287 26.6075 61.5061 27.045 60.8745 27.2047C60.335 27.3411 59.7879 27.4813 59.2363 27.5289C58.0394 27.6321 56.9345 27.3359 55.9451 26.6305C55.0308 25.9787 54.4647 25.054 53.9222 24.1065C53.7131 23.7411 53.4942 23.3813 53.2798 23.0189C53.251 23.0294 53.2223 23.04 53.1936 23.0505C53.1772 23.1302 53.1526 23.2091 53.1455 23.2895C53.0865 23.956 53.04 24.6238 52.9718 25.2893C52.8822 26.1644 52.7393 27.022 52.0984 27.7016C51.6561 28.1707 51.1116 28.4494 50.4371 28.6018ZM98.2674 34.2422C98.266 34.211 98.2646 34.1798 98.2631 34.1487C98.0502 34.1344 97.8094 34.0488 97.6297 34.1193C97.0938 34.3295 96.5302 34.5296 96.0703 34.8623C94.7547 35.8141 93.394 36.6234 91.7419 36.8237C90.7732 36.9412 89.8145 37.0063 88.8513 36.7618C87.9899 36.5431 87.3285 36.0314 86.7212 35.4209C86.4251 35.1232 86.4366 35.139 86.1362 35.4135C85.5967 35.9064 85.0399 36.3802 84.4904 36.8621C84.1521 37.1587 83.7825 37.4273 83.484 37.7597C83.1542 38.127 83.2329 38.3535 83.5992 38.6654C83.7838 38.8224 83.9669 39.0571 84.0128 39.2845C84.0927 39.6805 84.0843 40.0984 84.0775 40.5065C84.0725 40.8029 84.156 40.9358 84.4752 40.9409C85.3384 40.9546 86.2012 40.9957 87.0641 41.0264C88.0809 41.0627 89.0671 40.895 90.0004 40.4993C91.528 39.8517 92.8977 38.9337 94.1593 37.869C95.1469 37.0356 96.0662 36.1215 97.028 35.2569C97.4247 34.9003 97.8533 34.5794 98.2674 34.2422ZM73.0629 51.0471C73.0091 51.1485 72.932 51.2404 72.9099 51.3441C72.6518 52.5549 72.3668 53.7615 72.1597 54.9813C71.9501 56.216 71.6611 57.4248 71.2978 58.6225C71.0408 59.4696 71.0467 60.338 71.4844 61.1397C72.1049 62.2762 72.995 63.2056 73.8722 64.1409C74.0362 64.3158 74.1611 64.2718 74.2198 64.0213C74.3354 63.5282 74.4215 63.0279 74.5462 62.5373C74.8616 61.2969 75.1611 60.0512 75.524 58.8246C75.9422 57.4106 76.2487 55.9864 76.2443 54.5044C76.2436 54.2901 76.174 54.1674 75.9827 54.0761C75.2906 53.7454 74.7093 53.2676 74.2409 52.664C73.8408 52.1485 73.4708 51.6097 73.0629 51.0471ZM83.3632 42.4312C83.3591 42.431 83.355 42.4309 83.3509 42.4308C83.3354 42.1396 83.3236 41.8481 83.3034 41.5573C83.2831 41.2663 83.2514 40.9762 83.2298 40.6853C83.17 39.8801 83.1713 39.869 82.3586 39.8516C80.517 39.8123 78.7004 40.0801 76.8826 40.3232C76.5529 40.3673 76.228 40.4455 75.9003 40.5047C75.6851 40.5435 75.6239 40.6762 75.6511 40.8782C75.7934 41.9354 75.9274 42.9937 76.0857 44.0485C76.0973 44.1255 76.2834 44.238 76.3813 44.2313C78.1138 44.1127 79.8453 43.9809 81.5766 43.8452C82.0604 43.8072 82.5424 43.746 83.0254 43.6981C83.265 43.6744 83.3936 43.5803 83.369 43.3056C83.3432 43.0163 83.3632 42.7228 83.3632 42.4312ZM43.2849 62.4367C43.15 62.4555 43.0954 62.4538 43.0476 62.4712C42.3511 62.724 41.653 62.9726 40.9605 63.2361C40.36 63.4646 39.7646 63.7067 39.1702 63.9508C38.9363 64.0469 38.8506 64.2249 38.8585 64.489C38.8899 65.5243 38.8775 66.5613 38.9267 67.5955C38.9521 68.1299 39.0707 68.66 39.1508 69.1915C39.1873 69.4335 39.3365 69.4674 39.5248 69.362C40.0295 69.0794 40.554 68.8232 41.0258 68.4925C41.902 67.8783 42.4985 67.0577 42.6901 65.9763C42.8197 65.2449 42.9707 64.5173 43.0977 63.7855C43.1723 63.3554 43.2188 62.9204 43.2849 62.4367ZM80.3928 54.5142C80.9558 54.4761 81.4381 54.4372 81.9212 54.4135C82.1637 54.4017 82.2544 54.2958 82.2627 54.052C82.2785 53.5893 82.2976 53.1233 82.3693 52.6671C82.4099 52.4081 82.3155 52.3682 82.11 52.3536C81.691 52.3238 81.271 52.2973 80.8549 52.2428C80.6228 52.2124 80.3842 52.1583 80.1722 52.0624C79.727 51.8612 79.6378 51.4524 79.6294 51.0111C79.6229 50.6747 79.5694 50.6392 79.2491 50.6933C78.5274 50.8152 77.8055 50.9365 77.0811 51.0405C76.842 51.0748 76.7259 51.1824 76.7409 51.4173C76.7787 52.0083 76.8034 52.6013 76.8755 53.1883C76.901 53.3957 76.9971 53.659 77.1519 53.7717C77.4306 53.9745 77.7647 54.155 78.0991 54.2162C78.8801 54.359 79.6751 54.4256 80.3928 54.5142ZM83.9733 44.9343C83.9929 44.8983 84.0125 44.8623 84.0322 44.8263C83.9423 44.7624 83.8579 44.6536 83.7618 44.642C83.2096 44.5754 82.6509 44.4638 82.1014 44.494C80.7886 44.5661 79.4796 44.7082 78.1692 44.8234C77.6107 44.8724 77.0511 44.9138 76.4956 44.9865C76.4008 44.9989 76.3243 45.1521 76.2394 45.2402C76.3386 45.2929 76.4347 45.38 76.5379 45.3893C76.661 45.4004 76.7892 45.3385 76.9169 45.3197C77.076 45.2963 77.2379 45.2659 77.3965 45.2753C77.4868 45.2807 77.5727 45.3595 77.6606 45.4052C77.6033 45.4738 77.5576 45.5841 77.4868 45.6037C77.1999 45.6831 76.9071 45.7472 76.6127 45.7915C76.4472 45.8164 76.3523 45.8581 76.3656 46.0475C76.4233 46.8657 76.4788 47.6841 76.5259 48.503C76.5387 48.7273 76.6409 48.8119 76.8551 48.7857C77.8378 48.6657 78.8229 48.5615 79.8022 48.4178C80.1087 48.3728 80.3997 48.2218 80.6978 48.1194C80.6944 48.0789 80.6911 48.0385 80.6878 47.998C80.5284 47.9844 80.3687 47.9565 80.2097 47.9596C79.5857 47.9714 78.9599 48.0322 78.3387 47.9996C77.7657 47.9696 77.4002 47.4027 77.5769 46.854C77.6554 46.6101 77.8187 46.3706 78.0022 46.1882C78.4787 45.7148 79.0882 45.4506 79.7213 45.2706C80.9658 44.9167 82.2356 44.7805 83.5287 44.932C83.675 44.9491 83.825 44.9343 83.9733 44.9343ZM39.9328 58.0394C39.7946 59.3685 39.6608 60.6555 39.5196 62.0138C41.4377 61.3906 43.3344 60.7744 45.2312 60.1583C45.2202 60.1079 45.2093 60.0576 45.1984 60.0073C45.0599 60.0238 44.9215 60.0537 44.7829 60.0545C44.3361 60.057 43.8493 60.1616 43.4511 60.0203C42.6992 59.7536 41.9829 59.3708 41.2816 58.9823C40.8173 58.7252 40.4049 58.3742 39.9328 58.0394ZM33.6299 7.05532C33.5095 6.99646 33.4671 6.96242 33.4204 6.95495C32.8154 6.85813 32.2123 6.71081 31.6037 6.68243C30.3535 6.62414 29.137 6.85289 27.9504 7.25205C26.1267 7.86551 24.5723 8.89236 23.2541 10.2863C21.7572 11.8691 20.7587 13.7587 19.914 15.7415C19.8457 15.9017 19.807 16.0745 19.7546 16.2415C19.7812 16.2493 19.8077 16.257 19.8342 16.2647C19.9593 16.0323 20.0907 15.803 20.2084 15.5668C20.8284 14.3224 21.4658 13.0912 22.3328 11.9912C24.056 9.80486 26.2363 8.32201 28.9734 7.76369C30.4064 7.47136 31.8697 7.32767 33.3192 7.11607C33.3967 7.10477 33.473 7.08625 33.6299 7.05532ZM12.2426 28.8538C12.2826 28.8988 12.3226 28.9438 12.3626 28.9888C12.516 28.8818 12.6888 28.7943 12.8197 28.6645C13.648 27.8438 14.4781 27.011 15.0348 25.9791C15.4925 25.1306 15.8746 24.2355 16.2226 23.3349C16.6525 22.2219 17.0195 21.0841 17.4007 19.9527C17.751 18.9131 18.0205 17.8415 18.437 16.8299C19.5091 14.2263 20.8972 11.8027 22.7886 9.69552C24.2322 8.08719 25.9387 6.88478 28.063 6.34438C28.3145 6.28039 28.5624 6.20181 28.8119 6.12999C28.6681 6.07599 28.5155 6.03987 28.3889 6.08204C27.7212 6.30445 27.0501 6.52191 26.3987 6.78676C24.7663 7.45049 23.3718 8.48767 22.1969 9.77318C21.5082 10.5267 20.9886 11.44 20.4255 12.3027C19.139 14.2738 18.0657 16.3549 17.3495 18.6036C16.8635 20.1297 16.4275 21.6717 15.9638 23.2049C15.3557 25.2155 14.2954 26.9519 12.7847 28.4103C12.6173 28.5719 12.4239 28.7066 12.2426 28.8538ZM75.8791 53.0217C75.9093 53.0018 75.9395 52.9819 75.9697 52.9621C75.9638 52.8357 75.9655 52.7084 75.9507 52.583C75.8371 51.6188 75.7001 50.6568 75.6108 49.6904C75.5403 48.928 75.5272 48.1602 75.4887 47.3947C75.48 47.2216 75.4765 47.0473 75.2163 47.1434C74.7732 47.307 74.3313 47.4744 73.8836 47.6246C73.6925 47.6888 73.6201 47.7942 73.6048 47.9959C73.4638 49.8542 74.1501 51.3872 75.4325 52.6861C75.5619 52.8172 75.7293 52.9107 75.8791 53.0217ZM73.457 45.0885C73.4381 45.092 73.4193 45.0955 73.4005 45.099C73.4748 45.5845 73.5354 46.073 73.6353 46.5532C73.6544 46.6449 73.8432 46.7818 73.929 46.7657C74.3783 46.6813 74.8241 46.5684 75.2595 46.4292C75.3371 46.4044 75.416 46.2003 75.3994 46.0937C75.282 45.3388 75.1328 44.589 75.0106 43.8347C74.979 43.64 74.8893 43.5772 74.7116 43.5854C74.4641 43.5967 74.216 43.6175 73.9689 43.6106C73.6942 43.603 73.5734 43.7445 73.5493 43.9933C73.514 44.3579 73.4873 44.7234 73.457 45.0885ZM31.6187 8.10132C31.6139 8.06568 31.609 8.03003 31.6042 7.99439C31.4827 7.99439 31.354 7.96801 31.241 7.99889C30.7136 8.14291 30.1858 8.2881 29.667 8.45971C28.1539 8.96017 26.7989 9.73961 25.6628 10.8621C24.0972 12.409 22.653 14.067 21.3468 15.8383C20.7925 16.59 20.3049 17.3938 19.827 18.1978C19.6663 18.4683 19.512 18.7954 19.6445 19.1885C19.7021 19.1253 19.7272 19.105 19.7432 19.0791C20.4774 17.8891 21.1336 16.6412 21.9648 15.5236C22.8876 14.2829 23.9626 13.1545 24.9847 11.9891C26.598 10.1496 28.5023 8.77284 30.9552 8.28282C31.1795 8.23801 31.3977 8.16255 31.6187 8.10132ZM19.3832 18.7369C19.3237 18.8329 19.3004 18.8662 19.2814 18.9018C18.4453 20.4684 18.0883 22.1956 17.632 23.887C17.3053 25.0979 16.875 26.2651 16.3252 27.3891C15.8445 28.3719 15.1211 29.1698 14.3537 29.9325C14.2656 30.0201 14.1987 30.1291 14.122 30.2282L14.1964 30.2984C14.2881 30.2329 14.3952 30.1814 14.4689 30.0997C15.0734 29.4294 15.7436 28.8039 16.2575 28.0693C17.503 26.2887 17.962 24.1869 18.5269 22.133C18.7437 21.3447 19.0039 20.5685 19.2325 19.7834C19.3249 19.4661 19.5489 19.1653 19.3832 18.7369ZM38.5568 62.5448C39.0393 61.9531 39.5317 57.0872 39.2061 56.3312C39.1335 56.458 39.067 56.5432 39.0321 56.6399C38.7911 57.3066 38.5471 57.9725 38.3234 58.645C38.1437 59.1849 37.789 59.7238 38.2436 60.2996C38.2732 60.3371 38.2698 60.403 38.2757 60.4564C38.3338 60.9905 38.3873 61.5251 38.4502 62.0587C38.4673 62.2029 38.5118 62.3439 38.5568 62.5448ZM36.6307 32.4533C36.6365 32.4111 36.6423 32.3689 36.6481 32.3266C35.9416 31.9237 35.2248 31.5376 34.5332 31.1104C34.2041 30.9071 34.0184 31.0309 33.8374 31.2843C33.7754 31.3711 33.7187 31.4632 33.6716 31.5589C33.5228 31.8608 33.557 31.9577 33.8758 32.0543C34.5068 32.2455 34.9995 32.5878 35.2364 33.2322C35.2494 33.2674 35.2881 33.2931 35.3092 33.3169C35.7595 33.0226 36.1951 32.738 36.6307 32.4533ZM20.5875 22.6192C20.5499 22.6159 20.5122 22.6126 20.4745 22.6093C20.2544 25.2157 20.0343 27.8221 19.8142 30.4284C20.7163 27.8833 20.6315 25.2494 20.5875 22.6192ZM9.33878 24.2519C8.97614 25.2968 9.70003 26.902 10.6995 27.3251C11.0237 27.4624 11.3398 27.5446 11.6871 27.4364C11.1427 27.0022 10.506 26.6633 10.1201 26.1394C9.73224 25.6126 9.59406 24.9016 9.33878 24.2519ZM8.31011 25.0669C8.27786 25.0792 8.24561 25.0915 8.21336 25.1038C8.1998 25.9867 8.53101 26.7674 9.05611 27.4572C9.57086 28.1335 10.2214 28.6834 10.8904 29.2069C10.3861 28.5503 9.77582 27.9723 9.33825 27.2843C8.9049 26.6029 8.6457 25.8106 8.31011 25.0669ZM22.1491 18.363C22.1159 18.2994 22.111 18.2731 22.0958 18.2642C22.0597 18.2429 22.02 18.2256 21.9797 18.214C21.4773 18.0698 21.1375 18.3139 20.839 18.6807C20.1675 19.5058 20.1635 20.5086 20.08 21.4909C20.0792 21.5007 20.1076 21.5131 20.1336 21.5328C20.2111 21.2448 20.2755 20.9575 20.3658 20.6786C20.6821 19.7014 20.905 18.6499 22.1491 18.363ZM85.5942 15.3269C85.7443 15.2631 85.9947 15.2031 86.1874 15.0633C86.4404 14.8798 86.2586 14.6574 86.1453 14.471C86.0114 14.2507 85.871 14.3786 85.758 14.4974C85.6037 14.6596 85.4439 14.8231 85.3245 15.0104C85.1867 15.2265 85.2581 15.3291 85.5942 15.3269ZM22.0834 22.19C22.0143 21.9658 21.7144 21.702 21.5163 21.7294C21.4482 21.7388 21.3485 21.8553 21.3437 21.9281C21.3249 22.2139 21.5903 22.6695 21.7164 22.6036C21.8691 22.5239 21.9637 22.3328 22.0834 22.19ZM11.678 22.7626C12.0438 23.4133 12.4028 23.5555 12.8415 23.265C12.4431 23.093 12.0606 22.9278 11.678 22.7626ZM19.5394 24.1771C19.5911 24.1848 19.6427 24.1926 19.6943 24.2003C19.7563 23.7143 19.8182 23.2284 19.8801 22.7424C19.8509 22.7388 19.8218 22.7352 19.7927 22.7317C19.7083 23.2135 19.6239 23.6953 19.5394 24.1771Z" fill="black"/>
<path d="M88.2484 20.9233C88.2551 21.0635 88.2582 21.2041 88.2691 21.344C88.3217 22.0187 88.1152 22.5785 87.7088 23.1404C87.3332 23.6595 87.1166 24.3007 86.8696 24.9043C86.5442 25.6997 86.2837 26.5222 85.9472 27.3125C85.5491 28.2477 84.6025 28.6251 83.7012 28.247C83.6076 28.2078 83.4982 28.1108 83.4728 28.0192C83.296 27.3815 83.2387 26.7512 83.605 26.1418C83.6737 26.0275 83.6917 25.8017 83.6242 25.6993C83.1028 24.9081 82.9184 24.0031 82.7993 23.1005C82.6769 22.1729 82.6711 21.2281 82.6473 20.29C82.6392 19.9712 82.695 19.639 82.7867 19.3324C82.9147 18.9043 83.1624 18.5561 83.6511 18.4658C84.3265 18.341 85.0029 18.0982 85.6753 18.1098C86.7683 18.1286 87.5948 18.7273 88.1489 19.6743C88.2051 19.7704 88.2188 19.9008 88.2225 20.0163C88.2324 20.3183 88.2259 20.6209 88.2259 20.9233C88.2334 20.9233 88.2409 20.9233 88.2484 20.9233ZM85.4427 18.8231C84.9264 18.8771 84.4705 18.8971 84.0271 18.9822C83.7841 19.0288 83.5389 19.1535 83.3371 19.301C83.1184 19.4607 83.0825 19.9275 83.2507 20.104C83.467 20.331 83.6922 20.2407 83.9155 20.0844C84.046 19.993 84.19 19.9118 84.3395 19.8584C85.0052 19.6203 85.66 19.7597 86.3073 19.9468C86.7095 20.063 87.1014 20.2164 87.5061 20.3216C87.6301 20.3539 87.7812 20.2815 87.9199 20.2571C87.8654 20.1229 87.8472 19.9486 87.7506 19.8611C87.0788 19.253 86.3035 18.8683 85.4427 18.8231ZM84.7381 26.4371C84.4801 26.566 84.2453 26.6393 84.0681 26.7834C83.8726 26.9425 83.8503 27.4233 83.9947 27.5957C84.2096 27.8523 84.4649 27.809 84.7204 27.6614C84.8312 27.5973 84.9654 27.5426 85.0351 27.445C85.1772 27.2464 85.2826 27.0217 85.4032 26.8077C85.1932 26.6907 84.9832 26.5737 84.7381 26.4371Z" fill="black"/>
<path d="M96.3095 16.0265C96.0477 15.7302 96.064 15.3355 95.9914 14.9791C95.7401 13.7448 95.5564 12.4938 95.0655 11.3213C94.6413 10.3079 94.0755 9.39879 93.0589 8.88217C92.7494 8.72493 92.3909 8.66243 92.0522 8.566C91.9048 8.52407 91.6655 8.55863 91.7322 8.32253C91.7652 8.20569 91.9872 8.04555 92.0971 8.06395C92.5814 8.14504 93.0799 8.22642 93.5297 8.41305C94.7635 8.92507 95.4527 9.96033 95.9634 11.1328C96.54 12.4562 96.7413 13.8404 96.5679 15.2748C96.5376 15.5263 96.468 15.7731 96.4165 16.022C96.3808 16.0235 96.3452 16.025 96.3095 16.0265Z" fill="black"/>
<path d="M88.9931 13.2188C89.7557 13.2963 90.4579 13.469 91.0083 14.0108C91.1392 14.1397 91.1892 14.3509 91.2764 14.5242C91.0785 14.5827 90.8604 14.7255 90.6865 14.6839C90.1694 14.5601 89.6698 14.363 89.1629 14.1961C88.9801 14.136 88.7865 14.0994 88.6158 14.0154C88.5068 13.9618 88.3681 13.8481 88.3567 13.7483C88.344 13.6376 88.4328 13.4738 88.5288 13.4024C88.6578 13.3064 88.836 13.2768 88.9931 13.2188Z" fill="black"/>
<path d="M102.267 22.3906C102.503 22.8363 102.412 23.2282 102.327 23.5902C102.16 24.3073 101.862 24.9787 101.358 25.5297C101.234 25.6646 101.028 25.7236 100.859 25.8174C100.886 25.6296 100.875 25.4254 100.946 25.2566C101.298 24.427 101.671 23.6061 102.04 22.7839C102.092 22.6694 102.165 22.565 102.267 22.3906Z" fill="black"/>
<path d="M34.633 17.9099C35.6268 17.8502 36.4293 18.1483 37.1627 18.6657C37.5599 18.946 37.7372 19.3594 37.8083 19.8172C37.8311 19.9639 37.7936 20.1441 37.7237 20.2774C36.9848 21.6869 36.2214 23.0836 35.4911 24.4974C35.0769 25.2992 34.7299 26.1356 34.3184 26.9389C33.9586 27.6413 33.4501 28.1964 32.5764 28.1611C31.9224 28.1346 31.3494 27.855 30.8449 27.4443C30.3059 27.0055 29.9889 26.4142 29.8182 25.7607C29.5974 24.9155 29.4245 24.0623 29.583 23.1708C29.6987 22.52 29.9397 21.9253 30.2918 21.3844C30.7438 20.6903 31.2277 20.0142 31.7369 19.3609C32.487 18.3986 33.4527 17.8352 34.633 17.9099ZM34.5285 20.1437C34.5275 20.1562 34.5264 20.1687 34.5253 20.1812C33.8582 20.1812 33.1889 20.1501 32.5248 20.195C32.2168 20.2158 31.9122 20.3691 31.621 20.4964C31.5463 20.5291 31.4857 20.6963 31.4982 20.7912C31.5068 20.8568 31.6461 20.9372 31.7373 20.9537C31.9698 20.9957 32.2078 21.0105 32.4441 21.0276C33.6807 21.117 34.9177 21.2007 36.1541 21.2936C36.4704 21.3174 36.5871 21.2005 36.6742 20.7193C36.7241 20.4439 36.5479 20.3412 36.328 20.3164C35.7293 20.2488 35.1285 20.1999 34.5285 20.1437ZM34.0562 26.1598C33.9005 26.2291 33.7682 26.2911 33.6336 26.3473C33.2875 26.492 32.9625 26.6448 32.5577 26.4635C31.6375 26.0511 30.9887 25.354 30.4193 24.5567C30.3589 24.4722 30.262 24.4141 30.182 24.3437C30.1527 24.4408 30.0937 24.5394 30.0987 24.6346C30.1661 25.9075 30.769 27.0456 32.1632 27.4343C33.06 27.6844 33.8102 27.2478 34.0562 26.1598ZM32.2942 19.4831L32.3506 19.5984C32.3789 19.6103 32.4072 19.6324 32.4354 19.6322C32.5321 19.6317 32.6287 19.6219 32.7255 19.6182C33.8852 19.5744 35.0428 19.3459 36.206 19.5772C36.3009 19.596 36.3999 19.6175 36.4941 19.6084C36.5708 19.6011 36.6432 19.5498 36.7175 19.518C36.6749 19.4391 36.6517 19.3232 36.5859 19.2885C36.3973 19.1892 36.1936 19.1168 35.9919 19.0446C35.067 18.7134 34.1281 18.7108 33.1999 18.9989C32.8789 19.0985 32.595 19.3182 32.2942 19.4831ZM31.7768 23.1384C31.7897 22.6153 31.4897 22.3254 31.117 22.4904C30.897 22.5878 30.6882 22.7889 30.5607 22.9964C30.4099 23.2417 30.4326 23.5383 30.633 23.7811C30.8236 24.012 31.071 24.0877 31.3564 23.9973C31.6453 23.9057 31.7327 23.6711 31.7525 23.3959C31.7602 23.2887 31.7727 23.1818 31.7768 23.1384Z" fill="black"/>
<path d="M34.8782 17.1358C34.2981 17.1052 33.7762 16.8556 33.3131 16.4936C33.0272 16.2701 33.0986 15.7067 33.4306 15.5524C33.5318 15.5054 33.7222 15.5993 33.8493 15.6694C34.2111 15.8692 34.5606 16.0912 34.9171 16.3008C34.962 16.3272 35.019 16.3359 35.0717 16.3458C35.6132 16.4474 35.8077 16.228 35.6457 15.7052C35.5788 15.4894 35.5065 15.2733 35.4674 15.0519C35.4515 14.9619 35.4895 14.8144 35.5544 14.7722C35.6129 14.734 35.7587 14.7782 35.8365 14.8303C36.2511 15.1076 36.5515 15.7414 36.4354 16.1395C36.2659 16.7203 35.8339 17.0069 35.2572 17.0997C35.1404 17.1185 35.0213 17.1226 34.8782 17.1358Z" fill="black"/>
<path d="M31.5448 13.1875C32.2392 13.2379 32.7364 13.2687 33.0801 13.6729C33.1793 13.7896 33.2435 14.017 33.1968 14.1487C33.1656 14.237 32.8837 14.322 32.7605 14.2779C32.0504 14.0238 31.3491 14.0752 30.6319 14.2294C30.4237 14.2741 30.111 14.373 30.0226 14.0529C29.9365 13.7413 30.1994 13.5759 30.44 13.4931C30.8623 13.3476 31.302 13.2527 31.5448 13.1875Z" fill="black"/>
<path d="M32.0767 11.1021C32.2557 11.1374 32.4464 11.1459 32.61 11.2169C32.7319 11.2697 32.8753 11.3902 32.9019 11.5054C32.92 11.5837 32.7711 11.762 32.6648 11.7966C32.2775 11.9226 31.879 12.018 31.4802 12.1039C31.1129 12.1829 30.7404 12.2395 30.3688 12.2967C30.1585 12.3291 29.981 12.2845 29.9157 12.042C29.8466 11.7854 29.9492 11.6015 30.1859 11.5351C30.8052 11.3615 31.4315 11.2131 32.055 11.0547C32.0622 11.0705 32.0694 11.0863 32.0767 11.1021Z" fill="black"/>
<path d="M61.2903 12.4077C61.1867 12.5318 61.1322 12.5976 61.0773 12.663C60.4903 13.3634 59.7197 13.5269 58.858 13.4214C58.3081 13.3541 57.7924 13.2022 57.3068 12.9147C57.1124 12.7996 56.8391 12.795 56.5998 12.7854C56.3842 12.7768 56.1822 12.7823 56.0799 12.5538C55.9733 12.3158 56.0717 12.0937 56.2604 11.9869C56.7066 11.7345 57.1682 11.4993 57.6467 11.318C57.9367 11.2081 58.1083 11.4255 57.9785 11.724C57.8602 11.9958 57.9482 12.0809 58.2002 12.1565C59.1489 12.4408 59.9937 12.3073 60.694 11.5692C60.8755 11.3779 61.0304 11.3665 61.2477 11.5153C62.0051 12.034 62.4883 12.768 62.8514 13.5823C63.0518 14.0317 63.1887 14.5127 63.32 14.9889C63.4831 15.5803 63.1956 16.0948 62.946 16.5888C62.2576 17.951 61.5234 19.29 60.8352 20.6523C60.6093 21.0995 60.4849 21.597 60.2858 22.0593C59.9052 22.9431 58.6023 23.2781 57.8383 22.6969C57.7019 22.5931 57.5582 22.4803 57.4655 22.3401C56.6422 21.0956 55.7279 19.9 55.5487 18.3365C55.4791 17.7298 55.302 17.1339 55.1522 16.5386C54.9192 15.613 55.4319 14.9951 56.2346 14.7178C57.1347 14.4069 58.0748 14.5347 58.9951 14.6289C59.8615 14.7176 60.7225 14.8664 61.5817 15.0128C61.8087 15.0515 62.0242 15.1709 62.2384 15.2676C62.5087 15.3896 62.6135 15.3368 62.5674 15.043C62.4504 14.2978 62.1478 13.6221 61.7299 12.9981C61.6059 12.8129 61.4639 12.6396 61.2903 12.4077ZM56.0812 15.4267C56.6022 15.6569 57.0163 15.8966 57.4626 16.0193C57.8284 16.1199 58.1452 16.2503 58.4173 16.5111C58.4975 16.5879 58.616 16.6704 58.7179 16.6715C59.6953 16.6829 60.6733 16.6919 61.6502 16.6659C61.8743 16.66 62.1373 16.5827 62.2465 16.3062C60.766 14.9246 58.9663 14.8687 57.1213 15.0042C56.7778 15.0294 56.4357 15.0911 56.0812 15.4267ZM60.9518 18.9051C60.9205 18.8789 60.8891 18.8528 60.8577 18.8266C60.7906 18.8737 60.7164 18.9132 60.6575 18.969C59.8176 19.7641 58.8805 19.7141 57.8983 19.2932C57.3825 19.0721 57.0953 18.6297 56.8047 18.1853C56.7185 18.0534 56.5946 17.9461 56.4879 17.8276C56.4533 17.8487 56.4187 17.8699 56.384 17.891C56.3863 18.8018 56.5431 19.6737 57.2217 20.3601C57.8756 21.0215 58.6777 21.0655 59.5009 20.759C60.3633 20.4379 60.553 19.5869 60.9518 18.9051ZM59.7052 21.6659C59.2933 21.7279 58.9372 21.8186 58.5797 21.8248C58.229 21.8309 57.8769 21.7511 57.5254 21.709C57.9404 22.2516 58.4865 22.2919 59.0645 22.1778C59.3298 22.1254 59.5995 22.0464 59.7052 21.6659Z" fill="black"/>
<path d="M56.728 8.26953C57.1011 8.3701 57.5296 8.46023 57.936 8.61032C58.0603 8.65623 58.1776 8.86116 58.1925 9.0043C58.1999 9.07546 57.9777 9.22416 57.8437 9.24752C57.1877 9.36186 56.5261 9.44383 55.8671 9.54135C55.5479 9.58857 55.2313 9.65469 54.9113 9.69419C54.5859 9.73436 54.4877 9.59574 54.6297 9.29761C54.8471 8.84086 55.2863 8.65898 55.7156 8.49703C56.0113 8.38552 56.337 8.35386 56.728 8.26953Z" fill="black"/>
<path d="M61.9208 8.39062C62.6189 8.47248 63.2575 8.64724 63.7972 9.07662C63.9296 9.18192 63.9837 9.38575 64.0738 9.54428C63.9168 9.61782 63.7526 9.76518 63.6041 9.75085C63.1806 9.71001 62.7571 9.62678 62.3456 9.51592C61.9431 9.4075 61.5492 9.25927 61.1629 9.10074C60.8606 8.97667 60.8434 8.77603 61.134 8.62921C61.375 8.50747 61.657 8.46707 61.9208 8.39062Z" fill="black"/>
<path d="M51.3533 15.1915C51.2658 15.4115 51.196 15.6121 51.1043 15.8019C51.0778 15.8567 50.9824 15.9172 50.9289 15.9089C50.8746 15.9005 50.7861 15.8028 50.7934 15.7571C50.8381 15.4768 50.8994 15.1984 50.9736 14.9244C50.9831 14.8892 51.1397 14.8477 51.158 14.8692C51.2347 14.9589 51.2846 15.0716 51.3533 15.1915Z" fill="black"/>
<path d="M97.9176 38.5093C97.8001 39.1088 97.7077 39.6623 97.582 40.2081C97.1282 42.1789 96.9781 44.1713 97.1252 46.1874C97.1943 47.1345 97.2643 48.0816 97.3286 49.0291C97.3876 49.899 97.5694 50.7323 98.0098 51.4975C98.0714 51.6046 98.1075 51.7407 98.1102 51.8644C98.1154 52.1089 97.8799 52.2735 97.7021 52.1214C97.3986 51.8617 97.1183 51.5567 96.8945 51.2259C96.499 50.641 96.3798 49.9568 96.3174 49.2641C96.2604 48.6302 96.1745 47.9972 96.1543 47.3621C96.1394 46.8932 96.2141 46.4219 96.2405 45.9513C96.2647 45.5212 96.3224 45.0868 96.2873 44.6607C96.1674 43.2041 96.4437 41.8024 96.8394 40.4192C97.01 39.8227 97.2591 39.2485 97.4777 38.6661C97.5072 38.5874 97.5554 38.5085 97.6151 38.4504C97.6698 38.3973 97.765 38.3297 97.8179 38.3463C97.8728 38.3636 97.8983 38.4743 97.9176 38.5093Z" fill="black"/>
<path d="M3.72852 46.1641L13.9299 47.5288L13.8144 48.1235L3.72852 46.7038V46.1641Z" fill="black"/>
<path d="M17.8141 31.8555C19.2257 32.8007 20.7686 33.5622 22.3716 34.106C23.5734 34.4746 24.8041 34.7038 26.0438 34.9005C26.4605 34.9577 26.8807 34.9924 27.316 35.0391L27.3241 35.1041C25.1249 35.8302 22.9776 35.0393 21.0036 34.0553C19.8541 33.4573 18.7565 32.7486 17.7733 31.9067C17.7733 31.9067 17.8141 31.8555 17.8141 31.8555Z" fill="black"/>
</svg>
