<svg viewBox="0 0 97 90" fill="none" xmlns="http://www.w3.org/2000/svg">
<path d="M96.4957 79.6067C96.4534 76.942 94.4466 73.3122 93.5594 70.8364C92.3659 67.4794 91.2041 64.1119 89.9578 60.7863C90.1691 60.545 90.3064 60.2198 90.3486 59.9156C91.9118 48.3024 93.0208 36.6472 93.5806 24.9395C93.8552 19.2431 94.0453 13.5361 94.0347 7.82917C94.0347 4.619 93.9608 2.44743 90.581 1.51375C88.701 0.999706 86.3879 1.35639 84.4339 1.32492C81.3815 1.28296 78.3291 1.24099 75.2767 1.18854C69.4783 1.10461 63.6798 1.0102 57.8707 0.926271C45.6506 0.747929 33.441 0.632531 21.2314 0.496151C20.0379 0.485661 19.7844 1.9124 20.4498 2.55233C20.4498 2.55233 20.4498 2.55233 20.4498 2.56282C19.8372 13.9348 19.5204 25.3172 19.1718 36.6996C19.0028 42.1128 18.1156 48.0401 18.8022 53.4113C18.9078 54.2401 19.0873 55.0269 19.3831 55.7298C19.3514 55.7508 19.3197 55.7613 19.288 55.7927C13.9754 60.7653 9.16968 66.3674 4.42738 71.875C3.1177 73.3962 1.68128 75.2845 2.37837 76.7742C1.61791 78.5261 1.10037 80.3305 0.572277 82.1769C0.403286 82.7644 0.868011 83.2679 1.43835 83.2994C20.5449 84.6003 39.6514 85.9431 58.7685 87.202C68.158 87.8209 77.5687 88.7021 86.9794 89.0588C90.7183 89.1952 96.6435 87.8419 94.7635 82.8378C95.8197 82.3343 96.5379 81.3796 96.5062 79.5962L96.4957 79.6067ZM21.2103 47.4841C21.3476 42.6898 21.4849 37.9061 21.6222 33.1118C21.9074 23.0302 22.1925 12.9591 22.2453 2.87755C42.6721 3.18178 63.0883 3.44404 83.5151 3.68533C86.071 3.7168 90.412 2.99294 91.6689 6.03525C92.3765 7.75573 91.616 11.3645 91.5738 13.2424C91.4576 18.3514 91.2464 23.4499 90.9401 28.5483C90.3381 38.6089 89.3558 48.6381 88.0461 58.6252C68.4326 57.167 48.7663 56.4641 29.1 56.6005C26.3222 56.6215 23.0164 57.2195 21.3476 54.2506C20.4709 52.7085 21.1786 49.1731 21.2208 47.4841H21.2103ZM80.5894 86.4361C76.9455 86.2053 73.3122 85.9745 69.6684 85.7438C62.0849 85.2612 54.5015 84.7786 46.918 84.317L2.53679 81.5999C2.84309 80.3305 3.1177 79.0821 3.30782 77.8023C3.55074 77.9701 3.82535 78.1275 4.16333 78.2639C6.3074 79.1556 9.18024 78.7884 11.4511 78.9143C15.1055 79.1136 18.7493 79.3234 22.4038 79.5228C30.0084 79.9424 37.6129 80.3725 45.2175 80.7921C59.8247 81.6104 74.4212 82.4182 89.0284 83.2365C90.1479 83.2994 91.4154 83.4043 92.5877 83.3309C94.4889 88.4923 82.2054 86.5306 80.5788 86.4257L80.5894 86.4361ZM89.0389 80.7292C86.3034 80.5823 83.5679 80.425 80.8218 80.2676C69.869 79.6591 58.9163 79.0507 47.9636 78.4317C37.3172 77.8337 26.6708 77.2358 16.0244 76.6483C14.2183 76.5434 9.43373 77.1099 7.80719 76.1867C4.2267 74.162 8.82114 70.6371 10.3843 68.8012C13.6902 64.9302 17.0278 60.9752 19.9745 56.8208C20.4921 57.5657 21.2103 58.1741 22.1925 58.5623C23.4072 59.0344 24.8119 59.2547 26.2906 59.3281C25.2238 59.9785 24.231 60.7968 23.291 61.6885C22.8051 61.6675 22.3193 61.6466 21.844 61.6256C21.2525 61.5941 21.2631 62.4963 21.844 62.5278C22.0341 62.5383 22.2137 62.5488 22.4038 62.5593C21.5799 63.388 20.7878 64.2378 20.0062 65.0141C18.4431 66.5772 16.7003 68.2138 15.3273 70.0496C15.0315 70.0287 14.7464 70.0182 14.4506 69.9972C13.8381 69.9657 13.8803 70.8469 14.4506 70.9204C14.5351 70.9308 14.6196 70.9413 14.7041 70.9518C14.4718 71.319 14.25 71.6862 14.0493 72.0743C13.9542 72.2527 14.1549 72.5045 14.345 72.3681C14.9048 71.9799 15.4329 71.5498 15.9504 71.0987C16.9855 71.2246 18.0206 71.34 19.0556 71.4659C18.4431 72.0743 17.8305 72.6723 17.2073 73.2703C16.8799 73.585 17.3763 74.0676 17.7037 73.7633C18.4959 73.0395 19.288 72.3156 20.0907 71.5918C22.351 71.854 24.6112 72.1058 26.882 72.3576C26.6708 72.7982 26.4595 73.2283 26.2589 73.6584C26.0476 74.1095 26.6285 74.4243 26.9137 74.0466C27.2939 73.543 27.6742 73.029 28.0544 72.494C30.0084 72.7038 31.9623 72.9031 33.9163 73.0919C33.6733 73.5955 33.4515 74.0991 33.1981 74.6026C32.8918 75.2006 33.7684 75.7146 34.1064 75.1376C34.476 74.5082 34.8352 73.8787 35.1943 73.2283C36.6835 73.3752 38.1622 73.5116 39.6514 73.6375C39.5247 73.9417 39.3979 74.2459 39.2606 74.5397C38.9754 75.1586 39.8415 75.7041 40.2006 75.0852C40.4541 74.6551 40.697 74.204 40.9188 73.7529C42.7988 73.9207 44.6789 74.0781 46.5589 74.2249C46.5589 74.4138 46.5589 74.6131 46.58 74.8019C46.6117 75.4419 47.5095 75.4209 47.5728 74.8019C47.594 74.6341 47.6151 74.4662 47.6362 74.2984C49.8331 74.4662 52.0405 74.6236 54.2374 74.7705C53.8572 75.7986 53.4558 76.8266 53.0545 77.8547C52.8432 78.3898 53.6776 78.694 53.9628 78.2324C54.5965 77.2043 55.188 76.0608 55.7266 74.8754C57.8073 75.0117 59.8775 75.1271 61.9582 75.232C62.0004 75.9139 62.0321 76.5854 62.0532 77.2568C62.0744 77.8967 63.0461 77.9072 63.0566 77.2568C63.0777 76.6168 63.1094 75.9664 63.1411 75.3055C64.736 75.3894 66.3414 75.4524 67.9362 75.5258C67.9996 76.3231 68.0735 77.1099 68.1369 77.8757C68.2108 78.6625 69.3938 78.694 69.3938 77.8757C69.3938 77.1204 69.4149 76.3546 69.4466 75.5887C71.4005 75.6622 73.3439 75.7146 75.2873 75.7671C75.3824 76.4804 75.4669 77.1833 75.5302 77.8757C75.6147 78.7464 76.9455 78.7884 76.9244 77.8757C76.9139 77.2043 76.9033 76.5119 76.9033 75.8195C79.1213 75.872 81.3393 75.9035 83.5573 75.9244C83.8847 77.1938 84.1593 78.4947 84.3389 79.8585C84.4234 80.4774 85.4796 80.3305 85.4373 79.7116C85.3528 78.4947 85.2366 77.2253 85.0782 75.9349C85.5746 75.9349 86.071 75.9454 86.5675 75.9454C87.4758 75.9454 87.4547 74.6236 86.5675 74.5606C85.9971 74.5187 85.4373 74.4767 84.867 74.4348C84.2649 70.5217 83.1559 66.5667 81.0224 63.451C80.5471 62.7586 79.2903 63.1572 79.586 64.0594C79.6388 64.2273 79.6916 64.3846 79.7444 64.542C72.3722 63.6503 64.8205 63.5349 57.3637 63.2726C57.2581 63.2412 57.1631 63.2412 57.068 63.2726C55.4837 63.2202 53.91 63.1572 52.3468 63.0838C46.0836 62.7691 39.8204 62.4753 33.5572 62.1921C33.4304 61.8983 32.934 61.8354 32.7122 62.1396C32.7122 62.1396 32.7122 62.1396 32.7122 62.1501C30.3886 62.0452 28.0755 61.9403 25.7519 61.8354C26.4701 61.143 27.1461 60.4296 27.7164 59.6533C27.7798 59.5694 27.8009 59.475 27.8009 59.3911C30.7477 59.3806 33.8635 58.9609 36.3666 58.9714C42.1334 58.9924 47.9003 59.0868 53.6565 59.2547C64.9472 59.5799 76.2273 60.1884 87.4863 61.0381C87.4969 61.101 87.5075 61.1535 87.5286 61.2164C89.1129 66.0002 90.845 70.7315 92.5244 75.4838C92.7779 76.2182 93.7496 77.9072 93.6439 78.652C93.2109 81.6104 90.845 80.8446 89.0389 80.7502V80.7292ZM28.9099 62.9999C29.9344 63.0628 30.9589 63.1258 31.9834 63.1887C31.3392 64.1538 30.716 65.161 30.1245 66.189C28.8043 66.1366 27.4841 66.0736 26.1638 66.0212C27.0616 65.1505 27.9593 64.2692 28.8149 63.367C28.931 63.2412 28.9416 63.1153 28.9099 62.9999ZM38.9015 63.6293C43.084 63.9021 47.2665 64.1643 51.4491 64.4161C53.1284 64.521 54.8183 64.6364 56.5082 64.7728C56.3604 65.6226 56.223 66.4828 56.1069 67.343C54.248 67.2696 52.3891 67.1962 50.5407 67.1122C49.9493 67.0808 49.3578 67.0598 48.7558 67.0283C48.8614 66.3674 48.967 65.717 49.0515 65.0561C49.1466 64.3427 48.1115 64.3322 47.8897 64.8987C47.6256 65.5596 47.425 66.252 47.2454 66.9654C45.8829 66.9024 44.5204 66.8395 43.1474 66.7765C43.2424 65.9897 43.2953 65.2029 43.2741 64.4161C43.2636 63.9021 42.4503 63.7447 42.3341 64.2902C42.1546 65.1085 41.975 65.9163 41.7955 66.7136C40.5914 66.6611 39.3873 66.6087 38.1833 66.5457C38.4685 65.675 38.7219 64.7938 38.9121 63.9126C38.9332 63.8077 38.9226 63.7132 38.9121 63.6293H38.9015ZM55.8639 68.8747C55.7478 69.5566 55.621 70.2385 55.4626 70.9099C55.3358 71.4029 55.1985 71.8855 55.0507 72.3786C52.6848 72.2317 50.3189 72.0848 47.9531 71.9485C48.1326 70.742 48.3439 69.5461 48.5445 68.3396C49.2099 68.3816 49.8753 68.4341 50.5302 68.476C52.3046 68.5914 54.079 68.7278 55.8639 68.8642V68.8747ZM46.9602 68.2242C46.7384 69.4202 46.6117 70.6476 46.5695 71.8645C45.0168 71.7701 43.4537 71.6757 41.9011 71.5918C42.3658 70.4063 42.7249 69.1894 42.9573 67.941C44.2881 68.0354 45.6294 68.1298 46.9602 68.2242ZM41.5103 67.8361C41.204 69.074 40.8554 70.2909 40.4541 71.4974C39.0494 71.4134 37.6341 71.3295 36.2293 71.2561C36.8208 70.0601 37.3595 68.8222 37.8242 67.5738C39.0599 67.6577 40.2851 67.7417 41.5209 67.8361H41.5103ZM25.4456 66.6821C26.8503 66.787 28.2551 66.8919 29.6598 66.9968C28.9627 68.2452 28.2973 69.5146 27.6636 70.7735C25.5723 70.6581 23.4811 70.5322 21.4004 70.4168C22.7629 69.1894 24.1148 67.9515 25.4456 66.6821ZM20.2069 70.3434C19.1296 70.2804 18.0523 70.2175 16.9749 70.1545C18.2529 68.9061 19.457 67.5528 20.7033 66.3254C21.8334 66.4094 22.953 66.4933 24.0831 66.5772C22.7734 67.8151 21.4849 69.074 20.2069 70.3434ZM31.4342 67.1227C33.0607 67.2381 34.6978 67.3535 36.3244 67.4689C35.8385 68.7173 35.3316 69.9447 34.8035 71.1721C32.934 71.0672 31.054 70.9623 29.1845 70.8469C29.9767 69.6405 30.7477 68.3921 31.4342 67.1122V67.1227ZM37.8347 63.6188C37.4545 64.5735 37.0743 65.5281 36.7046 66.4828C35.0886 66.4094 33.4832 66.3359 31.8673 66.2625C32.3742 65.2659 32.8284 64.2692 33.2297 63.2621C34.7718 63.3566 36.3244 63.451 37.8664 63.5559C37.8559 63.5769 37.8347 63.5873 37.8242 63.6188H37.8347ZM24.7274 65.9687C23.5656 65.9268 22.3932 65.8638 21.2314 65.8219C22.351 64.7728 23.5761 63.7762 24.7485 62.7271C25.8575 62.8005 26.9665 62.874 28.0861 62.9369C26.9454 63.9126 25.8258 64.9302 24.7274 65.9583V65.9687ZM57.9024 64.8777C59.2121 64.9826 60.5218 65.0875 61.842 65.1924C61.7469 65.9687 61.6836 66.7555 61.6624 67.5528C60.3739 67.5004 59.0959 67.4584 57.8179 67.406C57.913 66.5562 57.9446 65.7065 57.9024 64.8777ZM61.6519 69.3258C61.673 70.4798 61.7258 71.6442 61.7892 72.8087C60.0782 72.7038 58.3671 72.5779 56.6561 72.473C57.0469 71.34 57.3532 70.1755 57.575 69.011C58.9375 69.116 60.2894 69.2314 61.6519 69.3363V69.3258ZM67.7567 67.8151C66.3097 67.7417 64.8521 67.6787 63.4052 67.6158C63.384 66.829 63.3207 66.0632 63.2362 65.2973C64.8204 65.4232 66.4047 65.5386 67.989 65.6435C67.8834 66.3569 67.7989 67.0808 67.7567 67.8151ZM67.7567 73.2073C66.2569 73.1129 64.7571 72.9975 63.2679 72.9031C63.3312 71.7596 63.3946 70.6056 63.4052 69.4622C64.831 69.5671 66.2569 69.672 67.6827 69.7664C67.6722 70.9099 67.7039 72.0639 67.7672 73.2073H67.7567ZM74.6642 70.1126C74.7275 71.3085 74.8543 72.515 75.0021 73.7109C73.1749 73.585 71.3477 73.4486 69.5205 73.3332C69.5733 72.1897 69.6367 71.0358 69.6789 69.8923C71.3372 69.9867 73.0059 70.0601 74.6642 70.1231V70.1126ZM69.7001 65.7484C71.4111 65.8533 73.1221 65.9268 74.8332 65.9792C74.7909 66.0632 74.7487 66.1576 74.7381 66.2625C74.6642 66.9234 74.6325 67.5948 74.6219 68.2767C72.9954 68.1403 71.3583 68.0354 69.7317 67.941C69.7317 67.2066 69.7317 66.4828 69.7001 65.7484ZM81.6139 69.8503C82.142 71.3295 82.649 72.8087 83.0926 74.3089C81.0224 74.1515 78.9629 73.9837 76.8927 73.8368C76.8927 72.6094 76.8716 71.382 76.7871 70.165C78.213 70.1965 79.6283 70.207 81.0541 70.186C81.3499 70.186 81.5294 70.0286 81.6139 69.8398V69.8503ZM81.3182 69.0215C81.2442 68.9796 81.1597 68.9481 81.0541 68.9376C79.586 68.7488 78.1074 68.5914 76.6287 68.455C76.5231 67.6368 76.3963 66.8395 76.2062 66.0632C76.2062 66.0422 76.1851 66.0317 76.1851 66.0107C77.537 66.0422 78.8889 66.0422 80.2409 66.0107C80.6 67.0283 80.9591 68.0249 81.3182 69.011V69.0215Z" fill="black"/>
<path d="M85.734 9.53125L30.8919 10.5106L26.9746 50.6628H29.9126H42.6438H57.3336L83.7754 53.6008L85.734 9.53125Z" fill="#00953B"/>
<path d="M84.8995 9.30295C84.815 8.99872 84.5615 8.73645 84.1391 8.71547C72.6477 8.15946 61.0929 8.55811 49.591 8.58958C44.1411 8.60007 38.67 8.52664 33.2306 8.75744C31.6674 8.82038 29.5234 8.63155 29.555 10.6248C29.555 10.6877 29.5762 10.7612 29.6079 10.8241C29.5867 10.8766 29.555 10.9185 29.5445 10.971C26.9568 23.5179 25.8056 36.904 26.1435 49.6922C26.1647 50.5839 27.4532 50.563 27.5272 49.6922C28.5411 36.8096 29.7874 24.0319 31.1816 11.1913C31.2027 11.0129 31.1499 10.8661 31.0548 10.7402C32.2166 10.7821 36.3147 10.5828 36.8745 10.5828C39.2931 10.6143 41.7224 10.6143 44.1516 10.6248C48.3975 10.6248 52.6328 10.6143 56.8787 10.6248C65.962 10.6458 75.0875 10.8241 84.1496 10.352C84.3925 10.3415 84.5721 10.2471 84.6988 10.1107C83.9173 24.1893 83.0829 38.5511 83.5476 52.6506C65.0748 49.6083 45.3451 48.1186 26.735 50.479C26.1119 50.563 26.0696 51.5176 26.735 51.4757C45.9788 50.3427 64.5361 53.1227 83.6427 54.5075C84.0229 54.5389 84.3081 54.3082 84.4454 54.0144C84.7094 53.941 84.9418 53.7312 84.984 53.3745C86.5472 39.0232 86.7479 24.2942 86.9908 9.86945C87.0119 8.64204 85.4593 8.4637 84.9101 9.28197L84.8995 9.30295Z" fill="black"/>
</svg>
