<svg viewBox="0 0 62 82" fill="none" xmlns="http://www.w3.org/2000/svg">
<path d="M42.94 29.118C42.946 29.114 42.953 29.111 42.959 29.107C43.1808 28.9829 43.3935 28.8498 43.5971 28.7087C43.5971 28.7087 43.6001 28.7067 43.6011 28.7057C45.2596 27.5588 46.305 25.8925 46.305 24.0351C46.305 20.5765 42.6831 17.7734 38.2155 17.7734C34.9117 17.7734 32.0734 19.3076 30.8172 21.5052V21.5062C30.7721 21.5853 30.729 21.6654 30.6878 21.7454C30.6858 21.7494 30.6828 21.7544 30.6808 21.7584C30.6387 21.8425 30.5985 21.9266 30.5604 22.0116L30.5454 22.0477C30.4962 22.1607 30.451 22.2758 30.4099 22.3919L30.3999 22.4199C30.3567 22.545 30.3186 22.6721 30.2845 22.8002L30.2785 22.8272C30.2504 22.9383 30.2263 23.0504 30.2062 23.1635L30.1892 23.2686C30.1741 23.3606 30.1631 23.4537 30.1531 23.5468L30.142 23.6559C30.132 23.782 30.126 23.9081 30.126 24.0351C30.126 25.5483 30.8192 26.9363 31.973 28.0191C32.1376 28.1743 32.3121 28.3224 32.4947 28.4635C32.6783 28.6056 32.87 28.7397 33.0696 28.8678C33.17 28.9318 33.2713 28.9939 33.3756 29.0539C34.1261 29.4882 34.9769 29.8225 35.8959 30.0347C36.6313 30.2048 37.4088 30.2979 38.2165 30.2979H38.2175C38.4382 30.2979 38.6559 30.2888 38.8726 30.2758L38.972 30.2698C39.1776 30.2548 39.3813 30.2338 39.583 30.2068L39.6933 30.1918C39.896 30.1628 40.0966 30.1287 40.2943 30.0887L40.3645 30.0737C40.5692 30.0297 40.7719 29.9816 40.9705 29.9256L40.9785 29.9236C41.1792 29.8675 41.3768 29.8025 41.5695 29.7344L41.6337 29.7114C41.8223 29.6434 42.0079 29.5693 42.1885 29.4902L42.2417 29.4662C42.353 29.4172 42.4624 29.3642 42.5698 29.3111C42.5878 29.3021 42.6059 29.2931 42.6229 29.2841C42.7303 29.2301 42.8366 29.174 42.941 29.116L42.94 29.118Z" fill="#313131"/>
<path d="M58.7934 48.1757C58.4623 48.0156 58.1453 47.8685 57.8423 47.7344C58.1473 47.8705 58.4613 48.0136 58.7944 48.1757H58.7934Z" fill="#EC639A"/>
<path d="M36.041 37.3429C36.1795 37.3409 36.3179 37.3379 36.4554 37.3439C36.35 37.3389 36.2447 37.3359 36.1393 37.3359L36.041 37.3419V37.3429Z" fill="#FBBB2B"/>
<path d="M39.7461 36.376C39.9437 36.376 40.1404 36.384 40.336 36.402C40.1464 36.384 39.9568 36.375 39.7662 36.375H39.7461V36.376Z" fill="#FBBB2B"/>
<path d="M58.0731 47.2539C57.14 48.6359 56.0986 49.9389 54.9639 51.1548C55.0823 51.433 55.1966 51.7123 55.309 51.9945C56.3554 50.4993 57.2835 48.9162 58.0731 47.2539Z" fill="#11A64B"/>
<path d="M42.2671 31.0998C42.219 31.0978 42.1678 31.0958 42.1187 31.0938C42.1678 31.0968 42.218 31.0978 42.2671 31.0998Z" fill="#362767"/>
<path d="M39.4781 31.0677C39.8022 31.0587 40.1172 31.0547 40.4222 31.0547C40.1162 31.0547 39.8022 31.0587 39.4781 31.0677Z" fill="#362767"/>
<path d="M49.7257 31.334C49.5742 31.357 49.4237 31.378 49.2742 31.395C49.1548 31.409 49.0354 31.415 48.916 31.4241C49.0354 31.414 49.1548 31.408 49.2742 31.395C49.4237 31.378 49.5742 31.358 49.7257 31.334Z" fill="#362767"/>
<path d="M41.8107 31.0822C41.7344 31.0792 41.6582 31.0762 41.5809 31.0742C41.6582 31.0772 41.7344 31.0792 41.8107 31.0822Z" fill="#362767"/>
<path d="M41.2088 31.0646C41.1436 31.0625 41.0794 31.0615 41.0142 31.0605C41.0804 31.0615 41.1446 31.0635 41.2088 31.0646Z" fill="#362767"/>
<path d="M57.9848 36.8317C58.8396 35.4717 59.7686 34.4259 60.0626 32.7987C60.3054 31.4517 60.2703 29.8975 59.5971 28.6706C59.1627 27.88 58.5396 27.5918 57.8604 27.5918C56.9033 27.5918 55.8368 28.1632 55.0341 28.7026C54.3479 29.163 53.7419 29.7574 53.0416 30.1877C52.9503 30.2438 52.854 30.2948 52.7597 30.3469C52.869 31.6058 52.9252 33.191 52.0263 34.2018C51.0631 35.2836 49.3946 35.3947 48.0412 35.3957C46.2162 35.3957 44.4003 35.2996 42.5733 35.3776C38.6856 35.5438 34.8289 36.1622 31.0806 37.205C28.3346 37.9696 25.5455 39.3686 22.632 39.2205C21.0197 39.1385 19.6361 38.2438 19.2689 36.6146C19.0592 35.6859 19.1275 34.7322 19.1997 33.7794C17.6998 33.2841 16.0755 32.4494 14.1793 31.2265C13.799 30.9833 13.3746 30.8542 12.9412 30.8542C12.8599 30.8542 12.7777 30.8593 12.6954 30.8683C11.5496 30.9974 10.5373 31.9821 10.2875 33.205C9.94939 34.8703 10.9828 36.8488 13.1268 38.6391C17.4269 42.2298 20.0475 45.8245 22.1524 48.7147C25.5796 53.4192 27.837 56.5135 35.0767 56.5225C35.0466 55.1375 35.0135 53.7545 34.9473 52.3774C34.9162 51.7199 34.867 51.0464 34.7928 50.3689C34.5701 48.3374 34.1296 46.2698 33.333 44.4855C32.9829 43.6999 31.4057 41.118 28.3878 40.8928C28.4761 40.7667 28.6015 40.6226 28.758 40.4675C28.9155 40.3114 29.1052 40.1432 29.3229 39.9691C29.65 39.7079 30.0392 39.4317 30.4767 39.1615C31.788 38.3489 33.5287 37.5823 35.2864 37.3852C35.5382 37.3571 35.7901 37.3451 36.0409 37.3421L36.1392 37.3361C36.2446 37.3361 36.3499 37.3391 36.4552 37.3441C36.4552 37.3441 42.9495 40.2603 43.998 47.9851C43.998 47.9851 44.1866 46.3469 43.6689 44.2103C43.5655 43.783 43.4341 43.3356 43.2666 42.8773C43.1552 42.5721 43.0278 42.2618 42.8833 41.9496C42.7388 41.6374 42.5753 41.3231 42.3927 41.0089C42.3014 40.8518 42.2051 40.6946 42.1028 40.5385C41.7978 40.0692 41.4456 39.6048 41.0383 39.1535C40.9028 39.0034 40.7614 38.8543 40.6129 38.7072C39.8724 37.9716 38.9745 37.2821 37.8849 36.6806C38.0896 36.6136 38.2933 36.5575 38.4969 36.5135C38.6996 36.4695 38.9023 36.4354 39.1039 36.4134C39.3186 36.3894 39.5333 36.3784 39.746 36.3774H39.7661C39.9567 36.3774 40.1463 36.3854 40.336 36.4034H40.34C40.5376 36.4224 40.7353 36.4505 40.9319 36.4875C40.9971 36.4995 41.0603 36.5175 41.1256 36.5315C41.257 36.5605 41.3884 36.5886 41.5198 36.6246C41.5971 36.6456 41.6733 36.6726 41.7496 36.6966C41.867 36.7327 41.9844 36.7697 42.1018 36.8117C42.184 36.8418 42.2653 36.8758 42.3476 36.9078C42.4589 36.9518 42.5703 36.9959 42.6817 37.0459C42.7649 37.0829 42.8482 37.123 42.9315 37.162C43.0398 37.214 43.1492 37.2661 43.2575 37.3221C43.3418 37.3661 43.4261 37.4122 43.5104 37.4582C43.6167 37.5173 43.7241 37.5773 43.8294 37.6393C43.9137 37.6894 43.998 37.7404 44.0822 37.7925C44.1876 37.8575 44.2929 37.9246 44.3983 37.9936C44.4826 38.0477 44.5658 38.1037 44.6501 38.1607C44.7554 38.2328 44.8598 38.3058 44.9651 38.3799C45.0484 38.4399 45.1307 38.499 45.214 38.56C45.3193 38.6381 45.4246 38.7182 45.53 38.7992C45.6112 38.8623 45.6915 38.9243 45.7728 38.9874C45.8791 39.0724 45.9865 39.1585 46.0928 39.2456C46.1721 39.3106 46.2503 39.3747 46.3286 39.4397C46.437 39.5308 46.5453 39.6238 46.6537 39.7169C46.7299 39.782 46.8062 39.847 46.8814 39.9131C46.9928 40.0111 47.1041 40.1112 47.2155 40.2113C47.2877 40.2763 47.36 40.3404 47.4322 40.4064C47.5536 40.5175 47.675 40.6306 47.7964 40.7437C47.8566 40.7997 47.9168 40.8548 47.976 40.9108C48.1566 41.0809 48.3372 41.2531 48.5178 41.4272C50.1682 43.0224 51.632 44.9258 52.8861 47.0344C53.161 46.438 53.4379 45.8145 53.7258 45.163C54.991 42.3039 56.3163 39.4807 57.9838 36.8287L57.9848 36.8317Z" fill="#313131"/>
<path d="M22.5155 34.342C22.375 34.342 22.2356 34.338 22.0941 34.332C22.2346 34.339 22.375 34.342 22.5155 34.342Z" fill="#362767"/>
<path d="M42.3725 31.1058L42.2671 31.0998C42.219 31.0978 42.1678 31.0958 42.1187 31.0938C42.2039 31.0978 42.2892 31.1018 42.3725 31.1058Z" fill="white"/>
<path d="M41.2088 31.0646C41.1436 31.0625 41.0794 31.0615 41.0142 31.0605C41.0804 31.0615 41.1446 31.0635 41.2088 31.0646Z" fill="white"/>
<path d="M41.8107 31.0822C41.7344 31.0792 41.6582 31.0762 41.5809 31.0742C41.6582 31.0772 41.7344 31.0792 41.8107 31.0822Z" fill="white"/>
<path d="M52.7584 30.3477C51.8374 30.853 50.7669 31.1733 49.7255 31.3344C49.574 31.3584 49.4235 31.3784 49.274 31.3954C49.1546 31.4095 49.0352 31.4155 48.9158 31.4245C48.5577 31.4535 48.1995 31.4715 47.8373 31.4715C46.9033 31.4715 45.9441 31.3884 44.8907 31.2934C44.4131 31.2513 43.9104 31.2073 43.3767 31.1693C43.1239 31.1513 42.862 31.1342 42.5951 31.1202C42.5209 31.1152 42.4467 31.1112 42.3714 31.1072C42.2881 31.1022 42.2029 31.0992 42.1176 31.0952C42.0162 31.0902 41.9139 31.0862 41.8096 31.0822C41.7333 31.0792 41.6571 31.0762 41.5798 31.0742C41.4574 31.0702 41.333 31.0672 41.2076 31.0642C41.1424 31.0622 41.0782 31.0612 41.013 31.0602C40.8193 31.0562 40.6227 31.0542 40.421 31.0542C40.115 31.0542 39.801 31.0582 39.4769 31.0672C39.3144 31.0722 39.1509 31.0772 38.9833 31.0842C38.1486 31.1172 37.2536 31.1823 36.2865 31.2914C32.5362 31.7137 29.9547 32.5403 27.8849 33.2058C26.3509 33.7012 25.0266 34.1215 23.626 34.2796C23.4404 34.3006 23.2548 34.3156 23.0702 34.3266C22.8846 34.3377 22.6999 34.3427 22.5143 34.3427C22.3749 34.3427 22.2344 34.3387 22.093 34.3326C21.9796 34.3276 21.8652 34.3186 21.7508 34.3096L21.6977 34.3056C20.887 34.2366 20.0623 34.0654 19.1965 33.7802C19.1242 34.732 19.057 35.6857 19.2657 36.6154C19.6329 38.2446 21.0164 39.1383 22.6287 39.2213C25.5423 39.3694 28.3314 37.9704 31.0774 37.2058C34.8247 36.163 38.6823 35.5446 42.5691 35.3784C44.396 35.3004 46.212 35.3964 48.037 35.3964C49.3904 35.3964 51.0589 35.2854 52.022 34.2026C52.921 33.1928 52.8648 31.6076 52.7554 30.3477H52.7584Z" fill="white"/>
<path d="M52.7465 30.3693C52.1536 30.7515 51.4664 30.9967 50.7911 31.1959C48.7123 31.8123 46.4951 31.5982 44.3801 31.4381C42.9816 31.329 41.5248 31.2519 40.1282 31.2759C38.0032 31.301 35.8813 31.5131 33.7874 31.8664C31.6815 32.2086 29.6328 32.7801 27.5931 33.4155C26.2276 33.8279 24.8481 34.2552 23.4174 34.3743C21.9868 34.5114 20.533 34.3102 19.1695 33.8679L19.2909 33.7878C19.1655 35.413 19.1083 37.3995 20.6233 38.4023C23.2208 40.1226 27.7326 37.9399 30.4635 37.1273C34.0172 36.0595 37.6882 35.417 41.3903 35.1959C42.9103 35.0988 44.4443 35.1168 45.9633 35.1659C47.7652 35.1579 50.2273 35.5542 51.6951 34.3552C52.7556 33.4736 52.8057 31.9544 52.7496 30.6755C52.7455 30.5844 52.7425 30.4623 52.7455 30.3713L52.7465 30.3693ZM52.7706 30.3252C52.8429 30.7585 52.868 31.2039 52.875 31.6442C52.889 32.748 52.6502 33.9289 51.7272 34.6465C50.1581 35.8384 47.8194 35.5411 45.9573 35.5732C42.501 35.4981 39.0477 35.8053 35.6485 36.4268C33.0931 36.8872 30.592 37.5386 28.1429 38.4053C25.5464 39.2459 21.2885 40.5349 19.5357 37.6557C18.8615 36.4798 19.004 35.0538 19.1073 33.7728L19.1173 33.6547L19.2287 33.6917C23.8308 35.329 27.257 32.9992 31.6203 31.9384C33.6991 31.393 35.8321 31.0568 37.9772 30.9137C39.764 30.7976 41.5639 30.8246 43.3457 30.9717C45.1035 31.1038 46.8954 31.395 48.6551 31.317C50.0798 31.2719 51.4864 30.9427 52.7716 30.3242L52.7706 30.3252Z" fill="black"/>
<path d="M57.8591 26.3008C56.8187 26.3008 55.6238 26.7491 54.3085 27.6328C53.9533 27.871 53.6333 28.1272 53.3243 28.3753C52.9902 28.6425 52.6751 28.8947 52.3601 29.0889C51.5113 29.6103 50.3636 29.9735 49.1285 30.1126C48.7232 30.1577 48.3008 30.1807 47.8373 30.1807C46.9875 30.1807 46.1287 30.1096 45.007 30.0086C43.9596 29.9165 42.7978 29.8164 41.4494 29.7804C41.2938 29.8324 41.1363 29.8825 40.9768 29.9275L40.9688 29.9295C40.7701 29.9846 40.5685 30.0336 40.3628 30.0776L40.2926 30.0926C40.0949 30.1327 39.8953 30.1677 39.6916 30.1957L39.5812 30.2107C39.3796 30.2377 39.1759 30.2588 38.9702 30.2738L38.8709 30.2798C38.6552 30.2938 38.4365 30.3018 38.2158 30.3018H38.2148C37.4081 30.3018 36.6296 30.2097 35.8942 30.0386C32.1358 30.4839 29.5614 31.3105 27.4866 31.977C26.0981 32.4254 24.7868 32.8487 23.4805 32.9958C23.1564 33.0328 22.8303 33.0509 22.5143 33.0509C20.3241 33.0509 18.0407 32.1812 14.8803 30.1427C14.2863 29.7634 13.6172 29.5642 12.9389 29.5642C12.8085 29.5642 12.6771 29.5712 12.5477 29.5863C10.833 29.7794 9.38027 31.1624 9.01507 32.9498C8.57864 35.0944 9.77356 37.5302 12.2928 39.6328C16.4785 43.1284 19.0419 46.6481 21.1017 49.4772C24.6262 54.3138 27.1726 57.8085 35.0725 57.8175H35.1026C35.0925 57.3862 35.0835 56.9558 35.0745 56.5255C27.8347 56.5175 25.5784 53.4222 22.1501 48.7176C20.0452 45.8275 17.4236 42.2328 13.1245 38.6421C10.9805 36.8517 9.94613 34.8732 10.2852 33.208C10.5351 31.9851 11.5474 31.0003 12.6931 30.8712C12.7754 30.8622 12.8577 30.8572 12.9389 30.8572C13.3724 30.8572 13.7957 30.9863 14.177 31.2295C16.0732 32.4524 17.6975 33.286 19.1974 33.7824C20.0633 34.0676 20.888 34.2387 21.6986 34.3078L21.7518 34.3118C21.8662 34.3208 21.9806 34.3298 22.0939 34.3348C22.2344 34.3408 22.3749 34.3448 22.5153 34.3448C22.7009 34.3448 22.8855 34.3388 23.0711 34.3288C23.2567 34.3178 23.4413 34.3028 23.627 34.2818C25.0275 34.1247 26.3509 33.7043 27.8859 33.208C29.9557 32.5425 32.5372 31.7148 36.2874 31.2935C37.2536 31.1855 38.1495 31.1204 38.9843 31.0864C39.1508 31.0794 39.3154 31.0744 39.4779 31.0694C39.802 31.0604 40.117 31.0564 40.422 31.0564C40.6237 31.0564 40.8203 31.0584 41.0139 31.0624C41.0802 31.0634 41.1444 31.0654 41.2086 31.0664C41.334 31.0694 41.4584 31.0724 41.5808 31.0764C41.658 31.0794 41.7343 31.0814 41.8105 31.0844C41.9139 31.0884 42.0172 31.0924 42.1185 31.0974C42.1677 31.1004 42.2189 31.1014 42.267 31.1034L42.3724 31.1094C42.4476 31.1134 42.5219 31.1174 42.5961 31.1224C42.863 31.1374 43.1248 31.1534 43.3777 31.1714C43.9114 31.2095 44.4141 31.2535 44.8916 31.2955C45.9451 31.3906 46.9042 31.4737 47.8383 31.4737C48.2005 31.4737 48.5577 31.4557 48.9168 31.4266C49.0362 31.4166 49.1556 31.4106 49.275 31.3976C49.4245 31.3806 49.575 31.3606 49.7265 31.3366C50.7679 31.1754 51.8384 30.8552 52.7594 30.3498C52.8537 30.2978 52.95 30.2467 53.0413 30.1907C53.7416 29.7604 54.3486 29.1659 55.0339 28.7056C55.8375 28.1662 56.904 27.5948 57.8601 27.5948C58.5384 27.5948 59.1624 27.882 59.5968 28.6736C60.27 29.9005 60.3062 31.4547 60.0624 32.8017C59.7694 34.4279 58.8403 35.4747 57.9845 36.8347C56.3171 39.4867 54.9917 42.3098 53.7266 45.169C53.4386 45.8195 53.1617 46.4439 52.8868 47.0404C53.1587 47.4967 53.4116 47.9721 53.6644 48.4474L54.0647 47.5808C54.3426 46.9783 54.6215 46.3489 54.9125 45.6914C56.1054 42.9963 57.4357 40.1412 59.0831 37.5222C59.2617 37.239 59.4433 36.9688 59.6219 36.7056C60.254 35.7689 60.9031 34.8002 61.2322 33.5072C61.2713 33.3531 61.3084 33.196 61.3385 33.0328C61.6526 31.2885 61.485 29.6473 60.88 28.3573C60.8319 28.2563 60.7877 28.1512 60.7346 28.0541C60.1145 26.9252 59.0942 26.3038 57.8621 26.3038L57.8591 26.3008Z" fill="black"/>
<path d="M57.8593 26.3245C56.4015 26.3515 55.0691 27.1091 53.9184 27.9457C53.3375 28.3771 52.8077 28.8844 52.1686 29.2357C50.8874 29.9382 49.4096 30.2084 47.9598 30.2255C45.8349 30.2165 43.4872 29.8852 41.4776 29.8582C39.7489 30.4636 37.5347 30.5647 35.9104 30.1564C33.1012 30.4957 30.3602 31.1892 27.6824 32.0979C24.7608 33.0986 22.3248 33.7921 19.2738 32.6643C17.6606 32.0889 16.1887 31.2392 14.76 30.3295C14.4099 30.1074 14.0196 29.9442 13.6143 29.8582C12.6381 29.646 11.5806 29.9272 10.789 30.5297C9.40851 31.5404 8.84868 33.4048 9.30317 35.0361C9.65131 36.3691 10.462 37.546 11.4131 38.5367C11.8937 39.0421 12.4264 39.4854 12.9672 39.9548C14.0377 40.8895 15.063 41.8762 16.0312 42.915C17.9766 44.9815 19.6802 47.2593 21.3256 49.562C23.8849 53.1617 26.3209 56.3601 30.9039 57.3178C32.2805 57.6271 33.6961 57.7321 35.1057 57.7391L35.0295 57.8162L35.0004 56.5242L35.0766 56.5983C31.4899 56.6143 28.2442 55.8197 25.6588 53.2007C23.2519 50.7659 21.4981 47.7957 19.315 45.1757C17.5321 42.973 15.5667 40.9195 13.3986 39.0941C12.9702 38.7308 12.5197 38.3586 12.1164 37.9483C11.0258 36.8484 10.0566 35.4414 10.0285 33.8382C10.0145 32.4311 10.9787 31.0461 12.3813 30.7138C13.0625 30.5447 13.7979 30.7028 14.3718 31.0961L14.5514 31.2102C15.3871 31.7356 16.2439 32.236 17.1278 32.6713C19.1223 33.676 21.3416 34.3165 23.582 34.0453C25.8253 33.7811 27.9402 32.8564 30.1194 32.258C33.4212 31.3053 36.8565 30.8099 40.2947 30.7899C42.0144 30.7759 43.724 30.922 45.4305 31.0721C46.8281 31.1962 48.2347 31.2823 49.6253 31.0761C50.9837 30.8719 52.3452 30.4186 53.4378 29.593C53.8822 29.2607 54.3127 28.8824 54.7972 28.5472C55.9701 27.7676 57.6586 26.8239 59.0271 27.6635C59.4375 27.9267 59.7134 28.318 59.917 28.7423C60.3715 29.678 60.4929 30.7499 60.4327 31.7736C60.3314 33.7981 59.5538 34.933 58.4532 36.5302C56.8961 38.893 55.633 41.4359 54.4461 44.0008L53.0305 47.1011L53.0224 46.955L53.7929 48.3741L53.5311 48.3811C55.2497 44.7143 56.8068 40.9525 58.996 37.5299C60.0956 35.8767 61.1531 34.5387 61.3778 32.4812C61.736 30.0193 60.9344 26.3295 57.8593 26.3225V26.3245ZM57.8593 26.2745C60.3575 26.2655 61.3969 28.7093 61.5133 30.8699C61.6076 32.4942 61.2685 34.1544 60.4197 35.5545C59.8699 36.4872 59.2268 37.3548 58.691 38.2945C57.3215 40.6193 56.1888 43.0721 55.1113 45.542C54.6367 46.6178 54.1702 47.6996 53.6766 48.7654C53.6425 48.7134 52.8208 47.2332 52.7505 47.1162L52.7104 47.0441L52.7435 46.97C54.0598 43.9328 55.5096 40.5892 57.172 37.7401C57.462 37.2477 57.7529 36.7574 58.069 36.277C58.684 35.3433 59.3562 34.4356 59.6752 33.3648C60.0595 31.9437 60.0986 30.3175 59.4605 28.9635C59.297 28.6273 59.0662 28.287 58.7502 28.0919C57.6185 27.4043 56.0674 28.327 55.0952 28.9755C54.6447 29.2888 54.2204 29.663 53.7548 30.0143C52.8238 30.7278 51.6991 31.1792 50.5634 31.4454C48.303 31.9838 45.9663 31.6365 43.6848 31.4614C39.1761 31.0751 34.6061 31.4924 30.2548 32.7363C28.0526 33.3338 25.9307 34.2535 23.6321 34.5157C21.3105 34.7899 18.9739 34.1204 16.9272 33.0706C16.0302 32.6213 15.1654 32.1099 14.3206 31.5715L14.14 31.4554C13.6594 31.1181 13.0474 30.978 12.4736 31.1171C11.2606 31.3963 10.4098 32.6143 10.4178 33.8392C10.4419 35.3383 11.3559 36.6543 12.3682 37.7011C12.7585 38.1054 13.1819 38.4626 13.6173 38.8379C15.7824 40.6953 17.7428 42.7859 19.5166 45.0136C21.6777 47.6425 23.3974 50.6358 25.7862 53.0706C28.3275 55.6636 31.536 56.4532 35.0756 56.4462H35.1499L35.1519 56.5202L35.18 57.8122L35.182 57.8902H35.1047C33.6841 57.8862 32.2574 57.7842 30.8678 57.4739C26.2276 56.5102 23.7505 53.3278 21.1189 49.7101C18.6438 46.2825 15.96 42.978 12.7174 40.241C11.6248 39.3413 10.5312 38.3526 9.77371 37.1286C8.99215 35.9037 8.51358 34.4096 8.7935 32.9465C9.06238 31.4844 10.0978 30.1814 11.4933 29.621C12.1906 29.3458 12.9712 29.2587 13.7076 29.4168C14.2574 29.5249 14.7651 29.7821 15.2256 30.0934C16.5549 30.94 17.9435 31.7266 19.4183 32.258C20.7226 32.7323 22.1172 32.9565 23.4997 32.7904C24.8923 32.6303 26.2357 32.1789 27.576 31.7616C28.9265 31.3333 30.2929 30.931 31.6805 30.6198C33.0801 30.3075 34.5007 30.0583 35.9254 29.9172C36.6016 30.0783 37.2959 30.1684 37.9922 30.1874C38.6885 30.1994 39.3888 30.1564 40.073 30.0313C40.5375 29.9573 40.994 29.8302 41.4415 29.6901C43.6236 29.7321 45.7817 30.1094 47.9608 30.1274C49.7477 30.1154 51.6269 29.7291 53.0315 28.5672C54.415 27.4414 56.0092 26.3145 57.8623 26.2715L57.8593 26.2745Z" fill="black"/>
<path d="M42.188 29.4922C42.0074 29.5712 41.8218 29.6453 41.6332 29.7134C41.8228 29.6453 42.0074 29.5712 42.188 29.4922Z" fill="#E50F40"/>
<path d="M30.1265 24.0375C30.1265 23.9094 30.1325 23.7833 30.1425 23.6582C30.1325 23.7843 30.1265 23.9104 30.1265 24.0375C30.1265 25.5506 30.8197 26.9387 31.9735 28.0215C30.8197 26.9387 30.1265 25.5516 30.1265 24.0375Z" fill="#E50F40"/>
<path d="M30.1536 23.5477C30.1626 23.4547 30.1746 23.3616 30.1897 23.2695C30.1746 23.3616 30.1636 23.4547 30.1536 23.5477Z" fill="#E50F40"/>
<path d="M33.07 28.8691C32.8703 28.7411 32.6787 28.607 32.4951 28.4648C32.6787 28.607 32.8703 28.7421 33.07 28.8691Z" fill="#E50F40"/>
<path d="M30.4104 22.3931C30.4515 22.277 30.4957 22.1619 30.5458 22.0488C30.4967 22.1619 30.4515 22.277 30.4104 22.3931Z" fill="#E50F40"/>
<path d="M40.2938 30.0898C40.0962 30.1299 39.8965 30.1649 39.6929 30.1929C39.8955 30.1639 40.0962 30.1299 40.2938 30.0898Z" fill="#E50F40"/>
<path d="M40.978 29.9245C41.1386 29.8794 41.2951 29.8294 41.4506 29.7774L41.569 29.7363C41.3753 29.8044 41.1787 29.8684 40.978 29.9255V29.9245Z" fill="#E50F40"/>
<path d="M40.9698 29.9258C40.7711 29.9808 40.5694 30.0299 40.3638 30.0739C40.5684 30.0299 40.7711 29.9818 40.9698 29.9258Z" fill="#E50F40"/>
<path d="M38.8721 30.2773C38.6564 30.2914 38.4376 30.2994 38.2169 30.2994C38.4376 30.2994 38.6554 30.2904 38.8721 30.2773Z" fill="#E50F40"/>
<path d="M59.0823 37.518C57.4359 40.1369 56.1046 42.9921 54.9117 45.6871C54.6207 46.3446 54.3418 46.9741 54.0639 47.5765L53.6636 48.4432C53.7388 48.5843 53.8211 48.7184 53.8943 48.8615C54.2756 49.6061 54.6307 50.3726 54.9628 51.1532C56.0976 49.9373 57.139 48.6343 58.072 47.2523C57.2824 48.9145 56.3544 50.4977 55.308 51.9929L55.31 51.9989C56.2561 50.6478 57.1028 49.2228 57.8403 47.7336C59.9682 43.4354 61.1822 38.6078 61.2294 33.502C60.8993 34.7949 60.2512 35.7637 59.6191 36.7004C59.4405 36.9646 59.2589 37.2338 59.0803 37.517L59.0823 37.518Z" fill="#11A64B"/>
<path d="M14.2663 3.98787C5.46241 9.06369 0.201172 18.756 0.201172 29.6632C0.201172 47.0833 14.3586 61.2049 31.8228 61.2049C32.9645 61.2049 34.0912 61.1408 35.2009 61.0227C35.1637 60.1591 35.1387 59.2944 35.1176 58.4298C35.1126 58.2256 35.1086 58.0215 35.1035 57.8163H35.0734C27.1726 57.8073 24.6262 54.3127 21.1027 49.4761C19.0429 46.6469 16.4785 43.1263 12.2938 39.6317C9.77454 37.5291 8.57963 35.0933 9.01606 32.9486C9.38125 31.1613 10.833 29.7783 12.5486 29.5851C12.6781 29.5701 12.8095 29.5631 12.9399 29.5631C13.6171 29.5631 14.2873 29.7622 14.8813 30.1415C18.0416 32.1801 20.3251 33.0497 22.5153 33.0497C22.8323 33.0497 23.1574 33.0317 23.4815 32.9947C24.7887 32.8476 26.099 32.4242 27.4876 31.9759C29.5624 31.3084 32.1368 30.4828 35.8951 30.0375C34.9761 29.8253 34.1253 29.49 33.3749 29.0567C33.2715 28.9967 33.1692 28.9346 33.0689 28.8706C32.8692 28.7435 32.6776 28.6084 32.494 28.4663C32.3114 28.3252 32.1368 28.1771 31.9723 28.0219C30.8185 26.9391 30.1252 25.5521 30.1252 24.0379C30.1252 23.9098 30.1313 23.7838 30.1413 23.6587L30.1523 23.5496C30.1613 23.4565 30.1734 23.3634 30.1884 23.2714L30.2055 23.1663C30.2256 23.0532 30.2496 22.9411 30.2777 22.83L30.2837 22.803C30.3169 22.6749 30.356 22.5478 30.3991 22.4227L30.4092 22.3947C30.4503 22.2786 30.4954 22.1635 30.5446 22.0504L30.5597 22.0144C31.6472 19.5496 34.6621 17.7762 38.2147 17.7762C42.6824 17.7762 46.3042 20.5803 46.3042 24.0379C46.3042 26.3627 44.6679 28.3892 42.2389 29.47L42.1857 29.494C42.0052 29.5731 41.8206 29.6472 41.6309 29.7152L41.5667 29.7382L41.4483 29.7793C42.7968 29.8153 43.9586 29.9154 45.006 30.0074C46.1267 30.1085 46.9865 30.1796 47.8363 30.1796C48.2998 30.1796 48.7222 30.1575 49.1275 30.1115C50.3625 29.9724 51.5103 29.6091 52.3591 29.0877C52.6741 28.8946 52.9892 28.6424 53.3232 28.3742C53.6323 28.126 53.9523 27.8698 54.3075 27.6316C55.6228 26.748 56.8177 26.2996 57.8581 26.2996C59.0911 26.2996 60.1115 26.9211 60.7305 28.05C60.7837 28.147 60.8288 28.2511 60.876 28.3532C58.5303 12.4953 45.1043 0.0859375 28.5541 0.0859375C22.1722 0.0859375 17.3935 2.18552 14.2673 3.98787H14.2663Z" fill="#11A64B"/>
<path d="M14.2843 4.01657C0.142937 12.1177 -3.41873 31.5293 4.62061 45.1485C10.0594 54.6346 20.319 60.7572 31.284 60.9554C32.5832 61.0044 33.8845 60.9364 35.1777 60.8113L34.9871 61.0314C34.964 60.0577 34.9219 58.7687 34.9089 57.82L35.1035 58.0092C33.6758 57.9952 32.2421 57.8831 30.8475 57.5618C24.6954 56.2799 22.1992 50.7637 18.5904 46.3114C16.8467 44.0927 14.9103 42.0231 12.7693 40.1828C11.6817 39.2791 10.6062 38.2983 9.85075 37.0824C9.08022 35.8745 8.60868 34.4044 8.88358 32.9653C9.14544 31.5333 10.1537 30.2483 11.5222 29.6939C12.5446 29.2726 13.7586 29.3216 14.7317 29.864C15.0408 30.0341 15.3417 30.2443 15.6437 30.4234C22.6908 34.7777 24.6302 32.2318 31.6552 30.5165C33.0417 30.1822 34.4504 29.9411 35.864 29.7629L35.8339 30.3053C35.0062 30.1162 34.1975 29.826 33.4441 29.4217C32.3154 28.8092 31.292 27.9406 30.6238 26.8347C28.8731 23.9235 30.1412 20.6871 32.8792 18.9498C37.09 16.2308 44.1461 17.1575 46.2821 22.0741C47.2443 24.4319 46.3062 27.0089 44.3849 28.571C43.5632 29.2676 42.58 29.7799 41.5747 30.1302L41.4613 29.4067C43.2351 29.4427 45.02 29.6568 46.7777 29.7719C48.8857 29.906 51.1531 29.6729 52.8226 28.2948C54.3797 27.0259 56.3421 25.6769 58.4731 25.9841C59.7041 26.1642 60.7295 27.0769 61.206 28.1998L60.5208 28.4059L60.3613 27.4662C59.7653 24.0256 58.5985 20.6701 56.9651 17.5828C54.0496 12.0926 49.5789 7.42814 44.1662 4.34282C38.4575 1.09338 31.7184 -0.369722 25.175 0.350819C21.3364 0.788148 17.6232 2.08712 14.2843 4.01657ZM14.2492 3.95553C19.2636 1.00131 25.1529 -0.369722 30.9609 0.0856198C31.6863 0.117644 32.4087 0.219721 33.131 0.294777C33.2735 0.315793 33.6979 0.385845 33.8494 0.408863C35.5971 0.67106 37.3489 1.11339 39.0304 1.6598C39.4748 1.81792 39.9624 1.98605 40.4019 2.15017C40.7219 2.28127 41.4433 2.56849 41.7503 2.70259C42.1787 2.90074 42.6492 3.11189 43.0726 3.31505C43.9114 3.73636 44.8294 4.23374 45.628 4.7161C53.4275 9.42864 59.069 17.4757 60.886 26.3844C60.9612 26.6736 61.0174 27.0479 61.0706 27.3401L61.2361 28.2998C61.2702 28.496 61.1378 28.6811 60.9422 28.7151C60.7796 28.7432 60.6241 28.6581 60.5559 28.517L60.5509 28.506L60.4164 28.2268C59.8977 27.243 58.8844 26.6096 57.7617 26.6686C56.0491 26.7627 54.5893 27.8255 53.2881 28.8823C51.4812 30.3774 48.987 30.6686 46.7346 30.5155C44.9558 30.3984 43.2141 30.1862 41.4413 30.1482C41.0249 30.1322 40.9466 29.5618 41.3259 29.4257C42.0804 29.1605 42.8017 28.8242 43.4448 28.3649L43.6846 28.1927L43.9134 28.0076L44.0277 27.9145L44.1351 27.8145C45.6852 26.4554 46.4226 24.2878 45.625 22.3303C43.3274 16.9653 34.1564 16.7241 31.1606 21.5558C30.4382 22.7046 30.2325 24.1687 30.6579 25.4627C31.4014 27.7614 33.6848 29.2355 35.9593 29.7669C36.2583 29.836 36.2342 30.2733 35.9292 30.3093C33.123 30.6186 30.385 31.2761 27.7012 32.1517C25.6716 32.7982 23.5386 33.5007 21.3775 33.1685C18.8723 32.8132 16.6681 31.4692 14.5752 30.1482C13.6843 29.6428 12.5827 29.5878 11.6316 29.9671C9.65009 30.7347 8.63677 33.0414 9.21466 35.0589C9.38823 35.7284 9.68219 36.3659 10.0504 36.9573C10.7908 38.1612 11.8312 39.114 12.9138 40.0156C15.0618 41.869 17.0022 43.9556 18.7619 46.1763C23.065 51.5203 25.2552 56.9584 32.9996 57.5408C33.6989 57.5989 34.4012 57.6209 35.1045 57.6209C35.2098 57.6209 35.2951 57.7039 35.2991 57.808C35.3252 58.7968 35.3794 60.0337 35.4145 61.0124C35.4185 61.1245 35.3342 61.2206 35.2239 61.2326C33.0588 61.4918 30.8164 61.4768 28.6423 61.2946C8.88157 59.3792 -4.06184 40.3169 1.16328 21.2725C3.09561 14.0972 7.75388 7.67032 14.2492 3.95553Z" fill="black"/>
<path d="M55.2195 52.0711C55.393 51.7568 57.7658 47.3385 57.8792 47.2024C58.3377 46.4048 58.7842 45.5692 59.0681 44.6935C59.3641 43.8149 59.5577 42.9052 59.7403 41.9985C60.1406 40.2011 60.4255 38.3778 60.7355 36.5624C60.8971 35.5496 61.0335 34.5239 61.1961 33.5021C61.1991 33.4831 61.2171 33.4701 61.2372 33.4731C61.2532 33.4761 61.2643 33.4881 61.2663 33.5041C61.3997 34.5319 61.4047 35.5947 61.3586 36.6295C61.2743 38.0876 61.0335 39.5406 60.6392 40.9457C60.2359 42.5659 59.5095 44.0761 58.9427 45.6412C58.6638 46.4118 58.42 47.2414 58.0919 47.994C57.813 48.6705 57.4277 49.298 57.0455 49.9205C56.5217 50.703 55.9438 51.4496 55.2747 52.1141C55.2486 52.1421 55.1974 52.1071 55.2185 52.0721L55.2195 52.0711Z" fill="black"/>
<path d="M27.79 41.0135C27.79 41.0135 31.1158 40.8363 33.0677 45.152C35.0197 49.4678 34.405 57.072 34.7795 62.5453C35.154 68.0186 36.4912 74.9649 40.2088 79.0964C43.9264 83.2279 49.8738 82.554 53.0907 79.3257C56.3076 76.0974 58.2066 71.1768 57.7791 64.7032C57.3517 58.2295 55.7997 52.7572 53.0723 47.9938C50.345 43.2305 44.0557 35.417 37.4255 36.7979C37.4255 36.7979 40.7706 38.4681 42.4019 41.8887C44.0333 45.3092 43.6262 48.108 43.6262 48.108C43.6262 48.108 43.0543 41.0065 35.9753 37.4608C35.9753 37.4608 31.6857 37.1644 27.79 41.0135Z" fill="#FFE200"/>
<path d="M28.4185 40.8775C28.4255 40.8705 28.4245 40.8605 28.4235 40.8575C28.4195 40.8545 28.4315 40.8555 28.4405 40.8555H28.4957C29.6294 40.8785 30.709 41.3718 31.5848 42.0724C33.8673 43.9838 34.6238 47.0321 34.981 49.8602C35.4736 53.8522 35.3221 57.8773 35.5468 61.8763C35.909 67.2483 36.9665 73.5821 40.179 78.0184C42.9641 81.9914 48.1501 82.814 52.1231 80.0559C53.0532 79.4024 53.8177 78.5408 54.5059 77.6431C56.5777 74.904 57.584 71.4965 57.7927 68.0999C57.9292 65.8292 57.7225 63.5385 57.4075 61.2888C56.5496 55.1082 54.2932 49.0646 50.4175 44.1309C48.1321 41.2367 45.2295 38.2935 41.6127 37.2107C40.5643 36.9045 39.4436 36.8114 38.3651 36.9755L37.9617 37.0416L38.053 36.3451C40.3395 37.631 42.2839 39.6215 43.2962 42.0554C43.9483 43.5895 44.3236 45.2488 44.3567 46.916C44.4089 47.7016 44.0276 49.9783 43.9363 50.7889C43.8199 49.6771 43.7096 47.4464 43.3885 46.3946C42.7013 43.7086 41.2224 41.2187 39.1346 39.3813C38.2938 38.6508 37.3648 38.0193 36.3745 37.4979L36.4418 37.5169C35.4365 37.4799 34.4011 37.6601 33.4329 37.9393C32.8229 38.1174 32.1798 38.3696 31.6119 38.6548C31.3129 38.7859 30.9136 39.0331 30.6277 39.1922C30.3949 39.3343 30.1572 39.5124 29.9264 39.6586C29.7518 39.7746 29.4268 40.0478 29.2562 40.1709L29.1448 40.257C28.9081 40.4742 28.6653 40.6613 28.4175 40.8755L28.4185 40.8775ZM28.3542 40.9065C28.595 40.6653 28.9231 40.3 29.183 40.0859C29.3465 39.9548 29.6786 39.6616 29.8401 39.5435C30.0659 39.3813 30.3087 39.2062 30.5354 39.0491L31.021 38.7509C31.1564 38.6638 31.3711 38.5457 31.5176 38.4717C31.6691 38.3876 31.8718 38.2835 32.0263 38.2135C32.4366 38.0233 32.9262 37.8212 33.3526 37.6841C34.3619 37.3588 35.3973 37.1477 36.4668 37.1667H36.4989L36.5351 37.1847C38.5938 38.2015 40.4208 39.7106 41.7552 41.583C43.0915 43.4634 44.0085 45.6661 44.3085 47.9578L43.6885 47.9388C43.7025 47.8207 43.7116 47.6786 43.7176 47.5445C43.7346 47.1382 43.7206 46.7179 43.6855 46.3136C43.5801 45.0806 43.2802 43.8597 42.8186 42.7098C42.0832 40.7814 40.7328 39.1292 39.0854 37.8972C38.4072 37.3628 37.5062 36.8905 36.7377 36.4982C37.0487 36.4431 37.9567 36.29 38.2527 36.238C38.5446 36.1869 38.8567 36.1659 39.1516 36.1499C45.4312 35.9678 51.0496 43.0671 53.7926 48.0809C56.0149 52.1369 57.2921 56.6583 57.8409 61.2338C58.4198 65.7762 58.3837 70.5678 56.4353 74.8C55.7179 76.3741 54.7497 77.8362 53.5588 79.0932C53.1676 79.5185 52.7261 79.9028 52.2546 80.2411C49.4303 82.2996 45.3429 82.6098 42.3491 80.6994C37.7199 77.7011 35.8729 70.5288 35.2468 65.3519C34.8004 61.9303 34.8666 58.4717 34.8084 55.0331C34.6619 50.5527 34.7622 43.5275 30.0297 41.3218C29.5472 41.1056 29.0224 40.9615 28.4937 40.9305L28.4405 40.9285C28.4315 40.9285 28.4255 40.9285 28.4034 40.9265C28.3843 40.9235 28.3663 40.9145 28.3542 40.9075V40.9065Z" fill="black"/>
<path d="M50.6044 18.2972C49.9352 18.7345 49.2951 19.3169 48.7935 20.1376C50.2492 20.2817 51.5906 20.4758 52.927 20.8921C53.5912 21.1013 54.2574 21.3174 54.9185 21.6207C55.5887 21.8919 56.2409 22.2602 56.9612 22.5534C56.4576 21.7248 55.8576 21.0242 55.1944 20.5188C54.5393 19.9824 53.8259 19.6172 53.0986 19.399C52.6501 19.2579 52.1936 19.1948 51.7381 19.1858C52.1103 19.0938 52.4835 19.0137 52.8588 18.9517C53.53 18.8456 54.2032 18.7455 54.8894 18.7315C55.5787 18.6825 56.269 18.7335 57.0094 18.6835C56.3683 18.122 55.662 17.7257 54.9336 17.5476C54.2062 17.3355 53.4587 17.3154 52.7263 17.4415C51.9919 17.5586 51.2756 17.8608 50.6034 18.2972H50.6044Z" fill="black"/>
<path d="M16.6628 19.5651C17.7152 19.5411 18.7536 19.6041 19.788 19.6732C20.3669 19.7132 20.9428 19.7732 21.5187 19.8443C20.8214 19.8783 20.1251 19.9674 19.4449 20.1325C18.3423 20.3917 17.2698 20.795 16.2946 21.3674C15.3053 21.9088 14.4265 22.6414 13.7001 23.497C14.7876 23.1638 15.7669 22.7605 16.7792 22.4523C17.7754 22.113 18.7837 21.8598 19.791 21.6146C21.8167 21.1253 23.8614 20.8571 26.0847 20.6329C25.271 19.8403 24.2587 19.2949 23.2082 18.8946C22.1538 18.4953 21.0381 18.2331 19.9064 18.157C18.7767 18.072 17.632 18.134 16.5294 18.3852C15.4227 18.6024 14.3622 19.0377 13.4111 19.6331C14.5489 19.6431 15.6043 19.5541 16.6628 19.5651Z" fill="black"/>
</svg>
