<svg viewBox="0 0 47 89" fill="none" xmlns="http://www.w3.org/2000/svg">
<path d="M0.55774 9.75196C0.753604 12.7095 0.636086 15.6867 0.675259 18.6442C0.714432 21.4843 1.43913 23.6192 4.51421 24.1676C5.43477 24.2851 6.43368 24.716 6.1203 25.8129C5.63063 27.3602 2.7906 25.9891 1.22368 28.0653C0.244356 29.3776 0.83195 32.2372 0.83195 33.8825C1.02781 36.5267 0.636086 39.2296 1.06699 41.8542C1.4783 43.8716 2.94729 44.7334 4.86676 44.9684C5.65022 45.1055 6.92334 45.0272 7.02127 45.9869C7.02127 46.6529 6.08112 46.7116 5.55229 46.6529C1.65458 46.3003 1.75251 49.3362 1.79169 52.2938C1.7721 54.8792 2.16383 57.4646 2.61432 59.9912C3.00605 62.89 3.69157 63.5952 6.70789 63.6735C7.49135 63.6735 8.35315 63.4385 8.94075 64.1044C9.97883 65.4167 10.5664 65.5538 12.2117 65.9064C14.1312 66.3177 16.1486 66.3764 18.1072 66.3764C19.3216 66.3764 19.7329 66.964 19.7133 68.1C19.7133 69.2165 19.7133 70.3525 19.7133 71.4689C19.7133 73.075 19.8112 74.6811 19.8504 76.2872C19.9288 78.6571 19.5958 81.0271 19.302 83.3775C19.1257 84.7485 18.9494 86.1392 18.969 87.5298C18.969 87.8628 19.0082 88.2545 19.1061 88.5483C19.1649 88.7246 19.2628 88.8421 19.3999 88.94C19.635 89.0576 19.9483 88.8813 20.203 88.5091C20.3597 88.2741 20.4968 87.9999 20.5751 87.6865C20.9081 86.5897 21.1235 85.4341 21.2606 84.2785C21.5153 81.5755 21.3586 78.8726 21.3977 76.1501C21.3977 73.4471 21.4761 70.7246 21.0452 68.0609C20.8689 67.1011 21.0452 66.4156 22.1029 66.4352C22.5729 66.4352 23.0626 66.6507 23.1801 67.1403C23.4935 68.0217 22.8863 69.7061 23.7089 70.4896C24.0419 70.7834 24.5316 71.038 24.6295 70.3721C24.8254 69.4319 24.5903 68.2567 24.7274 67.3558C24.9625 66.2393 25.3346 66.9836 25.2954 67.7083C24.9233 71.3906 24.8841 75.0924 24.9233 78.7747C24.8645 80.4983 24.7079 82.2415 24.747 83.9651C24.7666 85.3361 24.7666 86.7464 25.2171 88.0391C25.8047 89.2338 26.3335 87.8236 26.3727 87.1185C26.6273 85.3753 26.6469 83.5929 26.5294 81.8302C26.3923 79.0097 26.3139 76.1501 26.5098 73.3296C26.6469 71.4885 26.5686 69.6474 26.6077 67.8063C26.6469 66.6898 27.3716 66.3568 28.3705 66.3764C30.7209 66.3177 36.303 66.4939 37.9679 64.9074C38.1833 64.7116 38.3596 64.457 38.4771 64.1827C38.8493 63.4776 38.8297 62.4396 39.5544 62.0282C40.0441 61.754 40.6904 61.852 41.2388 61.8324C42.1398 61.8324 43.1191 61.5386 43.7067 60.8531C44.1572 60.3634 44.3923 59.717 44.5489 59.0707C45.0974 56.877 44.6077 54.605 44.7448 52.3721C44.784 50.7464 45.0582 49.1012 44.8819 47.4755C44.7644 46.3591 43.9614 45.4581 42.8449 45.3014C42.2182 45.1839 41.513 45.3014 41.0821 45.1643C40.5337 44.988 40.5925 44.42 41.0038 44.1262C41.7677 43.5582 43.2954 43.7541 44.1376 43.2056C45.117 42.6964 45.1757 41.5016 45.2149 40.5223C45.2932 39.21 45.3912 37.9173 45.4108 36.605C45.4303 34.7835 45.5087 32.9619 45.6262 31.1404C45.7045 29.691 45.8417 28.0065 44.9211 26.7922C44.3727 26.0479 43.3933 25.7541 42.4924 25.5974C41.5326 25.4211 41.0234 24.481 42.1202 24.0305C43.7851 23.58 45.8417 23.8934 46.0767 21.6214C46.253 18.3896 45.9788 15.1382 46.2334 11.9065C46.253 10.2024 46.5859 7.79332 45.4499 6.44185C43.9614 4.79659 42.2377 5.83467 41.3564 5.09038C40.8863 4.60072 40.9646 3.85644 40.71 3.22967C40.3379 2.23076 39.3194 1.89779 38.34 1.60399C36.4793 0.996812 34.5011 1.25144 32.5816 1.07516C31.1518 1.03598 29.722 0.879293 28.2922 0.820533C25.6088 0.742188 22.8863 0.742188 20.1638 0.742188C17.4217 0.78136 14.6992 0.957639 11.9571 1.1535C10.9386 1.23185 9.92007 1.38854 8.92116 1.54523C8.03977 1.68234 7.02127 1.93696 6.74706 2.87711C6.45327 3.91519 6.88417 5.16873 5.45436 5.38418C2.30094 5.59963 0.16601 5.83467 0.538153 9.71279V9.75196H0.55774ZM38.5751 3.99354C39.006 4.40486 38.7905 5.36459 38.7709 5.99136C38.6926 7.18613 38.6338 8.4005 38.5947 9.59527C38.5555 13.0425 38.6338 16.5093 38.3792 19.9565C38.2225 28.8684 37.8308 37.7606 37.1844 46.6529C36.871 51.0206 36.5577 55.408 36.0484 59.7562C35.8721 60.7355 36.1659 61.9891 35.5979 62.8117C35.2454 63.223 34.6382 63.2426 34.1094 63.2426C31.4848 63.2426 28.8602 63.223 26.2552 63.2426C21.8482 63.1447 17.4413 62.988 13.0539 62.5375C11.2911 62.3612 11.6633 60.2459 11.4282 58.9727C11.0757 55.9956 10.8798 53.0185 10.6056 50.0217C10.0768 42.6376 9.62627 35.234 9.39124 27.8303C9.21496 21.6018 8.94075 15.3733 8.97992 9.14478C8.52943 3.07298 8.97992 4.9141 15.1497 4.15023C20.0854 3.7585 25.0212 3.44512 29.957 3.58223C32.0724 3.54305 34.1877 3.58222 36.303 3.73892C37.0277 3.81726 37.9875 3.58222 38.5555 3.99354H38.5751ZM6.15947 28.4375C6.6883 28.8684 6.45327 30.2002 6.53161 30.8858C6.57079 32.3743 6.76665 33.8629 6.74706 35.3515C6.74706 36.3308 6.845 37.2905 6.88417 38.2699C6.92334 39.3275 6.94293 40.4048 7.02127 41.4625C7.06045 42.148 6.96251 42.8727 6.13988 42.9314C5.35642 42.9706 4.43586 42.7943 3.88744 42.2263C3.04522 41.3058 3.08439 39.8759 3.06481 38.6812C3.16274 35.8215 2.34011 32.9423 2.81018 30.0827C3.02563 29.0446 3.96579 28.6137 4.94511 28.4179C5.31725 28.3199 5.86567 28.2416 6.13988 28.457L6.15947 28.4375ZM5.9636 22.0523C5.45436 22.4832 4.61214 22.1306 4.06372 21.7193C2.94729 20.8183 2.88853 19.2122 2.86894 17.8803C2.86894 15.9609 2.41845 14.1197 2.34011 12.2199C2.34011 11.1622 2.26176 10.0262 2.35969 8.9685C2.51639 7.85207 3.45654 7.5191 4.49462 7.32324C5.14097 7.20572 6.1203 7.06862 6.33575 7.87166C6.39451 8.08711 6.41409 8.36132 6.39451 8.61595C6.27699 12.6116 6.35533 16.6072 6.33575 20.6029C6.33575 21.0729 6.33575 21.7193 6.00278 22.0327L5.9636 22.0523ZM3.63282 50.7268C3.59364 49.5125 4.22041 48.5919 5.49353 48.4548C6.02236 48.3765 6.59037 48.4548 6.96251 48.6899C7.413 48.9837 7.53052 49.5517 7.58928 50.0805C7.68721 51.1577 7.78515 52.2546 7.88308 53.371C8.02018 55.408 8.35315 57.4646 8.33357 59.5212C8.29439 59.8737 8.21605 60.1479 7.98101 60.3438C7.51094 60.7355 6.47285 60.7551 5.8265 60.5984C4.98428 60.3634 4.88635 59.4624 4.71007 58.6398C4.3771 57.0141 4.12248 55.3688 3.98537 53.7236C3.88744 52.7051 3.67199 51.7062 3.6524 50.7268V50.7073L3.63282 50.7268ZM41.4151 46.9662C42.9624 46.9271 43.9026 47.8672 43.7459 49.4341C43.6284 50.9815 43.1387 52.4505 43.0016 53.9978C42.8841 55.1926 42.9233 56.4069 42.7862 57.6017C42.6686 58.7377 42.0811 59.5603 40.8863 59.6779C39.6915 59.815 39.2018 59.247 39.3389 58.0914C39.5348 55.4864 39.809 52.8422 40.0441 50.2372C40.0832 49.7084 40.1028 49.1599 40.1224 48.6115C40.1224 47.7497 40.4162 47.0054 41.3955 46.9662H41.4151ZM41.7481 21.6605C41.1801 21.1905 41.4347 20.2699 41.3759 19.6235C41.1801 15.8042 41.2976 11.9456 41.2388 8.12629C41.1801 6.6573 42.3553 6.87275 43.2954 7.55828C43.8438 7.96959 44.1768 8.61595 44.2551 9.30147C44.3335 9.86948 44.2943 10.4571 44.2551 11.0447C44.118 12.9054 44.216 14.7857 44.0985 16.666C44.0201 17.8216 43.9614 18.9968 43.9614 20.1524C43.9614 20.6812 43.8438 21.2688 43.3738 21.5626C42.9037 21.8564 42.2182 21.9543 41.7677 21.6605H41.7481ZM41.0038 42.1284C40.5925 41.9129 40.6708 41.2274 40.6708 40.7965C40.71 40.0522 40.71 39.3079 40.7688 38.5637C40.8863 37.1143 40.8863 35.6844 40.9646 34.235C41.0821 32.5114 41.1409 30.7878 41.2192 29.0446C41.2388 28.6333 41.2584 28.1828 41.4543 27.8499C41.8264 27.2231 42.7666 27.419 43.2171 27.9086C43.8438 28.5941 43.7655 29.6714 43.7851 30.5528C43.7851 32.0414 43.8242 33.5495 43.7655 35.0381C43.6871 36.6442 43.4913 38.2111 43.4325 39.8172C43.4129 40.5615 43.3346 41.482 42.6099 41.8542C42.1006 42.1088 41.4935 42.3047 41.0038 42.1088V42.1284ZM24.1007 68.0609C23.9048 67.9042 23.846 67.3558 23.8069 67.062C23.7873 66.7682 23.7285 66.396 23.9832 66.2197C24.179 66.1414 24.2965 66.396 24.3357 66.5527C24.4141 66.8073 24.4336 68.1196 24.1007 68.0609Z" fill="black"/>
<path d="M38.5766 3.99485C39.0075 4.40616 38.7921 5.3659 38.7725 5.99267C38.6942 7.18744 38.6354 8.4018 38.5962 9.59658C38.5571 13.0438 38.6354 16.5106 38.3808 19.9578C38.2241 28.8697 37.8324 37.7619 37.186 46.6542C36.8726 51.022 36.5592 55.4093 36.05 59.7575C35.8737 60.7368 36.1675 61.9904 35.5995 62.813C35.2469 63.2243 34.6398 63.2439 34.1109 63.2439C31.4863 63.2439 28.8617 63.2243 26.2568 63.2439C21.8498 63.146 17.4428 62.9893 13.0555 62.5388C11.2927 62.3625 11.6648 60.2472 11.4298 58.9741C11.0772 55.9969 10.8814 53.0198 10.6072 50.023C10.0783 42.6389 9.62784 35.2353 9.3928 27.8316C9.21653 21.6031 8.94232 15.3746 8.98149 9.14609C8.531 3.07428 8.98149 4.91541 15.1512 4.15154C20.087 3.75981 25.0228 3.44643 29.9586 3.58353C32.0739 3.54436 34.1893 3.58353 36.3046 3.74022C37.0293 3.81857 37.989 3.58353 38.5571 3.99485H38.5766Z" fill="#00953B"/>
<path d="M31.3287 53.1935C31.2699 49.3937 28.2536 46.6908 24.5909 46.3382C21.7509 45.9661 18.7737 47.2196 17.0305 49.5112C16.4625 50.2555 15.8554 51.0586 15.6791 51.9987C15.3853 54.4079 16.8151 56.9737 18.5975 58.5014C20.5953 60.225 23.5528 60.9302 26.0991 60.0684C29.0958 59.1282 31.3874 56.4449 31.3483 53.2131V53.1935H31.3287ZM19.3222 53.9574C19.5768 53.6244 19.9685 53.3894 20.2623 53.0956C20.7716 52.6059 21.2612 52.0575 21.7313 51.5091C21.9859 51.2153 22.2797 50.8627 22.3777 50.4906C22.4952 49.7855 21.4375 50.6864 21.2808 50.8823C20.8695 51.2936 20.4778 51.7245 20.1056 52.175C19.4984 52.8997 18.8325 53.7419 18.382 52.508C17.7552 50.804 19.0284 49.6875 20.419 48.9628C21.8292 48.2185 23.5137 48.0814 25.0414 48.4144C27.3134 48.9041 29.37 50.9019 29.3308 53.3306C29.2721 56.5428 26.0011 58.7756 22.9652 58.0901C21.7117 57.7963 20.5169 57.1304 19.7531 56.0923C19.3222 55.4459 18.8129 54.7017 19.3026 54.0161L19.3222 53.9574Z" fill="black"/>
<path d="M24.2402 41.4669C26.6101 41.5061 28.9801 40.135 30.1357 38.0393C31.7222 35.3559 30.9975 31.8304 29.0193 29.5583C27.1585 27.3255 24.3381 26.307 21.4785 26.7183C19.6961 26.9533 18.5209 27.3059 17.6003 28.9903C14.3882 34.2983 17.7766 41.5648 24.2206 41.4669H24.2402ZM18.9126 33.9653C18.9126 32.7901 19.4219 31.6737 20.0291 30.6552C20.46 29.9305 20.7734 29.0883 21.4785 28.6965C22.0073 28.3832 22.7124 28.3832 23.3392 28.4419C25.4937 28.6574 27.4132 30.1851 28.3533 32.1046C29.6264 34.6508 28.8038 37.8826 26.0421 38.9598C24.4556 39.6062 22.5165 39.3907 21.1651 38.3331C19.8136 37.3342 18.9126 35.6889 18.9126 33.9849V33.9653Z" fill="black"/>
<path d="M24.2393 6.16797C20.5766 6.24631 17.2469 9.22346 16.5418 12.8078C16.0325 15.2757 16.8552 17.9786 18.5788 19.7806C22.8682 23.8741 29.0967 21.7196 30.3111 16.0004C31.0749 12.8274 29.7626 9.38015 27.1185 7.48026C26.2762 6.8535 25.3361 6.22673 24.2588 6.16797H24.2393ZM28.6462 14.1592C28.5874 15.6282 28.0782 17.1364 27.0989 18.2332C25.4732 19.9568 23.162 20.4857 21.0858 19.1734C18.0499 17.3518 17.8541 12.8078 20.4395 10.5162C21.2621 9.75229 22.3785 9.4585 23.4362 9.1647C24.0826 8.98842 24.7289 8.71421 25.3361 8.7338C25.8649 8.7338 26.3742 8.98842 26.7463 9.34098C28.039 10.5553 28.7246 12.3769 28.6462 14.1397V14.1592Z" fill="black"/>
<path d="M29.9189 20.58C30.1931 20.7366 30.6436 20.2862 30.859 20.0315C31.3683 19.4048 31.76 18.6605 31.995 17.877C32.8569 15.1349 32.4651 12.0403 30.9178 9.63112C30.7415 9.37649 30.389 8.88683 30.1735 8.84766C30.0756 8.84766 30.0952 9.02393 30.1735 9.33732C30.3694 9.92491 30.6436 10.5321 30.8394 11.1197C31.6425 13.2938 31.6229 15.5658 30.7611 17.7007C30.6044 18.1316 30.4281 18.5625 30.2519 18.9934C30.0756 19.4439 29.6643 20.1882 29.9189 20.5604V20.58Z" fill="black"/>
<path d="M11.2731 9.9272C11.2927 8.83036 11.0968 7.4789 11.9782 6.65626C12.5854 6.08826 13.6039 5.95115 14.407 5.67694C15.0141 5.46149 14.9358 5.26562 14.1915 5.26562C13.6235 5.26562 12.9576 5.34397 12.3896 5.52025C10.4113 6.04908 9.98042 7.92938 9.80414 9.75093C9.76497 10.6127 9.68662 11.9446 10.2742 12.6105C10.4505 12.7868 10.6855 12.8064 10.8422 12.6497C11.4298 12.0034 11.234 10.789 11.2731 9.96638V9.9272Z" fill="black"/>
<path d="M14.5261 33.0623C15.0549 33.3365 15.5054 31.0645 15.6817 30.6727C16.2301 28.9099 17.4837 27.5389 18.8155 26.3245C19.0897 26.0699 19.7557 25.2864 18.9526 25.5019C16.759 26.4029 15.1333 28.7533 14.5065 31.0057C14.389 31.5933 14.154 32.553 14.5065 33.0427L14.5261 33.0623Z" fill="black"/>
<path d="M32.4844 51.957C32.4844 51.957 32.5236 51.8199 32.5236 51.6045C32.4844 50.7819 32.171 49.9201 31.7597 49.1758C30.5649 47.178 28.6259 45.5327 26.3539 44.9647C26.0796 44.9059 25.6096 44.8276 25.4725 45.0234C25.4137 45.4543 26.8435 45.9244 27.2157 46.1007C29.4877 46.9233 31.3876 48.7057 32.1123 51.0561C32.2102 51.2911 32.3473 51.8983 32.4648 51.9766L32.4844 51.957Z" fill="black"/>
<path d="M31.0351 62.0472C30.9371 62.6152 32.7587 62.4977 33.17 62.4781C35.207 62.4193 35.2657 60.5978 35.2853 58.9917C35.2853 58.7371 35.2853 58.3258 35.1678 58.1495C34.9915 58.0515 34.8348 58.7958 34.7761 58.9329C34.4039 60.6565 34.4235 61.8317 32.3473 61.7142C31.936 61.7142 31.2309 61.6946 31.0351 62.008V62.0472Z" fill="black"/>
<path d="M20.616 55.1526C21.3602 55.7206 23.8869 52.4301 24.4941 51.8621C24.8662 51.4508 25.3363 51.0003 25.6105 50.5302C25.9631 49.8838 25.2775 50.2364 24.9837 50.4518C23.7498 51.4116 22.6725 52.5672 21.5561 53.6444C21.2231 53.997 20.4593 54.6433 20.5964 55.1526H20.616Z" fill="black"/>
<path d="M24.9646 56.5252C25.8264 56.9365 27.2563 54.2924 27.648 53.6264C27.8047 53.3522 27.9614 53.0388 28.0397 52.745C28.0789 52.6079 28.0789 52.51 28.0397 52.4904C27.7655 52.3729 27.1191 53.3326 26.9037 53.5481C26.4336 54.1357 25.9244 54.7037 25.4543 55.2717C25.2193 55.5851 24.7492 56.1139 24.945 56.5056L24.9646 56.5252Z" fill="black"/>
<path d="M23.4563 55.6186C24.0439 55.5403 25.2778 53.7775 25.7871 53.2682C25.9634 53.0528 26.6489 52.3085 26.4922 52.0735C26.453 52.0539 26.3747 52.0735 26.2572 52.1518C26.0221 52.2889 25.7871 52.524 25.5912 52.7198C25.2387 53.1311 23.1821 55.2073 23.4759 55.6186H23.4563Z" fill="black"/>
<path d="M20.6747 35.1763C21.5561 35.1959 23.1622 32.6497 23.7693 31.925C24.0044 31.6312 24.259 31.3178 24.4353 30.9848C24.5724 30.7302 24.7683 30.3189 24.5528 30.1426C24.2003 30.0055 23.7693 30.456 23.4951 30.7106C23.0251 31.259 19.8521 34.6475 20.6355 35.1567L20.6747 35.1763Z" fill="black"/>
<path d="M25.8461 32.0412C25.5915 31.9629 25.1214 32.668 24.9451 32.8638C24.3967 33.6277 23.8091 34.3916 23.1823 35.1163C22.9669 35.3709 22.7123 35.6647 22.5947 35.9585C22.4576 36.2327 22.536 36.3698 22.8298 36.2523C23.1236 36.1348 23.4174 35.8606 23.6524 35.6255C24.1812 35.0967 26.042 32.7071 25.8461 32.0412Z" fill="black"/>
<path d="M23.2012 37.9368C23.495 38.3872 24.9248 35.6451 25.1794 35.3709C25.3949 35.0575 25.6299 34.6854 25.7866 34.372C26.0804 33.6669 25.199 34.5875 25.0815 34.7442C24.4743 35.4493 23.2012 37.0162 23.2012 37.9368Z" fill="black"/>
<path d="M20.9691 16.9549C22.2814 17.0528 24.1225 13.9777 24.7689 12.9396C24.9647 12.6262 25.1802 12.2345 25.2389 11.882C25.3173 11.4706 25.0627 11.4706 24.7493 11.7057C24.3575 12.0191 24.0637 12.4696 23.7504 12.8809C23.0257 13.821 22.1834 14.6437 21.4196 15.525C21.1845 15.7993 20.4598 16.7002 20.9495 16.9353L20.9691 16.9549Z" fill="black"/>
<path d="M22.7321 17.2883C23.731 17.445 25.5721 14.3895 26.0618 13.5473C26.1793 13.3514 26.7081 12.235 26.1205 12.7246C25.768 13.038 25.435 13.4885 25.1216 13.8606C24.7495 14.4287 22.1836 16.7986 22.7516 17.2883H22.7321Z" fill="black"/>
</svg>
