<svg viewBox="0 0 97 71" fill="none" xmlns="http://www.w3.org/2000/svg">
<path d="M10.8348 69.9351C12.4109 70.1168 14.0826 70.113 15.8094 70.1121C23.5303 70.1976 15.9028 70.1374 48.2872 70.3598C53.3641 70.3732 58.694 70.3856 64.2189 70.3999C69.7314 70.4592 75.4687 70.6285 81.38 70.5109C84.328 70.4631 87.2784 70.288 90.1322 70.0767C90.8844 70.0078 91.7117 69.9428 92.6222 69.5899C93.536 69.2657 94.4393 68.4786 94.8892 67.6006C94.95 67.4897 94.9906 67.3788 95.0408 67.2678C95.0762 67.2487 95.1245 67.2439 95.1522 67.2162C95.2507 67.1177 95.268 66.9493 95.2484 66.7523C95.2986 66.6031 95.3507 66.4539 95.3913 66.3067C95.4731 65.9327 95.575 65.5578 95.6319 65.1868C95.7767 64.4417 95.8475 63.7092 95.9149 62.9814C96.1268 60.0797 95.9317 57.3254 95.8628 54.704C95.7537 45.1051 95.8132 49.8043 95.5807 32.4789C95.553 27.9553 95.2397 23.7329 95.0901 19.8864C94.8969 16.0465 94.7214 12.5739 94.5679 9.52313C94.5086 7.98624 94.1394 6.29346 93.2333 5.13912C92.3764 3.96948 91.3162 3.1996 90.3235 2.66499C88.307 1.61681 86.5459 1.39398 85.3877 1.38059C85.1979 1.38059 85.0477 1.39302 84.8885 1.40354C84.076 1.06785 83.2459 0.88997 82.4822 0.793376C80.3749 0.521767 78.3225 0.549502 76.3667 0.535156C68.7944 0.549924 73.5259 0.519255 49.476 0.74747C16.8876 1.1945 7.69794 1.77224 7.73569 2.10169C7.74621 2.20211 8.73509 2.24323 10.6354 2.30827C21.5289 2.51676 13.5371 2.42304 49.4832 2.72429C73.3124 2.88337 69.2655 2.84993 76.3462 2.92608C78.3063 2.96147 80.2448 2.96242 82.1466 3.2283C83.069 3.35262 83.8838 3.58693 84.5317 3.99435C84.8512 4.20379 85.1323 4.4601 85.3872 4.75753C85.6067 5.05401 85.929 5.45473 85.9037 5.74833C85.9787 5.97882 86.0524 6.501 86.1035 7.00692C86.159 7.50423 86.2346 7.98815 86.2618 8.51415C86.3297 9.55086 86.4301 10.5818 86.4698 11.6444C86.8945 20.1035 86.9748 29.0599 87.0116 38.3175C87.0236 42.9492 86.9963 47.6651 86.9016 52.4355C86.8682 53.6242 86.8342 54.8178 86.8003 56.0152C86.7477 57.1628 86.6951 58.5084 86.5583 59.2821C86.2766 60.1065 86.0189 60.3169 85.03 60.5321C84.0827 60.6803 82.7056 60.7387 81.5101 60.7291C57.9381 60.8869 27.5451 61.0485 7.62761 61.367C6.28296 61.4129 4.45007 61.345 4.15599 61.1442C4.10482 61.1069 4.10195 61.1059 4.06322 60.9787C3.98958 60.8152 3.9432 60.4862 3.8796 60.249C3.77918 59.7048 3.68354 59.1434 3.61803 58.5687C3.46836 57.4287 3.37177 56.2705 3.279 55.1296C2.48203 44.8057 2.30044 26.0325 2.31545 15.6764C2.34271 12.8752 2.36758 10.3762 2.38909 8.20238C2.42305 7.12837 2.44122 6.09836 2.53446 5.24337C2.64445 4.42663 3.02173 3.72752 3.52335 3.3115C4.58636 2.48711 5.84159 2.47754 6.57369 2.34557C7.34214 2.24897 7.74142 2.1629 7.73569 2.10169C7.72995 2.04048 7.33209 2.00701 6.55361 1.98597C5.8019 2.02518 4.53615 1.82913 3.09059 2.75202C2.39579 3.2522 1.87074 4.08999 1.67325 5.09417C1.50828 6.06585 1.4442 7.05282 1.35334 8.15169C0.586926 18.8487 0.28669 43.1437 1.04635 55.2883C1.12382 56.456 1.20463 57.6343 1.34617 58.8451C1.4069 59.4466 1.50063 60.0625 1.61109 60.6966C1.61443 60.709 1.61587 60.7205 1.61874 60.7329C1.59196 61.0007 1.57618 61.3144 1.59818 61.7247C1.67564 62.8723 2.01515 64.6885 3.48223 66.4932C4.9187 68.3208 7.68022 69.6549 10.8348 69.9351ZM15.0687 68.3581C15.0534 67.0751 14.4833 65.1702 13.5342 63.7139C15.3685 63.7139 17.2315 63.713 19.1136 63.713C19.2263 65.0362 19.8919 66.864 20.8475 68.2079C19.0782 68.2519 15.638 68.3353 15.0687 68.3581ZM38.5968 66.9092C38.767 67.2927 38.9717 67.6284 39.1898 67.9239C36.8256 67.9593 34.5346 67.9947 32.3201 68.0281C32.5239 66.6583 31.8737 64.6721 30.9066 63.6967C33.3941 63.6919 35.928 63.6881 38.4801 63.6843C38.0435 64.2304 37.9838 65.5349 38.5968 66.9092ZM29.397 66.5878C29.5816 67.155 29.8283 67.6551 30.1009 68.0626C27.6597 68.0999 25.33 68.1352 23.105 68.1697C23.0867 67.0097 22.5715 65.2419 21.5753 63.7111C24.1078 63.7072 26.6876 63.7025 29.2985 63.6986C29.0035 64.3155 29.0168 65.4182 29.397 66.5878ZM55.8191 66.716C55.9678 67.0698 56.1232 67.4036 56.281 67.723C54.3798 67.7374 52.5426 67.7517 50.7016 67.7651C50.5825 66.4283 49.8613 64.7297 48.9007 63.647C50.8995 63.6393 52.9323 63.6307 54.9632 63.6231C54.9909 64.4044 55.3309 65.5282 55.8191 66.716ZM58.9441 67.702C58.768 66.1724 58.0631 64.64 57.1743 63.6145C59.1702 63.6059 61.1757 63.5982 63.1999 63.5906C62.9967 64.304 63.505 65.7185 64.3715 67.1961C64.4676 67.3587 64.567 67.5126 64.666 67.6657C64.0676 67.6616 64.9903 67.6559 58.9441 67.702ZM67.6026 67.6934C67.1394 66.0131 65.9985 64.3874 64.8611 63.5839C66.9876 63.5753 69.1026 63.5667 71.2564 63.5581C71.4572 64.4398 71.9268 65.555 72.6751 66.6691C72.9381 67.0632 73.216 67.4122 73.4962 67.7383C71.5084 67.724 69.5555 67.7135 67.6026 67.6934ZM81.3226 67.7164C79.692 67.7489 78.0925 67.7307 76.4796 67.7307C76.0127 66.6586 75.0099 64.9839 73.8462 63.5485C76.2625 63.538 78.6802 63.5294 81.1275 63.5188C80.5733 64.0009 80.9344 65.7185 82.2015 67.3271C82.2991 67.4514 82.4024 67.5614 82.5033 67.6752C82.1078 67.6867 81.7205 67.7097 81.3226 67.7164ZM93.0076 10.7454C93.0085 12.376 93.0301 14.1204 93.0583 15.9652C92.0734 15.1403 90.3753 14.488 89.1826 14.4446C89.1348 13.4615 89.0979 12.4659 89.041 11.4923C89.02 11.039 88.975 10.5857 88.9387 10.1314C89.3007 10.3255 89.7148 10.4977 90.1681 10.6316C91.2885 10.9644 92.3367 10.9692 93.0076 10.7454ZM93.2653 31.9682C92.2117 31.2904 90.8616 30.7445 89.6636 30.6063C89.6373 28.7969 89.6058 26.9998 89.5661 25.2191C89.9022 25.4103 90.2657 25.5949 90.6573 25.7652C91.6055 26.1726 92.5189 26.4231 93.2323 26.4777C93.2672 28.2489 93.2868 30.0794 93.2653 31.9682ZM89.7521 39.8697C90.9026 40.74 92.197 41.311 93.2232 41.5195C93.1982 46.9843 93.1984 46.8625 93.1984 47.9587C92.9129 47.7684 92.6145 47.5809 92.2917 47.403C91.3846 46.9038 90.4981 46.5624 89.7483 46.3826C89.7617 44.1935 89.7617 42.0244 89.7521 39.8697ZM92.2305 38.1607C91.3358 37.6586 90.4545 37.3363 89.7382 37.211C89.7267 35.8663 89.7119 34.5341 89.6966 33.2048C90.8924 33.9657 92.2151 34.4228 93.2543 34.5427C93.2481 35.94 93.2419 37.3602 93.2352 38.812C92.9282 38.5872 92.5968 38.3663 92.2305 38.1607ZM89.7186 49.0796C90.8841 49.9065 92.1479 50.5063 93.1965 50.8135C93.1931 55.5112 93.1834 54.5578 93.2462 56.9581C93.1826 56.9151 93.1238 56.8721 93.0587 56.83C91.6323 55.9243 90.27 55.4547 89.5962 55.7196C89.7243 50.9065 89.6761 52.9713 89.7186 49.0796ZM89.4939 22.612C89.4422 20.7461 89.3829 18.8908 89.3079 17.0584C89.59 17.2343 89.8965 17.4007 90.2418 17.5394C91.3559 17.9889 92.4199 18.0453 93.0855 17.8302C93.1396 21.441 93.1063 20.6016 93.1816 23.9911C92.7752 23.7032 90.7776 22.7079 89.4939 22.612ZM89.2323 60.0845C89.4547 58.9675 89.4977 58.102 89.5312 57.2556C90.2173 58.3473 91.6817 59.4938 93.2844 60.0023C93.2801 60.9271 93.2591 61.8481 93.1855 62.7595C93.1587 63.0244 93.1109 63.2817 93.0798 63.5456C92.7451 63.2214 92.3898 62.8962 91.9914 62.5787C90.9232 61.7218 89.8549 61.104 88.9535 60.7243C89.0501 60.5091 89.173 60.292 89.2323 60.0845ZM86.148 2.10743C87.156 2.34174 88.427 2.76254 89.7755 3.60511C90.6296 4.15215 91.496 4.89716 92.1301 5.88605C92.6872 6.71044 92.9119 7.70889 92.977 8.88905C91.907 8.112 90.022 7.56273 88.7259 7.64194C88.6877 7.31487 88.6542 6.99066 88.614 6.66453C88.5428 6.13088 88.5107 5.6154 88.2587 4.85413C87.8853 3.63093 87.0967 2.80462 86.148 2.10743ZM85.5249 63.2817C86.1925 63.1592 86.9781 62.9173 87.6782 62.3961C88.8592 63.7189 90.852 65.3323 92.4223 66.3287C92.2205 66.6538 92.0082 66.8528 91.6108 67.0077C91.1972 67.176 90.5865 67.2525 89.9214 67.3042C88.4906 67.4046 87.0618 67.4954 85.623 67.5681C85.3576 66.9675 84.9339 66.2837 84.3993 65.5999C83.6093 64.5995 82.7601 63.8211 82.0791 63.5141C83.1871 63.5083 84.2013 63.4768 85.5249 63.2817ZM46.8962 63.6546C46.7919 64.3853 47.0019 65.4985 47.5207 66.6519C47.7077 67.0679 47.9185 67.4467 48.1395 67.7862C45.9499 67.8196 43.8152 67.8531 41.7241 67.8847C41.643 66.4554 40.63 64.3914 39.6961 63.6824C39.832 63.6814 46.6271 63.6557 46.8962 63.6546ZM2.70757 63.0225C3.58454 63.5509 4.42023 63.6725 5.44948 63.7034C8.00051 63.717 7.87433 63.7123 11.2408 63.7149C11.2457 65.0178 11.8316 66.9592 12.7858 68.4107C12.1661 68.4145 11.5506 68.4174 10.9725 68.3782C8.03264 68.2452 5.6728 67.242 4.29514 65.7701C3.33208 64.764 2.81133 63.6939 2.49095 62.7767C2.56364 62.8599 2.6368 62.9422 2.70757 63.0225Z" fill="black"/>
<path d="M52.2264 10.0825L44.3918 7.14453L36.5572 9.10318L31.6606 13.0205L28.7227 20.8551V27.7103L30.6813 33.5863L36.5572 39.4622L44.3918 41.4208L51.2471 38.4829L56.1437 34.5656L58.1024 30.6483L59.0817 26.731V20.8551L58.1024 16.9378L56.1437 13.9998L52.2264 10.0825Z" fill="#00953B"/>
<path d="M33.4424 39.4411C34.9941 40.5687 36.6907 41.3204 38.4098 41.8014C38.4958 41.8808 38.558 41.9497 38.6546 42.0329C39.7626 42.9634 41.6409 44.0833 44.1982 44.7012C45.4836 45.0101 46.8674 45.23 48.4564 45.2511C50.0703 45.2712 51.7607 44.9441 53.4286 44.3454C56.7372 43.1356 60.0964 40.8164 62.3009 37.2482C66.0298 31.1576 65.5448 23.2385 61.9776 17.4895C60.5784 15.2392 58.9029 13.84 57.6806 13.0826C56.7788 12.5308 56.1241 12.2888 55.7952 12.2534C55.447 11.8011 55.0726 11.3449 54.636 10.8868C53.2393 9.52968 51.3954 8.18024 49.0609 7.29847C46.7398 6.41096 43.9529 6.01215 41.0274 6.39565C38.1138 6.78298 35.0505 8.00714 32.4994 10.1991C29.9722 12.3586 27.9222 15.5146 27.1968 19.0886C26.4298 22.6291 26.58 26.3838 27.5086 30.0371C28.3851 33.6599 30.3844 37.2625 33.4424 39.4411ZM48.3972 42.9338C47.0659 43.0122 45.7303 42.9214 44.5788 42.7626C44.1188 42.6985 43.6999 42.6096 43.2854 42.5197C43.2906 42.5197 43.2964 42.5206 43.3021 42.5206C45.6404 42.6086 47.8095 42.0587 49.7327 41.2171C49.8403 41.6675 50.1138 42.1323 50.5318 42.5111C50.5552 42.5321 50.5825 42.5426 50.6064 42.5627C49.8537 42.7578 49.1111 42.8946 48.3972 42.9338ZM53.1527 41.6197C53.0336 41.2152 52.8027 40.7953 52.4039 40.4357C52.2422 40.2894 52.0672 40.1976 51.8946 40.0981C52.0213 40.0226 52.1538 39.9499 52.2771 39.8715C53.0886 39.3484 53.8183 38.7611 54.5079 38.1491C54.615 38.2743 54.7039 38.4063 54.8335 38.523C55.4719 39.0997 56.1978 39.3713 56.7773 39.3464C55.6378 40.2932 54.4017 41.0392 53.1527 41.6197ZM57.739 38.4398C57.7605 37.8382 57.3966 37.0722 56.7085 36.4496C56.6014 36.353 56.4857 36.2937 56.3742 36.2124C56.9246 35.541 57.4272 34.8534 57.8332 34.1409C58.0225 34.2825 58.2047 34.4288 58.4285 34.5502C59.0698 34.8993 59.7206 35.0791 60.2638 35.0973C60.1414 35.323 60.0558 35.5621 59.9205 35.783C59.3108 36.7795 58.5495 37.6412 57.739 38.4398ZM61.6104 22.1366C61.9389 23.3875 62.1608 24.7446 62.2282 26.1724C61.9532 26.0701 61.652 25.9898 61.3144 25.9582C60.8544 25.9161 60.4393 25.9668 60.0744 26.0682C60.1084 24.8546 60.0252 23.7624 59.8951 22.8653C59.8669 22.6922 59.8344 22.5401 59.8038 22.3776C60.1438 22.5124 60.5392 22.5526 60.9318 22.4617C61.1876 22.4005 61.41 22.28 61.6104 22.1366ZM59.8368 28.4534C60.2059 28.593 60.6186 28.6973 61.0595 28.7422C61.4564 28.7747 61.8375 28.7527 62.1957 28.7001C62.0627 30.2131 61.7122 31.7586 61.1417 33.2524C60.8276 32.8355 60.3637 32.4214 59.7646 32.0952C59.4877 31.9451 59.2113 31.8408 58.9397 31.7519C59.3734 30.61 59.6627 29.5054 59.8368 28.4534ZM29.8732 19.6662C30.458 16.6164 32.1039 14.0371 34.1946 12.1377C36.2924 10.2479 38.8602 9.11748 41.3697 8.68807C43.8864 8.26345 46.3367 8.4968 48.4163 9.16722C50.5083 9.83189 52.2112 10.9126 53.5673 12.0268C54.8766 13.2021 55.8334 14.411 56.5373 15.464C57.8839 17.6196 58.3692 19.0083 58.5782 18.9375C58.7341 18.8954 58.616 17.3987 57.4894 14.938C57.3029 14.5621 57.0748 14.1604 56.8247 13.7492C57.7868 14.7113 59.119 16.1927 60.2533 18.4555C60.4431 18.8457 60.6186 19.2789 60.7936 19.7112C60.6296 19.7093 60.4665 19.6997 60.293 19.7408C59.8636 19.8413 59.5346 20.0708 59.2936 20.3434C58.9727 19.3813 58.67 18.905 58.5782 18.9375C58.3649 18.9977 58.7259 20.4141 58.8111 22.9619C58.8522 25.2237 58.5959 28.5834 56.7965 31.9728C56.7788 31.9967 56.7401 32.0053 56.7257 32.0321C56.7123 32.057 56.7257 32.0905 56.7152 32.1172C56.5473 32.4252 56.3876 32.7331 56.193 33.0401C55.0281 34.8773 53.2694 36.5854 51.0587 37.9004C48.8505 39.1819 46.1793 40.1287 43.4044 39.947C40.5085 39.8007 37.4878 39.0433 35.0677 37.2376C32.6304 35.4339 31.028 32.6145 30.2151 29.339C29.384 26.0902 29.2439 22.7094 29.8732 19.6662Z" fill="black"/>
<path d="M39.8017 29.6599C39.794 29.9946 39.7983 31.9035 40.6199 32.7317C40.9909 33.1707 41.5781 33.4691 42.1754 33.4633C42.7473 33.4758 43.3135 33.2204 43.873 32.7279C46.2515 30.7518 45.3442 31.5109 49.0957 28.3305C50.1075 27.42 51.3049 26.5813 52.1699 25.0616C52.6104 24.3128 52.7777 23.0303 52.3201 22.1715C51.916 21.3107 51.3503 20.8182 50.8406 20.3993C49.8106 19.6553 48.9149 19.1952 48.0561 18.6664C40.6342 14.3111 40.448 15.2563 46.908 20.275C47.6353 20.8612 48.5687 21.5011 49.3348 22.1619C49.68 22.4852 49.9693 22.8562 50.0521 23.1173C50.1343 23.3736 50.0937 23.4654 49.912 23.8231C49.4682 24.5414 48.4372 25.3418 47.3384 26.2303C43.6143 29.3062 44.366 28.6779 42.5675 30.1945C42.5675 30.1945 42.5579 30.2222 42.5426 30.2165C42.5436 30.7884 42.4145 28.6853 42.3198 27.5587C42.118 25.0004 41.898 22.6984 41.6723 20.7675C41.3993 18.8098 41.1875 17.315 41.3687 16.4954C41.3706 15.8107 42.217 16.153 42.2787 15.9512C42.3279 15.8709 42.2438 15.7188 41.9693 15.4979C41.7981 15.4329 41.5853 15.2913 41.2267 15.3717C40.8786 15.4338 40.5668 15.7246 40.3865 16.0277C39.6888 17.2414 39.7075 18.9753 39.6984 20.8651C39.6711 22.8094 39.6874 25.1228 39.7477 27.6897C39.7653 28.3315 39.783 28.9885 39.8017 29.6599Z" fill="black"/>
<path d="M7.51181 56.5135C7.96943 56.8511 8.34768 56.9066 8.86077 56.8205C9.39347 56.7086 10.017 56.2993 10.6057 55.9215C11.2751 55.4673 11.453 55.3133 11.7739 55.0503C12.338 54.5778 12.9386 53.9932 13.4107 53.4235C13.8119 52.9262 14.0213 52.3084 13.9927 51.7116C13.9171 50.432 13.0492 49.6803 12.6351 49.3991C12.1579 49.073 11.7127 48.7689 11.3062 48.4906C9.65504 47.4204 8.55043 46.9431 8.32712 47.2568C8.31373 47.275 8.33285 47.319 8.32616 47.342C8.26734 47.1908 8.20757 47.0885 8.14397 47.0436C7.99956 46.8953 7.59836 47.2214 7.40517 47.7742C6.8245 49.1977 6.79148 51.9074 6.79979 53.4484C6.81892 54.0193 6.80983 54.6821 6.86626 55.2951C6.97481 55.8804 7.16321 56.218 7.51181 56.5135ZM10.0003 49.9748C10.313 50.3077 10.6549 50.672 11.0222 51.0632C11.4401 51.4639 11.4535 51.7078 11.4009 51.7011C11.3842 51.726 11.3583 51.7374 11.3387 51.7403C10.5992 52.4188 10.8629 52.1879 10.0156 52.8956L9.48098 53.3011C9.49197 53.2848 9.44272 53.4254 9.37052 53.2934C9.11169 51.123 8.71995 48.9152 8.51074 47.999C8.77709 48.4944 9.27536 49.1629 10.0003 49.9748Z" fill="black"/>
<path d="M20.8916 57.4979C21.6118 57.4979 22.198 56.2202 22.2741 54.5848C28.0706 54.8918 36.7774 55.0869 46.5204 55.0869C63.9728 55.0869 78.1208 54.4614 78.1208 53.6896C78.1208 52.9178 63.9728 52.2924 46.5204 52.2924C36.7066 52.2924 27.9377 52.4903 22.1416 52.8002C21.914 51.7195 21.442 50.9688 20.8916 50.9688C20.3135 50.9688 19.8171 51.7903 19.6044 52.9599C13.5643 53.3944 13.1915 53.9499 19.5015 54.4117C19.5417 56.1303 20.1461 57.4979 20.8916 57.4979Z" fill="black"/>
</svg>
