<svg viewBox="0 0 57 73" fill="none" xmlns="http://www.w3.org/2000/svg">
<path d="M4.34924 46.3934C4.31082 46.3934 4.2724 46.4011 4.23393 46.4164C3.97261 46.4702 3.77275 46.7239 3.77275 46.9929V51.3358C3.77275 51.6433 4.04945 51.9123 4.34924 51.9123C4.65673 51.9123 4.93343 51.6433 4.92574 51.3358V46.9929C4.94113 46.6778 4.66442 46.3934 4.34924 46.3934ZM10.6907 50.0906H10.6446C10.3755 50.1444 10.1757 50.4134 10.191 50.6902V55.0177C10.1834 55.3175 10.4601 55.5942 10.7675 55.5942C11.0673 55.5942 11.344 55.3175 11.344 55.0177V50.6902C11.3594 50.3519 11.0289 50.0445 10.6907 50.0906ZM10.8828 59.0224C10.6292 59.0839 10.4217 59.3376 10.4294 59.5989V63.9495C10.4294 64.257 10.6984 64.526 11.0059 64.526C11.3133 64.526 11.59 64.257 11.5823 63.9495V59.5989C11.59 59.253 11.2287 58.9532 10.8828 59.0224ZM17.3473 62.7043C17.0628 62.7351 16.8323 63.0118 16.84 63.3039V67.6237C16.84 67.9312 17.1167 68.2002 17.4164 68.2002C17.7239 68.2002 18.0006 67.9312 17.9929 67.6237V63.3039C18.016 62.9657 17.6778 62.6582 17.3473 62.7043ZM20.468 52.1814H20.4219C20.1606 52.2352 19.9607 52.4888 19.9684 52.7578V57.1008C19.9607 57.4083 20.2374 57.6773 20.5449 57.6773C20.8447 57.6773 21.1214 57.4083 21.1214 57.1008V52.7578C21.1214 52.4273 20.7986 52.1352 20.468 52.1814ZM27.1246 64.7874C26.8479 64.8258 26.6173 65.0872 26.6173 65.3639V69.7145C26.6173 70.0219 26.894 70.291 27.1938 70.291C27.5012 70.291 27.778 70.0219 27.7703 69.7145V65.3639C27.778 65.041 27.4474 64.749 27.1246 64.7874ZM30.8449 51.8893C30.8065 51.8893 30.768 51.9046 30.7296 51.9123C30.4683 51.9738 30.2684 52.2275 30.2684 52.4888V56.4782C30.2684 56.7857 30.5452 57.0547 30.8449 57.0547C31.1524 57.0547 31.4291 56.7857 31.4214 56.4782V52.4888C31.4368 52.1814 31.1601 51.8893 30.8449 51.8893ZM37.3785 64.526C37.1172 64.5798 36.9173 64.8335 36.925 65.1025V69.0919C36.9173 69.3916 37.194 69.6683 37.5015 69.6683C37.809 69.6683 38.078 69.3916 38.078 69.0919V65.1025C38.0857 64.7567 37.7168 64.4569 37.3785 64.526ZM40.0227 49.345C39.9843 49.345 39.9458 49.3604 39.8997 49.3681C39.646 49.4219 39.4385 49.6832 39.4462 49.9446V53.9339C39.4462 54.2414 39.7152 54.5104 40.0227 54.5104C40.3302 54.5104 40.6069 54.2414 40.5992 53.9339V49.9446C40.6146 49.6371 40.3302 49.345 40.0227 49.345ZM46.5563 61.9818C46.295 62.0356 46.0951 62.2892 46.1028 62.5583V66.5476C46.0951 66.8474 46.3718 67.1241 46.6793 67.1241C46.9791 67.1241 47.2558 66.8474 47.2558 66.5476V62.5583C47.2635 62.2124 46.8945 61.9049 46.5563 61.9818ZM46.5563 61.9818C46.295 62.0356 46.0951 62.2892 46.1028 62.5583V66.5476C46.0951 66.8474 46.3718 67.1241 46.6793 67.1241C46.9791 67.1241 47.2558 66.8474 47.2558 66.5476V62.5583C47.2635 62.2124 46.8945 61.9049 46.5563 61.9818ZM37.3785 64.526C37.1172 64.5798 36.9173 64.8335 36.925 65.1025V69.0919C36.9173 69.3916 37.194 69.6683 37.5015 69.6683C37.809 69.6683 38.078 69.3916 38.078 69.0919V65.1025C38.0857 64.7567 37.7168 64.4569 37.3785 64.526ZM27.1246 64.7874C26.8479 64.8258 26.6173 65.0872 26.6173 65.3639V69.7145C26.6173 70.0219 26.894 70.291 27.1938 70.291C27.5012 70.291 27.778 70.0219 27.7703 69.7145V65.3639C27.778 65.041 27.4474 64.749 27.1246 64.7874ZM17.3473 62.7043C17.0628 62.7351 16.8323 63.0118 16.84 63.3039V67.6237C16.84 67.9312 17.1167 68.2002 17.4164 68.2002C17.7239 68.2002 18.0006 67.9312 17.9929 67.6237V63.3039C18.016 62.9657 17.6778 62.6582 17.3473 62.7043ZM10.8828 59.0224C10.6292 59.0839 10.4217 59.3376 10.4294 59.5989V63.9495C10.4294 64.257 10.6984 64.526 11.0059 64.526C11.3133 64.526 11.59 64.257 11.5823 63.9495V59.5989C11.59 59.253 11.2287 58.9532 10.8828 59.0224ZM40.0227 49.345C39.9843 49.345 39.9458 49.3604 39.8997 49.3681C39.646 49.4219 39.4385 49.6832 39.4462 49.9446V53.9339C39.4462 54.2414 39.7152 54.5104 40.0227 54.5104C40.3302 54.5104 40.6069 54.2414 40.5992 53.9339V49.9446C40.6146 49.6371 40.3302 49.345 40.0227 49.345ZM30.8449 51.8893C30.8065 51.8893 30.768 51.9046 30.7296 51.9123C30.4683 51.9738 30.2684 52.2275 30.2684 52.4888V56.4782C30.2684 56.7857 30.5452 57.0547 30.8449 57.0547C31.1524 57.0547 31.4291 56.7857 31.4214 56.4782V52.4888C31.4368 52.1814 31.1601 51.8893 30.8449 51.8893ZM20.468 52.1814H20.4219C20.1606 52.2352 19.9607 52.4888 19.9684 52.7578V57.1008C19.9607 57.4083 20.2374 57.6773 20.5449 57.6773C20.8447 57.6773 21.1214 57.4083 21.1214 57.1008V52.7578C21.1214 52.4273 20.7986 52.1352 20.468 52.1814ZM10.6907 50.0906H10.6446C10.3755 50.1444 10.1757 50.4134 10.191 50.6902V55.0177C10.1834 55.3175 10.4601 55.5942 10.7675 55.5942C11.0673 55.5942 11.344 55.3175 11.344 55.0177V50.6902C11.3594 50.3519 11.0289 50.0445 10.6907 50.0906ZM4.34924 46.3934C4.31082 46.3934 4.2724 46.4011 4.23393 46.4164C3.97261 46.4702 3.77275 46.7239 3.77275 46.9929V51.3358C3.77275 51.6433 4.04945 51.9123 4.34924 51.9123C4.65673 51.9123 4.93343 51.6433 4.92574 51.3358V46.9929C4.94113 46.6778 4.66442 46.3934 4.34924 46.3934ZM56.8179 34.6406V25.9932C56.8179 25.9317 56.8102 25.8702 56.7872 25.801C56.6949 22.6726 54.2429 19.9285 50.4995 17.8992V12.2342C50.4995 12.165 50.4919 12.1035 50.4765 12.042C50.3689 8.67528 47.5633 5.74669 43.3126 3.67899C38.985 1.58057 33.074 0.296875 26.5481 0.296875C20.0068 0.296875 14.0651 1.58057 9.73755 3.67899C5.50993 5.7313 2.71969 8.62916 2.57364 11.9728C2.53522 12.0497 2.51983 12.1419 2.52753 12.2342V20.8816C2.52753 24.0946 5.00258 26.9078 8.84588 28.9755V30.1516C8.46155 30.313 8.07722 30.4821 7.71597 30.6589C3.49604 32.7036 0.705807 35.6091 0.55976 38.9451C0.521337 39.0296 0.505948 39.1142 0.513642 39.2064V47.8538C0.513642 51.1591 3.13475 54.0338 7.16256 56.1169V60.4675C7.16256 63.9188 10.0066 66.9166 14.3495 69.015C18.6848 71.1211 24.6111 72.4048 31.137 72.4048C37.6629 72.4048 43.6047 71.1211 47.9476 69.015C52.2982 66.9166 55.1345 63.9188 55.1345 60.4675V51.8201C55.1345 51.7509 55.1269 51.6894 55.1115 51.6279C55.0116 48.4457 52.4827 45.6631 48.624 43.6262C48.9622 43.4802 49.3081 43.3495 49.631 43.1957C53.9816 41.0896 56.8179 38.0996 56.8179 34.6406ZM50.4995 20.8816V19.2213C53.774 21.1276 55.6342 23.5181 55.6342 26.0008C55.6342 28.8065 53.2513 31.4891 49.1236 33.4953C45.0036 35.4938 39.2387 36.7621 32.8665 36.7621C26.4713 36.7621 20.6832 35.4938 16.5555 33.4953C14.7108 32.5959 13.2042 31.5583 12.1127 30.4437C16.1328 31.9349 21.0983 32.8188 26.502 32.8188C33.0279 32.8188 38.9696 31.5352 43.3126 29.4291C47.6632 27.3306 50.4995 24.3329 50.4995 20.8816ZM10.2372 4.71666C14.3649 2.71048 20.1529 1.44986 26.5481 1.44986C32.928 1.44986 38.6852 2.71048 42.8129 4.71666C46.933 6.71521 49.3158 9.42085 49.3158 12.2342C49.3158 15.0398 46.933 17.7224 42.8129 19.7286C38.6852 21.7348 32.928 22.9954 26.5481 22.9954C20.1529 22.9954 14.3649 21.7348 10.2372 19.7286C6.10946 17.7224 3.72663 15.0398 3.72663 12.2342C3.72663 9.42085 6.10946 6.71521 10.2372 4.71666ZM8.22327 31.6889C8.41543 31.5967 8.63837 31.5198 8.84588 31.4276V34.6482C8.84588 38.0996 11.6899 41.0896 16.0252 43.1957C20.3681 45.3019 26.2868 46.5855 32.8204 46.5855C36.4484 46.5855 39.8843 46.1705 42.982 45.4556C42.3133 45.8937 41.5985 46.3165 40.7914 46.7008C36.6713 48.707 30.9064 49.9676 24.5342 49.9676C18.139 49.9676 12.351 48.707 8.22327 46.7008C4.09557 44.7023 1.71275 42.0197 1.71275 39.2064C1.71275 36.4008 4.09557 33.6951 8.22327 31.6889ZM1.65894 47.8538V42.8345C2.86574 44.7561 4.98724 46.4088 7.71597 47.7385C12.0512 49.837 17.9852 51.1206 24.5265 51.1206C31.0601 51.1206 36.9634 49.837 41.2987 47.7385C43.0974 46.8622 44.627 45.8323 45.8107 44.6869C46.3334 44.5178 46.833 44.3411 47.325 44.1566V47.8538C47.325 50.6671 44.9344 53.3728 40.7914 55.3713C36.6483 57.3775 30.8603 58.6381 24.4804 58.6381C18.1083 58.6381 12.3279 57.3775 8.19254 55.3713C4.06484 53.3728 1.65894 50.6671 1.65894 47.8538ZM53.9816 60.4675C53.9816 63.2731 51.5833 65.9788 47.448 67.985C43.3049 69.9912 37.5092 71.2518 31.137 71.2518C24.7571 71.2518 18.9845 69.9912 14.8492 67.985C10.7138 65.9788 8.31555 63.2731 8.31555 60.4675V56.6934C8.83054 56.9317 9.36861 57.1546 9.92202 57.3698C11.0981 58.4844 12.5969 59.4836 14.3649 60.3445C18.7001 62.4507 24.6419 63.7343 31.1832 63.7343C37.7091 63.7343 43.62 62.4507 47.9476 60.3445C50.6532 59.0301 52.7671 57.3929 53.9816 55.4943V60.4675ZM53.9585 51.8201C53.9585 54.6257 51.568 57.3083 47.448 59.3145C43.3203 61.3207 37.563 62.5813 31.1832 62.5813C24.7879 62.5813 18.9999 61.3207 14.8722 59.3145C14.2957 59.0378 13.7653 58.7534 13.2657 58.4459C16.6171 59.3299 20.4296 59.7911 24.4804 59.7911C31.0063 59.7911 36.9481 58.5074 41.2987 56.409C45.6416 54.3029 48.478 51.3128 48.478 47.8538V44.8561C51.96 46.7854 53.9585 49.2605 53.9585 51.8201ZM32.8204 45.4326C26.4405 45.4326 20.6602 44.1642 16.5325 42.1658C12.3971 40.1596 9.99887 37.4539 9.99887 34.6482V29.6212C11.198 31.5429 13.3195 33.1955 16.0483 34.5253C20.3835 36.6314 26.3252 37.915 32.8665 37.915C39.3924 37.915 45.3034 36.6314 49.631 34.5253C52.3366 33.2109 54.4504 31.5736 55.6572 29.675V34.6482C55.6572 37.4539 53.2667 40.1596 49.1236 42.1658C44.9882 44.1642 39.1926 45.4326 32.8204 45.4326ZM48.355 36.1318C48.3165 36.1318 48.2781 36.1471 48.2397 36.1548C47.9783 36.2163 47.7785 36.47 47.7785 36.7313V40.7207C47.7785 41.0282 48.0552 41.2972 48.355 41.2972C48.6624 41.2972 48.9392 41.0282 48.9315 40.7207V36.7313C48.9468 36.4238 48.6701 36.1318 48.355 36.1318ZM46.5563 61.9818C46.295 62.0356 46.0951 62.2892 46.1028 62.5583V66.5476C46.0951 66.8474 46.3718 67.1241 46.6793 67.1241C46.9791 67.1241 47.2558 66.8474 47.2558 66.5476V62.5583C47.2635 62.2124 46.8945 61.9049 46.5563 61.9818ZM40.0227 54.5104C40.3302 54.5104 40.6069 54.2414 40.5992 53.9339V49.9446C40.6146 49.6371 40.3302 49.345 40.0227 49.345C39.9843 49.345 39.9458 49.3604 39.8997 49.3681C39.646 49.4219 39.4385 49.6832 39.4462 49.9446V53.9339C39.4462 54.2414 39.7152 54.5104 40.0227 54.5104ZM39.1849 38.6837C39.1388 38.6837 39.1003 38.6914 39.0619 38.7068C38.8005 38.7606 38.6007 39.0142 38.6084 39.2833V43.2649C38.6007 43.5724 38.8774 43.8414 39.1849 43.8414C39.4847 43.8414 39.7614 43.5724 39.7614 43.2649V39.2833C39.7691 38.9681 39.4924 38.6761 39.1849 38.6837ZM37.3785 64.526C37.1172 64.5798 36.9173 64.8335 36.925 65.1025V69.0919C36.9173 69.3916 37.194 69.6683 37.5015 69.6683C37.809 69.6683 38.078 69.3916 38.078 69.0919V65.1025C38.0857 64.7567 37.7168 64.4569 37.3785 64.526ZM30.8449 57.0547C31.1524 57.0547 31.4291 56.7857 31.4214 56.4782V52.4888C31.4368 52.1814 31.1601 51.8893 30.8449 51.8893C30.8065 51.8893 30.768 51.9046 30.7296 51.9123C30.4683 51.9738 30.2684 52.2275 30.2684 52.4888V56.4782C30.2684 56.7857 30.5452 57.0547 30.8449 57.0547ZM28.808 38.9681H28.7542C28.5005 39.0219 28.293 39.2756 28.3007 39.5446V43.8952C28.3007 44.195 28.5697 44.4717 28.8772 44.4717C29.1846 44.4717 29.4613 44.195 29.4537 43.8952V39.5446C29.4537 39.2141 29.1308 38.9297 28.808 38.9681ZM27.1246 64.7874C26.8479 64.8258 26.6173 65.0872 26.6173 65.3639V69.7145C26.6173 70.0219 26.894 70.291 27.1938 70.291C27.5012 70.291 27.778 70.0219 27.7703 69.7145V65.3639C27.778 65.041 27.4474 64.749 27.1246 64.7874ZM20.468 52.1814H20.4219C20.1606 52.2352 19.9607 52.4888 19.9684 52.7578V57.1008C19.9607 57.4083 20.2374 57.6773 20.5449 57.6773C20.8447 57.6773 21.1214 57.4083 21.1214 57.1008V52.7578C21.1214 52.4273 20.7986 52.1352 20.468 52.1814ZM19.0306 36.8774H18.9845C18.7155 36.9389 18.5079 37.2079 18.5233 37.4769V41.8045C18.5233 42.1042 18.8 42.381 19.0998 42.381C19.4073 42.381 19.684 42.1042 19.6763 41.8045V37.4769C19.6917 37.1464 19.3612 36.839 19.0306 36.8774ZM17.3473 62.7043C17.0628 62.7351 16.8323 63.0118 16.84 63.3039V67.6237C16.84 67.9312 17.1167 68.2002 17.4164 68.2002C17.7239 68.2002 18.0006 67.9312 17.9929 67.6237V63.3039C18.016 62.9657 17.6778 62.6582 17.3473 62.7043ZM12.6892 33.1801C12.6508 33.1801 12.6046 33.1878 12.5662 33.2032C12.3048 33.257 12.105 33.5106 12.1127 33.7797V38.1303C12.105 38.4301 12.3817 38.7068 12.6892 38.7068C12.989 38.7068 13.2657 38.4301 13.2657 38.1303V33.7797C13.2811 33.4722 12.9967 33.1801 12.6892 33.1801ZM10.8828 59.0224C10.6292 59.0839 10.4217 59.3376 10.4294 59.5989V63.9495C10.4294 64.257 10.6984 64.526 11.0059 64.526C11.3133 64.526 11.59 64.257 11.5823 63.9495V59.5989C11.59 59.253 11.2287 58.9532 10.8828 59.0224ZM10.6907 50.0906H10.6446C10.3755 50.1444 10.1757 50.4134 10.191 50.6902V55.0177C10.1834 55.3175 10.4601 55.5942 10.7675 55.5942C11.0673 55.5942 11.344 55.3175 11.344 55.0177V50.6902C11.3594 50.3519 11.0289 50.0445 10.6907 50.0906ZM4.34924 46.3934C4.31082 46.3934 4.2724 46.4011 4.23393 46.4164C3.97261 46.4702 3.77275 46.7239 3.77275 46.9929V51.3358C3.77275 51.6433 4.04945 51.9123 4.34924 51.9123C4.65673 51.9123 4.93343 51.6433 4.92574 51.3358V46.9929C4.94113 46.6778 4.66442 46.3934 4.34924 46.3934ZM10.8828 59.0224C10.6292 59.0839 10.4217 59.3376 10.4294 59.5989V63.9495C10.4294 64.257 10.6984 64.526 11.0059 64.526C11.3133 64.526 11.59 64.257 11.5823 63.9495V59.5989C11.59 59.253 11.2287 58.9532 10.8828 59.0224ZM17.3473 62.7043C17.0628 62.7351 16.8323 63.0118 16.84 63.3039V67.6237C16.84 67.9312 17.1167 68.2002 17.4164 68.2002C17.7239 68.2002 18.0006 67.9312 17.9929 67.6237V63.3039C18.016 62.9657 17.6778 62.6582 17.3473 62.7043ZM27.1246 64.7874C26.8479 64.8258 26.6173 65.0872 26.6173 65.3639V69.7145C26.6173 70.0219 26.894 70.291 27.1938 70.291C27.5012 70.291 27.778 70.0219 27.7703 69.7145V65.3639C27.778 65.041 27.4474 64.749 27.1246 64.7874ZM37.3785 64.526C37.1172 64.5798 36.9173 64.8335 36.925 65.1025V69.0919C36.9173 69.3916 37.194 69.6683 37.5015 69.6683C37.809 69.6683 38.078 69.3916 38.078 69.0919V65.1025C38.0857 64.7567 37.7168 64.4569 37.3785 64.526ZM46.5563 61.9818C46.295 62.0356 46.0951 62.2892 46.1028 62.5583V66.5476C46.0951 66.8474 46.3718 67.1241 46.6793 67.1241C46.9791 67.1241 47.2558 66.8474 47.2558 66.5476V62.5583C47.2635 62.2124 46.8945 61.9049 46.5563 61.9818ZM46.5563 61.9818C46.295 62.0356 46.0951 62.2892 46.1028 62.5583V66.5476C46.0951 66.8474 46.3718 67.1241 46.6793 67.1241C46.9791 67.1241 47.2558 66.8474 47.2558 66.5476V62.5583C47.2635 62.2124 46.8945 61.9049 46.5563 61.9818ZM37.3785 64.526C37.1172 64.5798 36.9173 64.8335 36.925 65.1025V69.0919C36.9173 69.3916 37.194 69.6683 37.5015 69.6683C37.809 69.6683 38.078 69.3916 38.078 69.0919V65.1025C38.0857 64.7567 37.7168 64.4569 37.3785 64.526ZM27.1246 64.7874C26.8479 64.8258 26.6173 65.0872 26.6173 65.3639V69.7145C26.6173 70.0219 26.894 70.291 27.1938 70.291C27.5012 70.291 27.778 70.0219 27.7703 69.7145V65.3639C27.778 65.041 27.4474 64.749 27.1246 64.7874ZM17.3473 62.7043C17.0628 62.7351 16.8323 63.0118 16.84 63.3039V67.6237C16.84 67.9312 17.1167 68.2002 17.4164 68.2002C17.7239 68.2002 18.0006 67.9312 17.9929 67.6237V63.3039C18.016 62.9657 17.6778 62.6582 17.3473 62.7043ZM10.8828 59.0224C10.6292 59.0839 10.4217 59.3376 10.4294 59.5989V63.9495C10.4294 64.257 10.6984 64.526 11.0059 64.526C11.3133 64.526 11.59 64.257 11.5823 63.9495V59.5989C11.59 59.253 11.2287 58.9532 10.8828 59.0224Z" fill="black"/>
<path d="M3.6806 15.8594C4.88363 17.7768 7.00267 19.4339 9.73379 20.7596C14.0688 22.8637 20.0046 24.1464 26.5482 24.1464C33.0762 24.1464 38.9836 22.8637 43.3142 20.7596C46.0211 19.4445 48.1345 17.8056 49.3434 15.9074V20.8797C49.3434 23.6872 46.9498 26.3943 42.8098 28.3981C38.6698 30.4019 32.8764 31.6649 26.4996 31.6649C20.1231 31.6649 14.3456 30.4018 10.2133 28.3981C6.08144 26.3945 3.67969 23.6882 3.67969 20.8797V15.8595L3.6806 15.8594Z" fill="#00953B"/>
<path d="M6.39362 19.3946C6.34476 19.3965 6.29633 19.4045 6.2495 19.4186C6.24933 19.4266 6.24933 19.4346 6.2495 19.4426C5.97867 19.5002 5.78707 19.7422 5.79311 20.0191V24.3667C5.78846 24.6851 6.04279 24.947 6.36118 24.9516C6.67957 24.9563 6.94144 24.702 6.9461 24.3836C6.94618 24.378 6.94618 24.3724 6.9461 24.3667V20.0191C6.97283 19.7018 6.73728 19.4229 6.41998 19.3961C6.41121 19.3954 6.40242 19.395 6.39362 19.3946Z" fill="black"/>
<path d="M42.0635 22.3478C42.0147 22.3496 41.9663 22.3576 41.9194 22.3717C41.9193 22.3797 41.9193 22.3877 41.9194 22.3957C41.6486 22.4534 41.457 22.6953 41.463 22.9722V26.9596C41.4584 27.278 41.7127 27.5399 42.0311 27.5445C42.3495 27.5492 42.6114 27.2948 42.616 26.9765C42.6161 26.9708 42.6161 26.9652 42.616 26.9596V22.9722C42.6427 22.6549 42.4072 22.376 42.0899 22.3493C42.0811 22.3485 42.0723 22.3481 42.0635 22.3478Z" fill="black"/>
<path d="M12.7362 23.0921C12.728 23.0998 12.7199 23.1078 12.7122 23.116C12.4128 23.1534 12.1929 23.4152 12.2077 23.7166V28.0403C12.2031 28.3586 12.4574 28.6205 12.7758 28.6252C13.0942 28.6299 13.3561 28.3755 13.3607 28.0571C13.3608 28.0515 13.3608 28.0459 13.3607 28.0403V23.7166C13.3884 23.3994 13.1537 23.1198 12.8365 23.092C12.8031 23.0891 12.7696 23.0892 12.7362 23.0921Z" fill="black"/>
<path d="M32.8897 24.8946C32.8409 24.8965 32.7924 24.9045 32.7456 24.9186C32.7454 24.9266 32.7454 24.9346 32.7456 24.9426C32.4748 25.0002 32.2832 25.2422 32.2892 25.5191V29.5065C32.2846 29.8249 32.5389 30.0867 32.8573 30.0914C33.1757 30.0961 33.4375 29.8417 33.4422 29.5233C33.4423 29.5177 33.4423 29.5121 33.4422 29.5065V25.5191C33.4689 25.2018 33.2334 24.9229 32.9161 24.8961C32.9073 24.8954 32.8985 24.895 32.8897 24.8946Z" fill="black"/>
<path d="M22.4889 25.1843C22.4887 25.1923 22.4887 25.2003 22.4889 25.2083C22.1989 25.2449 21.9822 25.4926 21.9844 25.7848V30.1325C21.9798 30.4509 22.2341 30.7127 22.5525 30.7174C22.8709 30.7221 23.1328 30.4677 23.1374 30.1493C23.1375 30.1437 23.1375 30.1381 23.1374 30.1325V25.7848C23.1532 25.4668 22.9082 25.1962 22.5901 25.1804C22.5563 25.1787 22.5224 25.1801 22.4889 25.1843Z" fill="black"/>
<path d="M49.6301 34.529C45.3026 36.6352 39.3916 37.9188 32.8656 37.9188C26.3244 37.9188 20.3826 36.6352 16.0474 34.529C13.3187 33.1993 11.1972 31.5466 9.99805 29.625V34.652C9.99805 37.4576 12.3963 40.1633 16.5316 42.1695C20.6594 44.168 26.4397 45.4363 32.8195 45.4363C39.1917 45.4363 44.9874 44.168 49.1228 42.1695C53.2659 40.1633 55.6564 37.4576 55.6564 34.652V29.6788C54.4496 31.5774 52.3358 33.2146 49.6301 34.529ZM13.2648 38.1341C13.2648 38.4338 12.9881 38.7106 12.6884 38.7106C12.3809 38.7106 12.1042 38.4338 12.1119 38.1341V33.7834C12.1042 33.5144 12.304 33.2607 12.5654 33.2069C12.6038 33.1916 12.6499 33.1839 12.6884 33.1839C12.9958 33.1839 13.2802 33.476 13.2648 33.7834V38.1341ZM19.6755 41.8082C19.6832 42.108 19.4065 42.3847 19.099 42.3847C18.7992 42.3847 18.5225 42.108 18.5225 41.8082V37.4807C18.5071 37.2117 18.7147 36.9426 18.9837 36.8811H19.0298C19.3604 36.8427 19.6909 37.1502 19.6755 37.4807V41.8082ZM29.4528 43.899C29.4605 44.1988 29.1838 44.4755 28.8764 44.4755C28.5689 44.4755 28.2999 44.1988 28.2999 43.899V39.5484C28.2922 39.2794 28.4997 39.0257 28.7533 38.9719H28.8072C29.13 38.9334 29.4528 39.2178 29.4528 39.5484V43.899ZM39.7605 43.2687C39.7605 43.5762 39.4838 43.8452 39.184 43.8452C38.8766 43.8452 38.5999 43.5762 38.6076 43.2687V39.287C38.5999 39.018 38.7997 38.7644 39.0611 38.7106C39.0995 38.6952 39.1379 38.6875 39.184 38.6875C39.4915 38.6798 39.7682 38.9719 39.7605 39.287V43.2687ZM48.9306 40.7244C48.9383 41.0319 48.6616 41.3009 48.3541 41.3009C48.0544 41.3009 47.7776 41.0319 47.7776 40.7244V36.7351C47.7776 36.4737 47.9775 36.2201 48.2388 36.1586C48.2773 36.1509 48.3157 36.1355 48.3541 36.1355C48.6693 36.1355 48.946 36.4276 48.9306 36.7351V40.7244Z" fill="#00953B"/>
<path d="M13.2665 33.7792V38.1299C13.2665 38.4296 12.9898 38.7063 12.69 38.7063C12.3826 38.7063 12.1058 38.4296 12.1135 38.1299V33.7792C12.1058 33.5102 12.3057 33.2565 12.567 33.2027C12.6054 33.1874 12.6516 33.1797 12.69 33.1797C12.9975 33.1797 13.2819 33.4718 13.2665 33.7792Z" fill="black"/>
<path d="M19.6772 37.4778V41.8053C19.6849 42.1051 19.4082 42.3818 19.1007 42.3818C18.8009 42.3818 18.5242 42.1051 18.5242 41.8053V37.4778C18.5089 37.2088 18.7164 36.9398 18.9854 36.8783H19.0315C19.3621 36.8398 19.6926 37.1473 19.6772 37.4778Z" fill="black"/>
<path d="M29.4542 39.5448V43.8955C29.4619 44.1953 29.1852 44.472 28.8777 44.472C28.5702 44.472 28.3012 44.1953 28.3012 43.8955V39.5448C28.2935 39.2758 28.501 39.0221 28.7547 38.9683H28.8085C29.1314 38.9299 29.4542 39.2143 29.4542 39.5448Z" fill="black"/>
<path d="M39.7626 39.2833V43.265C39.7626 43.5724 39.4859 43.8415 39.1861 43.8415C38.8786 43.8415 38.6019 43.5724 38.6096 43.265V39.2833C38.6019 39.0143 38.8018 38.7606 39.0631 38.7068C39.1015 38.6914 39.14 38.6837 39.1861 38.6837C39.4936 38.6761 39.7703 38.9681 39.7626 39.2833Z" fill="black"/>
<path d="M48.9303 36.7324V40.7217C48.938 41.0292 48.6613 41.2982 48.3538 41.2982C48.054 41.2982 47.7773 41.0292 47.7773 40.7217V36.7324C47.7773 36.471 47.9772 36.2174 48.2385 36.1559C48.277 36.1482 48.3154 36.1328 48.3538 36.1328C48.669 36.1328 48.9457 36.4249 48.9303 36.7324Z" fill="black"/>
<path d="M13.2665 33.7792V38.1299C13.2665 38.4296 12.9898 38.7063 12.69 38.7063C12.3826 38.7063 12.1058 38.4296 12.1135 38.1299V33.7792C12.1058 33.5102 12.3057 33.2565 12.567 33.2027C12.6054 33.1874 12.6516 33.1797 12.69 33.1797C12.9975 33.1797 13.2819 33.4718 13.2665 33.7792Z" fill="black"/>
<path d="M48.9303 36.7324V40.7217C48.938 41.0292 48.6613 41.2982 48.3538 41.2982C48.054 41.2982 47.7773 41.0292 47.7773 40.7217V36.7324C47.7773 36.471 47.9772 36.2174 48.2385 36.1559C48.277 36.1482 48.3154 36.1328 48.3538 36.1328C48.669 36.1328 48.9457 36.4249 48.9303 36.7324Z" fill="black"/>
<path d="M19.6772 37.4778V41.8053C19.6849 42.1051 19.4082 42.3818 19.1007 42.3818C18.8009 42.3818 18.5242 42.1051 18.5242 41.8053V37.4778C18.5089 37.2088 18.7164 36.9398 18.9854 36.8783H19.0315C19.3621 36.8398 19.6926 37.1473 19.6772 37.4778Z" fill="black"/>
<path d="M39.7626 39.2833V43.265C39.7626 43.5724 39.4859 43.8415 39.1861 43.8415C38.8786 43.8415 38.6019 43.5724 38.6096 43.265V39.2833C38.6019 39.0143 38.8018 38.7606 39.0631 38.7068C39.1015 38.6914 39.14 38.6837 39.1861 38.6837C39.4936 38.6761 39.7703 38.9681 39.7626 39.2833Z" fill="black"/>
<path d="M29.4542 39.5448V43.8955C29.4619 44.1953 29.1852 44.472 28.8777 44.472C28.5702 44.472 28.3012 44.1953 28.3012 43.8955V39.5448C28.2935 39.2758 28.501 39.0221 28.7547 38.9683H28.8085C29.1314 38.9299 29.4542 39.2143 29.4542 39.5448Z" fill="black"/>
<path d="M45.81 44.6884C44.6263 45.8337 43.0966 46.8637 41.298 47.74C36.9627 49.8384 31.0594 51.1221 24.5258 51.1221C17.9845 51.1221 12.0505 49.8384 7.71524 47.74C4.98651 46.4102 2.865 44.7576 1.6582 42.8359V47.8553C1.6582 50.6686 4.06411 53.3743 8.1918 55.3728C12.3272 57.379 18.1075 58.6396 24.4797 58.6396C30.8595 58.6396 36.6476 57.379 40.7907 55.3728C44.9337 53.3743 47.3243 50.6686 47.3243 47.8553V44.158C46.8323 44.3425 46.3327 44.5193 45.81 44.6884ZM4.925 51.3373C4.9327 51.6448 4.65599 51.9138 4.34851 51.9138C4.04872 51.9138 3.77202 51.6448 3.77202 51.3373V46.9944C3.77202 46.7253 3.97187 46.4717 4.23319 46.4179C4.27166 46.4025 4.31009 46.3948 4.34851 46.3948C4.66369 46.3948 4.94039 46.6792 4.925 46.9944V51.3373ZM11.3433 55.0192C11.3433 55.3189 11.0666 55.5957 10.7668 55.5957C10.4594 55.5957 10.1827 55.3189 10.1903 55.0192V50.6916C10.175 50.4149 10.3748 50.1459 10.6438 50.0921H10.6899C11.0282 50.046 11.3587 50.3534 11.3433 50.6916V55.0192ZM21.1207 57.1022C21.1207 57.4097 20.8439 57.6787 20.5442 57.6787C20.2367 57.6787 19.96 57.4097 19.9677 57.1022V52.7593C19.96 52.4903 20.1598 52.2366 20.4212 52.1828H20.4673C20.7978 52.1367 21.1207 52.4288 21.1207 52.7593V57.1022ZM31.4207 56.4796C31.4283 56.7871 31.1516 57.0561 30.8442 57.0561C30.5444 57.0561 30.2677 56.7871 30.2677 56.4796V52.4903C30.2677 52.2289 30.4675 51.9753 30.7289 51.9138C30.7673 51.9061 30.8057 51.8907 30.8442 51.8907C31.1593 51.8907 31.436 52.1828 31.4207 52.4903V56.4796ZM40.5985 53.9354C40.6061 54.2429 40.3294 54.5119 40.022 54.5119C39.7145 54.5119 39.4455 54.2429 39.4455 53.9354V49.946C39.4378 49.6847 39.6453 49.4233 39.899 49.3695C39.9451 49.3618 39.9835 49.3465 40.022 49.3465C40.3294 49.3465 40.6138 49.6385 40.5985 49.946V53.9354Z" fill="#00953B"/>
<path d="M4.92643 46.9941V51.337C4.93412 51.6445 4.65741 51.9135 4.34993 51.9135C4.05014 51.9135 3.77344 51.6445 3.77344 51.337V46.9941C3.77344 46.725 3.9733 46.4714 4.23461 46.4176C4.27308 46.4022 4.31151 46.3945 4.34993 46.3945C4.66511 46.3945 4.94181 46.6789 4.92643 46.9941Z" fill="black"/>
<path d="M11.3452 50.694V55.0215C11.3452 55.3213 11.0685 55.598 10.7687 55.598C10.4613 55.598 10.1846 55.3213 10.1922 55.0215V50.694C10.1769 50.4173 10.3768 50.1483 10.6458 50.0944H10.6919C11.0301 50.0483 11.3606 50.3558 11.3452 50.694Z" fill="black"/>
<path d="M21.122 52.761V57.1039C21.122 57.4114 20.8452 57.6804 20.5455 57.6804C20.238 57.6804 19.9613 57.4114 19.969 57.1039V52.761C19.9613 52.492 20.1611 52.2383 20.4225 52.1845H20.4686C20.7991 52.1384 21.122 52.4305 21.122 52.761Z" fill="black"/>
<path d="M31.4225 52.4863V56.4756C31.4302 56.7831 31.1535 57.0521 30.846 57.0521C30.5462 57.0521 30.2695 56.7831 30.2695 56.4756V52.4863C30.2695 52.2249 30.4693 51.9713 30.7307 51.9098C30.7691 51.9021 30.8076 51.8867 30.846 51.8867C31.1612 51.8867 31.4379 52.1788 31.4225 52.4863Z" fill="black"/>
<path d="M40.6005 49.9472V53.9366C40.6081 54.2441 40.3314 54.5131 40.024 54.5131C39.7165 54.5131 39.4475 54.2441 39.4475 53.9366V49.9472C39.4398 49.6859 39.6473 49.4246 39.901 49.3707C39.9471 49.363 39.9855 49.3477 40.024 49.3477C40.3314 49.3477 40.6158 49.6398 40.6005 49.9472Z" fill="black"/>
<path d="M4.92643 46.9941V51.337C4.93412 51.6445 4.65741 51.9135 4.34993 51.9135C4.05014 51.9135 3.77344 51.6445 3.77344 51.337V46.9941C3.77344 46.725 3.9733 46.4714 4.23461 46.4176C4.27308 46.4022 4.31151 46.3945 4.34993 46.3945C4.66511 46.3945 4.94181 46.6789 4.92643 46.9941Z" fill="black"/>
<path d="M40.6005 49.9472V53.9366C40.6081 54.2441 40.3314 54.5131 40.024 54.5131C39.7165 54.5131 39.4475 54.2441 39.4475 53.9366V49.9472C39.4398 49.6859 39.6473 49.4246 39.901 49.3707C39.9471 49.363 39.9855 49.3477 40.024 49.3477C40.3314 49.3477 40.6158 49.6398 40.6005 49.9472Z" fill="black"/>
<path d="M11.3452 50.694V55.0215C11.3452 55.3213 11.0685 55.598 10.7687 55.598C10.4613 55.598 10.1846 55.3213 10.1922 55.0215V50.694C10.1769 50.4173 10.3768 50.1483 10.6458 50.0944H10.6919C11.0301 50.0483 11.3606 50.3558 11.3452 50.694Z" fill="black"/>
<path d="M31.4225 52.4863V56.4756C31.4302 56.7831 31.1535 57.0521 30.846 57.0521C30.5462 57.0521 30.2695 56.7831 30.2695 56.4756V52.4863C30.2695 52.2249 30.4693 51.9713 30.7307 51.9098C30.7691 51.9021 30.8076 51.8867 30.846 51.8867C31.1612 51.8867 31.4379 52.1788 31.4225 52.4863Z" fill="black"/>
<path d="M21.122 52.761V57.1039C21.122 57.4114 20.8452 57.6804 20.5455 57.6804C20.238 57.6804 19.9613 57.4114 19.969 57.1039V52.761C19.9613 52.492 20.1611 52.2383 20.4225 52.1845H20.4686C20.7991 52.1384 21.122 52.4305 21.122 52.761Z" fill="black"/>
<path d="M47.9485 60.3424C43.6209 62.4486 37.7099 63.7322 31.184 63.7322C24.6427 63.7322 18.7009 62.4486 14.3657 60.3424C12.5978 59.4815 11.0989 58.4823 9.92288 57.3677C9.36947 57.1525 8.83139 56.9296 8.31641 56.6913V60.4654C8.31641 63.2711 10.7146 65.9767 14.85 67.9829C18.9853 69.9891 24.758 71.2497 31.1378 71.2497C37.5101 71.2497 43.3057 69.9891 47.4488 67.9829C51.5842 65.9767 53.9824 63.2711 53.9824 60.4654V55.4922C52.7679 57.3908 50.6541 59.028 47.9485 60.3424ZM11.5832 63.9474C11.5909 64.2549 11.3141 64.5239 11.0067 64.5239C10.6992 64.5239 10.4302 64.2549 10.4302 63.9474V59.5968C10.4225 59.3355 10.63 59.0819 10.8837 59.0204C11.2296 58.9512 11.5909 59.2509 11.5832 59.5968V63.9474ZM17.9938 67.6216C18.0015 67.9291 17.7248 68.1981 17.4173 68.1981C17.1175 68.1981 16.8408 67.9291 16.8408 67.6216V63.3018C16.8331 63.0097 17.0637 62.733 17.3481 62.7022C17.6787 62.6561 18.0169 62.9636 17.9938 63.3018V67.6216ZM27.7712 69.7124C27.7788 70.0199 27.5021 70.2889 27.1947 70.2889C26.8949 70.2889 26.6182 70.0199 26.6182 69.7124V65.3618C26.6182 65.0851 26.8488 64.8237 27.1255 64.7853C27.4483 64.7469 27.7788 65.039 27.7712 65.3618V69.7124ZM38.0789 69.0898C38.0789 69.3896 37.8098 69.6663 37.5024 69.6663C37.1949 69.6663 36.9182 69.3896 36.9259 69.0898V65.1004C36.9182 64.8314 37.118 64.5777 37.3794 64.5239C37.7176 64.4548 38.0865 64.7546 38.0789 65.1004V69.0898ZM47.2566 66.5455C47.2566 66.8453 46.9799 67.122 46.6801 67.122C46.3727 67.122 46.096 66.8453 46.1037 66.5455V62.5562C46.096 62.2872 46.2958 62.0335 46.5572 61.9797C46.8954 61.9028 47.2643 62.2103 47.2566 62.5562V66.5455Z" fill="#00953B"/>
<path d="M11.5829 59.5982V63.9488C11.5905 64.2563 11.3138 64.5253 11.0064 64.5253C10.6989 64.5253 10.4299 64.2563 10.4299 63.9488V59.5982C10.4222 59.3369 10.6297 59.0832 10.8834 59.0217C11.2293 58.9525 11.5905 59.2523 11.5829 59.5982Z" fill="black"/>
<path d="M17.993 63.3034V67.6233C18.0007 67.9307 17.724 68.1998 17.4165 68.1998C17.1167 68.1998 16.84 67.9307 16.84 67.6233V63.3034C16.8323 63.0113 17.0629 62.7346 17.3474 62.7038C17.6779 62.6577 18.0161 62.9652 17.993 63.3034Z" fill="black"/>
<path d="M27.7702 65.3651V69.7157C27.7778 70.0231 27.5011 70.2921 27.1937 70.2921C26.8939 70.2921 26.6172 70.0231 26.6172 69.7157V65.3651C26.6172 65.0884 26.8478 64.827 27.1245 64.7886C27.4473 64.7501 27.7778 65.0422 27.7702 65.3651Z" fill="black"/>
<path d="M38.079 65.106V69.0954C38.079 69.3952 37.81 69.6719 37.5025 69.6719C37.195 69.6719 36.9183 69.3952 36.926 69.0954V65.106C36.9183 64.837 37.1182 64.5833 37.3795 64.5295C37.7177 64.4604 38.0867 64.7602 38.079 65.106Z" fill="black"/>
<path d="M47.2567 62.561V66.5504C47.2567 66.8502 46.98 67.1269 46.6802 67.1269C46.3727 67.1269 46.096 66.8502 46.1037 66.5504V62.561C46.096 62.292 46.2959 62.0384 46.5573 61.9846C46.8954 61.9077 47.2644 62.2152 47.2567 62.561Z" fill="black"/>
<path d="M11.5829 59.5982V63.9488C11.5905 64.2563 11.3138 64.5253 11.0064 64.5253C10.6989 64.5253 10.4299 64.2563 10.4299 63.9488V59.5982C10.4222 59.3369 10.6297 59.0832 10.8834 59.0217C11.2293 58.9525 11.5905 59.2523 11.5829 59.5982Z" fill="black"/>
<path d="M47.2567 62.561V66.5504C47.2567 66.8502 46.98 67.1269 46.6802 67.1269C46.3727 67.1269 46.096 66.8502 46.1037 66.5504V62.561C46.096 62.292 46.2959 62.0384 46.5573 61.9846C46.8954 61.9077 47.2644 62.2152 47.2567 62.561Z" fill="black"/>
<path d="M17.993 63.3034V67.6233C18.0007 67.9307 17.724 68.1998 17.4165 68.1998C17.1167 68.1998 16.84 67.9307 16.84 67.6233V63.3034C16.8323 63.0113 17.0629 62.7346 17.3474 62.7038C17.6779 62.6577 18.0161 62.9652 17.993 63.3034Z" fill="black"/>
<path d="M38.079 65.106V69.0954C38.079 69.3952 37.81 69.6719 37.5025 69.6719C37.195 69.6719 36.9183 69.3952 36.926 69.0954V65.106C36.9183 64.837 37.1182 64.5833 37.3795 64.5295C37.7177 64.4604 38.0867 64.7602 38.079 65.106Z" fill="black"/>
<path d="M27.7702 65.3651V69.7157C27.7778 70.0231 27.5011 70.2921 27.1937 70.2921C26.8939 70.2921 26.6172 70.0231 26.6172 69.7157V65.3651C26.6172 65.0884 26.8478 64.827 27.1245 64.7886C27.4473 64.7501 27.7778 65.0422 27.7702 65.3651Z" fill="black"/>
<path d="M29.5029 17.745C29.3219 17.576 29.1395 17.407 28.9585 17.238C28.5218 16.8327 28.0866 16.4259 27.6499 16.0207C27.1235 15.5316 26.5986 15.0426 26.0721 14.5536C25.616 14.1288 25.1599 13.7041 24.7037 13.2809C24.4824 13.0745 24.1459 12.9354 24.2042 13.076V12.6483L23.606 13.2465H24.4779C24.777 13.2465 25.0791 13.2569 25.3782 13.2435C26.7047 13.1822 27.9535 12.4164 28.5712 11.232C28.8807 10.6398 29.0423 9.96678 29.0079 9.29828C28.9735 8.63725 28.7746 7.98222 28.4111 7.42738C28.0537 6.883 27.5617 6.4164 26.9799 6.1173C26.4341 5.83464 25.8344 5.68509 25.2197 5.68359H23.2277C22.9151 5.68359 22.6145 5.95877 22.6294 6.2818C22.6444 6.60633 22.8927 6.88001 23.2277 6.88001H25.118C25.2945 6.88001 25.4709 6.8845 25.6459 6.90693C25.5936 6.89946 25.5397 6.89198 25.4874 6.886C25.7685 6.92338 26.0422 6.99816 26.3039 7.10733C26.2561 7.08789 26.2082 7.06695 26.1604 7.04751C26.4161 7.15669 26.6554 7.29727 26.8752 7.46626C26.8349 7.43485 26.7945 7.40345 26.7541 7.37204C26.9665 7.53804 27.1564 7.72798 27.3224 7.94034C27.291 7.89996 27.2596 7.85958 27.2282 7.8192C27.3972 8.03905 27.5378 8.27833 27.6469 8.53406C27.6275 8.48621 27.6065 8.43835 27.5871 8.39049C27.6963 8.65221 27.7711 8.92589 27.8084 9.20705C27.801 9.15471 27.7935 9.10087 27.7875 9.04852C27.8234 9.3237 27.8234 9.60336 27.7875 9.87854C27.795 9.8262 27.8025 9.77236 27.8084 9.72002C27.7711 10.0012 27.6963 10.2749 27.5871 10.5366C27.6065 10.4887 27.6275 10.4409 27.6469 10.393C27.5378 10.6487 27.3972 10.888 27.2282 11.1079C27.2596 11.0675 27.291 11.0271 27.3224 10.9867C27.1564 11.1991 26.9665 11.389 26.7541 11.555C26.7945 11.5236 26.8349 11.4922 26.8752 11.4608C26.6554 11.6298 26.4161 11.7704 26.1604 11.8796C26.2082 11.8601 26.2561 11.8392 26.3039 11.8197C26.0422 11.9289 25.7685 12.0037 25.4874 12.0411C25.5397 12.0336 25.5936 12.0261 25.6459 12.0201C25.3797 12.0545 25.112 12.0471 24.8443 12.0471H23.606C23.283 12.0471 23.0078 12.3207 23.0078 12.6453C23.0078 12.7843 23.0048 12.9234 23.0078 13.0625C23.0108 13.2405 23.0841 13.4035 23.2127 13.5231C23.3084 13.6114 23.4041 13.7011 23.4998 13.7893C23.9171 14.1767 24.3343 14.5655 24.7516 14.9529C25.3049 15.4673 25.8583 15.9818 26.4116 16.4977C26.9096 16.9613 27.4091 17.425 27.9071 17.8886C28.1539 18.1189 28.3992 18.3507 28.6474 18.578C28.6504 18.581 28.6549 18.584 28.6579 18.587C28.7731 18.6932 28.9211 18.762 29.0811 18.762C29.2277 18.762 29.4027 18.6962 29.5044 18.587C29.6091 18.4733 29.6868 18.3238 29.6793 18.1637C29.6704 18.0127 29.6195 17.8542 29.5029 17.745Z" fill="black" stroke="black" stroke-width="0.587594" stroke-miterlimit="10"/>
<path d="M23.2277 6.88201H30.1848C30.5064 6.88201 30.8279 6.88649 31.148 6.88201H31.1614C31.474 6.88201 31.7746 6.60683 31.7596 6.2838C31.7447 5.95927 31.4964 5.68559 31.1614 5.68559H24.2042C23.8827 5.68559 23.5612 5.6811 23.2411 5.68559H23.2277C22.9151 5.68559 22.6145 5.96076 22.6294 6.2838C22.6444 6.60833 22.8927 6.88201 23.2277 6.88201Z" fill="black" stroke="black" stroke-width="0.587594" stroke-miterlimit="10"/>
<path d="M23.2277 10.0656H30.1848C30.5064 10.0656 30.8279 10.0701 31.148 10.0656H31.1614C31.474 10.0656 31.7746 9.79042 31.7596 9.46739C31.7447 9.14286 31.4964 8.86918 31.1614 8.86918H24.2042C23.8827 8.86918 23.5612 8.8647 23.2411 8.86918H23.2277C22.9151 8.86918 22.6145 9.14436 22.6294 9.46739C22.6444 9.79042 22.8927 10.0656 23.2277 10.0656Z" fill="black" stroke="black" stroke-width="0.587594" stroke-miterlimit="10"/>
</svg>
