<svg viewBox="0 0 121 105" fill="none" xmlns="http://www.w3.org/2000/svg">
<g clip-path="url(#clip0_28814_278171)">
<path d="M46.5438 40.3334C47.9599 40.4419 48.5935 41.943 47.6944 43.108C47.2302 43.7094 46.5095 44.1051 45.9587 44.6487C45.6844 44.9194 45.4009 45.2944 45.3475 45.6558C45.1695 46.859 45.07 48.0397 44.4156 49.1486C44.1032 49.6779 44.1989 50.4762 44.1916 51.1536C44.18 52.247 44.2714 53.3419 44.2503 54.4348C44.2377 55.0887 44.487 55.3014 45.1161 55.3364C47.8559 55.4888 50.5928 55.6933 53.3321 55.8536C54.5697 55.926 55.6782 56.2601 56.7586 56.9223C61.2515 59.6761 65.8395 62.277 70.2829 65.1074C72.2648 66.3698 73.9802 68.0509 75.8372 69.5158C76.0383 69.6744 76.4122 69.7756 76.6463 69.7049C79.6568 68.7956 82.6547 67.8444 85.6603 66.9186C86.3134 66.7175 86.5751 66.3436 86.394 65.6644C85.8752 63.7187 85.4784 61.7776 83.901 60.2516C82.9825 59.3631 82.4704 58.0524 81.7391 56.873C80.5637 57.2136 79.3671 55.9877 79.4515 54.2589C79.47 53.8802 79.4082 53.4789 79.2953 53.1156C78.5403 50.6869 78.0912 48.3005 79.239 45.819C81.0951 41.8061 86.596 41.2859 89.1734 42.8265C89.5026 43.0233 89.9724 43.1135 90.3542 43.0666C91.3719 42.9414 92.0971 43.3931 92.7446 44.0808C94.1286 45.5507 94.4365 47.3757 94.4348 49.2945C94.434 50.1454 94.3631 50.9012 95.0528 51.68C95.9236 52.6633 95.1015 54.776 93.8004 55.2258C94.0842 56.6991 93.7291 58.0398 92.8749 59.2885C92.6992 59.5454 92.6972 60.0296 92.7999 60.3494C93.0948 61.2681 93.5007 62.1503 93.8306 63.0587C94.0277 63.6014 94.3561 63.6525 94.8524 63.4946C96.8405 62.8621 98.8589 62.3174 100.822 61.6172C102.746 60.9314 104.378 61.2954 105.596 62.8696C107.003 64.6891 108.256 66.6298 109.557 68.5307C109.834 68.9357 110.031 69.3959 110.353 69.9954C110.699 69.2205 111.002 68.5966 111.257 67.9535C111.517 67.2956 111.977 67.0928 112.593 67.359C113.263 67.6486 113.257 68.1771 112.972 68.7665C112.577 69.5813 112.153 70.3868 111.837 71.232C111.704 71.5852 111.815 72.0299 111.815 72.4331C111.923 72.4584 112.031 72.4838 112.139 72.5091C112.884 71.5272 113.634 70.5486 114.373 69.5621C114.75 69.0588 115.139 68.5669 115.817 69.0946C116.495 69.6225 116.365 70.1814 115.843 70.773C115.184 71.5193 114.569 72.3047 114.056 72.9273C114.495 74.0154 114.897 74.989 115.277 75.9707C115.328 76.1024 115.335 76.3251 115.258 76.4213C114.549 77.3052 115.234 77.967 115.586 78.6876C116.856 81.294 118.205 83.8666 119.349 86.5278C119.829 87.6434 120.013 88.9414 120.076 90.1697C120.174 92.059 119.194 93.5384 117.356 93.9316C115.682 94.2897 113.909 94.1951 112.179 94.277C111.847 94.2926 111.509 94.2011 111.162 94.1574C110.892 95.4704 111.091 96.46 112.127 97.4392C114.303 99.496 116.305 101.739 118.375 103.908C118.541 104.081 118.689 104.272 118.845 104.454L118.65 104.644C116.113 101.994 113.576 99.3442 111.119 96.7769C105.301 100.161 99.111 101.974 92.5715 102.657C91.0153 102.819 90.5858 102.605 89.3685 101.67C89.1485 102.167 88.9222 102.635 88.7329 103.118C88.5589 103.562 88.4248 104.022 88.2731 104.474C88.1785 104.439 88.0839 104.404 87.9893 104.369C88.3841 103.342 88.7789 102.316 89.1971 101.229C86.6499 99.856 85.3337 97.2872 83.7453 94.9593C83.2883 94.2894 82.912 93.5647 82.4655 92.8871C81.0946 90.8063 80.025 88.5651 78.4931 86.5462C76.2235 83.555 74.9219 79.9877 73.9702 76.1792C73.7193 76.5166 73.5544 76.7584 73.3696 76.9838C70.5798 80.3868 67.785 83.7857 64.9968 87.1899C63.7383 88.7265 62.0451 89.6105 60.2849 90.408C60.073 90.504 59.8522 90.7123 59.7618 90.923C59.3111 91.9736 58.9026 93.0424 58.4122 94.273C58.4558 94.3211 58.6529 94.5387 58.9306 94.8452C59.0834 94.5516 59.1511 94.3109 59.3044 94.1548C59.5012 93.9544 59.8523 93.6375 59.9846 93.6992C60.2467 93.8213 60.4696 94.143 60.5829 94.4318C60.6613 94.6316 60.566 94.9275 60.4851 95.1582C59.9109 96.7948 57.9757 98.2157 56.0686 97.9589C55.6125 97.8975 55.1413 97.9498 54.6607 97.9498C55.0439 100.153 55.4205 102.318 55.8095 104.554H24.5993C25.1617 103.035 25.7019 101.588 26.2336 100.137C27.1141 97.7354 27.9891 95.3315 28.8662 92.9283C28.8769 92.8989 28.8764 92.8606 28.8956 92.8399C30.035 91.6113 29.4136 90.3454 29.1407 88.9755C28.0983 83.7417 27.1808 78.4821 26.2828 73.2207C25.9785 71.4378 25.901 69.6169 25.6465 67.8238C25.5945 67.4576 25.2836 67.0466 24.9747 66.8106C17.4705 61.0766 10.3765 54.8732 3.70851 48.182C2.89454 47.3652 2.17712 46.4523 1.40192 45.5958C0.697703 44.8177 0.484083 43.9135 0.668381 42.9005C1.61824 37.6803 2.48278 32.4422 3.55735 27.2479C4.17538 24.2604 5.05518 21.3184 5.98447 18.4096C6.31355 17.3796 7.16664 16.525 7.72114 15.5562C7.91012 15.2261 8.04076 14.7734 7.98794 14.4072C7.59098 11.6556 7.13844 8.91197 6.71079 6.16468C6.60997 5.51706 6.63166 4.92184 7.34095 4.56232C7.49597 4.48375 7.58806 4.18089 7.61546 3.96915C7.67522 3.50719 7.5831 3.00554 7.7298 2.58158C7.83422 2.27984 8.227 2.0784 8.4911 1.8322C8.73633 2.11078 9.15384 2.3658 9.19553 2.67223C9.3383 3.72137 9.34796 4.78864 9.41207 5.84877C9.41927 5.96793 9.44978 6.08566 9.47686 6.24824C9.70239 4.7011 9.92502 3.20886 10.135 1.71482C10.2155 1.14227 10.4481 0.748429 11.0993 0.852692C11.7217 0.952329 11.8908 1.39206 11.8346 1.95849C11.7763 2.54589 11.7078 3.13227 11.7539 3.74462C11.8311 3.42339 11.8222 3.03384 12.0079 2.79887C12.2221 2.5279 12.6102 2.24696 12.9185 2.2516C13.1207 2.25464 13.4963 2.76598 13.482 3.03287C13.422 4.15319 13.184 5.26402 13.1256 6.38432C13.0577 7.6856 13.1098 8.99316 13.1098 10.298C13.1951 10.332 13.2804 10.3661 13.3657 10.4001C13.6434 9.88709 13.9211 9.37411 14.1988 8.8611C14.2879 8.69642 14.3471 8.50283 14.4721 8.37279C14.7722 8.06055 15.1031 7.77812 15.4216 7.48366C15.645 7.96373 16.0158 8.43344 16.0502 8.92677C16.0846 9.41922 15.8549 9.9735 15.6144 10.4342C14.7339 12.1205 13.8183 13.7892 12.8794 15.4437C12.4388 16.2202 12.5129 17.1682 12.9497 17.9168C13.245 18.4228 13.4561 19.0841 13.423 19.6596C13.222 23.155 12.9675 26.6481 12.6773 30.1374C12.382 33.6891 12.0129 37.2346 11.716 40.7862C11.6908 41.0879 11.8808 41.518 12.1156 41.7151C17.5437 46.273 22.9905 50.8085 28.4417 55.3386C28.6415 55.5047 28.9193 55.6698 29.1634 55.674C30.8697 55.7029 32.5768 55.6893 34.4744 55.6893C34.4744 54.1732 34.4518 52.6881 34.4832 51.2041C34.5011 50.3579 34.4153 49.6217 33.9598 48.8243C33.484 47.9915 33.3672 46.9344 33.1833 45.9583C33.0607 45.3079 32.8461 44.848 32.2372 44.482C31.3393 43.9422 30.4089 43.3573 30.3305 42.1099C30.2729 41.1932 30.5855 40.5221 31.2649 40.3211C31.1294 38.7268 30.854 37.2434 30.9164 35.7743C30.9943 33.9448 31.7417 33.3981 33.5757 33.3993C33.7872 33.3994 33.9986 33.3993 34.2141 33.3993C34.0356 31.2887 34.7369 30.3451 36.7902 29.835C38.4299 29.4276 40.0112 29.645 41.5532 30.2602C43.4122 31.0019 44.9598 32.1825 46.3282 33.6374C47.486 34.8684 47.8599 36.2463 47.3396 37.8606C47.0814 38.6616 46.824 39.4628 46.5438 40.3334ZM32.0042 55.9028C31.5936 55.9028 31.222 55.895 30.8508 55.9041C28.4872 55.9626 27.8175 56.3973 27.1083 58.6389C26.1671 61.6137 25.7644 64.6879 26.0739 67.7924C26.433 71.393 26.8531 74.9958 27.4615 78.5608C28.1218 82.4297 29.0348 86.255 29.8254 90.1018C30.0746 91.3147 30.7972 92.082 31.9961 92.2417C34.0582 92.5166 36.1309 92.832 38.2043 92.8748C42.1649 92.9566 46.1118 92.708 49.9894 91.7645C50.9415 91.5329 51.4573 91.0583 51.7274 90.0864C53.4694 83.8181 54.7927 77.4787 55.1784 70.9662C55.2402 69.9231 55.3111 68.8862 54.2351 68.235C54.1683 68.1946 54.1751 68.0321 54.1209 67.8235C54.3356 67.8928 54.467 67.898 54.5442 67.9655C56.7381 69.8826 59.373 71.0252 61.9509 72.2847C62.8327 72.7155 63.4816 72.8405 64.0629 71.9279C64.1185 71.8407 64.3 71.8341 64.6852 71.6964C64.3905 72.111 64.2668 72.3088 64.1201 72.4876C63.169 73.6462 62.1263 74.7403 61.276 75.9685C59.3593 78.7371 57.5277 81.5653 55.6831 84.3834C55.2284 85.0782 55.1599 85.8385 55.5629 86.6088C56.9875 89.3321 61.3679 90.2443 63.4712 88.0732C65.9865 85.4768 68.4083 82.7675 70.6459 79.9291C72.4536 77.636 74.0117 75.1293 75.5201 72.6205C76.4833 71.0184 76.3218 70.4388 74.9595 69.1804C73.8395 68.1458 72.6793 67.1123 71.3941 66.3076C66.6911 63.3633 61.9165 60.5342 57.196 57.6175C55.896 56.8143 54.5744 56.2319 53.0224 56.1865C51.0703 56.1294 49.1203 56.0007 47.189 55.904C46.5778 59.0504 45.5682 60.6293 43.416 61.7014C41.2039 62.8034 38.8677 63.0624 36.5191 62.2756C34.4883 61.5954 32.861 60.3714 32.3129 58.1393C32.1434 57.4489 32.1131 56.7242 32.0042 55.9028ZM11.3228 40.7869C11.3842 40.281 11.4443 39.8805 11.4798 39.4777C11.7433 36.4937 12.0165 33.5105 12.2581 30.5247C12.5529 26.8834 12.8155 23.2395 13.1019 19.5976C13.1712 18.7173 12.845 17.9646 12.0621 17.6763C10.7976 17.2105 9.47661 16.8671 8.15306 16.6071C7.42359 16.4638 6.85872 16.8735 6.62691 17.6641C6.43429 18.3208 6.13236 18.9453 5.93924 19.6019C3.85231 26.6989 2.41913 33.9369 1.1909 41.2269C0.801486 43.5384 1.34746 45.2578 2.99067 46.9401C9.35098 53.4522 16.1843 59.4178 23.3085 65.0617C23.9813 65.5947 24.6801 66.0946 25.4175 66.6479C26.2019 60.8494 27.1757 57.2027 28.3389 55.7076C22.4111 50.7631 16.4801 45.8159 10.549 40.8687C10.5809 40.8162 10.6128 40.7637 10.6448 40.7113C10.8407 40.7331 11.0367 40.755 11.3228 40.7869ZM86.2614 82.733C84.5825 85.0456 82.3907 86.5161 79.7823 87.4615C80.3241 88.4516 80.7764 89.4188 81.3523 90.3053C83.3389 93.3638 85.2602 96.4744 87.421 99.4062C88.7927 101.267 89.5128 101.19 91.3911 99.777C91.74 99.5145 92.0901 99.2479 92.4052 98.947C93.8268 97.5897 95.3004 96.2796 96.6372 94.8422C100.167 91.0464 103.621 87.1788 107.144 83.3764C107.79 82.6793 108.635 82.1709 109.364 81.5467C111.114 80.0474 112.87 78.5541 114.579 77.0088C115.16 76.4835 115.228 75.8196 114.405 75.0919C113.497 76.0893 112.594 77.0825 111.69 78.0756C111.594 77.9821 111.497 77.8887 111.401 77.7952C112.227 76.945 113.02 76.0577 113.89 75.2555C114.68 74.5275 114.626 74.0041 113.551 73.509C112.671 74.5618 111.779 75.6281 110.887 76.6945C110.828 76.6431 110.769 76.5917 110.71 76.5403C110.889 76.2992 111.058 76.0494 111.249 75.8183C112.702 74.0611 114.156 72.3052 115.616 70.5545C115.954 70.1502 116.154 69.7456 115.641 69.3542C115.101 68.9432 114.866 69.4319 114.608 69.7658C113.329 71.422 112.064 73.0884 110.78 74.7405C110.525 75.0679 110.21 75.3479 109.923 75.6498C109.853 75.609 109.783 75.5682 109.713 75.5274C109.818 75.1589 109.881 74.771 110.037 74.425C110.881 72.5463 111.745 70.6766 112.61 68.8074C112.813 68.3678 113.073 67.9165 112.448 67.6239C111.807 67.3235 111.644 67.8415 111.459 68.2772C110.58 70.345 109.707 72.4154 108.823 74.4809C108.701 74.765 108.582 75.0878 108.364 75.2814C108.157 75.4649 107.805 75.6053 107.547 75.5668C107.379 75.5417 107.173 75.1741 107.142 74.9389C107.027 74.0732 107.018 73.1928 106.888 72.3302C106.822 71.8983 106.582 71.4931 106.42 71.0757C106.328 71.0995 106.237 71.1232 106.145 71.1469C106.074 71.3428 105.952 71.536 105.942 71.7351C105.872 73.0754 105.643 74.4417 105.819 75.7516C106.028 77.3067 105.539 78.3903 104.397 79.3337C99.2984 83.5469 94.2156 87.7794 89.1123 91.9869C88.5613 92.4412 87.9476 92.5207 87.3637 91.9206C86.7953 91.3364 86.1104 90.8542 85.6104 90.2211C85.421 89.9811 85.4575 89.3468 85.6456 89.0604C86.3582 87.9759 87.1752 86.9603 87.9934 85.865C87.4744 84.9265 86.901 83.8896 86.2614 82.733ZM100.779 90.8298C103.449 91.6732 105.916 92.5329 108.429 93.2238C110.923 93.9094 113.462 94.4087 116.084 94.0046C118.861 93.5765 120.205 91.8254 119.724 89.0703C118.984 84.8248 116.57 81.3214 114.665 77.6219C112.804 79.1818 111.003 80.6912 109.073 82.3089C110.276 84.174 111.521 86.1042 112.698 87.9303C112.202 87.6425 111.663 87.0763 111.097 87.0474C108.984 86.9398 106.862 86.9966 104.744 87.0253C104.469 87.0291 104.121 87.1563 103.937 87.3505C102.931 88.4122 101.965 89.5127 100.779 90.8298ZM44.7064 37.4063C42.8517 38.9852 42.0081 39.0054 40.0849 37.5926C39.708 37.3158 39.3844 36.9414 38.9736 36.7412C38.3435 36.4341 37.6721 36.0827 36.9951 36.0258C34.9532 35.8541 33.2757 37.4945 33.2127 39.9107C33.1576 42.0223 33.4167 44.1418 33.5267 46.2584C33.6589 48.8006 35.184 50.237 37.3511 51.2137C40.545 52.6532 44.4533 50.6378 44.8024 47.1252C45.0824 44.3078 44.9443 41.4478 44.9659 38.6065C44.9687 38.2467 44.8146 37.8858 44.7064 37.4063ZM80.9685 50.5053C81.4987 52.8637 81.9505 55.1771 82.5492 57.4517C83.1618 59.7788 84.8598 61.1743 86.9977 62.0368C88.2711 62.5506 89.5867 62.432 90.5474 61.3905C91.5497 60.3038 92.4249 59.0879 93.2567 57.861C93.5274 57.4618 93.6297 56.8309 93.5633 56.3393C93.2966 54.366 92.9415 52.4043 92.5945 50.4427C92.5568 50.2295 92.3967 50.0053 92.232 49.8529C91.2949 48.9858 90.3391 48.1389 89.3348 47.2358C87.2602 49.5004 84.2919 50.1807 80.9685 50.5053ZM62.7514 73.1378C60.4599 71.9626 58.0425 70.7228 55.6036 69.472C55.5813 69.5619 55.543 69.6464 55.5416 69.7316C55.4249 76.8164 53.9069 83.6621 51.9675 90.4273C51.7234 91.2786 51.939 91.768 52.5143 92.2384C53.22 91.2499 53.8075 90.1893 54.6222 89.3504C55.4961 88.4504 55.2143 87.5237 55.1238 86.5224C55.0621 85.84 55.0839 85.1155 55.2521 84.457C55.4023 83.8693 55.7547 83.3122 56.1037 82.8004C58.299 79.581 60.5182 76.378 62.7514 73.1378ZM44.022 50.0961C43.9204 50.0869 43.8188 50.0777 43.7172 50.0685C41.079 52.5928 39.2011 53.0354 34.8952 50.1451C34.8952 52.6457 34.8129 55.1314 34.963 57.6029C34.9939 58.1122 35.8129 58.8165 36.4041 59.0056C38.7176 59.7458 40.9747 59.3709 43.024 58.0952C43.4829 57.8094 43.9524 57.1389 43.9774 56.624C44.0828 54.4525 44.022 52.2728 44.022 50.0961ZM12.5727 10.3888C12.7758 8.0405 12.972 5.778 13.1662 3.51534C13.1795 3.35983 13.2263 3.18286 13.172 3.05151C13.0888 2.85067 12.931 2.6809 12.8048 2.49794C12.6219 2.63745 12.3328 2.74377 12.277 2.92303C12.1394 3.36544 12.0902 3.83924 12.0383 4.3041C11.8588 5.91487 11.6932 7.52722 11.5222 9.13897C11.3692 8.92445 11.3246 8.69773 11.287 8.46987C10.9458 6.40547 11.2108 4.36259 11.4544 2.31174C11.4985 1.94011 11.2654 1.23829 11.0452 1.18718C10.3495 1.02574 10.4056 1.72978 10.3653 2.1371C10.196 3.84296 10.0725 5.55387 9.96197 7.26486C9.91912 7.92806 9.95498 8.59638 9.95498 9.26237C9.8781 9.2726 9.80124 9.28284 9.72436 9.29307C9.56421 8.4642 9.35208 7.64132 9.25618 6.80505C9.11407 5.56591 9.0816 4.31416 8.94074 3.07482C8.90509 2.76124 8.63548 2.47439 8.47337 2.17526C8.28964 2.48174 7.98335 2.7751 7.94897 3.09758C7.88699 3.67944 7.94459 4.28495 8.0288 4.86949C8.24889 6.39662 8.51035 7.91776 8.7553 9.44129C8.67474 9.45647 8.59418 9.47165 8.51362 9.48683C8.22016 7.94179 7.92669 6.39675 7.63322 4.85171C7.48354 4.85437 7.33389 4.85703 7.18422 4.85969C7.13161 5.39299 6.98296 5.93769 7.04437 6.45745C7.22748 8.00757 7.47856 9.55028 7.73078 11.0913C7.94507 12.4006 8.19786 13.7036 8.38186 14.7227C9.86283 15.0099 11.1039 15.2506 12.6123 15.5431C13.5232 13.759 14.5782 11.7469 15.5759 9.70665C15.8811 9.08261 15.9566 8.39085 15.2464 7.67679C14.7903 8.4907 14.3294 9.21503 13.9694 9.98667C13.6841 10.5982 13.2836 10.7807 12.6387 10.7359C12.1595 10.7026 11.5894 10.6931 11.2065 10.9209C10.8249 11.1479 10.6261 11.6838 10.3943 12.0166C10.1509 10.8701 10.7817 10.381 12.5727 10.3888ZM51.5182 91.6755C50.7575 91.9055 50.0856 92.1609 49.3911 92.3099C45.44 93.1577 41.4332 93.3766 37.4061 93.2854C34.8333 93.2271 32.2484 93.1829 29.9704 91.7546C28.6466 93.4505 28.7383 93.8504 30.7201 94.3633C37.4419 96.1032 44.1576 95.9784 50.8497 94.1721C52.4596 93.7375 52.661 92.9373 51.5182 91.6755ZM85.384 61.6903C86.425 63.8374 86.9017 65.866 86.7815 68.031C86.768 68.2747 87.3888 68.7654 87.734 68.7833C90.1113 68.9063 92.2262 68.179 93.8701 66.4176C94.2135 66.0497 94.4668 65.2528 94.3084 64.8205C93.7293 63.2392 92.9586 61.7284 92.2609 60.1929C89.529 62.9361 88.6619 63.1515 85.384 61.6903ZM44.3567 55.6165C44.504 57.0367 44.0603 58.0771 42.8005 58.6858C40.8807 59.6134 38.8679 59.8642 36.7975 59.4569C35.192 59.141 34.5782 58.3879 34.4837 56.7637C34.4545 56.2624 34.2991 56.008 33.7999 55.981C33.4079 55.9598 33.0164 55.9304 32.5445 55.8995C32.3885 57.9687 32.9751 59.6581 34.5513 60.8571C37.3558 62.9905 42.0901 62.7188 44.6923 60.3241C45.9831 59.1362 46.6273 57.6388 46.6661 55.8066C45.8934 55.743 45.2173 55.6873 44.3567 55.6165ZM59.509 90.9276C57.9532 90.2027 56.6898 89.614 55.2122 88.9256C54.4903 90.0043 53.6416 91.3014 52.7617 92.577C52.1706 93.4338 52.1912 94.2285 52.8088 95.067C53.2886 95.7184 53.6515 96.4591 54.1543 97.0896C54.3921 97.3878 54.8359 97.5209 55.1863 97.7288C55.2407 97.6507 55.295 97.5726 55.3494 97.4945C54.8624 96.5987 54.3754 95.7028 53.8885 94.8069L54.114 94.6881C54.487 95.3274 54.8642 95.9643 55.2319 96.6068C55.6039 97.2567 55.942 97.953 56.957 97.6324C56.3565 96.6747 55.7773 95.751 55.198 94.8273C55.2736 94.7772 55.3492 94.7271 55.4248 94.677C55.6646 95.0487 55.9014 95.4224 56.1451 95.7915C56.4027 96.1818 56.6484 96.5819 56.932 96.9525C57.4641 97.6478 57.8104 97.6526 58.4698 97.0224C57.7857 96.1984 57.1002 95.3727 56.4148 94.547C56.4886 94.4868 56.5625 94.4265 56.6364 94.3663C57.1052 94.9329 57.5497 95.522 58.0485 96.0607C58.7948 96.8668 59.1956 96.8222 59.7767 95.8825C59.9873 95.5418 60.1802 95.1621 60.2557 94.7755C60.3047 94.5242 60.1269 94.2284 60.0507 93.9525L59.7943 93.9681C59.5801 94.3578 59.3659 94.7474 59.1561 95.1289C57.9036 94.6481 57.8214 94.3313 58.4029 93.3217C58.871 92.509 59.1974 91.6144 59.509 90.9276ZM93.2735 86.1914C93.3086 86.2664 93.3438 86.3414 93.379 86.4164C92.3419 86.786 91.3197 87.2077 90.264 87.5125C88.8202 87.9294 87.8404 88.9007 87.0681 90.0983C86.8669 90.4104 86.9723 90.9212 86.9369 91.3408C87.259 91.1667 87.7065 91.0751 87.8833 90.8052C89.1612 88.8544 91.234 88.3392 93.2558 87.7203C93.2682 87.7165 93.3103 87.8108 93.3901 87.9477C91.147 88.7235 88.7488 89.2922 87.5613 92.1351C88.2147 91.9225 88.7152 91.8863 89.0486 91.6309C91.4745 89.772 93.8678 87.8706 96.2679 85.978C96.5222 85.7775 96.7535 85.5477 97.0044 85.3235C94.8382 83.706 92.6181 82.5668 89.9375 82.7772C89.8915 82.8677 89.8456 82.9581 89.7997 83.0486C90.8684 83.5759 91.937 84.1032 93.0057 84.6305C92.9737 84.7262 92.9416 84.8219 92.9096 84.9176C92.0541 85.1829 91.2152 85.5519 90.3397 85.6929C88.1887 86.0392 86.8866 87.4025 85.901 89.1891C85.7833 89.4025 85.6778 89.7654 85.7776 89.9319C86.2043 90.6434 86.573 90.2659 86.8702 89.7833C88.358 87.3674 90.9279 86.9916 93.2735 86.1914ZM45.3567 44.6049C46.3992 43.9784 47.348 43.4998 47.6982 42.4045C47.9418 41.6425 47.4847 40.5665 47.0343 40.737C46.4084 40.9739 45.641 41.4442 45.424 42.005C45.1465 42.7224 45.3567 43.6293 45.3567 44.6049ZM32.9511 44.7151C32.8954 43.6711 32.8013 42.9589 32.8344 42.2526C32.8725 41.4378 32.3572 41.0675 31.7662 40.7896C31.5603 40.6928 31.0129 40.8211 30.9828 40.939C30.8386 41.5054 30.8019 42.1024 30.7664 42.6909C30.7588 42.8174 30.8881 42.9843 30.9992 43.0805C31.5739 43.5781 32.1631 44.0587 32.9511 44.7151ZM108.779 82.3638C108.641 82.3865 108.504 82.4091 108.366 82.4317C108.448 83.9023 109.334 85.1853 109.584 86.6286H111.404C110.498 85.1567 109.638 83.7603 108.779 82.3638ZM12.2372 17.0461C12.21 16.0351 11.758 15.5583 10.5327 15.3011C9.18839 15.0188 8.28201 15.2952 7.94591 16.0249C9.35395 16.3599 10.7789 16.699 12.2372 17.0461ZM80.646 53.4952C80.278 53.9162 79.7886 54.2518 79.8375 54.4609C80.0014 55.1627 80.3188 55.8408 80.6694 56.477C80.7487 56.6209 81.2371 56.6539 81.4663 56.5614C81.6405 56.4912 81.8145 56.1295 81.7926 55.9178C81.7356 55.368 81.6181 54.8119 81.4283 54.2939C81.3362 54.0427 81.0276 53.8713 80.646 53.4952ZM95.147 52.7178C94.9533 52.3174 94.7675 51.8438 94.4879 51.4348C94.4355 51.3583 93.9722 51.4828 93.7593 51.6137C93.2036 51.9554 93.293 52.4804 93.4336 53.0165C93.5353 53.404 93.5541 53.8148 93.6726 54.1956C93.7356 54.3977 93.9184 54.6862 94.0723 54.703C94.244 54.7217 94.5356 54.517 94.6146 54.3382C94.8235 53.8655 94.9459 53.3542 95.147 52.7178ZM55.4994 87.3153C55.8115 89.4763 58.7493 90.8868 60.5102 89.8169C58.5792 89.5378 56.9344 88.8247 55.4994 87.3153ZM110.219 74.7738C111.826 73.2539 111.961 72.9302 111.318 72.2662C110.978 73.0417 110.649 73.7942 110.219 74.7738Z" fill="black"/>
<path d="M32.0037 55.9016C32.1126 56.723 32.143 57.4477 32.3124 58.138C32.8605 60.3702 34.4878 61.5941 36.5186 62.2744C38.8672 63.0611 41.2034 62.8021 43.4155 61.7002C45.5677 60.6281 46.5774 59.0491 47.1885 55.9027C49.1198 55.9995 51.0698 56.1281 53.0219 56.1852C54.574 56.2307 55.8956 56.813 57.1955 57.6163C61.916 60.5329 66.6906 63.362 71.3936 66.3064C72.6788 67.111 73.839 68.1445 74.959 69.1791C76.3214 70.4375 76.4828 71.0172 75.5196 72.6192C74.0112 75.1281 72.4531 77.6347 70.6454 79.9278C68.4078 82.7663 65.986 85.4755 63.4707 88.072C61.3674 90.243 56.9871 89.3308 55.5624 86.6076C55.1595 85.8372 55.2279 85.0769 55.6827 84.3821C57.5273 81.564 59.3589 78.7359 61.2755 75.9673C62.1258 74.739 63.1685 73.6449 64.1196 72.4863C64.2663 72.3076 64.39 72.1098 64.6847 71.6951C64.2995 71.8329 64.118 71.8394 64.0625 71.9266C63.4811 72.8392 62.8322 72.7143 61.9504 72.2835C59.3726 71.024 56.7376 69.8813 54.5437 67.9642C54.4665 67.8967 54.3352 67.8915 54.1204 67.8222C54.1746 68.0309 54.1679 68.1933 54.2346 68.2337C55.3106 68.8849 55.2398 69.9219 55.178 70.965C54.7922 77.4775 53.4689 83.8168 51.7269 90.0851C51.4568 91.0571 50.941 91.5316 49.9889 91.7632C46.1113 92.7067 42.1644 92.9553 38.2038 92.8736C36.1304 92.8308 34.0577 92.5153 31.9956 92.2405C30.7968 92.0807 30.0742 91.3134 29.8249 90.1005C29.0343 86.2537 28.1213 82.4284 27.4611 78.5596C26.8527 74.9945 26.4325 71.3917 26.0735 67.7911C25.7639 64.6867 26.1666 61.6125 27.1078 58.6376C27.817 56.3961 28.4867 55.9613 30.8503 55.9029C31.2215 55.8937 31.5932 55.9016 32.0037 55.9016Z" fill="#00953B"/>
<path d="M11.3224 40.7901C11.0363 40.7582 10.8403 40.7363 10.6443 40.7144C10.6124 40.7669 10.5805 40.8194 10.5486 40.8719C16.4797 45.8191 22.4107 50.7663 28.3385 55.7108C27.1753 57.2058 26.2015 60.8526 25.4171 66.651C24.6797 66.0978 23.9808 65.5979 23.3081 65.0649C16.1839 59.421 9.35056 53.4553 2.99025 46.9433C1.34703 45.2609 0.801064 43.5415 1.19048 41.2301C2.4187 33.9401 3.85189 26.702 5.93882 19.6051C6.13194 18.9485 6.43387 18.324 6.62649 17.6672C6.8583 16.8767 7.42317 16.467 8.15264 16.6103C9.47619 16.8702 10.7972 17.2137 12.0617 17.6794C12.8445 17.9678 13.1708 18.7204 13.1015 19.6008C12.8151 23.2427 12.5525 26.8866 12.2577 30.5279C12.0161 33.5137 11.7428 36.4969 11.4794 39.4809C11.4439 39.8836 11.3838 40.2842 11.3224 40.7901Z" fill="#00953B"/>
<path d="M86.2603 82.7336C86.8999 83.8902 87.4733 84.9271 87.9923 85.8656C87.1741 86.9609 86.3571 87.9765 85.6445 89.061C85.4564 89.3474 85.4199 89.9817 85.6093 90.2217C86.1093 90.8548 86.7942 91.337 87.3626 91.9211C87.9465 92.5213 88.5602 92.4418 89.1112 91.9875C94.2145 87.78 99.2974 83.5475 104.396 79.3343C105.537 78.3909 106.027 77.3073 105.818 75.7522C105.641 74.4422 105.871 73.076 105.94 71.7357C105.951 71.5366 106.073 71.3434 106.144 71.1475C106.236 71.1238 106.327 71.1001 106.419 71.0763C106.581 71.4936 106.821 71.8989 106.886 72.3308C107.017 73.1934 107.026 74.0738 107.141 74.9395C107.172 75.1747 107.378 75.5423 107.546 75.5673C107.804 75.6059 108.156 75.4655 108.362 75.282C108.581 75.0884 108.7 74.7655 108.822 74.4815C109.706 72.416 110.579 70.3456 111.458 68.2778C111.643 67.8421 111.806 67.324 112.447 67.6245C113.072 67.9171 112.812 68.3684 112.609 68.8079C111.744 70.6772 110.88 72.5469 110.035 74.4255C109.88 74.7716 109.817 75.1595 109.711 75.528C109.782 75.5688 109.852 75.6096 109.922 75.6504C110.209 75.3485 110.524 75.0684 110.779 74.7411C112.063 73.089 113.328 71.4226 114.607 69.7663C114.865 69.4324 115.1 68.9438 115.64 69.3548C116.153 69.7462 115.953 70.1508 115.615 70.5551C114.155 72.3058 112.701 74.0616 111.248 75.8188C111.057 76.05 110.888 76.2998 110.709 76.5409C110.768 76.5923 110.827 76.6437 110.886 76.6951C111.778 75.6287 112.67 74.5623 113.55 73.5096C114.625 74.0047 114.679 74.5281 113.889 75.2561C113.019 76.0583 112.226 76.9456 111.4 77.7958C111.496 77.8893 111.593 77.9827 111.689 78.0762C112.592 77.083 113.496 76.0899 114.404 75.0924C115.227 75.8202 115.159 76.484 114.578 77.0093C112.869 78.5547 111.113 80.048 109.362 81.5473C108.634 82.1715 107.789 82.6798 107.143 83.377C103.62 87.1794 100.166 91.047 96.6361 94.8428C95.2993 96.2802 93.8257 97.5903 92.4041 98.9476C92.089 99.2485 91.7389 99.5151 91.39 99.7775C89.5118 101.191 88.7916 101.268 87.4199 99.4067C85.2591 96.475 83.3378 93.3644 81.3512 90.3059C80.7753 89.4194 80.323 88.4522 79.7812 87.4621C82.3896 86.5167 84.5814 85.0462 86.2603 82.7336Z" fill="white"/>
<path d="M100.779 90.8289C101.966 89.5118 102.931 88.4114 103.937 87.3497C104.121 87.1555 104.469 87.0282 104.744 87.0245C106.862 86.9958 108.984 86.939 111.097 87.0466C111.663 87.0754 112.202 87.6417 112.698 87.9295C111.521 86.1034 110.276 84.1732 109.073 82.3081C111.003 80.6904 112.804 79.181 114.665 77.6211C116.57 81.3206 118.984 84.824 119.725 89.0694C120.205 91.8246 118.861 93.5757 116.084 94.0037C113.462 94.4079 110.923 93.9086 108.43 93.223C105.916 92.5321 103.449 91.6724 100.779 90.8289Z" fill="white"/>
<path d="M44.7064 37.4084C44.8146 37.8879 44.9687 38.2489 44.9659 38.6086C44.9442 41.4499 45.0824 44.3099 44.8024 47.1273C44.4533 50.64 40.545 52.6554 37.3511 51.2158C35.1839 50.2391 33.6589 48.8028 33.5267 46.2605C33.4167 44.1439 33.1576 42.0245 33.2127 39.9128C33.2757 37.4967 34.9532 35.8563 36.9951 36.0279C37.6721 36.0849 38.3435 36.4362 38.9736 36.7433C39.3844 36.9435 39.708 37.3179 40.0849 37.5948C42.0081 39.0075 42.8516 38.9874 44.7064 37.4084ZM36.2646 45.7405C37.2312 47.7561 40.8158 48.4129 42.1313 45.9294C39.9614 47.9784 38.0813 47.5083 36.2646 45.7405ZM37.7535 39.0889C36.2593 38.4473 34.6439 39.5918 34.6612 41.512C35.1772 39.7367 36.1381 38.9454 37.7535 39.0889ZM39.7486 41.9668C39.7021 41.9621 39.6557 41.9575 39.6092 41.9528C39.6657 42.4938 39.6888 43.0412 39.7902 43.5736C39.8583 43.9313 40.1887 44.3019 40.1213 44.6037C40.0599 44.878 39.6197 45.0672 39.315 45.3201C40.3273 45.2662 40.64 44.9739 40.4439 44.3037C40.2156 43.5237 39.9806 42.7457 39.7486 41.9668ZM42.3918 42.317C42.6586 41.8327 42.9271 41.563 42.9048 41.3201C42.8853 41.1088 42.4806 40.735 42.3469 40.7746C42.0893 40.851 41.758 41.1519 41.7303 41.3914C41.7055 41.6058 42.0479 41.8629 42.3918 42.317ZM36.5471 42.3307C36.8707 41.8552 37.1945 41.5863 37.1617 41.3723C37.1251 41.1331 36.7924 40.8485 36.5339 40.7736C36.4085 40.7372 36.0153 41.1256 36.0021 41.3379C35.9869 41.5801 36.26 41.8403 36.5471 42.3307ZM41.0926 39.257C42.4056 39.1792 43.3456 39.8144 44.1011 40.8225C43.6014 39.4636 42.448 38.8534 41.0926 39.257Z" fill="white"/>
<path d="M80.9688 50.5078C84.2922 50.1832 87.2604 49.5029 89.3351 47.2383C90.3394 48.1414 91.2952 48.9883 92.2323 49.8554C92.397 50.0078 92.5571 50.2321 92.5948 50.4452C92.9417 52.4069 93.2968 54.3685 93.5636 56.3418C93.63 56.8334 93.5277 57.4643 93.257 57.8635C92.4252 59.0904 91.55 60.3063 90.5477 61.393C89.587 62.4345 88.2714 62.5531 86.9979 62.0393C84.8601 61.1768 83.162 59.7813 82.5494 57.4542C81.9507 55.1796 81.499 52.8662 80.9688 50.5078ZM85.5824 57.4611C86.2857 58.4041 87.2428 58.7837 88.3876 58.5774C89.6577 58.3485 90.2962 57.4006 90.9707 56.2929C90.0719 57.0149 89.3808 57.8128 88.5082 58.2083C87.4707 58.6784 86.4856 58.0707 85.5824 57.4611ZM87.5788 52.5498C87.5112 52.5882 87.4436 52.6265 87.376 52.6649C87.8487 53.4862 88.3215 54.3075 88.8372 55.2033C88.365 55.3956 87.9507 55.5644 87.5364 55.7332C87.8908 55.8452 88.188 55.8011 88.4707 55.7112C89.1044 55.5099 89.3301 55.1827 88.8723 54.5545C88.4048 53.9129 88.0071 53.2201 87.5788 52.5498ZM85.5878 54.17C85.1745 53.8779 84.9315 53.577 84.6821 53.5715C84.4894 53.5673 84.102 53.9725 84.134 54.1258C84.1857 54.3736 84.4836 54.6819 84.7298 54.7393C84.9096 54.7812 85.1734 54.4609 85.5878 54.17ZM90.7326 53.1071C90.3853 52.8372 90.1348 52.5044 89.9622 52.541C89.7119 52.594 89.5178 52.914 89.2998 53.1201C89.52 53.3288 89.716 53.6519 89.9692 53.7059C90.1374 53.7418 90.3872 53.3931 90.7326 53.1071Z" fill="white"/>
<path d="M44.0204 50.0979C44.0204 52.2746 44.0812 54.4543 43.9758 56.6258C43.9508 57.1407 43.4814 57.8113 43.0224 58.097C40.9731 59.3728 38.716 59.7476 36.4025 59.0075C35.8113 58.8183 34.9923 58.114 34.9614 57.6047C34.8113 55.1332 34.8936 52.6475 34.8936 50.1469C39.1995 53.0372 41.0774 52.5946 43.7157 50.0703C43.8172 50.0795 43.9188 50.0887 44.0204 50.0979Z" fill="white"/>
<path d="M12.5722 10.3893C10.7813 10.3815 10.1505 10.8706 10.3939 12.0171C10.6257 11.6843 10.8244 11.1484 11.206 10.9214C11.5889 10.6936 12.159 10.7031 12.6383 10.7364C13.2831 10.7812 13.6836 10.5987 13.9689 9.98718C14.329 9.21554 14.7898 8.49121 15.246 7.6773C15.9561 8.39136 15.8806 9.08313 15.5755 9.70716C14.5777 11.7474 13.5228 13.7595 12.6118 15.5436C11.1035 15.2511 9.86238 15.0104 8.3814 14.7232C8.1974 13.7041 7.94461 12.4011 7.73033 11.0918C7.4781 9.55079 7.22702 8.00808 7.04391 6.45796C6.9825 5.9382 7.13115 5.3935 7.18376 4.8602C7.33344 4.85754 7.48309 4.85489 7.63276 4.85223C7.92623 6.39726 8.21971 7.9423 8.51316 9.48734C8.59372 9.47216 8.67428 9.45698 8.75485 9.4418C8.50989 7.91827 8.24844 6.39713 8.02835 4.87C7.94413 4.28546 7.88654 3.67995 7.94852 3.09809C7.98289 2.77562 8.28919 2.48225 8.47294 2.17577C8.63502 2.4749 8.90463 2.76175 8.94029 3.07533C9.08114 4.31467 9.11362 5.56642 9.25573 6.80556C9.35162 7.64184 9.56376 8.46471 9.7239 9.29358C9.80078 9.28335 9.87764 9.27311 9.95452 9.26288C9.95452 8.59689 9.91867 7.92858 9.96152 7.26537C10.0721 5.55438 10.1955 3.84347 10.3648 2.13761C10.4052 1.73029 10.3491 1.02625 11.0447 1.18769C11.2649 1.2388 11.4981 1.94062 11.454 2.31225C11.2103 4.3631 10.9453 6.40598 11.2865 8.47038C11.3242 8.69825 11.3687 8.92496 11.5218 9.13948C11.6927 7.52773 11.8583 5.91539 12.0379 4.30462C12.0898 3.83975 12.1389 3.36596 12.2766 2.92355C12.3324 2.74428 12.6214 2.63796 12.8044 2.49845C12.9305 2.68141 13.0883 2.85118 13.1715 3.05202C13.2259 3.18337 13.1791 3.36034 13.1658 3.51585C12.9715 5.77852 12.7754 8.04101 12.5722 10.3893Z" fill="white"/>
<path d="M85.3828 61.6889C88.6607 63.15 89.5277 62.9347 92.2597 60.1914C92.9574 61.7269 93.728 63.2378 94.3072 64.8191C94.4656 65.2514 94.2122 66.0482 93.8689 66.4161C92.2249 68.1776 90.1101 68.9049 87.7328 68.7818C87.3876 68.764 86.7668 68.2732 86.7803 68.0296C86.9005 65.8645 86.4238 63.836 85.3828 61.6889Z" fill="white"/>
<path d="M44.3561 55.6172C45.2166 55.688 45.8928 55.7436 46.6654 55.8072C46.6267 57.6394 45.9825 59.1369 44.6916 60.3248C42.0895 62.7194 37.3551 62.9911 34.5507 60.8578C32.9745 59.6588 32.3879 57.9693 32.5438 55.9001C33.0157 55.9311 33.4073 55.9604 33.7993 55.9817C34.2985 56.0087 34.4539 56.2631 34.4831 56.7644C34.5776 58.3885 35.1914 59.1417 36.7969 59.4576C38.8672 59.8649 40.88 59.614 42.7999 58.6864C44.0597 58.0778 44.5033 57.0374 44.3561 55.6172Z" fill="#E8BB00"/>
<path d="M93.2739 86.1931C90.9284 86.9933 88.3584 87.3691 86.8707 89.785C86.5735 90.2676 86.2048 90.6451 85.7781 89.9336C85.6783 89.7672 85.7837 89.4042 85.9014 89.1908C86.887 87.4042 88.1891 86.041 90.3402 85.6946C91.2156 85.5536 92.0545 85.1846 92.91 84.9193C92.9421 84.8236 92.9741 84.7279 93.0061 84.6322C91.9375 84.1049 90.8688 83.5776 89.8002 83.0503C89.8461 82.9598 89.892 82.8694 89.9379 82.7789C92.6185 82.5686 94.8387 83.7078 97.0048 85.3252C96.754 85.5494 96.5226 85.7792 96.2683 85.9797C93.8683 87.8723 91.4749 89.7738 89.0491 91.6326C88.7157 91.888 88.2152 91.9242 87.5617 92.1368C88.7493 89.2939 91.1474 88.7252 93.3905 87.9494C93.3108 87.8125 93.2686 87.7183 93.2563 87.722C91.2344 88.3409 89.1616 88.8561 87.8837 90.8069C87.7069 91.0768 87.2595 91.1684 86.9374 91.3425C86.9728 90.923 86.8673 90.4121 87.0685 90.1C87.8408 88.9024 88.8206 87.9311 90.2645 87.5142C91.3202 87.2094 92.3423 86.7877 93.3794 86.4181C93.3442 86.3431 93.3091 86.2681 93.2739 86.1931Z" fill="white"/>
<path d="M45.3575 44.6047C45.3575 43.6291 45.1473 42.7222 45.4248 42.0048C45.6418 41.444 46.4092 40.9736 47.0351 40.7368C47.4855 40.5663 47.9427 41.6422 47.699 42.4042C47.3488 43.4996 46.4001 43.9782 45.3575 44.6047Z" fill="white"/>
<path d="M32.9506 44.7174C32.1626 44.061 31.5734 43.5803 30.9987 43.0827C30.8876 42.9866 30.7583 42.8197 30.7659 42.6932C30.8014 42.1047 30.8381 41.5076 30.9823 40.9413C31.0124 40.8233 31.5598 40.6951 31.7657 40.7919C32.3567 41.0697 32.872 41.4401 32.8339 42.2549C32.8009 42.9611 32.8949 43.6733 32.9506 44.7174Z" fill="white"/>
<path d="M108.778 82.3633C109.638 83.7597 110.497 85.1562 111.403 86.6281H109.583C109.333 85.1848 108.447 83.9018 108.365 82.4312C108.503 82.4085 108.641 82.3859 108.778 82.3633Z" fill="white"/>
<path d="M12.2366 17.0412C10.7783 16.6942 9.35335 16.3551 7.94531 16.02C8.28141 15.2903 9.1878 15.014 10.5321 15.2962C11.7574 15.5535 12.2094 16.0302 12.2366 17.0412Z" fill="white"/>
<path d="M80.6458 53.4961C81.0274 53.8722 81.336 54.0436 81.4281 54.2948C81.6179 54.8128 81.7354 55.3689 81.7924 55.9187C81.8143 56.1303 81.6403 56.4921 81.4661 56.5623C81.2368 56.6547 80.7485 56.6218 80.6692 56.4779C80.3186 55.8417 80.0012 55.1636 79.8373 54.4618C79.7884 54.2526 80.2778 53.9171 80.6458 53.4961Z" fill="white"/>
<path d="M95.1477 52.7127C94.9466 53.3491 94.8243 53.8603 94.6153 54.3331C94.5364 54.5118 94.2448 54.7166 94.073 54.6979C93.9191 54.6811 93.7363 54.3926 93.6734 54.1905C93.5548 53.8097 93.536 53.3988 93.4343 53.0114C93.2937 52.4753 93.2043 51.9502 93.76 51.6086C93.9729 51.4777 94.4362 51.3531 94.4886 51.4297C94.7683 51.8387 94.954 52.3122 95.1477 52.7127Z" fill="white"/>
<path d="M110.219 74.7733C110.648 73.7936 110.978 73.0412 111.318 72.2656C111.961 72.9297 111.826 73.2533 110.219 74.7733Z" fill="white"/>
<path d="M36.2637 45.7383C38.0804 47.5061 39.9605 47.9761 42.1303 45.9272C40.8148 48.4106 37.2302 47.7538 36.2637 45.7383Z" fill="black"/>
<path d="M37.7526 39.0855C36.1372 38.9419 35.1763 39.7332 34.6603 41.5085C34.643 39.5884 36.2584 38.4439 37.7526 39.0855Z" fill="black"/>
<path d="M39.7481 41.9633C39.9801 42.7421 40.2151 43.5201 40.4434 44.3001C40.6395 44.9704 40.3268 45.2626 39.3145 45.3165C39.6192 45.0637 40.0594 44.8745 40.1208 44.6002C40.1882 44.2984 39.8577 43.9278 39.7897 43.5701C39.6883 43.0376 39.6652 42.4902 39.6087 41.9492C39.6552 41.9539 39.7016 41.9586 39.7481 41.9633Z" fill="black"/>
<path d="M42.3913 42.311C42.0474 41.8568 41.705 41.5997 41.7298 41.3853C41.7575 41.1458 42.0888 40.8449 42.3464 40.7685C42.4801 40.7289 42.8848 41.1027 42.9043 41.314C42.9266 41.5569 42.6581 41.8266 42.3913 42.311Z" fill="black"/>
<path d="M36.5476 42.3252C36.2604 41.8348 35.9874 41.5745 36.0026 41.3323C36.0158 41.12 36.409 40.7317 36.5344 40.768C36.7929 40.8429 37.1256 41.1275 37.1622 41.3667C37.195 41.5808 36.8711 41.8497 36.5476 42.3252Z" fill="black"/>
<path d="M41.0918 39.2516C42.4472 38.8479 43.6005 39.4582 44.1003 40.8171C43.3448 39.809 42.4048 39.1737 41.0918 39.2516Z" fill="black"/>
<path d="M85.582 57.4573C86.4852 58.0669 87.4703 58.6746 88.5078 58.2045C89.3804 57.809 90.0715 57.0111 90.9703 56.2891C90.2958 57.3968 89.6574 58.3447 88.3872 58.5736C87.2424 58.7799 86.2853 58.4003 85.582 57.4573Z" fill="black"/>
<path d="M87.5779 52.5469C88.0061 53.2172 88.4039 53.91 88.8714 54.5516C89.3291 55.1798 89.1035 55.507 88.4698 55.7083C88.187 55.7982 87.8898 55.8423 87.5355 55.7303C87.9498 55.5615 88.3641 55.3927 88.8362 55.2004C88.3206 54.3046 87.8478 53.4833 87.375 52.662C87.4426 52.6236 87.5103 52.5853 87.5779 52.5469Z" fill="black"/>
<path d="M85.5885 54.1649C85.1741 54.4558 84.9103 54.7762 84.7305 54.7343C84.4843 54.6769 84.1864 54.3685 84.1347 54.1207C84.1027 53.9674 84.4901 53.5622 84.6828 53.5664C84.9322 53.5719 85.1752 53.8728 85.5885 54.1649Z" fill="black"/>
<path d="M90.7316 53.1002C90.3863 53.3861 90.1364 53.7348 89.9682 53.6989C89.7151 53.6449 89.5191 53.3218 89.2988 53.1131C89.5169 52.907 89.7109 52.587 89.9612 52.534C90.1339 52.4974 90.3844 52.8302 90.7316 53.1002Z" fill="black"/>
</g>
<defs>
<clipPath id="clip0_28814_278171">
<rect width="119.477" height="103.808" fill="white" transform="translate(0.605469 0.835938)"/>
</clipPath>
</defs>
</svg>
