<svg viewBox="0 0 114 93" fill="none" xmlns="http://www.w3.org/2000/svg">
<path d="M59.0389 33.8409C59.4386 34.0186 59.8278 34.2324 60.2021 34.4674L60.5711 34.7092C62.7829 36.2132 64.4157 38.2016 65.3934 40.6367L65.5809 41.1293C66.2857 43.105 66.8218 45.1337 67.4197 47.1528L67.6806 48.0177C67.8197 48.4696 67.9885 48.9288 68.2156 49.3505L68.3173 49.5289C68.6528 50.0924 69.0588 50.4633 69.5426 50.6236C69.9661 50.7639 70.4364 50.7393 70.9505 50.5585L71.1734 50.4716C72.0049 50.1162 72.833 49.7339 73.6272 49.2964L73.9645 49.1055C75.7279 48.0844 77.4275 46.9884 79.1851 45.9798L79.9425 45.553C80.7922 45.0842 81.7249 44.7186 82.6688 44.4495L83.0747 44.3398C83.9533 44.1155 84.7644 44.1774 85.4731 44.4852C86.0937 44.7548 86.641 45.215 87.0878 45.8451L87.272 46.1256C88.0852 47.4463 88.4368 48.8908 88.2374 50.3856L88.19 50.6851C88.0337 51.5444 87.8361 52.396 87.6231 53.2457L86.9655 55.795L86.3249 57.8048L84.7148 58.4021C84.8327 58.2675 84.9486 58.0946 85.0336 57.8763L85.0822 57.7339L85.0825 57.733L85.5344 56.2282C85.6457 55.8499 85.7515 55.4696 85.8417 55.0863L85.9261 54.7027C86.2576 53.0789 86.2522 51.4489 85.6182 49.8853L85.4835 49.5734C85.1759 48.9085 84.7499 48.3978 84.2139 48.0819C83.7442 47.8051 83.1956 47.6818 82.5791 47.7282L82.3109 47.7583C81.4812 47.883 80.6539 48.1546 79.8809 48.4947L79.553 48.6442C78.7262 49.0355 77.9403 49.524 77.1564 49.9966L76.3719 50.4591C74.4941 51.5317 72.527 52.376 70.4328 52.9227L70.012 53.0278C69.0949 53.2479 68.2667 53.2264 67.5363 52.968C66.8977 52.742 66.3279 52.3328 65.8353 51.7342L65.6287 51.4661C65.0512 50.6645 64.5689 49.7737 64.1603 48.8629L63.9901 48.4707C63.425 47.1384 62.9401 45.7807 62.4324 44.4243L61.9131 43.0692C61.3223 41.5757 60.4879 40.2332 59.2238 39.2048L58.9648 39.0035C57.6127 37.9955 56.1748 37.5765 54.8045 37.7412C53.52 37.8957 52.3053 38.5617 51.2842 39.716L51.0826 39.954C50.927 40.1448 50.7849 40.3495 50.6483 40.5562L50.2439 41.1675C50.1752 41.2671 50.1025 41.3624 50.0018 41.4988C49.6294 40.699 49.4238 39.9804 49.6694 39.232L49.7277 39.0723C50.4488 37.3244 51.5071 35.8205 52.9762 34.6428L53.2755 34.4114C54.9584 33.1595 56.7671 32.96 58.6597 33.684L59.0389 33.8409Z" fill="#00953B" stroke="white" stroke-width="0.195865"/>
<path d="M90.7685 19.5501C95.0832 18.9744 99.0241 19.8772 102.048 23.0209L102.337 23.3328C105.932 27.3213 107.373 32.0029 106.3 37.2778L106.188 37.7898C106.097 38.1813 105.985 38.5674 105.864 38.9527L105.494 40.1115C105.467 40.1987 105.422 40.2803 105.355 40.3628C105.4 38.1845 105.413 36.0117 104.927 33.8631L104.911 33.791L104.837 33.7872C104.716 33.7806 104.617 33.7942 104.54 33.8326C104.459 33.8728 104.41 33.9355 104.384 34.0062C104.358 34.073 104.353 34.1456 104.353 34.2096C104.352 34.2423 104.354 34.2758 104.355 34.3064L104.357 34.394C104.357 35.6732 104.436 36.9426 104.371 38.2015L104.334 38.7409C104.229 39.9434 104.01 41.1335 103.794 42.3296L103.584 43.5279C103.571 43.6033 103.545 43.679 103.511 43.7601C103.485 43.8207 103.454 43.8906 103.426 43.9589C103.417 43.9603 103.407 43.9613 103.397 43.9627C103.374 43.8969 103.349 43.8304 103.328 43.7714C103.312 43.7277 103.298 43.6847 103.287 43.6431L103.261 43.5206C103.166 42.7418 103.077 41.9602 102.986 41.1785L102.705 38.8361C102.546 37.5784 102.285 36.3404 101.798 35.1607L101.574 34.6586C101.175 33.8223 100.656 33.0776 99.9919 32.4362L99.6988 32.1678C97.5897 30.3394 95.299 28.7932 92.7906 27.569L92.2865 27.3284C90.3351 26.4202 88.3157 26.1468 86.2817 26.7063L85.875 26.8293C84.3431 27.3346 82.8434 27.9439 81.3461 28.5449L79.849 29.139C79.8081 29.1548 79.7728 29.1786 79.7449 29.1988C79.7131 29.2219 79.6959 29.2368 79.6711 29.2534L79.6111 29.2933L79.6309 29.3624C79.6466 29.4154 79.6626 29.4684 79.6784 29.5213L79.7038 29.6061L79.7903 29.5897C80.0479 29.5417 80.3279 29.5094 80.5997 29.4509L80.8679 29.3821C81.9714 29.0435 83.0871 28.7201 84.1807 28.3374L84.6481 28.1695C87.5893 27.0835 90.3853 27.319 93.0531 28.7832L93.5848 29.0917C94.764 29.8157 95.9295 30.5637 97.0834 31.3286L98.2338 32.0995C99.9781 33.2802 101.069 34.9305 101.49 36.9287L101.565 37.3332C101.8 38.7778 101.916 40.2389 102.04 41.7041L102.171 43.1693C102.208 43.5529 102.233 43.9344 102.224 44.3229C102.125 44.0209 102.043 43.7157 101.947 43.404C101.87 43.1538 101.784 42.9042 101.677 42.6651L101.561 42.4303C100.779 40.9761 99.9741 39.5327 99.1481 38.1024L98.3151 36.6768C97.0736 34.5756 95.2758 33.0398 93.2109 31.8433L92.7943 31.6086C91.6133 30.9604 90.392 30.3567 89.136 29.8605L88.5956 29.6552C86.8277 29.0067 84.9844 28.9876 83.1845 29.4538L82.8242 29.5536C81.8085 29.8539 80.7992 30.176 79.7932 30.5074L76.7819 31.5168C76.5797 31.5848 76.4266 31.6308 76.3053 31.6509C76.1848 31.6707 76.1066 31.6634 76.0478 31.636C75.9896 31.6088 75.9352 31.5545 75.8759 31.45C75.8461 31.3973 75.8163 31.3343 75.7852 31.2591L75.6857 30.9949C75.1622 29.5069 74.7025 27.9754 74.1025 26.5077L73.8364 25.8831C72.3681 22.585 69.8703 20.2526 66.7622 18.5939L66.1325 18.2713C65.2648 17.8439 64.3561 17.4905 63.4392 17.1741L62.5201 16.8685C60.8173 16.3199 59.153 16.5267 57.5841 17.261L57.2723 17.4146C56.6847 17.7181 56.1115 18.0611 55.5624 18.4335L55.0213 18.8157C53.9513 19.6023 52.8881 20.3986 51.8273 21.1978L48.6455 23.5948C48.4849 23.7152 48.3215 23.8309 48.1514 23.927L47.9788 24.0162C47.8791 24.0626 47.8004 24.087 47.7405 24.0943C47.681 24.1015 47.6485 24.0913 47.6305 24.0788C47.613 24.0666 47.5934 24.0412 47.5819 23.9863C47.5761 23.9584 47.5734 23.9247 47.5733 23.8849L47.5828 23.7465C47.6067 23.5599 47.637 23.3729 47.6971 23.2093L47.7681 23.0544C48.8466 21.1474 49.9172 19.2369 51.0131 17.3415L52.119 15.4513C52.7491 14.3883 53.5985 13.4909 54.5579 12.7024L54.9753 12.3716C56.4819 11.2152 58.1848 10.6411 60.0531 10.7172L60.4287 10.7401C63.0143 10.9631 65.4245 11.7707 67.5779 13.1791L68.0053 13.468C69.8485 14.763 71.2002 16.5289 72.199 18.5201L72.3939 18.9215C73.1368 20.4976 73.7195 22.14 74.364 23.769L74.6445 24.4659C74.9865 25.2986 75.3334 26.1378 75.7385 26.9465L75.9162 27.2913C76.258 27.9373 76.7502 28.485 77.3797 28.8801L77.6586 29.0398C77.8275 29.1284 78.0158 29.1952 78.265 29.1865L78.4724 29.1793L78.3348 29.024C78.2959 28.98 78.2619 28.937 78.2203 28.8878L78.0871 28.7487C77.2656 28.029 76.6502 27.1712 76.2096 26.1891L76.0312 25.7605C75.6848 24.8596 75.3368 23.9593 74.987 23.0597L73.9318 20.363C73.0553 18.1379 71.804 16.1491 70.1857 14.3975L69.8567 14.0497C69.0791 13.2476 68.2041 12.5722 67.2222 12.0487L66.7952 11.833C64.9066 10.939 62.938 10.2611 60.8602 10.0127L60.4429 9.96771C57.3158 9.68382 54.8358 10.932 52.9764 13.2269L52.6131 13.6993C51.6578 15.007 50.8422 16.4205 50.0209 17.8205L49.1922 19.2121C49.0679 19.4154 48.9504 19.6226 48.834 19.8284L48.4806 20.4402C48.408 20.5611 48.3185 20.6638 48.2238 20.7827C48.3051 20.4323 48.3742 20.0873 48.4613 19.7481L48.5644 19.3841C50.3395 13.7953 54.0668 10.2643 59.6858 9.02907L60.2358 8.91643C65.2261 7.97186 69.3151 9.75317 72.5051 13.5724L72.811 13.948C74.2193 15.7241 75.2277 17.724 76.0707 19.8111L76.423 20.7105C76.7112 21.4702 76.9831 22.2343 77.252 23.0001L78.0649 25.2993C78.1612 25.5645 78.2455 25.7743 78.3345 25.9284C78.4235 26.0825 78.5248 26.1949 78.6612 26.2461C78.7975 26.2971 78.9484 26.2796 79.1177 26.2234C79.2025 26.1952 79.2964 26.1563 79.3995 26.1075L79.7399 25.9334C81.1939 25.1567 82.6026 24.3131 84.0727 23.5986L84.7063 23.3005C86.7918 22.3579 89.0044 21.837 91.3017 21.6997L91.7622 21.6775C95.5425 21.5364 98.5933 22.9427 100.872 25.8557L101.091 26.1419C101.895 27.2271 102.576 28.3973 103.272 29.5668L103.976 30.7329C104.07 30.8836 104.149 31.0393 104.315 31.3379L104.472 31.6216L104.498 31.2985C104.507 31.1792 104.52 31.0981 104.529 31.0305C104.535 30.9835 104.539 30.9352 104.533 30.8879L104.521 30.8408C103.116 26.687 100.765 23.3329 96.5345 21.721L96.1195 21.5705C93.8644 20.7942 91.5381 20.8485 89.2331 21.2092L88.773 21.2858C86.2794 21.7183 83.9247 22.538 81.7275 23.7792L81.2903 24.0326C80.9858 24.2142 80.6789 24.3922 80.3695 24.5657L79.4349 25.0748C79.3999 25.0933 79.3484 25.0987 79.2733 25.0962C79.237 25.095 79.2009 25.0915 79.1602 25.089C79.161 25.0849 79.1629 25.0807 79.1637 25.0767C79.1731 25.0303 79.181 24.9885 79.1905 24.948C79.1999 24.9079 79.2095 24.8752 79.2213 24.85L79.252 24.8073C80.2459 24.1052 81.2151 23.3752 82.2377 22.736L82.6795 22.4676C85.0308 21.0862 87.5397 20.0708 90.2284 19.631L90.7685 19.5501Z" fill="#00953B" stroke="white" stroke-width="0.195865"/>
<path d="M87.1472 35.3627C88.3762 35.5673 89.3913 36.1343 90.1614 37.0803L90.3113 37.2747C91.3565 38.6873 92.082 40.2665 92.675 41.9066L92.9218 42.6127C93.8291 45.2985 94.4155 48.0381 94.3429 50.8711L94.3191 51.4395C94.3015 51.748 94.2271 52.0446 94.1696 52.3653C94.1511 52.3686 94.1325 52.3714 94.114 52.3746C94.0755 52.2981 94.0377 52.2237 94.0005 52.15L93.866 51.8622C93.1572 50.141 92.4882 48.3948 91.7446 46.683L91.4207 45.9519C90.8124 44.6032 89.9204 43.4397 88.859 42.4155L88.3942 41.9852C87.1424 40.8713 85.8064 40.1893 84.3888 39.9263C83.0599 39.6799 81.6646 39.8026 80.2074 40.2752L79.9151 40.3746C77.1157 41.3662 74.521 42.7361 72.1179 44.4589L71.6402 44.8087C71.4727 44.9334 71.3509 45.0209 71.256 45.0738C71.1596 45.1276 71.1126 45.1323 71.0852 45.1251C71.0577 45.1178 71.0189 45.0899 70.9612 44.9947C70.9331 44.9483 70.9028 44.8916 70.8698 44.8223L70.7584 44.5756C69.7789 42.3624 68.7061 40.2005 67.4319 38.135L66.8737 37.2559C64.8046 34.0965 61.919 32.129 58.4514 30.9564L57.7501 30.732C55.8834 30.1693 53.9895 29.6879 52.023 29.6709L51.6291 29.6745C51.1038 29.6868 50.578 29.7328 50.0542 29.7892L48.489 29.9639C48.3335 29.9794 48.175 30.0125 48.0121 30.0436C47.8346 29.0767 48.222 28.0328 49.0541 27.5821L49.2324 27.4971C53.4743 25.7593 57.7287 25.0486 61.9148 27.3973L62.3202 27.634C64.2025 28.7811 65.5461 30.4479 66.7322 32.2633L67.2317 33.0492C68.2883 34.7511 69.012 36.5953 69.7079 38.4607L70.4068 40.3294C70.4726 40.5019 70.5366 40.6772 70.6027 40.8524L70.8104 41.3746C70.8797 41.5376 70.982 41.6643 71.1245 41.723C71.2326 41.7674 71.3513 41.7681 71.4757 41.7304L71.6013 41.6798C71.9627 41.5032 72.3352 41.3334 72.6986 41.1465L73.0589 40.9528C75.0351 39.8377 76.9705 38.6638 78.9629 37.5958L79.8211 37.1455C80.8006 36.6417 81.8503 36.2621 82.9113 35.9081L83.9734 35.559C84.865 35.2665 85.802 35.1986 86.7437 35.3062L87.1472 35.3627Z" fill="#00953B" stroke="white" stroke-width="0.195865"/>
<path d="M64.2621 22.4469C65.1471 22.665 65.9191 23.1085 66.588 23.7039L66.868 23.9685C68.5131 25.6075 70.0018 27.3742 71.2397 29.3342L71.4843 29.7284C72.2392 30.9736 72.7519 32.3159 73.0988 33.7211L73.2383 34.3271C73.305 34.6426 73.3595 34.9742 73.4269 35.3004L73.4991 35.6231C73.5953 36.0161 73.7513 36.2884 74.0058 36.4066C74.2268 36.5091 74.4957 36.483 74.8087 36.3676L74.9454 36.3128C76.8658 35.4875 78.77 34.6326 80.7033 33.8506L81.5339 33.5204C83.4169 32.7846 85.3502 32.4728 87.3442 32.9582L87.7439 33.0664C88.8244 33.3866 89.808 33.8878 90.7666 34.4521L91.7192 35.0335C91.933 35.1668 92.1413 35.309 92.3481 35.4549L92.9684 35.8992C95.9025 38.0027 97.2233 40.8551 97.1585 44.3721L97.148 44.7148C97.0625 46.693 96.6164 48.5852 95.941 50.4275L95.6376 51.2137C95.6217 51.2531 95.5983 51.2921 95.5583 51.3518L95.5338 50.9166C95.3527 46.7825 94.3454 42.8671 92.5062 39.1801L92.127 38.4459C91.8868 37.9955 91.6026 37.5637 91.2975 37.1521L90.9859 36.7472C89.7366 35.176 88.1075 34.4362 86.1557 34.4592L85.7608 34.4738C84.1681 34.5732 82.6501 34.9728 81.2161 35.6041L80.6071 35.8897C79.5518 36.4104 78.5086 36.9562 77.4702 37.5103L74.3593 39.1783C73.7933 39.4792 73.245 39.7891 72.6885 40.0909L72.129 40.3889C71.9775 40.4679 71.8626 40.52 71.772 40.5463C71.6819 40.5724 71.627 40.569 71.5888 40.5533C71.5504 40.5372 71.509 40.5007 71.4621 40.4187C71.4385 40.3774 71.4154 40.3273 71.3909 40.2676L71.3132 40.0587C70.448 37.5453 69.4676 35.0773 68.1255 32.7674L67.8514 32.3078C66.6963 30.4082 65.3172 28.6953 63.4969 27.3912L63.1269 27.1355C60.9295 25.6762 58.4963 25.1232 55.9206 25.1844L55.4033 25.205C53.7114 25.2976 52.0598 25.6031 50.4368 26.0454L49.7429 26.2435C49.009 26.4615 48.2825 26.7107 47.5828 26.9399C47.5866 26.7327 47.5893 26.4538 47.6031 26.1541L47.6272 25.7728C47.6301 25.736 47.6514 25.6826 47.6917 25.627C47.7115 25.5997 47.7345 25.5748 47.757 25.5535L47.8237 25.5015C50.5333 23.9476 53.306 22.5715 56.403 22.074L57.027 21.9862C59.3073 21.7126 61.5755 21.8415 63.815 22.3427L64.2621 22.4469Z" fill="#00953B" stroke="white" stroke-width="0.195865"/>
<path d="M85.3544 41.1457C86.8742 41.7326 88.195 42.8585 89.3029 44.3219L89.5214 44.6196C89.9658 45.2405 90.3389 45.9177 90.6921 46.6072L91.0411 47.2997C91.8344 48.8903 92.4237 50.5571 92.8758 52.2734L93.0613 53.0117C93.1041 53.1905 93.1026 53.3159 93.0636 53.4145C93.0347 53.4874 92.9811 53.555 92.89 53.6224L92.7859 53.6906C92.0449 54.1169 91.3063 54.548 90.5686 54.9802L88.3563 56.2759C88.3071 56.3046 88.2527 56.3285 88.1782 56.3579C88.1453 56.3708 88.1083 56.3844 88.0671 56.4004L88.1577 55.9921C88.4844 54.5874 88.8721 53.182 89.1519 51.7596L89.2648 51.1488C89.5964 49.2203 89.1074 47.4362 88.0801 45.8225L87.8672 45.5019C87.3352 44.731 86.6942 44.1756 85.9489 43.8404C85.2968 43.5472 84.569 43.4246 83.7718 43.4686L83.4257 43.4975C82.1593 43.6395 81.0048 44.0886 79.9152 44.6815L79.4527 44.9441C78.0595 45.7635 76.6917 46.6116 75.3075 47.4343L73.9157 48.2467C73.3899 48.5472 72.85 48.8243 72.3033 49.0905L70.6511 49.8713C70.3335 50.0202 70.0737 50.0569 69.8509 49.9969C69.6561 49.9443 69.475 49.8139 69.2993 49.589L69.2239 49.4874C69.0509 49.237 68.903 48.9572 68.7909 48.6692L68.6917 48.3791C68.4093 47.4399 68.1388 46.4965 67.8682 45.5529C67.733 45.0813 67.5972 44.6098 67.46 44.1385L67.0419 42.7256C66.509 40.967 65.8282 39.2609 64.7713 37.7343L64.5549 37.4312C62.9852 35.3035 60.99 33.7553 58.4713 32.9708L57.961 32.8239C56.0811 32.3287 54.3859 32.7234 52.8956 33.8514L52.6001 34.0863C51.472 35.031 50.5187 36.1295 49.7269 37.36L49.3969 37.8961C49.3256 38.0175 49.2456 38.1312 49.1201 38.3219C49.0951 38.2485 49.0742 38.1838 49.0549 38.1271C49.0374 38.0756 49.0224 38.0298 49.0098 37.9868L48.9788 37.8644L47.7367 31.7481C47.6941 31.5424 47.7123 31.4093 47.7712 31.3143C47.8163 31.2418 47.8925 31.1793 48.0121 31.1245L48.1468 31.072C49.6036 30.5853 51.0888 30.3634 52.6111 30.4803L52.9156 30.5088C55.5755 30.7915 58.1082 31.5075 60.4988 32.6889L60.975 32.9316C63.1037 34.0478 64.7162 35.6928 66.0221 37.6704L66.2791 38.0703C67.5794 40.1462 68.7247 42.2966 69.68 44.5433L70.078 45.5122C70.2551 45.9596 70.4662 46.2535 70.7598 46.3325C71.0169 46.4016 71.2996 46.2956 71.6155 46.0682L71.7532 45.9636C74.0396 44.1304 76.5606 42.7235 79.2603 41.5776L79.8027 41.3525C81.882 40.5035 83.7358 40.5206 85.3544 41.1457Z" fill="#00953B" stroke="white" stroke-width="0.195865"/>
<path d="M78.6795 52.6573C79.4986 52.5589 80.1726 52.8978 80.6345 53.5727L80.7239 53.7119C81.5976 55.1617 82.174 56.7212 82.4392 58.3827L82.4887 58.7156C82.4972 58.7789 82.479 58.8833 82.4405 58.9813C82.4218 59.0289 82.3997 59.0703 82.3777 59.1006L82.3326 59.1452C81.8663 59.3132 81.3956 59.469 80.9224 59.6197L79.497 60.0654C79.4936 60.0665 79.4893 60.0645 79.4856 60.0653C79.6508 59.2439 79.8183 58.4458 79.971 57.6513L80.1254 56.8202C80.1641 56.6008 80.1465 56.3653 80.1064 56.1438L80.0597 55.9278C79.9577 55.5177 79.7411 55.2059 79.4386 55.027C79.1738 54.8704 78.8528 54.8213 78.5037 54.8876L78.3527 54.9224C78.0667 55.0023 77.7882 55.1197 77.5225 55.2518L77.2609 55.3888C75.7402 56.2126 74.236 57.0587 72.7179 57.8791L71.1946 58.6887C70.5443 59.0275 69.8815 59.3436 69.2132 59.6499L67.1982 60.5534C66.6984 60.7765 66.234 60.8271 65.8006 60.732C65.4206 60.6487 65.058 60.4513 64.7115 60.1471L64.5636 60.0108C63.2008 58.6768 62.1358 57.1229 61.1241 55.5183L60.6932 54.8272C60.2951 54.1852 59.841 53.5724 59.4183 52.9548L59.3704 52.8855L59.2947 52.9227L59.1132 53.0107L59.0388 53.0473L59.0619 53.127C59.095 53.2377 59.1168 53.3456 59.1483 53.4676C59.1709 53.5553 59.198 53.6453 59.2364 53.7316L59.2785 53.8164C59.7493 54.6507 60.1999 55.5131 60.726 56.3231L60.9562 56.6669C61.5493 57.523 62.1767 58.3591 62.8331 59.1699L63.4998 59.972C64.0918 60.6677 64.7814 61.1054 65.5318 61.2777C66.1884 61.4284 66.8854 61.3747 67.595 61.1221L67.8996 61.0012C69.3206 60.3844 70.7094 59.6886 72.0782 58.9611L73.441 58.2254C74.4638 57.6647 75.4445 57.011 76.4291 56.3826L77.4165 55.7671C77.6738 55.6119 77.9621 55.4845 78.2556 55.4004L78.5488 55.3317C78.7735 55.2904 78.9399 55.3327 79.0507 55.4264C79.1344 55.4972 79.1958 55.6057 79.2247 55.7531L79.2425 55.9133C79.2503 56.1611 79.241 56.4099 79.2234 56.6599L79.1567 57.4135C79.1442 57.5484 79.1039 57.6196 79.0606 57.6486C79.0218 57.6744 78.9466 57.6875 78.8067 57.6215L78.4475 57.467C76.7751 56.8215 75.2217 57.2145 73.7754 58.0835L73.4674 58.2772C72.7517 58.7444 72.0513 59.237 71.3556 59.7351L69.2709 61.2262C68.9459 61.4544 68.6189 61.6801 68.2903 61.9037L67.3015 62.5698C66.4724 63.1236 65.8309 63.3876 65.1954 63.3857C64.6387 63.384 64.0724 63.1781 63.3747 62.756L63.0677 62.5628C62.2797 62.0457 61.5863 61.4287 61.0762 60.6669L60.8691 60.3308C60.0495 58.8852 59.2507 57.4271 58.4757 55.957L57.7083 54.4821C57.1799 53.4533 56.4951 52.5869 55.7133 51.7612L55.3725 51.4089C54.6539 50.683 54.0646 49.8341 53.466 48.9815L52.859 48.1319C52.8077 48.0623 52.7724 47.9756 52.7378 47.8669C52.7139 47.7917 52.6867 47.7029 52.6565 47.6096C53.732 47.4013 54.7091 47.5088 55.5174 48.1115L55.6815 48.2434C56.1681 48.66 56.5719 49.1737 56.9757 49.6972L57.3824 50.2205C57.5409 50.4199 57.6852 50.6309 57.8342 50.8454C57.9825 51.0589 58.1356 51.2758 58.3089 51.4789L58.4788 51.3939C58.1531 49.9005 57.4924 48.6015 56.2519 47.6708L55.9966 47.4898C55.0326 46.8459 53.9606 46.5678 52.8239 46.6059L52.5951 46.6176C52.4088 46.6305 52.273 46.6023 52.1639 46.5402C52.0815 46.4933 52.0077 46.4241 51.9382 46.3254L51.8704 46.2174C51.6653 45.8592 51.5237 45.5778 51.4494 45.3536C51.3749 45.1285 51.3733 44.9774 51.4245 44.867C51.4755 44.7571 51.5905 44.6621 51.8084 44.5778C51.9713 44.5149 52.1825 44.461 52.448 44.4103L52.7318 44.361C54.542 44.0642 56.1286 44.5273 57.3837 45.759L57.63 46.016C58.6201 47.1074 59.556 48.2639 60.3966 49.4743L60.7514 49.9967C61.988 51.8623 63.0927 53.8016 64.266 55.713L64.7745 56.5305C65.0076 56.9008 65.1974 57.194 65.3768 57.4117C65.5568 57.63 65.733 57.7817 65.9429 57.8585C66.1535 57.9354 66.3847 57.9324 66.6641 57.87C66.8728 57.8235 67.1134 57.7426 67.3992 57.6321L67.7004 57.5121C69.0408 56.9644 70.3366 56.3014 71.6286 55.6456L72.9212 54.9962C73.9903 54.4697 75.0255 53.9001 76.0971 53.4049L76.5587 53.1973C77.1353 52.9465 77.7727 52.7876 78.408 52.6935L78.6795 52.6573Z" fill="#00953B" stroke="white" stroke-width="0.195865"/>
<path d="M62.2748 17.383C66.0676 18.6344 69.3723 20.5936 71.7405 23.8441L71.9668 24.1625C73.1642 25.8931 73.8958 27.8322 74.4585 29.845L74.6906 30.7115C74.7663 31.0068 74.8694 31.3059 75.0055 31.5853L75.1524 31.8569C75.3517 32.1876 75.5552 32.3949 75.817 32.4766C76.0112 32.5372 76.2248 32.525 76.4715 32.463L76.7308 32.3846C78.1737 31.8912 79.6126 31.3901 81.058 30.91L82.507 30.4377C84.683 29.7442 86.8322 29.8393 88.9118 30.7057L89.3267 30.8897C90.2456 31.3198 91.1533 31.7787 92.0465 32.2621L92.935 32.7535C94.6964 33.7501 96.1119 35.1176 97.2636 36.7719L97.4911 37.1063C99.0555 39.4765 100.44 41.9137 101.221 44.6422L101.37 45.1911C101.435 45.4503 101.444 45.6456 101.392 45.8113C101.353 45.9345 101.277 46.0499 101.149 46.1673L101.003 46.2854C100.489 46.6589 99.9867 47.0485 99.4876 47.4415L97.9939 48.6204C97.8888 48.7024 97.7803 48.7777 97.6173 48.8957C97.6376 48.7557 97.6542 48.6459 97.6723 48.5459L97.7031 48.4009C98.2378 46.2798 98.3315 44.1467 97.9219 42.0047L97.8332 41.5765C97.4069 39.661 96.5153 38.0165 95.1055 36.6536L94.8158 36.3844C93.3053 35.0312 91.6599 33.8876 89.8426 33.0024L89.4771 32.8288C87.6354 31.9777 85.7206 31.7505 83.7481 32.1178L83.353 32.1992C80.8933 32.7538 78.5864 33.7012 76.3243 34.7501L75.3569 35.205C75.1035 35.3256 74.9184 35.4128 74.7765 35.4617C74.6315 35.5117 74.5581 35.512 74.5135 35.4918C74.4706 35.4722 74.4249 35.4201 74.3754 35.2799C74.3511 35.2109 74.3275 35.127 74.3033 35.026L74.2259 34.67C73.6305 31.8285 72.4306 29.2903 70.6083 27.0524L70.2352 26.6086C69.8774 26.1959 69.5218 25.7821 69.1818 25.3576L68.8471 24.9283C67.3024 22.8927 65.2519 21.8545 62.81 21.4471L62.3169 21.3734C58.7837 20.9131 55.3646 21.1669 52.0678 22.4681L51.4098 22.7424C51.354 22.7669 51.293 22.7849 51.2266 22.8016C51.1936 22.8099 51.1569 22.8181 51.1199 22.827L51.2624 22.693C52.5565 21.6909 53.8449 20.6832 55.1428 19.6882L56.4451 18.698C56.8017 18.4291 57.1914 18.1938 57.5931 17.9835L57.9986 17.7807C59.2878 17.1662 60.6292 16.9298 61.9999 17.3011L62.2748 17.383Z" fill="#00953B" stroke="white" stroke-width="0.195865"/>
<path d="M83.6239 48.7407C84.0449 48.9777 84.3757 49.4001 84.6189 50.0166L84.7174 50.2919C85.064 51.3596 85.135 52.4562 84.9882 53.5419L84.912 54.0058C84.7791 54.6985 84.6112 55.3838 84.4322 56.068L83.8841 58.1232C83.8656 58.1946 83.8316 58.2652 83.7893 58.341C83.7587 58.3958 83.721 58.4597 83.6863 58.5224C83.6708 58.5218 83.6554 58.5211 83.64 58.5205C83.6061 58.4415 83.5717 58.3656 83.5391 58.2903L83.4283 58.0062C83.1389 57.1293 82.8665 56.2409 82.5719 55.3607L82.2686 54.484C81.9311 53.5461 81.3539 52.7745 80.5107 52.2212L80.3385 52.1133C79.7193 51.7442 79.0443 51.5667 78.3509 51.715L78.2117 51.7491C77.4981 51.9463 76.7878 52.1869 76.1058 52.4815L75.8158 52.611C73.4037 53.7233 71.0288 54.8929 68.6196 55.9974L67.5851 56.4667C67.2305 56.6254 66.9665 56.737 66.7555 56.7973C66.5457 56.8572 66.4002 56.8621 66.2767 56.8209C66.1523 56.7793 66.0337 56.6854 65.8906 56.5111C65.819 56.4239 65.7432 56.3195 65.659 56.196L65.3759 55.7654C64.3288 54.1474 63.313 52.4984 62.2729 50.8687L61.2227 49.2472C60.6765 48.4185 60.0771 47.6231 59.4646 46.8413L58.8492 46.0637C57.4133 44.2608 55.5322 43.4362 53.3019 43.466L52.8516 43.4837C52.5796 43.5008 52.3077 43.5249 52.0369 43.5537L51.226 43.6523C51.0132 43.6804 50.8646 43.6436 50.7728 43.5698C50.7059 43.5158 50.6574 43.4326 50.6415 43.3124L50.6371 43.1803C50.6547 42.8 50.6799 42.4017 50.8152 42.0877L50.8796 41.9586C51.3251 41.1987 51.7806 40.4327 52.3353 39.7672L52.5797 39.488C53.1353 38.885 53.7663 38.5391 54.4468 38.4095C55.0431 38.2959 55.6827 38.3482 56.3489 38.5448L56.6364 38.6378C58.2745 39.2159 59.4787 40.3192 60.3031 41.7806L60.4635 42.0772C60.7894 42.7124 61.0744 43.3682 61.3459 44.032L62.1452 46.0358C62.5898 47.1377 62.9624 48.2953 63.4411 49.3966L63.6534 49.8652C64.0204 50.6406 64.5045 51.3759 65.0327 52.0579L65.2617 52.347C66.1973 53.503 67.434 54.0147 68.8992 53.9097L69.1952 53.8806C70.6639 53.6969 72.074 53.3042 73.413 52.7228L73.9834 52.4623C75.3774 51.791 76.7424 51.0452 78.1113 50.3216L79.4821 49.6088C80.1263 49.2817 80.7802 48.9593 81.4557 48.7376L81.746 48.6489C82.5261 48.4306 83.1437 48.4704 83.6239 48.7407Z" fill="#00953B" stroke="white" stroke-width="0.195865"/>
<path d="M76.3456 57.9354C76.3818 57.9597 76.4178 58.0157 76.4354 58.126L76.4457 58.2562C76.4588 58.9147 76.4773 59.5745 76.5095 60.2336L76.5464 60.8927C76.5597 61.0979 76.5252 61.2259 76.4551 61.3166C76.4012 61.3862 76.3189 61.4438 76.1972 61.4936L76.0611 61.5414C73.9855 62.1763 71.9088 62.8106 69.8395 63.4681L67.7729 64.1351C66.7241 64.4782 65.6921 64.8923 64.6614 65.2882L63.6311 65.6745C63.4618 65.7358 63.3409 65.7765 63.248 65.7959C63.1561 65.8152 63.1066 65.8104 63.0722 65.7942C63.0366 65.7773 62.998 65.7394 62.948 65.6533C62.9232 65.6105 62.8975 65.5593 62.8689 65.4981L62.7711 65.2816L61.6005 62.6364C61.5624 62.5499 61.5314 62.4616 61.4878 62.3432C61.9127 62.6367 62.2932 62.908 62.6697 63.1553L63.1229 63.4394C64.2806 64.1278 65.5017 64.2346 66.7178 63.7447L66.9616 63.6384C67.4678 63.4011 67.9636 63.1292 68.4373 62.8275L68.9027 62.5159C69.5889 62.0343 70.2578 61.5262 70.9274 61.0261C71.43 60.6507 71.9337 60.2794 72.448 59.9252L72.9668 59.5774C73.6867 59.1073 74.4696 58.7362 75.2578 58.3606L76.045 57.9795C76.2102 57.8974 76.3004 57.9054 76.3456 57.9354Z" fill="#00953B" stroke="white" stroke-width="0.195865"/>
<path d="M78.1853 58.2651L78.5373 58.4138C78.5417 58.4158 78.5555 58.4256 78.5748 58.4499C78.5929 58.4727 78.6111 58.5026 78.6261 58.5351C78.641 58.5673 78.6522 58.5992 78.6574 58.6262C78.66 58.6395 78.6608 58.6507 78.6608 58.6588L78.6597 58.6699C78.4626 59.2341 78.2697 59.798 78.0206 60.3305L77.9103 60.5561C77.8416 60.6911 77.7672 60.7022 77.7266 60.6913C77.6873 60.6807 77.636 60.6405 77.5996 60.5577L77.5689 60.4594C77.3962 59.6229 77.2599 58.7804 77.1092 57.9356C77.1278 57.9165 77.1456 57.898 77.164 57.8791C77.5081 58.0082 77.8499 58.1301 78.1853 58.2651Z" fill="#00953B" stroke="white" stroke-width="0.195865"/>
<path d="M79.7168 22.2668C79.9672 22.0723 80.1394 21.9401 80.3099 21.8058C82.7229 19.9058 85.3402 18.3818 88.2914 17.453C92.0919 16.257 95.7614 16.6754 99.3295 18.3463C102.672 19.9113 105.184 22.3522 106.928 25.5868C108.522 28.5421 108.868 31.7318 108.616 34.9976C108.226 40.0511 106.018 44.2914 102.522 47.876C98.6251 51.871 94.0764 55.0046 89.1316 57.5699C83.045 60.7277 76.7198 63.3226 70.172 65.3826C67.8367 66.1173 65.5998 67.0821 63.4956 68.3392C62.8588 68.7196 62.4022 68.6238 62.1313 67.9655C59.8258 62.3633 56.3388 57.4394 53.1238 52.3578C48.4023 44.8949 45.5504 36.7842 44.7362 28.0013C44.3583 23.925 44.7146 19.8996 46.4135 16.129C49.1957 9.95392 53.9446 6.4492 60.8266 6.11765C63.8782 5.97064 66.6762 6.95634 69.2903 8.48577C73.4235 10.9039 76.5902 14.2052 78.5011 18.6197C78.9298 19.6099 79.207 20.665 79.5515 21.691C79.604 21.8473 79.643 22.0081 79.7168 22.2668ZM86.4791 57.6191C86.6667 57.5533 86.7603 57.5312 86.8441 57.4895C90.0348 55.9045 93.0885 54.0882 95.9876 52.024C96.4062 51.7259 96.7894 51.251 96.9644 50.7752C97.1613 50.2401 97.5014 49.9687 97.9387 49.6975C100.09 48.3637 102.172 46.9248 103.71 44.8808C106.576 41.0719 107.643 36.7033 107.443 32.0042C107.277 28.0806 105.714 24.7525 102.756 22.1413C98.0622 17.999 92.7679 16.7462 86.8635 19.1414C85.3386 19.76 83.9023 20.6327 82.5088 21.5188C81.5178 22.149 80.6634 22.9934 79.7548 23.7501C79.2983 24.1303 78.941 24.0355 78.7818 23.4639C78.6456 22.975 78.5216 22.4826 78.3991 21.99C77.1844 17.1049 74.3902 13.3145 70.3021 10.4249C67.1741 8.21399 63.7067 6.98813 59.8716 7.40592C54.0145 8.04401 49.9231 11.218 47.5522 16.5572C46.0534 19.9324 45.6183 23.5211 45.8945 27.1729C46.5463 35.7921 49.1941 43.7983 53.6848 51.1932C55.3288 53.9005 57.1692 56.4906 58.7874 59.2123C60.1791 61.5531 61.3931 63.9993 62.6621 66.4111C63.0989 67.2414 63.0657 67.2572 63.8678 66.8195C64.1056 66.6897 64.3481 66.5688 64.5878 66.4426C67.0438 65.15 69.6964 64.3601 72.3064 63.4607C76.281 62.091 80.2191 60.6315 84.005 58.7931L86.4791 57.6191Z" fill="black" stroke="black" stroke-width="0.391729"/>
<path d="M25.0834 70.2093C25.245 69.9433 25.4309 69.6874 25.6309 69.4442L25.8353 69.2056C27.0997 67.7775 28.6537 66.8026 30.4643 66.332L30.8296 66.2442C32.0852 65.9699 33.3562 65.7873 34.6303 65.5892L35.9055 65.3815C36.1919 65.332 36.485 65.2676 36.7658 65.1721L37.0415 65.0655C37.4757 64.877 37.7822 64.6187 37.9437 64.2822C38.085 63.9878 38.1095 63.6456 38.0272 63.2603L37.9851 63.0919C37.8339 62.5586 37.6687 62.0248 37.4743 61.5028L37.2698 60.9847C36.705 59.6388 36.0831 58.3364 35.5277 56.9985L35.2932 56.4224C35.0388 55.7792 34.8655 55.0861 34.7608 54.3937L34.7193 54.0973C34.6408 53.4593 34.7578 52.8957 35.0371 52.4269C35.2818 52.0163 35.6542 51.6738 36.1378 51.4162L36.3519 51.3111C37.3574 50.8568 38.4073 50.7395 39.4428 51.0151L39.6492 51.0763C40.244 51.2651 40.8296 51.4819 41.4126 51.7101L43.1612 52.4091L44.514 53.0391L44.7657 54.1276C44.6895 54.0537 44.5984 53.9792 44.4849 53.9174L44.3865 53.8694L44.3856 53.869L43.3591 53.4115C43.1007 53.298 42.8402 53.1879 42.5761 53.0889L42.3103 52.994C41.185 52.61 40.0227 52.4641 38.8493 52.7734L38.6151 52.8413C38.1115 53.0003 37.7049 53.2588 37.4278 53.6157C37.185 53.9285 37.0459 54.3119 37.0224 54.7583L37.0192 54.9535C37.0304 55.4703 37.1186 55.9955 37.2515 56.5007L37.3979 56.9989C37.533 57.4142 37.7011 57.8208 37.876 58.2233L38.3975 59.4221C38.9474 60.7543 39.3488 62.1234 39.56 63.5458L39.6389 64.1585C39.7112 64.8249 39.6208 65.4048 39.374 65.8937C39.1582 66.3211 38.8198 66.6845 38.3541 66.9771L38.1466 67.099C37.6161 67.3866 37.0453 67.6183 36.4638 67.8089L35.8791 67.9868C34.8825 68.2665 33.8769 68.4857 32.8684 68.7225L31.8596 68.9679C30.7433 69.252 29.7101 69.7236 28.8612 70.531L28.6945 70.6967C27.8525 71.5682 27.4202 72.5568 27.4124 73.5521C27.405 74.4853 27.7704 75.4142 28.5003 76.2479L28.6512 76.4134C28.7729 76.5416 28.9065 76.6617 29.0413 76.778L29.4381 77.1196C29.4936 77.1693 29.5459 77.2211 29.616 77.2883C29.0354 77.4687 28.5292 77.5371 28.0429 77.3054L27.9372 77.2503C26.7665 76.5819 25.7991 75.6978 25.1001 74.5531L24.964 74.3203C24.2342 73.022 24.2564 71.7312 24.9377 70.4625L25.0834 70.2093Z" fill="#00953B" stroke="white" stroke-width="0.195865"/>
<path d="M17.8359 46.3858C17.82 43.2794 18.8159 40.5759 21.3123 38.7234L21.5579 38.5466C24.707 36.3644 28.15 35.7703 31.785 37.0082L32.1374 37.1337C32.4061 37.2337 32.6684 37.349 32.9302 37.4692L33.7191 37.8368C33.7508 37.8513 33.7806 37.8699 33.8103 37.892C32.2994 37.6674 30.7854 37.471 29.2441 37.6177L29.1709 37.6242L29.1573 37.6977C29.1413 37.7852 29.1419 37.8615 29.1642 37.9259C29.1879 37.9942 29.2332 38.04 29.2864 38.0683C29.336 38.0947 29.3911 38.1048 29.4374 38.111C29.4612 38.1142 29.4853 38.1173 29.5071 38.1193L29.569 38.1257C30.4786 38.2425 31.3833 38.3014 32.2686 38.4612L32.6468 38.5363C33.2082 38.6587 33.7611 38.8163 34.3126 38.9855L35.9719 39.5031C36.0212 39.5179 36.0704 39.5431 36.1243 39.5742C36.1533 39.5909 36.187 39.6111 36.2212 39.6313C36.1867 39.6394 36.153 39.6467 36.1232 39.6533C36.091 39.6604 36.0605 39.6664 36.031 39.6706L35.9457 39.6772C35.3854 39.6739 34.8232 39.6661 34.2607 39.6591L32.5726 39.6449C31.6645 39.6436 30.7598 39.7162 29.8753 39.9556L29.4976 40.0689C28.8652 40.277 28.2869 40.5793 27.7687 40.9942L27.5509 41.1792C26.1601 42.4215 24.929 43.7981 23.8786 45.3338L23.4388 46.0025C22.6144 47.3086 22.2338 48.7225 22.4468 50.2234L22.4977 50.5248C22.6439 51.2802 22.8244 52.0298 23.0145 52.7764L23.5881 55.0106C23.5965 55.0444 23.6114 55.0736 23.6235 55.0958C23.6381 55.1225 23.646 55.1338 23.6553 55.1525L23.6873 55.2171L23.7588 55.2054C23.7978 55.199 23.8369 55.1933 23.8759 55.1869L23.9632 55.1725L23.958 55.0846C23.9475 54.9001 23.9497 54.6962 23.9327 54.4959L23.9084 54.2983C23.7887 53.6016 23.6775 52.8983 23.5397 52.2007L23.3913 51.5045C22.8905 49.328 23.3096 47.3743 24.586 45.6216L24.853 45.2736C25.4736 44.5033 26.1098 43.7446 26.7571 42.9958L27.4081 42.2503C28.3993 41.126 29.6627 40.506 31.1112 40.3896L31.4043 40.373C32.1008 40.3498 32.7975 40.3646 33.4956 40.3904L35.5971 40.474C35.8099 40.4804 36.0204 40.4932 36.2312 40.5171C36.0692 40.5439 35.9065 40.57 35.7385 40.599C35.5537 40.6309 35.3681 40.6697 35.1871 40.7249L35.0073 40.7863C33.9046 41.2087 32.8077 41.648 31.718 42.1039L30.6308 42.5653C29.0219 43.2573 27.7649 44.3961 26.7264 45.7547L26.522 46.0287C25.9543 46.8082 25.4145 47.6214 24.9476 48.4687L24.7522 48.8338C24.1285 50.0345 23.9465 51.3461 24.1142 52.67L24.1525 52.9348C24.2732 53.683 24.4102 54.4286 24.5539 55.1726L24.9961 57.4C25.026 57.5497 25.0446 57.6606 25.0477 57.746C25.0507 57.8306 25.0378 57.8787 25.0173 57.9112C24.997 57.9433 24.9599 57.9742 24.883 58.0057C24.8441 58.0216 24.7978 58.0365 24.7425 58.0515L24.5473 58.0981C23.446 58.3337 22.3161 58.5207 21.2191 58.8132L20.7518 58.9451C18.2717 59.6889 16.385 61.2532 14.923 63.3109L14.6364 63.7292C14.2535 64.3069 13.9201 64.9205 13.612 65.5426L13.311 66.1667C12.7634 67.3323 12.7594 68.5393 13.1395 69.7246L13.2205 69.9613C13.3826 70.4065 13.5736 70.8447 13.7882 71.2687L14.0109 71.6881C14.4715 72.5186 14.9401 73.3452 15.4105 74.1703L16.8216 76.6454C16.8922 76.7699 16.958 76.8957 17.0099 77.0232L17.057 77.1511C17.0803 77.2244 17.0896 77.2797 17.0894 77.3188C17.0892 77.357 17.0798 77.3715 17.0753 77.3766C17.0713 77.381 17.0596 77.3908 17.0242 77.3936C17.0062 77.395 16.9842 77.3948 16.9578 77.3915L16.864 77.3725C16.7337 77.3386 16.6065 77.3006 16.4993 77.245L16.3995 77.183C15.1447 76.2444 13.8862 75.3117 12.6415 74.3621L11.4022 73.4064C10.7089 72.8654 10.1517 72.1835 9.68094 71.4333L9.4847 71.1077C8.8046 69.9392 8.55359 68.6855 8.77638 67.3738L8.8267 67.1108C9.21912 65.3015 10.0088 63.6699 11.2004 62.2742L11.4437 61.9977C12.526 60.8124 13.8971 60.0164 15.3969 59.4902L15.6987 59.3886C16.7143 59.0599 17.7527 58.8195 18.7938 58.5628L19.8346 58.2968C20.3674 58.1538 20.9051 58.0087 21.4329 57.8352L21.9579 57.651C22.4515 57.4656 22.8882 57.1631 23.2288 56.7486L23.3689 56.5642C23.449 56.4498 23.5164 56.318 23.5335 56.1342L23.5527 55.9276L23.3803 56.0438C23.3458 56.0672 23.3139 56.0866 23.2741 56.1123L23.1597 56.1964C22.5777 56.7107 21.9173 57.0681 21.1841 57.2902L20.8656 57.3774C20.1952 57.5412 19.5248 57.7057 18.8549 57.8719L16.8461 58.3752C15.1848 58.7954 13.6568 59.5036 12.2645 60.4942L11.9877 60.6965C11.3458 61.1767 10.7844 61.7374 10.322 62.3888L10.1304 62.6741C9.32346 63.934 8.66077 65.271 8.29469 66.726L8.22527 67.0187C7.73724 69.2213 8.40098 71.103 9.86508 72.6363L10.1681 72.938C11.0097 73.7354 11.9403 74.4435 12.8588 75.1535L13.7687 75.8676C13.902 75.9746 14.0388 76.0771 14.1741 76.1784L14.5758 76.4839C14.6236 76.5216 14.6652 76.563 14.7081 76.6074C14.505 76.534 14.3059 76.4647 14.1108 76.387L13.864 76.2811C10.0696 74.5178 7.90947 71.5615 7.54539 67.4734L7.51571 67.0738C7.30041 63.46 8.92972 60.7312 11.9214 58.8206L12.2152 58.6384C13.5999 57.803 15.1069 57.2694 16.6624 56.8616L17.3324 56.6937C17.8972 56.5584 18.4634 56.4359 19.0305 56.315L20.7362 55.9469C20.9328 55.9028 21.0911 55.8613 21.211 55.8112C21.331 55.761 21.4276 55.6958 21.4807 55.5952C21.5334 55.4951 21.5335 55.3793 21.5086 55.2517C21.4961 55.1878 21.4761 55.1167 21.4506 55.0383L21.3585 54.7791C20.9391 53.6754 20.4692 52.6017 20.0966 51.4952L19.9431 51.0187C19.4971 49.5614 19.3202 48.059 19.3892 46.5329L19.4337 45.8774C19.6687 43.2786 20.8661 41.2951 22.9965 39.9489L23.4352 39.6878C24.2769 39.2171 25.1673 38.8418 26.06 38.4548L26.9524 38.0601C27.067 38.0078 27.1828 37.9671 27.411 37.876L27.7115 37.756L27.3943 37.689C27.3114 37.6716 27.2566 37.6557 27.2085 37.6433C27.187 37.6377 27.1636 37.6315 27.139 37.6284L27.0607 37.6299C23.9817 38.2501 21.3803 39.6165 19.847 42.4802L19.7023 42.7627C18.9945 44.1948 18.796 45.7358 18.8104 47.2924L18.8289 47.9604C18.909 49.7713 19.2768 51.5195 19.9585 53.1938L20.0995 53.5276C20.2006 53.76 20.2984 53.9941 20.3933 54.2292L20.669 54.9378C20.676 54.957 20.6766 54.9872 20.6682 55.0391C20.6657 55.0546 20.6619 55.0699 20.6587 55.0861C20.6353 55.0783 20.6141 55.0713 20.5933 55.0635C20.5663 55.0534 20.5455 55.044 20.5311 55.0348L20.5136 55.0199C20.1055 54.2502 19.6768 53.4975 19.317 52.7154L19.1665 52.3787C18.4015 50.5876 17.9103 48.7188 17.8431 46.7756L17.8359 46.3858Z" fill="#00953B" stroke="white" stroke-width="0.195865"/>
<path d="M28.7215 50.4058C28.9765 49.5589 29.4675 48.897 30.2027 48.4406L30.3526 48.3522C31.4463 47.7411 32.6293 47.3707 33.8451 47.0995L34.3682 46.9895C36.3538 46.5906 38.3468 46.4238 40.3454 46.7323L40.7447 46.8009C40.9539 46.84 41.1486 46.9149 41.3652 46.9839L41.0017 47.1058C39.9008 47.4024 38.7881 47.6775 37.6851 47.9841L36.5862 48.3033C35.5703 48.6133 34.6608 49.1422 33.8358 49.8035L33.4873 50.0949C32.58 50.8843 31.9722 51.7745 31.655 52.7616C31.3775 53.6253 31.3245 54.5586 31.484 55.5576L31.5648 55.99C32.0142 58.0687 32.7512 60.0362 33.756 61.8998L33.9603 62.2706C34.0337 62.4012 34.0838 62.4936 34.1119 62.5636C34.1408 62.6357 34.1357 62.6604 34.1324 62.6686C34.129 62.6768 34.115 62.698 34.0435 62.7297C34.0089 62.745 33.9667 62.7606 33.9152 62.7775L33.7311 62.8345C32.0717 63.3282 30.4395 63.8923 28.8572 64.6089L28.1821 64.9256C25.7464 66.1091 24.0834 67.9818 22.9341 70.3392L22.7119 70.8173C22.1428 72.0906 21.6271 73.3932 21.4356 74.7907L21.4023 75.0717C21.3632 75.446 21.3478 75.8239 21.3401 76.2012L21.3222 77.3265C21.3193 77.4302 21.3264 77.5384 21.3334 77.6466C20.65 77.6729 19.9729 77.3097 19.7373 76.7002L19.6952 76.5694C18.8493 73.4061 18.7334 70.3337 20.7729 67.5879L20.977 67.3226C21.9578 66.0969 23.2575 65.2978 24.6511 64.6224L25.2541 64.3393C26.5551 63.7456 27.9265 63.4008 29.3126 63.0769L30.7022 62.752C30.83 62.7211 30.9601 62.691 31.0907 62.66L31.4812 62.5602C31.6071 62.5247 31.7138 62.4603 31.7733 62.3561C31.8186 62.2767 31.83 62.1856 31.8137 62.0889L31.7887 61.9904C31.6966 61.7188 31.6097 61.4385 31.5099 61.1629L31.4045 60.8889C30.7929 59.3849 30.1367 57.9067 29.5607 56.3973L29.3189 55.7476C29.0513 55.0091 28.8782 54.2319 28.7238 53.4478L28.5732 52.662C28.4477 52.0075 28.4842 51.3409 28.6454 50.6861L28.7215 50.4058Z" fill="#00953B" stroke="white" stroke-width="0.195865"/>
<path d="M17.4774 65.4658C17.7106 64.8629 18.092 64.3598 18.5722 63.9421L18.7832 63.7678C20.0066 62.8189 21.2966 61.9766 22.6829 61.3005L23.2841 61.0208C24.233 60.6 25.2285 60.3583 26.2544 60.2403L26.6955 60.1973C26.8472 60.185 27.0054 60.1774 27.1645 60.1681L27.6395 60.1298C27.9295 60.097 28.1478 60.01 28.2618 59.8292C28.3463 59.695 28.362 59.5274 28.3306 59.3338L28.2841 59.1321C27.9319 57.8996 27.5632 56.6742 27.2266 55.4414L26.903 54.2052C26.5533 52.8063 26.5088 51.4129 27.0319 50.0494L27.1436 49.777C27.4677 49.0426 27.9117 48.3931 28.3984 47.7654L28.8969 47.1423C29.0104 47.0034 29.1294 46.8688 29.2514 46.7358L29.6232 46.3363C31.3188 44.5144 33.3723 43.824 35.7509 44.1117L36.231 44.1824C37.623 44.4224 38.922 44.9095 40.1654 45.5551L40.6946 45.8411C40.6993 45.8437 40.7031 45.8483 40.7079 45.8515L40.4903 45.8364C37.5376 45.5885 34.6651 45.9473 31.8789 46.9179L31.3225 47.1197C30.9795 47.2498 30.6462 47.4129 30.3254 47.5925L30.0093 47.7772C28.7735 48.5252 28.0958 49.6212 27.9337 51.0158L27.9082 51.2987C27.8336 52.441 27.9803 53.5571 28.2985 54.6344L28.4454 55.0942C28.7189 55.8902 29.0118 56.6798 29.3104 57.4669L30.2099 59.8246C30.3182 60.1116 30.4304 60.3922 30.541 60.6722L30.8657 61.5175C30.9079 61.632 30.9343 61.7156 30.9443 61.7794C30.9541 61.8426 30.9456 61.8739 30.9353 61.8919C30.9248 61.91 30.9014 61.9326 30.842 61.9572C30.8119 61.9696 30.7757 61.9812 30.7323 61.9929L30.578 62.0292C28.84 62.3888 27.1198 62.8234 25.4649 63.4838L24.7593 63.781C23.3048 64.4285 21.961 65.2532 20.8672 66.4294L20.6523 66.6691C19.4128 68.1002 18.7969 69.7815 18.6056 71.6187L18.5732 71.9875C18.4848 73.1984 18.5517 74.4002 18.7181 75.5932L18.7948 76.1041C18.8806 76.6317 18.9891 77.1576 19.0861 77.6627C19.0086 77.6514 18.9193 77.6382 18.8228 77.6233L18.3027 77.5303C18.2838 77.5263 18.2519 77.5094 18.2179 77.4774C18.2015 77.462 18.1869 77.4455 18.175 77.4292L18.1487 77.3831C17.2931 75.3202 16.5704 73.2319 16.4995 70.995L16.4938 70.5462C16.5061 69.0164 16.7655 67.5255 17.2539 66.0814L17.4774 65.4658Z" fill="#00953B" stroke="white" stroke-width="0.195865"/>
<path d="M32.6557 52.2076C33.1702 51.2569 34.0011 50.4694 35.0326 49.8395L35.4874 49.5792C35.9667 49.3212 36.4796 49.1183 37.0005 48.9306L37.5219 48.7467C38.7202 48.3294 39.9546 48.0632 41.2117 47.8988L41.7516 47.8342C41.8798 47.8204 41.9621 47.8333 42.0212 47.866C42.0646 47.8899 42.1051 47.9295 42.1429 47.997L42.1794 48.074L43.6105 51.4513C43.6255 51.4867 43.637 51.5259 43.6509 51.5812C43.6534 51.5911 43.6557 51.6018 43.6584 51.6128L43.4264 51.5292C42.4612 51.1702 41.4979 50.7668 40.5133 50.4386L40.0899 50.303C38.7447 49.8903 37.428 50.0766 36.1853 50.6606L35.9376 50.7832C35.3384 51.0925 34.8816 51.4998 34.573 52.003C34.3031 52.4433 34.1485 52.9527 34.1069 53.526L34.0958 53.7756C34.0813 54.6914 34.2967 55.5545 34.6189 56.3834L34.7629 56.7365C35.2179 57.8004 35.6946 58.8472 36.1522 59.9035L36.6025 60.9638C36.7675 61.3635 36.9146 61.7711 37.0536 62.1827L37.4565 63.4257C37.5321 63.6608 37.5336 63.8406 37.4743 63.9849C37.4297 64.0932 37.3468 64.1917 37.2156 64.282L37.0683 64.3696C36.877 64.4685 36.6672 64.5468 36.4548 64.5996L36.2423 64.6436C35.5507 64.7585 34.8576 64.8643 34.1637 64.9704C33.8169 65.0234 33.4694 65.0766 33.1225 65.1311L32.0816 65.2997C30.7846 65.518 29.5095 65.8458 28.3271 66.4583L28.0915 66.5852C26.4351 67.5076 25.1509 68.7861 24.3626 70.5073L24.2118 70.8573C23.6861 72.1544 23.8128 73.4014 24.4812 74.5679L24.6221 74.8C25.1912 75.6885 25.8852 76.467 26.688 77.1422L27.0395 77.4254C27.1088 77.4791 27.1723 77.5376 27.2709 77.6226C27.2396 77.6291 27.2108 77.6343 27.1844 77.6396L26.9936 77.6697L22.5424 77.9943C22.396 78.0056 22.3114 77.9797 22.2573 77.9356C22.2158 77.9016 22.1806 77.848 22.1538 77.7621L22.1296 77.6641C21.9316 76.6615 21.8992 75.6628 22.075 74.6684L22.1635 74.2421C22.6052 72.3842 23.3422 70.6558 24.3958 69.0704L24.6108 68.7556C25.5928 67.3519 26.9021 66.3603 28.4205 65.6153L28.7269 65.4697C30.3163 64.7368 31.9442 64.1203 33.623 63.6475L34.3457 63.4534C34.68 63.3682 34.9204 63.2429 35.0087 63.0284C35.0749 62.8673 35.0446 62.6827 34.9501 62.4774L34.8353 62.2648C33.8174 60.5981 33.0808 58.8201 32.5264 56.9505L32.2999 56.1431C31.8886 54.5976 32.0689 53.292 32.6557 52.2076Z" fill="#00953B" stroke="white" stroke-width="0.195865"/>
<path d="M40.2222 57.968C40.2265 57.4281 40.4835 57.0094 40.9346 56.7431L41.1395 56.6386C42.1705 56.1846 43.2454 55.923 44.3588 55.8601L44.838 55.8451C44.8771 55.8449 44.9453 55.8645 45.0092 55.8996C45.0395 55.9163 45.0645 55.9341 45.0817 55.9504L45.1013 55.9718C45.2519 56.651 45.3655 57.3383 45.4876 58.0279C45.1333 57.908 44.785 57.7885 44.4394 57.6716L43.2864 57.2939C43.1302 57.2452 42.9581 57.2355 42.7953 57.2439L42.6364 57.2578C42.3304 57.2935 42.0822 57.4217 41.9224 57.6269C41.7824 57.8066 41.7164 58.0371 41.732 58.2966L41.744 58.4092C41.775 58.6217 41.8331 58.8319 41.903 59.0336L41.9767 59.232C42.423 60.3862 42.8863 61.5296 43.33 62.6807L43.7657 63.835C43.9467 64.3265 44.1105 64.8246 44.2668 65.326L44.724 66.8369C44.8354 67.2067 44.8293 67.535 44.7248 67.8273C44.633 68.084 44.4632 68.3201 44.2185 68.5358L44.1092 68.627C43.1941 69.3498 42.184 69.9025 41.1399 70.4057L40.0864 70.8973C39.5941 71.1216 39.1168 71.3889 38.6415 71.6319L38.5658 71.6702L38.5931 71.7499C38.6084 71.7955 38.6232 71.8414 38.6386 71.8869L38.6654 71.9654L38.7479 71.9517C38.8289 71.9384 38.9044 71.9337 38.9959 71.9222C39.0392 71.9167 39.0843 71.9101 39.1293 71.9002L39.2627 71.8594C39.8962 71.6018 40.5506 71.3604 41.1745 71.0601L41.4395 70.9279C42.1013 70.5847 42.7516 70.2147 43.387 69.8224L44.0175 69.4233C44.569 69.0639 44.9462 68.6095 45.139 68.0864C45.3076 67.6288 45.3329 67.1245 45.2173 66.5938L45.1589 66.3647C44.7609 64.9914 44.2644 63.6448 43.7447 62.3151C43.9932 62.8216 44.2564 63.3219 44.5241 63.8192L45.392 65.4335C45.5242 65.6846 45.6541 65.9369 45.7827 66.19L46.1655 66.9511C46.4821 67.5879 46.6077 68.0613 46.5496 68.5038C46.4987 68.8913 46.3049 69.2692 45.9439 69.7235L45.779 69.9234C45.3421 70.4334 44.8447 70.8668 44.262 71.1573L44.0071 71.2727C42.9074 71.7226 41.8006 72.1562 40.6877 72.5721L39.5725 72.9821C38.7914 73.2646 38.112 73.6732 37.4538 74.1537L37.1728 74.3637C36.5941 74.8062 35.9408 75.1454 35.2815 75.4925L34.6226 75.8454C34.5727 75.8732 34.5115 75.8899 34.4319 75.9044C34.3866 75.9127 34.3327 75.9227 34.2752 75.9328C34.2321 75.1694 34.3967 74.5066 34.884 74.0023L34.991 73.8989C35.2161 73.6953 35.4683 73.5221 35.7321 73.3584L36.5442 72.8756C36.6989 72.782 36.8606 72.6997 37.0265 72.6134C37.1915 72.5276 37.36 72.4376 37.5212 72.3323L37.4593 72.1534C36.3656 72.249 35.377 72.6011 34.5982 73.4023L34.4454 73.5688C33.9335 74.1568 33.64 74.8406 33.5407 75.5919L33.5102 75.9174C33.5028 76.0469 33.4719 76.1352 33.4223 76.2014C33.3846 76.2515 33.3321 76.2954 33.2586 76.3344L33.1777 76.3721C32.9052 76.485 32.6946 76.5587 32.5317 76.5904C32.3685 76.6221 32.2702 76.6079 32.2055 76.5673C32.1412 76.5269 32.0867 76.4454 32.0475 76.2864C32.0279 76.2069 32.0126 76.112 32.0014 76.0008L31.9779 75.6166C31.9323 74.3139 32.4016 73.2393 33.3824 72.4668L33.5849 72.3169C34.4483 71.7144 35.3531 71.1559 36.287 70.6703L36.6884 70.4668C37.9194 69.8602 39.1786 69.3288 40.4349 68.7741L41.6886 68.2077C41.9722 68.0761 42.1994 67.9674 42.3719 67.8588C42.5449 67.7499 42.6728 67.6358 42.7496 67.4878C42.8267 67.339 42.8461 67.1685 42.8271 66.9616C42.8176 66.8587 42.798 66.7445 42.7707 66.6164L42.6661 66.1891C42.4883 65.5215 42.2719 64.8631 42.0446 64.2092L41.356 62.2557C41.1188 61.5632 40.858 60.8879 40.6285 60.2028L40.4113 59.5132C40.3044 59.1456 40.2491 58.7521 40.2298 58.3592L40.2222 57.968ZM42.2111 57.9762C42.2632 57.9286 42.3396 57.8966 42.4417 57.8899L42.5527 57.8914C42.7281 57.9083 42.9024 57.9385 43.0774 57.9736L43.6058 58.0888C43.6972 58.1093 43.7332 58.1415 43.7441 58.1635C43.7504 58.1762 43.7569 58.2037 43.7357 58.2541L43.7032 58.3131C43.0487 59.3387 43.0341 60.3748 43.3579 61.387C43.1328 60.8842 42.8913 60.3867 42.6573 59.8905L42.3103 59.1351C42.2246 58.9407 42.1624 58.7268 42.1298 58.5137L42.1068 58.3013C42.0983 58.1441 42.1424 58.0391 42.2111 57.9762Z" fill="#00953B" stroke="white" stroke-width="0.195865"/>
<path d="M13.7046 66.4139C14.8957 63.9239 16.5135 61.82 18.8956 60.4356L19.3829 60.1683C20.7155 59.4785 22.1534 59.1362 23.6306 58.9203L24.2654 58.8354C24.4832 58.8084 24.7071 58.7622 24.92 58.6903L25.1278 58.6095C25.3828 58.4972 25.5563 58.3682 25.6423 58.1808C25.7059 58.0421 25.7157 57.8832 25.6938 57.6994L25.6624 57.5068C25.4435 56.4381 25.2183 55.3721 25.0093 54.3033L24.8065 53.2331C24.5136 51.6331 24.7757 50.1243 25.5762 48.7335L25.7431 48.4573C26.1315 47.8451 26.5394 47.2432 26.9633 46.6541L27.3918 46.069C28.1985 44.9909 29.2064 44.1545 30.3738 43.5073L30.8838 43.241C32.7062 42.3475 34.5578 41.5887 36.5597 41.2837L36.9617 41.2288C37.1494 41.2063 37.2832 41.2181 37.3893 41.2671C37.4675 41.3033 37.5395 41.363 37.6089 41.4614L37.6778 41.5732C37.8961 41.9718 38.1264 42.3646 38.36 42.7547L39.0606 43.9205C39.1011 43.9887 39.1374 44.0589 39.1889 44.1535C39.1649 44.1469 39.1424 44.1399 39.1208 44.1339L38.9119 44.067C37.4526 43.4935 35.9444 43.2325 34.3836 43.3284L34.0711 43.3524C32.6682 43.4811 31.415 43.9659 30.3156 44.8457L30.0979 45.0263C29.0721 45.9129 28.1655 46.9007 27.403 48.0129L27.0845 48.4972C26.3103 49.7312 25.9734 51.0742 26.0549 52.5123L26.0773 52.8008C26.2473 54.5988 26.7102 56.3237 27.2487 58.0243L27.4833 58.7519C27.5459 58.943 27.5908 59.0802 27.6122 59.1833C27.6343 59.2899 27.6251 59.3329 27.6127 59.3528C27.6013 59.3712 27.5705 59.3975 27.4678 59.4195C27.4178 59.4302 27.3574 59.438 27.2845 59.4459L27.0253 59.4695C24.9514 59.6338 23.0374 60.2546 21.2807 61.346L20.932 61.5709C20.6068 61.7872 20.2808 62.0018 19.9493 62.204L19.6149 62.4022C18.0232 63.317 17.0961 64.6831 16.5835 66.3834L16.4865 66.7278C15.8377 69.1959 15.7061 71.6491 16.3308 74.1114L16.466 74.6037C16.4752 74.6349 16.479 74.6687 16.484 74.705L16.4684 74.6824C15.875 73.6728 15.2772 72.6666 14.6894 71.6554L14.1055 70.6424C13.9482 70.3667 13.8169 70.0706 13.7047 69.7677L13.5984 69.4623C13.2813 68.4967 13.2364 67.5305 13.6213 66.5996L13.7046 66.4139Z" fill="#00953B" stroke="white" stroke-width="0.195865"/>
<path d="M37.8826 54.1287C38.0839 53.8584 38.4072 53.6646 38.8623 53.5492L39.0653 53.5045C39.8493 53.3567 40.6291 53.4058 41.382 53.6076L41.7038 53.7035C42.1824 53.8606 42.6526 54.0417 43.1212 54.2307L44.5287 54.8058C44.5744 54.8241 44.6191 54.8536 44.6686 54.8901C44.6991 54.9127 44.7358 54.9412 44.7727 54.9688C44.7196 54.9841 44.6685 54.9993 44.6183 55.0138L44.4094 55.0653C43.7621 55.1906 43.1068 55.3038 42.4552 55.4328L41.8048 55.568C41.1505 55.7129 40.5801 56.0209 40.1222 56.5102L39.9327 56.7313C39.6328 57.1136 39.4458 57.5482 39.4572 58.0225L39.4751 58.2278C39.5395 58.6778 39.6264 59.1293 39.7427 59.5714L39.8688 60.0102C40.3574 61.5646 40.8784 63.1016 41.3725 64.6484L41.855 66.1992C41.9354 66.4655 41.9906 66.6606 42.0138 66.8135C42.0368 66.9651 42.026 67.0622 41.989 67.1388C41.9516 67.2163 41.8798 67.2884 41.745 67.3729C41.6773 67.4154 41.5968 67.4595 41.5018 67.5079L41.1714 67.6695C39.9298 68.2645 38.6668 68.8352 37.4159 69.4249L36.1701 70.0221C35.5318 70.3347 34.9124 70.6879 34.3019 71.0514L33.6937 71.417C32.2765 72.2764 31.5172 73.544 31.3347 75.1364L31.3055 75.4594C31.2929 75.6544 31.2849 75.8496 31.2807 76.0446L31.2765 76.6286C31.2771 76.7784 31.2393 76.8723 31.186 76.9234C31.1479 76.9599 31.0916 76.9846 31.0106 76.9849L30.9213 76.9761C30.6517 76.9288 30.3767 76.8756 30.1719 76.7545L30.089 76.6983C29.5903 76.313 29.0906 75.9213 28.671 75.4694L28.4959 75.2723C28.1223 74.8276 27.9364 74.354 27.9067 73.866C27.8807 73.4378 27.9746 72.9929 28.1734 72.5412L28.2652 72.3478C28.8209 71.2452 29.7073 70.496 30.8135 70.0464L31.0376 69.9599C31.5168 69.7868 32.0066 69.6439 32.5015 69.5119L33.9957 69.1276C34.8146 68.9132 35.6724 68.7529 36.4983 68.5131L36.8501 68.4049C37.3524 68.2415 37.8416 68.0152 38.3068 67.7562L38.7635 67.4882C39.6766 66.9247 40.1563 66.0855 40.2157 65.0285L40.2216 64.8137C40.2249 63.7522 40.0746 62.7133 39.7831 61.7079L39.6493 61.2794C39.3 60.2298 38.8945 59.1923 38.5058 58.1558L38.1261 57.1187C37.9527 56.6319 37.7833 56.1412 37.688 55.6445L37.6523 55.4309C37.5691 54.8623 37.6533 54.4368 37.8826 54.1287Z" fill="#00953B" stroke="white" stroke-width="0.195865"/>
<path d="M43.7457 60.1307C43.759 60.1153 43.7928 60.0954 43.8685 60.0931L43.958 60.0976C44.2702 60.1313 44.5833 60.1632 44.8966 60.192L45.8384 60.266C45.9816 60.275 46.0617 60.3099 46.113 60.3612C46.1528 60.4012 46.1839 60.4599 46.2074 60.5475L46.229 60.6463C46.4906 62.1763 46.7519 63.7071 47.0302 65.2349L47.3145 66.7611C47.4625 67.5362 47.6632 68.3079 47.8503 69.0747L48.0302 69.8408C48.0583 69.9665 48.0761 70.0537 48.0812 70.119C48.0863 70.1837 48.0771 70.2112 48.0672 70.2266C48.0564 70.2431 48.0332 70.2643 47.9699 70.291L47.6928 70.3814L45.7098 70.9714C45.6687 70.9835 45.6272 70.9919 45.5801 71.003C45.8038 70.7553 46.0119 70.5298 46.205 70.3045L46.4475 70.0088C47.0466 69.2434 47.235 68.3779 46.9958 67.4621L46.9432 67.2782C46.8206 66.8963 46.6716 66.5189 46.5002 66.1543L46.321 65.7946C46.0415 65.2636 45.7422 64.7422 45.4485 64.2221C45.2279 63.8314 45.0104 63.4408 44.8063 63.0443L44.6066 62.646C44.4285 62.2781 44.2843 61.8944 44.1501 61.5039L43.7549 60.3192C43.7126 60.197 43.7306 60.1481 43.7457 60.1307Z" fill="#00953B" stroke="white" stroke-width="0.195865"/>
<path d="M44.1509 58.8477L44.2884 58.6122C44.2902 58.6104 44.2954 58.6049 44.3071 58.5978C44.3226 58.5884 44.3434 58.5798 44.3658 58.5726C44.3885 58.5655 44.4107 58.5613 44.4277 58.5602L44.4448 58.5593C44.7728 58.7233 45.0992 58.8847 45.4083 59.0686L45.7111 59.2606C45.7936 59.3168 45.785 59.3579 45.7804 59.3694C45.7735 59.3862 45.7475 59.4148 45.691 59.4313L45.6252 59.4428C45.0213 59.4888 44.4163 59.5092 43.8076 59.5389C43.8027 59.5328 43.7975 59.5271 43.7927 59.521C43.913 59.2932 44.0278 59.0676 44.1509 58.8477Z" fill="#00953B" stroke="white" stroke-width="0.195865"/>
<path d="M18.7306 54.4747C18.6154 54.2794 18.5372 54.1452 18.4575 54.0121C17.3293 52.1278 16.4863 50.1327 16.096 47.9549C15.5933 45.1504 16.2237 42.5857 17.7334 40.2068C19.1474 37.9785 21.1072 36.4186 23.5601 35.4754C25.8013 34.6135 28.0953 34.6582 30.3888 35.1341C33.9378 35.8704 36.7446 37.8221 38.9692 40.628C41.4485 43.7553 43.2575 47.2667 44.6274 51.0074C46.3137 55.6118 47.5791 60.3342 48.4447 65.1659C48.7534 66.8892 49.2344 68.5636 49.9346 70.1704C50.1466 70.6567 50.0371 70.9719 49.5455 71.1042C45.3622 72.23 41.5525 74.2555 37.6557 76.0738C31.9329 78.7441 25.9206 80.0293 19.6168 79.8081C16.6912 79.7054 13.8683 79.0866 11.3483 77.5387C7.22132 75.0037 5.16729 71.3165 5.558 66.4049C5.73124 64.2271 6.68486 62.3321 8.00742 60.6169C10.0985 57.9052 12.7281 55.9593 16.0331 55.0053C16.7745 54.7913 17.548 54.6906 18.3071 54.5396C18.4228 54.5166 18.5403 54.5035 18.7306 54.4747ZM44.421 52.8932C44.3914 52.7542 44.3843 52.6858 44.3624 52.6226C43.5282 50.2152 42.5176 47.8841 41.3172 45.64C41.1438 45.316 40.8418 45.001 40.5202 44.8335C40.1586 44.6452 39.997 44.3794 39.8444 44.0445C39.094 42.3974 38.2627 40.7897 36.9528 39.513C34.5117 37.1339 31.5101 35.9797 28.1589 35.6937C25.3608 35.4548 22.858 36.2606 20.7368 38.1217C17.3718 41.0741 16.0017 44.7155 17.1636 49.1213C17.4637 50.2591 17.9521 51.3573 18.4539 52.4263C18.8108 53.1866 19.332 53.8693 19.7862 54.5827C20.0143 54.941 19.9146 55.1859 19.4947 55.2468C19.1355 55.2989 18.7749 55.3421 18.4144 55.3842C14.8389 55.8015 11.8963 57.4388 9.4749 60.0756C7.6222 62.0932 6.43735 64.4413 6.38492 67.1994C6.30485 71.4119 8.18406 74.6027 11.7556 76.7699C14.0134 78.14 16.5192 78.775 19.1346 78.9112C25.3075 79.2327 31.2271 78.0827 36.8807 75.57C38.9505 74.6501 40.9551 73.5802 43.0327 72.68C44.8197 71.9057 46.6651 71.267 48.4913 70.5863C49.1199 70.352 49.1281 70.377 48.8906 69.7682C48.8202 69.5878 48.7565 69.4047 48.6888 69.2232C47.9952 67.3637 47.6762 65.4103 47.2756 63.4772C46.6655 60.5335 45.9884 57.6075 45.0288 54.7549L44.421 52.8932Z" fill="black" stroke="black" stroke-width="0.391729"/>
</svg>
