<svg viewBox="0 0 97 100" fill="none" xmlns="http://www.w3.org/2000/svg">
<path opacity="0.4" d="M48.1782 39.8555L55.7802 0.914062L50.8613 40.2755L70.2349 5.56885L53.283 41.4953L82.535 14.4181L55.1994 43.3998L91.4669 26.6046L56.4364 45.7991L96.1651 40.9257L56.8604 48.4573L96.1651 55.989L56.4364 51.1156L91.4669 70.3101L55.1994 53.5149L82.535 82.4966L53.283 55.4136L70.2349 91.3458L50.8613 56.6392L55.7802 96.0006L48.1782 57.0592L40.5763 96.0006L45.4952 56.6392L26.1216 91.3458L43.0735 55.4136L13.8215 82.4966L41.1513 53.5149L4.88962 70.3101L39.9201 51.1156L0.191406 55.989L39.4961 48.4573L0.191406 40.9257L39.9201 45.7991L4.88962 26.6046L41.1513 43.3998L13.8215 14.4181L43.0735 41.4953L26.1216 5.56885L45.4952 40.2755L40.5763 0.914062L48.1782 39.8555Z" fill="#ECECEC"/>
<path d="M82.9862 73.3869C82.9862 73.4329 83.0617 73.4271 83.0675 73.3869C83.0675 73.3869 83.0792 73.3696 83.0966 73.3408C83.4683 72.8403 87.1095 68.4502 88.0503 65.8322C88.9795 63.2488 89.3454 60.1647 89.2757 57.4375C89.2583 56.8103 89.3976 55.251 88.5149 55.0957C87.7774 54.9691 87.4522 56.1083 87.2373 56.5744C85.2163 60.9645 83.4857 70.4582 83.0792 72.8403C83.0211 73.1912 82.9862 73.3869 82.9862 73.3926V73.3869Z" fill="#DCDCDC"/>
<path d="M82.9882 73.391C82.9882 73.437 83.0637 73.4312 83.0695 73.391C83.0695 73.391 83.0811 73.3737 83.0986 73.3449C83.1276 73.2299 83.1566 73.1205 83.1857 73.0055C83.7258 72.0734 84.2601 71.1413 84.7885 70.2034C85.4564 69.0296 86.1475 67.8674 86.6237 66.6015C87.4309 64.4842 87.8723 62.1539 88.0872 59.9042C88.1162 59.5935 88.4008 57.8213 87.7852 57.9306C87.5006 57.9824 87.3148 58.4139 87.2277 58.6383C87.0302 59.1562 86.8792 59.697 86.705 60.2206C85.3577 64.3806 84.1323 68.5981 83.0753 72.8386C83.0173 73.1896 82.9824 73.3852 82.9824 73.391H82.9882ZM83.2728 72.6833C83.749 70.8766 84.2194 69.0757 84.7247 67.2805C85.3344 65.0998 85.9791 62.9249 86.6469 60.7557C86.8153 60.1976 86.9837 59.6395 87.158 59.0814C87.2335 58.8512 87.309 58.4945 87.4774 58.3104C87.5935 58.1838 87.7097 57.8731 88 58.2759C88.0465 58.3391 88.0117 58.5923 88.0175 58.6786C88.0407 59.7603 87.849 60.8305 87.669 61.895C87.309 64.0123 86.8211 66.124 85.8281 68.0515C85.0208 69.6165 84.1381 71.1413 83.2786 72.6833H83.2728Z" fill="white"/>
<path d="M86.6819 76.4812C85.712 77.6549 84.8293 78.9035 84.0337 80.1981C83.1858 81.579 82.4424 83.0174 81.821 84.5134C81.1938 86.0152 80.7525 87.6837 79.7245 88.9783C79.7013 89.0071 79.6955 89.0359 79.7013 89.0589C79.7013 89.1107 79.7536 89.1567 79.8 89.1625C79.8291 89.1625 79.8581 89.1625 79.8872 89.1279C79.9859 89.0071 85.3345 84.6342 87.2219 81.9357C88.2266 80.4973 89.0629 78.9495 89.6611 77.304C90.0908 76.1187 90.5961 74.1049 89.9224 73.5065C89.3533 73.0002 87.5762 75.411 86.6877 76.4927L86.6819 76.4812Z" fill="#DCDCDC"/>
<path d="M86.9218 77.482C85.5977 79.3462 84.7556 81.4636 83.6522 83.4544C82.5313 85.474 81.1898 87.3094 79.7031 89.0643C79.7031 89.1161 79.7554 89.1621 79.8019 89.1679C81.7357 87.6029 83.4373 85.7559 84.9356 83.7766C86.2017 82.0908 87.4561 80.2783 88.1355 78.276C88.2981 77.7927 88.4259 77.2979 88.5072 76.7916C88.542 76.5902 88.6292 76.245 88.3911 76.1184C88.2052 76.0206 88.002 76.1644 87.8684 76.2795C87.5025 76.6074 87.2063 77.0908 86.9218 77.4878V77.482ZM88.0194 76.3082C88.5653 76.0723 88.3504 76.8491 88.3272 76.9929C88.1355 77.9826 87.7697 78.9262 87.3167 79.8238C85.528 83.3451 82.7695 86.4579 79.8077 89.0873C81.2537 87.4878 82.5139 85.6869 83.5825 83.8284C84.6278 82.0102 85.3944 80.0539 86.5327 78.2875C86.8463 77.7985 87.1831 77.3209 87.5432 76.8606C87.6593 76.711 87.8394 76.3888 88.0136 76.3082H88.0194Z" fill="white"/>
<path d="M76.3735 65.3867C76.6 67.9817 77.2621 70.8125 78.2725 73.2234C79.3643 75.8125 81.0485 78.091 82.361 80.5651C82.3668 80.5767 82.3784 80.5939 82.3842 80.5997C82.4133 80.6284 82.4365 80.5997 82.4597 80.5249C82.4713 80.4903 82.4771 80.4443 82.4829 80.3868C82.4307 77.2682 82.1984 74.3511 81.1472 71.3937C80.6536 70.0013 80.1367 68.6088 79.6315 67.2164C79.1495 65.8873 78.7836 64.4201 78.1506 63.1543C77.9125 62.6825 77.3956 62.1646 76.8381 62.5559C76.1412 63.0507 76.3096 64.6905 76.3735 65.3925V65.3867Z" fill="#DCDCDC"/>
<path d="M77.5527 67.0753C77.5759 67.5989 77.6688 68.1168 77.785 68.6288C78.3018 70.9591 79.2601 73.1571 80.1776 75.355C80.9094 77.1041 81.6469 78.8533 82.3845 80.6024C82.4135 80.6312 82.4367 80.6024 82.4599 80.5276C82.4541 80.5104 82.4483 80.4931 82.4367 80.4758C82.2044 78.439 81.8386 76.4424 81.1881 74.4689C80.3925 72.0581 79.6492 69.6185 78.7606 67.2422C78.6677 66.989 78.1566 65.2802 77.692 65.9591C77.4946 66.2468 77.5411 66.7531 77.5585 67.0811L77.5527 67.0753ZM78.2438 66.2813C78.5457 66.6898 78.6909 67.3343 78.8477 67.8118C79.0278 68.3239 79.1962 68.8417 79.3646 69.3538C80.0789 71.4942 80.8687 73.6231 81.4901 75.7923C81.9024 77.2537 82.158 78.7612 82.3554 80.2745C81.6643 78.6174 80.9732 76.966 80.2764 75.3147C79.4517 73.3469 78.598 71.3734 78.0463 69.3078C77.8953 68.7324 77.7559 68.1513 77.6804 67.5587C77.6456 67.2882 77.6282 67.012 77.634 66.7416C77.6398 66.4194 77.7095 65.5794 78.2379 66.2813H78.2438Z" fill="white"/>
<path d="M82.0052 63.7388C82.0052 63.7388 82.0052 63.7676 81.9936 63.7734C81.982 63.7791 81.9646 63.7734 81.9529 63.7619C81.9123 63.6928 81.8658 63.6295 81.8252 63.5605C81.6684 63.3131 81.5174 63.0599 81.378 62.8067C81.3548 62.7607 81.3257 62.7147 81.3025 62.6686C81.2909 62.6629 81.2793 62.6571 81.2735 62.6514C79.6416 59.9356 76.5172 58.4799 75.286 55.4937C74.7401 54.1646 74.5368 52.7262 74.4672 51.2992C74.4381 50.6836 74.0316 48.7273 74.8737 48.4454C75.5299 48.2267 76.2326 49.2106 76.523 49.6249C77.4522 50.9482 77.9342 52.5996 78.4394 54.1128C78.9331 55.5973 79.3454 57.099 79.7926 58.5892C80.2107 59.9759 80.774 61.2532 81.4012 62.5306C81.5987 62.9333 81.8078 63.3361 82.011 63.7446L82.0052 63.7388Z" fill="#DCDCDC"/>
<path d="M81.3961 62.5237C81.2334 62.236 81.0592 61.9541 80.8792 61.6779C80.2229 60.3603 79.5609 59.0484 78.9163 57.7251C77.958 55.7573 77.3831 53.6629 76.5352 51.6549C76.4307 51.4075 76.1229 50.274 75.7164 50.694C75.3331 51.091 76.0009 54.4627 76.5991 55.9702C76.9243 56.7987 77.3889 57.5064 77.9697 58.1739C79.137 59.5087 80.2171 60.9184 81.1696 62.4086C81.2392 62.541 81.3089 62.6733 81.3786 62.8056C81.5238 63.0588 81.669 63.312 81.8258 63.5594C81.7503 63.404 81.6748 63.2544 81.5935 63.0991C81.7271 63.3235 81.8606 63.5479 81.9942 63.778C82.0058 63.778 82.0174 63.755 82.0058 63.7435C81.7968 63.335 81.5935 62.9322 81.3961 62.5295V62.5237ZM78.4575 58.4788C77.6444 57.564 76.9592 56.6664 76.6165 55.4754C76.2913 54.3534 76.0474 53.1854 75.8383 52.0346C75.7977 51.7987 75.6293 50.8954 75.8964 50.8551C76.1345 50.8148 76.5294 52.0346 76.5875 52.1842C76.8024 52.7251 76.9998 53.2774 77.1915 53.824C77.5806 54.9288 77.958 56.0335 78.4459 57.0979C79.0324 58.381 79.6887 59.6353 80.3565 60.8839C79.7642 60.0381 79.1311 59.2326 78.4575 58.4788Z" fill="white"/>
<path d="M70.8001 88.4687C69.3134 91.3226 69.9058 94.8496 66.4213 97.4733C66.4039 97.4791 66.4155 97.5021 66.4213 97.5021C66.4213 97.5021 66.4329 97.5021 66.4387 97.5021C66.8046 97.2834 67.1705 97.0533 67.5247 96.8059C69.4296 95.4883 71.1253 93.7679 72.3739 91.8519C73.1231 90.6954 73.7213 89.4296 74.0871 88.1062C74.273 87.4273 74.8247 85.9083 74.424 85.2869C73.5645 83.952 71.0673 87.9509 70.8001 88.4687Z" fill="#DCDCDC"/>
<path d="M72.2235 88.0922C70.8994 89.5076 70.4406 91.5214 69.6333 93.2302C69.0758 94.4098 68.408 95.5375 67.5775 96.5329C67.2 96.8609 66.8109 97.1831 66.416 97.4995C66.416 97.4995 66.4276 97.4995 66.4334 97.4995C66.7993 97.2809 67.1652 97.0507 67.5194 96.8033C67.5369 96.7803 67.5543 96.7631 67.5717 96.7458C68.617 95.877 69.5578 94.8528 70.3767 93.8056C71.5266 92.3327 72.4732 90.7044 73.1701 88.9782C73.292 88.679 73.9076 87.6146 73.5359 87.3096C73.1817 87.0162 72.4093 87.8908 72.2235 88.0864V88.0922ZM73.4372 87.4938C73.6463 87.7354 72.8158 89.5248 72.4674 90.2325C71.724 91.7573 70.7774 93.1842 69.6682 94.4731C69.1804 95.0369 68.6635 95.5548 68.1234 96.0496C68.6228 95.3707 69.0584 94.6457 69.4475 93.8977C70.2489 92.3327 70.7077 90.5663 71.6427 89.0703C71.8866 88.679 72.1712 88.3108 72.508 87.9886C72.6416 87.862 73.2514 87.2751 73.443 87.4938H73.4372Z" fill="white"/>
<path d="M85.4549 93.6134C84.2121 94.2405 82.888 94.7296 81.5349 95.046C78.8809 95.6732 76.1688 95.6387 73.5206 95.0345C73.4742 95.023 73.4277 95.0173 73.3754 95C73.2419 95.023 73.1083 95.046 72.9747 95.0576C72.9457 95.0576 72.9166 95.0691 72.8818 95.0691C72.876 95.0691 72.8702 95.0691 72.8644 95.0691C72.8644 95.0691 72.8353 95.0115 72.8644 95.0058C73.0154 94.9482 73.1722 94.8965 73.3232 94.8332C76.4708 93.6536 79.3571 91.962 82.6789 91.2486C83.4049 91.0932 88.0973 89.9195 87.894 91.7664C87.8011 92.6237 86.0821 93.2969 85.4491 93.6076L85.4549 93.6134Z" fill="#DCDCDC"/>
<path d="M85.8977 92.2346C85.9849 91.6074 85.1428 91.6247 84.7188 91.6362C83.749 91.6707 82.7617 91.9757 81.8325 92.2173C80.8627 92.4705 79.9219 92.7927 78.9811 93.1379C77.2389 93.7766 75.5199 94.4153 73.7137 94.8065C73.586 94.818 73.4582 94.8238 73.3304 94.8353C73.1795 94.8928 73.0227 94.9504 72.8717 95.0079C72.8368 95.0194 72.8426 95.0597 72.8717 95.0712C72.9123 95.0712 72.9472 95.0712 72.982 95.0597C73.0285 95.0597 73.0807 95.0539 73.1272 95.0482C73.2608 95.0482 73.3943 95.0424 73.5279 95.0367C75.1482 94.9791 76.7801 94.7662 78.3655 94.5476C80.4097 94.2657 82.692 94.024 84.6027 93.2185C85.0034 93.0459 85.8339 92.7639 85.9094 92.2346H85.8977ZM85.3054 92.6834C85.1254 92.7985 84.9221 92.8963 84.7246 92.9826C84.1613 93.2415 83.5748 93.4084 82.9766 93.5465C81.8151 93.8169 80.642 94.0298 79.4689 94.2196C77.9648 94.4613 76.4607 94.5936 74.9507 94.7145C76.0774 94.421 77.1808 94.0125 78.2668 93.6155C79.2889 93.2357 80.3168 92.856 81.3679 92.5626C82.4655 92.2519 83.6909 91.8663 84.835 91.8318C85.3518 91.8146 85.8919 92.3209 85.3054 92.6834Z" fill="white"/>
<path d="M82.4873 64.4917C81.9356 59.0257 81.2561 53.5423 80.1295 48.1568C80.1062 48.0475 79.9146 48.0705 79.9262 48.1856C80.4547 52.8289 81.0761 57.4549 81.5407 62.1039C81.9995 66.7069 82.5047 71.3617 82.4699 75.9935C82.4408 80.303 81.7672 84.7622 79.45 88.4906C77.3651 91.8451 74.0317 94.2271 70.431 95.7806C65.6922 97.8232 60.4829 98.4734 55.4014 99.0891C55.1807 99.1178 55.1633 99.3595 55.3956 99.3365C63.648 98.5137 73.1954 97.2881 78.8228 90.5102C84.7696 83.3468 83.3468 73.0245 82.4931 64.486L82.4873 64.4917Z" fill="#DCDCDC"/>
<path d="M77.6936 49.7867C78.2744 49.827 78.8087 49.3322 79.1455 48.9179C79.3662 48.6475 79.552 48.354 79.7262 48.0491C79.703 48.1181 79.6798 48.1872 79.6566 48.2505C79.343 48.9812 78.9655 49.7292 78.9422 50.5462C78.9364 50.7764 78.8958 51.4553 79.3081 51.392C79.8017 51.3172 79.976 50.293 80.0399 49.9248C80.1212 49.4012 80.1502 48.8661 80.1212 48.3368C80.2896 48.8028 80.5277 49.9133 80.9574 50.7188C81.1955 51.1676 81.4453 51.2712 81.6253 51.2827C81.9505 51.3057 82.0492 50.8857 82.0144 50.6498C81.7995 49.1826 80.3767 47.9858 80.336 47.9167C80.3476 47.9167 80.3534 47.9282 80.3593 47.934C80.8529 48.3138 83.1584 49.1711 83.5824 48.9754C83.8553 48.8488 83.7798 48.5842 83.5882 48.4288C82.7113 47.6923 81.5904 47.3989 81.0968 47.3299C80.2315 47.209 79.5694 47.2378 78.8261 47.7154C78.2744 48.0721 77.6995 48.5094 77.4033 49.1135C77.2407 49.4415 77.2813 49.7464 77.6936 49.781V49.7867Z" fill="#DCDCDC"/>
<path d="M74.6169 43.9652C75.3951 44.6154 76.2081 45.2253 77.0211 45.8294C77.6019 46.2609 78.1826 46.7443 78.9492 46.6982C78.9957 46.6982 79.0363 46.6925 79.0828 46.6867C79.1176 46.6867 79.1525 46.681 79.1931 46.6695C79.2222 46.6695 79.2512 46.6579 79.286 46.6522C79.3209 46.6522 79.3499 46.6407 79.3848 46.6292C79.437 46.6177 79.4951 46.6004 79.5474 46.5831C79.5996 46.5659 79.6461 46.5486 79.6984 46.5314C79.739 46.5141 79.7855 46.4968 79.8261 46.4796C79.8726 46.4566 79.9191 46.4393 79.9655 46.4163C80.0178 46.3933 80.07 46.3645 80.1223 46.3357C80.221 46.284 80.314 46.2264 80.4069 46.1631C80.947 45.8064 81.4232 45.3001 81.7484 44.765C83.2003 42.7281 83.328 39.4542 83.5197 37.1355C83.6358 35.697 84.0481 33.5682 82.9505 32.3886C82.6311 32.0434 82.3059 31.8823 81.9807 31.8363C81.9575 31.8363 81.9342 31.8305 81.9168 31.8305C81.4232 31.7845 80.9295 31.9974 80.4243 32.2448C80.4127 32.2505 80.4011 32.2563 80.3895 32.2621C79.9016 32.5037 79.408 32.7684 78.9028 32.8547C78.322 32.9583 77.7006 32.8432 77.0792 32.7108C77.056 32.7108 77.0328 32.6993 77.0037 32.6936C76.632 32.6188 76.2604 32.5325 75.8945 32.498C75.8829 32.498 75.8655 32.498 75.8538 32.498C75.3079 32.4404 74.7737 32.4807 74.2858 32.7626C73.8967 32.987 73.6993 33.3495 73.5193 33.7178C73.5076 33.735 73.496 33.758 73.4902 33.7753C73.2986 34.1781 73.1069 34.5808 72.712 34.834C72.5146 34.9606 72.3055 35.0584 72.0906 35.1447C72.0674 35.1562 72.0442 35.1677 72.0209 35.1735C71.6028 35.3518 71.1963 35.5244 70.8769 35.9042C70.8595 35.9214 70.8478 35.9387 70.8362 35.956C70.8188 35.9732 70.8014 35.9962 70.7898 36.0135C68.7572 38.6775 72.7817 42.4404 74.6169 43.9652Z" fill="#C8C8C8"/>
<path d="M81.3232 44.0666C81.1374 44.9929 80.6902 45.6949 80.1211 46.3451C80.2198 46.2933 80.3127 46.2357 80.4057 46.1724C80.847 45.6316 81.1897 45.0274 81.3581 44.3255C81.7297 42.772 81.8807 41.1322 82.084 39.5499C82.2815 38.0366 82.5196 36.5061 82.5776 34.9814C82.6125 33.9975 82.5776 32.7087 81.9737 31.8456C81.9504 31.8456 81.9272 31.8398 81.9098 31.8398C82.6183 32.8813 82.5312 34.4981 82.4383 35.6488C82.3279 37.0412 82.1479 38.4279 81.962 39.8088C81.7762 41.23 81.602 42.6627 81.3174 44.0608L81.3232 44.0666Z" fill="white"/>
<path d="M80.3914 32.2634C80.9954 34.6684 80.8676 37.1598 80.6469 39.6109C80.525 40.9745 80.3914 42.3324 80.2636 43.6961C80.1765 44.6569 80.0778 45.5891 79.8223 46.4924C79.8687 46.4694 79.9152 46.4521 79.9616 46.4291C80.1998 45.5775 80.2578 44.6684 80.3391 43.8054C80.4785 42.3554 80.6179 40.9112 80.7456 39.4613C80.9547 37.0505 81.0709 34.5936 80.4146 32.2461C80.403 32.2518 80.3914 32.2576 80.3798 32.2634H80.3914Z" fill="white"/>
<path d="M75.8535 32.4883C76.1729 34.5366 76.684 36.5562 77.2763 38.5412C77.6422 39.7438 78.0313 40.9405 78.4494 42.1258C78.8153 43.1845 79.3438 44.2777 79.4774 45.4055C79.5006 45.7967 79.518 46.188 79.5412 46.5792C79.5935 46.562 79.64 46.5447 79.6922 46.5274C79.6342 45.6011 79.5296 44.6747 79.4425 43.7656C79.3089 42.3214 79.1289 40.8773 78.885 39.4503C78.4901 37.1546 77.921 34.8818 77.0789 32.7069C77.0557 32.7069 77.0324 32.6954 77.0034 32.6897C77.8455 34.9336 78.4262 37.2581 78.8269 39.6229C79.065 41.0269 79.2392 42.4423 79.3728 43.8577C79.4019 44.1972 79.4251 44.5424 79.4483 44.8819C79.2741 44.0131 78.8966 43.1672 78.6062 42.3502C78.2055 41.1937 77.8164 40.0257 77.4564 38.8519C76.8175 36.7633 76.2833 34.6459 75.8942 32.494C75.8826 32.494 75.8651 32.494 75.8535 32.494V32.4883Z" fill="white"/>
<path d="M72.0176 35.1763C72.3951 37.1038 73.2429 38.9508 74.2767 40.6078C75.0084 41.7874 75.8563 42.8921 76.7623 43.9508C77.1746 44.4283 77.6043 44.9001 78.0399 45.3604C78.4464 45.792 78.8413 46.258 79.2827 46.655C79.3175 46.655 79.3466 46.6435 79.3814 46.632C78.1386 44.5031 76.6113 42.5411 75.5427 40.3144C74.5438 38.2315 73.8585 35.9991 73.5217 33.7148C73.5101 33.7321 73.4985 33.7551 73.4927 33.7724C73.8063 36.0509 74.4625 38.2603 75.473 40.3374C76.5125 42.4778 77.9296 44.4226 79.1898 46.4421C78.8704 46.0969 78.5219 45.769 78.2083 45.4295C77.7437 44.9289 77.2849 44.4168 76.8378 43.899C75.9841 42.9036 75.1768 41.8679 74.4683 40.7632C73.3475 39.0141 72.5344 37.1441 72.0931 35.1418C72.0698 35.1533 72.0466 35.1648 72.0234 35.1705L72.0176 35.1763Z" fill="white"/>
<path d="M70.7919 36.0146C70.7396 36.6245 70.7977 37.2401 70.9777 37.8328C71.3668 39.1561 72.2844 40.3356 73.1613 41.3828C74.0789 42.4818 75.1068 43.4772 76.1986 44.4093C77.122 45.1976 78.0802 45.9801 79.0849 46.6878C79.1197 46.6878 79.1546 46.682 79.1952 46.6705C78.2893 45.9743 77.3659 45.3126 76.4889 44.5819C75.4378 43.6958 74.4389 42.7522 73.5214 41.7338C72.6212 40.7269 71.7094 39.6049 71.1926 38.3448C70.879 37.5738 70.7686 36.7626 70.8383 35.957C70.8209 35.9743 70.8035 35.9973 70.7919 36.0146Z" fill="white"/>
<path d="M73.2939 42.7373C73.5842 43.6464 74.5425 44.0664 75.4252 44.1872C76.6854 44.3599 78.0385 44.2275 79.2755 43.9801C79.9085 43.8535 81.4301 43.4853 82.6148 42.8811C83.12 42.7143 83.6311 42.5014 83.9621 42.0814C84.3454 41.575 84.2641 41.0572 83.997 40.5911C83.9854 40.5624 83.9737 40.5336 83.9563 40.5106C83.9563 40.5106 83.9563 40.5106 83.9505 40.5106C83.7008 40.1193 83.3291 39.7684 82.9981 39.4922C81.3023 38.1055 78.84 37.7143 76.7667 38.3644C75.8143 38.6636 74.9141 39.1757 74.2463 39.918C73.5959 40.6314 72.9861 41.7592 73.2997 42.743L73.2939 42.7373Z" fill="#DCDCDC"/>
<path d="M68.0795 38.5408C67.8646 39.8469 68.9042 41.504 69.5778 42.5454C71.5001 45.5086 76.0531 47.8216 79.3633 47.8331C79.4969 47.8331 79.6305 47.8331 79.7583 47.8216C79.7873 47.8216 79.8221 47.8216 79.8512 47.8159C79.8918 47.8159 79.9267 47.8159 79.9673 47.8101C79.9964 47.8101 80.0254 47.8101 80.0544 47.8044C80.5074 47.7583 80.9372 47.6605 81.3553 47.5167C81.4308 47.4937 81.5005 47.4649 81.576 47.4361C83.5273 46.6824 85.0546 44.9563 85.9722 43.0172C87.0756 40.71 87.7841 37.7295 86.582 35.3245C86.2858 34.7318 85.8386 34.1392 85.2289 33.8803C85.194 33.863 85.1592 33.8515 85.1185 33.84C84.9443 33.7767 84.7585 33.7422 84.5552 33.7422C84.3287 33.7422 84.1138 33.7825 83.9222 33.8688C83.9106 33.8688 83.8931 33.8803 83.8815 33.886C83.7305 33.9608 83.5854 34.0644 83.4576 34.1967C83.0395 34.6283 83.0162 35.1634 82.0696 34.8929C82.058 34.8929 82.0522 34.8929 82.0406 34.8814C82.0232 34.8814 82.0115 34.8699 81.9941 34.8642C81.7444 34.7721 81.5121 34.565 81.2856 34.4499C81.2798 34.4499 81.274 34.4441 81.2624 34.4384C81.2566 34.4384 81.245 34.4269 81.2333 34.4211C80.7862 34.2082 80.3041 34.0874 79.857 34.1565C79.8454 34.1565 79.8279 34.1565 79.8163 34.1622C79.4679 34.2255 79.1427 34.4039 78.8813 34.7433C78.2077 35.6179 78.318 36.9413 78.3761 37.9654C78.469 39.5707 78.5968 41.1875 78.8 42.7871C78.8581 43.2301 78.9278 43.6674 79.0091 44.1105C78.8174 43.5523 78.591 43.0057 78.3587 42.4706C77.656 40.8423 76.779 39.2831 75.6872 37.8791C75.2923 37.3728 74.1425 35.5834 73.3817 35.8135C73.3062 35.8366 73.2365 35.8711 73.19 35.9171C73.1784 35.9229 73.1726 35.9286 73.1668 35.9401C72.9345 36.1645 72.9519 36.5845 72.83 36.8607C72.7196 37.1139 72.5977 37.3038 72.4583 37.4361C72.4351 37.4591 72.4118 37.4821 72.3828 37.4994C72.1157 37.7065 71.7904 37.7353 71.3491 37.6605C70.9309 37.5914 70.5302 37.5109 70.1063 37.4879C69.9321 37.4764 69.7462 37.4764 69.5604 37.4879C69.5488 37.4879 69.5314 37.4879 69.5197 37.4879C69.2874 37.5051 69.0551 37.5512 68.8461 37.626C68.8345 37.626 68.8229 37.6375 68.8112 37.6432C68.4396 37.7928 68.155 38.0633 68.0737 38.5351L68.0795 38.5408Z" fill="#ECECEC"/>
<path d="M81.3573 47.5066C81.4328 47.4836 81.5025 47.4549 81.578 47.4261C81.6535 47.334 81.7231 47.242 81.7928 47.1442C82.5594 46.4134 83.297 45.6654 83.93 44.8081C84.7721 43.6804 85.3063 42.4146 85.7361 41.0855C86.1891 39.6988 86.4794 38.2431 86.2704 36.7817C86.1252 35.746 85.7477 34.7678 85.2308 33.8645C85.196 33.8472 85.1612 33.8357 85.1205 33.8242C85.6954 34.8311 86.102 35.9416 86.1949 37.0981C86.3168 38.5538 85.9452 40.0095 85.4748 41.3731C85.016 42.7023 84.441 43.9336 83.5757 45.0498C83.0879 45.6827 82.542 46.2811 81.9845 46.8622C83.1808 45.1303 83.8893 43.0993 84.3481 41.0509C84.8998 38.5998 84.865 36.1602 83.9184 33.8472C83.9067 33.8472 83.8893 33.8587 83.8777 33.8645C84.7662 36.189 84.8185 38.5941 84.2726 41.0337C83.959 42.4433 83.5699 43.8242 82.9195 45.1246C82.5013 45.9589 81.9845 46.7126 81.4154 47.4376C81.3921 47.4549 81.3747 47.4779 81.3515 47.4951L81.3573 47.5066Z" fill="white"/>
<path d="M76.939 41.5652C78.0308 43.5445 78.9948 45.5871 79.8369 47.6757C79.8427 47.7218 79.8485 47.7678 79.8601 47.8138C79.9008 47.8138 79.9356 47.8138 79.9763 47.8081C80.0576 47.3478 80.1389 46.8932 80.2144 46.4329C81.2481 42.6412 82.0379 38.8092 82.0554 34.8736C82.0379 34.8736 82.0263 34.8621 82.0089 34.8564C81.9508 38.6941 81.2655 42.5319 80.2492 46.2315C80.8823 42.3247 81.2365 38.3834 81.2772 34.4306C81.2713 34.4306 81.2597 34.4191 81.2481 34.4133C81.1378 38.533 80.7661 42.6412 80.1157 46.7091C80.1099 46.7321 80.0982 46.7609 80.0924 46.7896C80.0924 46.7954 80.0924 46.8012 80.0982 46.8012C80.046 47.1176 79.9995 47.4341 79.9414 47.7505C79.9356 47.7275 79.924 47.7102 79.9182 47.6872C79.8195 46.6458 79.8892 45.6101 79.8485 44.5572C79.7963 43.3316 79.5872 42.1234 79.471 40.9093C79.3491 39.5975 79.3259 38.2798 79.3955 36.968C79.4478 36.0244 79.5059 35.0405 79.866 34.1602C79.8543 34.1602 79.8369 34.1602 79.8253 34.1659C79.4885 34.9542 79.3955 35.823 79.3259 36.6803C79.2271 37.9404 79.2271 39.212 79.3259 40.472C79.4304 41.8126 79.6743 43.136 79.7382 44.4824C79.7846 45.4548 79.715 46.4502 79.8079 47.4226C78.989 45.4087 78.054 43.441 77.0029 41.5307C75.9227 39.5744 74.7961 37.5261 73.199 35.9266C73.1874 35.9323 73.1816 35.9381 73.1758 35.9496C74.738 37.5721 75.8762 39.632 76.9448 41.5767L76.939 41.5652Z" fill="white"/>
<path d="M68.8199 37.6428C68.6805 40.1629 70.5389 42.3436 72.3334 43.9777C72.7341 44.3459 73.158 44.7084 73.5994 45.0479C73.6981 45.1284 73.7969 45.2147 73.9014 45.301C73.9072 45.301 73.9188 45.301 73.9246 45.301C75.5449 46.5036 77.3975 47.476 79.3662 47.8384C79.4998 47.8384 79.6333 47.8384 79.7611 47.8269C78.6867 46.0375 77.5543 44.2884 76.3521 42.5795C75.1268 40.8304 73.8433 39.087 72.4611 37.4414C72.4379 37.4644 72.4147 37.4874 72.3856 37.5047C73.7097 39.1905 75.0338 40.8822 76.2708 42.637C77.4555 44.3229 78.5822 46.049 79.6508 47.8097C77.1942 47.3148 75.0455 46.1583 73.129 44.5761C72.2637 43.7072 71.5726 42.6831 71.0035 41.6014C70.353 40.3586 69.662 38.9259 69.5632 37.4932C69.5516 37.4932 69.5342 37.4932 69.5226 37.4932C69.5632 38.9144 70.2601 40.3355 70.8989 41.5668C71.41 42.5565 72.0314 43.4713 72.7864 44.2826C72.7341 44.2366 72.6818 44.1906 72.6296 44.1445C70.7305 42.4702 68.7618 40.2665 68.8547 37.637C68.8431 37.637 68.8315 37.6485 68.8199 37.6543V37.6428Z" fill="white"/>
<path d="M12.1573 77.735C12.1573 77.7753 12.0935 77.7695 12.0935 77.735C12.0935 77.735 12.0818 77.7177 12.0702 77.6947C11.7624 77.2804 8.73095 73.6268 7.94694 71.4461C7.17455 69.2942 6.86676 66.7281 6.92483 64.4553C6.94226 63.9317 6.8203 62.6371 7.55784 62.5048C8.16763 62.3955 8.44057 63.3448 8.6206 63.7361C10.3048 67.3955 11.745 75.2896 12.0818 77.2747C12.1341 77.5681 12.1573 77.7292 12.1573 77.735Z" fill="#DCDCDC"/>
<path d="M12.0834 77.2743C11.2007 73.7415 10.1786 70.2317 9.06354 66.768C8.91835 66.3307 8.7964 65.8819 8.62798 65.4504C8.55829 65.2663 8.40149 64.9038 8.16338 64.8635C7.65233 64.7714 7.88463 66.2501 7.91367 66.5091C8.0937 68.379 8.46537 70.3238 9.13323 72.0845C9.53394 73.1374 10.1089 74.104 10.6606 75.0822C11.1019 75.8647 11.5491 76.6414 11.9963 77.4124C12.0195 77.5045 12.0428 77.6023 12.0718 77.6944C12.0892 77.7174 12.095 77.7289 12.095 77.7346C12.095 77.7692 12.1589 77.7749 12.1589 77.7346C12.1589 77.7346 12.1357 77.5678 12.0834 77.2743ZM9.80108 73.2927C8.97062 71.6932 8.5641 69.9326 8.26792 68.1661C8.11693 67.2858 7.96012 66.3882 7.97755 65.4907C7.97755 65.4216 7.94851 65.2087 7.98916 65.1569C8.23307 64.8232 8.32599 65.0821 8.42472 65.1857C8.5641 65.3353 8.62798 65.6345 8.69186 65.8244C8.83705 66.2847 8.97643 66.7507 9.1158 67.2168C9.66751 69.0235 10.2076 70.8301 10.7128 72.6483C11.131 74.1443 11.5259 75.646 11.9208 77.1478C11.2065 75.8647 10.4689 74.5931 9.80108 73.2927Z" fill="white"/>
<path d="M9.08978 80.3066C9.89702 81.2847 10.6346 82.3204 11.2966 83.4021C12.0051 84.5528 12.6207 85.7496 13.1376 86.9924C13.6602 88.241 14.0261 89.6276 14.8856 90.7094C14.903 90.7324 14.9088 90.7554 14.903 90.7784C14.903 90.8244 14.8624 90.859 14.8217 90.8647C14.7985 90.8647 14.7753 90.8647 14.752 90.8359C14.6707 90.7381 10.2164 87.096 8.64842 84.8463C7.81215 83.6495 7.11526 82.3607 6.61582 80.9913C6.26156 80.0074 5.83762 78.3273 6.40094 77.8267C6.87134 77.4067 8.35224 79.409 9.09559 80.3123L9.08978 80.3066Z" fill="#DCDCDC"/>
<path d="M8.10307 80.1293C7.99273 80.0315 7.82431 79.9106 7.66751 79.9912C7.47006 80.0948 7.54555 80.3824 7.56878 80.5551C7.63267 80.9751 7.7372 81.3894 7.87658 81.7921C8.4399 83.4607 9.48524 84.9682 10.5422 86.3721C11.785 88.0234 13.202 89.5539 14.8165 90.86C14.8571 90.86 14.8978 90.8198 14.8978 90.7737C13.6608 89.3123 12.5399 87.7818 11.6108 86.1017C10.6932 84.4446 9.99049 82.684 8.88707 81.1304C8.64897 80.7967 8.40506 80.3997 8.09726 80.1235L8.10307 80.1293ZM8.37021 80.6184C8.6722 81.0039 8.95095 81.3951 9.21229 81.8036C10.1589 83.2708 10.7977 84.9049 11.6688 86.4181C12.5574 87.9659 13.6085 89.4619 14.8107 90.7967C12.3483 88.6046 10.0544 86.0211 8.56186 83.0867C8.18437 82.3387 7.87658 81.5562 7.71978 80.7334C7.69655 80.6126 7.52233 79.9682 7.97531 80.1638C8.1263 80.2271 8.27148 80.4975 8.37021 80.6241V80.6184Z" fill="white"/>
<path d="M17.6714 71.0709C17.4856 73.2343 16.9339 75.5876 16.0918 77.5957C15.1858 79.7533 13.7804 81.6463 12.6886 83.7062C12.6828 83.7177 12.677 83.7292 12.6712 83.7349C12.648 83.7579 12.6247 83.7349 12.6131 83.6716C12.6073 83.6429 12.6015 83.6026 12.5957 83.5566C12.6364 80.9616 12.8338 78.5278 13.7107 76.0709C14.1231 74.9087 14.5528 73.7522 14.9709 72.5957C15.3717 71.4909 15.6795 70.2654 16.2021 69.2125C16.3996 68.8212 16.8293 68.3897 17.2939 68.7176C17.8747 69.1261 17.7353 70.4955 17.683 71.0767L17.6714 71.0709Z" fill="#DCDCDC"/>
<path d="M16.5739 71.5337C16.1848 70.9698 15.7609 72.391 15.6854 72.6039C14.9478 74.5832 14.3206 76.6143 13.6644 78.6166C13.1243 80.2621 12.8165 81.9192 12.6248 83.6166C12.619 83.6338 12.6132 83.6453 12.6074 83.6626C12.6248 83.7259 12.6423 83.7489 12.6655 83.7259C13.2811 82.2702 13.8909 80.8145 14.5006 79.3588C15.2672 77.5348 16.0628 75.6994 16.4926 73.7604C16.5855 73.3346 16.6668 72.9031 16.6842 72.4715C16.6959 72.2011 16.7365 71.7753 16.5739 71.5394V71.5337ZM16.6146 72.1896C16.6146 72.414 16.6029 72.6442 16.5739 72.8686C16.51 73.3634 16.3997 73.8467 16.2719 74.3243C15.8131 76.0446 15.1046 77.6844 14.4135 79.3243C13.8328 80.6994 13.2579 82.0746 12.6829 83.4555C12.8455 82.1954 13.0604 80.9411 13.403 79.727C13.9199 77.9204 14.5761 76.1482 15.1743 74.3645C15.3137 73.933 15.4589 73.5072 15.6041 73.0814C15.7376 72.6844 15.8538 72.1436 16.1093 71.8041C16.5449 71.2172 16.6087 71.9192 16.6146 72.1839V72.1896Z" fill="white"/>
<path d="M12.9804 69.6989C12.9804 69.6989 12.9804 69.7219 12.992 69.7277C13.0036 69.7334 13.0153 69.7277 13.0269 69.7162C13.0617 69.6586 13.0966 69.6069 13.1314 69.5493C13.2592 69.3422 13.3869 69.1293 13.5031 68.9222C13.5263 68.8819 13.5495 68.8474 13.567 68.8071C13.5786 68.8071 13.5844 68.8013 13.5902 68.7898C14.9491 66.5286 17.5509 65.3146 18.573 62.8289C19.026 61.7185 19.2002 60.5274 19.2583 59.3364C19.2815 58.8243 19.6241 57.196 18.9214 56.9601C18.3755 56.776 17.789 57.5988 17.5451 57.944C16.7727 59.043 16.372 60.4181 15.9538 61.6782C15.5415 62.9095 15.1989 64.1638 14.8272 65.4066C14.4787 66.5574 14.0083 67.6276 13.4857 68.6863C13.3172 69.02 13.1488 69.3595 12.9746 69.6989H12.9804Z" fill="#DCDCDC"/>
<path d="M12.9804 69.6965C12.9804 69.6965 12.9804 69.7195 12.992 69.7253C13.1024 69.5354 13.2127 69.3455 13.3289 69.1614C13.265 69.288 13.2011 69.4203 13.1372 69.5469C13.265 69.3398 13.3927 69.1269 13.5089 68.9198C13.567 68.8104 13.625 68.7011 13.6831 68.5918C14.4729 67.349 15.3731 66.1752 16.3429 65.0647C16.8249 64.5124 17.214 63.9197 17.4812 63.235C17.9748 61.9807 18.5323 59.1729 18.2129 58.8392C17.8761 58.4882 17.6206 59.4318 17.5276 59.639C16.8249 61.3075 16.3429 63.0567 15.5473 64.6907C15.013 65.7897 14.4613 66.8829 13.9154 67.9819C13.7644 68.212 13.625 68.448 13.4857 68.6896C13.3172 69.0233 13.1488 69.3628 12.9746 69.7023L12.9804 69.6965ZM14.3568 67.3202C14.9143 66.2788 15.4602 65.2374 15.9422 64.1672C16.3429 63.2811 16.6623 62.3605 16.9875 61.4399C17.1502 60.9796 17.3128 60.525 17.4928 60.0705C17.5393 59.9497 17.8703 58.9312 18.0677 58.9658C18.2884 59.0003 18.149 59.754 18.1142 59.9497C17.94 60.9048 17.7367 61.8772 17.4696 62.815C17.185 63.8104 16.6159 64.5527 15.9364 65.3179C15.3789 65.9451 14.8504 66.6183 14.3568 67.3202Z" fill="white"/>
<path d="M22.313 90.2865C23.55 92.6628 23.0564 95.5972 25.9601 97.7836C25.9717 97.7894 25.9601 97.8066 25.9601 97.8124H25.9485C25.6407 97.6283 25.3387 97.4384 25.0483 97.2313C23.4629 96.1323 22.0517 94.7054 21.0122 93.1058C20.3908 92.145 19.8913 91.092 19.5893 89.9873C19.4325 89.4234 18.9737 88.1576 19.3048 87.6398C20.0249 86.5293 22.0981 89.855 22.3246 90.2865H22.313Z" fill="#DCDCDC"/>
<path d="M20.0388 89.3325C19.731 89.5856 20.242 90.4717 20.3466 90.7191C20.9273 92.1576 21.7113 93.5154 22.6695 94.741C23.349 95.6098 24.133 96.4614 25.0041 97.1863C25.0157 97.2036 25.0332 97.2209 25.0448 97.2324C25.341 97.4395 25.6429 97.6294 25.9449 97.8135H25.9565C25.6255 97.5488 25.3061 97.2784 24.9925 97.008C24.3014 96.1737 23.7497 95.2358 23.2851 94.2577C22.6115 92.8365 22.234 91.1564 21.1306 89.9826C20.9796 89.8158 20.3349 89.0966 20.0388 89.3382V89.3325ZM20.8983 89.8906C21.177 90.1553 21.4151 90.466 21.6184 90.7882C22.3966 92.031 22.7741 93.4982 23.4419 94.8043C23.7613 95.4314 24.1272 96.0356 24.5453 96.5995C24.0982 96.1852 23.6684 95.7594 23.2619 95.2876C22.3385 94.2174 21.5487 93.0264 20.9273 91.7548C20.6369 91.1679 19.9458 89.6777 20.1201 89.4763C20.2769 89.2922 20.7879 89.7813 20.8983 89.8848V89.8906Z" fill="white"/>
<path d="M10.1042 94.5725C11.138 95.0903 12.2414 95.4988 13.368 95.7635C15.5748 96.2871 17.8339 96.2583 20.0408 95.752C20.0814 95.7405 20.1221 95.7347 20.1569 95.7232C20.2673 95.7405 20.3776 95.7577 20.4879 95.7692C20.5112 95.7692 20.5344 95.775 20.5634 95.7807C20.5692 95.7807 20.575 95.7807 20.5809 95.7807C20.5809 95.7807 20.6041 95.7347 20.5809 95.7232C20.4531 95.6772 20.3253 95.6311 20.1976 95.5794C17.5784 94.5955 15.1741 93.1915 12.4098 92.5989C11.8058 92.4723 7.89742 91.4942 8.06583 93.0304C8.14714 93.7439 9.57576 94.302 10.0984 94.5667L10.1042 94.5725Z" fill="#DCDCDC"/>
<path d="M10.8233 94.2431C12.4146 94.9163 14.3136 95.1176 16.0152 95.3536C17.3393 95.5377 18.6924 95.7103 20.0455 95.7621C20.1559 95.7678 20.2662 95.7736 20.3766 95.7736C20.4172 95.7736 20.4579 95.7793 20.4985 95.7851C20.5276 95.7908 20.5566 95.7966 20.5914 95.7966C20.5914 95.7966 20.6147 95.7506 20.5914 95.7391C20.4637 95.693 20.3359 95.647 20.2081 95.5952C20.1036 95.5837 19.9933 95.5779 19.8887 95.5722C18.3846 95.25 16.956 94.7149 15.5041 94.1855C14.7201 93.8979 13.9361 93.6332 13.1289 93.4203C12.3507 93.2189 11.5318 92.96 10.7246 92.937C10.3703 92.9255 9.67345 92.914 9.74314 93.4376C9.80122 93.8748 10.4923 94.1107 10.8291 94.2546L10.8233 94.2431ZM10.6259 93.0866C11.5783 93.1153 12.5946 93.4318 13.5122 93.6907C14.3891 93.9381 15.2428 94.2546 16.0965 94.5653C16.9966 94.899 17.92 95.2385 18.855 95.4801C17.6006 95.3823 16.3462 95.2672 15.0918 95.0716C14.1103 94.9163 13.1347 94.7379 12.1707 94.5135C11.6712 94.3984 11.1776 94.2603 10.713 94.0474C10.5504 93.9726 10.382 93.8921 10.231 93.8C9.74314 93.4951 10.1903 93.0751 10.6259 93.0866Z" fill="white"/>
<path d="M12.5766 70.3246C13.0354 65.7734 13.5987 61.2106 14.5395 56.7285C14.5569 56.6364 14.7195 56.6537 14.7079 56.7515C14.2665 60.618 13.7497 64.4673 13.3664 68.3395C12.9831 72.1715 12.565 76.0496 12.594 79.8988C12.623 83.4834 13.1806 87.2003 15.1086 90.3016C16.8451 93.0979 19.6152 95.0772 22.6176 96.3718C26.5667 98.0749 30.899 98.6158 35.1269 99.1279C35.3127 99.1509 35.3243 99.3523 35.1327 99.335C28.2625 98.6503 20.3121 97.6319 15.6255 91.9875C10.6776 86.0266 11.8565 77.4305 12.5708 70.3246H12.5766Z" fill="#DCDCDC"/>
<path d="M16.5643 58.0935C16.0765 58.128 15.6351 57.7137 15.3564 57.3742C15.1705 57.1498 15.0196 56.9024 14.8744 56.6493C14.8918 56.7068 14.9092 56.7643 14.9324 56.8161C15.1938 57.426 15.5074 58.0474 15.5248 58.7264C15.5248 58.922 15.5596 59.4859 15.217 59.4341C14.8047 59.3708 14.6595 58.5192 14.613 58.2143C14.5433 57.777 14.5201 57.334 14.5491 56.8967C14.4098 57.2879 14.2123 58.2085 13.8523 58.8817C13.649 59.2557 13.4457 59.342 13.3006 59.3478C13.0276 59.365 12.9463 59.0198 12.9753 58.8242C13.1554 57.6044 14.3343 56.609 14.3749 56.5514C14.3691 56.5514 14.3633 56.563 14.3575 56.5687C13.9452 56.8852 12.0229 57.5986 11.6745 57.4375C11.448 57.3282 11.5119 57.1153 11.6745 56.983C12.4004 56.3673 13.3412 56.1257 13.7477 56.0681C14.4678 55.9703 15.0196 55.9933 15.6351 56.3903C16.0939 56.6838 16.5759 57.052 16.8199 57.5526C16.9534 57.8288 16.9244 58.0819 16.5759 58.105L16.5643 58.0935Z" fill="#DCDCDC"/>
<path d="M19.1315 53.2403C18.481 53.7811 17.8074 54.2875 17.1279 54.7938C16.6459 55.1505 16.1639 55.559 15.525 55.5188C15.4902 55.5188 15.4496 55.513 15.4147 55.5073C15.3857 55.5073 15.3566 55.5015 15.3276 55.4957C15.3044 55.4957 15.2753 55.49 15.2521 55.4842C15.2231 55.4842 15.194 55.4727 15.1708 55.467C15.1243 55.4555 15.0779 55.444 15.0372 55.4267C14.9966 55.4152 14.9559 55.3979 14.9095 55.3807C14.8746 55.3692 14.834 55.3519 14.7991 55.3404C14.7585 55.3231 14.7178 55.3059 14.683 55.2886C14.6423 55.2656 14.5959 55.2426 14.5552 55.2196C14.4739 55.1735 14.3926 55.1275 14.3171 55.0757C13.8641 54.7765 13.475 54.3565 13.2021 53.9135C11.9941 52.2161 11.8838 49.4946 11.727 47.5613C11.6283 46.3645 11.2856 44.5924 12.2032 43.6085C12.4703 43.3208 12.7375 43.1885 13.0104 43.1482C13.0279 43.1482 13.0511 43.1482 13.0685 43.1424C13.4808 43.1022 13.8932 43.2805 14.3113 43.4877C14.3229 43.4877 14.3287 43.4934 14.3403 43.5049C14.7469 43.7063 15.1592 43.925 15.5773 43.9997C16.0593 44.0861 16.5762 43.9882 17.0989 43.8789C17.1221 43.8789 17.1395 43.8732 17.1569 43.8674C17.4647 43.8041 17.7783 43.7351 18.0803 43.7006C18.0919 43.7006 18.1036 43.7006 18.1152 43.7006C18.574 43.6545 19.0153 43.6833 19.4218 43.9192C19.7471 44.1091 19.9097 44.4083 20.0607 44.7132C20.0723 44.7305 20.0781 44.7477 20.0839 44.765C20.2465 45.0987 20.4033 45.4324 20.7343 45.6453C20.9027 45.7489 21.077 45.8294 21.2512 45.9042C21.2744 45.91 21.2918 45.9215 21.3093 45.9273C21.6577 46.0769 21.9945 46.2207 22.2617 46.5314C22.2733 46.5429 22.2849 46.5602 22.2965 46.5717C22.3081 46.5889 22.3256 46.6062 22.3314 46.6177C24.0271 48.8387 20.6762 51.9687 19.1431 53.2403H19.1315Z" fill="#C8C8C8"/>
<path d="M13.5456 53.3229C13.6966 54.0939 14.074 54.6808 14.5502 55.2217C14.4689 55.1756 14.3876 55.1296 14.3121 55.0778C13.9463 54.629 13.6617 54.1284 13.5165 53.5416C13.2087 52.247 13.081 50.8833 12.9125 49.5657C12.7499 48.3056 12.5525 47.0341 12.5002 45.7625C12.4712 44.9455 12.5002 43.8695 12.9997 43.1503C13.0171 43.1503 13.0403 43.1503 13.0577 43.1445C12.4654 44.0133 12.5409 45.354 12.6164 46.3206C12.7093 47.4771 12.8603 48.6336 13.0113 49.7844C13.1681 50.9639 13.3133 52.1607 13.5456 53.3287V53.3229Z" fill="white"/>
<path d="M14.3287 43.4977C13.8234 45.5 13.9337 47.5714 14.1138 49.614C14.2125 50.7475 14.3287 51.881 14.4332 53.0144C14.5087 53.8142 14.5842 54.5852 14.7991 55.339C14.7584 55.3217 14.7178 55.3044 14.6829 55.2872C14.4855 54.5795 14.439 53.82 14.3693 53.1007C14.2532 51.8925 14.137 50.6899 14.0267 49.4874C13.8524 47.4851 13.7595 45.4367 14.2996 43.4805C14.3112 43.4805 14.317 43.4862 14.3287 43.4977Z" fill="white"/>
<path d="M18.1046 43.6953C17.8374 45.3984 17.4135 47.0843 16.9199 48.7356C16.6179 49.7368 16.2869 50.7322 15.9442 51.7218C15.6364 52.6079 15.2009 53.517 15.0905 54.4548C15.0731 54.7828 15.0557 55.105 15.0325 55.433C14.9918 55.4215 14.9512 55.4042 14.9047 55.3869C14.9512 54.6159 15.0441 53.8449 15.1138 53.0854C15.2241 51.8829 15.3751 50.6804 15.5784 49.4893C15.9036 47.5791 16.3856 45.6861 17.0825 43.8737C17.1057 43.8737 17.1231 43.8679 17.1406 43.8622C16.4437 45.7264 15.9558 47.6654 15.6248 49.6332C15.4274 50.8012 15.2822 51.9807 15.1718 53.1602C15.1428 53.4422 15.1254 53.7299 15.108 54.0175C15.2531 53.2983 15.5667 52.5906 15.8048 51.9117C16.1417 50.945 16.4669 49.9727 16.7631 49.0003C17.2974 47.2569 17.7387 45.4962 18.0639 43.7068C18.0756 43.7068 18.0872 43.7068 18.0988 43.7068L18.1046 43.6953Z" fill="white"/>
<path d="M21.297 45.925C20.9834 47.5303 20.2749 49.0665 19.4153 50.4474C18.8056 51.4313 18.0971 52.3519 17.3421 53.2265C16.9995 53.6235 16.6452 54.0148 16.2793 54.4003C15.9425 54.757 15.6115 55.1482 15.2456 55.482C15.2166 55.482 15.1875 55.4705 15.1643 55.4647C16.198 53.6925 17.4699 52.0585 18.3642 50.2058C19.2005 48.4739 19.7638 46.6097 20.0426 44.7109C20.0542 44.7282 20.06 44.7455 20.0658 44.7627C19.8044 46.6615 19.2585 48.4969 18.4165 50.2288C17.5512 52.0125 16.3723 53.6293 15.3211 55.3094C15.5882 55.0217 15.8786 54.7512 16.14 54.4636C16.5291 54.0435 16.9123 53.6235 17.2782 53.192C17.9867 52.3634 18.6604 51.5004 19.2469 50.5798C20.1819 49.1241 20.8556 47.5648 21.2215 45.902C21.2447 45.9077 21.2621 45.9192 21.2795 45.925H21.297Z" fill="white"/>
<path d="M22.3225 46.6242C22.3632 47.1305 22.3167 47.6426 22.1715 48.1374C21.8521 49.2421 21.0797 50.2203 20.3538 51.0948C19.593 52.0097 18.7335 52.8382 17.8276 53.615C17.0552 54.2709 16.2596 54.9268 15.4233 55.508C15.3943 55.508 15.3652 55.5022 15.3362 55.4964C16.0911 54.9211 16.8577 54.3687 17.5895 53.7531C18.4664 53.0166 19.2969 52.2341 20.0576 51.3825C20.8068 50.5425 21.5676 49.6104 21.9915 48.5632C22.2528 47.9245 22.3458 47.2456 22.2877 46.5781C22.2993 46.5954 22.3167 46.6126 22.3225 46.6242Z" fill="white"/>
<path d="M20.2282 52.2136C19.9842 52.9674 19.1886 53.3183 18.4511 53.4162C17.3999 53.56 16.2791 53.4507 15.2454 53.2435C14.7227 53.14 13.4509 52.8293 12.4694 52.3287C12.0513 52.1849 11.6215 52.0122 11.3486 51.6613C11.0292 51.2412 11.0931 50.8097 11.3196 50.4242C11.3312 50.4012 11.3428 50.3782 11.3544 50.3552C11.3544 50.3552 11.3544 50.3552 11.3602 50.3552C11.5693 50.0272 11.8771 49.7338 12.1558 49.5094C13.567 48.3529 15.6171 48.0306 17.3477 48.5715C18.1375 48.8247 18.8866 49.2504 19.45 49.8661C19.9901 50.4587 20.5011 51.3966 20.234 52.2194L20.2282 52.2136Z" fill="#DCDCDC"/>
<path d="M24.573 48.7275C24.753 49.8149 23.8877 51.1958 23.3244 52.0647C21.7215 54.533 17.9351 56.4548 15.1765 56.4663C15.0662 56.4663 14.9558 56.4663 14.8455 56.4548C14.8223 56.4548 14.7932 56.4548 14.7642 56.4548C14.7294 56.4548 14.7003 56.4548 14.6655 56.449C14.6422 56.449 14.619 56.449 14.59 56.4433C14.2125 56.403 13.8524 56.3224 13.5098 56.2016C13.4459 56.1843 13.3878 56.1613 13.324 56.1326C11.6979 55.5054 10.4319 54.067 9.65947 52.4559C8.74189 50.5342 8.15534 48.0543 9.15422 46.052C9.40394 45.5572 9.76981 45.0681 10.2809 44.8494C10.3099 44.8379 10.3389 44.8264 10.3738 44.8149C10.519 44.7631 10.6758 44.7344 10.8442 44.7344C11.0358 44.7344 11.2101 44.7631 11.3727 44.8379C11.3843 44.8379 11.3959 44.8494 11.4075 44.8552C11.5353 44.9185 11.6514 45.0048 11.7618 45.1141C12.1102 45.4709 12.1334 45.9196 12.9174 45.6953C12.9232 45.6953 12.9349 45.6953 12.9407 45.6837C12.9523 45.6837 12.9639 45.678 12.9813 45.6722C13.1846 45.5917 13.382 45.4248 13.5737 45.327C13.5795 45.327 13.5853 45.327 13.5911 45.3213C13.5969 45.3213 13.6085 45.3098 13.6143 45.3098C13.986 45.1314 14.3867 45.0336 14.7584 45.0911C14.77 45.0911 14.7816 45.0911 14.7932 45.0969C15.0836 45.1486 15.3566 45.2982 15.5714 45.5802C16.1348 46.3052 16.0418 47.4099 15.9954 48.2614C15.9199 49.602 15.8153 50.9427 15.6411 52.2775C15.5947 52.6458 15.5308 53.014 15.4669 53.3765C15.6295 52.9105 15.8153 52.4559 16.007 52.0129C16.5935 50.6607 17.3195 49.3604 18.2312 48.1924C18.5565 47.7724 19.5147 46.2821 20.1535 46.472C20.2174 46.495 20.2697 46.5238 20.3103 46.5583C20.3219 46.5583 20.3277 46.5698 20.3335 46.5756C20.5252 46.7654 20.5136 47.1107 20.6123 47.3408C20.7052 47.5537 20.8039 47.7091 20.9201 47.8184C20.9375 47.8414 20.9607 47.8587 20.984 47.8702C21.2047 48.0428 21.4776 48.0658 21.8435 48.0083C22.1919 47.9507 22.5287 47.8874 22.8772 47.8644C23.0224 47.8587 23.1792 47.8529 23.3302 47.8644C23.3418 47.8644 23.3534 47.8644 23.365 47.8644C23.5625 47.8817 23.7541 47.9162 23.9225 47.9795C23.9341 47.9795 23.9458 47.9852 23.9516 47.991C24.2594 48.1176 24.4975 48.342 24.5672 48.7332L24.573 48.7275Z" fill="#ECECEC"/>
<path d="M13.5218 56.1971C13.4579 56.1799 13.3998 56.1568 13.3359 56.1281C13.2779 56.0533 13.214 55.9727 13.1559 55.8979C12.5171 55.288 11.9015 54.6666 11.3788 53.9532C10.6819 53.0153 10.229 51.9624 9.87471 50.8519C9.49723 49.6954 9.25912 48.4871 9.43334 47.2673C9.5553 46.4042 9.8689 45.593 10.2987 44.8392C10.3277 44.8277 10.3567 44.8162 10.3916 44.8047C9.91536 45.6447 9.57853 46.5653 9.49723 47.532C9.39269 48.7403 9.70629 49.9543 10.0954 51.0935C10.4787 52.1983 10.9549 53.2224 11.675 54.1545C12.0815 54.6839 12.5345 55.1787 12.9991 55.662C12.0002 54.2236 11.4137 52.532 11.0304 50.8231C10.5716 48.7863 10.6006 46.7552 11.3905 44.8277C11.4021 44.8277 11.4137 44.8392 11.4253 44.845C10.6878 46.7782 10.6413 48.7805 11.1001 50.8116C11.3614 51.9854 11.6866 53.1361 12.2267 54.2178C12.5752 54.914 13.0049 55.5412 13.4811 56.1453C13.4986 56.1626 13.516 56.1799 13.5334 56.1971H13.5218Z" fill="white"/>
<path d="M17.1985 51.2482C16.2925 52.8938 15.4911 54.5969 14.7884 56.3345C14.7884 56.3748 14.7768 56.4093 14.771 56.4496C14.7361 56.4496 14.7071 56.4496 14.6723 56.4438C14.6026 56.0641 14.5387 55.6844 14.4748 55.2989C13.6153 52.1458 12.9591 48.9525 12.9417 45.6728C12.9533 45.6728 12.9649 45.6671 12.9823 45.6613C13.0288 48.8546 13.6037 52.048 14.4458 55.132C13.9173 51.8811 13.6211 48.5957 13.5921 45.3046C13.5979 45.3046 13.6095 45.2931 13.6153 45.2931C13.7082 48.7223 14.016 52.14 14.5561 55.529C14.5619 55.552 14.5677 55.575 14.5735 55.598C14.5735 55.6038 14.5735 55.6038 14.5677 55.6096C14.6084 55.8742 14.649 56.1331 14.6955 56.3978C14.7013 56.3806 14.7071 56.3633 14.7129 56.346C14.7942 55.4772 14.7361 54.6142 14.771 53.7396C14.8116 52.7212 14.9859 51.7143 15.0846 50.7016C15.1833 49.6141 15.2066 48.5152 15.1485 47.422C15.1078 46.6337 15.0556 45.8167 14.7594 45.0859C14.771 45.0859 14.7826 45.0859 14.7942 45.0917C15.073 45.7476 15.1543 46.4726 15.2066 47.1861C15.2879 48.2332 15.2879 49.2919 15.2066 50.3391C15.1194 51.4553 14.9162 52.5601 14.8639 53.6763C14.8233 54.4876 14.8871 55.3104 14.8058 56.1216C15.4911 54.4415 16.2693 52.8075 17.1404 51.2194C18.0406 49.5911 18.9756 47.8823 20.3055 46.5531C20.3171 46.5531 20.3229 46.5647 20.3287 46.5704C19.0278 47.9168 18.0812 49.6372 17.1927 51.254L17.1985 51.2482Z" fill="white"/>
<path d="M23.9578 47.9851C24.074 50.0795 22.5234 51.8977 21.0309 53.2613C20.694 53.5663 20.3456 53.8655 19.9739 54.1531C19.8926 54.2222 19.8113 54.297 19.7242 54.3603C19.7184 54.3603 19.7068 54.3603 19.7068 54.3603C18.3594 55.3614 16.8147 56.167 15.177 56.4719C15.0666 56.4719 14.9563 56.4719 14.8459 56.4604C15.7403 54.9702 16.6869 53.5145 17.68 52.0933C18.7021 50.6376 19.7648 49.1819 20.9147 47.8125C20.9321 47.8355 20.9554 47.8528 20.9786 47.8643C19.8752 49.2682 18.7776 50.6721 17.7439 52.1336C16.7566 53.5375 15.8216 54.9759 14.9273 56.4431C16.9715 56.0346 18.7602 55.068 20.3572 53.7504C21.0773 53.0254 21.6523 52.1738 22.1285 51.2763C22.6686 50.2406 23.2493 49.0496 23.3306 47.8528C23.3422 47.8528 23.3538 47.8528 23.3655 47.8528C23.3306 49.0323 22.7499 50.2176 22.2214 51.2417C21.7916 52.0645 21.2806 52.8298 20.6534 53.503C20.6998 53.4627 20.7405 53.4282 20.787 53.3879C22.3666 51.9955 24.0101 50.16 23.9288 47.9679C23.9404 47.9679 23.952 47.9736 23.9578 47.9794V47.9851Z" fill="white"/>
<path d="M4.25391 99.3735C32.478 99.2297 63.8498 99.2297 92.0914 99.3735C63.844 99.5174 32.4839 99.5174 4.25391 99.3735Z" fill="#1A2E35"/>
<path d="M71.7567 99.3321H48.2831C47.2203 95.1951 42.6673 72.0996 42.6441 72.0017C42.6324 71.9442 42.615 71.8982 42.6092 71.8579C42.5976 71.8061 42.5918 71.7773 42.5918 71.7773H66.2106C66.2106 71.7773 69.579 81.2308 70.3281 85.5461C70.9379 89.0616 71.7626 99.3263 71.7626 99.3263L71.7567 99.3321Z" fill="#2B454E"/>
<path d="M65.4464 71.7734C65.4464 71.7734 65.4406 71.7907 65.4464 71.7849C65.7775 71.457 62.2407 89.5698 60.3707 92.3201C60.3707 92.3201 53.8199 95.3523 53.4483 95.5134L51.4854 99.3339H24.5156L26.2114 94.4835C26.0604 93.655 25.8339 89.5813 26.2637 87.1302C27.0651 82.5042 33.2616 71.7849 33.2616 71.7849L65.4464 71.7734Z" fill="#2B454E"/>
<path d="M51.9321 99.3425H51.3281C51.7695 98.4104 53.5233 95.2631 53.535 95.1768C53.5466 95.1077 53.6569 95.1077 53.6627 95.1768C53.6627 95.2401 52.4141 98.3701 51.9263 99.3367L51.9321 99.3425Z" fill="#1A2E35"/>
<path d="M48.3895 97.7141C49.4755 96.9661 50.6428 96.3447 51.7926 95.7003C52.9657 95.0443 54.1563 94.4114 55.3816 93.8476C57.7685 92.7486 60.2889 91.9488 62.8035 91.1778C62.8674 91.1605 62.9081 91.2584 62.85 91.2871C60.4283 92.3171 58.0879 93.4966 55.6778 94.5553C54.4699 95.0904 53.2445 95.5967 52.0366 96.126C50.8228 96.6554 49.6439 97.2538 48.4185 97.7601C48.3837 97.7716 48.3663 97.7313 48.3895 97.7141Z" fill="#1A2E35"/>
<path d="M55.0074 85.9871C55.0364 84.8133 55.1235 83.6395 55.1816 82.4658C55.321 79.6925 55.4313 76.9076 55.6868 74.1401C55.6985 74.0308 55.8611 74.0308 55.8611 74.1401C55.8959 76.2862 55.8146 78.4381 55.7681 80.5785C55.7449 81.6545 55.7159 82.7247 55.6868 83.7949C55.6578 84.8133 55.5881 85.849 55.6636 86.8674C55.7217 87.6384 55.8959 89.1459 56.9122 89.2379C57.8704 89.3242 58.3989 88.3001 58.637 87.5463C59.2468 85.6361 59.4617 83.5762 59.6591 81.5912C59.7753 80.4174 59.8914 79.2437 59.9669 78.0641C60.0366 76.8731 60.1353 75.1182 60.0656 73.9272C60.0656 73.8524 60.1702 73.8524 60.1876 73.9272C60.3734 74.9456 60.3851 77.017 60.356 78.2368C60.1237 89.1746 58.3815 89.8018 57.4581 89.9802C57.342 90.0032 57.2258 90.0147 57.1155 90.0147C57.1039 90.2621 57.069 90.5153 57.0516 90.7569C57.0226 91.1482 56.9761 91.5337 56.9238 91.9192C56.8716 92.2989 56.7844 92.6729 56.6857 93.0412C56.587 93.4037 56.4883 93.7892 56.285 94.1171C56.2502 94.1689 56.1805 94.1401 56.1747 94.0826C56.1456 93.7144 56.2153 93.3404 56.2676 92.9779C56.3199 92.5981 56.3721 92.2184 56.4534 91.8444C56.5289 91.4761 56.5986 91.1079 56.6741 90.7397C56.7264 90.4923 56.7612 90.2391 56.8077 89.9917C56.2153 89.8996 55.7275 89.5141 55.4487 88.933C55.019 88.0296 54.9841 86.9594 55.0074 85.9813V85.9871Z" fill="#1A2E35"/>
<path d="M35.8453 84.7391C37.3842 84.8426 38.9058 85.044 40.4564 84.8599C41.914 84.6873 43.3078 84.1982 44.4693 83.3006C47.013 81.3444 48.128 78.151 48.8133 75.1533C48.8307 75.0843 48.9294 75.1015 48.9236 75.1706C48.6391 77.7713 48.0699 80.4583 46.3742 82.5527C45.6366 83.4675 44.7307 84.2328 43.6737 84.7621C42.5703 85.3087 41.3217 85.4928 40.1021 85.4928C38.6735 85.4928 37.21 85.2799 35.822 84.9232C35.7117 84.8944 35.7291 84.7391 35.8453 84.7448V84.7391Z" fill="#1A2E35"/>
<path d="M68.0799 84.1355C67.6502 84.0837 67.232 84.124 66.7965 83.8075C66.3899 83.5141 65.9892 82.9272 65.6524 82.0008C64.9091 79.9755 64.5432 76.9491 64.3051 74.1412C64.3051 74.0779 64.2702 74.0779 64.276 74.1412C64.398 76.5463 64.6013 79.0549 65.1123 81.132C65.333 82.0354 65.6001 82.8236 65.9021 83.4048C66.2215 84.0089 66.57 84.2966 66.9126 84.4117C67.3133 84.544 67.7199 84.4922 68.0973 84.2966C68.1264 84.2793 68.1206 84.1355 68.0857 84.1355H68.0799Z" fill="#1A2E35"/>
<path d="M35.5754 72.9297C34.1177 77.2623 32.4975 81.6409 30.9643 85.9504C30.5462 87.245 29.9538 88.4993 29.8435 89.863C29.7447 91.2381 29.8028 92.6248 29.9131 93.9999C29.646 94.8342 29.3847 95.6743 29.1059 96.5086C28.833 97.3314 28.5658 98.1599 28.2812 98.9827C28.4845 98.1369 28.7052 97.2968 28.9201 96.4568C29.1349 95.6167 29.3614 94.7767 29.5821 93.9366C29.4137 92.901 29.315 91.1288 29.3847 89.8342C29.4079 89.3624 29.4834 88.8791 29.6228 88.4303C30.1571 86.6466 30.7959 84.9263 31.4405 83.1944C32.7356 79.7421 34.1061 76.3186 35.587 72.9412L35.5754 72.9297Z" fill="#1A2E35"/>
<path d="M69.005 78.9221L28.8059 80.2973C28.8059 80.2973 27.7199 76.7875 28.26 75.0153C32.784 60.0556 26.7326 46.6205 35.1883 33.2028C38.6263 27.754 51.0948 30.6078 52.9648 33.1625C58.8594 41.212 69.667 65.5504 70.782 74.089C70.9911 75.7173 69.0224 78.8933 69.0108 78.9164L69.005 78.9221Z" fill="#00953B"/>
<path d="M28.8052 80.5234C28.7006 80.5234 28.6135 80.4544 28.5845 80.3623C28.538 80.2185 27.4869 76.7662 28.0386 74.948C29.9318 68.6764 29.9609 62.6407 29.9899 56.8007C30.0306 48.6246 30.0654 40.8973 34.9959 33.0837C36.5755 30.5808 39.7929 29.9594 42.2204 29.8731C46.965 29.7178 51.9943 31.4324 53.1616 33.0262C58.8064 40.742 69.8812 65.322 71.0194 74.0619C71.2459 75.7996 69.2307 79.0159 69.2075 79.0447C69.1669 79.108 69.0972 79.1425 69.0217 79.1483L28.8226 80.5234C28.8226 80.5234 28.8226 80.5234 28.8168 80.5234H28.8052ZM42.8301 30.3219C42.6269 30.3219 42.4294 30.3219 42.232 30.3334C39.9206 30.414 36.8543 30.9951 35.385 33.3254C30.5242 41.0296 30.4893 48.6936 30.4487 56.8007C30.4197 62.6695 30.3906 68.7397 28.48 75.0746C28.0386 76.5418 28.7761 79.3381 28.9794 80.0516L68.8707 78.688C69.2017 78.1356 70.7291 75.4946 70.549 74.1137C69.4166 65.4256 58.3999 40.9663 52.7783 33.2908C51.7504 31.8869 47.1857 30.3161 42.8301 30.3161V30.3219Z" fill="#1A2E35"/>
<path d="M33.3957 42.1367C33.3202 62.8214 36.7989 75.9687 45.603 76.36C51.451 76.6247 51.4278 65.0308 51.3814 64.6626C51.2188 63.3968 46.6541 50.7903 41.5029 39.6395C35.8407 27.3725 33.4306 33.7937 33.4015 42.1367H33.3957Z" fill="#FFABA1"/>
<path d="M47.7578 52.7632L32.4436 61.0141C32.4436 61.0141 32.1474 42.021 33.6515 36.4111C35.3415 30.0992 38.2336 32.3374 41.4219 37.6769C44.616 43.0221 47.7578 52.7632 47.7578 52.7632Z" fill="#00953B"/>
<path d="M32.438 61.0913C32.438 61.0913 32.4089 61.0913 32.3973 61.0798C32.3741 61.0683 32.3567 61.0395 32.3567 61.0108C32.3567 60.8209 32.0779 41.9428 33.5646 36.3847C34.2209 33.9279 35.0804 32.6563 36.178 32.5067C37.5717 32.3168 39.3082 33.9911 41.4802 37.6333C44.6394 42.9267 47.7928 52.6391 47.8219 52.7311C47.8335 52.7656 47.8219 52.8059 47.7812 52.8232L32.467 61.0741C32.467 61.0741 32.4438 61.0856 32.4264 61.0856L32.438 61.0913ZM36.4045 32.6563C36.3348 32.6563 36.2709 32.6563 36.207 32.6678C35.1907 32.8059 34.3544 34.0717 33.7272 36.4307C32.3102 41.7242 32.5019 59.1868 32.5193 60.8842L47.6593 52.7254C47.3805 51.8853 44.3665 42.7714 41.3524 37.7196C39.3198 34.3191 37.6995 32.6563 36.4045 32.6563Z" fill="#1A2E35"/>
<path d="M45.7112 50.3093C43.6148 51.0976 37.6737 54.3427 36.6865 54.8663C36.1638 55.1425 34.137 56.3392 33.6144 56.6154C33.5505 56.6499 33.6144 56.7478 33.6782 56.7132C34.6713 56.1954 35.7283 55.7754 36.7271 55.2575C37.7551 54.7339 43.8935 51.6614 45.7461 50.3841C45.7867 50.3553 45.7519 50.2863 45.7054 50.3093H45.7112Z" fill="#1A2E35"/>
<path d="M32.7958 43.9958C32.7958 43.9152 32.6797 43.921 32.6739 43.9958C32.5171 45.6011 32.3951 47.2121 32.3022 48.8289C32.1454 47.9946 32.0931 47.1603 32.0873 46.303C32.0873 46.2628 32.0292 46.2685 32.0292 46.303C31.9712 47.2697 32.0873 48.2651 32.2848 49.2202C32.2209 50.3422 32.1744 51.4699 32.1338 52.5919C32.035 55.4515 31.9073 58.3226 31.977 61.1822C31.977 61.3376 32.1512 61.4181 32.2789 61.3433C32.8016 61.0384 33.3127 60.7219 33.8121 60.3825C33.8644 60.3479 33.8295 60.2501 33.7657 60.2789C33.2953 60.4573 32.8423 60.6644 32.3893 60.8715C32.5577 58.1097 32.5809 55.3422 32.668 52.5746C32.761 49.715 32.8248 46.8496 32.7958 43.99V43.9958Z" fill="#1A2E35"/>
<path d="M45.4928 45.6914C45.2721 44.8054 45.0456 43.925 44.7901 43.0447C44.7901 43.0275 44.7552 43.0332 44.7611 43.0505C44.9004 43.7064 45.0514 44.3623 45.214 45.0125C44.6914 43.7754 44.1513 42.5499 43.5589 41.3589C43.5473 41.3416 43.5183 41.3589 43.5299 41.3704C44.1571 43.2979 44.8946 45.1909 45.5625 47.1011C46.2245 48.9768 46.9156 50.841 47.6125 52.7053C47.2931 52.9469 46.9679 53.1828 46.6427 53.413C46.5788 53.459 46.6427 53.5453 46.7065 53.5108C47.1015 53.3209 47.4964 53.131 47.9029 52.9584C47.9958 52.9182 48.0655 52.8261 48.0306 52.7168C47.2815 50.352 46.4452 47.9929 45.4986 45.6799L45.4928 45.6914Z" fill="#1A2E35"/>
<path d="M44.4794 76.2469C49.7874 77.2941 60.4731 71.0455 69.7127 61.7474C71.8556 59.5898 62.7322 44.8947 60.6937 46.7704C54.0675 52.8752 43.7418 60.1537 41.8951 66.3505C41.053 69.1698 40.8033 75.5277 44.4736 76.2469H44.4794Z" fill="#FFABA1"/>
<path d="M61.5129 47.8829C61.5826 46.4732 60.4328 42.1234 60.7986 41.5883C61.1645 41.0532 69.3414 47.0543 70.5609 49.4537C71.7747 51.853 71.9605 58.2454 71.8153 59.2178C71.676 60.1902 68.4644 62.6988 68.4644 62.6988L61.5071 47.8771L61.5129 47.8829Z" fill="#FFABA1"/>
<path d="M59.3459 47.994C54.5257 52.2691 49.5371 56.4118 45.1815 61.1644C44.5543 61.8778 43.933 62.6143 43.4625 63.4371C42.7715 64.8698 42.394 66.4348 42.0397 67.9826C41.7668 69.2369 41.5751 70.5085 41.459 71.7858C41.4648 70.497 41.6158 69.2139 41.8132 67.9365C42.1036 66.3485 42.4346 64.726 43.1083 63.2472C43.5729 62.3842 44.2117 61.6074 44.8389 60.8652C49.1655 56.0493 54.2121 51.9296 59.3459 47.9883V47.994Z" fill="#1A2E35"/>
<path d="M55.714 35.3313C66.0687 45.947 74.9541 56.4073 70.1629 66.5052C67.7238 71.6433 58.4145 59.3763 58.4784 58.5189C58.5248 57.8688 55.5166 47.6501 51.5269 37.8917C47.421 27.8399 53.1471 32.7076 55.7082 35.3313H55.714Z" fill="#FFABA1"/>
<path d="M67.5996 49.4159C69.6612 52.4942 71.9378 57.0454 71.508 60.8141C71.508 60.5609 71.508 60.302 71.508 60.0489C71.4151 58.2767 70.8924 56.5563 70.2478 54.905C69.5219 53.0063 68.5927 51.1881 67.6054 49.4102L67.5996 49.4159Z" fill="#1A2E35"/>
<path d="M55.9112 53.0175L69.4019 48.869C69.4019 48.869 58.0425 35.1003 52.932 32.2579C47.1826 29.0588 47.6879 31.159 50.1677 37.8391C52.328 43.6676 55.9112 53.0175 55.9112 53.0175Z" fill="#00953B"/>
<path d="M55.9123 53.093C55.8774 53.093 55.8484 53.0757 55.8368 53.0412C55.802 52.9492 52.2304 43.6223 50.0932 37.8628C48.653 33.9848 47.84 31.5855 48.6472 30.9065C49.2105 30.429 50.5056 30.8145 52.9737 32.1896C55.6219 33.6626 59.9659 38.1102 63.1425 41.574C66.5805 45.3312 69.4378 48.7834 69.461 48.818C69.4785 48.841 69.4843 48.864 69.4727 48.8928C69.4668 48.9158 69.4436 48.9388 69.4204 48.9445L55.9297 53.093C55.9297 53.093 55.9123 53.093 55.9065 53.093H55.9123ZM49.2802 30.8605C49.0537 30.8605 48.8795 30.9123 48.7517 31.0216C48.0258 31.6373 48.8737 34.1056 50.2442 37.8053C52.2826 43.3001 55.6277 52.0458 55.9646 52.9146L69.2694 48.8237C68.2705 47.6212 57.7184 35.0032 52.8982 32.3219C51.127 31.3323 49.9597 30.8605 49.2802 30.8605Z" fill="#1A2E35"/>
<path d="M55.7298 49.5836C57.3733 48.8643 62.6755 47.4202 63.5466 47.1727C64.0054 47.0404 65.8754 46.6031 66.3284 46.4708C66.3864 46.4535 66.4097 46.5513 66.3516 46.5686C65.4805 46.8218 64.6384 47.1727 63.7615 47.4374C62.8671 47.7078 57.5649 49.3707 55.7472 49.6584C55.7066 49.6641 55.6833 49.6066 55.7182 49.5893L55.7298 49.5836Z" fill="#1A2E35"/>
<path d="M58.0356 52.3552C57.3096 52.6256 56.5779 52.8787 55.852 53.1377C54.9402 50.8131 54.2491 48.4081 53.6684 45.98C53.0992 43.5979 52.6579 41.1526 52.4023 38.7188C53.0702 41.469 53.8658 44.8983 54.5743 47.6543C55.0215 49.3747 55.5151 51.2734 56.0088 52.9766L55.881 52.9133C56.6011 52.7291 57.3154 52.5278 58.0356 52.3552Z" fill="#1A2E35"/>
<path d="M68.5031 67.7401C65.3961 68.2177 57.5038 68.1544 43.5834 59.961C41.6553 58.8275 48.1132 43.2521 50.2329 44.3568C52.9043 45.7493 64.3043 52.579 64.9374 53.1601C69.4788 57.3431 71.2384 67.3201 68.5031 67.7401Z" fill="#FFABA1"/>
<path d="M39.5693 42.8893C39.3428 41.3358 37.3392 38.7063 36.4623 36.6925C35.5796 34.6787 35.6086 32.5441 36.4739 32.6994C37.3392 32.8548 38.0535 33.666 40.3533 36.0538C41.8342 37.5901 46.0852 39.2587 48.4663 42.3657C49.6626 43.9307 39.7958 44.4428 39.5693 42.8893Z" fill="#FFABA1"/>
<path d="M39.5693 42.8893C39.3428 41.3358 37.3392 38.7063 36.4623 36.6925C35.5796 34.6787 35.6086 32.5441 36.4739 32.6994C37.3392 32.8548 38.0535 33.666 40.3533 36.0538C41.8342 37.5901 46.0852 39.2587 48.4663 42.3657C49.6626 43.9307 39.7958 44.4428 39.5693 42.8893Z" fill="#FFABA1"/>
<path opacity="0.06" d="M39.5693 42.8893C39.3428 41.3358 37.3392 38.7063 36.4623 36.6925C35.5796 34.6787 35.6086 32.5441 36.4739 32.6994C37.3392 32.8548 38.0535 33.666 40.3533 36.0538C41.8342 37.5901 46.0852 39.2587 48.4663 42.3657C49.6626 43.9307 39.7958 44.4428 39.5693 42.8893Z" fill="black"/>
<path d="M27.053 40.8951C26.8962 42.7881 29.7883 42.6443 29.7883 42.6443C29.7883 42.6443 28.6094 43.2427 28.2029 44.4394C27.7383 45.8088 29.707 47.1322 29.707 47.1322C29.707 47.1322 28.6443 47.9838 28.3423 49.2899C28.0345 50.6477 29.8232 52.2588 29.8232 52.2588C29.8232 52.2588 29.2715 53.5937 29.829 54.9055C30.7872 57.1495 42.3556 59.7099 43.9701 60.0551L51.8043 46.2174C51.8043 46.2174 46.0956 37.1725 37.46 37.6385C35.0731 37.7651 27.2911 37.9952 27.053 40.8951Z" fill="#FFABA1"/>
<path d="M29.8359 42.5866C32.3912 42.0572 35.0684 42.132 37.6527 42.2298C37.7108 42.2298 37.705 42.3219 37.6527 42.3162C35.0859 42.1838 32.4202 42.7362 29.8534 42.7074C29.7837 42.7074 29.7721 42.5981 29.8417 42.5866H29.8359Z" fill="#1A2E35"/>
<path d="M29.7945 46.9431C30.3753 46.8396 30.9909 46.9259 31.5716 46.9777C32.1988 47.0352 32.826 47.0985 33.4532 47.179C34.7076 47.3286 35.9562 47.5128 37.199 47.7314C37.2571 47.7429 37.2513 47.8292 37.199 47.8177C35.9504 47.6681 34.696 47.5358 33.4416 47.438C32.8144 47.3919 32.1872 47.3459 31.5542 47.3056C30.9676 47.2711 30.3521 47.2769 29.7829 47.1158C29.7016 47.0927 29.7016 46.9604 29.7887 46.9431H29.7945Z" fill="#1A2E35"/>
<path d="M29.8795 52.2605C30.379 52.1512 30.9771 52.3065 31.4824 52.3756C32.0515 52.4561 32.6206 52.5367 33.1898 52.6115C34.328 52.7611 35.4721 52.9107 36.6161 53.02C36.6742 53.02 36.6684 53.1121 36.6161 53.1063C35.4547 53.0027 34.2874 52.9107 33.1259 52.7956C32.5567 52.7381 31.9818 52.6805 31.4127 52.6172C30.9249 52.5655 30.3151 52.5482 29.8737 52.318C29.8505 52.3065 29.8563 52.2663 29.8853 52.2605H29.8795Z" fill="#1A2E35"/>
<path d="M27.6523 39.7235C29.9056 38.6015 32.548 37.9628 34.8129 37.842C39.6679 37.5946 43.2685 38.567 43.7854 38.8086C42.5833 38.0721 39.1046 37.0882 34.7897 37.4795C28.9184 38.0088 27.6523 39.7235 27.6523 39.7235Z" fill="#1A2E35"/>
<path d="M50.7754 44.6523C54.4341 46.6201 58.0231 48.7145 61.5946 50.8434C62.6574 51.5453 63.9641 52.115 64.8875 52.9838C66.8562 55.0781 68.0816 57.7594 69.2314 60.3428C68.7378 59.4337 68.2442 58.5246 67.7099 57.6443C67.1872 56.7582 66.6355 55.8837 66.0431 55.0494C65.4508 54.2439 64.841 53.4096 64.0105 52.8342L61.3391 51.2462C57.7792 49.1115 54.2424 46.9423 50.7754 44.6581V44.6523Z" fill="#1A2E35"/>
<path d="M30.793 55.8477C31.7396 56.446 32.8488 56.7337 33.9058 57.0905C36.0487 57.7521 38.2149 58.339 40.3869 58.9087C41.4903 59.2136 42.6227 59.4668 43.7203 59.7775C49.9517 63.6613 56.9032 66.5957 64.1857 67.804L62.8036 67.6371C62.4551 67.5968 61.7698 67.4933 61.4272 67.4242C55.9334 66.4576 50.6776 64.3229 45.8458 61.6014C45.1489 61.1929 43.941 60.5082 43.5345 60.1802C40.2765 59.3114 37.0243 58.4023 33.8477 57.2631C32.8081 56.8546 31.6989 56.5208 30.7988 55.8534L30.793 55.8477Z" fill="#1A2E35"/>
<path d="M49.1264 36.7043C46.995 38.0104 41.8438 35.8125 39.3234 33.488C39.1492 33.3269 38.7659 31.175 38.1677 28.58C37.8019 27.0093 37.3547 25.2659 36.832 23.7066L47.5061 22.832C47.5061 22.832 47.6339 26.4224 48.5631 29.1381C48.6444 29.3625 48.7373 29.5697 48.8476 29.7538C48.8592 29.7826 48.8825 29.8171 48.8999 29.8574C49.5097 31.0081 51.1938 35.4385 49.1322 36.7043H49.1264Z" fill="#FFABA1"/>
<path d="M48.081 27.3738C44.9566 31.6891 40.2236 31.4705 38.7601 31.2864C38.5917 30.5096 38.3942 29.5832 38.1677 28.5878C37.7961 27.0113 37.3547 25.2737 36.832 23.7144L47.5061 22.8398C47.5061 22.8398 47.5816 25.0896 48.081 27.3738Z" fill="#1A2E35"/>
<path d="M39.9475 8.04706C43.1357 10.199 48.2927 19.6466 47.7294 23.1104C46.9164 28.1334 42.2646 32.2531 37.1192 30.5327C32.1307 28.8641 25.6321 16.436 26.5671 12.9493C27.9435 7.81115 35.2376 4.86523 39.9475 8.0413V8.04706Z" fill="#FFABA1"/>
<path d="M36.4937 17.2581C36.1859 17.3559 35.8839 17.4019 35.5645 17.4709C35.2102 17.5457 34.9315 17.6436 34.5772 17.5055C34.3856 17.4307 34.2694 17.1545 34.3275 16.9704C34.4553 16.5273 34.8734 16.3259 35.2974 16.2166C35.7561 16.0958 36.1452 16.1246 36.5808 16.3202C36.9989 16.5101 36.9002 17.1315 36.4937 17.2638V17.2581Z" fill="#1A2E35"/>
<path d="M30.2667 20.7047C30.5222 20.4975 30.7197 20.2674 30.9462 20.043C31.2075 19.7841 31.4398 19.6057 31.5095 19.2375C31.5501 19.0361 31.3759 18.7944 31.1843 18.7369C30.7371 18.6046 30.3422 18.8405 30.017 19.1397C29.6627 19.4619 29.4769 19.8013 29.4072 20.2674C29.3433 20.7219 29.9241 20.9751 30.2551 20.7047H30.2667Z" fill="#1A2E35"/>
<path d="M40.3826 25.1425C40.3187 25.3727 40.2838 25.6546 40.069 25.8042C39.8599 25.948 39.5521 25.9941 39.3082 26.0286C39.285 26.0286 39.2733 26.0631 39.3024 26.0746C39.6044 26.2185 40.0283 26.1782 40.2896 25.9595C40.5452 25.7524 40.5452 25.4302 40.4639 25.131C40.4523 25.0907 40.4 25.1022 40.3884 25.1368L40.3826 25.1425Z" fill="#1A2E35"/>
<path d="M38.6547 23.6528C38.614 24.3892 38.2714 24.9761 37.7778 25.3962C37.5571 25.586 37.3015 25.7414 37.0344 25.8622C36.9821 25.891 36.9299 25.914 36.8776 25.9313C36.8311 25.9543 36.7847 25.9715 36.7266 25.9888C36.6453 26.0176 36.5756 25.983 36.5233 25.9197C36.5233 25.9197 36.5001 25.8737 36.4943 25.8507L36.4653 25.7932C36.1749 25.3214 35.8032 24.5734 35.8032 24.5734C35.6755 24.7575 35.0134 25.6666 34.8798 25.4134C33.8113 23.2788 32.6266 20.9082 32.0226 18.5607C31.9994 18.4859 32.1155 18.4399 32.1445 18.5147C33.2538 20.5227 33.9913 22.7149 35.0715 24.7517C35.298 24.4813 35.6464 24.0153 35.9019 23.8829C35.9833 23.8657 36.593 25.3501 36.744 25.5515C36.744 25.5515 36.744 25.563 36.7614 25.5745C37.6268 25.2178 38.0972 24.6309 38.5734 23.647C38.5966 23.5837 38.6721 23.601 38.6663 23.67L38.6547 23.6528Z" fill="#1A2E35"/>
<path d="M32.7935 22.1484C32.7935 22.1484 32.7703 22.206 32.7877 22.229C33.2001 22.7756 33.5775 23.466 33.2001 24.0011C33.1884 24.0184 33.2117 24.0472 33.2291 24.0299C33.7866 23.5121 33.2756 22.603 32.7993 22.1484H32.7935Z" fill="#1A2E35"/>
<path d="M33.2326 22.7453C33.3081 22.9006 33.3488 23.0848 33.3313 23.2861C33.3139 23.4875 33.1804 23.6774 33.0177 23.7925C32.8493 23.9133 32.5938 23.9363 32.4138 23.8615C32.2279 23.7925 32.0828 23.6832 31.9608 23.5566C31.8853 23.476 31.8214 23.3897 31.7575 23.2977C31.6298 23.1078 31.5368 22.8949 31.5078 22.6705C31.5949 22.8143 31.6937 22.9467 31.8098 23.0618C31.9143 23.1768 32.0247 23.2746 32.1408 23.3667C32.3789 23.5508 32.6577 23.6544 32.8435 23.5163C33.0468 23.384 33.0874 23.1193 33.0003 22.8258C32.919 22.5382 32.7738 22.2505 32.6228 21.957C32.8784 22.1642 33.0991 22.4231 33.2442 22.7395L33.2326 22.7453Z" fill="#1A2E35"/>
<path d="M36.2441 19.9609C36.2441 19.9609 36.308 19.9609 36.3196 19.984C36.6565 20.5766 37.1501 21.1922 37.7947 21.0657C37.8121 21.0657 37.8296 21.0944 37.8121 21.1002C37.1094 21.3994 36.4706 20.5708 36.2441 19.9609Z" fill="#1A2E35"/>
<path d="M36.6149 20.6014C36.7311 20.7337 36.8821 20.843 37.0795 20.9063C37.2712 20.9696 37.5035 20.9236 37.6777 20.82C37.8577 20.7165 37.9797 20.4921 37.9855 20.2964C37.9971 20.1008 37.9565 19.9224 37.8868 19.7613C37.8403 19.6578 37.788 19.5657 37.73 19.4737C37.6022 19.278 37.4454 19.1112 37.2538 18.9961C37.3525 19.1342 37.4338 19.278 37.4977 19.4219C37.5615 19.56 37.608 19.6981 37.6487 19.8419C37.7242 20.1353 37.7125 20.4288 37.5035 20.5381C37.3002 20.6704 37.0389 20.6014 36.8008 20.4058C36.5685 20.2159 36.3536 19.9742 36.1445 19.7211C36.2316 20.0375 36.3884 20.3367 36.6207 20.5956L36.6149 20.6014Z" fill="#1A2E35"/>
<path d="M46.0408 14.3814C43.9153 16.3031 40.6166 14.5655 39.4377 12.0166C39.4377 12.0166 34.0833 17.4941 30.0006 12.9602C30.0006 12.9602 30.2852 15.9809 27.6312 18.1788L28.5546 20.4228C27.7996 20.7277 25.767 19.5137 26.1852 16.982C26.1852 16.982 24.3965 14.5309 25.0179 11.7231C25.6451 8.91529 28.1423 8.478 28.1423 8.478C28.1423 8.478 28.6185 6.21677 31.046 4.76683C33.4735 3.31688 35.9707 4.59422 35.9707 4.59422C35.9707 4.59422 39.3796 2.83357 41.5516 4.51942C43.7236 6.21102 43.7526 8.46074 43.7526 8.46074C43.7526 8.46074 45.1522 8.69664 46.1976 10.7737C46.8712 12.1086 46.6854 13.806 46.0466 14.3814H46.0408Z" fill="#1A2E35"/>
<path d="M29.791 12.4377C30.0639 12.8577 30.3543 13.2605 30.7085 13.6115C31.0396 13.9797 31.4229 14.2904 31.8236 14.5666C32.6366 15.0959 33.6181 15.3491 34.5705 15.188C35.5461 15.0902 36.394 14.5321 37.2129 14.0085C37.5904 13.692 37.9969 13.3986 38.3569 13.0649C38.717 12.7196 39.0654 12.3687 39.4371 12.0234C39.1293 12.4147 38.7983 12.7944 38.4789 13.1857C38.1362 13.5539 37.7471 13.8761 37.3755 14.2214C36.5624 14.8083 35.6739 15.3951 34.6169 15.5332C33.5774 15.6828 32.4914 15.4009 31.661 14.7852C30.8363 14.1696 30.1975 13.3468 29.7852 12.4377H29.791Z" fill="#1A2E35"/>
<path d="M28.9102 17.6024C29.3864 16.8372 29.7638 16.0489 29.9497 15.2146C30.0542 14.8003 30.0833 14.3688 30.0716 13.943C30.0716 13.5115 29.9555 13.0915 29.8568 12.6484C30.0891 13.0282 30.2865 13.4597 30.3446 13.9143C30.4201 14.3688 30.4027 14.8406 30.2981 15.2894C30.1936 15.7382 30.0194 16.1697 29.7813 16.561C29.5432 16.9522 29.2644 17.3147 28.9102 17.6024Z" fill="#1A2E35"/>
<path d="M43.3421 16.8295C43.3421 16.8295 43.1504 12.6638 44.9101 12.3933C46.6755 12.1229 48.29 17.1402 47.2505 18.7858C46.2109 20.4313 44.6546 19.5107 44.6546 19.5107L43.3421 16.8237V16.8295Z" fill="#FFABA1"/>
<path d="M45.338 13.8438C45.338 13.8438 45.3903 13.8553 45.3729 13.8783C44.6702 15.0635 44.8618 16.4157 45.2393 17.67C45.2509 17.0659 45.5065 16.5423 46.2905 16.5135C46.3311 16.5135 46.3369 16.571 46.3021 16.5883C45.8142 16.8184 45.5703 17.1176 45.5471 17.67C45.5297 18.0555 45.6226 18.4583 45.6923 18.838C45.7155 18.9646 45.5123 19.0394 45.4658 18.9128C45.4658 18.9013 45.46 18.8955 45.4542 18.884C44.4263 17.6125 44.0372 15.0405 45.3322 13.8438H45.338Z" fill="#1A2E35"/>
<path d="M69.0898 31.1698C69.0898 31.1698 75.8555 28.5806 78.7882 25.5484C81.721 22.5162 82.0578 19.0524 80.9253 18.3159C79.1018 17.1306 75.2921 22.8499 75.2921 22.8499C75.2921 22.8499 78.312 14.5069 74.7288 13.7877C71.7844 13.1951 71.3431 22.8959 70.321 26.8775C69.6996 29.2998 69.084 31.1756 69.084 31.1756L69.0898 31.1698Z" fill="#00953B"/>
<path d="M67.9445 14.7592C67.9445 14.7592 70.0526 10.7259 70.3255 7.65335C70.5985 4.58084 69.6577 2.60155 68.6704 2.65334C67.3115 2.72813 67.6367 7.16428 67.6367 7.16428C67.6367 7.16428 65.9467 2.01467 64.251 2.92376C62.3055 3.95944 65.4008 8.98822 66.661 11.727C67.4276 13.3956 67.9445 14.7535 67.9445 14.7535V14.7592Z" fill="#00953B"/>
<path d="M20.2311 39.8753C20.2311 39.8753 17.2461 37.0962 15.8813 34.9213C14.4585 32.6428 14.6443 31.1181 15.4283 30.8649C16.555 30.5024 18.2972 33.8626 18.2972 33.8626C18.2972 33.8626 17.7687 29.5761 19.3251 29.9443C21.108 30.3643 21.2881 34.1446 20.6667 37.1595C20.3589 38.6497 20.2311 39.8753 20.2311 39.8753Z" fill="#00953B"/>
</svg>
