<svg viewBox="0 0 96 82" fill="none" xmlns="http://www.w3.org/2000/svg">
<path d="M21.6855 22.1641C21.6977 22.1641 21.7122 22.1718 21.7221 22.1718H21.7266L21.6855 22.1641Z" fill="black"/>
<path d="M31.7418 31.6367L31.6992 31.707C31.7013 31.7028 31.7038 31.6996 31.7067 31.6974L31.7418 31.6367Z" fill="black"/>
<path d="M19.6094 30.9844C19.626 30.9979 19.626 31.0249 19.6437 31.0395C19.6707 31.0665 19.7154 31.0811 19.7404 31.1112L19.6094 30.9844Z" fill="black"/>
<path d="M31.6992 31.7031H31.6951C31.6889 31.7103 31.6889 31.7165 31.6816 31.7279L31.6992 31.7031Z" fill="black"/>
<path d="M20.0254 46.6094L20.0744 46.6669C20.0786 46.6733 20.0818 46.6733 20.0861 46.6765L20.0254 46.6094Z" fill="black"/>
<path d="M1.28533 76.4328C1.24062 76.4078 1.22294 76.36 1.18551 76.333C1.16159 76.3049 1.11272 76.3018 1.08984 76.2695L1.28533 76.4328Z" fill="black"/>
<path d="M37.6623 54.8086L37.655 54.8128C37.628 54.8356 37.5937 54.8699 37.5625 54.8918L37.6623 54.8086Z" fill="black"/>
<path d="M37.2109 36.7288C37.2255 36.7184 37.2463 36.708 37.2598 36.6986C37.2733 36.6872 37.2837 36.6716 37.3014 36.6602L37.2109 36.7288Z" fill="black"/>
<path d="M45.7851 49.2852C45.7808 49.2917 45.7732 49.2992 45.7656 49.3068C45.7634 49.3133 45.7591 49.3274 45.7559 49.335L45.7851 49.2852Z" fill="black"/>
<path d="M45.745 49.3645L45.7482 49.3602C45.7525 49.3537 45.7547 49.3385 45.759 49.332L45.7341 49.3786C45.7385 49.3743 45.7406 49.3721 45.745 49.3645Z" fill="black"/>
<path d="M38.4564 36.4854L44.4086 35.0767L48.949 34.3984L49.6298 35.0791L49.5842 37.7014L50.732 39.8637L48.5266 43.8307L45.8915 45.9277L41.655 45.4993L38.0786 45.0246L35.8374 45.0645L35.4688 42.591L35.7835 39.5189L36.5734 37.4443L38.4564 36.4854Z" fill="#00953B"/>
<path d="M51.0414 39.2633C50.4477 38.269 50.1312 37.6785 50.0658 37.4523C50.0731 37.362 50.017 37.28 49.9797 37.197C49.99 37.2354 50.0253 37.2592 50.0274 37.3028C50.0098 37.1181 50.0689 36.4175 50.2059 35.1981L50.2101 35.1638C50.2132 35.06 50.2038 34.9604 50.1789 34.8566C50.1384 34.676 50.0482 34.4975 49.9112 34.3211L49.6942 34.1498C48.7674 33.7305 46.4001 33.9329 42.586 34.7507L42.5788 34.7549C39.7828 35.3963 38.0195 36.0429 37.264 36.6998C36.3226 37.2738 35.6252 38.1632 35.182 39.3764L35.1509 39.5269L34.8416 43.3815L34.8385 43.4334C34.8479 44.2865 34.9786 44.8832 35.2267 45.2237L35.1955 45.179C35.2028 45.1894 35.2132 45.2029 35.2204 45.2164V45.2195C35.3294 45.3845 35.4706 45.5153 35.6491 45.6056C35.8452 45.7042 36.0715 45.7519 36.3299 45.7457L36.4285 45.7322C37.4809 45.5215 38.1088 45.4291 38.308 45.4561C38.2499 45.4468 38.1845 45.4157 38.1202 45.3638L38.4004 45.4883L44.9295 46.4566V46.4774C44.9669 47.7695 44.915 48.5282 44.7717 48.7586L44.7749 48.7554C44.7717 48.7554 44.7717 48.7586 44.7717 48.7627L44.7198 48.8551C44.6275 49.0927 44.4178 49.237 44.0971 49.2941L44.0608 49.3024C43.2222 49.511 41.816 49.7072 39.8503 49.8898L39.6489 49.9469C39.3874 50.0818 39.1777 50.2738 39.0262 50.5312L38.9992 50.5789C38.3194 52.0091 37.8763 52.8581 37.6687 53.1258L37.6532 53.1538C37.4093 53.5109 37.1882 53.7413 36.9889 53.8814L34.3258 54.558L34.1888 54.6131C31.753 55.9674 29.5061 56.9233 27.4418 57.4785C27.1346 57.5616 26.954 57.874 27.035 58.1832C27.119 58.4884 27.4345 58.671 27.7396 58.5859C29.8703 58.012 32.1858 57.0292 34.6735 55.654L37.3978 54.9607L37.6552 54.8134C37.9718 54.5902 38.2873 54.2602 38.6007 53.7952L38.5831 53.8264C38.8342 53.4974 39.3116 52.5934 40.0132 51.1186C40.0402 51.0709 40.0807 51.0439 40.1191 51.0169C42.0526 50.8301 43.4692 50.6308 44.3379 50.4181L44.3006 50.4253C45.025 50.2946 45.5128 49.9168 45.7701 49.3055C46.014 48.8644 46.1209 47.9169 46.0774 46.4431L46.0701 46.5469C46.0794 46.4608 46.0794 46.3892 46.0774 46.3092C46.094 46.3061 46.1116 46.3196 46.1272 46.3124C47.8323 45.6564 49.4587 43.808 50.9967 40.7671L51.0217 40.709C51.2157 40.1932 51.2375 39.7376 51.0829 39.3443L51.0414 39.2633ZM49.9112 37.0454C49.8312 36.9634 49.7358 36.923 49.633 36.8949C49.7503 36.9261 49.8447 36.9738 49.9112 37.0454ZM49.1629 36.9634C49.276 36.8804 49.4068 36.8513 49.551 36.8669C49.4203 36.8534 49.2781 36.8804 49.1629 36.9634ZM36.2884 44.5916C36.2365 44.5937 36.1991 44.5916 36.1784 44.5802L36.1576 44.5501C36.0538 44.4089 35.9999 44.0353 35.9864 43.451L36.2884 39.7262C36.6392 38.7755 37.1747 38.077 37.8929 37.6484L37.9853 37.583C38.2063 37.3827 38.6173 37.1762 39.1227 36.9707C39.0916 37.115 39.1186 37.2696 39.2089 37.4045C39.3832 37.6681 39.7413 37.7366 40.0059 37.5623C40.4699 37.2488 40.9058 37.0153 41.3147 36.8576L41.3282 36.8513C41.6146 36.7299 42.1834 36.5649 42.9638 36.3594C43.0915 36.4964 43.2492 36.5888 43.4443 36.5618C44.8018 36.3729 45.6103 36.3594 45.8947 36.514C45.8988 36.5234 45.9009 36.5307 45.9082 36.541C46.0255 37.0745 46.1251 37.4377 46.1998 37.6059C46.231 37.6712 46.286 37.692 46.3275 37.7408C46.3482 37.775 46.3171 37.8134 46.3441 37.8498C46.4551 37.994 46.753 38.2836 47.2242 38.7029C47.3518 38.8502 47.4483 38.9872 47.5054 39.1139L47.52 39.1419C47.5916 39.2789 47.6019 39.5705 47.548 40.022V40.0251C47.5096 40.3582 47.4618 40.5689 47.3996 40.6499C47.4027 40.6478 47.4058 40.6436 47.4131 40.6364L47.2719 40.8491C47.2896 40.8087 47.3062 40.7744 47.3238 40.7495C47.2387 40.8605 46.8972 41.1522 46.3036 41.6192L46.4302 41.5445C46.3078 41.5985 46.1998 41.695 46.1137 41.8289C46.0327 41.9555 45.9352 42.1724 45.8262 42.4817L45.8542 42.4163C45.8335 42.4505 45.8044 42.4952 45.7639 42.547C45.5916 42.7525 45.3592 42.9767 45.0499 43.2133C44.2456 43.8049 43.38 44.0353 42.4553 43.9004C42.1429 43.8558 41.8512 44.0716 41.8066 44.3851C41.7786 44.574 41.8647 44.7359 41.9913 44.8594L38.5696 44.3498L38.8519 44.4785C38.7481 44.3923 38.6173 44.3363 38.4564 44.3155C38.1368 44.2751 37.4051 44.3716 36.2884 44.5916ZM45.8905 36.4756V36.4715C45.8947 36.4756 45.8947 36.4829 45.8947 36.486L45.8905 36.4756ZM45.7162 45.2403C45.6197 45.2776 45.5719 45.3617 45.5128 45.4333C45.4858 45.4229 45.4754 45.3949 45.4453 45.3845L45.328 45.3544L42.9669 45.0026C43.9435 45.0026 44.8776 44.7701 45.7369 44.137L45.7504 44.1277C46.1272 43.8319 46.4302 43.5475 46.6575 43.2725V43.2684C46.7468 43.1552 46.8225 43.0442 46.8744 42.9383L46.9045 42.8729C46.9803 42.6602 47.0353 42.5367 47.0695 42.4744C47.6922 41.9804 48.0877 41.64 48.2236 41.4677H48.2205C48.234 41.4511 48.2371 41.4376 48.2527 41.4199C48.2797 41.3888 48.3066 41.3587 48.3336 41.3234C48.5101 41.0795 48.6294 40.6883 48.6886 40.1559V40.16C48.7695 39.475 48.7187 38.9561 48.5329 38.6126C48.427 38.3863 48.2797 38.159 48.0835 37.94L48.0316 37.8882C47.5843 37.4896 47.3269 37.2457 47.2584 37.1534C47.2615 37.1606 47.2543 37.17 47.2615 37.1762C47.2003 37.0672 47.1256 36.9634 47.001 36.9095C47.1214 36.9634 47.2003 37.0361 47.2449 37.1285C47.2003 37.0299 47.1214 36.7299 47.0145 36.2276L47.0104 36.2214V36.2183L46.9834 36.1332C46.9253 35.991 46.8609 35.8706 46.7841 35.7761C46.7364 35.7128 46.6814 35.6589 46.6264 35.6111L46.5859 35.5789C46.396 35.4482 46.094 35.3766 45.7338 35.3288C47.4099 35.06 48.5236 35.0061 49.056 35.17C48.919 36.3926 48.8598 37.1627 48.8826 37.4201C48.891 37.4969 48.9325 37.5332 48.9522 37.5965C48.9553 37.6308 48.9252 37.6443 48.9325 37.6816C49.0072 37.9878 49.3715 38.6987 50.0098 39.7739C50.0596 39.8912 50.0347 40.0624 49.9485 40.296C48.5464 43.038 47.1391 44.6944 45.7162 45.2403Z" fill="black"/>
<path d="M26.0078 14.0763C26.0108 14.0733 26.0176 14.0733 26.0176 14.0675C26.0235 14.0635 26.0235 14.0567 26.0275 14.0547L26.0078 14.0763Z" fill="black"/>
<path d="M47.2578 55.9447C47.2762 55.9414 47.2903 55.9447 47.3055 55.9414H47.3077L47.2578 55.9447Z" fill="black"/>
<path d="M62.1653 63.0898C62.1622 63.1346 62.1487 63.173 62.1445 63.2146V63.2167L62.1653 63.0898Z" fill="black"/>
<path d="M42.4433 63.2344C42.4263 63.2461 42.4007 63.2525 42.3826 63.2631C42.3762 63.2674 42.3688 63.277 42.3613 63.2812L42.4433 63.2344Z" fill="black"/>
<path d="M24.376 23.7115L28.6896 24.8155L30.7277 25.4496L31.7203 27.1849L32.0952 29.5188L31.2967 31.1142L29.8323 32.3835L27.8283 33.2688L25.2292 34.4012H22.3604L20.0767 34.3375L19.1471 33.6598L19.3066 32.3165V31.4916L17.8479 30.9876L17.1055 30.0006L17.9304 28.0683L19.675 24.7275L20.1782 22.8716L21.7673 22.7891L24.376 23.7115Z" fill="#00953B"/>
<path d="M14.4671 44.3125L15.9177 45.4303L17.9969 46.3541L19.5713 46.785L20.5557 49.3741L20.523 51.7118L19.7405 53.7527L18.8672 55.8087L17.5114 56.5383L15.4641 56.8371L13.3017 56.4169L11.1918 55.8087L9.53516 55.1448L10.13 52.0986L10.6905 48.5688L11.8744 45.8734L14.4671 44.3125Z" fill="#00953B"/>
<path d="M95.7217 35.0604C95.1343 30.828 94.4119 28.4742 93.5505 28.0041C93.5225 27.9864 93.4924 27.9791 93.4613 27.9657C87.9119 24.0592 84.3594 21.3867 82.814 19.9504L82.649 19.8466C77.4432 17.5965 74.6431 16.2432 74.2476 15.7896C74.3234 15.8789 74.3483 15.9951 74.313 16.1467C74.3483 15.9848 74.3099 15.8166 74.2134 15.6859C69.8223 9.83137 67.2837 6.70122 66.5925 6.29231C66.5344 6.2591 66.4794 6.23108 66.4275 6.21343C66.4077 6.20721 66.3984 6.2207 66.3766 6.21343C65.3595 5.31466 61.9305 4.25294 56.0428 3.02206L51.1659 0.696243L51.2936 0.792763C50.208 -0.221213 44.9575 0.318467 35.5028 2.42426L35.4851 2.42841C34.6133 2.65155 32.6103 2.14196 29.4832 0.901737L29.3213 0.865412C28.5461 0.79899 27.6722 0.994105 26.708 1.45906L26.6655 1.48189C25.4024 2.22499 24.4269 3.00856 23.745 3.83261C21.4638 6.59847 22.3532 9.66012 26.4185 13.0207C26.4465 13.0414 26.4797 13.03 26.5077 13.0477C26.6582 13.1919 26.8305 13.3154 26.9883 13.4524C26.6219 13.5489 26.2877 13.7254 26.02 14.0689C25.8446 14.2816 25.6557 14.6044 25.4564 15.0227C25.1585 15.4492 24.9624 15.9412 24.8794 16.4943C24.8513 16.5805 24.8244 16.6282 24.7932 16.7164L24.8171 16.6594C24.6593 16.9956 24.5535 17.7366 24.5016 18.8679C24.4808 18.954 24.4673 19.0194 24.4538 19.0495V19.0464L24.4466 19.0609C24.3501 19.2457 24.2401 19.4242 24.1103 19.5933V19.5965L22.3055 21.97C22.238 22.0603 22.2339 22.1662 22.2266 22.272C22.0616 22.243 21.8769 22.1911 21.7212 22.1703C20.7155 21.97 19.9838 22.2004 19.5262 22.8636L19.4473 23.0317C19.0145 24.5376 18.7156 25.4644 18.5475 25.8152V25.8111L16.6233 29.7591L16.5652 30.0548C16.6057 30.608 16.8122 31.0034 17.1858 31.2369L17.1931 31.2411C17.5605 31.4632 18.1043 31.6521 18.7914 31.8171V31.979C18.5994 32.7211 18.4914 33.213 18.4821 33.4185C18.4707 33.6665 18.5682 33.8233 18.7125 33.9405C18.7665 34.0329 18.8121 34.1294 18.891 34.2114C18.8733 34.2363 18.8464 34.2425 18.8318 34.2675C18.3586 35.3458 18.0763 36.0204 17.987 36.2913L17.9808 36.312L17.3446 38.4282L17.355 38.4033C17.0706 39.2211 16.8153 39.8646 16.5963 40.3316H16.5922C16.0151 41.5511 15.3405 42.5951 14.5746 43.4607C14.4822 43.5645 14.4552 43.6911 14.4521 43.8219C14.2363 43.7949 14.0214 43.799 13.8159 43.8457L13.7443 43.8665C12.3183 44.3958 11.1943 45.5987 10.3734 47.4803L10.3672 47.4917C10.2187 47.8529 10.1098 48.24 10.0371 48.6634L10.033 48.6769L9.66661 51.1574C9.62821 51.4013 9.43621 52.2668 9.09165 53.7509L9.08853 53.7686C9.01277 54.1464 8.97852 54.4214 8.98267 54.5906C8.98475 54.6238 8.9889 54.6559 8.99201 54.6829L8.9889 54.5657C8.93701 55.2153 9.19855 55.7197 9.76625 56.0809C9.63755 56.1837 9.54934 56.3206 9.54207 56.4971V56.4929C9.52235 56.7949 9.11552 58.1701 8.32572 60.5955C8.30496 60.6163 8.28732 60.6391 8.25307 60.6568L8.27071 60.6505L6.41193 61.6469L6.35796 61.6801C6.09227 61.8669 5.84111 62.2042 5.60448 62.6982L5.57646 62.7667L5.19972 63.9281L3.42189 68.505L3.39491 68.6004L2.20242 74.5899C2.12043 74.7777 2.0509 74.9022 2.00108 74.9604C1.63265 75.1285 1.37111 75.2655 1.23826 75.3651C0.948706 75.5893 0.869829 75.8467 1.0006 76.1425C1.039 76.2276 1.11787 76.2753 1.18637 76.3386C1.61293 76.7953 2.28545 76.9634 3.2548 76.7849L3.36793 76.7496C5.63977 75.8228 7.8784 75.1326 10.0911 74.6822L10.1191 74.676C10.3329 74.6199 10.8757 74.403 11.7475 74.0253C12.0402 73.8987 12.1741 73.5624 12.0474 73.2697C11.9229 72.9781 11.5825 72.8442 11.295 72.9708C10.4865 73.3185 10.0122 73.5105 9.85135 73.5582C7.60441 74.019 5.32323 74.7237 3.02025 75.6588C2.96317 75.6651 2.93203 75.6609 2.87702 75.6682C3.01091 75.5073 3.14375 75.3153 3.27556 75.006L3.30877 74.8908L3.58484 73.5198C5.05858 73.5489 6.03104 73.4524 6.55204 73.2458C6.57279 73.2396 6.59459 73.2396 6.61119 73.2355L6.61535 73.2324C7.05435 73.1327 8.05795 72.5214 9.62406 71.3974C10.0195 71.1567 10.6069 70.8474 11.3905 70.4665C11.404 70.4634 11.4247 70.4634 11.46 70.4665L11.4112 70.4572H11.4143C11.8191 70.5858 12.1626 70.6689 12.393 70.6585C12.4179 70.6585 12.4429 70.6554 12.4626 70.6512L12.391 70.6554C12.6411 70.6585 12.9639 70.5931 13.3489 70.4706C13.5969 70.4073 14.2363 70.1271 15.2834 69.6217L15.3135 69.604C17.328 68.4676 18.7706 67.6944 19.6777 67.2544C19.6092 67.3156 19.5324 67.3716 19.4961 67.4599C18.6855 69.549 16.7499 70.9273 13.6966 71.5936C13.3863 71.6611 13.1901 71.9683 13.2596 72.2775C13.325 72.5868 13.6301 72.7819 13.9425 72.7134C17.1837 72.0087 19.2791 70.5184 20.3274 68.3047C22.3854 68.7115 23.8799 68.7727 24.8379 68.505C25.0932 68.8485 25.2509 69.5013 25.2779 70.5931C24.6593 75.2593 24.4601 77.967 24.677 78.6914L24.6801 78.6945C24.6842 78.7122 24.6905 78.7298 24.6936 78.7433C24.7496 78.8948 24.8379 78.9696 24.9209 79.0599C24.9375 79.0941 24.9551 79.1346 24.9717 79.173C25.8549 81.0349 27.2706 81.5019 29.2217 80.5782L29.256 80.5606C30.7982 79.7012 31.7375 78.5409 32.0737 77.0765V77.0724C32.3726 75.7398 32.0467 73.1223 31.1054 69.2398C31.1262 68.3327 31.4583 67.4599 32.1287 66.615C32.8646 65.7256 33.5993 65.1579 34.3352 64.8829C38.3786 64.6836 41.0615 64.1419 42.3806 63.2618C43.4807 62.7262 44.752 60.774 46.1946 57.4311C46.3358 57.2423 46.7208 57.125 47.3633 57.0907L47.4079 57.0876C50.6958 56.6507 53.142 57.1291 54.7527 58.5001C55.8124 60.1866 55.6432 63.0656 54.2276 67.1641C54.1767 67.3229 54.1902 67.4941 54.2722 67.6363C54.8368 68.6274 56.4019 68.6835 58.9768 67.7961L59.0307 67.7722C60.986 66.8548 62.0125 65.326 62.1432 63.214C62.4909 61.9354 61.7478 58.7056 59.9212 53.5247C59.8081 52.7588 59.9544 52.0945 60.2886 51.5071C63.4603 51.422 65.6242 51.0577 66.8063 50.4257L69.0677 50.8387C69.267 50.873 69.4694 50.8035 69.5991 50.6519C70.5882 49.5321 71.406 48.6769 72.0515 48.0895C72.6545 47.5394 73.052 47.254 73.2513 47.2229L73.409 47.2997L81.443 48.0044C81.6101 48.02 81.7751 47.9587 81.8966 47.8414L87.4553 42.3512C90.7982 40.9979 92.6839 40.1313 93.097 39.7577C93.1831 39.6788 93.2485 39.5958 93.289 39.5075C93.3066 39.465 93.289 39.4422 93.3004 39.4038C94.5064 38.15 95.3263 36.779 95.7082 35.2835L95.7217 35.0604ZM66.69 6.97314C66.6101 7.20354 66.4596 7.28657 66.277 7.30006C66.4555 7.25232 66.6267 7.15165 66.69 6.97314ZM19.3061 33.02C19.44 33.075 19.5262 33.157 19.5708 33.267C19.5095 33.157 19.4234 33.075 19.3061 33.02ZM10.1326 54.5449C10.1295 54.4691 10.1575 54.2834 10.2156 53.999L10.2115 54.0125C10.5633 52.4972 10.7584 51.6047 10.7989 51.3286V51.3265L11.1705 48.8492C11.2296 48.515 11.3158 48.2057 11.4289 47.9276L11.4247 47.9411C12.1056 46.3853 12.996 45.3952 14.0941 44.9687C14.2798 44.9324 14.4957 44.9666 14.7572 45.086L16.5922 46.2857L16.533 46.24C16.5714 46.2722 16.616 46.3034 16.6638 46.3335C16.9149 46.4819 17.6061 46.6946 18.6917 46.9728C18.8796 47.0693 19.0384 47.1886 19.1556 47.3495L19.1598 47.3537C19.6092 47.9795 19.905 48.8108 20.0347 49.8518L20.0388 49.8652C20.152 50.6104 20.0658 51.284 19.7835 51.8849C19.7431 51.9721 19.7669 52.0655 19.7742 52.1578C19.715 52.2637 19.6611 52.4246 19.605 52.5533C19.5189 52.5553 19.4307 52.5387 19.3476 52.5823C18.7779 52.9061 17.8459 53.0369 16.5506 52.9819C15.5554 52.8646 14.7604 52.7339 14.1729 52.5896C13.7339 52.4422 13.3759 52.2596 13.1091 52.0437L13.0157 51.9793C12.775 51.8506 12.8269 51.2819 13.1745 50.2607L13.1766 50.2472C13.3416 49.721 13.5585 49.2809 13.8294 48.9301L13.8471 48.9032C13.8886 48.845 13.9197 48.8139 13.9467 48.79C14.1698 48.8243 14.4002 48.7703 14.5237 48.5627C14.6877 48.2919 14.6068 47.939 14.3348 47.774C14.0017 47.5706 13.6644 47.5799 13.3323 47.8072C13.188 47.9027 13.05 48.0521 12.9161 48.2327C12.5653 48.6935 12.2841 49.2508 12.0817 49.9036L12.0838 49.8902C11.542 51.4978 11.6655 52.5169 12.4429 52.9643C12.8134 53.2559 13.2669 53.5039 13.8273 53.6897L13.8678 53.7032H13.8709C14.5134 53.861 15.3727 54.0031 16.4479 54.1256L16.4853 54.1298C17.602 54.1837 18.4478 54.0509 19.1556 53.8267C19.0799 54.1028 18.9969 54.3425 18.9221 54.658C18.8733 54.7961 18.7706 54.9673 18.6336 55.1666C18.1801 55.7031 17.574 56.0498 16.8153 56.2075L16.8091 56.2117C16.4967 56.2843 16.1386 56.2937 15.7474 56.2459L13.6374 55.7446L13.5762 55.7332C11.9509 55.5277 11.0428 55.3939 10.8508 55.3378C10.9504 55.37 11.0335 55.4354 11.1051 55.5371C11.1528 55.6004 11.1393 55.6585 11.1642 55.7197C11.1082 55.5371 11.0023 55.3741 10.8207 55.3108C10.3423 55.1531 10.1118 54.933 10.1326 54.6518L10.1295 54.5314C10.1295 54.5387 10.1326 54.5449 10.1326 54.5449ZM10.9722 56.3248L10.9681 56.3279C11.13 56.2117 11.2047 56.0155 11.1912 55.8121C11.2223 56.0051 11.1777 56.1764 10.9722 56.3248ZM11.4112 70.4572L11.3313 70.4395L11.3251 70.4354C11.3635 70.4499 11.377 70.4416 11.4143 70.4572H11.4112ZM20.152 67.1059C20.0762 67.0893 20.0046 67.1236 19.9278 67.1371C20.1582 67.0333 20.3678 66.9378 20.5059 66.8932L20.5464 66.8755C20.5775 66.8621 20.5941 66.8548 20.6097 66.8548C21.2448 66.9202 21.7523 66.9108 22.1166 66.8185C22.1343 66.8143 22.1478 66.8247 22.1654 66.8205C22.3989 66.7801 23.1617 66.532 24.4424 66.0826H24.4466L24.4154 66.093C24.6282 66.0349 24.7994 66.0027 24.924 66.0006H24.9375C25.1928 65.9892 25.3121 66.01 25.4222 66.0307C25.4844 66.5113 25.4741 66.9793 25.5021 67.4536C25.4772 67.4329 25.4637 67.3986 25.4388 67.381C25.2603 67.2409 25.0164 67.2201 24.8171 67.327C24.1176 67.6944 22.5608 67.6218 20.152 67.1059ZM20.5225 66.8527C20.5464 66.8548 20.564 66.8527 20.5879 66.8548L20.5225 66.8527ZM25.6079 78.1663C25.4875 78.1113 25.3526 78.0936 25.2198 78.1341C25.3869 78.0843 25.5083 78.104 25.6079 78.1663ZM41.8658 62.2405L41.7911 62.2851C40.6505 63.0698 38.114 63.5575 34.1733 63.7423L33.9989 63.7765C33.0503 64.1107 32.1287 64.8113 31.2393 65.8865L31.232 65.8927C30.3872 66.9586 29.9575 68.0857 29.9513 69.2709L29.9679 69.411C30.8885 73.1836 31.2144 75.6547 30.9539 76.8223V76.8191C30.6996 77.9463 29.9472 78.8523 28.7069 79.5476C27.4594 80.1309 26.5596 79.8434 26.0096 78.681C25.9764 78.6125 25.9442 78.5409 25.9131 78.4641C25.8861 78.3998 25.8207 78.3687 25.775 78.3209C25.6961 78.0013 25.7117 77.172 25.8269 75.8467C25.94 75.9505 26.048 76.0605 26.1995 76.0947C27.146 76.5099 28.1361 76.0252 29.1677 74.5899L29.1947 74.5515C30.1319 72.9978 30.1817 70.5723 29.3639 67.3063C30.08 65.7567 30.8574 64.6182 31.7063 63.9343C32.1215 63.6406 32.5646 63.433 33.0296 63.2991C35.318 62.884 36.6641 62.5768 37.0699 62.3848C37.2754 62.2966 37.4747 62.1793 37.6604 62.0278L37.73 61.9624C38.2105 61.4206 38.6132 61.048 38.938 60.8488L38.9453 60.8467C39.1964 60.6889 39.6884 60.5198 40.4263 60.334L40.4356 60.3319C40.8964 60.2074 41.2369 60.1804 41.4569 60.2551L41.5046 60.2593C41.6219 60.334 41.8315 60.5686 42.1543 60.9733L42.3017 61.1041C42.4325 61.1861 42.5632 61.2442 42.694 61.2764C42.7532 61.2899 42.7967 61.2577 42.8517 61.2618C42.4978 61.7361 42.1616 62.1004 41.8658 62.2405ZM47.302 55.9439C46.2766 55.9979 45.5875 56.2771 45.2367 56.7856L45.1807 56.8852C44.9233 57.483 44.6867 57.9781 44.449 58.4794C44.4251 58.5064 44.3836 58.5064 44.3639 58.5406C43.927 59.2764 43.4495 59.785 42.9317 60.1171C42.5809 59.6885 42.2851 59.3854 42.0785 59.2588C41.8897 59.1457 41.7049 59.1114 41.5191 59.1488L41.8243 59.1664C41.3822 59.018 40.8176 59.0357 40.1347 59.2204H40.144C39.295 59.4352 38.6941 59.6469 38.3402 59.8711C37.9355 60.1171 37.4612 60.5468 36.9329 61.1383C36.8291 61.2214 36.7181 61.2857 36.6164 61.3345L36.5852 61.348C36.2863 61.4922 35.0222 61.7662 32.7857 62.1751L32.7338 62.1866C32.1329 62.3547 31.5662 62.6266 31.0286 62.9971L30.9881 63.0355C29.9679 63.8596 29.0505 65.1724 28.2368 66.9762L28.2057 67.3561C29.0027 70.4322 29.009 72.6231 28.2192 73.9402C27.5394 74.8773 27.0018 75.2458 26.6105 75.0424L26.5731 75.0289C26.4008 74.7507 26.3988 73.8852 26.5773 72.4114C26.597 72.2433 26.5295 72.0918 26.4216 71.9703C26.7693 69.9714 26.8305 67.9072 26.5565 65.7661V65.7049C26.5565 65.6934 26.5493 65.6934 26.5493 65.6841C26.5295 65.3644 26.3645 65.1309 26.0334 64.9898C25.7864 64.8808 25.4045 64.8351 24.8991 64.8517C24.6801 64.8559 24.4196 64.9005 24.1134 64.9825L24.0813 64.9939L24.0719 64.996C22.8421 65.4298 22.1415 65.6602 21.9692 65.6914H21.9651C22.0512 65.6737 22.1415 65.6872 22.238 65.7277L21.8592 65.7049C21.6153 65.7702 21.2106 65.7734 20.6533 65.7121L20.5879 65.708H20.564C20.5329 65.708 20.5017 65.7121 20.4716 65.7142C20.3481 65.7277 20.2277 65.7661 20.097 65.8211C19.3476 66.0868 17.5812 67.0063 14.7822 68.587C13.8024 69.0612 13.2285 69.3186 13.0593 69.3601C13.0621 69.3601 13.0645 69.3591 13.0666 69.357L13.0054 69.3736C12.7303 69.4629 12.528 69.5086 12.3972 69.5086L12.3277 69.5106C12.228 69.5179 12.0225 69.4629 11.706 69.3529L11.6966 69.3498L11.5731 69.3228C11.4143 69.3051 11.2659 69.3166 11.1331 69.3456C11.0677 69.3601 11.0065 69.3799 10.9473 69.4048L10.9203 69.4183C10.0776 69.8272 9.44555 70.1634 9.01588 70.4208L8.97852 70.4457C7.52139 71.494 6.64959 72.0471 6.36004 72.1125H6.37768L6.16803 72.1738C5.88366 72.3253 5.0866 72.3907 3.81109 72.373L4.51475 68.8578L6.27493 64.3204L6.28531 64.2934L6.65167 63.1798C6.79386 62.8871 6.90906 62.7013 7.00661 62.6328L8.8135 61.6604L8.83115 61.651C9.03664 61.5296 9.20166 61.3791 9.32205 61.1902L9.38432 61.0595C10.225 58.469 10.6629 56.9714 10.6858 56.5645V56.5687C10.6899 56.5583 10.6899 56.5479 10.6899 56.5417C10.6899 56.5147 10.665 56.4929 10.6629 56.4691C11.022 56.5479 11.9125 56.6797 13.3977 56.8717L15.5408 57.3761L15.6062 57.3865C16.1282 57.4478 16.6129 57.4311 17.0571 57.3326L17.0499 57.3346C18.0763 57.1219 18.9003 56.6413 19.523 55.892L19.5459 55.864C19.7669 55.562 19.9216 55.2838 20.0067 55.0285L20.0202 54.9808C20.289 53.8859 20.5536 53.0981 20.8152 52.6249C20.8733 52.5149 20.8671 52.3976 20.8536 52.2803C21.2033 51.4916 21.3196 50.6312 21.1722 49.694L21.1763 49.7075C21.0186 48.4673 20.6533 47.4574 20.0835 46.6739L20.0721 46.6604C19.8417 46.3469 19.5438 46.1031 19.1754 45.9245L19.0695 45.8861C18.0213 45.6215 17.4162 45.443 17.2512 45.3433L17.2211 45.3236L15.4651 44.1789C16.2891 43.2386 17.0115 42.125 17.63 40.8225C17.8698 40.3181 18.1417 39.6362 18.4375 38.7821L18.4478 38.7572L19.0768 36.6545C19.1556 36.4179 19.4172 35.792 19.8489 34.8102C21.6018 35.216 23.7107 35.1776 26.1881 34.6784L26.24 34.6649C29.1543 33.7817 30.9746 32.7927 31.6949 31.6998C32.3 30.9173 32.63 30.1337 32.6777 29.3574L32.6757 29.3709C32.7919 27.9729 32.6373 26.9558 32.219 26.3134L32.2211 26.3176C31.3379 24.9351 29.7614 24.1485 27.4895 23.9565C27.1751 23.9326 26.9001 24.1651 26.8731 24.4816C26.845 24.7971 27.0786 25.0773 27.3941 25.1043C28.3229 25.179 29.0982 25.371 29.7303 25.6647C29.7552 25.8453 29.834 26.0103 30.0053 26.1027C30.2253 26.2179 30.3934 26.7327 30.5252 27.6429C30.572 28.2095 30.3903 28.7596 29.9742 29.2962L29.9679 29.3055C29.559 29.841 29.0909 30.2749 28.5554 30.6039L25.5633 32.0444L25.5737 32.0402C25.281 32.171 25.0548 32.2603 24.8721 32.309C24.4269 32.4087 24.0813 32.4118 23.8529 32.3049L23.6153 32.8311L23.5779 32.2571C23.663 32.2509 23.7315 32.2603 23.7875 32.2883C23.6319 32.2125 23.196 31.8513 22.4819 31.212L22.5318 31.2681C22.4819 31.2058 22.4124 31.155 22.3263 31.1062C22.1654 31.0128 21.7523 30.8623 21.1068 30.6495C20.9968 30.6018 20.921 30.5592 20.8878 30.525H20.8899L20.8733 30.5084C20.4851 30.1545 20.399 29.4498 20.6117 28.4026C20.673 28.0902 20.4747 27.7871 20.1655 27.7249C19.8531 27.6595 19.55 27.8629 19.4846 28.1722C19.1868 29.6418 19.3881 30.6973 20.0897 31.347C20.2277 31.4808 20.4135 31.5981 20.6595 31.7071L20.7093 31.7247C21.2957 31.9209 21.6351 32.0444 21.7523 32.1056C22.5224 32.7864 23.031 33.1985 23.2749 33.3189C23.3133 33.3355 23.3475 33.3282 23.388 33.3438L23.3807 33.3531C23.8446 33.5628 24.4289 33.5877 25.1336 33.432L25.1544 33.4247C25.3952 33.3593 25.6941 33.2462 26.0511 33.0843L26.0615 33.0781L29.0909 31.6251L29.1428 31.5981C29.8071 31.1892 30.3872 30.6558 30.8843 29.9988C31.1874 29.6127 31.4012 29.21 31.5309 28.8011C31.5237 28.9661 31.5444 29.0865 31.5309 29.2744V29.2889C31.4967 29.8348 31.2455 30.4119 30.7712 31.0242L30.7131 31.1197L30.7484 31.0605C30.1838 31.9209 28.5762 32.7522 25.938 33.5565C23.6319 34.0163 21.6849 34.0578 20.097 33.6873C19.8489 33.57 19.6912 33.459 19.6538 33.3458C19.6808 33.157 19.7607 32.8041 19.9185 32.199L19.9351 32.0859C19.9527 31.8244 19.9413 31.6137 19.907 31.4601C19.8624 31.2743 19.7669 31.1435 19.6434 31.0408C19.5396 30.9339 19.4369 30.8322 19.2926 30.773C19.275 30.7668 19.2615 30.7595 19.2522 30.7554L19.1826 30.7346C18.5433 30.5945 18.0825 30.4368 17.7981 30.2645C17.7712 30.2468 17.7597 30.1503 17.7462 30.0787L19.5822 26.3176V26.3134C19.77 25.918 20.0835 24.9735 20.509 23.4967C20.6885 23.2725 21.0103 23.2009 21.5022 23.2974L21.5406 23.3036C21.9558 23.3587 22.4228 23.451 22.9407 23.5849C24.5151 24.2304 25.5311 24.5511 25.9826 24.5242C25.9826 24.5242 25.9784 24.5242 25.9857 24.5242H25.9919C26.3085 24.5024 26.5493 24.2304 26.5295 23.9118C26.5077 23.5953 26.2358 23.3545 25.9245 23.3763H25.9203C25.6349 23.3929 24.7766 23.1033 23.3402 22.5097L25.0236 20.2908L25.0278 20.2866V20.2908C25.1949 20.0676 25.3433 19.83 25.4699 19.5799L25.4637 19.5933C25.4741 19.5757 25.4813 19.5581 25.4907 19.5415C25.5498 19.418 25.5965 19.2592 25.6349 19.0609L25.6422 18.9769C25.6661 18.4455 25.6961 18.0366 25.7387 17.7273C25.8684 17.6173 25.9618 17.4699 25.9546 17.2873C25.9442 16.9167 26.0708 16.6303 26.1704 16.3293C26.2472 16.129 26.3292 15.8893 26.4008 15.7274C26.6354 15.3807 26.9343 15.0715 27.3671 14.8442C27.7584 14.649 28.1776 14.6065 28.6281 14.7238L28.6685 14.7352C28.7028 14.7414 28.7682 14.7829 28.8128 14.7964C28.9913 14.9064 29.1812 14.9998 29.366 15.0984C29.4999 15.1887 29.6213 15.2593 29.7863 15.3807C29.834 15.415 29.8953 15.4015 29.9513 15.4222C30.1838 15.5354 30.3903 15.69 30.6311 15.7928L30.792 15.8343C32.4722 16.0294 34.9838 16.6936 38.3267 17.8207L38.4679 17.8477C44.614 18.3147 47.9642 18.7195 48.5142 19.0609H48.5173C48.5039 19.0495 48.4873 19.036 48.4696 19.0194C48.5796 19.1357 48.7311 19.201 48.892 19.201L52.5546 19.1803L60.7722 21.5964L62.9341 23.3036L63.0129 23.3545L70.4367 27.4332L76.2164 32.1305L76.3991 32.2302L79.3808 33.1985L79.4078 33.2016C79.6631 33.4434 80.0471 34.3598 80.5806 35.982L80.5598 35.8917C80.591 36.091 80.6978 36.2643 80.8826 36.4044C81.1441 36.6005 81.7907 36.7884 82.6314 36.9783C81.7969 38.3213 81.0953 39.1215 80.5557 39.3041L80.429 39.3622C80.4467 39.3519 80.4633 39.3446 80.4737 39.3425V39.3384C80.0409 39.5003 77.8863 39.5138 74.0048 39.383L73.6841 39.4691L68.745 42.5163L68.6339 42.6065C68.6505 42.5889 68.6651 42.5785 68.6754 42.5723C68.3184 42.7705 66.8883 42.7985 64.3881 42.647L64.0653 42.7217C60.381 44.8535 57.7905 45.9495 56.2887 46.0107C55.9732 46.0211 55.7262 46.2878 55.7397 46.6043C55.7532 46.925 56.022 47.1689 56.3386 47.1575C58.0001 47.0921 60.7245 45.9629 64.4898 43.8011C67.1052 43.9485 68.6993 43.8779 69.239 43.5707C69.3251 43.5261 69.3978 43.469 69.459 43.4057L69.348 43.496L74.1387 40.5371C78.0513 40.6637 80.3118 40.6263 80.8764 40.4177C80.9417 40.3928 80.9999 40.3617 81.0507 40.3274L80.9231 40.3907C81.827 40.0835 82.8659 38.9118 84.0397 36.8745C84.1331 36.7137 84.1435 36.5175 84.0646 36.3452C83.9857 36.1781 83.828 36.0567 83.6412 36.0225C82.5068 35.8232 81.854 35.6519 81.6319 35.5077C81.0362 33.7143 80.5328 32.6277 80.1239 32.2883C79.9247 32.1201 79.7077 32.0548 79.4805 32.0859L79.7347 32.1056L76.863 31.1716L71.132 26.5158L71.0459 26.4577L69.5337 25.6263C69.5171 25.6056 69.5244 25.5807 69.5068 25.5651C69.1944 25.2579 68.9536 24.8604 68.7886 24.3654L68.7585 24.2896L68.7886 24.3591C68.4793 23.4687 68.3111 22.6851 68.2842 22.0084V21.9877C68.2395 21.3525 68.2707 20.8429 68.3765 20.4693L68.3796 20.4589C68.582 19.6951 68.8373 19.0132 69.1425 18.4081C69.2867 18.1258 69.1736 17.7782 68.8913 17.6349C68.6069 17.4907 68.2634 17.6038 68.1191 17.8882C67.7756 18.5617 67.4964 19.3183 67.2733 20.1559C67.1301 20.6571 67.0844 21.2965 67.1363 22.0696V22.053C67.1664 22.8055 67.3491 23.6607 67.6656 24.603L63.6211 22.3789L62.522 21.5102C62.5044 21.448 62.5179 21.3795 62.4774 21.3214C62.0758 20.7682 61.8319 20.1808 61.7416 19.5549L61.7322 19.4968C61.5973 18.9748 61.5631 18.3012 61.6253 17.5042C61.7281 16.6728 61.8827 15.9993 62.0955 15.4835L62.1131 15.4399C62.3124 14.8037 62.7462 13.8966 63.4146 12.7145C63.5703 12.4405 63.4737 12.0887 63.1956 11.9309C62.9206 11.7763 62.5698 11.8728 62.412 12.151C61.7177 13.385 61.2579 14.3533 61.0296 15.058C60.7837 15.6765 60.5979 16.4456 60.4848 17.3796L60.4806 17.4118C60.409 18.322 60.4536 19.0941 60.6114 19.7376C60.6425 19.9711 60.7286 20.1828 60.794 20.407L55.8082 18.9405C55.7709 18.8752 55.7605 18.7963 55.6992 18.7444C54.8596 18.0739 54.3895 17.6308 54.2857 17.418L54.2317 17.3288C53.6848 16.5826 53.28 15.8374 53.0226 15.0881C52.7995 14.319 52.6916 13.6143 52.7092 12.9854V12.9625C52.6957 12.1748 52.7922 11.5075 52.9977 10.9688C53.1109 10.6741 52.9593 10.3441 52.6646 10.2299C52.3698 10.1168 52.0356 10.2652 51.9225 10.5599C51.6651 11.2345 51.5479 12.0378 51.5614 12.9688C51.5416 13.7171 51.661 14.5349 51.9225 15.4243L51.9319 15.4492C52.2276 16.3148 52.6843 17.1679 53.307 18.0086L53.251 17.9193C53.2966 18.0127 53.4409 18.157 53.5374 18.2742L52.7953 18.0573L52.6303 18.0324L49.0498 18.0532C48.8059 17.9224 48.3119 17.7958 47.5895 17.6619C47.1297 17.1357 46.7623 16.5898 46.5112 16.0273C46.2497 15.4015 46.0639 14.7414 45.9539 14.0554C45.8791 13.3569 45.8854 12.8038 45.9611 12.4042C46.0961 11.8354 46.2631 11.4577 46.4666 11.2709C46.7032 11.0581 46.7239 10.6969 46.5112 10.4603C46.3015 10.2226 45.9373 10.2029 45.7006 10.4167C45.3125 10.7623 45.0229 11.3435 44.8382 12.1603L44.834 12.1748C44.7313 12.6979 44.7251 13.3704 44.8174 14.2017L44.8205 14.2266C44.944 15.0061 45.1495 15.7554 45.4453 16.4725L45.4526 16.4871C45.601 16.8171 45.8719 17.1119 46.0753 17.4274C44.9098 17.2696 43.406 17.116 41.598 16.9541C41.5742 16.9302 41.5762 16.8918 41.5472 16.8721C40.9483 16.4424 40.5436 16.0885 40.3267 15.8125C39.8192 15.0943 39.5389 14.6241 39.5099 14.4145L39.4912 14.3294C39.3127 13.7347 39.2442 13.1473 39.293 12.5557C39.3646 11.6901 39.4985 11.0757 39.6884 10.7218C39.8389 10.4437 39.7361 10.0939 39.458 9.94449C39.1757 9.794 38.828 9.89675 38.6765 10.179C38.4129 10.6741 38.2344 11.4328 38.1451 12.4633V12.4675C38.0891 13.195 38.169 13.9267 38.389 14.6584L38.3714 14.5733C38.4264 14.9749 38.773 15.6184 39.4102 16.5037L39.4237 16.5244C39.4891 16.6075 39.5981 16.7071 39.6884 16.7953C39.3334 16.7652 39.0013 16.7382 38.6287 16.7092C37.7881 16.4248 36.9941 16.1716 36.2552 15.9443C36.2303 15.8758 36.2303 15.7928 36.1732 15.7336C35.4197 14.9521 34.9423 14.1364 34.7368 13.2947V13.2988C34.4442 12.0793 34.4504 11.0311 34.7503 10.1438C34.8531 9.84589 34.6922 9.52001 34.3933 9.41623C34.0913 9.31659 33.7644 9.47435 33.6647 9.7774C33.2942 10.8692 33.2766 12.1312 33.6191 13.5676V13.5697C33.7779 14.2204 34.1079 14.841 34.5158 15.4492C33.3316 15.1327 32.328 14.9137 31.4687 14.7829C31.4552 14.7757 31.4552 14.7622 31.4417 14.758C31.4583 14.7622 31.4728 14.7694 31.4832 14.7757C31.315 14.6657 31.0286 14.2225 30.627 13.4503L30.6062 13.4161C30.4142 13.1027 30.2149 12.5329 30.0126 11.7088V11.7047C29.9607 11.5054 29.888 11.0789 29.7956 10.4229V10.4302C29.7749 10.2538 29.7687 10.0514 29.7822 9.81787V9.79089C29.7863 9.36849 29.9057 8.96269 30.1495 8.5735C30.3177 8.30677 30.2388 7.95286 29.971 7.78369C29.7002 7.61556 29.3463 7.69548 29.1771 7.96636C28.8201 8.53613 28.6384 9.1412 28.6343 9.78051C28.6166 10.0721 28.6239 10.3399 28.6592 10.5776V10.5838C28.7588 11.2823 28.8377 11.7493 28.8989 11.9859V11.9818C29.0909 12.7768 29.2985 13.3434 29.5133 13.7617C29.366 13.7212 29.2497 13.6942 29.1159 13.66C28.3011 13.1338 27.5414 12.5495 26.8689 11.8552C26.8544 11.8417 26.8305 11.8448 26.817 11.8354C23.6454 9.08619 22.9002 6.66075 24.6324 4.5643C25.2239 3.85337 26.0885 3.16217 27.2187 2.48964C27.9711 2.13262 28.6208 1.97383 29.174 2.01223C32.4629 3.30643 34.6714 3.82224 35.7716 3.54098C44.8755 1.51303 49.7856 0.871639 50.5069 1.61266L50.4861 1.59294L50.6719 1.73305L55.609 4.08792L55.7397 4.13151C61.9377 5.42363 65.2422 6.40336 65.6512 7.07588H65.6553L65.6595 7.08315C65.7518 7.23467 65.9262 7.2793 66.0985 7.30006C66.0777 7.29279 66.0684 7.30629 66.0466 7.30006C66.03 7.29279 66.0165 7.28657 66.0051 7.2793C66.5655 7.61141 68.9951 10.643 73.2938 16.3771L73.1901 15.9142C73.1454 16.1363 73.2077 16.3459 73.3821 16.5452C73.8875 17.1253 76.8038 18.568 82.1197 20.872C83.4056 22.0458 85.9504 23.998 89.6887 26.6881C89.5891 26.9631 89.7022 27.2755 89.971 27.399C91.4479 28.0829 92.2138 29.7321 92.2729 32.3526V32.3879C92.4265 34.3152 91.7291 36.064 90.1796 37.6373L90.1589 37.6623C89.8537 38.0079 88.9435 38.5548 87.4304 39.3041L87.2321 39.4691C86.7641 40.0742 84.3386 41.7638 79.961 44.5401L80.0035 44.5131C79.6693 44.6885 79.2542 44.7974 78.7623 44.8462L78.8183 44.8421L78.6149 44.8805C78.646 44.867 78.6699 44.8628 78.6896 44.8597C78.5246 44.8763 78.0036 44.8223 77.1173 44.6916L77.1038 44.6885L76.9419 44.6916L74.8434 45.0247C73.1112 44.9147 71.9592 44.9967 71.3832 45.2645C70.9566 45.4056 70.5062 45.6495 70.0143 46.0148L69.9707 46.048C67.7061 48.103 66.3911 49.1989 66.0227 49.3463C65.8743 49.4044 65.7684 49.5176 65.7093 49.6556C65.1198 49.8694 64.3186 50.0303 63.3326 50.1507C63.3222 50.1091 63.343 50.0718 63.3264 50.0344C63.1842 49.748 62.8407 49.6328 62.5563 49.7729C62.5594 49.7687 62.5636 49.7687 62.5636 49.7656C62.2989 49.8652 61.3389 49.8995 59.6877 49.8725H59.6389C59.2362 49.8995 58.9425 49.9587 58.7391 50.0479C58.0458 50.3011 57.5539 51.0515 57.2685 52.3021L57.2622 52.3498C57.0526 53.8205 56.9727 54.7234 57.0246 55.0576C57.0682 55.3492 57.2166 55.5371 57.4605 55.616L57.0931 55.2496C57.2197 55.6409 57.42 55.9844 57.6732 56.2729C57.7012 56.3144 57.7251 56.3559 57.7666 56.3974C57.915 56.5417 58.2586 56.768 58.7775 57.07C58.8045 57.0949 58.8346 57.1354 58.8636 57.1872C58.9 57.2962 58.9311 57.3959 58.9446 57.4903C59.0141 58.3351 59.0754 58.8706 59.1345 59.0741V59.0761C59.1345 59.0803 59.1376 59.0875 59.1376 59.0896L59.1345 59.0834C59.4843 60.307 59.67 61.0044 59.6877 61.1788C59.6835 61.1726 59.6835 61.1591 59.6877 61.1446L59.7012 61.2899C59.7738 61.6012 59.7219 62.1347 59.5455 62.8871L59.5393 62.9151C59.4511 63.3988 59.3089 63.8149 59.1138 64.1626C58.4392 65.1579 57.7666 65.5533 57.09 65.3437C56.8627 65.2337 56.7049 65.0552 56.6364 64.7947L56.6302 64.777C56.4372 64.1419 56.3956 63.4673 56.5098 62.7594C56.5191 62.6878 56.4745 62.6287 56.461 62.5633C56.6593 60.5758 56.4403 58.9537 55.6837 57.7985L55.584 57.6823C53.719 56.0467 50.9563 55.4696 47.302 55.9439ZM21.7731 32.1129H21.77C21.77 32.1129 21.7669 32.1129 21.7669 32.1087C21.7669 32.1129 21.7731 32.1129 21.7731 32.1129ZM81.58 35.49V35.4869C81.58 35.4869 81.58 35.49 81.5831 35.49H81.58ZM61.6191 17.5488V17.5446L61.6212 17.5208V17.5177L61.6191 17.5488ZM76.9616 45.8291L76.9481 45.8249C76.9595 45.8291 76.9616 45.8291 76.973 45.8291H76.9616ZM58.8117 53.8267C59.1511 54.7846 59.4189 55.6066 59.6804 56.4203C59.6088 56.3279 59.5528 56.2148 59.4646 56.1463L59.3992 56.1017C58.9311 55.837 58.6561 55.6616 58.5699 55.5755C58.5876 55.5931 58.6083 55.6201 58.626 55.6544L58.5502 55.5485C58.3893 55.3658 58.2679 55.1458 58.1818 54.8884C58.1787 54.878 58.1652 54.878 58.161 54.8687C58.132 54.6383 58.2067 53.861 58.3956 52.5419C58.5876 51.7105 58.8315 51.2362 59.1345 51.1304L59.2134 51.092C59.2092 51.092 59.2092 51.0961 59.2092 51.0961C59.2134 51.092 59.2341 51.092 59.2362 51.092C58.8315 51.8756 58.6353 52.7339 58.7837 53.7208L58.8117 53.8267ZM58.873 57.2039V57.208L58.8699 57.2007C58.8699 57.2007 58.873 57.2007 58.873 57.2039ZM61.0338 62.9151L61.0141 63.0417C60.9414 64.7521 60.1267 65.9788 58.5637 66.7251C56.8284 67.3156 55.8051 67.4464 55.4201 67.1682C55.5913 66.6534 55.7055 66.1885 55.8394 65.708C56.0386 66.0027 56.2887 66.258 56.6395 66.4116L56.6883 66.4303C57.942 66.8527 59.0785 66.2985 60.0966 64.7656L60.1194 64.7251C60.3706 64.2685 60.5532 63.7402 60.6664 63.1341C60.8791 62.2177 60.9352 61.513 60.8179 61.0283L60.8355 61.1726C60.8355 61.1383 60.8355 61.0999 60.8283 61.0636C60.8034 60.8218 60.6072 60.0559 60.2409 58.7669L60.2367 58.7575V58.7606C60.2097 58.6651 60.1713 58.3216 60.1329 57.8681C60.9103 60.4606 61.233 62.1907 61.0338 62.9151ZM71.2763 47.2405C70.6536 47.8103 69.87 48.6323 68.9598 49.6483L67.8234 49.4428C68.5415 48.8585 69.4995 48.0272 70.7169 46.9271C71.105 46.6396 71.4506 46.4393 71.7537 46.3469L71.844 46.3096C72.0453 46.2068 72.4335 46.1477 72.9846 46.13C72.558 46.2307 72.0017 46.5815 71.2763 47.2405ZM86.7277 41.4545L81.278 46.8389L73.6187 46.1653C73.599 46.1549 73.5813 46.13 73.5575 46.1238C73.9352 46.13 74.3441 46.1456 74.8319 46.1747L74.9586 46.1684L77.0446 45.8353C77.9579 45.9723 78.563 46.0283 78.8142 46.0003C78.8318 46.0003 78.8453 45.9941 78.8619 45.9899H78.8723C78.8899 45.9868 78.8972 45.9806 78.9138 45.9806C78.9491 45.9723 78.9895 45.965 79.0196 45.9557L78.9626 45.965C79.5562 45.8976 80.0897 45.7637 80.5328 45.5333L80.5775 45.5084C84.8575 42.7985 87.2944 41.084 87.9949 40.3067C89.6098 39.5034 90.6197 38.8745 91.0213 38.4209L90.9974 38.4417C92.795 36.6213 93.5983 34.5726 93.4156 32.2987C93.3814 30.9246 93.1416 29.7975 92.7431 28.8624C92.7763 28.8904 92.8054 28.908 92.8396 28.9308L93.0108 29.0139C93.0046 29.0139 93.0005 29.0097 92.9932 29.0077L92.9974 29.0097C93.5132 29.2962 94.0342 31.3293 94.5604 35.0811C94.1992 36.4148 93.4675 37.655 92.3383 38.7893C92.2999 38.8257 92.3176 38.8848 92.2927 38.9295C91.9429 39.2252 90.1589 40.0223 86.9125 41.331L86.7277 41.4545ZM92.3248 38.9087C92.3248 38.9087 92.3207 38.9118 92.3176 38.9118C92.3207 38.9118 92.3207 38.9087 92.3207 38.9087H92.3248ZM92.2792 38.9699C92.2595 39.0125 92.248 39.053 92.2387 39.0986C92.248 39.0675 92.2345 39.0488 92.248 39.0198C92.2595 38.998 92.2688 38.9876 92.2792 38.9699ZM92.2096 39.3384C92.2595 39.4961 92.3477 39.6435 92.4992 39.713C92.3062 39.6227 92.2304 39.492 92.2096 39.3384Z" fill="black"/>
<path d="M35.7726 3.53906C35.7657 3.53906 35.7598 3.53906 35.7559 3.54201L35.7726 3.53906Z" fill="black"/>
<path d="M34.1602 63.7427L34.1757 63.7383H34.1901L34.1602 63.7427Z" fill="black"/>
<path d="M62.056 27.9715L60.4591 27.0078H57.8159L55.5449 28.3535L55.6662 29.9814L56.1915 31.9087L59.1375 34.6344L62.056 34.7594L64.2862 33.9092L65.3049 32.2082V31.0827L64.4514 29.6785L64.0384 29.4032L62.056 27.9715Z" fill="#00953B"/>
<path d="M54.9325 28.0025L54.8816 28.0575C54.7955 28.1748 54.727 28.29 54.6824 28.4114C54.6035 28.6345 54.5993 28.8473 54.6647 29.0642C54.7031 29.2043 54.7498 29.3423 54.8225 29.4596L54.9128 29.5748L54.8609 29.5167C55.0529 29.771 55.166 29.9318 55.2013 30.0149C55.358 31.0807 55.5137 31.7948 55.6611 32.1726C55.8946 32.8679 56.345 33.4439 57.0113 33.9089C57.9215 34.5918 59.0756 35.0277 60.4601 35.2166H60.4673C62.0656 35.4158 63.1813 35.2622 63.8071 34.7537L63.7417 34.8014C65.0577 34.0106 65.7489 33.2042 65.806 32.3801C65.9409 30.8742 65.5185 29.7533 64.5388 29.0331C64.2856 28.8431 63.9244 28.8992 63.7345 29.1524C63.5466 29.4077 63.6016 29.7689 63.8549 29.9568C64.4911 30.4238 64.7619 31.2011 64.6633 32.2867V32.2971C64.6312 32.7237 64.1278 33.227 63.1512 33.8144L63.0858 33.8601C62.7111 34.1663 61.8871 34.2389 60.6085 34.0801H60.6157C59.4233 33.9182 58.4477 33.555 57.6952 32.9873L57.6745 32.9738C57.2106 32.651 56.9023 32.2628 56.7466 31.802L56.7332 31.7636C56.6678 31.6059 56.5993 31.3143 56.5204 30.9323H56.5339C56.6605 30.9303 56.8297 30.8877 57.004 30.8368L57.0559 30.8327C57.0808 30.8265 57.1037 30.8192 57.1286 30.813C57.2458 30.7746 57.5437 30.6542 58.018 30.4487C58.0346 30.4425 58.0523 30.4352 58.0657 30.4352C58.3615 30.4694 58.6231 30.4923 58.8182 30.4861C59.0258 30.4829 59.2696 30.4518 59.5364 30.3926C59.801 30.3449 60.0864 30.2048 60.403 29.9682C60.6541 29.7751 60.7019 29.414 60.512 29.1638C60.32 28.9085 59.9588 28.8608 59.7055 29.0528C59.5405 29.1804 59.4118 29.25 59.3309 29.2655L59.3132 29.2697C59.1067 29.3154 58.9323 29.3351 58.7954 29.3382H58.7777C58.6303 29.3444 58.4165 29.3289 58.1384 29.2905L58.0792 29.2873C58.0076 29.2832 57.935 29.2873 57.8665 29.3008H57.853C57.7637 29.3174 57.6776 29.3444 57.5894 29.3807L57.5748 29.387C57.1244 29.5821 56.8598 29.6921 56.785 29.717C56.7913 29.7129 56.7985 29.7129 56.812 29.7097L56.9324 29.6963L56.7581 29.7243C56.6647 29.7533 56.62 29.7606 56.5712 29.7689L56.5681 29.7606C56.4851 29.6267 56.3689 29.3216 56.2184 28.8369C56.1862 28.7435 56.1073 28.6895 56.0399 28.6262C56.7082 28.0772 57.6952 27.6662 59.1005 27.4286C60.2992 27.4493 61.0786 27.6662 61.4055 28.0886C61.5986 28.3388 61.9597 28.3823 62.2099 28.1883C62.461 27.9963 62.5088 27.6351 62.3126 27.3839C61.7522 26.6616 60.6697 26.2911 59.0621 26.2734H59.0548L58.9624 26.2797C57.1078 26.5869 55.7638 27.1608 54.9283 28.0025H54.9325ZM58.0491 30.4352H58.0346L57.9796 30.4279C58.0076 30.431 58.0211 30.4279 58.0491 30.4352Z" fill="black"/>
<path d="M57.0245 33.919L57.0147 33.9102L57.0078 33.9062L57.0245 33.919Z" fill="black"/>
<path d="M54.6699 29.0796C54.6699 29.0752 54.6742 29.0687 54.6699 29.0655C54.6667 29.0536 54.6623 29.0471 54.6602 29.0352L54.6699 29.0796Z" fill="black"/>
<path d="M55.6742 32.2063C55.6699 32.1998 55.6667 32.1814 55.6634 32.1738C55.6634 32.1662 55.6602 32.1641 55.6602 32.1641L55.6742 32.2063Z" fill="black"/>
<path d="M40.4005 27.8702L40.3907 27.8633H40.3809L40.4005 27.8702Z" fill="black"/>
<path d="M40.1275 22.9819L42.6535 22.1713L45.2688 22.1641L47.3036 22.4989L48.9497 23.9806L48.9294 25.8816L47.2559 27.2084L43.918 27.8743L41.1849 27.4633L39.1222 26.8198L38.457 25.0192L40.1275 22.9819Z" fill="#00953B"/>
<path d="M40.3905 27.8668C41.9836 28.3411 43.5923 28.4646 45.2113 28.2488L45.256 28.2425C46.8916 27.8876 48.0997 27.4206 48.8832 26.8352L48.9154 26.8082C49.6668 26.1835 49.9792 25.376 49.8412 24.3901L49.8349 24.3527C49.6741 23.565 48.8729 22.7814 47.4375 22.0092L47.396 21.9885C46.2928 21.4965 45.1563 21.2879 43.9919 21.3564C43.8808 21.3627 43.8019 21.4322 43.72 21.4893C43.6546 21.4758 43.6027 21.428 43.5352 21.4353C41.9338 21.6045 40.459 22.1774 39.1057 23.1602L39.0849 23.1768C38.0917 23.9645 37.7586 24.8706 38.0782 25.8887C38.3667 26.8913 39.1358 27.5513 40.3905 27.8668ZM39.7886 24.0839C40.978 23.2287 42.2639 22.7233 43.6504 22.5801C43.7501 22.5686 43.8154 22.5012 43.8943 22.4451C43.9535 22.4628 43.9981 22.5074 44.0593 22.5033C45.0349 22.4451 45.9877 22.6236 46.9144 23.0367C48.0073 23.6283 48.602 24.1389 48.7006 24.5748C48.7701 25.101 48.5989 25.5307 48.2201 25.8731C48.2263 25.731 48.19 25.5857 48.0903 25.4653C47.8879 25.2245 47.5268 25.1913 47.2829 25.3968C46.9705 25.6583 46.517 25.8534 45.9181 25.9883L45.9046 25.9904C45.5372 26.088 45.1594 26.0734 44.7754 25.9531L44.7682 25.9499C44.5201 25.8731 44.2804 25.7745 44.0427 25.6407L44.023 25.6293L43.9576 25.6023C43.9711 25.6095 43.9846 25.6137 43.9919 25.6158C43.9078 25.5753 43.6816 25.4144 43.3142 25.1321H43.311L43.283 25.1114C43.174 25.0398 43.063 24.9775 42.9499 24.9297L43.0672 24.9982C43.0111 24.9567 42.9457 24.9194 42.8668 24.8913V24.8882C42.7018 24.8301 42.3106 24.7398 41.7128 24.6402C41.6785 24.6308 41.6588 24.6236 41.638 24.6101C41.6443 24.5343 41.6858 24.417 41.7958 24.2354C41.9608 23.9645 41.8705 23.6096 41.5996 23.4477C41.3288 23.2827 40.9738 23.3688 40.8129 23.6418C40.5691 24.0465 40.4549 24.4036 40.4725 24.7191C40.4902 25.0564 40.6376 25.322 40.9157 25.514V25.5161C40.9365 25.5307 40.9582 25.5441 40.978 25.5618H40.9811C41.0984 25.6365 41.2426 25.7019 41.4107 25.7507L41.4689 25.7642C42.0262 25.8576 42.3583 25.925 42.4621 25.9634C42.4351 25.9531 42.404 25.9365 42.3697 25.9095L42.487 25.9769C42.5368 26.0018 42.5929 26.0319 42.6406 26.0672C43.0454 26.3723 43.3245 26.5685 43.4626 26.637C43.4719 26.6432 43.4792 26.6432 43.4896 26.6505L43.4854 26.6474C43.7947 26.8155 44.1112 26.9525 44.4381 27.0501H44.4319C44.5648 27.0905 44.6955 27.0905 44.8253 27.1175C43.4449 27.269 42.0698 27.1653 40.7071 26.7636L40.6822 26.7605C39.8446 26.5477 39.3434 26.1534 39.1783 25.568L39.1742 25.5504C39.0133 25.0356 39.2188 24.5447 39.7886 24.0839ZM41.6339 24.6194L41.6546 24.6381H41.6515L41.6339 24.6236V24.6194Z" fill="black"/>
<path d="M48.9505 26.7773L48.9158 26.8055C48.9129 26.8106 48.9104 26.8145 48.9082 26.8174L48.9505 26.7773Z" fill="black"/>
<path d="M38.0782 25.8985V25.8897C38.0782 25.8897 38.0723 25.8858 38.0723 25.8828L38.0782 25.8985Z" fill="black"/>
<path d="M28.6328 9.79055V9.78723C28.6372 9.77614 28.6328 9.7717 28.6328 9.76172V9.79055Z" fill="black"/>
<path d="M60.4883 17.3831V17.379L60.4914 17.3594L60.4883 17.3831Z" fill="black"/>
<path d="M61.0156 15.0935C61.02 15.0815 61.0275 15.0675 61.0297 15.0577C61.0297 15.0534 61.034 15.0501 61.034 15.0469L61.0156 15.0935Z" fill="black"/>
<path d="M60.6131 19.779C60.6099 19.7684 60.6099 19.7545 60.6099 19.7407C60.6056 19.7343 60.6035 19.7301 60.6035 19.7227L60.6131 19.779Z" fill="black"/>
<path d="M67.2695 20.1606L67.2723 20.1542V20.1523L67.2695 20.1606Z" fill="black"/>
<path d="M48.5273 38.5977C48.5307 38.6021 48.5307 38.6054 48.5307 38.6121C48.5307 38.6165 48.5384 38.6198 48.5418 38.6265L48.5273 38.5977Z" fill="black"/>
<path d="M40.8438 25.4474L40.8757 25.4762C40.8895 25.4868 40.9066 25.5007 40.9204 25.5082L40.8438 25.4453V25.4474Z" fill="black"/>
<path d="M43.5724 26.6828C43.5495 26.6734 43.5183 26.662 43.4902 26.6484L43.5069 26.6547L43.5724 26.6828Z" fill="black"/>
<path d="M40.9218 25.5135H40.918V25.5078L40.9218 25.5135Z" fill="black"/>
<path d="M30.9061 29.9732V29.9688L30.8828 30.0042L30.8872 30.002L30.9061 29.9732Z" fill="black"/>
<path d="M20.0762 31.3359L20.0919 31.3497L20.0889 31.3428L20.0791 31.3359H20.0762Z" fill="black"/>
<path d="M24.5469 38.9313H24.5496L24.5551 38.9258L24.5469 38.9313Z" fill="black"/>
<path d="M25.4992 47.351V47.3481L25.4941 47.3438L25.4992 47.351Z" fill="black"/>
<path d="M26.8691 44.3281C26.9024 44.3687 26.9066 44.4144 26.9347 44.455C26.9482 44.4799 26.9679 44.4955 26.9752 44.5205L26.8691 44.3281Z" fill="black"/>
<path d="M24.362 40.5109L24.4429 40.5482C25.0002 40.762 25.3334 40.9156 25.4372 41.0194C25.4372 41.0153 25.433 41.0122 25.4299 41.008L25.4704 41.0537C25.6811 41.2592 25.8118 41.4688 25.8554 41.6816C25.8865 41.8165 25.8689 41.9431 25.8077 42.0635C25.7215 42.1694 25.46 42.4423 24.994 42.9093L24.9514 42.9571C24.9037 43.0183 24.8632 43.0775 24.829 43.1397C24.7501 43.2736 24.7283 43.4106 24.7252 43.5404C24.7117 43.7303 24.7428 43.915 24.856 44.0935C24.9079 44.1766 24.9764 44.2554 25.0552 44.3374L25.1237 44.3935C25.6157 44.7463 25.9 44.9674 25.9789 45.0494C25.9405 45.0079 25.9104 44.9539 25.8865 44.8844L25.9924 45.0733C26.0713 45.1656 26.1232 45.2559 26.1408 45.3421V45.3441C26.1512 45.3825 26.1553 45.4033 26.1512 45.424L26.1232 45.4894C26.1232 45.4822 26.1273 45.478 26.1304 45.4718L26.1273 45.4759C26.0858 45.5922 25.9073 45.8983 25.5876 46.3996L25.5607 46.4442C25.5088 46.5439 25.4704 46.6363 25.4434 46.7265C25.3739 46.9632 25.3956 47.1697 25.5025 47.3503C25.6966 47.6886 25.9997 47.8246 26.4127 47.753C26.5778 47.725 26.7563 47.6575 26.9524 47.5464C26.9825 47.5309 27.0178 47.5091 27.0479 47.4883L27.0583 47.4811C27.3406 47.3025 27.6862 46.9497 28.1065 46.4193L28.1127 46.41C28.5216 45.8703 28.779 45.4718 28.8859 45.2206L28.8922 45.2113V45.2071L28.8963 45.1999C28.9306 45.1075 28.9575 45.0037 28.9721 44.8906L28.9762 44.8325C28.9856 44.4661 29.0125 44.1766 29.0644 43.9711C29.1402 43.6618 28.9513 43.3525 28.642 43.2757C28.3328 43.201 28.0235 43.3909 27.9487 43.6981C27.8792 43.9877 27.8377 44.3551 27.8284 44.8024L27.8315 44.7432C27.8284 44.7577 27.8284 44.7712 27.8284 44.7775C27.7661 44.9248 27.573 45.2113 27.2845 45.5953C27.2845 45.5891 27.2918 45.5818 27.2918 45.5704C27.3094 45.424 27.3022 45.2632 27.2638 45.094V45.0982C27.2119 44.875 27.0853 44.6602 26.9348 44.4547C26.9026 44.3862 26.8735 44.3167 26.8071 44.2554C26.695 44.1382 26.392 43.8984 25.9519 43.5756C26.3785 43.1429 26.666 42.8398 26.7583 42.7205C26.8933 42.5378 26.9317 42.352 26.8694 42.1559L26.8372 42.5866C27.0178 42.2213 27.0655 41.8372 26.9794 41.4387C26.8829 40.9987 26.6494 40.597 26.2706 40.2327L26.3152 40.2763C26.2882 40.2462 26.2612 40.2182 26.2342 40.1902C26.0889 40.0532 25.8004 39.8996 25.4507 39.7346C26.0059 39.4045 26.4709 39.1472 26.776 39.0091C27.0676 38.8825 27.1984 38.5421 27.0676 38.2525C26.941 37.9609 26.6006 37.8301 26.309 37.9609C25.9 38.1436 25.3126 38.4694 24.5498 38.9365C24.3775 39.0361 24.2468 39.1295 24.1513 39.2188C23.9593 39.4045 23.897 39.61 23.9209 39.8311C23.9323 40.0916 24.0527 40.3147 24.3101 40.4797C24.3256 40.4901 24.3433 40.5005 24.362 40.5109ZM27.8242 44.7847L27.8284 44.7816C27.8256 44.7837 27.8242 44.7861 27.8242 44.7889V44.7847ZM27.2025 45.8776L27.1787 45.9295C27.1828 45.9181 27.1828 45.9118 27.189 45.9046C27.189 45.8983 27.1963 45.8838 27.2025 45.8776Z" fill="black"/>
<path d="M24.707 43.6183C24.707 43.5943 24.7247 43.5746 24.7247 43.5455C24.7278 43.5247 24.707 43.5091 24.7112 43.4883L24.707 43.6183Z" fill="black"/>
<path d="M23.9169 39.9016C23.9096 39.8766 23.9231 39.8537 23.92 39.8329C23.9169 39.8038 23.9023 39.7809 23.9023 39.7539L23.9169 39.9016Z" fill="black"/>
<path d="M27.5672 53.3069L27.5938 53.2969C27.586 53.3002 27.5816 53.3002 27.5738 53.3046C27.5672 53.3046 27.5527 53.3113 27.5527 53.3113C27.5527 53.3113 27.5594 53.3069 27.5672 53.3069Z" fill="black"/>
<path d="M30.8908 50.5547L30.8828 50.5597L30.8908 50.5569V50.5547Z" fill="black"/>
<path d="M29.6702 52.2895C30.6842 51.8982 31.2851 51.6543 31.4501 51.5578C31.4906 51.535 31.5218 51.507 31.556 51.48C31.911 51.3108 32.3219 50.9839 32.8097 50.4349L32.8232 50.4172C33.2051 49.9574 33.3951 49.5278 33.3951 49.1365L33.3608 48.9445C33.3567 48.93 33.3494 48.9123 33.3432 48.8988C33.1605 48.4526 32.8305 48.2595 32.3531 48.3249C32.2856 48.3322 32.2161 48.3498 32.1403 48.3706L32.2265 48.3529C31.7522 48.4225 31.1606 48.6103 30.4569 48.9196C30.1653 49.0462 30.0314 49.3846 30.158 49.6762C30.2846 49.9678 30.6251 50.0986 30.9146 49.972C31.3505 49.7821 31.6556 49.7104 31.9722 49.6243C31.9514 49.6513 31.9587 49.6586 31.9379 49.6855L31.9514 49.672C31.5249 50.1505 31.2156 50.4245 31.0236 50.4899L30.7901 50.6383C30.8243 50.604 30.8555 50.5791 30.8856 50.5594C30.7558 50.6269 30.213 50.8479 29.2406 51.2215L29.2302 51.2257L29.1783 51.2454C28.0107 51.837 27.3475 52.1598 27.1898 52.2106C27.1856 52.2106 27.1794 52.2148 27.1721 52.2189L27.1472 52.2251C26.811 52.3663 26.509 52.4317 26.2038 52.4971C26.3574 52.3725 26.5712 52.221 26.8494 52.0466C27.1182 51.8785 27.1991 51.5236 27.032 51.2568C26.8629 50.988 26.5058 50.905 26.237 51.0742C25.5033 51.5371 25.0518 51.946 24.8837 52.3009C24.8661 52.3383 24.8526 52.3767 24.8391 52.414L24.836 52.4317C24.8152 52.4971 24.8007 52.5583 24.7913 52.6206C24.7218 53.1021 24.9117 53.4311 25.358 53.6169H25.3611C25.3964 53.6304 25.4306 53.6439 25.467 53.6543C25.6123 53.6989 25.7762 53.7228 25.9703 53.7228L26.0565 53.7186C26.537 53.6543 27.0455 53.511 27.5738 53.2941C27.7907 53.2173 28.4892 52.8811 29.6702 52.2895Z" fill="black"/>
<path d="M12.8984 48.2542C12.9015 48.248 12.9098 48.2439 12.916 48.2325L12.9191 48.2305L12.8984 48.2542Z" fill="black"/>
<path d="M12.4773 52.9999C12.4638 52.9937 12.4576 52.976 12.444 52.9687C12.4295 52.9593 12.4014 52.9521 12.3848 52.9375L12.4773 52.9999Z" fill="black"/>
<path d="M59.5509 30.3945H59.5381L59.5352 30.3985L59.5509 30.3945Z" fill="black"/>
<path d="M58.7292 50.0508C58.7079 50.0614 58.6823 50.0721 58.6621 50.0827L58.7356 50.0508H58.7292Z" fill="black"/>
<path d="M57.6931 56.3092C57.6869 56.3029 57.6827 56.2884 57.6754 56.2749C57.6598 56.2551 57.6307 56.227 57.6172 56.2031L57.6931 56.3092Z" fill="black"/>
<path d="M58.7363 50.0532L58.7395 50.0508H58.7419L58.7363 50.0532Z" fill="black"/>
<path d="M60.6718 63.1172L60.6674 63.1316L60.6641 63.1471L60.6718 63.1172Z" fill="black"/>
<path d="M26.2297 76.1174C26.2162 76.1132 26.2131 76.0997 26.1995 76.0976C26.1569 76.0799 26.1205 76.0862 26.082 76.0664L26.2297 76.1174Z" fill="black"/>
<path d="M37.0938 62.375C37.0894 62.3794 37.0794 62.3794 37.0716 62.3817C37.0672 62.3861 37.065 62.3861 37.0605 62.3894L37.0938 62.375Z" fill="black"/>
<path d="M38.3318 59.8766L38.3374 59.875L38.3318 59.8766Z" fill="black"/>
<path d="M30.9551 63.0618L30.9908 63.0336C30.9952 63.026 30.9984 63.0217 31.0017 63.0195L30.9551 63.0618Z" fill="black"/>
<path d="M13.3359 70.471L13.3597 70.4648L13.3494 70.469L13.3359 70.471Z" fill="black"/>
<path d="M20.0939 65.822H20.0982C20.1058 65.8188 20.1264 65.8069 20.1383 65.8047L20.0939 65.822Z" fill="black"/>
<path d="M13.3418 70.4727H13.3374L13.3008 70.4849C13.3108 70.4804 13.3263 70.4771 13.3418 70.4727Z" fill="black"/>
<path d="M71.3145 45.2882C71.3321 45.2768 71.3633 45.2747 71.3841 45.2633C71.3904 45.2633 71.3976 45.257 71.4039 45.2539L71.3145 45.2882Z" fill="black"/>
<path d="M93.418 32.293V32.2963C93.418 32.3074 93.4224 32.3174 93.4224 32.3296L93.418 32.293Z" fill="black"/>
<path d="M54.7796 43.0373L54.2503 43.2241C53.9525 43.3299 53.7937 43.6558 53.9006 43.9558C54.0064 44.2536 54.3333 44.4124 54.6322 44.3055L55.1605 44.1208C55.4604 44.0128 55.6192 43.6869 55.5113 43.3891C55.4044 43.0891 55.0796 42.9304 54.7796 43.0373Z" fill="black"/>
<path d="M63.8335 38.8788C63.1828 39.2264 62.7884 39.4257 62.6473 39.4735L62.6162 39.4869C62.3858 39.5835 62.1419 39.652 61.8751 39.6893C61.5617 39.7391 61.3448 40.0308 61.3936 40.3463C61.4372 40.6587 61.7309 40.8756 62.0464 40.8278C62.3992 40.7718 62.7334 40.6836 63.0427 40.5518C63.242 40.4802 63.682 40.2633 64.3753 39.8927C64.6534 39.7454 64.7603 39.3977 64.613 39.1154C64.4614 38.8383 64.1158 38.7314 63.8335 38.8788Z" fill="black"/>
<path d="M63.0684 40.5469C63.0607 40.5502 63.054 40.5502 63.0462 40.5535C63.0418 40.5535 63.0396 40.558 63.0352 40.558L63.0684 40.5469Z" fill="black"/>
<path d="M57.6316 37.7034C57.3151 37.6931 57.0515 37.9411 57.04 38.2566C57.0369 38.3635 57.0338 38.4694 57.0307 38.5732C57.0307 38.6178 57.0266 38.6904 57.0234 38.7901V39.2353C57.0307 39.5518 57.2912 39.8061 57.6067 39.7999C57.9274 39.7957 58.1775 39.5352 58.1744 39.2145C58.1713 39.0817 58.1713 38.9478 58.1744 38.8129C58.1744 38.7268 58.1775 38.6593 58.1775 38.6116C58.1806 38.5036 58.1848 38.4009 58.1879 38.295C58.1983 37.9785 57.9502 37.7128 57.6316 37.7034Z" fill="black"/>
<path d="M65.5167 36.6806C65.6028 36.9868 65.9194 37.1611 66.2256 37.075C66.8534 36.8965 67.5478 36.5872 68.3064 36.1472C68.5815 35.9894 68.679 35.6396 68.5202 35.3657C68.3625 35.0896 68.0086 34.9972 67.7325 35.155C67.0569 35.5462 66.4477 35.8182 65.9121 35.9686C65.607 36.0589 65.4285 36.3755 65.5167 36.6806Z" fill="black"/>
<path d="M75.624 37V37.0029L75.6211 37.008L75.624 37Z" fill="black"/>
<path d="M74.9169 37.782C75.25 37.4935 75.4835 37.2361 75.6247 37.0026C75.7305 36.8375 75.8136 36.6694 75.8748 36.4971L75.8821 36.4764C75.9267 36.3321 75.9537 36.2148 75.9682 36.1225C75.9713 36.0747 75.9744 36.0343 75.9744 35.9917C75.9713 35.6731 75.7098 35.4178 75.3943 35.4219C75.0777 35.425 74.8245 35.6866 74.8276 36.0021V35.9751C74.8245 35.999 74.8089 36.054 74.7892 36.1194C74.7612 36.2086 74.7145 36.2979 74.6553 36.3913L74.6242 36.4432L74.6491 36.4006C74.565 36.5355 74.4042 36.7026 74.1634 36.9133C73.9236 37.1188 73.8967 37.4841 74.1063 37.7239C74.3118 37.9646 74.6761 37.9885 74.9169 37.782Z" fill="black"/>
<path d="M75.6532 36.9609L75.625 37.0032H75.6293L75.6532 36.9609Z" fill="black"/>
<path d="M59.4363 42.3616C59.2568 42.4706 59.1073 42.5598 58.9859 42.6283C58.7119 42.7861 58.6154 43.1379 58.7731 43.416C58.9309 43.69 59.2817 43.7824 59.5567 43.6288C59.6875 43.553 59.8483 43.4565 60.0383 43.3392C60.305 43.1742 60.3911 42.8214 60.223 42.5494C60.058 42.2817 59.7041 42.1966 59.4363 42.3616Z" fill="black"/>
<path d="M68.3442 31.98L68.3473 31.9935C68.3919 32.3069 68.6877 32.5228 69.0001 32.4792C69.3135 32.4304 69.5284 32.1388 69.4848 31.8358L69.4806 31.8223C69.4495 31.6126 69.3955 31.3314 69.3166 30.9775C69.244 30.664 68.9389 30.472 68.6296 30.5416C68.3203 30.609 68.1242 30.9183 68.1937 31.2286C68.2684 31.5472 68.3162 31.7953 68.3442 31.9779V31.98Z" fill="black"/>
<path d="M71.3416 38.7838C71.7941 38.4497 72.2248 38.0957 72.6295 37.7252C72.863 37.5083 72.8807 37.1472 72.6638 36.9147C72.451 36.6812 72.0878 36.6635 71.8366 36.897L71.8532 36.8804C71.4785 37.224 71.0831 37.5467 70.6607 37.856C70.4075 38.0449 70.3514 38.4019 70.5383 38.6603C70.7261 38.9136 71.0831 38.9696 71.3416 38.7838Z" fill="black"/>
<path d="M54.4944 35.368C54.5733 34.9611 54.6387 34.6363 54.6937 34.3851C54.7632 34.0759 54.5671 33.7707 54.2578 33.7012C53.9485 33.6327 53.6434 33.8278 53.5739 34.1371C53.5157 34.3986 53.4472 34.7349 53.3673 35.1511C53.3092 35.4603 53.5126 35.7624 53.824 35.8246C54.1333 35.8827 54.4363 35.6793 54.4944 35.368Z" fill="black"/>
<path d="M53.3336 25.7026C53.042 25.5822 52.7047 25.7275 52.5853 26.0191C52.33 26.6532 52.0695 27.304 51.8121 27.963C51.6949 28.2588 51.8402 28.5919 52.1349 28.7092C52.4296 28.8265 52.7638 28.677 52.8811 28.3854C53.1343 27.7326 53.3917 27.0871 53.6491 26.4519C53.7705 26.1561 53.6294 25.823 53.3336 25.7026Z" fill="black"/>
<path d="M57.0632 24.9709C57.1711 24.9501 57.2863 24.9294 57.415 24.9117L57.5935 24.8578C57.5375 24.8847 57.4866 24.9013 57.4306 24.9096C57.4721 24.9013 57.6402 24.8847 57.9391 24.8536C58.2557 24.8194 58.4829 24.5371 58.4518 24.2216C58.4176 23.905 58.1353 23.6788 57.8198 23.7099C57.5074 23.7441 57.3216 23.7649 57.2655 23.7711C57.2593 23.7711 57.2562 23.7753 57.2521 23.7753C57.1016 23.796 56.9604 23.8189 56.8297 23.8469C56.5204 23.9123 56.318 24.2143 56.3834 24.5236C56.4488 24.837 56.7508 25.0363 57.0632 24.9709Z" fill="black"/>
<path d="M53.6473 22.4519C53.8632 22.4592 54.0178 22.4654 54.1143 22.4685H54.1102C54.2368 22.4768 54.3717 22.4861 54.5098 22.4934C54.8253 22.5173 55.0992 22.2806 55.12 21.9641C55.1449 21.6444 54.9052 21.3705 54.5886 21.3497C54.4444 21.3393 54.3022 21.3279 54.1693 21.3248C54.0656 21.3186 53.9068 21.3113 53.6878 21.3051C53.3692 21.2936 53.1035 21.5417 53.0941 21.8582C53.0827 22.1769 53.3308 22.4415 53.6473 22.4519Z" fill="black"/>
<path d="M49.4391 30.9376C49.1205 30.9314 48.8589 31.1815 48.8517 31.5001C48.8454 31.8167 49.0956 32.0813 49.4121 32.0875L49.7318 32.0948C50.0483 32.101 50.3088 31.8509 50.315 31.5323C50.3223 31.2158 50.0711 30.9542 49.7556 30.9449L49.4391 30.9376Z" fill="black"/>
<path d="M40.5191 32.0098C40.7629 31.8064 40.7962 31.4431 40.5938 31.1992C40.3914 30.9553 40.0261 30.9242 39.7936 31.1203H39.7894L39.7822 31.1266C39.2581 31.5604 38.8585 31.9267 38.5835 32.2267C38.3676 32.4592 38.3842 32.8203 38.6188 33.0372C38.8492 33.2531 39.2134 33.2365 39.4293 33.002C39.6691 32.7415 40.0302 32.4125 40.5149 32.0098L40.5076 32.017L40.5191 32.0098Z" fill="black"/>
<path d="M45.2405 31.9895C45.3401 31.6916 45.1793 31.3647 44.8762 31.2651L44.8721 31.2619C44.8347 31.2516 44.7569 31.2132 44.6354 31.1519L44.6489 31.1561C44.5835 31.1208 44.5192 31.0793 44.4569 31.0347C44.1995 30.853 43.8425 30.9122 43.6567 31.1727C43.4741 31.4301 43.5332 31.7871 43.7906 31.9739C43.8903 32.0414 43.9899 32.1026 44.0926 32.1618L44.1041 32.168C44.2784 32.2583 44.4164 32.3195 44.515 32.3538C44.8139 32.4544 45.1409 32.2925 45.2405 31.9895Z" fill="black"/>
<path d="M33.3721 35.6849C33.6678 35.796 33.9979 35.6445 34.1069 35.3445C34.2553 34.9429 34.3705 34.6647 34.4535 34.5132C34.6081 34.2351 34.5054 33.8874 34.2272 33.7338C33.9481 33.5823 33.6025 33.686 33.4468 33.9642C33.3378 34.1635 33.1956 34.4925 33.0316 34.9491C32.9227 35.2449 33.0721 35.5749 33.3721 35.6849Z" fill="black"/>
<path d="M34.3951 43.0232C34.3339 42.8811 34.2436 42.7025 34.1336 42.4794V42.4836L34.1305 42.4732C33.9862 42.1878 33.6427 42.0746 33.3583 42.2189C33.076 42.3601 32.9629 42.7067 33.103 42.989L33.1072 42.9963C33.213 43.2049 33.2929 43.373 33.3511 43.4975C33.4808 43.785 33.8212 43.9127 34.1097 43.7819C34.3993 43.6511 34.5259 43.3118 34.3951 43.0232Z" fill="black"/>
<path d="M37.1213 48.0567C37.4347 48.1075 37.7326 47.8979 37.7845 47.5845C37.8395 47.2731 37.6267 46.9773 37.3174 46.9223C37.2313 46.9088 37.1566 46.8953 37.0839 46.8777V46.8818L37.0798 46.8777L37.0704 46.8746C37.0217 46.8663 36.9428 46.8465 36.84 46.8165C36.5339 46.7262 36.2153 46.9047 36.1291 47.2077C36.0388 47.5128 36.2153 47.8325 36.5204 47.9186C36.6574 47.9591 36.7643 47.9871 36.8431 48.0006H36.84C36.9262 48.0224 37.0217 48.038 37.1213 48.0567Z" fill="black"/>
<path d="M33.8433 53.7064C33.999 53.9845 34.3487 54.0852 34.6238 53.9274C34.7742 53.8434 34.9745 53.7126 35.2278 53.5341C35.4852 53.3514 35.5474 52.9944 35.3658 52.737C35.1832 52.4765 34.8261 52.4143 34.5656 52.5969C34.3446 52.7505 34.1796 52.8616 34.0644 52.9269C33.7841 53.0806 33.6887 53.4313 33.8433 53.7064Z" fill="black"/>
<path d="M30.9063 39.5815C31.009 39.3988 31.2322 38.8934 31.5798 38.0694C31.6992 37.7736 31.5622 37.4373 31.2664 37.3169C30.9748 37.1965 30.6385 37.3346 30.5181 37.6262C30.1912 38.4056 29.9919 38.8664 29.9089 39.0065C29.7512 39.2795 29.8435 39.6324 30.1186 39.7901C30.3936 39.9479 30.7485 39.8555 30.9063 39.5815Z" fill="black"/>
<path d="M35.1486 28.1585C35.462 28.202 35.7536 27.9831 35.7983 27.6707L35.8325 27.4091C35.8771 27.0936 35.6571 26.8041 35.3447 26.7594C35.0282 26.7158 34.7397 26.9348 34.694 27.2472L34.6577 27.5088C34.6151 27.8253 34.832 28.1138 35.1486 28.1585Z" fill="black"/>
<path d="M33.338 19.8463C33.365 19.5297 33.1304 19.2526 32.8149 19.2246C32.6852 19.2111 32.5576 19.2049 32.4309 19.2049H32.4268C32.2794 19.2007 32.1684 19.2049 32.0936 19.207H32.0895C31.939 19.2184 31.8228 19.2319 31.7397 19.2454L31.7781 19.2392C31.7709 19.2423 31.7594 19.2423 31.7501 19.2423C31.6982 19.2495 31.554 19.2765 31.3215 19.318C31.008 19.372 30.8015 19.6719 30.8565 19.9843C30.9146 20.2978 31.2104 20.5032 31.5228 20.4472C31.746 20.4067 31.8746 20.386 31.9047 20.3829H31.8944L31.9317 20.3797C31.9743 20.3694 32.0552 20.3611 32.1725 20.3548H32.1756C32.2182 20.3517 32.2971 20.3517 32.4102 20.3517C32.5098 20.3548 32.6126 20.359 32.7122 20.3694C33.0287 20.3974 33.309 20.1628 33.338 19.8463Z" fill="black"/>
<path d="M36.2556 19.7604C36.3034 19.7676 36.348 19.7811 36.3957 19.7926L36.4113 19.7988H36.4134C36.4414 19.806 36.4964 19.8258 36.5784 19.86C36.8742 19.9773 37.2063 19.833 37.3236 19.5372C37.4409 19.2425 37.3007 18.9093 37.005 18.7921C36.8773 18.7402 36.7818 18.7059 36.7092 18.6893C36.6988 18.6852 36.6957 18.6852 36.6957 18.6852L36.7123 18.6893C36.6303 18.6655 36.5473 18.6478 36.4653 18.6312C36.1518 18.572 35.854 18.7786 35.7948 19.092C35.7367 19.4034 35.9432 19.7023 36.2556 19.7604Z" fill="black"/>
<path d="M24.8837 58.8016C24.6782 58.8265 24.4581 58.8784 24.2308 58.9531C23.9911 59.032 23.6227 59.1732 23.1255 59.3755C22.8329 59.4959 22.6928 59.8332 22.8121 60.1249C22.9325 60.4207 23.2656 60.5618 23.5614 60.4414C24.0357 60.2453 24.3793 60.1145 24.592 60.0418C24.7477 59.99 24.8951 59.9567 25.0279 59.9401C25.3413 59.9017 25.5655 59.6132 25.5271 59.3008C25.4887 58.9843 25.2002 58.7611 24.8837 58.8016Z" fill="black"/>
<path d="M16.2313 60.8053C16.0352 60.9018 15.8774 60.9807 15.757 61.0492C15.4779 61.2028 15.3824 61.5546 15.536 61.8328C15.6917 62.1078 16.0424 62.2074 16.3195 62.0518C16.4192 61.9936 16.5614 61.921 16.7326 61.839L16.7399 61.8348C17.0242 61.6979 17.1446 61.3543 17.0045 61.0689C16.8665 60.7845 16.523 60.6642 16.2313 60.8053Z" fill="black"/>
<path d="M12.8838 58.4282C12.6296 58.614 12.3379 58.9098 12.0079 59.3208C11.8117 59.5688 11.8501 59.93 12.0961 60.1293C12.3483 60.3285 12.7084 60.287 12.9046 60.039C13.1692 59.7089 13.3882 59.4837 13.5574 59.3592C13.8148 59.1734 13.8698 58.8164 13.684 58.559C13.4982 58.3016 13.1412 58.2435 12.8838 58.4282Z" fill="black"/>
<path d="M9.4692 64.5857C8.89527 64.7746 8.29436 65.1181 7.66231 65.6194C7.41115 65.8186 7.37068 66.1798 7.5689 66.4279C7.76506 66.6749 8.12519 66.7153 8.37739 66.5202C8.89942 66.1051 9.38306 65.8228 9.82622 65.6785C10.1282 65.5789 10.2933 65.2561 10.1936 64.9531C10.094 64.6552 9.77121 64.4902 9.4692 64.5857Z" fill="black"/>
<path d="M12.9069 61.4571C12.7149 61.2059 12.3537 61.1551 12.1026 61.3471C11.8483 61.5391 11.8006 61.9003 11.9926 62.1514L12.1856 62.4047C12.3776 62.66 12.7377 62.7077 12.9899 62.5188C13.2432 62.3258 13.2909 61.9656 13.0989 61.7114L12.9069 61.4571Z" fill="black"/>
<path d="M21.9709 41.6735C21.9667 41.5905 21.9647 41.5158 21.9605 41.4473C21.9532 41.1307 21.6927 40.8806 21.3772 40.8868C21.0565 40.8941 20.8054 41.1577 20.8127 41.4743C20.8168 41.5531 20.8199 41.6351 20.8241 41.7181C20.8241 41.7835 20.8303 41.8967 20.8396 42.0617C20.8614 42.3782 21.1333 42.6221 21.4489 42.6014C21.7654 42.5806 22.0051 42.3087 21.9885 41.9921C21.9782 41.8344 21.9709 41.7275 21.9709 41.6735Z" fill="black"/>
<path d="M23.7761 53.9206C23.9172 53.6352 23.801 53.2916 23.5187 53.1505C23.2343 53.0093 22.8908 53.1225 22.7486 53.4079C22.2992 54.3046 22.0304 54.8276 21.9453 54.9709C21.7865 55.2438 21.8768 55.5967 22.1519 55.7586C22.4227 55.9163 22.7756 55.8271 22.9344 55.5531C23.034 55.3839 23.3153 54.8411 23.7761 53.9206Z" fill="black"/>
<path d="M21.3909 37.7255L22.0343 37.5677C22.3436 37.4909 22.5314 37.1786 22.4526 36.8693C22.3778 36.5631 22.0686 36.3753 21.7593 36.45L21.1138 36.6119C20.8076 36.6866 20.6187 37 20.6945 37.3052C20.7702 37.6144 21.0816 37.8002 21.3909 37.7255Z" fill="black"/>
<path d="M22.4948 46.7691C22.5675 47.0784 22.8726 47.2704 23.1819 47.1998C23.4912 47.1303 23.6863 46.821 23.6147 46.5117C23.5732 46.3374 23.5358 46.1516 23.4974 45.9627C23.4351 45.6493 23.1342 45.4469 22.8207 45.5123C22.5114 45.5735 22.3091 45.8766 22.3703 46.1858C22.4118 46.3913 22.4523 46.5833 22.4948 46.7691Z" fill="black"/>
</svg>
