<svg viewBox="0 0 93 58" fill="none" xmlns="http://www.w3.org/2000/svg">
<path d="M0.898714 35.7874C1.03582 34.9843 0.800781 34.2009 0.800781 33.3978C0.839954 26.9343 3.2295 21.6068 8.63537 17.7874C9.49717 17.1802 10.2806 16.573 10.927 15.7112C11.9455 14.3206 13.5712 13.7722 15.0597 13.0671C19.0554 11.1672 23.0706 9.32605 27.1642 7.64161C30.5918 6.23139 34.0586 4.95827 37.6038 3.86142C40.6201 2.94086 43.6756 2.17699 46.7898 1.58939C52.3719 0.551311 58.0128 0.159582 63.6929 0.570897C65.965 0.727589 68.1978 1.21725 70.4503 1.60898C71.3904 1.76567 72.213 2.21616 72.9377 2.82334C73.3099 3.13672 73.7016 3.25424 74.1521 3.29342C77.756 3.58721 81.2032 4.44902 84.2391 6.42725C87.0204 8.24879 88.8811 10.8538 90.2913 13.7722C92.9355 19.2368 93.5427 24.8973 91.4469 30.7145C89.88 35.0431 86.9616 38.2748 83.1815 40.9386C80.9094 42.5251 78.6766 44.1508 76.3849 45.7373C73.5449 47.7155 70.7245 49.6938 67.571 51.2019C65.3186 52.2792 62.9291 53.0039 60.5199 53.6502C55.447 55.0213 50.2566 55.8047 45.0858 56.6274C39.4057 57.5283 33.7256 57.7046 28.0651 56.7841C26.3807 56.5098 24.6963 56.1965 23.1489 55.4326C22.8747 55.2955 22.5222 55.2955 22.1892 55.2367C14.6876 53.9636 8.51785 50.5947 4.248 44.2095C3.24909 42.721 2.46563 41.1149 1.91721 39.3913C1.87804 39.2738 1.87804 39.1367 1.70176 39.1367L1.60383 38.7057C1.643 37.8244 1.44713 37.0017 1.01623 36.2183L0.9183 35.7874H0.898714ZM17.5472 48.2835C15.2752 44.5425 13.3361 40.8798 11.8475 37.0213C10.3394 33.1236 9.36007 29.0888 9.00751 24.7602C4.3851 32.7123 7.65604 43.524 17.5472 48.2835ZM84.5329 32.7123C89.978 25.4653 88.1368 14.4577 78.5591 10.5208C80.5373 13.9289 82.065 17.4544 83.1031 21.1759C84.1412 24.9169 84.5917 28.7166 84.5329 32.7319V32.7123ZM9.04668 20.1965C8.75289 20.1965 8.63537 20.3924 8.47868 20.5295C3.15116 25.1715 1.643 32.7515 4.09131 39.1171C5.77574 43.524 8.65495 46.9908 12.6702 49.5175C15.0597 51.0256 17.6451 52.0833 20.446 52.7297C19.878 51.5936 19.5059 51.2411 18.9378 51.0452C12.4351 48.9103 7.93025 44.6404 5.77574 38.2553C3.71916 32.1835 4.75725 26.4446 8.79206 21.313C9.04668 20.98 9.20337 20.647 9.06627 20.2161L9.04668 20.1965ZM75.3077 5.54586C75.7582 6.19221 76.1107 6.68187 76.4437 7.21071C76.6592 7.54368 76.9334 7.71996 77.3251 7.83748C83.3577 9.5415 89.0966 14.5948 89.6254 22.3902C89.9584 27.3064 88.5481 31.6742 85.1009 35.2977C84.5133 35.9245 84.2 36.5317 84.2195 37.3543C84.2979 37.3543 84.3566 37.3543 84.3762 37.3151C84.5329 37.1976 84.6896 37.0605 84.8267 36.9234C86.4328 35.4348 87.7451 33.7112 88.6657 31.7526C91.682 25.3086 90.9377 19.1193 87.4709 13.0866C84.8071 8.46424 80.6548 6.25097 75.2685 5.54586H75.3077Z" fill="#060606"/>
<path d="M70.4105 3.74265C69.5879 2.99837 68.6086 2.99837 67.5901 3.0963C67.4138 3.05713 67.3746 2.88085 67.1592 2.86126C65.7881 2.72416 64.4171 2.44995 63.046 2.3716C57.6206 2.09739 52.2343 2.54788 46.9068 3.60555C40.8546 4.81991 35.0374 6.79814 29.3377 9.18769C24.4411 11.2443 19.7012 13.6338 14.8829 15.8667C12.2975 17.081 11.0831 18.9026 11.0048 21.7034C10.8481 26.933 11.9645 31.908 13.9232 36.7067C16.1756 42.2301 19.2507 47.303 22.7959 52.1016C23.8535 53.5314 25.1462 54.2953 26.8503 54.6479C32.3149 55.7643 37.7991 55.686 43.2637 54.8633C49.0025 54.0015 54.7022 52.9634 60.2843 51.3574C63.1048 50.5543 65.8665 49.6337 68.4127 48.1648C72.0362 46.0494 75.3268 43.4444 78.7936 41.094C78.8719 41.0549 78.8915 40.9178 78.9307 40.8394C79.577 40.6631 80.0863 40.2714 80.5368 39.8013C81.8099 38.7633 82.0841 37.2943 82.2995 35.7861C82.6129 31.8492 82.4366 27.9319 81.6336 24.0734C80.7914 20.019 79.2832 16.2192 77.2658 12.5957C76.3257 10.9113 75.3659 9.22686 74.1124 7.73829C73.3289 6.426 72.3888 5.23122 71.3311 4.13438C71.0961 3.87976 70.7827 3.72307 70.4105 3.72307V3.74265Z" fill="#00953B"/>
<path d="M52.1943 43.6977C48.2378 44.6379 44.6731 44.9904 41.1084 45.3821C37.4065 45.813 33.7047 46.1852 29.9833 46.2831C28.5339 46.3223 27.0649 46.2831 25.6155 46.2635C25.0279 46.2635 24.6557 45.9306 24.5578 45.4017C24.4795 44.9317 24.6753 44.5203 25.1454 44.2853C25.3217 44.1874 25.5175 44.1678 25.733 44.1874C31.2564 44.3832 36.7406 43.7956 42.2052 43.1689C45.6328 42.7771 49.0605 42.3854 52.4293 41.504C56.0528 40.5443 59.4021 38.9186 62.6927 37.1558C65.944 35.4126 69.1366 33.5715 72.5251 32.0633C74.1703 31.3386 75.8352 30.7119 77.5588 30.2222C78.3618 29.9872 78.8907 30.2222 79.0865 30.849C79.302 31.4953 79.0082 31.985 78.2051 32.22C73.3477 33.6303 69.0191 36.1373 64.6317 38.5269C60.5381 40.7401 56.3858 42.8359 52.2335 43.7173L52.1943 43.6977Z" fill="#060606"/>
<path d="M40.8755 32.8124C36.0181 34.0072 31.1215 34.9669 26.2053 35.9462C24.8538 36.2204 23.4827 36.4163 22.0921 36.4947C21.3674 36.5338 20.8973 36.2204 20.7994 35.6329C20.7015 35.0257 21.1128 34.4968 21.8375 34.4185C29.7112 33.4392 37.4283 31.598 45.1062 29.659C53.8809 27.4457 62.3619 24.4294 70.0789 19.572C70.8232 19.1019 71.3912 19.1998 71.7634 19.8266C72.0964 20.375 71.9005 20.9234 71.1758 21.3739C67.1802 23.881 62.9495 25.8984 58.5621 27.6024C52.8037 29.8157 46.8886 31.4805 40.8755 32.832V32.8124Z" fill="#060606"/>
<path d="M29.9647 24.1912C28.1431 24.5829 25.401 25.3272 22.6002 25.7189C21.092 25.9344 19.6034 25.954 18.1149 25.5623C17.3902 25.3664 17.0572 24.8767 17.1943 24.25C17.3314 23.6428 17.8994 23.3294 18.6045 23.5057C20.5632 24.0149 22.5218 23.682 24.4217 23.2706C28.6132 22.3697 32.8047 21.4099 36.9375 20.2739C41.5599 19.0008 46.1431 17.6101 50.6676 16.0628C56.1322 14.1825 61.4989 12.1064 66.7872 9.81474C67.3552 9.56011 67.9624 9.77556 68.217 10.2652C68.4913 10.8136 68.315 11.4208 67.6686 11.695C65.4749 12.6352 63.2813 13.5949 61.0484 14.4567C58.2084 15.5732 55.3683 16.6504 52.4891 17.6493C49.5316 18.6874 46.5544 19.6276 43.5773 20.5481C39.3858 21.8212 35.1355 22.9573 29.9255 24.1716L29.9647 24.1912Z" fill="#060606"/>
</svg>
