<svg viewBox="0 0 86 105" fill="none" xmlns="http://www.w3.org/2000/svg">
<path d="M74.9962 81.6555L50.6015 81.2227C50.6015 81.2227 49.7568 81.412 48.7769 86.8097C47.9593 91.3145 48.2093 101.379 48.3174 104.585H60.0147C59.8931 102.705 59.7647 98.6872 60.6837 96.9218C62.0623 94.2838 62.5623 100.534 64.103 104.585H78.1655C77.9019 100.405 76.8004 84.4491 74.9962 81.6488V81.6555Z" fill="#00953B"/>
<path d="M43.644 46.0476C44.1982 47.0419 49.6785 52.3245 49.7191 52.7101C49.7866 53.2647 48.5365 81.2607 47.7864 85.0891C47.4756 90.3379 74.803 98.2991 80.77 88.9581C79.4117 81.2404 78.3237 64.3508 80.77 60.82C84.3582 58.5068 84.9529 55.4765 84.9529 55.4765C85.5205 53.8802 84.2366 48.7734 82.3377 45.4862C78.7967 40.1832 74.1881 39.2498 68.5591 38.0188C64.0045 37.0245 59.2877 35.8002 54.0506 37.18C49.8137 38.2961 43.1034 45.0668 43.644 46.0408V46.0476Z" fill="#E0E0E0"/>
<path d="M69.4648 93.5816C65.0116 93.5816 60.234 92.6414 56.6119 91.4644C52.0844 89.9967 47.3 87.5413 47.4487 85.0657C48.1515 81.4741 49.4219 54.4859 49.3881 52.7882C49.1786 52.477 47.915 51.1716 46.8946 50.1164C45.0025 48.1616 43.6375 46.7344 43.3469 46.2136C43.2388 46.0107 43.2523 45.7537 43.3942 45.4222C44.2389 43.4336 50.1585 37.8601 53.963 36.8591C58.9365 35.5469 63.41 36.5344 67.7348 37.4949L68.9107 37.7519C74.3572 38.9424 79.0537 39.9705 82.6149 45.3005C84.5544 48.6554 85.8856 53.8366 85.2639 55.5884C85.2504 55.6696 84.6219 58.7066 81.0067 61.0672C78.6956 64.5913 79.7565 81.2779 81.1013 88.8941L81.1215 89.0226L81.054 89.1309C78.9591 92.4114 74.4113 93.5748 69.4648 93.5748V93.5816ZM43.9483 45.9025C44.2524 46.4165 45.9823 48.209 47.3811 49.6497C49.7936 52.1456 50.0301 52.4297 50.0571 52.6664C50.172 53.6269 48.8408 81.4876 48.1177 85.1537C48.0231 86.8041 51.5168 89.1038 56.8214 90.8219C65.9576 93.7912 76.9521 94.0618 80.412 88.8806C79.0267 80.8653 78.0063 64.2057 80.4931 60.6276L80.5877 60.5397C84.0138 58.3278 84.6152 55.4396 84.6219 55.4126C85.1355 53.9516 83.9732 48.9868 82.0473 45.659C78.655 40.5725 74.2897 39.6188 68.7755 38.4148L67.5997 38.1577C63.356 37.2176 58.9636 36.2435 54.1454 37.5152C50.0233 38.6042 43.901 44.8743 43.9618 45.9025H43.9483Z" fill="#1A2E35"/>
<path d="M52.825 104.359C52.7101 104.359 52.6087 104.278 52.5884 104.163C52.5817 104.109 51.6018 98.4473 52.5884 92.867C52.6087 92.7385 52.7371 92.6506 52.8655 92.6709C52.9939 92.6912 53.0817 92.8197 53.0615 92.955C52.0951 98.4541 53.0547 104.028 53.0615 104.082C53.0817 104.217 52.9939 104.339 52.8655 104.366C52.852 104.366 52.8385 104.366 52.825 104.366V104.359Z" fill="#1A2E35"/>
<path d="M70.402 104.358C70.3007 104.358 70.2061 104.297 70.1723 104.189C70.1385 104.087 69.3681 101.693 68.4559 95.0844C68.4356 94.9491 68.5302 94.8274 68.6653 94.8139C68.8005 94.8003 68.9221 94.8883 68.9356 95.0236C69.8412 101.578 70.625 104.013 70.6318 104.04C70.6723 104.168 70.6048 104.304 70.4764 104.344C70.4493 104.351 70.4291 104.358 70.402 104.358Z" fill="#1A2E35"/>
<path d="M47.7973 94.3746C47.7298 94.3746 47.6622 94.3475 47.6149 94.2934C47.527 94.192 47.5406 94.0364 47.6419 93.9552C49.8449 92.0748 50.845 87.543 50.8585 87.5024C50.8855 87.3739 51.0207 87.286 51.1491 87.3198C51.2775 87.3468 51.3653 87.4753 51.3315 87.6039C51.291 87.7933 50.2909 92.3386 47.9595 94.3272C47.9122 94.3678 47.8582 94.3813 47.8041 94.3813L47.7973 94.3746Z" fill="#1A2E35"/>
<path d="M75.8334 95.7113C75.7794 95.7113 75.7253 95.691 75.678 95.6572C73.3466 93.6686 72.3465 89.1232 72.306 88.9338C72.2789 88.8053 72.36 88.6768 72.4884 88.6497C72.6168 88.6227 72.7452 88.7038 72.779 88.8324C72.7858 88.8797 73.7859 93.4048 75.9956 95.2852C76.097 95.3731 76.1105 95.5219 76.0226 95.6234C75.9753 95.6775 75.9077 95.7045 75.8402 95.7045L75.8334 95.7113Z" fill="#1A2E35"/>
<path d="M70.0757 93.4499C62.933 93.4499 52.5466 90.8458 48.5529 87.0445C48.4583 86.9498 48.4516 86.801 48.5462 86.6995C48.6408 86.6048 48.7895 86.598 48.8908 86.6927C52.5939 90.2167 64.5683 93.8084 72.7449 92.8209C76.5427 92.3609 79.1781 91.0149 80.5702 88.8301C80.6445 88.7151 80.7932 88.6813 80.9013 88.7557C81.0162 88.8301 81.0432 88.9789 80.9756 89.0872C79.4957 91.4004 76.7454 92.8141 72.799 93.2943C71.9678 93.3958 71.0555 93.4432 70.0757 93.4432V93.4499Z" fill="#1A2E35"/>
<path d="M49.8437 59.0032C49.7085 59.0032 49.6004 58.895 49.6004 58.7665C49.5734 55.5603 49.4855 50.3927 49.4652 50.1762C49.4652 50.1221 49.3841 46.7943 49.5869 44.7177C49.6004 44.5825 49.7153 44.4878 49.8504 44.5013C49.9856 44.5148 50.0802 44.6298 50.0667 44.7651C49.8639 46.8146 49.945 50.1086 49.945 50.1424C49.9653 50.3048 50.0531 55.8038 50.0802 58.7597C50.0802 58.895 49.9721 59.0032 49.8437 59.0032Z" fill="#533CD6"/>
<path d="M62.6344 36.087C62.1141 37.5886 60.9451 37.7374 60.5937 38.38C59.6003 40.1657 60.2085 42.7698 63.0331 42.8916C64.8104 42.966 69.5609 40.6189 70.4867 39.2323C70.1894 38.4815 68.8716 37.9877 69 36.777C69.0473 36.3508 69.7028 34.6193 69.2906 34.3352C68.0743 33.4829 65.4861 35.0657 64.1819 35.3633C63.6346 35.485 62.9993 35.6203 62.6412 36.087H62.6344Z" fill="#FF9388"/>
<path d="M63.7071 38.737C63.5922 38.737 63.4841 38.7235 63.3895 38.7032C62.6529 38.507 62.2474 37.905 61.9771 37.4992C61.9028 37.391 61.9298 37.2354 62.0447 37.161C62.1528 37.0866 62.3082 37.1136 62.3826 37.2286C62.6867 37.6818 63.0043 38.0944 63.5178 38.2365C64.072 38.3853 65.7343 37.8103 67.8427 36.4305C67.9575 36.3561 68.1062 36.3899 68.1805 36.4981C68.2549 36.6131 68.2211 36.7619 68.113 36.8363C66.2884 38.0268 64.6328 38.7438 63.7206 38.7438L63.7071 38.737Z" fill="#DD7A64"/>
<path d="M63.3153 44.049C62.349 44.049 61.4638 43.8325 60.7069 43.3997C59.9095 42.8112 59.2676 41.4855 59.1257 40.1733C59.0446 39.3886 59.0986 38.2658 59.8487 37.4136C59.9366 37.3121 60.092 37.3053 60.1866 37.3933C60.288 37.4812 60.2947 37.6368 60.2069 37.7315C59.5717 38.4552 59.5311 39.4292 59.5987 40.1191C59.7271 41.2961 60.3015 42.5068 60.9637 42.9938C62.9099 44.1099 65.3291 43.3523 66.5995 42.8044C68.9579 41.7763 70.85 40.0042 71.0662 39.0572C71.0933 38.9287 71.2284 38.8475 71.3568 38.8746C71.4852 38.9016 71.5663 39.0369 71.5393 39.1654C71.2555 40.3762 69.0863 42.2498 66.7955 43.2509C65.5656 43.7852 64.3898 44.0558 63.3086 44.0558L63.3153 44.049Z" fill="#1A2E35"/>
<path d="M64.0251 33.9238C63.9778 33.9238 63.9305 33.9103 63.89 33.8832L63.7075 33.7615C63.667 33.7344 63.667 33.7344 63.6129 33.6938C63.5048 33.6127 63.4778 33.4503 63.5589 33.3489C63.64 33.2474 63.7819 33.2204 63.89 33.3015L63.9103 33.3151L64.1603 33.4909C64.2684 33.5653 64.2954 33.7141 64.2211 33.8291C64.1738 33.8968 64.0995 33.9306 64.0251 33.9306V33.9238Z" fill="#DD7A64"/>
<path d="M53.3603 47.4651C46.0284 59.3832 31.5537 63.7798 21.039 57.2999C19.2212 56.1771 15.3018 52.6057 14.072 50.4548C9.19303 41.9051 9.21331 33.829 15.2816 23.9739C22.6135 12.0626 37.1895 5.88034 47.3393 12.9216C57.8811 20.2334 60.699 35.547 53.3603 47.4651Z" fill="#04722B"/>
<path d="M51.5303 45.1659C58.8661 33.2491 56.2872 18.3303 45.7702 11.8439C35.2531 5.3575 20.7805 9.75974 13.4447 21.6766C6.10895 33.5934 8.68785 48.5122 19.2049 54.9986C29.7219 61.485 44.1945 57.0827 51.5303 45.1659Z" fill="#00953B"/>
<path d="M48.051 43.0164C54.0457 33.2781 51.938 21.0865 43.3432 15.7857C34.7485 10.4848 22.9214 14.0821 16.9267 23.8204C10.9319 33.5587 13.0397 45.7503 21.6344 51.0511C30.2292 56.3519 42.0562 52.7546 48.051 43.0164Z" fill="#04722B"/>
<path d="M47.2031 42.5013C52.8709 33.2941 50.8767 21.7666 42.7491 16.7538C34.6214 11.7411 23.438 15.1413 17.7702 24.3485C12.1024 33.5557 14.0966 45.0832 22.2243 50.0959C30.3519 55.1087 41.5353 51.7084 47.2031 42.5013Z" fill="#F7F7F7"/>
<path d="M19.8822 26.0513C25.5518 16.8456 36.7287 13.4433 44.8581 18.4554C45.0405 18.5636 45.2162 18.6854 45.3919 18.8004C44.6013 18.036 43.7228 17.3461 42.7565 16.7509C34.6271 11.7388 23.4502 15.1411 17.7806 24.3468C12.2394 33.3496 14.0234 44.571 21.7 49.7454C15.8479 44.0772 14.8884 34.1613 19.8822 26.0513Z" fill="#E2E2E2"/>
<path d="M45.0495 31.6458C47.0086 30.1825 46.9087 26.7318 44.8263 23.9384C42.7439 21.145 39.4676 20.0668 37.5084 21.5301C35.5492 22.9934 35.6491 26.4442 37.7315 29.2375C39.8139 32.0309 43.0903 33.1091 45.0495 31.6458Z" fill="white"/>
<path d="M37.5303 19.6671C37.8067 18.9451 37.093 17.9999 35.936 17.556C34.779 17.1122 33.6169 17.3377 33.3404 18.0598C33.064 18.7818 33.7778 19.727 34.9348 20.1709C36.0917 20.6147 37.2538 20.3892 37.5303 19.6671Z" fill="white"/>
<path d="M76.2564 81.3322L50.1317 50.0625L42.043 56.5221L65.2957 88.7793C68.1068 93.2841 75.9793 90.91 76.8578 86.209C77.1011 84.1325 76.5132 82.4551 76.2496 81.3255L76.2564 81.3322Z" fill="#04722B"/>
<path d="M64.7918 86.0997L41.5391 53.8424L49.6278 47.3828L74.9416 78.8081C80.6449 86.1944 68.4476 91.964 64.7918 86.1064V86.0997Z" fill="#00953B"/>
<path d="M57.8219 76.4389C61.0317 75.0658 64.201 73.0298 67.2689 69.2894L65.4444 67.0234C62.9711 70.2228 59.8627 72.5699 56.1055 74.0647L57.8219 76.4456V76.4389Z" fill="white"/>
<path d="M71.5265 74.5735L69.6952 72.3008C67.1746 75.6354 63.9648 78.0637 60.0859 79.5856L61.8023 81.9665C65.1068 80.5731 68.3707 78.4898 71.5265 74.5735Z" fill="white"/>
<path d="M77.3976 63.4979C77.303 63.4979 77.2084 63.4371 77.1746 63.3424C76.7827 62.3548 76.0799 59.9739 75.3298 57.4442L74.7689 55.557C74.7284 55.4285 74.8027 55.2933 74.9311 55.2527C75.0595 55.2188 75.1946 55.2865 75.2352 55.415L75.7961 57.3021C76.3299 59.1081 76.8435 60.8465 77.2354 62.0369C77.4381 59.7372 77.9112 58.2153 77.9314 58.1409C78.5126 56.3484 79.8776 55.07 81.6751 54.6304C83.0334 54.3057 84.3849 54.5627 85.1215 55.3C85.2161 55.3947 85.2161 55.5503 85.1215 55.645C85.0268 55.7397 84.8714 55.7397 84.7768 55.645C84.1551 55.0227 82.9793 54.813 81.7832 55.1039C81.0129 55.2933 79.1343 55.9764 78.3909 58.2897C78.3909 58.31 77.749 60.3662 77.6409 63.2544C77.6409 63.3694 77.553 63.4641 77.4381 63.4844C77.4246 63.4844 77.4111 63.4844 77.3976 63.4844V63.4979Z" fill="#1A2E35"/>
<path d="M67.5796 22.9867C66.3227 22.8447 65.032 23.5684 64.086 24.3192C63.2548 24.9753 61.5992 25.557 61.3694 27.5321C60.991 30.7044 60.2139 30.3594 60.1531 32.0098C60.1125 33.0312 61.7411 37.9959 63.4575 38.4694C64.2819 38.5979 67.012 37.7998 69.519 35.243C70.5665 34.1811 71.5666 32.835 72.4045 31.1846C73.06 29.8859 73.0465 27.5862 72.4045 26.2402C71.9382 25.2594 70.803 24.583 69.9042 24.0622C68.9717 23.5278 68.6135 23.1085 67.5729 22.9935L67.5796 22.9867Z" fill="#FF9388"/>
<path d="M69.7611 27.5576C69.4773 27.2126 69.7205 27.4899 68.8961 27.7943C68.4907 27.9431 68.0109 28.004 67.5852 28.0108C65.5444 28.0446 63.3617 27.3411 61.9291 25.711C59.7261 23.2084 59.2666 19.7858 61.1317 17.0735C61.7737 16.14 62.6859 15.0172 63.7401 14.6181C64.0239 14.5099 64.3213 14.4288 64.6186 14.3679C64.6592 14.3611 65.0038 14.3002 65.0105 14.3205C65.1457 14.6181 64.4835 15.4907 64.7673 15.8357C64.8754 15.9709 65.7404 15.3216 65.8282 15.5854C65.9431 15.9371 65.3822 17.0735 65.7674 17.3981C65.8214 17.4455 66.4904 16.9246 66.5445 16.8841C67.0919 16.4512 68.0379 15.7139 68.7407 16.2077C69.9841 17.087 71.0788 18.5548 71.4978 20.0699C71.6735 20.6922 71.7343 21.3347 71.8154 21.9773C71.8221 22.0314 71.8357 22.5049 71.9032 22.5455C72.0924 22.647 73.8156 21.957 75.0455 23.3504C76.1267 24.5747 76.0659 26.8 75.701 28.3963C75.1806 30.6758 73.5521 32.7929 71.9708 34.3553C71.3559 34.9641 69.3894 35.5458 69.3219 35.4579C69.2205 35.3361 71.0585 32.8673 71.0247 31.8662C70.9842 30.7705 69.903 31.0884 69.4638 31.6362C69.3759 31.7445 69.1664 32.0285 69.0718 31.7918C68.7948 31.1019 69.3556 30.527 69.6597 29.9655C70.1868 28.978 70.4571 28.3895 69.7746 27.5643L69.7611 27.5576Z" fill="#1A2E35"/>
<path d="M69.998 26.2246C69.8764 25.068 70.5859 24.0331 71.4103 23.2891C71.1468 24.4119 70.5386 25.2168 69.998 26.2246Z" fill="#C6C6C6"/>
<path d="M65.5583 22.8742C65.8826 24.4975 66.8963 25.9518 68.3221 26.7838C68.3559 26.8108 68.3762 26.8108 68.4302 26.9055C68.4708 26.9799 68.4437 27.1152 68.3762 27.1625C68.2478 27.2572 68.1532 27.2167 68.0383 27.2167C65.4975 27.0476 62.9904 25.4039 62.3822 22.8336C62.0849 21.5011 62.0714 19.7763 63.1053 18.7617C62.2673 19.8507 62.389 21.4741 62.7404 22.7322C63.4567 25.1266 65.7813 26.5944 68.187 26.8108C68.0991 26.8176 67.9842 26.9799 68.0586 27.1017C66.7544 26.3035 65.6056 24.5314 65.5515 22.881L65.5583 22.8742Z" fill="#C6C6C6"/>
<path d="M63.0948 33.9288C63.0948 33.9288 63.0407 33.9288 63.0137 33.9152C62.5339 33.7461 62.2569 33.5026 62.1555 33.178C61.973 32.5963 62.4326 31.9537 62.8718 31.3314C63.0948 31.0203 63.2975 30.7294 63.3989 30.4859C63.8381 29.4307 63.5408 28.2809 62.6083 27.4015C62.2636 27.0769 61.6149 26.6507 61.3243 26.6846C61.1892 26.6981 61.0675 26.6034 61.054 26.4749C61.0405 26.3396 61.1351 26.2179 61.2635 26.2043C61.9393 26.1232 62.9326 27.0363 62.9394 27.0498C64.0206 28.0644 64.3585 29.4172 63.8449 30.6685C63.7232 30.9661 63.5002 31.2773 63.2637 31.6087C62.9056 32.1093 62.5069 32.6707 62.615 33.0292C62.6691 33.1982 62.8583 33.3471 63.1759 33.4553C63.3043 33.5026 63.3651 33.6379 63.3245 33.7664C63.2908 33.8679 63.1962 33.9288 63.0948 33.9288Z" fill="#DD7A64"/>
<path d="M62.4913 28.5362C62.7684 28.3739 63.14 28.6918 63.2414 28.9826C63.4036 29.4358 63.2617 29.9837 62.8157 30.2137C62.2548 30.5045 62.2481 29.5981 62.3832 29.3005C62.4373 29.1855 62.5657 29.0908 62.5994 28.9691C62.6197 28.8879 62.4373 28.57 62.4913 28.543V28.5362Z" fill="#162243"/>
<path d="M66.494 29.7927C66.6494 29.6912 66.8251 29.9483 66.9332 30.0768C67.2103 30.4082 67.3657 30.9493 67.0143 31.2943C66.7643 31.5378 66.0548 31.646 66.0345 31.1523C66.021 30.902 66.1156 30.6382 66.2845 30.4556C66.3453 30.3879 66.467 30.3541 66.494 30.2662C66.5413 30.1309 66.3791 29.8671 66.494 29.7995V29.7927Z" fill="#162243"/>
<path d="M68.056 30.1761C67.9479 30.1761 67.8533 30.1084 67.8262 30.0002C67.6978 29.5538 67.1302 29.2021 66.6639 29.1006C66.5964 29.0871 66.5153 29.0736 66.4342 29.0668C66.1233 29.033 65.6909 28.9789 65.5219 28.546C65.4746 28.4242 65.5354 28.2822 65.6571 28.2348C65.7787 28.1875 65.9206 28.2483 65.9679 28.3701C66.0287 28.5189 66.1774 28.5527 66.4882 28.5865C66.5828 28.6001 66.6775 28.6068 66.7653 28.6271C67.3667 28.7624 68.0965 29.2021 68.2925 29.8649C68.3263 29.9934 68.2587 30.1287 68.1303 30.1625C68.1101 30.1625 68.083 30.1693 68.0628 30.1693L68.056 30.1761Z" fill="#DD7A64"/>
<path d="M64.2155 36.1692C64.8237 36.115 65.5603 35.3304 66.7091 34.2617C66.7091 34.2617 65.8373 34.5526 65.736 34.5729C65.0602 34.6946 62.8438 34.4782 62.8438 34.4782C62.9451 34.8705 63.2289 36.2503 64.2155 36.1692Z" fill="#162243"/>
<path d="M63.1205 35.0395C63.5935 35.513 64.9315 35.4656 65.4518 34.9989C65.5802 34.8839 66.06 34.5863 65.9586 34.5998C65.2829 34.7216 63.2759 34.4375 63.2759 34.4375C63.2759 34.4375 62.8637 34.7216 63.1137 35.0327L63.1205 35.0395Z" fill="white"/>
<path d="M64.5522 34.9241C64.0386 34.9241 63.4845 34.8497 62.802 34.7077C62.6804 34.6806 62.5993 34.5589 62.6263 34.4371C62.6533 34.3154 62.775 34.2342 62.8966 34.2613C64.559 34.6062 65.3226 34.5048 66.6403 34.0516C66.7619 34.011 66.8903 34.0719 66.9309 34.1936C66.9714 34.3154 66.9106 34.4439 66.7889 34.4845C65.924 34.7821 65.2685 34.9241 64.559 34.9241H64.5522Z" fill="#DD7A64"/>
<path d="M67.0336 34.7438C66.993 34.7438 66.9457 34.7303 66.9119 34.71C66.716 34.6018 66.5741 34.2095 66.5605 33.7563C66.5605 33.6278 66.6552 33.5263 66.7835 33.5195C66.8984 33.5195 67.0133 33.6142 67.0201 33.7427C67.0268 34.0809 67.1282 34.2906 67.162 34.3244C67.2701 34.3853 67.2971 34.5206 67.2363 34.6288C67.1958 34.7032 67.1147 34.737 67.0336 34.737V34.7438Z" fill="#DD7A64"/>
<path d="M63.9728 37.3046C63.9052 37.3046 63.8376 37.2708 63.7836 37.2099C63.7025 37.1085 63.7363 36.9394 63.8376 36.8582C63.9457 36.7703 64.1012 36.7635 64.3444 36.75H64.4053C64.5539 36.75 64.6485 36.8447 64.6553 36.98C64.6553 37.1153 64.5539 37.2235 64.4255 37.2302H64.358C64.2836 37.2302 64.1417 37.237 64.1012 37.2505C64.0606 37.2844 64.0133 37.2979 63.966 37.2979L63.9728 37.3046Z" fill="#DD7A64"/>
<path d="M74.9382 78.8058L49.8204 47.6308C50.4218 46.8462 50.9962 46.0277 51.5233 45.1687C58.8552 33.2506 56.2806 18.3361 45.7591 11.8495C35.2511 5.36286 20.7765 9.76619 13.4445 21.6775C6.11262 33.5956 8.68724 48.5101 19.2087 54.9967C26.1622 59.2851 34.8457 58.8116 42.0492 54.5503L64.7883 86.1041C68.4442 91.9617 80.6415 86.1921 74.9382 78.8058Z" stroke="#1A2E35" stroke-width="1.37105" stroke-linecap="round" stroke-linejoin="round"/>
<path d="M59.4177 74.9848C59.6001 74.9983 61.526 74.9916 61.1949 74.4099C61.0868 74.2205 60.5124 74.2137 60.3299 74.2002C59.5798 74.1326 58.8568 73.8485 58.1337 73.6794C58.0121 73.6523 57.4445 73.5509 57.3972 73.3953C57.2012 72.7798 59.1609 72.1913 58.8771 71.5961C58.5324 70.8926 57.012 71.7314 56.0119 71.569C52.3966 70.9806 47.7339 64.4263 42.74 57.5C42.74 57.9261 42.6387 58.5349 42.5644 59.2992C42.044 59.3669 41.7061 59.9418 41.6994 60.3003C41.6859 60.6452 42.49 61.0173 42.5035 61.4028C42.6252 64.0543 43.6253 67.673 47.7947 71.7381C50.1733 74.0582 52.552 76.0806 55.0523 77.359C55.7145 77.6972 57.5458 78.448 58.2824 78.0354C58.404 77.9677 58.2148 77.8663 58.1945 77.8527C57.8769 77.6295 56.0456 76.9531 56.4308 76.669C56.4308 76.669 58.7284 77.1425 59.0122 77.156C59.1744 77.1628 59.8164 77.2507 59.8637 77.0343C59.938 76.7096 58.6203 76.3038 58.377 76.2226C58.3364 76.2091 57.7215 75.9182 57.7485 75.9047C57.8026 75.8709 59.769 76.2023 60.1677 76.1685C60.3502 76.155 61.0192 76.1617 61.0192 75.8641C61.0192 75.4245 59.0595 75.0457 58.7351 74.8766C58.5324 74.7684 59.1879 74.978 59.4177 74.9916V74.9848Z" fill="#FF9388"/>
<path d="M84.4561 67.8475C85.3684 61.4218 83.733 54.8404 83.733 54.8404C83.733 54.8404 80.3408 54.367 78.1716 58.0127C79.5434 66.9479 78.8068 71.2295 76.0159 75.8019C75.8064 76.0657 75.6172 76.3295 75.4415 76.5865C71.8195 81.3348 69.5625 81.2401 67.9272 80.5029C67.2852 80.2188 65.6228 78.9539 65.3525 79.2515C64.6295 80.0294 66.3256 81.0575 65.8729 81.5175C65.758 81.6324 65.2039 81.4701 65.089 81.4431C64.3659 81.2672 63.5956 81.1996 62.8928 80.929C62.7238 80.8614 62.2035 80.6111 62.0211 80.7328C61.4669 81.1116 63.1901 81.9706 63.3591 82.0383C63.5753 82.1262 64.2511 82.2344 64.0213 82.2344C63.6564 82.2344 61.7305 81.7069 61.5413 82.0992C61.4129 82.3697 62.0143 82.6606 62.1697 82.7553C62.5144 82.9649 64.42 83.5466 64.4538 83.6008C64.4741 83.6278 63.7915 83.6143 63.751 83.6075C63.4942 83.5669 62.1359 83.3437 62.0549 83.6684C62.0075 83.8848 62.6157 84.0945 62.7644 84.1554C63.0279 84.2704 65.2917 84.8656 65.2917 84.8724C65.5147 85.2985 63.5685 85.0888 63.1834 85.1429C63.1563 85.1429 62.9401 85.1497 63.0212 85.2715C63.4942 85.9681 65.4674 86.1102 66.2107 86.1034C69.0151 86.0696 73.4954 84.1081 75.9686 82.4035C79.4623 80.2255 82.3477 76.0184 84.0439 69.9038C84.0844 69.7685 84.1182 69.6332 84.152 69.4912C84.4831 69.3424 84.9629 68.9027 84.9629 68.5645C84.9629 68.3481 84.7264 68.0572 84.4629 67.834L84.4561 67.8475Z" fill="#FF9388"/>
</svg>
