<svg viewBox="0 0 118 98" fill="none" xmlns="http://www.w3.org/2000/svg">
<path d="M109.459 64.7292C100.521 64.2673 100.848 60.9101 103.059 57.9046C105.27 54.8992 102.477 53.8583 103.997 51.0288C105.83 47.6056 103.663 47.7082 104.797 44.2629C105.692 41.5361 107.263 41.4188 107.401 37.5264C107.539 33.6413 114.506 33.4214 113.001 38.8532C111.495 44.2849 115.372 42.9508 114.688 46.8945C113.779 52.1723 117.466 51.8791 116.303 55.9401C115.314 59.3927 122.827 65.4109 109.459 64.7218V64.7292Z" fill="#C4C4C4"/>
<path d="M113.132 57.0959L113.088 57.1985C113.088 57.1985 112.455 58.6719 109.801 60.2113V54.2298C111.517 52.5071 111.902 50.8798 111.917 50.8138L111.939 50.7039L111.502 50.6086L111.481 50.7185C111.481 50.7185 111.146 52.082 109.808 53.57V46.8555H109.357V54.0465H109.35L109.357 54.0685V57.4258C107.088 55.6445 106.702 53.3721 106.702 53.3501L106.688 53.2402L106.244 53.3135L106.259 53.4234C106.259 53.4234 106.673 56.0623 109.364 57.9975V68.905H109.815V60.7464C112.833 59.0531 113.495 57.4478 113.524 57.3745L113.561 57.2718L113.146 57.1032L113.132 57.0959Z" fill="#626363"/>
<path d="M94.1639 62.3637C68.8978 62.3637 87.2037 50.0415 85.5018 42.4473C83.8 34.8604 86.9564 32.2435 88.6583 25.7195C90.3601 19.1882 97.9676 18.6164 98.7822 26.2106C99.5895 33.7975 102.913 33.7169 102.666 42.3666C102.484 48.8979 108.986 51.7641 107.066 56.756C104.63 63.1041 94.1639 62.3637 94.1639 62.3637Z" fill="#AAAAAA"/>
<path d="M97.7703 42.2772L97.7412 42.4605C97.7412 42.4971 97.1521 46.3309 93.8211 49.2776V42.1233L93.8648 42.0793L93.8211 42.028V30.1016H93.2247V41.3389C90.4101 37.9303 89.7483 34.7416 89.741 34.705L89.7047 34.5291L89.1156 34.6464L89.1519 34.8296C89.181 34.9835 89.9447 38.5681 93.2247 42.2625V49.7908L93.1957 49.8128L93.2247 49.8494V56.6519C89.3337 53.1847 88.4101 49.8934 88.3955 49.8567L88.3519 49.6808L87.7773 49.8347L87.821 50.0107C87.8283 50.0473 88.7955 53.6905 93.2247 57.4509V66.5332H93.8211V57.2383L93.8575 57.2017L93.8211 57.1724V50.0693C97.6758 46.9319 98.3303 42.5924 98.3376 42.5484L98.3594 42.3652L97.7703 42.2845V42.2772Z" fill="#1A2E35"/>
<path d="M103.086 69.1746C99.6021 69.1746 100.038 65.4801 102.526 65.6267C105.013 65.7733 104.3 62.3867 107.29 62.3867C110.279 62.3867 109.02 64.3219 111.857 65.3188C114.701 66.3084 113.668 69.1746 112.119 69.1746H103.086Z" fill="#C4C4C4"/>
<path d="M14.9586 65.1161C31.519 64.2657 30.9154 58.0423 26.8135 52.4786C22.7115 46.9149 27.8826 44.9724 25.0825 39.7312C21.6861 33.3832 25.7007 33.5737 23.5988 27.1891C21.9333 22.1311 19.0314 21.9186 18.7769 14.7129C18.5151 7.50718 5.60566 7.10401 8.39846 17.1685C11.1913 27.2404 4.01289 24.7554 5.27111 32.071C6.95842 41.8497 0.121887 41.3145 2.28194 48.8428C4.11471 55.2421 -9.79836 66.3842 14.9586 65.1161Z" fill="#C4C4C4"/>
<path d="M20.2276 40.1778L20.1985 40.3611C20.1985 40.405 19.4348 44.7959 15.0347 48.1312V41.7685L15.0711 41.7245L15.0347 41.6878V28.332H14.4384V41.0794C11.7474 38.206 11.1074 35.5231 11.1001 35.4937L11.0565 35.3178L10.4746 35.4498L10.5183 35.633C10.5473 35.765 11.2746 38.7924 14.4384 41.9444V48.5783L14.4165 48.593L14.4384 48.6223V53.2771C9.3255 50.3449 8.12547 47.5521 8.1182 47.5301L8.05274 47.3615L7.5 47.5814L7.56546 47.75C7.61637 47.8746 8.85276 50.8507 14.4456 53.9661V69.1325H15.042V53.6216V53.6143V48.8789C19.9876 45.3457 20.7876 40.5003 20.7949 40.449L20.824 40.2658L20.2349 40.1778H20.2276Z" fill="#545656"/>
<path d="M13.6913 71.977H27.8517C29.9317 71.977 30.3535 68.6563 28.368 67.9013C26.3825 67.139 24.3388 67.095 23.6261 64.3388C22.8915 61.5093 19.2333 59.5888 16.215 61.3847C13.1967 63.1806 14.084 65.7022 9.52393 65.1011C4.96382 64.5001 2.20739 67.4175 2.71649 69.8439C3.21832 72.2702 6.46931 71.977 7.34206 71.977H13.6913Z" fill="#AAAAAA"/>
<path d="M31.5393 73.3458C35.8231 73.3458 35.2849 68.8083 32.2302 68.9843C29.1756 69.1675 30.0484 65.0039 26.3756 65.0039C22.7027 65.0039 24.2519 67.3863 20.7609 68.6031C17.2699 69.8199 18.5426 73.3385 20.4409 73.3385H31.5393V73.3458Z" fill="#C4C4C4"/>
<path d="M81.2891 67.6091H83.9873V50.2583C83.9873 49.9358 83.7255 49.6719 83.4055 49.6719H81.8709C81.5509 49.6719 81.2891 49.9358 81.2891 50.2583V67.6091Z" fill="#E59293"/>
<path d="M83.9883 71.4609H86.6865V78.0582C86.6865 78.3881 86.4247 78.652 86.0974 78.652H84.5774C84.2501 78.652 83.9883 78.3881 83.9883 78.0582V71.4609Z" fill="#777777"/>
<path d="M32.6406 71.4609H35.3389V78.0582C35.3389 78.3881 35.0771 78.652 34.7498 78.652H33.2297C32.9025 78.652 32.6406 78.3881 32.6406 78.0582V71.4609Z" fill="#777777"/>
<path d="M35.3379 67.6091H38.0361V50.2583C38.0361 49.9358 37.7743 49.6719 37.4543 49.6719H35.9197C35.5997 49.6719 35.3379 49.9358 35.3379 50.2583V67.6091Z" fill="#E59293"/>
<path d="M29.959 52.5438C29.959 51.7008 30.6426 51.0117 31.479 51.0117H87.7859C88.6223 51.0117 89.3059 51.7008 89.3059 52.5438V56.0476H29.959V52.5438Z" fill="#C4C4C4"/>
<path d="M89.3132 61.1016V64.6054C89.3132 65.4484 88.6295 66.1375 87.7931 66.1375H31.479C30.6426 66.1375 29.959 65.4484 29.959 64.6054V61.1016H89.3059H89.3132Z" fill="#C4C4C4"/>
<path d="M89.3059 56.0391H29.959V61.1043H89.3059V56.0391Z" fill="#AAAAAA"/>
<path d="M29.1306 71.4609L90.1358 71.4609C90.8267 71.4609 91.3867 70.8965 91.3867 70.2001V68.8587C91.3867 68.1623 90.8267 67.5979 90.1358 67.5979L29.1306 67.5979C28.4398 67.5979 27.8797 68.1623 27.8797 68.8587V70.2001C27.8797 70.8965 28.4398 71.4609 29.1306 71.4609Z" fill="#AAAAAA"/>
<path d="M33.248 54.1423C33.3426 54.1423 33.4299 54.1423 33.5244 54.1497C34.3244 54.201 35.0881 54.3622 35.8154 54.6041C36.1645 52.8962 36.4263 51.694 36.87 49.8834C37.3209 48.0582 38.0991 45.192 38.5136 43.3301C38.9209 41.4682 39.4737 38.7853 39.7355 37.4073C39.9973 36.0218 39.9391 35.2375 40.0482 34.5264C40.1573 33.8154 40.0191 34.6217 40.0919 34.1746C39.8955 33.8081 39.7064 33.4122 39.5173 33.0164C39.0155 33.0604 38.5136 33.075 38.0118 33.0384C37.1827 32.9871 36.3608 32.8918 35.6045 32.6719C35.5463 32.9504 35.5172 33.1777 35.4663 33.4709C35.1245 35.3987 35.219 37.0554 34.8845 39.0712C34.5499 41.0871 33.9753 42.3186 33.9099 44.8329C33.8517 47.3032 33.539 51.3202 33.2553 54.1277L33.248 54.1423Z" fill="#D68A7D"/>
<path d="M33.772 58.4536C33.772 58.4536 33.7939 58.4536 33.7866 58.4536C33.7866 58.4536 33.6987 58.3945 33.6914 58.3945C33.6914 58.3945 33.7573 58.4536 33.772 58.4536Z" fill="#0E334F"/>
<path d="M52.633 92.3526C53.2658 92.3526 53.753 92.0448 54.1094 91.7076C53.7749 90.6593 53.1858 89.875 53.1858 89.875L50.793 90.0069V91.4364C50.793 91.4364 51.2512 92.36 52.6257 92.36L52.633 92.3526Z" fill="#1A2E35"/>
<path d="M54.2598 92.3379C54.2235 92.118 54.1653 91.9054 54.0998 91.7001C53.7507 92.0373 53.2562 92.3452 52.6234 92.3452C51.2416 92.3452 50.7907 91.4216 50.7907 91.4216V89.9922L49.4015 90.0655C49.4015 90.0655 49.2852 91.9787 48.9215 92.5725C48.8052 92.763 48.6379 92.9536 48.4633 93.1296C49.0961 93.4154 49.5179 93.738 49.5179 93.738C48.6961 93.7233 47.656 93.8406 47.656 93.8406C47.656 93.8406 44.9651 94.5296 44.6596 95.0354C44.536 95.2334 44.4778 95.5266 44.4414 95.8051C44.8778 95.9371 45.576 96.0544 46.6669 96.003C48.4488 95.9224 52.798 95.27 54.4053 95.0281C54.4053 94.1411 54.3835 93.0416 54.2598 92.3306V92.3379Z" fill="#1A2E35"/>
<path d="M49.5162 93.7451C49.5162 93.7451 49.0943 93.4226 48.4616 93.1367C48.0761 93.5252 47.6543 93.8404 47.6543 93.8404C47.6543 93.8404 48.6943 93.7231 49.5162 93.7378V93.7451Z" fill="#2E454C"/>
<path d="M44.4168 96.6586C44.4168 96.6586 45.1804 96.8125 46.5768 96.8272C47.9732 96.8418 50.4605 96.6293 50.4605 96.6293L51.006 96.2334L51.4133 96.6293C52.4315 96.6146 54.3806 96.4753 54.3806 96.4753C54.3806 96.4753 54.4097 95.8449 54.4097 95.0312C52.8024 95.2805 48.4532 95.9255 46.6714 96.0062C45.5804 96.0575 44.8822 95.9402 44.4458 95.8083C44.3949 96.2407 44.4168 96.6513 44.4168 96.6513V96.6586Z" fill="#1A2E35"/>
<path d="M39.0724 92.6564C39.6979 92.7297 40.0324 92.4438 40.4252 92.1506C40.2143 91.0731 39.9088 90.2521 39.9088 90.2521L37.5233 90.1055L37.3633 91.5202C37.3633 91.5202 37.7124 92.4951 39.0797 92.6491L39.0724 92.6564Z" fill="#1A2E35"/>
<path d="M40.5025 92.8094C40.4879 92.5895 40.4588 92.3696 40.4152 92.157C40.0297 92.4503 39.6952 92.7361 39.0624 92.6628C37.6951 92.5016 37.346 91.534 37.346 91.534L37.506 90.1192L36.1242 90.0312C36.1242 90.0312 35.7896 91.9225 35.3605 92.4649C35.2224 92.6408 35.0333 92.8094 34.8369 92.9707C35.4333 93.3226 35.8187 93.6964 35.8187 93.6964C35.0042 93.5864 33.9569 93.5864 33.9569 93.5864C33.9569 93.5864 30.7786 93.7917 30.415 94.2608C30.2695 94.4441 30.175 94.73 30.1095 95.0012C30.5241 95.1771 31.6441 95.5436 32.7277 95.6243C34.5023 95.7489 38.9024 95.6023 40.5243 95.5436C40.6261 94.664 40.5388 93.5351 40.4952 92.8168L40.5025 92.8094Z" fill="#1A2E35"/>
<path d="M35.819 93.6866C35.819 93.6866 35.4336 93.3201 34.8372 92.9609C34.4153 93.3055 33.9572 93.5694 33.9572 93.5694C33.9572 93.5694 35.0045 93.5693 35.819 93.6793V93.6866Z" fill="#2E454C"/>
<path d="M29.9877 95.8317C29.9877 95.8317 31.166 96.2422 32.5478 96.4182C33.9297 96.5941 36.817 96.726 36.817 96.726L37.1734 96.1763L37.3697 96.7774C38.3807 96.88 40.4389 96.924 40.4389 96.924C40.4389 96.924 40.5771 96.1763 40.5262 95.5385C38.9043 95.5972 34.5042 95.7438 32.7296 95.6192C31.646 95.5459 30.5259 95.1794 30.1114 94.9961C30.0096 95.4213 29.9805 95.8317 29.9805 95.8317H29.9877Z" fill="#1A2E35"/>
<path d="M81.703 71.2456C81.703 71.2456 83.0776 72.9829 83.6449 78.1361C84.2049 83.2893 84.1758 90.495 85.2086 93.4931C85.2086 93.4931 81.0121 96.5058 80.1175 96.0807C79.223 95.6555 82.4812 92.848 82.4812 92.848C82.4812 92.848 78.4521 80.7677 77.8848 72.1839L81.703 71.2383V71.2456Z" fill="#D68A7D"/>
<path d="M69.0834 95.5504V94.832L69.2871 94.876C69.5198 94.9273 69.818 94.9786 70.1671 95.0153L71.3671 95.1472L69.0762 95.5431L69.0834 95.5504Z" fill="#5CC2AF"/>
<path d="M75.219 73.0586L71.2916 73.1832C70.0697 81.701 72.3752 93.7227 72.3752 93.7227C72.3752 93.7227 70.1861 93.9573 69.0879 94.2872L69.2479 95.0495C69.5024 95.1082 69.8079 95.1521 70.1497 95.1888L72.3098 95.8705L74.048 95.0422L74.0771 95.3501C74.4698 95.3501 74.7098 95.3501 74.7098 95.3501C74.3171 92.198 75.1826 85.3735 75.699 80.213C76.2081 75.0524 75.2262 73.0586 75.2262 73.0586H75.219Z" fill="#D68A7D"/>
<path d="M72.5482 23.8008C70.6209 23.8008 68.5117 27.202 68.1336 29.3791C67.7554 31.5636 67.4499 36.6801 66.5117 39.2897C66.5117 39.2897 65.0571 38.9818 63.5807 38.7473C61.9007 38.4834 57.8788 38.3588 57.8788 38.3588C57.8788 38.3588 57.0933 38.4247 57.5151 40.4699C57.5151 40.4699 61.9589 42.1265 64.4389 42.8449C66.679 43.49 68.6718 43.0062 69.1299 42.7423C69.5809 42.4711 71.1955 40.1254 72.1191 36.4895C73.0428 32.8537 76.0319 23.8081 72.5482 23.8081V23.8008Z" fill="#04722B"/>
<path d="M66.7417 43.4545C66.0144 43.4545 65.1926 43.3666 64.3635 43.1247C61.898 42.4136 57.4615 40.7643 57.4178 40.7423C57.3233 40.7057 57.2578 40.625 57.236 40.5297C57.0251 39.5108 57.0687 38.7851 57.3742 38.382C57.5778 38.1107 57.8179 38.0741 57.8615 38.0741C58.0579 38.0741 61.9489 38.206 63.6289 38.4699C64.7344 38.6459 65.8399 38.8658 66.3199 38.9611C66.909 37.1651 67.2363 34.3283 67.4981 32.0339C67.6217 30.9564 67.7308 30.0181 67.8472 29.3437C68.2399 27.0566 70.4363 23.5234 72.5455 23.5234C73.1273 23.5234 73.5928 23.7433 73.9201 24.1758C75.2947 25.9937 73.811 31.3815 72.8364 34.9514C72.6691 35.5598 72.5164 36.1096 72.4 36.5641C71.4982 40.1046 69.8909 42.6335 69.28 43.0001C68.909 43.22 67.949 43.4619 66.749 43.4619L66.7417 43.4545ZM57.7669 40.2512C58.567 40.5444 62.3343 41.9298 64.5235 42.5602C66.7344 43.198 68.6399 42.6849 68.9818 42.4869C69.3527 42.267 70.9164 40.024 71.8328 36.4101C71.9491 35.9483 72.1018 35.3912 72.2691 34.7828C73.1564 31.5355 74.6474 26.1037 73.4546 24.5204C73.2437 24.2345 72.9455 24.0952 72.5455 24.0952C70.8073 24.0952 68.7709 27.3718 68.4218 29.4317C68.3054 30.0914 68.2036 31.015 68.0799 32.0852C67.8036 34.5189 67.4545 37.5463 66.7854 39.3862C66.7344 39.5255 66.5963 39.6061 66.4508 39.5768C66.4363 39.5768 64.9817 39.2689 63.5344 39.0417C61.8907 38.7851 57.9124 38.6532 57.8688 38.6532C57.8033 38.6825 57.5415 39.0417 57.7669 40.2512Z" fill="#1A2E35"/>
<path d="M79.8096 12.4145C79.8096 12.4145 84.5297 10.6626 83.0678 16.2849C81.7441 21.3648 77.6786 21.0056 77.4531 17.6483L79.8096 12.4072V12.4145Z" fill="#1A2E35"/>
<path d="M66.0817 11.5805C66.0817 11.5805 64.6708 10.9134 64.6562 8.72168C64.6562 8.72168 65.0926 3.42188 73.1655 3.42188C81.2385 3.42188 80.4239 11.7418 79.2021 14.5859C79.2021 14.5859 79.0784 16.2279 77.922 17.7966C76.7656 19.3653 74.7438 20.2596 74.7438 20.2596C74.7438 20.2596 74.7947 13.2885 66.0745 11.5805H66.0817Z" fill="#1A2E35"/>
<path d="M81.9492 27.8797C82.2329 27.9823 82.5092 28.0483 82.7711 28.0849C82.7129 27.8943 82.6547 27.7111 82.5965 27.5352L81.9492 27.8723V27.8797Z" fill="#0E334F"/>
<path d="M83.0285 28.9592C82.9631 28.6587 82.8976 28.3728 82.8249 28.1016C82.8103 28.1016 82.7958 28.1016 82.7812 28.1016C82.8685 28.3801 82.9485 28.666 83.0285 28.9665V28.9592Z" fill="#F2AAB2"/>
<path d="M86.5672 68.8978C86.4653 68.5239 86.3781 68.1647 86.2981 67.8129C85.6435 64.9834 85.5635 62.667 86.1453 58.3714C86.7999 53.5334 87.3672 50.3081 85.4908 45.9906C85.2289 45.3821 85.0107 44.6638 84.8289 43.8574C83.8762 39.6352 83.9053 33.1479 83.018 28.9623C82.8798 28.4565 82.7416 27.98 82.5889 27.5475C82.6471 27.7234 82.7052 27.9067 82.7634 28.0973C82.778 28.0973 82.7925 28.0973 82.8071 28.0973C82.7125 27.7528 82.618 27.4302 82.5089 27.137C80.8506 22.6435 75.6869 22.9294 75.6869 22.9294C72.1886 22.9294 70.8359 24.4541 70.3122 26.1548C69.8686 27.6135 70.0358 29.1968 69.9922 30.0471C69.8977 31.8797 67.7521 33.6903 68.6322 36.3805C69.5049 39.0708 70.6031 42.9998 71.025 47.2221C71.4468 51.4443 69.5704 53.7167 68.8649 61.3549C68.1594 68.9931 68.4431 77.8627 68.4431 77.8627C72.8286 80.0911 74.4723 78.3612 79.4252 79.0942C84.378 79.8273 87.2654 78.5225 87.2654 78.5225C85.338 74.6814 87.4544 72.2624 86.5599 68.8904L86.5672 68.8978Z" fill="#00953B"/>
<path d="M82.4168 79.6144C81.5222 79.6144 80.5113 79.5484 79.3986 79.3872C77.4858 79.1013 76.053 79.1966 74.7875 79.2772C72.7875 79.4018 71.0638 79.5191 68.3292 78.1263C68.2346 78.075 68.1765 77.9797 68.1692 77.8771C68.1692 77.7891 67.8928 68.9048 68.591 61.3326C68.9256 57.6968 69.5292 55.2485 70.0165 53.2766C70.5693 51.0409 70.9693 49.4282 70.7511 47.2584C70.4165 43.9305 69.6165 40.3093 68.3728 36.4829C67.791 34.6943 68.4528 33.2795 69.0419 32.0334C69.3692 31.337 69.682 30.6699 69.7183 30.0469C69.7256 29.8416 69.7256 29.5851 69.7183 29.2992C69.711 28.4195 69.6965 27.2174 70.0456 26.0812C70.7438 23.8015 72.642 22.6506 75.6967 22.6506C75.733 22.6506 81.0786 22.4087 82.7877 27.0488C82.8968 27.3566 82.9986 27.6865 83.0932 28.0384C83.1077 28.0824 83.1077 28.1337 83.0932 28.1776C83.1587 28.4049 83.2314 28.6468 83.2968 28.896C83.7332 30.9632 83.9587 33.6094 84.1696 36.1677C84.395 38.8652 84.6278 41.6581 85.1078 43.8059C85.2969 44.6488 85.5078 45.3306 85.7478 45.8803C87.5733 50.0733 87.1297 53.2913 86.5187 57.7481L86.4242 58.4152C85.8714 62.5055 85.9078 64.8658 86.5696 67.754C86.6496 68.1058 86.7369 68.4577 86.8387 68.8315C87.2315 70.3196 87.0642 71.639 86.8969 72.9145C86.6715 74.6444 86.4606 76.2791 87.5224 78.4049C87.5588 78.4782 87.566 78.5588 87.5369 78.6321C87.5078 78.7054 87.4569 78.7714 87.3842 78.8007C87.2897 78.8447 85.5223 79.6217 82.4023 79.6217L82.4168 79.6144ZM76.7876 78.6028C77.5803 78.6028 78.4604 78.6541 79.4786 78.8007C83.4132 79.3872 86.046 78.6468 86.8751 78.3609C85.8933 76.2131 86.1115 74.4905 86.3296 72.8192C86.4969 71.5437 86.6496 70.3416 86.286 68.9635C86.1842 68.5896 86.0969 68.2231 86.0169 67.8712C85.3333 64.9025 85.2896 62.4908 85.8569 58.3199L85.9514 57.6528C86.5696 53.13 86.9842 50.1392 85.2242 46.1002C84.9696 45.5065 84.7441 44.7954 84.5478 43.9158C84.0532 41.724 83.8205 38.9165 83.595 36.197C83.3841 33.6607 83.1659 31.0365 82.7368 29.0133C82.6641 28.7274 82.5841 28.4562 82.5041 28.1996C82.5041 28.1923 82.4968 28.185 82.4968 28.1703C82.4386 27.9871 82.3805 27.8038 82.3223 27.6352C82.3004 27.5692 82.3004 27.5033 82.3223 27.4446C82.3004 27.3713 82.2714 27.3053 82.2495 27.232C80.6859 23.0024 75.9221 23.2077 75.7185 23.215C72.8966 23.215 71.2311 24.2046 70.6056 26.2351C70.2856 27.2833 70.2929 28.4342 70.3002 29.2699C70.3002 29.5704 70.3002 29.8343 70.3002 30.0469C70.2638 30.7946 69.922 31.5056 69.5729 32.2606C69.0056 33.4628 68.4165 34.7089 68.9256 36.2776C70.1838 40.1407 70.9984 43.8132 71.3329 47.1778C71.5584 49.4502 71.1293 51.1948 70.5838 53.4012C70.1038 55.3511 69.5001 57.7774 69.1729 61.3693C68.5328 68.3184 68.7147 76.3817 68.7438 77.6645C71.2456 78.9034 72.7948 78.8007 74.7512 78.6761C75.3766 78.6395 76.0458 78.5955 76.7876 78.5955V78.6028Z" fill="#1A2E35"/>
<path d="M75.4773 13.5337C75.4773 13.5337 74.6482 12.698 74.4591 10.8581C74.4591 10.8581 72.3717 11.166 70.4226 9.72923C70.4226 9.72923 70.5971 10.2717 70.9608 10.7775C70.9608 10.7775 68.4371 10.0591 67.8625 7.69141C67.8625 7.69141 66.728 8.08724 66.2625 9.56796C64.8952 13.6803 64.8079 21.4137 69.8189 21.2085C70.1462 21.2305 70.4881 21.2378 70.8226 21.2378C71.819 21.1572 72.6917 20.8786 72.6917 20.8786C72.6917 20.8786 72.2263 21.6117 71.3608 22.1761C71.6444 22.7918 71.9863 23.7301 72.2335 25.0422C72.3281 25.0422 72.4154 25.0349 72.5099 25.0349C73.4772 25.0349 74.4009 25.1742 75.2664 25.4307C75.6736 25.1522 76.1318 24.7564 76.6264 24.2139C76.6264 24.2139 75.0118 23.1217 74.7354 20.2775C74.7354 20.2775 76.5464 18.3643 76.83 14.9997C76.83 14.9997 78.1464 14.9557 78.1464 13.453C78.1464 11.9503 76.1318 11.3639 75.47 13.5483L75.4773 13.5337Z" fill="#D68A7D"/>
<path d="M72.707 20.875C72.707 20.875 71.8416 21.1536 70.8379 21.2342C70.8379 21.2342 71.0779 21.5274 71.3761 22.1725C72.2416 21.608 72.707 20.875 72.707 20.875Z" fill="#0E334F"/>
<path d="M69.6543 13.3101C69.6543 12.3059 70.4616 11.4922 71.4507 11.4922C72.4398 11.4922 73.2471 12.3059 73.2471 13.3101C73.2471 14.3144 72.4398 15.1207 71.4507 15.1207C70.4616 15.1207 69.6543 14.307 69.6543 13.3101ZM70.1198 13.3101C70.1198 14.0505 70.7161 14.6589 71.4507 14.6589C72.1853 14.6589 72.7816 14.0578 72.7816 13.3101C72.7816 12.5624 72.1853 11.9613 71.4507 11.9613C70.7161 11.9613 70.1198 12.5624 70.1198 13.3101Z" fill="#0E334F"/>
<path d="M75.1232 13.0234H72.8613V13.5366H73.0432L73.0141 13.8298H74.345C74.6796 13.8298 75.1087 13.5366 75.4796 13.5366C75.5378 13.346 75.6105 13.1774 75.6905 13.0234H75.1232Z" fill="#0E334F"/>
<path d="M78.8862 25.625C77.068 26.1895 77.3807 30.485 77.9771 33.1752C78.6025 35.9901 79.5553 41.9056 79.5553 41.9056C79.5553 41.9056 77.2061 43.6942 76.1298 44.9697C75.0534 46.2525 73.4824 48.0558 73.4824 48.0558C73.4824 48.0558 74.4715 48.5616 74.8279 50.3355C74.8279 50.3355 78.5007 47.7699 80.3553 46.4358C82.2099 45.109 83.1118 43.7162 83.279 42.9832C83.4463 42.2502 83.9918 37.7494 83.73 32.4349C83.4754 27.1204 82.0426 24.6428 78.8789 25.625H78.8862Z" fill="#04722B"/>
<path d="M74.8347 50.6307C74.7983 50.6307 74.7619 50.6307 74.7256 50.6087C74.6383 50.572 74.5656 50.4914 74.551 50.3961C74.231 48.8054 73.3946 48.3363 73.3583 48.3216C73.2783 48.2776 73.2201 48.2043 73.2055 48.1164C73.191 48.0284 73.2128 47.9404 73.271 47.8671C73.271 47.8671 74.8347 46.0639 75.9111 44.7884C76.8565 43.6669 78.7184 42.1935 79.242 41.783C79.082 40.7861 78.2529 35.7501 77.6929 33.2432C77.1111 30.6189 76.682 26.0008 78.7984 25.3484C79.9984 24.9746 81.0094 25.0699 81.8094 25.6343C83.1258 26.5653 83.8531 28.7863 84.0276 32.4222C84.2894 37.7733 83.744 42.2521 83.5694 43.0438C83.3803 43.9014 82.3621 45.3602 80.5294 46.6723C78.6748 47.9991 74.9947 50.572 74.9947 50.572C74.9438 50.6087 74.8856 50.6233 74.8274 50.6233L74.8347 50.6307ZM73.9183 48.0137C74.231 48.285 74.7256 48.8421 75.0165 49.8536C75.9765 49.1793 78.6893 47.2807 80.1948 46.2031C81.8894 44.9863 82.8421 43.6522 83.0021 42.9265C83.1694 42.1861 83.7003 37.678 83.4458 32.4588C83.2785 29.0136 82.6312 26.9391 81.4748 26.1181C80.8275 25.6563 80.0057 25.5903 78.973 25.9129C77.5693 26.3454 77.5547 29.9519 78.2675 33.1186C78.8857 35.9041 79.8384 41.805 79.853 41.8636C79.8675 41.9736 79.8239 42.0762 79.7439 42.1422C79.7221 42.1568 77.4093 43.9234 76.362 45.1622C75.5256 46.1592 74.391 47.4713 73.9256 48.0064L73.9183 48.0137Z" fill="#1A2E35"/>
<path d="M36.4382 54.6761C36.4382 54.6761 36.94 54.8594 37.8855 55.6217C37.8855 55.6217 37.9655 56.3254 37.7255 56.7873C37.4782 57.2491 36.6564 57.3517 36.6564 57.3517C36.6564 57.3517 35.9437 56.4354 34.7073 56.0909C34.7073 56.0909 33.9 56.0396 33.3181 56.3694C33.3181 56.3694 31.8054 66.5072 30.2199 77.4367C28.6271 88.3662 27.558 96.3782 27.558 96.3782C27.558 96.3782 27.0707 96.5322 26.2998 96.5248C25.5361 96.5175 25.3616 95.9311 25.3616 95.9311C25.3616 95.9311 26.8162 89.649 28.038 79.7458C29.2599 69.8425 29.9799 66.6612 30.7362 62.6442C31.4999 58.6272 31.5581 56.6993 31.5581 56.6993C31.5581 56.6993 31.0853 56.3181 30.1908 55.9443C29.6017 55.695 29.2962 55.6364 29.2962 55.6364C29.2962 55.6364 29.2598 55.0426 29.398 54.5882C29.5435 54.1337 30.169 53.6719 30.169 53.6719C30.169 53.6719 30.5399 53.9211 31.369 54.3169C32.1981 54.7128 32.9472 54.8227 32.9472 54.8227C32.9472 54.8227 33.7836 54.3683 34.4382 54.2876C35.0927 54.207 36.4382 54.6615 36.4382 54.6615V54.6761Z" fill="#935852"/>
<path d="M34.3556 53.3029C34.3556 53.3029 32.6901 52.8997 31.9555 53.0976C31.2137 53.2956 30.4791 55.0841 30.4864 55.9491C30.5009 56.8141 32.9592 57.1 33.5846 57.0267C34.2028 56.9534 34.3337 55.4946 34.4865 55.2381C34.6392 54.9742 35.8247 54.549 35.8247 54.549C35.8247 54.549 35.6356 53.4275 34.3556 53.3029Z" fill="#D68A7D"/>
<path d="M74.6035 96.0635C74.6035 96.0635 72.7635 96.1734 71.1998 96.4007C69.1415 96.7012 67.127 95.9389 67.127 95.9389C67.127 95.9389 67.4033 94.744 69.0834 94.2969C69.0834 94.2969 69.9634 95.3744 71.3234 95.3011C72.6835 95.2278 74.6326 94.5461 74.6326 94.5461C74.6326 94.5461 74.8726 95.4624 74.5962 96.0708L74.6035 96.0635Z" fill="#0E334F"/>
<path d="M85.6943 93.2496C85.6943 93.2496 84.4506 94.2538 83.2651 95.6026C81.9415 97.1126 79.6432 97.6844 79.6432 97.6844C79.6432 97.6844 79.1559 96.5629 80.2323 95.1774C80.2323 95.1774 81.5778 95.5 82.6178 94.613C83.6579 93.726 84.8143 91.9961 84.8143 91.9961C84.8143 91.9961 85.5488 92.5752 85.6943 93.2349V93.2496Z" fill="#0E334F"/>
<path d="M77.4697 14.9859C77.4697 15.3377 77.186 15.6163 76.8442 15.6163C76.5024 15.6163 76.2188 15.3304 76.2188 14.9859C76.2188 14.6414 76.5024 14.3555 76.8442 14.3555C77.186 14.3555 77.4697 14.6414 77.4697 14.9859Z" fill="white"/>
<path d="M52.3365 42.5586C52.3584 41.811 52.3874 41.3125 52.3874 41.3125L49.8637 42.0162L49.791 42.4047L52.3365 42.5586Z" fill="#0E334F"/>
<path d="M52.351 42.5625H52.3438C52.3438 42.6286 52.3438 42.6947 52.3438 42.7681C52.3438 42.702 52.351 42.6286 52.3583 42.5625H52.351Z" fill="#F2AAB2"/>
<path d="M51.2873 67.3073C51.1127 66.4643 50.9818 65.614 50.8945 64.7857L51.2291 64.7344C51.3964 65.7093 51.5273 66.5303 51.6218 67.2487L51.2873 67.3073Z" fill="#5CC2AF"/>
<path d="M51.0996 62.0142L50.7578 61.9996C50.7578 61.7723 50.7724 61.5524 50.7869 61.3398L51.1287 61.3618C51.1142 61.5598 51.1069 61.7503 51.0996 61.9409V62.0069V62.0142Z" fill="#5CC2AF"/>
<path d="M50.6408 50.6178C49.8698 50.0607 49.4407 50.1926 49.608 49.7895C49.8262 49.2544 50.5826 49.313 50.008 47.8176C49.4334 46.3222 50.008 44.6436 50.008 44.6436C50.008 44.6436 49.608 44.6436 48.9025 44.7829C48.1971 44.9222 46.5897 45.4499 45.557 45.186C44.5242 44.9222 44.7206 43.3388 44.7206 43.3388C44.7206 43.3388 46.3643 42.0413 49.8698 41.9534L49.9644 41.4549C49.9644 41.4549 50.5826 39.5417 50.8371 38.1489C51.0844 36.7562 50.6335 34.7184 50.6335 34.7184C50.6335 34.7184 49.6007 33.3769 49.6298 31.2878C49.6589 29.1986 49.0189 27.7766 49.0189 27.7766L50.7717 25.4235L53.1935 26.2225C53.1208 25.0937 53.0044 24.1481 52.8081 23.7962C52.4372 23.1145 50.9462 22.5794 49.7825 22.2495C49.0116 23.7156 47.6079 26.2445 46.7061 27.0655C45.4043 28.253 42.8442 29.8877 42.8442 29.8877C42.8442 29.8877 40.4878 26.6477 40.2769 25.2769C40.1241 24.2727 40.0514 22.9092 40.0223 22.2422C39.0623 22.616 37.7168 23.2318 36.8222 24.0454C36.8222 24.0454 36.5095 26.2592 36.4804 30.1516C36.4513 33.5455 36.8295 38.1783 36.924 39.3145C37.1641 43.9692 36.975 48.4407 36.6622 50.1853C36.3495 51.9226 35.8477 52.7436 35.8477 52.7436C35.8477 52.7436 35.9786 52.9269 36.9386 53.0221C37.2804 53.0588 37.7241 53.0808 38.3059 53.0808C40.5241 53.0808 42.3424 52.3184 45.1715 52.5457C46.7207 52.6703 47.8552 52.8096 48.7934 52.8389C49.5935 51.6367 51.3753 51.1676 50.6335 50.6251L50.6408 50.6178Z" fill="url(#paint0_linear_28814_278960)"/>
<path d="M54.9448 38.884C54.9448 38.884 55.3375 38.6054 56.0212 38.3562C56.7121 38.107 58.203 38.0703 58.203 38.0703C58.203 38.0703 58.0576 39.3091 57.0176 39.8516C55.9775 40.4013 54.9375 38.8766 54.9375 38.8766L54.9448 38.884Z" fill="#F89F3D"/>
<path d="M58.1632 31.022C57.1086 28.9108 54.6213 24.9745 52.4685 23.3984L50.3594 29.3213L53.7995 33.3383C54.1922 34.5112 54.8031 35.684 55.8141 37.0475C56.6068 38.1104 57.3486 39.4885 57.3486 39.4885C57.3486 39.4885 56.3159 39.1806 54.0467 39.9283C53.6758 40.0529 53.3122 40.1409 52.9558 40.2142L52.6503 43.5714C54.5777 43.5714 56.7377 43.4761 57.6614 43.117C59.516 42.4059 60.9342 41.1964 60.9342 39.9869C60.9342 38.7774 59.2178 33.1331 58.1632 31.022Z" fill="#D68A7D"/>
<path d="M52.6118 23.5077C54.9318 25.3257 56.6119 27.4295 57.4919 28.7049C58.3719 29.9877 58.9028 31.3438 58.9028 31.3438C58.9028 31.3438 58.2628 32.1942 56.8301 32.9199C55.3973 33.6456 54.1173 34.0854 53.5936 35.2436C53.5936 35.2436 52.9827 33.7115 51.6445 32.6486C50.3063 31.5784 50.1608 30.6695 49.9208 29.5479C49.6808 28.4264 49.0262 27.774 49.0262 27.774C49.0262 27.774 48.648 25.9267 49.979 24.6146C51.3099 23.3025 52.6045 23.5077 52.6045 23.5077H52.6118Z" fill="url(#paint1_linear_28814_278960)"/>
<path d="M57.4825 28.7044C56.6025 27.4216 54.9224 25.3178 52.6024 23.5072C52.6024 23.5072 52.5951 23.5072 52.5806 23.5072C52.0133 22.9575 50.7769 22.525 49.7805 22.2464C48.9659 22.0192 48.3114 21.8946 48.3114 21.8946C48.3114 21.8946 45.1258 24.211 41.1912 21.8359C41.1912 21.8359 40.7039 21.9752 40.0202 22.2391C39.0602 22.6129 37.7147 23.2287 36.8202 24.0424C34.711 26.542 35.0747 28.2866 35.0165 29.9726C34.9583 31.6585 34.2383 32.7434 34.2383 32.7434C34.2383 32.7434 34.4056 33.2346 36.5438 33.3885C36.6529 35.9981 36.8565 38.5197 36.922 39.3114C37.162 43.9661 36.9729 48.4376 36.6602 50.1822C36.3474 51.9195 35.8456 52.7405 35.8456 52.7405C35.8456 52.7405 35.9765 52.9238 36.9365 53.0191C37.2784 53.0557 37.722 53.0777 38.3038 53.0777C40.5221 53.0777 42.3403 52.3153 45.1695 52.5426C46.7186 52.6672 47.8532 52.8065 48.7914 52.8358C49.5623 52.8578 50.2023 52.8065 50.8351 52.6086C51.7005 52.33 52.1005 51.9781 52.6242 51.8829C52.9369 51.8242 53.2933 51.8609 53.8242 52.0734C53.8242 52.0734 52.5369 49.6544 52.3624 47.3307C52.2605 45.938 52.2896 44.0688 52.326 42.7859C52.326 42.7126 52.326 42.6467 52.326 42.5807L49.7805 42.4268L52.3333 42.5807C52.5296 40.0004 52.8642 36.4965 53.0751 34.3194C53.4169 34.8546 53.5769 35.2651 53.5769 35.2651C54.1079 34.0995 55.3806 33.667 56.8134 32.9413C58.2461 32.2156 58.8862 31.3653 58.8862 31.3653C58.8862 31.3653 58.3552 30.0092 57.4752 28.7264L57.4825 28.7044Z" fill="#00953B"/>
<path d="M38.3099 53.3656C37.7717 53.3656 37.3062 53.3436 36.9208 53.3069C36.1935 53.2336 35.7571 53.1017 35.6189 52.9111C35.5462 52.8158 35.5462 52.6838 35.6044 52.5885C35.6044 52.5812 36.0844 51.7822 36.3826 50.1256C36.6953 48.3956 36.8771 43.8801 36.6371 39.328C36.5789 38.6316 36.3753 36.198 36.2662 33.6617C34.3898 33.4931 34.0334 33.0386 33.968 32.8407C33.9389 32.7527 33.9534 32.6574 34.0043 32.5841C34.0043 32.5768 34.6807 31.5432 34.7316 29.9672C34.7389 29.7253 34.7389 29.4834 34.7389 29.2342C34.7389 27.7535 34.7389 26.0748 36.6007 23.8611C37.5535 22.9888 38.9281 22.3584 39.9172 21.9772C40.6008 21.7133 41.0881 21.5667 41.1099 21.5667C41.1899 21.5447 41.27 21.552 41.3427 21.596C45.0591 23.8391 48.0192 21.7573 48.1429 21.6693C48.2083 21.6253 48.2883 21.6033 48.3683 21.618C48.3974 21.618 49.0447 21.75 49.8593 21.9772C51.2557 22.3657 52.2157 22.7982 52.7321 23.26C52.7539 23.2673 52.7684 23.282 52.783 23.2893C55.3648 25.3125 57.0958 27.6435 57.7213 28.5525C58.6086 29.8499 59.1468 31.1987 59.1686 31.25C59.2049 31.3453 59.1904 31.4553 59.1322 31.5359C59.1031 31.5726 58.434 32.4449 56.9576 33.1926C56.7249 33.3098 56.4921 33.4198 56.2667 33.5298C55.1394 34.0722 54.2521 34.4974 53.8521 35.377C53.8012 35.4869 53.6993 35.5529 53.583 35.5456C53.4666 35.5456 53.3648 35.4723 53.3212 35.3623C53.3212 35.3623 53.3066 35.333 53.2848 35.2817C53.0666 37.5614 52.8048 40.4129 52.6375 42.59C52.6375 42.612 52.6375 42.6267 52.6302 42.6487V42.7806C52.5866 44.0854 52.5575 45.9326 52.6593 47.2961C52.8266 49.5245 54.0775 51.8995 54.0848 51.9215C54.143 52.0314 54.1285 52.1634 54.0484 52.2514C53.9684 52.3466 53.8375 52.376 53.7284 52.332C53.2921 52.1634 52.9721 52.1047 52.6811 52.1561C52.4557 52.2 52.252 52.3027 51.9829 52.4346C51.7138 52.5666 51.3793 52.7352 50.9284 52.8744C50.3102 53.0723 49.6702 53.1383 48.7901 53.1163C48.201 53.1017 47.5319 53.0357 46.7537 52.9624C46.2737 52.9184 45.7428 52.8671 45.1537 52.8231C43.5464 52.6985 42.2663 52.8964 41.0372 53.087C40.1208 53.2263 39.2626 53.3656 38.3099 53.3656ZM36.2516 52.6105C36.3826 52.6472 36.6153 52.6912 36.9789 52.7278C37.3499 52.7645 37.8008 52.7865 38.3172 52.7865C39.2263 52.7865 40.0699 52.6545 40.9572 52.5152C42.2227 52.3173 43.5318 52.1194 45.2046 52.244C45.7937 52.288 46.3319 52.3393 46.8119 52.3833C47.5101 52.4493 48.121 52.5006 48.6592 52.5299C48.8338 52.2953 49.0665 52.0608 49.3502 51.8262C49.4738 51.7236 49.6556 51.7382 49.7574 51.8702C49.8011 51.9215 49.8229 51.9875 49.8229 52.0534C49.8229 52.1414 49.7865 52.222 49.7138 52.2807C49.6047 52.3686 49.5102 52.4566 49.4229 52.5372C49.932 52.5226 50.3538 52.4493 50.7538 52.3247C51.1611 52.1927 51.4593 52.0461 51.7284 51.9142C52.0193 51.7676 52.2739 51.6429 52.5793 51.5916C52.7975 51.555 53.0302 51.555 53.2848 51.599C52.8848 50.7193 52.2084 49.0187 52.0848 47.3474C51.9829 45.9913 52.0048 44.166 52.0484 42.8466L49.7865 42.7073C49.6265 42.7 49.5029 42.5607 49.5102 42.3994C49.5174 42.2382 49.6629 42.1209 49.8156 42.1209L52.0848 42.2601C52.2811 39.7972 52.5793 36.5792 52.8048 34.2774C52.8193 34.1528 52.9066 34.0502 53.0302 34.0209C53.1539 33.9916 53.2775 34.0429 53.343 34.1455C53.4521 34.3214 53.5466 34.49 53.6266 34.6293C54.1721 33.8889 55.0448 33.4638 56.0267 32.9946C56.2449 32.8847 56.4776 32.7821 56.7103 32.6648C57.7431 32.1443 58.3467 31.5506 58.5722 31.3013C58.4049 30.9055 57.9322 29.8646 57.2558 28.8823C56.6522 28.0027 54.9794 25.745 52.4775 23.7804C52.4411 23.7658 52.412 23.7511 52.3902 23.7291C51.9684 23.326 51.0447 22.9155 49.7138 22.5416C49.1174 22.373 48.601 22.2631 48.3829 22.2191C47.7792 22.6003 44.7537 24.2642 41.1609 22.1678C40.979 22.2264 40.6008 22.351 40.1354 22.527C39.1899 22.8935 37.888 23.4946 37.0226 24.2716C35.3207 26.2947 35.3207 27.7901 35.3207 29.2342C35.3207 29.4908 35.3207 29.74 35.3134 29.9892C35.2698 31.3233 34.8262 32.2983 34.608 32.7014C34.7898 32.7967 35.3062 33.0093 36.5717 33.0973C36.7171 33.1046 36.8335 33.2292 36.8408 33.3758C36.9498 36.0001 37.1608 38.5657 37.2189 39.2914C37.4662 44.0707 37.2699 48.4982 36.9571 50.2355C36.7389 51.445 36.4335 52.222 36.2516 52.6105Z" fill="#1A2E35"/>
<path d="M56.873 38.6563C56.873 38.6563 56.1457 38.5391 55.2075 38.5391C54.2693 38.5391 53.4984 39.0155 53.2366 39.5946C52.9748 40.1737 53.0475 41.6544 53.2366 42.0943C53.4257 42.5341 55.5566 42.4241 56.0148 42.2629C56.473 42.0943 56.3639 40.9361 56.6621 40.5549C56.953 40.1737 57.353 39.4847 57.353 39.4847C57.353 39.4847 57.193 39.0302 56.8803 38.649L56.873 38.6563Z" fill="#B76658"/>
<path d="M38.0918 5.02466C38.8409 3.36801 41.0301 1.30819 43.8665 0.970999C46.7029 0.641136 49.0084 2.56168 49.7357 4.02774C50.463 5.50113 50.5576 8.3966 50.543 9.20293C50.4776 12.6042 48.303 15.419 48.303 15.419L46.3975 12.5602L45.0229 5.85298L38.0991 5.01733L38.0918 5.02466Z" fill="#1A2E35"/>
<path d="M47.9408 10.7522C47.9408 10.7522 48.1008 3.42188 43.897 3.42188C39.6933 3.42188 38.0932 5.01988 38.0932 5.01988C38.0932 5.01988 38.0278 5.18848 37.9478 5.52567C37.9478 5.52567 37.9478 5.52567 37.9478 5.54033C37.9478 5.56965 37.9332 5.60631 37.926 5.63563C37.926 5.65762 37.9187 5.67961 37.9114 5.70893C37.9114 5.74558 37.8969 5.7749 37.8896 5.81155C37.4896 7.79807 35.4677 19.226 42.2315 19.182C43.2134 19.2114 44.6243 18.9328 44.6243 18.9328C44.6243 18.9328 43.9043 19.7904 42.9661 20.1716C42.7843 20.2449 42.5734 20.3109 42.3479 20.3622C42.3697 20.934 42.3479 21.6963 42.2315 22.6346C42.2315 22.6346 42.6388 23.1551 44.6607 23.1551C46.6825 23.1551 47.3735 21.5864 47.3735 21.5864C47.3735 21.5864 46.8571 19.7831 47.1698 17.694C47.1698 17.694 48.1808 16.4625 48.3917 15.9933C48.6026 15.5169 48.8644 13.1858 48.8644 13.1858C48.8644 13.1858 50.2972 12.812 50.3481 11.258C50.3917 9.70395 48.5735 9.11019 47.948 10.7522H47.9408Z" fill="#D68A7D"/>
<path d="M44.6233 18.9375C44.6233 18.9375 43.2123 19.2161 42.2305 19.1867C42.2305 19.1867 42.3177 19.5972 42.3468 20.3669C42.5723 20.3083 42.7905 20.2496 42.965 20.1763C43.9032 19.7951 44.6233 18.9375 44.6233 18.9375Z" fill="#1A2E35"/>
<path d="M38.0913 5.02208C38.0913 5.02208 39.4295 5.59384 40.8986 5.64515C42.3677 5.69647 45.9533 4.77285 45.9533 4.77285C45.9533 4.77285 46.5642 6.83266 46.7969 8.11547C47.0297 9.39827 46.7969 12.0372 46.7969 12.0372C46.7969 12.0372 47.5388 11.9346 48.0406 11.7366C48.0406 11.7366 47.9315 11.1429 47.9315 10.747L48.6442 7.71963L47.2188 4.00317C47.2188 4.00317 44.0114 2.32452 43.9169 2.40516C43.8223 2.48579 41.1677 3.0209 41.1677 3.0209L39.4731 3.41674C39.4731 3.41674 38.6585 4.25973 38.084 5.01475L38.0913 5.02208Z" fill="#1A2E35"/>
<path d="M54.483 87.6176C54.1775 85.675 54.5557 85.3378 53.8939 83.9671C53.2393 82.589 52.1557 74.0199 52.0975 71.249C52.0902 70.8678 52.0975 70.384 52.112 69.8489C52.2284 66.499 52.803 60.642 53.1302 58.2963C53.5084 55.5328 52.9702 53.0625 52.6357 51.875C52.1193 51.9703 51.7193 52.3221 50.8465 52.6007C49.4574 53.0405 48.0174 52.762 45.181 52.5347C42.3518 52.3148 40.5336 53.0698 38.3153 53.0698C37.7335 53.0698 37.2898 53.0478 36.948 53.0112C36.9044 53.2164 36.8607 53.4583 36.8026 53.7222C36.228 56.5957 35.0789 62.7019 34.6643 67.3346C34.4098 70.1568 34.5116 75.354 34.7007 80.214C34.7007 80.214 34.7007 80.2213 34.7007 80.2286C34.708 80.4705 34.7225 80.7124 34.7298 80.9543C34.8462 84.1063 34.8316 87.0018 34.5989 88.4386C34.3516 89.9926 34.6934 90.8429 34.0098 91.4733C34.0098 91.4733 35.1371 91.9791 37.3989 91.9791C37.4062 91.9791 37.4208 91.9791 37.428 91.9791C37.4644 91.9791 37.4935 91.9791 37.5299 91.9791C38.9263 91.9938 40.4972 91.0628 42.2936 91.9424C42.2936 91.9424 41.7336 89.8533 41.8718 88.0501C42.01 86.2468 41.9154 85.675 41.5663 84.2823C41.2172 82.8822 41.3554 75.3613 41.4499 72.7957C41.4718 72.1799 41.5954 71.0437 41.7772 69.6803C41.7845 69.6437 42.3082 66.8435 43.6827 64.7324C43.85 67.6938 44.0973 70.9411 44.4173 72.3852C45.0719 75.354 47.7337 85.5431 47.8865 87.4343C48.0465 89.3329 47.3992 90.7549 47.5446 91.8691C47.5446 91.8691 48.8465 92.3383 50.4829 92.1917C51.552 92.0964 52.112 91.7152 52.6211 91.4C52.8975 91.2314 53.1521 91.0775 53.4721 91.0115C54.3812 90.8062 55.4285 90.645 55.4285 90.645C55.4285 90.645 54.7739 89.5454 54.4685 87.6029L54.483 87.6176Z" fill="#1A2E35"/>
<path d="M45.0191 11.2228C45.0191 11.2228 44.8664 9.42683 43.8264 9.4415C42.7863 9.45616 42.5391 11.3034 42.5391 11.3034C42.5391 11.3034 43.3464 10.0059 43.8627 10.1012C44.3791 10.1965 45.0191 11.2301 45.0191 11.2301V11.2228Z" fill="#0E334F"/>
<path d="M72.3163 13.8551C72.3163 13.8551 72.2073 12.5943 71.48 12.6016C70.7454 12.6089 70.5781 13.9064 70.5781 13.9064C70.5781 13.9064 71.1454 12.9974 71.5018 13.0634C71.8654 13.1294 72.3163 13.8551 72.3163 13.8551Z" fill="#0E334F"/>
<path d="M67.4841 13.8551C67.4841 13.8551 67.4332 12.5943 67.0622 12.6016C66.6986 12.6089 66.6113 13.9064 66.6113 13.9064C66.6113 13.9064 66.895 12.9974 67.0768 13.0634C67.2586 13.1294 67.4841 13.8551 67.4841 13.8551Z" fill="#0E334F"/>
<path d="M39.8615 11.2228C39.8615 11.2228 39.767 9.42683 39.1415 9.4415C38.516 9.45616 38.3633 11.3034 38.3633 11.3034C38.3633 11.3034 38.8506 10.0059 39.156 10.1012C39.4688 10.1965 39.8542 11.2301 39.8542 11.2301L39.8615 11.2228Z" fill="#0E334F"/>
<path d="M41.7379 15.832L40.5742 16.2279C40.5742 16.2279 41.0179 16.6823 41.5633 16.829C41.5342 16.4038 41.6142 16.0813 41.7379 15.8394V15.832Z" fill="#0E334F"/>
<path d="M42.9246 15.4336L41.7391 15.8368C41.6155 16.0787 41.5355 16.4085 41.5646 16.8264C41.7973 16.8923 42.0519 16.8997 42.2991 16.7897C43.1137 16.4305 42.9246 15.4336 42.9246 15.4336Z" fill="#F7BFC9"/>
<path d="M69.4971 17.7148L68.3262 18.03C68.3262 18.03 68.7989 18.6018 69.4098 18.5578C69.3589 18.228 69.4098 17.9421 69.4971 17.7148Z" fill="#0E334F"/>
<path d="M69.497 17.7185C69.417 17.9458 69.3588 18.2316 69.4097 18.5615C69.4679 18.5615 69.5261 18.5468 69.5843 18.5322C70.2752 18.3416 70.6243 17.418 70.6243 17.418L69.497 17.7185Z" fill="#F7BFC9"/>
<path d="M42.3207 21.639C42.3207 21.639 42.3207 22.526 43.8407 23.1124C43.8407 23.1124 45.6953 23.2297 47.3681 21.6024C47.3681 21.6024 47.9644 21.5657 48.7426 21.9909C48.7426 21.9909 47.9499 23.8528 45.3535 25.1356C45.3535 25.1356 44.8516 24.2706 43.8407 23.1784C43.8407 23.1784 42.7789 23.6988 42.0734 24.5125C42.0734 24.5125 41.2661 23.1271 41.1934 21.8443C41.1934 21.8443 41.7025 21.5804 42.3207 21.639Z" fill="#1A2E35"/>
<path d="M45.2606 25.4684L45.1443 25.2632C45.1443 25.2632 44.6861 24.4862 43.7988 23.4966C43.4788 23.6725 42.7806 24.105 42.286 24.6767L42.0533 24.948L41.8715 24.6401C41.8351 24.5814 41.0278 23.1887 40.9551 21.8546V21.686L41.0933 21.6127C41.1151 21.598 41.6751 21.3121 42.366 21.3854L42.5915 21.4074V21.6347C42.5915 21.6786 42.6569 22.3604 43.9079 22.8588C44.177 22.8588 45.7697 22.8222 47.2025 21.4148L47.268 21.3488H47.3625C47.3625 21.3488 48.0462 21.3048 48.8753 21.7666L49.0789 21.8766L48.9844 22.0891C48.948 22.1698 48.1262 24.0537 45.4716 25.3658L45.2606 25.4684ZM44.3443 23.35C44.9043 23.995 45.2752 24.5228 45.4497 24.8014C47.268 23.8411 48.1189 22.5949 48.4025 22.1038C47.9734 21.9059 47.6243 21.8692 47.4716 21.8619C46.2788 22.9834 45.0279 23.2767 44.3443 23.35ZM41.4715 22.0085C41.5587 22.8148 41.9296 23.6432 42.1406 24.083C42.5478 23.6798 43.0133 23.3646 43.3406 23.174C42.4824 22.7342 42.206 22.1991 42.1187 21.8912C41.8496 21.8912 41.6169 21.9572 41.4715 22.0085Z" fill="#1A2E35"/>
<path d="M43.5353 27.7263L42.3789 27.631L42.4007 27.4551C42.6262 25.4026 43.1062 23.3428 43.1135 23.3281L43.448 23.4088C43.448 23.4088 42.9898 25.3513 42.7644 27.3231L43.5717 27.3891L43.5426 27.7336L43.5353 27.7263Z" fill="#1A2E35"/>
<path d="M49.2367 40.2808C49.2367 40.2808 48.7422 41.1091 48.7422 41.8275C48.7422 42.5459 49.0258 43.4915 49.0258 43.4915C49.0258 43.4915 50.7204 43.5795 52.6477 43.5721L52.9532 40.2148C50.9459 40.6107 49.2367 40.2808 49.2367 40.2808Z" fill="#D68A7D"/>
<path d="M48.548 39.3651C48.0971 39.1012 47.108 39.0939 46.2425 39.3065C45.377 39.5117 44.9988 39.2478 44.9334 39.629C44.8825 39.9295 45.1079 40.1494 45.8425 40.3474C45.9516 40.3767 46.0316 40.4353 46.097 40.5086C45.4716 40.5086 44.4316 40.538 44.1115 40.6992C43.6461 40.9411 43.6388 41.5422 43.9079 41.8647C44.177 42.1873 44.1334 43.4774 44.5334 43.7633C44.9334 44.0565 45.7552 44.1005 46.5261 44.1005C47.2971 44.1005 49.3044 43.4847 49.3044 43.4847L50.4535 40.406C50.4535 40.406 48.9844 39.6363 48.5407 39.3724L48.548 39.3651Z" fill="#D68A7D"/>
<path d="M71.7548 48.6066C71.3694 48.6506 70.7657 49.0758 70.3221 49.5816C69.8857 50.0873 69.5366 50.0947 69.6602 50.3439C69.7548 50.5418 69.9802 50.5785 70.5184 50.3732C70.5984 50.3439 70.6712 50.3439 70.7439 50.3586C70.3657 50.6298 69.7402 51.1063 69.6166 51.3408C69.4348 51.6854 69.6821 52.0519 69.9875 52.1178C70.2857 52.1911 70.8021 52.9755 71.173 52.9755C71.5366 52.9755 72.0603 52.6383 72.5258 52.3011C72.9985 51.9639 73.9512 50.7178 73.9512 50.7178L73.3549 48.3867C73.3549 48.3867 72.1403 48.57 71.7548 48.614V48.6066Z" fill="#D68A7D"/>
<path d="M52.9493 34.3986C52.9493 34.3986 50.4619 31.0267 49.4146 29.0695C48.3164 27.017 50.0474 24.8692 50.1201 24.7812L50.3819 25.0012C50.3819 25.0012 48.7237 27.061 49.7128 28.9082C50.7456 30.8507 53.1966 34.164 53.2184 34.1934L52.942 34.3986H52.9493Z" fill="#1A2E35"/>
<path d="M36.3791 33.3951C36.3791 33.3951 36.321 30.3823 36.5173 28.5938L36.8592 28.6304C36.6701 30.397 36.721 33.3584 36.7283 33.3878H36.3864L36.3791 33.3951Z" fill="#1A2E35"/>
<path d="M43.5192 64.7808C43.5192 64.7808 43.0028 62.2885 42.7773 60.0601L43.1192 60.0234C43.3446 62.2299 43.8465 64.6855 43.8537 64.7075L43.5192 64.7808Z" fill="#204C70"/>
<path d="M50.933 56.8088C50.8676 56.8088 49.4057 56.7794 48.6057 55.9804C47.8202 55.1888 47.5366 53.7887 47.5293 53.73L47.8639 53.6641C47.8639 53.6641 48.1402 55.0202 48.853 55.7385C49.5512 56.4422 50.9257 56.4716 50.9403 56.4716V56.8161L50.933 56.8088Z" fill="#204C70"/>
<path d="M36.95 56.495L36.8555 56.1651C38.5791 55.6594 38.5064 53.7242 38.5064 53.7022L38.8482 53.6875C38.8482 53.6875 38.9282 55.9086 36.95 56.495Z" fill="#204C70"/>
<path d="M42.8074 58.049C42.3856 58.049 41.5928 57.8291 41.4619 56.9788C41.3165 56.0405 41.1928 53.8048 41.1855 53.7095L41.5274 53.6875C41.5274 53.6875 41.6583 55.9965 41.7965 56.9202C41.9201 57.7045 42.7783 57.7045 42.822 57.7045V58.049H42.8074Z" fill="#204C70"/>
<path d="M40.8091 14.1036C40.3654 14.1036 39.8345 13.9717 39.7618 13.4879C39.6745 12.8941 40.3363 12.5642 40.62 12.4543V11.0469H40.9618V12.7035L40.8454 12.7402C40.8454 12.7402 40.0381 13.0041 40.1036 13.4366C40.1618 13.8397 41.0563 13.7444 41.0636 13.7371L41.1073 14.0743C41.02 14.089 40.9182 14.0963 40.8091 14.0963V14.1036Z" fill="#B76658"/>
<path d="M68.4009 16.2033C68.1609 16.2033 67.8846 16.1667 67.7027 16.0128C67.5718 15.9028 67.4991 15.7415 67.5064 15.5509C67.5209 14.9792 68.0155 14.7666 68.3791 14.7226C68.43 13.9309 68.5973 13.0367 68.6046 13L68.9391 13.066C68.9391 13.066 68.7428 14.0922 68.7064 14.8912V15.0525H68.5391C68.51 15.0525 67.8555 15.0598 67.8482 15.5583C67.8482 15.6462 67.87 15.7049 67.9209 15.7489C68.1173 15.9175 68.6264 15.8588 68.7864 15.8222L68.8518 16.1594C68.8155 16.1667 68.6191 16.2033 68.3937 16.2033H68.4009Z" fill="#B76658"/>
<path d="M65.3555 13.3115C65.3555 12.322 66.0246 11.5156 66.8464 11.5156C67.6683 11.5156 68.3374 12.322 68.3374 13.3115C68.3374 14.3011 67.6683 15.1001 66.8464 15.1001C66.0246 15.1001 65.3555 14.2938 65.3555 13.3115ZM65.7773 13.3115C65.7773 14.0666 66.2573 14.6823 66.8537 14.6823C67.4501 14.6823 67.9301 14.0666 67.9301 13.3115C67.9301 12.5565 67.4501 11.9408 66.8537 11.9408C66.2573 11.9408 65.7773 12.5565 65.7773 13.3115Z" fill="#0E334F"/>
<path d="M68.9384 12.7847C68.6039 12.7847 68.2984 12.88 68.0293 13.0412V13.613C68.2693 13.3858 68.582 13.2465 68.9384 13.2465C69.2948 13.2465 69.6002 13.3931 69.833 13.613V13.0266C69.5712 12.8653 69.2657 12.7773 68.9384 12.7773V12.7847Z" fill="#0E334F"/>
<path d="M41.32 14.0693C41.32 14.0693 40.0908 14.2819 39.7854 14.8243C39.4799 15.3668 39.2326 16.2391 39.4799 16.3783C39.7272 16.5176 40.309 16.1804 40.309 16.1804C40.309 16.1804 41.0872 16.4223 41.6982 15.9165C41.6982 15.9165 42.52 16.1291 43.2982 15.5573C43.2982 15.5573 43.8946 15.5867 44.1128 15.3374C44.331 15.0882 43.4291 14.1939 42.9346 14.0473C42.4327 13.908 41.32 14.0766 41.32 14.0766V14.0693Z" fill="white"/>
<path d="M75.9161 23.4565C75.9161 23.4565 75.3925 24.6367 73.2324 25.0032C73.2324 25.0032 73.487 27.1584 74.5779 26.9018C75.6688 26.6452 76.6434 24.1969 76.6434 24.1969C76.6434 24.1969 76.4907 23.7644 75.9161 23.4492V23.4565Z" fill="white"/>
<path d="M73.2316 25.0063C73.2316 25.0063 72.7807 26.597 72.0171 26.3918C71.2534 26.1865 71.9807 23.8555 71.9807 23.8555C71.9807 23.8555 72.3516 24.6985 73.2316 25.0063Z" fill="white"/>
<path d="M76.6428 24.2051C76.6428 24.2051 76.8683 23.3915 76.4173 22.959C76.4173 22.959 75.9955 22.893 75.5664 22.937C75.5664 22.937 75.7337 23.2229 75.9155 23.4648L76.0101 23.9119L76.6428 24.2125V24.2051Z" fill="white"/>
<path d="M79.092 15.8696L78.7793 15.7303C79.4048 14.3302 79.6375 12.4243 79.6448 12.4023L79.9793 12.4463C79.9721 12.527 79.7393 14.4255 79.0848 15.8696H79.092Z" fill="#E2E2E2"/>
<path d="M34.4883 54.7421C34.4883 54.7421 35.0992 56.3548 35.6083 56.1935C36.1174 56.0323 35.8556 54.4489 35.8556 54.4489L34.8665 54.207L34.4883 54.7348V54.7421Z" fill="#D68A7D"/>
<path d="M73.6173 48.1406L73.3555 48.3825L72.8027 49.1522L73.1737 50.5523L73.5446 50.6183L73.9519 50.7136L74.7882 50.1418C74.4828 48.8956 73.8719 48.3312 73.61 48.1406H73.6173Z" fill="#D68A7D"/>
<defs>
<linearGradient id="paint0_linear_28814_278960" x1="44.5242" y1="53.0735" x2="44.5242" y2="22.2422" gradientUnits="userSpaceOnUse">
<stop stop-color="#D7E5F1"/>
<stop offset="1" stop-color="white"/>
</linearGradient>
<linearGradient id="paint1_linear_28814_278960" x1="53.9354" y1="35.2436" x2="53.9354" y2="23.4931" gradientUnits="userSpaceOnUse">
<stop stop-color="#D7E5F1"/>
<stop offset="1" stop-color="white"/>
</linearGradient>
</defs>
</svg>
