<svg viewBox="0 0 39 41" fill="none" xmlns="http://www.w3.org/2000/svg">
<path d="M32.4265 26.4374C32.4265 26.4374 32.428 26.4358 32.4288 26.4358L37.5563 21.1988C38.2613 20.4824 38.6494 19.5298 38.6494 18.5164C38.6494 17.5029 38.2613 16.5503 37.5563 15.8339C37.198 15.4699 36.7854 15.1955 36.3437 15.0115C37.0319 14.2982 37.4108 13.3565 37.4108 12.3556C37.4108 11.3546 37.0227 10.3895 36.3177 9.67312C35.9081 9.25684 35.4258 8.95749 34.9122 8.77585C35.1709 8.25355 35.3087 7.67434 35.3087 7.07253C35.3087 6.05911 34.9206 5.1065 34.2155 4.39009C33.2923 3.45151 32.0016 3.11006 30.8097 3.3642C30.6597 2.71171 30.3336 2.11145 29.8536 1.62345C28.4519 0.198432 26.1707 0.198432 24.769 1.62345L18.0515 8.45078C18.0646 8.29799 18.0691 8.14597 18.0676 7.99552C18.0339 5.62256 16.4202 3.59416 14.1443 3.06251L14.129 3.05861C12.8651 2.76316 11.5714 3.51855 11.1856 4.7783C10.8587 5.84317 10.2593 7.75152 9.49989 9.96701C8.94872 9.55229 8.3141 9.25216 7.62589 9.09157C6.34058 8.79144 5.04226 9.56398 4.67021 10.851C4.23157 12.3665 2.3859 18.5468 0.914562 23.465C-0.709875 28.8945 1.25905 34.7467 5.81314 38.027C8.00483 39.6056 10.6267 40.4483 13.2969 40.4483C13.659 40.4483 14.0218 40.4327 14.3847 40.4015C17.4238 40.1396 20.2846 38.7886 22.4418 36.5957L32.3408 26.5325C32.3706 26.5021 32.3997 26.4701 32.4288 26.439L32.4265 26.4374ZM36.3521 18.5164C36.3521 18.9046 36.2036 19.2694 35.9311 19.5462L33.1461 22.3907C32.9608 21.9386 32.6891 21.5231 32.3377 21.1668C31.9794 20.8028 31.5661 20.5292 31.1251 20.3444L34.0234 17.3821C34.5853 16.9237 35.4113 16.9596 35.9326 17.4897C36.2028 17.7641 36.3513 18.1289 36.3513 18.5171L36.3521 18.5164ZM34.6925 13.3846L32.464 15.6624C32.4012 15.7185 32.3392 15.777 32.2795 15.8378L31.9052 16.2221C31.7199 15.7723 31.4489 15.36 31.0999 15.0045C30.7401 14.6389 30.3244 14.3637 29.8804 14.1789L32.732 11.2681C33.2938 10.7614 34.1566 10.7801 34.6948 11.3273C34.965 11.6017 35.1135 11.9666 35.1135 12.3548C35.1135 12.743 34.965 13.1078 34.6925 13.3846ZM32.5926 6.0443C32.8629 6.3187 33.0114 6.68353 33.0114 7.07175C33.0114 7.45997 32.8629 7.8248 32.5911 8.10076L31.1657 9.55618C31.1251 9.5936 31.0853 9.6318 31.0463 9.67156C31.0241 9.69416 31.0034 9.71833 30.9835 9.7425L29.8061 10.9438C29.6209 10.4924 29.3491 10.0769 28.9985 9.72067C28.6379 9.35428 28.2207 9.07832 27.776 8.89356L30.5671 6.04274C31.1259 5.47522 32.0346 5.47522 32.5934 6.04274L32.5926 6.0443ZM26.3911 3.27767C26.8987 2.7616 27.7239 2.76238 28.2307 3.27767C28.4734 3.52478 28.6073 3.84986 28.6073 4.19364C28.6073 4.53742 28.4711 4.87185 28.2238 5.12365C28.2215 5.12598 28.2192 5.12832 28.2169 5.13144L25.4067 8.00175C25.2291 7.59639 24.9795 7.22298 24.6618 6.90025C24.3388 6.57128 23.9683 6.31948 23.5725 6.14252L26.3904 3.27845L26.3911 3.27767ZM13.3765 5.47445C13.4071 5.37388 13.512 5.31308 13.6146 5.33724L13.6299 5.34114C14.8723 5.63113 15.7527 6.73654 15.771 8.02904C15.7749 8.305 15.7274 8.60279 15.6287 8.91383L14.6373 11.9221L11.4359 15.1768C11.6518 14.1532 11.5569 13.1086 11.1718 12.1576C12.1754 9.32154 12.9769 6.7763 13.3757 5.47522L13.3765 5.47445ZM20.8174 34.94C19.0437 36.7431 16.6897 37.8555 14.1895 38.0707C11.6893 38.2858 9.18526 37.592 7.13826 36.1171C3.39409 33.4199 1.77501 28.6085 3.11008 24.1455C4.58294 19.2226 6.43091 13.0345 6.87185 11.5113C6.90171 11.4076 7.00735 11.346 7.1107 11.3702C7.83105 11.5386 8.44271 11.9822 8.83389 12.619C9.22354 13.2544 9.34679 14.0051 9.18067 14.7348L8.29496 18.6224C8.17937 19.1307 8.40826 19.6553 8.85609 19.9086C9.30392 20.162 9.86275 20.0825 10.2248 19.7138L21.2001 8.55602C21.7077 8.03995 22.5329 8.04073 23.0397 8.55602C23.2846 8.80547 23.4194 9.136 23.4194 9.48836C23.4194 9.84072 23.2846 10.1713 23.0397 10.4207L23.0374 10.423L18.8844 14.6451L16.646 16.9206L16.4593 17.1108C16.0107 17.5669 16.0099 18.3074 16.4577 18.7643C16.9056 19.2211 17.6328 19.2219 18.0814 18.7658L20.7607 16.0421L24.6618 12.0765H24.6626V12.0749L24.6741 12.0632L25.347 11.3788C25.9058 10.8105 26.8152 10.8105 27.3741 11.3788C27.6443 11.6532 27.7928 12.018 27.7928 12.4062C27.7928 12.7617 27.6665 13.0961 27.4384 13.3612L25.84 14.9928L20.1154 20.8129L20.1077 20.8207C19.6591 21.2768 19.6584 22.0173 20.1062 22.4742C20.2455 22.616 20.4109 22.7135 20.5869 22.7673C20.5885 22.7673 20.5892 22.768 20.5908 22.7688C20.6168 22.7766 20.6428 22.7821 20.6689 22.7883C20.6788 22.7907 20.6888 22.7938 20.6987 22.7961C20.7209 22.8008 20.7431 22.8031 20.7653 22.8062C20.7799 22.8086 20.7936 22.8109 20.8082 22.8125C20.8273 22.814 20.8457 22.814 20.8648 22.8156C20.8824 22.8164 20.9008 22.8179 20.9184 22.8179C20.936 22.8179 20.9529 22.8164 20.9705 22.8156C20.9896 22.8148 21.0087 22.8148 21.0287 22.8125C21.0409 22.8109 21.0531 22.8086 21.0654 22.807C21.0899 22.8039 21.1136 22.8008 21.1381 22.7961C21.1435 22.7953 21.1488 22.793 21.1534 22.7922C21.3647 22.7478 21.566 22.6425 21.7299 22.4757L27.4491 16.6618C28.0079 16.0935 28.9174 16.0935 29.4762 16.6618C29.7464 16.9362 29.8949 17.301 29.8949 17.6893C29.8949 18.0775 29.7464 18.4423 29.4762 18.7167L29.4724 18.7206L27.0656 21.1676C27.0656 21.1676 27.0656 21.1676 27.0648 21.1684L21.0799 27.2528C20.8556 27.4812 20.7431 27.7798 20.7431 28.0791C20.7431 28.3411 20.8288 28.603 21.0003 28.8174C21.0248 28.8478 21.0508 28.8774 21.0792 28.9062C21.1075 28.9351 21.1366 28.9616 21.1664 28.9865C21.1856 29.0029 21.2055 29.0162 21.2262 29.031C21.2376 29.0395 21.2484 29.0481 21.2598 29.0559C21.2897 29.0762 21.3211 29.0949 21.3525 29.112C21.354 29.1128 21.3563 29.1144 21.3578 29.1152C21.3862 29.1308 21.4152 29.1432 21.4443 29.1565C21.4497 29.1588 21.4543 29.1619 21.4596 29.1635C21.4864 29.1744 21.514 29.1838 21.5416 29.1931C21.5492 29.1955 21.5569 29.1986 21.5645 29.2009C21.5875 29.2079 21.6112 29.2126 21.6342 29.2181C21.6472 29.2212 21.6594 29.2251 21.6725 29.2274C21.6924 29.2313 21.713 29.2337 21.7329 29.236C21.749 29.2383 21.7651 29.2414 21.7819 29.243C21.8003 29.2446 21.8187 29.2446 21.8363 29.2453C21.8547 29.2461 21.873 29.2477 21.8922 29.2477C21.9098 29.2477 21.9281 29.2461 21.9457 29.2453C21.9641 29.2446 21.9833 29.2446 22.0016 29.243C22.0162 29.2414 22.03 29.2391 22.0437 29.2368C22.0659 29.2337 22.0881 29.2313 22.1103 29.2266C22.118 29.2251 22.1256 29.2227 22.1341 29.2212C22.3423 29.1752 22.5406 29.0715 22.7028 28.9062L28.6877 22.8218C29.2465 22.2535 30.156 22.2535 30.7148 22.8218C30.985 23.0962 31.1335 23.4611 31.1335 23.8493C31.1335 24.2375 30.985 24.6023 30.7148 24.8767L20.8158 34.94H20.8174Z" fill="black"/>
</svg>
