<svg  viewBox="0 0 23 28" fill="none" xmlns="http://www.w3.org/2000/svg">
<path d="M19.9177 9.19841L20.845 8.26899C21.3301 7.7828 21.3301 6.99397 20.845 6.50777C20.3594 6.02158 19.5728 6.02158 19.0877 6.50777L18.1604 7.43719C16.5514 6.14628 14.5802 5.29113 12.4265 5.05154V2.49121H13.6692C14.3556 2.49121 14.912 1.93356 14.912 1.2456C14.912 0.557649 14.3552 0 13.6688 0H8.6981C8.0117 0 7.45532 0.557649 7.45532 1.2456C7.45532 1.93356 8.0117 2.49121 8.6981 2.49121H9.94089V5.05154C7.7871 5.29113 5.81598 6.14628 4.20692 7.43719L3.27961 6.50777C2.79452 6.02158 2.00747 6.02158 1.52238 6.50777C1.03729 6.99397 1.03729 7.7828 1.52238 8.26899L2.44969 9.19841C0.917527 11.1166 0 13.5484 0 16.191C0 22.3718 5.01681 27.4 11.1837 27.4C17.3505 27.4 22.3673 22.3718 22.3673 16.191C22.3673 13.5484 21.4498 11.117 19.9177 9.19841ZM11.1837 24.9088C6.38728 24.9088 2.48511 20.9978 2.48511 16.1905C2.48511 13.7932 3.45576 11.6191 5.02333 10.0414C5.02753 10.0372 5.03172 10.0335 5.03591 10.0293C5.04011 10.0251 5.04384 10.0209 5.04803 10.0167C6.62213 8.44507 8.7913 7.47268 11.1832 7.47268C13.5751 7.47268 15.7447 8.44553 17.3188 10.0171C17.3226 10.0213 17.3263 10.0255 17.3305 10.0293C17.3347 10.033 17.3389 10.0372 17.3426 10.041C18.9107 11.6186 19.8813 13.7932 19.8813 16.1905C19.8813 20.9978 15.9791 24.9088 11.1827 24.9088H11.1837Z" fill="black"/>
<path d="M16.1549 14.9468H12.427V11.2104C12.427 10.5225 11.8706 9.96484 11.1842 9.96484C10.4978 9.96484 9.94141 10.5225 9.94141 11.2104V16.1924C9.94141 16.8803 10.4978 17.438 11.1842 17.438H16.1549C16.8413 17.438 17.3977 16.8803 17.3977 16.1924C17.3977 15.5044 16.8413 14.9468 16.1549 14.9468Z" fill="black"/>
</svg>
