<svg width="2" height="6" viewBox="0 0 2 6" fill="none" xmlns="http://www.w3.org/2000/svg">
<path d="M1.05642 5.67241C0.83362 5.67241 0.651052 5.60433 0.50871 5.46818C0.372557 5.32584 0.304481 5.14327 0.304481 4.92047C0.304481 4.69768 0.372557 4.51821 0.50871 4.38205C0.651052 4.23971 0.83362 4.16854 1.05642 4.16854C1.27921 4.16854 1.45869 4.23971 1.59484 4.38205C1.73718 4.51821 1.80835 4.69768 1.80835 4.92047C1.80835 5.14327 1.73718 5.32584 1.59484 5.46818C1.45869 5.60433 1.27921 5.67241 1.05642 5.67241ZM1.05642 2.43259C0.83362 2.43259 0.651052 2.36452 0.50871 2.22836C0.372557 2.08602 0.304481 1.90345 0.304481 1.68066C0.304481 1.45786 0.372557 1.27839 0.50871 1.14223C0.651052 0.999893 0.83362 0.928722 1.05642 0.928722C1.27921 0.928722 1.45869 0.999893 1.59484 1.14223C1.73718 1.27839 1.80835 1.45786 1.80835 1.68066C1.80835 1.90345 1.73718 2.08602 1.59484 2.22836C1.45869 2.36452 1.27921 2.43259 1.05642 2.43259Z" fill="black"/>
</svg>
