<svg  viewBox="0 0 23 23" fill="none" xmlns="http://www.w3.org/2000/svg">
<path d="M11.3801 21.4178C16.9238 21.4178 21.4178 16.9237 21.4178 11.38C21.4178 5.83634 16.9238 1.34229 11.3801 1.34229C5.8364 1.34229 1.34235 5.83634 1.34235 11.38C1.34235 16.9237 5.8364 21.4178 11.3801 21.4178Z" fill="#009639"/>
<path d="M11.3801 3.21509C6.87777 3.21509 3.21509 6.87793 3.21509 11.3801C3.21509 15.8822 6.87793 19.5451 11.3801 19.5451C15.8822 19.5451 19.5451 15.8822 19.5451 11.3801C19.5451 6.87793 15.8822 3.21509 11.3801 3.21509ZM11.3801 19.4863C6.91038 19.4863 3.27388 15.8499 3.27388 11.3801C3.27388 6.91023 6.91038 3.27388 11.3801 3.27388C15.8498 3.27388 19.4861 6.91023 19.4861 11.3801C19.4861 15.8499 15.8498 19.4863 11.3801 19.4863Z" fill="white"/>
<path d="M3.69968 12.5406C3.64272 12.162 3.61302 11.7745 3.61302 11.3802C3.61302 7.09746 7.09734 3.61314 11.3801 3.61314C15.2463 3.61314 18.4616 6.45259 19.0506 10.1554C19.0787 10.209 19.0991 10.2592 19.1141 10.299C19.1277 10.335 19.1378 10.3707 19.1456 10.4059C18.6644 6.54874 15.3654 3.5542 11.3801 3.5542C7.06473 3.5542 3.55408 7.06501 3.55408 11.3802C3.55408 11.8169 3.59006 12.2452 3.65911 12.6626L3.69953 12.5406H3.69968Z" fill="white"/>
<path d="M19.166 10.5808C19.1671 10.6448 19.1623 10.7044 19.1564 10.7566C19.1515 10.7999 19.1426 10.8408 19.1317 10.8798C19.1423 11.0453 19.1476 11.2121 19.1476 11.3802C19.1476 15.6629 15.6633 19.1472 11.3806 19.1472C7.67226 19.1472 4.56258 16.5348 3.79508 13.0539L3.73138 13.0384C4.49414 16.5599 7.63414 19.2062 11.3806 19.2062C15.6959 19.2062 19.2066 15.6954 19.2066 11.3802C19.2066 11.1104 19.1928 10.8437 19.166 10.5808Z" fill="white"/>
<path d="M18.8669 11.3967C18.8567 11.41 18.8463 11.4232 18.8357 11.4359C18.8265 11.4469 18.8172 11.4578 18.8077 11.4687C18.8065 11.5736 18.8029 11.6778 18.7974 11.7815L18.8547 11.8126C18.8625 11.6749 18.8668 11.5362 18.8671 11.3967H18.8669Z" fill="white"/>
<path d="M3.96141 11.7519C3.95529 11.6288 3.95223 11.505 3.95223 11.3804C3.95223 7.28454 7.28451 3.95226 11.3803 3.95226C14.9129 3.95226 17.8774 6.43115 18.6259 9.74062C18.635 9.74552 18.6438 9.75012 18.6529 9.75532C18.6653 9.76236 18.6778 9.76956 18.6905 9.77706C18.6921 9.77798 18.6936 9.77905 18.695 9.77982C17.9599 6.41783 14.9594 3.89331 11.3802 3.89331C7.25175 3.89331 3.89313 7.25209 3.89313 11.3804C3.89313 11.556 3.8994 11.73 3.91135 11.9026L3.96126 11.7519H3.96141Z" fill="white"/>
<path d="M4.29826 11.0623C4.46514 7.30036 7.57788 4.29112 11.3802 4.29112C14.6716 4.29112 17.4463 6.54587 18.2409 9.59201C18.2628 9.59676 18.2844 9.60227 18.306 9.60809C17.5157 6.52092 14.7102 4.23218 11.3802 4.23218C7.55568 4.23218 4.42304 7.25137 4.24054 11.0316L4.29811 11.0623H4.29826Z" fill="white"/>
<path d="M4.93727 9.36486C5.79633 6.624 8.35973 4.62999 11.3802 4.62999C14.4006 4.62999 17.0843 6.71908 17.8809 9.5596C17.901 9.5596 17.9215 9.55991 17.9423 9.56037C17.1443 6.68647 14.5047 4.57104 11.3803 4.57104C8.25593 4.57104 5.61153 6.6903 4.81616 9.56802C4.85168 9.4979 4.8921 9.43008 4.93742 9.36486H4.93727Z" fill="white"/>
<path d="M4.57324 11.2083L4.59391 11.2193C4.60723 11.2264 4.61963 11.234 4.63157 11.2418C4.63601 11.0192 4.65132 10.7992 4.67705 10.5823C4.66158 10.5125 4.65102 10.4425 4.64566 10.3721C4.60478 10.646 4.58028 10.9251 4.57324 11.2083Z" fill="white"/>
<path d="M17.9065 13.1067C17.1418 15.9951 14.5058 18.1303 11.3802 18.1303C8.2546 18.1303 5.83235 16.1641 4.95553 13.453C4.93471 13.4522 4.91389 13.4513 4.89276 13.4502C5.77081 16.1957 8.34707 18.1892 11.38 18.1892C14.413 18.1892 17.2263 16.0074 17.978 13.0652C17.9543 13.0794 17.9304 13.0934 17.9062 13.1067H17.9065Z" fill="white"/>
<path d="M4.96907 11.3806C4.96907 11.3303 4.96968 11.2804 4.97091 11.2305C4.95208 11.2025 4.93309 11.1734 4.91457 11.1436C4.91166 11.2222 4.91028 11.3013 4.91028 11.3806C4.91028 11.4718 4.91227 11.5624 4.9161 11.6528C4.93462 11.6819 4.95468 11.7111 4.97657 11.7404C4.97749 11.7413 4.97856 11.7423 4.97963 11.7433C4.9729 11.6232 4.96938 11.5023 4.96938 11.3806H4.96907Z" fill="white"/>
<path d="M17.5031 13.2831C16.6906 15.8921 14.253 17.7915 11.3802 17.7915C8.50739 17.7915 6.17517 15.9731 5.31213 13.4509C5.29192 13.452 5.2714 13.453 5.25073 13.4538C6.11699 16.0076 8.5374 17.8505 11.3802 17.8505C14.223 17.8505 16.765 15.9136 17.572 13.2595C17.5492 13.2678 17.5262 13.2756 17.5033 13.2831H17.5031Z" fill="white"/>
<path d="M5.48741 8.85556C6.46957 6.57218 8.74116 4.96935 11.3802 4.96935C14.2921 4.96935 16.7567 6.92064 17.5353 9.58433C17.5529 9.58173 17.5705 9.57913 17.5882 9.57698C17.5902 9.57668 17.5922 9.57652 17.5943 9.57637C16.8114 6.88375 14.3221 4.9104 11.3802 4.9104C8.68681 4.9104 6.37281 6.56468 5.40015 8.91037C5.42832 8.89139 5.45741 8.87317 5.48726 8.85556H5.48741Z" fill="white"/>
<path d="M5.31634 11.7014C5.29552 11.6731 5.27455 11.6448 5.25342 11.6165C5.25801 11.7351 5.26597 11.8528 5.27715 11.9697C5.29767 11.9752 5.31772 11.9787 5.33732 11.9798C5.32829 11.8876 5.32124 11.7948 5.31634 11.7014Z" fill="white"/>
<path d="M5.95351 8.65655C6.95342 6.67203 9.01036 5.30757 11.3801 5.30757C13.9978 5.30757 16.2339 6.97257 17.0852 9.29927L17.1045 9.29039L17.0934 9.32224C17.1331 9.43186 17.1697 9.54301 17.2031 9.65555C17.2219 9.65003 17.2409 9.64483 17.2599 9.63993C16.5081 7.10408 14.1568 5.24878 11.3802 5.24878C8.9678 5.24878 6.87657 6.64937 5.87634 8.67997C5.90145 8.67201 5.92717 8.6642 5.95366 8.65685L5.95351 8.65655Z" fill="white"/>
<path d="M17.1802 13.3626C17.1591 13.3663 17.1378 13.3695 17.1165 13.3726C16.29 15.745 14.0307 17.4521 11.3802 17.4521C9.12727 17.4521 7.15698 16.2189 6.10899 14.3919H6.04132C7.09513 16.2526 9.09343 17.5111 11.3802 17.5111C14.0674 17.5111 16.3565 15.7732 17.1823 13.3623C17.1816 13.3623 17.181 13.3626 17.1802 13.3628V13.3626Z" fill="white"/>
<path d="M5.93846 14.0734C5.83221 13.8595 5.7382 13.6386 5.65736 13.4114C5.63777 13.4147 5.61817 13.4181 5.59827 13.4212C5.69258 13.6876 5.80496 13.9456 5.93356 14.1937L5.93846 14.0734Z" fill="white"/>
<path d="M5.98927 13.3325C5.97059 13.3383 5.95176 13.3438 5.93262 13.3492C5.96737 13.4452 6.00458 13.5401 6.04438 13.6338C6.05372 13.6106 6.06306 13.5873 6.0724 13.5639L6.07332 13.5617C6.07408 13.5597 6.075 13.5576 6.07577 13.5556C6.04545 13.4819 6.01667 13.4075 5.98942 13.3325H5.98927Z" fill="white"/>
<path d="M16.6821 9.04883L16.6521 9.12768C16.6963 9.23087 16.7377 9.33559 16.776 9.44184L16.8297 9.41719C16.7845 9.29242 16.7354 9.16947 16.6821 9.04883Z" fill="white"/>
<path d="M6.38052 8.5764C7.36406 6.82949 9.23666 5.64693 11.3801 5.64693C13.5235 5.64693 15.5733 6.94432 16.5138 8.82887L16.6161 8.90465C15.6861 6.94585 13.6887 5.58813 11.3801 5.58813C9.19961 5.58813 7.29669 6.79933 6.30872 8.58421C6.33214 8.5813 6.35602 8.5787 6.38052 8.5764Z" fill="white"/>
<path d="M16.8017 13.3944C16.7841 13.3944 16.7664 13.3943 16.7485 13.3938C15.9315 15.5648 13.8334 17.1136 11.3802 17.1136C9.32295 17.1136 7.51526 16.0244 6.50371 14.3923H6.43451C7.4528 16.0583 9.28881 17.1725 11.3804 17.1725C13.8663 17.1725 15.9914 15.5983 16.8112 13.3944C16.8082 13.3944 16.8049 13.3944 16.8019 13.3944H16.8017Z" fill="white"/>
<path d="M6.77858 8.56809C7.72782 7.02037 9.43553 5.98586 11.3802 5.98586C13.325 5.98586 15.1153 7.0712 16.0496 8.68139C16.0554 8.68139 16.0612 8.68139 16.067 8.68139V8.71186C16.0676 8.71262 16.0681 8.71339 16.0686 8.71415V8.68139C16.085 8.68139 16.1013 8.68169 16.1179 8.68185C15.1777 7.03737 13.4063 5.92676 11.3802 5.92676C9.35423 5.92676 7.66642 6.98562 6.71045 8.56641C6.73341 8.56687 6.75607 8.56733 6.77858 8.56794V8.56809Z" fill="white"/>
<path d="M16.4007 13.3545C15.6112 15.3552 13.6585 16.7747 11.3805 16.7747C9.52075 16.7747 7.87765 15.8286 6.90743 14.3924H6.83655C7.81442 15.8626 9.48615 16.8336 11.3803 16.8336C13.6868 16.8336 15.6634 15.3943 16.4591 13.3666C16.4393 13.3629 16.4199 13.3589 16.4006 13.3545H16.4007Z" fill="white"/>
<path d="M16.0815 13.2393C15.3394 15.1097 13.5118 16.4359 11.3803 16.4359C9.7205 16.4359 8.24505 15.6318 7.32275 14.3926H7.24988C8.18105 15.6659 9.68559 16.4948 11.3803 16.4948C13.5351 16.4948 15.3827 15.1552 16.1346 13.2651C16.1167 13.2569 16.0989 13.2483 16.0815 13.2393Z" fill="white"/>
<path d="M7.1579 8.60384C8.06289 7.23204 9.61765 6.3249 11.3803 6.3249C13.143 6.3249 14.7752 7.27797 15.6694 8.70749C15.6888 8.70122 15.7087 8.69586 15.7291 8.69188C14.8264 7.23709 13.2148 6.26611 11.3803 6.26611C9.54584 6.26611 8.00838 7.193 7.09497 8.59236C7.11625 8.59573 7.13723 8.59971 7.1579 8.604V8.60384Z" fill="white"/>
<path d="M7.499 8.70442C8.35087 7.47286 9.77273 6.66417 11.3803 6.66417C13.0805 6.66417 14.5734 7.5687 15.4034 8.92167C15.4143 8.90284 15.4264 8.88508 15.4395 8.86824C14.5964 7.51098 13.0923 6.60522 11.3803 6.60522C9.66832 6.60522 8.30371 7.42907 7.4422 8.68283C7.46057 8.68911 7.47956 8.69631 7.499 8.70442Z" fill="white"/>
<path d="M15.7963 13.0364C15.1243 14.8225 13.3986 16.0966 11.3803 16.0966C9.89969 16.0966 8.57657 15.4105 7.71123 14.34L7.70786 14.3924H7.67786C8.55422 15.4677 9.88836 16.1555 11.3803 16.1555C13.4155 16.1555 15.1571 14.8756 15.8432 13.0786C15.8271 13.0649 15.8115 13.0508 15.7961 13.0364H15.7963Z" fill="white"/>
<path d="M7.79719 8.86875C8.58981 7.7413 9.90037 7.00304 11.3803 7.00304C13.0206 7.00304 14.4529 7.91017 15.2023 9.24891C15.2155 9.2313 15.2282 9.21369 15.2403 9.19608C14.4771 7.85245 13.0329 6.94409 11.3803 6.94409C9.8797 6.94409 8.55107 7.69307 7.74774 8.83675C7.76412 8.84716 7.78066 8.85773 7.79719 8.86875Z" fill="white"/>
<path d="M15.5529 12.7041C14.9906 14.4727 13.3328 15.7579 11.3804 15.7579C9.90248 15.7579 8.59345 15.0216 7.80053 13.8966C7.79793 13.9035 7.79517 13.9104 7.79257 13.9173C7.78675 13.9323 7.78078 13.9473 7.77496 13.9623C8.58074 15.0844 9.89667 15.8167 11.3804 15.8167C13.339 15.8167 15.005 14.5407 15.5913 12.7765C15.5777 12.7529 15.565 12.7288 15.5529 12.7041Z" fill="white"/>
<path d="M8.0528 9.09509C8.78173 8.03715 10.0013 7.34206 11.3803 7.34206C12.4032 7.34206 13.3382 7.72451 14.0506 8.35361L14.0881 8.38591L14.1336 8.42894C14.1443 8.43889 14.155 8.44869 14.1656 8.45879C14.1794 8.46492 14.1944 8.4715 14.2098 8.47869C14.2536 8.4989 14.2939 8.51957 14.3313 8.54085C13.5853 7.766 12.5383 7.28296 11.3802 7.28296C9.98757 7.28296 8.75524 7.98157 8.01453 9.0464C8.02953 9.06401 8.04208 9.08039 8.05265 9.09493L8.0528 9.09509Z" fill="white"/>
<path d="M14.8098 9.14136C14.8262 9.19571 14.8374 9.25037 14.8435 9.30564C14.8838 9.3727 14.922 9.44083 14.9585 9.51034C14.9738 9.49656 14.9888 9.48278 15.0033 9.469C14.9438 9.35662 14.8792 9.2473 14.8098 9.14136Z" fill="white"/>
<path d="M14.9394 13.287C14.2575 14.5549 12.918 15.4189 11.3803 15.4189C9.93505 15.4189 8.66491 14.6555 7.95114 13.5109C7.94394 13.5291 7.93675 13.5473 7.92955 13.5655C7.92772 13.57 7.92603 13.5746 7.92419 13.579C8.65235 14.7198 9.92939 15.4778 11.3802 15.4778C13.0017 15.4778 14.4063 14.5309 15.07 13.1609C15.0341 13.2137 14.9904 13.2558 14.9392 13.287H14.9394Z" fill="white"/>
<path d="M8.13432 9.60711C8.76327 8.46022 9.98243 7.68077 11.3803 7.68077C12.2001 7.68077 12.9583 7.94901 13.5722 8.40204C13.6018 8.39653 13.6295 8.39301 13.6549 8.3904C13.0231 7.90844 12.2346 7.62183 11.3803 7.62183C9.94874 7.62183 8.70157 8.42654 8.06726 9.60727H8.13432V9.60711Z" fill="white"/>
<path d="M14.5087 13.3527C13.8526 14.3896 12.6956 15.0797 11.3803 15.0797C10.065 15.0797 8.9019 14.386 8.24677 13.3442C8.22518 13.3464 8.20329 13.3485 8.18109 13.3504C8.84372 14.4225 10.03 15.1385 11.3803 15.1385C12.7307 15.1385 13.9153 14.4235 14.5782 13.3525H14.5087V13.3527Z" fill="white"/>
<path d="M8.49506 9.6068C8.50608 9.6068 8.51649 9.6068 8.52721 9.6068C9.1211 8.6548 10.1778 8.01988 11.3801 8.01988C12.0472 8.01988 12.6694 8.21524 13.1927 8.55176C13.2022 8.54594 13.2117 8.53997 13.2214 8.53446C13.2233 8.53324 13.2253 8.53232 13.2272 8.53125C13.2347 8.52696 13.2423 8.52298 13.2498 8.51885C12.7121 8.16625 12.0697 7.96094 11.3801 7.96094C10.1435 7.96094 9.05833 8.62081 8.4577 9.6068C8.4701 9.6068 8.48251 9.6068 8.49506 9.6068Z" fill="white"/>
<path d="M14.0992 13.3529C13.4879 14.1934 12.4968 14.741 11.3802 14.741C10.2637 14.741 9.22134 14.1646 8.61444 13.2869C8.59423 13.2913 8.57387 13.2956 8.5532 13.2997C8.55274 13.2997 8.55228 13.2999 8.55182 13.3C9.1676 14.2047 10.2056 14.8 11.3802 14.8C12.5549 14.8 13.552 14.2278 14.1719 13.3529C14.1477 13.3529 14.1234 13.3529 14.0992 13.3529Z" fill="white"/>
<path d="M8.93457 9.60822C9.48421 8.85174 10.3757 8.35875 11.3802 8.35875C11.9452 8.35875 12.4743 8.51476 12.927 8.78575C12.9394 8.77014 12.9523 8.75483 12.9656 8.74013C12.5022 8.46087 11.9597 8.2998 11.3802 8.2998C10.3411 8.2998 9.42052 8.81714 8.8623 9.60761C8.8868 9.60777 8.91084 9.60792 8.93457 9.60807V9.60822Z" fill="white"/>
<path d="M13.7131 13.3464C13.7131 13.3464 13.7067 13.3456 13.7047 13.3455L13.6748 13.3429C13.1203 13.9903 12.2972 14.4014 11.3798 14.4014C10.3914 14.4014 9.51225 13.9242 8.96061 13.1882C8.94148 13.1951 8.92203 13.2019 8.90228 13.2083C9.46386 13.9672 10.3652 14.4604 11.3798 14.4604C12.3298 14.4604 13.1806 14.028 13.7462 13.3498C13.7333 13.3487 13.722 13.3475 13.7131 13.3464Z" fill="white"/>
<path d="M9.34059 9.64036C9.83297 9.06393 10.5647 8.69786 11.3804 8.69786C11.8853 8.69786 12.3581 8.83826 12.7618 9.08169C12.7686 9.06301 12.7758 9.04449 12.7836 9.02611C12.3728 8.78038 11.8928 8.63892 11.3804 8.63892C10.5336 8.63892 9.77541 9.02489 9.27216 9.63011C9.29527 9.63317 9.31809 9.63669 9.34059 9.64036Z" fill="white"/>
<path d="M13.3992 13.1444C12.9072 13.7067 12.1847 14.0626 11.3804 14.0626C10.5307 14.0626 9.77207 13.6653 9.28015 13.0469C9.26254 13.0562 9.24463 13.0652 9.22656 13.0743C9.72889 13.7116 10.5077 14.1215 11.3803 14.1215C12.1922 14.1215 12.9226 13.7666 13.425 13.204L13.3989 13.1446L13.3992 13.1444Z" fill="white"/>
<path d="M9.7095 9.7388C10.135 9.30582 10.7267 9.03682 11.3803 9.03682C11.871 9.03682 12.3269 9.18854 12.7037 9.44744C12.7033 9.42371 12.7036 9.40029 12.7047 9.37701C12.3248 9.12501 11.8695 8.97803 11.3803 8.97803C10.7002 8.97803 10.0854 9.26203 9.64795 9.71767C9.66816 9.72425 9.68867 9.73129 9.7095 9.73895V9.7388Z" fill="white"/>
<path d="M12.6451 13.3525C12.2801 13.5874 11.8459 13.7238 11.3804 13.7238C10.915 13.7238 10.481 13.5874 10.116 13.3525C10.0807 13.3525 10.0455 13.3525 10.0103 13.3525C10.3992 13.6235 10.8715 13.7828 11.3804 13.7828C11.8893 13.7828 12.3618 13.6235 12.7507 13.3525C12.7155 13.3525 12.6803 13.3525 12.6451 13.3525Z" fill="white"/>
<path d="M10.0276 9.9026C10.3844 9.57573 10.8594 9.37593 11.3805 9.37593C11.6885 9.37593 11.9805 9.4459 12.2415 9.57052C12.2646 9.56731 12.2877 9.56501 12.311 9.56348C12.3239 9.56272 12.3381 9.5618 12.3528 9.56103C12.063 9.40548 11.7318 9.31714 11.3805 9.31714C10.8388 9.31714 10.3453 9.52704 9.97681 9.86969C9.9938 9.88025 10.0108 9.89128 10.0278 9.90276L10.0276 9.9026Z" fill="white"/>
<path d="M11.965 13.3523C11.9164 13.3523 11.8705 13.3462 11.828 13.3341C11.684 13.367 11.5341 13.3845 11.3803 13.3845C11.2166 13.3845 11.0575 13.3646 10.9052 13.3274C10.8626 13.3427 10.8181 13.3508 10.7722 13.3519C10.9645 13.4113 11.1687 13.4434 11.3804 13.4434C11.5922 13.4434 11.7955 13.4114 11.9875 13.3522H11.965V13.3523Z" fill="white"/>
<path d="M10.5581 9.86919L10.5606 9.86353C10.4485 9.92431 10.3438 9.99734 10.2482 10.0806C10.2505 10.0831 10.2528 10.0857 10.2551 10.0883C10.2655 10.0996 10.2766 10.1116 10.2879 10.1243C10.3608 10.0607 10.4393 10.0036 10.5224 9.9534C10.5281 9.93947 10.5338 9.92599 10.5393 9.91298C10.5393 9.91298 10.5547 9.87715 10.558 9.8695L10.5581 9.86919Z" fill="white"/>
<path d="M11.5413 13.038C11.4883 13.043 11.4346 13.0458 11.3802 13.0458C11.3122 13.0458 11.2452 13.0417 11.1794 13.0337C11.1778 13.0372 11.1763 13.0406 11.1746 13.0443C11.1669 13.0609 11.1593 13.0763 11.1524 13.0897C11.227 13.0997 11.3029 13.1047 11.3802 13.1047C11.4409 13.1047 11.5007 13.1015 11.5597 13.0954C11.5525 13.0778 11.5462 13.0586 11.5413 13.038Z" fill="white"/>
<path d="M18.1636 13.4415C17.2786 16.3483 14.5725 18.4692 11.3803 18.4692C8.18805 18.4692 5.46435 16.3346 4.58829 13.4134C4.56625 13.4092 4.54451 13.4046 4.52277 13.3997C5.39637 16.3608 8.13998 18.5282 11.3803 18.5282C14.6205 18.5282 17.3171 16.3977 18.2149 13.4756C18.197 13.4653 18.18 13.454 18.1638 13.4416L18.1636 13.4415Z" fill="white"/>
<path d="M18.7452 12.7297C18.7829 12.524 18.8121 12.3153 18.8323 12.104L18.8158 12.1518C18.8141 12.1574 18.8117 12.1656 18.8085 12.175C18.8059 12.1829 18.8026 12.1919 18.7987 12.2015L18.7977 12.204C18.7967 12.2064 18.7924 12.2165 18.7912 12.2193L18.7896 12.2228C18.785 12.2328 18.7801 12.2426 18.7749 12.2521C18.7679 12.2649 18.7604 12.2779 18.7527 12.2909C18.7362 12.4252 18.7161 12.5583 18.6926 12.6901C18.7111 12.702 18.7287 12.7153 18.7454 12.7297H18.7452Z" fill="white"/>
<path d="M18.4898 13.5342C17.5645 16.5831 14.7273 18.8084 11.3802 18.8084C8.03305 18.8084 5.05091 16.4676 4.20317 13.2984C4.1796 13.2885 4.15648 13.2781 4.13397 13.2673C4.97252 16.4853 7.90337 18.8674 11.3802 18.8674C14.857 18.8674 17.6309 16.6105 18.5546 13.5229C18.5335 13.5281 18.5119 13.5319 18.4897 13.5342H18.4898Z" fill="white"/>
<path d="M18.4412 12.7346C18.5075 12.7346 18.5675 12.7501 18.6211 12.7812C18.6756 12.8113 18.7184 12.8528 18.7494 12.9056C18.7804 12.9585 18.7959 13.0159 18.7959 13.078C18.7959 13.1402 18.7804 13.1988 18.7494 13.2516C18.7183 13.3037 18.6756 13.3452 18.6211 13.3761C18.5675 13.4063 18.5075 13.4214 18.4412 13.4214C18.3749 13.4214 18.3145 13.4063 18.26 13.3761C18.2065 13.345 18.164 13.3036 18.133 13.2516C18.1019 13.1988 18.0864 13.141 18.0864 13.078C18.0864 13.0151 18.1019 12.9585 18.133 12.9056C18.164 12.8528 18.2063 12.8113 18.26 12.7812C18.3145 12.7501 18.375 12.7346 18.4412 12.7346ZM18.4412 13.3548C18.4957 13.3548 18.5439 13.3431 18.5858 13.3196C18.6286 13.2953 18.6618 13.2622 18.6852 13.2203C18.7086 13.1783 18.7204 13.131 18.7204 13.0782C18.7204 13.0254 18.7086 12.9793 18.6852 12.9373C18.6618 12.8954 18.6286 12.8626 18.5858 12.8392C18.5431 12.8148 18.4949 12.8028 18.4412 12.8028C18.3874 12.8028 18.3392 12.8148 18.2965 12.8392C18.2538 12.8626 18.2205 12.8954 18.1971 12.9373C18.1737 12.9793 18.1619 13.0263 18.1619 13.0782C18.1619 13.1301 18.1737 13.1783 18.1971 13.2203C18.2205 13.2622 18.2533 13.2953 18.2953 13.3196C18.338 13.3431 18.3867 13.3548 18.4412 13.3548ZM18.5897 13.0177C18.5897 13.0378 18.5846 13.0563 18.5745 13.0731C18.5644 13.0891 18.5502 13.1011 18.5318 13.1096L18.6136 13.2304H18.5229L18.4499 13.1171H18.3896V13.2304H18.3103V12.9196H18.4902C18.5203 12.9196 18.5442 12.9292 18.5618 12.9485C18.5803 12.9669 18.5895 12.99 18.5895 13.0177H18.5897ZM18.3897 13.0479H18.4753C18.4854 13.0479 18.4934 13.0454 18.4992 13.0404C18.505 13.0345 18.5081 13.0269 18.5081 13.0177C18.5081 13.0085 18.5052 13.0013 18.4992 12.9963C18.4934 12.9905 18.4854 12.9874 18.4753 12.9874H18.3897V13.0477V13.0479Z" fill="white"/>
<path d="M18.453 12.0299C18.451 12.0288 18.4489 12.0277 18.4469 12.0265C18.438 12.0351 18.4296 12.0443 18.4201 12.0519C18.4124 12.0582 18.4023 12.0683 18.395 12.0671C18.3712 12.0631 18.357 12.0783 18.3402 12.0888C18.3057 12.1106 18.2717 12.1329 18.2373 12.1547C18.0912 12.2465 17.937 12.3212 17.7723 12.3736C17.7323 12.3863 17.6921 12.4002 17.6509 12.4074C17.5495 12.4252 17.448 12.4426 17.3439 12.4344C17.277 12.429 17.2124 12.4157 17.1527 12.3858C17.087 12.3529 17.0319 12.3067 16.9916 12.2435C16.9628 12.1981 16.9338 12.1528 16.92 12.1009C16.8913 11.9942 16.8823 11.886 16.9001 11.7759C16.9229 11.6344 16.9655 11.4989 17.0239 11.3686C17.0734 11.2585 17.1264 11.15 17.1804 11.0421C17.2478 10.9075 17.3282 10.7809 17.4205 10.6619C17.4967 10.5638 17.5809 10.4744 17.689 10.4097C17.7339 10.383 17.7815 10.3673 17.8334 10.3655C17.8986 10.363 17.9479 10.3966 17.9663 10.4581C17.973 10.4808 17.9767 10.5059 17.9746 10.5293C17.9661 10.627 17.9312 10.7176 17.8884 10.8041C17.8265 10.9288 17.7469 11.0421 17.6559 11.1479C17.529 11.2956 17.3877 11.4265 17.2225 11.5306C17.1891 11.5517 17.155 11.5715 17.1218 11.5928C17.0977 11.6082 17.0806 11.6344 17.0484 11.6376C17.0441 11.6381 17.0374 11.6494 17.0382 11.6549C17.0392 11.6624 17.0448 11.6721 17.0512 11.6751C17.0598 11.6793 17.0711 11.6793 17.081 11.679C17.128 11.6777 17.1752 11.675 17.2222 11.6741C17.4189 11.6704 17.6135 11.648 17.8054 11.604C17.9752 11.5649 18.1385 11.5086 18.286 11.4136C18.3817 11.3521 18.468 11.2797 18.5413 11.1915C18.617 11.1004 18.6748 10.999 18.7208 10.8913C18.745 10.8343 18.7689 10.7741 18.7757 10.7135C18.7863 10.6207 18.7906 10.5258 18.7561 10.4345C18.7327 10.3724 18.7055 10.3108 18.6643 10.26C18.6167 10.2012 18.5631 10.1464 18.4959 10.1068C18.4322 10.0692 18.3673 10.0357 18.2984 10.0085C18.2036 9.97095 18.1053 9.95059 18.0049 9.94584C17.8816 9.93987 17.7582 9.94186 17.6348 9.95702C17.4682 9.97754 17.307 10.0172 17.1506 10.0769C16.9047 10.1709 16.6951 10.3211 16.5103 10.5044C16.3255 10.6876 16.1817 10.9024 16.0635 11.1336C16.0248 11.2094 15.9903 11.2875 15.9563 11.3656C15.859 11.5894 15.7991 11.8218 15.7997 12.0675C15.8002 12.2164 15.8202 12.3617 15.8798 12.4996C15.9481 12.6579 16.0589 12.7807 16.2048 12.8695C16.3605 12.9643 16.5345 13.003 16.7153 13.01C16.8491 13.0153 16.9824 13.009 17.115 12.986C17.4157 12.934 17.6878 12.8165 17.9328 12.6362C18.0637 12.5397 18.1788 12.4267 18.2808 12.3001C18.34 12.2266 18.3942 12.1498 18.4397 12.0671C18.446 12.0556 18.4486 12.0423 18.453 12.0297V12.0299ZM13.738 12.9646C13.7569 12.9663 13.778 12.9696 13.7993 12.9696C14.0949 12.9699 14.3906 12.9699 14.6861 12.9699C14.7389 12.9699 14.7516 12.9611 14.7709 12.9116C14.7944 12.8513 14.818 12.791 14.8411 12.7305C14.8813 12.6262 14.9206 12.5217 14.9612 12.4175C15.0022 12.3122 15.0448 12.2076 15.086 12.1023C15.147 11.9461 15.2072 11.7898 15.268 11.6337C15.3295 11.475 15.3912 11.3164 15.4529 11.158C15.5064 11.0208 15.5601 10.8838 15.6139 10.7466C15.6185 10.7348 15.6244 10.7235 15.6289 10.7115C15.6391 10.6846 15.658 10.6709 15.6873 10.6725C15.7013 10.6731 15.7154 10.6722 15.7294 10.6722C15.8594 10.6722 15.9894 10.6722 16.1194 10.6722C16.193 10.6722 16.1834 10.6797 16.225 10.6036C16.2269 10.6002 16.2278 10.5965 16.2292 10.5929C16.2864 10.4462 16.3442 10.2997 16.4008 10.1528C16.4175 10.1095 16.4314 10.0653 16.4493 10.0135C16.4127 10.0304 16.4259 9.9979 16.4132 9.99208C16.2534 9.98764 16.0935 9.9832 15.9282 9.97876C15.9319 9.95472 15.9317 9.93421 15.9383 9.91614C15.9642 9.84587 15.992 9.77636 16.0193 9.7067C16.0741 9.56584 16.129 9.42514 16.1836 9.28428C16.2064 9.22534 16.2286 9.16594 16.2498 9.1099C16.2327 9.09719 16.2208 9.08663 16.2071 9.07882C16.1966 9.0727 16.1843 9.06673 16.1725 9.06642C16.1166 9.06474 16.0608 9.06504 16.0049 9.06428C15.9845 9.06397 15.9643 9.06137 15.9439 9.06152C15.9008 9.06198 15.8573 9.06045 15.8146 9.06581C15.7821 9.06979 15.7516 9.08249 15.7334 9.11541C15.6939 9.18645 15.6531 9.25688 15.6114 9.32654C15.4966 9.51853 15.3464 9.68113 15.1786 9.82688C14.9763 10.0025 14.7435 10.127 14.4889 10.2098C14.397 10.2396 14.3034 10.2638 14.211 10.292C14.1877 10.2991 14.1614 10.3036 14.1502 10.3317C14.1154 10.4189 14.0796 10.5057 14.0446 10.593C14.0199 10.6544 14.0314 10.6722 14.096 10.6723C14.2387 10.6726 14.3814 10.6723 14.5241 10.6723C14.5356 10.6723 14.547 10.6719 14.5585 10.6725C14.5902 10.6743 14.595 10.6809 14.5859 10.71C14.5849 10.7137 14.5833 10.7172 14.5819 10.7207C14.5548 10.7917 14.5277 10.8629 14.5006 10.934C14.4709 11.0122 14.4415 11.0906 14.4114 11.1687C14.3693 11.2777 14.3264 11.3864 14.284 11.4952C14.2551 11.5698 14.2266 11.6445 14.1975 11.7189C14.1647 11.8028 14.1315 11.8866 14.0989 11.9705C14.07 12.045 14.0421 12.1199 14.013 12.1945C13.9822 12.2736 13.9501 12.3523 13.9193 12.4316C13.8895 12.5085 13.8608 12.5858 13.8311 12.6628C13.8013 12.7398 13.7708 12.8165 13.7406 12.8935C13.7322 12.9151 13.7258 12.937 13.7379 12.9646H13.738ZM10.9104 10.0189C10.8984 10.0469 10.886 10.0746 10.8749 10.1028C10.8245 10.2303 10.7744 10.3578 10.7245 10.4855C10.6921 10.5684 10.6599 10.6512 10.6277 10.734C10.5892 10.8334 10.5509 10.9331 10.512 11.0323C10.4699 11.1399 10.4273 11.2472 10.3851 11.3547C10.3424 11.4634 10.3001 11.5723 10.2575 11.681C10.2292 11.7531 10.2001 11.8247 10.1723 11.8968C10.1416 11.9761 10.1126 12.0562 10.0816 12.1355C10.0264 12.2775 9.96971 12.4191 9.91444 12.561C9.87387 12.6651 9.83452 12.7697 9.79502 12.8741C9.78874 12.8906 9.78323 12.9078 9.77956 12.9251C9.7742 12.95 9.784 12.9643 9.80911 12.9681C9.82289 12.9702 9.83712 12.9696 9.85106 12.9696C10.1455 12.9696 10.4399 12.9696 10.7343 12.9696C10.7432 12.9696 10.7522 12.9692 10.7611 12.9695C10.7766 12.9699 10.7879 12.9646 10.7948 12.9499C10.8086 12.9205 10.8249 12.8922 10.8369 12.862C10.867 12.7851 10.8949 12.7075 10.9245 12.6305C10.966 12.5227 11.0084 12.4151 11.0502 12.3075C11.0952 12.1914 11.1394 12.075 11.1846 11.959C11.2265 11.8514 11.2689 11.7439 11.3112 11.6363C11.3594 11.5133 11.4054 11.3893 11.4566 11.2676C11.4997 11.1656 11.5499 11.0667 11.6171 10.9778C11.6783 10.8968 11.75 10.8273 11.8397 10.7773C11.9016 10.7429 11.9686 10.7257 12.038 10.7306C12.2 10.7418 12.3205 10.8228 12.4036 10.9609C12.4108 10.9727 12.4181 10.9845 12.4249 10.9952C12.4439 10.9952 12.455 10.9895 12.4615 10.9719C12.4837 10.9124 12.5077 10.8537 12.5308 10.7945C12.587 10.6501 12.6432 10.5057 12.6992 10.3612C12.7314 10.2784 12.7632 10.1954 12.7945 10.1121C12.8009 10.0951 12.8035 10.0767 12.8072 10.062C12.7961 10.0588 12.7886 10.0588 12.7844 10.0552C12.7703 10.0428 12.7597 10.0238 12.7436 10.0167C12.6937 9.99499 12.6427 9.97417 12.5904 9.95932C12.5072 9.93589 12.4209 9.93941 12.3359 9.94493C12.2687 9.94937 12.2023 9.96498 12.1398 9.99131C12.0556 10.0268 11.9813 10.0781 11.9164 10.1424C11.8259 10.232 11.7581 10.3378 11.6999 10.4502C11.6768 10.4947 11.6577 10.542 11.6171 10.5832C11.6188 10.556 11.6211 10.5347 11.6212 10.5134C11.6215 10.3977 11.6217 10.2819 11.6211 10.1662C11.6208 10.1268 11.6174 10.0875 11.6163 10.0481C11.6159 10.031 11.6094 10.0184 11.5932 10.0124C11.5778 10.0068 11.5623 9.99943 11.5462 9.99774C11.5122 9.99407 11.4778 9.99223 11.4436 9.99193C11.306 9.99055 11.1684 9.98978 11.0307 9.98963C11.0093 9.98963 10.9875 9.99239 10.9666 9.99729C10.9483 10.0014 10.9314 10.0103 10.9107 10.0184L10.9104 10.0189ZM12.9192 12.9655C12.9355 12.9344 12.9509 12.9072 12.9639 12.8788C12.9745 12.8559 12.9819 12.8314 12.9912 12.8078C13.0342 12.6979 13.0777 12.5881 13.1206 12.4782C13.1497 12.4036 13.178 12.3289 13.2071 12.2543C13.238 12.175 13.2694 12.096 13.3002 12.0167C13.3296 11.9409 13.358 11.8648 13.3876 11.7892C13.4291 11.6828 13.4715 11.5767 13.513 11.4703C13.5546 11.3639 13.5957 11.2573 13.637 11.1508C13.6774 11.0467 13.7175 10.9424 13.7582 10.8383C13.8072 10.7129 13.8578 10.5881 13.9051 10.4623C13.9187 10.4258 13.9409 10.3915 13.9406 10.3506C13.9406 10.3473 13.9383 10.3439 13.9366 10.3395C13.93 10.3419 13.9244 10.3441 13.9159 10.3471C13.9026 10.3214 13.8767 10.3197 13.8512 10.3179C13.7319 10.3092 13.6123 10.3029 13.4949 10.2795C13.4064 10.2618 13.3167 10.2464 13.231 10.2194C13.1515 10.1945 13.0746 10.1631 12.9894 10.1599C12.9681 10.2132 12.9463 10.2674 12.9248 10.3214C12.8984 10.3872 12.8716 10.4531 12.8458 10.5191C12.8035 10.6265 12.762 10.7342 12.7199 10.8416C12.6917 10.9138 12.6628 10.9856 12.6348 11.0577C12.5916 11.1688 12.5492 11.2803 12.5059 11.3914C12.4783 11.4623 12.4491 11.5326 12.4215 11.6036C12.3783 11.7148 12.3361 11.8263 12.2931 11.9376C12.2624 12.0169 12.2314 12.0959 12.2006 12.1752C12.1817 12.2237 12.1638 12.2726 12.145 12.3211C12.1147 12.399 12.0836 12.4768 12.0531 12.5547C12.0305 12.6126 12.0083 12.6708 11.9859 12.7288C11.9634 12.7868 11.9377 12.8438 11.9195 12.903C11.9025 12.9585 11.9161 12.9698 11.9665 12.9696C11.9691 12.9696 11.9715 12.9696 11.9741 12.9696C12.2735 12.9696 12.5729 12.9696 12.8722 12.9695C12.8885 12.9695 12.9047 12.9667 12.9192 12.9653V12.9655ZM13.7852 8.76879L13.7846 8.76343C13.7304 8.7694 13.675 8.77016 13.6224 8.78272C13.5382 8.80293 13.4585 8.83646 13.3845 8.88315C13.2815 8.94822 13.204 9.03672 13.1503 9.14404C13.0994 9.2457 13.0806 9.35578 13.0873 9.46969C13.0947 9.59585 13.131 9.71267 13.2068 9.81433C13.326 9.97432 13.4876 10.0673 13.6852 10.0916C13.8833 10.1159 14.0649 10.0694 14.2234 9.94554C14.3327 9.86011 14.408 9.75079 14.4466 9.61667C14.4667 9.54716 14.4671 9.47658 14.4667 9.40524C14.4657 9.26469 14.4099 9.14404 14.3318 9.03197C14.2961 8.98068 14.2483 8.94195 14.1954 8.90658C14.1369 8.86754 14.0749 8.83722 14.0113 8.80936C13.9884 8.79925 13.9622 8.79635 13.9377 8.78992C13.9279 8.78747 13.9184 8.7841 13.9086 8.78165C13.8904 8.77721 13.8725 8.77108 13.8539 8.7694C13.8313 8.76726 13.8082 8.76894 13.7852 8.76894V8.76879Z" fill="white"/>
<path d="M6.3241 14.0094C6.32624 13.9549 6.34844 13.9059 6.36788 13.8563C6.40846 13.7522 6.45117 13.649 6.49159 13.5449C6.54686 13.403 6.60029 13.2603 6.65526 13.1182C6.69552 13.0141 6.73732 12.9105 6.77789 12.8063C6.81847 12.7022 6.85812 12.5978 6.89885 12.4939C6.93957 12.3899 6.98137 12.2864 7.0224 12.1824C7.05088 12.1105 7.07874 12.0382 7.10676 11.966C7.13845 11.8844 7.17014 11.8028 7.20168 11.7211C7.24501 11.6086 7.28788 11.4959 7.33182 11.3837C7.37255 11.2798 7.41496 11.1764 7.45553 11.0723C7.50544 10.9445 7.55367 10.8162 7.60358 10.6883C7.64369 10.5854 7.68564 10.4832 7.72622 10.3804C7.7625 10.2884 7.79771 10.1961 7.834 10.1041C7.8438 10.0793 7.85207 10.0528 7.86753 10.032C7.8784 10.0173 7.89922 10.0072 7.91759 10.0015C7.94163 9.99414 7.96751 9.99001 7.99261 9.99001C8.30862 9.98955 8.62462 9.98817 8.94063 9.99093C9.10629 9.99231 9.27148 10.007 9.43178 10.052C9.50619 10.0728 9.58075 10.096 9.65103 10.1276C9.73431 10.1653 9.81194 10.2149 9.88466 10.271C9.90365 10.2857 9.92722 10.2959 9.94284 10.3134C9.99183 10.3682 10.0453 10.4196 10.082 10.4845C10.1456 10.5968 10.1875 10.7166 10.197 10.8449C10.2065 10.9731 10.2017 11.1014 10.1745 11.2283C10.1465 11.3592 10.1041 11.4852 10.0522 11.6085C9.97606 11.7896 9.88497 11.9621 9.76999 12.1221C9.69696 12.2238 9.61321 12.3158 9.5238 12.4031C9.36059 12.5624 9.1712 12.6829 8.96375 12.7754C8.8085 12.8446 8.64575 12.8907 8.47902 12.9236C8.33878 12.9513 8.19716 12.9669 8.05477 12.9758C7.99782 12.9793 7.94041 12.9764 7.88238 12.9764C7.87809 12.9679 7.87381 12.9591 7.86829 12.948C7.87442 12.9429 7.88039 12.9345 7.88774 12.9328C7.90734 12.9285 7.92142 12.9207 7.9329 12.9026C7.94102 12.8899 7.95878 12.8829 7.97286 12.8743C8.06687 12.8178 8.15689 12.7551 8.23911 12.6828C8.32117 12.6107 8.39941 12.5338 8.47703 12.4568C8.58681 12.3478 8.6776 12.2233 8.76058 12.0936C8.83315 11.9802 8.90113 11.8637 8.95135 11.7378C8.98105 11.6636 9.01596 11.5913 9.04321 11.5161C9.09343 11.3774 9.13553 11.2366 9.14931 11.0882C9.15559 11.0202 9.15314 10.9538 9.14119 10.8872C9.1118 10.7241 8.98656 10.6 8.8235 10.572C8.79717 10.5674 8.77068 10.5637 8.74435 10.5596C8.71878 10.5556 8.69949 10.5646 8.68678 10.5871C8.68234 10.5949 8.67714 10.6023 8.67392 10.6104C8.63565 10.7071 8.59783 10.8042 8.55971 10.9011C8.51791 11.0074 8.4755 11.1136 8.43386 11.2199C8.40523 11.2932 8.37752 11.3669 8.34889 11.4402C8.3054 11.5514 8.26131 11.6624 8.21798 11.7735C8.17833 11.8752 8.13959 11.9773 8.09979 12.0789C8.05814 12.1854 8.01573 12.2915 7.97394 12.3979C7.94607 12.4687 7.91897 12.5399 7.89141 12.611C7.84763 12.7234 7.80353 12.8356 7.75974 12.9481C7.71963 13.051 7.68013 13.1542 7.63986 13.2571C7.59822 13.3635 7.55581 13.4696 7.51401 13.576C7.48753 13.6434 7.46196 13.711 7.43578 13.7784C7.4073 13.8517 7.37852 13.9249 7.35004 13.9982C7.34866 14.0016 7.34943 14.0058 7.34912 14.0096H6.3244L6.3241 14.0094Z" fill="white"/>
<path d="M3.97653 12.6129C3.98235 12.621 3.98802 12.6291 3.99215 12.6347C4.13224 12.2773 4.27309 11.9179 4.41425 11.5574C4.45498 11.579 4.46616 11.6154 4.4807 11.6483C4.5326 11.7665 4.5992 11.876 4.67683 11.9789C4.69351 12.0011 4.71525 12.0196 4.73501 12.0393C4.77007 12.0745 4.80666 12.1082 4.84019 12.1448C4.90281 12.2126 4.98043 12.2612 5.06203 12.2981C5.2107 12.3653 5.36763 12.3837 5.52777 12.3391C5.70782 12.2889 5.80964 12.1669 5.84684 11.9873C5.85878 11.9293 5.84454 11.8731 5.82617 11.8187C5.79448 11.7252 5.74426 11.6405 5.68715 11.5609C5.59146 11.4275 5.49164 11.2971 5.39396 11.1653C5.31511 11.0589 5.23933 10.9503 5.17671 10.8333C5.06816 10.6306 5.0109 10.4158 5.02667 10.1843C5.03463 10.0664 5.06586 9.95453 5.10995 9.84521C5.1614 9.71783 5.23137 9.60132 5.31772 9.49568C5.3984 9.39677 5.49287 9.31119 5.59835 9.23831C5.68149 9.1809 5.77013 9.13328 5.86261 9.09363C5.98586 9.04065 6.11508 9.00758 6.24659 8.98156C6.44853 8.9416 6.65247 8.9468 6.85594 8.95385C6.96373 8.95767 7.07243 8.97115 7.17593 9.00299C7.2387 9.02228 7.30377 9.03591 7.36379 9.06285C7.41814 9.0872 7.47096 9.11583 7.52179 9.14676C7.57813 9.1812 7.63263 9.21871 7.68545 9.25837C7.70934 9.27613 7.72909 9.30047 7.74654 9.32497C7.75282 9.33385 7.75037 9.35253 7.74608 9.36477C7.73016 9.41162 7.7124 9.45786 7.69449 9.50394C7.66356 9.58325 7.63202 9.66225 7.60079 9.74141C7.54628 9.87966 7.49193 10.0181 7.43743 10.1563C7.41661 10.2094 7.39364 10.2617 7.37542 10.3157C7.36623 10.3431 7.35536 10.3635 7.32413 10.3659C7.30178 10.3079 7.28142 10.2491 7.25677 10.1921C7.17287 9.99816 7.05008 9.83618 6.8639 9.72855C6.70835 9.63868 6.54193 9.61112 6.36647 9.65154C6.24506 9.6794 6.15672 9.75136 6.10176 9.86358C6.06991 9.92835 6.04863 9.99541 6.05307 10.0689C6.05659 10.1252 6.06838 10.1791 6.09012 10.2315C6.1284 10.3238 6.18504 10.4056 6.23756 10.4895C6.26971 10.5409 6.31089 10.5867 6.34764 10.6352C6.37137 10.6666 6.39449 10.6985 6.41807 10.73C6.4294 10.7453 6.43996 10.7614 6.45267 10.7756C6.51621 10.847 6.57255 10.9235 6.62368 11.004C6.64956 11.0448 6.67788 11.0838 6.70376 11.1245C6.79669 11.2711 6.86253 11.4285 6.89253 11.5998C6.89651 11.6221 6.89621 11.6454 6.89667 11.6682C6.89743 11.7039 6.8956 11.7396 6.89759 11.7751C6.90356 11.8816 6.87585 11.9816 6.83879 12.0798C6.76699 12.2704 6.65936 12.4392 6.5182 12.5856C6.40413 12.704 6.27017 12.796 6.12273 12.869C5.93686 12.961 5.73951 13.0134 5.53589 13.0441C5.32721 13.0757 5.11684 13.0794 4.90663 13.0683C4.76011 13.0607 4.61528 13.0362 4.47519 12.9915C4.32469 12.9436 4.1846 12.8748 4.06533 12.7687C4.04344 12.7493 4.02216 12.7292 3.9995 12.7107C3.99383 12.7061 3.98419 12.7066 3.97638 12.7046C3.97638 12.6741 3.97638 12.6435 3.97638 12.613L3.97653 12.6129Z" fill="white"/>
<path d="M18.453 12.0296C18.4487 12.0421 18.4459 12.0554 18.4396 12.0669C18.3942 12.1496 18.34 12.2263 18.2807 12.3C18.1788 12.4266 18.0636 12.5396 17.9327 12.636C17.6878 12.8164 17.4157 12.934 17.115 12.9859C16.9823 13.0088 16.8491 13.0151 16.7152 13.0099C16.5344 13.0028 16.3605 12.9641 16.2048 12.8693C16.0589 12.7805 15.948 12.6578 15.8798 12.4994C15.8202 12.3615 15.8001 12.2162 15.7997 12.0674C15.7991 11.8217 15.8589 11.5892 15.9563 11.3654C15.9903 11.2873 16.0246 11.2092 16.0635 11.1335C16.1818 10.9023 16.3256 10.6875 16.5102 10.5042C16.695 10.3209 16.9046 10.1707 17.1505 10.0767C17.307 10.017 17.4682 9.97722 17.6348 9.95686C17.758 9.9417 17.8816 9.93987 18.0048 9.94568C18.1053 9.95043 18.2036 9.97095 18.2983 10.0083C18.3674 10.0356 18.4323 10.0689 18.4958 10.1066C18.563 10.1462 18.6166 10.2011 18.6642 10.2599C18.7054 10.3107 18.7325 10.3722 18.7561 10.4344C18.7906 10.5256 18.7863 10.6206 18.7757 10.7133C18.7688 10.774 18.7449 10.8341 18.7207 10.8911C18.6748 10.999 18.6169 11.1002 18.5413 11.1913C18.468 11.2797 18.3816 11.3519 18.2859 11.4135C18.1385 11.5084 17.9751 11.5647 17.8053 11.6038C17.6135 11.6479 17.4189 11.6702 17.2222 11.6739C17.1752 11.6748 17.128 11.6776 17.081 11.6788C17.0709 11.6791 17.0597 11.6791 17.0512 11.675C17.0447 11.6719 17.0392 11.6621 17.0381 11.6548C17.0374 11.6493 17.0441 11.6379 17.0484 11.6375C17.0805 11.6343 17.0977 11.6081 17.1217 11.5926C17.155 11.5713 17.1891 11.5514 17.2225 11.5305C17.3877 11.4262 17.529 11.2953 17.6559 11.1477C17.7469 11.0419 17.8265 10.9286 17.8883 10.804C17.9312 10.7175 17.9661 10.6268 17.9745 10.5292C17.9765 10.5057 17.973 10.4806 17.9662 10.458C17.9479 10.3964 17.8986 10.3629 17.8334 10.3653C17.7815 10.3673 17.7338 10.3828 17.689 10.4096C17.5809 10.4742 17.4967 10.5636 17.4204 10.6617C17.3281 10.7807 17.2477 10.9075 17.1804 11.0419C17.1263 11.1498 17.0734 11.2584 17.0239 11.3685C16.9654 11.4988 16.9229 11.6343 16.9 11.7757C16.8824 11.8857 16.8915 11.9941 16.9199 12.1008C16.9339 12.1527 16.9628 12.198 16.9916 12.2433C17.0319 12.3065 17.0868 12.3528 17.1527 12.3857C17.2122 12.4155 17.2768 12.4289 17.3439 12.4342C17.448 12.4425 17.5495 12.425 17.6509 12.4073C17.692 12.4001 17.7322 12.3861 17.7723 12.3734C17.937 12.3211 18.0912 12.2462 18.2372 12.1545C18.2717 12.1328 18.3058 12.1104 18.3401 12.0887C18.3568 12.0781 18.3711 12.0629 18.3949 12.0669C18.4023 12.0682 18.4124 12.058 18.42 12.0518C18.4295 12.044 18.438 12.0349 18.4468 12.0264C18.4488 12.0274 18.451 12.0285 18.453 12.0297V12.0296Z" fill="white"/>
<path d="M13.738 12.9646C13.7259 12.9369 13.7323 12.9151 13.7408 12.8935C13.7709 12.8167 13.8014 12.74 13.8312 12.6628C13.8609 12.586 13.8896 12.5085 13.9194 12.4316C13.9502 12.3525 13.9822 12.2738 14.0131 12.1945C14.0422 12.1199 14.0701 12.045 14.099 11.9705C14.1316 11.8866 14.1649 11.8028 14.1976 11.7189C14.2267 11.6444 14.2552 11.5697 14.2841 11.4953C14.3265 11.3864 14.3694 11.2777 14.4115 11.1687C14.4417 11.0906 14.4711 11.0122 14.5008 10.934C14.5279 10.8628 14.555 10.7917 14.5821 10.7207C14.5834 10.7172 14.5848 10.7137 14.586 10.71C14.5951 10.6811 14.5903 10.6743 14.5586 10.6725C14.5472 10.6719 14.5357 10.6723 14.5242 10.6723C14.3815 10.6723 14.2388 10.6725 14.0961 10.6723C14.0313 10.6723 14.0199 10.6544 14.0447 10.593C14.0797 10.5059 14.1156 10.4189 14.1503 10.3317C14.1615 10.3037 14.1878 10.2991 14.2111 10.292C14.3034 10.2638 14.3971 10.2397 14.489 10.2098C14.7436 10.127 14.9765 10.0025 15.1787 9.82689C15.3465 9.68114 15.4967 9.51854 15.6115 9.32655C15.6532 9.25674 15.694 9.18646 15.7335 9.11542C15.7518 9.0825 15.7822 9.0698 15.8147 9.06582C15.8574 9.06061 15.9009 9.06199 15.9441 9.06153C15.9644 9.06138 15.9846 9.06398 16.005 9.06429C16.0609 9.06505 16.1168 9.06475 16.1727 9.06643C16.1844 9.06674 16.1967 9.07286 16.2072 9.07883C16.2209 9.08664 16.2328 9.0972 16.25 9.10991C16.2287 9.16595 16.2066 9.2252 16.1837 9.28429C16.129 9.42515 16.0742 9.566 16.0194 9.70671C15.9923 9.77652 15.9643 9.84588 15.9384 9.91615C15.9318 9.93422 15.932 9.95473 15.9283 9.97877C16.0936 9.98336 16.2535 9.9878 16.4133 9.99209C16.4262 9.99791 16.4586 9.98811 16.4495 10.0135C16.4315 10.0653 16.4176 10.1097 16.4009 10.1528C16.3443 10.2997 16.2866 10.4462 16.2293 10.5929C16.2279 10.5964 16.227 10.6002 16.2252 10.6036C16.1835 10.6797 16.1932 10.6722 16.1195 10.6722C15.9895 10.6723 15.8596 10.6722 15.7296 10.6722C15.7155 10.6722 15.7016 10.6732 15.6875 10.6725C15.6581 10.6711 15.6392 10.6846 15.629 10.7115C15.6244 10.7233 15.6186 10.7346 15.614 10.7466C15.5602 10.8836 15.5065 11.0208 15.4531 11.158C15.3912 11.3164 15.3297 11.475 15.2681 11.6337C15.2075 11.7898 15.1472 11.9463 15.0861 12.1023C15.0449 12.2075 15.0023 12.3122 14.9613 12.4175C14.9207 12.5217 14.8814 12.6262 14.8413 12.7305C14.818 12.791 14.7944 12.8513 14.771 12.9116C14.7517 12.9611 14.739 12.9699 14.6862 12.9699C14.3905 12.9699 14.0949 12.9699 13.7994 12.9696C13.7783 12.9696 13.757 12.9661 13.7382 12.9646H13.738Z" fill="white"/>
<path d="M10.9104 10.0187C10.931 10.0108 10.948 10.0019 10.9663 9.99758C10.9871 9.99284 11.009 9.98993 11.0304 9.98993C11.1681 9.98993 11.3057 9.99085 11.4433 9.99223C11.4776 9.99253 11.5119 9.99437 11.5459 9.99804C11.562 9.99973 11.5774 10.0071 11.5929 10.0127C11.6091 10.0187 11.6156 10.0311 11.616 10.0484C11.6171 10.0878 11.6205 10.1271 11.6208 10.1665C11.6215 10.2822 11.6212 10.3979 11.6209 10.5137C11.6209 10.535 11.6185 10.5563 11.6168 10.5835C11.6575 10.5422 11.6767 10.495 11.6996 10.4505C11.7578 10.3379 11.8255 10.2323 11.9161 10.1427C11.981 10.0784 12.0551 10.027 12.1395 9.99161C12.202 9.96528 12.2684 9.94951 12.3356 9.94522C12.4206 9.93971 12.5069 9.93619 12.5901 9.95962C12.6424 9.97431 12.6933 9.99529 12.7433 10.017C12.7594 10.0241 12.77 10.0431 12.7841 10.0555C12.7883 10.0591 12.7958 10.0593 12.8069 10.0623C12.8032 10.0769 12.8006 10.0953 12.7942 10.1124C12.7629 10.1957 12.7311 10.2785 12.6989 10.3615C12.643 10.506 12.5869 10.6504 12.5305 10.7948C12.5074 10.8539 12.4834 10.9127 12.4612 10.9722C12.4546 10.9898 12.4436 10.9954 12.4246 10.9955C12.4178 10.9846 12.4105 10.973 12.4033 10.9612C12.3202 10.8231 12.1997 10.7421 12.0377 10.7309C11.9683 10.7262 11.9014 10.7432 11.8394 10.7776C11.7497 10.8276 11.678 10.8969 11.6168 10.9781C11.5496 11.067 11.4994 11.1659 11.4563 11.2679C11.4051 11.3896 11.3591 11.5136 11.3109 11.6366C11.2686 11.7442 11.2261 11.8515 11.1843 11.9593C11.1391 12.0753 11.0949 12.1917 11.0499 12.3078C11.0081 12.4155 10.9656 12.523 10.9242 12.6308C10.8945 12.7078 10.8667 12.7856 10.8366 12.8623C10.8248 12.8925 10.8083 12.9208 10.7945 12.9502C10.7876 12.9649 10.7763 12.9704 10.7608 12.9698C10.7519 12.9695 10.7429 12.9699 10.734 12.9699C10.4396 12.9699 10.1452 12.9699 9.85075 12.9699C9.83682 12.9699 9.82258 12.9704 9.8088 12.9684C9.78369 12.9646 9.77389 12.9503 9.77925 12.9254C9.78293 12.9081 9.78844 12.8911 9.79472 12.8744C9.83422 12.77 9.87356 12.6654 9.91414 12.5613C9.96941 12.4192 10.0261 12.2778 10.0813 12.1358C10.1123 12.0565 10.1413 11.9764 10.172 11.8971C10.1998 11.825 10.2291 11.7532 10.2572 11.6813C10.3 11.5726 10.3422 11.4637 10.3848 11.355C10.427 11.2475 10.4696 11.14 10.5117 11.0326C10.5506 10.9332 10.5889 10.8337 10.6274 10.7343C10.6596 10.6515 10.6919 10.5687 10.7242 10.4858C10.7743 10.3581 10.8242 10.2306 10.8746 10.1031C10.8857 10.0749 10.8981 10.047 10.9101 10.0192L10.9104 10.0187Z" fill="white"/>
<path d="M12.9192 12.9654C12.9047 12.9668 12.8885 12.9695 12.8722 12.9695C12.5729 12.9698 12.2735 12.9697 11.9741 12.9697C11.9715 12.9697 11.9691 12.9697 11.9665 12.9697C11.9161 12.97 11.9025 12.9585 11.9195 12.9031C11.9376 12.8438 11.9634 12.7867 11.9859 12.7288C12.0084 12.6708 12.0305 12.6126 12.0531 12.5548C12.0836 12.4768 12.1147 12.399 12.145 12.3211C12.1638 12.2726 12.1819 12.2237 12.2006 12.1752C12.2312 12.0959 12.2624 12.0169 12.2931 11.9376C12.3359 11.8263 12.3783 11.7148 12.4215 11.6037C12.4491 11.5328 12.4782 11.4624 12.5059 11.3915C12.5492 11.2803 12.5916 11.1689 12.6348 11.0577C12.6628 10.9856 12.6916 10.9138 12.7199 10.8417C12.762 10.7342 12.8035 10.6266 12.8458 10.5191C12.8716 10.4531 12.8984 10.3873 12.9248 10.3214C12.9465 10.2672 12.9681 10.2132 12.9894 10.1599C13.0745 10.1631 13.1515 10.1947 13.231 10.2195C13.3169 10.2464 13.4064 10.2619 13.4949 10.2795C13.6125 10.3029 13.7321 10.3092 13.8512 10.3179C13.8768 10.3198 13.9026 10.3214 13.9159 10.3472C13.9245 10.3439 13.9302 10.3418 13.9366 10.3395C13.9383 10.3441 13.9406 10.3473 13.9406 10.3507C13.9409 10.3917 13.9187 10.426 13.9051 10.4623C13.8578 10.5883 13.8072 10.7131 13.7583 10.8383C13.7177 10.9424 13.6774 11.0465 13.637 11.1508C13.5957 11.2574 13.5545 11.3639 13.513 11.4703C13.4713 11.5767 13.4291 11.6828 13.3876 11.7892C13.358 11.8649 13.3296 11.941 13.3002 12.0167C13.2694 12.0961 13.238 12.1751 13.2071 12.2544C13.1781 12.3289 13.1497 12.4036 13.1206 12.4782C13.0776 12.5881 13.0342 12.6979 12.9912 12.8078C12.982 12.8314 12.9745 12.8559 12.964 12.8789C12.9509 12.9072 12.9355 12.9344 12.9192 12.9655V12.9654Z" fill="white"/>
<path d="M13.7852 8.7687C13.8081 8.7687 13.8311 8.76701 13.8539 8.76915C13.8723 8.77084 13.8903 8.77696 13.9086 8.7814C13.9184 8.78385 13.9279 8.78707 13.9377 8.78967C13.9623 8.7961 13.9883 8.79901 14.0113 8.80911C14.0748 8.83698 14.1368 8.86729 14.1953 8.90634C14.2483 8.94155 14.2959 8.98044 14.3317 9.03173C14.4098 9.1438 14.4657 9.26444 14.4666 9.40499C14.4671 9.47634 14.4666 9.54692 14.4466 9.61643C14.408 9.75055 14.3327 9.85986 14.2233 9.94529C14.0649 10.0692 13.8833 10.1158 13.6852 10.0914C13.4875 10.067 13.326 9.97408 13.2067 9.81408C13.131 9.71258 13.0948 9.59561 13.0873 9.46945C13.0806 9.35554 13.0994 9.24546 13.1502 9.1438C13.204 9.03647 13.2815 8.94783 13.3845 8.88291C13.4584 8.83621 13.5382 8.80268 13.6224 8.78247C13.6749 8.76992 13.7303 8.76915 13.7845 8.76318L13.7852 8.76854V8.7687Z" fill="white"/>
<path d="M10.4499 20.1548C10.461 20.1389 10.4778 20.1273 10.5001 20.1199C10.5225 20.1126 10.5522 20.1106 10.5889 20.1138C10.6465 20.1188 10.6894 20.1334 10.7174 20.1577C10.7454 20.1819 10.761 20.2176 10.7642 20.2646L10.9513 20.281C10.9515 20.2326 10.9443 20.1897 10.9294 20.1522C10.9146 20.1147 10.8927 20.0829 10.8635 20.057C10.8344 20.0311 10.7987 20.0104 10.7566 19.995C10.7145 19.9797 10.6658 19.9694 10.6107 19.9647C10.534 19.9579 10.4691 19.9636 10.4159 19.9814C10.3628 19.9993 10.3215 20.0273 10.2919 20.0654C10.2624 20.1035 10.2452 20.1493 10.2406 20.2029C10.2342 20.2764 10.2506 20.3353 10.2898 20.3794C10.329 20.4235 10.3957 20.459 10.49 20.4858L10.6055 20.5189C10.6346 20.527 10.6574 20.5364 10.6738 20.5466C10.6901 20.5569 10.7016 20.5688 10.7081 20.5823C10.7145 20.5958 10.7169 20.612 10.7153 20.6313C10.7136 20.6504 10.7068 20.6669 10.6952 20.6809C10.6836 20.6948 10.6663 20.7049 10.6436 20.7113C10.6209 20.7178 10.5915 20.7195 10.5556 20.7162C10.5213 20.7132 10.494 20.7066 10.474 20.6963C10.4539 20.6861 10.4386 20.6718 10.4282 20.6536C10.4176 20.6354 10.41 20.6128 10.4051 20.5858L10.2209 20.5925C10.2227 20.6273 10.2301 20.6604 10.2429 20.6918C10.2559 20.7231 10.2751 20.7507 10.3003 20.7747C10.3256 20.7988 10.3579 20.8185 10.3973 20.834C10.4366 20.8494 10.4838 20.8597 10.539 20.8645C10.607 20.8704 10.6675 20.8658 10.7203 20.8508C10.7731 20.8357 10.8155 20.8103 10.8472 20.7744C10.8789 20.7386 10.8973 20.6927 10.9022 20.6366C10.9066 20.5863 10.8999 20.5434 10.8821 20.508C10.8644 20.4727 10.8359 20.443 10.7969 20.4189C10.7578 20.395 10.709 20.3748 10.6499 20.3583L10.539 20.3268C10.5083 20.3193 10.4848 20.3095 10.4685 20.2977C10.4522 20.2857 10.4415 20.2726 10.4363 20.258C10.4311 20.2435 10.4293 20.2278 10.4308 20.211C10.4326 20.1894 10.4392 20.1706 10.4502 20.1547L10.4499 20.1548Z" fill="white"/>
<path d="M9.91791 20.198L9.79236 20.1755C9.73235 20.1648 9.68014 20.1623 9.63589 20.1683C9.59165 20.1743 9.55429 20.1871 9.52382 20.207C9.49335 20.2268 9.46916 20.2531 9.4511 20.2857C9.43303 20.3183 9.42017 20.356 9.41252 20.3987C9.40501 20.4407 9.40425 20.4791 9.41022 20.5145C9.41619 20.5498 9.42997 20.5815 9.45186 20.61C9.47376 20.6383 9.50438 20.6628 9.54388 20.6833C9.58338 20.7039 9.6336 20.7195 9.69438 20.7303L9.9989 20.7847L10.15 19.9386L9.96996 19.9065L9.91791 20.198ZM9.64722 20.5606C9.62793 20.5523 9.61323 20.5419 9.60328 20.5295C9.59333 20.5171 9.58705 20.5025 9.58476 20.4858C9.58246 20.4691 9.58323 20.4497 9.58721 20.4277C9.59211 20.3999 9.60099 20.3771 9.61354 20.3589C9.6261 20.3408 9.64462 20.3288 9.66881 20.3229C9.69315 20.3171 9.72531 20.3177 9.76573 20.3249L9.89127 20.3473L9.84549 20.6033L9.72102 20.5811C9.69101 20.5757 9.66636 20.5688 9.64707 20.5606H9.64722Z" fill="white"/>
<path d="M9.14683 20.0572L9.02144 20.0229C9.0098 20.0197 8.9974 20.0168 8.98393 20.0139C8.98377 20.0139 8.98347 20.0139 8.98331 20.0139L8.92253 19.6678L8.731 19.6155L8.80939 20.0083C8.79147 20.0122 8.77463 20.0171 8.75917 20.0238C8.72242 20.0396 8.69211 20.0624 8.66807 20.0925C8.64404 20.1226 8.62612 20.1593 8.61433 20.2026C8.60423 20.2398 8.60086 20.275 8.60423 20.3084C8.6076 20.3418 8.61877 20.3733 8.63761 20.403C8.65659 20.4327 8.68461 20.4595 8.72166 20.4834C8.75886 20.5073 8.80678 20.5272 8.86558 20.5433L9.17791 20.6286L9.40435 19.7995L9.23011 19.7519L9.14667 20.0573L9.14683 20.0572ZM8.82669 20.3658C8.80663 20.3508 8.79423 20.3332 8.78933 20.3132C8.78443 20.2931 8.7855 20.2703 8.79239 20.2447C8.79959 20.2184 8.81015 20.1971 8.82409 20.181C8.83802 20.165 8.85716 20.155 8.8815 20.1512C8.90584 20.1474 8.93692 20.1507 8.97489 20.1611L9.1084 20.1976L9.04241 20.439L8.91579 20.4044C8.87629 20.3937 8.84659 20.3807 8.82654 20.3657L8.82669 20.3658Z" fill="white"/>
<path d="M8.46819 19.5164L8.18756 20.3286L8.36613 20.3903L8.64677 19.5781L8.46819 19.5164Z" fill="white"/>
<path d="M7.95753 19.3162L7.68914 19.9567L7.44601 19.8548L7.38232 20.007L8.04281 20.2838L8.1065 20.1316L7.8646 20.0302L8.13299 19.3897L7.95753 19.3162Z" fill="white"/>
<path d="M7.10014 18.8938L7.01226 19.0203L7.39609 19.2213L7.29887 19.4068L6.95776 19.2282L6.88672 19.3635L7.22798 19.5422L7.13918 19.7118L6.77664 19.522L6.70575 19.6573L7.23365 19.9338L7.63233 19.1724L7.10014 18.8938Z" fill="white"/>
<path d="M6.75431 19.2401C6.75691 19.1949 6.74742 19.1525 6.72583 19.113C6.70424 19.0735 6.67194 19.0403 6.62907 19.0135C6.58681 18.9871 6.54318 18.9729 6.49817 18.9707C6.45315 18.9686 6.41059 18.9786 6.37048 19.0003C6.33036 19.022 6.29607 19.0557 6.26759 19.1013C6.23912 19.147 6.22365 19.1921 6.2212 19.237C6.21875 19.2818 6.22825 19.324 6.24953 19.3631C6.27081 19.4025 6.30357 19.436 6.34782 19.4636C6.39008 19.4899 6.43356 19.504 6.47811 19.506C6.52282 19.5078 6.56507 19.498 6.60503 19.4766C6.64499 19.4552 6.67913 19.4216 6.70761 19.376C6.73609 19.3304 6.7517 19.2851 6.75431 19.2399V19.2401ZM6.64744 19.3387C6.62494 19.3748 6.59937 19.4013 6.57074 19.4184C6.54211 19.4356 6.51179 19.4434 6.47964 19.4417C6.44749 19.4402 6.41518 19.4291 6.38242 19.4088C6.33404 19.3786 6.30464 19.3397 6.29423 19.292C6.28382 19.2443 6.2953 19.1935 6.32883 19.1398C6.35134 19.1036 6.37691 19.0772 6.40554 19.06C6.43417 19.0429 6.46464 19.0349 6.49694 19.0363C6.52925 19.0375 6.5617 19.0484 6.59447 19.0687C6.64346 19.0994 6.67301 19.1385 6.68281 19.1863C6.69276 19.2341 6.68082 19.2849 6.64729 19.3387H6.64744Z" fill="white"/>
<path d="M6.53846 19.2225L6.50616 19.2024L6.51703 19.1113L6.45058 19.0698L6.44002 19.1817C6.42869 19.1813 6.41843 19.183 6.40924 19.1873C6.39531 19.1937 6.38306 19.2055 6.37235 19.2225C6.36392 19.2361 6.35903 19.2499 6.35795 19.2638C6.35688 19.2777 6.36102 19.292 6.37035 19.3064C6.37985 19.3208 6.39577 19.335 6.41828 19.3491L6.50815 19.4051L6.64257 19.1897L6.5824 19.152L6.53846 19.2225ZM6.42884 19.2788C6.427 19.2719 6.42838 19.2647 6.43297 19.2572C6.43726 19.2505 6.44293 19.2459 6.44997 19.2437C6.45701 19.2416 6.46742 19.2447 6.48105 19.2532L6.50861 19.2704L6.4786 19.3183L6.4541 19.303C6.4391 19.2937 6.43068 19.2855 6.42884 19.2787V19.2788Z" fill="white"/>
<path d="M6.21749 18.6776L6.37059 18.7904C6.39325 18.7543 6.41055 18.7192 6.42265 18.6853C6.43475 18.6513 6.44087 18.6187 6.44102 18.5874C6.44102 18.5562 6.43536 18.5257 6.42372 18.4962C6.41209 18.4666 6.39524 18.4385 6.37304 18.4117C6.35084 18.3849 6.32298 18.3591 6.28945 18.3343C6.20616 18.2729 6.12486 18.2477 6.04556 18.2586C5.96625 18.2694 5.89475 18.3181 5.83091 18.4046L5.50311 18.8494L5.65622 18.9622L5.98478 18.5165C6.0157 18.4746 6.04816 18.4484 6.08215 18.4381C6.11614 18.4279 6.15319 18.4374 6.1933 18.4669C6.21336 18.4816 6.22821 18.4971 6.2377 18.5132C6.24735 18.5292 6.25271 18.5459 6.25393 18.5632C6.25516 18.5805 6.25255 18.5989 6.24628 18.6182C6.24 18.6375 6.23035 18.6574 6.21734 18.6776H6.21749Z" fill="white"/>
<path d="M5.63591 18.4075C5.67403 18.3651 5.70434 18.3219 5.727 18.2781C5.74966 18.2343 5.76436 18.1911 5.77125 18.1487C5.77799 18.1063 5.77707 18.0645 5.76834 18.0232C5.75961 17.9818 5.74354 17.9423 5.72027 17.9047C5.69699 17.867 5.66653 17.8313 5.62886 17.7975C5.5811 17.7546 5.53149 17.7237 5.4802 17.7046C5.42891 17.6854 5.37686 17.6782 5.32388 17.6831C5.27106 17.6879 5.21855 17.705 5.16634 17.7343C5.11428 17.7635 5.06407 17.805 5.01584 17.8587C4.97772 17.9011 4.94756 17.944 4.9252 17.9877C4.90285 18.0311 4.8883 18.0742 4.88142 18.1166C4.87468 18.159 4.87544 18.2006 4.88386 18.2417C4.89229 18.2827 4.90821 18.322 4.93163 18.3597C4.9549 18.3974 4.98537 18.433 5.02304 18.4669C5.07019 18.5093 5.11964 18.54 5.17124 18.5595C5.22283 18.5789 5.27504 18.5861 5.32802 18.5814C5.38084 18.5765 5.43335 18.5598 5.48556 18.5312C5.53777 18.5025 5.58799 18.4614 5.63621 18.4076L5.63591 18.4075ZM5.58171 18.121C5.57482 18.1461 5.56349 18.1717 5.54757 18.1979C5.53164 18.224 5.51159 18.2505 5.48755 18.2773C5.45754 18.3107 5.42738 18.3378 5.39691 18.3585C5.36645 18.3791 5.33613 18.3926 5.30582 18.3987C5.2755 18.4049 5.24595 18.4038 5.21748 18.3954C5.18885 18.3869 5.16113 18.3707 5.13434 18.3465C5.11291 18.3272 5.09622 18.307 5.08458 18.2857C5.07295 18.2645 5.06621 18.242 5.06437 18.2182C5.06254 18.1945 5.06483 18.1698 5.07142 18.1446C5.078 18.1192 5.08933 18.0934 5.10525 18.0673C5.12117 18.0411 5.14123 18.0146 5.16527 17.9878C5.19528 17.9544 5.22574 17.9275 5.25636 17.907C5.28714 17.8866 5.3173 17.8733 5.34715 17.8672C5.37701 17.861 5.40625 17.862 5.43504 17.8701C5.46382 17.8782 5.49168 17.8943 5.51863 17.9184C5.54006 17.9377 5.55691 17.9581 5.56885 17.9797C5.58079 18.0013 5.58768 18.0238 5.58952 18.0477C5.59135 18.0714 5.5889 18.0959 5.58201 18.121H5.58171Z" fill="white"/>
<path d="M5.09396 17.3076L4.88267 17.5001L4.72253 17.5007L4.86277 17.054L4.72176 16.8992L4.53819 17.4967L4.10767 17.5012L4.24546 17.6524L4.72268 17.6459L4.45873 17.8864L4.58673 18.0271L5.22195 17.4482L5.09396 17.3076Z" fill="white"/>
<path d="M4.31137 16.3564L4.17802 16.4338L4.44029 16.7786L4.27356 16.9053L4.04038 16.5988L3.91867 16.6913L4.15184 16.9979L3.9995 17.1137L3.75178 16.788L3.63007 16.8805L3.99078 17.3548L4.67484 16.8346L4.31137 16.3564Z" fill="white"/>
<path d="M4.0022 15.8777L3.2735 16.3333L3.37364 16.4935L4.10235 16.0379L4.0022 15.8777Z" fill="white"/>
<path d="M3.83435 15.591L3.33738 15.8554L3.66471 15.2723L3.58617 15.1245L2.82739 15.5282L2.91114 15.6855L3.40903 15.4206L3.07955 16.0021L3.15932 16.152L3.91795 15.7483L3.83435 15.591Z" fill="white"/>
<path d="M3.37628 14.6407L3.17541 14.6469L3.06181 14.3449L3.21736 14.2182L3.14831 14.0347L2.45154 14.6235L2.53039 14.8331L3.44319 14.8189L3.37628 14.6408V14.6407ZM3.01634 14.6583L2.64766 14.6742L2.93519 14.4422L3.01649 14.6583H3.01634Z" fill="white"/>
<path d="M2.97433 13.3702C2.95703 13.2976 2.93268 13.2407 2.9013 13.1995C2.87006 13.1583 2.83332 13.1312 2.79152 13.118C2.74957 13.105 2.70441 13.1043 2.65603 13.1157C2.6225 13.1237 2.59325 13.137 2.5683 13.1552C2.54334 13.1736 2.52375 13.1981 2.5092 13.2287C2.49971 13.2488 2.49328 13.2725 2.48899 13.2992C2.46419 13.2701 2.43785 13.2496 2.40984 13.2382C2.37095 13.2223 2.32885 13.2198 2.28368 13.2307C2.24005 13.2411 2.20437 13.2598 2.17697 13.2866C2.14956 13.3134 2.13211 13.3501 2.12476 13.3968C2.11741 13.4435 2.12231 13.5032 2.13976 13.5758L2.21938 13.9082L3.05517 13.7082L2.97417 13.3699L2.97433 13.3702ZM2.60091 13.3821C2.60443 13.3586 2.61346 13.3399 2.62831 13.3261C2.64317 13.3122 2.66338 13.3022 2.68925 13.2961C2.71421 13.2901 2.73641 13.2895 2.7557 13.2944C2.77499 13.2993 2.79152 13.3116 2.80546 13.3315C2.81923 13.3512 2.83072 13.3803 2.8399 13.4186L2.87604 13.5695L2.64546 13.6247L2.60856 13.4702C2.60014 13.4351 2.59769 13.4057 2.60106 13.3823L2.60091 13.3821ZM2.27388 13.482C2.27572 13.4601 2.28245 13.4428 2.29424 13.4301C2.30603 13.4174 2.32364 13.4082 2.34706 13.4025C2.36972 13.3971 2.38947 13.3971 2.40647 13.4025C2.42346 13.4079 2.43801 13.4193 2.44995 13.4366C2.46189 13.4539 2.47169 13.4783 2.47919 13.5095L2.51425 13.6559L2.31644 13.7032L2.28368 13.5662C2.27541 13.5319 2.2722 13.5037 2.27403 13.4818L2.27388 13.482Z" fill="white"/>
<path d="M2.45862 13.0371C2.51511 13.0294 2.5661 13.0161 2.61172 12.9972C2.65735 12.9784 2.69639 12.9551 2.729 12.9271C2.76161 12.8991 2.78794 12.8667 2.808 12.8294C2.82806 12.7922 2.84138 12.7518 2.84781 12.708C2.85439 12.6642 2.85424 12.6172 2.84735 12.5672C2.83862 12.5036 2.82086 12.4479 2.79407 12.4001C2.76727 12.3524 2.73221 12.3132 2.68873 12.2827C2.64525 12.2522 2.59427 12.2313 2.53548 12.2199C2.47684 12.2085 2.41177 12.2077 2.34012 12.2175C2.28362 12.2251 2.23279 12.2385 2.18763 12.2571C2.14246 12.276 2.10342 12.2993 2.07081 12.3273C2.0382 12.3553 2.01186 12.3876 1.99181 12.4243C1.97175 12.4611 1.95843 12.5013 1.95185 12.5453C1.94526 12.5891 1.94542 12.6361 1.95231 12.6861C1.96088 12.7489 1.97864 12.8045 2.00543 12.8526C2.03223 12.9008 2.06744 12.94 2.11092 12.9706C2.1544 13.0011 2.20523 13.0222 2.26356 13.0341C2.3219 13.0461 2.38681 13.047 2.45831 13.0372L2.45862 13.0371ZM2.1469 12.7572C2.13052 12.7322 2.11995 12.7019 2.11505 12.6662C2.11107 12.6376 2.11169 12.6114 2.11643 12.5877C2.12133 12.564 2.13067 12.5424 2.1446 12.5231C2.15854 12.5038 2.1763 12.4865 2.19773 12.4715C2.21916 12.4563 2.24443 12.4441 2.27336 12.4344C2.30245 12.4248 2.33476 12.4176 2.37058 12.4127C2.41514 12.4066 2.45571 12.4057 2.4923 12.4099C2.52889 12.4142 2.56058 12.4237 2.58722 12.4383C2.61386 12.4528 2.63561 12.4726 2.65245 12.4974C2.66929 12.5222 2.68001 12.5525 2.6849 12.5883C2.68889 12.6169 2.68843 12.6433 2.68353 12.6675C2.67878 12.6917 2.66944 12.7134 2.65536 12.7327C2.64142 12.752 2.62366 12.769 2.60223 12.7837C2.58079 12.7984 2.55553 12.8106 2.52644 12.8201C2.49735 12.8298 2.46505 12.8369 2.42922 12.842C2.38467 12.8481 2.3441 12.8492 2.30751 12.8454C2.27091 12.8414 2.23907 12.8321 2.21197 12.8172C2.18487 12.8023 2.16313 12.7824 2.14675 12.7575L2.1469 12.7572Z" fill="white"/>
<path d="M2.06437 11.9001L2.75824 11.8695L2.74982 11.6795L2.05595 11.7101L2.04432 11.4468L1.87958 11.4541L1.91127 12.1696L2.07601 12.1624L2.06437 11.9001Z" fill="white"/>
<path d="M2.05595 11.0666L2.74966 11.0971L2.75808 10.9071L2.06422 10.8766L2.07586 10.6133L1.91112 10.606L1.87958 11.3216L2.04432 11.3288L2.05595 11.0666Z" fill="white"/>
<path d="M2.85339 9.98308L2.69248 9.94189L2.6415 10.3432L1.95253 10.2555L1.92865 10.443L2.78113 10.5514L2.85339 9.98308Z" fill="white"/>
<path d="M2.99717 9.28516L2.85157 9.23479L2.76201 9.65873L2.557 9.6154L2.63662 9.23861L2.48703 9.20708L2.40757 9.58386L2.22018 9.54436L2.30484 9.14384L2.15526 9.1123L2.03217 9.69517L2.87301 9.87292L2.99717 9.28516Z" fill="white"/>
<path d="M3.80727 6.05143C3.84754 6.08205 3.88734 6.09935 3.92669 6.10318C3.96619 6.10701 4.00646 6.09889 4.04749 6.07883C4.08852 6.05878 4.13185 6.02816 4.17732 5.98713L4.26321 5.91027C4.28602 5.88837 4.30684 5.87368 4.32552 5.86617C4.34435 5.85883 4.3612 5.85684 4.3762 5.8602C4.3912 5.86357 4.40544 5.87046 4.41892 5.88072C4.43606 5.89389 4.44846 5.90935 4.45612 5.92726C4.46362 5.94518 4.46454 5.96554 4.45872 5.98835C4.4529 6.01116 4.43882 6.03734 4.41647 6.06659C4.38141 6.11252 4.34619 6.14084 4.31067 6.15171C4.27515 6.16258 4.23672 6.15661 4.19539 6.13411L4.08148 6.28338C4.1222 6.30941 4.16232 6.3261 4.20197 6.33375C4.24162 6.34125 4.2802 6.33972 4.31771 6.32885C4.35523 6.31813 4.39166 6.299 4.42718 6.27159C4.4627 6.24419 4.4973 6.20851 4.53083 6.16442C4.57753 6.10318 4.60754 6.04531 4.62086 5.9908C4.63418 5.9363 4.63265 5.88638 4.61611 5.84122C4.59973 5.7959 4.57018 5.75701 4.52731 5.7244C4.46867 5.6797 4.41019 5.66209 4.35186 5.67158C4.29368 5.68123 4.228 5.71858 4.15481 5.78396L4.06509 5.86388C4.04259 5.88409 4.02269 5.89833 4.00523 5.90675C3.98778 5.91517 3.97155 5.91838 3.9567 5.9167C3.94185 5.91501 3.92684 5.90828 3.91153 5.89664C3.89622 5.88501 3.88581 5.87046 3.8803 5.85316C3.87479 5.83586 3.8754 5.81596 3.88214 5.7933C3.88887 5.77064 3.90311 5.74492 3.92501 5.71629C3.94598 5.68888 3.96604 5.66944 3.98548 5.65795C4.00477 5.64647 4.02498 5.64111 4.04596 5.64203C4.06693 5.64295 4.0902 5.64846 4.11562 5.65887L4.2084 5.49949C4.17808 5.48235 4.14609 5.47086 4.11271 5.4652C4.07933 5.45938 4.04565 5.46076 4.01197 5.46933C3.97813 5.47791 3.9443 5.49459 3.91015 5.51955C3.87601 5.54451 3.84218 5.57895 3.80849 5.62289C3.76716 5.67709 3.73868 5.73068 3.72322 5.78335C3.70775 5.83617 3.70668 5.88547 3.72 5.93155C3.73332 5.97763 3.76241 6.01759 3.80696 6.05174L3.80727 6.05143Z" fill="white"/>
<path d="M4.92241 5.65423L4.70378 5.45443L4.78982 5.36027C4.83101 5.31526 4.86086 5.27239 4.87939 5.23182C4.89807 5.19124 4.9071 5.15282 4.90664 5.11638C4.90618 5.08009 4.897 5.04549 4.87893 5.01288C4.86102 4.98012 4.83606 4.94919 4.80406 4.91995C4.77268 4.89132 4.74052 4.87003 4.70745 4.8561C4.67438 4.84232 4.64009 4.83696 4.60457 4.84033C4.5689 4.8437 4.53185 4.85656 4.49342 4.87891C4.45499 4.90142 4.41487 4.93541 4.37323 4.98103L4.16455 5.20931L4.79901 5.78911L4.92241 5.65408V5.65423ZM4.48515 5.08346C4.50566 5.06095 4.52465 5.04381 4.5421 5.03186C4.5594 5.02008 4.57609 5.01319 4.59186 5.01135C4.60763 5.00951 4.62325 5.01211 4.63871 5.019C4.65402 5.02605 4.6701 5.03707 4.68663 5.05223C4.7073 5.07121 4.722 5.09081 4.73057 5.11117C4.73915 5.13153 4.73945 5.15358 4.73134 5.17716C4.72338 5.20074 4.70546 5.22768 4.67791 5.258L4.59186 5.35216L4.39987 5.1767L4.48515 5.08346Z" fill="white"/>
<path d="M5.44835 5.11135L5.23447 4.87787L5.33031 4.79014C5.33919 4.78202 5.34838 4.77299 5.35787 4.76319C5.35802 4.76304 5.35818 4.76289 5.35833 4.76273L5.68352 4.89593L5.83004 4.76181L5.45616 4.61866C5.46244 4.60136 5.46703 4.58452 5.46964 4.56798C5.47591 4.52848 5.4727 4.49067 5.46014 4.45423C5.44759 4.41794 5.426 4.38319 5.39569 4.34997C5.36966 4.32164 5.34164 4.2999 5.31163 4.2849C5.28163 4.26989 5.24901 4.26254 5.2138 4.2627C5.17859 4.26285 5.14092 4.27234 5.10096 4.29102C5.061 4.3097 5.01844 4.33971 4.97343 4.38089L4.73474 4.59952L5.31516 5.23322L5.44835 5.11135ZM5.06376 4.49725C5.09392 4.46954 5.12071 4.45132 5.14414 4.44244C5.16756 4.43356 5.189 4.43234 5.2086 4.43892C5.22819 4.4455 5.24687 4.45852 5.26478 4.47796C5.28316 4.49802 5.29556 4.51838 5.30168 4.53874C5.30781 4.55926 5.30612 4.58069 5.29632 4.6032C5.28653 4.62586 5.26708 4.65035 5.23814 4.67684L5.13602 4.77039L4.96685 4.58574L5.06361 4.4971L5.06376 4.49725Z" fill="white"/>
<path d="M5.5149 3.92056L5.36755 4.03882L5.90545 4.70903L6.0528 4.59077L5.5149 3.92056Z" fill="white"/>
<path d="M5.94025 3.8073L6.3397 4.37547L6.49525 4.266L6.0958 3.69799L6.31137 3.54626L6.2166 3.41138L5.63068 3.82338L5.7256 3.95826L5.94025 3.8073Z" fill="white"/>
<path d="M7.30899 3.76476L7.24867 3.62299L6.87433 3.84116L6.76884 3.66034L7.10153 3.46621L7.02452 3.33423L6.69183 3.52821L6.59553 3.36286L6.94904 3.15679L6.87203 3.02466L6.3573 3.32474L6.79012 4.06729L7.30899 3.76476Z" fill="white"/>
<path d="M7.36585 3.18901L7.32957 3.11429L7.36371 3.09776L7.43506 3.15548L7.50548 3.12134L7.41622 3.05275C7.42266 3.04341 7.42664 3.03376 7.42801 3.02381C7.43 3.00865 7.42664 2.99196 7.41776 2.9739C7.41071 2.95951 7.40168 2.94802 7.39035 2.9396C7.37917 2.93118 7.36493 2.9272 7.34763 2.92751C7.33033 2.92781 7.30982 2.93378 7.28609 2.94542L7.19086 2.99166L7.30186 3.22009L7.3657 3.18901H7.36585ZM7.30614 2.99992C7.32207 2.99227 7.3334 2.98936 7.34013 2.9915C7.34687 2.99349 7.35223 2.99855 7.35606 3.00651C7.35958 3.0137 7.36034 3.0209 7.3585 3.0281C7.35667 3.03529 7.3484 3.04233 7.33401 3.04938L7.30477 3.06362L7.28012 3.01279L7.30614 3.00023V2.99992Z" fill="white"/>
<path d="M7.19973 3.28758C7.23663 3.31391 7.2775 3.3283 7.32252 3.33106C7.36753 3.33382 7.41269 3.32402 7.45817 3.30197C7.50287 3.28023 7.53809 3.25083 7.56381 3.21378C7.58953 3.17673 7.60377 3.13539 7.60668 3.08992C7.60958 3.04445 7.59917 2.99745 7.57575 2.94907C7.55232 2.90069 7.52216 2.86364 7.48557 2.83761C7.44898 2.81173 7.40825 2.79734 7.36355 2.79443C7.31884 2.79152 7.27306 2.80163 7.22621 2.82429C7.18151 2.84603 7.14645 2.87527 7.12103 2.91217C7.09562 2.94907 7.08153 2.9901 7.07847 3.03526C7.07541 3.08043 7.08567 3.12728 7.10909 3.17551C7.13252 3.22389 7.16268 3.26124 7.19957 3.28743L7.19973 3.28758ZM7.17508 2.94754C7.19345 2.9212 7.22009 2.89962 7.25469 2.88277C7.30598 2.85782 7.35451 2.85368 7.40045 2.87022C7.44638 2.88675 7.48312 2.9235 7.51083 2.98045C7.52936 3.01873 7.53839 3.05456 7.53763 3.08793C7.53686 3.12131 7.52737 3.15132 7.50915 3.17811C7.49093 3.2049 7.46444 3.22664 7.42984 3.24333C7.37794 3.26859 7.32895 3.27273 7.28332 3.25558C7.23754 3.23859 7.2008 3.20153 7.17324 3.14443C7.15472 3.10615 7.14568 3.07033 7.14645 3.03695C7.14721 3.00357 7.15671 2.97372 7.17523 2.94738L7.17508 2.94754Z" fill="white"/>
<path d="M7.91882 3.36926C7.94531 3.3861 7.97409 3.39728 8.00517 3.40325C8.0364 3.40907 8.06917 3.40983 8.10361 3.40524C8.13806 3.40065 8.17465 3.39085 8.21354 3.37569C8.30984 3.33787 8.37461 3.28245 8.40752 3.20957C8.44059 3.1367 8.43738 3.05019 8.39803 2.95006L8.19593 2.43579L8.01895 2.5053L8.22135 3.02064C8.24049 3.06918 8.24523 3.11067 8.23589 3.14496C8.22656 3.17926 8.19869 3.20544 8.1523 3.22366C8.12918 3.23269 8.10821 3.23713 8.08953 3.23667C8.07085 3.23621 8.05386 3.23193 8.03855 3.22366C8.02323 3.21539 8.00915 3.2036 7.99614 3.18799C7.98312 3.17237 7.97149 3.15369 7.96123 3.13195L7.78424 3.20146C7.80277 3.23989 7.82328 3.27327 7.84548 3.30159C7.86783 3.32991 7.89218 3.35242 7.91867 3.36926H7.91882Z" fill="white"/>
<path d="M8.56096 2.92951C8.58592 2.97208 8.61455 3.00744 8.64685 3.03592C8.67916 3.06424 8.71498 3.08583 8.75464 3.10038C8.79429 3.11492 8.83624 3.12242 8.88049 3.12288C8.92473 3.12319 8.97128 3.11645 9.01996 3.10267C9.08166 3.08507 9.13433 3.0598 9.17797 3.02658C9.22145 2.99336 9.25528 2.95309 9.27947 2.90578C9.30351 2.85847 9.31714 2.80504 9.3202 2.74533C9.32326 2.68562 9.31499 2.62101 9.29524 2.55166C9.27963 2.49684 9.25942 2.44831 9.23461 2.40621C9.20966 2.3641 9.18118 2.32874 9.14888 2.30041C9.11657 2.27209 9.0809 2.2505 9.0417 2.2358C9.00251 2.22111 8.96071 2.2136 8.91647 2.21314C8.87222 2.21284 8.82568 2.21958 8.77699 2.23335C8.71605 2.25066 8.66354 2.27607 8.6196 2.30929C8.57566 2.34267 8.54167 2.38294 8.51763 2.43025C8.4936 2.47755 8.47966 2.53099 8.47614 2.59024C8.47262 2.64964 8.48073 2.7141 8.50033 2.78361C8.51595 2.83842 8.53616 2.8871 8.56127 2.92967L8.56096 2.92951ZM8.6836 2.50863C8.69462 2.4797 8.71115 2.45535 8.73351 2.4356C8.75586 2.41585 8.78434 2.40116 8.81909 2.3912C8.8468 2.38324 8.87283 2.38018 8.89702 2.38156C8.92121 2.38309 8.94387 2.38937 8.965 2.40039C8.98613 2.41157 9.00557 2.42657 9.02349 2.44571C9.0414 2.46485 9.05717 2.48812 9.07079 2.51552C9.08442 2.54293 9.09621 2.57401 9.10601 2.60876C9.11826 2.65194 9.12484 2.69205 9.12576 2.72895C9.12668 2.76585 9.12178 2.79846 9.11106 2.82694C9.10034 2.85541 9.08396 2.87976 9.06161 2.89981C9.03941 2.91987 9.01093 2.93487 8.97618 2.94467C8.94831 2.95263 8.92213 2.95585 8.89763 2.95447C8.87299 2.95309 8.85017 2.94682 8.8292 2.93579C8.80807 2.92477 8.78878 2.90961 8.77117 2.89032C8.75356 2.87118 8.73795 2.84776 8.72448 2.82035C8.71085 2.79295 8.69906 2.76187 8.68926 2.72711C8.67701 2.68394 8.67028 2.64398 8.6689 2.60708C8.66767 2.57033 8.67242 2.53742 8.68344 2.50848L8.6836 2.50863Z" fill="white"/>
<path d="M9.71897 2.91175L9.66906 2.63035L9.75403 2.49455L10.0567 2.85189L10.2629 2.8153L9.856 2.34083L10.0823 1.97461L9.8808 2.01028L9.63139 2.41723L9.56908 2.06555L9.38184 2.09862L9.53172 2.94498L9.71897 2.91175Z" fill="white"/>
<path d="M10.9413 2.75892L10.9474 2.6049L10.5157 2.6421L10.4977 2.43358L10.8814 2.40035L10.8683 2.24817L10.4846 2.28124L10.4682 2.09047L10.8759 2.05541L10.8627 1.90308L10.2692 1.95421L10.343 2.81052L10.9413 2.75892Z" fill="white"/>
<path d="M11.3337 1.89319L11.3198 2.75244L11.5087 2.75551L11.5226 1.89625L11.3337 1.89319Z" fill="white"/>
<path d="M12.2039 2.79071L12.3707 2.80295L12.4335 1.94588L12.2559 1.93287L12.2146 2.49537L11.8981 1.90669L11.7289 1.89429L11.666 2.75136L11.8438 2.76437L11.885 2.20294L12.2039 2.79071Z" fill="white"/>
<path d="M13.18 2.06445L12.706 2.84482L12.8923 2.88294L12.994 2.70963L13.3101 2.77424L13.3345 2.97327L13.5266 3.01262L13.3992 2.10947L13.1798 2.06461L13.18 2.06445ZM13.252 2.24818L13.2951 2.61501L13.069 2.56877L13.252 2.24818Z" fill="white"/>
<path d="M14.3646 3.24781C14.4161 3.24322 14.4586 3.22668 14.492 3.19821C14.5254 3.16973 14.55 3.13191 14.566 3.08476C14.577 3.05215 14.5814 3.0203 14.5791 2.98953C14.5768 2.95875 14.5666 2.9289 14.5484 2.90027C14.5364 2.88159 14.5202 2.86337 14.4998 2.84561C14.5375 2.8401 14.5687 2.82877 14.5932 2.81116C14.6274 2.78666 14.6519 2.75252 14.6669 2.70843C14.6813 2.66587 14.6845 2.62591 14.6764 2.5884C14.6682 2.55089 14.6465 2.51659 14.6108 2.48551C14.5752 2.45443 14.522 2.42687 14.4513 2.40283L14.1275 2.29321L13.8517 3.10726L14.1812 3.21887C14.252 3.24276 14.313 3.25256 14.3645 3.24796L14.3646 3.24781ZM14.3959 3.01693C14.3876 3.04127 14.3763 3.06026 14.3619 3.07404C14.3475 3.08782 14.3282 3.09532 14.3042 3.09639C14.28 3.09762 14.2494 3.0918 14.2122 3.07924L14.0652 3.02949L14.1413 2.80488L14.2918 2.85587C14.3259 2.8675 14.3521 2.88098 14.3702 2.89644C14.3882 2.9119 14.3991 2.92951 14.4031 2.94957C14.4069 2.96947 14.4046 2.99198 14.396 3.01708L14.3959 3.01693ZM14.4596 2.56635C14.4772 2.57952 14.4882 2.59452 14.4926 2.61121C14.4971 2.62805 14.4955 2.6478 14.4877 2.67061C14.4802 2.69266 14.4697 2.70935 14.456 2.72083C14.4424 2.73231 14.4251 2.73844 14.404 2.73936C14.3829 2.74027 14.3571 2.73553 14.3268 2.72527L14.1843 2.67704L14.2495 2.48444L14.3829 2.5296C14.4162 2.54093 14.4418 2.55318 14.4594 2.56635H14.4596Z" fill="white"/>
<path d="M14.7275 3.36572C14.7483 3.40247 14.7754 3.43523 14.8091 3.46417C14.8426 3.49311 14.8826 3.51791 14.9285 3.53873C14.987 3.56522 15.0435 3.57992 15.0983 3.58267C15.153 3.58543 15.2049 3.57655 15.2537 3.55603C15.3027 3.53552 15.3476 3.50336 15.3884 3.45988C15.4293 3.41625 15.4647 3.36159 15.4945 3.29591C15.5181 3.24401 15.5339 3.19394 15.5421 3.14572C15.5504 3.09749 15.5513 3.05202 15.5451 3.00961C15.5388 2.96704 15.5255 2.92754 15.5049 2.89095C15.4846 2.85436 15.4575 2.8216 15.424 2.79281C15.3903 2.76388 15.3505 2.73907 15.3045 2.71825C15.2468 2.69207 15.1903 2.67753 15.1354 2.67462C15.0802 2.67171 15.0283 2.68043 14.9793 2.7011C14.9303 2.72162 14.8853 2.75347 14.8443 2.79649C14.8031 2.83951 14.7678 2.89401 14.7379 2.9597C14.7143 3.0116 14.6984 3.06181 14.69 3.1105C14.6816 3.15919 14.6805 3.20466 14.6868 3.24722C14.693 3.28979 14.7065 3.32929 14.7273 3.36603L14.7275 3.36572ZM14.8853 3.1327C14.8927 3.103 14.9037 3.07161 14.9187 3.03885C14.9372 2.99797 14.9579 2.96306 14.9807 2.93413C15.0035 2.90519 15.0285 2.8833 15.0554 2.86829C15.0825 2.85329 15.1109 2.84548 15.1407 2.84487C15.1704 2.84426 15.2018 2.85145 15.2347 2.8663C15.2611 2.87824 15.2829 2.89264 15.3004 2.90932C15.3179 2.92601 15.3312 2.94546 15.3401 2.96766C15.3489 2.9897 15.3541 3.01389 15.3555 3.04007C15.3569 3.06625 15.3538 3.09412 15.3466 3.12397C15.3393 3.15368 15.3283 3.18506 15.3133 3.21783C15.2947 3.25871 15.2739 3.29361 15.2508 3.32224C15.2277 3.35103 15.2027 3.37277 15.1762 3.38762C15.1497 3.40247 15.1214 3.41043 15.0914 3.41135C15.0614 3.41227 15.03 3.40538 14.9971 3.39037C14.9708 3.37843 14.9487 3.36404 14.9308 3.34705C14.9129 3.3302 14.8996 3.31061 14.8905 3.28856C14.8817 3.26651 14.8766 3.24248 14.8757 3.21645C14.8746 3.19042 14.8778 3.16256 14.8852 3.13285L14.8853 3.1327Z" fill="white"/>
<path d="M15.7321 3.92941L16.0761 3.32619L16.3052 3.45678L16.3868 3.31348L15.7647 2.95874L15.6831 3.10189L15.9109 3.23188L15.5669 3.83526L15.7321 3.92941Z" fill="white"/>
<path d="M16.2244 4.2404L16.3804 4.34895L16.7771 3.77879L16.9935 3.92929L17.0876 3.79395L16.4997 3.38501L16.4055 3.52035L16.621 3.67024L16.2244 4.2404Z" fill="white"/>
<path d="M17.1099 4.92347L17.2307 4.80941L16.9189 4.55174L17.3612 4.01634L17.2156 3.896L16.6682 4.55847L17.1099 4.92347Z" fill="white"/>
<path d="M17.6236 5.41788L17.7441 5.32173L17.4334 5.01966L17.5795 4.86947L17.8555 5.13801L17.9621 5.02839L17.686 4.75984L17.8196 4.62266L18.1129 4.90805L18.2195 4.79843L17.7923 4.38306L17.1931 4.99914L17.6236 5.41788Z" fill="white"/>
<path d="M19.2576 7.90652C19.2888 7.97695 19.3251 8.03115 19.3664 8.06897C19.4078 8.10678 19.4523 8.12944 19.4999 8.13679C19.5475 8.14414 19.5959 8.1371 19.6451 8.1152C19.7126 8.08535 19.7561 8.04248 19.7758 7.9869C19.7954 7.93117 19.7942 7.85569 19.7721 7.76016L19.7452 7.64303C19.7383 7.61364 19.7354 7.58929 19.7365 7.56985C19.7375 7.55056 19.7424 7.53479 19.751 7.52254C19.7596 7.51029 19.7728 7.50034 19.7904 7.49253C19.808 7.48472 19.8257 7.48258 19.8435 7.4861C19.8612 7.48962 19.8785 7.49973 19.8951 7.51657C19.9118 7.53326 19.9274 7.55821 19.9419 7.59128C19.9559 7.62282 19.9632 7.64977 19.964 7.67228C19.9647 7.69478 19.9597 7.71499 19.9488 7.73306C19.938 7.75112 19.9219 7.76873 19.9006 7.78603L19.9957 7.94403C20.0252 7.92566 20.0506 7.90316 20.0718 7.87667C20.0929 7.85018 20.1079 7.82002 20.1166 7.78634C20.1254 7.75265 20.127 7.71484 20.1217 7.67289C20.1163 7.63094 20.1024 7.5847 20.0799 7.53402C20.0522 7.47171 20.0191 7.42103 19.9802 7.38199C19.9415 7.34295 19.8986 7.3183 19.8519 7.30789C19.8052 7.29748 19.7561 7.3036 19.7048 7.32642C19.6585 7.34693 19.6242 7.37357 19.6019 7.40618C19.5795 7.43895 19.5673 7.47814 19.5651 7.52377C19.563 7.56954 19.569 7.62206 19.5832 7.68161L19.6092 7.79384C19.6175 7.82446 19.6204 7.84972 19.6178 7.86963C19.6152 7.88968 19.6089 7.90545 19.5987 7.91693C19.5884 7.92842 19.5756 7.93776 19.5602 7.94449C19.5405 7.95322 19.5209 7.95674 19.5016 7.95475C19.4823 7.95276 19.4639 7.94373 19.4468 7.92765C19.4297 7.91158 19.4134 7.88662 19.3986 7.85294C19.3751 7.80012 19.3672 7.75556 19.3748 7.71928C19.3825 7.68299 19.4061 7.65207 19.4457 7.62665L19.3696 7.45502C19.3272 7.47814 19.2932 7.50539 19.2675 7.53647C19.2418 7.56755 19.2246 7.60215 19.2161 7.64028C19.2075 7.6784 19.2066 7.71958 19.2136 7.76383C19.2205 7.80823 19.2352 7.85569 19.2577 7.90622L19.2576 7.90652Z" fill="white"/>
<path d="M19.5163 8.49541L19.7967 8.40018L19.8377 8.52098C19.8573 8.5787 19.8804 8.62555 19.9071 8.66137C19.9337 8.6972 19.9629 8.72369 19.9951 8.74083C20.0271 8.75798 20.0618 8.7664 20.0992 8.76655C20.1366 8.76655 20.1756 8.75966 20.2168 8.74573C20.2571 8.73211 20.2912 8.71404 20.3192 8.69184C20.3472 8.66964 20.3684 8.64208 20.3828 8.60932C20.397 8.57655 20.4036 8.53782 20.4025 8.49327C20.4014 8.44871 20.3909 8.39727 20.371 8.33878L20.2714 8.0459L19.4577 8.32225L19.5165 8.49556L19.5163 8.49541ZM20.2388 8.51577C20.2329 8.53047 20.2231 8.54287 20.2096 8.55298C20.1961 8.56308 20.1787 8.57181 20.1574 8.579C20.1307 8.58804 20.1066 8.5914 20.0845 8.58911C20.0626 8.58681 20.0432 8.5764 20.0263 8.55803C20.0095 8.53966 19.9945 8.51103 19.9813 8.47229L19.9403 8.35149L20.1865 8.2679L20.227 8.38762C20.2368 8.41656 20.2428 8.44136 20.2448 8.46234C20.2468 8.48331 20.2448 8.50107 20.2388 8.51593V8.51577Z" fill="white"/>
<path d="M19.7378 9.2174L20.0456 9.14299L20.0762 9.2693C20.079 9.28093 20.0825 9.29333 20.0865 9.3065C20.0865 9.30665 20.0865 9.30696 20.0866 9.30711L19.8129 9.52743L19.8596 9.72049L20.1655 9.46236C20.1776 9.47614 20.1901 9.48839 20.2034 9.49865C20.235 9.5233 20.2697 9.53876 20.3075 9.54534C20.3454 9.55177 20.3862 9.54978 20.4299 9.53922C20.4674 9.53019 20.4998 9.5161 20.5274 9.49712C20.555 9.47813 20.5772 9.45302 20.5941 9.4221C20.611 9.39117 20.6209 9.35366 20.6239 9.30956C20.6268 9.26547 20.6211 9.21387 20.6069 9.15462L20.5308 8.83984L19.6954 9.04194L19.7378 9.2174ZM20.4704 9.2742C20.4669 9.299 20.4576 9.31829 20.4424 9.33238C20.4273 9.34631 20.4068 9.35641 20.381 9.36269C20.3545 9.36912 20.3308 9.37004 20.31 9.3656C20.2892 9.36116 20.2711 9.34922 20.2561 9.32977C20.2411 9.31033 20.229 9.28139 20.2197 9.24327L20.187 9.10869L20.4303 9.0499L20.4611 9.17744C20.4707 9.21724 20.4738 9.24955 20.4703 9.27435L20.4704 9.2742Z" fill="white"/>
<path d="M20.7162 9.66349L19.8694 9.81006L19.9016 9.99622L20.7484 9.84965L20.7162 9.66349Z" fill="white"/>
<path d="M20.6415 10.2783L19.951 10.353L19.9714 10.542L20.6619 10.4673L20.6902 10.7294L20.8542 10.7117L20.7772 9.99976L20.6132 10.0175L20.6415 10.2783Z" fill="white"/>
<path d="M20.0168 11.4972L20.17 11.5129L20.1599 11.0797L20.3694 11.0748L20.3782 11.4599L20.531 11.4564L20.5222 11.0713L20.7134 11.0669L20.723 11.476L20.8758 11.4724L20.8619 10.8767L20.0027 10.8968L20.0168 11.4972Z" fill="white"/>
<path d="M20.8541 11.7436C20.834 11.7036 20.8049 11.6713 20.7668 11.6469C20.7287 11.6225 20.6827 11.609 20.629 11.6062C20.5753 11.6035 20.5281 11.6119 20.4872 11.6315C20.4465 11.6511 20.414 11.68 20.39 11.7181C20.366 11.7563 20.3527 11.8007 20.3501 11.851C20.3474 11.9006 20.3563 11.9458 20.3764 11.9861C20.3964 12.0265 20.4257 12.0589 20.4643 12.0833C20.5028 12.1078 20.5489 12.1214 20.6027 12.124C20.6564 12.1268 20.7034 12.1184 20.7438 12.0986C20.7843 12.079 20.8164 12.0502 20.8404 12.0126C20.8645 11.9747 20.8778 11.9299 20.8804 11.8778C20.883 11.8281 20.8741 11.7834 20.8541 11.7433V11.7436ZM20.7562 12.0086C20.7196 12.0409 20.6697 12.0554 20.6063 12.0522C20.5638 12.0501 20.5281 12.0406 20.4993 12.0239C20.4704 12.0072 20.4487 11.9844 20.4341 11.9555C20.4196 11.9265 20.4131 11.893 20.4151 11.8544C20.418 11.7967 20.4381 11.752 20.475 11.7201C20.512 11.6883 20.5621 11.6739 20.6255 11.6771C20.6679 11.6793 20.7036 11.6887 20.7325 11.7054C20.7614 11.7221 20.7829 11.7449 20.7971 11.7739C20.8114 11.8027 20.8175 11.8363 20.8155 11.8748C20.8126 11.9317 20.7928 11.9763 20.7562 12.0086Z" fill="white"/>
<path d="M20.4938 11.8245L20.5768 11.8288L20.5748 11.8668L20.4898 11.9016L20.4858 11.9796L20.5889 11.9345C20.5941 11.9446 20.6005 11.9528 20.6086 11.9588C20.621 11.9679 20.6373 11.9729 20.6573 11.974C20.6734 11.9747 20.6878 11.9723 20.7005 11.9665C20.7132 11.9607 20.7236 11.9502 20.7316 11.9349C20.7395 11.9196 20.7443 11.8988 20.7457 11.8723L20.751 11.7665L20.4973 11.7537L20.4936 11.8245H20.4938ZM20.6794 11.8973C20.6743 11.9022 20.6673 11.9045 20.6585 11.904C20.6506 11.9036 20.6438 11.9008 20.6385 11.8957C20.6331 11.8907 20.6308 11.8801 20.6316 11.864L20.6333 11.8316L20.6898 11.8345L20.6882 11.8633C20.6873 11.8809 20.6844 11.8922 20.6792 11.8971L20.6794 11.8973Z" fill="white"/>
<path d="M20.1131 12.6087C20.0875 12.5839 20.0778 12.547 20.0843 12.4976C20.0875 12.4729 20.0938 12.4524 20.1031 12.4363C20.1125 12.4201 20.1244 12.4072 20.1389 12.3979C20.1535 12.3884 20.1708 12.3818 20.1907 12.3778C20.2106 12.3738 20.2326 12.3728 20.2567 12.3741L20.2809 12.1855C20.2383 12.1832 20.1993 12.1851 20.1636 12.191C20.1281 12.197 20.0965 12.2074 20.0691 12.2226C20.0417 12.2376 20.018 12.2575 19.9978 12.282C19.9776 12.3065 19.9612 12.335 19.9486 12.3673C19.9359 12.3996 19.927 12.4365 19.9217 12.4778C19.9085 12.5805 19.9258 12.6638 19.9739 12.7278C20.022 12.7918 20.0991 12.8307 20.2058 12.8445L20.7538 12.9149L20.778 12.7263L20.2288 12.6557C20.1771 12.6491 20.1385 12.6334 20.1129 12.6087H20.1131Z" fill="white"/>
<path d="M20.6045 13.1992C20.5746 13.1552 20.5345 13.1174 20.4842 13.0857C20.4338 13.054 20.3735 13.0301 20.303 13.0139C20.2475 13.0012 20.1951 12.9955 20.1458 12.9971C20.0965 12.9984 20.0516 13.0066 20.0112 13.0213C19.9708 13.036 19.9347 13.0571 19.9028 13.0848C19.871 13.1125 19.8442 13.1456 19.8226 13.1843C19.801 13.2231 19.7845 13.267 19.7733 13.3163C19.7589 13.3789 19.7558 13.4372 19.7641 13.4914C19.7722 13.5456 19.7914 13.5946 19.8212 13.6386C19.8511 13.6825 19.8915 13.72 19.9423 13.7516C19.9931 13.7829 20.0538 13.8067 20.1242 13.8229C20.1798 13.8356 20.232 13.8411 20.2808 13.8396C20.3298 13.8381 20.3744 13.83 20.4148 13.8154C20.4552 13.8007 20.4912 13.7799 20.523 13.7525C20.5547 13.7252 20.5815 13.6922 20.6031 13.6536C20.6247 13.6148 20.6412 13.5709 20.6524 13.5216C20.6665 13.4597 20.6696 13.4016 20.6614 13.3471C20.6533 13.2926 20.6343 13.2433 20.6045 13.1995V13.1992ZM20.4933 13.4824C20.4869 13.5106 20.4771 13.5349 20.4642 13.5554C20.4514 13.576 20.4349 13.5928 20.4149 13.606C20.395 13.6191 20.3724 13.6289 20.3471 13.6355C20.3217 13.6421 20.2938 13.6447 20.2632 13.6435C20.2326 13.6422 20.1997 13.6377 20.1646 13.6295C20.1208 13.6194 20.0826 13.606 20.0498 13.589C20.017 13.572 19.9907 13.5519 19.9709 13.529C19.951 13.5058 19.9377 13.4798 19.9308 13.4506C19.9239 13.4213 19.9246 13.3892 19.9325 13.354C19.939 13.3258 19.9488 13.3013 19.9618 13.2803C19.9748 13.2593 19.9912 13.2423 20.0111 13.2293C20.031 13.2162 20.0535 13.2065 20.0787 13.2004C20.104 13.1943 20.132 13.1918 20.1625 13.193C20.1931 13.1943 20.226 13.1989 20.2611 13.207C20.3049 13.2171 20.3431 13.2302 20.3761 13.2469C20.4088 13.2635 20.4353 13.2835 20.4555 13.3071C20.4756 13.3307 20.4889 13.3569 20.4955 13.386C20.5019 13.415 20.5011 13.4472 20.4932 13.4824H20.4933Z" fill="white"/>
<path d="M19.6038 14.0209L19.8745 14.1126L19.9526 14.2524L19.4937 14.3458L19.4265 14.5442L20.0383 14.4157L20.2505 14.7904L20.3162 14.5965L20.0795 14.1821L20.4179 14.2966L20.4788 14.1166L19.6649 13.8408L19.6038 14.0209Z" fill="white"/>
<path d="M19.1496 15.1655L19.2816 15.245L19.4569 14.8488L19.6484 14.9334L19.4925 15.2857L19.6323 15.3476L19.7882 14.9953L19.9633 15.0728L19.7977 15.4469L19.9375 15.5088L20.1786 14.9641L19.3927 14.6162L19.1496 15.1655Z" fill="white"/>
<path d="M18.9711 15.5032L18.8791 15.6682L19.6297 16.0867L19.7217 15.9217L18.9711 15.5032Z" fill="white"/>
<path d="M18.7089 15.9526L19.1805 16.2603L18.5116 16.255L18.4202 16.3951L19.1398 16.8649L19.2371 16.7157L18.7648 16.4073L19.4332 16.4153L19.526 16.2732L18.8063 15.8035L18.7089 15.9526Z" fill="white"/>
<path d="M18.0977 16.8127L18.2003 16.9854L17.9908 17.231L17.8048 17.1562L17.6774 17.3054L18.5296 17.6306L18.6749 17.4604L18.2211 16.6682L18.0977 16.8129V16.8127ZM18.2871 17.1193L18.4792 17.4343L18.1372 17.2949L18.2869 17.1193H18.2871Z" fill="white"/>
<path d="M17.1807 17.7798C17.1255 17.8302 17.0877 17.879 17.0668 17.9265C17.0459 17.9738 17.04 18.019 17.0488 18.062C17.0577 18.105 17.079 18.1448 17.1125 18.1816C17.1358 18.207 17.1615 18.2261 17.1897 18.2391C17.2179 18.252 17.2488 18.2573 17.2826 18.2552C17.3047 18.2538 17.3284 18.2483 17.354 18.239C17.3407 18.2746 17.3356 18.3074 17.3391 18.3374C17.344 18.3791 17.3622 18.4172 17.3938 18.4515C17.4241 18.4845 17.4576 18.5067 17.4944 18.5178C17.5311 18.5288 17.5717 18.5262 17.6161 18.51C17.6605 18.4937 17.7102 18.4605 17.7654 18.4101L18.0175 18.1794L17.4373 17.5454L17.1807 17.7803V17.7798ZM17.3722 18.1006C17.35 18.109 17.3292 18.1101 17.3099 18.1038C17.2906 18.0975 17.2719 18.0846 17.2542 18.065C17.2369 18.0461 17.2257 18.0269 17.2205 18.0078C17.2154 17.9885 17.2182 17.968 17.2287 17.9464C17.2393 17.9246 17.2592 17.9006 17.2881 17.8741L17.4027 17.7692L17.5628 17.9442L17.4455 18.0516C17.4189 18.0759 17.3944 18.0923 17.3722 18.1007V18.1006ZM17.6871 18.2887C17.6611 18.3126 17.638 18.329 17.6181 18.338C17.598 18.3471 17.5797 18.3495 17.5628 18.3454C17.546 18.3412 17.5294 18.3302 17.5132 18.3125C17.4974 18.2953 17.4879 18.278 17.4844 18.2606C17.4809 18.2431 17.4838 18.2249 17.4931 18.2061C17.5025 18.1871 17.519 18.1669 17.5428 18.1453L17.6538 18.0438L17.7911 18.1938L17.6873 18.2889L17.6871 18.2887Z" fill="white"/>
<path d="M17.1401 18.3921C17.1059 18.3465 17.0695 18.3083 17.0309 18.2776C16.9923 18.2468 16.9528 18.224 16.9125 18.2091C16.8723 18.1941 16.8309 18.1869 16.7888 18.1875C16.7466 18.1881 16.7048 18.1961 16.6633 18.2117C16.6218 18.2273 16.5808 18.2502 16.5404 18.2806C16.4891 18.3192 16.449 18.3618 16.4202 18.4083C16.3914 18.4549 16.3742 18.5046 16.3687 18.5574C16.3632 18.6103 16.3696 18.6651 16.3882 18.7219C16.4067 18.7787 16.4376 18.8359 16.481 18.8938C16.5151 18.9394 16.5514 18.9774 16.5898 19.0079C16.6282 19.0383 16.6674 19.061 16.7077 19.0758C16.748 19.0907 16.789 19.098 16.8309 19.0977C16.8727 19.0974 16.9145 19.0895 16.956 19.0739C16.9975 19.0582 17.0386 19.0354 17.079 19.005C17.1296 18.967 17.1696 18.9244 17.1987 18.8776C17.2278 18.8307 17.2451 18.781 17.2506 18.7281C17.2561 18.6753 17.25 18.6205 17.2319 18.5639C17.214 18.5071 17.1832 18.4498 17.1401 18.3921ZM17.0468 18.8004C17.033 18.8267 17.0116 18.8508 16.9828 18.8725C16.9597 18.8898 16.9366 18.9022 16.9135 18.9094C16.8903 18.9168 16.8669 18.9189 16.8433 18.9162C16.8196 18.9134 16.796 18.9062 16.7725 18.8949C16.7489 18.8834 16.7258 18.8675 16.7033 18.8466C16.6808 18.826 16.6586 18.8012 16.637 18.7722C16.61 18.7363 16.5895 18.7012 16.5754 18.6672C16.5613 18.6331 16.5543 18.6008 16.554 18.5704C16.5537 18.54 16.5604 18.5115 16.574 18.4847C16.5877 18.4579 16.6088 18.4339 16.6377 18.4121C16.6608 18.3948 16.6841 18.3824 16.7075 18.3748C16.731 18.3673 16.7545 18.3648 16.7783 18.3677C16.802 18.3705 16.8254 18.3777 16.8487 18.3895C16.872 18.4011 16.8949 18.4173 16.9174 18.438C16.94 18.4587 16.9622 18.4835 16.9837 18.5124C17.0107 18.5484 17.0314 18.5833 17.0457 18.6171C17.0601 18.651 17.0673 18.6834 17.0675 18.7144C17.0676 18.7453 17.0608 18.7741 17.047 18.8004H17.0468Z" fill="white"/>
<path d="M16.3372 19.2893L15.9736 18.6975L15.8116 18.797L16.1753 19.3888L15.9507 19.5267L16.037 19.6673L16.6471 19.2923L16.5608 19.1518L16.3372 19.2893Z" fill="white"/>
<path d="M15.6118 19.7013L15.3027 19.0796L15.1323 19.1641L15.4416 19.786L15.2055 19.9034L15.279 20.051L15.9202 19.7323L15.8469 19.5845L15.6118 19.7013Z" fill="white"/>
<path d="M14.2772 19.5271L14.319 19.6879L14.6949 19.5386L14.9512 20.1842L15.1268 20.1144L14.8097 19.3157L14.2772 19.5271Z" fill="white"/>
<path d="M13.5966 19.7385L13.6228 19.8904L14.0372 19.764L14.0983 19.9645L13.7298 20.0767L13.7744 20.2229L14.1429 20.1107L14.1986 20.2938L13.8071 20.413L13.8517 20.5593L14.4217 20.3856L14.1712 19.5635L13.5966 19.7385Z" fill="white"/>
<path d="M3.15109 7.85602C3.30118 7.85602 3.42285 7.73435 3.42285 7.58426C3.42285 7.43417 3.30118 7.3125 3.15109 7.3125C3.001 7.3125 2.87933 7.43417 2.87933 7.58426C2.87933 7.73435 3.001 7.85602 3.15109 7.85602Z" fill="white"/>
<path d="M19.0322 6.44097C19.0994 6.30673 19.045 6.14349 18.9107 6.07636C18.7765 6.00923 18.6132 6.06362 18.5461 6.19786C18.479 6.3321 18.5334 6.49534 18.6676 6.56247C18.8019 6.62961 18.9651 6.57521 19.0322 6.44097Z" fill="white"/>
<path d="M12.311 20.73C12.4591 20.706 12.5597 20.5664 12.5357 20.4182C12.5116 20.2701 12.372 20.1695 12.2239 20.1935C12.0757 20.2176 11.9751 20.3572 11.9992 20.5053C12.0232 20.6535 12.1628 20.7541 12.311 20.73Z" fill="white"/>
<path d="M11.38 0C5.09496 0 0 5.09496 0 11.38C0 17.665 5.09496 22.76 11.38 22.76C17.665 22.76 22.76 17.665 22.76 11.38C22.76 5.09496 17.665 0 11.38 0ZM11.38 22.5519C5.20995 22.5519 0.208067 17.5501 0.208067 11.38C0.208067 5.20995 5.20995 0.208067 11.38 0.208067C17.5501 0.208067 22.5519 5.20995 22.5519 11.38C22.5519 17.5501 17.5501 22.5519 11.38 22.5519Z" fill="#009639"/>
<path d="M11.38 1.09155C5.69775 1.09155 1.09149 5.69797 1.09149 11.3801C1.09149 17.0622 5.6979 21.6686 11.38 21.6686C17.0621 21.6686 21.6685 17.0623 21.6685 11.3801C21.6685 5.69781 17.0623 1.09155 11.38 1.09155ZM11.38 21.4178C5.83631 21.4178 1.34227 16.9238 1.34227 11.3801C1.34227 5.83637 5.83631 1.34234 11.38 1.34234C16.9237 1.34234 21.4178 5.83637 21.4178 11.3801C21.4178 16.9238 16.9237 21.4178 11.38 21.4178Z" fill="#009639"/>
</svg>
