<svg  viewBox="0 0 28 20" fill="none" xmlns="http://www.w3.org/2000/svg">
<path d="M0.802734 1.52519V4.42397C2.00349 4.42397 2.97683 5.39736 2.97683 6.59806C2.97683 7.79882 2.00349 8.77216 0.802734 8.77216V11.6709C2.00349 11.6709 2.97683 12.6443 2.97683 13.845C2.97683 15.0458 2.00349 16.0191 0.802734 16.0191V18.918H27.0006V1.52519H0.802734Z" stroke="black" stroke-width="1.6" stroke-miterlimit="10" stroke-linecap="round" stroke-linejoin="round"/>
<path d="M8.4668 1.52623V2.61328" stroke="black" stroke-width="1.6" stroke-linecap="round" stroke-linejoin="round"/>
<path d="M8.4668 5.12744V15.0781" stroke="black" stroke-width="1.6" stroke-linecap="round" stroke-linejoin="round" stroke-dasharray="57.44 86.15"/>
<path d="M8.4668 17.8309V18.918" stroke="black" stroke-width="1.6" stroke-linecap="round" stroke-linejoin="round"/>
<path d="M17.7066 6.08862L19.0502 8.81119L22.0548 9.24775L19.8807 11.367L20.3939 14.3594L17.7066 12.9465L15.0192 14.3594L15.5325 11.367L13.3584 9.24775L16.3629 8.81119L17.7066 6.08862Z" stroke="black" stroke-width="1.6" stroke-miterlimit="10" stroke-linecap="round" stroke-linejoin="round"/>
</svg>
