<svg  viewBox="0 0 31 30" fill="none" xmlns="http://www.w3.org/2000/svg">
<path d="M10.8191 6.95285L10.819 6.95378L10.816 6.96853C10.8131 6.98305 10.8079 7.00681 10.7999 7.03848C10.7841 7.10195 10.7574 7.19644 10.7159 7.31157C10.6323 7.54294 10.491 7.85056 10.2617 8.15632C9.81555 8.75122 9.01249 9.37507 7.53125 9.37507C7.27237 9.37507 7.0625 9.58494 7.0625 9.84382C7.0625 10.1027 7.27237 10.3126 7.53125 10.3126C9.33126 10.3126 10.4032 9.53018 11.0117 8.71882C11.3097 8.32146 11.4907 7.92595 11.5976 7.62998C11.6513 7.48144 11.6869 7.35621 11.7095 7.26586C11.7208 7.22063 11.7289 7.18397 11.7343 7.15729C11.7371 7.14395 11.7392 7.13308 11.7407 7.12488L11.7426 7.11458L11.7432 7.11096L11.7434 7.10954L11.7436 7.10839C11.7862 6.85302 11.6137 6.61151 11.3583 6.56895C11.1034 6.52647 10.8623 6.69827 10.8191 6.95285Z" fill="black"/>
<path d="M9.35674 12.2865C8.89363 12.0549 8.3305 12.2426 8.09895 12.7057C7.8674 13.1688 8.05511 13.7319 8.51821 13.9635L10.5912 15L8.51821 16.0365C8.05511 16.268 7.8674 16.8311 8.09895 17.2942C8.3305 17.7573 8.89363 17.9451 9.35674 17.7135L13.1067 15.8385C13.4243 15.6797 13.625 15.3551 13.625 15C13.625 14.6449 13.4243 14.3203 13.1067 14.1615L9.35674 12.2865Z" fill="black"/>
<path d="M22.9011 12.7057C22.6695 12.2426 22.1064 12.0549 21.6433 12.2865L17.8933 14.1615C17.5757 14.3203 17.375 14.6449 17.375 15C17.375 15.3551 17.5757 15.6797 17.8933 15.8385L21.6433 17.7135C22.1064 17.9451 22.6695 17.7573 22.9011 17.2942C23.1326 16.8311 22.9449 16.268 22.4818 16.0365L20.4088 15L22.4818 13.9635C22.9449 13.7319 23.1326 13.1688 22.9011 12.7057Z" fill="black"/>
<path d="M20.184 6.96853L20.1811 6.9539C20.1383 6.69881 19.8969 6.52642 19.6417 6.56895C19.3864 6.61151 19.2138 6.85302 19.2564 7.10839C19.2171 6.96853 19.2566 7.10954 19.2566 7.10954L19.2568 7.11096L19.2575 7.11458L19.2593 7.12488L19.2617 7.13749L19.2657 7.15729C19.2712 7.18397 19.2793 7.22063 19.2906 7.26586C19.3132 7.35621 19.3488 7.48144 19.4024 7.62998C19.5093 7.92595 19.6903 8.32146 19.9883 8.71882C20.5968 9.53018 21.6688 10.3126 23.4688 10.3126C23.7277 10.3126 23.9375 10.1027 23.9375 9.84382C23.9375 9.58494 23.7277 9.37507 23.4688 9.37507C21.9875 9.37507 21.1845 8.75122 20.7383 8.15632C20.509 7.85056 20.3677 7.54294 20.2842 7.31157C20.2426 7.19644 20.216 7.10195 20.2001 7.03848C20.1922 7.00681 20.187 6.98305 20.184 6.96853Z" fill="black"/>
<path d="M12.0246 20.8997C11.6585 21.2658 11.6585 21.8594 12.0246 22.2255C12.3876 22.5885 12.9741 22.5916 13.3409 22.2348L13.3488 22.2278C13.3615 22.2167 13.3872 22.1951 13.4258 22.1661C13.5032 22.1081 13.6313 22.0216 13.8099 21.9324C14.164 21.7553 14.7245 21.5626 15.5 21.5626C16.2755 21.5626 16.836 21.7553 17.1901 21.9324C17.3687 22.0216 17.4968 22.1081 17.5742 22.1661C17.6128 22.1951 17.6385 22.2167 17.6512 22.2278L17.6591 22.2348C18.0259 22.5916 18.6124 22.5885 18.9754 22.2255C19.3415 21.8594 19.3415 21.2658 18.9754 20.8997L18.9741 20.8983L18.9726 20.8969L18.9695 20.8938L18.9621 20.8865L18.9427 20.8681C18.9278 20.8541 18.9089 20.8368 18.8859 20.8167C18.84 20.7766 18.7778 20.725 18.6992 20.6661C18.5422 20.5483 18.3188 20.4004 18.0286 20.2553C17.4452 19.9636 16.5995 19.6876 15.5 19.6876C14.4005 19.6876 13.5548 19.9636 12.9714 20.2553C12.6812 20.4004 12.4578 20.5483 12.3008 20.6661C12.2222 20.725 12.16 20.7766 12.1141 20.8167C12.0911 20.8368 12.0722 20.8541 12.0573 20.8681L12.0379 20.8865L12.0305 20.8938L12.0274 20.8969L12.0259 20.8983L12.0246 20.8997Z" fill="black"/>
<path d="M15.499 0.9375C10.9018 0.9375 7.35594 2.48831 4.96571 5.08384C2.58712 7.66673 1.4375 11.1917 1.4375 14.999C1.4375 18.8062 2.58712 22.3312 4.96571 24.9141C7.35594 27.5096 10.9018 29.0604 15.499 29.0604C20.0962 29.0604 23.642 27.5096 26.0322 24.9141C28.4108 22.3312 29.5604 18.8062 29.5604 14.999C29.5604 11.1917 28.4108 7.66673 26.0322 5.08384C23.642 2.48831 20.0962 0.9375 15.499 0.9375ZM3.3125 14.999C3.3125 11.5581 4.34933 8.52104 6.34496 6.35399C8.32895 4.19959 11.3451 2.8125 15.499 2.8125C19.6528 2.8125 22.669 4.19959 24.6529 6.35399C26.6486 8.52104 27.6854 11.5581 27.6854 14.999C27.6854 18.4398 26.6486 21.4769 24.6529 23.6439C22.669 25.7983 19.6528 27.1854 15.499 27.1854C11.3451 27.1854 8.32895 25.7983 6.34496 23.6439C4.34933 21.4769 3.3125 18.4398 3.3125 14.999Z" fill="black"/>
</svg>
