<svg width="27" height="27" viewBox="0 0 27 27" fill="none" xmlns="http://www.w3.org/2000/svg">
<path d="M13.2148 0.821289C20.1887 0.624717 25.9728 6.01136 26.3418 12.9707L26.3555 13.3027C26.5515 20.318 20.9618 26.1595 13.8506 26.3613H13.8496C6.94013 26.4842 1.20461 21.1481 0.834961 14.2539L0.821289 13.9238C0.624604 7.02285 6.02512 1.20456 12.8867 0.834961L13.2148 0.821289ZM13.5996 2.13867C7.47937 2.12564 2.48001 6.91754 2.15527 12.9717L2.13867 13.5615C2.11944 19.6965 6.92129 24.7081 12.9844 25.0254L13.5752 25.042C19.6979 25.0525 24.6939 20.2637 25.0195 14.208L25.0361 13.6182C25.0566 7.48241 20.2585 2.47358 14.1904 2.1543L13.5996 2.13867Z" fill="black" stroke="#FFE200" stroke-width="0.3"/>
<path d="M12.875 14.3818H18.2686C18.6474 14.3821 18.8842 14.5124 18.9951 14.6885C19.0918 14.8421 19.1158 15.0665 19.0078 15.3486L18.9531 15.4727C18.5541 16.2851 18.182 17.0996 17.748 17.8779L17.5576 18.209C16.9652 19.2124 16.1594 19.9874 15.0596 20.373L14.8359 20.4443C13.1023 20.9507 11.44 20.4312 10.1836 18.9922L9.9375 18.6924C9.34076 17.9167 8.91812 17.0462 8.52051 16.1504L8.12598 15.248C8.03041 15.0303 8.06823 14.8208 8.19141 14.6621C8.30092 14.521 8.48234 14.4148 8.70801 14.3896L8.80762 14.3848C10.1631 14.3778 11.5183 14.3818 12.875 14.3818ZM9.88379 15.9297C10.2243 16.6904 10.5874 17.4326 11.1221 18.0713L11.3623 18.3379C12.6147 19.6346 14.5385 19.6305 15.7871 18.3682L15.9062 18.2422C16.5108 17.5668 16.9102 16.7736 17.2949 15.9307L17.3916 15.7178H9.79004L9.88379 15.9297Z" fill="black" stroke="#FFE200" stroke-width="0.3"/>
<path d="M19.6045 8.43945C19.7244 8.47194 19.8315 8.54121 19.916 8.64844L19.9922 8.76758C20.0816 8.94147 20.0888 9.11606 20.0293 9.27148C19.984 9.38952 19.8971 9.50352 19.7676 9.59961L19.624 9.68945C19.2916 9.86259 18.9568 10.0272 18.5703 10.2227L18.4873 10.2646V10.4492L18.5693 10.4912C18.7756 10.5961 18.9713 10.6922 19.1602 10.7871L19.7109 11.0752C19.9805 11.2249 20.0984 11.4806 20.0518 11.7461L20.0215 11.8604C19.9128 12.1677 19.6344 12.3436 19.3232 12.2988H19.3242C19.2705 12.2911 19.2147 12.2757 19.1582 12.2549L18.9863 12.1787L16.6211 10.999L16.5146 10.9404C16.4154 10.8797 16.3376 10.8113 16.2812 10.7344C16.2078 10.6341 16.1651 10.5118 16.166 10.3545C16.1671 10.2037 16.2082 10.084 16.2793 9.98633C16.3336 9.91177 16.4088 9.84589 16.5039 9.78711L16.6055 9.73047L19.0273 8.52246C19.2434 8.4154 19.4428 8.39577 19.6045 8.43945Z" fill="black" stroke="#FFE200" stroke-width="0.3"/>
<path d="M7.19141 8.78516C7.33442 8.49186 7.63777 8.35446 7.97461 8.45312L8.12109 8.50977L10.5977 9.74609C10.8327 9.86314 10.9701 10.028 11.002 10.2549L11.0098 10.3564C11.0111 10.603 10.9047 10.7874 10.7002 10.9189L10.6064 10.9727L8.10156 12.2207C7.76754 12.3833 7.43074 12.297 7.24609 12.0488L7.17676 11.9326C7.04128 11.6465 7.11633 11.3331 7.38965 11.126L7.51953 11.0439C7.83976 10.8744 8.16405 10.7178 8.5459 10.5273L8.69727 10.6035V10.1162L8.54688 10.1914L7.54785 9.68848C7.34467 9.58242 7.21665 9.4375 7.1582 9.28418C7.11481 9.17033 7.1069 9.04513 7.1416 8.91602L7.19043 8.78516H7.19141Z" fill="black" stroke="#FFE200" stroke-width="0.3"/>
</svg>
