<svg viewBox="0 0 18 17" fill="none" xmlns="http://www.w3.org/2000/svg">
<path d="M9 0.250977C7.39303 0.250977 5.82214 0.7275 4.486 1.62029C3.14985 2.51307 2.10844 3.78202 1.49348 5.26667C0.87852 6.75132 0.717618 8.38499 1.03112 9.96109C1.34463 11.5372 2.11846 12.9849 3.25476 14.1212C4.39106 15.2575 5.8388 16.0314 7.4149 16.3449C8.99099 16.6584 10.6247 16.4975 12.1093 15.8825C13.594 15.2675 14.8629 14.2261 15.7557 12.89C16.6485 11.5538 17.125 9.98295 17.125 8.37598C17.1227 6.22179 16.266 4.15649 14.7427 2.63325C13.2195 1.11001 11.1542 0.253251 9 0.250977ZM9.625 15.2221V10.251H11.5C11.6658 10.251 11.8247 10.1851 11.9419 10.0679C12.0592 9.95071 12.125 9.79174 12.125 9.62598C12.125 9.46022 12.0592 9.30124 11.9419 9.18403C11.8247 9.06682 11.6658 9.00098 11.5 9.00098H9.625V7.12598C9.625 6.79446 9.7567 6.47651 9.99112 6.24209C10.2255 6.00767 10.5435 5.87598 10.875 5.87598H12.125C12.2908 5.87598 12.4497 5.81013 12.5669 5.69292C12.6842 5.57571 12.75 5.41674 12.75 5.25098C12.75 5.08522 12.6842 4.92625 12.5669 4.80903C12.4497 4.69182 12.2908 4.62598 12.125 4.62598H10.875C10.212 4.62598 9.57608 4.88937 9.10724 5.35821C8.6384 5.82705 8.375 6.46294 8.375 7.12598V9.00098H6.5C6.33424 9.00098 6.17527 9.06682 6.05806 9.18403C5.94085 9.30124 5.875 9.46022 5.875 9.62598C5.875 9.79174 5.94085 9.95071 6.05806 10.0679C6.17527 10.1851 6.33424 10.251 6.5 10.251H8.375V15.2221C6.61312 15.0612 4.98107 14.2274 3.81831 12.8939C2.65556 11.5605 2.05162 9.83009 2.13212 8.06271C2.21263 6.29534 2.97137 4.62703 4.25053 3.40481C5.52969 2.18259 7.2308 1.50054 9 1.50054C10.7692 1.50054 12.4703 2.18259 13.7495 3.40481C15.0286 4.62703 15.7874 6.29534 15.8679 8.06271C15.9484 9.83009 15.3444 11.5605 14.1817 12.8939C13.0189 14.2274 11.3869 15.0612 9.625 15.2221Z" fill="black"/>
</svg>
