<svg viewBox="0 0 12 12" fill="none" xmlns="http://www.w3.org/2000/svg">
<path d="M12 10.2C12 10.2788 11.9845 10.3568 11.9544 10.4296C11.9242 10.5024 11.88 10.5685 11.8243 10.6243C11.7686 10.68 11.7024 10.7242 11.6296 10.7543C11.5568 10.7845 11.4788 10.8 11.4 10.8H5.88944C5.76717 11.1506 5.53886 11.4544 5.23615 11.6695C4.93344 11.8845 4.57133 12 4.20002 12C3.82871 12 3.4666 11.8845 3.16389 11.6695C2.86118 11.4544 2.63286 11.1506 2.5106 10.8H0.6C0.44087 10.8 0.288258 10.7367 0.175736 10.6242C0.0632141 10.5117 0 10.3591 0 10.2C0 10.0408 0.0632141 9.88822 0.175736 9.7757C0.288258 9.66317 0.44087 9.59996 0.6 9.59996H2.51056C2.63284 9.24937 2.86116 8.94551 3.16388 8.73049C3.46659 8.51548 3.8287 8.39996 4.2 8.39996C4.5713 8.39996 4.93341 8.51548 5.23612 8.73049C5.53884 8.94551 5.76716 9.24937 5.88944 9.59996H11.4C11.4788 9.59994 11.5568 9.61545 11.6296 9.64559C11.7024 9.67574 11.7686 9.71993 11.8243 9.77565C11.88 9.83137 11.9242 9.89752 11.9544 9.97032C11.9845 10.0431 12 10.1212 12 10.2ZM11.4 5.39998H10.0894C9.96716 5.04939 9.73884 4.74552 9.43612 4.53051C9.13341 4.31549 8.7713 4.19998 8.4 4.19998C8.0287 4.19998 7.66659 4.31549 7.36388 4.53051C7.06116 4.74552 6.83284 5.04939 6.71056 5.39998H0.6C0.44087 5.39998 0.288258 5.46319 0.175736 5.57572C0.0632141 5.68824 0 5.84085 0 5.99998C0 6.15911 0.0632141 6.31172 0.175736 6.42424C0.288258 6.53676 0.44087 6.59997 0.6 6.59997H6.7106C6.83286 6.95057 7.06118 7.25445 7.36389 7.46948C7.6666 7.6845 8.02871 7.80002 8.40002 7.80002C8.77133 7.80002 9.13344 7.6845 9.43615 7.46948C9.73886 7.25445 9.96717 6.95057 10.0894 6.59997H11.4C11.5591 6.59997 11.7117 6.53676 11.8243 6.42424C11.9368 6.31172 12 6.15911 12 5.99998C12 5.84085 11.9368 5.68824 11.8243 5.57572C11.7117 5.46319 11.5591 5.39998 11.4 5.39998ZM0.6 2.39999H3.7106C3.83286 2.75059 4.06118 3.05447 4.36389 3.26949C4.6666 3.48452 5.02871 3.60004 5.40002 3.60004C5.77133 3.60004 6.13344 3.48452 6.43615 3.26949C6.73886 3.05447 6.96717 2.75059 7.08944 2.39999H11.4C11.5591 2.39999 11.7117 2.33678 11.8243 2.22426C11.9368 2.11174 12 1.95913 12 1.8C12 1.64087 11.9368 1.48826 11.8243 1.37573C11.7117 1.26321 11.5591 1.2 11.4 1.2H7.08944C6.96716 0.849409 6.73884 0.545545 6.43612 0.330529C6.13341 0.115514 5.7713 0 5.4 0C5.0287 0 4.66659 0.115514 4.36388 0.330529C4.06116 0.545545 3.83284 0.849409 3.71056 1.2H0.6C0.44087 1.2 0.288258 1.26321 0.175736 1.37573C0.0632141 1.48826 0 1.64087 0 1.8C0 1.95913 0.0632141 2.11174 0.175736 2.22426C0.288258 2.33678 0.44087 2.39999 0.6 2.39999Z" fill="#383838"/>
</svg>
