<svg  viewBox="0 0 30 30" fill="none" xmlns="http://www.w3.org/2000/svg">
<path d="M15 0.950195C22.7542 0.950195 29.0498 7.24579 29.0498 15C29.0498 22.7542 22.7542 29.0498 15 29.0498C7.24579 29.0498 0.950195 22.7542 0.950195 15C0.950195 7.24579 7.24579 0.950195 15 0.950195ZM15 1.9834C7.80548 1.9834 1.9834 7.80548 1.9834 15C1.9834 22.1945 7.80548 28.0166 15 28.0166C22.1945 28.0166 28.0166 22.1945 28.0166 15C28.0166 7.80548 22.1945 1.9834 15 1.9834ZM8.4668 19.1504C8.75212 19.1504 8.9834 19.3817 8.9834 19.667C8.98322 19.9522 8.75202 20.1836 8.4668 20.1836H8C7.76118 20.1836 7.5832 20.3608 7.58301 20.5996V21.0166H8.4668C8.75208 21.0166 8.98333 21.2479 8.9834 21.5332C8.9834 21.8185 8.75212 22.0498 8.4668 22.0498H7.58301V22.4668C7.58294 22.7521 7.35171 22.9834 7.06641 22.9834C6.78127 22.9832 6.54987 22.752 6.5498 22.4668V20.5996C6.55002 19.8047 7.20503 19.1504 8 19.1504H8.4668ZM11.7334 19.1504C12.7863 19.1504 13.6502 20.0135 13.6504 21.0664C13.6504 22.1194 12.7864 22.9834 11.7334 22.9834C10.6804 22.9834 9.81641 22.1194 9.81641 21.0664C9.81655 20.0135 10.6805 19.1504 11.7334 19.1504ZM17.7998 19.1504C18.5948 19.1504 19.2498 19.8046 19.25 20.5996V22.4668C19.2499 22.7521 19.0187 22.9834 18.7334 22.9834C18.4481 22.9834 18.2169 22.7521 18.2168 22.4668V20.5996C18.2166 20.3608 18.0387 20.1836 17.7998 20.1836C17.5611 20.1837 17.384 20.3609 17.3838 20.5996V22.4668C17.3837 22.7519 17.1523 22.9832 16.8672 22.9834C16.5819 22.9834 16.3497 22.7521 16.3496 22.4668V20.5996C16.3494 20.3609 16.1724 20.1837 15.9336 20.1836C15.6947 20.1836 15.5168 20.3608 15.5166 20.5996V22.4668C15.5165 22.7521 15.2853 22.9834 15 22.9834C14.7147 22.9833 14.4835 22.7521 14.4834 22.4668V20.5996C14.4836 19.8046 15.1386 19.1504 15.9336 19.1504C16.2879 19.1504 16.6134 19.2808 16.8662 19.4951C17.1191 19.2805 17.4452 19.1505 17.7998 19.1504ZM22 19.1504C23.0529 19.1504 23.9168 20.0135 23.917 21.0664C23.917 22.1194 23.053 22.9834 22 22.9834C20.947 22.9833 20.083 22.1194 20.083 21.0664C20.0832 20.0135 20.9471 19.1504 22 19.1504ZM11.7334 20.1836C11.2401 20.1836 10.8497 20.5732 10.8496 21.0664C10.8496 21.5598 11.24 21.9502 11.7334 21.9502C12.2268 21.9502 12.6172 21.5598 12.6172 21.0664C12.617 20.5732 12.2267 20.1836 11.7334 20.1836ZM22 20.1836C21.5068 20.1836 21.1173 20.5732 21.1172 21.0664C21.1172 21.5598 21.5067 21.9501 22 21.9502C22.4934 21.9502 22.8838 21.5598 22.8838 21.0664C22.8837 20.5732 22.4933 20.1836 22 20.1836ZM10.0996 8.88379C11.7696 8.88379 13.1836 10.1355 13.1836 11.7334C13.1836 13.3313 11.7696 14.583 10.0996 14.583C8.42981 14.5828 7.01664 13.3311 7.0166 11.7334C7.0166 10.1357 8.42978 8.88403 10.0996 8.88379ZM19.9004 8.88379C21.5703 8.88394 22.9834 10.1356 22.9834 11.7334C22.9834 13.3312 21.5703 14.5829 19.9004 14.583C18.2304 14.583 16.8164 13.3313 16.8164 11.7334C16.8164 10.1355 18.2304 8.88379 19.9004 8.88379ZM13.709 6.09473C13.8965 6.13512 14.0492 6.27701 14.0996 6.4668L14.1162 6.57031C14.1283 6.77606 14.0156 6.97065 13.8311 7.0625L13.7334 7.09961L6.7334 8.96582C6.49215 9.03031 6.24501 8.91325 6.1377 8.69824L6.10059 8.59961C6.02699 8.32379 6.19089 8.0402 6.4668 7.9668L13.4668 6.10059L13.5459 6.08594C13.5728 6.08305 13.5999 6.08165 13.627 6.08301L13.709 6.09473ZM16.4541 6.08594C16.4808 6.08881 16.5072 6.09359 16.5332 6.10059L23.5332 7.9668L23.6309 8.00391C23.8154 8.09567 23.928 8.29035 23.916 8.49609L23.8994 8.59961C23.8352 8.84111 23.6102 8.99667 23.3701 8.98242L23.2666 8.96582L16.2666 7.09961C15.9907 7.02613 15.8267 6.74263 15.9004 6.4668L15.9277 6.38867C16.0058 6.21355 16.177 6.09331 16.373 6.08301L16.4541 6.08594Z" fill="black" stroke="black" stroke-width="0.1"/>
</svg>
