<svg  viewBox="0 0 15 14" fill="none" xmlns="http://www.w3.org/2000/svg">
<path d="M7.87395 0.400391C11.4943 0.400616 14.4335 3.35287 14.4335 7C14.4335 10.6471 11.4943 13.5994 7.87395 13.5996C4.25339 13.5996 1.31438 10.6473 1.31438 7C1.31438 3.35273 4.25339 0.400391 7.87395 0.400391Z" stroke="#313131" stroke-width="0.8"/>
<path d="M9.86313 6.26941V5.39121H10.6592C10.7343 5.39121 10.8021 5.34567 10.8308 5.27584C10.8596 5.20601 10.8437 5.12562 10.7906 5.07218L9.59646 3.87114C9.52391 3.79816 9.40626 3.79816 9.3337 3.87114L8.13961 5.07218C8.08647 5.12562 8.07058 5.20601 8.09933 5.27584C8.12809 5.34567 8.19585 5.39121 8.27099 5.39121H9.06707V6.26941C7.29998 6.76649 7.60881 9.35395 9.46513 9.39464C11.3217 9.35378 11.6299 6.76616 9.86313 6.26941ZM9.4651 8.59396C9.03275 8.59396 8.68225 8.24143 8.68225 7.80656C8.72063 6.76322 10.2097 6.7635 10.2479 7.80658C10.2479 8.24143 9.89745 8.59396 9.4651 8.59396Z" fill="#313131"/>
<path d="M7.86041 6.4045C7.86041 5.52742 7.15351 4.81641 6.2815 4.81641C4.42471 4.85727 4.11681 7.44499 5.88347 7.94164V8.40622H5.08741C4.9848 8.40622 4.90161 8.48989 4.90161 8.5931V9.02003C4.90161 9.12324 4.9848 9.20691 5.08741 9.20691H5.88347V10.0076C5.88347 10.1108 5.96666 10.1945 6.06928 10.1945H6.49373C6.59635 10.1945 6.67954 10.1108 6.67954 10.0076V9.2069H7.4756C7.57821 9.2069 7.6614 9.12322 7.6614 9.02001V8.59309C7.6614 8.48988 7.57821 8.40621 7.4756 8.40621H6.67954V7.94163C7.35884 7.76419 7.86041 7.14328 7.86041 6.4045ZM6.2815 7.19189C5.84915 7.19189 5.49865 6.83936 5.49865 6.4045C5.53703 5.36116 7.02612 5.36143 7.06435 6.40451C7.06435 6.83936 6.71385 7.19189 6.2815 7.19189Z" fill="#313131"/>
</svg>
