<svg viewBox="0 0 33 32" fill="none" xmlns="http://www.w3.org/2000/svg">
<path d="M18.9151 18.7124C21.5251 18.7124 24.0625 17.7822 26.0086 16.0429C26.6988 15.426 27.3304 14.6943 27.7876 13.8401C28.2099 13.0519 29.1042 12.6421 29.9703 12.8633L30.0548 12.8849C31.2653 13.194 31.8572 14.5537 31.2732 15.6582C28.7893 20.355 23.2296 22.2353 22.5193 22.4591L21.934 22.6267V31.0004H11.0661V22.6268L10.4808 22.4592C9.77044 22.2353 4.21084 20.355 1.72693 15.6583C1.14292 14.5538 1.73477 13.194 2.9453 12.885L3.02976 12.8634C3.8959 12.6421 4.79024 13.0519 5.21248 13.8402C5.66964 14.6944 6.30126 15.426 6.99151 16.043C8.93753 17.7822 11.475 18.7124 14.085 18.7124L18.9151 18.7124Z" stroke="black" stroke-width="1.5" stroke-miterlimit="10" stroke-linecap="round" stroke-linejoin="round"/>
<path d="M16.5006 18.7121C19.3206 18.7121 21.6066 16.426 21.6066 13.6061C21.6066 10.7861 19.3206 8.5 16.5006 8.5C13.6806 8.5 11.3945 10.7861 11.3945 13.6061C11.3945 16.426 13.6806 18.7121 16.5006 18.7121Z" stroke="black" stroke-width="1.5" stroke-miterlimit="10" stroke-linejoin="round"/>
<path d="M15.5039 14.8174C16.0659 15.3794 16.977 15.3794 17.5391 14.8174" stroke="black" stroke-width="1.5" stroke-miterlimit="10" stroke-linecap="round" stroke-linejoin="round"/>
<path d="M16.5 1V3.24814" stroke="black" stroke-width="1.5" stroke-miterlimit="10" stroke-linecap="round" stroke-linejoin="round"/>
<path d="M10.4141 3.17871L12.0038 4.7684" stroke="black" stroke-width="1.5" stroke-miterlimit="10" stroke-linecap="round" stroke-linejoin="round"/>
<path d="M22.5704 3.17871L20.9807 4.7684" stroke="black" stroke-width="1.5" stroke-miterlimit="10" stroke-linecap="round" stroke-linejoin="round"/>
<path d="M9.25219 17.5771C8.61671 19.3597 7.73519 20.4099 7.14478 20.9574" stroke="black" stroke-width="1.5" stroke-miterlimit="10" stroke-linejoin="round"/>
<path d="M23.7468 17.5771C24.3823 19.36 25.2639 20.4102 25.8544 20.9578" stroke="black" stroke-width="1.5" stroke-miterlimit="10" stroke-linejoin="round"/>
</svg>
