<svg  viewBox="0 0 47 48" fill="none" xmlns="http://www.w3.org/2000/svg">
<g clip-path="url(#clip0_30993_39255)">
<path fill-rule="evenodd" clip-rule="evenodd" d="M45.1833 16.1423C46.567 19.0777 46.7738 22.4268 46.3472 25.6079L46.3602 25.6208C46.2695 26.151 46.1273 26.6812 45.8557 27.1468C45.122 27.4472 44.362 27.6722 43.602 27.8971C42.9555 28.0883 42.3091 28.2798 41.679 28.5174C41.8493 28.8514 42.0567 29.182 42.266 29.5155C42.8672 30.4734 43.4839 31.456 43.2825 32.6166C43.213 32.9839 43.1463 33.3516 43.0799 33.7192C42.8371 35.0606 42.5949 36.3995 42.2092 37.6987C41.9953 38.4789 41.2337 38.7468 40.5378 38.9915C40.3919 39.0428 40.2489 39.0931 40.1143 39.147C39.4399 39.3539 38.793 39.6265 38.1471 39.8987C37.5421 40.1535 36.9379 40.4081 36.3126 40.6082C35.4332 40.9314 34.6832 40.1555 34.2823 39.4702C33.2479 37.6469 32.5754 35.6425 31.9935 33.6254C30.7779 34.0649 29.6012 34.5951 28.4244 35.1382C28.5831 35.5379 28.7684 35.9362 28.9546 36.3365C29.558 37.6331 30.1715 38.9519 29.9245 40.4142C29.8503 40.9086 29.8404 41.4305 29.8305 41.9564C29.8093 43.0816 29.7878 44.2259 29.1357 45.1599C27.8813 46.1944 26.4977 47.0997 25.0624 47.8497C24.5709 48.1728 24.015 47.9272 23.6916 47.5263C22.5372 46.3515 21.7322 44.9413 20.9265 43.5299C20.1981 42.2536 19.4689 40.9763 18.4804 39.871C16.3468 41.2677 14.1355 42.6124 11.7561 43.5435C10.2883 42.503 9.56796 40.8552 8.85673 39.2281C8.57798 38.5905 8.30063 37.9558 7.98022 37.3624C7.25766 36.2424 8.02674 35.1112 8.66851 34.1673C8.71586 34.0977 8.7625 34.029 8.80783 33.9615C9.7513 33.5195 10.6274 32.9529 11.505 32.3854C12.3473 31.8406 13.191 31.295 14.0967 30.8579C13.7122 30.2099 13.3464 29.543 12.9834 28.8814C12.9191 28.7641 12.8549 28.6472 12.7906 28.5304C11.479 28.9871 10.2709 29.6719 9.06281 30.3564C7.60295 31.1839 6.14333 32.0111 4.50172 32.4357C3.60151 32.5256 3.0832 31.7638 2.62297 31.0873C2.55431 30.9864 2.48694 30.8873 2.4198 30.7934C2.14365 30.3534 1.82515 29.9406 1.50723 29.5285C0.946774 28.8019 0.388096 28.0777 0.0663163 27.2114C-0.157715 26.2078 0.226841 25.2662 0.608882 24.3308C0.778133 23.9164 0.94689 23.5032 1.06202 23.0863C1.20224 22.1155 2.04426 21.6306 2.83756 21.1737C2.9953 21.083 3.15113 20.9932 3.29913 20.901C4.94138 19.957 6.58365 19.0259 8.26471 18.1724C7.97584 17.4226 7.54857 16.7394 7.12332 16.0595C6.55868 15.1568 5.99764 14.2599 5.76899 13.2198C5.91527 12.2955 6.34882 11.4738 6.78295 10.6509C7.19306 9.87359 7.60372 9.09522 7.77332 8.22838C7.80804 8.20566 7.84278 8.18293 7.87753 8.16019C9.93942 6.81075 12.0559 5.42559 14.4976 4.85333C15.295 6.88222 16.51 8.68259 17.7244 10.482C18.0657 10.9878 18.407 11.4936 18.7391 12.0043C19.0713 11.8006 19.4301 11.6059 19.7863 11.4127C19.8598 11.3727 19.9332 11.3329 20.0063 11.2931C19.9311 11.1183 19.854 10.9437 19.7767 10.7691C19.3629 9.83285 18.9473 8.89279 18.8166 7.87923C18.8913 7.14204 19.2045 6.47547 19.5152 5.81388C19.5807 5.67471 19.646 5.53577 19.7088 5.39644C20.1356 4.46539 20.7046 3.45676 21.7649 3.14641C23.3425 2.59036 24.9331 2.07313 26.5236 1.55587C27.0538 1.32311 27.8813 1.33604 28.0236 2.02139C28.9159 4.49126 30.0409 6.87059 31.2564 9.19822C31.4727 9.04067 31.6887 8.88278 31.9047 8.72494C33.0182 7.91113 34.13 7.09857 35.278 6.34043C36.0281 5.84904 36.9462 5.43523 37.8643 5.71973C38.3506 5.91221 38.5431 6.39042 38.7281 6.84968C38.7792 6.97662 38.8298 7.10213 38.8858 7.21974C39.0336 7.63928 39.1895 8.06003 39.346 8.48252C40.2025 10.7947 41.078 13.1581 40.7609 15.651C40.7402 15.7563 40.7225 15.8706 40.7042 15.9893C40.6076 16.613 40.4925 17.3563 39.8298 17.5518C38.6604 17.9232 37.5004 18.3091 36.3414 18.6947C35.6038 18.9401 34.8665 19.1854 34.1271 19.4268C34.3728 20.0603 34.6314 20.6939 34.8899 21.3273C37.0228 19.661 39.4039 18.3673 41.7788 17.0764C42.1684 16.8646 42.558 16.653 42.9462 16.4398C43.072 16.3899 43.2035 16.3291 43.3388 16.2667C43.9398 15.989 44.6132 15.6777 45.1833 16.1423ZM20.6076 6.355C20.3741 6.83777 20.1396 7.32227 19.9287 7.81458C20.2519 8.78443 20.601 9.74133 20.9761 10.6982C21.4287 10.4655 21.8684 10.2456 22.3209 10.0258C21.7391 8.6939 21.2605 7.32319 20.808 5.93955C20.7417 6.07798 20.6746 6.21643 20.6076 6.355ZM8.32937 10.2456C7.87677 11.2026 7.42418 12.1724 6.99746 13.1552H7.01039C7.26883 13.5638 7.53577 13.9677 7.80279 14.3718C8.52442 15.4636 9.24665 16.5566 9.80352 17.7458C9.9005 17.6747 10.0524 17.5679 10.2044 17.4613C10.3563 17.3547 10.5083 17.2479 10.6053 17.1768C10.7955 15.095 9.85446 13.2551 8.93245 11.4523C8.72618 11.049 8.52086 10.6475 8.32937 10.2456ZM14.1047 27.0277C14.0377 27.1704 13.9705 27.3135 13.9027 27.4571V27.47C14.4717 28.3752 14.7692 29.3839 14.8985 30.4572C15.3043 30.2195 15.7025 29.9971 16.1049 29.7724C16.2281 29.7036 16.3517 29.6347 16.4761 29.5648C16.3738 29.2818 16.2736 28.998 16.1737 28.7147C15.7802 27.6 15.3881 26.4888 14.8726 25.427C14.6068 25.9583 14.3572 26.4898 14.1047 27.0277ZM9.53622 37.9343C10.0514 39.0543 10.5674 40.1759 11.213 41.2289C11.2518 40.8668 11.3165 40.1167 11.3423 39.7547C10.7253 38.168 9.92439 36.6428 9.13059 35.1311L9.06644 35.0089C9.04921 35.0917 9.03014 35.1755 9.01088 35.2603C8.88566 35.811 8.75263 36.396 9.06644 36.9228C9.22532 37.2585 9.38074 37.5964 9.53622 37.9343ZM25.1062 46.2134C26.145 45.5247 27.1951 44.8284 28.2564 44.1772V44.1902C28.3049 43.8834 28.3431 43.5816 28.3809 43.2849C28.4036 43.1064 28.426 42.9296 28.4503 42.7547C28.0969 42.9573 27.7449 43.1614 27.3929 43.3654C26.6887 43.7734 25.9847 44.1814 25.2692 44.5781C25.2262 44.7763 25.1817 44.9731 25.137 45.1701C25.048 45.5637 24.9588 45.9574 24.8813 46.3625C24.9562 46.3129 25.0311 46.2632 25.1062 46.2134ZM38.6966 38.3478C39.487 38.0377 40.2783 37.7272 41.0841 37.453V37.4401C41.1876 36.9228 41.2681 36.4054 41.3485 35.8882C41.3888 35.6296 41.429 35.371 41.4721 35.1123C41.0231 35.3598 40.5859 35.669 40.1459 35.9803C38.9763 36.8073 37.7878 37.6479 36.3126 37.3753C36.2579 37.5257 36.2032 37.675 36.1488 37.8235C35.9458 38.3775 35.746 38.9222 35.5625 39.4831C36.626 39.1603 37.6605 38.7544 38.6966 38.3478ZM23.119 26.2261C23.1199 26.2274 23.1207 26.2288 23.1217 26.2302H23.1088C23.1121 26.2288 23.1156 26.2274 23.119 26.2261ZM23.119 26.2261C23.8278 25.9362 24.5364 25.6512 25.2484 25.3651C25.6761 25.1932 26.1049 25.0207 26.5356 24.8466C25.9277 24.0837 25.3975 23.2561 24.8932 22.4284C23.6906 22.4543 22.5268 22.8422 21.4148 23.2819C21.9441 24.2761 22.4993 25.2575 23.119 26.2261Z" fill="#1F1D1E"/>
<path d="M45.4623 23.0084C45.527 21.1981 45.2296 19.4135 44.6735 17.6936C41.389 19.4006 38.2467 21.4438 34.6259 22.4266C33.7725 20.5386 32.6992 18.767 32.1173 16.7626C34.5225 15.4824 36.876 14.073 39.4364 13.1161C38.8544 11.241 38.2985 9.35306 37.6261 7.5039C35.389 8.86169 33.2682 10.4134 31.0957 11.8746C29.2984 9.27548 28.2767 6.21078 27.2035 3.27539C25.6387 3.75385 24.0741 4.18058 22.5224 4.6849C22.975 6.41767 23.5439 8.15046 24.4233 9.72807C24.9535 10.4134 24.6431 11.4609 23.8931 11.8488C22.212 12.8057 20.505 13.7367 18.7077 14.5126C16.7033 12.4436 15.5525 9.741 14.1559 7.25821C12.811 7.85305 11.492 8.49961 10.2118 9.23668C11.0006 10.9695 11.6989 12.7798 12.1127 14.6548C12.4231 16.1808 13.1214 17.8102 12.3326 19.3101C9.19027 20.1248 6.46178 21.9222 3.57812 23.3318C4.17296 24.6378 4.75487 25.9438 5.51781 27.1594C8.56957 25.5818 11.6084 23.1248 15.2291 23.487C16.7938 24.961 17.4662 27.0688 18.1904 29.0344C18.5395 29.7456 18.2809 30.6896 17.5309 31.0387C15.2162 32.2672 12.7334 33.2371 10.6774 34.8922C11.3498 36.1336 12.061 37.3622 12.8239 38.5518C14.3369 37.4526 15.8757 36.3923 17.6214 35.6939C18.5784 35.3319 19.4965 34.6465 20.5827 34.7499C21.5913 35.5646 22.0826 36.819 22.8198 37.8664C23.8672 39.3406 24.281 41.1251 25.1992 42.6638C26.4147 41.9398 27.7337 41.3837 28.8586 40.5044C29.4147 39.7543 28.975 38.7587 28.6776 37.9828C27.7594 36.0173 26.9836 33.987 25.9491 32.0603C28.8845 30.6378 31.8716 28.9956 35.1949 28.7758C35.7769 31.0775 36.1648 33.5086 37.5872 35.5C39.1778 34.569 40.9235 33.8189 42.2684 32.5517C42.2941 32.4094 42.3459 32.099 42.3718 31.944C41.4537 29.681 40.0054 27.6637 38.8803 25.5041C41.0399 24.5601 43.3545 24.0817 45.4623 22.9955V23.0084ZM29.6604 25.4266C28.7034 26.2154 27.5008 26.6033 26.3888 27.1206C25.3414 27.5214 24.3197 28.1034 23.2077 28.3102C22.1603 27.4955 21.6172 26.2413 20.9836 25.1162C20.3887 23.8619 19.5999 22.6852 19.2508 21.3274C19.0181 20.3446 20.0912 19.8403 20.8025 19.4394C22.2508 18.7411 23.6861 17.9652 25.2378 17.4868C25.8328 17.2411 26.3629 17.6032 26.8802 17.8747C28.9104 17.9136 29.6086 20.06 30.0354 21.6894C30.1906 22.9179 30.3974 24.3403 29.6474 25.4136L29.6604 25.4266Z" fill="#FFE200"/>
</g>
<defs>
<clipPath id="clip0_30993_39255">
<rect width="46.5455" height="48" fill="white"/>
</clipPath>
</defs>
</svg>
