<svg  viewBox="0 0 89 88" fill="none" xmlns="http://www.w3.org/2000/svg">
<path d="M30.0645 2.63355C24.1689 5.11424 20.1109 7.85028 16.4165 11.7537C14.8469 13.4318 12.6457 17.1711 11.9757 19.3417C11.3823 21.2204 11.5546 27.3674 12.2628 30.2676C12.7988 32.4017 12.9902 32.803 13.9664 33.6603C15.0192 34.5906 15.0766 34.7 15.0575 36.1228C15.0575 36.9436 15.1149 38.95 15.2298 40.5552L15.402 43.4918L13.4879 44.1303C8.07084 45.9361 2.25181 53.7247 0.835336 61.0755C-0.0260329 65.5991 1.27559 72.5487 3.82142 76.8534C5.86956 80.3373 9.83186 83.8759 11.6312 83.8759C12.0714 83.8759 12.6265 84.0218 12.8945 84.2225C13.641 84.7332 18.2924 84.8791 22.293 84.4961C30.9641 83.657 34.199 80.9939 35.9601 73.1688C37.3574 66.9306 37.4148 61.2214 36.1132 56.2601C34.2565 49.1646 30.8684 45.4253 25.2599 44.2215C23.9009 43.9296 22.5418 43.7472 22.2356 43.8202C21.9293 43.8931 21.6039 43.9114 21.4891 43.8384C21.3742 43.7837 21.2785 42.3245 21.2594 40.6646C21.2594 38.9865 21.1062 37.0165 20.9531 36.3052C20.666 35.0831 20.7043 35.0101 21.757 34.5723C24.2837 33.5144 24.7814 32.6571 26.217 27.2215C28.0546 20.2902 29.4902 18.7033 35.9792 16.4415C41.4345 14.5445 47.1961 14.2709 53.8383 15.5659C57.5326 16.2955 59.9253 17.5724 61.0163 19.4511C61.6863 20.6185 62.4137 23.5369 63.275 28.8266C63.6004 30.7966 63.7153 31.052 64.7298 31.891L65.8209 32.803V38.7858V44.7687L63.9833 45.3524C62.184 45.9178 61.0738 46.7021 58.3939 49.2558C56.4415 51.1163 55.2356 53.0315 54.1637 55.8953C52.9577 59.1785 52.5558 61.1302 52.1921 65.4532C51.5221 73.6248 52.862 79.6259 56.1927 83.4016C58.0494 85.4993 60.2507 86.5572 63.4282 86.9038C67.601 87.3415 68.8069 87.2686 72.4055 86.4113C78.7414 84.8973 82.0912 82.5808 85.2112 77.5647C88.6184 72.0744 89.231 67.3319 87.3934 60.127C86.1492 55.2204 84.9433 53.0315 81.8615 50.0584C79.6985 47.9607 74.6834 45.024 72.731 44.6957L71.3145 44.4586L71.4485 40.9017C71.525 38.9135 71.5442 36.1957 71.5059 34.7912C71.4485 32.6024 71.5633 32.1464 72.2333 31.4532C74.1091 29.5562 74.5111 24.2666 73.2286 18.4297C71.7739 11.7537 69.4578 8.37925 64.347 5.4608C58.2217 1.95866 50.7182 0.335275 41.8174 0.62712C38.8313 0.718321 31.7489 1.94042 30.0645 2.65179V2.63355ZM14.3301 46.921C15.0001 47.2311 16.2443 48.1796 17.1056 49.0004C21.3168 53.068 23.0778 60.9296 21.623 69.2472C20.4171 76.1602 17.8139 80.4102 13.7559 82.0701C12.6839 82.5079 12.3777 82.4896 11.2101 81.9242C9.37246 81.0304 7.22861 78.6774 5.71643 75.9049C4.12768 72.9682 2.53893 67.3137 2.57722 64.5776C2.63464 58.7772 5.86956 52.0648 10.5975 47.9425C12.4925 46.2826 12.7797 46.2097 14.311 46.921H14.3493H14.3301ZM66.2228 49.0187C68.2518 49.3652 70.9316 50.9339 72.8458 52.9221C77.5355 57.7922 78.9902 67.8974 76.0999 75.7407C74.9705 78.8051 72.6927 82.289 70.9125 83.6205C69.1323 84.9885 65.572 85.8094 63.2942 85.4263C60.9972 85.025 58.7768 83.7847 57.4752 82.216C55.9247 80.319 54.4316 75.5036 54.1828 71.5272C53.6468 63.3191 55.9055 54.0347 59.1787 50.9886C61.38 48.9275 62.9688 48.4897 66.2228 49.0187Z" fill="black"/>
<path d="M8.08985 54.5081C8.12813 54.6723 8.74066 55.2925 9.42976 55.8762C11.631 57.7184 12.435 59.0317 13.1815 61.9684C14.3874 66.7109 13.6983 70.0124 10.9228 72.5843C10.1571 73.2957 9.35319 74.1894 9.12349 74.536C8.74066 75.1562 8.77895 75.1744 9.79345 74.9191C12.435 74.2806 15.0765 70.9244 15.5742 67.6229C15.8039 66.0178 15.7082 65.197 14.8851 62.0232C14.062 58.8493 13.7557 58.1197 12.8944 57.0983C11.3056 55.2195 7.78359 53.3043 8.10899 54.5081H8.08985Z" fill="black"/>
<path d="M86.3988 61.1845C85.2311 54.7639 80.4649 49.3648 73.44 46.4281C71.5258 45.6255 71.2578 45.6073 70.8176 46.0998C70.2433 46.7564 68.6163 47.1942 67.4487 46.9936C66.9701 46.9024 66.3959 46.6288 66.1853 46.3916C65.8408 46.0086 65.5919 46.0451 64.3477 46.5923L62.9121 47.2307L65.4579 47.5225C66.8553 47.6867 68.6929 48.1609 69.5542 48.5622C71.6789 49.5655 74.9521 52.4839 76.2729 54.5086C77.6511 56.6427 78.9719 61.4764 79.0676 64.6867C79.3164 73.0042 75.8901 81.7414 71.0664 85.0793L69.6691 86.0461L72.5594 85.1888C77.4214 83.7478 80.2352 81.9785 82.8193 78.8229C86.3988 74.3905 87.7195 68.0429 86.4371 61.1481L86.3988 61.1845ZM81.4603 60.5826C80.8094 58.1202 80.1969 56.6062 79.125 54.7457C78.3211 53.3412 77.7277 52.1191 77.8042 51.9914C78.0913 51.5354 78.5316 51.7725 79.4121 52.8305C81.288 55.1287 81.8431 56.4238 82.2068 59.5976C82.7427 64.0483 82.4939 64.3948 81.4603 60.5826Z" fill="#FFE200"/>
<path d="M62.7021 54.4374C60.3094 56.2615 58.625 60.9127 58.5293 65.9653C58.4718 68.9932 59.716 75.0307 60.8071 77.0919C61.8599 79.0436 63.3338 80.3751 64.6928 80.5575C68.4446 81.0865 72.0432 74.7206 72.1963 67.2421C72.2729 63.9406 70.6076 56.0426 69.7079 55.4224C69.3825 55.2035 68.8657 54.711 68.5403 54.3462C67.2195 52.8505 64.7311 52.9052 62.7021 54.4557V54.4374ZM67.4301 54.9299C68.7508 55.8419 69.4782 57.52 70.2247 61.3687C71.5455 68.2271 70.2822 75.432 67.2578 78.2593C65.1331 80.2475 63.5061 79.4996 61.8025 75.7786C59.6586 71.1091 59.4863 62.7185 61.4388 58.3591C62.951 55.0211 65.4585 53.5619 67.4301 54.9117V54.9299Z" fill="black"/>
<path d="M16.3016 45.262C16.4164 45.6633 19.0197 46.2105 19.881 46.0099C20.3021 45.9187 20.7424 45.6451 20.8955 45.4079C21.2401 44.8607 25.7192 45.6815 27.7482 46.6848C30.9257 48.2352 32.8973 51.2084 34.2755 56.5163C35.0411 59.4165 35.156 60.5292 35.1177 63.703C35.022 70.5978 33.5864 76.7813 31.5765 79.2072C29.069 82.1804 24.2262 83.5484 17.2969 83.2201L15.823 83.1471L17.3543 81.9798C22.58 78.0034 25.3555 66.7309 23.3839 57.3553C22.2929 52.1751 19.7853 48.2534 16.2633 46.247C14.7511 45.3715 14.7128 45.335 15.4785 45.1708C15.8996 45.0796 16.2824 45.1161 16.3207 45.262H16.3016Z" fill="#FFE200"/>
<path d="M18.4627 35.1203C19.4964 35.0656 19.6495 35.1386 19.6112 35.7405C19.5921 36.1236 19.6112 37.9111 19.6304 39.7351C19.7261 43.8027 19.6878 44.4776 19.4198 44.5141C19.3241 44.5323 18.7116 44.3864 18.0225 44.1858C17.0271 43.8939 16.7974 43.675 16.74 43.0001C16.7017 42.5441 16.5677 40.7748 16.4337 39.0602C16.1275 35.2115 16.1466 35.0656 16.74 35.1386C17.008 35.1751 17.7737 35.1751 18.4245 35.1203H18.4627Z" fill="white"/>
<path d="M69.0736 32.9115L70.0116 32.875V38.1647C69.9733 41.0649 70.0881 43.8557 70.2221 44.4029C70.3561 44.9318 70.3561 45.4608 70.2221 45.5703C69.8201 45.9715 67.0063 45.6432 67.0255 45.2054C67.0255 44.9683 67.0446 42.1958 67.0638 39.022C67.0829 32.875 67.0638 33.0209 69.0545 32.948L69.0736 32.9115Z" fill="white"/>
</svg>
