<svg  viewBox="0 0 42 40" fill="none" xmlns="http://www.w3.org/2000/svg">
<g clip-path="url(#clip0_28913_14160)">
<path d="M14.2667 1.04434C11.5149 2.18495 9.62078 3.44298 7.89642 5.23776C7.16378 6.00935 6.13631 7.72865 5.82361 8.72669C5.54663 9.59053 5.62705 12.4169 5.95762 13.7504C6.20779 14.7317 6.29713 14.9162 6.7528 15.3103C7.2442 15.7381 7.27101 15.7884 7.26206 16.4426C7.26206 16.82 7.28887 17.7426 7.34248 18.4806L7.42289 19.8309L6.52944 20.1244C4.00096 20.9547 1.28486 24.5359 0.623703 27.9158C0.221649 29.9958 0.829198 33.1911 2.01749 35.1704C2.97349 36.7723 4.82294 38.3993 5.66279 38.3993C5.86827 38.3993 6.12738 38.4664 6.25247 38.5587C6.60091 38.7936 8.772 38.8607 10.6393 38.6844C14.6867 38.2987 16.1966 37.0742 17.0186 33.4762C17.6708 30.608 17.6976 27.9829 17.09 25.7017C16.2234 22.4392 14.642 20.7199 12.0242 20.1663C11.3898 20.0321 10.7555 19.9483 10.6125 19.9819C10.4696 20.0153 10.3177 20.0238 10.2641 19.9902C10.2105 19.9651 10.1658 19.2941 10.1569 18.5309C10.1569 17.7593 10.0854 16.8536 10.0139 16.5264C9.87989 15.9646 9.89775 15.931 10.3892 15.7297C11.5685 15.2432 11.8008 14.8491 12.4709 12.3498C13.3286 9.16281 13.9988 8.43315 17.0275 7.39319C19.5739 6.52095 22.2631 6.39515 25.3634 6.99061C27.0878 7.32609 28.2046 7.91316 28.7139 8.77701C29.0266 9.31376 29.3661 10.6557 29.7681 13.0879C29.92 13.9937 29.9737 14.111 30.4472 14.4969L30.9565 14.9162V17.6671V20.418L30.0988 20.6863C29.2589 20.9463 28.7407 21.307 27.4899 22.4811C26.5785 23.3366 26.0156 24.2172 25.5153 25.5339C24.9525 27.0436 24.7648 27.941 24.595 29.9287C24.2823 33.6859 24.9077 36.4452 26.4624 38.1813C27.3291 39.1458 28.3565 39.6322 29.8396 39.7916C31.7874 39.9929 32.3502 39.9593 34.0299 39.5651C36.9872 38.869 38.5509 37.8039 40.0072 35.4974C41.5975 32.9731 41.8834 30.7924 41.0257 27.4797C40.445 25.2237 39.882 24.2172 38.4436 22.8501C37.434 21.8857 35.0931 20.5353 34.1818 20.3844L33.5207 20.2753L33.5832 18.6399C33.6189 17.7258 33.6279 16.4761 33.61 15.8303C33.5832 14.8239 33.6369 14.6142 33.9496 14.2956C34.8251 13.4233 35.0128 10.9911 34.4141 8.30735C33.7352 5.23776 32.6541 3.6862 30.2685 2.3443C27.4094 0.734029 23.9071 -0.0124007 19.7526 0.121789C18.3587 0.163723 15.053 0.725642 14.2667 1.05273V1.04434ZM6.92255 21.4076C7.23526 21.5502 7.81601 21.9863 8.21806 22.3637C10.1837 24.234 11.0056 27.8487 10.3266 31.6731C9.76374 34.8517 8.54864 36.8059 6.65452 37.569C6.15419 37.7703 6.01123 37.7619 5.46622 37.502C4.60851 37.091 3.60784 36.0091 2.90201 34.7343C2.16044 33.384 1.41888 30.7841 1.43675 29.5261C1.46355 26.859 2.97349 23.7727 5.18032 21.8772C6.06484 21.1141 6.19886 21.0806 6.91362 21.4076H6.93149H6.92255ZM31.1441 22.3721C32.0912 22.5314 33.342 23.2527 34.2355 24.1669C36.4244 26.4061 37.1035 31.0524 35.7543 34.6588C35.2272 36.0678 34.164 37.6697 33.333 38.2819C32.5022 38.9109 30.8403 39.2883 29.7771 39.1122C28.705 38.9277 27.6686 38.3574 27.061 37.6361C26.3373 36.7639 25.6404 34.5498 25.5243 32.7214C25.2741 28.9473 26.3283 24.6784 27.8562 23.2779C28.8836 22.3301 29.6252 22.1289 31.1441 22.3721Z" fill="black"/>
<path d="M4.00897 24.8972C4.02685 24.9726 4.31275 25.2577 4.63439 25.5262C5.66186 26.3732 6.03711 26.9771 6.38557 28.3274C6.94844 30.508 6.62679 32.026 5.33129 33.2085C4.9739 33.5356 4.59865 33.9465 4.49144 34.106C4.31275 34.3911 4.33061 34.3994 4.80415 34.2821C6.03711 33.9885 7.27008 32.4453 7.50238 30.9273C7.60959 30.1893 7.56493 29.8119 7.18073 28.3525C6.79655 26.8932 6.6536 26.5577 6.25154 26.0881C5.50997 25.2243 3.86602 24.3436 4.01791 24.8972H4.00897Z" fill="black"/>
<path d="M40.5592 27.9667C40.0141 25.0146 37.7895 22.532 34.5105 21.1818C33.617 20.8127 33.4919 20.8043 33.2864 21.0308C33.0184 21.3327 32.2589 21.534 31.7139 21.4417C31.4905 21.3998 31.2226 21.274 31.1243 21.165C30.9634 20.9888 30.8473 21.0056 30.2665 21.2572L29.5964 21.5508L30.7848 21.6849C31.437 21.7604 32.2947 21.9784 32.6967 22.163C33.6885 22.6242 35.2163 23.9661 35.8328 24.8971C36.476 25.8783 37.0926 28.1009 37.1372 29.577C37.2534 33.4013 35.654 37.4187 33.4026 38.9534L32.7503 39.398L34.0995 39.0038C36.3689 38.3412 37.6822 37.5277 38.8884 36.0768C40.5592 34.0388 41.1756 31.1201 40.577 27.9499L40.5592 27.9667ZM38.254 27.6899C37.9502 26.5577 37.6644 25.8616 37.164 25.0061C36.7887 24.3603 36.5118 23.7984 36.5475 23.7397C36.6816 23.53 36.887 23.6391 37.298 24.1256C38.1736 25.1822 38.4327 25.7777 38.6025 27.237C38.8527 29.2834 38.7364 29.4428 38.254 27.6899Z" fill="#11A64B"/>
<path d="M29.4994 24.8627C28.3826 25.7013 27.5963 27.84 27.5517 30.1632C27.5249 31.5553 28.1056 34.3314 28.6149 35.2791C29.1064 36.1766 29.7943 36.7888 30.4287 36.8727C32.1798 37.1159 33.8595 34.1889 33.9309 30.7502C33.9667 29.2322 33.1894 25.6008 32.7694 25.3156C32.6176 25.2149 32.3764 24.9884 32.2245 24.8208C31.608 24.133 30.4465 24.1582 29.4994 24.8711V24.8627ZM31.7063 25.0891C32.3227 25.5084 32.6623 26.2801 33.0107 28.0497C33.6272 31.2031 33.0375 34.5159 31.6259 35.8159C30.6341 36.7301 29.8747 36.3862 29.0795 34.6753C28.0788 32.5282 27.9985 28.6703 28.9098 26.6659C29.6155 25.1311 30.786 24.4601 31.7063 25.0808V25.0891Z" fill="black"/>
<path d="M7.84175 20.6449C7.89536 20.8294 9.11046 21.081 9.51251 20.9888C9.70907 20.9468 9.91457 20.821 9.98604 20.712C10.1469 20.4603 12.2376 20.8378 13.1845 21.2991C14.6678 22.012 15.588 23.379 16.2313 25.8195C16.5887 27.1531 16.6423 27.6647 16.6244 29.124C16.5797 32.2942 15.9096 35.1373 14.9715 36.2528C13.8011 37.6199 11.5406 38.2489 8.30635 38.0979L7.61839 38.0643L8.33315 37.5275C10.7723 35.6992 12.0678 30.5162 11.1475 26.2053C10.6383 23.8235 9.46783 22.0203 7.82388 21.0978C7.11805 20.6952 7.10018 20.6784 7.45756 20.603C7.65413 20.561 7.83281 20.5778 7.85068 20.6449H7.84175Z" fill="#11A64B"/>
<path d="M8.85129 15.9814C9.33374 15.9563 9.40523 15.9899 9.38736 16.2665C9.37842 16.4428 9.38736 17.2646 9.39629 18.1033C9.44097 19.9735 9.42309 20.2839 9.29801 20.3006C9.25334 20.3091 8.96744 20.242 8.64579 20.1496C8.18119 20.0155 8.07398 19.9149 8.04718 19.6045C8.0293 19.3949 7.96676 18.5813 7.90422 17.793C7.76127 16.0233 7.7702 15.9563 8.04718 15.9899C8.17226 16.0065 8.52964 16.0065 8.83341 15.9814H8.85129Z" fill="white"/>
<path d="M32.4747 14.967L32.9124 14.9502V17.3823C32.8945 18.7159 32.9482 19.9991 33.0107 20.2506C33.0733 20.4939 33.0733 20.7371 33.0107 20.7874C32.8231 20.972 31.5097 20.821 31.5186 20.6196C31.5186 20.5106 31.5276 19.2359 31.5365 17.7765C31.5454 14.9502 31.5366 15.0173 32.4657 14.9838L32.4747 14.967Z" fill="white"/>
</g>
<defs>
<clipPath id="clip0_28913_14160">
<rect width="41" height="40" fill="white" transform="translate(0.5)"/>
</clipPath>
</defs>
</svg>
