<svg  viewBox="0 0 32 40" fill="none" xmlns="http://www.w3.org/2000/svg">
<g clip-path="url(#clip0_28913_14146)">
<path d="M29.4281 1.75841C29.3793 1.19883 29.2469 0.541317 28.6823 0.289502C27.6577 -0.16516 26.5146 0.0516789 25.4413 0.0516789C24.4167 0.044684 23.3922 0.0726634 22.3676 0.149607C20.7227 0.282508 19.0918 0.534321 17.4539 0.597274C15.6417 0.674218 13.8365 0.800124 12.0383 0.988984C9.79402 1.21981 7.52883 1.19883 5.30545 1.57654C3.71633 1.84236 2.00175 1.99623 0.642631 2.90557C0.370807 3.70997 0.565963 4.57732 0.593842 5.40271C0.719299 7.68302 1.34658 9.89339 1.44416 12.1737C1.65326 14.6779 2.00175 17.168 2.25266 19.6721C2.62904 23.4073 3.53511 27.0797 3.793 30.8289C4.00209 33.1581 4.07876 35.4874 4.31573 37.8097C4.41331 38.5302 4.58059 39.4464 5.33333 39.7542C6.24638 40.0271 7.20125 39.7682 8.1143 39.6773C10.1913 39.3696 12.2892 39.8452 14.3801 39.6283C17.1751 39.3906 19.9839 39.3906 22.7928 39.3066C25.051 39.1737 27.3092 39.1178 29.5675 38.9639C30.4247 38.9429 31.4702 38.4392 31.4772 37.439C31.5678 32.6056 31.3866 27.7651 30.9683 22.9527C30.1808 15.9159 29.8532 8.82318 29.4351 1.75841H29.4281ZM29.2259 38.1874C26.8004 38.3203 24.3888 38.4532 21.9634 38.5651C20.1164 38.6211 18.2763 38.6281 16.4293 38.733C15.8577 38.754 15.2932 38.796 14.7147 38.8449C12.2405 39.0688 9.77312 38.5581 7.29882 38.8799C6.69941 38.8589 5.7097 39.1248 5.49363 38.3553C5.15909 36.9143 5.16605 35.4104 5.00575 33.9416C4.85939 32.1159 4.68513 30.2832 4.4412 28.4647C4.28786 27.3804 4.1136 26.2892 3.89057 25.212C3.08904 21.3369 2.64297 17.3918 2.09236 13.4818C2.2457 10.2012 1.22113 7.01852 1.29083 3.74494C3.06116 3.1224 4.9012 2.82162 6.7482 2.62577C8.85309 2.40193 10.9789 2.325 13.0768 2.06619C15.6138 1.7724 18.1718 1.76541 20.7088 1.40868C22.8764 1.1079 25.065 1.1009 27.2534 1.05893C27.6438 1.07992 28.062 1.09391 28.4034 1.31074C28.6474 1.9123 28.5777 2.59779 28.6335 3.23432C28.9192 8.53639 29.2887 13.8454 29.7208 19.1336C30.4247 25.205 30.7733 31.3186 30.7523 37.432C30.6409 38.1104 29.7417 38.1104 29.212 38.1874H29.219H29.2259Z" fill="#1F1D1E"/>
<path d="M26.7795 9.63501C26.7656 7.87232 26.6332 6.10962 26.424 4.35392C26.3753 3.87827 26.1941 3.22076 25.6086 3.19978C24.0473 3.15781 22.4722 3.03191 20.9109 3.16481C18.6806 3.37465 16.4363 3.25574 14.2129 3.39563C12.4565 3.52853 10.6862 3.38164 8.93676 3.60547C8.26069 3.70341 7.57067 3.69641 6.8946 3.75238C6.49035 3.78734 6.0861 3.8433 5.68882 3.96222C4.88728 4.18605 4.08575 4.40289 3.33301 4.76662C3.40968 5.66895 3.73029 6.53631 3.73726 7.44563C3.86968 12.0972 4.44121 16.7138 4.63637 21.3583C4.72698 23.7296 5.07547 26.0868 5.35426 28.4441C5.47972 29.1786 5.47972 29.9829 5.89791 30.6264C6.30913 31.1581 7.06884 30.8573 7.60552 30.7453C8.69282 30.3677 9.82193 30.1998 10.958 30.0529C11.6271 29.962 12.3032 29.885 12.9722 29.7731C15.2375 29.3813 17.5515 29.5422 19.8307 29.3114C22.1585 29.0736 24.5352 29.4093 26.8423 28.9128C27.6159 28.7519 27.7692 27.8774 27.7901 27.213C27.9017 24.3381 27.7762 21.4772 27.4904 18.6233C27.1907 15.6296 26.9957 12.6428 26.8144 9.63501H26.8005H26.7795Z" fill="#1F1D1E"/>
<path d="M26.9671 25.8909C27.0369 21.4142 26.4096 16.9724 26.1656 12.5168C25.9356 9.72586 25.9914 6.90695 25.5453 4.14399C24.8274 4.13 24.1165 4.14399 23.4056 4.09503C21.7119 3.98312 20.0321 4.33985 18.3315 4.31886C16.7981 4.31886 15.2578 4.40979 13.7105 4.47975C12.6581 4.5357 11.6056 4.57767 10.5462 4.57767C9.50771 4.58467 8.49011 4.78752 7.4516 4.8085C6.25976 4.79452 5.12368 5.19322 3.95972 5.41705C4.20366 6.99788 4.25245 8.59969 4.39185 10.2015C4.60094 12.8106 4.85185 15.4267 5.05398 18.0427C5.2352 20.316 5.27702 22.5893 5.61854 24.8487C5.89036 26.6183 5.99491 28.43 6.50371 30.1577C7.65373 29.9339 8.77588 29.5561 9.9468 29.4372C9.9468 29.4372 13.5084 29.0596 15.4878 28.8917C17.4673 28.7238 23.1407 28.416 23.9074 28.444C24.8622 28.3181 25.8728 28.388 26.7859 28.0313L26.765 28.0103C26.995 27.3318 26.8905 26.5973 26.9671 25.8979V25.8909Z" fill="#11A64B"/>
<path d="M12.5324 17.5549C13.826 17.4306 14.7727 16.2618 14.6471 14.9441C14.5214 13.6264 13.371 12.659 12.0774 12.7832C10.7839 12.9074 9.8372 14.0763 9.96285 15.394C10.0885 16.7116 11.239 17.6791 12.5324 17.5549Z" fill="black"/>
<path d="M17.901 15.9089C17.901 15.9089 17.8972 15.9129 17.8956 15.9148L12.8312 21.5056L10.2207 19.5413C9.77752 19.2064 9.11325 19.2672 8.73765 19.6783C8.73607 19.6802 8.7339 19.6821 8.7323 19.6841L7.49805 21.0547L8.08138 27.172L24.8578 25.5608L24.2746 19.4435L19.3852 15.7718C18.942 15.4369 18.2777 15.4977 17.9022 15.9088L17.901 15.9089Z" fill="black"/>
<path d="M29.4281 1.76427C29.3793 1.20469 29.2469 0.547176 28.6823 0.295362C27.6577 -0.159301 26.5146 0.0575384 25.4413 0.0575384C24.4167 0.0505435 23.3922 0.0785229 22.3676 0.155466C20.7227 0.288368 19.0918 0.540181 17.4539 0.603135C15.6417 0.680077 13.8365 0.805983 12.0383 0.994843C9.79402 1.22567 7.52883 1.20469 5.30545 1.5824C3.71633 1.84822 2.00175 2.00209 0.642631 2.91143C0.370807 3.71583 0.565963 4.58318 0.593842 5.40857C0.719299 7.68888 1.34658 9.89925 1.44416 12.1796C1.65326 14.6837 2.00175 17.1739 2.25266 19.678C2.62904 23.4132 3.53511 27.0855 3.793 30.8347C4.00209 33.164 4.07876 35.4932 4.31573 37.8156C4.41331 38.536 4.58059 39.4524 5.33333 39.7601C6.24638 40.0329 7.20125 39.7741 8.1143 39.6831C10.1913 39.3754 12.2892 39.851 14.3801 39.6342C17.1751 39.3963 19.9839 39.3964 22.7928 39.3125C25.051 39.1796 27.3092 39.1236 29.5675 38.9697C30.4247 38.9487 31.4702 38.4451 31.4772 37.4448C31.5678 32.6115 31.3866 27.771 30.9683 22.9586C30.1808 15.9218 29.8532 8.82904 29.4351 1.76427H29.4281ZM29.2259 38.1932C26.8004 38.3261 24.3888 38.4591 21.9634 38.571C20.1164 38.6269 18.2763 38.6339 16.4293 38.7389C15.8577 38.7599 15.2932 38.8018 14.7147 38.8508C12.2405 39.0747 9.77312 38.564 7.29882 38.8858C6.69941 38.8648 5.7097 39.1306 5.49363 38.3611C5.15909 36.9202 5.16605 35.4164 5.00575 33.9475C4.85939 32.1218 4.68513 30.2891 4.4412 28.4705C4.28786 27.3862 4.1136 26.2951 3.89057 25.2179C3.08904 21.3428 2.64297 17.3977 2.09236 13.4876C2.2457 10.207 1.22113 7.02437 1.29083 3.7508C3.06116 3.12826 4.9012 2.82748 6.7482 2.63163C8.85309 2.40779 10.9789 2.33085 13.0768 2.07205C15.6138 1.77826 18.1718 1.77127 20.7088 1.41454C22.8764 1.11376 25.065 1.10676 27.2534 1.06479C27.6438 1.08578 28.062 1.09977 28.4034 1.3166C28.6474 1.91816 28.5777 2.60365 28.6335 3.24018C28.9192 8.54225 29.2887 13.8513 29.7208 19.1393C30.4247 25.2109 30.7733 31.3244 30.7523 37.4378C30.6409 38.1163 29.7417 38.1164 29.212 38.1932H29.219H29.2259Z" fill="#1F1D1E"/>
</g>
<defs>
<clipPath id="clip0_28913_14146">
<rect width="31" height="40" fill="white" transform="translate(0.5)"/>
</clipPath>
</defs>
</svg>
