<svg viewBox="0 0 10 10" fill="none" xmlns="http://www.w3.org/2000/svg">
<path d="M9.99995 5.00685C9.99823 7.77607 7.75333 10.0132 4.96915 9.99994C2.22053 9.98751 -0.0372283 7.72463 0.000465226 4.92625C0.0368737 2.23506 2.24151 -0.0115314 5.02055 4.45365e-05C7.82915 0.0120492 10.0124 2.3058 9.99995 5.00685ZM5.00213 0.724613C2.58204 0.722898 0.769755 2.68438 0.72478 4.90524C0.675521 7.33447 2.63772 9.28095 5.00513 9.27623C7.35583 9.27151 9.25936 7.3752 9.27649 5.03129C9.29319 2.70195 7.42051 0.727185 5.00213 0.724613Z" fill="black"/>
<path d="M3.8672 7.25337C3.86634 7.05915 3.92588 6.87736 3.97342 6.69343C4.1499 6.01217 4.32809 5.3309 4.50499 4.64964C4.53454 4.53516 4.45616 4.42969 4.33794 4.43269C4.25313 4.43484 4.16789 4.44856 4.08351 4.45928C3.97942 4.47257 3.90575 4.42884 3.8929 4.34352C3.87962 4.25391 3.94001 4.1806 4.04453 4.16731C4.19444 4.14758 4.34479 4.13129 4.49514 4.11414C4.82238 4.07598 5.1492 4.03826 5.47645 4.00053C5.51886 3.99581 5.56126 3.99109 5.6041 3.98852C5.71204 3.98295 5.78699 4.07513 5.75958 4.18317C5.68591 4.47085 5.61052 4.75768 5.53556 5.04536C5.37536 5.65932 5.21474 6.2737 5.05626 6.88808C5.03698 6.96268 5.0267 7.04114 5.07553 7.10931C5.14578 7.20663 5.24943 7.20663 5.35138 7.1852C5.51886 7.15004 5.64779 7.05229 5.7523 6.91938C5.76986 6.89708 5.78742 6.87393 5.80713 6.85421C5.85767 6.80362 5.92663 6.7959 5.98232 6.83234C6.03757 6.86836 6.06541 6.94339 6.03928 7.0047C5.95405 7.20706 5.83068 7.38456 5.68291 7.54576C5.49487 7.7507 5.26742 7.89905 5.00571 7.98779C4.75 8.0744 4.49171 8.08212 4.24456 7.94921C4.03639 7.83688 3.92588 7.65595 3.8839 7.42915C3.87319 7.3717 3.87234 7.31253 3.8672 7.25422V7.25337Z" fill="black"/>
<path d="M5.42053 1.95356C5.8116 1.95441 6.13114 2.27039 6.13114 2.65626C6.13114 3.06699 5.81845 3.37782 5.40554 3.37568C5.09628 3.37439 4.70607 3.12101 4.7095 2.65111C4.71207 2.26868 5.03417 1.95227 5.42053 1.95313V1.95356Z" fill="black"/>
</svg>
