<svg viewBox="0 0 18 17" fill="none" xmlns="http://www.w3.org/2000/svg">
<path d="M9 4.62598C8.25832 4.62598 7.5333 4.84591 6.91661 5.25797C6.29993 5.67002 5.81928 6.25569 5.53545 6.94091C5.25162 7.62614 5.17736 8.38014 5.32206 9.10756C5.46675 9.83499 5.8239 10.5032 6.34835 11.0276C6.8728 11.5521 7.54098 11.9092 8.26841 12.0539C8.99584 12.1986 9.74984 12.1244 10.4351 11.8405C11.1203 11.5567 11.706 11.076 12.118 10.4594C12.5301 9.84268 12.75 9.11766 12.75 8.37598C12.749 7.38173 12.3535 6.42851 11.6505 5.72547C10.9475 5.02243 9.99424 4.62701 9 4.62598ZM9 10.876C8.50555 10.876 8.0222 10.7294 7.61107 10.4547C7.19995 10.1799 6.87952 9.7895 6.6903 9.33268C6.50108 8.87587 6.45157 8.3732 6.54804 7.88825C6.6445 7.4033 6.8826 6.95784 7.23223 6.60821C7.58186 6.25858 8.02732 6.02048 8.51227 5.92401C8.99723 5.82755 9.49989 5.87706 9.95671 6.06628C10.4135 6.2555 10.804 6.57593 11.0787 6.98705C11.3534 7.39817 11.5 7.88152 11.5 8.37598C11.5 9.03902 11.2366 9.6749 10.7678 10.1437C10.2989 10.6126 9.66304 10.876 9 10.876ZM12.75 0.250977H5.25C4.09006 0.252217 2.97798 0.713552 2.15778 1.53375C1.33758 2.35396 0.876241 3.46604 0.875 4.62598V12.126C0.876241 13.2859 1.33758 14.398 2.15778 15.2182C2.97798 16.0384 4.09006 16.4997 5.25 16.501H12.75C13.9099 16.4997 15.022 16.0384 15.8422 15.2182C16.6624 14.398 17.1238 13.2859 17.125 12.126V4.62598C17.1238 3.46604 16.6624 2.35396 15.8422 1.53375C15.022 0.713552 13.9099 0.252217 12.75 0.250977ZM15.875 12.126C15.875 12.9548 15.5458 13.7496 14.9597 14.3357C14.3737 14.9217 13.5788 15.251 12.75 15.251H5.25C4.4212 15.251 3.62634 14.9217 3.04029 14.3357C2.45424 13.7496 2.125 12.9548 2.125 12.126V4.62598C2.125 3.79717 2.45424 3.00232 3.04029 2.41627C3.62634 1.83022 4.4212 1.50098 5.25 1.50098H12.75C13.5788 1.50098 14.3737 1.83022 14.9597 2.41627C15.5458 3.00232 15.875 3.79717 15.875 4.62598V12.126ZM14 4.31348C14 4.4989 13.945 4.68015 13.842 4.83432C13.739 4.98849 13.5926 5.10866 13.4213 5.17961C13.25 5.25057 13.0615 5.26914 12.8796 5.23296C12.6977 5.19679 12.5307 5.1075 12.3996 4.97639C12.2685 4.84528 12.1792 4.67823 12.143 4.49637C12.1068 4.31452 12.1254 4.12602 12.1964 3.95471C12.2673 3.78341 12.3875 3.63699 12.5417 3.53397C12.6958 3.43096 12.8771 3.37598 13.0625 3.37598C13.3111 3.37598 13.5496 3.47475 13.7254 3.65056C13.9012 3.82638 14 4.06484 14 4.31348Z" fill="black"/>
</svg>
