<svg viewBox="0 0 36 36" fill="none" xmlns="http://www.w3.org/2000/svg">
<path d="M18.3718 21.0277C17.982 20.8681 17.5334 20.9564 17.2352 21.2513L15.1492 23.3138C14.7419 23.7166 14.7419 24.3695 15.1492 24.7723C15.5565 25.1751 16.2169 25.175 16.6242 24.7722L16.9297 24.4702V28.168C16.9297 28.7376 17.3967 29.1993 17.9727 29.1993C18.5488 29.1993 19.0157 28.7375 19.0157 28.168V21.9806C19.0157 21.5634 18.7615 21.1873 18.3718 21.0277Z" fill="white"/>
<path d="M34.7289 25.0752H25.2727V17.8564C25.2727 17.2869 24.8057 16.8252 24.2297 16.8252H11.7141C11.1381 16.8252 10.6711 17.2869 10.6711 17.8564V23.0127H1.21488C0.638854 23.0127 0.171875 23.4744 0.171875 24.0439V34.4251C0.171875 34.9947 0.638854 35.4564 1.21488 35.4564H34.7289C35.3049 35.4564 35.7719 34.9947 35.7719 34.4251V26.1064C35.7719 25.5369 35.3049 25.0752 34.7289 25.0752ZM10.6711 33.3939H2.25781V25.0752H10.6711V33.3939ZM23.1867 33.3939H12.757V18.8876H23.1867V33.3939H23.1867ZM33.6859 33.3939H25.2727V27.1377H33.6859V33.3939Z" fill="white"/>
<path d="M24.659 5.31088L20.7142 4.6925L18.9802 0.859612C18.6176 0.0579921 17.4683 0.0460277 17.0868 0.836714L15.26 4.62292L11.3012 5.14014C10.4463 5.25181 10.0899 6.28797 10.7003 6.89163L13.5359 9.6962L12.8068 13.5959C12.65 14.4345 13.5365 15.0895 14.3058 14.7022L17.8796 12.9023L21.4053 14.7929C22.164 15.1999 23.0674 14.5672 22.9327 13.7253L22.3058 9.80828L25.2138 7.07708C25.8393 6.48972 25.5115 5.44455 24.659 5.31088ZM20.4718 8.6863C20.2229 8.92002 20.1062 9.25998 20.1599 9.59519L20.5422 11.9838L18.3922 10.8309C18.0907 10.6692 17.7277 10.6643 17.4216 10.8185L15.2422 11.916L15.6868 9.53805C15.7492 9.20435 15.6415 8.86157 15.3988 8.62146L13.6697 6.91116L16.0944 6.59437C16.4443 6.54865 16.7471 6.33109 16.8991 6.01602L17.9977 3.73892L19.0409 6.04456C19.1848 6.36265 19.4815 6.58743 19.8296 6.64203L22.2452 7.02069L20.4718 8.6863Z" fill="white"/>
</svg>
