<svg  viewBox="0 0 32 43" fill="none" xmlns="http://www.w3.org/2000/svg">
<path d="M30.6231 16.6357H28.0429V13.1261C28.0429 6.35294 22.6414 0.842651 16.0017 0.842651C9.36212 0.842651 3.96062 6.35294 3.96062 13.1261V16.6357H1.38037C0.904962 16.6357 0.520264 17.0281 0.520264 17.5131V39.4479C0.520264 41.3835 2.06317 42.9574 3.96062 42.9574H28.043C29.9403 42.9574 31.4832 41.3835 31.4832 39.4478V17.5131C31.4832 17.0281 31.0985 16.6357 30.6231 16.6357ZM18.577 34.9641C18.6038 35.2117 18.5258 35.4602 18.3628 35.6461C18.1999 35.832 17.9664 35.9383 17.722 35.9383H14.2816C14.0372 35.9383 13.8037 35.832 13.6407 35.6461C13.4778 35.4602 13.3996 35.2117 13.4266 34.9641L13.9692 29.9868C13.0881 29.333 12.5615 28.2988 12.5615 27.1644C12.5615 25.2288 14.1044 23.6548 16.0018 23.6548C17.8993 23.6548 19.4422 25.2287 19.4422 27.1644C19.4422 28.2988 18.9156 29.333 18.0345 29.9868L18.577 34.9641ZM22.8824 16.6357H9.12111V13.1261C9.12111 9.25581 12.2078 6.107 16.0017 6.107C19.7957 6.107 22.8824 9.25581 22.8824 13.1261V16.6357Z" fill="black"/>
</svg>
