<svg  viewBox="0 0 18 15"  xmlns="http://www.w3.org/2000/svg">
<path d="M17.25 6.7501H2.28787L8.01713 1.29317C8.31713 1.00742 8.32875 0.532676 8.043 0.23268C7.75763 -0.0669413 7.28288 -0.0789412 6.9825 0.206805L0.4395 6.43923C0.156375 6.72273 0 7.09922 0 7.50009C0 7.90059 0.156375 8.27746 0.452625 8.57333L6.98287 14.793C7.128 14.9314 7.314 15 7.5 15C7.698 15 7.896 14.922 8.04338 14.7671C8.32912 14.4671 8.3175 13.9928 8.0175 13.707L2.26425 8.25008H17.25C17.664 8.25008 18 7.91409 18 7.50009C18 7.0861 17.664 6.7501 17.25 6.7501Z" />
</svg>
