<svg  viewBox="0 0 15 14" fill="none" xmlns="http://www.w3.org/2000/svg">
<path d="M7.53464 7.77174C7.70335 7.88448 7.89932 7.94407 8.10138 7.94407C8.30341 7.94407 8.49939 7.88448 8.6681 7.77174L11.4469 5.91491C11.4623 5.90461 11.4774 5.89387 11.4921 5.88283V8.92545C11.4921 9.27429 11.2096 9.55114 10.8678 9.55114H5.33496C4.98692 9.55114 4.71069 9.26805 4.71069 8.92545V5.88281C4.72543 5.89388 4.74048 5.90465 4.75594 5.91497L7.53464 7.77174Z" fill="#313131"/>
<path d="M11.2265 5.57579L8.4477 7.4386C8.34251 7.50912 8.22195 7.54437 8.1014 7.54437C7.98083 7.54437 7.86026 7.50911 7.75507 7.4386L4.97625 5.57579C4.80996 5.46439 4.71069 5.27794 4.71069 5.07671C4.71069 4.7307 4.99065 4.44922 5.33475 4.44922H10.868C11.2121 4.44923 11.4921 4.73072 11.4921 5.07704C11.4921 5.27794 11.3928 5.46439 11.2265 5.57579Z" fill="#313131"/>
<path d="M7.87395 0.400391C11.4943 0.400616 14.4335 3.35287 14.4335 7C14.4335 10.6471 11.4943 13.5994 7.87395 13.5996C4.25339 13.5996 1.31438 10.6473 1.31438 7C1.31438 3.35273 4.25339 0.400391 7.87395 0.400391Z" stroke="#313131" stroke-width="0.8"/>
</svg>
