<svg  fill="none" xmlns="http://www.w3.org/2000/svg">
<path d="M20.1885 22.0019L13.6074 21.8851C13.6074 21.8851 13.3795 21.9362 13.1152 23.3924C12.8946 24.6077 12.962 27.3229 12.9912 28.1878H16.1468C16.114 27.6805 16.0794 26.5966 16.3273 26.1204C16.6992 25.4087 16.8341 27.0948 17.2498 28.1878H21.0435C20.9724 27.0601 20.6752 22.7555 20.1885 22.0001V22.0019Z" fill="#00953B"/>
<path d="M11.7305 12.3958C11.88 12.664 13.3584 14.0891 13.3694 14.1931C13.3876 14.3428 13.0503 21.8954 12.848 22.9282C12.7641 24.3442 20.1364 26.4919 21.7461 23.9719C21.3797 21.8899 21.0862 17.3335 21.7461 16.381C22.7141 15.7569 22.8746 14.9394 22.8746 14.9394C23.0277 14.5088 22.6813 13.1311 22.1691 12.2443C21.2138 10.8137 19.9705 10.5619 18.4519 10.2298C17.2232 9.96154 15.9507 9.63126 14.5379 10.0035C13.3949 10.3046 11.5846 12.1312 11.7305 12.3939V12.3958Z" fill="#E0E0E0"/>
<path d="M18.6961 25.2192C17.4947 25.2192 16.2059 24.9656 15.2287 24.6481C14.0073 24.2521 12.7166 23.5897 12.7567 22.9219C12.9463 21.9529 13.289 14.6722 13.2799 14.2142C13.2234 14.1302 12.8825 13.7781 12.6072 13.4934C12.0968 12.9661 11.7285 12.581 11.6501 12.4405C11.621 12.3858 11.6246 12.3165 11.6629 12.227C11.8908 11.6906 13.4877 10.187 14.5141 9.91691C15.8558 9.56291 17.0627 9.82932 18.2294 10.0884L18.5466 10.1578C20.016 10.4789 21.283 10.7563 22.2437 12.1942C22.7669 13.0993 23.126 14.497 22.9583 14.9696C22.9547 14.9915 22.7851 15.8108 21.8098 16.4477C21.1863 17.3984 21.4726 21.9 21.8353 23.9547L21.8408 23.9894L21.8226 24.0185C21.2574 24.9036 20.0306 25.2174 18.6961 25.2174V25.2192ZM11.8124 12.3566C11.8944 12.4953 12.3611 12.9788 12.7385 13.3675C13.3893 14.0408 13.4531 14.1175 13.4604 14.1813C13.4914 14.4405 13.1323 21.9566 12.9372 22.9456C12.9117 23.3908 13.8542 24.0113 15.2852 24.4747C17.75 25.2758 20.716 25.3488 21.6494 23.951C21.2757 21.7887 21.0004 17.2944 21.6713 16.3291L21.6968 16.3053C22.6211 15.7087 22.7833 14.9295 22.7851 14.9222C22.9237 14.528 22.6101 13.1887 22.0906 12.2909C21.1754 10.9187 19.9977 10.6614 18.5102 10.3366L18.193 10.2673C17.0481 10.0136 15.8631 9.75086 14.5633 10.0939C13.4513 10.3877 11.7996 12.0792 11.816 12.3566H11.8124Z" fill="#1A2E35"/>
<path d="M14.2072 28.1267C14.1762 28.1267 14.1488 28.1048 14.1434 28.0738C14.1415 28.0592 13.8772 26.5319 14.1434 25.0265C14.1488 24.9918 14.1835 24.9681 14.2181 24.9736C14.2527 24.979 14.2764 25.0137 14.271 25.0502C14.0103 26.5337 14.2691 28.0373 14.271 28.0519C14.2764 28.0884 14.2527 28.1213 14.2181 28.1286C14.2145 28.1286 14.2108 28.1286 14.2072 28.1286V28.1267Z" fill="#1A2E35"/>
<path d="M18.9491 28.1264C18.9218 28.1264 18.8962 28.11 18.8871 28.0808C18.878 28.0534 18.6702 27.4075 18.4241 25.6247C18.4186 25.5882 18.4441 25.5553 18.4806 25.5517C18.5171 25.5481 18.5499 25.5718 18.5535 25.6083C18.7978 27.3764 19.0093 28.0334 19.0111 28.0407C19.022 28.0753 19.0038 28.1118 18.9692 28.1228C18.9619 28.1246 18.9564 28.1264 18.9491 28.1264Z" fill="#1A2E35"/>
<path d="M12.8508 25.4332C12.8326 25.4332 12.8144 25.4259 12.8016 25.4113C12.7779 25.3839 12.7816 25.342 12.8089 25.3201C13.4032 24.8128 13.673 23.5902 13.6767 23.5792C13.6839 23.5446 13.7204 23.5209 13.755 23.53C13.7897 23.5373 13.8134 23.5719 13.8043 23.6066C13.7933 23.6577 13.5235 24.8839 12.8946 25.4204C12.8818 25.4314 12.8672 25.435 12.8526 25.435L12.8508 25.4332Z" fill="#1A2E35"/>
<path d="M20.4142 25.7938C20.3996 25.7938 20.385 25.7884 20.3723 25.7792C19.7433 25.2428 19.4735 24.0165 19.4626 23.9654C19.4553 23.9308 19.4772 23.8961 19.5118 23.8888C19.5464 23.8815 19.5811 23.9034 19.5902 23.9381C19.592 23.9508 19.8618 25.1716 20.4579 25.6789C20.4853 25.7026 20.4889 25.7427 20.4652 25.7701C20.4525 25.7847 20.4343 25.792 20.416 25.792L20.4142 25.7938Z" fill="#1A2E35"/>
<path d="M18.8611 25.1837C16.9341 25.1837 14.1321 24.4812 13.0547 23.4557C13.0292 23.4301 13.0274 23.39 13.0529 23.3626C13.0784 23.3371 13.1186 23.3353 13.1459 23.3608C14.1449 24.3115 17.3753 25.2804 19.5811 25.014C20.6057 24.8899 21.3167 24.5268 21.6922 23.9374C21.7123 23.9064 21.7524 23.8973 21.7815 23.9173C21.8125 23.9374 21.8198 23.9776 21.8016 24.0068C21.4023 24.6308 20.6604 25.0122 19.5957 25.1418C19.3715 25.1691 19.1254 25.1819 18.8611 25.1819V25.1837Z" fill="#1A2E35"/>
<path d="M13.4028 15.8909C13.3663 15.8909 13.3372 15.8617 13.3372 15.827C13.3299 14.9621 13.3062 13.568 13.3007 13.5096C13.3007 13.495 13.2788 12.5972 13.3335 12.037C13.3372 12.0005 13.3682 11.975 13.4046 11.9786C13.4411 11.9823 13.4666 12.0133 13.463 12.0498C13.4083 12.6027 13.4301 13.4913 13.4301 13.5005C13.4356 13.5443 13.4593 15.0278 13.4666 15.8252C13.4666 15.8617 13.4374 15.8909 13.4028 15.8909Z" fill="#533CD6"/>
<path d="M16.8535 9.70867C16.7132 10.1138 16.3978 10.1539 16.303 10.3273C16.035 10.809 16.1991 11.5115 16.9611 11.5444C17.4405 11.5644 18.7221 10.9313 18.9719 10.5572C18.8917 10.3546 18.5362 10.2214 18.5708 9.8948C18.5836 9.77984 18.7604 9.3127 18.6492 9.23606C18.3211 9.00614 17.6228 9.43313 17.271 9.51342C17.1233 9.54627 16.952 9.58276 16.8553 9.70867H16.8535Z" fill="#FF9388"/>
<path d="M17.1429 10.4235C17.112 10.4235 17.0828 10.4199 17.0573 10.4144C16.8586 10.3615 16.7492 10.1991 16.6763 10.0896C16.6562 10.0604 16.6635 10.0184 16.6945 9.99835C16.7237 9.97828 16.7656 9.98558 16.7856 10.0166C16.8677 10.1389 16.9534 10.2502 17.0919 10.2885C17.2414 10.3286 17.6899 10.1735 18.2586 9.80128C18.2896 9.78121 18.3297 9.79033 18.3498 9.81953C18.3698 9.85055 18.3607 9.89069 18.3316 9.91077C17.8393 10.2319 17.3927 10.4253 17.1466 10.4253L17.1429 10.4235Z" fill="#DD7A64"/>
<path d="M17.0372 11.8566C16.7766 11.8566 16.5377 11.7982 16.3336 11.6814C16.1184 11.5226 15.9453 11.165 15.907 10.811C15.8851 10.5993 15.8997 10.2964 16.102 10.0665C16.1257 10.0391 16.1677 10.0373 16.1932 10.061C16.2205 10.0847 16.2224 10.1267 16.1987 10.1523C16.0273 10.3475 16.0164 10.6103 16.0346 10.7964C16.0692 11.1139 16.2242 11.4405 16.4028 11.5719C16.9279 11.873 17.5805 11.6686 17.9232 11.5208C18.5595 11.2435 19.0699 10.7654 19.1282 10.5099C19.1355 10.4752 19.172 10.4533 19.2066 10.4606C19.2413 10.4679 19.2631 10.5044 19.2559 10.5391C19.1793 10.8657 18.5941 11.3712 17.9761 11.6412C17.6443 11.7854 17.3271 11.8584 17.0354 11.8584L17.0372 11.8566Z" fill="#1A2E35"/>
<path d="M17.2286 9.12506C17.2158 9.12506 17.2031 9.12141 17.1921 9.11411L17.1429 9.08126C17.132 9.07397 17.132 9.07397 17.1174 9.06302C17.0882 9.04112 17.0809 8.99733 17.1028 8.96996C17.1247 8.94258 17.163 8.93529 17.1921 8.95718L17.1976 8.96083L17.2651 9.00827C17.2942 9.02835 17.3015 9.06849 17.2815 9.09951C17.2687 9.11776 17.2486 9.12688 17.2286 9.12688V9.12506Z" fill="#DD7A64"/>
<path d="M14.3515 12.7781C12.3736 15.9934 8.46866 17.1794 5.63204 15.4313C5.14165 15.1284 4.0843 14.165 3.75251 13.5847C2.43629 11.2782 2.44176 9.09946 4.07883 6.4408C6.0568 3.22742 9.98905 1.55961 12.7272 3.45917C15.5711 5.43172 16.3313 9.56294 14.3515 12.7781Z" fill="#04722B"/>
<path d="M13.8579 12.1579C15.8369 8.94303 15.1412 4.91832 12.3039 3.16845C9.46669 1.41858 5.56234 2.60619 3.58333 5.82106C1.60431 9.03593 2.30003 13.0606 5.13727 14.8105C7.97451 16.5604 11.8788 15.3728 13.8579 12.1579Z" fill="#00953B"/>
<path d="M12.9193 11.578C14.5365 8.95083 13.9679 5.66183 11.6493 4.2318C9.33061 2.80177 6.13996 3.77223 4.52273 6.39938C2.9055 9.02653 3.47412 12.3155 5.79277 13.7455C8.11141 15.1756 11.3021 14.2051 12.9193 11.578Z" fill="#04722B"/>
<path d="M12.6905 11.439C14.2195 8.95518 13.6816 5.84534 11.4889 4.49302C9.29626 3.14071 6.27926 4.05801 4.75023 6.54187C3.22121 9.02574 3.75918 12.1356 5.95182 13.4879C8.14446 14.8402 11.1615 13.9229 12.6905 11.439Z" fill="#F7F7F7"/>
<path d="M5.32004 7.00128C6.84955 4.5178 9.86482 3.59995 12.0579 4.95209C12.1071 4.98129 12.1545 5.01413 12.2019 5.04515C11.9886 4.83896 11.7516 4.65283 11.491 4.49225C9.29787 3.14012 6.2826 4.05797 4.75308 6.54145C3.25821 8.97018 3.73949 11.9974 5.81043 13.3934C4.2317 11.8642 3.97283 9.18915 5.32004 7.00128Z" fill="#E2E2E2"/>
<path d="M12.1096 8.51051C12.6381 8.11574 12.6112 7.18482 12.0494 6.43124C11.4876 5.67766 10.6037 5.38678 10.0752 5.78155C9.54663 6.17632 9.57358 7.10724 10.1354 7.86082C10.6971 8.6144 11.581 8.90528 12.1096 8.51051Z" fill="white"/>
<path d="M10.081 5.27897C10.1556 5.08418 9.96306 4.8292 9.65093 4.70946C9.3388 4.58972 9.02531 4.65056 8.95072 4.84535C8.87614 5.04015 9.0687 5.29513 9.38083 5.41487C9.69296 5.53461 10.0064 5.47377 10.081 5.27897Z" fill="white"/>
<path d="M20.5283 21.9147L13.4805 13.4789L11.2983 15.2215L17.5713 23.9237C18.3297 25.139 20.4535 24.4985 20.6905 23.2303C20.7562 22.6701 20.5975 22.2176 20.5265 21.9129L20.5283 21.9147Z" fill="#04722B"/>
<path d="M17.4356 23.2008L11.1626 14.4986L13.3447 12.756L20.1738 21.2338C21.7124 23.2264 18.4219 24.7829 17.4356 23.2027V23.2008Z" fill="#00953B"/>
<path d="M15.5551 20.5946C16.421 20.2241 17.276 19.6749 18.1037 18.6658L17.6114 18.0545C16.9442 18.9176 16.1056 19.5508 15.092 19.9541L15.5551 20.5964V20.5946Z" fill="white"/>
<path d="M19.2524 20.0913L18.7583 19.4782C18.0784 20.3778 17.2124 21.0329 16.166 21.4435L16.6291 22.0858C17.5205 21.7099 18.401 21.1479 19.2524 20.0913Z" fill="white"/>
<path d="M20.8362 17.1034C20.8106 17.1034 20.7851 17.087 20.776 17.0614C20.6703 16.795 20.4807 16.1527 20.2783 15.4703L20.127 14.9612C20.1161 14.9265 20.1361 14.89 20.1708 14.879C20.2054 14.8699 20.2419 14.8882 20.2528 14.9228L20.4041 15.4319C20.5481 15.9192 20.6867 16.3881 20.7924 16.7093C20.8471 16.0889 20.9747 15.6783 20.9802 15.6582C21.137 15.1747 21.5052 14.8298 21.9901 14.7112C22.3566 14.6236 22.7212 14.6929 22.9199 14.8918C22.9454 14.9174 22.9454 14.9593 22.9199 14.9849C22.8944 15.0104 22.8524 15.0104 22.8269 14.9849C22.6592 14.817 22.342 14.7604 22.0193 14.8389C21.8115 14.89 21.3047 15.0743 21.1042 15.6984C21.1042 15.7038 20.931 16.2586 20.9018 17.0377C20.9018 17.0687 20.8781 17.0943 20.8471 17.0998C20.8435 17.0998 20.8398 17.0998 20.8362 17.0998V17.1034Z" fill="#1A2E35"/>
<path d="M18.1875 6.17453C17.8485 6.13621 17.5003 6.33145 17.245 6.534C17.0208 6.711 16.5742 6.86793 16.5122 7.40076C16.4101 8.25656 16.2004 8.1635 16.184 8.60874C16.1731 8.88427 16.6124 10.2236 17.0755 10.3514C17.2979 10.386 18.0344 10.1707 18.7107 9.48097C18.9933 9.19448 19.2631 8.83136 19.4892 8.38612C19.666 8.03577 19.6624 7.41535 19.4892 7.05223C19.3634 6.78764 19.0571 6.60517 18.8147 6.46466C18.5631 6.32051 18.4665 6.20737 18.1857 6.17635L18.1875 6.17453Z" fill="#FF9388"/>
<path d="M18.776 7.40759C18.6994 7.31453 18.7651 7.38934 18.5427 7.47146C18.4333 7.5116 18.3038 7.52802 18.189 7.52985C17.6384 7.53897 17.0496 7.3492 16.6631 6.90943C16.0688 6.23428 15.9449 5.31096 16.448 4.57923C16.6212 4.32742 16.8673 4.02451 17.1517 3.91685C17.2283 3.88765 17.3085 3.86576 17.3887 3.84933C17.3996 3.84751 17.4926 3.83109 17.4944 3.83656C17.5309 3.91685 17.3522 4.15224 17.4288 4.2453C17.458 4.2818 17.6913 4.10662 17.715 4.17779C17.746 4.27268 17.5947 4.57923 17.6986 4.66682C17.7132 4.67959 17.8937 4.53909 17.9083 4.52814C18.0559 4.41136 18.3111 4.21246 18.5007 4.34567C18.8362 4.58288 19.1315 4.97885 19.2445 5.3876C19.2919 5.55547 19.3083 5.72882 19.3302 5.90217C19.332 5.91677 19.3357 6.0445 19.3539 6.05545C19.4049 6.08282 19.8698 5.8967 20.2016 6.2726C20.4933 6.60288 20.4769 7.20322 20.3784 7.63386C20.2381 8.2488 19.7987 8.81994 19.3721 9.24146C19.2062 9.40569 18.6757 9.56261 18.6575 9.53889C18.6302 9.50605 19.126 8.84002 19.1169 8.56995C19.106 8.27434 18.8143 8.36011 18.6958 8.50791C18.6721 8.53711 18.6156 8.61375 18.5901 8.54988C18.5153 8.36376 18.6666 8.20865 18.7487 8.0572C18.8909 7.79079 18.9638 7.63203 18.7797 7.40941L18.776 7.40759Z" fill="#1A2E35"/>
<path d="M18.8401 7.04798C18.8073 6.73595 18.9987 6.45676 19.2211 6.25604C19.15 6.55895 18.9859 6.7761 18.8401 7.04798Z" fill="#C6C6C6"/>
<path d="M17.6424 6.14417C17.7299 6.58211 18.0033 6.97443 18.388 7.19888C18.3971 7.20618 18.4026 7.20618 18.4171 7.23172C18.4281 7.2518 18.4208 7.28829 18.4026 7.30106C18.3679 7.32661 18.3424 7.31566 18.3114 7.31566C17.626 7.27004 16.9496 6.82663 16.7855 6.13323C16.7053 5.77375 16.7017 5.30844 16.9806 5.03473C16.7546 5.32851 16.7874 5.76645 16.8822 6.10586C17.0754 6.75182 17.7025 7.14779 18.3515 7.20618C18.3278 7.208 18.2968 7.2518 18.3169 7.28464C17.965 7.06932 17.6551 6.59124 17.6405 6.146L17.6424 6.14417Z" fill="#C6C6C6"/>
<path d="M16.9777 9.12638C16.9777 9.12638 16.9631 9.12638 16.9558 9.12273C16.8263 9.07711 16.7516 9.01142 16.7243 8.92383C16.675 8.7669 16.799 8.59355 16.9175 8.42567C16.9777 8.34173 17.0323 8.26327 17.0597 8.19758C17.1782 7.91292 17.098 7.60271 16.8464 7.3655C16.7534 7.27791 16.5784 7.16295 16.5 7.17207C16.4636 7.17572 16.4308 7.15018 16.4271 7.11551C16.4235 7.07901 16.449 7.04616 16.4836 7.04252C16.6659 7.02062 16.9339 7.26696 16.9357 7.27061C17.2274 7.54432 17.3186 7.90927 17.18 8.24685C17.1472 8.32714 17.087 8.41108 17.0232 8.50049C16.9266 8.63552 16.8191 8.78697 16.8482 8.88368C16.8628 8.9293 16.9139 8.96945 16.9995 8.99864C17.0342 9.01142 17.0506 9.04791 17.0396 9.08258C17.0305 9.10995 17.005 9.12638 16.9777 9.12638Z" fill="#DD7A64"/>
<path d="M16.8149 7.6716C16.8896 7.62781 16.9899 7.71357 17.0172 7.79203C17.061 7.91429 17.0227 8.0621 16.9024 8.12414C16.7511 8.2026 16.7493 7.95809 16.7857 7.8778C16.8003 7.84678 16.8349 7.82123 16.8441 7.78838C16.8495 7.76649 16.8003 7.68072 16.8149 7.67343V7.6716Z" fill="#162243"/>
<path d="M17.8948 8.01058C17.9367 7.98321 17.9841 8.05255 18.0133 8.08722C18.0881 8.17663 18.13 8.32261 18.0352 8.41568C17.9677 8.48137 17.7763 8.51056 17.7709 8.37736C17.7672 8.30984 17.7927 8.23868 17.8383 8.18941C17.8547 8.17116 17.8875 8.16204 17.8948 8.13831C17.9076 8.10182 17.8638 8.03066 17.8948 8.01241V8.01058Z" fill="#162243"/>
<path d="M18.3161 8.11404C18.287 8.11404 18.2614 8.09579 18.2542 8.06659C18.2195 7.94616 18.0664 7.85127 17.9406 7.8239C17.9224 7.82025 17.9005 7.8166 17.8786 7.81478C17.7948 7.80565 17.6781 7.79106 17.6325 7.67427C17.6197 7.64143 17.6362 7.60311 17.669 7.59033C17.7018 7.57756 17.7401 7.59398 17.7528 7.62683C17.7692 7.66697 17.8093 7.6761 17.8932 7.68522C17.9187 7.68887 17.9442 7.6907 17.9679 7.69617C18.1302 7.73266 18.3271 7.85127 18.3799 8.0301C18.3891 8.06477 18.3708 8.10126 18.3362 8.11039C18.3307 8.11039 18.3234 8.11221 18.318 8.11221L18.3161 8.11404Z" fill="#DD7A64"/>
<path d="M17.28 9.73083C17.4441 9.71623 17.6428 9.50456 17.9527 9.21625C17.9527 9.21625 17.7175 9.29471 17.6902 9.30019C17.5079 9.33303 16.9099 9.27464 16.9099 9.27464C16.9373 9.38048 17.0138 9.75272 17.28 9.73083Z" fill="#162243"/>
<path d="M16.9847 9.42607C17.1123 9.55381 17.4733 9.54103 17.6137 9.41513C17.6483 9.3841 17.7777 9.30382 17.7504 9.30747C17.5681 9.34031 17.0267 9.26367 17.0267 9.26367C17.0267 9.26367 16.9154 9.34031 16.9829 9.42425L16.9847 9.42607Z" fill="white"/>
<path d="M17.3708 9.3949C17.2323 9.3949 17.0828 9.37483 16.8987 9.33651C16.8658 9.32921 16.844 9.29636 16.8513 9.26352C16.8586 9.23067 16.8914 9.20877 16.9242 9.21607C17.3726 9.30913 17.5786 9.28176 17.9341 9.15951C17.9669 9.14856 18.0016 9.16498 18.0125 9.19783C18.0235 9.23067 18.0071 9.26534 17.9742 9.27629C17.7409 9.35658 17.5641 9.3949 17.3726 9.3949H17.3708Z" fill="#DD7A64"/>
<path d="M18.0402 9.34627C18.0293 9.34627 18.0165 9.34262 18.0074 9.33715C17.9545 9.30795 17.9162 9.20212 17.9126 9.07986C17.9126 9.04519 17.9381 9.01782 17.9728 9.01599C18.0037 9.01599 18.0347 9.04154 18.0366 9.07621C18.0384 9.16745 18.0657 9.22401 18.0748 9.23314C18.104 9.24956 18.1113 9.28605 18.0949 9.31525C18.084 9.33532 18.0621 9.34445 18.0402 9.34445V9.34627Z" fill="#DD7A64"/>
<path d="M17.2146 10.0371C17.1964 10.0371 17.1782 10.028 17.1636 10.0116C17.1417 9.98422 17.1508 9.93861 17.1782 9.91671C17.2073 9.89299 17.2493 9.89116 17.3149 9.88751H17.3313C17.3714 9.88751 17.3969 9.91306 17.3988 9.94955C17.3988 9.98605 17.3714 10.0152 17.3368 10.0171H17.3185C17.2985 10.0171 17.2602 10.0189 17.2493 10.0225C17.2383 10.0317 17.2256 10.0353 17.2128 10.0353L17.2146 10.0371Z" fill="#DD7A64"/>
<path d="M20.1728 21.2331L13.3966 12.8229C13.5589 12.6112 13.7139 12.3904 13.856 12.1587C15.834 8.94345 15.1395 4.91989 12.301 3.16995C9.46622 1.42002 5.56132 2.60793 3.58335 5.82131C1.60537 9.03651 2.29994 13.0601 5.13838 14.81C7.01427 15.9669 9.35684 15.8392 11.3002 14.6896L17.4346 23.202C18.4209 24.7823 21.7114 23.2257 20.1728 21.2331Z" stroke="#1A2E35" stroke-width="1.37105" stroke-linecap="round" stroke-linejoin="round"/>
<path d="M15.9856 20.2023C16.0348 20.2059 16.5543 20.2041 16.465 20.0472C16.4358 19.9961 16.2809 19.9942 16.2317 19.9906C16.0293 19.9723 15.8343 19.8957 15.6392 19.8501C15.6064 19.8428 15.4532 19.8154 15.4405 19.7734C15.3876 19.6074 15.9163 19.4486 15.8397 19.2881C15.7467 19.0983 15.3366 19.3246 15.0668 19.2808C14.0914 19.122 12.8336 17.3538 11.4864 15.4853C11.4864 15.6002 11.459 15.7645 11.439 15.9707C11.2986 15.9889 11.2074 16.144 11.2056 16.2407C11.202 16.3338 11.4189 16.4342 11.4226 16.5382C11.4554 17.2535 11.7252 18.2297 12.85 19.3264C13.4917 19.9523 14.1334 20.4979 14.8079 20.8427C14.9865 20.934 15.4806 21.1365 15.6793 21.0252C15.7121 21.007 15.6611 20.9796 15.6556 20.976C15.5699 20.9157 15.0759 20.7333 15.1798 20.6566C15.1798 20.6566 15.7996 20.7844 15.8762 20.788C15.9199 20.7898 16.0931 20.8136 16.1059 20.7552C16.1259 20.6676 15.7704 20.5581 15.7048 20.5362C15.6939 20.5325 15.528 20.4541 15.5353 20.4504C15.5499 20.4413 16.0804 20.5307 16.1879 20.5216C16.2371 20.5179 16.4176 20.5198 16.4176 20.4395C16.4176 20.3209 15.8889 20.2187 15.8014 20.1731C15.7467 20.1439 15.9236 20.2004 15.9856 20.2041V20.2023Z" fill="#FF9388"/>
<path d="M22.7404 18.2769C22.9865 16.5434 22.5453 14.7679 22.5453 14.7679C22.5453 14.7679 21.6302 14.6401 21.045 15.6237C21.415 18.0342 21.2163 19.1892 20.4634 20.4228C20.4069 20.4939 20.3559 20.5651 20.3085 20.6344C19.3313 21.9154 18.7224 21.8899 18.2813 21.691C18.1081 21.6143 17.6596 21.2731 17.5867 21.3534C17.3916 21.5632 17.8492 21.8406 17.7271 21.9647C17.6961 21.9957 17.5466 21.9519 17.5156 21.9446C17.3205 21.8972 17.1127 21.8789 16.9231 21.8059C16.8776 21.7877 16.7372 21.7202 16.688 21.753C16.5385 21.8552 17.0033 22.0869 17.0489 22.1052C17.1073 22.1289 17.2896 22.1581 17.2276 22.1581C17.1291 22.1581 16.6096 22.0158 16.5585 22.1216C16.5239 22.1946 16.6861 22.2731 16.7281 22.2986C16.821 22.3552 17.3351 22.5121 17.3442 22.5267C17.3497 22.534 17.1656 22.5304 17.1547 22.5285C17.0854 22.5176 16.7189 22.4574 16.6971 22.545C16.6843 22.6033 16.8484 22.6599 16.8885 22.6763C16.9596 22.7074 17.5703 22.8679 17.5703 22.8698C17.6305 22.9847 17.1054 22.9281 17.0015 22.9427C16.9942 22.9427 16.9359 22.9446 16.9578 22.9774C17.0854 23.1654 17.6177 23.2037 17.8182 23.2019C18.5748 23.1927 19.7834 22.6636 20.4507 22.2037C21.3932 21.6162 22.1716 20.4812 22.6292 18.8316C22.6401 18.7951 22.6492 18.7586 22.6583 18.7203C22.7477 18.6801 22.8771 18.5615 22.8771 18.4703C22.8771 18.4119 22.8133 18.3334 22.7422 18.2732L22.7404 18.2769Z" fill="#FF9388"/>
</svg>
