<svg  viewBox="0 0 91 120" fill="none" xmlns="http://www.w3.org/2000/svg">
<path d="M58.3448 35.3948C40.5761 35.3948 26.1726 49.7983 26.1726 67.5671C26.1726 85.3358 40.5761 99.7393 58.3448 99.7393C76.1136 99.7393 90.5171 85.3358 90.5171 67.5671C90.5171 49.7983 76.1136 35.3948 58.3448 35.3948ZM72.5906 88.4894C58.4085 96.6134 40.6397 89.1826 36.7583 76.1532C36.7583 76.1532 48.397 78.9111 62.1944 74.8359C75.5712 70.8853 83.6107 62.7073 83.6107 62.7073C83.6107 62.7073 86.3824 80.5882 72.5906 88.4894Z" fill="#FFE200"/>
<path d="M27.6069 94.6937C22.5569 90.3685 15.1482 90.7333 11.0585 95.5084C6.96875 100.284 7.74715 107.66 12.7972 111.985C17.8472 116.311 25.2559 115.946 29.3456 111.171C33.4353 106.396 32.6569 99.0189 27.6069 94.6937ZM19.4352 112.43C13.5347 111.161 10.195 104.839 12.0908 100.393C12.0908 100.393 14.7638 103.967 19.6231 106.23C24.3342 108.424 28.5013 108.184 28.5013 108.184C28.5013 108.184 25.1735 113.664 19.4352 112.43Z" fill="#FFE200"/>
<path d="M35.9631 11.3835C28.6223 5.09636 17.6947 5.81127 11.5547 12.9803C5.41464 20.1494 6.38795 31.057 13.7287 37.3441C21.0694 43.6312 31.9971 42.9163 38.1371 35.7472C44.2771 28.5782 43.3038 17.6706 35.9631 11.3835ZM23.5014 37.8457C14.8352 36.1054 10.0621 26.8203 12.9609 20.19C12.9609 20.19 16.8162 25.4208 23.9245 28.6586C30.8159 31.7977 36.9632 31.3429 36.9632 31.3429C36.9632 31.3429 31.9295 39.5378 23.5014 37.8457Z" fill="#FFE200"/>
</svg>
