<svg  viewBox="0 0 16 16" fill="none" xmlns="http://www.w3.org/2000/svg">
<path d="M7.16602 12.6673C7.58824 12.6673 7.94379 12.5229 8.23268 12.234C8.52157 11.9451 8.66602 11.5895 8.66602 11.1673V8.66732H9.99935C10.1882 8.66732 10.3467 8.60332 10.4747 8.47532C10.6027 8.34732 10.6665 8.1891 10.666 8.00065C10.6656 7.81221 10.6016 7.65398 10.474 7.52598C10.3465 7.39798 10.1882 7.33398 9.99935 7.33398H8.66602C8.47713 7.33398 8.3189 7.39798 8.19135 7.52598C8.06379 7.65398 7.99979 7.81221 7.99935 8.00065V9.91732C7.87713 9.82843 7.74668 9.76443 7.60802 9.72532C7.46935 9.68621 7.32202 9.66687 7.16602 9.66732C6.74379 9.66732 6.38824 9.81176 6.09935 10.1007C5.81046 10.3895 5.66602 10.7451 5.66602 11.1673C5.66602 11.5895 5.81046 11.9451 6.09935 12.234C6.38824 12.5229 6.74379 12.6673 7.16602 12.6673ZM3.99935 14.6673C3.63268 14.6673 3.3189 14.5369 3.05802 14.276C2.79713 14.0151 2.66646 13.7011 2.66602 13.334V2.66732C2.66602 2.30065 2.79668 1.98687 3.05802 1.72598C3.31935 1.4651 3.63313 1.33443 3.99935 1.33398H8.78268C8.96046 1.33398 9.13002 1.36732 9.29135 1.43398C9.45268 1.50065 9.59424 1.5951 9.71602 1.71732L12.9493 4.95065C13.0716 5.07287 13.166 5.21465 13.2327 5.37598C13.2993 5.53732 13.3327 5.70665 13.3327 5.88398V13.334C13.3327 13.7007 13.2022 14.0147 12.9413 14.276C12.6805 14.5373 12.3665 14.6678 11.9993 14.6673H3.99935ZM8.66602 5.33398V2.66732H3.99935V13.334H11.9993V6.00065H9.33268C9.14379 6.00065 8.98557 5.93665 8.85802 5.80865C8.73046 5.68065 8.66646 5.52243 8.66602 5.33398Z" fill="white"/>
</svg>
