<svg  viewBox="0 0 18 21" fill="none" xmlns="http://www.w3.org/2000/svg">
<path d="M11.9766 9.38667C13.2564 8.45335 14.0897 6.94288 14.0897 5.24124C14.0897 2.41354 11.7892 0.113037 8.96152 0.113037C6.13383 0.113037 3.83332 2.41354 3.83332 5.24124C3.83332 6.94288 4.66664 8.45335 5.94641 9.38667C2.76516 10.6041 0.5 13.6885 0.5 17.2925C0.5 18.8478 1.76527 20.113 3.32051 20.113H14.6025C16.1578 20.113 17.423 18.8478 17.423 17.2925C17.423 13.6885 15.1579 10.6041 11.9766 9.38667ZM5.3718 5.24124C5.3718 3.26187 6.98215 1.65151 8.96152 1.65151C10.9409 1.65151 12.5512 3.26187 12.5512 5.24124C12.5512 7.22062 10.9409 8.83101 8.96152 8.83101C6.98215 8.83101 5.3718 7.22062 5.3718 5.24124ZM14.6025 18.5746H3.32051C2.61359 18.5746 2.03848 17.9994 2.03848 17.2925C2.03848 13.4751 5.1441 10.3694 8.96156 10.3694C12.779 10.3694 15.8846 13.475 15.8846 17.2925C15.8846 17.9994 15.3095 18.5746 14.6025 18.5746Z" fill="#11A64B"/>
</svg>
