<svg viewBox="0 0 18 21" fill="none" xmlns="http://www.w3.org/2000/svg">
<path d="M1.37673 14.5134C1.51704 12.1281 3.49233 10.2656 5.88176 10.2656H12.0381C14.4275 10.2656 16.4028 12.1281 16.5431 14.5134L16.5763 15.0775C16.7288 17.6696 14.6678 19.8554 12.0713 19.8554H8.95992H5.84858C3.25203 19.8554 1.19107 17.6696 1.34355 15.0775L1.37673 14.5134Z" fill="#11A64B"/>
<circle cx="8.96434" cy="5.1909" r="3.94871" fill="#11A64B"/>
<path d="M11.9766 9.38691C13.2564 8.45359 14.0897 6.94312 14.0897 5.24148C14.0897 2.41379 11.7892 0.113281 8.96152 0.113281C6.13383 0.113281 3.83332 2.41379 3.83332 5.24148C3.83332 6.94312 4.66664 8.45359 5.94641 9.38691C2.76516 10.6043 0.5 13.6887 0.5 17.2928C0.5 18.848 1.76527 20.1133 3.32051 20.1133H14.6025C16.1578 20.1133 17.423 18.848 17.423 17.2928C17.423 13.6887 15.1579 10.6043 11.9766 9.38691ZM5.3718 5.24148C5.3718 3.26211 6.98215 1.65176 8.96152 1.65176C10.9409 1.65176 12.5512 3.26211 12.5512 5.24148C12.5512 7.22086 10.9409 8.83125 8.96152 8.83125C6.98215 8.83125 5.3718 7.22086 5.3718 5.24148ZM14.6025 18.5748H3.32051C2.61359 18.5748 2.03848 17.9997 2.03848 17.2927C2.03848 13.4753 5.1441 10.3696 8.96156 10.3696C12.779 10.3696 15.8846 13.4753 15.8846 17.2927C15.8846 17.9997 15.3095 18.5748 14.6025 18.5748Z" fill="#11A64B"/>
</svg>
