<svg  viewBox="0 0 24 23" fill="none" xmlns="http://www.w3.org/2000/svg">
<path d="M11.9987 21.4178C17.5424 21.4178 22.0364 16.9237 22.0364 11.38C22.0364 5.83634 17.5424 1.34229 11.9987 1.34229C6.45499 1.34229 1.96094 5.83634 1.96094 11.38C1.96094 16.9237 6.45499 21.4178 11.9987 21.4178Z" fill="#009639"/>
<path d="M12.0009 3.21484C7.49862 3.21484 3.83594 6.87768 3.83594 11.3798C3.83594 15.882 7.49878 19.5448 12.0009 19.5448C16.5031 19.5448 20.1659 15.882 20.1659 11.3798C20.1659 6.87768 16.5031 3.21484 12.0009 3.21484ZM12.0009 19.486C7.53123 19.486 3.89473 15.8497 3.89473 11.3798C3.89473 6.90999 7.53123 3.27364 12.0009 3.27364C16.4706 3.27364 20.107 6.90999 20.107 11.3798C20.107 15.8497 16.4706 19.486 12.0009 19.486Z" fill="white"/>
<path d="M4.31748 12.5406C4.26052 12.162 4.23082 11.7745 4.23082 11.3802C4.23082 7.09746 7.71514 3.61314 11.9979 3.61314C15.8641 3.61314 19.0794 6.45259 19.6684 10.1554C19.6965 10.209 19.7169 10.2592 19.7319 10.299C19.7455 10.335 19.7556 10.3707 19.7634 10.4059C19.2822 6.54874 15.9832 3.5542 11.9979 3.5542C7.68253 3.5542 4.17188 7.06501 4.17188 11.3802C4.17188 11.8169 4.20785 12.2452 4.2769 12.6626L4.31732 12.5406H4.31748Z" fill="white"/>
<path d="M19.7862 10.5806C19.7873 10.6446 19.7825 10.7041 19.7765 10.7563C19.7716 10.7997 19.7628 10.8405 19.7519 10.8796C19.7625 11.0451 19.7678 11.2118 19.7678 11.3799C19.7678 15.6627 16.2835 19.147 12.0007 19.147C8.29244 19.147 5.18276 16.5346 4.41525 13.0536L4.35156 13.0382C5.11432 16.5597 8.25431 19.2059 12.0007 19.2059C16.3161 19.2059 19.8268 15.6951 19.8268 11.3799C19.8268 11.1101 19.813 10.8434 19.7862 10.5806Z" fill="white"/>
<path d="M19.4914 11.3965C19.4811 11.4098 19.4707 11.423 19.4602 11.4357C19.451 11.4467 19.4416 11.4576 19.4321 11.4684C19.4309 11.5733 19.4274 11.6776 19.4219 11.7812L19.4791 11.8123C19.4869 11.6747 19.4912 11.536 19.4915 11.3965H19.4914Z" fill="white"/>
<path d="M4.58391 11.7517C4.57778 11.6286 4.57472 11.5047 4.57472 11.3801C4.57472 7.2843 7.90701 3.95201 12.0028 3.95201C15.5354 3.95201 18.4999 6.4309 19.2484 9.74038C19.2575 9.74528 19.2663 9.74987 19.2754 9.75508C19.2878 9.76212 19.3003 9.76932 19.313 9.77682C19.3146 9.77774 19.3161 9.77881 19.3175 9.77957C18.5824 6.41758 15.5819 3.89307 12.0027 3.89307C7.87425 3.89307 4.51562 7.25184 4.51562 11.3801C4.51562 11.5557 4.5219 11.7298 4.53384 11.9023L4.58376 11.7517H4.58391Z" fill="white"/>
<path d="M4.9171 11.062C5.08398 7.30012 8.19672 4.29088 11.999 4.29088C15.2904 4.29088 18.0651 6.54563 18.8597 9.59177C18.8816 9.59651 18.9032 9.60202 18.9248 9.60784C18.1345 6.52067 15.329 4.23193 11.999 4.23193C8.17452 4.23193 5.04187 7.25113 4.85938 11.0314L4.91694 11.062H4.9171Z" fill="white"/>
<path d="M5.5586 9.36461C6.41767 6.62376 8.98107 4.62975 12.0015 4.62975C15.0219 4.62975 17.7057 6.71884 18.5022 9.55936C18.5223 9.55936 18.5428 9.55967 18.5636 9.56012C17.7657 6.68623 15.126 4.5708 12.0016 4.5708C8.87727 4.5708 6.23287 6.69005 5.4375 9.56778C5.47302 9.49766 5.51344 9.42983 5.55876 9.36461H5.5586Z" fill="white"/>
<path d="M5.19531 11.2078L5.21598 11.2189C5.2293 11.2259 5.2417 11.2336 5.25364 11.2414C5.25808 11.0187 5.2734 10.7987 5.29912 10.5818C5.28365 10.512 5.27309 10.442 5.26773 10.3716C5.22685 10.6455 5.20236 10.9246 5.19531 11.2078Z" fill="white"/>
<path d="M18.5294 13.1064C17.7646 15.9949 15.1287 18.1301 12.0031 18.1301C8.87746 18.1301 6.45522 16.1639 5.5784 13.4528C5.55758 13.452 5.53675 13.4511 5.51562 13.45C6.39367 16.1954 8.96994 18.189 12.0029 18.189C15.0359 18.189 17.8492 16.0071 18.6009 13.0649C18.5772 13.0792 18.5533 13.0931 18.5291 13.1064H18.5294Z" fill="white"/>
<path d="M5.59004 11.3806C5.59004 11.3303 5.59065 11.2804 5.59188 11.2305C5.57305 11.2025 5.55406 11.1734 5.53554 11.1436C5.53263 11.2222 5.53125 11.3013 5.53125 11.3806C5.53125 11.4718 5.53324 11.5624 5.53707 11.6528C5.55559 11.6819 5.57565 11.7111 5.59754 11.7404C5.59846 11.7413 5.59953 11.7423 5.60061 11.7433C5.59387 11.6232 5.59035 11.5023 5.59035 11.3806H5.59004Z" fill="white"/>
<path d="M18.1274 13.2829C17.3149 15.8919 14.8773 17.7913 12.0045 17.7913C9.13166 17.7913 6.79944 15.9729 5.93639 13.4507C5.91618 13.4517 5.89567 13.4528 5.875 13.4536C6.74126 16.0073 9.16166 17.8502 12.0045 17.8502C14.8473 17.8502 17.3893 15.9133 18.1963 13.2593C18.1735 13.2675 18.1505 13.2754 18.1275 13.2829H18.1274Z" fill="white"/>
<path d="M6.11071 8.85532C7.09286 6.57194 9.36445 4.9691 12.0035 4.9691C14.9154 4.9691 17.38 6.9204 18.1585 9.58409C18.1761 9.58148 18.1938 9.57888 18.2115 9.57674C18.2135 9.57643 18.2155 9.57628 18.2176 9.57613C17.4347 6.8835 14.9454 4.91016 12.0035 4.91016C9.3101 4.91016 6.9961 6.56444 6.02344 8.91013C6.05161 8.89114 6.0807 8.87292 6.11055 8.85532H6.11071Z" fill="white"/>
<path d="M5.93793 11.7012C5.9171 11.6729 5.89613 11.6445 5.875 11.6162C5.87959 11.7349 5.88755 11.8526 5.89873 11.9694C5.91925 11.9749 5.9393 11.9785 5.9589 11.9795C5.94987 11.8874 5.94282 11.7946 5.93793 11.7012Z" fill="white"/>
<path d="M6.57716 8.6563C7.57708 6.67178 9.63402 5.30733 12.0037 5.30733C14.6215 5.30733 16.8576 6.97232 17.7088 9.29903L17.7281 9.29015L17.7171 9.322C17.7568 9.43162 17.7933 9.54277 17.8267 9.6553C17.8456 9.64979 17.8645 9.64458 17.8835 9.63969C17.1318 7.10384 14.7804 5.24854 12.0039 5.24854C9.59146 5.24854 7.50022 6.64912 6.5 8.67973C6.52511 8.67177 6.55083 8.66396 6.57732 8.65661L6.57716 8.6563Z" fill="white"/>
<path d="M17.8029 13.3626C17.7818 13.3663 17.7605 13.3695 17.7392 13.3726C16.9128 15.745 14.6534 17.4521 12.0029 17.4521C9.75001 17.4521 7.77972 16.2189 6.73173 14.3919H6.66406C7.71787 16.2526 9.71617 17.5111 12.0029 17.5111C14.6902 17.5111 16.9792 15.7732 17.8051 13.3623C17.8043 13.3623 17.8037 13.3626 17.8029 13.3628V13.3626Z" fill="white"/>
<path d="M6.55895 14.0732C6.45269 13.8593 6.35869 13.6383 6.27785 13.4111C6.25825 13.4145 6.23865 13.4179 6.21875 13.4209C6.31306 13.6873 6.42544 13.9453 6.55405 14.1935L6.55895 14.0732Z" fill="white"/>
<path d="M6.61134 13.332C6.59266 13.3378 6.57383 13.3434 6.55469 13.3487C6.58944 13.4447 6.62665 13.5396 6.66645 13.6333C6.67579 13.6101 6.68513 13.5868 6.69447 13.5634L6.69539 13.5612C6.69615 13.5592 6.69707 13.5571 6.69784 13.5551C6.66752 13.4815 6.63874 13.4071 6.61149 13.332H6.61134Z" fill="white"/>
<path d="M17.3034 9.04834L17.2734 9.12719C17.3177 9.23038 17.359 9.3351 17.3973 9.44136L17.451 9.41671C17.4059 9.29193 17.3567 9.16899 17.3034 9.04834Z" fill="white"/>
<path d="M7.00149 8.57616C7.98503 6.82925 9.85763 5.64668 12.0011 5.64668C14.1445 5.64668 16.1943 6.94408 17.1348 8.82862L17.237 8.90441C16.3071 6.94561 14.3097 5.58789 12.0011 5.58789C9.82058 5.58789 7.91766 6.79909 6.92969 8.58396C6.95311 8.58106 6.977 8.57845 7.00149 8.57616Z" fill="white"/>
<path d="M17.4219 13.3942C17.4043 13.3942 17.3865 13.394 17.3686 13.3936C16.5517 15.5646 14.4535 17.1133 12.0004 17.1133C9.94313 17.1133 8.13544 16.0242 7.12389 14.3921H7.05469C8.07298 16.058 9.90899 17.1723 12.0005 17.1723C14.4865 17.1723 16.6115 15.5981 17.4314 13.3942C17.4283 13.3942 17.4251 13.3942 17.4221 13.3942H17.4219Z" fill="white"/>
<path d="M7.39626 8.5676C8.3455 7.01988 10.0532 5.98537 11.9979 5.98537C13.9426 5.98537 15.733 7.07072 16.6673 8.6809C16.6731 8.6809 16.6789 8.6809 16.6847 8.6809V8.71137C16.6853 8.71213 16.6858 8.7129 16.6862 8.71366V8.6809C16.7026 8.6809 16.719 8.68121 16.7355 8.68136C15.7953 7.03688 14.0239 5.92627 11.9979 5.92627C9.97191 5.92627 8.2841 6.98513 7.32812 8.56592C7.35109 8.56638 7.37375 8.56684 7.39626 8.56745V8.5676Z" fill="white"/>
<path d="M17.0173 13.354C16.2278 15.3548 14.2751 16.7742 11.9971 16.7742C10.1373 16.7742 8.49423 15.8282 7.52401 14.3919H7.45312C8.43099 15.8621 10.1027 16.8331 11.9969 16.8331C14.3034 16.8331 16.28 15.3938 17.0757 13.3661C17.0559 13.3624 17.0365 13.3584 17.0172 13.354H17.0173Z" fill="white"/>
<path d="M16.7066 13.2388C15.9645 15.1092 14.1369 16.4354 12.0054 16.4354C10.3456 16.4354 8.87017 15.6313 7.94788 14.3921H7.875C8.80617 15.6655 10.3107 16.4944 12.0054 16.4944C14.1602 16.4944 16.0078 15.1547 16.7597 13.2646C16.7418 13.2564 16.7241 13.2478 16.7066 13.2388Z" fill="white"/>
<path d="M7.78168 8.60336C8.68667 7.23155 10.2414 6.32442 12.0041 6.32442C13.7668 6.32442 15.399 7.27748 16.2931 8.70701C16.3126 8.70073 16.3325 8.69537 16.3528 8.69139C15.4501 7.2366 13.8386 6.26562 12.0041 6.26562C10.1696 6.26562 8.63216 7.19251 7.71875 8.59187C7.74003 8.59524 7.76101 8.59922 7.78168 8.60351V8.60336Z" fill="white"/>
<path d="M8.1193 8.70418C8.97117 7.47262 10.393 6.66392 12.0006 6.66392C13.7008 6.66392 15.1937 7.56846 16.0237 8.92143C16.0346 8.9026 16.0467 8.88484 16.0598 8.868C15.2167 7.51074 13.7126 6.60498 12.0006 6.60498C10.2886 6.60498 8.92401 7.42883 8.0625 8.68259C8.08087 8.68887 8.09986 8.69606 8.1193 8.70418Z" fill="white"/>
<path d="M16.4153 13.0361C15.7434 14.8222 14.0176 16.0964 11.9994 16.0964C10.5187 16.0964 9.19559 15.4103 8.33025 14.3398L8.32688 14.3922H8.29688C9.17324 15.4674 10.5074 16.1553 11.9994 16.1553C14.0346 16.1553 15.7761 14.8754 16.4622 13.0784C16.4461 13.0646 16.4305 13.0505 16.4152 13.0361H16.4153Z" fill="white"/>
<path d="M8.41664 8.86851C9.20925 7.74106 10.5198 7.00279 11.9997 7.00279C13.6401 7.00279 15.0723 7.90993 15.8218 9.24866C15.8349 9.23105 15.8477 9.21345 15.8597 9.19584C15.0965 7.85221 13.6523 6.94385 11.9997 6.94385C10.4991 6.94385 9.17052 7.69283 8.36719 8.83651C8.38357 8.84692 8.4001 8.85748 8.41664 8.86851Z" fill="white"/>
<path d="M16.1686 12.7036C15.6062 14.4723 13.9484 15.7574 11.996 15.7574C10.5181 15.7574 9.20911 15.0211 8.41619 13.8961C8.41359 13.903 8.41083 13.9099 8.40823 13.9168C8.40241 13.9318 8.39644 13.9468 8.39062 13.9618C9.19641 15.0839 10.5123 15.8162 11.996 15.8162C13.9547 15.8162 15.6206 14.5402 16.207 12.776C16.1934 12.7525 16.1807 12.7283 16.1686 12.7036Z" fill="white"/>
<path d="M8.6789 9.09484C9.40782 8.0369 10.6274 7.34181 12.0064 7.34181C13.0293 7.34181 13.9643 7.72426 14.6767 8.35337L14.7142 8.38567L14.7597 8.42869C14.7704 8.43864 14.7811 8.44844 14.7917 8.45855C14.8055 8.46467 14.8205 8.47125 14.8359 8.47845C14.8797 8.49866 14.92 8.51933 14.9574 8.54061C14.2114 7.76576 13.1644 7.28271 12.0063 7.28271C10.6137 7.28271 9.38134 7.98132 8.64062 9.04616C8.65563 9.06376 8.66818 9.08015 8.67875 9.09469L8.6789 9.09484Z" fill="white"/>
<path d="M15.4297 9.14111C15.4461 9.19546 15.4572 9.25012 15.4634 9.30539C15.5036 9.37245 15.5419 9.44058 15.5784 9.51009C15.5937 9.49631 15.6087 9.48253 15.6232 9.46875C15.5637 9.35638 15.499 9.24706 15.4297 9.14111Z" fill="white"/>
<path d="M15.5621 13.2868C14.8801 14.5546 13.5406 15.4186 12.003 15.4186C10.5577 15.4186 9.28759 14.6552 8.57382 13.5106C8.56663 13.5289 8.55943 13.5471 8.55223 13.5653C8.5504 13.5697 8.54871 13.5743 8.54688 13.5788C9.27503 14.7195 10.5521 15.4776 12.0029 15.4776C13.6244 15.4776 15.029 14.5306 15.6927 13.1606C15.6568 13.2135 15.613 13.2556 15.5619 13.2868H15.5621Z" fill="white"/>
<path d="M8.75456 9.60687C9.38351 8.45997 10.6027 7.68053 12.0005 7.68053C12.8204 7.68053 13.5785 7.94876 14.1925 8.4018C14.222 8.39628 14.2497 8.39276 14.2751 8.39016C13.6433 7.90819 12.8548 7.62158 12.0005 7.62158C10.569 7.62158 9.32181 8.42629 8.6875 9.60702H8.75456V9.60687Z" fill="white"/>
<path d="M15.1323 13.3522C14.4762 14.3891 13.3192 15.0792 12.0039 15.0792C10.6886 15.0792 9.5255 14.3855 8.87037 13.3438C8.84878 13.3459 8.82689 13.348 8.80469 13.3499C9.46732 14.4221 10.6536 15.138 12.0039 15.138C13.3543 15.138 14.5389 14.423 15.2018 13.352H15.1323V13.3522Z" fill="white"/>
<path d="M9.11548 9.60631C9.12651 9.60631 9.13692 9.60631 9.14763 9.60631C9.74152 8.65431 10.7982 8.01939 12.0006 8.01939C12.6676 8.01939 13.2898 8.21475 13.8131 8.55127C13.8226 8.54546 13.8321 8.53948 13.8418 8.53397C13.8438 8.53275 13.8458 8.53183 13.8476 8.53076C13.8551 8.52647 13.8627 8.52249 13.8703 8.51836C13.3326 8.16576 12.6901 7.96045 12.0006 7.96045C10.7639 7.96045 9.67875 8.62032 9.07812 9.60631C9.09053 9.60631 9.10293 9.60631 9.11548 9.60631Z" fill="white"/>
<path d="M14.7193 13.3521C14.1079 14.1927 13.1169 14.7403 12.0003 14.7403C10.8837 14.7403 9.8414 14.1639 9.23449 13.2861C9.21428 13.2906 9.19392 13.2949 9.17325 13.299C9.17279 13.299 9.17233 13.2991 9.17188 13.2993C9.78766 14.204 10.8257 14.7993 12.0003 14.7993C13.1749 14.7993 14.1721 14.2271 14.792 13.3521C14.7678 13.3521 14.7435 13.3521 14.7193 13.3521Z" fill="white"/>
<path d="M9.55664 9.60822C10.1063 8.85174 10.9978 8.35875 12.0023 8.35875C12.5673 8.35875 13.0964 8.51476 13.5491 8.78575C13.5615 8.77014 13.5744 8.75483 13.5877 8.74013C13.1242 8.46087 12.5818 8.2998 12.0023 8.2998C10.9632 8.2998 10.0426 8.81714 9.48438 9.60761C9.50887 9.60777 9.53291 9.60792 9.55664 9.60807V9.60822Z" fill="white"/>
<path d="M14.3342 13.3461C14.3342 13.3461 14.3278 13.3454 14.3258 13.3452L14.296 13.3426C13.7414 13.9901 12.9183 14.4012 12.001 14.4012C11.0125 14.4012 10.1334 13.924 9.58177 13.188C9.56263 13.1949 9.54319 13.2016 9.52344 13.208C10.085 13.967 10.9863 14.4601 12.001 14.4601C12.951 14.4601 13.8018 14.0278 14.3673 13.3495C14.3545 13.3484 14.3431 13.3472 14.3342 13.3461Z" fill="white"/>
<path d="M9.95906 9.64012C10.4514 9.06369 11.1831 8.69762 11.9989 8.69762C12.5038 8.69762 12.9766 8.83801 13.3803 9.08145C13.387 9.06277 13.3942 9.04424 13.402 9.02587C12.9913 8.78014 12.5113 8.63867 11.9989 8.63867C11.152 8.63867 10.3939 9.02464 9.89062 9.62986C9.91374 9.63292 9.93656 9.63645 9.95906 9.64012Z" fill="white"/>
<path d="M14.0164 13.1444C13.5243 13.7067 12.8019 14.0626 11.9976 14.0626C11.1479 14.0626 10.3893 13.6653 9.89734 13.0469C9.87973 13.0562 9.86182 13.0652 9.84375 13.0743C10.3461 13.7116 11.1249 14.1215 11.9975 14.1215C12.8094 14.1215 13.5398 13.7666 14.0421 13.204L14.0161 13.1446L14.0164 13.1444Z" fill="white"/>
<path d="M10.3272 9.73831C10.7526 9.30533 11.3444 9.03633 11.998 9.03633C12.4887 9.03633 12.9446 9.18806 13.3214 9.44695C13.3209 9.42322 13.3213 9.3998 13.3223 9.37653C12.9425 9.12452 12.4872 8.97754 11.998 8.97754C11.3179 8.97754 10.703 9.26155 10.2656 9.71718C10.2858 9.72376 10.3063 9.73081 10.3272 9.73846V9.73831Z" fill="white"/>
<path d="M13.2598 13.3521C12.8948 13.5869 12.4606 13.7233 11.9951 13.7233C11.5297 13.7233 11.0956 13.5869 10.7306 13.3521C10.6954 13.3521 10.6602 13.3521 10.625 13.3521C11.0139 13.623 11.4862 13.7823 11.9951 13.7823C12.504 13.7823 12.9765 13.623 13.3654 13.3521C13.3302 13.3521 13.295 13.3521 13.2598 13.3521Z" fill="white"/>
<path d="M10.6446 9.90236C11.0013 9.57549 11.4764 9.37569 11.9974 9.37569C12.3054 9.37569 12.5974 9.44565 12.8585 9.57028C12.8816 9.56706 12.9047 9.56477 12.928 9.56324C12.9408 9.56247 12.9551 9.56155 12.9698 9.56079C12.6799 9.40523 12.3488 9.31689 11.9974 9.31689C11.4557 9.31689 10.9623 9.5268 10.5938 9.86944C10.6107 9.88001 10.6277 9.89103 10.6447 9.90251L10.6446 9.90236Z" fill="white"/>
<path d="M12.5835 13.3521C12.5349 13.3521 12.489 13.346 12.4464 13.3339C12.3025 13.3668 12.1526 13.3843 11.9987 13.3843C11.8351 13.3843 11.676 13.3644 11.5237 13.3271C11.4811 13.3425 11.4366 13.3506 11.3906 13.3516C11.5829 13.411 11.7872 13.4432 11.9989 13.4432C12.2106 13.4432 12.414 13.4112 12.606 13.352H12.5835V13.3521Z" fill="white"/>
<path d="M11.1771 9.86895L11.1795 9.86328C11.0674 9.92406 10.9627 9.99709 10.8672 10.0804C10.8695 10.0828 10.8718 10.0854 10.8741 10.088C10.8845 10.0994 10.8955 10.1113 10.9068 10.124C10.9797 10.0605 11.0583 10.0034 11.1414 9.95315C11.1471 9.93922 11.1527 9.92575 11.1582 9.91273C11.1582 9.91273 11.1737 9.87691 11.1769 9.86925L11.1771 9.86895Z" fill="white"/>
<path d="M12.1623 13.0375C12.1093 13.0425 12.0556 13.0453 12.0013 13.0453C11.9333 13.0453 11.8662 13.0412 11.8004 13.0332C11.7989 13.0367 11.7973 13.0401 11.7956 13.0438C11.788 13.0605 11.7803 13.0758 11.7734 13.0892C11.848 13.0992 11.9239 13.1042 12.0013 13.1042C12.0619 13.1042 12.1217 13.101 12.1807 13.0949C12.1735 13.0773 12.1672 13.0582 12.1623 13.0375Z" fill="white"/>
<path d="M18.7815 13.4417C17.8964 16.3485 15.1903 18.4695 11.9981 18.4695C8.80591 18.4695 6.08221 16.3349 5.20615 13.4137C5.18411 13.4094 5.16237 13.4048 5.14062 13.3999C6.01423 16.3611 8.75784 18.5284 11.9981 18.5284C15.2384 18.5284 17.935 16.398 18.8328 13.4758C18.8149 13.4656 18.7979 13.4543 18.7817 13.4419L18.7815 13.4417Z" fill="white"/>
<path d="M19.3652 12.7297C19.4028 12.524 19.4321 12.3153 19.4523 12.104L19.4357 12.1518C19.4341 12.1574 19.4316 12.1656 19.4284 12.175C19.4258 12.1829 19.4226 12.1919 19.4186 12.2015L19.4177 12.204C19.4166 12.2064 19.4123 12.2165 19.4111 12.2193L19.4096 12.2228C19.405 12.2328 19.4001 12.2426 19.3949 12.2521C19.3878 12.2649 19.3803 12.2779 19.3727 12.2909C19.3561 12.4252 19.3361 12.5583 19.3125 12.6901C19.331 12.702 19.3486 12.7153 19.3653 12.7297H19.3652Z" fill="white"/>
<path d="M19.1059 13.5344C18.1805 16.5833 15.3434 18.8087 11.9962 18.8087C8.64908 18.8087 5.66693 16.4679 4.8192 13.2987C4.79562 13.2887 4.77251 13.2783 4.75 13.2676C5.58855 16.4855 8.5194 18.8676 11.9962 18.8676C15.473 18.8676 18.247 16.6107 19.1706 13.5231C19.1495 13.5283 19.1279 13.5321 19.1057 13.5344H19.1059Z" fill="white"/>
<path d="M19.0579 12.7349C19.1242 12.7349 19.1842 12.7503 19.2378 12.7814C19.2923 12.8116 19.3351 12.8531 19.3661 12.9059C19.3971 12.9587 19.4126 13.0161 19.4126 13.0783C19.4126 13.1404 19.3971 13.1991 19.3661 13.2519C19.335 13.3039 19.2923 13.3454 19.2378 13.3764C19.1842 13.4065 19.1242 13.4217 19.0579 13.4217C18.9916 13.4217 18.9312 13.4065 18.8767 13.3764C18.8232 13.3453 18.7807 13.3038 18.7497 13.2519C18.7186 13.1991 18.7031 13.1412 18.7031 13.0783C18.7031 13.0153 18.7186 12.9587 18.7497 12.9059C18.7807 12.8531 18.823 12.8116 18.8767 12.7814C18.9312 12.7503 18.9917 12.7349 19.0579 12.7349ZM19.0579 13.3551C19.1124 13.3551 19.1606 13.3433 19.2025 13.3199C19.2453 13.2955 19.2785 13.2625 19.3019 13.2205C19.3253 13.1786 19.3371 13.1312 19.3371 13.0784C19.3371 13.0256 19.3253 12.9795 19.3019 12.9376C19.2785 12.8956 19.2453 12.8629 19.2025 12.8394C19.1598 12.8151 19.1116 12.803 19.0579 12.803C19.0041 12.803 18.9559 12.8151 18.9132 12.8394C18.8705 12.8629 18.8372 12.8956 18.8138 12.9376C18.7904 12.9795 18.7786 13.0265 18.7786 13.0784C18.7786 13.1303 18.7904 13.1786 18.8138 13.2205C18.8372 13.2625 18.87 13.2955 18.912 13.3199C18.9547 13.3433 19.0034 13.3551 19.0579 13.3551ZM19.2064 13.018C19.2064 13.038 19.2013 13.0565 19.1912 13.0734C19.1811 13.0893 19.1669 13.1014 19.1485 13.1098L19.2303 13.2306H19.1396L19.0666 13.1173H19.0063V13.2306H18.927V12.9198H19.1069C19.137 12.9198 19.1609 12.9295 19.1785 12.9487C19.197 12.9671 19.2062 12.9902 19.2062 13.018H19.2064ZM19.0064 13.0481H19.092C19.1021 13.0481 19.1101 13.0457 19.1159 13.0406C19.1217 13.0348 19.1248 13.0271 19.1248 13.018C19.1248 13.0088 19.1219 13.0016 19.1159 12.9965C19.1101 12.9907 19.1021 12.9876 19.092 12.9876H19.0064V13.048V13.0481Z" fill="white"/>
<path d="M19.0733 12.0296C19.0713 12.0286 19.0692 12.0275 19.0672 12.0263C19.0583 12.0348 19.0499 12.044 19.0404 12.0517C19.0327 12.058 19.0226 12.0681 19.0153 12.0668C18.9915 12.0629 18.9773 12.078 18.9605 12.0886C18.926 12.1103 18.892 12.1327 18.8576 12.1544C18.7115 12.2463 18.5573 12.321 18.3926 12.3734C18.3526 12.3861 18.3124 12.4 18.2712 12.4072C18.1698 12.425 18.0683 12.4424 17.9642 12.4341C17.8973 12.4288 17.8327 12.4155 17.773 12.3856C17.7073 12.3527 17.6522 12.3064 17.6119 12.2432C17.5831 12.1979 17.5541 12.1526 17.5403 12.1007C17.5116 11.994 17.5026 11.8857 17.5204 11.7756C17.5432 11.6342 17.5858 11.4987 17.6442 11.3684C17.6937 11.2583 17.7467 11.1498 17.8007 11.0418C17.8681 10.9072 17.9485 10.7806 18.0408 10.6617C18.117 10.5635 18.2012 10.4741 18.3093 10.4095C18.3542 10.3827 18.4018 10.3671 18.4537 10.3653C18.5189 10.3628 18.5682 10.3963 18.5866 10.4579C18.5933 10.4805 18.597 10.5057 18.5949 10.5291C18.5864 10.6268 18.5515 10.7174 18.5087 10.8039C18.4468 10.9285 18.3672 11.0418 18.2762 11.1476C18.1493 11.2954 18.008 11.4263 17.8428 11.5304C17.8094 11.5515 17.7753 11.5712 17.7421 11.5925C17.718 11.608 17.7009 11.6342 17.6687 11.6374C17.6644 11.6378 17.6577 11.6492 17.6585 11.6547C17.6595 11.6622 17.6651 11.6718 17.6715 11.6749C17.6801 11.679 17.6914 11.679 17.7013 11.6787C17.7483 11.6775 17.7955 11.6747 17.8425 11.6738C18.0392 11.6702 18.2338 11.6478 18.4257 11.6037C18.5955 11.5647 18.7588 11.5083 18.9063 11.4134C19.002 11.3519 19.0883 11.2794 19.1616 11.1912C19.2373 11.1001 19.2951 10.9988 19.3411 10.891C19.3653 10.8341 19.3892 10.7739 19.396 10.7133C19.4066 10.6205 19.4109 10.5256 19.3764 10.4343C19.353 10.3721 19.3258 10.3106 19.2846 10.2598C19.237 10.201 19.1834 10.1462 19.1162 10.1065C19.0525 10.069 18.9876 10.0355 18.9187 10.0082C18.8239 9.97071 18.7256 9.95035 18.6252 9.9456C18.5019 9.93963 18.3785 9.94162 18.2551 9.95678C18.0885 9.97729 17.9273 10.0169 17.7709 10.0767C17.525 10.1707 17.3154 10.3209 17.1306 10.5041C16.9458 10.6874 16.802 10.9022 16.6838 11.1334C16.6451 11.2092 16.6106 11.2872 16.5766 11.3653C16.4793 11.5892 16.4194 11.8216 16.42 12.0673C16.4205 12.2161 16.4405 12.3614 16.5001 12.4994C16.5684 12.6577 16.6792 12.7805 16.8251 12.8693C16.9808 12.964 17.1548 13.0028 17.3356 13.0098C17.4694 13.015 17.6027 13.0087 17.7353 12.9858C18.036 12.9337 18.3081 12.8163 18.5531 12.6359C18.684 12.5395 18.7991 12.4265 18.9011 12.2999C18.9603 12.2264 19.0145 12.1495 19.06 12.0668C19.0663 12.0554 19.0689 12.042 19.0733 12.0295V12.0296ZM14.3583 12.9643C14.3772 12.966 14.3983 12.9694 14.4196 12.9694C14.7152 12.9697 15.0109 12.9697 15.3064 12.9697C15.3592 12.9697 15.3719 12.9608 15.3912 12.9114C15.4147 12.851 15.4383 12.7907 15.4614 12.7302C15.5016 12.626 15.5409 12.5214 15.5815 12.4173C15.6225 12.312 15.6651 12.2074 15.7063 12.1021C15.7673 11.9459 15.8275 11.7896 15.8883 11.6334C15.9498 11.4748 16.0115 11.3162 16.0732 11.1577C16.1267 11.0205 16.1804 10.8835 16.2342 10.7463C16.2388 10.7345 16.2447 10.7232 16.2492 10.7113C16.2594 10.6843 16.2783 10.6707 16.3076 10.6722C16.3216 10.6728 16.3357 10.6719 16.3498 10.6719C16.4797 10.6719 16.6097 10.6719 16.7397 10.6719C16.8133 10.6719 16.8037 10.6794 16.8453 10.6033C16.8472 10.6 16.8481 10.5963 16.8495 10.5926C16.9067 10.4459 16.9645 10.2994 17.0211 10.1526C17.0378 10.1093 17.0517 10.065 17.0696 10.0133C17.033 10.0301 17.0462 9.99765 17.0335 9.99184C16.8737 9.9874 16.7138 9.98296 16.5485 9.97852C16.5522 9.95448 16.552 9.93396 16.5586 9.9159C16.5845 9.84562 16.6123 9.77611 16.6396 9.70645C16.6944 9.5656 16.7493 9.4249 16.8039 9.28404C16.8267 9.2251 16.8489 9.16569 16.8701 9.10966C16.853 9.09695 16.8411 9.08638 16.8274 9.07858C16.8169 9.07245 16.8046 9.06648 16.7928 9.06618C16.7369 9.06449 16.6811 9.0648 16.6252 9.06403C16.6048 9.06373 16.5846 9.06112 16.5642 9.06128C16.5211 9.06174 16.4776 9.0602 16.4349 9.06556C16.4024 9.06954 16.372 9.08225 16.3537 9.11517C16.3142 9.18621 16.2734 9.25664 16.2317 9.3263C16.1169 9.51829 15.9667 9.68088 15.7989 9.82664C15.5966 10.0022 15.3638 10.1267 15.1092 10.2095C15.0173 10.2394 14.9237 10.2636 14.8313 10.2918C14.808 10.2988 14.7817 10.3034 14.7705 10.3314C14.7357 10.4187 14.6999 10.5055 14.6649 10.5928C14.6402 10.6542 14.6517 10.6719 14.7163 10.6721C14.859 10.6724 15.0017 10.6721 15.1444 10.6721C15.1559 10.6721 15.1673 10.6716 15.1788 10.6722C15.2105 10.6741 15.2153 10.6806 15.2062 10.7097C15.2052 10.7134 15.2036 10.7169 15.2022 10.7205C15.1751 10.7915 15.148 10.8627 15.1209 10.9337C15.0912 11.012 15.0618 11.0904 15.0317 11.1684C14.9896 11.2774 14.9467 11.3861 14.9043 11.495C14.8754 11.5696 14.8469 11.6443 14.8178 11.7187C14.785 11.8026 14.7518 11.8863 14.7192 11.9702C14.6903 12.0448 14.6624 12.1197 14.6333 12.1942C14.6025 12.2734 14.5704 12.3521 14.5396 12.4314C14.5098 12.5082 14.4811 12.5856 14.4514 12.6626C14.4216 12.7396 14.3911 12.8163 14.3609 12.8933C14.3525 12.9149 14.3461 12.9368 14.3582 12.9643H14.3583ZM11.5307 10.0186C11.5187 10.0466 11.5063 10.0744 11.4952 10.1025C11.4448 10.2301 11.3947 10.3576 11.3448 10.4853C11.3124 10.5681 11.2802 10.6509 11.248 10.7338C11.2095 10.8331 11.1712 10.9328 11.1323 11.032C11.0902 11.1396 11.0476 11.247 11.0054 11.3545C10.9627 11.4632 10.9204 11.572 10.8778 11.6807C10.8495 11.7528 10.8204 11.8245 10.7926 11.8966C10.7619 11.9759 10.7329 12.056 10.7019 12.1353C10.6467 12.2772 10.59 12.4188 10.5347 12.5608C10.4942 12.6649 10.4548 12.7694 10.4153 12.8738C10.409 12.8904 10.4035 12.9075 10.3999 12.9248C10.3945 12.9498 10.4043 12.964 10.4294 12.9679C10.4432 12.97 10.4574 12.9694 10.4714 12.9694C10.7658 12.9694 11.0602 12.9694 11.3546 12.9694C11.3635 12.9694 11.3725 12.9689 11.3814 12.9692C11.3969 12.9697 11.4082 12.9643 11.4151 12.9496C11.4289 12.9202 11.4452 12.8919 11.4572 12.8618C11.4873 12.7849 11.5152 12.7073 11.5448 12.6303C11.5863 12.5225 11.6287 12.4148 11.6705 12.3072C11.7155 12.1912 11.7597 12.0748 11.8049 11.9588C11.8468 11.8511 11.8892 11.7436 11.9315 11.636C11.9797 11.5131 12.0257 11.3891 12.0769 11.2673C12.12 11.1654 12.1702 11.0665 12.2374 10.9775C12.2986 10.8965 12.3703 10.827 12.46 10.7771C12.5219 10.7427 12.5889 10.7255 12.6583 10.7304C12.8203 10.7416 12.9408 10.8226 13.0239 10.9607C13.0311 10.9725 13.0384 10.9843 13.0452 10.995C13.0642 10.995 13.0753 10.9893 13.0818 10.9717C13.104 10.9121 13.128 10.8535 13.1511 10.7942C13.2073 10.6499 13.2635 10.5055 13.3195 10.361C13.3517 10.2781 13.3835 10.1952 13.4148 10.1119C13.4212 10.0949 13.4238 10.0765 13.4275 10.0618C13.4164 10.0586 13.4089 10.0586 13.4047 10.0549C13.3906 10.0425 13.38 10.0235 13.3639 10.0165C13.314 9.99474 13.263 9.97392 13.2107 9.95907C13.1275 9.93565 13.0412 9.93917 12.9562 9.94468C12.889 9.94912 12.8226 9.96474 12.7601 9.99107C12.6759 10.0266 12.6016 10.0779 12.5367 10.1422C12.4462 10.2317 12.3784 10.3375 12.3202 10.4499C12.2971 10.4945 12.278 10.5418 12.2374 10.583C12.2391 10.5557 12.2414 10.5344 12.2415 10.5132C12.2418 10.3974 12.242 10.2817 12.2414 10.1659C12.2411 10.1266 12.2377 10.0872 12.2366 10.0479C12.2362 10.0307 12.2297 10.0182 12.2135 10.0122C12.1981 10.0065 12.1826 9.99918 12.1665 9.9975C12.1325 9.99383 12.0981 9.99199 12.0639 9.99168C11.9263 9.9903 11.7887 9.98954 11.651 9.98939C11.6296 9.98939 11.6078 9.99214 11.5869 9.99704C11.5686 10.0012 11.5517 10.0101 11.531 10.0182L11.5307 10.0186ZM13.5395 12.9653C13.5558 12.9342 13.5712 12.9069 13.5842 12.8786C13.5948 12.8556 13.6022 12.8311 13.6115 12.8076C13.6545 12.6976 13.698 12.5879 13.7409 12.4779C13.77 12.4034 13.7983 12.3286 13.8274 12.2541C13.8583 12.1748 13.8897 12.0958 13.9205 12.0165C13.9499 11.9407 13.9783 11.8646 14.0079 11.789C14.0494 11.6826 14.0918 11.5765 14.1333 11.47C14.1749 11.3636 14.216 11.2571 14.2573 11.1505C14.2977 11.0464 14.3378 10.9421 14.3785 10.838C14.4275 10.7126 14.4781 10.5879 14.5254 10.462C14.539 10.4256 14.5612 10.3913 14.5609 10.3504C14.5609 10.347 14.5586 10.3437 14.5569 10.3392C14.5503 10.3417 14.5447 10.3438 14.5362 10.3469C14.5229 10.3212 14.497 10.3195 14.4715 10.3176C14.3522 10.3089 14.2326 10.3026 14.1152 10.2792C14.0267 10.2616 13.937 10.2461 13.8513 10.2192C13.7718 10.1942 13.6949 10.1629 13.6097 10.1596C13.5884 10.2129 13.5666 10.2671 13.5451 10.3212C13.5187 10.387 13.4919 10.4528 13.4661 10.5188C13.4238 10.6263 13.3823 10.7339 13.3402 10.8414C13.312 10.9135 13.2831 10.9853 13.2551 11.0574C13.2119 11.1686 13.1695 11.28 13.1262 11.3912C13.0986 11.4621 13.0694 11.5324 13.0418 11.6034C12.9986 11.7146 12.9564 11.826 12.9134 11.9373C12.8827 12.0166 12.8517 12.0956 12.8209 12.1749C12.802 12.2235 12.7841 12.2723 12.7653 12.3208C12.735 12.3988 12.7039 12.4765 12.6734 12.5545C12.6508 12.6123 12.6286 12.6705 12.6062 12.7286C12.5837 12.7866 12.558 12.8435 12.5398 12.9028C12.5228 12.9582 12.5364 12.9695 12.5868 12.9694C12.5894 12.9694 12.5918 12.9694 12.5944 12.9694C12.8938 12.9694 13.1932 12.9694 13.4925 12.9692C13.5088 12.9692 13.525 12.9665 13.5395 12.9651V12.9653ZM14.4055 8.76854L14.4049 8.76318C14.3507 8.76915 14.2953 8.76992 14.2427 8.78247C14.1585 8.80268 14.0788 8.83621 14.0048 8.88291C13.9018 8.94798 13.8243 9.03647 13.7706 9.1438C13.7197 9.24546 13.7009 9.35554 13.7076 9.46945C13.715 9.59561 13.7513 9.71242 13.8271 9.81408C13.9463 9.97408 14.1079 10.067 14.3055 10.0914C14.5036 10.1157 14.6852 10.0692 14.8437 9.94529C14.953 9.85986 15.0283 9.75055 15.0669 9.61643C15.087 9.54692 15.0874 9.47634 15.087 9.40499C15.086 9.26444 15.0302 9.1438 14.9521 9.03173C14.9164 8.98044 14.8686 8.9417 14.8157 8.90634C14.7572 8.86729 14.6952 8.83698 14.6316 8.80911C14.6087 8.79901 14.5825 8.7961 14.558 8.78967C14.5482 8.78722 14.5387 8.78385 14.5289 8.7814C14.5107 8.77696 14.4928 8.77084 14.4742 8.76915C14.4516 8.76701 14.4285 8.7687 14.4055 8.7687V8.76854Z" fill="white"/>
<path d="M6.94531 14.0094C6.94746 13.9549 6.96966 13.9059 6.9891 13.8563C7.02967 13.7522 7.07239 13.649 7.11281 13.5449C7.16808 13.403 7.22151 13.2603 7.27647 13.1182C7.31674 13.0141 7.35854 12.9105 7.39911 12.8063C7.43968 12.7022 7.47934 12.5978 7.52006 12.4939C7.56079 12.3899 7.60258 12.2864 7.64362 12.1824C7.67209 12.1105 7.69996 12.0382 7.72798 11.966C7.75967 11.8844 7.79136 11.8028 7.8229 11.7211C7.86623 11.6086 7.9091 11.4959 7.95304 11.3837C7.99376 11.2798 8.03617 11.1764 8.07674 11.0723C8.12666 10.9445 8.17488 10.8162 8.2248 10.6883C8.26491 10.5854 8.30686 10.4832 8.34743 10.3804C8.38372 10.2884 8.41893 10.1961 8.45522 10.1041C8.46501 10.0793 8.47328 10.0528 8.48874 10.032C8.49962 10.0173 8.52044 10.0072 8.53881 10.0015C8.56285 9.99414 8.58872 9.99001 8.61383 9.99001C8.92984 9.98955 9.24584 9.98817 9.56184 9.99093C9.7275 9.99231 9.8927 10.007 10.053 10.052C10.1274 10.0728 10.202 10.096 10.2722 10.1276C10.3555 10.1653 10.4332 10.2149 10.5059 10.271C10.5249 10.2857 10.5484 10.2959 10.5641 10.3134C10.613 10.3682 10.6665 10.4196 10.7032 10.4845C10.7668 10.5968 10.8087 10.7166 10.8182 10.8449C10.8277 10.9731 10.823 11.1014 10.7957 11.2283C10.7677 11.3592 10.7253 11.4852 10.6734 11.6085C10.5973 11.7896 10.5062 11.9621 10.3912 12.1221C10.3182 12.2238 10.2344 12.3158 10.145 12.4031C9.98181 12.5624 9.79242 12.6829 9.58496 12.7754C9.42972 12.8446 9.26697 12.8907 9.10024 12.9236C8.96 12.9513 8.81838 12.9669 8.67599 12.9758C8.61904 12.9793 8.56162 12.9764 8.5036 12.9764C8.49931 12.9679 8.49502 12.9591 8.48951 12.948C8.49563 12.9429 8.50161 12.9345 8.50895 12.9328C8.52855 12.9285 8.54264 12.9207 8.55412 12.9026C8.56223 12.8899 8.57999 12.8829 8.59408 12.8743C8.68808 12.8178 8.77811 12.7551 8.86033 12.6828C8.94239 12.6107 9.02062 12.5338 9.09825 12.4568C9.20802 12.3478 9.29881 12.2233 9.3818 12.0936C9.45437 11.9802 9.52234 11.8637 9.57256 11.7378C9.60226 11.6636 9.63717 11.5913 9.66442 11.5161C9.71464 11.3774 9.75674 11.2366 9.77052 11.0882C9.7768 11.0202 9.77435 10.9538 9.76241 10.8872C9.73301 10.7241 9.60778 10.6 9.44472 10.572C9.41839 10.5674 9.3919 10.5637 9.36557 10.5596C9.34 10.5556 9.32071 10.5646 9.308 10.5871C9.30356 10.5949 9.29835 10.6023 9.29514 10.6104C9.25686 10.7071 9.21905 10.8042 9.18092 10.9011C9.13913 11.0074 9.09672 11.1136 9.05507 11.2199C9.02644 11.2932 8.99873 11.3669 8.9701 11.4402C8.92662 11.5514 8.88253 11.6624 8.8392 11.7735C8.79954 11.8752 8.76081 11.9773 8.721 12.0789C8.67936 12.1854 8.63695 12.2915 8.59515 12.3979C8.56729 12.4687 8.54019 12.5399 8.51263 12.611C8.46884 12.7234 8.42475 12.8356 8.38096 12.9481C8.34085 13.051 8.30135 13.1542 8.26108 13.2571C8.21944 13.3635 8.17703 13.4696 8.13523 13.576C8.10874 13.6434 8.08317 13.711 8.05699 13.7784C8.02852 13.8517 7.99973 13.9249 7.97126 13.9982C7.96988 14.0016 7.97064 14.0058 7.97034 14.0096H6.94562L6.94531 14.0094Z" fill="white"/>
<path d="M4.5939 12.6126C4.59972 12.6207 4.60539 12.6288 4.60952 12.6345C4.74961 12.277 4.89046 11.9177 5.03162 11.5571C5.07235 11.5787 5.08353 11.6151 5.09807 11.6481C5.14997 11.7663 5.21657 11.8757 5.2942 11.9786C5.31088 12.0008 5.33263 12.0193 5.35238 12.0391C5.38744 12.0743 5.42403 12.108 5.45756 12.1446C5.52018 12.2124 5.5978 12.2609 5.6794 12.2978C5.82807 12.365 5.985 12.3834 6.14514 12.3389C6.32519 12.2886 6.42701 12.1666 6.46421 11.987C6.47615 11.929 6.46191 11.8728 6.44354 11.8185C6.41185 11.7249 6.36163 11.6403 6.30452 11.5606C6.20883 11.4273 6.10901 11.2968 6.01133 11.165C5.93248 11.0586 5.8567 10.9501 5.79408 10.8331C5.68553 10.6304 5.62827 10.4156 5.64404 10.1841C5.652 10.0662 5.68323 9.95428 5.72732 9.84497C5.77877 9.71759 5.84874 9.60107 5.93509 9.49543C6.01577 9.39653 6.11024 9.31094 6.21572 9.23807C6.29886 9.18065 6.38751 9.13304 6.47998 9.09338C6.60323 9.04041 6.73245 9.00734 6.86396 8.98131C7.06591 8.94135 7.26984 8.94656 7.47331 8.9536C7.5811 8.95743 7.6898 8.9709 7.7933 9.00275C7.85607 9.02204 7.92114 9.03566 7.98116 9.06261C8.03551 9.08695 8.08833 9.11558 8.13916 9.14651C8.1955 9.18096 8.25 9.21847 8.30283 9.25812C8.32671 9.27588 8.34646 9.30023 8.36391 9.32472C8.37019 9.3336 8.36774 9.35228 8.36345 9.36453C8.34753 9.41138 8.32977 9.45762 8.31186 9.5037C8.28093 9.58301 8.24939 9.66201 8.21816 9.74116C8.16365 9.87942 8.1093 10.0178 8.0548 10.1561C8.03398 10.2092 8.01101 10.2614 7.99279 10.3155C7.98361 10.3429 7.97273 10.3632 7.9415 10.3657C7.91915 10.3076 7.89879 10.2489 7.87414 10.1919C7.79024 9.99792 7.66745 9.83593 7.48127 9.7283C7.32572 9.63843 7.1593 9.61087 6.98384 9.65129C6.86243 9.67916 6.77409 9.75112 6.71913 9.86334C6.68728 9.9281 6.666 9.99516 6.67044 10.0687C6.67396 10.125 6.68575 10.1789 6.70749 10.2312C6.74577 10.3236 6.80242 10.4053 6.85493 10.4892C6.88708 10.5407 6.92827 10.5864 6.96501 10.635C6.98874 10.6664 7.01186 10.6982 7.03544 10.7298C7.04677 10.7451 7.05733 10.7611 7.07004 10.7754C7.13358 10.8467 7.18992 10.9233 7.24106 11.0038C7.26693 11.0445 7.29525 11.0836 7.32113 11.1243C7.41406 11.2708 7.4799 11.4282 7.5099 11.5995C7.51389 11.6219 7.51358 11.6452 7.51404 11.668C7.5148 11.7036 7.51297 11.7393 7.51496 11.7748C7.52093 11.8814 7.49322 11.9814 7.45617 12.0795C7.38436 12.2701 7.27673 12.439 7.13557 12.5854C7.02151 12.7037 6.88754 12.7957 6.7401 12.8688C6.55424 12.9608 6.35688 13.0131 6.15326 13.0439C5.94458 13.0754 5.73421 13.0791 5.524 13.0681C5.37748 13.0604 5.23265 13.0359 5.09256 12.9912C4.94206 12.9433 4.80197 12.8746 4.6827 12.7685C4.66081 12.749 4.63953 12.729 4.61687 12.7104C4.6112 12.7059 4.60156 12.7063 4.59375 12.7043C4.59375 12.6739 4.59375 12.6432 4.59375 12.6128L4.5939 12.6126Z" fill="white"/>
<path d="M19.0673 12.0298C19.0631 12.0424 19.0603 12.0557 19.054 12.0672C19.0086 12.1498 18.9544 12.2266 18.8951 12.3002C18.7931 12.4268 18.678 12.5398 18.5471 12.6363C18.3021 12.8166 18.0301 12.9342 17.7294 12.9861C17.5966 13.0091 17.4634 13.0153 17.3296 13.0101C17.1488 13.0031 16.9749 12.9644 16.8192 12.8696C16.6733 12.7808 16.5624 12.658 16.4941 12.4997C16.4346 12.3617 16.4145 12.2164 16.4141 12.0676C16.4135 11.8219 16.4733 11.5895 16.5707 11.3657C16.6047 11.2876 16.639 11.2095 16.6779 11.1337C16.7962 10.9025 16.94 10.6877 17.1246 10.5044C17.3094 10.3212 17.519 10.171 17.7649 10.077C17.9214 10.0173 18.0826 9.97747 18.2492 9.95711C18.3724 9.94195 18.496 9.94011 18.6192 9.94593C18.7196 9.95067 18.8179 9.97119 18.9127 10.0085C18.9818 10.0358 19.0467 10.0692 19.1102 10.1068C19.1774 10.1465 19.231 10.2013 19.2786 10.2601C19.3198 10.3109 19.3469 10.3725 19.3705 10.4346C19.4049 10.5259 19.4006 10.6208 19.3901 10.7136C19.3832 10.7742 19.3593 10.8344 19.3351 10.8913C19.2892 10.9993 19.2313 11.1005 19.1557 11.1916C19.0823 11.2799 18.996 11.3522 18.9003 11.4137C18.7529 11.5087 18.5895 11.565 18.4197 11.604C18.2279 11.6481 18.0333 11.6705 17.8365 11.6742C17.7895 11.6751 17.7424 11.6778 17.6954 11.6791C17.6853 11.6794 17.6741 11.6794 17.6655 11.6752C17.6591 11.6722 17.6536 11.6624 17.6525 11.655C17.6518 11.6495 17.6585 11.6382 17.6628 11.6377C17.6949 11.6345 17.7121 11.6083 17.7361 11.5929C17.7693 11.5716 17.8035 11.5517 17.8369 11.5307C18.0021 11.4264 18.1434 11.2955 18.2703 11.1479C18.3612 11.0421 18.4408 10.9288 18.5027 10.8042C18.5456 10.7177 18.5805 10.6271 18.5889 10.5294C18.5909 10.506 18.5874 10.4809 18.5806 10.4582C18.5623 10.3967 18.513 10.3631 18.4477 10.3656C18.3958 10.3676 18.3482 10.383 18.3034 10.4098C18.1953 10.4744 18.1111 10.5639 18.0348 10.662C17.9425 10.781 17.8621 10.9077 17.7948 11.0421C17.7407 11.1501 17.6877 11.2586 17.6383 11.3687C17.5798 11.499 17.5372 11.6345 17.5144 11.776C17.4968 11.8859 17.5058 11.9943 17.5343 12.101C17.5483 12.1529 17.5772 12.1982 17.606 12.2435C17.6462 12.3068 17.7012 12.353 17.767 12.3859C17.8266 12.4158 17.8912 12.4291 17.9583 12.4345C18.0624 12.4427 18.1639 12.4253 18.2652 12.4075C18.3064 12.4003 18.3465 12.3864 18.3866 12.3737C18.5514 12.3213 18.7056 12.2465 18.8516 12.1547C18.8861 12.133 18.9202 12.1107 18.9545 12.0889C18.9712 12.0783 18.9854 12.0632 19.0093 12.0672C19.0167 12.0684 19.0268 12.0583 19.0344 12.052C19.0439 12.0442 19.0523 12.0352 19.0612 12.0266C19.0632 12.0277 19.0654 12.0287 19.0673 12.03V12.0298Z" fill="white"/>
<path d="M14.3582 12.9646C14.3461 12.9369 14.3526 12.9151 14.361 12.8935C14.3912 12.8167 14.4216 12.74 14.4515 12.6628C14.4812 12.586 14.5098 12.5085 14.5397 12.4316C14.5704 12.3525 14.6024 12.2738 14.6334 12.1945C14.6625 12.1199 14.6903 12.045 14.7193 11.9705C14.7519 11.8866 14.7851 11.8028 14.8179 11.7189C14.8469 11.6444 14.8754 11.5697 14.9044 11.4953C14.9468 11.3864 14.9896 11.2777 15.0317 11.1687C15.0619 11.0906 15.0913 11.0122 15.121 10.934C15.1481 10.8628 15.1752 10.7917 15.2023 10.7207C15.2037 10.7172 15.2051 10.7137 15.2063 10.71C15.2153 10.6811 15.2106 10.6743 15.1789 10.6725C15.1674 10.6719 15.1559 10.6723 15.1444 10.6723C15.0017 10.6723 14.859 10.6725 14.7164 10.6723C14.6516 10.6723 14.6401 10.6544 14.6649 10.593C14.7 10.5059 14.7358 10.4189 14.7705 10.3317C14.7817 10.3037 14.8081 10.2991 14.8313 10.292C14.9237 10.2638 15.0174 10.2397 15.1092 10.2098C15.3638 10.127 15.5967 10.0025 15.7989 9.82689C15.9667 9.68114 16.1169 9.51854 16.2318 9.32655C16.2734 9.25674 16.3143 9.18646 16.3538 9.11542C16.372 9.0825 16.4025 9.0698 16.4349 9.06582C16.4777 9.06061 16.5211 9.06199 16.5643 9.06153C16.5847 9.06138 16.6049 9.06398 16.6252 9.06429C16.6811 9.06505 16.737 9.06475 16.7929 9.06643C16.8047 9.06674 16.8169 9.07286 16.8275 9.07883C16.8411 9.08664 16.8531 9.0972 16.8702 9.10991C16.8489 9.16595 16.8269 9.2252 16.8039 9.28429C16.7493 9.42515 16.6944 9.566 16.6396 9.70671C16.6125 9.77652 16.5845 9.84588 16.5586 9.91615C16.5521 9.93422 16.5522 9.95473 16.5485 9.97877C16.7139 9.98336 16.8737 9.9878 17.0336 9.99209C17.0464 9.99791 17.0789 9.98811 17.0697 10.0135C17.0518 10.0653 17.0379 10.1097 17.0212 10.1528C16.9645 10.2997 16.9068 10.4462 16.8495 10.5929C16.8482 10.5964 16.8472 10.6002 16.8454 10.6036C16.8038 10.6797 16.8134 10.6722 16.7398 10.6722C16.6098 10.6723 16.4798 10.6722 16.3498 10.6722C16.3357 10.6722 16.3218 10.6732 16.3077 10.6725C16.2783 10.6711 16.2595 10.6846 16.2492 10.7115C16.2446 10.7233 16.2388 10.7346 16.2342 10.7466C16.1805 10.8836 16.1267 11.0208 16.0733 11.158C16.0115 11.3164 15.9499 11.475 15.8884 11.6337C15.8277 11.7898 15.7674 11.9463 15.7063 12.1023C15.6651 12.2075 15.6226 12.3122 15.5815 12.4175C15.541 12.5217 15.5016 12.6262 15.4615 12.7305C15.4382 12.791 15.4147 12.8513 15.3912 12.9116C15.3719 12.9611 15.3592 12.9699 15.3064 12.9699C15.0108 12.9699 14.7151 12.9699 14.4196 12.9696C14.3985 12.9696 14.3772 12.9661 14.3584 12.9646H14.3582Z" fill="white"/>
<path d="M11.531 10.019C11.5517 10.011 11.5686 10.0021 11.5869 9.99783C11.6077 9.99308 11.6296 9.99017 11.651 9.99017C11.7887 9.99017 11.9263 9.99109 12.0639 9.99247C12.0982 9.99278 12.1325 9.99461 12.1665 9.99829C12.1826 9.99997 12.1981 10.0073 12.2135 10.013C12.2297 10.019 12.2362 10.0314 12.2366 10.0487C12.2377 10.088 12.2411 10.1274 12.2414 10.1667C12.2421 10.2824 12.2418 10.3982 12.2415 10.5139C12.2415 10.5352 12.2391 10.5565 12.2374 10.5838C12.2781 10.5424 12.2973 10.4953 12.3202 10.4507C12.3784 10.3382 12.4461 10.2325 12.5367 10.143C12.6016 10.0787 12.6757 10.0272 12.7601 9.99186C12.8226 9.96553 12.889 9.94975 12.9562 9.94547C13.0412 9.93996 13.1275 9.93644 13.2107 9.95986C13.263 9.97456 13.3139 9.99553 13.3639 10.0173C13.38 10.0243 13.3906 10.0433 13.4047 10.0557C13.4089 10.0594 13.4164 10.0595 13.4275 10.0626C13.4238 10.0771 13.4212 10.0955 13.4148 10.1127C13.3835 10.1959 13.3517 10.2788 13.3195 10.3618C13.2637 10.5063 13.2075 10.6507 13.1511 10.795C13.128 10.8541 13.104 10.9129 13.0818 10.9725C13.0752 10.9901 13.0642 10.9956 13.0452 10.9958C13.0384 10.9849 13.0311 10.9732 13.0239 10.9615C12.9408 10.8234 12.8203 10.7424 12.6583 10.7312C12.5889 10.7264 12.522 10.7434 12.46 10.7779C12.3703 10.8278 12.2986 10.8972 12.2374 10.9783C12.1702 11.0673 12.12 11.1662 12.0769 11.2681C12.0257 11.3898 11.9797 11.5139 11.9315 11.6368C11.8892 11.7444 11.8467 11.8518 11.8049 11.9595C11.7597 12.0756 11.7155 12.1919 11.6705 12.308C11.6287 12.4158 11.5863 12.5233 11.5448 12.631C11.5151 12.7081 11.4873 12.7858 11.4572 12.8625C11.4454 12.8927 11.4289 12.921 11.4151 12.9504C11.4082 12.9651 11.3969 12.9706 11.3814 12.97C11.3725 12.9697 11.3635 12.9702 11.3546 12.9702C11.0602 12.9702 10.7658 12.9702 10.4714 12.9702C10.4574 12.9702 10.4432 12.9706 10.4294 12.9686C10.4043 12.9648 10.3945 12.9506 10.3999 12.9256C10.4035 12.9083 10.409 12.8913 10.4153 12.8746C10.4548 12.7702 10.4942 12.6657 10.5347 12.5615C10.59 12.4195 10.6467 12.278 10.7019 12.1361C10.7329 12.0568 10.7619 11.9767 10.7926 11.8974C10.8204 11.8253 10.8497 11.7535 10.8778 11.6815C10.9206 11.5728 10.9628 11.4639 11.0054 11.3552C11.0476 11.2478 11.0902 11.1403 11.1323 11.0328C11.1712 10.9334 11.2095 10.8339 11.248 10.7346C11.2802 10.6517 11.3125 10.5689 11.3448 10.4861C11.3949 10.3584 11.4448 10.2309 11.4952 10.1033C11.5063 10.0751 11.5187 10.0473 11.5307 10.0194L11.531 10.019Z" fill="white"/>
<path d="M13.538 12.9656C13.5234 12.967 13.5072 12.9698 13.491 12.9698C13.1916 12.9701 12.8922 12.9699 12.5929 12.9699C12.5903 12.9699 12.5878 12.9699 12.5852 12.9699C12.5348 12.9702 12.5212 12.9587 12.5382 12.9033C12.5563 12.8441 12.5821 12.7869 12.6046 12.7291C12.6272 12.671 12.6492 12.6129 12.6719 12.555C12.7023 12.4771 12.7334 12.3993 12.7637 12.3214C12.7826 12.2728 12.8006 12.224 12.8193 12.1755C12.8499 12.0961 12.8811 12.0171 12.9118 11.9378C12.9546 11.8265 12.997 11.7151 13.0402 11.6039C13.0678 11.533 13.0969 11.4626 13.1246 11.3917C13.1679 11.2806 13.2103 11.1691 13.2535 11.058C13.2815 10.9858 13.3103 10.914 13.3386 10.8419C13.3807 10.7344 13.4222 10.6268 13.4645 10.5193C13.4903 10.4533 13.5171 10.3875 13.5435 10.3217C13.5652 10.2675 13.5868 10.2134 13.6081 10.1602C13.6932 10.1634 13.7702 10.1949 13.8497 10.2197C13.9356 10.2467 14.0251 10.2621 14.1136 10.2797C14.2312 10.3032 14.3508 10.3094 14.4699 10.3182C14.4955 10.32 14.5213 10.3217 14.5347 10.3474C14.5432 10.3442 14.5489 10.342 14.5553 10.3397C14.557 10.3443 14.5593 10.3476 14.5593 10.3509C14.5596 10.392 14.5374 10.4262 14.5238 10.4625C14.4765 10.5885 14.426 10.7133 14.377 10.8386C14.3364 10.9427 14.2961 11.0468 14.2557 11.151C14.2144 11.2576 14.1732 11.3642 14.1317 11.4706C14.0901 11.577 14.0478 11.6831 14.0063 11.7895C13.9768 11.8651 13.9483 11.9412 13.9189 12.017C13.8881 12.0963 13.8567 12.1753 13.8258 12.2546C13.7969 12.3292 13.7684 12.4039 13.7393 12.4784C13.6963 12.5884 13.6529 12.6981 13.6099 12.8081C13.6007 12.8317 13.5932 12.8561 13.5827 12.8791C13.5697 12.9074 13.5542 12.9347 13.538 12.9658V12.9656Z" fill="white"/>
<path d="M14.4023 8.7687C14.4253 8.7687 14.4482 8.76701 14.471 8.76915C14.4894 8.77084 14.5075 8.77696 14.5257 8.7814C14.5355 8.78385 14.545 8.78707 14.5548 8.78967C14.5794 8.7961 14.6055 8.79901 14.6284 8.80911C14.692 8.83698 14.754 8.86729 14.8124 8.90634C14.8654 8.94155 14.913 8.98044 14.9489 9.03173C15.0269 9.1438 15.0828 9.26444 15.0837 9.40499C15.0842 9.47634 15.0837 9.54692 15.0637 9.61643C15.0251 9.75055 14.9498 9.85986 14.8405 9.94529C14.682 10.0692 14.5004 10.1158 14.3023 10.0914C14.1047 10.067 13.9431 9.97408 13.8239 9.81408C13.7481 9.71258 13.7119 9.59561 13.7044 9.46945C13.6977 9.35554 13.7165 9.24546 13.7674 9.1438C13.8211 9.03647 13.8986 8.94783 14.0016 8.88291C14.0756 8.83621 14.1553 8.80268 14.2395 8.78247C14.2921 8.76992 14.3475 8.76915 14.4017 8.76318L14.4023 8.76854V8.7687Z" fill="white"/>
<path d="M11.0728 20.1548C11.0838 20.1389 11.1007 20.1273 11.123 20.1199C11.1454 20.1126 11.1751 20.1106 11.2118 20.1138C11.2694 20.1188 11.3122 20.1334 11.3403 20.1577C11.3683 20.1819 11.3839 20.2176 11.3871 20.2646L11.5742 20.281C11.5744 20.2326 11.5672 20.1897 11.5523 20.1522C11.5375 20.1147 11.5156 20.0829 11.4863 20.057C11.4572 20.0311 11.4216 20.0104 11.3795 19.995C11.3374 19.9797 11.2887 19.9694 11.2336 19.9647C11.1568 19.9579 11.0919 19.9636 11.0388 19.9814C10.9857 19.9993 10.9443 20.0273 10.9148 20.0654C10.8852 20.1035 10.8681 20.1493 10.8635 20.2029C10.8571 20.2764 10.8735 20.3353 10.9126 20.3794C10.9518 20.4235 11.0186 20.459 11.1129 20.4858L11.2283 20.5189C11.2574 20.527 11.2802 20.5364 11.2966 20.5466C11.313 20.5569 11.3245 20.5688 11.3309 20.5823C11.3374 20.5958 11.3398 20.612 11.3381 20.6313C11.3364 20.6504 11.3297 20.6669 11.3181 20.6809C11.3064 20.6948 11.2891 20.7049 11.2665 20.7113C11.2438 20.7178 11.2144 20.7195 11.1784 20.7162C11.1441 20.7132 11.1169 20.7066 11.0968 20.6963C11.0768 20.6861 11.0615 20.6718 11.0511 20.6536C11.0405 20.6354 11.0328 20.6128 11.0279 20.5858L10.8438 20.5925C10.8456 20.6273 10.8529 20.6604 10.8658 20.6918C10.8788 20.7231 10.8979 20.7507 10.9232 20.7747C10.9485 20.7988 10.9808 20.8185 11.0201 20.834C11.0595 20.8494 11.1066 20.8597 11.1619 20.8645C11.2299 20.8704 11.2904 20.8658 11.3432 20.8508C11.396 20.8357 11.4384 20.8103 11.4701 20.7744C11.5018 20.7386 11.5202 20.6927 11.5251 20.6366C11.5295 20.5863 11.5228 20.5434 11.505 20.508C11.4872 20.4727 11.4588 20.443 11.4197 20.4189C11.3807 20.395 11.3318 20.3748 11.2727 20.3583L11.1619 20.3268C11.1311 20.3193 11.1077 20.3095 11.0913 20.2977C11.0751 20.2857 11.0644 20.2726 11.0592 20.258C11.054 20.2435 11.0521 20.2278 11.0537 20.211C11.0555 20.1894 11.0621 20.1706 11.0731 20.1547L11.0728 20.1548Z" fill="white"/>
<path d="M10.5351 20.1982L10.4096 20.1757C10.3495 20.165 10.2973 20.1626 10.2531 20.1685C10.2088 20.1745 10.1715 20.1874 10.141 20.2073C10.1105 20.227 10.0864 20.2534 10.0683 20.286C10.0502 20.3186 10.0374 20.3562 10.0297 20.399C10.0222 20.4409 10.0214 20.4793 10.0274 20.5147C10.0334 20.5501 10.0472 20.5818 10.0691 20.6102C10.0909 20.6386 10.1216 20.6631 10.1611 20.6836C10.2006 20.7041 10.2508 20.7197 10.3116 20.7306L10.6161 20.7849L10.7672 19.9389L10.5872 19.9067L10.5351 20.1982ZM10.2644 20.5608C10.2451 20.5525 10.2304 20.5421 10.2205 20.5297C10.2105 20.5173 10.2042 20.5028 10.2019 20.4861C10.1996 20.4694 10.2004 20.4499 10.2044 20.4279C10.2093 20.4002 10.2182 20.3774 10.2307 20.3592C10.2433 20.3411 10.2618 20.329 10.286 20.3232C10.3103 20.3174 10.3425 20.318 10.3829 20.3252L10.5085 20.3475L10.4627 20.6035L10.3382 20.5813C10.3082 20.576 10.2835 20.5691 10.2643 20.5608H10.2644Z" fill="white"/>
<path d="M9.77042 20.0574L9.64503 20.0231C9.6334 20.0199 9.62099 20.017 9.60752 20.0141C9.60737 20.0141 9.60706 20.0141 9.60691 20.0141L9.54613 19.6681L9.3546 19.6157L9.43298 20.0086C9.41507 20.0124 9.39823 20.0173 9.38277 20.024C9.34602 20.0398 9.31571 20.0626 9.29167 20.0928C9.26763 20.1228 9.24972 20.1595 9.23793 20.2029C9.22783 20.2401 9.22446 20.2753 9.22783 20.3087C9.23119 20.342 9.24237 20.3736 9.2612 20.4033C9.28019 20.433 9.30821 20.4598 9.34526 20.4837C9.38246 20.5075 9.43038 20.5275 9.48917 20.5435L9.8015 20.6288L10.0279 19.7998L9.85371 19.7521L9.77027 20.0576L9.77042 20.0574ZM9.45028 20.3661C9.43023 20.3511 9.41783 20.3335 9.41293 20.3134C9.40803 20.2934 9.4091 20.2705 9.41599 20.245C9.42319 20.2186 9.43375 20.1974 9.44768 20.1813C9.46161 20.1652 9.48075 20.1553 9.5051 20.1514C9.52944 20.1476 9.56052 20.151 9.59849 20.1614L9.73199 20.1978L9.66601 20.4393L9.53939 20.4047C9.49989 20.3939 9.47019 20.3809 9.45013 20.3659L9.45028 20.3661Z" fill="white"/>
<path d="M9.08532 19.5164L8.80469 20.3286L8.98326 20.3903L9.26389 19.5781L9.08532 19.5164Z" fill="white"/>
<path d="M8.57521 19.3164L8.30682 19.957L8.06369 19.855L8 20.0072L8.66049 20.284L8.72418 20.1318L8.48227 20.0305L8.75066 19.3899L8.57521 19.3164Z" fill="white"/>
<path d="M7.72252 18.8936L7.63464 19.02L8.01847 19.221L7.92125 19.4066L7.58013 19.2279L7.50909 19.3633L7.85036 19.5419L7.76156 19.7116L7.39901 19.5217L7.32812 19.6571L7.85602 19.9336L8.2547 19.1722L7.72252 18.8936Z" fill="white"/>
<path d="M7.37723 19.2398C7.37983 19.1946 7.37034 19.1522 7.34876 19.1127C7.32717 19.0732 7.29486 19.04 7.25199 19.0132C7.20974 18.9869 7.1661 18.9726 7.12109 18.9705C7.07608 18.9684 7.03352 18.9783 6.9934 19C6.95329 19.0218 6.91899 19.0555 6.89052 19.1011C6.86204 19.1467 6.84658 19.1919 6.84413 19.2367C6.84168 19.2816 6.85117 19.3237 6.87245 19.3629C6.89373 19.4023 6.9265 19.4358 6.97074 19.4633C7.013 19.4897 7.05648 19.5038 7.10103 19.5057C7.14574 19.5076 7.188 19.4978 7.22796 19.4764C7.26792 19.4549 7.30206 19.4214 7.33054 19.3758C7.35901 19.3301 7.37463 19.2848 7.37723 19.2397V19.2398ZM7.27037 19.3384C7.24786 19.3745 7.22229 19.401 7.19366 19.4182C7.16503 19.4353 7.13472 19.4431 7.10257 19.4414C7.07041 19.4399 7.03811 19.4289 7.00534 19.4085C6.95696 19.3784 6.92757 19.3395 6.91716 19.2917C6.90675 19.2441 6.91823 19.1933 6.95176 19.1395C6.97426 19.1034 6.99983 19.0769 7.02846 19.0598C7.05709 19.0426 7.08756 19.0347 7.11987 19.036C7.15217 19.0373 7.18463 19.0481 7.21739 19.0685C7.26639 19.0991 7.29593 19.1383 7.30573 19.1861C7.31568 19.2338 7.30374 19.2847 7.27021 19.3384H7.27037Z" fill="white"/>
<path d="M7.15724 19.2225L7.12493 19.2024L7.1358 19.1113L7.06936 19.0698L7.05879 19.1817C7.04746 19.1813 7.0372 19.183 7.02802 19.1873C7.01408 19.1937 7.00184 19.2055 6.99112 19.2225C6.9827 19.2361 6.9778 19.2499 6.97673 19.2638C6.97566 19.2777 6.97979 19.292 6.98913 19.3064C6.99862 19.3208 7.01454 19.335 7.03705 19.3491L7.12692 19.4051L7.26135 19.1897L7.20118 19.152L7.15724 19.2225ZM7.04761 19.2788C7.04578 19.2719 7.04716 19.2647 7.05175 19.2572C7.05604 19.2505 7.0617 19.2459 7.06874 19.2437C7.07579 19.2416 7.0862 19.2447 7.09982 19.2532L7.12738 19.2704L7.09737 19.3183L7.07288 19.303C7.05787 19.2937 7.04945 19.2855 7.04761 19.2787V19.2788Z" fill="white"/>
<path d="M6.83938 18.6778L6.99248 18.7907C7.01514 18.7545 7.03244 18.7195 7.04454 18.6855C7.05663 18.6515 7.06276 18.6189 7.06291 18.5877C7.06291 18.5564 7.05724 18.526 7.04561 18.4964C7.03397 18.4669 7.01713 18.4387 6.99493 18.4119C6.97273 18.3851 6.94487 18.3594 6.91134 18.3346C6.82805 18.2732 6.74675 18.2479 6.66744 18.2588C6.58814 18.2697 6.51664 18.3184 6.45279 18.4049L6.125 18.8496L6.2781 18.9625L6.60666 18.5168C6.63759 18.4748 6.67005 18.4486 6.70404 18.4384C6.73802 18.4281 6.77508 18.4376 6.81519 18.4672C6.83525 18.4819 6.8501 18.4973 6.85959 18.5134C6.86923 18.5295 6.87459 18.5462 6.87582 18.5635C6.87704 18.5808 6.87444 18.5992 6.86816 18.6184C6.86189 18.6377 6.85224 18.6576 6.83923 18.6778H6.83938Z" fill="white"/>
<path d="M6.25902 18.4075C6.29714 18.3651 6.32745 18.3219 6.35011 18.2781C6.37277 18.2343 6.38747 18.1911 6.39436 18.1487C6.40109 18.1063 6.40018 18.0645 6.39145 18.0232C6.38272 17.9818 6.36665 17.9423 6.34337 17.9047C6.3201 17.867 6.28964 17.8313 6.25197 17.7975C6.2042 17.7546 6.1546 17.7237 6.10331 17.7046C6.05202 17.6854 5.99996 17.6782 5.94699 17.6831C5.89417 17.6879 5.84166 17.705 5.78945 17.7343C5.73739 17.7635 5.68718 17.805 5.63895 17.8587C5.60082 17.9011 5.57066 17.944 5.54831 17.9877C5.52596 18.0311 5.51141 18.0742 5.50452 18.1166C5.49779 18.159 5.49855 18.2006 5.50697 18.2417C5.51539 18.2827 5.53132 18.322 5.55474 18.3597C5.57801 18.3974 5.60848 18.433 5.64614 18.4669C5.6933 18.5093 5.74275 18.54 5.79435 18.5595C5.84594 18.5789 5.89815 18.5861 5.95112 18.5814C6.00395 18.5765 6.05646 18.5598 6.10867 18.5312C6.16088 18.5025 6.21109 18.4614 6.25932 18.4076L6.25902 18.4075ZM6.20482 18.121C6.19793 18.1461 6.1866 18.1717 6.17067 18.1979C6.15475 18.224 6.1347 18.2505 6.11066 18.2773C6.08065 18.3107 6.05049 18.3378 6.02002 18.3585C5.98955 18.3791 5.95924 18.3926 5.92892 18.3987C5.89861 18.4049 5.86906 18.4038 5.84058 18.3954C5.81195 18.3869 5.78424 18.3707 5.75745 18.3465C5.73601 18.3272 5.71933 18.307 5.70769 18.2857C5.69605 18.2645 5.68932 18.242 5.68748 18.2182C5.68564 18.1945 5.68794 18.1698 5.69452 18.1446C5.70111 18.1192 5.71244 18.0934 5.72836 18.0673C5.74428 18.0411 5.76434 18.0146 5.78838 17.9878C5.81838 17.9544 5.84885 17.9275 5.87947 17.907C5.91025 17.8866 5.94041 17.8733 5.97026 17.8672C6.00012 17.861 6.02936 17.862 6.05814 17.8701C6.08693 17.8782 6.11479 17.8943 6.14174 17.9184C6.16317 17.9377 6.18001 17.9581 6.19196 17.9797C6.2039 18.0013 6.21079 18.0238 6.21262 18.0477C6.21446 18.0714 6.21201 18.0959 6.20512 18.121H6.20482Z" fill="white"/>
<path d="M5.71285 17.3074L5.50157 17.4999L5.34142 17.5005L5.48167 17.0537L5.34066 16.8989L5.15709 17.4965L4.72656 17.5009L4.86436 17.6522L5.34158 17.6456L5.07763 17.8861L5.20562 18.0268L5.84085 17.448L5.71285 17.3074Z" fill="white"/>
<path d="M4.93131 16.3564L4.79796 16.4338L5.06022 16.7786L4.89349 16.9053L4.66032 16.5988L4.5386 16.6913L4.77178 16.9979L4.61944 17.1137L4.37172 16.788L4.25 16.8805L4.61071 17.3548L5.29478 16.8346L4.93131 16.3564Z" fill="white"/>
<path d="M4.61933 15.8775L3.89062 16.333L3.99077 16.4932L4.71948 16.0377L4.61933 15.8775Z" fill="white"/>
<path d="M4.45227 15.591L3.9553 15.8554L4.28263 15.2723L4.20409 15.1245L3.44531 15.5282L3.52906 15.6855L4.02695 15.4206L3.69747 16.0021L3.77724 16.152L4.53587 15.7483L4.45227 15.591Z" fill="white"/>
<path d="M3.99506 14.6407L3.79418 14.6469L3.68058 14.3449L3.83613 14.2182L3.76708 14.0347L3.07031 14.6235L3.14916 14.8331L4.06196 14.8189L3.99506 14.6408V14.6407ZM3.63511 14.6583L3.26644 14.6742L3.55397 14.4422L3.63526 14.6583H3.63511Z" fill="white"/>
<path d="M3.59506 13.3704C3.57775 13.2979 3.55341 13.2409 3.52203 13.1997C3.49079 13.1585 3.45405 13.1314 3.41225 13.1183C3.3703 13.1053 3.32513 13.1045 3.27675 13.116C3.24322 13.1239 3.21398 13.1373 3.18903 13.1555C3.16407 13.1739 3.14447 13.1984 3.12993 13.229C3.12044 13.249 3.11401 13.2728 3.10972 13.2994C3.08492 13.2703 3.05858 13.2498 3.03056 13.2385C2.99168 13.2225 2.94957 13.2201 2.90441 13.231C2.86077 13.2414 2.8251 13.2601 2.79769 13.2868C2.77029 13.3136 2.75284 13.3504 2.74549 13.3971C2.73814 13.4438 2.74304 13.5035 2.76049 13.5761L2.8401 13.9084L3.67589 13.7085L3.5949 13.3701L3.59506 13.3704ZM3.22164 13.3824C3.22516 13.3588 3.23419 13.3401 3.24904 13.3263C3.26389 13.3124 3.2841 13.3025 3.30998 13.2963C3.33493 13.2904 3.35713 13.2898 3.37642 13.2947C3.39572 13.2996 3.41225 13.3118 3.42618 13.3317C3.43996 13.3515 3.45144 13.3805 3.46063 13.4188L3.49676 13.5698L3.26619 13.6249L3.22929 13.4704C3.22087 13.4354 3.21842 13.406 3.22179 13.3825L3.22164 13.3824ZM2.89461 13.4822C2.89645 13.4603 2.90318 13.443 2.91497 13.4303C2.92676 13.4176 2.94437 13.4084 2.96779 13.4027C2.99045 13.3974 3.0102 13.3974 3.0272 13.4027C3.04419 13.4081 3.05874 13.4196 3.07068 13.4369C3.08262 13.4542 3.09242 13.4785 3.09992 13.5098L3.13498 13.6561L2.93717 13.7034L2.90441 13.5664C2.89614 13.5321 2.89292 13.5039 2.89476 13.4821L2.89461 13.4822Z" fill="white"/>
<path d="M3.08191 13.0373C3.1384 13.0296 3.18939 13.0163 3.23501 12.9975C3.28064 12.9787 3.31968 12.9554 3.35229 12.9274C3.3849 12.8994 3.41123 12.8669 3.43129 12.8297C3.45135 12.7925 3.46467 12.7521 3.4711 12.7083C3.47768 12.6645 3.47753 12.6175 3.47064 12.5674C3.46191 12.5039 3.44415 12.4482 3.41736 12.4004C3.39056 12.3526 3.3555 12.3134 3.31202 12.283C3.26854 12.2525 3.21756 12.2315 3.15877 12.2202C3.10013 12.2087 3.03506 12.2079 2.96341 12.2177C2.90691 12.2254 2.85608 12.2387 2.81092 12.2574C2.76575 12.2762 2.72671 12.2995 2.6941 12.3275C2.66149 12.3555 2.63515 12.3878 2.6151 12.4246C2.59504 12.4613 2.58172 12.5016 2.57514 12.5455C2.56855 12.5893 2.56871 12.6363 2.5756 12.6864C2.58417 12.7492 2.60193 12.8047 2.62872 12.8528C2.65552 12.901 2.69073 12.9402 2.73421 12.9709C2.77769 13.0013 2.82852 13.0224 2.88686 13.0344C2.94519 13.0463 3.0101 13.0473 3.0816 13.0375L3.08191 13.0373ZM2.77019 12.7574C2.75381 12.7325 2.74325 12.7022 2.73835 12.6665C2.73437 12.6379 2.73498 12.6117 2.73972 12.5879C2.74462 12.5642 2.75396 12.5426 2.76789 12.5233C2.78183 12.504 2.79959 12.4867 2.82102 12.4717C2.84246 12.4566 2.86772 12.4443 2.89665 12.4347C2.92574 12.425 2.95805 12.4178 2.99387 12.4129C3.03843 12.4068 3.079 12.4059 3.11559 12.4102C3.15218 12.4145 3.18388 12.424 3.21052 12.4385C3.23716 12.4531 3.2589 12.4728 3.27574 12.4976C3.29258 12.5224 3.3033 12.5527 3.3082 12.5886C3.31218 12.6172 3.31172 12.6435 3.30682 12.6677C3.30207 12.6919 3.29273 12.7136 3.27865 12.7329C3.26471 12.7522 3.24695 12.7692 3.22552 12.7839C3.20409 12.7986 3.17882 12.8109 3.14973 12.8204C3.12064 12.83 3.08834 12.8372 3.05251 12.8422C3.00796 12.8484 2.96739 12.8494 2.9308 12.8456C2.8942 12.8416 2.86236 12.8323 2.83526 12.8174C2.80816 12.8026 2.78642 12.7827 2.77004 12.7577L2.77019 12.7574Z" fill="white"/>
<path d="M2.6848 11.9001L3.37866 11.8695L3.37024 11.6795L2.67637 11.7101L2.66474 11.4468L2.5 11.4541L2.53169 12.1696L2.69643 12.1624L2.6848 11.9001Z" fill="white"/>
<path d="M2.67637 11.0666L3.37009 11.0971L3.37851 10.9071L2.68464 10.8766L2.69628 10.6133L2.53154 10.606L2.5 11.3216L2.66474 11.3288L2.67637 11.0666Z" fill="white"/>
<path d="M3.47162 9.98308L3.31071 9.94189L3.25972 10.3432L2.57076 10.2555L2.54688 10.443L3.39935 10.5514L3.47162 9.98308Z" fill="white"/>
<path d="M3.62126 9.28516L3.47566 9.23479L3.38609 9.65873L3.18109 9.6154L3.2607 9.23861L3.11112 9.20708L3.03166 9.58386L2.84426 9.54436L2.92893 9.14384L2.77934 9.1123L2.65625 9.69517L3.49709 9.87292L3.62126 9.28516Z" fill="white"/>
<path d="M4.42464 6.05119C4.46491 6.08181 4.50471 6.09911 4.54406 6.10293C4.58356 6.10676 4.62383 6.09865 4.66486 6.07859C4.70589 6.05853 4.74922 6.02791 4.79469 5.98688L4.88058 5.91002C4.90339 5.88813 4.92422 5.87343 4.94289 5.86593C4.96173 5.85858 4.97857 5.85659 4.99357 5.85996C5.00858 5.86333 5.02281 5.87022 5.03629 5.88048C5.05343 5.89364 5.06584 5.90911 5.07349 5.92702C5.08099 5.94493 5.08191 5.96529 5.07609 5.98811C5.07028 6.01092 5.05619 6.0371 5.03384 6.06634C4.99878 6.11227 4.96356 6.1406 4.92804 6.15147C4.89252 6.16234 4.85409 6.15637 4.81276 6.13386L4.69885 6.28314C4.73957 6.30916 4.77969 6.32585 4.81934 6.33351C4.85899 6.34101 4.89758 6.33948 4.93509 6.32861C4.9726 6.31789 5.00903 6.29875 5.04455 6.27135C5.08007 6.24394 5.11468 6.20827 5.14821 6.16418C5.1949 6.10293 5.22491 6.04506 5.23823 5.99056C5.25155 5.93605 5.25002 5.88614 5.23348 5.84097C5.2171 5.79566 5.18755 5.75677 5.14468 5.72416C5.08605 5.67945 5.02756 5.66184 4.96923 5.67134C4.91105 5.68098 4.84537 5.71834 4.77218 5.78371L4.68247 5.86363C4.65996 5.88384 4.64006 5.89808 4.6226 5.9065C4.60515 5.91492 4.58892 5.91814 4.57407 5.91645C4.55922 5.91477 4.54421 5.90803 4.5289 5.8964C4.51359 5.88476 4.50318 5.87022 4.49767 5.85292C4.49216 5.83562 4.49277 5.81571 4.49951 5.79305C4.50624 5.77039 4.52048 5.74467 4.54238 5.71604C4.56335 5.68864 4.58341 5.66919 4.60285 5.65771C4.62214 5.64623 4.64235 5.64087 4.66333 5.64179C4.6843 5.64271 4.70757 5.64822 4.73299 5.65863L4.82577 5.49925C4.79546 5.4821 4.76346 5.47062 4.73008 5.46495C4.6967 5.45914 4.66302 5.46051 4.62934 5.46909C4.5955 5.47766 4.56167 5.49435 4.52753 5.51931C4.49338 5.54426 4.45955 5.57871 4.42586 5.62265C4.38453 5.67685 4.35605 5.73043 4.34059 5.7831C4.32512 5.83592 4.32405 5.88522 4.33737 5.93131C4.35069 5.97739 4.37978 6.01735 4.42433 6.05149L4.42464 6.05119Z" fill="white"/>
<path d="M5.53911 5.65423L5.32048 5.45443L5.40652 5.36027C5.44771 5.31526 5.47756 5.27239 5.49609 5.23182C5.51477 5.19124 5.5238 5.15282 5.52334 5.11638C5.52288 5.08009 5.5137 5.04549 5.49563 5.01288C5.47772 4.98012 5.45276 4.94919 5.42076 4.91995C5.38938 4.89132 5.35722 4.87003 5.32415 4.8561C5.29108 4.84232 5.25679 4.83696 5.22127 4.84033C5.1856 4.8437 5.14854 4.85656 5.11012 4.87891C5.07169 4.90142 5.03157 4.93541 4.98993 4.98103L4.78125 5.20931L5.41571 5.78911L5.53911 5.65408V5.65423ZM5.10185 5.08346C5.12236 5.06095 5.14135 5.04381 5.1588 5.03186C5.1761 5.02008 5.19279 5.01319 5.20856 5.01135C5.22433 5.00951 5.23995 5.01211 5.25541 5.019C5.27072 5.02605 5.2868 5.03707 5.30333 5.05223C5.324 5.07121 5.3387 5.09081 5.34727 5.11117C5.35585 5.13153 5.35615 5.15358 5.34804 5.17716C5.34008 5.20074 5.32216 5.22768 5.2946 5.258L5.20856 5.35216L5.01657 5.1767L5.10185 5.08346Z" fill="white"/>
<path d="M6.06518 5.11135L5.85129 4.87787L5.94713 4.79014C5.95601 4.78202 5.9652 4.77299 5.97469 4.76319C5.97485 4.76304 5.975 4.76289 5.97515 4.76273L6.30034 4.89593L6.44686 4.76181L6.07298 4.61866C6.07926 4.60136 6.08385 4.58452 6.08646 4.56798C6.09273 4.52848 6.08952 4.49067 6.07697 4.45423C6.06441 4.41794 6.04282 4.38319 6.01251 4.34997C5.98648 4.32164 5.95846 4.2999 5.92846 4.2849C5.89845 4.26989 5.86584 4.26254 5.83062 4.2627C5.79541 4.26285 5.75775 4.27234 5.71779 4.29102C5.67783 4.3097 5.63526 4.33971 5.59025 4.38089L5.35156 4.59952L5.93198 5.23322L6.06518 5.11135ZM5.68058 4.49725C5.71074 4.46954 5.73754 4.45132 5.76096 4.44244C5.78439 4.43356 5.80582 4.43234 5.82542 4.43892C5.84501 4.4455 5.86369 4.45852 5.88161 4.47796C5.89998 4.49802 5.91238 4.51838 5.9185 4.53874C5.92463 4.55926 5.92294 4.58069 5.91315 4.6032C5.90335 4.62586 5.8839 4.65035 5.85497 4.67684L5.75285 4.77039L5.58367 4.58574L5.68043 4.4971L5.68058 4.49725Z" fill="white"/>
<path d="M6.13172 3.92081L5.98438 4.03906L6.52227 4.70927L6.66962 4.59101L6.13172 3.92081Z" fill="white"/>
<path d="M6.55957 3.80706L6.95902 4.37522L7.11457 4.26575L6.71513 3.69774L6.9307 3.54602L6.83593 3.41113L6.25 3.82313L6.34492 3.95802L6.55957 3.80706Z" fill="white"/>
<path d="M7.92825 3.76451L7.86793 3.62274L7.49359 3.84091L7.3881 3.6601L7.7208 3.46596L7.64379 3.33399L7.31109 3.52797L7.21479 3.36262L7.56831 3.15654L7.49129 3.02441L6.97656 3.3245L7.40938 4.06705L7.92825 3.76451Z" fill="white"/>
<path d="M7.9875 3.18876L7.95121 3.11405L7.98535 3.09751L8.0567 3.15523L8.12713 3.12109L8.03787 3.0525C8.0443 3.04316 8.04828 3.03352 8.04966 3.02356C8.05165 3.00841 8.04828 2.99172 8.0394 2.97365C8.03236 2.95926 8.02332 2.94778 8.01199 2.93936C8.00082 2.93094 7.98658 2.92696 7.96928 2.92726C7.95198 2.92757 7.93146 2.93354 7.90773 2.94518L7.8125 2.99141L7.9235 3.21984L7.98734 3.18876H7.9875ZM7.92779 2.99968C7.94371 2.99203 7.95504 2.98912 7.96178 2.99126C7.96851 2.99325 7.97387 2.9983 7.9777 3.00626C7.98122 3.01346 7.98198 3.02066 7.98015 3.02785C7.97831 3.03505 7.97004 3.04209 7.95565 3.04913L7.92641 3.06337L7.90176 3.01254L7.92779 2.99999V2.99968Z" fill="white"/>
<path d="M7.8171 3.28758C7.854 3.31391 7.89487 3.3283 7.93989 3.33106C7.9849 3.33382 8.03006 3.32402 8.07554 3.30197C8.12024 3.28023 8.15546 3.25083 8.18118 3.21378C8.2069 3.17673 8.22114 3.13539 8.22405 3.08992C8.22696 3.04445 8.21654 2.99745 8.19312 2.94907C8.16969 2.90069 8.13953 2.86364 8.10294 2.83761C8.06635 2.81173 8.02562 2.79734 7.98092 2.79443C7.93621 2.79152 7.89043 2.80163 7.84359 2.82429C7.79888 2.84603 7.76382 2.87527 7.7384 2.91217C7.71299 2.94907 7.6989 2.9901 7.69584 3.03526C7.69278 3.08043 7.70304 3.12728 7.72646 3.17551C7.74989 3.22389 7.78005 3.26124 7.81695 3.28743L7.8171 3.28758ZM7.79245 2.94754C7.81082 2.9212 7.83746 2.89962 7.87206 2.88277C7.92335 2.85782 7.97189 2.85368 8.01782 2.87022C8.06375 2.88675 8.10049 2.9235 8.1282 2.98045C8.14673 3.01873 8.15576 3.05456 8.155 3.08793C8.15423 3.12131 8.14474 3.15132 8.12652 3.17811C8.1083 3.2049 8.08181 3.22664 8.04721 3.24333C7.99531 3.26859 7.94632 3.27273 7.90069 3.25558C7.85491 3.23859 7.81817 3.20153 7.79061 3.14443C7.77209 3.10615 7.76305 3.07033 7.76382 3.03695C7.76458 3.00357 7.77408 2.97372 7.7926 2.94738L7.79245 2.94754Z" fill="white"/>
<path d="M8.54083 3.3695C8.56731 3.38635 8.5961 3.39752 8.62718 3.40349C8.65841 3.40931 8.69118 3.41008 8.72562 3.40548C8.76007 3.40089 8.79666 3.39109 8.83555 3.37594C8.93185 3.33812 8.99662 3.2827 9.02953 3.20982C9.0626 3.13694 9.05939 3.05044 9.02004 2.95031L8.81794 2.43604L8.64096 2.50554L8.84336 3.02089C8.8625 3.06942 8.86724 3.11091 8.8579 3.14521C8.84856 3.1795 8.8207 3.20568 8.77431 3.2239C8.75119 3.23294 8.73022 3.23738 8.71154 3.23692C8.69286 3.23646 8.67586 3.23217 8.66055 3.2239C8.64524 3.21564 8.63116 3.20385 8.61814 3.18823C8.60513 3.17261 8.59349 3.15394 8.58324 3.13219L8.40625 3.2017C8.42478 3.24013 8.44529 3.27351 8.46749 3.30183C8.48984 3.33016 8.51419 3.35266 8.54067 3.3695H8.54083Z" fill="white"/>
<path d="M9.17937 2.92927C9.20433 2.97183 9.23296 3.0072 9.26526 3.03568C9.29756 3.064 9.33339 3.08559 9.37304 3.10013C9.4127 3.11468 9.45465 3.12218 9.4989 3.12264C9.54314 3.12295 9.58969 3.11621 9.63837 3.10243C9.70007 3.08482 9.75274 3.05956 9.79637 3.02634C9.83986 2.99311 9.87369 2.95285 9.89788 2.90554C9.92192 2.85823 9.93555 2.8048 9.93861 2.74509C9.94167 2.68538 9.9334 2.62077 9.91365 2.55141C9.89803 2.4966 9.87783 2.44807 9.85302 2.40596C9.82807 2.36386 9.79959 2.32849 9.76728 2.30017C9.73498 2.27185 9.69931 2.25026 9.66011 2.23556C9.62092 2.22086 9.57912 2.21336 9.53487 2.2129C9.49063 2.21259 9.44408 2.21933 9.3954 2.23311C9.33446 2.25041 9.28195 2.27583 9.23801 2.30905C9.19407 2.34243 9.16008 2.38269 9.13604 2.43C9.112 2.47731 9.09807 2.53074 9.09455 2.58999C9.09103 2.6494 9.09914 2.71385 9.11874 2.78336C9.13436 2.83817 9.15457 2.88686 9.17968 2.92942L9.17937 2.92927ZM9.302 2.50839C9.31303 2.47945 9.32956 2.45511 9.35192 2.43536C9.37427 2.41561 9.40275 2.40091 9.4375 2.39096C9.46521 2.383 9.49124 2.37994 9.51543 2.38131C9.53962 2.38285 9.56228 2.38912 9.58341 2.40015C9.60454 2.41132 9.62398 2.42633 9.64189 2.44546C9.65981 2.4646 9.67558 2.48787 9.6892 2.51528C9.70283 2.54268 9.71462 2.57376 9.72442 2.60852C9.73666 2.65169 9.74325 2.69181 9.74417 2.7287C9.74508 2.7656 9.74019 2.79821 9.72947 2.82669C9.71875 2.85517 9.70237 2.87951 9.68002 2.89957C9.65782 2.91962 9.62934 2.93463 9.59459 2.94443C9.56672 2.95239 9.54054 2.9556 9.51604 2.95423C9.49139 2.95285 9.46858 2.94657 9.44761 2.93555C9.42648 2.92452 9.40719 2.90937 9.38958 2.89008C9.37197 2.87094 9.35636 2.84751 9.34288 2.82011C9.32926 2.7927 9.31747 2.76162 9.30767 2.72687C9.29542 2.68369 9.28868 2.64373 9.28731 2.60684C9.28608 2.57009 9.29083 2.53717 9.30185 2.50824L9.302 2.50839Z" fill="white"/>
<path d="M10.3371 2.91175L10.2872 2.63035L10.3722 2.49455L10.6749 2.85189L10.8811 2.8153L10.4742 2.34083L10.7004 1.97461L10.499 2.01028L10.2496 2.41723L10.1872 2.06555L10 2.09862L10.1499 2.94498L10.3371 2.91175Z" fill="white"/>
<path d="M11.5627 2.75917L11.5689 2.60514L11.1371 2.64235L11.1192 2.43382L11.5029 2.4006L11.4897 2.24841L11.106 2.28148L11.0897 2.09072L11.4974 2.05566L11.4842 1.90332L10.8906 1.95446L10.9644 2.81076L11.5627 2.75917Z" fill="white"/>
<path d="M11.9514 1.89319L11.9375 2.75244L12.1264 2.75551L12.1404 1.89625L11.9514 1.89319Z" fill="white"/>
<path d="M12.8269 2.79046L12.9938 2.80271L13.0566 1.94564L12.879 1.93262L12.8376 2.49513L12.5212 1.90644L12.352 1.89404L12.2891 2.75111L12.4668 2.76413L12.508 2.2027L12.8269 2.79046Z" fill="white"/>
<path d="M13.8021 2.06445L13.3281 2.84482L13.5145 2.88294L13.6161 2.70963L13.9323 2.77424L13.9566 2.97327L14.1488 3.01262L14.0214 2.10947L13.802 2.06461L13.8021 2.06445ZM13.8741 2.24818L13.9173 2.61501L13.6911 2.56877L13.8741 2.24818Z" fill="white"/>
<path d="M14.9816 3.24805C15.0331 3.24346 15.0757 3.22693 15.109 3.19845C15.1424 3.16997 15.1671 3.13216 15.183 3.085C15.194 3.05239 15.1984 3.02054 15.1961 2.98977C15.1938 2.959 15.1836 2.92914 15.1654 2.90051C15.1534 2.88183 15.1372 2.86361 15.1168 2.84585C15.1545 2.84034 15.1857 2.82901 15.2102 2.8114C15.2444 2.78691 15.2689 2.75277 15.2839 2.70867C15.2983 2.66611 15.3015 2.62615 15.2934 2.58864C15.2852 2.55113 15.2635 2.51683 15.2278 2.48575C15.1922 2.45467 15.139 2.42712 15.0683 2.40308L14.7445 2.29346L14.4688 3.10751L14.7982 3.21912C14.869 3.243 14.9301 3.2528 14.9815 3.24821L14.9816 3.24805ZM15.0129 3.01718C15.0046 3.04152 14.9933 3.0605 14.9789 3.07428C14.9645 3.08806 14.9452 3.09556 14.9212 3.09664C14.897 3.09786 14.8664 3.09204 14.8292 3.07949L14.6822 3.02973L14.7583 2.80513L14.9088 2.85611C14.9429 2.86775 14.9691 2.88122 14.9872 2.89668C15.0052 2.91215 15.0161 2.92975 15.0201 2.94981C15.0239 2.96971 15.0216 2.99222 15.013 3.01733L15.0129 3.01718ZM15.0766 2.56659C15.0942 2.57976 15.1052 2.59476 15.1096 2.61145C15.1141 2.62829 15.1125 2.64804 15.1047 2.67086C15.0972 2.6929 15.0867 2.70959 15.073 2.72107C15.0594 2.73256 15.0421 2.73868 15.021 2.7396C14.9999 2.74052 14.9741 2.73577 14.9438 2.72551L14.8013 2.67729L14.8665 2.48468L14.9999 2.52985C15.0332 2.54118 15.0588 2.55343 15.0764 2.56659H15.0766Z" fill="white"/>
<path d="M15.3494 3.36597C15.3703 3.40271 15.3974 3.43548 15.431 3.46441C15.4646 3.49335 15.5045 3.51815 15.5505 3.53898C15.6089 3.56546 15.6654 3.58016 15.7203 3.58292C15.7749 3.58567 15.8268 3.57679 15.8756 3.55628C15.9246 3.53576 15.9695 3.50361 16.0104 3.46013C16.0513 3.41649 16.0866 3.36183 16.1165 3.29615C16.1401 3.24425 16.1558 3.19419 16.1641 3.14596C16.1724 3.09773 16.1733 3.05226 16.167 3.00985C16.1607 2.96729 16.1474 2.92779 16.1269 2.8912C16.1065 2.8546 16.0794 2.82184 16.0459 2.79306C16.0122 2.76412 15.9724 2.73932 15.9265 2.7185C15.8688 2.69232 15.8123 2.67777 15.7573 2.67486C15.7022 2.67195 15.6503 2.68068 15.6013 2.70135C15.5523 2.72186 15.5073 2.75371 15.4663 2.79673C15.4251 2.83975 15.3897 2.89426 15.3598 2.95994C15.3363 3.01184 15.3203 3.06206 15.3119 3.11075C15.3035 3.15943 15.3024 3.2049 15.3087 3.24747C15.315 3.29003 15.3285 3.32953 15.3493 3.36627L15.3494 3.36597ZM15.5073 3.13295C15.5146 3.10324 15.5257 3.07186 15.5407 3.03909C15.5592 2.99822 15.5799 2.96331 15.6027 2.93437C15.6255 2.90543 15.6504 2.88354 15.6774 2.86854C15.7045 2.85353 15.7328 2.84572 15.7627 2.84511C15.7924 2.8445 15.8237 2.8517 15.8567 2.86655C15.883 2.87849 15.9049 2.89288 15.9223 2.90957C15.9398 2.92626 15.9531 2.9457 15.962 2.9679C15.9709 2.98995 15.9761 3.01414 15.9775 3.04032C15.9788 3.0665 15.9758 3.09436 15.9686 3.12422C15.9612 3.15392 15.9502 3.18531 15.9352 3.21807C15.9167 3.25895 15.8959 3.29386 15.8727 3.32249C15.8496 3.35127 15.8247 3.37301 15.7982 3.38786C15.7717 3.40271 15.7434 3.41067 15.7134 3.41159C15.6834 3.41251 15.652 3.40562 15.619 3.39062C15.5927 3.37868 15.5707 3.36428 15.5528 3.34729C15.5348 3.33045 15.5215 3.31085 15.5125 3.2888C15.5036 3.26676 15.4986 3.24272 15.4976 3.21669C15.4966 3.19067 15.4998 3.1628 15.5071 3.1331L15.5073 3.13295Z" fill="white"/>
<path d="M16.3527 3.92966L16.6967 3.32643L16.9258 3.45703L17.0074 3.31372L16.3853 2.95898L16.3037 3.10214L16.5315 3.23212L16.1875 3.8355L16.3527 3.92966Z" fill="white"/>
<path d="M16.8438 4.24015L16.9998 4.3487L17.3965 3.77855L17.6128 3.92905L17.7069 3.7937L17.119 3.38477L17.0249 3.52011L17.2403 3.67L16.8438 4.24015Z" fill="white"/>
<path d="M17.7308 4.92347L17.8516 4.80941L17.5398 4.55174L17.9822 4.01634L17.8366 3.896L17.2891 4.55847L17.7308 4.92347Z" fill="white"/>
<path d="M18.243 5.41812L18.3635 5.32198L18.0529 5.0199L18.1989 4.86971L18.475 5.13825L18.5815 5.02863L18.3055 4.76009L18.439 4.62291L18.7323 4.90829L18.8389 4.79867L18.4117 4.3833L17.8125 4.99939L18.243 5.41812Z" fill="white"/>
<path d="M19.8768 7.90628C19.908 7.97671 19.9443 8.03091 19.9856 8.06872C20.027 8.10654 20.0715 8.1292 20.1191 8.13655C20.1667 8.1439 20.2151 8.13685 20.2643 8.11496C20.3318 8.0851 20.3753 8.04223 20.395 7.98666C20.4146 7.93093 20.4134 7.85545 20.3913 7.75991L20.3644 7.64279C20.3575 7.61339 20.3546 7.58905 20.3557 7.56961C20.3567 7.55031 20.3616 7.53454 20.3702 7.5223C20.3788 7.51005 20.392 7.5001 20.4096 7.49229C20.4272 7.48448 20.4449 7.48234 20.4627 7.48586C20.4805 7.48938 20.4978 7.49948 20.5143 7.51633C20.531 7.53301 20.5466 7.55797 20.5611 7.59104C20.5751 7.62258 20.5824 7.64952 20.5832 7.67203C20.5839 7.69454 20.5789 7.71475 20.568 7.73281C20.5572 7.75088 20.5411 7.76849 20.5198 7.78579L20.6149 7.94379C20.6444 7.92542 20.6698 7.90291 20.691 7.87642C20.7121 7.84994 20.7271 7.81978 20.7358 7.78609C20.7446 7.75241 20.7462 7.71459 20.7409 7.67264C20.7355 7.63069 20.7216 7.58446 20.6991 7.53378C20.6714 7.47147 20.6383 7.42079 20.5994 7.38175C20.5607 7.34271 20.5178 7.31806 20.4711 7.30765C20.4244 7.29723 20.3753 7.30336 20.324 7.32617C20.2777 7.34669 20.2434 7.37333 20.2211 7.40594C20.1987 7.4387 20.1865 7.4779 20.1844 7.52352C20.1822 7.5693 20.1882 7.62181 20.2024 7.68137L20.2284 7.7936C20.2367 7.82422 20.2396 7.84948 20.237 7.86938C20.2344 7.88944 20.2281 7.90521 20.2179 7.91669C20.2076 7.92817 20.1948 7.93751 20.1794 7.94425C20.1597 7.95298 20.1401 7.9565 20.1208 7.95451C20.1015 7.95252 20.0831 7.94348 20.066 7.92741C20.0489 7.91133 20.0326 7.88638 20.0178 7.85269C19.9943 7.79987 19.9864 7.75532 19.994 7.71903C20.0017 7.68275 20.0253 7.65182 20.0649 7.62641L19.9888 7.45478C19.9464 7.4779 19.9124 7.50515 19.8867 7.53623C19.861 7.56731 19.8438 7.60191 19.8353 7.64003C19.8267 7.67816 19.8258 7.71934 19.8328 7.76359C19.8397 7.80799 19.8544 7.85545 19.8769 7.90597L19.8768 7.90628Z" fill="white"/>
<path d="M20.1368 8.49541L20.4171 8.40018L20.4581 8.52098C20.4777 8.5787 20.5008 8.62555 20.5275 8.66137C20.5541 8.6972 20.5834 8.72369 20.6155 8.74083C20.6475 8.75798 20.6823 8.7664 20.7196 8.76655C20.757 8.76655 20.796 8.75966 20.8372 8.74573C20.8775 8.73211 20.9116 8.71404 20.9396 8.69184C20.9677 8.66964 20.9888 8.64208 21.0032 8.60932C21.0174 8.57655 21.024 8.53782 21.0229 8.49327C21.0219 8.44871 21.0113 8.39727 20.9914 8.33878L20.8919 8.0459L20.0781 8.32225L20.1369 8.49556L20.1368 8.49541ZM20.8593 8.51577C20.8533 8.53047 20.8435 8.54287 20.83 8.55298C20.8165 8.56308 20.7991 8.57181 20.7778 8.579C20.7512 8.58804 20.727 8.5914 20.7049 8.58911C20.683 8.58681 20.6636 8.5764 20.6468 8.55803C20.6299 8.53966 20.6149 8.51103 20.6017 8.47229L20.5607 8.35149L20.8069 8.2679L20.8475 8.38762C20.8573 8.41656 20.8632 8.44136 20.8652 8.46234C20.8672 8.48331 20.8652 8.50107 20.8593 8.51593V8.51577Z" fill="white"/>
<path d="M20.3549 9.2174L20.6626 9.14299L20.6933 9.2693C20.696 9.28093 20.6995 9.29333 20.7035 9.3065C20.7035 9.30665 20.7035 9.30696 20.7037 9.30711L20.4299 9.52743L20.4766 9.72049L20.7825 9.46236C20.7946 9.47614 20.8072 9.48839 20.8205 9.49865C20.852 9.5233 20.8868 9.53876 20.9246 9.54534C20.9624 9.55177 21.0033 9.54978 21.0469 9.53922C21.0844 9.53019 21.1169 9.5161 21.1445 9.49712C21.172 9.47813 21.1942 9.45302 21.2112 9.4221C21.2281 9.39117 21.238 9.35366 21.2409 9.30956C21.2438 9.26547 21.2382 9.21387 21.2239 9.15462L21.1478 8.83984L20.3125 9.04194L20.3549 9.2174ZM21.0875 9.2742C21.084 9.299 21.0746 9.31829 21.0595 9.33238C21.0443 9.34631 21.0238 9.35641 20.9981 9.36269C20.9716 9.36912 20.9479 9.37004 20.9271 9.3656C20.9062 9.36116 20.8882 9.34922 20.8732 9.32977C20.8582 9.31033 20.8461 9.28139 20.8367 9.24327L20.8041 9.10869L21.0474 9.0499L21.0782 9.17744C21.0878 9.21724 21.0909 9.24955 21.0874 9.27435L21.0875 9.2742Z" fill="white"/>
<path d="M21.339 9.66349L20.4922 9.81006L20.5244 9.99622L21.3712 9.84965L21.339 9.66349Z" fill="white"/>
<path d="M21.2608 10.278L20.5703 10.3527L20.5907 10.5418L21.2812 10.4671L21.3095 10.7292L21.4735 10.7114L21.3965 9.99951L21.2325 10.0173L21.2608 10.278Z" fill="white"/>
<path d="M20.6391 11.4975L20.7923 11.5131L20.7822 11.08L20.9917 11.0751L21.0006 11.4601L21.1534 11.4566L21.1445 11.0715L21.3357 11.0671L21.3454 11.4762L21.4981 11.4727L21.4842 10.877L20.625 10.897L20.6391 11.4975Z" fill="white"/>
<path d="M21.4732 11.7438C21.4532 11.7038 21.4241 11.6715 21.3859 11.6472C21.3478 11.6227 21.3019 11.6092 21.2481 11.6065C21.1944 11.6037 21.1473 11.6121 21.1064 11.6317C21.0656 11.6513 21.0332 11.6803 21.0092 11.7184C20.9851 11.7565 20.9718 11.8009 20.9692 11.8513C20.9666 11.9009 20.9755 11.946 20.9955 11.9863C21.0156 12.0267 21.0448 12.0592 21.0834 12.0835C21.122 12.108 21.1681 12.1217 21.2218 12.1243C21.2756 12.127 21.3226 12.1186 21.363 12.0988C21.4034 12.0792 21.4355 12.0505 21.4596 12.0128C21.4836 11.975 21.4969 11.9301 21.4995 11.8781C21.5021 11.8283 21.4933 11.7836 21.4732 11.7435V11.7438ZM21.3754 12.0088C21.3388 12.0411 21.2889 12.0557 21.2255 12.0525C21.1829 12.0503 21.1473 12.0408 21.1185 12.0241C21.0895 12.0074 21.0678 11.9846 21.0532 11.9557C21.0387 11.9268 21.0323 11.8932 21.0343 11.8546C21.0372 11.7969 21.0572 11.7522 21.0941 11.7204C21.1312 11.6885 21.1812 11.6741 21.2446 11.6774C21.287 11.6795 21.3227 11.689 21.3516 11.7057C21.3806 11.7224 21.402 11.7452 21.4163 11.7741C21.4305 11.8029 21.4366 11.8366 21.4346 11.875C21.4317 11.932 21.412 11.9765 21.3754 12.0088Z" fill="white"/>
<path d="M21.1173 11.8248L21.2003 11.8291L21.1983 11.867L21.1134 11.9018L21.1094 11.9799L21.2124 11.9347C21.2176 11.9448 21.224 11.9531 21.2322 11.9591C21.2446 11.9681 21.2608 11.9732 21.2808 11.9742C21.2969 11.975 21.3113 11.9725 21.324 11.9667C21.3367 11.9609 21.3471 11.9505 21.3551 11.9352C21.3631 11.9199 21.3678 11.899 21.3692 11.8726L21.3745 11.7668L21.1209 11.7539L21.1172 11.8248H21.1173ZM21.3029 11.8975C21.2978 11.9024 21.2908 11.9047 21.2821 11.9043C21.2741 11.9038 21.2674 11.901 21.262 11.896C21.2567 11.8909 21.2544 11.8804 21.2551 11.8643L21.2568 11.8318L21.3133 11.8347L21.3118 11.8635C21.3109 11.8811 21.3079 11.8925 21.3027 11.8974L21.3029 11.8975Z" fill="white"/>
<path d="M20.7347 12.6087C20.7091 12.5839 20.6995 12.547 20.7059 12.4976C20.7091 12.4729 20.7154 12.4524 20.7248 12.4363C20.7341 12.4201 20.746 12.4072 20.7606 12.3979C20.7751 12.3884 20.7924 12.3818 20.8123 12.3778C20.8322 12.3738 20.8543 12.3728 20.8783 12.3741L20.9025 12.1855C20.8599 12.1832 20.8209 12.1851 20.7852 12.191C20.7497 12.197 20.7182 12.2074 20.6908 12.2226C20.6634 12.2376 20.6396 12.2575 20.6194 12.282C20.5992 12.3065 20.5828 12.335 20.5703 12.3673C20.5576 12.3996 20.5487 12.4365 20.5433 12.4778C20.5302 12.5805 20.5475 12.6638 20.5955 12.7278C20.6436 12.7918 20.7208 12.8307 20.8275 12.8445L21.3754 12.9149L21.3996 12.7263L20.8505 12.6557C20.7987 12.6491 20.7601 12.6334 20.7346 12.6087H20.7347Z" fill="white"/>
<path d="M21.2277 13.1994C21.1979 13.1555 21.1578 13.1177 21.1074 13.086C21.057 13.0543 20.9967 13.0304 20.9263 13.0142C20.8707 13.0014 20.8183 12.9958 20.769 12.9973C20.7197 12.9987 20.6749 13.0068 20.6344 13.0215C20.594 13.0362 20.5579 13.0573 20.526 13.085C20.4942 13.1128 20.4674 13.1458 20.4458 13.1846C20.4242 13.2233 20.4077 13.2672 20.3965 13.3165C20.3821 13.3792 20.3791 13.4375 20.3873 13.4917C20.3955 13.5459 20.4146 13.5949 20.4444 13.6388C20.4743 13.6828 20.5147 13.7203 20.5655 13.7518C20.6164 13.7832 20.677 13.8069 20.7474 13.8232C20.803 13.8359 20.8552 13.8414 20.9041 13.8398C20.9531 13.8383 20.9976 13.8302 21.038 13.8157C21.0784 13.801 21.1144 13.7801 21.1463 13.7527C21.178 13.7255 21.2048 13.6924 21.2263 13.6538C21.2479 13.6151 21.2645 13.5711 21.2756 13.5218C21.2897 13.46 21.2928 13.4018 21.2847 13.3473C21.2766 13.2928 21.2576 13.2435 21.2277 13.1997V13.1994ZM21.1166 13.4827C21.1101 13.5108 21.1003 13.5352 21.0875 13.5557C21.0746 13.5762 21.0581 13.593 21.0382 13.6062C21.0183 13.6194 20.9956 13.6292 20.9704 13.6358C20.9449 13.6423 20.9171 13.6449 20.8865 13.6437C20.8558 13.6425 20.8229 13.6379 20.7879 13.6298C20.7441 13.6197 20.7058 13.6062 20.673 13.5892C20.6403 13.5722 20.6139 13.5522 20.5942 13.5292C20.5743 13.5061 20.561 13.48 20.5541 13.4508C20.5472 13.4216 20.5478 13.3894 20.5558 13.3542C20.5622 13.326 20.572 13.3015 20.585 13.2806C20.598 13.2596 20.6144 13.2426 20.6343 13.2296C20.6542 13.2164 20.6767 13.2068 20.702 13.2006C20.7272 13.1945 20.7552 13.1921 20.7857 13.1933C20.8163 13.1945 20.8492 13.1991 20.8843 13.2072C20.9281 13.2173 20.9664 13.2305 20.9993 13.2472C21.0321 13.2637 21.0585 13.2838 21.0788 13.3073C21.0988 13.3309 21.1121 13.3571 21.1187 13.3862C21.1251 13.4153 21.1244 13.4474 21.1164 13.4827H21.1166Z" fill="white"/>
<path d="M20.2242 14.0209L20.4949 14.1126L20.5729 14.2524L20.1141 14.3458L20.0469 14.5442L20.6587 14.4157L20.8709 14.7904L20.9366 14.5965L20.6999 14.1821L21.0382 14.2966L21.0992 14.1166L20.2853 13.8408L20.2242 14.0209Z" fill="white"/>
<path d="M19.7734 15.1655L19.9054 15.245L20.0807 14.8488L20.2722 14.9334L20.1164 15.2857L20.2562 15.3476L20.412 14.9953L20.5872 15.0728L20.4215 15.4469L20.5613 15.5088L20.8024 14.9641L20.0166 14.6162L19.7734 15.1655Z" fill="white"/>
<path d="M19.592 15.503L19.5 15.668L20.2506 16.0864L20.3426 15.9214L19.592 15.503Z" fill="white"/>
<path d="M19.3278 15.9528L19.7994 16.2606L19.1305 16.2552L19.0391 16.3953L19.7586 16.8652L19.856 16.7159L19.3837 16.4076L20.0521 16.4155L20.1449 16.2734L19.4252 15.8037L19.3278 15.9528Z" fill="white"/>
<path d="M18.7171 16.8125L18.8197 16.9852L18.6103 17.2308L18.4243 17.1559L18.2969 17.3052L19.149 17.6304L19.2943 17.4601L18.8405 16.668L18.7171 16.8127V16.8125ZM18.9065 17.119L19.0987 17.4341L18.7566 17.2946L18.9064 17.119H18.9065Z" fill="white"/>
<path d="M17.7999 17.7798C17.7447 17.8302 17.7069 17.879 17.686 17.9265C17.6651 17.9738 17.6592 18.019 17.668 18.062C17.6769 18.105 17.6982 18.1448 17.7317 18.1816C17.755 18.207 17.7807 18.2261 17.8089 18.2391C17.8371 18.252 17.868 18.2573 17.9018 18.2552C17.9239 18.2538 17.9476 18.2483 17.9732 18.239C17.9599 18.2746 17.9548 18.3074 17.9583 18.3374C17.9632 18.3791 17.9814 18.4172 18.013 18.4515C18.0433 18.4845 18.0768 18.5067 18.1136 18.5178C18.1503 18.5288 18.1909 18.5262 18.2353 18.51C18.2797 18.4937 18.3294 18.4605 18.3846 18.4101L18.6367 18.1794L18.0565 17.5454L17.7999 17.7803V17.7798ZM17.9914 18.1006C17.9692 18.109 17.9484 18.1101 17.9291 18.1038C17.9098 18.0975 17.8911 18.0846 17.8734 18.065C17.8561 18.0461 17.8449 18.0269 17.8397 18.0078C17.8346 17.9885 17.8374 17.968 17.8479 17.9464C17.8585 17.9246 17.8784 17.9006 17.9073 17.8741L18.0219 17.7692L18.182 17.9442L18.0647 18.0516C18.0381 18.0759 18.0136 18.0923 17.9914 18.1007V18.1006ZM18.3063 18.2887C18.2803 18.3126 18.2572 18.329 18.2373 18.338C18.2172 18.3471 18.1989 18.3495 18.182 18.3454C18.1652 18.3412 18.1486 18.3302 18.1324 18.3125C18.1166 18.2953 18.1071 18.278 18.1036 18.2606C18.1001 18.2431 18.103 18.2249 18.1124 18.2061C18.1217 18.1871 18.1382 18.1669 18.162 18.1453L18.273 18.0438L18.4103 18.1938L18.3065 18.2889L18.3063 18.2887Z" fill="white"/>
<path d="M17.7576 18.3921C17.7235 18.3465 17.687 18.3083 17.6485 18.2776C17.6099 18.2468 17.5704 18.224 17.5301 18.2091C17.4898 18.1941 17.4485 18.1869 17.4064 18.1875C17.3641 18.1881 17.3223 18.1961 17.2809 18.2117C17.2394 18.2273 17.1983 18.2502 17.1579 18.2806C17.1066 18.3192 17.0665 18.3618 17.0377 18.4083C17.0089 18.4549 16.9918 18.5046 16.9863 18.5574C16.9808 18.6103 16.9872 18.6651 17.0057 18.7219C17.0243 18.7787 17.0552 18.8359 17.0985 18.8938C17.1326 18.9394 17.1689 18.9774 17.2074 19.0079C17.2458 19.0383 17.285 19.061 17.3253 19.0758C17.3655 19.0907 17.4065 19.098 17.4485 19.0977C17.4903 19.0974 17.5321 19.0895 17.5736 19.0739C17.6151 19.0582 17.6561 19.0354 17.6965 19.005C17.7472 18.967 17.7872 18.9244 17.8163 18.8776C17.8453 18.8307 17.8626 18.781 17.8682 18.7281C17.8737 18.6753 17.8675 18.6205 17.8495 18.5639C17.8316 18.5071 17.8008 18.4498 17.7576 18.3921ZM17.6644 18.8004C17.6506 18.8267 17.6292 18.8508 17.6004 18.8725C17.5773 18.8898 17.5541 18.9022 17.531 18.9094C17.5079 18.9168 17.4845 18.9189 17.4609 18.9162C17.4372 18.9134 17.4136 18.9062 17.39 18.8949C17.3664 18.8834 17.3433 18.8675 17.3208 18.8466C17.2983 18.826 17.2761 18.8012 17.2545 18.7722C17.2276 18.7363 17.2071 18.7012 17.193 18.6672C17.1789 18.6331 17.1718 18.6008 17.1715 18.5704C17.1712 18.54 17.178 18.5115 17.1916 18.4847C17.2052 18.4579 17.2263 18.4339 17.2553 18.4121C17.2784 18.3948 17.3017 18.3824 17.3251 18.3748C17.3485 18.3673 17.3721 18.3648 17.3958 18.3677C17.4196 18.3705 17.443 18.3777 17.4663 18.3895C17.4895 18.4011 17.5125 18.4173 17.535 18.438C17.5575 18.4587 17.5797 18.4835 17.6013 18.5124C17.6282 18.5484 17.6489 18.5833 17.6633 18.6171C17.6777 18.651 17.6849 18.6834 17.685 18.7144C17.6852 18.7453 17.6783 18.7741 17.6645 18.8004H17.6644Z" fill="white"/>
<path d="M16.9553 19.289L16.5917 18.6973L16.4297 18.7968L16.7933 19.3885L16.5687 19.5265L16.6551 19.667L17.2652 19.2921L17.1788 19.1515L16.9553 19.289Z" fill="white"/>
<path d="M16.2295 19.7013L15.9204 19.0796L15.75 19.1641L16.0593 19.786L15.8232 19.9034L15.8967 20.051L16.5379 19.7323L16.4645 19.5845L16.2295 19.7013Z" fill="white"/>
<path d="M14.8984 19.5274L14.9402 19.6881L15.3161 19.5388L15.5724 20.1845L15.748 20.1147L15.4309 19.3159L14.8984 19.5274Z" fill="white"/>
<path d="M14.2188 19.7385L14.2449 19.8904L14.6594 19.764L14.7205 19.9645L14.3519 20.0767L14.3965 20.2229L14.765 20.1107L14.8208 20.2938L14.4293 20.413L14.4738 20.5593L15.0438 20.3856L14.7933 19.5635L14.2188 19.7385Z" fill="white"/>
<path d="M3.77176 7.85602C3.92185 7.85602 4.04352 7.73435 4.04352 7.58426C4.04352 7.43417 3.92185 7.3125 3.77176 7.3125C3.62167 7.3125 3.5 7.43417 3.5 7.58426C3.5 7.73435 3.62167 7.85602 3.77176 7.85602Z" fill="white"/>
<path d="M19.6545 6.44097C19.7217 6.30673 19.6673 6.14349 19.533 6.07636C19.3988 6.00923 19.2356 6.06362 19.1684 6.19786C19.1013 6.3321 19.1557 6.49534 19.2899 6.56247C19.4242 6.62961 19.5874 6.57521 19.6545 6.44097Z" fill="white"/>
<path d="M12.9335 20.7303C13.0816 20.7062 13.1822 20.5666 13.1582 20.4185C13.1341 20.2703 12.9945 20.1697 12.8464 20.1938C12.6982 20.2178 12.5976 20.3574 12.6217 20.5056C12.6457 20.6537 12.7853 20.7543 12.9335 20.7303Z" fill="white"/>
<path d="M11.9972 0C5.71215 0 0.617188 5.09496 0.617188 11.38C0.617188 17.665 5.71215 22.76 11.9972 22.76C18.2822 22.76 23.3772 17.665 23.3772 11.38C23.3772 5.09496 18.2822 0 11.9972 0ZM11.9972 22.5519C5.82713 22.5519 0.825255 17.5501 0.825255 11.38C0.825255 5.20995 5.82713 0.208067 11.9972 0.208067C18.1672 0.208067 23.1691 5.20995 23.1691 11.38C23.1691 17.5501 18.1672 22.5519 11.9972 22.5519Z" fill="#009639"/>
<path d="M11.9995 1.09131C6.3172 1.09131 1.71094 5.69772 1.71094 11.3798C1.71094 17.062 6.31735 21.6684 11.9995 21.6684C17.6816 21.6684 22.288 17.0621 22.288 11.3798C22.288 5.69757 17.6817 1.09131 11.9995 1.09131ZM11.9995 21.4176C6.45576 21.4176 1.96172 16.9235 1.96172 11.3798C1.96172 5.83613 6.45576 1.34209 11.9995 1.34209C17.5432 1.34209 22.0372 5.83613 22.0372 11.3798C22.0372 16.9235 17.5432 21.4176 11.9995 21.4176Z" fill="#009639"/>
</svg>
