<svg  viewBox="0 0 30 21" xmlns="http://www.w3.org/2000/svg">
<g clip-path="url(#clip0_30655_55234)">
<path d="M24.375 1.36328H21.25C21.25 1.11328 21.25 0.925781 21.25 0.675781C21.25 0.363281 20.9375 0.113281 20.625 0.113281H9.375C9.0625 0.113281 8.75 0.363281 8.75 0.675781C8.75 0.925781 8.6875 1.11328 8.6875 1.36328H5.625C5.25 1.36328 5 1.67578 5 1.98828V2.73828C5 6.11328 7.4375 8.92578 10.75 9.42578C11.125 10.0508 11.5625 10.6133 12 11.1758H18C18.5 10.6133 18.9375 10.0508 19.25 9.42578C22.5625 8.86328 25 6.05078 25 2.73828V1.98828C25 1.67578 24.6875 1.36328 24.375 1.36328ZM6.25 2.73828V2.61328H8.6875C8.75 4.48828 9.125 6.23828 9.9375 7.92578C7.75 7.17578 6.25 5.11328 6.25 2.73828ZM17.5 5.61328L16.625 6.48828L16.8125 7.73828C16.875 7.92578 16.75 8.11328 16.625 8.23828C16.5625 8.30078 16.4375 8.36328 16.3125 8.36328C16.25 8.36328 16.125 8.36328 16.0625 8.30078L15 7.73828L13.9375 8.30078C13.75 8.42578 13.5625 8.36328 13.375 8.23828C13.1875 8.11328 13.125 7.92578 13.1875 7.73828L13.375 6.48828L12.5 5.61328C12.375 5.48828 12.3125 5.23828 12.375 5.05078C12.4375 4.86328 12.625 4.73828 12.8125 4.67578L14 4.48828L14.5625 3.36328C14.625 3.17578 14.8125 3.05078 15.0625 3.05078C15.25 3.05078 15.4375 3.17578 15.5625 3.36328L16.125 4.48828L17.3125 4.67578C17.5 4.73828 17.6875 4.86328 17.75 5.05078C17.6875 5.23828 17.625 5.48828 17.5 5.61328ZM23.75 2.73828C23.75 5.11328 22.25 7.17578 20.0625 7.92578C20.8125 6.30078 21.1875 4.55078 21.25 2.61328H23.75V2.73828ZM17.4375 12.3633H12.5625C12.5625 13.3633 12.0625 14.3633 11.125 15.3633C10.9375 15.5508 11.0625 15.9258 11.375 15.9258H18.75C19.0625 15.9258 19.1875 15.5508 19 15.3633C17.9375 14.3008 17.4375 13.3008 17.4375 12.3633Z" fill="#11A64B"/>
<path d="M19.4375 17.2383H10.5625C10.25 17.2383 10 17.4883 10 17.8008V19.4883C10 19.8633 10.25 20.1133 10.625 20.1133H19.375C19.75 20.1133 20 19.8633 20 19.4883V17.7383C20 17.4883 19.75 17.2383 19.4375 17.2383Z" fill="#11A64B"/>
</g>
<defs>
<clipPath id="clip0_30655_55234">
<rect width="30" height="20" fill="white" transform="translate(0 0.113281)"/>
</clipPath>
</defs>
</svg>
