<svg  viewBox="0 0 29 28" fill="none" xmlns="http://www.w3.org/2000/svg">
<path d="M17.6807 1.98467C17.3077 2.05367 17.0747 2.14066 16.9437 2.20565C17.4037 2.9116 18.3646 3.81053 17.7777 4.98444C17.2527 6.03436 16.1618 5.97236 15.2149 6.00536C15.7958 6.7993 16.4678 7.60424 15.9498 8.64116C15.6078 9.3261 14.8659 9.76507 13.681 9.98405C13.132 10.084 12.6151 9.72107 12.5151 9.18311C12.4141 8.64015 12.773 8.1182 13.316 8.0172C13.689 7.94821 13.923 7.86122 14.0539 7.79522C13.592 7.09427 12.6351 6.18635 13.219 5.01744C13.743 3.97052 14.8329 4.02951 15.7818 3.99652C15.1999 3.20258 14.5289 2.39764 15.0469 1.36072C15.3888 0.676773 16.1308 0.237807 17.3157 0.0178241C17.8586 -0.0861678 18.3796 0.275804 18.4816 0.818762C18.5826 1.36272 18.2236 1.88468 17.6807 1.98467Z" fill="black"/>
<path d="M23.4807 15.2791C22.2578 15.8861 21.2559 14.8022 20.6969 14.4412C20.6409 14.5632 20.5509 14.7992 20.4809 15.1822C20.3779 15.7371 19.842 16.0831 19.315 15.9831C18.7721 15.8821 18.4131 15.3611 18.5141 14.8172C18.7341 13.6323 19.173 12.8903 19.857 12.5484C20.8979 12.0284 21.6708 12.6813 22.4928 13.2833C22.5258 12.3244 22.4688 11.2425 23.5137 10.7205C24.7286 10.1135 25.7155 11.1785 26.2975 11.5584C26.3535 11.4354 26.4435 11.2005 26.5135 10.8185C26.6145 10.2755 27.1314 9.91456 27.6794 10.0176C28.2223 10.1185 28.5813 10.6405 28.4803 11.1835C28.2603 12.3684 27.8214 13.1093 27.1374 13.4523C26.0965 13.9722 25.3236 13.3193 24.5016 12.7173C24.4706 13.6323 24.5406 14.7492 23.4807 15.2791Z" fill="black"/>
<path d="M1.84841 27.9372L18.1501 21.8817C18.1561 21.8797 18.1591 21.8747 18.1651 21.8727C18.4451 21.7787 18.6991 21.6327 18.9151 21.4157C20.61 19.7208 18.3161 15.8821 15.4674 13.0324C12.6186 10.1826 8.77887 7.88976 7.084 9.58463C6.86502 9.80361 6.71503 10.0596 6.62204 10.3436C6.62104 10.3456 6.61904 10.3476 6.61804 10.3496L0.562511 26.6503C0.426522 27.0173 0.516515 27.4292 0.792493 27.7062C1.07047 27.9842 1.48344 28.0722 1.84841 27.9372ZM8.4979 11.0155C8.53689 11.0025 8.58189 10.9915 8.64488 10.9915C9.34083 10.9915 11.4517 11.8455 14.0535 14.4463C16.9352 17.329 17.6722 19.6089 17.5292 19.9808C17.1052 20.1688 14.8284 19.4359 11.9456 16.5541C9.22084 13.8293 8.4249 11.6645 8.4659 11.1195C8.4689 11.1085 8.4499 11.1565 8.4979 11.0155ZM7.41398 13.9493C8.16092 15.3042 9.29283 16.7291 10.5307 17.967C11.7246 19.1609 13.0895 20.2448 14.4004 20.9907C12.1576 20.9337 7.122 20.4638 6.09408 17.502L7.41398 13.9493ZM5.20415 19.8988C6.49405 21.3837 8.54189 22.1717 10.5287 22.5786L3.19731 25.3024L5.20415 19.8988Z" fill="black"/>
<path d="M28.4977 5.00188C28.4977 5.55383 28.0498 6.0018 27.4978 6.0018C23.9101 6.0018 20.1704 8.79558 18.3305 11.5564C18.0235 12.0163 17.4026 12.1393 16.9436 11.8333C16.4847 11.5274 16.3607 10.9064 16.6666 10.4465C18.7355 7.34269 23.0081 4.00195 27.4978 4.00195C28.0498 4.00195 28.4977 4.44992 28.4977 5.00188Z" fill="black"/>
<path d="M26.4974 1.00188C26.4974 1.55383 26.0494 2.0018 25.4975 2.0018C24.9455 2.0018 24.4976 1.55383 24.4976 1.00188C24.4976 0.449918 24.9455 0.00195312 25.4975 0.00195312C26.0494 0.00195312 26.4974 0.449918 26.4974 1.00188Z" fill="black"/>
<path d="M24.4976 17.9999C24.4976 18.5519 24.0497 18.9998 23.4977 18.9998C22.9458 18.9998 22.4978 18.5519 22.4978 17.9999C22.4978 17.448 22.9458 17 23.4977 17C24.0497 17 24.4976 17.448 24.4976 17.9999Z" fill="black"/>
<path d="M11.4991 2.00188C11.4991 2.55383 11.0511 3.0018 10.4992 3.0018C9.94723 3.0018 9.49927 2.55383 9.49927 2.00188C9.49927 1.44992 9.94723 1.00195 10.4992 1.00195C11.0511 1.00195 11.4991 1.44992 11.4991 2.00188Z" fill="black"/>
</svg>
