<svg  viewBox="0 0 13 14" fill="none" xmlns="http://www.w3.org/2000/svg">
<path d="M1.55798 11.7881C1.70027 11.7881 1.72873 11.7741 1.8568 11.7462L4.41809 11.2423C4.68845 11.1723 4.9588 11.0464 5.17224 10.8364L11.3763 4.73415C12.3296 3.79642 12.3296 2.18688 11.3763 1.24914L10.8498 0.7033C9.8964 -0.234433 8.24579 -0.234433 7.29242 0.7033L1.08841 6.81956C0.889198 7.0155 0.746904 7.29542 0.675758 7.56135L0.135041 10.1086C0.0638937 10.5845 0.206188 11.0464 0.547693 11.3823C0.818051 11.6482 1.21647 11.7881 1.55798 11.7881ZM2.04178 7.82727L8.24579 1.71101C8.65845 1.30513 9.4126 1.30513 9.81103 1.71101L10.3517 2.24286C10.8355 2.71873 10.8355 3.39053 10.3517 3.8524L4.16196 9.96866L1.52952 10.4025L2.04178 7.82727Z" fill="#383838"/>
<path d="M11.3171 12.6562H0.815823C0.403171 12.6562 0.132812 12.9222 0.132812 13.3281C0.132812 13.7339 0.474318 13.9999 0.815823 13.9999H11.2602C11.6728 13.9999 12.0144 13.7339 12.0144 13.3281C12.0001 12.9222 11.6586 12.6562 11.3171 12.6562Z" fill="#383838"/>
</svg>
