<svg  viewBox="0 0 15 14" fill="none" xmlns="http://www.w3.org/2000/svg">
<path fill-rule="evenodd" clip-rule="evenodd" d="M9.57223 9.11563C9.74143 8.94438 10.005 8.65461 10.1671 8.47723C10.3291 8.29985 12.0742 9.48917 11.6934 9.83194L10.7998 10.6365C9.09281 12.1734 3.71057 6.7599 5.23871 5.0431L6.03866 4.14435C6.37958 3.76136 7.5619 5.51638 7.38567 5.67951C7.20932 5.84251 6.92122 6.10764 6.75096 6.27783C6.14405 6.88468 8.96889 9.72607 9.57236 9.11563H9.57223Z" fill="#313131"/>
<path d="M7.8623 0.400391C11.4827 0.400616 14.4219 3.35287 14.4219 7C14.4219 10.6471 11.4827 13.5994 7.8623 13.5996C4.24175 13.5996 1.30273 10.6473 1.30273 7C1.30273 3.35273 4.24175 0.400391 7.8623 0.400391Z" stroke="#313131" stroke-width="0.8"/>
</svg>
