<svg viewBox="0 0 23 24" fill="none" xmlns="http://www.w3.org/2000/svg">
<path d="M21.7114 21.3897C19.9112 19.4241 18.3398 16.6298 19.3395 13.8223L17.6112 13.8654C17.4381 14.4454 12.9981 14.1968 11.4037 13.9681C11.4005 13.935 11.3972 13.9051 11.3907 13.872C11.3384 13.8886 11.2535 13.9084 11.1489 13.9283C11.0444 13.9084 10.9594 13.8919 10.9072 13.872C10.9039 13.9051 10.9006 13.935 10.8974 13.9681C9.30301 14.1968 4.86305 14.4454 4.68989 13.8654L2.9616 13.8223C3.96133 16.6265 2.38986 19.4241 0.589699 21.3897C0.462283 21.5289 0.197649 21.6151 0.0473633 21.7411C2.27225 23.4879 6.22215 23.1995 8.87503 22.8548C9.64279 22.7553 10.404 22.6228 11.1489 22.4073C11.8938 22.6228 12.655 22.7553 13.4228 22.8548C16.0757 23.1995 20.0289 23.4879 22.2505 21.7411C22.1002 21.6151 21.8356 21.5289 21.7081 21.3897H21.7114Z" fill="#011826"/>
<path d="M19.5486 5.31364C18.9964 3.80214 17.9967 2.48953 16.3664 1.53821C12.3643 -0.7887 6.31688 -0.324644 3.41244 3.72591C1.06341 7.00082 2.63814 12.8645 3.89924 16.3847C5.42497 20.6441 10.7732 25.2681 15.2981 21.9567C16.5232 21.0617 17.1669 19.4508 17.7582 18.1117C19.3231 14.5815 20.9926 9.27469 19.5453 5.31033L19.5486 5.31364Z" fill="white"/>
<path d="M11.989 23.2194C8.36909 23.2194 4.97132 19.7688 3.77557 16.4309C2.31191 12.3439 1.04102 6.80837 3.30511 3.64616C4.96805 1.32919 7.76794 0 10.9926 0C12.9267 0 14.8575 0.503833 16.4323 1.422C17.9808 2.3236 19.0721 3.61632 19.6732 5.26704C21.2153 9.49658 19.2125 15.168 17.8828 18.1711L17.7554 18.4595C17.1869 19.7522 16.5466 21.2173 15.3802 22.0692C14.3348 22.8349 13.1946 23.2227 11.989 23.2227V23.2194ZM10.9926 0.26849C7.85615 0.26849 5.13141 1.5579 3.52073 3.80526C1.32525 6.86803 2.58308 12.3108 4.02713 16.3381C5.16734 19.5169 8.53571 22.9509 11.989 22.9509C13.1358 22.9509 14.2237 22.5797 15.2234 21.8504C16.331 21.0416 16.9583 19.613 17.5104 18.3501L17.6378 18.0584C18.9512 15.0918 20.931 9.4999 19.4216 5.35654C18.8434 3.7688 17.7914 2.52248 16.2983 1.65071C14.7628 0.759064 12.8809 0.265175 10.9893 0.265175L10.9926 0.26849Z" fill="#011826"/>
<path d="M3.23964 12.6683C1.80212 11.4087 0.622706 13.2782 1.15524 14.6803C1.54076 15.6979 3.4226 17.1 3.82445 15.3333L3.23964 12.6683Z" fill="white"/>
<path d="M2.99431 16.3113C2.23634 16.3113 1.29869 15.4462 1.02752 14.7302C0.782492 14.0772 0.867436 13.295 1.24642 12.7348C1.51432 12.3404 1.88677 12.1216 2.29515 12.1216C2.6382 12.1216 2.98451 12.2741 3.32428 12.5691L3.35695 12.5989L3.9581 15.3368L3.95156 15.3667C3.76207 16.192 3.27201 16.3147 2.99758 16.3147L2.99431 16.3113ZM2.29515 12.3868C1.97824 12.3868 1.68421 12.5624 1.46531 12.884C1.1386 13.3679 1.06019 14.0673 1.27582 14.6308C1.51105 15.2506 2.36703 16.0395 2.99431 16.0395C3.33735 16.0395 3.56931 15.8009 3.68366 15.3302L3.11519 12.7414C2.83749 12.5061 2.55979 12.3868 2.29515 12.3868Z" fill="#011826"/>
<path d="M19.2835 12.6688C20.7211 11.4092 21.9005 13.2787 21.3679 14.6808C20.9824 15.6984 19.1006 17.1005 18.6987 15.3338L19.2835 12.6688Z" fill="white"/>
<path d="M19.5255 16.3117C19.251 16.3117 18.7577 16.1891 18.5715 15.3637L18.5649 15.3339L19.1628 12.596L19.1955 12.5661C19.5353 12.2678 19.8816 12.1187 20.2246 12.1187C20.633 12.1187 21.0055 12.3374 21.2734 12.7319C21.6523 13.2921 21.7405 14.0776 21.4922 14.7273C21.2211 15.4433 20.2834 16.3084 19.5255 16.3084V16.3117ZM18.8361 15.3306C18.9505 15.8013 19.1824 16.0399 19.5255 16.0399C20.1527 16.0399 21.0087 15.251 21.2439 14.6312C21.4563 14.0677 21.3812 13.3683 21.0545 12.8843C20.6559 12.2943 20.0155 12.2247 19.4046 12.7418L18.8394 15.3306H18.8361Z" fill="#011826"/>
<path d="M19.549 5.31364C18.9968 3.80214 17.9971 2.48953 16.3668 1.53821C12.3647 -0.7887 6.31728 -0.324644 3.41284 3.72591C1.13569 6.90469 2.55033 12.5198 3.78856 16.0665L3.82776 16.093C4.112 15.1616 3.94538 14.0014 3.76569 13.08C3.60234 12.2513 3.14494 11.0215 3.23969 10.1929C3.3573 9.19183 4.75888 8.69794 5.53972 8.30349C6.55578 7.79303 7.47056 7.21627 8.54217 6.87486C9.61704 6.53013 10.7605 6.56328 11.0709 5.23409C11.1101 5.06835 11.1395 4.89268 11.1624 4.717C11.1885 4.89599 11.2179 5.06835 11.2571 5.23409C11.5675 6.56328 12.7142 6.53013 13.7858 6.87486C14.8574 7.21627 15.7722 7.79303 16.7883 8.30349C17.5659 8.69462 18.9707 9.19183 19.0883 10.1929C19.1831 11.0215 18.7257 12.2513 18.5623 13.08C18.3794 14.0014 18.2683 15.2444 18.5525 16.1759L18.6113 16.0168C19.8332 12.6855 20.7284 8.55209 19.549 5.31364Z" fill="#011826"/>
<path d="M9.33936 17.9256C9.64646 17.7731 9.9797 17.4582 10.2999 17.3588C10.7867 17.2063 10.8455 17.5179 11.1918 17.4516C11.7113 17.3489 11.5087 16.8086 12.1817 17.1069C12.4888 17.2428 12.7339 17.7234 12.9658 17.9588C12.4431 18.4361 12.0118 19.1454 11.182 19.1023C10.7475 19.0824 9.33609 17.9488 9.34262 17.9256" fill="#11A64B"/>
<path d="M10.2795 16.3082C10.2567 16.3082 10.2371 16.3016 10.2175 16.2916C10.1554 16.2552 10.1358 16.1789 10.1685 16.116C10.4886 15.5359 10.7892 15.2575 11.1159 15.2343C11.4361 15.2177 11.7563 15.4398 12.1254 15.9469C12.1679 16.0033 12.1548 16.0861 12.0993 16.1259C12.0438 16.169 11.9621 16.1557 11.9229 16.0994C11.6125 15.6751 11.3479 15.4795 11.1355 15.4928C10.9068 15.5061 10.6651 15.7514 10.3939 16.2419C10.371 16.285 10.3285 16.3082 10.2828 16.3082H10.2795Z" fill="#011826"/>
<path d="M14.9223 13.6829C14.9223 14.0343 14.6414 14.316 14.2983 14.316C13.9553 14.316 13.6743 14.031 13.6743 13.6829C13.6743 13.3349 13.9553 13.0498 14.2983 13.0498C14.6414 13.0498 14.9223 13.3349 14.9223 13.6829Z" fill="#011826"/>
<path d="M9.06785 13.6829C9.06785 14.0343 8.78688 14.316 8.44384 14.316C8.10079 14.316 7.81982 14.031 7.81982 13.6829C7.81982 13.3349 8.10079 13.0498 8.44384 13.0498C8.78688 13.0498 9.06785 13.3349 9.06785 13.6829Z" fill="#011826"/>
<path d="M7.59753 16.1725C6.5292 16.1725 5.34978 15.4565 5.11782 13.8588C4.99693 13.0401 5.15702 12.344 5.57848 11.8468C6.013 11.333 6.70235 11.0513 7.51912 11.0513C7.96345 11.0513 8.41757 11.1375 8.82596 11.3032C9.54145 11.5882 10.0576 12.0722 10.2798 12.6655C10.4889 13.2158 10.4334 13.8422 10.1197 14.482C9.61332 15.5228 8.64627 16.1691 7.59753 16.1691V16.1725ZM7.51912 11.3131C6.7775 11.3131 6.15675 11.565 5.76797 12.0192C5.39225 12.4633 5.25503 13.0699 5.36611 13.8223C5.57848 15.2676 6.63701 15.9139 7.59753 15.9139C8.56132 15.9139 9.42057 15.3372 9.89429 14.3726C10.1785 13.7892 10.2308 13.2489 10.0446 12.7616C9.84529 12.2379 9.38136 11.807 8.73448 11.5485C8.35223 11.396 7.93078 11.3131 7.51912 11.3131Z" fill="#011826"/>
<path d="M14.4422 16.1725C13.3934 16.1725 12.4264 15.5261 11.9167 14.4853C11.6031 13.8456 11.5475 13.2158 11.7566 12.6655C11.9821 12.0722 12.4983 11.5916 13.2105 11.3032C13.6221 11.1375 14.0763 11.0513 14.5206 11.0513C15.3374 11.0513 16.0267 11.333 16.4612 11.8468C16.8827 12.3407 17.0428 13.0368 16.9219 13.8588C16.6899 15.4565 15.5073 16.1725 14.4422 16.1725ZM14.5206 11.3131C14.1089 11.3131 13.6875 11.3927 13.3052 11.5485C12.6584 11.807 12.1912 12.2379 11.9951 12.7616C11.8089 13.2489 11.8612 13.7892 12.1454 14.3726C12.6159 15.3372 13.4751 15.9139 14.4422 15.9139C15.4092 15.9139 16.4612 15.2676 16.6703 13.8223C16.7814 13.0699 16.6475 12.46 16.2685 12.0192C15.883 11.565 15.2622 11.3131 14.5206 11.3131Z" fill="#011826"/>
<path d="M16.8728 13.4143C16.8205 13.4143 16.7683 13.3812 16.7519 13.3248C16.7323 13.2585 16.7683 13.1856 16.8336 13.1624C17.193 13.0464 17.6046 12.8906 18.0032 12.7381C18.6142 12.5061 19.248 12.2674 19.7054 12.1647C19.774 12.1481 19.8426 12.1912 19.8589 12.2641C19.8753 12.3337 19.8295 12.4033 19.7609 12.4166C19.3231 12.516 18.6991 12.7514 18.0947 12.9801C17.6928 13.1326 17.2747 13.2883 16.912 13.4077C16.8989 13.411 16.8859 13.4143 16.8728 13.4143Z" fill="#011826"/>
<path d="M5.20283 13.4146C5.20283 13.4146 5.17669 13.4146 5.16362 13.408C4.80098 13.2887 4.38279 13.1329 3.98094 12.9804C3.37653 12.7517 2.75251 12.5163 2.31472 12.4169C2.24612 12.4003 2.20364 12.3307 2.21671 12.2644C2.23305 12.1948 2.29839 12.1517 2.37026 12.165C2.82766 12.2677 3.4582 12.5064 4.06915 12.7384C4.46773 12.8909 4.88265 13.0467 5.23877 13.1627C5.30411 13.1826 5.34331 13.2555 5.32044 13.3251C5.30411 13.3815 5.25183 13.4146 5.19956 13.4146H5.20283Z" fill="#011826"/>
<path d="M11.9822 13.9713H11.7862C11.6065 13.9647 11.4235 13.9614 11.2438 13.9547C10.9171 13.9448 10.5774 13.9348 10.2474 13.9448C10.1755 13.9448 10.12 13.8918 10.1167 13.8188C10.1167 13.7459 10.169 13.6896 10.2408 13.6862C10.5774 13.6763 10.9204 13.6862 11.2536 13.6962C11.3843 13.6995 11.5183 13.7028 11.649 13.7061C11.6816 13.6829 11.7274 13.6796 11.7666 13.6962C11.8483 13.6962 11.8875 13.7459 11.9038 13.789L11.9822 13.9713Z" fill="#011826"/>
<path d="M9.44053 10.9417C9.41766 10.9417 9.39479 10.9351 9.37519 10.9251C8.6891 10.5174 7.11437 10.6533 6.22245 10.8456C6.15711 10.8588 6.08524 10.8157 6.07217 10.7461C6.05583 10.6765 6.10157 10.6069 6.17018 10.5936C6.97062 10.4213 8.6989 10.2224 9.50261 10.703C9.56141 10.7395 9.58428 10.819 9.54834 10.8787C9.52547 10.9185 9.483 10.9417 9.43726 10.9417H9.44053Z" fill="#011826"/>
<path d="M12.9625 10.9417C12.92 10.9417 12.8775 10.9185 12.8514 10.8787C12.8155 10.8157 12.8351 10.7395 12.8971 10.703C13.7041 10.2224 15.4291 10.4213 16.2296 10.5936C16.2982 10.6069 16.3439 10.6765 16.3276 10.7461C16.3145 10.8157 16.2426 10.8588 16.1773 10.8456C15.2854 10.6533 13.7106 10.5174 13.0246 10.9251C13.005 10.9384 12.9821 10.9417 12.9592 10.9417H12.9625Z" fill="#011826"/>
</svg>
