<svg ` viewBox="0 0 25 30" fill="none" xmlns="http://www.w3.org/2000/svg">
<g clip-path="url(#clip0_29332_179112)">
<path d="M21.6877 16.1912C23.3133 14.7805 24.6483 16.8716 24.0477 18.4438C23.6117 19.5817 21.485 21.1539 21.0298 19.1742L21.6915 16.1912H21.6877Z" fill="white"/>
<path d="M21.9598 20.2736C21.6462 20.2736 21.0916 20.1352 20.8812 19.2126L20.8735 19.178L21.5506 16.1105L21.5888 16.0797C21.9751 15.7453 22.3653 15.5762 22.7516 15.5762C23.2145 15.5762 23.6352 15.8183 23.9374 16.2643C24.3658 16.8947 24.4653 17.7711 24.186 18.5015C23.88 19.3049 22.8167 20.2736 21.9598 20.2736ZM21.1795 19.178C21.3096 19.7046 21.5697 19.9737 21.9598 19.9737C22.6675 19.9737 23.639 19.0896 23.903 18.3938C24.144 17.7634 24.056 16.9792 23.6888 16.4372C23.2374 15.7761 22.5145 15.6992 21.8221 16.2796L21.1795 19.178Z" fill="#011826"/>
<path d="M3.29034 16.1912C1.66469 14.7805 0.329751 16.8716 0.930283 18.4438C1.36634 19.5817 3.49307 21.1539 3.94825 19.1742L3.28651 16.1912H3.29034Z" fill="white"/>
<path d="M3.01844 20.2736C2.16163 20.2736 1.09827 19.3049 0.792263 18.5015C0.513034 17.7711 0.612486 16.8947 1.04089 16.2643C1.34307 15.8222 1.76383 15.5762 2.22666 15.5762C2.61299 15.5762 3.00697 15.7453 3.38947 16.0797L3.42772 16.1105L4.10475 19.178L4.0971 19.2126C3.8829 20.139 3.32827 20.2736 3.01844 20.2736ZM2.22666 15.8798C1.8671 15.8798 1.53432 16.0759 1.28952 16.4372C0.91849 16.9792 0.834338 17.7634 1.07532 18.3938C1.34307 19.0896 2.31081 19.9737 3.01844 19.9737C3.40477 19.9737 3.6687 19.7046 3.79875 19.178L3.15614 16.2796C2.83866 16.0144 2.52883 15.8837 2.22666 15.8837V15.8798Z" fill="#011826"/>
<path d="M21.9816 8.21425C21.3582 6.41525 20.2259 4.84689 18.3823 3.71291C13.8611 0.937526 7.01805 1.49106 3.73616 6.32684C1.08157 10.2324 2.86022 17.2246 4.28696 21.4223C6.01206 26.5041 12.0633 32.0164 17.1774 28.0686C18.562 27 19.2888 25.078 19.9582 23.4865C21.7254 19.2735 23.6149 12.9501 21.9778 8.2181L21.9816 8.21425Z" fill="white"/>
<path d="M13.4346 29.5618C9.34182 29.5618 5.49765 25.4487 4.1474 21.4702C2.49116 16.5998 1.05676 10.0035 3.6119 6.24016C5.49 3.47631 8.66096 1.89258 12.3101 1.89258C14.498 1.89258 16.6859 2.49609 18.4646 3.58779C20.2164 4.66412 21.4481 6.20557 22.129 8.16602C23.8694 13.2055 21.6087 19.9633 20.1055 23.5421L19.9602 23.8919C19.3175 25.4295 18.5946 27.1747 17.2788 28.1895C16.0969 29.1005 14.804 29.5657 13.4423 29.5657L13.4346 29.5618ZM12.3101 2.19626C8.76424 2.19626 5.68507 3.73386 3.86435 6.41315C1.37807 10.0727 2.80099 16.569 4.43428 21.3741C5.72332 25.1681 9.53307 29.262 13.4384 29.262C14.7351 29.262 15.963 28.8199 17.0914 27.9512C18.3422 26.9863 19.0536 25.2796 19.6809 23.7766L19.8263 23.4268C21.3142 19.8864 23.5519 13.2132 21.8459 8.26981C21.1918 6.3747 20.0022 4.88707 18.3116 3.84918C16.5788 2.78439 14.4483 2.2001 12.3139 2.2001L12.3101 2.19626Z" fill="#011826"/>
<path d="M21.9842 8.21425C21.3607 6.41525 20.2285 4.84689 18.3848 3.71291C13.8636 0.937526 7.02061 1.49106 3.73872 6.32684C1.72292 9.29442 2.26608 14.0418 3.26824 17.9934C3.18027 17.0517 2.85514 16.0945 2.98519 15.1258C3.11906 14.0956 3.62015 13.8457 3.96823 12.8886C4.27805 12.0352 3.9644 10.9435 4.33543 10.117C4.65673 9.40205 5.45999 9.03687 5.8731 8.36801C6.19823 7.83754 6.35888 7.14562 6.45833 6.53442C8.19108 7.35704 10.1725 7.4762 12.0735 7.12255C13.6418 6.82656 15.4625 5.5811 17.1532 6.07314C18.557 6.48445 20.3777 8.43721 20.9591 9.72495C21.5673 11.0704 21.3531 13.1 21.4449 14.5992C21.5328 15.9907 20.787 17.4976 21.6055 18.8314C22.5886 15.3257 23.0896 11.4125 21.988 8.22194L21.9842 8.21425Z" fill="#011826"/>
<path d="M5.79536 4.40598C2.96865 2.8453 0.635366 12.1747 2.51346 13.351C2.49816 13.3395 2.58232 13.5701 2.58614 13.5817C3.51945 11.233 3.40088 8.59211 4.97297 6.34721" fill="#011826"/>
<path d="M14.9341 1.05299C16.5177 1.44508 23.6667 5.07383 22.2782 7.48403C21.2454 9.2715 19.5203 6.75367 18.7285 6.12325C17.1067 4.8355 15.2401 4.26659 13.1784 4.28965C11.1664 4.31271 8.46975 6.20013 6.5075 5.31985C4.72121 4.51645 5.12666 3.12876 6.46925 2.12547C8.35883 0.714712 12.7079 0.499447 14.9341 1.05299Z" fill="#011826"/>
<path d="M12.7348 22.4174C11.308 22.4174 9.80861 22.2559 9.3343 22.0176C9.26163 21.983 9.23485 21.8946 9.26928 21.8254C9.3037 21.7524 9.39168 21.7255 9.46053 21.7601C10.3326 22.1983 14.8959 22.2905 15.4123 21.7447C15.4391 21.7178 15.4391 21.7063 15.42 21.6755C15.3817 21.6063 15.4047 21.5179 15.4735 21.4795C15.5424 21.441 15.6303 21.4641 15.6686 21.5333C15.7489 21.6755 15.7298 21.8254 15.615 21.9446C15.2937 22.2829 14.0429 22.4174 12.7271 22.4174H12.7348Z" fill="#011826"/>
<path d="M8.14728 19.0278C6.87736 19.0278 5.32822 18.6088 5.15226 17.4286C4.99544 16.3754 4.93424 15.3567 4.97249 14.3996C5.02604 14.265 5.77957 13.8652 8.43033 13.8652C9.29862 13.8652 10.0483 13.9114 10.3161 13.9575C11.3335 14.1266 11.3909 15.3606 11.3335 16.0832C11.3068 16.4407 11.2341 16.8174 11.1346 17.1365C10.7827 18.2782 9.91062 18.9086 8.54126 19.0124C8.41503 19.0201 8.28115 19.0278 8.13963 19.0278H8.14728Z" fill="#777776"/>
<path d="M8.43319 14.2267C9.33208 14.2267 10.0435 14.2767 10.2616 14.3151C10.996 14.4381 11.0266 15.4568 10.9807 16.0565C10.9539 16.387 10.8889 16.733 10.7971 17.0328C10.4911 18.0323 9.74519 18.5628 8.52117 18.655C8.39877 18.6627 8.27637 18.6704 8.14632 18.6704C7.89769 18.6704 5.69446 18.6358 5.50703 17.3788C5.36168 16.414 5.3043 15.476 5.32726 14.5919C5.60266 14.4612 6.47859 14.2344 8.43319 14.2344M8.43319 13.5117C6.75017 13.5117 4.64257 13.6885 4.6158 14.392C4.57372 15.4376 4.6464 16.4793 4.7994 17.4903C5.02125 18.9664 6.82285 19.3969 8.15014 19.3969C8.29932 19.3969 8.44467 19.3892 8.57855 19.3815C9.97851 19.2777 11.0648 18.6358 11.4894 17.2519C11.5889 16.9291 11.6692 16.5293 11.6998 16.118C11.7878 15.0109 11.5277 13.8 10.3801 13.6078C10.0933 13.5617 9.32443 13.5117 8.43319 13.5117Z" fill="#011826"/>
<path d="M16.7448 19.0336C16.6033 19.0336 16.4694 19.0298 16.3432 19.0182C14.9738 18.9144 14.1017 18.284 13.7498 17.1424C13.6503 16.8195 13.5815 16.4466 13.5509 16.0891C13.4935 15.3664 13.5509 14.1325 14.5722 13.9633C14.8399 13.9172 15.5935 13.8711 16.4618 13.8711C19.1125 13.8711 19.8661 14.2709 19.9234 14.4093C19.9617 15.3626 19.9005 16.3812 19.7437 17.4345C19.5677 18.6146 18.0186 19.0336 16.7486 19.0336H16.7448Z" fill="#777776"/>
<path d="M16.4566 13.5077V14.2304C18.4074 14.2304 19.2872 14.4572 19.5626 14.5879C19.5855 15.472 19.5281 16.4099 19.3828 17.3748C19.1954 18.6318 16.996 18.6664 16.7435 18.6664C16.6135 18.6664 16.4872 18.6625 16.3687 18.651C15.1446 18.5587 14.3988 18.0283 14.0928 17.0288C14.0009 16.7328 13.9359 16.3869 13.9091 16.0524C13.8632 15.4566 13.8938 14.4341 14.6283 14.3111C14.8463 14.2726 15.5577 14.2227 16.4566 14.2227V13.5M16.4566 13.5C15.5654 13.5 14.7966 13.55 14.5097 13.5961C13.3622 13.7883 13.1021 14.9992 13.19 16.1062C13.2206 16.5176 13.301 16.9135 13.4042 17.2402C13.8288 18.6202 14.9151 19.2622 16.3151 19.3698C16.449 19.3813 16.5943 19.3852 16.7435 19.3852C18.0708 19.3852 19.8724 18.9508 20.0943 17.4786C20.2434 16.4676 20.3199 15.4259 20.2779 14.3803C20.2511 13.6768 18.1435 13.5 16.4605 13.5H16.4566Z" fill="#011826"/>
<path d="M13.5918 20.0197C13.5191 20.0197 13.4579 19.9659 13.4502 19.8928C13.3623 19.1702 12.7656 19.0741 12.582 19.0625C12.1574 19.0318 11.6525 19.2547 11.5262 19.7391C11.5071 19.816 11.4268 19.8621 11.3503 19.8429C11.2738 19.8236 11.2279 19.7429 11.247 19.666C11.4153 19.0318 12.0541 18.7396 12.6011 18.7742C13.0907 18.8088 13.6415 19.1087 13.7333 19.8582C13.7448 19.939 13.6874 20.0082 13.6071 20.0197C13.5994 20.0197 13.5956 20.0197 13.5879 20.0197H13.5918Z" fill="#011826"/>
<path d="M11.2192 15.7742C11.7662 15.5397 12.7875 15.5743 13.3613 15.728C13.4072 15.9356 13.3804 16.2777 13.3039 16.4661C12.7225 16.5045 11.9192 16.4161 11.4526 16.4161" fill="#011826"/>
<path d="M19.9374 15.6023C20.5074 15.5561 21.0543 15.3908 21.5784 15.264C21.9341 15.1794 23.1352 14.7643 22.6838 15.4408C22.374 15.9136 20.0522 16.3096 19.8188 16.4172" fill="#011826"/>
<path d="M4.6868 15.6023C4.11687 15.5561 3.56989 15.3908 3.04586 15.264C2.69013 15.1794 1.48906 14.7643 1.94042 15.4408C2.25024 15.9136 4.57205 16.3096 4.80538 16.4172" fill="#011826"/>
</g>
<defs>
<clipPath id="clip0_29332_179112">
<rect width="23.7076" height="28.7879" fill="white" transform="translate(0.635254 0.775391)"/>
</clipPath>
</defs>
</svg>
