<svg  viewBox="0 0 7 10" fill="none" xmlns="http://www.w3.org/2000/svg">
<path d="M2.06905 7.19101C1.89629 7.19137 1.73276 7.11189 1.62527 6.9753L1.23667 6.48337L0.860827 6.30078L0.119613 7.86464C0.0520369 8.00731 0.111809 8.17827 0.25317 8.24665C0.303719 8.271 0.360299 8.27977 0.415815 8.27171L1.24145 8.15267L1.66784 8.87606C1.71892 8.96288 1.81169 9.01605 1.91172 9.01605C1.91598 9.01605 1.92023 9.01605 1.92467 9.01569C2.02914 9.01086 2.12261 8.94838 2.16784 8.85315L2.90621 7.29484L2.69249 7.19101H2.06905Z" fill="#11A64B"/>
<path d="M6.13931 6.30078L5.76347 6.48337L5.37469 6.9753C5.2672 7.11207 5.10367 7.19155 4.93092 7.19101H4.30748L4.09375 7.29484L4.83213 8.85315C4.87735 8.94838 4.97065 9.01086 5.07529 9.01569C5.07955 9.01587 5.08399 9.01605 5.08824 9.01605C5.18828 9.01605 5.28086 8.96288 5.33212 8.87606L5.75851 8.15267L6.58415 8.27171C6.73934 8.29409 6.88301 8.18525 6.90518 8.02879C6.91316 7.97276 6.90447 7.91566 6.88035 7.86464L6.13914 6.30078H6.13931Z" fill="#11A64B"/>
<path d="M6.83996 3.61611L6.99302 2.9389C7.01218 2.85387 6.99214 2.76472 6.93822 2.69652L6.50917 2.15339L6.3561 1.47619C6.33694 1.39115 6.28036 1.31973 6.2025 1.28196L5.58243 0.980499L5.15338 0.437373C5.09946 0.36917 5.01787 0.329608 4.9315 0.329608H4.24331L3.62324 0.0283288C3.54538 -0.00944293 3.45474 -0.00944293 3.37706 0.0283288L2.75699 0.329608H2.0688C1.98243 0.329608 1.90084 0.369349 1.84692 0.437373L1.41787 0.980499L0.797799 1.28196C0.719935 1.31973 0.663533 1.39133 0.6442 1.47619L0.491133 2.15339L0.0620839 2.69652C0.00816463 2.76472 -0.0118777 2.85387 0.0072778 2.9389L0.160345 3.61611L0.00710043 4.29331C-0.0120551 4.37834 0.00798726 4.46749 0.0619066 4.5357L0.490955 5.07882L0.644022 5.75603C0.663178 5.84106 0.719758 5.91249 0.797622 5.95044L1.41769 6.25189L1.84674 6.79502C1.90066 6.86322 1.98225 6.90279 2.06863 6.90279H2.75681L3.37688 7.20406C3.45474 7.24184 3.54538 7.24184 3.62306 7.20406L4.24314 6.90279H4.93132C5.01769 6.90279 5.09928 6.86304 5.1532 6.79502L5.58225 6.25189L6.20232 5.95044C6.28019 5.91266 6.33659 5.84106 6.35592 5.75603L6.50899 5.07882L6.93804 4.5357C6.99196 4.46749 7.012 4.37834 6.99285 4.29331L6.83978 3.61611H6.83996ZM3.50015 6.05068C2.17008 6.05068 1.08797 4.95853 1.08797 3.61611C1.08797 2.27369 2.17008 1.18153 3.50015 1.18153C4.83022 1.18153 5.91233 2.27369 5.91233 3.61611C5.91233 4.95853 4.83022 6.05068 3.50015 6.05068Z" fill="#11A64B"/>
<path d="M3.49949 1.46875C2.32408 1.46875 1.37109 2.43059 1.37109 3.61691C1.37109 4.80322 2.32408 5.76506 3.49949 5.76506C4.67489 5.76506 5.62788 4.80322 5.62788 3.61691C5.62664 2.43112 4.67436 1.47 3.49949 1.46875Z" fill="#11A64B"/>
</svg>
