<svg width="124" height="99" viewBox="0 0 124 99" fill="none" xmlns="http://www.w3.org/2000/svg">
<path d="M96.4998 20.0796C81.3115 20.0796 68.9998 32.3913 68.9998 47.5796C68.9998 62.7679 81.3115 75.0796 96.4998 75.0796C111.688 75.0796 124 62.7679 124 47.5796C124 32.3913 111.688 20.0796 96.4998 20.0796ZM108.677 65.4635C96.5542 72.4077 81.3659 66.056 78.0481 54.9188C78.0481 54.9188 87.9966 57.2761 99.7903 53.7928C111.224 50.4159 118.096 43.4256 118.096 43.4256C118.096 43.4256 120.466 58.7097 108.677 65.4635Z" fill="#FFE200"/>
<path d="M37.3835 58.8915C29.4679 52.1121 17.8916 52.6414 11.526 60.0738C5.16046 67.5061 6.41692 79.0262 14.3325 85.8056C22.2481 92.5851 33.8244 92.0558 40.19 84.6234C46.5555 77.1911 45.2991 65.671 37.3835 58.8915ZM24.7088 86.5353C15.4807 84.5224 10.2271 74.6349 13.1658 67.704C13.1658 67.704 17.3626 73.2981 24.9689 76.8578C32.3432 80.309 38.8543 79.9557 38.8543 79.9557C38.8543 79.9557 33.6834 88.4924 24.7088 86.5353Z" fill="#FFE200"/>
<path d="M43.7188 7.50292C39.4734 3.86685 33.245 4.17349 29.8068 8.18784C26.3687 12.2022 27.0231 18.4037 31.2685 22.0397C35.5139 25.6758 41.7423 25.3692 45.1805 21.3548C48.6186 17.3405 47.9642 11.139 43.7188 7.50292ZM36.849 22.4133C31.8886 21.3465 29.0809 16.0317 30.6747 12.2938C30.6747 12.2938 32.9219 15.2985 37.0069 17.2013C40.9674 19.0461 44.4707 18.8436 44.4707 18.8436C44.4707 18.8436 41.6731 23.4505 36.849 22.4133Z" fill="#FFE200"/>
</svg>
