<svg viewBox="0 0 21 20" fill="none" xmlns="http://www.w3.org/2000/svg">
<path d="M10.4681 0.0150145C12.4888 0.0150145 14.5104 0.0117328 16.5311 0.0158349C18.9265 0.0207574 20.4487 1.52294 20.4561 3.89231C20.4611 5.53233 20.447 7.17316 20.4536 8.81318C20.4578 9.73369 20.5093 10.655 20.4985 11.5755C20.4885 12.3918 20.506 13.2229 20.3606 14.0212C20.113 15.3831 19.2331 16.3093 17.9677 16.8631C17.6744 16.9911 17.327 17.0403 17.003 17.0494C16.104 17.074 15.2033 17.0666 14.3035 17.0559C13.8033 17.0502 13.3903 17.2102 13.0389 17.5646C12.3318 18.2767 11.6131 18.979 10.8985 19.6837C10.4714 20.1054 10.2945 20.1079 9.87072 19.6763C9.18691 18.9798 8.50226 18.2833 7.83008 17.5761C7.48443 17.211 7.07149 17.051 6.57213 17.0559C5.79692 17.0633 5.0217 17.0453 4.24649 17.06C2.59553 17.0912 1.54447 16.2043 0.878935 14.8334C0.637149 14.3362 0.552399 13.7324 0.526642 13.1721C0.475128 12.0538 0.514179 10.9307 0.514179 9.80999C0.514179 7.79176 0.485098 5.77189 0.521657 3.75448C0.549907 2.27117 1.14316 1.04546 2.55814 0.396509C3.09074 0.152024 3.72636 0.0642396 4.32293 0.0306025C5.34409 -0.0268268 6.37105 0.0141941 7.39553 0.0141941C8.42001 0.0141941 9.44448 0.0141941 10.469 0.0141941L10.4681 0.0150145Z" fill="white"/>
<path d="M10.4681 0.0150145C12.4888 0.0150145 14.5104 0.0117328 16.5311 0.0158349C18.9265 0.0207574 20.4487 1.52294 20.4561 3.89231C20.4611 5.53233 20.447 7.17317 20.4536 8.81318C20.4578 9.73369 20.5093 10.655 20.4985 11.5755C20.4885 12.3918 20.506 13.2229 20.3606 14.0212C20.113 15.3831 19.2331 16.3093 17.9677 16.8631C17.6744 16.9911 17.327 17.0403 17.003 17.0494C16.104 17.074 15.2033 17.0666 14.3035 17.0559C13.8033 17.0502 13.3903 17.2102 13.0389 17.5646C12.3318 18.2767 11.6131 18.979 10.8985 19.6837C10.4714 20.1054 10.2945 20.1079 9.87072 19.6763C9.18691 18.9798 8.50226 18.2833 7.83008 17.5761C7.48443 17.211 7.07149 17.051 6.57213 17.0559C5.79692 17.0633 5.02171 17.0453 4.24649 17.06C2.59553 17.0912 1.54447 16.2043 0.878935 14.8334C0.637149 14.3362 0.552399 13.7324 0.526642 13.1721C0.475128 12.0538 0.514179 10.9307 0.514179 9.80999C0.514179 7.79176 0.485098 5.77189 0.521657 3.75448C0.549907 2.27117 1.14316 1.04546 2.55814 0.396509C3.09074 0.152024 3.72636 0.0642396 4.32293 0.0306025C5.34409 -0.0268268 6.37106 0.0141941 7.39553 0.0141941C8.42001 0.0141941 9.44448 0.0141941 10.469 0.0141941L10.4681 0.0150145ZM10.4922 18.764C11.0672 18.1947 11.6978 17.5818 12.3143 16.9558C12.8436 16.4185 13.4651 16.1313 14.2362 16.1469C15.0936 16.1641 15.9519 16.1608 16.8102 16.1453C17.0678 16.1412 17.3428 16.1133 17.5788 16.0197C18.7794 15.5439 19.5364 14.415 19.5397 13.1384C19.5438 11.8159 19.5463 10.4942 19.5455 9.17171C19.5455 7.42257 19.543 5.67344 19.5372 3.92431C19.5314 2.05868 18.3989 0.948651 16.5045 0.94783C12.699 0.94701 8.89278 0.94783 5.08734 0.94783C4.70015 0.94783 4.3113 0.934704 3.92577 0.963418C3.02095 1.02987 2.27398 1.42203 1.89012 2.23999C1.64168 2.76916 1.45723 3.38037 1.44809 3.95795C1.40405 6.76952 1.42565 9.58191 1.43147 12.3943C1.4323 12.857 1.4323 13.3255 1.4996 13.7816C1.66827 14.9269 2.9229 16.3028 4.39356 16.1608C4.98265 16.1034 5.58587 16.1904 6.17746 16.1428C7.27588 16.0542 8.12421 16.4382 8.84625 17.2561C9.32317 17.7968 9.9131 18.2406 10.4914 18.764H10.4922Z" fill="#FF0000"/>
<path d="M9.52484 7.04966C9.52484 6.32605 9.52069 5.60162 9.5265 4.87801C9.53149 4.24465 9.92283 3.80819 10.4762 3.80327C11.0379 3.79834 11.4176 4.21101 11.4217 4.86735C11.4301 6.17838 11.4242 7.48941 11.4259 8.80043C11.4259 8.90791 11.4334 9.0162 11.4467 9.12286C11.5198 9.7029 11.1476 10.1147 10.5128 10.1533C9.9461 10.1878 9.4941 9.77017 9.49659 9.21803C9.49908 8.49524 9.49659 7.77245 9.49659 7.04966H9.52484Z" fill="#FF0000"/>
<path d="M10.4466 11.3497C11.1562 11.3194 11.4994 11.7255 11.5534 12.3876C11.6032 12.9971 11.113 13.4861 10.4923 13.5009C9.92069 13.514 9.43379 13.0587 9.40886 12.4885C9.37895 11.7944 9.76033 11.376 10.4475 11.3497H10.4466Z" fill="#FF0000"/>
</svg>
