<svg  viewBox="0 0 13 14" fill="none" xmlns="http://www.w3.org/2000/svg">
<path d="M10.708 3.51953C10.7079 3.77935 10.5047 3.98936 10.2461 4H10.2451L8.05957 4.08105H8.04199C7.78523 4.08105 7.57218 3.87754 7.56152 3.61816C7.55095 3.35062 7.7582 3.12984 8.02344 3.11914H8.02441L9.02051 3.08105C7.29884 1.9238 4.9427 2.03691 3.33496 3.49121C2.07498 4.63019 1.54292 6.3645 1.94141 8.0166L1.95508 8.11328C1.96381 8.33685 1.81248 8.54186 1.58984 8.59766L1.58887 8.59668C1.54775 8.60753 1.51076 8.61133 1.47461 8.61133C1.25807 8.61127 1.06144 8.46605 1.00781 8.24512C0.524408 6.25108 1.16882 4.1556 2.68945 2.77832C3.79472 1.77628 5.22835 1.26532 6.71875 1.34082C7.81147 1.39568 8.84007 1.75887 9.70508 2.38574L9.66602 1.34863C9.65569 1.08123 9.86374 0.861193 10.1289 0.850586C10.3602 0.841416 10.5607 0.998331 10.6143 1.21582L10.6279 1.3125V1.31348L10.708 3.47461L10.709 3.48047H10.708V3.51953Z" fill="black" stroke="black" stroke-width="0.3"/>
<path d="M11.3809 5.40332C11.6073 5.34671 11.8339 5.46339 11.9297 5.66406L11.9629 5.75488V5.75586C12.4463 7.75236 11.8019 9.84538 10.2812 11.2227H10.2803C9.24333 12.1588 7.92359 12.668 6.53613 12.668C6.44299 12.668 6.34746 12.6652 6.25195 12.6602C5.17256 12.6056 4.15456 12.2485 3.29395 11.6348L3.38281 12.624L3.38184 12.7217C3.35832 12.9385 3.18916 13.1119 2.96973 13.1426L2.9707 13.1436C2.96889 13.144 2.96664 13.1432 2.96484 13.1436C2.95928 13.1443 2.95387 13.1469 2.94824 13.1475L2.94727 13.1455C2.92646 13.1484 2.9095 13.1504 2.9043 13.1504C2.65874 13.1501 2.44861 12.9623 2.42676 12.7129L2.23145 10.5342C2.20674 10.2671 2.40262 10.0356 2.66504 10.0107H2.66602L4.84375 9.81543H4.94141C5.16472 9.83919 5.34525 10.0163 5.36719 10.249C5.39212 10.5162 5.19601 10.7484 4.93359 10.7734H4.93262L3.87598 10.8682C4.66673 11.4225 5.59926 11.7041 6.53418 11.7041C7.64027 11.704 8.7505 11.3095 9.63574 10.5098C10.8959 9.37067 11.4301 7.63621 11.0293 5.98438C10.9648 5.72572 11.1264 5.46712 11.3809 5.40332Z" fill="black" stroke="black" stroke-width="0.3"/>
</svg>
