<svg viewBox="0 0 472 212" fill="none" xmlns="http://www.w3.org/2000/svg">
<mask id="mask0_29321_169082" style="mask-type:alpha" maskUnits="userSpaceOnUse" x="0" y="0" width="472" height="212">
<rect x="0.303711" y="0.629883" width="471.243" height="210.963" rx="8.5434" fill="#11A64B"/>
</mask>
<g mask="url(#mask0_29321_169082)">
<path d="M234.987 269.982C326.234 269.982 400.204 200.408 400.204 114.585C400.204 28.7613 326.234 -40.8125 234.987 -40.8125C143.74 -40.8125 69.7705 28.7613 69.7705 114.585C69.7705 200.408 143.74 269.982 234.987 269.982Z" fill="black" fill-opacity="0.15"/>
<path d="M281.344 31.7635L282.076 31.1267L279.51 28.1776C274.228 32.7733 266.624 31.8705 262.028 26.5893L153.024 121.445C157.62 126.727 157.463 134.383 152.182 138.979L154.748 141.928L155.48 141.291C156.4 140.49 157.79 140.587 158.59 141.507C159.391 142.427 159.295 143.816 158.375 144.617L157.643 145.254L160.19 148.181L160.922 147.544C161.842 146.743 163.231 146.84 164.032 147.76C164.833 148.68 164.736 150.07 163.816 150.87L163.084 151.507L165.921 154.767C168.016 152.943 171.189 153.163 173.012 155.259C174.836 157.354 174.616 160.527 172.52 162.35L175.415 165.676L176.146 165.04C177.067 164.239 178.456 164.335 179.257 165.255C180.057 166.176 179.961 167.565 179.041 168.366L178.309 169.002L180.856 171.929L181.588 171.293C182.508 170.492 183.897 170.588 184.698 171.508C185.499 172.429 185.402 173.818 184.482 174.619L183.75 175.256L186.259 178.138C191.54 173.542 199.145 174.445 203.74 179.726L312.748 84.867C308.153 79.5859 308.309 71.9295 313.59 67.3338L311.082 64.4512L310.35 65.088C309.43 65.8887 308.04 65.7923 307.24 64.8721C306.439 63.9519 306.535 62.5626 307.455 61.7618L308.187 61.1251L305.64 58.1981L304.908 58.8349C303.988 59.6356 302.599 59.5392 301.798 58.619C300.997 57.6988 301.094 56.3095 302.014 55.5087L302.746 54.872L299.851 51.5459C297.756 53.3693 294.583 53.1492 292.76 51.0537C290.936 48.9583 291.157 45.7858 293.252 43.9623L290.415 40.7027L289.684 41.3395C288.764 42.1403 285.869 38.8142 286.789 38.0134L287.521 37.3766L284.974 34.4496L284.242 35.0864C283.322 35.8872 281.933 35.7908 281.132 34.8705C280.331 33.9503 280.428 32.5611 281.348 31.7603L281.344 31.7635Z" fill="#FFE200"/>
<path d="M257.053 38.6367L165.64 118.185C162.842 120.62 162.547 124.862 164.982 127.661L199.233 167.02C201.668 169.818 205.91 170.112 208.709 167.677L300.122 88.1293C302.92 85.6941 303.214 81.4516 300.779 78.6533L266.529 39.2943C264.094 36.496 259.851 36.2016 257.053 38.6367Z" fill="white"/>
<path d="M190.245 100.57L189.199 101.48L229.12 147.355L230.165 146.445L190.245 100.57Z" fill="#11A64B"/>
<path d="M210.103 154.115L212.284 152.217L210.447 150.107L208.267 152.004L207.154 150.726L212.823 145.792L213.936 147.071L211.564 149.136L213.4 151.246L215.773 149.181L216.892 150.467L211.223 155.401L210.103 154.115Z" fill="#11A64B"/>
<path d="M205.062 148.322L208.325 145.482C209.301 144.633 209.475 143.833 208.902 143.175C208.33 142.517 207.526 142.541 206.524 143.413L203.261 146.252L202.148 144.974L205.33 142.205C207.082 140.68 208.682 140.84 209.972 142.322C211.262 143.804 211.159 145.283 209.352 146.856L206.188 149.608L205.069 148.322L205.062 148.322Z" fill="#11A64B"/>
<path d="M201.252 143.802C200.825 143.446 200.239 142.877 199.648 142.197C198.914 141.355 198.529 140.658 198.5 139.975C198.477 139.404 198.711 138.875 199.232 138.422C199.957 137.791 200.899 137.874 201.501 138.207L201.527 138.185C201.342 137.651 201.533 137.102 201.928 136.504C202.413 135.771 202.998 134.95 203.126 134.65L204.268 135.962C204.19 136.192 203.847 136.731 203.293 137.505C202.719 138.271 202.735 138.685 203.181 139.213L203.519 139.601L205.747 137.662L206.854 138.933L201.258 143.802L201.252 143.802ZM202.584 140.408L202.144 139.902C201.587 139.262 200.938 139.165 200.443 139.596C199.922 140.049 199.968 140.633 200.472 141.227C200.742 141.537 200.922 141.692 201.017 141.771L202.581 140.411L202.584 140.408Z" fill="#11A64B"/>
<path d="M196.922 138.813C196.495 138.457 195.909 137.889 195.317 137.209C194.584 136.366 194.199 135.669 194.169 134.987C194.147 134.416 194.381 133.887 194.902 133.433C195.627 132.803 196.569 132.886 197.171 133.219L197.197 133.197C197.012 132.663 197.202 132.114 197.598 131.516C198.083 130.782 198.668 129.962 198.796 129.662L199.938 130.974C199.859 131.204 199.517 131.743 198.963 132.517C198.389 133.283 198.405 133.697 198.851 134.225L199.189 134.613L201.417 132.674L202.524 133.945L196.928 138.814L196.922 138.813ZM198.254 135.42L197.814 134.913C197.257 134.274 196.608 134.177 196.113 134.608C195.592 135.061 195.638 135.644 196.142 136.238C196.412 136.549 196.592 136.704 196.687 136.783L198.251 135.423L198.254 135.42Z" fill="#11A64B"/>
<path d="M197.172 127.801L194.851 129.82L193.062 134.526L191.789 133.063L192.647 131.296C192.907 130.758 193.107 130.376 193.355 129.914L193.338 129.896C192.874 130.079 192.43 130.225 191.879 130.413L190.017 131.026L188.766 129.589L193.697 128.577L196.063 126.519L197.175 127.797L197.172 127.801Z" fill="#11A64B"/>
<path d="M185.631 125.994L188.894 123.154C189.869 122.305 190.043 121.505 189.471 120.847C188.898 120.189 188.094 120.213 187.093 121.084L183.83 123.924L182.717 122.646L185.899 119.877C187.651 118.352 189.251 118.512 190.54 119.994C191.83 121.476 191.727 122.955 189.92 124.527L186.757 127.28L185.637 125.994L185.631 125.994Z" fill="#11A64B"/>
<path d="M181.824 121.472C181.414 121.134 180.88 120.625 180.198 119.841C179.516 119.058 179.169 118.353 179.144 117.712C179.114 117.103 179.374 116.447 179.929 115.965C180.483 115.482 181.117 115.255 181.727 115.315C182.521 115.391 183.272 115.881 183.931 116.638C184.079 116.808 184.203 116.966 184.284 117.097L186.313 115.331L187.42 116.603L181.824 121.472ZM183.294 117.959C183.223 117.825 183.115 117.686 182.954 117.501C182.362 116.821 181.652 116.699 181.072 117.204C180.551 117.657 180.556 118.29 181.112 118.929C181.34 119.191 181.517 119.343 181.624 119.412L183.298 117.956L183.294 117.959Z" fill="#11A64B"/>
<path d="M181.233 113.238L177.59 116.746L176.426 115.408L180.397 112.277L181.233 113.238ZM182.66 112.483C182.213 112.872 181.625 112.838 181.236 112.391C180.847 111.944 180.914 111.372 181.348 110.975C181.784 110.596 182.37 110.605 182.766 111.06C183.162 111.514 183.096 112.104 182.66 112.483Z" fill="#11A64B"/>
<path d="M204.297 103.307L208.381 105.9C209.713 106.748 210.951 107.556 212.197 108.518L212.897 109.059L214.251 107.858L213.82 107.104C213.057 105.767 212.364 104.392 211.728 103.026L209.654 98.5642L210.253 98.0336L214.646 108.418L213.274 109.634L203.619 103.908L204.297 103.307Z" fill="#109D47" stroke="#0E9C45" stroke-width="2.13585"/>
<path d="M216.37 92.3291C217.564 91.2704 218.891 90.913 220.148 91.0627C221.357 91.2068 222.566 91.8295 223.559 92.8763L223.718 93.0553C224.969 94.4663 225.477 95.8952 225.433 97.1729C225.389 98.4444 224.794 99.702 223.579 100.779C222.396 101.828 221.095 102.186 219.855 102.035C218.596 101.882 217.314 101.192 216.246 99.9873C215.122 98.7191 214.589 97.3043 214.604 95.9882C214.619 94.6858 215.168 93.3947 216.37 92.3291ZM216.422 92.5051C215.386 93.4238 215.011 94.6509 215.176 95.9015C215.335 97.1061 215.983 98.2941 216.9 99.3293C217.835 100.383 218.948 101.143 220.127 101.416C221.345 101.698 222.582 101.442 223.583 100.554C224.604 99.6488 224.967 98.4221 224.806 97.1808C224.65 95.9785 224.013 94.7832 223.09 93.7425C222.225 92.7667 221.135 92.0042 219.967 91.7007C218.764 91.3881 217.474 91.572 216.422 92.5051Z" fill="#109D47" stroke="#0E9C45" stroke-width="2.13585"/>
<path d="M223.854 85.9783L228.043 90.7033C228.846 91.6092 229.737 92.2731 230.706 92.4989C231.744 92.7405 232.713 92.4426 233.498 91.7461C234.267 91.0648 234.709 90.1564 234.612 89.0881C234.521 88.0873 233.971 87.1107 233.145 86.1795L228.957 81.4545L229.521 80.9537L233.583 85.5355C234.785 86.891 235.211 88.059 235.177 89.0259C235.143 89.9813 234.653 90.9649 233.549 91.9442C232.435 92.9315 231.466 93.263 230.584 93.1646C229.671 93.0628 228.585 92.4732 227.315 91.0407L223.279 86.4882L223.854 85.9783Z" fill="#109D47" stroke="#0E9C45" stroke-width="2.13585"/>
<path d="M236.846 74.1776C237.425 73.6646 237.961 73.3086 238.383 73.0774L238.504 73.3109C238.061 73.5538 237.592 73.87 237.124 74.2849C236.105 75.188 235.398 76.3653 235.288 77.7123C235.176 79.0721 235.687 80.4398 236.787 81.6806C237.777 82.7978 238.998 83.5018 240.344 83.6025C241.696 83.7036 243.007 83.1833 244.145 82.175C244.535 81.8287 244.909 81.4177 245.227 81.008L245.393 81.137C245.091 81.5541 244.629 82.0923 243.987 82.6615C242.499 83.9814 241.057 84.4404 239.795 84.3526C238.525 84.2642 237.281 83.6111 236.215 82.4092C234.943 80.9746 234.516 79.4751 234.661 78.098C234.809 76.7028 235.558 75.3192 236.846 74.1776Z" fill="#109D47" stroke="#0E9C45" stroke-width="2.13585"/>
<path d="M242.046 69.8481L245.315 73.5355L250.488 68.9495L247.219 65.2621L247.783 64.762L254.871 72.7571L254.307 73.2572L250.748 69.2432L245.575 73.8292L249.134 77.8432L248.555 78.3563L241.467 70.3612L242.046 69.8481Z" fill="#109D47" stroke="#0E9C45" stroke-width="2.13585"/>
<path d="M255.592 57.8366L255.751 58.0163L252.008 61.3345L255.193 64.9269L258.723 61.7972L258.873 61.966L255.342 65.0957L258.777 68.9701L262.722 65.4731L262.881 65.6529L258.358 69.6629L251.27 61.6679L255.592 57.8366Z" fill="#109D47" stroke="#0E9C45" stroke-width="2.13585"/>
<path d="M267.431 56.3516C267.858 56.2003 268.418 56.2857 269.367 56.8984L269.367 56.8976C270.008 57.3128 270.624 57.7306 271.233 58.1285C271.262 58.1477 271.292 58.1665 271.322 58.1857L270.741 58.7007C270.666 58.6564 270.584 58.6066 270.496 58.5518C270.285 58.4202 270.042 58.2631 269.77 58.0813L268.865 57.4624C268.224 56.994 267.567 56.6304 266.861 56.554L267.431 56.3516ZM260.902 53.0071C262.274 51.791 263.228 51.3237 264.021 51.2771L264.022 51.2764C264.627 51.2458 265.236 51.4703 265.834 52.1443C266.507 52.9036 266.499 53.9195 266.165 54.6526C266.163 53.9758 265.904 53.3396 265.439 52.8144C264.874 52.1772 264.136 51.7998 263.288 51.8369C262.489 51.872 261.768 52.2684 261.162 52.7896L261.15 52.8C260.717 53.1847 260.441 53.4778 260.261 53.6852L260.11 53.8643L259.537 54.5687L263.197 58.6974L263.201 58.6941L266.522 62.4407L265.972 62.9278L258.905 54.9561C259.436 54.3786 260.122 53.699 260.902 53.0071ZM266.707 56.5412C266.696 56.5407 266.685 56.5396 266.675 56.5393C266.009 56.5165 265.461 56.762 264.995 57.0941C265.423 56.6841 265.763 56.2172 265.964 55.703L266.707 56.5412Z" fill="#109D47" stroke="#0E9C45" stroke-width="2.13585"/>
<mask id="path-21-outside-1_29321_169082" maskUnits="userSpaceOnUse" x="223.864" y="67.9116" width="56.8696" height="61.3966" fill="black">
<rect fill="white" x="223.864" y="67.9116" width="56.8696" height="61.3966"/>
<path d="M226.799 111.394L231.011 107.626C231.943 106.792 232.807 106.217 233.603 105.902C234.401 105.566 235.129 105.421 235.788 105.467C236.438 105.502 237.021 105.675 237.538 105.987C238.045 106.288 238.481 106.642 238.846 107.051C239.525 107.814 239.957 108.578 240.143 109.346C240.328 110.114 240.251 110.967 239.911 111.906L246.801 114.769L244.12 117.167L238.164 114.512L235.834 116.597L239.792 121.038L237.345 123.228L226.799 111.394ZM235.933 112.814C236.322 112.466 236.609 112.14 236.795 111.834C236.972 111.517 237.068 111.223 237.084 110.95C237.102 110.656 237.045 110.38 236.913 110.12C236.782 109.861 236.603 109.604 236.376 109.35C236.189 109.14 235.979 108.97 235.745 108.842C235.501 108.703 235.232 108.636 234.937 108.641C234.644 108.625 234.319 108.708 233.961 108.889C233.605 109.049 233.21 109.322 232.777 109.709L231.063 111.243L234.002 114.541L235.933 112.814Z"/>
<path d="M247.267 109.407C247.798 109.846 248.299 109.993 248.769 109.85C249.24 109.707 249.709 109.427 250.175 109.01C250.73 108.514 251.065 108.095 251.18 107.754C251.296 107.392 251.216 107.056 250.94 106.747C250.743 106.526 250.493 106.402 250.19 106.375C249.898 106.338 249.512 106.475 249.031 106.786L247.655 107.66C246.453 108.437 245.414 108.86 244.538 108.929C243.663 108.977 242.861 108.592 242.133 107.774C241.758 107.355 241.512 106.899 241.395 106.409C241.288 105.909 241.298 105.394 241.424 104.864C241.55 104.334 241.786 103.805 242.133 103.276C242.481 102.727 242.932 102.204 243.487 101.707C244.175 101.092 244.816 100.647 245.411 100.374C245.995 100.09 246.535 99.9343 247.03 99.9082C247.536 99.8722 248.005 99.9499 248.434 100.141C248.875 100.323 249.292 100.566 249.683 100.871L247.839 102.998C247.384 102.689 246.946 102.555 246.523 102.596C246.111 102.626 245.628 102.89 245.073 103.386C244.763 103.664 244.526 103.925 244.365 104.169C244.204 104.392 244.098 104.597 244.045 104.783C244.002 104.96 243.998 105.123 244.031 105.272C244.075 105.411 244.137 105.525 244.216 105.613C244.462 105.889 244.727 106.019 245.012 106.003C245.298 105.966 245.73 105.768 246.308 105.41L247.569 104.609C248.268 104.162 248.886 103.838 249.424 103.635C249.961 103.432 250.45 103.343 250.89 103.366C251.331 103.369 251.733 103.485 252.098 103.715C252.474 103.935 252.844 104.25 253.208 104.658C253.937 105.476 254.212 106.411 254.033 107.465C253.845 108.507 253.102 109.609 251.803 110.77C251.282 111.237 250.738 111.634 250.172 111.961C249.627 112.29 249.063 112.507 248.479 112.612C247.906 112.708 247.325 112.672 246.736 112.503C246.158 112.325 245.592 111.958 245.037 111.402L247.267 109.407Z"/>
<path d="M254.435 103.144L256.815 101.014L259.193 103.683L256.813 105.812L254.435 103.144Z"/>
<path d="M256.778 90.1384L255.727 93.4913L253.173 92.7075L254.784 87.0959L256.765 85.3238L266.972 96.7765L264.591 98.9061L256.778 90.1384Z"/>
<path d="M275.025 90.1084C273.649 91.3395 272.145 91.8113 270.513 91.524C268.891 91.2268 267.155 90.0395 265.304 87.9622C264.378 86.9236 263.681 85.9392 263.211 85.0092C262.742 84.0581 262.475 83.1652 262.409 82.3304C262.354 81.4857 262.496 80.7041 262.833 79.9856C263.16 79.256 263.662 78.5885 264.339 77.9828C265.715 76.7518 267.219 76.2904 268.85 76.5987C270.482 76.886 272.219 78.0628 274.06 80.129C275.911 82.2063 276.882 84.0786 276.972 85.7459C277.072 87.4033 276.424 88.8574 275.025 90.1084ZM273.24 88.0714C273.606 87.7438 273.833 87.3824 273.919 86.9872C274.007 86.571 273.976 86.1222 273.826 85.6406C273.666 85.1481 273.403 84.6289 273.036 84.0832C272.66 83.5264 272.191 82.9331 271.63 82.3032C271.068 81.6734 270.538 81.1452 270.038 80.7186C269.528 80.2809 269.043 79.9604 268.583 79.7568C268.112 79.5422 267.67 79.4607 267.258 79.5123C266.846 79.5428 266.457 79.7219 266.091 80.0496C265.725 80.3772 265.503 80.7441 265.426 81.1504C265.34 81.5456 265.376 81.9895 265.536 82.4821C265.697 82.9537 265.966 83.4679 266.342 84.0246C266.709 84.5704 267.173 85.1582 267.734 85.788C268.296 86.4178 268.831 86.9515 269.341 87.3892C269.841 87.8158 270.32 88.1414 270.78 88.3659C271.24 88.5694 271.676 88.6559 272.088 88.6253C272.49 88.5837 272.874 88.3991 273.24 88.0714Z"/>
</mask>
<path d="M226.799 111.394L231.011 107.626C231.943 106.792 232.807 106.217 233.603 105.902C234.401 105.566 235.129 105.421 235.788 105.467C236.438 105.502 237.021 105.675 237.538 105.987C238.045 106.288 238.481 106.642 238.846 107.051C239.525 107.814 239.957 108.578 240.143 109.346C240.328 110.114 240.251 110.967 239.911 111.906L246.801 114.769L244.12 117.167L238.164 114.512L235.834 116.597L239.792 121.038L237.345 123.228L226.799 111.394ZM235.933 112.814C236.322 112.466 236.609 112.14 236.795 111.834C236.972 111.517 237.068 111.223 237.084 110.95C237.102 110.656 237.045 110.38 236.913 110.12C236.782 109.861 236.603 109.604 236.376 109.35C236.189 109.14 235.979 108.97 235.745 108.842C235.501 108.703 235.232 108.636 234.937 108.641C234.644 108.625 234.319 108.708 233.961 108.889C233.605 109.049 233.21 109.322 232.777 109.709L231.063 111.243L234.002 114.541L235.933 112.814Z" fill="#109D47"/>
<path d="M247.267 109.407C247.798 109.846 248.299 109.993 248.769 109.85C249.24 109.707 249.709 109.427 250.175 109.01C250.73 108.514 251.065 108.095 251.18 107.754C251.296 107.392 251.216 107.056 250.94 106.747C250.743 106.526 250.493 106.402 250.19 106.375C249.898 106.338 249.512 106.475 249.031 106.786L247.655 107.66C246.453 108.437 245.414 108.86 244.538 108.929C243.663 108.977 242.861 108.592 242.133 107.774C241.758 107.355 241.512 106.899 241.395 106.409C241.288 105.909 241.298 105.394 241.424 104.864C241.55 104.334 241.786 103.805 242.133 103.276C242.481 102.727 242.932 102.204 243.487 101.707C244.175 101.092 244.816 100.647 245.411 100.374C245.995 100.09 246.535 99.9343 247.03 99.9082C247.536 99.8722 248.005 99.9499 248.434 100.141C248.875 100.323 249.292 100.566 249.683 100.871L247.839 102.998C247.384 102.689 246.946 102.555 246.523 102.596C246.111 102.626 245.628 102.89 245.073 103.386C244.763 103.664 244.526 103.925 244.365 104.169C244.204 104.392 244.098 104.597 244.045 104.783C244.002 104.96 243.998 105.123 244.031 105.272C244.075 105.411 244.137 105.525 244.216 105.613C244.462 105.889 244.727 106.019 245.012 106.003C245.298 105.966 245.73 105.768 246.308 105.41L247.569 104.609C248.268 104.162 248.886 103.838 249.424 103.635C249.961 103.432 250.45 103.343 250.89 103.366C251.331 103.369 251.733 103.485 252.098 103.715C252.474 103.935 252.844 104.25 253.208 104.658C253.937 105.476 254.212 106.411 254.033 107.465C253.845 108.507 253.102 109.609 251.803 110.77C251.282 111.237 250.738 111.634 250.172 111.961C249.627 112.29 249.063 112.507 248.479 112.612C247.906 112.708 247.325 112.672 246.736 112.503C246.158 112.325 245.592 111.958 245.037 111.402L247.267 109.407Z" fill="#109D47"/>
<path d="M254.435 103.144L256.815 101.014L259.193 103.683L256.813 105.812L254.435 103.144Z" fill="#109D47"/>
<path d="M256.778 90.1384L255.727 93.4913L253.173 92.7075L254.784 87.0959L256.765 85.3238L266.972 96.7765L264.591 98.9061L256.778 90.1384Z" fill="#109D47"/>
<path d="M275.025 90.1084C273.649 91.3395 272.145 91.8113 270.513 91.524C268.891 91.2268 267.155 90.0395 265.304 87.9622C264.378 86.9236 263.681 85.9392 263.211 85.0092C262.742 84.0581 262.475 83.1652 262.409 82.3304C262.354 81.4857 262.496 80.7041 262.833 79.9856C263.16 79.256 263.662 78.5885 264.339 77.9828C265.715 76.7518 267.219 76.2904 268.85 76.5987C270.482 76.886 272.219 78.0628 274.06 80.129C275.911 82.2063 276.882 84.0786 276.972 85.7459C277.072 87.4033 276.424 88.8574 275.025 90.1084ZM273.24 88.0714C273.606 87.7438 273.833 87.3824 273.919 86.9872C274.007 86.571 273.976 86.1222 273.826 85.6406C273.666 85.1481 273.403 84.6289 273.036 84.0832C272.66 83.5264 272.191 82.9331 271.63 82.3032C271.068 81.6734 270.538 81.1452 270.038 80.7186C269.528 80.2809 269.043 79.9604 268.583 79.7568C268.112 79.5422 267.67 79.4607 267.258 79.5123C266.846 79.5428 266.457 79.7219 266.091 80.0496C265.725 80.3772 265.503 80.7441 265.426 81.1504C265.34 81.5456 265.376 81.9895 265.536 82.4821C265.697 82.9537 265.966 83.4679 266.342 84.0246C266.709 84.5704 267.173 85.1582 267.734 85.788C268.296 86.4178 268.831 86.9515 269.341 87.3892C269.841 87.8158 270.32 88.1414 270.78 88.3659C271.24 88.5694 271.676 88.6559 272.088 88.6253C272.49 88.5837 272.874 88.3991 273.24 88.0714Z" fill="#109D47"/>
<path d="M226.799 111.394L231.011 107.626C231.943 106.792 232.807 106.217 233.603 105.902C234.401 105.566 235.129 105.421 235.788 105.467C236.438 105.502 237.021 105.675 237.538 105.987C238.045 106.288 238.481 106.642 238.846 107.051C239.525 107.814 239.957 108.578 240.143 109.346C240.328 110.114 240.251 110.967 239.911 111.906L246.801 114.769L244.12 117.167L238.164 114.512L235.834 116.597L239.792 121.038L237.345 123.228L226.799 111.394ZM235.933 112.814C236.322 112.466 236.609 112.14 236.795 111.834C236.972 111.517 237.068 111.223 237.084 110.95C237.102 110.656 237.045 110.38 236.913 110.12C236.782 109.861 236.603 109.604 236.376 109.35C236.189 109.14 235.979 108.97 235.745 108.842C235.501 108.703 235.232 108.636 234.937 108.641C234.644 108.625 234.319 108.708 233.961 108.889C233.605 109.049 233.21 109.322 232.777 109.709L231.063 111.243L234.002 114.541L235.933 112.814Z" stroke="#0E9C45" stroke-width="0.42717" mask="url(#path-21-outside-1_29321_169082)"/>
<path d="M247.267 109.407C247.798 109.846 248.299 109.993 248.769 109.85C249.24 109.707 249.709 109.427 250.175 109.01C250.73 108.514 251.065 108.095 251.18 107.754C251.296 107.392 251.216 107.056 250.94 106.747C250.743 106.526 250.493 106.402 250.19 106.375C249.898 106.338 249.512 106.475 249.031 106.786L247.655 107.66C246.453 108.437 245.414 108.86 244.538 108.929C243.663 108.977 242.861 108.592 242.133 107.774C241.758 107.355 241.512 106.899 241.395 106.409C241.288 105.909 241.298 105.394 241.424 104.864C241.55 104.334 241.786 103.805 242.133 103.276C242.481 102.727 242.932 102.204 243.487 101.707C244.175 101.092 244.816 100.647 245.411 100.374C245.995 100.09 246.535 99.9343 247.03 99.9082C247.536 99.8722 248.005 99.9499 248.434 100.141C248.875 100.323 249.292 100.566 249.683 100.871L247.839 102.998C247.384 102.689 246.946 102.555 246.523 102.596C246.111 102.626 245.628 102.89 245.073 103.386C244.763 103.664 244.526 103.925 244.365 104.169C244.204 104.392 244.098 104.597 244.045 104.783C244.002 104.96 243.998 105.123 244.031 105.272C244.075 105.411 244.137 105.525 244.216 105.613C244.462 105.889 244.727 106.019 245.012 106.003C245.298 105.966 245.73 105.768 246.308 105.41L247.569 104.609C248.268 104.162 248.886 103.838 249.424 103.635C249.961 103.432 250.45 103.343 250.89 103.366C251.331 103.369 251.733 103.485 252.098 103.715C252.474 103.935 252.844 104.25 253.208 104.658C253.937 105.476 254.212 106.411 254.033 107.465C253.845 108.507 253.102 109.609 251.803 110.77C251.282 111.237 250.738 111.634 250.172 111.961C249.627 112.29 249.063 112.507 248.479 112.612C247.906 112.708 247.325 112.672 246.736 112.503C246.158 112.325 245.592 111.958 245.037 111.402L247.267 109.407Z" stroke="#0E9C45" stroke-width="0.42717" mask="url(#path-21-outside-1_29321_169082)"/>
<path d="M254.435 103.144L256.815 101.014L259.193 103.683L256.813 105.812L254.435 103.144Z" stroke="#0E9C45" stroke-width="0.42717" mask="url(#path-21-outside-1_29321_169082)"/>
<path d="M256.778 90.1384L255.727 93.4913L253.173 92.7075L254.784 87.0959L256.765 85.3238L266.972 96.7765L264.591 98.9061L256.778 90.1384Z" stroke="#0E9C45" stroke-width="0.42717" mask="url(#path-21-outside-1_29321_169082)"/>
<path d="M275.025 90.1084C273.649 91.3395 272.145 91.8113 270.513 91.524C268.891 91.2268 267.155 90.0395 265.304 87.9622C264.378 86.9236 263.681 85.9392 263.211 85.0092C262.742 84.0581 262.475 83.1652 262.409 82.3304C262.354 81.4857 262.496 80.7041 262.833 79.9856C263.16 79.256 263.662 78.5885 264.339 77.9828C265.715 76.7518 267.219 76.2904 268.85 76.5987C270.482 76.886 272.219 78.0628 274.06 80.129C275.911 82.2063 276.882 84.0786 276.972 85.7459C277.072 87.4033 276.424 88.8574 275.025 90.1084ZM273.24 88.0714C273.606 87.7438 273.833 87.3824 273.919 86.9872C274.007 86.571 273.976 86.1222 273.826 85.6406C273.666 85.1481 273.403 84.6289 273.036 84.0832C272.66 83.5264 272.191 82.9331 271.63 82.3032C271.068 81.6734 270.538 81.1452 270.038 80.7186C269.528 80.2809 269.043 79.9604 268.583 79.7568C268.112 79.5422 267.67 79.4607 267.258 79.5123C266.846 79.5428 266.457 79.7219 266.091 80.0496C265.725 80.3772 265.503 80.7441 265.426 81.1504C265.34 81.5456 265.376 81.9895 265.536 82.4821C265.697 82.9537 265.966 83.4679 266.342 84.0246C266.709 84.5704 267.173 85.1582 267.734 85.788C268.296 86.4178 268.831 86.9515 269.341 87.3892C269.841 87.8158 270.32 88.1414 270.78 88.3659C271.24 88.5694 271.676 88.6559 272.088 88.6253C272.49 88.5837 272.874 88.3991 273.24 88.0714Z" stroke="#0E9C45" stroke-width="0.42717" mask="url(#path-21-outside-1_29321_169082)"/>
<path d="M227.497 122.067L227.964 122.588L223.051 126.984L222.584 126.463L227.497 122.067Z" fill="#109D47" stroke="#0E9C45" stroke-width="2.13585"/>
<path d="M283.604 72.3254L284.071 72.8472L279.158 77.2433L278.691 76.7215L283.604 72.3254Z" fill="#109D47" stroke="#0E9C45" stroke-width="2.13585"/>
<g style="mix-blend-mode:multiply">
<path d="M293.829 101.443H176.123L169.77 106.854H287.483L293.829 101.443Z" fill="#AAA9A9"/>
</g>
<path d="M233.022 191.963C291.834 191.963 339.51 187.528 339.51 182.057C339.51 176.586 291.834 172.151 233.022 172.151C174.211 172.151 126.535 176.586 126.535 182.057C126.535 187.528 174.211 191.963 233.022 191.963Z" fill="#474747" fill-opacity="0.4"/>
<path d="M319.645 122.709H320.615V118.8C313.615 118.8 308.471 113.127 308.471 106.126H163.973C163.973 113.127 158.829 118.8 151.828 118.8V122.709H152.798C154.018 122.709 155.003 123.694 155.003 124.914C155.003 126.134 154.018 127.118 152.798 127.118H151.828V130.998H152.798C154.018 130.998 155.003 131.983 155.003 133.203C155.003 134.423 154.018 135.408 152.798 135.408H151.828V139.729C154.606 139.729 156.855 141.977 156.855 144.755C156.855 147.533 154.606 149.781 151.828 149.781V154.191H152.798C154.018 154.191 155.003 155.175 155.003 156.395C155.003 157.615 154.018 158.6 152.798 158.6H151.828V162.48H152.798C154.018 162.48 155.003 163.465 155.003 164.684C155.003 165.904 154.018 166.889 152.798 166.889H151.828V170.71C158.829 170.71 163.973 176.383 163.973 183.384H308.476C308.476 176.383 313.62 170.71 320.62 170.71V166.889H319.65C318.43 166.889 317.446 165.904 317.446 164.684C317.446 163.465 318.43 162.48 319.65 162.48H320.62V158.6H319.65C318.43 158.6 317.446 157.615 317.446 156.395C317.446 155.175 318.43 154.191 319.65 154.191H320.62V149.781C317.843 149.781 315.594 147.533 315.594 144.755C315.594 141.977 317.843 139.729 320.62 139.729V135.408H319.65C318.43 135.408 318.43 130.998 319.65 130.998H320.62V127.118H319.65C318.43 127.118 317.446 126.134 317.446 124.914C317.446 123.694 318.43 122.709 319.65 122.709H319.645Z" fill="#FFE200"/>
<path d="M296.81 111.95H175.632C171.922 111.95 168.915 114.957 168.915 118.667V170.842C168.915 174.551 171.922 177.558 175.632 177.558H296.81C300.519 177.558 303.526 174.551 303.526 170.842V118.667C303.526 114.957 300.519 111.95 296.81 111.95Z" fill="white"/>
<path d="M218.092 138.008L213.981 125.188H217.156L218.714 130.611C219.15 132.134 219.552 133.599 219.855 135.196H219.914C220.238 133.653 220.639 132.134 221.075 130.67L222.712 125.192H225.793L221.472 138.013H218.087L218.092 138.008Z" fill="#11A64B"/>
<path d="M238.739 131.469C238.739 135.672 236.192 138.225 232.444 138.225C228.696 138.225 226.413 135.354 226.413 131.699C226.413 127.858 228.868 124.982 232.654 124.982C236.441 124.982 238.744 127.932 238.744 131.469H238.739ZM229.475 131.64C229.475 134.153 230.656 135.922 232.596 135.922C234.536 135.922 235.677 134.055 235.677 131.567C235.677 129.264 234.575 127.285 232.576 127.285C230.577 127.285 229.475 129.152 229.475 131.64Z" fill="#11A64B"/>
<path d="M243.543 125.188V132.57C243.543 134.775 244.381 135.902 245.865 135.902C247.349 135.902 248.226 134.839 248.226 132.57V125.188H251.117V132.379C251.117 136.338 249.118 138.219 245.772 138.219C242.426 138.219 240.638 136.431 240.638 132.34V125.188H243.548H243.543Z" fill="#11A64B"/>
<path d="M263.036 137.651C262.502 137.916 261.307 138.205 259.744 138.205C255.31 138.205 253.027 135.447 253.027 131.792C253.027 127.417 256.148 124.982 260.028 124.982C261.532 124.982 262.674 125.286 263.188 125.556L262.6 127.858C262.012 127.613 261.194 127.383 260.165 127.383C257.863 127.383 256.075 128.769 256.075 131.626C256.075 134.193 257.598 135.809 260.185 135.809C261.062 135.809 262.032 135.618 262.6 135.393L263.036 137.656V137.651Z" fill="#11A64B"/>
<path d="M267.86 125.188V130.116H272.637V125.188H275.527V138.008H272.637V132.644H267.86V138.008H264.95V125.188H267.86Z" fill="#11A64B"/>
<path d="M285.677 132.59H280.959V135.632H286.23V138.008H278.049V125.188H285.961V127.564H280.959V130.229H285.677V132.59Z" fill="#11A64B"/>
<path d="M288.202 125.359C289.133 125.207 290.524 125.095 292.063 125.095C293.963 125.095 295.296 125.379 296.212 126.104C296.971 126.711 297.393 127.608 297.393 128.789C297.393 130.425 296.232 131.547 295.129 131.949V132.007C296.026 132.37 296.516 133.227 296.844 134.403C297.246 135.848 297.643 137.524 297.892 138.018H294.924C294.713 137.656 294.409 136.612 294.027 135.03C293.684 133.433 293.131 132.992 291.955 132.977H291.078V138.018H288.207V125.369L288.202 125.359ZM291.073 130.876H292.214C293.66 130.876 294.517 130.151 294.517 129.029C294.517 127.848 293.718 127.26 292.386 127.241C291.68 127.241 291.284 127.299 291.073 127.334V130.871V130.876Z" fill="#11A64B"/>
<mask id="path-35-outside-2_29321_169082" maskUnits="userSpaceOnUse" x="224.311" y="137.705" width="62.1422" height="33.7739" fill="black">
<rect fill="white" x="224.311" y="137.705" width="62.1422" height="33.7739"/>
<path d="M227.821 147.242L233.472 147.217C234.723 147.211 235.751 147.354 236.556 147.647C237.375 147.924 238.016 148.299 238.479 148.77C238.942 149.227 239.264 149.744 239.444 150.32C239.624 150.882 239.715 151.436 239.716 151.984C239.719 153.005 239.535 153.864 239.164 154.562C238.794 155.259 238.17 155.846 237.293 156.324L240.549 163.036L236.953 163.052L234.257 157.115L231.13 157.129L231.146 163.078L227.862 163.093L227.821 147.242ZM233.714 154.364C234.235 154.362 234.667 154.308 235.009 154.203C235.351 154.083 235.619 153.926 235.812 153.733C236.02 153.525 236.161 153.28 236.234 152.999C236.308 152.717 236.345 152.406 236.344 152.066C236.343 151.784 236.298 151.518 236.208 151.267C236.117 151.001 235.961 150.772 235.737 150.581C235.528 150.375 235.229 150.221 234.842 150.119C234.469 150.002 233.993 149.945 233.412 149.948L231.112 149.958L231.123 154.376L233.714 154.364Z"/>
<path d="M244.455 159.333C244.561 160.014 244.838 160.457 245.285 160.662C245.732 160.867 246.269 160.968 246.894 160.965C247.639 160.962 248.167 160.871 248.479 160.692C248.806 160.498 248.969 160.194 248.968 159.779C248.968 159.483 248.863 159.225 248.654 159.004C248.459 158.783 248.079 158.629 247.513 158.543L245.904 158.283C244.489 158.068 243.431 157.695 242.73 157.165C242.043 156.621 241.699 155.801 241.696 154.706C241.694 154.143 241.812 153.64 242.049 153.195C242.301 152.749 242.65 152.37 243.096 152.058C243.542 151.745 244.07 151.506 244.68 151.34C245.305 151.16 245.99 151.068 246.734 151.064C247.658 151.06 248.432 151.153 249.058 151.343C249.684 151.517 250.191 151.759 250.579 152.068C250.982 152.377 251.28 152.746 251.475 153.174C251.685 153.603 251.835 154.061 251.925 154.549L249.134 154.917C248.999 154.384 248.76 153.993 248.417 153.743C248.088 153.493 247.552 153.37 246.807 153.373C246.39 153.375 246.041 153.413 245.758 153.489C245.49 153.549 245.274 153.631 245.111 153.736C244.962 153.84 244.851 153.959 244.777 154.093C244.718 154.226 244.688 154.352 244.688 154.47C244.689 154.84 244.802 155.114 245.026 155.29C245.264 155.452 245.719 155.591 246.389 155.706L247.864 155.944C248.683 156.073 249.361 156.24 249.898 156.445C250.434 156.65 250.859 156.907 251.173 157.216C251.501 157.511 251.726 157.865 251.846 158.279C251.981 158.693 252.049 159.173 252.051 159.721C252.053 160.816 251.639 161.699 250.807 162.369C249.974 163.024 248.687 163.355 246.945 163.363C246.245 163.366 245.575 163.302 244.934 163.172C244.309 163.056 243.742 162.844 243.235 162.536C242.743 162.227 242.332 161.815 242.003 161.298C241.689 160.781 241.509 160.131 241.462 159.347L244.455 159.333Z"/>
<path d="M253.973 159.402L257.167 159.387L257.176 162.962L253.982 162.976L253.973 159.402Z"/>
<path d="M264.354 151.224L261.343 153.036L259.953 150.756L264.881 147.625L267.539 147.613L267.579 162.954L264.385 162.968L264.354 151.224Z"/>
<path d="M278.028 163.307C276.182 163.315 274.743 162.67 273.712 161.372C272.696 160.075 272.185 158.034 272.178 155.252C272.174 153.861 272.305 152.661 272.57 151.654C272.851 150.631 273.243 149.786 273.748 149.117C274.267 148.449 274.891 147.958 275.62 147.644C276.349 147.315 277.167 147.148 278.076 147.144C279.922 147.136 281.353 147.788 282.369 149.101C283.4 150.399 283.919 152.432 283.926 155.199C283.933 157.982 283.418 160.026 282.379 161.334C281.355 162.641 279.904 163.298 278.028 163.307ZM278.044 160.598C278.535 160.596 278.944 160.476 279.271 160.237C279.613 159.984 279.887 159.628 280.095 159.168C280.302 158.694 280.449 158.131 280.537 157.479C280.625 156.812 280.667 156.057 280.665 155.214C280.663 154.37 280.616 153.623 280.525 152.972C280.434 152.307 280.284 151.745 280.074 151.287C279.865 150.814 279.588 150.46 279.245 150.225C278.917 149.975 278.507 149.851 278.016 149.853C277.524 149.855 277.115 149.983 276.788 150.236C276.461 150.474 276.194 150.831 275.987 151.305C275.794 151.765 275.654 152.328 275.567 152.994C275.479 153.646 275.436 154.394 275.439 155.237C275.441 156.081 275.487 156.836 275.579 157.501C275.67 158.152 275.812 158.714 276.007 159.186C276.217 159.644 276.486 159.998 276.814 160.249C277.142 160.484 277.552 160.6 278.044 160.598Z"/>
</mask>
<path d="M227.821 147.242L233.472 147.217C234.723 147.211 235.751 147.354 236.556 147.647C237.375 147.924 238.016 148.299 238.479 148.77C238.942 149.227 239.264 149.744 239.444 150.32C239.624 150.882 239.715 151.436 239.716 151.984C239.719 153.005 239.535 153.864 239.164 154.562C238.794 155.259 238.17 155.846 237.293 156.324L240.549 163.036L236.953 163.052L234.257 157.115L231.13 157.129L231.146 163.078L227.862 163.093L227.821 147.242ZM233.714 154.364C234.235 154.362 234.667 154.308 235.009 154.203C235.351 154.083 235.619 153.926 235.812 153.733C236.02 153.525 236.161 153.28 236.234 152.999C236.308 152.717 236.345 152.406 236.344 152.066C236.343 151.784 236.298 151.518 236.208 151.267C236.117 151.001 235.961 150.772 235.737 150.581C235.528 150.375 235.229 150.221 234.842 150.119C234.469 150.002 233.993 149.945 233.412 149.948L231.112 149.958L231.123 154.376L233.714 154.364Z" fill="#11A64B"/>
<path d="M244.455 159.333C244.561 160.014 244.838 160.457 245.285 160.662C245.732 160.867 246.269 160.968 246.894 160.965C247.639 160.962 248.167 160.871 248.479 160.692C248.806 160.498 248.969 160.194 248.968 159.779C248.968 159.483 248.863 159.225 248.654 159.004C248.459 158.783 248.079 158.629 247.513 158.543L245.904 158.283C244.489 158.068 243.431 157.695 242.73 157.165C242.043 156.621 241.699 155.801 241.696 154.706C241.694 154.143 241.812 153.64 242.049 153.195C242.301 152.749 242.65 152.37 243.096 152.058C243.542 151.745 244.07 151.506 244.68 151.34C245.305 151.16 245.99 151.068 246.734 151.064C247.658 151.06 248.432 151.153 249.058 151.343C249.684 151.517 250.191 151.759 250.579 152.068C250.982 152.377 251.28 152.746 251.475 153.174C251.685 153.603 251.835 154.061 251.925 154.549L249.134 154.917C248.999 154.384 248.76 153.993 248.417 153.743C248.088 153.493 247.552 153.37 246.807 153.373C246.39 153.375 246.041 153.413 245.758 153.489C245.49 153.549 245.274 153.631 245.111 153.736C244.962 153.84 244.851 153.959 244.777 154.093C244.718 154.226 244.688 154.352 244.688 154.47C244.689 154.84 244.802 155.114 245.026 155.29C245.264 155.452 245.719 155.591 246.389 155.706L247.864 155.944C248.683 156.073 249.361 156.24 249.898 156.445C250.434 156.65 250.859 156.907 251.173 157.216C251.501 157.511 251.726 157.865 251.846 158.279C251.981 158.693 252.049 159.173 252.051 159.721C252.053 160.816 251.639 161.699 250.807 162.369C249.974 163.024 248.687 163.355 246.945 163.363C246.245 163.366 245.575 163.302 244.934 163.172C244.309 163.056 243.742 162.844 243.235 162.536C242.743 162.227 242.332 161.815 242.003 161.298C241.689 160.781 241.509 160.131 241.462 159.347L244.455 159.333Z" fill="#11A64B"/>
<path d="M253.973 159.402L257.167 159.387L257.176 162.962L253.982 162.976L253.973 159.402Z" fill="#11A64B"/>
<path d="M264.354 151.224L261.343 153.036L259.953 150.756L264.881 147.625L267.539 147.613L267.579 162.954L264.385 162.968L264.354 151.224Z" fill="#11A64B"/>
<path d="M278.028 163.307C276.182 163.315 274.743 162.67 273.712 161.372C272.696 160.075 272.185 158.034 272.178 155.252C272.174 153.861 272.305 152.661 272.57 151.654C272.851 150.631 273.243 149.786 273.748 149.117C274.267 148.449 274.891 147.958 275.62 147.644C276.349 147.315 277.167 147.148 278.076 147.144C279.922 147.136 281.353 147.788 282.369 149.101C283.4 150.399 283.919 152.432 283.926 155.199C283.933 157.982 283.418 160.026 282.379 161.334C281.355 162.641 279.904 163.298 278.028 163.307ZM278.044 160.598C278.535 160.596 278.944 160.476 279.271 160.237C279.613 159.984 279.887 159.628 280.095 159.168C280.302 158.694 280.449 158.131 280.537 157.479C280.625 156.812 280.667 156.057 280.665 155.214C280.663 154.37 280.616 153.623 280.525 152.972C280.434 152.307 280.284 151.745 280.074 151.287C279.865 150.814 279.588 150.46 279.245 150.225C278.917 149.975 278.507 149.851 278.016 149.853C277.524 149.855 277.115 149.983 276.788 150.236C276.461 150.474 276.194 150.831 275.987 151.305C275.794 151.765 275.654 152.328 275.567 152.994C275.479 153.646 275.436 154.394 275.439 155.237C275.441 156.081 275.487 156.836 275.579 157.501C275.67 158.152 275.812 158.714 276.007 159.186C276.217 159.644 276.486 159.998 276.814 160.249C277.142 160.484 277.552 160.6 278.044 160.598Z" fill="#11A64B"/>
<path d="M227.821 147.242L233.472 147.217C234.723 147.211 235.751 147.354 236.556 147.647C237.375 147.924 238.016 148.299 238.479 148.77C238.942 149.227 239.264 149.744 239.444 150.32C239.624 150.882 239.715 151.436 239.716 151.984C239.719 153.005 239.535 153.864 239.164 154.562C238.794 155.259 238.17 155.846 237.293 156.324L240.549 163.036L236.953 163.052L234.257 157.115L231.13 157.129L231.146 163.078L227.862 163.093L227.821 147.242ZM233.714 154.364C234.235 154.362 234.667 154.308 235.009 154.203C235.351 154.083 235.619 153.926 235.812 153.733C236.02 153.525 236.161 153.28 236.234 152.999C236.308 152.717 236.345 152.406 236.344 152.066C236.343 151.784 236.298 151.518 236.208 151.267C236.117 151.001 235.961 150.772 235.737 150.581C235.528 150.375 235.229 150.221 234.842 150.119C234.469 150.002 233.993 149.945 233.412 149.948L231.112 149.958L231.123 154.376L233.714 154.364Z" stroke="#11A64B" stroke-width="0.42717" mask="url(#path-35-outside-2_29321_169082)"/>
<path d="M244.455 159.333C244.561 160.014 244.838 160.457 245.285 160.662C245.732 160.867 246.269 160.968 246.894 160.965C247.639 160.962 248.167 160.871 248.479 160.692C248.806 160.498 248.969 160.194 248.968 159.779C248.968 159.483 248.863 159.225 248.654 159.004C248.459 158.783 248.079 158.629 247.513 158.543L245.904 158.283C244.489 158.068 243.431 157.695 242.73 157.165C242.043 156.621 241.699 155.801 241.696 154.706C241.694 154.143 241.812 153.64 242.049 153.195C242.301 152.749 242.65 152.37 243.096 152.058C243.542 151.745 244.07 151.506 244.68 151.34C245.305 151.16 245.99 151.068 246.734 151.064C247.658 151.06 248.432 151.153 249.058 151.343C249.684 151.517 250.191 151.759 250.579 152.068C250.982 152.377 251.28 152.746 251.475 153.174C251.685 153.603 251.835 154.061 251.925 154.549L249.134 154.917C248.999 154.384 248.76 153.993 248.417 153.743C248.088 153.493 247.552 153.37 246.807 153.373C246.39 153.375 246.041 153.413 245.758 153.489C245.49 153.549 245.274 153.631 245.111 153.736C244.962 153.84 244.851 153.959 244.777 154.093C244.718 154.226 244.688 154.352 244.688 154.47C244.689 154.84 244.802 155.114 245.026 155.29C245.264 155.452 245.719 155.591 246.389 155.706L247.864 155.944C248.683 156.073 249.361 156.24 249.898 156.445C250.434 156.65 250.859 156.907 251.173 157.216C251.501 157.511 251.726 157.865 251.846 158.279C251.981 158.693 252.049 159.173 252.051 159.721C252.053 160.816 251.639 161.699 250.807 162.369C249.974 163.024 248.687 163.355 246.945 163.363C246.245 163.366 245.575 163.302 244.934 163.172C244.309 163.056 243.742 162.844 243.235 162.536C242.743 162.227 242.332 161.815 242.003 161.298C241.689 160.781 241.509 160.131 241.462 159.347L244.455 159.333Z" stroke="#11A64B" stroke-width="0.42717" mask="url(#path-35-outside-2_29321_169082)"/>
<path d="M253.973 159.402L257.167 159.387L257.176 162.962L253.982 162.976L253.973 159.402Z" stroke="#11A64B" stroke-width="0.42717" mask="url(#path-35-outside-2_29321_169082)"/>
<path d="M264.354 151.224L261.343 153.036L259.953 150.756L264.881 147.625L267.539 147.613L267.579 162.954L264.385 162.968L264.354 151.224Z" stroke="#11A64B" stroke-width="0.42717" mask="url(#path-35-outside-2_29321_169082)"/>
<path d="M278.028 163.307C276.182 163.315 274.743 162.67 273.712 161.372C272.696 160.075 272.185 158.034 272.178 155.252C272.174 153.861 272.305 152.661 272.57 151.654C272.851 150.631 273.243 149.786 273.748 149.117C274.267 148.449 274.891 147.958 275.62 147.644C276.349 147.315 277.167 147.148 278.076 147.144C279.922 147.136 281.353 147.788 282.369 149.101C283.4 150.399 283.919 152.432 283.926 155.199C283.933 157.982 283.418 160.026 282.379 161.334C281.355 162.641 279.904 163.298 278.028 163.307ZM278.044 160.598C278.535 160.596 278.944 160.476 279.271 160.237C279.613 159.984 279.887 159.628 280.095 159.168C280.302 158.694 280.449 158.131 280.537 157.479C280.625 156.812 280.667 156.057 280.665 155.214C280.663 154.37 280.616 153.623 280.525 152.972C280.434 152.307 280.284 151.745 280.074 151.287C279.865 150.814 279.588 150.46 279.245 150.225C278.917 149.975 278.507 149.851 278.016 149.853C277.524 149.855 277.115 149.983 276.788 150.236C276.461 150.474 276.194 150.831 275.987 151.305C275.794 151.765 275.654 152.328 275.567 152.994C275.479 153.646 275.436 154.394 275.439 155.237C275.441 156.081 275.487 156.836 275.579 157.501C275.67 158.152 275.812 158.714 276.007 159.186C276.217 159.644 276.486 159.998 276.814 160.249C277.142 160.484 277.552 160.6 278.044 160.598Z" stroke="#11A64B" stroke-width="0.42717" mask="url(#path-35-outside-2_29321_169082)"/>
<path d="M222.334 154.622L213.605 154.662L213.618 157.498L222.347 157.458L222.334 154.622Z" fill="#11A64B"/>
<path d="M297.323 154.622L288.594 154.662L288.607 157.498L297.336 157.458L297.323 154.622Z" fill="#11A64B"/>
<path d="M206.651 116.263H204.907V173.808H206.651V116.263Z" fill="#11A64B"/>
<path d="M194.028 134.853L191.464 134.851C190.833 134.85 190.517 135.094 190.516 135.704C190.516 135.948 190.555 136.233 190.595 136.396L194.341 136.4C194.46 136.4 194.578 136.522 194.578 136.644L194.577 137.58C194.577 137.702 194.458 137.824 194.34 137.824L189.962 137.82C189.804 137.819 189.686 137.697 189.647 137.575C189.45 136.964 189.333 136.354 189.333 135.703C189.335 134.238 190.085 133.425 191.465 133.427L194.384 133.43C194.502 133.43 194.621 133.552 194.62 133.674L194.62 134.244C194.619 134.61 194.343 134.854 194.028 134.853ZM192.493 131.189L192.848 131.23C193.322 131.231 193.598 130.906 193.598 130.377C193.599 129.97 193.481 129.604 193.284 129.196C193.284 129.156 193.245 129.115 193.245 129.074C193.245 128.993 193.284 128.952 193.324 128.911C193.363 128.871 193.482 128.789 193.482 128.789C193.6 128.708 193.758 128.627 193.876 128.627C194.073 128.627 194.27 128.75 194.349 128.912C194.585 129.36 194.703 129.889 194.703 130.459C194.702 131.11 194.544 131.639 194.228 132.045C193.872 132.452 193.399 132.696 192.807 132.695L191.269 132.693C190.046 132.692 189.298 131.877 189.299 130.494C189.301 129.11 190.011 128.379 191.273 128.38L192.22 128.381C192.338 128.381 192.456 128.503 192.456 128.625L192.454 131.189L192.493 131.189ZM191.625 131.229L191.627 129.683L191.233 129.683C190.759 129.682 190.444 129.966 190.443 130.455C190.443 130.943 190.718 131.228 191.231 131.229L191.625 131.229ZM192.504 120.853L192.859 120.894C193.332 120.895 193.609 120.57 193.609 120.041C193.61 119.634 193.492 119.267 193.295 118.86C193.295 118.819 193.255 118.779 193.256 118.738C193.256 118.657 193.295 118.616 193.335 118.575C193.374 118.535 193.493 118.453 193.493 118.453C193.611 118.372 193.769 118.291 193.887 118.291C194.084 118.291 194.281 118.413 194.36 118.576C194.596 119.024 194.714 119.553 194.713 120.123C194.713 120.774 194.554 121.303 194.238 121.709C193.883 122.116 193.41 122.359 192.818 122.359L191.28 122.357C190.057 122.356 189.308 121.541 189.31 120.158C189.311 118.774 190.022 118.043 191.284 118.044L192.231 118.045C192.349 118.045 192.467 118.167 192.467 118.289L192.464 120.853L192.504 120.853L192.504 120.853ZM191.636 120.893L191.638 119.347L191.244 119.346C190.77 119.346 190.454 119.63 190.454 120.119C190.453 120.607 190.729 120.892 191.242 120.893L191.636 120.893ZM194.609 144.824L194.609 144.254C194.609 144.132 194.491 144.01 194.373 144.01L191.454 144.007C190.113 144.005 189.324 144.737 189.322 145.958C189.322 146.324 189.4 146.731 189.479 146.975L188.02 146.974C187.704 146.973 187.428 147.258 187.427 147.583L187.427 148.153C187.427 148.275 187.545 148.397 187.663 148.398L194.368 148.405C194.487 148.405 194.605 148.283 194.605 148.161L194.606 147.225C194.606 147.103 194.488 146.98 194.37 146.98L190.662 146.976C190.584 146.773 190.545 146.488 190.545 146.284C190.545 145.674 190.822 145.43 191.492 145.431L194.056 145.434C194.332 145.393 194.608 145.149 194.609 144.824L194.609 144.824ZM191.302 138.676L192.761 138.677C193.984 138.678 194.732 139.534 194.731 140.958C194.73 142.382 193.979 143.236 192.757 143.235L191.297 143.233C190.074 143.232 189.326 142.377 189.328 140.952C189.329 139.528 190.079 138.674 191.302 138.676ZM191.3 140.1C190.827 140.099 190.511 140.384 190.511 140.913C190.51 141.442 190.786 141.727 191.299 141.727L192.758 141.729C193.232 141.729 193.508 141.445 193.508 140.916C193.509 140.387 193.233 140.102 192.76 140.101L191.3 140.1ZM190.621 149.174C191.883 149.175 192.75 150.152 192.748 151.455C192.748 151.78 192.708 152.065 192.589 152.35L194.364 152.351C194.483 152.352 194.601 152.474 194.601 152.596L194.6 153.532C194.6 153.654 194.481 153.776 194.363 153.776L188.091 153.769C187.934 153.769 187.816 153.647 187.776 153.525C187.58 152.914 187.462 152.304 187.463 151.653C187.464 150.188 188.333 149.171 189.674 149.173C189.674 149.173 190.62 149.174 190.62 149.174L190.621 149.174ZM189.594 150.637C188.963 150.637 188.647 151.084 188.646 151.694C188.646 152.061 188.764 152.305 188.764 152.305L191.367 152.308C191.485 152.064 191.525 151.942 191.525 151.657C191.526 151.046 191.171 150.598 190.58 150.598L189.594 150.597L189.594 150.637L189.594 150.637ZM190.648 122.886C191.91 122.887 192.777 123.864 192.776 125.167C192.775 125.492 192.736 125.777 192.617 126.062L194.392 126.064C194.51 126.064 194.628 126.186 194.628 126.308L194.627 127.244C194.627 127.366 194.509 127.488 194.39 127.488L188.119 127.481C187.961 127.481 187.843 127.359 187.804 127.237C187.607 126.626 187.489 126.016 187.49 125.365C187.492 123.9 188.36 122.884 189.701 122.885C189.701 122.885 190.648 122.886 190.648 122.886L190.648 122.886ZM189.621 124.35C188.99 124.349 188.674 124.796 188.673 125.407C188.673 125.773 188.791 126.017 188.791 126.017L191.394 126.02C191.513 125.776 191.552 125.654 191.553 125.369C191.553 124.759 191.199 124.311 190.607 124.31L189.621 124.309L189.621 124.35L189.621 124.35Z" fill="#5F259F"/>
<path d="M197.224 164.346C197.228 160.316 193.965 157.046 189.936 157.042C185.906 157.038 182.636 160.301 182.632 164.331C182.627 168.36 185.891 171.63 189.92 171.635C193.95 171.639 197.22 168.376 197.224 164.346Z" fill="#5F259F"/>
<path d="M188.024 161.065C187.739 161.065 187.494 161.304 187.494 161.584L187.493 162.543L184.921 164.738C184.676 164.937 184.594 165.257 184.676 165.577L184.919 166.336C184.96 166.456 185.123 166.496 185.205 166.416L187.532 164.021L187.528 167.658C187.528 167.778 187.61 167.858 187.732 167.858L188.14 167.858C188.425 167.858 188.67 167.619 188.67 167.339L188.671 166.78L190.629 166.782C192.097 166.783 192.954 166.025 192.956 164.746C192.956 164.347 192.916 164.027 192.753 163.627L194.058 163.629C194.425 163.629 194.711 163.35 194.711 162.99L194.712 162.431C194.712 162.311 194.59 162.191 194.468 162.191L188.635 162.184L188.636 161.265C188.636 161.145 188.555 161.066 188.432 161.065L188.024 161.065L188.024 161.065ZM191.529 163.626C191.651 163.866 191.692 164.186 191.692 164.425C191.691 165.065 191.364 165.384 190.63 165.383L188.672 165.381L188.674 163.623L191.529 163.626Z" fill="white"/>
</g>
</svg>
