<svg viewBox="0 0 472 212" fill="none" xmlns="http://www.w3.org/2000/svg">
<mask id="mask0_29321_168940" style="mask-type:alpha" maskUnits="userSpaceOnUse" x="0" y="0" width="472" height="212">
<rect x="0.0195312" y="0.629883" width="471.243" height="210.963" rx="8.5434" fill="#11A64B"/>
</mask>
<g mask="url(#mask0_29321_168940)">
<path d="M234.7 269.982C325.946 269.982 399.916 200.408 399.916 114.585C399.916 28.7613 325.946 -40.8125 234.7 -40.8125C143.453 -40.8125 69.4834 28.7613 69.4834 114.585C69.4834 200.408 143.453 269.982 234.7 269.982Z" fill="black" fill-opacity="0.15"/>
<path d="M288.858 24.1478C292.255 22.1502 297.139 24.5067 296.869 28.7889C296.857 28.9504 296.797 29.064 296.701 29.1358C296.755 29.4169 296.605 29.7398 296.233 29.7398L268.562 29.7159C259.368 29.7039 250.072 30.0867 240.891 29.5724C240.518 29.5544 240.422 29.1477 240.608 28.9324C238.106 25.4337 239.156 20.1048 242.667 17.6587C246.064 15.2903 250.546 16.6599 252.359 20.1108C251.903 14.154 256.536 8.71747 262.621 8.20313C269.516 7.61103 275.061 13.221 274.971 19.9075C277.66 17.575 281.17 16.014 284.741 17.24C287.658 18.2508 289.518 21.1873 288.858 24.1538V24.1478ZM268.568 28.7171L295.945 28.747C295.489 25.0449 292.008 23.1251 288.696 25.1287C288.588 25.1944 288.474 25.1825 288.378 25.1287C288.03 25.2543 287.574 25.0031 287.718 24.5545C288.87 21.0617 286.097 18.0175 282.623 17.7903C279.616 17.5929 277.006 19.1419 274.803 21.0199C274.773 21.0498 274.743 21.0737 274.707 21.0976C274.617 21.1754 274.527 21.2531 274.437 21.3309C274.113 21.618 273.651 21.1694 273.957 20.8524C273.957 20.8046 273.939 20.7687 273.945 20.7149C274.461 14.3633 269.51 8.75934 262.969 9.15407C256.56 9.54281 252.737 15.2604 253.211 21.307C253.229 21.5342 253.025 21.6538 252.833 21.6299C252.653 21.9648 252.047 22.0187 251.897 21.5462C250.6 17.4912 245.601 16.0499 242.457 19.0761C239.696 21.7376 239.846 25.4815 241.377 28.6872C241.389 28.7171 241.389 28.741 241.395 28.765C250.414 28.3104 259.536 28.6932 268.568 28.6992V28.7171Z" fill="white"/>
<path d="M295.946 28.748L268.569 28.7181C259.537 28.7062 250.415 28.3294 241.396 28.7839C241.396 28.754 241.384 28.7301 241.378 28.7062C239.841 25.5005 239.691 21.7505 242.458 19.0951C245.603 16.0688 250.602 17.5102 251.898 21.5651C252.054 22.0316 252.66 21.9838 252.834 21.6489C253.026 21.6668 253.23 21.5532 253.212 21.3259C252.738 15.2794 256.561 9.56176 262.97 9.17301C269.511 8.77828 274.462 14.3763 273.946 20.7338C273.946 20.7876 273.958 20.8235 273.958 20.8654C273.652 21.1883 274.114 21.6369 274.438 21.3498C274.528 21.2721 274.618 21.1943 274.708 21.1166C274.738 21.0927 274.774 21.0628 274.804 21.0388C277.013 19.1609 279.617 17.6059 282.624 17.8092C286.104 18.0365 288.871 21.0807 287.719 24.5735C287.569 25.022 288.031 25.2732 288.379 25.1476C288.475 25.1955 288.589 25.2074 288.697 25.1476C292.016 23.15 295.49 25.0699 295.946 28.766V28.748Z" fill="white"/>
<path d="M239.088 185.39C315.133 185.39 376.779 180.238 376.779 173.883C376.779 167.528 315.133 162.376 239.088 162.376C163.044 162.376 101.397 167.528 101.397 173.883C101.397 180.238 163.044 185.39 239.088 185.39Z" fill="#474747" fill-opacity="0.4"/>
<path d="M224.686 34.5961C224.927 34.7935 224.975 35.0686 224.915 35.3078C230.244 46.8208 211.442 56.7668 202.806 49.4224C203.586 55.5646 199.506 61.6052 194.033 64.2905C188.788 66.8682 182.012 66.94 176.377 64.769L175.621 65.1278C175.489 64.8527 175.351 64.5776 175.225 64.3025C175.225 64.3025 175.225 64.2985 175.225 64.2905C174.457 63.9377 173.719 63.5549 173.016 63.1183L172.728 63.2738C173.473 65.1996 173.641 67.0955 173.371 68.9077C173.521 69.1469 173.671 69.3861 173.821 69.6314L173.13 70.056C171.876 75.0081 167.429 79.2185 162.658 81.3596C156.465 84.1407 147.992 84.4875 141.996 80.8094C141.24 86.832 139.722 93.5424 133.589 96.168C128.068 98.5423 119.954 97.7409 116.545 92.3343C116.461 92.2805 116.401 92.1908 116.389 92.0652C116.389 92.0652 116.389 92.0472 116.383 92.0412C116.353 91.9635 116.347 91.8857 116.365 91.808C115.201 80.7017 117.386 69.4101 121.959 59.2488C130.384 40.5469 146.917 26.1573 167.111 21.6059C187.023 17.1203 208.759 21.7973 224.698 34.5961H224.686ZM223.846 36.0554C216.753 39.8293 209.654 43.6091 202.566 47.3889C202.608 47.4786 202.626 47.5743 202.62 47.664C206.455 50.9714 211.49 51.5456 216.291 49.4164C221.344 47.1676 226.361 41.8328 223.852 36.0554H223.846ZM201.696 46.3842L223.108 34.9908C214.647 28.4359 204.661 24.1059 194.093 22.2518C179.924 19.7758 165.287 21.8571 152.679 28.2505C170.37 25.1226 189.76 33.5016 201.696 46.3842ZM201.252 48.0827C192.286 52.8553 183.314 57.628 174.355 62.4066C179.876 64.452 185.169 66.0728 191.236 64.0693C198.299 61.7308 202.434 55.3134 201.252 48.0887V48.0827ZM172.74 61.8025C182 56.8744 191.26 51.9463 200.52 47.0181C194.519 40.6068 187.095 35.6726 178.844 32.6105C170.286 29.4347 161.68 28.8426 152.667 29.2613C156.099 34.2313 158.8 39.8352 161.902 44.9966C165.269 50.6006 168.732 56.1448 172.29 61.6351C172.434 61.6949 172.59 61.7487 172.734 61.8025H172.74ZM170.334 63.0824C170.67 62.903 171.006 62.7296 171.348 62.5501C167.831 57.1256 164.399 51.6532 161.098 46.0971C157.834 40.6008 154.047 34.9968 151.628 29.0639C145.507 35.7205 142.687 43.8364 141.354 52.6998C140.712 57.006 140.13 61.4018 139.902 65.7558C139.674 70.1158 140.442 74.0033 141.78 78.0941C151.292 73.0643 160.852 68.1242 170.328 63.0824H170.334ZM171.606 63.8659C171.384 63.9855 171.168 64.0992 170.946 64.2188C161.392 69.2964 151.886 74.5117 142.338 79.6312C148.142 82.1431 154.053 83.088 160.294 80.923C167.615 78.3812 173.785 71.8024 171.606 63.8719V63.8659ZM150.098 29.6381C145.861 32.0363 141.882 34.943 138.264 38.364C123.741 52.1137 116.293 71.6648 117.278 91.497C117.278 91.497 117.284 91.485 117.29 91.485C124.995 87.0593 132.827 82.8309 140.7 78.6623C136.889 70.3371 138.882 60.1578 140.31 51.4977C141.6 43.645 144.061 35.1583 150.098 29.644V29.6381ZM134.669 94.1106C139.146 91.2458 140.148 85.4385 140.736 80.4864C133.163 84.5354 125.559 88.5126 117.866 92.2984C122.007 96.766 129.55 97.388 134.669 94.1166V94.1106Z" fill="white"/>
<path d="M202.572 47.3872C209.666 43.6134 216.765 39.8335 223.853 36.0537C226.361 41.8311 221.35 47.1719 216.291 49.4147C211.49 51.5439 206.455 50.9637 202.62 47.6624C202.62 47.5726 202.608 47.4769 202.566 47.3872H202.572Z" fill="#00953B"/>
<path d="M223.113 34.9928L201.701 46.3861C189.765 33.5036 170.369 25.1246 152.684 28.2525C165.292 21.8531 179.929 19.7718 194.098 22.2538C204.666 24.1019 214.652 28.4379 223.113 34.9928Z" fill="white"/>
<path d="M174.351 62.3991C183.316 57.6205 192.282 52.8478 201.248 48.0752C202.424 55.3059 198.295 61.7173 191.232 64.0558C185.165 66.0653 179.872 64.4385 174.351 62.3931V62.3991Z" fill="white"/>
<path d="M200.531 47.0103C191.271 51.9384 182.011 56.8666 172.751 61.7947C172.607 61.7349 172.451 61.6811 172.307 61.6273C168.749 56.1369 165.286 50.5928 161.919 44.9888C158.817 39.8274 156.116 34.2234 152.684 29.2534C161.691 28.8348 170.297 29.4269 178.861 32.6027C187.112 35.6648 194.536 40.5989 200.537 47.0103H200.531Z" fill="#00953B"/>
<path d="M200.377 107.406C208.359 121.987 216.424 136.55 224.01 151.335C224.118 151.544 224.094 151.741 224.01 151.897C224.076 153.679 221.975 155.019 220.349 154.259C220.313 154.241 220.283 154.211 220.259 154.194C220.205 154.732 219.383 155.043 219.053 154.445L195.678 111.736C191.783 104.625 187.901 97.496 184.036 90.3669C180.393 83.6326 176.432 76.976 173.132 70.0623L173.822 69.6376C177.987 76.3241 181.557 83.4412 185.362 90.331C189.191 97.2567 193.008 104.194 196.806 111.138C204.59 125.354 212.373 139.577 220.157 153.793C220.235 153.583 220.451 153.404 220.703 153.476C221.777 153.769 222.761 153.015 222.953 151.987C222.941 151.963 222.923 151.957 222.911 151.933C214.936 137.34 207.23 122.609 199.237 108.028C195.246 100.738 191.231 93.459 187.187 86.1983C183.31 79.2248 179.073 72.3409 175.628 65.1401L176.384 64.7812C180.873 71.6053 184.642 78.9855 188.609 86.1086C192.558 93.2018 196.482 100.307 200.383 107.418L200.377 107.406Z" fill="white"/>
<path d="M222.905 151.921C222.905 151.921 222.935 151.95 222.947 151.974C222.755 152.997 221.777 153.757 220.697 153.464C220.451 153.392 220.229 153.571 220.151 153.781C212.367 139.564 204.584 125.342 196.8 111.126C192.996 104.188 189.185 97.2445 185.356 90.3188C181.545 83.4289 177.975 76.3118 173.816 69.6253C173.666 69.3801 173.516 69.1409 173.366 68.9017C173.636 67.0895 173.468 65.1876 172.724 63.2678L173.012 63.1123C173.72 63.5489 174.458 63.9376 175.22 64.2845C175.22 64.2845 175.22 64.2885 175.22 64.2965C175.346 64.5716 175.484 64.8467 175.616 65.1218C179.061 72.3227 183.304 79.2005 187.174 86.1801C191.219 93.4467 195.234 100.719 199.225 108.01C207.212 122.591 214.924 137.327 222.899 151.915L222.905 151.921Z" fill="white"/>
<path d="M171.356 62.54C171.02 62.7194 170.684 62.8928 170.342 63.0722C160.86 68.12 151.3 73.0601 141.794 78.0839C140.45 73.9931 139.688 70.1056 139.916 65.7456C140.144 61.3857 140.72 56.9958 141.368 52.6897C142.701 43.8262 145.521 35.7103 151.642 29.0537C154.067 34.9866 157.847 40.5906 161.112 46.0869C164.413 51.637 167.845 57.1154 171.362 62.54H171.356Z" fill="white"/>
<path d="M170.945 64.2113C171.167 64.0917 171.384 63.978 171.606 63.8584C173.784 71.7889 167.615 78.3677 160.293 80.9095C154.052 83.0805 148.141 82.1296 142.338 79.6177C151.892 74.4982 161.392 69.2829 170.945 64.2053V64.2113Z" fill="#00953B"/>
<path d="M138.273 38.3597C141.885 34.9387 145.864 32.0321 150.107 29.6338C144.076 35.154 141.615 43.6407 140.319 51.4875C138.891 60.1476 136.898 70.3268 140.709 78.652C132.836 82.8147 125.004 87.049 117.299 91.4748C117.299 91.4748 117.293 91.4867 117.287 91.4867C116.296 71.6546 123.75 52.0975 138.273 38.3537V38.3597Z" fill="#00953B"/>
<path d="M140.745 80.4796C140.157 85.4377 139.155 91.239 134.678 94.1038C129.559 97.3752 122.016 96.7532 117.875 92.2856C125.568 88.4998 133.172 84.5226 140.745 80.4736V80.4796Z" fill="white"/>
<path d="M323.12 122.676C322.015 125.158 319.207 132.138 317.941 134.542C316.878 136.558 316.368 136.6 314.28 136.193C312.756 135.9 311.243 135.523 309.755 135.086C306.79 134.225 305.254 133.615 302.41 132.437C305.08 130.176 299.799 119.686 298.965 115.404C299.049 115.338 299.133 115.254 299.175 115.129C299.355 114.65 299.529 114.172 299.703 113.693C300.975 112.97 302.229 112.216 303.502 111.492C304.876 110.715 306.664 109.333 308.219 108.95C309.683 108.592 309.341 109.082 309.755 110.051C310.139 110.96 310.133 112.814 310.247 113.932C310.469 116.044 310.595 118.161 310.673 120.284C310.685 120.685 311.165 121.05 311.537 120.78C314.274 118.825 317.004 116.857 319.735 114.883C320.899 114.046 320.785 113.562 321.697 114.782C322.321 115.607 322.303 116.432 322.423 117.401C322.633 119.094 322.837 120.78 323.054 122.467C323.054 122.545 323.09 122.617 323.12 122.676Z" fill="white"/>
<path d="M267.962 129.049C270.002 129.546 272.019 128.361 272.679 126.394C275.817 128.535 280.102 126.938 280.72 123.206C281.741 123.99 282.917 124.438 284.273 124.271C285.161 124.163 285.989 123.792 286.68 123.224C287.286 122.728 287.682 121.406 288.18 121.065C288.834 120.622 290.814 121.394 291.907 121.268C293.527 121.077 294.901 120.353 296.005 119.211C296.263 119.845 299.186 127.596 299.162 128.092C299.048 130.395 296.455 130.58 294.811 131.143C291.811 132.165 288.81 133.182 285.815 134.205C282.815 135.227 279.814 136.256 276.82 137.285C275.949 137.578 273.165 139.067 272.319 138.822C271.263 138.511 268.226 130.174 267.962 129.049Z" fill="#A4CED4"/>
<path d="M265.617 121.269C266.727 122.919 268.882 123.32 270.682 122.561C272.525 121.789 273.551 119.971 274.025 118.093C276.923 121.137 282.336 119.361 283.021 115.21C286.393 118.5 291.884 116.891 293.625 112.794C294.087 114.205 294.561 115.611 295.053 117.016C295.179 117.381 295.389 117.83 295.611 118.308C293.637 120.443 290.798 121.006 288.194 119.63C287.948 119.504 287.581 119.606 287.521 119.905C286.819 123.153 283.489 124.474 280.794 122.423C280.794 122.315 280.812 122.208 280.806 122.094C280.794 121.55 279.996 121.556 279.966 122.094C279.756 125.898 275.831 127.985 272.735 125.342C272.507 125.15 272.05 125.18 271.996 125.533C271.672 127.596 269.794 128.798 267.796 128.362C267.766 128.224 267.73 128.099 267.688 127.979C266.979 125.754 266.307 123.511 265.617 121.269Z" fill="#A4CED4"/>
<path d="M306.761 101.436C308.369 101.465 310.362 102.387 311.904 102.793C315.337 103.702 318.769 104.599 322.196 105.502C323.75 105.915 325.953 106.107 327.345 106.854C329.193 107.853 328.095 109.587 327.537 111.274C326.505 114.408 325.34 117.494 324.056 120.532C323.888 118.535 323.762 116.459 323.276 114.593C323.048 113.732 322.94 112.847 321.986 112.554C320.606 112.135 319.195 113.822 318.169 114.563C316.039 116.106 313.902 117.649 311.772 119.204C311.652 116.812 311.466 114.432 311.148 112.057C310.98 110.819 311.196 108.098 309.797 107.404C308.753 106.884 306.593 108.618 305.795 109.055C303.892 110.096 301.99 111.178 300.184 112.386C301.006 110.15 301.834 107.907 302.656 105.67C303.454 103.493 304.006 101.382 306.761 101.436Z" fill="#8CC5DF"/>
<path d="M298.282 113.276C298.024 112.463 297.772 111.65 297.514 110.836C297.538 110.806 297.568 110.782 297.586 110.741C299.122 107.242 299.986 103.39 301.642 99.9632C303.383 96.3568 306.413 97.5889 309.318 98.462C311.346 99.0721 313.375 99.6761 315.397 100.286L326.865 103.719L326.439 105.137C325.593 104.969 324.783 104.861 324.255 104.718C320.636 103.767 317.011 102.816 313.387 101.871L308.238 100.525C307.332 100.286 305.279 99.3532 304.223 99.724C302.705 100.268 302.303 103.049 301.853 104.287L298.432 113.653L298.408 113.677C298.366 113.546 298.324 113.414 298.282 113.276Z" fill="white"/>
<path d="M296.971 134.941C297.817 134.642 300.157 133.769 300.973 133.404C306.02 135.366 310.335 136.957 315.712 137.728C315.994 137.77 316.456 137.92 316.606 137.651C319.853 131.759 325.404 121.096 327.691 114.768C328.315 113.028 328.933 111.275 329.455 109.499C329.677 108.74 330.199 107.693 329.815 106.862C329.341 105.851 327.841 105.414 326.436 105.139L326.863 103.722L327.001 103.764C329.011 104.368 333.116 104.697 333.242 107.502C333.314 109.039 331.723 111.694 331.183 113.082C328.111 120.934 324.582 128.614 320.639 136.072C319.373 138.476 318.353 140.88 314.992 140.515C312.868 140.282 310.473 139.098 308.427 138.458C304.754 137.31 300.865 136.406 297.295 134.971C297.181 134.923 297.073 134.923 296.971 134.947V134.941Z" fill="white"/>
<path d="M286.755 115.712C286.755 115.712 286.767 115.754 286.773 115.778C285.513 115.647 284.229 115.12 283.089 114.151V114.128C283.071 113.482 282.116 113.482 282.086 114.128C281.882 118.505 277.123 119.989 274.207 117.172C274.243 116.974 274.267 116.777 274.291 116.586C274.345 116.059 273.433 115.928 273.355 116.46C273.343 116.556 273.325 116.657 273.307 116.753C273.241 116.837 273.211 116.945 273.253 117.058C272.995 118.476 272.532 119.869 271.512 120.916C265.919 110.742 285.837 105.557 286.755 115.712Z" fill="#FFE200"/>
<path d="M266.025 120.852C265.869 120.655 265.581 120.81 265.533 121.014C264.399 117.324 263.223 113.645 261.794 110.081C261.722 109.913 261.59 109.83 261.446 109.818L261.47 109.65C261.536 109.668 261.608 109.668 261.68 109.644C271.084 106.451 280.458 103.197 289.874 100.033C290.834 103.687 291.89 107.312 293.03 110.918C292.43 113.932 290.234 115.631 287.773 115.792C287.773 115.763 287.791 115.739 287.785 115.709C286.675 102.874 263.043 111.068 270.946 121.414C269.428 122.503 267.219 122.359 266.025 120.852Z" fill="#8CC5DF"/>
<path d="M273.355 116.458C273.433 115.925 274.346 116.057 274.292 116.583C274.268 116.775 274.244 116.972 274.208 117.169C277.124 119.986 281.883 118.503 282.087 114.125C282.117 113.479 283.071 113.479 283.089 114.125V114.149C284.229 115.118 285.514 115.644 286.774 115.776C286.774 115.752 286.756 115.734 286.756 115.71C285.838 105.555 265.92 110.74 271.513 120.913C272.533 119.867 272.995 118.473 273.253 117.056C273.211 116.942 273.241 116.834 273.307 116.751C273.325 116.655 273.343 116.553 273.355 116.458ZM276.782 136.894C279.777 135.865 282.777 134.837 285.778 133.814C288.772 132.791 291.773 131.774 294.774 130.752C296.418 130.189 299.01 130.004 299.124 127.701C299.148 127.205 296.262 119.843 296.004 119.209C294.9 120.351 293.525 121.075 291.905 121.266C290.813 121.392 288.832 120.62 288.178 121.063C287.68 121.404 287.284 122.726 286.678 123.222C285.988 123.79 285.16 124.161 284.271 124.269C282.915 124.436 281.739 123.987 280.719 123.204C280.101 126.936 275.816 128.533 272.677 126.392C272.017 128.359 270.001 129.544 267.96 129.047C268.224 130.172 271.225 138.12 272.281 138.431C273.127 138.676 275.912 137.187 276.782 136.894ZM265.614 121.266C266.304 123.509 266.976 125.752 267.684 127.977C267.726 128.096 267.762 128.222 267.792 128.359C269.791 128.796 271.669 127.594 271.993 125.53C272.047 125.178 272.503 125.148 272.731 125.339C275.828 127.983 279.753 125.895 279.963 122.092C279.993 121.553 280.791 121.547 280.803 122.092C280.803 122.205 280.803 122.313 280.791 122.42C283.485 124.472 286.816 123.15 287.518 119.903C287.578 119.604 287.944 119.502 288.19 119.627C290.795 121.003 293.633 120.441 295.608 118.306C295.386 117.827 295.176 117.379 295.05 117.014C294.557 115.608 294.083 114.203 293.621 112.791C291.881 116.888 286.39 118.497 283.017 115.208C282.333 119.358 276.92 121.135 274.021 118.09C273.547 119.968 272.521 121.787 270.679 122.558C268.878 123.318 266.724 122.917 265.614 121.266ZM270.523 139.023C269.701 138.078 266.718 128.904 266.352 127.731C265.758 125.859 265.17 123.993 264.576 122.121C263.339 118.198 261.983 114.299 261.035 110.292C260.957 109.975 261.209 109.789 261.449 109.819C261.593 109.831 261.725 109.915 261.797 110.082C263.225 113.647 264.402 117.325 265.536 121.015C265.584 120.812 265.872 120.656 266.028 120.854C267.222 122.361 269.431 122.504 270.949 121.416C263.045 111.069 286.678 102.875 287.788 115.71C287.788 115.74 287.788 115.764 287.776 115.794C290.237 115.632 292.433 113.934 293.033 110.92C291.893 107.313 290.837 103.689 289.877 100.035C280.461 103.198 271.087 106.452 261.683 109.646C261.611 109.67 261.539 109.67 261.473 109.652C261.143 109.568 260.981 109.03 261.353 108.862C270.511 104.831 280.203 101.452 289.847 98.7606C289.907 98.7427 289.961 98.7487 290.021 98.7487C290.351 98.5633 290.837 98.635 290.963 99.1075C292.025 103.18 293.177 107.223 294.461 111.236C295.044 113.055 295.65 114.867 296.28 116.673C296.79 118.132 300.403 126.535 300.487 128.102C300.589 129.902 299.472 130.471 297.924 131.021C294.197 132.343 290.423 133.569 286.672 134.843C282.735 136.176 278.798 137.504 274.856 138.838C273.331 139.352 271.747 140.417 270.523 139.023Z" fill="white"/>
<path d="M259.185 108.438C266.885 105.268 274.656 102.272 282.5 99.4847C284.48 98.785 286.461 98.0912 288.447 97.4154C289.761 96.9668 290.811 96.1534 291.964 97.523C292.558 98.2288 292.75 100.005 293.014 100.848C294.298 104.921 295.582 108.994 296.867 113.061C298.151 117.134 299.435 121.207 300.719 125.274C301.583 128.019 303.222 130.632 299.711 132.582C297.953 133.557 295.624 134.053 293.722 134.717C285.542 137.564 277.279 140.178 268.955 142.576C265.21 131.679 262.264 120.615 259.107 109.538C259.065 109.407 258.993 109.317 258.909 109.257C259.095 109.018 259.203 108.719 259.185 108.438ZM266.357 127.732C266.723 128.904 269.867 138.234 270.689 139.179C271.914 140.573 273.498 139.508 275.022 138.994C278.965 137.66 282.902 136.332 286.839 134.998C290.589 133.725 294.364 132.498 298.091 131.177C299.639 130.627 300.755 130.058 300.653 128.258C300.569 126.691 296.795 118.133 296.284 116.673C295.654 114.867 295.048 113.055 294.466 111.237C293.182 107.224 292.03 103.181 290.967 99.1079C290.841 98.6355 290.355 98.5637 290.025 98.7491C289.965 98.7491 289.911 98.7431 289.851 98.7611C280.207 101.452 270.515 104.832 261.358 108.863C260.986 109.03 261.148 109.568 261.478 109.652L261.454 109.819C261.214 109.79 260.962 109.975 261.04 110.292C261.988 114.299 263.344 118.199 264.58 122.122C265.174 123.994 265.763 125.86 266.357 127.732Z" fill="white"/>
<path d="M330.111 103.348C324.584 101.692 319.056 100.035 313.529 98.3784C310.973 97.6129 308.392 96.656 305.794 96.0639C304.24 95.711 302.919 95.4658 301.719 96.7098C300.543 97.9299 300.189 100.25 299.643 101.77C298.743 104.281 297.818 106.799 297.05 109.353C295.898 105.663 294.746 101.967 293.552 98.2887C292.429 94.8438 291.415 95.0531 288.102 96.1835C277.985 99.6284 267.993 103.42 258.115 107.499C257.365 107.81 257.695 109.048 258.457 108.731C258.481 108.725 258.505 108.713 258.535 108.701C258.535 108.863 258.475 109.018 258.301 109.15C258.259 109.186 258.235 109.228 258.217 109.269C258.061 109.389 257.959 109.586 258.013 109.844C260.413 121.255 264.098 132.529 267.921 143.539C268.035 143.868 268.359 144.089 268.713 143.988C278.213 141.254 287.67 138.294 296.972 134.939C297.818 134.64 298.665 134.329 299.505 134.018C302.571 132.887 303.862 131.805 303.063 128.498C303.123 128.527 303.069 128.204 303.033 128.001C302.949 127.786 302.871 127.57 302.787 127.361C302.775 127.361 302.763 127.349 302.751 127.349C302.727 127.259 302.697 127.176 302.673 127.086C302.565 126.817 300.111 118.91 298.965 115.412C299.049 115.346 299.133 115.262 299.175 115.136C299.355 114.658 299.529 114.18 299.703 113.701C300.975 112.977 302.229 112.224 303.501 111.5C304.876 110.723 306.664 109.341 308.218 108.958C309.683 108.6 309.341 109.09 309.755 110.059C310.139 110.968 310.133 112.822 310.247 113.94C310.469 116.052 310.595 118.169 310.673 120.292C310.685 120.693 311.165 121.057 311.537 120.788C314.274 118.833 317.004 116.865 319.735 114.891C320.899 114.054 320.785 113.57 321.697 114.79C322.321 115.615 322.303 116.44 322.423 117.409C322.633 119.102 322.837 120.788 323.053 122.475C323.053 122.553 323.089 122.624 323.119 122.684C322.015 125.166 320.833 127.618 319.567 130.023C318.504 132.038 316.206 136.583 314.118 136.177C312.593 135.884 311.081 135.507 309.593 135.07C306.94 134.299 304.402 133.276 301.857 132.224C301.923 132.481 301.245 132.116 301.317 132.373C301.323 132.391 300.333 133.031 300.333 133.043C304.876 135.417 311.795 137.188 316.836 137.911C317.118 137.953 317.412 137.887 317.562 137.618C320.809 131.727 325.4 121.099 327.686 114.772C328.31 113.031 328.928 111.279 329.451 109.503C329.673 108.743 330.195 107.696 329.811 106.865C329.336 105.854 327.836 105.418 326.432 105.143C325.586 104.975 324.776 104.868 324.247 104.724C320.629 103.773 317.004 102.822 313.379 101.877L308.23 100.531C307.324 100.292 305.272 99.3593 304.216 99.7301C302.697 100.274 302.295 103.055 301.845 104.293L298.424 113.659L298.4 113.683C298.358 113.552 298.316 113.42 298.274 113.282C298.016 112.469 297.764 111.656 297.506 110.842C297.53 110.812 297.56 110.788 297.578 110.747C299.115 107.248 299.979 103.396 301.635 99.9693C303.375 96.3629 306.406 97.5949 309.311 98.4681C311.339 99.0782 313.367 99.6822 315.39 100.292L326.858 103.725L326.996 103.767C329.006 104.371 333.111 104.7 333.237 107.505C333.309 109.042 331.719 111.698 331.179 113.085C328.106 120.938 324.578 128.617 320.635 136.075C319.369 138.479 318.348 140.884 314.988 140.519C312.863 140.286 310.469 139.101 308.422 138.461C304.75 137.313 300.861 136.41 297.29 134.975C297.176 134.927 297.068 134.927 296.966 134.951C296.492 135.082 296.252 135.902 296.804 136.135C301.431 138.091 306.562 139.227 311.363 140.728C314.97 141.859 317.868 143.372 320.143 139.711C325.838 130.531 330.183 119.867 333.831 109.73C335.368 105.454 334.221 104.592 330.105 103.354L330.111 103.348ZM302.655 105.669C303.453 103.492 304.006 101.381 306.76 101.435C308.368 101.464 310.361 102.386 311.903 102.792C315.336 103.701 318.768 104.598 322.195 105.502C323.749 105.914 325.952 106.106 327.344 106.853C329.192 107.852 328.094 109.586 327.536 111.273C326.504 114.407 325.34 117.493 324.055 120.531C323.887 118.534 323.761 116.458 323.275 114.592C323.047 113.731 322.939 112.846 321.985 112.553C320.605 112.134 319.194 113.821 318.168 114.562C316.038 116.105 313.901 117.648 311.771 119.203C311.651 116.811 311.465 114.431 311.147 112.056C310.979 110.818 311.195 108.097 309.797 107.403C308.752 106.883 306.592 108.617 305.794 109.054C303.892 110.095 301.989 111.177 300.183 112.385C301.005 110.149 301.833 107.906 302.655 105.669ZM300.717 125.274C301.581 128.019 303.219 130.633 299.709 132.582C297.95 133.557 295.622 134.054 293.72 134.717C285.54 137.564 277.276 140.178 268.953 142.576C265.208 131.679 262.261 120.615 259.105 109.539C259.063 109.407 258.991 109.317 258.907 109.257C259.093 109.018 259.201 108.719 259.183 108.438C266.882 105.268 274.654 102.272 282.497 99.4849C284.478 98.7851 286.458 98.0913 288.445 97.4155C289.759 96.967 290.809 96.1536 291.961 97.5232C292.555 98.2289 292.747 100.005 293.011 100.848C294.296 104.921 295.58 108.994 296.864 113.061C298.148 117.134 299.433 121.207 300.717 125.274Z" fill="white"/>
<path d="M211.531 116.383C209.293 124.583 207.066 132.782 204.828 140.982C204.78 141.161 204.672 141.275 204.558 141.347C204.432 141.58 204.192 141.748 203.849 141.664C192.873 138.829 181.909 135.994 170.933 133.159C165.352 131.718 159.765 130.276 154.184 128.835C148.825 127.448 143.28 126.311 138.059 124.469C137.801 124.373 137.717 124.152 137.753 123.961C137.615 123.865 137.525 123.686 137.555 123.464C138.179 119.17 139.457 114.924 140.633 110.755C141.233 108.638 141.749 106.306 142.398 104.051C142.392 103.967 142.416 103.889 142.47 103.818C142.938 102.215 143.484 100.654 144.198 99.2363C145.242 97.161 146.922 98.1419 148.849 98.6682C152.882 99.7686 156.914 100.863 160.947 101.958C177.654 106.503 194.362 111.048 211.075 115.594C211.411 115.689 211.627 116.042 211.531 116.383ZM209.172 120.139C209.491 118.985 209.809 117.825 210.115 116.67L189.723 111.12C189.489 111.832 189.261 112.549 188.997 113.249C188.937 113.429 188.781 113.482 188.643 113.447C188.51 113.411 188.396 113.291 188.432 113.1C188.564 112.358 188.715 111.628 188.877 110.893L166.372 104.775L155.426 101.796C153.506 101.27 151.591 100.749 149.665 100.229C148.831 100.002 147.607 99.356 146.784 99.4397C145.476 99.5772 145.152 100.696 144.636 101.987C144.384 102.627 144.15 103.267 143.922 103.913C154.658 106.019 165.268 109.027 175.872 111.67C180.019 112.705 184.166 113.746 188.312 114.786C195.166 116.503 202.007 118.213 208.854 119.93C209.004 119.972 209.1 120.049 209.179 120.139H209.172ZM207.432 126.515C207.924 124.72 208.416 122.926 208.902 121.132C208.788 121.174 208.668 121.198 208.518 121.168C201.809 119.487 195.1 117.801 188.39 116.114C188.21 116.975 187.856 117.854 187.574 118.65C187.508 118.835 187.334 118.895 187.196 118.859C187.052 118.823 186.932 118.686 186.974 118.488C187.13 117.663 187.262 116.724 187.532 115.893C183.536 114.888 179.539 113.895 175.542 112.884C164.926 110.217 154.136 107.861 143.67 104.637C141.581 110.851 140.501 117.424 138.515 123.65C144.096 124.607 149.617 126.335 155.096 127.747L171.269 131.927C174.954 132.878 178.639 133.829 182.317 134.78C182.299 134.702 182.305 134.618 182.347 134.523C182.719 133.787 183.073 132.992 183.548 132.31C183.884 131.831 184.574 132.244 184.328 132.764C183.98 133.512 183.458 134.218 183.007 134.906C182.995 134.923 182.983 134.929 182.971 134.947C189.873 136.73 196.774 138.512 203.675 140.294C204.93 135.707 206.184 131.114 207.426 126.515H207.432Z" fill="white"/>
<path d="M210.117 116.663C209.805 117.818 209.487 118.978 209.175 120.132C209.097 120.043 209.001 119.965 208.851 119.923C202.009 118.206 195.162 116.49 188.309 114.779L188.651 113.44C188.783 113.476 188.939 113.422 189.005 113.242C189.269 112.543 189.497 111.825 189.731 111.113L210.123 116.663H210.117Z" fill="#E7BC3D"/>
<path d="M208.895 121.124C208.409 122.919 207.917 124.713 207.425 126.507L205.738 126.053C205.93 125.341 205.888 124.629 205.63 123.738C205.51 123.313 205.048 123.307 204.808 123.535C199.785 121.92 194.588 120.736 189.361 120.006C189.325 119.994 189.295 120.006 189.259 120.006C189.199 119.773 188.869 119.605 188.671 119.833L187.183 118.846C187.321 118.882 187.495 118.822 187.561 118.636C187.843 117.841 188.197 116.962 188.377 116.101C195.086 117.787 201.789 119.474 208.505 121.154C208.649 121.184 208.775 121.166 208.889 121.118L208.895 121.124Z" fill="white"/>
<path d="M207.437 126.515C206.189 131.109 204.94 135.708 203.686 140.295C196.785 138.519 189.883 136.736 182.982 134.948C182.994 134.93 183.006 134.924 183.018 134.906C183.468 134.218 183.99 133.513 184.338 132.765C184.584 132.245 183.894 131.832 183.558 132.311C183.084 132.986 182.73 133.788 182.358 134.524C182.316 134.619 182.31 134.703 182.328 134.781C178.643 133.83 174.958 132.879 171.28 131.928L155.107 127.747C149.628 126.336 144.106 124.607 138.525 123.651C140.512 117.425 141.592 110.852 143.68 104.638C154.146 107.861 164.937 110.218 175.553 112.885C179.549 113.896 183.546 114.889 187.543 115.893C187.273 116.725 187.135 117.664 186.985 118.489C186.943 118.68 187.063 118.818 187.207 118.86L188.695 119.847C187.237 121.515 188.305 123.286 190.135 124.105C192.218 125.044 194.786 125.349 196.989 125.893C199.491 126.503 201.994 127.119 204.502 127.735C204.736 127.795 204.976 127.693 205.102 127.49C205.42 126.982 205.636 126.521 205.756 126.061L207.443 126.515H207.437ZM203.806 129.859C203.98 129.536 203.818 129.141 203.47 129.039C198.399 127.484 193.238 125.995 187.987 125.158C187.651 125.098 187.459 125.457 187.597 125.678C186.673 126.778 187.153 128.31 188.413 129.177C189.919 130.217 192.17 130.409 193.886 130.839C196.275 131.443 198.663 132.059 201.064 132.646C201.04 133.154 201.796 133.501 202.096 132.957C202.666 131.928 203.236 130.887 203.806 129.859ZM184.362 130.582C184.716 129.595 185.088 128.567 185.316 127.538C185.43 127.006 184.656 126.796 184.494 127.317C184.176 128.321 183.984 129.398 183.792 130.427C183.726 130.803 184.236 130.941 184.368 130.582H184.362ZM186.061 124.434C186.367 123.555 186.655 122.658 186.859 121.755C186.985 121.222 186.205 121.019 186.043 121.539C185.767 122.424 185.575 123.345 185.4 124.261C185.316 124.691 185.917 124.853 186.061 124.434ZM181.47 129.404C182.22 129.601 182.52 128.465 181.776 128.256C175.235 126.402 168.669 124.637 162.104 122.867C155.593 121.103 149.009 118.902 142.366 117.718C141.964 117.646 141.826 118.184 142.204 118.328C148.523 120.702 155.305 122.179 161.81 123.985C168.363 125.81 174.904 127.664 181.476 129.404H181.47ZM183.474 121.246C184.452 120.648 184.464 119.697 183.774 119.003C184.218 118.842 184.308 118.106 183.732 117.909C171.412 113.693 158.065 110.72 145.211 108.711C145.175 108.699 145.145 108.711 145.103 108.711C144.965 108.507 144.611 108.447 144.449 108.711C143.794 109.823 143.404 111.294 143.632 112.58C143.692 112.933 144.016 112.969 144.263 112.825C153.504 115.11 162.806 117.149 172.096 119.225C174.436 119.751 176.765 120.271 179.105 120.798C180.275 121.061 182.274 121.982 183.474 121.252V121.246ZM181.542 126.055C182.28 126.216 182.58 125.128 181.848 124.924C168.909 121.282 155.875 117.682 142.852 114.362C142.468 114.267 142.336 114.811 142.696 114.949C155.215 119.542 168.495 123.28 181.548 126.061L181.542 126.055Z" fill="white"/>
<path d="M205.743 126.062C205.617 126.523 205.401 126.983 205.089 127.492C204.969 127.695 204.723 127.797 204.489 127.737C201.98 127.127 199.478 126.505 196.975 125.895C194.773 125.35 192.211 125.045 190.122 124.106C188.292 123.287 187.224 121.511 188.682 119.848C188.88 119.621 189.204 119.788 189.27 120.022C189.3 120.022 189.336 120.01 189.372 120.022C194.599 120.751 199.796 121.935 204.819 123.55C205.059 123.323 205.515 123.335 205.641 123.754C205.899 124.645 205.935 125.356 205.749 126.068L205.743 126.062ZM200.468 125.655C201.86 125.996 205.011 127.557 204.759 124.639C204.735 124.633 204.717 124.639 204.693 124.639C199.556 123.155 194.413 121.858 189.18 120.727C189.12 120.709 189.078 120.691 189.036 120.661C188.094 123.323 195.955 124.555 197.251 124.866C198.326 125.129 199.394 125.392 200.468 125.655Z" fill="black"/>
<path d="M203.459 129.03C203.807 129.137 203.969 129.526 203.795 129.849C203.219 130.878 202.649 131.912 202.085 132.947C201.785 133.491 201.029 133.144 201.053 132.636C198.658 132.05 196.27 131.434 193.875 130.83C192.159 130.399 189.908 130.208 188.402 129.167C187.142 128.3 186.668 126.769 187.586 125.669C187.448 125.447 187.634 125.088 187.976 125.148C193.221 125.992 198.382 127.475 203.459 129.03ZM201.527 131.655C201.851 131.075 202.169 130.489 202.493 129.909C197.77 128.48 192.987 127.295 188.24 125.95C186.842 128.635 194.175 129.825 195.202 130.076C197.308 130.603 199.42 131.111 201.527 131.655Z" fill="black"/>
<path d="M204.761 124.63C205.013 127.548 201.863 125.987 200.47 125.646C199.396 125.383 198.328 125.12 197.254 124.857C195.957 124.54 188.096 123.314 189.038 120.652C189.08 120.682 189.122 120.7 189.182 120.718C194.415 121.848 199.558 123.146 204.695 124.63C204.719 124.636 204.737 124.63 204.761 124.63Z" fill="#8CC5DF"/>
<path d="M202.496 129.911C202.172 130.492 201.854 131.078 201.53 131.658C199.429 131.114 197.317 130.605 195.204 130.079C194.178 129.822 186.845 128.638 188.243 125.952C192.99 127.298 197.773 128.476 202.496 129.911Z" fill="#8CC5DF"/>
<path d="M185.306 127.534C185.078 128.563 184.706 129.591 184.352 130.578C184.225 130.943 183.715 130.805 183.775 130.423C183.973 129.394 184.159 128.317 184.478 127.313C184.64 126.792 185.414 126.996 185.3 127.534H185.306Z" fill="black"/>
<path d="M186.855 121.755C186.651 122.658 186.357 123.555 186.057 124.435C185.913 124.847 185.313 124.686 185.397 124.261C185.571 123.346 185.763 122.425 186.039 121.54C186.201 121.02 186.981 121.229 186.855 121.755Z" fill="black"/>
<path d="M188.648 113.441L188.306 114.781C184.165 113.74 180.012 112.7 175.865 111.665C165.261 109.021 154.651 106.013 143.915 103.908C144.143 103.262 144.377 102.622 144.629 101.982C145.145 100.69 145.469 99.5718 146.778 99.4343C147.6 99.3505 148.824 99.9905 149.658 100.224C151.579 100.744 153.499 101.264 155.419 101.791L166.365 104.769L188.87 110.887C188.708 111.623 188.558 112.359 188.426 113.094C188.396 113.286 188.504 113.405 188.636 113.441H188.648Z" fill="#E7BC3D"/>
<path d="M181.771 128.251C182.515 128.46 182.209 129.602 181.464 129.399C174.893 127.653 168.352 125.805 161.799 123.98C155.293 122.174 148.518 120.697 142.193 118.323C141.815 118.179 141.953 117.641 142.355 117.713C148.998 118.897 155.587 121.098 162.093 122.862C168.658 124.638 175.229 126.397 181.765 128.251H181.771Z" fill="black"/>
<path d="M183.765 119.006C184.455 119.7 184.449 120.65 183.465 121.249C182.265 121.978 180.267 121.057 179.096 120.794C176.756 120.268 174.427 119.747 172.087 119.221C162.797 117.14 153.495 115.1 144.254 112.822C144.008 112.965 143.683 112.929 143.623 112.576C143.389 111.291 143.785 109.819 144.44 108.707C144.596 108.444 144.956 108.504 145.094 108.707C145.13 108.707 145.166 108.695 145.202 108.707C158.062 110.716 171.403 113.689 183.723 117.905C184.299 118.103 184.209 118.838 183.765 119V119.006ZM180.579 119.891C180.675 119.903 183.141 119.975 182.865 119.682C182.649 119.442 182.709 119.101 182.895 118.892C176.666 117.325 170.533 115.411 164.303 113.874C157.888 112.289 151.431 110.956 144.998 109.46C144.998 109.46 144.998 109.454 144.986 109.454C144.866 109.843 144.746 110.232 144.674 110.633C144.584 111.099 144.572 111.56 144.542 112.026C150.927 113.306 157.282 114.718 163.631 116.117C166.944 116.847 170.257 117.588 173.569 118.324C175.124 118.671 176.684 119.018 178.238 119.365C179 119.538 179.792 119.789 180.573 119.885L180.579 119.891Z" fill="black"/>
<path d="M181.841 124.919C182.573 125.128 182.279 126.211 181.534 126.049C168.482 123.268 155.207 119.53 142.683 114.937C142.323 114.805 142.455 114.255 142.839 114.351C155.862 117.67 168.896 121.277 181.835 124.913L181.841 124.919Z" fill="black"/>
<path d="M182.866 119.675C183.142 119.968 180.676 119.896 180.58 119.885C179.806 119.789 179.008 119.532 178.245 119.364C176.685 119.017 175.125 118.67 173.576 118.324C170.264 117.588 166.951 116.846 163.639 116.117C157.289 114.717 150.934 113.306 144.549 112.026C144.579 111.559 144.591 111.099 144.681 110.632C144.753 110.232 144.867 109.843 144.993 109.454C144.993 109.454 144.993 109.46 145.005 109.46C151.438 110.955 157.895 112.289 164.311 113.874C170.546 115.411 176.679 117.325 182.902 118.892C182.716 119.101 182.656 119.442 182.872 119.681L182.866 119.675Z" fill="#8CC5DF"/>
<path d="M263.647 144.066C263.959 149.132 264.667 154.371 264.229 159.442C263.677 165.914 258.918 173.617 251.374 171.518C250.396 173.874 248.704 175.602 245.859 176.027C242.133 178.688 235.993 178.676 231.901 178.647C224.771 178.593 217.348 178.431 210.29 177.391C204.805 176.577 203.113 173.449 202.867 168.21C202.141 152.959 201.949 137.529 202.927 122.29C202.447 122.32 201.991 121.656 202.405 121.172C202.687 120.837 202.999 120.538 203.323 120.256C203.749 119.144 204.415 118.223 205.244 117.463C205.232 117.416 205.219 117.368 205.219 117.308C205.34 113.708 205.093 109.437 206.036 105.927C206.558 104.001 207.77 102.846 209.612 102.32C213.291 96.2617 220.126 93.9112 227.016 93.361C226.542 88.7797 226.062 84.049 226.14 79.4498C226.14 79.3242 226.2 79.2225 226.284 79.1447C226.026 79.1268 225.767 79.1148 225.515 79.0969C225.113 79.067 224.999 78.6723 225.155 78.4151C225.125 78.3852 225.101 78.3553 225.077 78.3134C223.895 75.7895 224.345 72.9068 226.344 70.8853C228.936 68.2657 233.113 68.7143 236.492 68.6186C240.296 68.511 245.037 67.6796 248.386 69.9703C250.96 71.7286 252.257 74.9104 251.723 77.9426C251.711 78.0024 251.687 78.0503 251.663 78.0921C251.729 78.4211 251.518 78.8337 251.122 78.8278H250.432C251.314 84.1746 251.735 89.7606 251.044 95.1492C254.015 95.4303 257.442 95.7234 259.512 97.9781C262.141 100.843 261.354 106.537 261.576 110.095C261.919 115.759 262.267 121.417 262.615 127.08C262.957 132.738 263.305 138.402 263.647 144.066ZM262.945 159.442C263.395 154.383 262.669 149.12 262.363 144.066L260.358 111.267C260.19 108.54 260.124 105.783 259.854 103.068C259.494 99.4434 257.934 97.6552 254.477 96.9136C249.208 95.7892 243.531 95.5679 238.178 95.0117C231.865 94.3538 224.855 94.1624 218.974 96.3873C225.521 95.5201 232.543 95.9327 238.964 96.465C243.885 96.8777 251.344 96.77 255.161 100.496C256.908 102.195 257.262 104.575 257.448 106.889C257.766 110.897 257.964 114.916 258.216 118.929C258.726 127.027 259.23 135.131 259.728 143.235C259.746 143.504 259.578 143.659 259.374 143.701C260.22 145.441 260.472 148.617 257.856 148.743C256.86 148.797 256.133 148.013 255.953 147.092C255.725 145.944 256.355 144.879 257.028 144.006C257.082 143.928 257.154 143.892 257.226 143.886C257.16 143.856 257.088 143.833 257.022 143.803C256.878 144.233 256.115 144.185 256.115 143.647C256.103 136.865 255.905 130.089 255.491 123.325C255.287 120.035 255.035 116.752 254.735 113.474C254.471 110.526 254.837 105.197 252.707 102.936C250.54 100.646 245.961 99.9398 242.967 99.4972C239.846 99.0427 236.696 98.947 233.551 98.9052C227.25 98.8274 220.925 98.959 214.629 98.6659C213.315 99.587 212.103 100.693 211.029 102.027C213.939 101.585 217.102 101.878 219.994 101.866C223.895 101.842 227.802 101.866 231.703 102.027C235.789 102.189 239.882 102.476 243.933 103.026C245.985 103.307 248.158 103.636 249.124 105.693C250.3 108.199 249.694 112.057 249.79 114.742C249.94 118.809 250.15 122.882 250.204 126.949C250.204 127.116 250.15 127.242 250.066 127.338C250.48 130.065 250.732 132.822 250.972 135.483C251.524 141.644 251.735 147.834 252.035 154.012C252.227 157.929 253.325 165.172 251.801 170.303C258.486 172.08 262.441 165.052 262.945 159.442ZM258.09 147.858C258.996 147.624 259.248 146.506 259.14 145.728C259.05 145.089 258.774 144.526 258.558 143.934C258.198 144.042 257.82 144.042 257.46 143.952C257.544 144.024 257.586 144.144 257.514 144.287C257.154 144.975 256.679 145.699 256.685 146.512C256.697 147.289 257.232 148.079 258.09 147.858ZM258.696 143.067C258.276 136.177 257.856 129.287 257.448 122.398C257.238 118.929 257.034 115.454 256.83 111.985C256.631 108.678 257.082 104.443 254.987 101.68C253.133 99.2401 249.664 98.7018 246.82 98.2592C243.081 97.6791 239.312 97.2844 235.531 97.0631C229.254 96.6923 223.079 97.2844 216.838 97.3382C216.4 97.5595 215.98 97.8047 215.566 98.0619C222.767 97.8525 230.058 97.9722 237.248 98.2114C242.085 98.3789 249.64 98.63 253.301 102.344C254.957 104.025 254.903 106.656 255.137 108.851C255.539 112.703 255.881 116.56 256.157 120.424C256.703 128.008 256.986 135.609 257.046 143.211C257.598 143.426 258.186 143.342 258.696 143.067ZM247.888 173.868C251.212 171.595 251.326 166.075 251.152 162.223C250.96 157.923 250.726 153.617 250.516 149.317C250.108 141.081 249.808 132.786 248.176 124.688C248.044 123.994 247.894 123.301 247.732 122.613C247.15 120.089 246.61 117.368 243.807 116.435C241.653 115.723 239.15 115.699 236.9 115.49C232.639 115.101 228.36 114.91 224.081 114.922C218.554 114.94 209.504 114.347 205.28 118.935C209.84 116.548 216.49 116.871 221.075 116.71C225.365 116.56 229.656 116.644 233.935 116.955C236.834 117.164 240.176 117.206 242.883 118.42C245.589 119.64 246.7 122.122 247.204 124.88C247.648 127.314 247.618 129.963 247.798 132.146C248.422 139.921 248.782 147.714 248.884 155.513C248.932 159.412 248.92 163.312 248.836 167.211C248.794 169.388 248.998 171.906 247.888 173.868ZM250.564 77.6256C250.672 74.1867 249.058 71.0109 245.511 70.066C243.021 69.4021 240.116 69.8028 237.584 69.8746C235.057 69.9463 232.099 69.6353 229.638 70.3829C226.326 71.3877 224.987 74.8685 225.761 78.0263C225.773 78.0802 225.761 78.134 225.761 78.1818C227.226 78.0862 228.732 77.9964 230.196 78.0742C227.16 73.786 234.691 72.2669 237.356 72.0815C239.72 71.92 242.985 71.3458 245.055 72.8769C246.604 74.0312 246.976 75.9869 247.204 77.7991C248.308 77.6077 249.454 77.518 250.564 77.6256ZM249.928 95.0356C250.054 95.0476 250.186 95.0655 250.312 95.0775C250.21 89.5991 250.102 84.2703 249.316 78.8278C248.752 78.8337 248.194 78.8577 247.63 78.9055C247.642 78.9474 247.666 78.9952 247.666 79.049C247.96 84.3061 248.284 89.5812 248.32 94.8502C248.854 94.916 249.394 94.9758 249.928 95.0356ZM248.164 119.371C248.362 119.922 248.536 120.49 248.704 121.058C248.566 117.206 248.47 113.355 248.32 109.509C248.23 107.278 247.702 105.263 245.175 104.497C243.567 104.007 241.545 104.007 239.87 103.845C237.152 103.588 234.427 103.421 231.703 103.307C225.852 103.074 219.994 103.116 214.137 103.205C212.499 103.229 210.999 103.283 209.798 103.744C209.768 103.791 209.732 103.839 209.702 103.887C209.564 104.102 209.342 104.126 209.174 104.043C208.046 104.689 207.278 105.855 207.056 107.984C206.762 110.861 206.612 113.755 206.306 116.638C210.639 113.743 217.954 113.851 222.329 113.767C228.36 113.654 234.391 113.935 240.38 114.635C243.969 115.053 246.862 115.681 248.164 119.371ZM247.492 169.55C247.888 163.551 247.666 157.427 247.516 151.422C247.366 145.382 247.06 139.341 246.598 133.312C246.363 130.238 246.393 126.907 245.649 123.899C244.677 119.987 241.599 119.018 238.016 118.606C232.021 117.906 225.93 117.774 219.91 118.044C215.091 118.259 207.902 117.858 204.025 121.351C204.097 121.447 204.151 121.554 204.145 121.71C203.803 135.657 203.473 149.55 203.965 163.503C204.073 166.541 203.587 170.644 205.256 173.3C206.972 176.039 210.302 176.153 213.249 176.404C219.268 176.912 225.317 177.259 231.361 177.349C234.529 177.397 237.734 177.319 240.824 176.553C242.061 176.248 243.135 175.883 244.041 175.399C244.089 175.142 244.281 174.909 244.617 174.897C244.713 174.891 244.797 174.879 244.887 174.873C246.423 173.766 247.318 172.139 247.492 169.55ZM247.516 94.7545C247 89.5393 246.766 84.2822 246.502 79.049C246.351 79.067 246.201 79.0909 246.051 79.1208C245.397 79.2524 245.115 78.2835 245.775 78.1101C245.835 78.0981 245.895 78.0802 245.961 78.0682C245.649 75.5144 245.223 73.6544 241.869 73.1939C240.938 73.0683 239.804 73.1999 238.874 73.2417C235.909 73.3614 229.686 73.3314 230.808 78.0084C230.838 78.128 230.808 78.2237 230.73 78.2775C231.001 78.5945 230.862 79.1806 230.316 79.2105C230.232 79.2165 230.142 79.2165 230.058 79.2225C230.082 79.2823 230.1 79.36 230.094 79.4498C229.83 84.0908 230.166 88.6123 230.61 93.2234C231.613 93.2234 232.597 93.2593 233.563 93.3191C238.226 93.6062 242.877 94.2103 247.516 94.7545ZM229.098 79.2464C228.396 79.2524 227.694 79.2225 226.992 79.1866C227.016 79.2285 227.034 79.2703 227.04 79.3301C227.67 83.9054 227.772 88.6721 227.844 93.3012C228.534 93.2593 229.224 93.2414 229.908 93.2354C228.858 88.7259 228.726 84.049 229.044 79.4498C229.044 79.372 229.068 79.3062 229.098 79.2464Z" fill="white"/>
<path d="M262.362 144.068C262.668 149.121 263.394 154.384 262.944 159.444C262.44 165.054 258.486 172.081 251.8 170.305C253.325 165.174 252.226 157.931 252.034 154.014C251.734 147.835 251.524 141.645 250.972 135.485C250.732 132.824 250.48 130.067 250.066 127.339C250.15 127.244 250.21 127.118 250.204 126.951C250.15 122.884 249.94 118.811 249.79 114.744C249.694 112.059 250.3 108.201 249.124 105.695C248.158 103.638 245.985 103.309 243.933 103.028C239.882 102.477 235.789 102.19 231.702 102.029C227.802 101.867 223.895 101.843 219.994 101.867C217.102 101.879 213.939 101.586 211.028 102.029C212.103 100.695 213.315 99.5887 214.629 98.6677C220.924 98.9608 227.249 98.8292 233.551 98.9069C236.695 98.9488 239.846 99.0445 242.967 99.499C245.961 99.9416 250.54 100.647 252.706 102.938C254.837 105.199 254.471 110.528 254.735 113.476C255.035 116.754 255.287 120.037 255.491 123.326C255.905 130.091 256.103 136.867 256.115 143.649C256.115 144.187 256.877 144.235 257.021 143.804C257.087 143.834 257.159 143.858 257.225 143.888C257.153 143.894 257.081 143.93 257.027 144.008C256.355 144.881 255.725 145.946 255.953 147.094C256.133 148.015 256.859 148.798 257.855 148.745C260.472 148.619 260.22 145.443 259.374 143.703C259.578 143.661 259.746 143.505 259.728 143.236C259.23 135.132 258.726 127.028 258.215 118.931C257.963 114.917 257.765 110.898 257.447 106.891C257.261 104.577 256.907 102.196 255.161 100.498C251.344 96.7718 243.885 96.8795 238.964 96.4668C232.542 95.9345 225.521 95.5218 218.974 96.389C224.855 94.1642 231.864 94.3556 238.178 95.0135C243.531 95.5697 249.208 95.791 254.477 96.9153C257.933 97.657 259.494 99.4452 259.854 103.07C260.124 105.785 260.19 108.542 260.358 111.269L262.362 144.068Z" fill="#FFE200"/>
<path d="M259.137 145.725C259.245 146.502 258.993 147.621 258.087 147.854C257.229 148.075 256.695 147.286 256.683 146.508C256.683 145.695 257.151 144.971 257.511 144.284C257.583 144.14 257.541 144.02 257.457 143.949C257.817 144.038 258.195 144.038 258.555 143.931C258.771 144.523 259.047 145.085 259.137 145.725Z" fill="#D8D8D8"/>
<path d="M257.45 122.401C257.858 129.291 258.278 136.181 258.698 143.071C258.188 143.346 257.6 143.429 257.047 143.214C256.987 135.613 256.705 128.011 256.159 120.428C255.883 116.564 255.541 112.706 255.139 108.855C254.905 106.66 254.959 104.028 253.303 102.348C249.642 98.6336 242.087 98.3825 237.25 98.215C230.06 97.9758 222.769 97.8562 215.567 98.0655C215.981 97.8083 216.402 97.5631 216.84 97.3418C223.081 97.288 229.256 96.6959 235.533 97.0667C239.314 97.288 243.083 97.6827 246.821 98.2628C249.666 98.7054 253.135 99.2437 254.989 101.684C257.083 104.447 256.633 108.681 256.831 111.989C257.035 115.458 257.239 118.932 257.45 122.401Z" fill="#D8D8D8"/>
<path d="M251.153 162.225C251.327 166.076 251.213 171.597 247.888 173.869C248.998 171.908 248.794 169.39 248.836 167.213C248.92 163.313 248.932 159.414 248.884 155.514C248.782 147.715 248.422 139.922 247.798 132.147C247.618 129.964 247.648 127.315 247.204 124.881L248.176 124.689C249.809 132.787 250.109 141.083 250.517 149.318C250.727 153.618 250.961 157.925 251.153 162.225Z" fill="#00953B"/>
<path d="M245.509 70.0652C249.056 71.0102 250.67 74.1859 250.562 77.6249C249.452 77.5172 248.306 77.6069 247.202 77.7983C246.974 75.9861 246.602 74.0304 245.053 72.8761C242.983 71.3451 239.718 71.9192 237.354 72.0807C234.689 72.2661 227.158 73.7852 230.194 78.0734C228.73 77.9957 227.224 78.0854 225.76 78.1811C225.76 78.1332 225.772 78.0794 225.76 78.0256C224.985 74.8677 226.324 71.3869 229.636 70.3822C232.097 69.6346 235.055 69.9456 237.582 69.8738C240.114 69.802 243.019 69.4013 245.509 70.0652Z" fill="#00953B"/>
<path d="M250.312 95.0749C250.186 95.0629 250.054 95.045 249.928 95.033C249.394 94.9732 248.854 94.9134 248.32 94.8476C248.284 89.5786 247.96 84.3036 247.666 79.0465C247.666 78.9927 247.642 78.9448 247.63 78.9029C248.194 78.8551 248.752 78.8312 249.316 78.8252C250.102 84.2677 250.21 89.5965 250.312 95.0749Z" fill="#D8D8D8"/>
<path d="M248.705 121.059C248.537 120.49 248.363 119.922 248.165 119.372C246.863 115.682 243.97 115.054 240.381 114.635C234.392 113.936 228.361 113.654 222.33 113.768C217.955 113.852 210.639 113.744 206.307 116.639C206.613 113.756 206.763 110.861 207.057 107.985C207.279 105.856 208.047 104.689 209.175 104.043C209.343 104.127 209.565 104.103 209.703 103.888C209.733 103.84 209.769 103.792 209.799 103.744C211 103.284 212.5 103.23 214.138 103.206C219.995 103.116 225.852 103.075 231.704 103.308C234.428 103.421 237.153 103.589 239.871 103.846C241.545 104.008 243.568 104.008 245.176 104.498C247.703 105.263 248.231 107.279 248.321 109.51C248.471 113.355 248.567 117.207 248.705 121.059Z" fill="white"/>
<path d="M248.177 124.691L247.204 124.882C246.7 122.125 245.59 119.643 242.884 118.423C240.177 117.209 236.834 117.167 233.936 116.958C229.657 116.647 225.366 116.563 221.075 116.713C216.49 116.874 209.841 116.551 205.28 118.937C209.505 114.35 218.555 114.942 224.082 114.924C228.361 114.912 232.64 115.104 236.9 115.493C239.151 115.702 241.653 115.726 243.808 116.437C246.61 117.37 247.15 120.092 247.733 122.616C247.895 123.303 248.045 123.997 248.177 124.691Z" fill="#00953B"/>
<path d="M247.512 151.423C247.662 157.428 247.884 163.552 247.488 169.551C247.314 172.141 246.42 173.768 244.883 174.874C244.793 174.88 244.709 174.892 244.613 174.898C244.277 174.91 244.085 175.143 244.037 175.4C243.131 175.885 242.057 176.25 240.821 176.555C237.73 177.32 234.525 177.398 231.357 177.35C225.314 177.26 219.265 176.913 213.245 176.405C210.299 176.154 206.968 176.04 205.252 173.301C203.583 170.646 204.07 166.543 203.962 163.505C203.469 149.551 203.8 135.658 204.142 121.711C204.142 121.556 204.094 121.448 204.022 121.352C207.898 117.859 215.088 118.26 219.907 118.045C225.926 117.776 232.017 117.907 238.012 118.607C241.595 119.02 244.673 119.989 245.646 123.9C246.39 126.908 246.36 130.24 246.594 133.314C247.056 139.342 247.362 145.383 247.512 151.423ZM241.481 130.521C241.811 130.521 241.991 130.222 241.937 129.923C241.667 128.338 241.385 126.747 241.001 125.18C241.055 125.108 241.097 125.018 241.097 124.929C241.109 124.277 241.121 123.625 241.133 122.967C241.373 122.686 241.241 122.118 240.743 122.082C234.67 121.585 228.5 121.723 222.421 122.022C219.463 122.166 216.51 122.375 213.569 122.668C211.691 122.859 209.723 122.883 208.138 123.966C208.006 123.762 207.664 123.804 207.634 124.103C207.562 124.773 207.508 125.449 207.484 126.125C207.472 126.412 207.766 126.567 208.012 126.52C218.202 124.707 228.44 124.253 238.72 125.168C238.72 125.18 238.72 125.18 238.708 125.192C238.15 126.771 237.88 128.386 237.904 130.06C237.904 130.299 238.102 130.497 238.342 130.503C239.392 130.521 240.437 130.527 241.481 130.521Z" fill="#FFE200"/>
<path d="M241.944 129.923C241.998 130.222 241.818 130.521 241.488 130.521C240.444 130.527 239.4 130.521 238.35 130.503C238.11 130.497 237.911 130.299 237.911 130.06C237.887 128.386 238.158 126.771 238.716 125.192C238.716 125.18 238.728 125.18 238.728 125.168C228.448 124.253 218.21 124.707 208.02 126.52C207.774 126.567 207.48 126.412 207.492 126.125C207.516 125.449 207.57 124.773 207.642 124.103C207.672 123.804 208.014 123.762 208.146 123.966C209.73 122.883 211.698 122.859 213.577 122.668C216.517 122.375 219.47 122.166 222.428 122.022C228.508 121.723 234.677 121.585 240.75 122.082C241.248 122.118 241.38 122.686 241.14 122.967C241.128 123.625 241.116 124.277 241.104 124.929C241.104 125.018 241.062 125.108 241.008 125.18C241.392 126.747 241.674 128.338 241.944 129.923ZM240.954 129.588C240.756 128.176 240.57 126.759 240.462 125.335C240.168 125.305 239.874 125.282 239.58 125.252C239.58 125.305 239.58 125.359 239.556 125.419C239.076 126.789 238.836 128.176 238.806 129.612C239.52 129.6 240.234 129.588 240.954 129.588ZM237.287 124.163C238.806 124.289 240.138 124.863 240.294 123.117C235.121 123.009 229.966 122.805 224.787 122.961C222.23 123.033 219.668 123.164 217.111 123.344C214.321 123.541 210.804 123.368 208.278 124.6C208.608 125.957 209.736 125.359 211.158 125.132C212.317 124.947 213.475 124.785 214.639 124.636C217.646 124.259 220.664 124.002 223.689 123.876C226.707 123.75 229.738 123.75 232.762 123.876C234.275 123.942 235.787 124.038 237.293 124.163H237.287Z" fill="black"/>
<path d="M240.459 125.333C240.567 126.756 240.753 128.174 240.951 129.585C240.231 129.585 239.517 129.597 238.803 129.609C238.833 128.174 239.073 126.786 239.553 125.416C239.577 125.357 239.577 125.303 239.577 125.249C239.871 125.279 240.165 125.303 240.459 125.333Z" fill="#D8D8D8"/>
<path d="M240.289 123.114C240.133 124.861 238.801 124.287 237.282 124.161C235.776 124.035 234.264 123.94 232.751 123.874C229.727 123.748 226.696 123.748 223.678 123.874C220.653 123.999 217.634 124.257 214.628 124.633C213.464 124.783 212.305 124.944 211.147 125.13C209.725 125.357 208.597 125.955 208.267 124.598C210.793 123.366 214.31 123.539 217.1 123.342C219.657 123.162 222.219 123.031 224.776 122.959C229.955 122.803 235.11 123.007 240.283 123.114H240.289Z" fill="#D8D8D8"/>
<path d="M226.989 79.1904C227.691 79.2263 228.394 79.2562 229.096 79.2502C229.066 79.31 229.042 79.3758 229.042 79.4536C228.724 84.0528 228.856 88.7297 229.906 93.2392C229.222 93.2452 228.532 93.2631 227.841 93.305C227.769 88.6759 227.667 83.9092 227.037 79.334C227.037 79.2742 227.013 79.2323 226.989 79.1904Z" fill="#D8D8D8"/>
<path d="M212.365 147.311C212.461 146.498 213.745 146.569 213.649 147.389C213.073 152.299 212.257 157.167 211.147 161.982C210.306 165.63 209.55 169.984 206.832 172.783C203.999 175.702 199.594 176.186 195.808 176.916C190.539 177.944 185.24 178.854 179.923 179.643C171.713 180.863 163.293 182.304 155.51 178.572C148.212 175.068 142.541 168.626 137.758 162.281C137.518 161.97 137.74 161.593 138.022 161.533C138.154 161.503 138.298 161.539 138.425 161.683C140.483 163.961 142.505 166.306 144.63 168.531C146.772 168.046 148.939 167.64 151.081 167.167C151.237 165.929 151.939 164.793 153.043 164.183C154.58 161.683 158.372 161.772 160.113 163.979C160.737 164.769 161.067 165.678 161.145 166.593C177.39 162.927 194.151 160.295 210.661 158.142C211.309 154.901 211.825 151.635 212.227 148.352L212.341 147.472C212.347 147.419 212.353 147.359 212.359 147.305L212.365 147.311ZM210.048 161.031C210.168 160.511 210.27 159.99 210.378 159.464C194.013 162.227 177.576 165.128 161.139 167.484C160.995 168.949 160.197 170.355 158.858 171.24C156.494 172.813 152.977 172.203 151.549 169.649C151.285 169.177 151.129 168.674 151.069 168.166C149.227 168.728 147.246 169.129 145.308 169.248C147.906 171.898 150.685 174.35 153.902 176.264C161.637 180.863 169.955 179.81 178.464 178.572C182.995 177.909 187.514 177.167 192.015 176.342C196.174 175.57 201.965 175.307 205.313 172.454C208.47 169.775 209.178 164.841 210.042 161.037L210.048 161.031ZM158.552 170.098C160.239 168.722 160.587 166.24 159.135 164.554C157.898 163.118 156.134 163.16 154.682 163.955C154.724 164.099 154.67 164.272 154.472 164.338C151.999 165.17 151.327 168.309 153.259 170.02C154.742 171.324 157.016 171.354 158.546 170.104L158.552 170.098Z" fill="white"/>
<path d="M212.342 147.477L212.228 148.356C212.174 148.38 212.108 148.41 212.036 148.422C199.571 150.054 187.125 151.454 174.738 153.649C168.557 154.737 162.394 155.945 156.255 157.267C150.182 158.571 144.127 160.359 137.981 161.28C137.939 161.286 137.903 161.292 137.861 161.298C137.483 161.352 137.225 160.772 137.621 160.628C142.728 158.78 148.171 157.686 153.506 156.561C153.788 152.488 154.419 148.463 155.247 144.468C155.931 141.155 156.315 136.735 158.247 133.882C159.964 131.352 163.546 131.382 166.271 130.934C170.67 130.21 175.063 129.498 179.461 128.775C183.602 128.093 187.761 127.25 191.932 126.765C194.362 126.478 197.099 126.365 199.259 127.698C201.672 129.169 202.338 131.957 203.082 134.48C204.378 138.858 205.794 143.23 206.905 147.656C208.525 147.5 210.151 147.357 211.778 147.237C212.024 147.213 212.216 147.327 212.342 147.489V147.477ZM205.698 147.776C204.558 144.391 203.646 140.928 202.638 137.501C201.666 134.187 201.108 129.451 197.351 128.23C194.494 127.303 191.194 128.147 188.337 128.613C185.084 129.146 181.832 129.678 178.585 130.21C175.141 130.772 171.702 131.335 168.257 131.903C166.541 132.184 164.801 132.411 163.096 132.746C160.726 133.224 159.165 134.295 158.427 136.741C156.489 143.123 155.517 149.779 154.461 156.346C154.779 156.28 155.103 156.214 155.415 156.137C161.548 154.815 167.711 153.595 173.886 152.494C184.394 150.616 195.034 148.858 205.692 147.776H205.698Z" fill="white"/>
<path d="M212.028 148.422C212.106 148.41 212.166 148.38 212.22 148.356C211.818 151.64 211.296 154.905 210.654 158.147C194.145 160.3 177.383 162.932 161.138 166.598C161.06 165.683 160.736 164.774 160.106 163.984C158.366 161.777 154.573 161.688 153.037 164.188C151.932 164.798 151.23 165.934 151.074 167.172C148.932 167.644 146.765 168.051 144.623 168.536C142.499 166.305 140.476 163.96 138.418 161.688C138.298 161.55 138.148 161.514 138.016 161.538L137.974 161.281C144.119 160.36 150.174 158.572 156.247 157.268C162.386 155.952 168.55 154.738 174.731 153.649C187.123 151.46 199.564 150.055 212.028 148.422Z" fill="#00953B"/>
<path d="M210.372 159.455C210.264 159.982 210.156 160.502 210.042 161.022C209.178 164.826 208.47 169.76 205.313 172.439C201.965 175.286 196.179 175.555 192.015 176.327C187.514 177.152 183.001 177.894 178.464 178.558C169.948 179.796 161.637 180.848 153.901 176.249C150.679 174.335 147.9 171.883 145.308 169.234C147.252 169.114 149.226 168.719 151.069 168.151C151.129 168.66 151.285 169.162 151.549 169.634C152.977 172.188 156.494 172.798 158.858 171.225C160.197 170.34 160.995 168.935 161.139 167.469C177.576 165.113 194.007 162.212 210.378 159.449L210.372 159.455Z" fill="white"/>
<path d="M202.631 137.504C203.64 140.931 204.552 144.394 205.692 147.779C195.034 148.862 184.394 150.626 173.886 152.498C167.711 153.598 161.547 154.818 155.414 156.14C155.096 156.212 154.778 156.278 154.46 156.349C155.51 149.777 156.488 143.126 158.427 136.745C159.171 134.304 160.725 133.228 163.096 132.749C164.8 132.409 166.54 132.187 168.257 131.906C171.701 131.344 175.14 130.782 178.585 130.214C181.831 129.687 185.084 129.149 188.337 128.617C191.193 128.15 194.494 127.307 197.35 128.234C201.107 129.448 201.671 134.191 202.637 137.504H202.631ZM199.127 138.724C199.025 137.229 197.872 135.931 196.348 135.883C196.336 135.883 196.318 135.889 196.3 135.895C196.204 135.758 196.042 135.662 195.832 135.68C194.176 135.847 193.005 137.564 193.179 139.167C193.348 140.77 194.848 141.739 196.39 141.631C197.95 141.517 199.223 140.327 199.127 138.724ZM187.31 142.175C188.451 141.099 189.135 139.083 187.928 137.797C187.238 137.056 185.96 136.774 185.09 137.295C185.024 136.99 184.592 136.822 184.34 137.139C183.296 138.443 182.269 140.172 183.122 141.846C183.998 143.569 186.044 143.371 187.304 142.175H187.31ZM174.15 144.801C175.518 144.4 176.496 143 175.89 141.595C175.47 140.62 174.426 139.944 173.394 139.944C173.382 139.759 173.238 139.591 172.986 139.639C171.443 139.932 170.477 141.607 170.843 143.114C171.203 144.579 172.776 145.207 174.15 144.807V144.801ZM165.778 143.03C165.526 141.715 164.296 140.536 162.922 140.668C162.832 140.566 162.694 140.495 162.514 140.524C160.941 140.77 159.921 142.444 160.173 143.975C160.437 145.548 161.991 146.356 163.492 146.087C164.938 145.823 166.066 144.543 165.778 143.042V143.03Z" fill="#DFEDF6"/>
<path d="M196.358 135.876C197.882 135.924 199.034 137.222 199.136 138.717C199.238 140.32 197.96 141.51 196.4 141.624C194.851 141.732 193.351 140.763 193.189 139.16C193.015 137.557 194.185 135.841 195.842 135.673C196.052 135.655 196.214 135.751 196.31 135.888C196.328 135.888 196.346 135.882 196.358 135.876ZM196.448 140.601C198.98 140.332 198.452 136.965 196.358 136.445C196.298 136.534 196.196 136.612 196.052 136.636C194.905 136.851 194.023 137.958 194.221 139.154C194.395 140.206 195.463 140.703 196.454 140.601H196.448Z" fill="black"/>
<path d="M196.36 136.45C198.454 136.971 198.982 140.338 196.45 140.607C195.46 140.708 194.391 140.212 194.217 139.159C194.019 137.963 194.901 136.857 196.048 136.642C196.198 136.618 196.294 136.54 196.354 136.45H196.36Z" fill="#FFE200"/>
<path d="M187.936 137.793C189.142 139.079 188.458 141.095 187.318 142.171C186.057 143.367 184.005 143.565 183.135 141.842C182.283 140.168 183.309 138.439 184.353 137.135C184.605 136.818 185.037 136.986 185.103 137.291C185.967 136.771 187.252 137.052 187.942 137.793H187.936ZM186.039 141.782C186.994 141.262 187.828 139.875 187.306 138.816C186.91 138.003 185.853 137.871 185.223 138.475C184.983 138.708 184.683 138.601 184.539 138.385C184.167 139.001 183.843 139.653 183.843 140.371C183.843 141.615 184.863 142.41 186.033 141.782H186.039Z" fill="black"/>
<path d="M187.309 138.816C187.825 139.875 186.991 141.268 186.043 141.783C184.873 142.417 183.853 141.621 183.853 140.371C183.853 139.654 184.177 139.002 184.549 138.386C184.693 138.601 184.993 138.709 185.233 138.475C185.863 137.871 186.919 137.997 187.315 138.816H187.309Z" fill="#FFE200"/>
<path d="M175.895 141.593C176.507 142.998 175.523 144.398 174.155 144.799C172.78 145.205 171.208 144.571 170.848 143.106C170.482 141.599 171.448 139.924 172.99 139.631C173.242 139.583 173.387 139.751 173.399 139.936C174.431 139.936 175.475 140.612 175.895 141.587V141.593ZM173.705 143.866C174.515 143.692 175.283 142.993 175.013 142.101C174.701 141.085 173.417 140.636 172.51 141.109C172.384 141.18 172.264 141.162 172.156 141.109C171.382 142.305 171.886 144.248 173.705 143.866Z" fill="black"/>
<path d="M175.004 142.105C175.28 142.997 174.506 143.696 173.696 143.87C171.877 144.253 171.373 142.309 172.148 141.113C172.256 141.161 172.376 141.178 172.502 141.113C173.408 140.634 174.692 141.089 175.004 142.105Z" fill="#FFE200"/>
<path d="M162.93 140.663C164.298 140.532 165.528 141.71 165.787 143.026C166.075 144.533 164.946 145.813 163.5 146.07C162 146.339 160.451 145.532 160.181 143.959C159.923 142.428 160.944 140.753 162.522 140.508C162.708 140.484 162.846 140.55 162.93 140.651V140.663ZM163.398 145.131C165.841 144.617 164.88 141.692 162.948 141.255C162.894 141.321 162.822 141.381 162.708 141.405C161.652 141.668 160.926 142.787 161.136 143.869C161.34 144.922 162.426 145.34 163.398 145.137V145.131Z" fill="black"/>
<path d="M162.941 141.255C164.874 141.692 165.834 144.622 163.391 145.131C162.425 145.334 161.333 144.915 161.129 143.863C160.919 142.78 161.645 141.662 162.701 141.399C162.815 141.375 162.887 141.315 162.941 141.249V141.255Z" fill="#FFE200"/>
<path d="M159.134 164.548C160.587 166.235 160.239 168.717 158.552 170.093C157.028 171.342 154.748 171.313 153.265 170.009C151.327 168.298 151.999 165.158 154.477 164.327C154.67 164.261 154.73 164.094 154.688 163.944C156.14 163.149 157.904 163.113 159.14 164.542L159.134 164.548Z" fill="#FFE200"/>
<path d="M307.233 158.262C307.467 161.175 308.109 164.332 307.737 167.245C307.119 172.06 301.328 175.451 297.529 177.729C297.511 177.741 297.487 177.741 297.469 177.753C295.837 179.745 292.308 179.518 290.01 179.697C284.831 180.104 279.646 180.289 274.455 180.259C269.264 180.229 264.073 179.99 258.906 179.512C256.157 179.254 253.007 179.057 251.429 176.443C249.514 173.28 249.79 167.987 249.52 164.452C249.1 159.051 248.692 153.388 249.28 147.993C249.316 147.652 249.58 147.479 249.838 147.485C249.874 147.287 250.012 147.114 250.252 147.066C250.228 147.066 250.21 147.066 250.186 147.06L250.354 147.042C265.297 146.336 280.624 146.904 295.549 147.891C295.735 147.903 295.867 147.975 295.969 148.083C298.268 144.763 300.884 141.647 303.417 138.496C302.12 137.527 300.116 137.712 298.658 137.634C293.785 137.377 288.9 137.198 284.045 136.713L283.499 136.175C283.499 135.942 283.655 135.732 283.967 135.732C287.496 135.744 291.018 135.948 294.547 136.133C297.199 136.271 300.758 135.858 303.303 136.737C304.731 137.228 305.373 138.37 305.667 139.781C306.219 142.425 306.183 145.29 306.399 147.981C306.675 151.408 306.957 154.835 307.233 158.262ZM303.753 171.545C306.165 169.332 306.615 167.084 306.411 163.974C306.201 160.738 305.919 157.502 305.637 154.267C303.039 156.402 300.356 158.495 297.565 160.373C297.643 161.886 297.721 163.399 297.799 164.907C297.914 167.215 298.034 169.524 298.148 171.832C298.208 173.022 298.46 174.452 298.292 175.738C300.194 174.446 302.054 173.106 303.753 171.545ZM305.529 152.951C305.463 152.174 305.391 151.396 305.331 150.619C302.949 153.19 300.356 155.66 297.427 157.598L297.517 159.41C300.062 157.126 302.786 154.996 305.529 152.951ZM305.229 149.369L304.743 143.412C304.653 142.323 304.785 140.768 304.359 139.734C304.323 139.644 304.281 139.572 304.239 139.494C301.838 142.509 299.474 145.583 296.881 148.436C296.935 148.525 296.971 148.633 296.977 148.759C297.109 151.36 297.241 153.968 297.373 156.569C299.846 154.249 302.36 152 304.689 149.53C304.857 149.351 305.049 149.321 305.229 149.369ZM297.001 174.978C297.103 174.362 296.947 173.603 296.917 172.987C296.719 168.854 296.503 164.721 296.293 160.594C296.215 160.66 296.107 160.708 295.963 160.708C289.704 160.481 283.445 160.457 277.186 160.313L277.204 159.637C283.439 159.189 289.728 159.303 295.963 159.679C296.083 159.691 296.179 159.733 296.251 159.799C296.227 159.291 296.203 158.788 296.179 158.286C296.047 158.274 295.915 158.226 295.819 158.13C295.765 158.077 295.711 158.023 295.657 157.969C295.567 157.885 295.525 157.789 295.501 157.694C294.307 157.443 291.792 157.783 291.018 157.783H286.859C284.081 157.771 281.332 157.742 278.572 157.461L278.626 156.862C282.353 156.498 286.085 156.551 289.83 156.551C291.372 156.551 294.361 155.917 296.089 156.569C295.963 154.087 295.831 151.605 295.705 149.123L295.693 149.111C295.651 149.123 295.603 149.135 295.549 149.135C280.486 148.657 265.405 148.609 250.348 148.137C250.48 150.989 250.492 153.872 250.51 156.767V157.532C250.522 158.274 250.528 159.016 250.54 159.763L250.552 160.313C250.636 164.709 250.882 169.087 251.795 173.375C252.929 178.71 258.492 178.238 262.939 178.543C266.773 178.806 270.614 178.949 274.461 178.973C278.494 178.997 282.533 178.89 286.559 178.65C288.48 178.531 290.4 178.411 292.314 178.214C294.463 177.992 296.485 178.154 297.007 174.978H297.001Z" fill="#F5F5F5"/>
<path d="M306.414 163.976C306.618 167.086 306.168 169.335 303.756 171.548C302.057 173.109 300.197 174.449 298.294 175.74C298.463 174.455 298.21 173.025 298.15 171.835C298.036 169.526 297.916 167.218 297.802 164.909C297.724 163.402 297.646 161.889 297.568 160.376C300.359 158.498 303.041 156.405 305.64 154.27C305.922 157.505 306.204 160.741 306.414 163.976Z" fill="#00953B"/>
<path d="M305.33 150.619C305.39 151.397 305.462 152.174 305.528 152.952C302.786 154.997 300.061 157.126 297.517 159.411L297.427 157.599C300.355 155.661 302.948 153.191 305.33 150.619Z" fill="#9B9B9A"/>
<path d="M304.746 143.413L305.232 149.369C305.052 149.321 304.86 149.351 304.692 149.531C302.364 152.001 299.849 154.25 297.377 156.57C297.245 153.969 297.113 151.361 296.981 148.759C296.975 148.634 296.939 148.526 296.885 148.436C299.477 145.584 301.842 142.509 304.242 139.495C304.284 139.573 304.326 139.645 304.362 139.734C304.788 140.769 304.656 142.324 304.746 143.413Z" fill="white"/>
<path d="M298.658 137.636C300.116 137.714 302.121 137.528 303.417 138.497C300.884 141.649 298.268 144.765 295.969 148.084C295.867 147.977 295.735 147.905 295.549 147.893C280.624 146.906 265.297 146.338 250.354 147.044C250.366 147.038 250.384 147.038 250.396 147.032C254.939 144.394 257.904 137.391 263.851 138.162C262.999 139.442 262.813 141.003 263.539 142.474C263.599 142.588 263.683 142.654 263.785 142.684C264.283 143.455 265.159 143.85 266.162 143.658C266.63 143.569 267.062 143.353 267.386 143.013C268.124 142.241 267.272 142.72 267.986 141.763C268.982 140.441 269.99 140.088 271.533 139.95C273.399 139.789 275.265 139.592 277.138 139.454C278.2 139.376 279.706 139.621 280.252 140.758C280.432 141.135 280.09 141.858 280.318 142.325C281.044 143.832 282.803 143.377 284.039 142.869C284.093 142.845 284.129 142.809 284.171 142.779C284.519 143.037 285.161 142.881 285.197 142.307C285.317 140.375 285.275 138.198 284.045 136.715C288.9 137.199 293.785 137.379 298.658 137.636Z" fill="white"/>
<path d="M296.918 172.99C296.948 173.606 297.104 174.365 297.002 174.981C296.48 178.157 294.457 177.996 292.309 178.217C290.395 178.414 288.474 178.534 286.554 178.654C282.527 178.893 278.488 179.001 274.456 178.977C270.609 178.953 266.768 178.809 262.933 178.546C258.486 178.241 252.923 178.713 251.789 173.379C250.877 169.09 250.631 164.713 250.547 160.317C250.577 160.335 250.613 160.353 250.655 160.359C256.716 161.172 263.113 161.076 269.204 160.376C269.799 160.675 270.477 160.741 271.185 160.418C271.251 161.178 271.323 161.937 271.383 162.697C271.413 163.038 271.653 163.319 272.019 163.325C272.907 163.337 273.801 163.349 274.69 163.355C274.99 163.361 275.212 163.152 275.308 162.888C275.596 162.093 275.764 161.184 275.83 160.257C275.866 160.275 275.902 160.287 275.956 160.287C276.364 160.299 276.778 160.305 277.186 160.317C283.445 160.46 289.704 160.484 295.964 160.711C296.108 160.711 296.216 160.664 296.294 160.598C296.504 164.724 296.72 168.857 296.918 172.99Z" fill="#00953B"/>
<path d="M296.179 158.289C296.203 158.792 296.227 159.294 296.251 159.802C296.179 159.737 296.083 159.695 295.963 159.683C289.728 159.306 283.438 159.192 277.203 159.641C277.935 159.24 278.355 158.409 278.541 157.464H278.571C281.332 157.745 284.08 157.775 286.859 157.787H291.018C291.792 157.787 294.306 157.446 295.501 157.697C295.525 157.793 295.567 157.889 295.657 157.972C295.711 158.026 295.765 158.08 295.819 158.134C295.915 158.229 296.047 158.277 296.179 158.289Z" fill="#9B9B9A"/>
<path d="M295.701 149.125C295.827 151.608 295.959 154.09 296.085 156.572C294.356 155.92 291.368 156.554 289.826 156.554C286.081 156.554 282.348 156.5 278.621 156.865C278.675 156.278 278.657 155.68 278.573 155.148C278.393 154.006 278.111 152.875 277.019 152.283C275.489 151.458 273.052 151.518 271.366 151.374C268.371 151.105 267.315 153.408 267.177 156.051C261.77 155.926 255.823 155.866 250.5 156.769C250.482 153.874 250.47 150.991 250.338 148.139C265.395 148.611 280.476 148.659 295.539 149.137C295.593 149.137 295.641 149.125 295.683 149.114L295.695 149.125H295.701Z" fill="white"/>
<path d="M284.047 136.716C285.277 138.199 285.319 140.376 285.199 142.308C285.163 142.882 284.521 143.038 284.173 142.78C284.131 142.81 284.095 142.846 284.041 142.87C282.805 143.378 281.047 143.833 280.32 142.326C280.092 141.859 280.435 141.136 280.254 140.759C279.708 139.623 278.202 139.377 277.14 139.455C275.268 139.593 273.401 139.79 271.535 139.951C269.992 140.089 268.984 140.442 267.988 141.764C267.274 142.721 268.126 142.242 267.388 143.014C267.064 143.354 266.632 143.57 266.164 143.66C265.162 143.851 264.285 143.456 263.787 142.685C263.685 142.655 263.601 142.589 263.541 142.475C262.815 141.004 263.001 139.443 263.853 138.163C257.906 137.392 254.942 144.395 250.399 147.033C250.387 147.039 250.369 147.039 250.357 147.045L250.189 147.063C249.997 147.021 249.853 146.805 249.973 146.608C251.761 143.654 255.164 140.556 257.972 138.516C259.947 137.087 262.335 136.267 264.615 137.266C264.675 137.218 264.729 137.164 264.783 137.111C267.082 135.107 270.599 135.322 273.431 135.233C276.21 135.149 280.32 134.264 282.895 135.747C283.117 135.879 283.315 136.022 283.501 136.178L284.047 136.716ZM283.969 141.841C283.987 139.084 283.087 136.501 279.792 136.327C278.25 136.249 276.678 136.393 275.135 136.441C271.523 136.548 262.677 136.202 264.387 142.122C264.399 142.164 264.399 142.2 264.399 142.236C265.99 143.917 267.46 139.939 268.42 139.431C270.263 138.456 273.425 138.803 275.46 138.612C276.93 138.474 279.378 137.846 280.639 139.048C281.725 140.077 281.359 142.882 283.771 141.883C283.843 141.853 283.909 141.841 283.969 141.841Z" fill="#00953B"/>
<path d="M279.793 136.323C283.088 136.497 283.988 139.081 283.97 141.838C283.91 141.838 283.844 141.85 283.772 141.88C281.359 142.878 281.725 140.073 280.639 139.045C279.379 137.843 276.93 138.471 275.46 138.608C273.426 138.799 270.263 138.453 268.421 139.427C267.461 139.936 265.99 143.913 264.4 142.232C264.4 142.197 264.4 142.161 264.388 142.119C262.678 136.198 271.523 136.545 275.136 136.437C276.678 136.389 278.251 136.246 279.793 136.323Z" fill="#FFE200"/>
<path d="M278.58 155.15C278.664 155.682 278.682 156.28 278.628 156.866L278.574 157.464H278.544C278.358 158.409 277.938 159.241 277.206 159.641L277.188 160.317C276.78 160.305 276.366 160.299 275.958 160.287C275.904 160.287 275.868 160.275 275.832 160.257C275.766 161.184 275.598 162.093 275.31 162.889C275.213 163.152 274.991 163.361 274.691 163.355C273.803 163.349 272.909 163.337 272.021 163.325C271.655 163.32 271.415 163.038 271.385 162.698C271.325 161.938 271.253 161.178 271.187 160.419C270.479 160.742 269.8 160.676 269.206 160.377C263.115 161.077 256.718 161.172 250.657 160.359C250.615 160.353 250.579 160.335 250.549 160.317L250.537 159.767C250.591 159.719 250.663 159.683 250.747 159.683C256.544 159.677 262.275 159.659 268.06 159.378C267.586 158.75 267.262 157.961 267.184 157.195C261.831 157.662 255.836 158.104 250.513 157.536V156.771C255.83 155.867 261.777 155.927 267.184 156.053C267.322 153.409 268.378 151.107 271.373 151.376C273.059 151.519 275.496 151.46 277.026 152.285C278.118 152.877 278.4 154.007 278.58 155.15ZM275.838 158.714C278.034 159.169 277.626 156.077 277.44 155.15C277.254 154.247 277.158 153.565 276.156 153.164C275.015 152.71 273.365 152.787 272.147 152.656C270.136 152.435 268.954 153.284 268.576 155.245C268.318 156.561 268.516 158.565 269.608 159.3C269.716 159.294 269.83 159.288 269.938 159.282C270.191 159.265 270.341 159.396 270.395 159.57C270.617 159.588 270.851 159.576 271.115 159.522C271.013 158.206 270.953 156.89 271.031 155.586C271.049 155.305 271.331 155.15 271.559 155.198C271.589 155.066 271.673 154.934 271.823 154.845C273.251 153.978 274.757 154.881 275.315 156.31C275.598 157.046 275.772 157.871 275.838 158.714ZM274.223 162.081C274.493 161.19 274.595 160.293 274.553 159.342C274.517 158.553 274.295 154.773 272.423 155.856C272.237 155.963 272.063 155.957 271.919 155.891C272.339 157.913 272.447 160.012 272.603 162.07C273.143 162.076 273.683 162.076 274.223 162.081Z" fill="#F7F7F7"/>
<path d="M277.433 155.15C277.619 156.077 278.027 159.169 275.83 158.715C275.764 157.872 275.59 157.046 275.308 156.311C274.75 154.881 273.244 153.978 271.816 154.845C271.666 154.935 271.582 155.067 271.552 155.198C271.323 155.15 271.041 155.306 271.023 155.587C270.945 156.891 271.005 158.206 271.107 159.522C270.843 159.576 270.609 159.588 270.387 159.57C270.333 159.397 270.183 159.265 269.931 159.283C269.823 159.289 269.709 159.295 269.601 159.301C268.509 158.565 268.311 156.562 268.569 155.246C268.947 153.284 270.129 152.435 272.14 152.656C273.358 152.788 275.008 152.71 276.148 153.165C277.151 153.565 277.247 154.247 277.433 155.15Z" fill="#9B9B9A"/>
<path d="M274.548 159.341C274.59 160.292 274.488 161.189 274.218 162.08C273.677 162.074 273.137 162.074 272.597 162.069C272.441 160.011 272.333 157.912 271.913 155.89C272.057 155.956 272.231 155.962 272.417 155.855C274.29 154.772 274.512 158.552 274.548 159.341Z" fill="#9B9B9A"/>
<path d="M267.184 157.189C267.262 157.955 267.586 158.744 268.06 159.372C262.275 159.654 256.544 159.671 250.747 159.677C250.663 159.677 250.591 159.713 250.537 159.761C250.525 159.014 250.519 158.272 250.513 157.53C255.836 158.099 261.831 157.656 267.184 157.189Z" fill="#9B9B9A"/>
<path d="M345.556 143.719C345.556 143.354 345.298 143.157 345.016 143.121C344.416 140.148 340.113 140.388 337.604 140.358C335.96 140.334 334.322 140.328 332.677 140.31C332.749 140.232 332.809 140.131 332.827 140.005C333.001 138.516 332.521 137.003 331.213 136.129C329.179 134.766 326.37 136.022 324.15 135.956C321.119 135.866 316.09 136.159 316.354 140.232C315.592 140.232 314.836 140.232 314.08 140.232C314.032 140.262 313.972 140.286 313.918 140.292C313.059 140.4 312.189 140.316 311.325 140.232C310.143 140.232 308.727 140.089 307.382 140.166C307.37 140.148 307.37 140.131 307.352 140.113C307.34 140.095 307.334 140.083 307.322 140.065C307.106 140.083 306.89 140.131 306.692 140.202C306.692 140.208 306.698 140.22 306.704 140.226C306.644 140.232 306.59 140.244 306.53 140.256C306.488 140.274 306.446 140.28 306.404 140.274C305.822 140.37 305.264 140.519 304.772 140.776C302.623 141.907 302.347 144.443 302.581 146.685C302.551 146.739 302.533 146.805 302.533 146.877C302.239 151.512 302.299 156.153 302.329 160.794C302.347 163.671 301.423 168.575 303.182 171.087C304.82 173.431 308.439 172.995 310.899 173.001C315.604 173.013 320.303 172.983 325.002 172.905C329.707 172.833 334.406 172.738 339.104 172.564C341.511 172.474 343.965 172.445 344.932 169.855C345.502 168.336 345.274 166.386 345.292 164.819C345.322 162.672 345.346 160.519 345.376 158.372C345.436 153.492 345.52 148.605 345.562 143.719H345.556ZM324.666 137.074C327.108 137.098 332.197 135.92 331.741 140.005C331.729 140.131 331.759 140.22 331.813 140.304C327.78 140.268 323.748 140.244 319.715 140.238C318.869 140.232 318.022 140.238 317.176 140.232C317.416 136.47 322.061 137.044 324.666 137.074ZM343.995 164.819C343.965 167.235 344.29 170.543 341.025 171.165C339.291 171.5 337.328 171.338 335.576 171.386C332.047 171.488 328.524 171.565 324.996 171.619C321.671 171.673 318.34 171.703 315.01 171.715C313.245 171.715 311.481 171.721 309.717 171.709C308.829 171.709 307.922 171.739 307.04 171.607C305.252 171.35 305.108 171.254 304.37 169.418C303.007 166.045 303.614 161.53 303.596 157.893C303.584 155.28 303.596 152.666 303.548 150.059C317.026 150.968 330.667 150.806 344.169 150.848C344.109 155.507 344.055 160.16 343.995 164.819ZM344.187 149.807C344.187 149.807 344.181 149.801 344.175 149.801C330.649 149.694 317.062 149.138 303.536 149.425C303.518 148.575 303.488 147.726 303.452 146.877C303.446 146.787 303.422 146.715 303.386 146.656C303.38 145.627 303.44 144.568 303.872 143.677C305.018 141.291 307.928 141.5 310.179 141.506C313.756 141.506 317.332 141.506 320.909 141.518C324.288 141.53 327.666 141.548 331.045 141.578C331.897 141.584 333.847 141.434 335.99 141.416C335.9 141.476 335.84 141.566 335.834 141.697C335.798 142.882 335.786 144.066 335.756 145.25C335.744 145.501 335.972 145.711 336.218 145.711C338.894 145.734 341.571 145.782 344.241 145.764C344.223 147.11 344.205 148.456 344.187 149.807ZM344.253 144.831C341.727 144.784 339.194 144.79 336.662 144.784C336.614 143.755 336.578 142.726 336.524 141.697C336.512 141.56 336.44 141.47 336.35 141.416C339.963 141.422 343.959 141.847 344.079 144.072C344.085 144.239 344.157 144.365 344.259 144.449C344.259 144.574 344.259 144.706 344.253 144.831Z" fill="white"/>
<path d="M344.261 144.45C344.261 144.576 344.261 144.707 344.255 144.833C341.729 144.785 339.196 144.791 336.664 144.785C336.616 143.756 336.58 142.728 336.526 141.699C336.514 141.561 336.442 141.472 336.352 141.418C339.964 141.424 343.961 141.849 344.081 144.073C344.087 144.241 344.159 144.366 344.261 144.45Z" fill="white"/>
<path d="M344.244 145.761C344.226 147.107 344.208 148.452 344.19 149.804C344.184 149.804 344.184 149.798 344.178 149.798C330.651 149.69 317.065 149.134 303.538 149.421C303.52 148.572 303.49 147.723 303.454 146.874C303.448 146.784 303.424 146.712 303.388 146.652C303.382 145.624 303.442 144.565 303.874 143.674C305.02 141.287 307.931 141.497 310.181 141.503C313.758 141.503 317.335 141.503 320.911 141.515C324.29 141.527 327.669 141.545 331.047 141.575C331.9 141.581 333.85 141.431 335.992 141.413C335.902 141.473 335.842 141.563 335.836 141.694C335.8 142.878 335.788 144.063 335.758 145.247C335.746 145.498 335.974 145.707 336.22 145.707C338.897 145.731 341.573 145.779 344.244 145.761ZM328.305 146.951C328.695 146.879 328.689 146.455 328.461 146.24C328.497 146.162 328.515 146.078 328.503 145.976C328.377 145.175 328.245 144.368 328.119 143.566C328.083 143.315 327.771 143.183 327.555 143.243C325.556 143.781 323.138 142.244 321.314 143.596C320.371 144.296 319.981 145.958 321.092 146.61C320.947 146.808 321.049 147.179 321.38 147.22C323.672 147.496 326.036 147.382 328.305 146.951Z" fill="#AFAFAF"/>
<path d="M344.164 150.852C344.104 155.511 344.05 160.164 343.99 164.823C343.96 167.239 344.284 170.547 341.019 171.169C339.285 171.503 337.322 171.342 335.57 171.39C332.041 171.492 328.519 171.569 324.99 171.623C321.665 171.677 318.335 171.707 315.004 171.719C313.24 171.719 311.475 171.725 309.711 171.713C308.823 171.713 307.917 171.743 307.034 171.611C305.246 171.354 305.102 171.258 304.364 169.422C303.002 166.049 303.608 161.534 303.59 157.897C303.578 155.284 303.59 152.67 303.542 150.062C317.02 150.972 330.661 150.81 344.164 150.852ZM326.982 168.059C331.633 166.976 334.658 161.845 333.338 157.245C332.173 153.208 327.738 150.732 323.742 151.612C318.719 151.055 315.028 155.66 315.664 160.439C315.172 160.427 314.674 160.457 314.188 160.475C313.93 160.481 313.732 160.72 313.798 160.977C314.086 162.024 314.374 163.065 314.656 164.111C314.716 164.333 314.938 164.422 315.148 164.386C315.76 164.279 316.372 164.153 316.978 164.004C318.695 166.659 321.767 168.322 324.99 168.292V168.417C325.002 168.902 325.734 168.902 325.746 168.417V168.244C326.16 168.208 326.568 168.154 326.982 168.059Z" fill="#5D5D5D"/>
<path d="M333.344 157.242C334.664 161.841 331.639 166.972 326.988 168.055C326.574 168.15 326.166 168.204 325.752 168.24V168.414C325.74 168.898 325.008 168.898 324.996 168.414V168.288C321.773 168.318 318.701 166.655 316.984 164C316.378 164.149 315.766 164.275 315.154 164.383C314.944 164.418 314.722 164.329 314.662 164.107C314.38 163.061 314.092 162.02 313.804 160.974C313.738 160.716 313.936 160.477 314.194 160.471C314.68 160.453 315.178 160.423 315.67 160.435C315.034 155.657 318.725 151.051 323.748 151.608C327.745 150.729 332.179 153.205 333.344 157.242ZM330.745 164.137C331.813 162.738 332.413 160.974 332.353 159.221C331.987 159.281 331.621 159.281 331.267 159.221C331.273 159.377 331.177 159.532 330.979 159.544C330.703 159.562 330.439 159.544 330.169 159.52C330.175 159.586 330.181 159.652 330.181 159.718C330.193 160.962 329.737 162.182 328.987 163.174C329.575 163.485 330.175 163.791 330.745 164.137ZM332.293 158.504C332.251 158.193 332.185 157.888 332.101 157.582C331.651 156.051 330.745 154.891 329.587 154.09C329.581 154.108 329.581 154.126 329.569 154.15C329.353 154.562 328.957 154.873 328.633 155.196C328.495 155.334 328.351 155.465 328.213 155.603C329.041 156.327 329.671 157.271 329.971 158.336C330.031 158.282 330.103 158.258 330.193 158.294C330.877 158.575 331.573 158.617 332.293 158.504ZM330.349 164.61C329.773 164.287 329.215 163.934 328.651 163.587C327.859 164.466 326.82 165.124 325.668 165.393C325.692 165.914 325.716 166.44 325.734 166.96C326.172 166.918 326.616 166.847 327.048 166.721C328.345 166.35 329.467 165.591 330.349 164.61ZM324.858 164.436C327.396 164.245 329.563 161.542 329.047 159.006C328.813 157.887 328.201 156.984 327.372 156.321C327.228 156.333 327.096 156.225 327.054 156.087C326.214 155.513 325.2 155.154 324.162 155.059C324.048 155.047 323.958 155.005 323.892 154.939C323.874 154.951 323.856 154.969 323.832 154.975C321.515 155.764 319.505 157.708 319.805 160.334C320.081 162.768 322.434 164.622 324.858 164.436ZM328.141 154.712C328.441 154.389 328.735 154.018 329.113 153.785C327.408 152.798 325.266 152.511 323.25 152.9C323.124 152.923 323.004 152.947 322.884 152.977C322.626 153.037 322.41 152.894 322.289 152.696C320.903 153.019 319.721 153.707 318.815 154.634C319.001 154.879 319.193 155.124 319.427 155.334C319.703 155.585 320.027 155.788 320.351 155.974C321.077 155.226 322.001 154.676 323.034 154.455C323.01 154.239 322.98 154.018 322.968 153.797C322.956 153.581 322.992 153.378 323.022 153.163C323.04 153.031 323.136 152.947 323.256 152.917C323.448 152.864 323.694 152.947 323.724 153.163C323.754 153.378 323.796 153.581 323.784 153.797C323.772 153.982 323.748 154.167 323.724 154.353C323.736 154.353 323.742 154.353 323.748 154.347C323.784 154.347 323.808 154.353 323.838 154.359C323.91 154.275 324.012 154.209 324.162 154.197C325.44 154.102 326.67 154.49 327.691 155.196L328.141 154.712ZM325.014 167.008C325.032 166.5 325.056 165.997 325.08 165.489C325.032 165.495 324.984 165.507 324.93 165.507C323.454 165.627 321.995 165.094 320.861 164.167C321.017 164.371 320.909 164.682 320.843 164.897C320.795 165.064 320.615 165.118 320.471 165.076C320.381 165.22 320.291 165.369 320.207 165.513C321.593 166.488 323.292 167.026 325.014 167.008ZM320.237 164.173C320.381 164.042 320.585 163.976 320.759 164.078C319.667 163.145 318.905 161.847 318.755 160.405C318.737 160.256 318.731 160.112 318.731 159.969C318.191 159.765 317.501 159.897 316.954 160.13C317.026 160.752 317.182 161.386 317.435 162.026C317.909 163.246 318.701 164.293 319.673 165.106C319.829 164.771 319.991 164.412 320.237 164.173ZM318.761 159.281C318.881 158.282 319.271 157.331 319.871 156.53C319.253 156.267 318.653 155.842 318.233 155.31C317.351 156.488 316.876 157.953 316.918 159.514C317.513 159.287 318.107 159.257 318.761 159.281ZM315.34 163.551C315.76 163.479 316.18 163.414 316.606 163.36C316.246 162.684 315.976 161.954 315.796 161.177C315.79 161.177 315.784 161.183 315.772 161.183C315.424 161.225 315.064 161.237 314.71 161.249L315.34 163.551Z" fill="black"/>
<path d="M332.351 159.222C332.411 160.974 331.811 162.738 330.743 164.138C330.173 163.791 329.572 163.486 328.984 163.175C329.735 162.182 330.191 160.962 330.179 159.718C330.179 159.652 330.173 159.587 330.167 159.521C330.437 159.545 330.701 159.563 330.977 159.545C331.175 159.533 331.271 159.377 331.265 159.222C331.619 159.281 331.985 159.281 332.351 159.222Z" fill="#AFAFAF"/>
<path d="M332.106 157.581C332.19 157.886 332.256 158.191 332.298 158.502C331.577 158.615 330.881 158.573 330.197 158.292C330.107 158.256 330.035 158.28 329.975 158.334C329.675 157.27 329.045 156.325 328.217 155.601C328.355 155.463 328.499 155.332 328.637 155.194C328.961 154.871 329.357 154.56 329.573 154.148C329.585 154.124 329.585 154.106 329.591 154.088C330.749 154.889 331.655 156.05 332.106 157.581Z" fill="#AFAFAF"/>
<path d="M324.668 137.076C327.111 137.1 332.2 135.922 331.744 140.007C331.732 140.133 331.762 140.222 331.816 140.306C327.783 140.27 323.75 140.246 319.717 140.24C318.871 140.234 318.025 140.24 317.179 140.234C317.419 136.472 322.064 137.047 324.668 137.076Z" fill="#AFAFAF"/>
<path d="M328.654 163.585C329.219 163.932 329.777 164.285 330.353 164.608C329.471 165.589 328.348 166.348 327.052 166.719C326.62 166.844 326.176 166.916 325.738 166.958C325.72 166.438 325.696 165.911 325.672 165.391C326.824 165.122 327.862 164.464 328.654 163.585Z" fill="#AFAFAF"/>
<path d="M329.045 159.002C329.561 161.538 327.395 164.242 324.856 164.433C322.432 164.618 320.079 162.764 319.803 160.33C319.503 157.705 321.514 155.761 323.83 154.971C323.854 154.965 323.872 154.948 323.89 154.936C323.956 155.001 324.046 155.043 324.16 155.055C325.198 155.151 326.212 155.51 327.053 156.084C327.095 156.221 327.227 156.329 327.371 156.317C328.199 156.981 328.811 157.884 329.045 159.002Z" fill="#585857"/>
<path d="M328.461 146.24C328.689 146.455 328.695 146.88 328.305 146.952C326.036 147.382 323.672 147.496 321.379 147.221C321.049 147.179 320.947 146.808 321.091 146.611C319.981 145.959 320.371 144.296 321.313 143.596C323.138 142.245 325.556 143.782 327.555 143.243C327.771 143.184 328.083 143.315 328.119 143.566C328.245 144.368 328.377 145.175 328.503 145.977C328.515 146.078 328.503 146.162 328.461 146.24ZM327.633 146.168C327.525 145.522 327.417 144.882 327.303 144.236C326.366 144.386 325.46 144.23 324.512 144.081C323.708 143.955 322.82 143.824 322.088 144.248C321.307 144.697 321.061 145.594 321.607 146.353C321.637 146.401 321.649 146.443 321.649 146.485C323.672 146.551 325.628 146.461 327.633 146.168Z" fill="black"/>
<path d="M329.11 153.783C328.732 154.016 328.438 154.387 328.138 154.71L327.688 155.194C326.668 154.488 325.437 154.1 324.159 154.195C324.009 154.207 323.907 154.273 323.835 154.357C323.805 154.351 323.781 154.345 323.745 154.345C323.739 154.351 323.733 154.351 323.721 154.351C323.745 154.166 323.769 153.98 323.781 153.795C323.793 153.579 323.751 153.376 323.721 153.161C323.691 152.945 323.445 152.862 323.253 152.916V152.898C325.263 152.509 327.406 152.796 329.11 153.783Z" fill="#AFAFAF"/>
<path d="M327.305 144.236C327.419 144.882 327.527 145.522 327.636 146.168C325.631 146.461 323.675 146.551 321.652 146.485C321.652 146.443 321.64 146.401 321.61 146.354C321.064 145.594 321.31 144.697 322.09 144.248C322.823 143.824 323.711 143.955 324.515 144.081C325.463 144.23 326.369 144.386 327.305 144.236Z" fill="white"/>
<path d="M325.08 165.493C325.056 166.001 325.032 166.503 325.014 167.012C323.292 167.03 321.593 166.491 320.207 165.517C320.291 165.373 320.381 165.224 320.471 165.08C320.615 165.122 320.795 165.068 320.843 164.901C320.909 164.685 321.017 164.374 320.861 164.171C321.995 165.098 323.454 165.63 324.93 165.511C324.984 165.511 325.032 165.499 325.08 165.493Z" fill="#AFAFAF"/>
<path d="M323.248 152.902V152.92C323.134 152.949 323.038 153.033 323.02 153.165C322.99 153.38 322.954 153.583 322.966 153.799C322.978 154.02 323.008 154.241 323.032 154.457C322 154.678 321.076 155.228 320.35 155.976C320.026 155.79 319.702 155.587 319.426 155.336C319.192 155.126 319 154.881 318.813 154.636C319.72 153.709 320.902 153.021 322.288 152.698C322.408 152.896 322.624 153.039 322.882 152.979C323.002 152.949 323.122 152.926 323.248 152.902Z" fill="#AFAFAF"/>
<path d="M320.767 164.079C320.593 163.978 320.389 164.043 320.245 164.175C319.999 164.414 319.836 164.773 319.68 165.108C318.708 164.295 317.916 163.248 317.442 162.028C317.19 161.388 317.034 160.754 316.962 160.132C317.508 159.899 318.198 159.767 318.738 159.971C318.738 160.114 318.744 160.258 318.762 160.407C318.912 161.849 319.674 163.146 320.767 164.079Z" fill="#AFAFAF"/>
<path d="M319.867 156.528C319.267 157.329 318.877 158.28 318.757 159.279C318.103 159.255 317.509 159.285 316.915 159.512C316.873 157.951 317.347 156.486 318.229 155.308C318.649 155.84 319.249 156.265 319.867 156.528Z" fill="#AFAFAF"/>
<path d="M316.605 163.359C316.179 163.413 315.759 163.478 315.339 163.55L314.709 161.248C315.063 161.236 315.423 161.224 315.771 161.182C315.783 161.182 315.789 161.176 315.795 161.176C315.975 161.953 316.245 162.683 316.605 163.359Z" fill="#AFAFAF"/>
<path d="M282.836 81.8473C284.883 84.1439 285.549 87.0625 283.13 89.3711C280.436 91.9309 275.839 92.4811 272.298 92.6486C267.966 92.8459 263.639 92.1641 259.486 90.968C251.162 88.5697 243.091 84.3772 236.207 79.144C232.655 76.4407 229.402 73.3188 226.714 69.7542C224.619 66.9672 222.189 63.1694 223.107 59.4913C223.755 56.9195 226.065 55.4662 228.634 55.4782C232.379 55.4842 235.151 58.3729 237.324 61.0821C237.408 61.1898 237.432 61.3034 237.414 61.4171C239.796 59.9936 241.926 58.1695 243.979 56.1779C246.349 53.8813 248.642 50.7833 251.816 49.5632C254.619 48.4927 257.229 49.6111 258.922 51.9615C260.26 53.8155 260.788 56.1121 261.484 58.2891C266.177 58.5822 276.685 54.8741 276.751 62.673C276.769 64.4553 275.935 66.1777 275.323 67.8045C274.519 69.9456 273.781 72.1107 273.253 74.3355C272.97 75.5137 272.748 76.7099 272.598 77.918C276.415 77.6129 280.244 78.9287 282.836 81.8473ZM280.94 89.3771C282.608 88.3723 283.226 87.553 283.016 85.5913C282.494 80.8425 276.733 78.839 272.472 79.2218C272.4 80.1548 272.382 81.0937 272.424 82.0327C272.478 83.0435 272.934 84.132 272.31 85.0111C272.1 85.2982 271.662 85.2743 271.41 85.0769L271.236 84.9334C271.236 84.9334 271.2 84.8915 271.188 84.8676C263.333 85.9681 255.777 83.3186 249.008 79.461C245.389 77.3976 241.842 75.0532 238.596 72.4396C236.207 70.5198 232.589 67.7088 232.055 64.5211C232.055 64.4912 232.055 64.4672 232.067 64.4493C231.772 64.3177 231.718 63.7795 232.091 63.6838C233.741 63.2472 235.259 62.6072 236.687 61.8238C236.645 61.8058 236.603 61.7879 236.567 61.746C234.989 60.1551 233.423 58.313 231.328 57.3561C228.154 55.9088 224.241 57.1947 224.235 61.2197C224.235 65.3883 227.944 69.527 230.614 72.3798C235.907 78.0615 242.605 82.3318 249.566 85.7049C256.425 89.0242 264.005 91.6019 271.728 91.3627C273.703 91.2969 275.695 91.0637 277.615 90.5852C278.744 90.3041 279.944 89.9632 280.946 89.3591L280.94 89.3771ZM271.38 83.5518C271.398 82.4633 271.116 80.6811 271.128 80.083C271.17 79.0423 271.278 78.0137 271.428 76.985C271.35 77.1225 271.212 77.2182 270.984 77.2302C258.982 77.9778 246.103 71.3989 239.502 61.447C237.414 62.8584 235.133 63.9409 232.481 64.4314C234.011 65.6096 235.013 67.3978 236.375 68.7734C237.57 69.9815 238.878 71.07 240.216 72.1047C243.295 74.479 246.583 76.65 249.974 78.54C256.539 82.2121 263.789 84.7001 271.374 83.5458L271.38 83.5518ZM271.494 76.5723C271.548 76.2374 271.602 75.9084 271.668 75.5735C272.256 72.5652 273.253 69.6526 274.345 66.7818C275.275 64.3297 276.421 60.9984 273.415 59.4135C271.776 58.5523 269.766 58.7078 268.008 58.959C265.877 59.258 263.867 59.6587 261.814 59.264C262.504 61.1599 263.441 62.8943 265.325 64.0606C265.973 64.4672 265.517 65.5258 264.803 65.161C261.916 63.6778 260.896 60.7412 260.002 57.8047C259.324 55.5918 258.664 52.9543 256.755 51.4232C253.965 49.1924 250.958 51.172 248.822 53.1636C246.007 55.7772 243.355 58.6599 240.3 60.8967C248.096 70.5856 258.484 75.6154 270.894 76.052C271.242 76.0639 271.452 76.3091 271.506 76.5723H271.494Z" fill="white"/>
<path d="M283.013 85.5927C283.223 87.5544 282.605 88.3737 280.937 89.3785C279.934 89.9826 278.734 90.3235 277.606 90.6046C275.686 91.083 273.693 91.3163 271.719 91.3821C263.995 91.6153 256.422 89.0436 249.557 85.7243C242.595 82.3511 235.898 78.0809 230.605 72.3991C227.934 69.5403 224.226 65.4076 224.226 61.2391C224.226 57.214 228.138 55.9281 231.319 57.3755C233.413 58.3324 234.98 60.1685 236.558 61.7654C236.6 61.8072 236.636 61.8252 236.678 61.8431C235.25 62.6266 233.731 63.2605 232.081 63.7031C231.709 63.7988 231.763 64.3311 232.057 64.4687C232.045 64.4926 232.039 64.5105 232.045 64.5404C232.579 67.7282 236.198 70.5331 238.586 72.4589C241.833 75.0725 245.38 77.417 248.998 79.4804C255.774 83.3379 263.323 85.9874 271.179 84.887C271.197 84.9109 271.203 84.9348 271.227 84.9527L271.401 85.0963C271.653 85.2936 272.091 85.3176 272.301 85.0305C272.925 84.1513 272.469 83.0688 272.415 82.0521C272.373 81.1131 272.391 80.1741 272.463 79.2411C276.724 78.8584 282.485 80.8619 283.007 85.6106L283.013 85.5927Z" fill="#85603C"/>
<path d="M271.127 80.09C271.109 80.6821 271.397 82.4704 271.379 83.5589C263.787 84.7131 256.544 82.2251 249.979 78.553C246.588 76.6571 243.305 74.492 240.221 72.1177C238.883 71.083 237.574 69.9945 236.38 68.7864C235.018 67.4048 234.016 65.6226 232.485 64.4444C235.138 63.9539 237.418 62.8714 239.507 61.46C246.108 71.4179 258.986 77.9908 270.989 77.2432C271.217 77.2312 271.355 77.1295 271.433 76.998C271.283 78.0267 271.181 79.0553 271.133 80.096L271.127 80.09Z" fill="#BC9C6A"/>
<path d="M271.666 75.5689C271.6 75.9038 271.54 76.2328 271.492 76.5677C271.438 76.3045 271.228 76.0593 270.88 76.0474C258.47 75.6108 248.082 70.581 240.286 60.8921C243.341 58.6553 245.993 55.7726 248.808 53.159C250.944 51.1674 253.951 49.1878 256.741 51.4186C258.65 52.9497 259.31 55.5872 259.988 57.8001C260.882 60.7307 261.902 63.6672 264.789 65.1564C265.503 65.5212 265.965 64.4627 265.311 64.056C263.427 62.8897 262.496 61.1553 261.8 59.2594C263.859 59.6541 265.869 59.2594 267.993 58.9544C269.752 58.7092 271.762 58.5537 273.401 59.4089C276.407 60.9938 275.261 64.3251 274.331 66.7772C273.239 69.642 272.242 72.5546 271.654 75.5689H271.666Z" fill="#85603C"/>
</g>
</svg>
