<svg  viewBox="0 0 34 34"  xmlns="http://www.w3.org/2000/svg">
<path d="M18.4585 16.9996L14.5002 20.9579C14.1947 21.2634 14.0419 21.6454 14.0419 22.1037C14.0419 22.562 14.1947 22.9579 14.5002 23.2912C14.8336 23.6245 15.2294 23.7912 15.6877 23.7912C16.1461 23.7912 16.5419 23.6245 16.8752 23.2912L22.0002 18.1662C22.3335 17.8329 22.5002 17.444 22.5002 16.9996C22.5002 16.5551 22.3335 16.1662 22.0002 15.8329L16.8336 10.6663C16.5002 10.3329 16.1113 10.1732 15.6669 10.1871C15.2225 10.201 14.8336 10.3746 14.5002 10.7079C14.1947 11.0413 14.035 11.4302 14.0211 11.8746C14.0072 12.319 14.1669 12.7079 14.5002 13.0413L18.4585 16.9996ZM17.3335 33.6661C15.028 33.6661 12.8614 33.2286 10.8336 32.3536C8.80583 31.4786 7.04195 30.2911 5.54196 28.7912C4.04197 27.2912 2.85448 25.5273 1.97948 23.4995C1.10449 21.4718 0.666992 19.3051 0.666992 16.9996C0.666992 14.694 1.10449 12.5274 1.97948 10.4996C2.85448 8.47184 4.04197 6.70797 5.54196 5.20798C7.04195 3.70799 8.80583 2.52049 10.8336 1.6455C12.8614 0.770505 15.028 0.333008 17.3335 0.333008C19.6391 0.333008 21.8057 0.770505 23.8335 1.6455C25.8613 2.52049 27.6252 3.70799 29.1251 5.20798C30.6251 6.70797 31.8126 8.47184 32.6876 10.4996C33.5626 12.5274 34.0001 14.694 34.0001 16.9996C34.0001 19.3051 33.5626 21.4718 32.6876 23.4995C31.8126 25.5273 30.6251 27.2912 29.1251 28.7912C27.6252 30.2911 25.8613 31.4786 23.8335 32.3536C21.8057 33.2286 19.6391 33.6661 17.3335 33.6661ZM17.3335 30.3328C21.0557 30.3328 24.2085 29.0412 26.7918 26.4578C29.3751 23.8745 30.6668 20.7218 30.6668 16.9996C30.6668 13.2774 29.3751 10.1246 26.7918 7.54129C24.2085 4.95798 21.0557 3.66632 17.3335 3.66632C13.6114 3.66632 10.4586 4.95798 7.87528 7.54129C5.29196 10.1246 4.0003 13.2774 4.0003 16.9996C4.0003 20.7218 5.29196 23.8745 7.87528 26.4578C10.4586 29.0412 13.6114 30.3328 17.3335 30.3328Z" />
</svg>
