<svg  viewBox="0 0 29 28" fill="none" xmlns="http://www.w3.org/2000/svg">
<path fill-rule="evenodd" clip-rule="evenodd" d="M3.04545 14C3.04545 7.67383 8.17383 2.54545 14.5 2.54545C20.8262 2.54545 25.9545 7.67383 25.9545 14C25.9545 20.3262 20.8262 25.4545 14.5 25.4545C8.17383 25.4545 3.04545 20.3262 3.04545 14ZM14.5 0C6.76802 0 0.5 6.26802 0.5 14C0.5 21.7319 6.76802 28 14.5 28C22.2319 28 28.5 21.7319 28.5 14C28.5 6.26802 22.2319 0 14.5 0ZM9.45818 10.783C9.6207 10.822 9.7893 10.8287 9.95439 10.8025C10.1195 10.7764 10.2778 10.718 10.4203 10.6306C10.5628 10.5433 10.6867 10.4288 10.7849 10.2935C10.8111 10.2575 10.8353 10.2202 10.8575 10.1818C11.209 9.57309 11.9874 9.36451 12.5961 9.71596C13.2049 10.0674 13.4133 10.8458 13.0619 11.4545C12.9954 11.5697 12.9227 11.6817 12.8443 11.7898C12.5495 12.1954 12.1778 12.539 11.7503 12.801C11.3228 13.063 10.8478 13.2381 10.3526 13.3167C9.85734 13.3951 9.35151 13.3752 8.86396 13.2581C8.3764 13.141 7.91667 12.9291 7.51102 12.6345C7.07822 12.32 6.71581 11.9173 6.44865 11.4545C6.09719 10.8458 6.30576 10.0674 6.91449 9.71597C7.52323 9.36451 8.30161 9.57309 8.65308 10.1818C8.74199 10.3358 8.86317 10.4705 9.0072 10.5751C9.14242 10.6734 9.29565 10.744 9.45818 10.783ZM19.4489 10.8025C19.2838 10.8287 19.1152 10.822 18.9526 10.783C18.7901 10.744 18.6369 10.6734 18.5017 10.5751C18.3576 10.4705 18.2365 10.3358 18.1475 10.1818C17.7961 9.57309 17.0177 9.36451 16.409 9.71597C15.8002 10.0674 15.5917 10.8458 15.9431 11.4545C16.2103 11.9173 16.5728 12.32 17.0055 12.6345C17.4111 12.9291 17.8709 13.141 18.3584 13.2581C18.846 13.3752 19.3519 13.3951 19.8471 13.3167C20.3423 13.2381 20.8173 13.063 21.2448 12.801C21.6723 12.539 22.0441 12.1954 22.3387 11.7898C22.4173 11.6817 22.4899 11.5697 22.5564 11.4545C22.9079 10.8458 22.6993 10.0674 22.0905 9.71596C21.4818 9.36451 20.7034 9.57309 20.352 10.1818C20.3299 10.2202 20.3057 10.2575 20.2795 10.2935C20.1812 10.4288 20.0572 10.5433 19.9148 10.6306C19.7723 10.718 19.6139 10.7764 19.4489 10.8025ZM21.1827 18.2901C21.6476 18.8174 21.597 19.6216 21.0697 20.0864C20.5424 20.5512 19.7382 20.5007 19.2734 19.9734C18.6762 19.2961 17.9417 18.7535 17.1186 18.3819C16.2957 18.0104 15.403 17.8182 14.4999 17.8182C13.5969 17.8182 12.7042 18.0104 11.8812 18.3819C11.0582 18.7535 10.3237 19.2961 9.7265 19.9734C9.26166 20.5007 8.4574 20.5512 7.93014 20.0864C7.40288 19.6216 7.35229 18.8174 7.81713 18.2901C8.65318 17.3418 9.68148 16.5822 10.8337 16.0619C11.986 15.5418 13.2357 15.2727 14.4999 15.2727C15.7642 15.2727 17.0139 15.5418 18.1661 16.0619C19.3184 16.5822 20.3467 17.3418 21.1827 18.2901Z" fill="black"/>
</svg>
