<svg  viewBox="0 0 30 30" fill="none" xmlns="http://www.w3.org/2000/svg">
<path d="M17 11C17.55 11 18 10.55 18 10C18 9.45 18.45 9 19 9C19.55 9 20 9.45 20 10C20 10.55 20.45 11 21 11C21.55 11 22 10.55 22 10C22 8.35 20.65 7 19 7C17.35 7 16 8.35 16 10C16 10.55 16.45 11 17 11Z" fill="black"/>
<path d="M9 11C9.55 11 10 10.55 10 10C10 9.45 10.45 9 11 9C11.55 9 12 9.45 12 10C12 10.55 12.45 11 13 11C13.55 11 14 10.55 14 10C14 8.35 12.65 7 11 7C9.35 7 8 8.35 8 10C8 10.55 8.45 11 9 11Z" fill="black"/>
<path d="M15 0C6.75 0 0 6.75 0 15C0 23.25 6.75 30 15 30C23.25 30 30 23.25 30 15C30 6.75 23.25 0 15 0ZM15 28C7.85 28 2 22.15 2 15C2 7.85 7.85 2 15 2C22.15 2 28 7.85 28 15C28 22.15 22.15 28 15 28Z" fill="black"/>
<path d="M23 14C22.45 14 22 14.45 22 15C22 18.85 18.85 22 15 22C11.15 22 8 18.85 8 15C8 14.45 7.55 14 7 14C6.45 14 6 14.45 6 15C6 19.95 10.05 24 15 24C19.95 24 24 19.95 24 15C24 14.45 23.55 14 23 14Z" fill="black"/>
</svg>
