<svg viewBox="0 0 58 214" fill="none" xmlns="http://www.w3.org/2000/svg">
<path d="M28.1644 213.733C26.1904 213.733 23.272 213.466 20.5717 212.187C19.6469 212.332 18.7396 212.403 17.8213 212.403C17.625 212.403 17.4265 212.399 17.228 212.392C12.9965 212.242 9.27547 210.537 6.46176 207.457C4.06029 204.831 2.34808 201.211 1.37309 196.698C-0.00976683 190.292 0.0796611 183.21 1.61084 178.216C1.77443 177.679 1.93802 177.171 2.09942 176.672C2.68616 174.854 2.98061 173.94 3.12893 172.104C3.27943 170.257 2.89119 167.856 2.44187 165.078C2.33281 164.402 2.22157 163.712 2.11251 163.01C1.51487 159.116 0.483177 151.864 0.297778 147.055C0.203988 144.619 0.175632 136.837 0.149458 129.972C0.136371 126.391 0.11456 120.398 0.0862046 119.747C-0.123188 115.349 0.956491 110.726 3.05259 107.063C4.1061 105.221 5.83576 101.921 8.078 96.655C9.8622 92.4713 10.6998 89.7632 11.0597 88.4224C10.2177 86.8143 9.77932 85.0273 9.77932 83.1697C9.77932 81.8554 9.99961 80.5742 10.438 79.3527C10.5187 77.685 10.6343 75.6749 10.7783 74.5108C11.642 67.5175 17.2651 63.833 22.2425 63.3051C23.0757 63.1107 23.9307 63.0113 24.7901 63.0113C25.0061 63.0113 29.8024 62.9671 31.7131 62.9473H31.7982C33.1135 62.9473 34.372 63.1527 35.5585 63.5569C41.1816 64.816 45.328 69.4304 45.9082 75.116C46.111 77.0908 46.2375 78.6414 46.2986 79.8298C47.0162 82.1779 46.953 84.7093 46.1045 87.0198C45.9431 87.4571 45.7555 87.8857 45.5439 88.2987C45.5527 88.3407 45.557 88.3606 45.557 88.3628C45.762 89.2176 46.46 91.2851 48.6041 96.2485C49.915 99.2813 52.9664 105.183 53.6012 106.175C55.8739 109.732 57.0758 114.028 57.0758 118.598C57.0758 119.007 57.0801 120.164 57.0845 121.814C57.1565 144.849 57.1063 150.552 57.0103 152.027C56.8467 154.546 56.1248 159.518 55.4901 163.905C55.3636 164.773 55.2458 165.592 55.1367 166.354C54.6416 169.811 54.683 171.346 54.9295 172.961C54.9993 173.317 55.3636 174.521 55.5402 175.102C56.3952 177.927 57.5687 181.794 57.6102 186.053C57.669 192.139 56.1815 198.317 54.8881 201.758C52.4451 208.257 47.0206 212.268 40.3811 212.489C40.2153 212.494 40.0539 212.498 39.8882 212.498C38.682 212.498 37.406 212.352 36.021 212.052C33.842 213.165 31.2093 213.728 28.1709 213.728L28.1644 213.733Z" fill="white"/>
<path d="M28.1639 210.199C26.5432 210.199 24.168 209.989 22.05 208.987C21.7338 208.836 21.4262 208.669 21.1274 208.485C19.9954 208.744 18.9026 208.872 17.8208 208.872C17.6615 208.872 17.5045 208.87 17.3431 208.863C14.0648 208.748 11.19 207.432 9.01974 205.059C7.04579 202.901 5.6193 199.835 4.77955 195.945C3.53629 190.191 3.59954 183.644 4.94096 179.266C5.10019 178.747 5.25941 178.254 5.41427 177.773C6.02064 175.891 6.42197 174.647 6.60301 172.396C6.78841 170.117 6.36744 167.519 5.88104 164.511C5.77199 163.841 5.66293 163.163 5.55605 162.47C4.96932 158.65 3.95943 151.553 3.78058 146.921C3.68897 144.549 3.66061 136.8 3.63662 129.961C3.62135 125.636 3.60172 120.262 3.56901 119.58C3.39015 115.842 4.30188 111.926 6.06862 108.84C7.17011 106.916 8.9674 103.483 11.2794 98.0605C13.9186 91.8712 14.7017 88.4165 14.7562 87.893C14.7584 87.8532 14.7606 87.8134 14.7649 87.7715C13.7987 86.455 13.2687 84.8557 13.2687 83.1748C13.2687 82.1123 13.4824 81.0697 13.8947 80.1088C13.9535 78.8122 14.0822 76.2234 14.2393 74.9533C14.8587 69.9347 18.9375 67.1161 22.82 66.8025C23.4591 66.6324 24.12 66.5484 24.7852 66.5484C25.0208 66.5484 29.9241 66.502 31.741 66.4844H31.8086C32.7988 66.4844 33.7346 66.6478 34.6114 66.9703C38.8756 67.8428 41.9968 71.218 42.4331 75.4812C42.6577 77.6724 42.7886 79.3225 42.83 80.4887C43.4517 82.1896 43.4582 84.0782 42.83 85.7923C42.6054 86.4064 42.3022 86.9895 41.9314 87.5241C42.0055 88.3524 42.0906 88.9113 42.1582 89.194C42.6839 91.3808 44.7276 96.1122 45.3994 97.6673C46.7452 100.784 49.8708 106.856 50.6626 108.098C52.5689 111.082 53.5766 114.713 53.5766 118.601C53.5766 119.012 53.581 120.174 53.5854 121.828C53.6464 141.454 53.6268 150.137 53.5199 151.798C53.3651 154.177 52.654 159.074 52.028 163.395C51.9015 164.265 51.7815 165.089 51.6725 165.851C51.1163 169.743 51.1774 171.612 51.474 173.527C51.5503 174.02 51.9059 175.197 52.1938 176.14C52.9877 178.758 54.0739 182.343 54.1088 186.091C54.1634 191.684 52.8001 197.35 51.6136 200.504C49.6593 205.704 45.5194 208.786 40.2541 208.96C40.1276 208.965 40.0032 208.967 39.8767 208.967C38.5746 208.967 37.1437 208.748 35.4664 208.284C33.6364 209.554 31.187 210.197 28.1573 210.197L28.1639 210.199Z" fill="#11A64B"/>
<path d="M28.1625 206.661C26.8974 206.661 25.063 206.508 23.5253 205.779C22.8382 205.455 22.2951 205.035 21.8654 204.6C20.7618 204.975 19.368 205.331 17.8194 205.331C17.6994 205.331 17.5794 205.331 17.4595 205.324C12.7242 205.156 9.60509 201.746 8.18733 195.183C7.08148 190.063 7.11637 184.084 8.27239 180.306C8.42508 179.805 8.57994 179.328 8.73044 178.862C9.36516 176.896 9.86465 175.341 10.0806 172.679C10.3009 169.969 9.84938 167.172 9.3259 163.934C9.21902 163.276 9.11214 162.604 9.00527 161.922C8.42944 158.178 7.43919 151.233 7.26906 146.778C7.17963 144.467 7.15127 136.749 7.12728 129.937C7.10983 125.133 7.09238 120.163 7.0553 119.403C6.90916 116.326 7.64858 113.121 9.08815 110.605C10.2376 108.599 12.1047 105.034 14.4844 99.4543C17.0712 93.3843 18.1596 89.2956 18.236 88.1448C18.273 87.5881 18.297 86.9961 18.3101 86.4373C17.3635 85.6664 16.7571 84.4868 16.7571 83.1681C16.7571 82.3862 16.9665 81.6506 17.3482 81.0145C17.3526 80.9018 17.514 76.9103 17.7016 75.384C18.1029 72.1391 20.9166 70.361 23.4141 70.3013C23.8459 70.1533 24.3062 70.0738 24.786 70.0738C25.0478 70.0738 30.0797 70.0274 31.7767 70.0098H31.8312C32.5728 70.0098 33.1726 70.1666 33.6503 70.3764C36.2023 70.7983 38.6364 72.656 38.9614 75.8368C39.2842 79.0066 39.3562 80.502 39.3562 81.2442C39.3584 81.2508 39.3628 81.2552 39.3649 81.2619C39.8819 82.2802 39.9517 83.4796 39.5569 84.5509C39.3344 85.1606 38.9331 85.7901 38.3463 86.2893C38.4161 87.6146 38.547 89.1101 38.7673 90.0201C39.3649 92.5073 41.4283 97.2807 42.2048 99.0766C43.5833 102.266 46.7722 108.502 47.7341 110.006C49.274 112.416 50.0876 115.385 50.0876 118.59C50.0876 119.001 50.0919 120.167 50.0963 121.83C50.1399 135.433 50.1661 149.601 50.0374 151.555C49.8913 153.795 49.1911 158.626 48.5738 162.887C48.4495 163.744 48.3295 164.57 48.2205 165.334C47.6032 169.648 47.6905 171.873 48.0285 174.066C48.1441 174.808 48.491 175.955 48.8596 177.17C49.6317 179.714 50.5914 182.882 50.622 186.118C50.6678 190.891 49.5161 196.146 48.3557 199.239C46.9052 203.098 43.989 205.293 40.1436 205.419C40.0564 205.421 39.9691 205.424 39.8797 205.424C38.2351 205.424 36.3637 204.916 34.6056 204.308C34.514 204.421 34.4137 204.536 34.3112 204.651C33.1006 205.98 31.0329 206.654 28.1625 206.654V206.661Z" fill="#FFE200"/>
<path d="M24.7873 74.0543C24.5387 74.0543 24.4863 74.2796 24.4863 74.2796H23.5462C23.062 74.2796 21.7555 74.611 21.5984 75.8811C21.4414 77.1512 21.2844 80.829 21.2713 81.1736C21.2582 81.5182 21.4021 82.2051 22.4338 82.2582C22.4338 82.2582 22.0805 82.616 21.5199 82.7618C20.9594 82.9076 20.6845 82.9738 20.6845 83.1726C20.6845 83.3714 20.8808 83.451 21.0902 83.3582C21.2996 83.2654 21.509 83.1594 21.6922 83.1594C21.8755 83.1594 22.2026 83.451 22.2288 83.6498C22.255 83.8486 22.2964 86.3623 22.1568 88.421C22.0172 90.4796 20.5253 95.3282 18.0911 101.036C15.6569 106.744 13.7179 110.455 12.4877 112.606C11.2575 114.758 10.8867 117.285 10.9783 119.217C11.0699 121.15 11.0394 142.636 11.1943 146.627C11.3491 150.619 12.2412 157.106 12.8869 161.314C13.5325 165.522 14.3024 169.205 13.9949 173.008C13.6873 176.812 12.8563 178.778 12.0231 181.49C11.1899 184.203 10.9456 189.35 12.0231 194.337C13.1006 199.325 14.9481 201.26 17.596 201.353C20.2439 201.446 22.5233 199.824 23.2321 199.981C23.941 200.138 24.0304 201.631 25.1865 202.179C26.9009 202.99 30.6983 202.76 31.4224 201.965C32.1466 201.169 32.3821 200.284 32.6635 199.985C32.9449 199.687 33.4138 199.661 34.2121 199.948C35.0105 200.235 38.1339 201.516 40.014 201.454C41.8942 201.393 43.6653 200.547 44.6839 197.832C45.7025 195.117 46.7342 190.366 46.695 186.167C46.6557 181.968 44.5814 177.477 44.1495 174.691C43.7177 171.906 43.698 169.224 44.3349 164.776C44.9718 160.327 45.9577 153.82 46.1213 151.304C46.2849 148.788 46.1628 120.993 46.1628 118.601C46.1628 116.209 45.5673 113.945 44.4375 112.178C43.3076 110.41 40.0446 104.007 38.6072 100.68C37.1698 97.3537 35.5492 93.4462 34.9537 90.9722C34.3583 88.4983 34.3168 83.716 34.3779 83.3626C34.439 83.0092 35.7433 83.5393 35.8764 83.1748C36.0094 82.8104 34.2536 82.6558 34.223 82.3752C34.1925 82.0947 34.367 82.0417 34.511 82.0218C34.6549 82.0019 35.3529 82.0019 35.4249 81.4387C35.4969 80.8754 35.1479 77.1556 35.0563 76.2522C34.9646 75.3487 34.2034 74.2244 32.4389 74.2664C32.1706 74.083 32.1379 73.9881 31.815 73.9903C30.2162 74.0057 24.9945 74.0543 24.7873 74.0543Z" fill="#11A64B"/>
<path d="M30.1796 113.319L30.7641 111.608C30.5962 111.521 30.4304 111.438 30.1796 111.438C29.6779 111.438 29.2591 111.694 28.9254 112.635V111.521H27.837L25.9961 116.655H27.669L28.6724 113.832C29.1741 112.12 30.0945 112.805 30.1774 113.319" fill="white"/>
<path d="M21.2283 115.118C21.8128 113.492 19.6382 112.465 19.9741 111.354C20.057 111.012 20.3078 110.842 20.6437 110.842C21.1454 110.842 21.7321 111.27 21.983 112.211L22.6526 110.329C22.2338 109.901 21.7321 109.73 20.8968 109.73C19.7255 109.73 18.805 110.243 18.3884 111.356C17.8039 113.068 19.8934 114.179 19.5597 115.206C19.3917 115.549 19.1409 115.719 18.8072 115.719C18.3055 115.719 17.6359 115.12 17.3851 114.179L16.6326 116.147C17.0514 116.66 17.721 116.832 18.3884 116.832C19.8105 116.832 20.8139 116.32 21.2327 115.12" fill="white"/>
<path d="M24.5736 111.525H22.9007L20.3923 118.457H22.0653L24.2399 112.466C24.9095 112.466 25.2433 113.065 24.7416 114.348C24.4079 115.203 23.9062 116.06 22.9007 116.745C24.4907 116.745 25.7449 116.146 26.4145 114.264C27.0842 112.296 25.9958 111.525 24.5736 111.525Z" fill="white"/>
<path d="M32.3549 111.611C32.9395 111.611 33.4433 111.099 33.4433 110.498C33.4433 109.897 32.9417 109.385 32.3549 109.385C31.7682 109.385 31.2665 109.897 31.2665 110.498C31.1837 111.097 31.6853 111.611 32.3549 111.611Z" fill="white"/>
<path d="M38.9616 111.438C37.3715 111.438 36.3682 112.465 35.7836 114.09C35.2819 115.46 35.7007 116.743 37.2057 116.743C38.4599 116.743 39.3804 115.972 39.882 115.031C39.3804 115.46 38.7107 115.802 38.2091 115.802C37.4566 115.802 37.2057 114.947 37.5395 114.09C37.9582 112.977 38.4599 112.122 38.8787 112.122C39.4632 112.122 38.9616 113.662 37.5395 114.433C39.0445 114.433 39.882 114.004 40.3008 112.977C40.5517 112.122 39.9671 111.438 38.9616 111.438Z" fill="white"/>
<path d="M36.6205 111.526H35.7L36.2846 109.9H35.4492C34.9475 111.184 33.9442 111.869 32.8558 112.039L32.6049 112.637H33.5254L32.1033 116.66H33.7762L35.1983 112.637H36.1188L36.6205 111.524V111.526Z" fill="white"/>
<path d="M31.0993 111.781L29.3435 116.658H31.0165L32.6065 112.124C32.1049 112.124 31.6032 112.037 31.1015 111.781H31.0993Z" fill="white"/>
<path d="M16.628 133.427V125.385H18.9706V133.341C18.9706 134.625 18.6369 135.652 18.0501 136.42C17.3805 137.191 16.5451 137.534 15.3738 137.534C13.1163 137.534 11.945 136.164 11.7771 133.341H14.0346C14.1175 134.112 14.2026 134.625 14.3683 134.967C14.6192 135.223 14.9529 135.395 15.3717 135.395C16.2071 135.395 16.6258 134.711 16.6258 133.427" fill="white"/>
<path d="M29.8435 125.385H32.101V130.006L35.4469 125.385H37.8724L34.6094 129.92L38.1232 137.194H35.6978L33.1044 131.632L32.1839 132.745V137.194H29.9264L29.8435 125.385Z" fill="white"/>
<path d="M38.6276 125.385H44.9857V127.439H40.8873V130.178H44.7348V132.146H40.8873V135.141H45.2365L44.9857 137.196H38.5447V125.387H38.6276V125.385Z" fill="white"/>
<path d="M27.6676 126.669C26.9151 125.641 25.8266 125.129 24.3216 125.129C22.8166 125.129 21.7282 125.641 20.9757 126.755C20.2232 127.782 19.8044 129.321 19.8044 131.376C19.8044 133.43 20.1382 134.97 20.8928 135.997C21.6453 137.024 22.7338 137.536 24.2388 137.536C25.7438 137.536 26.8322 137.024 27.5847 135.911C28.3372 134.883 28.756 133.344 28.756 131.29C28.756 129.151 28.3372 127.696 27.6676 126.669ZM26.5792 134.541C25.7438 136.679 22.7316 136.679 21.894 134.541L21.2244 133.001H27.1637L26.5792 134.541Z" fill="white"/>
<path d="M22.985 139.072H21.48V146.686H22.985V139.072Z" fill="white"/>
<path d="M23.99 139.072H25.4121L27.6696 144.036V139.072H29.0089V146.686H27.5867L25.3292 141.723V146.686H23.99V139.072Z" fill="white"/>
<path d="M34.6969 144.982H32.6052L32.1864 146.694H30.6814L32.7731 139.08H34.529L36.5357 146.694H35.0306L34.6969 144.982ZM33.6936 140.361L32.9411 143.699H34.4461L33.6936 140.361Z" fill="white"/>
<path d="M13.9514 148.49H16.2089C16.9614 148.49 17.4631 148.66 17.8818 149.003C18.3006 149.345 18.4664 149.858 18.4664 150.458C18.4664 151.229 18.1327 151.742 17.378 152.084C17.7968 152.254 18.1305 152.513 18.3813 152.769C18.6322 153.111 18.7151 153.454 18.7151 153.882C18.7151 154.567 18.4642 155.079 18.0454 155.508C17.6267 155.936 17.0421 156.106 16.2896 156.106H13.947V148.492L13.9514 148.49ZM16.0431 149.687H15.3735V151.569H16.126C16.4597 151.569 16.7106 151.483 16.7956 151.313C16.9636 151.143 17.0465 150.885 17.0465 150.628C17.0465 149.944 16.7127 149.687 16.0431 149.687ZM17.2973 153.794C17.2973 153.451 17.2144 153.195 17.0465 152.939C16.8785 152.769 16.5448 152.683 16.2111 152.683H15.3757V154.907H16.2111C16.8807 154.907 17.2995 154.565 17.2995 153.794" fill="white"/>
<path d="M19.0544 152.339C19.0544 151.055 19.3053 150.028 19.8069 149.344C20.3086 148.659 21.0611 148.316 21.9816 148.316C22.902 148.316 23.6545 148.659 24.1562 149.344C24.6579 150.028 24.9087 150.969 24.9087 152.339C24.9087 153.708 24.6579 154.649 24.1562 155.334C23.6545 156.019 22.902 156.361 21.9816 156.361C21.0611 156.361 20.3086 156.019 19.8069 155.334C19.3053 154.649 19.0544 153.622 19.0544 152.339ZM20.6445 152.339C20.6445 153.28 20.7274 153.965 20.9782 154.393C21.2291 154.822 21.5628 154.992 21.9816 154.992C22.4832 154.992 22.817 154.822 22.9849 154.393C23.2357 153.965 23.3186 153.28 23.3186 152.339C23.3186 151.398 23.2357 150.713 22.9849 150.285C22.7341 149.856 22.4004 149.686 21.9816 149.686C21.4799 149.686 21.1462 149.856 20.9782 150.285C20.7274 150.713 20.6445 151.398 20.6445 152.339Z" fill="white"/>
<path d="M26.4149 149.86H24.7419V148.49H29.6779V149.86H27.9221V156.106H26.4171V149.86H26.4149Z" fill="white"/>
<path d="M31.4344 149.86H29.7615V148.49H34.6975V149.86H32.9416V156.106H31.4366V149.86H31.4344Z" fill="white"/>
<path d="M35.0293 148.49H36.5343V154.737H39.2106L39.0426 156.106H35.0271V148.492L35.0293 148.49Z" fill="white"/>
<path d="M39.6306 148.49H43.8119V149.774H41.1356V151.569H43.644V152.853H41.1356V154.821H43.9799L43.8119 156.104H39.6306V148.49Z" fill="white"/>
<path d="M39.644 116.092C39.7073 116.092 39.7618 116.107 39.8142 116.136C39.8665 116.165 39.9058 116.204 39.9341 116.255C39.9625 116.306 39.9777 116.361 39.9777 116.419C39.9777 116.476 39.9625 116.534 39.9341 116.584C39.9058 116.633 39.8643 116.673 39.8142 116.704C39.764 116.732 39.7073 116.748 39.644 116.748C39.5808 116.748 39.5241 116.732 39.4739 116.704C39.4237 116.675 39.3845 116.635 39.3539 116.584C39.3256 116.534 39.3103 116.478 39.3103 116.419C39.3103 116.359 39.3256 116.304 39.3539 116.255C39.3823 116.204 39.4237 116.165 39.4739 116.136C39.5262 116.107 39.5829 116.092 39.644 116.092ZM39.644 116.682C39.6964 116.682 39.74 116.671 39.7793 116.648C39.8185 116.626 39.8512 116.593 39.873 116.553C39.8949 116.514 39.9058 116.467 39.9058 116.419C39.9058 116.37 39.8949 116.324 39.873 116.284C39.8512 116.244 39.8207 116.213 39.7793 116.191C39.74 116.169 39.6942 116.156 39.644 116.156C39.5939 116.156 39.548 116.167 39.5088 116.191C39.4695 116.213 39.4368 116.244 39.415 116.284C39.3932 116.324 39.3823 116.368 39.3823 116.419C39.3823 116.47 39.3932 116.514 39.415 116.553C39.4368 116.593 39.4673 116.624 39.5066 116.648C39.5459 116.671 39.5917 116.682 39.644 116.682ZM39.7836 116.361C39.7836 116.381 39.7793 116.399 39.7683 116.414C39.7596 116.43 39.7465 116.441 39.7291 116.45L39.8054 116.564H39.7204L39.6527 116.456H39.596V116.564H39.5219V116.269H39.692C39.7204 116.269 39.7422 116.277 39.7596 116.295C39.7771 116.313 39.7858 116.335 39.7858 116.361H39.7836ZM39.596 116.39H39.6767C39.6767 116.39 39.6942 116.388 39.6986 116.383C39.7051 116.377 39.7073 116.37 39.7073 116.361C39.7073 116.352 39.7051 116.346 39.6986 116.341C39.692 116.335 39.6855 116.333 39.6767 116.333H39.596V116.39Z" fill="black"/>
<path d="M19.5646 163.112C19.5646 161.776 18.5285 160.727 17.2089 160.727C15.8893 160.727 14.8533 161.776 14.8533 163.112C14.8533 164.449 15.8893 165.498 17.2089 165.498C18.5285 165.498 19.5646 164.449 19.5646 163.112ZM27.3863 163.112C27.3863 161.776 26.3502 160.727 25.0306 160.727C23.711 160.727 22.6749 161.776 22.6749 163.112C22.6749 164.449 23.711 165.498 25.0306 165.498C26.3502 165.498 27.3863 164.449 27.3863 163.112ZM35.2079 163.112C35.2079 161.776 34.1719 160.727 32.8523 160.727C31.5327 160.727 30.4966 161.776 30.4966 163.112C30.4966 164.449 31.5327 165.498 32.8523 165.498C34.1719 165.498 35.2079 164.449 35.2079 163.112ZM43.0296 163.112C43.0296 161.776 41.9935 160.727 40.6739 160.727C39.3543 160.727 38.3183 161.776 38.3183 163.112C38.3183 164.449 39.3543 165.498 40.6739 165.498C41.9935 165.498 43.0296 164.449 43.0296 163.112ZM19.5646 171.033C19.5646 169.697 18.5285 168.648 17.2089 168.648C15.8893 168.648 14.8533 169.697 14.8533 171.033C14.8533 172.37 15.8893 173.419 17.2089 173.419C18.5285 173.324 19.5646 172.275 19.5646 171.033ZM27.3863 171.033C27.3863 169.697 26.3502 168.648 25.0306 168.648C23.711 168.648 22.6749 169.697 22.6749 171.033C22.6749 172.37 23.711 173.419 25.0306 173.419C26.3502 173.324 27.3863 172.275 27.3863 171.033ZM35.2079 171.033C35.2079 169.697 34.1719 168.648 32.8523 168.648C31.5327 168.648 30.4966 169.697 30.4966 171.033C30.4966 172.37 31.5327 173.419 32.8523 173.419C34.1719 173.324 35.2079 172.275 35.2079 171.033ZM43.0296 171.033C43.0296 169.697 41.9935 168.648 40.6739 168.648C39.3543 168.648 38.3183 169.697 38.3183 171.033C38.3183 172.37 39.3543 173.419 40.6739 173.419C41.9935 173.324 43.0296 172.275 43.0296 171.033ZM19.5646 178.859C19.5646 177.523 18.5285 176.474 17.2089 176.474C15.8893 176.474 14.8533 177.523 14.8533 178.859C14.8533 180.196 15.8893 181.245 17.2089 181.245C18.5285 181.15 19.5646 180.101 19.5646 178.859ZM27.3863 178.859C27.3863 177.523 26.3502 176.474 25.0306 176.474C23.711 176.474 22.6749 177.523 22.6749 178.859C22.6749 180.196 23.711 181.245 25.0306 181.245C26.3502 181.15 27.3863 180.101 27.3863 178.859ZM35.2079 178.859C35.2079 177.523 34.1719 176.474 32.8523 176.474C31.5327 176.474 30.4966 177.523 30.4966 178.859C30.4966 180.196 31.5327 181.245 32.8523 181.245C34.1719 181.15 35.2079 180.101 35.2079 178.859ZM43.0296 178.859C43.0296 177.523 41.9935 176.474 40.6739 176.474C39.3543 176.474 38.3183 177.523 38.3183 178.859C38.3183 180.196 39.3543 181.245 40.6739 181.245C41.9935 181.245 43.0296 180.101 43.0296 178.859ZM19.5646 186.685C19.5646 185.349 18.5285 184.3 17.2089 184.3C15.8893 184.3 14.8533 185.349 14.8533 186.685C14.8533 188.022 15.8893 189.071 17.2089 189.071C18.5285 189.071 19.5646 188.022 19.5646 186.685ZM27.3863 186.685C27.3863 185.349 26.3502 184.3 25.0306 184.3C23.711 184.3 22.6749 185.349 22.6749 186.685C22.6749 188.022 23.711 189.071 25.0306 189.071C26.3502 189.071 27.3863 188.022 27.3863 186.685ZM35.2079 186.685C35.2079 185.349 34.1719 184.3 32.8523 184.3C31.5327 184.3 30.4966 185.349 30.4966 186.685C30.4966 188.022 31.5327 189.071 32.8523 189.071C34.1719 189.071 35.2079 188.022 35.2079 186.685ZM43.0296 186.685C43.0296 185.349 41.9935 184.3 40.6739 184.3C39.3543 184.3 38.3183 185.349 38.3183 186.685C38.3183 188.022 39.3543 189.071 40.6739 189.071C41.9935 189.071 43.0296 188.022 43.0296 186.685Z" fill="#41B766"/>
<path d="M15.3805 144.773C16.3189 144.773 17.0797 144.003 17.0797 143.053C17.0797 142.102 16.3189 141.332 15.3805 141.332C14.4421 141.332 13.6814 142.102 13.6814 143.053C13.6814 144.003 14.4421 144.773 15.3805 144.773Z" fill="#41B766"/>
<path d="M42.2712 144.877C43.2096 144.877 43.9703 144.107 43.9703 143.156C43.9703 142.206 43.2096 141.436 42.2712 141.436C41.3327 141.436 40.572 142.206 40.572 143.156C40.572 144.107 41.3327 144.877 42.2712 144.877Z" fill="#41B766"/>
<path d="M32.0333 17.7539C23.204 17.7539 16.0469 24.9801 16.0469 33.8946C16.0469 42.8091 23.204 50.0353 32.0333 50.0353C40.8627 50.0353 48.0198 42.8091 48.0198 33.8946C48.0198 24.9801 40.8627 17.7539 32.0333 17.7539ZM39.1121 44.3912C32.065 48.467 23.2356 44.739 21.3069 38.2022C21.3069 38.2022 27.0903 39.5858 33.9462 37.5413C40.5932 35.5593 44.5881 31.4565 44.5881 31.4565C44.5881 31.4565 45.9653 40.4272 39.1121 44.3912Z" fill="#FFE200"/>
<path d="M16.7603 47.5089C14.2509 45.339 10.5695 45.522 8.53728 47.9177C6.50508 50.3133 6.89187 54.0142 9.40123 56.1841C11.9106 58.3541 15.592 58.1711 17.6242 55.7754C19.6564 53.3797 19.2696 49.6788 16.7603 47.5089ZM12.6997 56.4071C9.76773 55.7705 8.10822 52.5987 9.05023 50.368C9.05023 50.368 10.3785 52.1612 12.7931 53.2967C15.134 54.3976 17.2047 54.2768 17.2047 54.2768C17.2047 54.2768 15.5511 57.026 12.6997 56.4071Z" fill="#FFE200"/>
<path d="M20.9111 5.71104C17.2634 2.55683 11.8335 2.91549 8.78247 6.51218C5.73147 10.1089 6.21511 15.5812 9.86275 18.7354C13.5104 21.8896 18.9404 21.5309 21.9914 17.9343C25.0424 14.3376 24.5587 8.86526 20.9111 5.71104ZM14.7188 18.9871C10.4126 18.114 8.04082 13.4556 9.48125 10.1293C9.48125 10.1293 11.397 12.7535 14.9291 14.3779C18.3534 15.9528 21.4081 15.7246 21.4081 15.7246C21.4081 15.7246 18.9068 19.836 14.7188 18.9871Z" fill="#FFE200"/>
</svg>
