<svg  viewBox="0 0 116 301" fill="none" xmlns="http://www.w3.org/2000/svg">
<path d="M56.558 301C52.5855 301 46.7123 300.467 41.2781 297.918C39.4169 298.209 37.5909 298.349 35.7429 298.349C35.3478 298.349 34.9484 298.341 34.5489 298.327C26.0332 298.028 18.5447 294.629 12.8822 288.491C8.04935 283.257 4.60357 276.04 2.64145 267.045C-0.141504 254.277 0.0384668 240.161 3.11991 230.207C3.44913 229.137 3.77834 228.124 4.10317 227.129C5.28395 223.505 5.87653 221.683 6.17502 218.024C6.4779 214.343 5.69656 209.557 4.79232 204.019C4.57285 202.671 4.34898 201.298 4.1295 199.897C2.92677 192.135 0.850529 177.681 0.477419 168.096C0.28867 163.239 0.231606 147.728 0.178931 134.044C0.152594 126.907 0.108699 114.962 0.0516352 113.663C-0.369759 104.897 1.80306 95.6821 6.02139 88.3822C8.14153 84.7102 11.6224 78.1324 16.1349 67.636C19.7255 59.297 21.4111 53.8991 22.1353 51.2266C20.441 48.0213 19.5587 44.4594 19.5587 40.7566C19.5587 38.1369 20.002 35.5833 20.8843 33.1485C21.0467 29.8243 21.2794 25.8177 21.5691 23.4974C23.3073 9.55803 34.6235 2.21409 44.6404 1.16181C46.3172 0.774358 48.0379 0.57623 49.7674 0.57623C50.202 0.57623 59.8545 0.488173 63.6997 0.448547H63.8709C66.5178 0.448547 69.0506 0.858012 71.4385 1.66373C82.7547 4.17335 91.0992 13.3709 92.2668 24.7038C92.675 28.64 92.9296 31.7308 93.0525 34.0995C94.4967 38.7797 94.3694 43.8254 92.6618 48.4308C92.337 49.3025 91.9595 50.1567 91.5337 50.98C91.5513 51.0637 91.5601 51.1033 91.5601 51.1077C91.9727 52.8116 93.3773 56.9327 97.6922 66.8258C100.33 72.8709 106.471 84.6354 107.749 86.6122C112.323 93.7008 114.741 102.264 114.741 111.374C114.741 112.188 114.75 114.495 114.759 117.784C114.904 163.697 114.803 175.065 114.609 178.007C114.28 183.026 112.827 192.937 111.55 201.681C111.295 203.411 111.058 205.044 110.839 206.563C109.842 213.454 109.926 216.514 110.422 219.732C110.562 220.441 111.295 222.841 111.651 223.999C113.372 229.63 115.733 237.339 115.817 245.828C115.935 257.958 112.941 270.273 110.338 277.132C105.422 290.085 94.5054 298.081 81.1437 298.521C80.8101 298.53 80.4853 298.539 80.1517 298.539C77.7243 298.539 75.1564 298.248 72.3691 297.649C67.9839 299.868 62.6858 300.991 56.5712 300.991L56.558 301Z" fill="white"/>
<path d="M56.5586 293.951C53.2972 293.951 48.517 293.533 44.2548 291.534C43.6183 291.235 42.9994 290.9 42.398 290.535C40.1199 291.05 37.9207 291.305 35.7435 291.305C35.4231 291.305 35.107 291.301 34.7822 291.287C28.1848 291.058 22.3994 288.434 18.0318 283.706C14.0593 279.404 11.1885 273.293 9.49855 265.54C6.99652 254.07 7.12381 241.02 9.82337 232.294C10.1438 231.259 10.4642 230.277 10.7759 229.317C11.9962 225.566 12.8039 223.087 13.1682 218.601C13.5413 214.057 12.6941 208.879 11.7153 202.883C11.4958 201.549 11.2763 200.197 11.0612 198.814C9.88043 191.202 7.84808 177.056 7.48814 167.823C7.30378 163.094 7.24672 147.649 7.19843 134.018C7.16771 125.397 7.1282 114.685 7.06236 113.324C6.70242 105.875 8.53724 98.0685 12.0928 91.9177C14.3095 88.0829 17.9264 81.2408 22.5793 70.4319C27.8907 58.0951 29.4665 51.209 29.5762 50.1655C29.5806 50.0863 29.585 50.007 29.5938 49.9234C27.6492 47.2993 26.5826 44.1116 26.5826 40.7611C26.5826 38.6433 27.0128 36.5652 27.8424 34.6499C27.9609 32.0654 28.2199 26.9053 28.5359 24.3737C29.7825 14.3704 37.991 8.75238 45.8043 8.12717C47.0904 7.78815 48.4205 7.62085 49.7593 7.62085C50.2333 7.62085 60.101 7.52839 63.7575 7.49316H63.8935C65.8864 7.49316 67.7695 7.81897 69.5341 8.46179C78.1156 10.2009 84.397 16.9285 85.2749 25.426C85.727 29.7936 85.9904 33.0825 86.0738 35.4072C87.3248 38.7974 87.338 42.5618 86.0738 45.9784C85.6217 47.2024 85.0115 48.3648 84.2653 49.4303C84.4146 51.0813 84.5858 52.1953 84.7218 52.7588C85.7797 57.1176 89.8927 66.5485 91.2447 69.6481C93.953 75.8605 100.243 87.964 101.837 90.4384C105.673 96.3866 107.701 103.625 107.701 111.374C107.701 112.193 107.71 114.509 107.719 117.806C107.841 156.926 107.802 174.233 107.587 177.544C107.275 182.286 105.844 192.047 104.584 200.659C104.33 202.394 104.088 204.036 103.869 205.555C102.75 213.313 102.873 217.038 103.469 220.855C103.623 221.837 104.339 224.184 104.918 226.064C106.516 231.281 108.702 238.427 108.772 245.898C108.882 257.046 106.138 268.34 103.75 274.627C99.8174 284.991 91.4861 291.133 80.8898 291.481C80.6352 291.49 80.385 291.494 80.1304 291.494C77.5098 291.494 74.6303 291.058 71.2548 290.134C67.572 292.665 62.6425 293.947 56.5455 293.947L56.5586 293.951Z" fill="#11A64B"/>
<path d="M56.5551 286.905C54.0091 286.905 50.3175 286.601 47.2229 285.148C45.8402 284.501 44.7472 283.664 43.8825 282.797C41.6614 283.545 38.8565 284.254 35.7399 284.254C35.4985 284.254 35.2571 284.254 35.0157 284.241C25.486 283.906 19.209 277.108 16.3558 264.028C14.1303 253.822 14.2005 241.903 16.527 234.374C16.8342 233.375 17.1459 232.424 17.4488 231.495C18.7261 227.576 19.7313 224.477 20.1659 219.171C20.6092 213.769 19.7006 208.195 18.6471 201.741C18.432 200.428 18.2169 199.09 18.0019 197.73C16.843 190.267 14.8502 176.424 14.5078 167.544C14.3278 162.938 14.2708 147.555 14.2225 133.976C14.1874 124.4 14.1522 114.494 14.0776 112.979C13.7835 106.846 15.2716 100.457 18.1687 95.4426C20.4819 91.4448 24.2394 84.3386 29.0283 73.217C34.2343 61.118 36.4247 52.9683 36.5783 50.6745C36.653 49.5649 36.7012 48.385 36.7276 47.2711C34.8225 45.7345 33.6022 43.3834 33.6022 40.7549C33.6022 39.1962 34.0236 37.7301 34.7918 36.4621C34.8006 36.2375 35.1254 28.2816 35.5029 25.2392C36.3106 18.7714 41.9731 15.2272 46.9991 15.1083C47.8682 14.8133 48.7944 14.6548 49.7601 14.6548C50.2868 14.6548 60.4135 14.5623 63.8285 14.5271H63.9382C65.4307 14.5271 66.6378 14.8397 67.5991 15.258C72.7348 16.0989 77.6336 19.8017 78.2876 26.1418C78.9372 32.4599 79.0821 35.4406 79.0821 36.92C79.0865 36.9332 79.0953 36.942 79.0997 36.9552C80.14 38.9849 80.2804 41.3757 79.4859 43.511C79.0382 44.7262 78.2305 45.981 77.0497 46.9761C77.1902 49.6178 77.4536 52.5985 77.8969 54.4125C79.0997 59.3701 83.2521 68.8846 84.8148 72.4641C87.589 78.8219 94.0065 91.2511 95.9423 94.2494C99.0413 99.0529 100.679 104.97 100.679 111.359C100.679 112.178 100.687 114.503 100.696 117.818C100.784 144.931 100.837 173.17 100.578 177.067C100.284 181.531 98.8745 191.16 97.6322 199.654C97.382 201.362 97.1406 203.009 96.9211 204.532C95.6789 213.131 95.8545 217.564 96.5348 221.936C96.7675 223.416 97.4654 225.701 98.2073 228.122C99.7612 233.194 101.693 239.508 101.754 245.958C101.846 255.473 99.5285 265.947 97.1933 272.111C94.2742 279.803 88.4054 284.179 80.6667 284.43C80.4911 284.435 80.3156 284.439 80.1356 284.439C76.8259 284.439 73.0597 283.427 69.5217 282.216C69.3374 282.44 69.1354 282.669 68.9291 282.898C66.4929 285.549 62.3317 286.892 56.5551 286.892V286.905Z" fill="#FFE200"/>
<path d="M49.7657 22.5895C49.2653 22.5895 49.16 23.0386 49.16 23.0386H47.2681C46.2936 23.0386 43.6643 23.699 43.3482 26.2306C43.0322 28.7623 42.7161 36.093 42.6898 36.7799C42.6635 37.4667 42.9532 38.836 45.0294 38.9417C45.0294 38.9417 44.3183 39.6549 43.1902 39.9455C42.0621 40.2361 41.509 40.3682 41.509 40.7644C41.509 41.1607 41.9041 41.3192 42.3255 41.1343C42.7469 40.9494 43.1683 40.738 43.537 40.738C43.9057 40.738 44.5641 41.3192 44.6168 41.7155C44.6695 42.1117 44.7529 47.1221 44.472 51.2256C44.191 55.329 41.1886 64.9933 36.2899 76.3702C31.3912 87.7472 27.4889 95.144 25.0132 99.4324C22.5375 103.721 21.7913 108.758 21.9756 112.61C22.16 116.463 22.0985 159.289 22.4102 167.245C22.7219 175.201 24.5172 188.132 25.8165 196.519C27.1158 204.907 28.6653 212.246 28.0463 219.828C27.4274 227.41 25.755 231.328 24.0782 236.735C22.4014 242.142 21.9098 252.4 24.0782 262.342C26.2466 272.284 29.9646 276.141 35.2935 276.325C40.6223 276.51 45.2094 273.279 46.636 273.591C48.0626 273.904 48.2426 276.88 50.569 277.972C54.0192 279.588 61.6613 279.13 63.1186 277.545C64.576 275.96 65.05 274.195 65.6163 273.6C66.1825 273.006 67.1263 272.953 68.7329 273.525C70.3394 274.098 76.6252 276.651 80.409 276.528C84.1928 276.405 87.757 274.718 89.807 269.307C91.8569 263.896 93.9331 254.426 93.8541 246.056C93.7751 237.686 89.6007 228.735 88.7315 223.183C87.8624 217.631 87.8229 212.286 89.1046 203.419C90.3864 194.551 92.3704 181.581 92.6997 176.566C93.0289 171.551 92.7831 116.15 92.7831 111.382C92.7831 106.613 91.5847 102.1 89.3109 98.5782C87.0372 95.0559 80.4704 82.2921 77.5777 75.6614C74.685 69.0307 71.4236 61.2421 70.2253 56.3109C69.027 51.3797 68.9436 41.8475 69.0665 41.1431C69.1894 40.4386 71.8143 41.4953 72.0821 40.7688C72.3498 40.0424 68.8163 39.7342 68.7548 39.175C68.6934 38.6158 69.0445 38.5102 69.3342 38.4706C69.6239 38.4309 71.0286 38.4309 71.1734 37.3082C71.3183 36.1855 70.616 28.7711 70.4316 26.9703C70.2472 25.1696 68.7153 22.9285 65.1642 23.0122C64.6243 22.6467 64.5584 22.4574 63.9088 22.4618C60.6912 22.4926 50.1827 22.5895 49.7657 22.5895Z" fill="#11A64B"/>
<path d="M60.6159 100.863L61.7923 97.4505C61.4543 97.2788 61.1207 97.1115 60.6159 97.1115C59.6063 97.1115 58.7635 97.6222 58.0919 99.4978V97.2788H55.9015L52.1968 107.511H55.5635L57.5827 101.884C58.5923 98.4719 60.4447 99.8368 60.6115 100.863" fill="white"/>
<path d="M42.5957 104.451C43.772 101.21 39.3957 99.1631 40.0717 96.9485C40.2385 96.2661 40.7433 95.927 41.4193 95.927C42.4289 95.927 43.6096 96.7812 44.1144 98.6568L45.462 94.9056C44.6192 94.0514 43.6096 93.7124 41.9284 93.7124C39.5713 93.7124 37.7189 94.7339 36.8805 96.9529C35.7041 100.365 39.9093 102.58 39.2377 104.627C38.8997 105.31 38.3949 105.649 37.7233 105.649C36.7137 105.649 35.3661 104.455 34.8613 102.58L33.3469 106.503C34.1897 107.524 35.5373 107.868 36.8805 107.868C39.7425 107.868 41.7616 106.846 42.6044 104.455" fill="white"/>
<path d="M49.3315 97.283H45.9647L40.9167 111.099H44.2835L48.6599 99.1586C50.0075 99.1586 50.679 100.352 49.6695 102.91C48.9979 104.614 47.9883 106.322 45.9647 107.687C49.1647 107.687 51.6886 106.494 53.0362 102.742C54.3838 98.8196 52.1934 97.283 49.3315 97.283Z" fill="white"/>
<path d="M64.9877 97.4589C66.1641 97.4589 67.1781 96.4374 67.1781 95.2398C67.1781 94.0423 66.1685 93.0208 64.9877 93.0208C63.8069 93.0208 62.7973 94.0423 62.7973 95.2398C62.6305 96.433 63.6401 97.4589 64.9877 97.4589Z" fill="white"/>
<path d="M78.2883 97.1115C75.0883 97.1115 73.0691 99.1588 71.8927 102.399C70.8832 105.129 71.7259 107.687 74.7547 107.687C77.2787 107.687 79.1311 106.15 80.1407 104.275C79.1311 105.129 77.7835 105.811 76.7739 105.811C75.2595 105.811 74.7547 104.108 75.4263 102.399C76.2691 100.18 77.2787 98.4763 78.1215 98.4763C79.2979 98.4763 78.2883 101.545 75.4263 103.082C78.4551 103.082 80.1407 102.228 80.9835 100.18C81.4883 98.4763 80.3119 97.1115 78.2883 97.1115Z" fill="white"/>
<path d="M73.5756 97.2906H71.7232L72.8996 94.0501H71.2184C70.2088 96.6082 68.1896 97.973 65.9992 98.3121L65.4945 99.5052H67.3468L64.4849 107.523H67.8516L70.7136 99.5052H72.566L73.5756 97.2862V97.2906Z" fill="white"/>
<path d="M62.4694 97.803L58.9358 107.525H62.3026L65.5025 98.4855C64.4929 98.4855 63.4833 98.3138 62.4737 97.803H62.4694Z" fill="white"/>
<path d="M33.3409 140.945V124.915H38.0553V140.774C38.0553 143.332 37.3837 145.379 36.2029 146.911C34.8553 148.448 33.1741 149.13 30.8169 149.13C26.2738 149.13 23.9166 146.401 23.5786 140.774H28.1218C28.2886 142.31 28.4598 143.332 28.7934 144.014C29.2982 144.525 29.9698 144.868 30.8126 144.868C32.4937 144.868 33.3365 143.504 33.3365 140.945" fill="white"/>
<path d="M59.9385 124.915H64.4816V134.125L71.2152 124.915H76.0963L69.5296 133.954L76.6011 148.452H71.72L66.5008 137.366L64.6484 139.585V148.452H60.1053L59.9385 124.915Z" fill="white"/>
<path d="M77.615 124.915H90.4105V129.009H82.1626V134.469H89.9057V138.392H82.1626V144.362H90.9153L90.4105 148.457H77.4482V124.919H77.615V124.915Z" fill="white"/>
<path d="M55.5564 127.474C54.042 125.427 51.8517 124.405 48.8229 124.405C45.7941 124.405 43.6037 125.427 42.0894 127.646C40.575 129.693 39.7322 132.762 39.7322 136.857C39.7322 140.951 40.4038 144.02 41.9225 146.067C43.4369 148.115 45.6273 149.136 48.6561 149.136C51.6849 149.136 53.8752 148.115 55.3896 145.896C56.904 143.848 57.7468 140.78 57.7468 136.685C57.7468 132.423 56.904 129.522 55.5564 127.474ZM53.366 143.166C51.6849 147.428 45.6229 147.428 43.9373 143.166L42.5898 140.097H54.5424L53.366 143.166Z" fill="white"/>
<path d="M46.133 152.198H43.1042V167.375H46.133V152.198Z" fill="white"/>
<path d="M48.1543 152.198H51.0163L55.5594 162.091V152.198H58.2546V167.375H55.3926L50.8495 157.481V167.375H48.1543V152.198Z" fill="white"/>
<path d="M69.7032 163.968H65.4936L64.6508 167.38H61.6221L65.8316 152.203H69.3652L73.4036 167.38H70.3748L69.7032 163.968ZM67.684 154.757L66.1696 161.41H69.1984L67.684 154.757Z" fill="white"/>
<path d="M27.9517 170.968H32.4948C34.0092 170.968 35.0188 171.307 35.8616 171.989C36.7044 172.672 37.038 173.693 37.038 174.891C37.038 176.427 36.3664 177.449 34.8476 178.131C35.6904 178.47 36.362 178.985 36.8668 179.496C37.3716 180.178 37.5384 180.861 37.5384 181.715C37.5384 183.08 37.0336 184.101 36.1908 184.956C35.348 185.81 34.1716 186.149 32.6572 186.149H27.9429V170.972L27.9517 170.968ZM32.1612 173.354H30.8136V177.105H32.328C32.9996 177.105 33.5044 176.934 33.6756 176.594C34.0136 176.255 34.1804 175.74 34.1804 175.23C34.1804 173.865 33.5088 173.354 32.1612 173.354ZM34.6852 181.539C34.6852 180.856 34.5184 180.346 34.1804 179.835C33.8424 179.496 33.1708 179.324 32.4992 179.324H30.818V183.758H32.4992C33.8468 183.758 34.6896 183.075 34.6896 181.539" fill="white"/>
<path d="M38.2256 178.637C38.2256 176.079 38.7304 174.031 39.74 172.666C40.7496 171.302 42.264 170.619 44.1163 170.619C45.9687 170.619 47.4831 171.302 48.4927 172.666C49.5023 174.031 50.0071 175.907 50.0071 178.637C50.0071 181.366 49.5023 183.242 48.4927 184.607C47.4831 185.972 45.9687 186.654 44.1163 186.654C42.264 186.654 40.7496 185.972 39.74 184.607C38.7304 183.242 38.2256 181.195 38.2256 178.637ZM41.4256 178.637C41.4256 180.512 41.5924 181.877 42.0972 182.731C42.6019 183.586 43.2735 183.925 44.1163 183.925C45.1259 183.925 45.7975 183.586 46.1355 182.731C46.6403 181.877 46.8071 180.512 46.8071 178.637C46.8071 176.761 46.6403 175.396 46.1355 174.542C45.6307 173.688 44.9591 173.349 44.1163 173.349C43.1067 173.349 42.4351 173.688 42.0972 174.542C41.5924 175.396 41.4256 176.761 41.4256 178.637Z" fill="white"/>
<path d="M53.0333 173.697H49.6665V170.968H59.6V173.697H56.0664V186.149H53.0377V173.697H53.0333Z" fill="white"/>
<path d="M63.1392 173.697H59.7725V170.968H69.706V173.697H66.1724V186.149H63.1436V173.697H63.1392Z" fill="white"/>
<path d="M70.3757 170.968H73.4045V183.419H78.7904L78.4525 186.149H70.3713V170.972L70.3757 170.968Z" fill="white"/>
<path d="M79.6301 170.968H88.0449V173.526H82.6589V177.105H87.7069V179.663H82.6589V183.586H88.3828L88.0449 186.144H79.6301V170.968Z" fill="white"/>
<path d="M79.6584 106.381C79.7857 106.381 79.8954 106.412 80.0008 106.469C80.1061 106.526 80.1852 106.605 80.2422 106.707C80.2993 106.808 80.33 106.918 80.33 107.033C80.33 107.147 80.2993 107.261 80.2422 107.363C80.1852 107.46 80.1018 107.539 80.0008 107.601C79.8998 107.658 79.7857 107.689 79.6584 107.689C79.5311 107.689 79.417 107.658 79.316 107.601C79.2151 107.543 79.1361 107.464 79.0746 107.363C79.0175 107.261 78.9868 107.151 78.9868 107.033C78.9868 106.914 79.0175 106.804 79.0746 106.707C79.1317 106.605 79.2151 106.526 79.316 106.469C79.4214 106.412 79.5355 106.381 79.6584 106.381ZM79.6584 107.556C79.7638 107.556 79.8516 107.534 79.9306 107.49C80.0096 107.446 80.0754 107.38 80.1193 107.301C80.1632 107.222 80.1852 107.129 80.1852 107.033C80.1852 106.936 80.1632 106.843 80.1193 106.764C80.0754 106.685 80.014 106.623 79.9306 106.579C79.8516 106.535 79.7594 106.509 79.6584 106.509C79.5575 106.509 79.4653 106.531 79.3863 106.579C79.3072 106.623 79.2414 106.685 79.1975 106.764C79.1536 106.843 79.1317 106.931 79.1317 107.033C79.1317 107.134 79.1536 107.222 79.1975 107.301C79.2414 107.38 79.3029 107.442 79.3819 107.49C79.4609 107.534 79.5531 107.556 79.6584 107.556ZM79.9393 106.918C79.9393 106.958 79.9306 106.993 79.9086 107.024C79.8911 107.055 79.8647 107.077 79.8296 107.094L79.9832 107.323H79.812L79.676 107.107H79.5618V107.323H79.4126V106.733H79.755C79.812 106.733 79.8559 106.751 79.8911 106.786C79.9262 106.821 79.9437 106.865 79.9437 106.918H79.9393ZM79.5618 106.975H79.7243C79.7243 106.975 79.7594 106.971 79.7682 106.962C79.7813 106.949 79.7857 106.936 79.7857 106.918C79.7857 106.9 79.7813 106.887 79.7682 106.878C79.755 106.865 79.7418 106.861 79.7243 106.861H79.5618V106.975Z" fill="white"/>
<path d="M39.247 200.1C39.247 197.437 37.162 195.345 34.5063 195.345C31.8506 195.345 29.7656 197.437 29.7656 200.1C29.7656 202.764 31.8506 204.855 34.5063 204.855C37.162 204.855 39.247 202.764 39.247 200.1ZM54.9878 200.1C54.9878 197.437 52.9028 195.345 50.2471 195.345C47.5915 195.345 45.5065 197.437 45.5065 200.1C45.5065 202.764 47.5915 204.855 50.2471 204.855C52.9028 204.855 54.9878 202.764 54.9878 200.1ZM70.7287 200.1C70.7287 197.437 68.6436 195.345 65.988 195.345C63.3323 195.345 61.2473 197.437 61.2473 200.1C61.2473 202.764 63.3323 204.855 65.988 204.855C68.6436 204.855 70.7287 202.764 70.7287 200.1ZM86.4695 200.1C86.4695 197.437 84.3845 195.345 81.7288 195.345C79.0732 195.345 76.9881 197.437 76.9881 200.1C76.9881 202.764 79.0732 204.855 81.7288 204.855C84.3845 204.855 86.4695 202.764 86.4695 200.1ZM39.247 215.889C39.247 213.225 37.162 211.134 34.5063 211.134C31.8506 211.134 29.7656 213.225 29.7656 215.889C29.7656 218.553 31.8506 220.644 34.5063 220.644C37.162 220.455 39.247 218.363 39.247 215.889ZM54.9878 215.889C54.9878 213.225 52.9028 211.134 50.2471 211.134C47.5915 211.134 45.5065 213.225 45.5065 215.889C45.5065 218.553 47.5915 220.644 50.2471 220.644C52.9028 220.455 54.9878 218.363 54.9878 215.889ZM70.7287 215.889C70.7287 213.225 68.6436 211.134 65.988 211.134C63.3323 211.134 61.2473 213.225 61.2473 215.889C61.2473 218.553 63.3323 220.644 65.988 220.644C68.6436 220.455 70.7287 218.363 70.7287 215.889ZM86.4695 215.889C86.4695 213.225 84.3845 211.134 81.7288 211.134C79.0732 211.134 76.9881 213.225 76.9881 215.889C76.9881 218.553 79.0732 220.644 81.7288 220.644C84.3845 220.455 86.4695 218.363 86.4695 215.889ZM39.247 231.488C39.247 228.824 37.162 226.733 34.5063 226.733C31.8506 226.733 29.7656 228.824 29.7656 231.488C29.7656 234.152 31.8506 236.243 34.5063 236.243C37.162 236.054 39.247 233.963 39.247 231.488ZM54.9878 231.488C54.9878 228.824 52.9028 226.733 50.2471 226.733C47.5915 226.733 45.5065 228.824 45.5065 231.488C45.5065 234.152 47.5915 236.243 50.2471 236.243C52.9028 236.054 54.9878 233.963 54.9878 231.488ZM70.7287 231.488C70.7287 228.824 68.6436 226.733 65.988 226.733C63.3323 226.733 61.2473 228.824 61.2473 231.488C61.2473 234.152 63.3323 236.243 65.988 236.243C68.6436 236.054 70.7287 233.963 70.7287 231.488ZM86.4695 231.488C86.4695 228.824 84.3845 226.733 81.7288 226.733C79.0732 226.733 76.9881 228.824 76.9881 231.488C76.9881 234.152 79.0732 236.243 81.7288 236.243C84.3845 236.243 86.4695 233.963 86.4695 231.488ZM39.247 247.087C39.247 244.424 37.162 242.332 34.5063 242.332C31.8506 242.332 29.7656 244.424 29.7656 247.087C29.7656 249.751 31.8506 251.843 34.5063 251.843C37.162 251.843 39.247 249.751 39.247 247.087ZM54.9878 247.087C54.9878 244.424 52.9028 242.332 50.2471 242.332C47.5915 242.332 45.5065 244.424 45.5065 247.087C45.5065 249.751 47.5915 251.843 50.2471 251.843C52.9028 251.843 54.9878 249.751 54.9878 247.087ZM70.7287 247.087C70.7287 244.424 68.6436 242.332 65.988 242.332C63.3323 242.332 61.2473 244.424 61.2473 247.087C61.2473 249.751 63.3323 251.843 65.988 251.843C68.6436 251.843 70.7287 249.751 70.7287 247.087ZM86.4695 247.087C86.4695 244.424 84.3845 242.332 81.7288 242.332C79.0732 242.332 76.9881 244.424 76.9881 247.087C76.9881 249.751 79.0732 251.843 81.7288 251.843C84.3845 251.843 86.4695 249.751 86.4695 247.087Z" fill="#41B766"/>
<path d="M30.8259 163.55C32.7144 163.55 34.2454 162.015 34.2454 160.12C34.2454 158.226 32.7144 156.691 30.8259 156.691C28.9374 156.691 27.4065 158.226 27.4065 160.12C27.4065 162.015 28.9374 163.55 30.8259 163.55Z" fill="#41B766"/>
<path d="M84.9424 163.754C86.8309 163.754 88.3618 162.218 88.3618 160.324C88.3618 158.43 86.8309 156.894 84.9424 156.894C83.0539 156.894 81.5229 158.43 81.5229 160.324C81.5229 162.218 83.0539 163.754 84.9424 163.754Z" fill="#41B766"/>
</svg>
