<svg  viewBox="0 0 43 38" fill="none" xmlns="http://www.w3.org/2000/svg">
<path d="M40.6229 31.802C41.5513 29.9453 41.7042 27.8482 41.7698 25.8058C41.8571 23.2828 42.0428 20.7489 42.0428 18.2259C42.021 15.5281 42.2722 12.8413 42.1083 10.1545C41.9882 8.27587 42.3705 6.25528 41.4312 4.52959C40.5683 3.2954 38.9955 2.89128 37.6084 2.5527C37.1497 2.43256 36.691 2.32334 36.2323 2.20319C32.5188 1.12191 28.6414 0.739636 24.7969 0.368286C20.1441 0.368286 15.5022 0.0733896 10.8603 0.0406234C9.92099 0.0406234 8.97077 -0.0576752 8.03147 0.0515455C7.2997 0.138922 6.7099 0.641337 6.09827 1.02361C5.20266 1.58064 4.71116 2.5527 4.05584 3.33909C3.193 4.56236 1.80589 5.51258 1.57653 7.06352C1.16149 8.6909 1.10688 10.3729 0.99766 12.0331C0.953972 13.7587 0.757375 15.4735 0.713687 17.2101C0.5717 20.6178 0.833829 24.0146 0.953972 27.4113C1.12873 29.4101 1.17241 31.4743 1.98065 33.3311C2.27554 34.0301 2.90902 34.467 3.48789 34.893C4.50365 35.6138 5.78153 35.7667 6.93927 36.1927C8.61034 36.7825 10.3797 36.8699 12.1273 37.0774C13.9731 37.3067 15.8408 37.274 17.6866 37.4924C19.2375 37.6781 20.8103 37.6781 22.3831 37.7545C26.2713 38.0713 30.236 38.1914 34.1025 37.4269C34.8998 37.2849 35.7954 37.2958 36.4616 36.7715C37.4992 35.9852 38.2747 34.9257 39.0502 33.8881C39.5307 33.1454 40.2625 32.5993 40.6448 31.7911L40.6229 31.802ZM38.1327 32.8615C36.123 33.5277 33.9605 33.4622 31.8744 33.484C27.582 33.4294 23.2896 33.6806 18.9972 33.5605C16.1357 33.5059 13.2631 33.5168 10.4343 32.9816C8.71956 32.6758 6.83005 32.4136 5.53032 31.1248C5.03883 30.688 4.875 30.0217 4.78762 29.3882C4.62379 28.1759 4.61287 26.9526 4.59102 25.7403C4.59102 22.6493 4.23059 19.5693 4.30705 16.4783C4.37258 12.8304 4.37258 9.12779 5.29003 5.55627C5.63954 4.19101 5.9672 2.69469 7.0048 1.66801C7.48537 1.11099 8.26084 1.07822 8.93801 1.03453C13.3724 0.925311 17.8177 0.848857 22.2302 1.31851C25.3648 1.66801 28.5431 1.72262 31.6559 2.27965C33.8949 2.60731 36.0466 3.32817 38.2419 3.88519C39.1157 4.14732 40.0331 4.55144 40.5574 5.32691C41.038 6.35358 41.0707 7.53316 41.0598 8.64722C41.0598 10.3183 41.2564 11.9894 41.18 13.6604C41.0598 16.7842 41.1472 19.9079 40.9397 23.0207C40.7868 25.216 40.8632 27.455 40.3499 29.6067C40.0113 30.8627 39.5198 32.3918 38.1436 32.8287L38.1327 32.8615Z" fill="#1F1D1E"/>
<path d="M30.4542 13.8453C29.0453 12.7313 27.538 11.7483 26.0526 10.7653C23.7918 9.23622 21.4872 7.75081 19.0188 6.57123C18.4837 6.27633 17.8611 6.18896 17.2495 6.16711C17.0965 7.33578 17.315 8.51536 17.0747 9.6731C16.6269 12.065 16.8781 14.5007 16.747 16.9144C16.6378 18.9787 16.5068 21.0321 16.3102 23.0854C16.2228 24.1448 16.0917 25.2152 16.19 26.2856C16.2555 26.8098 16.4085 27.4105 16.9218 27.6508C17.6863 27.7382 18.4181 27.3559 19.0953 27.061C20.679 26.2419 22.1207 25.1715 23.6279 24.2322C26.5441 22.3645 29.4822 20.5187 32.1035 18.2578C32.5622 17.81 33.2394 17.2312 33.01 16.5212C32.584 15.287 31.4154 14.599 30.4433 13.8453H30.4542ZM30.771 18.1377C29.9627 17.1656 28.8378 16.5649 27.8766 15.7676C27.1449 15.1669 26.2929 14.73 25.583 14.1075C23.8136 12.5784 21.7821 11.4316 19.9363 10.0226C19.2373 9.52019 18.4509 9.13792 17.6863 8.76657C17.7082 8.24231 17.7082 7.70713 17.7191 7.18287C21.4108 9.20345 24.9495 11.5189 28.4555 13.8344C29.7115 14.8065 31.1642 15.571 32.1362 16.8598C31.7103 17.3185 31.2406 17.7336 30.771 18.1377Z" fill="#FFE200"/>
<path d="M20.6687 33.1759C21.324 32.6079 21.8592 31.8652 22.0776 31.0133C21.5425 31.6796 21.0401 32.4004 20.6687 33.1759Z" fill="#1F1D1E"/>
<path d="M19.6638 32.4723C20.1553 32.2648 20.5704 31.8934 20.8652 31.4347C20.341 31.5985 19.9478 32.0026 19.6638 32.4723Z" fill="#1F1D1E"/>
<path d="M6.66528 28.5711C6.96018 27.9376 7.18954 27.2823 7.45167 26.6379C7.67011 26.0481 7.97593 25.4583 7.87763 24.8139C7.37522 26.0263 6.74174 27.2386 6.66528 28.5711Z" fill="#1F1D1E"/>
<path d="M6.60242 24.2919H6.48228C6.75533 23.5492 7.18129 22.8502 7.35605 22.0748C6.50412 22.9922 6.1437 24.2592 5.79419 25.4388C6.03448 25.3405 6.10001 24.2592 6.41675 24.6415C6.41675 25.3732 5.95802 26.0395 5.9471 26.7822C6.50412 25.5043 7.35605 24.281 7.4325 22.8612C7.09392 23.298 7.10484 24.0517 6.61334 24.2919H6.60242Z" fill="#1F1D1E"/>
<path d="M5.35645 16.1169C6.09915 14.8609 6.90738 13.6157 7.39887 12.2286C6.51418 13.3864 5.80425 14.7189 5.35645 16.1169Z" fill="#1F1D1E"/>
<path d="M7.95691 9.38422C7.08315 10.5966 6.36229 11.9181 5.90356 13.3489C6.66811 12.082 7.59649 10.8478 7.95691 9.38422Z" fill="#1F1D1E"/>
<path d="M5.96851 11.4565C6.77674 10.1131 7.71604 8.8352 8.31675 7.38257C7.12625 8.43109 6.46 9.98202 5.96851 11.4565Z" fill="#1F1D1E"/>
<path d="M7.73464 5.85198C7.1667 6.78036 6.65336 7.77427 6.36938 8.84463C7.10116 7.56675 7.92032 6.33255 8.5538 5.00006C8.22614 5.22942 7.94216 5.5134 7.73464 5.8629V5.85198Z" fill="#1F1D1E"/>
</svg>
