<svg viewBox="0 0 13 13" fill="none" xmlns="http://www.w3.org/2000/svg">
<path d="M6.64785 7.65929C6.5055 7.601 6.34166 7.63322 6.23275 7.74096L5.47094 8.4942C5.32219 8.64129 5.32219 8.87973 5.47094 9.02684C5.6197 9.17395 5.86087 9.17392 6.00963 9.02681L6.1212 8.91652V10.267C6.1212 10.475 6.29175 10.6436 6.50212 10.6436C6.71249 10.6436 6.88304 10.475 6.88304 10.267V8.00727C6.88301 7.85492 6.79018 7.71758 6.64785 7.65929Z" fill="white"/>
<path d="M12.6206 9.13751H9.16712V6.50112C9.16712 6.29312 8.99658 6.12451 8.78621 6.12451H4.21536C4.00499 6.12451 3.83444 6.29314 3.83444 6.50112V8.38426H0.380917C0.170547 8.38426 0 8.55289 0 8.76087V12.5522C0 12.7602 0.170547 12.9289 0.380917 12.9289H12.6206C12.831 12.9289 13.0016 12.7602 13.0016 12.5522V9.51412C13.0016 9.30614 12.831 9.13751 12.6206 9.13751ZM3.83444 12.1756H0.761808V9.13751H3.83444V12.1756ZM8.40532 12.1756H4.59625V6.87774H8.40529V12.1756H8.40532ZM12.2398 12.1756H9.16712V9.89076H12.2398V12.1756Z" fill="white"/>
<path d="M8.94394 1.91923L7.50324 1.69339L6.86997 0.29357C6.73755 0.000808738 6.3178 -0.00356083 6.17847 0.285208L5.51131 1.66798L4.06552 1.85687C3.75328 1.89766 3.62314 2.27608 3.84603 2.49654L4.88163 3.5208L4.61538 4.94501C4.55811 5.2513 4.88185 5.4905 5.16281 5.34907L6.46803 4.69172L7.75565 5.38219C8.03274 5.53081 8.36268 5.29975 8.31346 4.99227L8.08452 3.56173L9.14656 2.56427C9.37501 2.34976 9.25529 1.96805 8.94394 1.91923ZM7.41471 3.15197C7.32381 3.23733 7.28121 3.36149 7.30082 3.48391L7.44043 4.35627L6.65523 3.93521C6.54511 3.87614 6.41256 3.87436 6.30076 3.93066L5.50481 4.33151L5.66718 3.46304C5.68996 3.34117 5.65065 3.21599 5.56201 3.12829L4.93049 2.50367L5.81604 2.38798C5.94384 2.37128 6.05442 2.29182 6.10994 2.17676L6.51115 1.34513L6.89212 2.18718C6.94469 2.30335 7.05304 2.38544 7.18018 2.40538L8.0624 2.54367L7.41471 3.15197Z" fill="white"/>
</svg>
