<svg width="103" height="109" viewBox="0 0 103 109" fill="none" xmlns="http://www.w3.org/2000/svg">
<path d="M74.8984 26.7142L12.4332 65.374L3.2168 48.6339L65.8823 9.974L74.8984 26.7142Z" stroke="#11A64B" stroke-width="4.62303" stroke-miterlimit="10" stroke-linecap="round" stroke-linejoin="round"/>
<path d="M34.6505 29.3036L21.9055 20.7884C19.17 18.9606 15.6074 18.7692 12.6209 20.6176C8.30845 23.2864 6.83102 29.1975 9.32085 33.8202C11.8105 38.4428 17.3245 40.0268 21.637 37.3578" stroke="#0DA042" stroke-width="4.62303" stroke-miterlimit="10" stroke-linecap="round" stroke-linejoin="round"/>
<path d="M34.6505 29.3057L34.1438 13.0013C34.0346 9.54811 35.6615 6.14497 38.6481 4.2966C42.9603 1.62756 48.4743 3.21154 50.9642 7.83419C53.454 12.4568 51.9764 18.5827 47.6641 21.2515" stroke="#0DA042" stroke-width="4.62303" stroke-miterlimit="10" stroke-linecap="round" stroke-linejoin="round"/>
<path d="M29.5856 54.7641H81.5582V106.525H21.4512V59.7985" stroke="#2F2F2F" stroke-width="4.62303" stroke-miterlimit="10" stroke-linecap="round" stroke-linejoin="round"/>
<path d="M57.5126 54.7561V86.9727L51.5019 80.5293L45.4912 86.9727V54.7561" stroke="#2F2F2F" stroke-width="4.62303" stroke-miterlimit="10" stroke-linecap="round" stroke-linejoin="round"/>
<path d="M93.7744 72.4142V85.3008" stroke="#2F2F2F" stroke-width="4.62303" stroke-miterlimit="10" stroke-linecap="round" stroke-linejoin="round"/>
<path d="M87.7666 78.8525H99.788" stroke="#2F2F2F" stroke-width="4.62303" stroke-miterlimit="10" stroke-linecap="round" stroke-linejoin="round"/>
</svg>
