<svg width="34" height="113" viewBox="0 0 34 113" fill="none" xmlns="http://www.w3.org/2000/svg">
<path d="M33.9033 67.3735V41.1726C33.9033 33.4994 31.2741 26.0136 26.2036 20.212C25.0768 18.7148 24.5134 17.0304 24.5134 15.3461V11.2289C25.6402 11.2289 26.3913 10.4804 26.3913 9.3575V5.61446C26.3913 2.43286 23.95 0 20.7574 0H13.2457C10.0531 0 7.6118 2.43286 7.6118 5.61446V9.3575C7.6118 10.4804 8.36292 11.2289 9.48969 11.2289V15.3461C9.48969 17.0304 8.9263 18.7148 7.79953 20.212C2.72904 26.0136 0.099831 33.4997 0.099831 41.1726V67.3735C0.099831 68.4964 0.287553 69.9936 0.663218 72.0521C1.2266 75.2337 1.97771 79.7253 1.97771 84.2168C1.97771 87.9599 1.41433 90.7671 1.03866 93.5743C0.475274 96.0072 0.0996094 98.253 0.0996094 101.06C0.0996094 105.365 2.91655 110.979 7.04798 112.102C8.17475 112.476 10.4283 112.663 12.6819 110.418L12.8696 110.605C13.9963 111.728 15.3108 112.289 17.001 112.289C18.6912 112.289 20.0057 111.728 21.1324 110.605L21.3202 110.418C22.8226 111.915 24.5128 112.289 25.6395 112.289C26.2029 112.289 26.5786 112.289 27.142 112.102C31.0857 110.979 33.9026 105.365 33.9026 101.06C33.9026 98.253 33.3392 96.0072 32.9636 93.5743C32.5879 90.7671 32.0245 87.9599 32.0245 84.2168C32.0245 79.5382 32.7756 75.2337 33.339 72.0521C33.7153 69.9936 33.9033 68.4964 33.9033 67.3735ZM3.85582 43.0442H30.1473V65.5021H3.85582V43.0442ZM11.3678 5.61446C11.3678 4.49156 12.1189 3.74304 13.2457 3.74304H20.7574C21.8842 3.74304 22.6353 4.49156 22.6353 5.61446V7.48587H11.3676L11.3678 5.61446ZM10.6167 22.4578C12.3068 20.5864 13.2459 17.9663 13.2459 15.3461V11.2289H20.7577V15.3461C20.7577 17.9663 21.6967 20.5862 23.3869 22.4578C27.3306 27.3238 29.7719 33.1253 30.1475 39.3012H3.85582C4.23148 33.1253 6.67275 27.3238 10.6167 22.4578ZM26.0159 108.546C24.5134 109.108 23.0112 107.049 22.2599 105.739C21.8842 104.99 20.9454 104.616 20.194 104.803C19.4427 104.99 18.8795 105.739 18.8795 106.674C18.8795 107.236 18.6918 107.797 18.5039 107.984C18.1282 108.359 17.5648 108.546 17.0014 108.546C16.4381 108.546 15.8747 108.359 15.499 107.984C15.3113 107.797 15.1233 107.236 15.1233 106.674C15.1233 105.739 14.56 104.99 13.8088 104.803C13.0577 104.616 12.1187 104.99 11.743 105.739C10.9919 106.862 9.48947 108.92 7.98703 108.546C5.9212 107.985 3.8556 104.055 3.8556 101.06C3.8556 98.6273 4.23126 96.5686 4.60671 94.1358C5.17009 91.5156 5.73348 88.3343 5.73348 84.2168C5.73348 79.3509 4.98237 74.8593 4.41898 71.4907C4.23126 70.7421 4.23126 69.9934 4.04332 69.2449H29.9591C29.7714 69.9934 29.7714 70.7421 29.5835 71.4907C29.0201 74.8593 28.269 79.3509 28.269 84.2168C28.269 88.334 28.8324 91.5156 29.3957 94.1358C29.7714 96.5686 30.1469 98.6273 30.1469 101.06C30.1473 104.055 27.8937 107.985 26.0159 108.546Z" fill="#2F2F2F"/>
<path d="M17.0031 44.9131C11.7449 44.9131 7.61328 49.0303 7.61328 54.2706C7.61328 59.5109 11.7447 63.6281 17.0031 63.6281C22.2616 63.6281 26.393 59.5109 26.393 54.2706C26.393 49.0303 22.2613 44.9131 17.0031 44.9131ZM17.0031 59.885C13.8105 59.885 11.3693 57.4522 11.3693 54.2706C11.3693 51.089 13.8105 48.6561 17.0031 48.6561C20.1957 48.6561 22.637 51.089 22.637 54.2706C22.637 57.4522 20.1955 59.885 17.0031 59.885Z" fill="#11A64B"/>
</svg>
