<svg width="69" height="113" viewBox="0 0 69 113" fill="none" xmlns="http://www.w3.org/2000/svg">
<path d="M34.4041 67.5678V41.2914C34.4041 33.5961 31.7673 26.0886 26.6822 20.2703C25.5522 18.7688 24.9872 17.0796 24.9872 15.3904V11.2613C26.1172 11.2613 26.8704 10.5106 26.8704 9.38449V5.63065C26.8704 2.43987 24.4221 0 21.2203 0H13.6869C10.4851 0 8.03679 2.43987 8.03679 5.63065V9.38449C8.03679 10.5106 8.79007 11.2613 9.92009 11.2613V15.3904C9.92009 17.0796 9.35508 18.7688 8.22506 20.2703C3.13995 26.0886 0.503152 33.5963 0.503152 41.2914V67.5678C0.503152 68.6939 0.691415 70.1955 1.06816 72.2599C1.63318 75.4507 2.38645 79.9552 2.38645 84.4597C2.38645 88.2136 1.82144 91.0289 1.44469 93.8442C0.879678 96.2841 0.50293 98.5364 0.50293 101.352C0.50293 105.669 3.32799 111.299 7.47134 112.425C8.60136 112.801 10.8614 112.988 13.1215 110.736L13.3097 110.924C14.4397 112.05 15.758 112.613 17.4531 112.613C19.1481 112.613 20.4664 112.05 21.5964 110.924L21.7847 110.736C23.2915 112.238 24.9865 112.613 26.1165 112.613C26.6815 112.613 27.0583 112.613 27.6233 112.425C31.5784 111.299 34.4034 105.669 34.4034 101.352C34.4034 98.5364 33.8384 96.2841 33.4617 93.8442C33.0849 91.0289 32.5199 88.2136 32.5199 84.4597C32.5199 79.7676 33.2732 75.4507 33.8382 72.2599C34.2156 70.1955 34.4041 68.6939 34.4041 67.5678ZM4.26997 43.1684H30.6373V65.691H4.26997V43.1684ZM11.8036 5.63065C11.8036 4.50452 12.5569 3.75384 13.6869 3.75384H21.2203C22.3504 3.75384 23.1036 4.50452 23.1036 5.63065V7.50746H11.8034L11.8036 5.63065ZM11.0503 22.5226C12.7454 20.6458 13.6871 18.0181 13.6871 15.3904V11.2613H21.2206V15.3904C21.2206 18.0181 22.1623 20.6456 23.8574 22.5226C27.8124 27.4026 30.2607 33.2208 30.6375 39.4145H4.26997C4.64672 33.2208 7.09503 27.4026 11.0503 22.5226ZM26.4939 108.859C24.9872 109.422 23.4806 107.358 22.7271 106.044C22.3504 105.293 21.4088 104.918 20.6553 105.105C19.9018 105.293 19.337 106.044 19.337 106.982C19.337 107.545 19.1488 108.108 18.9603 108.296C18.5835 108.671 18.0185 108.859 17.4535 108.859C16.8885 108.859 16.3235 108.671 15.9467 108.296C15.7585 108.108 15.57 107.545 15.57 106.982C15.57 106.044 15.005 105.293 14.2517 105.105C13.4984 104.918 12.5567 105.293 12.1799 106.044C11.4266 107.17 9.91987 109.235 8.4131 108.859C6.34131 108.296 4.26975 104.355 4.26975 101.352C4.26975 98.9118 4.6465 96.8472 5.02303 94.4073C5.58804 91.7796 6.15305 88.589 6.15305 84.4597C6.15305 79.5798 5.39977 75.0752 4.83476 71.6969C4.6465 70.9462 4.6465 70.1953 4.45801 69.4446H30.4486C30.2603 70.1953 30.2603 70.9462 30.0718 71.6969C29.5068 75.0752 28.7535 79.5798 28.7535 84.4597C28.7535 88.5888 29.3185 91.7796 29.8836 94.4073C30.2603 96.8472 30.6368 98.9118 30.6368 101.352C30.6373 104.355 28.3772 108.296 26.4939 108.859Z" fill="#2F2F2F"/>
<path d="M17.4541 45.041C12.1807 45.041 8.03711 49.1701 8.03711 54.4255C8.03711 59.6809 12.1805 63.81 17.4541 63.81C22.7276 63.81 26.871 59.6809 26.871 54.4255C26.871 49.1701 22.7274 45.041 17.4541 45.041ZM17.4541 60.0561C14.2522 60.0561 11.8039 57.6163 11.8039 54.4255C11.8039 51.2347 14.2522 48.7949 17.4541 48.7949C20.6559 48.7949 23.1042 51.2347 23.1042 54.4255C23.1042 57.6163 20.6556 60.0561 17.4541 60.0561Z" fill="#11A64B"/>
<rect x="31.4121" y="40.1816" width="37.0909" height="27.8182" fill="#2F2F2F"/>
<path d="M40.2414 51.5571H40.4368C41.8881 51.5571 43.0688 50.303 43.0688 48.7616V48.2436H41.509V48.7616C41.509 49.3895 41.028 49.9004 40.4368 49.9004H40.2414C39.6502 49.9004 39.1692 49.3895 39.1692 48.7616V46.0689C39.1692 45.441 39.6502 44.9302 40.2414 44.9302H40.4368C41.028 44.9302 41.509 45.441 41.509 46.0689V46.5869H43.0688V46.0689C43.0688 44.5275 41.8881 43.2734 40.4368 43.2734H40.2414C38.7901 43.2734 37.6094 44.5275 37.6094 46.0689V48.7616C37.6094 50.303 38.7901 51.5571 40.2414 51.5571Z" fill="white"/>
<path d="M47.2561 51.5571H47.4514C48.9027 51.5571 50.0835 50.303 50.0835 48.7616V46.0689C50.0835 44.5275 48.9027 43.2734 47.4514 43.2734H47.2561C45.8048 43.2734 44.624 44.5275 44.624 46.0689V48.7616C44.624 50.303 45.8048 51.5571 47.2561 51.5571ZM46.1839 46.0689C46.1839 45.441 46.6649 44.9302 47.2561 44.9302H47.4514C48.0426 44.9302 48.5236 45.441 48.5236 46.0689V48.7616C48.5236 49.3895 48.0426 49.9004 47.4514 49.9004H47.2561C46.6649 49.9004 46.1839 49.3895 46.1839 48.7616V46.0689Z" fill="white"/>
<path d="M57.1108 48.7616V46.0689C57.1108 44.5275 55.9301 43.2734 54.4788 43.2734H51.6514V51.5571H54.4788C55.9301 51.5571 57.1108 50.303 57.1108 48.7616ZM53.2112 44.9302H54.4788C55.07 44.9302 55.551 45.441 55.551 46.0689V48.7616C55.551 49.3895 55.07 49.9004 54.4788 49.9004H53.2112V44.9302Z" fill="white"/>
<path d="M64.1255 44.9302V43.2734H58.666V51.5571H64.1255V49.9004H60.2259V48.2436H63.0856V46.5869H60.2259V44.9302H64.1255Z" fill="white"/>
<path d="M42.4406 55.7002L40.8253 57.3155L39.2099 55.7002L37.5947 57.3154L39.21 58.9308L37.5947 60.5461L39.2099 62.1614L40.8253 60.5461L42.4406 62.1614L44.0559 60.5461L42.4406 58.9308L44.0559 57.3154L42.4406 55.7002Z" fill="white"/>
<path d="M52.136 55.7002L50.5206 57.3155L48.9053 55.7002L47.29 57.3154L48.9053 58.9308L47.29 60.5461L48.9053 62.1614L50.5206 60.5461L52.136 62.1614L53.7512 60.5461L52.1359 58.9308L53.7512 57.3154L52.136 55.7002Z" fill="white"/>
<path d="M62.9055 55.7002L61.2902 57.3155L59.6749 55.7002L58.0596 57.3154L59.6749 58.9308L58.0596 60.5461L59.6749 62.1614L61.2902 60.5461L62.9055 62.1614L64.5207 60.5461L62.9054 58.9308L64.5207 57.3154L62.9055 55.7002Z" fill="white"/>
</svg>
