<svg width="105" height="110" viewBox="0 0 105 110" fill="none" xmlns="http://www.w3.org/2000/svg">
<path d="M54.336 77.2129C33.6407 77.2129 22.2432 87.7079 22.2432 106.765C22.2432 108.253 23.3685 109.46 24.7569 109.46H83.9149C85.3034 109.46 86.4287 108.253 86.4287 106.765C86.4288 87.7089 75.0313 77.2129 54.336 77.2129ZM27.3622 104.07C28.351 89.8216 37.4131 82.6024 54.336 82.6024C71.2589 82.6024 80.3212 89.8216 81.3107 104.07H27.3622Z" fill="#2F2F2F"/>
<path d="M54.333 35.625C44.8266 35.625 37.6582 43.464 37.6582 53.8584C37.6582 64.5574 45.1385 73.2604 54.333 73.2604C63.5275 73.2604 71.0078 64.5574 71.0078 53.8593C71.0078 43.464 63.8394 35.625 54.333 35.625ZM54.333 67.8719C47.9103 67.8719 42.6858 61.5859 42.6858 53.8593C42.6858 46.4165 47.5843 41.0144 54.333 41.0144C60.9737 41.0144 65.9802 46.5359 65.9802 53.8593C65.9802 61.5859 60.7557 67.8719 54.333 67.8719Z" fill="#2F2F2F"/>
<path d="M12.4368 55.4762C19.277 55.4762 24.7646 49.9175 24.7646 43.1481C24.7646 36.3787 19.2061 30.8213 12.4368 30.8213C5.66757 30.8213 0.10907 36.3799 0.10907 43.1494C0.0381479 49.9188 5.59539 55.4774 12.4368 55.4774V55.4762ZM12.4368 33.3859C17.7813 33.3859 22.1987 37.7326 22.1987 43.1481C22.1987 48.5636 17.8522 52.9103 12.4368 52.9103C7.02142 52.9103 2.67492 48.5649 2.67492 43.1494C2.67492 37.7338 7.02142 33.3859 12.4368 33.3859Z" fill="#11A64B"/>
<path d="M9.87159 48.7085C10.0443 48.8493 10.217 48.8493 10.3886 48.8493C10.5603 48.8493 10.734 48.7795 10.9057 48.7085L17.6896 44.012C18.035 43.8015 18.2067 43.3817 18.2067 42.8909C18.2067 42.4 17.9768 41.9802 17.6896 41.7697L10.9057 37.1442C10.5603 36.9337 10.1587 36.9337 9.87056 37.1442C9.52518 37.3548 9.35352 37.7746 9.35352 38.2654V47.5873C9.35352 48.0782 9.52621 48.498 9.87056 48.7085H9.87159ZM11.481 40.5078L15.0451 42.9606L11.481 45.4135V40.5078Z" fill="#11A64B"/>
<path fill-rule="evenodd" clip-rule="evenodd" d="M92.8389 45.2012C93.6329 45.2012 94.2765 44.5112 94.2765 43.6602C94.2765 42.8091 93.6329 42.1191 92.8389 42.1191C92.045 42.1191 91.4014 42.8091 91.4014 43.6602C91.4014 44.5112 92.045 45.2012 92.8389 45.2012ZM92.3597 43.6602C92.3597 43.3764 92.5743 43.1465 92.8389 43.1465C93.1036 43.1465 93.3181 43.3764 93.3181 43.6602C93.3181 43.9439 93.1036 44.1738 92.8389 44.1738C92.5743 44.1738 92.3597 43.9439 92.3597 43.6602Z" fill="#11A64B"/>
<path fill-rule="evenodd" clip-rule="evenodd" d="M90.4457 40.0664C89.9164 40.0664 89.4873 40.5264 89.4873 41.0937V48.2851C89.4873 48.8525 89.9164 49.3125 90.4457 49.3125H98.1126C98.6419 49.3125 99.0709 48.8525 99.0709 48.2851V41.0937C99.0709 40.5264 98.6419 40.0664 98.1126 40.0664H90.4457ZM98.1126 41.0937H90.4457V48.2851H90.5142L93.0173 46.0897C93.188 45.94 93.4319 45.9345 93.6083 46.0763L94.2534 46.595L96.1171 44.8192C96.2897 44.6547 96.5473 44.6456 96.7296 44.7976L98.1126 45.9507V41.0937ZM98.1126 48.2851H92.0276L93.3336 47.1397L93.9916 47.6687C94.1739 47.8153 94.4272 47.804 94.5975 47.6417L96.4559 45.8709L98.1126 47.2522V48.2851Z" fill="#11A64B"/>
<path d="M94.1106 55.4754C100.096 55.4754 104.897 50.6116 104.897 44.6883C104.897 38.7651 100.034 33.9023 94.1106 33.9023C88.1875 33.9023 83.3238 38.7662 83.3238 44.6894C83.2618 50.6127 88.1244 55.4765 94.1106 55.4765V55.4754ZM94.1106 36.1464C98.787 36.1464 102.652 39.9497 102.652 44.6883C102.652 49.4269 98.8491 53.2302 94.1106 53.2302C89.3721 53.2302 85.569 49.428 85.569 44.6894C85.569 39.9508 89.3721 36.1464 94.1106 36.1464Z" fill="#11A64B"/>
<path d="M55.5843 24.6549C62.4244 24.6549 67.912 19.0962 67.912 12.3268C67.912 5.55739 62.3535 0 55.5843 0C48.815 0 43.2565 5.55865 43.2565 12.3281C43.1856 19.0975 48.7428 24.6562 55.5843 24.6562V24.6549ZM55.5843 2.56466C60.9287 2.56466 65.3462 6.91127 65.3462 12.3268C65.3462 17.7424 60.9997 22.089 55.5843 22.089C50.1689 22.089 45.8224 17.7436 45.8224 12.3281C45.8224 6.91254 50.1689 2.56466 55.5843 2.56466Z" fill="#11A64B"/>
<path d="M55.2194 7.15039C54.9068 7.15039 54.5943 7.2643 54.3505 7.47872L51.6064 9.83066H50.5188C49.5687 9.83066 48.7998 10.6548 48.7998 11.6733V14.3536C48.7998 15.3721 49.5687 16.1963 50.5188 16.1963H51.6064L54.3505 18.5482C54.5943 18.756 54.9068 18.8766 55.2194 18.8766C55.9882 18.8766 56.6133 18.2065 56.6133 17.3823V8.64464C56.6133 7.82046 55.9882 7.15039 55.2194 7.15039ZM49.7374 14.3536V11.6733C49.7374 11.211 50.0875 10.8358 50.5188 10.8358H51.3001V15.1912H50.5188C50.0875 15.1912 49.7374 14.816 49.7374 14.3536ZM55.6757 17.3823C55.6757 17.6504 55.4694 17.8715 55.2194 17.8715C55.1131 17.8715 55.0131 17.8313 54.9318 17.7643L52.2377 15.4525V10.5744L54.9318 8.2627C55.0131 8.1957 55.1131 8.15549 55.2194 8.15549C55.4694 8.15549 55.6757 8.37661 55.6757 8.64464V17.3823Z" fill="#11A64B"/>
<path d="M58.3559 10.897C58.1808 10.6893 57.8871 10.6758 57.6933 10.8635C57.4995 11.0511 57.487 11.366 57.662 11.5737C57.9933 11.9691 58.1808 12.485 58.1808 13.0211C58.1808 13.5906 57.9746 14.1334 57.6058 14.5421C57.4245 14.7432 57.4307 15.0581 57.6183 15.2524C57.712 15.3462 57.8245 15.3931 57.9433 15.3931C58.0621 15.3931 58.1871 15.3395 58.2809 15.239C58.8247 14.6427 59.1185 13.852 59.1185 13.0211C59.1185 12.2371 58.8497 11.4866 58.3621 10.9037L58.3559 10.897Z" fill="#11A64B"/>
<path d="M59.7725 9.58425C59.5974 9.37653 59.3037 9.35643 59.1099 9.54405C58.9161 9.73167 58.9036 10.0466 59.0724 10.2543C59.7037 11.0048 60.0475 11.9898 60.0475 13.015C60.0475 14.0402 59.6912 15.052 59.0411 15.8159C58.8661 16.0236 58.8786 16.3385 59.0724 16.5262C59.1599 16.6133 59.2724 16.6602 59.3912 16.6602C59.5162 16.6602 59.6475 16.6066 59.735 16.4994C60.5413 15.5479 60.9914 14.3149 60.9914 13.015C60.9914 11.7151 60.5601 10.5223 59.7787 9.58425H59.7725Z" fill="#11A64B"/>
<path d="M89.4873 29.2792C86.4053 23.1152 78.7002 16.9512 70.9952 15.4102" stroke="#2F2F2F" stroke-width="3.69842"/>
<path d="M21.6826 29.2792C24.7646 23.1152 32.4697 16.9512 40.1747 15.4102" stroke="#2F2F2F" stroke-width="3.69842"/>
</svg>
