<svg  viewBox="0 0 70 69" fill="none" xmlns="http://www.w3.org/2000/svg">
<g clip-path="url(#clip0_30900_9908)">
<path fill-rule="evenodd" clip-rule="evenodd" d="M0.166504 34.5C0.166504 25.35 3.80131 16.5748 10.2713 10.1048C16.7413 3.63481 25.5165 0 34.6665 0C43.8165 0 52.5917 3.63481 59.0617 10.1048C65.5317 16.5748 69.1665 25.35 69.1665 34.5C69.1665 43.65 65.5317 52.4252 59.0617 58.8952C52.5917 65.3652 43.8165 69 34.6665 69C25.5165 69 16.7413 65.3652 10.2713 58.8952C3.80131 52.4252 0.166504 43.65 0.166504 34.5ZM32.6977 49.266L52.5605 24.4352L48.9725 21.5648L32.0353 42.7294L20.0385 32.7336L17.0945 36.2664L32.6977 49.266Z" fill="#009233"/>
</g>
<defs>
<clipPath id="clip0_30900_9908">
<rect width="69" height="69" fill="white" transform="translate(0.166504)"/>
</clipPath>
</defs>
</svg>
