<svg  viewBox="0 0 40 40" fill="none" xmlns="http://www.w3.org/2000/svg">
<g clip-path="url(#clip0_28913_14155)">
<path fill-rule="evenodd" clip-rule="evenodd" d="M38.3586 13.4522C39.518 15.8984 39.6913 18.6893 39.3339 21.3402L39.3447 21.351C39.2688 21.7929 39.1496 22.2347 38.9221 22.6227C38.3073 22.873 37.6705 23.0605 37.0337 23.2479C36.492 23.4073 35.9504 23.5668 35.4224 23.7649C35.5651 24.0432 35.7389 24.3187 35.9143 24.5966C36.418 25.3948 36.9348 26.2137 36.766 27.1809C36.7077 27.4869 36.6519 27.7933 36.5962 28.0996C36.3928 29.2175 36.1899 30.3332 35.8667 31.4159C35.6875 32.0661 35.0494 32.2893 34.4662 32.4932C34.344 32.536 34.2242 32.5779 34.1114 32.6228C33.5463 32.7953 33.0043 33.0224 32.4631 33.2492C31.9562 33.4616 31.4499 33.6737 30.926 33.8405C30.1891 34.1098 29.5607 33.4633 29.2248 32.8921C28.3581 31.3727 27.7946 29.7024 27.307 28.0215C26.2885 28.3878 25.3025 28.8296 24.3166 29.2822C24.4495 29.6153 24.6048 29.9472 24.7608 30.2807C25.2663 31.3612 25.7804 32.4602 25.5735 33.6788C25.5113 34.0908 25.503 34.5257 25.4947 34.964C25.4769 35.9017 25.4589 36.8553 24.9125 37.6336C23.8615 38.4956 22.7022 39.2501 21.4995 39.875C21.0877 40.1444 20.6219 39.9396 20.351 39.6056C19.3837 38.6266 18.7092 37.4514 18.0342 36.2753C17.4238 35.2116 16.8128 34.1473 15.9846 33.2262C14.1968 34.3901 12.344 35.5107 10.3504 36.2865C9.12045 35.4195 8.5169 34.0463 7.92097 32.6904C7.68741 32.159 7.45502 31.6302 7.18655 31.1356C6.58112 30.2023 7.22553 29.2596 7.76326 28.4731C7.80293 28.415 7.84202 28.3578 7.87999 28.3016C8.67052 27.9332 9.40464 27.4611 10.1399 26.9881C10.8457 26.5342 11.5526 26.0795 12.3115 25.7153C11.9893 25.1753 11.6828 24.6195 11.3786 24.0681C11.3248 23.9704 11.271 23.873 11.2172 23.7756C10.1182 24.1562 9.10585 24.7269 8.09364 25.2973C6.87044 25.9869 5.64744 26.6762 4.27195 27.0301C3.51767 27.105 3.08338 26.4702 2.69776 25.9064C2.64023 25.8223 2.58378 25.7398 2.52752 25.6615C2.29615 25.2948 2.02928 24.9508 1.76289 24.6074C1.29329 24.0019 0.825182 23.3984 0.555566 22.6765C0.367852 21.8401 0.690068 21.0555 1.01018 20.276C1.15199 19.9307 1.29339 19.5863 1.38986 19.2389C1.50735 18.4299 2.21287 18.0258 2.87756 17.6451C3.00974 17.5695 3.1403 17.4947 3.26431 17.4178C4.64034 16.6312 6.01638 15.8553 7.42493 15.144C7.18288 14.5192 6.82487 13.9498 6.46856 13.3833C5.99545 12.631 5.52537 11.8835 5.33378 11.0169C5.45635 10.2466 5.81961 9.56182 6.18337 8.87609C6.527 8.22832 6.87109 7.57968 7.0132 6.85731C7.04229 6.83838 7.07139 6.81943 7.10051 6.80049C8.82815 5.67595 10.6015 4.52165 12.6474 4.04477C13.3155 5.73551 14.3335 7.23582 15.3511 8.73536C15.6371 9.15686 15.923 9.57831 16.2013 10.0039C16.4796 9.8342 16.7803 9.67191 17.0788 9.51088C17.1403 9.47761 17.2019 9.44443 17.2631 9.41123C17.2 9.26554 17.1355 9.12011 17.0707 8.97458C16.724 8.19437 16.3758 7.41098 16.2662 6.56635C16.3289 5.95203 16.5913 5.39655 16.8516 4.84523C16.9064 4.72925 16.9612 4.61347 17.0138 4.49736C17.3714 3.72148 17.8482 2.88096 18.7366 2.62233C20.0585 2.15896 21.3912 1.72793 22.7239 1.29689C23.1681 1.10292 23.8615 1.11369 23.9807 1.68481C24.7284 3.74304 25.671 5.72582 26.6895 7.66551C26.8707 7.53422 27.0517 7.40265 27.2327 7.27111C28.1656 6.59294 29.0972 5.9158 30.0591 5.28401C30.6876 4.87452 31.4569 4.52969 32.2261 4.76677C32.6336 4.92717 32.7949 5.32568 32.95 5.70839C32.9927 5.81417 33.0351 5.91877 33.0821 6.01678C33.2059 6.36639 33.3365 6.71702 33.4677 7.06909C34.1853 8.99588 34.9188 10.9654 34.6532 13.0428C34.6358 13.1305 34.621 13.2258 34.6056 13.3247C34.5247 13.8445 34.4283 14.4639 33.873 14.6268C32.8932 14.9364 31.9212 15.2579 30.9501 15.5793C30.3321 15.7838 29.7143 15.9881 29.0948 16.1893C29.3006 16.7172 29.5173 17.2452 29.7339 17.7731C31.5211 16.3845 33.5162 15.3064 35.506 14.2307C35.8325 14.0542 36.1589 13.8778 36.4842 13.7001C36.5896 13.6585 36.6998 13.6079 36.8131 13.5559C37.3167 13.3245 37.881 13.0651 38.3586 13.4522ZM17.7669 5.29616C17.5713 5.69846 17.3748 6.10222 17.1981 6.51248C17.4689 7.32068 17.7614 8.1181 18.0757 8.91553C18.4549 8.72155 18.8233 8.53837 19.2024 8.35518C18.715 7.24524 18.314 6.10298 17.9348 4.94995C17.8793 5.06531 17.8231 5.18068 17.7669 5.29616ZM7.4791 8.53837C7.09987 9.3358 6.72065 10.144 6.3631 10.963H6.37394C6.59048 11.3035 6.81415 11.6401 7.03789 11.9768C7.64253 12.8867 8.24768 13.7975 8.71428 14.7885C8.79553 14.7292 8.92284 14.6402 9.05014 14.5514C9.17746 14.4625 9.30477 14.3736 9.38604 14.3143C9.54542 12.5795 8.75696 11.0463 7.98442 9.54394C7.81159 9.20783 7.63955 8.87328 7.4791 8.53837ZM12.3182 22.5234C12.262 22.6423 12.2057 22.7616 12.149 22.8812V22.892C12.6257 23.6463 12.8749 24.4869 12.9833 25.3813C13.3233 25.1833 13.657 24.9979 13.9941 24.8107C14.0973 24.7533 14.2009 24.6959 14.3051 24.6377C14.2195 24.4018 14.1355 24.1653 14.0518 23.9292C13.7221 23.0004 13.3935 22.0743 12.9616 21.1895C12.7389 21.6322 12.5298 22.0752 12.3182 22.5234ZM8.49031 31.6122C8.92198 32.5456 9.35429 33.4802 9.89528 34.3577C9.9278 34.056 9.98197 33.4309 10.0036 33.1292C9.48665 31.807 8.81556 30.536 8.15043 29.2762L8.09669 29.1744C8.08225 29.2434 8.06627 29.3132 8.05013 29.3839C7.94521 29.8428 7.83374 30.3303 8.09669 30.7693C8.22981 31.0491 8.36004 31.3307 8.49031 31.6122ZM21.5362 38.5115C22.4067 37.9376 23.2865 37.3573 24.1758 36.8147V36.8255C24.2164 36.5698 24.2484 36.3183 24.2801 36.071C24.2991 35.9223 24.3179 35.775 24.3383 35.6292C24.0421 35.7981 23.7472 35.9681 23.4522 36.1382C22.8622 36.4782 22.2724 36.8182 21.6729 37.1487C21.6368 37.3139 21.5995 37.4779 21.5621 37.6421C21.4875 37.9701 21.4128 38.2982 21.3478 38.6358C21.4106 38.5944 21.4733 38.553 21.5362 38.5115ZM32.9235 31.9569C33.5858 31.6984 34.2488 31.4396 34.924 31.2112V31.2004C35.0107 30.7693 35.0781 30.3382 35.1455 29.9072C35.1793 29.6916 35.2129 29.4761 35.2491 29.2606C34.8729 29.4668 34.5065 29.7245 34.1379 29.9839C33.1579 30.6731 32.162 31.3736 30.926 31.1464C30.8801 31.2718 30.8343 31.3961 30.7887 31.5199C30.6186 31.9816 30.4513 32.4355 30.2975 32.9029C31.1886 32.6339 32.0554 32.2956 32.9235 31.9569ZM19.8712 21.8554C19.8719 21.8565 19.8726 21.8577 19.8735 21.8588H19.8626C19.8654 21.8577 19.8684 21.8565 19.8712 21.8554ZM19.8712 21.8554C20.4651 21.6138 21.0588 21.3764 21.6554 21.1379C22.0137 20.9947 22.373 20.8509 22.7339 20.7058C22.2246 20.0701 21.7803 19.3804 21.3578 18.6907C20.3501 18.7122 19.375 19.0355 18.4433 19.4019C18.8868 20.2304 19.352 21.0482 19.8712 21.8554Z" fill="#1F1D1E"/>
<path d="M38.5939 19.1737C38.6481 17.6651 38.3989 16.1779 37.9329 14.7447C35.1809 16.1671 32.548 17.8698 29.5142 18.6888C28.7991 17.1155 27.8998 15.6391 27.4122 13.9688C29.4275 12.902 31.3995 11.7275 33.5448 10.93C33.0572 9.36752 32.5914 7.79422 32.028 6.25325C30.1535 7.38474 28.3766 8.67786 26.5563 9.89554C25.0503 7.72957 24.1942 5.17565 23.295 2.72949C21.9839 3.12821 20.6729 3.48382 19.3727 3.90409C19.752 5.34806 20.2286 6.79205 20.9655 8.10673C21.4097 8.67786 21.1496 9.55072 20.5213 9.87399C19.1126 10.6714 17.6824 11.4473 16.1764 12.0939C14.497 10.3697 13.5327 8.1175 12.3625 6.04851C11.2357 6.54421 10.1305 7.08301 9.05784 7.69724C9.71877 9.14123 10.3039 10.6499 10.6506 12.2123C10.9106 13.484 11.4957 14.8418 10.8348 16.0917C8.20188 16.7706 5.9157 18.2685 3.49951 19.4431C3.99792 20.5315 4.48549 21.6199 5.12475 22.6328C7.6818 21.3182 10.228 19.2706 13.2618 19.5725C14.5728 20.8008 15.1362 22.5573 15.743 24.1954C16.0355 24.788 15.8188 25.5746 15.1904 25.8656C13.2509 26.8893 11.1707 27.6976 9.44789 29.0768C10.0113 30.1114 10.6072 31.1351 11.2465 32.1265C12.5142 31.2105 13.8035 30.3269 15.2663 29.7449C16.0681 29.4433 16.8373 28.8721 17.7475 28.9583C18.5926 29.6372 19.0043 30.6825 19.6219 31.5554C20.4996 32.7839 20.8463 34.2709 21.6156 35.5532C22.6341 34.9498 23.7392 34.4864 24.6818 33.7537C25.1478 33.1286 24.7793 32.2989 24.5301 31.6523C23.7608 30.0144 23.1107 28.3225 22.244 26.7169C24.7035 25.5315 27.2063 24.163 29.9909 23.9799C30.4786 25.8979 30.8036 27.9239 31.9954 29.5834C33.3281 28.8075 34.7909 28.1824 35.9177 27.1264C35.9393 27.0079 35.9827 26.7492 36.0044 26.62C35.2351 24.7342 34.0216 23.0531 33.0789 21.2534C34.8884 20.4668 36.8278 20.0681 38.5939 19.1629V19.1737ZM25.3536 21.1888C24.5518 21.8462 23.5441 22.1694 22.6124 22.6005C21.7348 22.9345 20.8787 23.4195 19.947 23.5919C19.0694 22.9129 18.6143 21.8677 18.0834 20.9302C17.5849 19.8849 16.924 18.9043 16.6315 17.7728C16.4365 16.9538 17.3357 16.5336 17.9317 16.1995C19.1452 15.6176 20.3478 14.971 21.648 14.5723C22.1465 14.3676 22.5907 14.6693 23.0241 14.8956C24.7252 14.928 25.3102 16.7167 25.6678 18.0745C25.7978 19.0983 25.9711 20.2836 25.3428 21.178L25.3536 21.1888Z" fill="#11A64B"/>
</g>
<defs>
<clipPath id="clip0_28913_14155">
<rect width="39" height="40" fill="white" transform="translate(0.5)"/>
</clipPath>
</defs>
</svg>
