<svg  viewBox="0 0 29 27" fill="none" xmlns="http://www.w3.org/2000/svg">
<path d="M20.7559 22.0856C16.9815 24.2626 11.8205 24.3859 7.91264 22.4162C7.67821 22.3002 7.39832 22.2973 7.1611 22.4081L2.6588 24.513L4.64088 20.8065C4.79189 20.5241 4.7427 20.1841 4.51698 19.9493C2.66378 18.022 1.6432 15.5772 1.6432 13.0651C1.6432 12.6408 1.27534 12.2969 0.821598 12.2969C0.367857 12.2969 0 12.6408 0 13.0651C0 15.7853 1.03532 18.4328 2.92659 20.5766L0.0867607 25.8872C-0.0713695 26.1829 -0.00936621 26.5402 0.240673 26.774C0.470118 26.9885 0.847779 27.0774 1.18907 26.9179L7.52507 23.9558C11.8774 25.9906 17.4689 25.7831 21.6057 23.4006C21.9941 23.1812 22.1187 22.7089 21.884 22.3458C21.6493 21.9827 21.1444 21.8661 20.7559 22.0856Z" fill="black"/>
<path d="M27.2938 13.2569C26.8426 13.2199 26.4431 13.5319 26.4031 13.9545C26.2705 15.3581 25.829 16.7043 25.0906 17.9558C24.8714 18.3273 25.0159 18.7946 25.4132 18.9995C25.8105 19.2045 26.3103 19.0694 26.5294 18.6979C27.3789 17.2581 27.8871 15.7076 28.0399 14.0897C28.0798 13.6671 27.7458 13.2942 27.2938 13.2569Z" fill="black"/>
<path d="M7.63556 3.86776C11.5173 1.77875 16.7396 1.80641 20.5913 3.94115C21.0273 4.17792 21.5144 3.98458 21.7144 3.66264C21.9423 3.29574 21.8089 2.82558 21.4165 2.61253C19.2057 1.41195 16.6565 0.777344 14.0446 0.777344C11.4968 0.777344 9.00144 1.38327 6.82821 2.52956C6.43302 2.73801 6.29335 3.20657 6.51633 3.57614C6.73926 3.94571 7.24038 4.07625 7.63556 3.86776Z" fill="black"/>
<path d="M3.04394 7.25129H3.10233V11.4202C3.14275 12.4384 4.70548 12.4376 4.74552 11.4202V7.25129H4.80397C5.89291 7.2135 5.89209 5.75228 4.80397 5.71484H3.04394C1.95499 5.75264 1.95582 7.21386 3.04394 7.25129Z" fill="black"/>
<path d="M25.4815 12.0718C25.8663 11.8469 25.9833 11.373 25.7428 11.0132L24.3649 8.95177L25.7428 6.89036C25.9833 6.53058 25.8663 6.05663 25.4815 5.83175C25.0966 5.60681 24.5899 5.71626 24.3494 6.07604L23.6676 7.09604V6.4832C23.6272 5.465 22.0645 5.46577 22.0244 6.4832V11.4203C22.0648 12.4385 23.6276 12.4378 23.6676 11.4203V10.8075L24.3494 11.8275C24.5211 12.0844 25.0012 12.3524 25.4815 12.0718Z" fill="black"/>
<path d="M20.3936 12.168C20.7644 12.0861 21.0264 11.7766 21.0264 11.4203V6.48315C20.986 5.46494 19.4233 5.46571 19.3832 6.48315V8.16602L18.2996 6.1396C18.1292 5.82094 17.7467 5.65362 17.376 5.73546C17.0051 5.8173 16.7432 6.12685 16.7432 6.48315V11.4203C16.7836 12.4385 18.3463 12.4377 18.3864 11.4203V9.7374L19.47 11.7639C19.5457 11.9055 19.8528 12.2873 20.3936 12.168Z" fill="black"/>
<path d="M7.00421 12.1875C7.45796 12.1875 7.82581 11.8435 7.82581 11.4192V9.7189H8.82268V11.4192C8.86311 12.4374 10.4258 12.4367 10.4659 11.4192V6.48212C10.4255 5.46391 8.86272 5.46468 8.82268 6.48212V8.18245H7.82581V6.48212C7.78539 5.46391 6.22266 5.46468 6.18262 6.48212V11.4192C6.18262 11.8435 6.55047 12.1875 7.00421 12.1875Z" fill="black"/>
<path d="M22.4056 13.9414C21.9518 13.9414 21.584 14.2854 21.584 14.7096V16.7668C21.6244 17.785 23.1871 17.7842 23.2272 16.7668V14.7096C23.2272 14.2854 22.8593 13.9414 22.4056 13.9414Z" fill="black"/>
<path d="M22.4056 18.4688C21.9518 18.4688 21.584 18.8127 21.584 19.237V19.6484C21.6244 20.6666 23.1871 20.6659 23.2272 19.6484V19.237C23.2272 18.8127 22.8593 18.4688 22.4056 18.4688Z" fill="black"/>
<path d="M16.6849 13.9414C16.2311 13.9414 15.8633 14.2854 15.8633 14.7096V18.4125C15.9713 21.0661 20.0396 21.0641 20.1465 18.4125V14.7096C20.1061 13.6914 18.5434 13.6922 18.5033 14.7096V18.4125C18.4799 19.0295 17.5298 19.0291 17.5065 18.4125V14.7096C17.5065 14.2854 17.1387 13.9414 16.6849 13.9414Z" fill="black"/>
<path d="M12.7246 13.9414C11.5437 13.9414 10.583 14.8397 10.583 15.9439V18.4125C10.691 21.0661 14.7593 21.0641 14.8663 18.4125V15.9439C14.8662 14.8397 13.9055 13.9414 12.7246 13.9414ZM13.223 18.4125C13.1995 19.0295 12.2494 19.029 12.2261 18.4125V15.9439C12.2496 15.327 13.1997 15.3274 13.223 15.9439V18.4125Z" fill="black"/>
<path d="M5.00037 15.1358L6.62243 17.4109V19.6468C6.66285 20.665 8.22558 20.6642 8.26562 19.6468V17.4109L9.88768 15.1358C10.1394 14.7828 10.0373 14.3058 9.65976 14.0705C9.28227 13.8352 8.77217 13.9306 8.52043 14.2836L7.44402 15.7934L6.36762 14.2836C6.11589 13.9305 5.60567 13.8352 5.22829 14.0705C4.85068 14.3059 4.74869 14.7829 5.00037 15.1358Z" fill="black"/>
<path d="M15.7462 11.4189V7.71603C15.6381 5.06238 11.5699 5.06443 11.4629 7.71603V11.4189C11.5033 12.4371 13.066 12.4363 13.1061 11.4189V10.3357H14.103V11.4189C14.1433 12.4371 15.7061 12.4363 15.7462 11.4189ZM14.103 8.79923H13.1061V7.71603C13.1296 7.09905 14.0797 7.09951 14.103 7.71603V8.79923Z" fill="black"/>
</svg>
