<svg  viewBox="0 0 13 24" fill="none" xmlns="http://www.w3.org/2000/svg">
<path d="M0.0175005 2.4507C0.0731038 3.25516 0.0397418 4.06496 0.0508625 4.86943C0.0619831 5.64193 0.267715 6.22264 1.14069 6.37181C1.40202 6.40378 1.6856 6.52098 1.59663 6.81933C1.45763 7.24021 0.651378 6.86728 0.206552 7.432C-0.0714648 7.78895 0.0953451 8.56678 0.0953451 9.0143C0.150948 9.73353 0.0397418 10.4687 0.162069 11.1826C0.278836 11.7314 0.695861 11.9658 1.24077 12.0297C1.46319 12.067 1.82461 12.0457 1.85241 12.3068C1.85241 12.4879 1.58551 12.5039 1.43539 12.4879C0.328879 12.392 0.356681 13.2178 0.367801 14.0222C0.362241 14.7255 0.473448 15.4287 0.601335 16.116C0.712542 16.9045 0.907154 17.0963 1.76345 17.1176C1.98586 17.1176 2.23051 17.0536 2.39732 17.2348C2.69202 17.5917 2.85883 17.629 3.3259 17.7249C3.87081 17.8368 4.44352 17.8528 4.99956 17.8528C5.3443 17.8528 5.46107 18.0126 5.45551 18.3216C5.45551 18.6253 5.45551 18.9343 5.45551 19.238C5.45551 19.6748 5.48331 20.1117 5.49443 20.5486C5.51667 21.1932 5.42214 21.8378 5.33874 22.4771C5.2887 22.8501 5.23865 23.2283 5.24421 23.6066C5.24421 23.6972 5.25533 23.8037 5.28314 23.8836C5.29982 23.9316 5.32762 23.9635 5.36654 23.9902C5.43326 24.0222 5.52223 23.9742 5.59451 23.873C5.639 23.809 5.67792 23.7345 5.70016 23.6492C5.79469 23.3509 5.85585 23.0365 5.89477 22.7222C5.96706 21.987 5.92257 21.2518 5.93369 20.5113C5.93369 19.7761 5.95594 19.0355 5.83361 18.311C5.78357 18.0499 5.83361 17.8634 6.13387 17.8688C6.26731 17.8688 6.40632 17.9274 6.43968 18.0606C6.52865 18.3003 6.35628 18.7585 6.58981 18.9716C6.68434 19.0515 6.82335 19.1208 6.85115 18.9396C6.90675 18.6839 6.84003 18.3642 6.87895 18.1192C6.94567 17.8155 7.05132 18.0179 7.0402 18.2151C6.93455 19.2167 6.92343 20.2236 6.93455 21.2252C6.91787 21.694 6.87339 22.1681 6.88451 22.637C6.89007 23.0099 6.89007 23.3935 7.01796 23.7451C7.18477 24.0701 7.3349 23.6865 7.34602 23.4947C7.4183 23.0206 7.42386 22.5358 7.3905 22.0563C7.35158 21.2891 7.32934 20.5113 7.38494 19.7441C7.42386 19.2433 7.40162 18.7425 7.41274 18.2417C7.42386 17.938 7.6296 17.8475 7.91317 17.8528C8.58041 17.8368 10.1651 17.8848 10.6377 17.4532C10.6989 17.3999 10.7489 17.3307 10.7823 17.2561C10.888 17.0643 10.8824 16.7819 11.0881 16.6701C11.2271 16.5955 11.4106 16.6221 11.5663 16.6168C11.8221 16.6168 12.1001 16.5369 12.2669 16.3504C12.3948 16.2172 12.4615 16.0414 12.506 15.8656C12.6617 15.2689 12.5227 14.6509 12.5616 14.0436C12.5727 13.6014 12.6506 13.1538 12.6005 12.7117C12.5672 12.408 12.3392 12.1629 12.0223 12.1203C11.8443 12.0883 11.6442 12.1203 11.5218 12.083C11.3661 12.0351 11.3828 11.8805 11.4996 11.8006C11.7164 11.6461 12.1501 11.6994 12.3892 11.5502C12.6673 11.4117 12.6839 11.0867 12.6951 10.8204C12.7173 10.4634 12.7451 10.1118 12.7507 9.75484C12.7562 9.25937 12.7785 8.7639 12.8118 8.26844C12.8341 7.87419 12.873 7.41602 12.6117 7.08571C12.456 6.88326 12.1779 6.80335 11.9222 6.76073C11.6497 6.71278 11.5051 6.45705 11.8165 6.33452C12.2892 6.21198 12.873 6.29722 12.9397 5.67922C12.9898 4.80017 12.9119 3.91579 12.9842 3.03673C12.9898 2.57323 13.0843 1.91794 12.7618 1.55033C12.3392 1.10281 11.8499 1.38518 11.5997 1.18273C11.4662 1.04954 11.4885 0.847089 11.4162 0.676605C11.3105 0.404898 11.0214 0.314328 10.7434 0.234414C10.2152 0.0692588 9.65356 0.138518 9.10864 0.0905692C8.70274 0.079914 8.29683 0.0372932 7.89093 0.0213104C7.12917 0 6.35628 0 5.58339 0C4.80495 0.0106552 4.03206 0.0586036 3.25361 0.11188C2.96448 0.13319 2.67534 0.175811 2.39176 0.218432C2.14155 0.255725 1.85241 0.324984 1.77457 0.580709C1.69116 0.863071 1.81349 1.20404 1.40758 1.26264C0.51237 1.32124 -0.0937062 1.38518 0.0119401 2.44004V2.4507H0.0175005ZM10.8101 0.884382C10.9324 0.996261 10.8713 1.25731 10.8657 1.4278C10.8435 1.75278 10.8268 2.08309 10.8157 2.40808C10.8045 3.34573 10.8268 4.28872 10.7545 5.22638C10.71 7.65043 10.5988 10.0692 10.4153 12.4879C10.3264 13.676 10.2374 14.8693 10.0928 16.0521C10.0428 16.3184 10.1262 16.6594 9.96494 16.8832C9.86485 16.995 9.69248 17.0004 9.54235 17.0004C8.79727 17.0004 8.05218 16.995 7.31266 17.0004C6.06158 16.9737 4.81051 16.9311 3.56499 16.8086C3.06456 16.7606 3.17021 16.1853 3.10349 15.839C3.0034 15.0292 2.9478 14.2194 2.86995 13.4042C2.71982 11.3957 2.59193 9.3819 2.52521 7.36807C2.47517 5.67389 2.39732 3.97972 2.40844 2.28554C2.28056 0.633985 2.40844 1.13478 4.15995 0.927003C5.56115 0.820451 6.96236 0.735209 8.36356 0.772502C8.96408 0.761847 9.56459 0.772502 10.1651 0.815123C10.3708 0.836433 10.6433 0.772502 10.8045 0.884382H10.8101ZM1.60776 7.53323C1.75788 7.65043 1.69116 8.01271 1.7134 8.19918C1.72452 8.60408 1.78013 9.00897 1.77457 9.41387C1.77457 9.68025 1.80237 9.9413 1.81349 10.2077C1.82461 10.4954 1.83017 10.7884 1.85241 11.0761C1.86353 11.2625 1.83573 11.4597 1.6022 11.4757C1.37978 11.4863 1.11845 11.4384 0.962757 11.2839C0.723663 11.0335 0.734783 10.6445 0.729223 10.3196C0.757025 9.54173 0.523491 8.75858 0.656939 7.98075C0.718102 7.69838 0.984998 7.58118 1.26302 7.5279C1.36866 7.50126 1.52435 7.47995 1.6022 7.53856L1.60776 7.53323ZM1.55215 5.79643C1.40758 5.91364 1.16849 5.81774 1.0128 5.70586C0.695861 5.46079 0.67918 5.02393 0.67362 4.66165C0.67362 4.13955 0.545732 3.63875 0.523491 3.12197C0.523491 2.83428 0.501249 2.52528 0.529051 2.23759C0.573534 1.93392 0.84043 1.84335 1.13513 1.79007C1.31862 1.75811 1.59663 1.72082 1.6578 1.93925C1.67448 1.99785 1.68004 2.07244 1.67448 2.1417C1.64112 3.22853 1.66336 4.31536 1.6578 5.40219C1.6578 5.53005 1.6578 5.70586 1.56327 5.7911L1.55215 5.79643ZM0.890473 13.596C0.879352 13.2657 1.05728 13.0153 1.4187 12.978C1.56883 12.9567 1.73008 12.978 1.83573 13.042C1.96362 13.1219 1.99698 13.2764 2.01366 13.4202C2.04146 13.7132 2.06926 14.0116 2.09706 14.3153C2.13599 14.8693 2.23051 15.4287 2.22495 15.9881C2.21383 16.084 2.19159 16.1586 2.12487 16.2119C1.99142 16.3184 1.69672 16.3238 1.51323 16.2811C1.27414 16.2172 1.24633 15.9721 1.19629 15.7484C1.10177 15.3062 1.02948 14.8587 0.990559 14.4112C0.962757 14.1341 0.901593 13.8624 0.896033 13.596V13.5907L0.890473 13.596ZM11.6164 12.5731C12.0556 12.5625 12.3225 12.8182 12.278 13.2444C12.2447 13.6653 12.1057 14.0649 12.0667 14.4857C12.0334 14.8107 12.0445 15.141 12.0056 15.466C11.9722 15.775 11.8054 15.9988 11.4662 16.0308C11.127 16.068 10.988 15.9135 11.027 15.5992C11.0826 14.8906 11.1604 14.1714 11.2271 13.4628C11.2383 13.319 11.2438 13.1698 11.2494 13.0207C11.2494 12.7862 11.3328 12.5838 11.6108 12.5731H11.6164ZM11.7109 5.68988C11.5496 5.56202 11.6219 5.31162 11.6052 5.13581C11.5496 4.09693 11.583 3.04739 11.5663 2.00851C11.5496 1.60894 11.8833 1.66754 12.1501 1.85401C12.3058 1.96588 12.4004 2.1417 12.4226 2.32816C12.4448 2.48266 12.4337 2.64249 12.4226 2.80232C12.3837 3.30844 12.4115 3.81989 12.3781 4.33134C12.3559 4.64567 12.3392 4.96532 12.3392 5.27965C12.3392 5.4235 12.3058 5.58333 12.1724 5.66324C12.0389 5.74315 11.8443 5.76979 11.7164 5.68988H11.7109ZM11.4996 11.2572C11.3828 11.1986 11.4051 11.0122 11.4051 10.8949C11.4162 10.6925 11.4162 10.49 11.4329 10.2876C11.4662 9.89335 11.4662 9.50444 11.4885 9.1102C11.5218 8.64137 11.5385 8.17254 11.5608 7.69838C11.5663 7.5865 11.5719 7.46397 11.6275 7.3734C11.7331 7.20292 12 7.25619 12.1279 7.38938C12.3058 7.57585 12.2836 7.86887 12.2892 8.10861C12.2892 8.51351 12.3003 8.92373 12.2836 9.32863C12.2614 9.76549 12.2057 10.1917 12.1891 10.6286C12.1835 10.831 12.1613 11.0814 11.9555 11.1826C11.811 11.2519 11.6386 11.3052 11.4996 11.2519V11.2572ZM6.70102 18.311C6.64542 18.2683 6.62874 18.1192 6.61761 18.0393C6.61205 17.9593 6.59537 17.8581 6.66766 17.8102C6.72326 17.7889 6.75662 17.8581 6.76774 17.9007C6.78999 17.97 6.79555 18.3269 6.70102 18.311Z" fill="black"/>
<path d="M10.8101 0.884459C10.9324 0.996339 10.8712 1.25739 10.8657 1.42787C10.8434 1.75286 10.8267 2.08317 10.8156 2.40815C10.8045 3.34581 10.8267 4.2888 10.7545 5.22645C10.71 7.65051 10.5988 10.0692 10.4153 12.488C10.3263 13.676 10.2373 14.8694 10.0928 16.0521C10.0427 16.3185 10.1261 16.6595 9.96489 16.8832C9.86481 16.9951 9.69244 17.0005 9.54231 17.0005C8.79722 17.0005 8.05214 16.9951 7.31261 17.0005C6.06154 16.9738 4.81046 16.9312 3.56495 16.8087C3.06452 16.7607 3.17017 16.1853 3.10344 15.839C3.00336 15.0292 2.94775 14.2194 2.86991 13.4043C2.71978 11.3958 2.59189 9.38198 2.52517 7.36815C2.47512 5.67397 2.39728 3.9798 2.4084 2.28562C2.28051 0.634062 2.4084 1.13486 4.1599 0.92708C5.56111 0.820528 6.96231 0.735287 8.36352 0.77258C8.96403 0.761925 9.56455 0.77258 10.1651 0.815201C10.3708 0.836511 10.6433 0.77258 10.8045 0.884459H10.8101Z" fill="#11A64B"/>
<path d="M8.75343 14.2675C8.73675 13.234 7.88046 12.4988 6.84067 12.4029C6.03442 12.3017 5.18925 12.6426 4.69438 13.266C4.53313 13.4684 4.36076 13.6868 4.31072 13.9426C4.22732 14.5979 4.63322 15.2958 5.13921 15.7113C5.70636 16.1801 6.54597 16.3719 7.26882 16.1375C8.11955 15.8818 8.77011 15.1519 8.75899 14.2729V14.2675H8.75343ZM5.34494 14.4753C5.41723 14.3847 5.52843 14.3208 5.61184 14.2409C5.75641 14.1077 5.89542 13.9585 6.02886 13.8094C6.10115 13.7295 6.18455 13.6336 6.21236 13.5323C6.24572 13.3405 5.94546 13.5856 5.90098 13.6389C5.78421 13.7508 5.673 13.868 5.56736 13.9905C5.39499 14.1876 5.20594 14.4167 5.07805 14.0811C4.90012 13.6176 5.26154 13.3139 5.65632 13.1168C6.05667 12.9143 6.53485 12.877 6.96856 12.9676C7.61356 13.1008 8.19739 13.6442 8.18627 14.3048C8.16959 15.1786 7.24102 15.7859 6.37917 15.5994C6.0233 15.5195 5.68412 15.3384 5.46727 15.056C5.34494 14.8802 5.20037 14.6778 5.33938 14.4913L5.34494 14.4753Z" fill="black"/>
<path d="M6.74076 11.076C7.41356 11.0867 8.08636 10.7138 8.41442 10.1437C8.8648 9.41383 8.65907 8.45486 8.09748 7.83686C7.56925 7.22951 6.76856 6.95248 5.95675 7.06435C5.45076 7.12829 5.11714 7.22418 4.8558 7.68236C3.94391 9.12614 4.90585 11.1027 6.7352 11.076H6.74076ZM5.22835 9.03557C5.22835 8.71591 5.37291 8.41224 5.54529 8.1352C5.66761 7.93808 5.75658 7.70899 5.95675 7.60244C6.10688 7.5172 6.30705 7.5172 6.48498 7.53318C7.09662 7.59179 7.64153 8.00734 7.90843 8.52944C8.26985 9.22203 8.03631 10.1011 7.25231 10.3941C6.80192 10.5699 6.25145 10.5113 5.86778 10.2236C5.48412 9.95191 5.22835 9.5044 5.22835 9.04089V9.03557Z" fill="black"/>
<path d="M6.74026 1.47559C5.70048 1.4969 4.75522 2.30669 4.55505 3.28164C4.41048 3.95292 4.64401 4.68813 5.13332 5.17827C6.35104 6.29174 8.11922 5.7057 8.46396 4.15004C8.68082 3.28697 8.30827 2.34931 7.55763 1.83254C7.31854 1.66205 7.05164 1.49157 6.74582 1.47559H6.74026ZM7.99134 3.64925C7.97465 4.04882 7.83009 4.45904 7.55207 4.75739C7.09056 5.22622 6.43444 5.37006 5.84505 5.01311C4.9832 4.51765 4.92759 3.28164 5.66156 2.65831C5.89509 2.45054 6.21203 2.37062 6.51229 2.29071C6.69578 2.24276 6.87927 2.16817 7.05164 2.1735C7.20177 2.1735 7.34634 2.24276 7.45198 2.33866C7.81896 2.66897 8.01358 3.16444 7.99134 3.64392V3.64925Z" fill="black"/>
<path d="M8.35307 5.39729C8.43092 5.43991 8.5588 5.31737 8.61997 5.24812C8.76454 5.07763 8.87574 4.87518 8.94247 4.66208C9.18712 3.91621 9.07591 3.07445 8.63665 2.41916C8.58661 2.3499 8.48652 2.21671 8.42536 2.20605C8.39755 2.20605 8.40311 2.254 8.42536 2.33924C8.48096 2.49907 8.5588 2.66423 8.61441 2.82406C8.84238 3.41542 8.83682 4.03342 8.59217 4.61413C8.54768 4.73134 8.49764 4.84854 8.4476 4.96575C8.39755 5.08829 8.28079 5.29074 8.35307 5.39196V5.39729Z" fill="black"/>
<path d="M3.0594 2.49893C3.06496 2.20058 3.00935 1.83298 3.25957 1.60922C3.43194 1.45472 3.72108 1.41742 3.94905 1.34284C4.12142 1.28423 4.09918 1.23096 3.88789 1.23096C3.72664 1.23096 3.53759 1.25227 3.37634 1.30022C2.81474 1.44406 2.69242 1.95551 2.64237 2.45098C2.63125 2.68539 2.60901 3.04767 2.77582 3.22881C2.82586 3.27676 2.89259 3.28208 2.93707 3.23946C3.10388 3.06365 3.04828 2.73334 3.0594 2.50958V2.49893Z" fill="black"/>
<path d="M3.98225 8.79017C4.13238 8.86475 4.26027 8.24675 4.31031 8.1402C4.466 7.66071 4.82186 7.28778 5.19996 6.95747C5.27781 6.88821 5.46686 6.67511 5.23888 6.73371C4.61613 6.97878 4.15462 7.61809 3.97669 8.23077C3.94333 8.3906 3.8766 8.65165 3.97669 8.78484L3.98225 8.79017Z" fill="black"/>
<path d="M9.08094 13.9317C9.08094 13.9317 9.09206 13.8944 9.09206 13.8358C9.08094 13.612 8.99198 13.3776 8.87521 13.1752C8.53603 12.6318 7.98556 12.1842 7.34056 12.0297C7.26271 12.0138 7.12927 11.9924 7.09034 12.0457C7.07366 12.1629 7.47957 12.2908 7.58521 12.3387C8.23021 12.5625 8.76956 13.0473 8.9753 13.6866C9.0031 13.7506 9.04202 13.9157 9.07538 13.937L9.08094 13.9317Z" fill="black"/>
<path d="M8.67003 16.6754C8.64222 16.8299 9.15933 16.7979 9.2761 16.7926C9.85438 16.7766 9.87106 16.2812 9.87662 15.8443C9.87662 15.775 9.87662 15.6631 9.84326 15.6152C9.79321 15.5886 9.74873 15.791 9.73205 15.8283C9.6264 16.2971 9.63196 16.6168 9.04257 16.5848C8.9258 16.5848 8.72563 16.5795 8.67003 16.6647V16.6754Z" fill="black"/>
<path d="M5.71136 14.7999C5.92265 14.9544 6.63993 14.0593 6.8123 13.9048C6.91795 13.7929 7.0514 13.6704 7.12924 13.5425C7.22933 13.3667 7.03472 13.4626 6.95131 13.5212C6.60101 13.7823 6.29519 14.0966 5.97825 14.3896C5.88373 14.4855 5.66687 14.6613 5.7058 14.7999H5.71136Z" fill="black"/>
<path d="M6.94555 15.1729C7.1902 15.2848 7.59611 14.5656 7.70732 14.3845C7.7518 14.3099 7.79628 14.2246 7.81852 14.1447C7.82964 14.1074 7.82964 14.0808 7.81852 14.0755C7.74068 14.0435 7.55719 14.3045 7.49602 14.3631C7.36258 14.523 7.21801 14.6775 7.08456 14.832C7.01783 14.9172 6.88439 15.0611 6.93999 15.1676L6.94555 15.1729Z" fill="black"/>
<path d="M6.51819 14.9281C6.685 14.9068 7.0353 14.4273 7.17987 14.2888C7.22991 14.2302 7.42453 14.0278 7.38004 13.9638C7.36892 13.9585 7.34668 13.9638 7.31332 13.9851C7.24659 14.0224 7.17987 14.0864 7.12427 14.1396C7.02418 14.2515 6.44035 14.8163 6.52375 14.9281H6.51819Z" fill="black"/>
<path d="M5.72791 9.36585C5.97812 9.37118 6.43407 8.67859 6.60644 8.48147C6.67316 8.40156 6.74545 8.31631 6.79549 8.22574C6.83441 8.15649 6.89001 8.04461 6.82885 7.99666C6.72876 7.95936 6.60644 8.0819 6.52859 8.15116C6.39514 8.30033 5.49437 9.22201 5.71678 9.36052L5.72791 9.36585Z" fill="black"/>
<path d="M7.19647 8.51336C7.12419 8.49205 6.99074 8.68385 6.9407 8.73712C6.78501 8.9449 6.6182 9.15268 6.44027 9.3498C6.37911 9.41906 6.30682 9.49897 6.27346 9.57888C6.23454 9.65347 6.25678 9.69076 6.34018 9.6588C6.42359 9.62683 6.50699 9.55225 6.57372 9.48831C6.72385 9.34447 7.25208 8.6945 7.19647 8.51336Z" fill="black"/>
<path d="M6.44531 10.1172C6.52872 10.2398 6.93462 9.49391 7.00691 9.41932C7.06807 9.33408 7.13479 9.23285 7.17928 9.14761C7.26268 8.95582 7.01247 9.20622 6.9791 9.24884C6.80673 9.44063 6.44531 9.86684 6.44531 10.1172Z" fill="black"/>
<path d="M5.81156 4.41142C6.1841 4.43806 6.70677 3.60163 6.89026 3.31927C6.94587 3.23402 7.00703 3.12747 7.02371 3.03157C7.04595 2.91969 6.97367 2.91969 6.8847 2.98363C6.7735 3.06887 6.69009 3.1914 6.60113 3.30328C6.39539 3.55901 6.1563 3.78277 5.93945 4.02251C5.87272 4.09709 5.66699 4.34216 5.806 4.4061L5.81156 4.41142Z" fill="black"/>
<path d="M6.31256 4.50186C6.59614 4.54448 7.11881 3.71337 7.25782 3.48429C7.29118 3.43101 7.44131 3.12734 7.2745 3.26053C7.17441 3.34577 7.07989 3.4683 6.99092 3.56953C6.88528 3.72403 6.15687 4.36867 6.31812 4.50186H6.31256Z" fill="black"/>
</svg>
