<svg viewBox="0 0 16 15" fill="none" xmlns="http://www.w3.org/2000/svg">
<path d="M14.7004 2.19514H10.662V1.46354C10.662 0.669517 9.99669 0.0198934 9.16196 0H6.39273C5.57278 0.0192075 4.91292 0.64688 4.89273 1.42684V2.19514H0.854267C0.535517 2.19514 0.277344 2.44072 0.277344 2.74392C0.277344 3.04713 0.535517 3.29271 0.854267 3.29271H1.85126L2.51581 12.9074C2.59189 14.0715 3.59754 14.9832 4.8235 15H10.7312C11.9691 14.9983 12.9924 14.0825 13.0695 12.9074L13.7049 3.29271H14.7004C15.0192 3.29271 15.2773 3.04713 15.2773 2.74392C15.2773 2.44072 15.0192 2.19514 14.7004 2.19514ZM6.04657 1.46354C6.04657 1.28176 6.20162 1.13427 6.39273 1.13427H9.16196C9.35306 1.13427 9.50811 1.28176 9.50811 1.46354V2.19514H6.04657V1.46354ZM11.9236 12.8416C11.8793 13.4377 11.3593 13.9004 10.7312 13.9024H4.8235C4.19393 13.9038 3.67181 13.4391 3.63107 12.8416L3.03864 3.29271L12.5463 3.32941L11.9233 12.8416H11.9236Z" fill="black"/>
<path d="M10.0847 12.0725C10.4017 12.0687 10.6577 11.8252 10.6617 11.5237V5.66988C10.6617 5.36667 10.4035 5.12109 10.0847 5.12109C9.76599 5.12109 9.50781 5.36667 9.50781 5.66988V11.5237C9.51178 11.8252 9.76779 12.0687 10.0847 12.0725Z" fill="black"/>
<path d="M5.46755 12.0725C5.7845 12.0687 6.0405 11.8252 6.04447 11.5237V5.66988C6.04447 5.36667 5.7863 5.12109 5.46755 5.12109C5.1488 5.12109 4.89062 5.36667 4.89062 5.66988V11.5237C4.89459 11.8252 5.1506 12.0687 5.46755 12.0725Z" fill="black"/>
<path d="M7.7781 12.0725C8.09504 12.0687 8.35105 11.8252 8.35502 11.5237V5.66988C8.35502 5.36667 8.09685 5.12109 7.7781 5.12109C7.45934 5.12109 7.20117 5.36667 7.20117 5.66988V11.5237C7.20514 11.8252 7.46115 12.0687 7.7781 12.0725Z" fill="black"/>
</svg>
