<svg viewBox="0 0 26 27" fill="none" xmlns="http://www.w3.org/2000/svg">
<path d="M0.5 13.0625H25.5824" stroke="white" stroke-width="1.50491" stroke-miterlimit="10"/>
<path d="M4.1875 10.1133H21.8927" stroke="white" stroke-width="1.50491" stroke-miterlimit="10"/>
<path d="M20.4189 7.16467L17.4681 10.1155H7.14002L10.0909 7.16467H1.23828V13.0664H24.8452V7.16467H20.4189Z" stroke="white" stroke-width="1.50491" stroke-miterlimit="10"/>
<path d="M20.4195 7.16241L15.2555 1.99839L7.14062 10.1133H17.4687L20.4195 7.16241Z" stroke="white" stroke-width="1.50491" stroke-miterlimit="10"/>
<path d="M15.9933 6.42469L12.3047 10.1133" stroke="white" stroke-width="1.50491" stroke-miterlimit="10"/>
<path d="M3.68353 17.3409L2.12071 18.2786L1.40297 17.0862L3.96137 15.4655H5.33897V23.4648H3.68353V17.3409ZM7.95291 21.601H9.60834V23.4648H7.95291V21.601ZM10.7555 22.2493C11.0874 21.956 11.4154 21.6782 11.7395 21.4158C12.0636 21.1457 12.3916 20.864 12.7235 20.5707C13.0476 20.2852 13.3293 20.0266 13.5686 19.7951C13.8156 19.5636 14.0201 19.3398 14.1821 19.1237C14.3442 18.9076 14.4638 18.6953 14.541 18.487C14.6259 18.2709 14.6684 18.0355 14.6684 17.7808C14.6684 17.4489 14.5719 17.1788 14.3789 16.9704C14.1937 16.7543 13.939 16.6463 13.6149 16.6463C13.229 16.6463 12.9242 16.735 12.7004 16.9126C12.4843 17.0823 12.3222 17.4103 12.2141 17.8966L10.6397 17.7113C10.7092 17.3795 10.8095 17.0669 10.9407 16.7736C11.0719 16.4726 11.2494 16.2102 11.4732 15.9864C11.7048 15.7549 11.9942 15.5735 12.3415 15.4423C12.6888 15.3111 13.1171 15.2455 13.6265 15.2455C14.5217 15.2455 15.2009 15.4655 15.6639 15.9054C16.127 16.3453 16.3585 16.9434 16.3585 17.6998C16.3585 18.0239 16.3161 18.3249 16.2312 18.6027C16.154 18.8728 16.0344 19.1391 15.8723 19.4015C15.7102 19.6639 15.5019 19.9302 15.2472 20.2003C15.0002 20.4627 14.7031 20.7482 14.3558 21.0569C14.1706 21.2113 13.9815 21.3656 13.7885 21.52C13.6033 21.6743 13.4027 21.8519 13.1866 22.0525H16.4743L16.3006 23.4648H10.7555V22.2493ZM17.7685 15.1992H19.3545V19.5288L21.6814 17.4219H23.5567L21.3572 19.5057L23.7304 23.4648H21.9823L20.1996 20.4087L19.3545 21.1727V23.4648H17.7685V15.1992Z" fill="white"/>
</svg>
