<svg  viewBox="0 0 23 33" fill="none" xmlns="http://www.w3.org/2000/svg">
<path d="M11.3334 10.8721H23.0001V21.6413H11.3334L11.3334 10.8721Z" fill="black"/>
<path d="M13.4802 15.7398H13.5434C14.013 15.7398 14.395 15.3341 14.395 14.8354V14.6678H13.8903V14.8354C13.8903 15.0385 13.7347 15.2038 13.5434 15.2038H13.4802C13.2889 15.2038 13.1333 15.0385 13.1333 14.8354V13.9642C13.1333 13.7611 13.2889 13.5958 13.4802 13.5958H13.5434C13.7347 13.5958 13.8903 13.7611 13.8903 13.9642V14.1318H14.395V13.9642C14.395 13.4655 14.013 13.0598 13.5434 13.0598H13.4802C13.0107 13.0598 12.6287 13.4655 12.6287 13.9642V14.8354C12.6287 15.3341 13.0107 15.7398 13.4802 15.7398Z" fill="white"/>
<path d="M15.7501 15.7398H15.8133C16.2828 15.7398 16.6648 15.3341 16.6648 14.8354V13.9642C16.6648 13.4655 16.2828 13.0598 15.8133 13.0598H15.7501C15.2806 13.0598 14.8986 13.4655 14.8986 13.9642V14.8354C14.8986 15.3341 15.2806 15.7398 15.7501 15.7398ZM15.4032 13.9642C15.4032 13.7611 15.5588 13.5958 15.7501 13.5958H15.8133C16.0046 13.5958 16.1602 13.7611 16.1602 13.9642V14.8354C16.1602 15.0385 16.0046 15.2038 15.8133 15.2038H15.7501C15.5588 15.2038 15.4032 15.0385 15.4032 14.8354V13.9642Z" fill="white"/>
<path d="M18.9365 14.8354V13.9642C18.9365 13.4655 18.5545 13.0598 18.0849 13.0598H17.1702V15.7398H18.0849C18.5545 15.7398 18.9365 15.3341 18.9365 14.8354ZM17.6748 13.5958H18.0849C18.2762 13.5958 18.4318 13.7611 18.4318 13.9642V14.8354C18.4318 15.0385 18.2762 15.2038 18.0849 15.2038H17.6748V13.5958Z" fill="white"/>
<path d="M21.2081 13.5958V13.0598H19.4418V15.7398H21.2081V15.2038H19.9465V14.6678H20.8717V14.1318H19.9465V13.5958H21.2081Z" fill="white"/>
<path d="M14.1937 17.0803L13.6711 17.6029L13.1485 17.0803L12.6259 17.6029L13.1485 18.1255L12.6259 18.6481L13.1485 19.1707L13.6711 18.6481L14.1937 19.1707L14.7163 18.6481L14.1937 18.1255L14.7163 17.6029L14.1937 17.0803Z" fill="white"/>
<path d="M17.3312 17.0803L16.8086 17.6029L16.286 17.0803L15.7634 17.6029L16.286 18.1255L15.7634 18.6481L16.286 19.1707L16.8086 18.6481L17.3312 19.1707L17.8538 18.6481L17.3312 18.1255L17.8538 17.6029L17.3312 17.0803Z" fill="white"/>
<path d="M20.8141 17.0803L20.2915 17.6029L19.7689 17.0803L19.2463 17.6029L19.7689 18.1255L19.2463 18.6481L19.7689 19.1707L20.2915 18.6481L20.8141 19.1707L21.3366 18.6481L20.814 18.1255L21.3366 17.6029L20.8141 17.0803Z" fill="white"/>
<path d="M5.99824 31.8196C7.09667 31.8196 7.62937 31.3583 7.62937 31.3583C8.28596 31.5985 9.2027 31.568 9.73953 31.2553C10.2764 30.9427 11.0073 30.1077 11.1683 28.3308C11.3294 26.554 10.9618 25.7457 10.7884 25.3034C10.615 24.8611 10.4291 24.0146 10.5861 22.989C10.743 21.9633 11.2468 19.5116 11.2385 17.9369C11.2303 16.3622 11.2592 12.8314 11.2798 12.1451C11.3005 11.4588 11.2468 11.1271 11.0031 10.5704C10.7595 10.0137 10.3053 9.39981 9.63216 7.86321C8.95906 6.32662 8.85169 4.71376 8.85169 4.71376C9.5537 4.17233 9.08707 3.48982 9.08707 3.48982C9.08707 3.48982 9.05404 2.52897 8.96319 2.01423C8.87234 1.49949 8.35616 1.15252 7.87301 1.09151C7.38987 1.0305 6.70025 1.01525 6.70025 1.01525L5.84545 1C5.84545 1 5.15583 1.01525 4.67268 1.07626C4.18953 1.13726 3.67335 1.48424 3.5825 1.99898C3.49166 2.51372 3.45862 3.47457 3.45862 3.47457C3.45862 3.47457 2.99199 4.15327 3.694 4.69851C3.694 4.69851 2.96721 6.57064 2.16197 8.08817C1.35672 9.60571 1.08831 9.99462 0.844672 10.5551C0.601034 11.1156 0.547351 11.4473 0.567998 12.1298C0.588645 12.8124 0.617552 16.3469 0.609293 17.9216C0.601034 19.4964 1.10483 21.9481 1.26175 22.9737C1.41867 23.9994 1.23284 24.8459 1.0594 25.2881C0.885966 25.7304 0.518445 26.5426 0.679493 28.3156C0.840542 30.0886 1.57146 30.9274 2.10829 31.2401C2.64512 31.5527 3.56186 31.5832 4.21844 31.343C4.21844 31.343 4.93284 31.8235 5.98998 31.8196H5.99824Z" stroke="black" stroke-width="1.07692" stroke-miterlimit="10" stroke-linejoin="round"/>
<path d="M11.284 11.385H0.564163V18.7549C0.564163 19.0229 0.865741 20.4299 0.977407 21.0999H10.9491C11.0607 20.6532 11.284 19.5589 11.284 18.7549V11.385Z" stroke="black" stroke-width="1.07692" stroke-linejoin="round"/>
</svg>
