<svg  viewBox="0 0 40 40" fill="none" xmlns="http://www.w3.org/2000/svg">
<g clip-path="url(#clip0_29174_12184)">
<path d="M22.2984 12.5854C22.228 12.5113 22.1315 12.4668 22.0315 12.4668H16.0434C14.9384 12.4668 14.0264 13.3752 14.0264 14.4801V25.8035C14.0264 26.9085 14.9384 27.817 16.0434 27.817H24.1708C25.2758 27.817 26.1878 26.9085 26.1878 25.8035V16.8122C26.1878 16.7158 26.1434 16.6232 26.0803 16.5527L22.2984 12.5854ZM22.4059 13.7756L24.9384 16.4341H23.2921C22.8027 16.4341 22.4059 16.0411 22.4059 15.5517V13.7756ZM24.1708 27.0754H16.0434C15.3501 27.0754 14.7679 26.5008 14.7679 25.8035V14.4801C14.7679 13.7867 15.3464 13.2083 16.0434 13.2083H21.6643V15.5517C21.6643 16.4526 22.3912 17.1757 23.2921 17.1757H25.4463V25.8035C25.4463 26.5008 24.8679 27.0754 24.1708 27.0754Z" fill="black"/>
<path d="M23.1584 24.5186H17.0554C16.8515 24.5186 16.6846 24.6853 16.6846 24.8893C16.6846 25.0932 16.8515 25.2601 17.0554 25.2601H23.1621C23.366 25.2601 23.5329 25.0932 23.5329 24.8893C23.5329 24.6853 23.366 24.5186 23.1584 24.5186Z" fill="black"/>
<path d="M18.2087 20.5274L19.7363 18.8847V22.9337C19.7363 23.1376 19.9032 23.3044 20.1071 23.3044C20.3111 23.3044 20.4779 23.1376 20.4779 22.9337V18.8847L22.0055 20.5274C22.0796 20.6051 22.1761 20.646 22.2762 20.646C22.3651 20.646 22.4579 20.6126 22.5283 20.5459C22.6767 20.405 22.6878 20.1713 22.5469 20.0231L20.3741 17.6909C20.3036 17.6168 20.2072 17.5723 20.1035 17.5723C19.9996 17.5723 19.9032 17.6168 19.8328 17.6909L17.66 20.0231C17.5191 20.1713 17.5302 20.4086 17.6785 20.5459C17.8343 20.6868 18.0678 20.6756 18.2087 20.5274Z" fill="black"/>
<path d="M20.0001 39.6233C30.8377 39.6233 39.6233 30.8377 39.6233 20.0001C39.6233 9.16255 30.8377 0.376953 20.0001 0.376953C9.16255 0.376953 0.376953 9.16255 0.376953 20.0001C0.376953 30.8377 9.16255 39.6233 20.0001 39.6233Z" stroke="black" stroke-width="1.3"/>
</g>
<defs>
<clipPath id="clip0_29174_12184">
<rect width="40" height="40" fill="white"/>
</clipPath>
</defs>
</svg>
