<svg  viewBox="0 0 21 21" fill="none" xmlns="http://www.w3.org/2000/svg">
<g clip-path="url(#clip0_29021_38307)">
<path d="M10.3501 10.1158C11.7398 10.1158 12.9432 9.61732 13.9264 8.63391C14.9097 7.65067 15.4081 6.4476 15.4081 5.05772C15.4081 3.66832 14.9097 2.46509 13.9263 1.48152C12.9428 0.498434 11.7396 0 10.3501 0C8.96017 0 7.7571 0.498434 6.77384 1.48168C5.79059 2.46493 5.29199 3.66816 5.29199 5.05772C5.29199 6.4476 5.79059 7.65083 6.774 8.63408C7.75742 9.61716 8.96065 10.1158 10.3501 10.1158Z" fill="black"/>
<path d="M19.2006 16.1487C19.1722 15.7395 19.1149 15.2931 19.0304 14.8217C18.9452 14.3469 18.8355 13.8979 18.7041 13.4876C18.5684 13.0635 18.3838 12.6447 18.1557 12.2434C17.9189 11.8268 17.6407 11.4641 17.3286 11.1656C17.0023 10.8533 16.6027 10.6023 16.1406 10.4191C15.6801 10.237 15.1699 10.1447 14.624 10.1447C14.4096 10.1447 14.2023 10.2327 13.8019 10.4933C13.5555 10.654 13.2673 10.8399 12.9456 11.0454C12.6705 11.2207 12.2978 11.3849 11.8375 11.5336C11.3884 11.6789 10.9324 11.7526 10.4824 11.7526C10.0323 11.7526 9.57651 11.6789 9.12694 11.5336C8.66711 11.3851 8.29445 11.2209 8.01968 11.0456C7.701 10.842 7.41261 10.6561 7.16251 10.4932C6.76261 10.2325 6.55513 10.1445 6.34076 10.1445C5.79474 10.1445 5.28461 10.237 4.8243 10.4193C4.36256 10.6021 3.96281 10.8532 3.63613 11.1658C3.32419 11.4644 3.04589 11.827 2.80941 12.2434C2.58142 12.6447 2.39685 13.0634 2.26099 13.4878C2.12977 13.8981 2.02002 14.3469 1.93478 14.8217C1.85035 15.2925 1.79299 15.739 1.76463 16.1491C1.73676 16.551 1.72266 16.968 1.72266 17.3892C1.72266 18.4854 2.07113 19.3728 2.7583 20.0273C3.43698 20.6732 4.335 21.0008 5.42704 21.0008H15.5387C16.6307 21.0008 17.5284 20.6733 18.2073 20.0273C18.8946 19.3733 19.2431 18.4857 19.2431 17.389C19.2429 16.9659 19.2286 16.5486 19.2006 16.1487Z" fill="black"/>
</g>
<defs>
<clipPath id="clip0_29021_38307">
<rect width="21" height="21" fill="white"/>
</clipPath>
</defs>
</svg>
