<svg  viewBox="0 0 27 27" fill="none" xmlns="http://www.w3.org/2000/svg">
<path d="M10.6542 11.2382C13.4814 11.2382 15.7733 8.94628 15.7733 6.11908C15.7733 3.29189 13.4814 1 10.6542 1C7.82705 1 5.53516 3.29189 5.53516 6.11908C5.53516 8.94628 7.82705 11.2382 10.6542 11.2382Z" stroke="black" stroke-width="2" stroke-miterlimit="10"/>
<path d="M1 22.5957L1.83334 18.4647C2.24061 16.4246 3.34207 14.5886 4.95037 13.2689C6.55866 11.9493 8.57444 11.2276 10.6548 11.2266C12.6374 11.2226 14.5646 11.8804 16.1311 13.0956" stroke="black" stroke-width="2" stroke-miterlimit="10"/>
<path d="M19.1789 25.9984C22.9463 25.9984 26.0004 22.9443 26.0004 19.1769C26.0004 15.4095 22.9463 12.3555 19.1789 12.3555C15.4115 12.3555 12.3574 15.4095 12.3574 19.1769C12.3574 22.9443 15.4115 25.9984 19.1789 25.9984Z" stroke="black" stroke-width="2" stroke-miterlimit="10"/>
<path d="M22.5948 16.9023L18.6186 20.8786L16.3447 18.6166" stroke="black" stroke-width="2" stroke-miterlimit="10"/>
</svg>
