<svg  viewBox="0 0 50 40" fill="none" xmlns="http://www.w3.org/2000/svg">
<g clip-path="url(#clip0_28913_14170)">
<path d="M47.4569 32.7476C48.5596 30.8357 48.7413 28.6763 48.8191 26.5731C48.9229 23.9751 49.1434 21.3659 49.1434 18.7679C49.1176 15.9899 49.416 13.2231 49.2213 10.4564C49.0786 8.52194 49.5327 6.44127 48.4169 4.66427C47.392 3.39339 45.5237 2.97726 43.8759 2.6286C43.331 2.50489 42.7861 2.39241 42.2411 2.2687C37.8299 1.15527 33.224 0.761629 28.6571 0.379236C23.13 0.379236 17.616 0.0755719 12.1019 0.0418313C10.9861 0.0418313 9.85736 -0.0593901 8.74157 0.0530782C7.87229 0.143053 7.17167 0.660407 6.44511 1.05405C5.38123 1.62763 4.79739 2.6286 4.01893 3.43837C2.99396 4.69801 1.34623 5.67649 1.07377 7.27354C0.580743 8.94931 0.515871 10.6813 0.386129 12.3908C0.334231 14.1678 0.100695 15.9336 0.0487978 17.7219C-0.119868 21.2309 0.191514 24.7286 0.334231 28.2264C0.54182 30.2846 0.593717 32.4101 1.55381 34.3221C1.90411 35.042 2.65663 35.4919 3.34427 35.9304C4.55087 36.6727 6.06886 36.8301 7.44414 37.2689C9.4292 37.8761 11.531 37.9661 13.6069 38.1799C15.7996 38.416 18.0181 38.3823 20.2109 38.6071C22.0531 38.7984 23.9214 38.7984 25.7897 38.8771C30.4086 39.2033 35.1183 39.327 39.7111 38.5397C40.6583 38.3936 41.7221 38.4047 42.5136 37.8649C43.7461 37.0551 44.6673 35.9641 45.5886 34.8957C46.1594 34.131 47.0287 33.5686 47.4827 32.7364L47.4569 32.7476ZM44.4987 33.8386C42.1114 34.5246 39.5426 34.4571 37.0644 34.4796C31.9656 34.4234 26.8666 34.682 21.7677 34.5583C18.3684 34.5021 14.9563 34.5133 11.5959 33.9623C9.55894 33.6473 7.3144 33.3774 5.77046 32.0503C5.18661 31.6004 4.992 30.9144 4.8882 30.262C4.69359 29.0137 4.68061 27.754 4.65467 26.5056C4.65467 23.3227 4.22651 20.1511 4.31734 16.9683C4.39519 13.2119 4.39519 9.39919 5.48501 5.72149C5.9002 4.31563 6.28943 2.77481 7.52199 1.71761C8.09286 1.14402 9.01403 1.11028 9.81843 1.06529C15.086 0.952824 20.3666 0.874097 25.6081 1.35771C29.3317 1.71761 33.1073 1.77384 36.805 2.34743C39.4647 2.68483 42.0206 3.42713 44.6284 4.00071C45.6664 4.27064 46.7561 4.68677 47.379 5.4853C47.9499 6.5425 47.9887 7.75716 47.9759 8.90433C47.9759 10.6251 48.2093 12.3459 48.1186 14.0666C47.9759 17.2833 48.0796 20.4999 47.8331 23.7051C47.6514 25.9657 47.7423 28.2714 47.1324 30.487C46.7303 31.7804 46.1464 33.355 44.5117 33.8049L44.4987 33.8386Z" fill="#1F1D1E"/>
<path d="M35.3788 14.2571C33.7051 13.1099 31.9147 12.0977 30.1501 11.0855C27.4645 9.51094 24.7269 7.98139 21.7947 6.76673C21.1589 6.46306 20.4194 6.37309 19.6928 6.35059C19.5112 7.554 19.7707 8.76866 19.4852 9.96081C18.9534 12.4239 19.2518 14.9319 19.0961 17.4174C18.9664 19.5431 18.8107 21.6576 18.5771 23.7719C18.4732 24.8629 18.3177 25.965 18.4344 27.0673C18.5122 27.6071 18.6938 28.2257 19.3037 28.4731C20.2118 28.5631 21.0811 28.1694 21.8855 27.8657C23.7668 27.0223 25.4794 25.92 27.2698 24.9529C30.7339 23.0296 34.2241 21.1289 37.3379 18.8009C37.8828 18.3397 38.6872 17.7436 38.4148 17.0126C37.9088 15.7417 36.5205 15.0331 35.3658 14.2571H35.3788ZM35.7551 18.6771C34.7949 17.6761 33.4585 17.0576 32.3168 16.2366C31.4475 15.618 30.4355 15.1681 29.5922 14.527C27.4904 12.9525 25.0772 11.7716 22.8845 10.3207C22.0542 9.80337 21.1201 9.40973 20.2118 9.02733C20.2378 8.48749 20.2378 7.93639 20.2508 7.39654C24.6361 9.4772 28.8398 11.8615 33.0045 14.2459C34.4965 15.2469 36.2221 16.0341 37.3768 17.3613C36.8708 17.8336 36.3129 18.261 35.7551 18.6771Z" fill="#11A64B"/>
<path d="M23.75 34.1663C24.5284 33.5815 25.1641 32.8167 25.4237 31.9395C24.788 32.6256 24.1911 33.3679 23.75 34.1663Z" fill="#1F1D1E"/>
<path d="M22.5586 33.4348C23.1425 33.2211 23.6355 32.8386 23.9857 32.3662C23.363 32.5349 22.8959 32.9511 22.5586 33.4348Z" fill="#1F1D1E"/>
<path d="M7.12061 29.4187C7.47091 28.7664 7.74336 28.0915 8.05475 27.4279C8.31423 26.8207 8.67751 26.2134 8.56075 25.5498C7.96392 26.7981 7.21142 28.0465 7.12061 29.4187Z" fill="#1F1D1E"/>
<path d="M7.03969 25.0087H6.89698C7.22133 24.2439 7.72732 23.5242 7.9349 22.7256C6.92292 23.6703 6.49476 24.975 6.07959 26.1896C6.36502 26.0884 6.44288 24.975 6.81912 25.3686C6.81912 26.1222 6.2742 26.8082 6.26123 27.573C6.92292 26.2572 7.9349 24.9974 8.02573 23.5353C7.62353 23.9853 7.6365 24.7613 7.05266 25.0087H7.03969Z" fill="#1F1D1E"/>
<path d="M5.56348 16.5957C6.44573 15.3023 7.40582 14.0202 7.98966 12.5918C6.93875 13.784 6.09542 15.156 5.56348 16.5957Z" fill="#1F1D1E"/>
<path d="M8.65009 9.65918C7.61215 10.9076 6.75585 12.2684 6.21094 13.7418C7.11914 12.4372 8.22195 11.1663 8.65009 9.65918Z" fill="#1F1D1E"/>
<path d="M6.28906 11.7927C7.24916 10.4094 8.36495 9.09348 9.07853 7.59766C7.66435 8.67736 6.87291 10.2744 6.28906 11.7927Z" fill="#1F1D1E"/>
<path d="M8.39083 6.0247C7.71617 6.98069 7.10637 8.00415 6.76904 9.10633C7.63833 7.79046 8.6114 6.51956 9.3639 5.14746C8.97467 5.38363 8.63734 5.67606 8.39083 6.03596V6.0247Z" fill="#1F1D1E"/>
</g>
<defs>
<clipPath id="clip0_28913_14170">
<rect width="50" height="40" fill="white"/>
</clipPath>
</defs>
</svg>
