<svg  viewBox="0 0 20 20" fill="none" xmlns="http://www.w3.org/2000/svg">
<path d="M17.9936 8.43763C16.7849 6.06864 14.0048 3.26758 9.55829 3.26758C5.09943 3.26758 2.35127 5.92215 1.14768 8.46237C0.81991 8.99422 0.807543 9.6312 1.12294 10.1692C2.68756 12.8718 5.1118 15.3393 9.55829 15.3393C10.1501 15.3393 10.7321 15.3134 11.2642 15.2378C11.5518 15.197 11.8479 15.2333 12.1035 15.3713C12.8249 15.7609 13.5502 16.1834 14.4748 16.706C14.7593 16.8668 15.1056 16.6503 15.087 16.3226L14.9518 14.1923C14.9317 13.8763 15.0748 13.5742 15.317 13.3703C16.3977 12.4604 17.2452 11.315 17.9689 10.1383C18.2967 9.60646 18.309 8.97566 17.9936 8.43763Z" fill="url(#paint0_radial_28758_254628)"/>
<path d="M17.9936 8.43763C16.7849 6.06864 14.0048 3.26758 9.55829 3.26758C5.09943 3.26758 2.35127 5.92215 1.14768 8.46237C0.81991 8.99422 0.807543 9.6312 1.12294 10.1692C2.68756 12.8718 5.1118 15.3393 9.55829 15.3393C10.1501 15.3393 10.7321 15.3134 11.2642 15.2378C11.5518 15.197 11.8479 15.2333 12.1035 15.3713C12.8249 15.7609 13.5502 16.1834 14.4748 16.706C14.7593 16.8668 15.1056 16.6503 15.087 16.3226L14.9518 14.1923C14.9317 13.8763 15.0748 13.5742 15.317 13.3703C16.3977 12.4604 17.2452 11.315 17.9689 10.1383C18.2967 9.60646 18.309 8.97566 17.9936 8.43763Z" fill="url(#paint1_radial_28758_254628)"/>
<path d="M17.9936 8.43763C16.7849 6.06864 14.0048 3.26758 9.55829 3.26758C5.09943 3.26758 2.35127 5.92215 1.14768 8.46237C0.81991 8.99422 0.807543 9.6312 1.12294 10.1692C2.68756 12.8718 5.1118 15.3393 9.55829 15.3393C10.1501 15.3393 10.7321 15.3134 11.2642 15.2378C11.5518 15.197 11.8479 15.2333 12.1035 15.3713C12.8249 15.7609 13.5502 16.1834 14.4748 16.706C14.7593 16.8668 15.1056 16.6503 15.087 16.3226L14.9518 14.1923C14.9317 13.8763 15.0748 13.5742 15.317 13.3703C16.3977 12.4604 17.2452 11.315 17.9689 10.1383C18.2967 9.60646 18.309 8.97566 17.9936 8.43763Z" fill="url(#paint2_radial_28758_254628)"/>
<path d="M17.9936 8.43763C16.7849 6.06864 14.0048 3.26758 9.55829 3.26758C5.09943 3.26758 2.35127 5.92215 1.14768 8.46237C0.81991 8.99422 0.807543 9.6312 1.12294 10.1692C2.68756 12.8718 5.1118 15.3393 9.55829 15.3393C10.1501 15.3393 10.7321 15.3134 11.2642 15.2378C11.5518 15.197 11.8479 15.2333 12.1035 15.3713C12.8249 15.7609 13.5502 16.1834 14.4748 16.706C14.7593 16.8668 15.1056 16.6503 15.087 16.3226L14.9518 14.1923C14.9317 13.8763 15.0748 13.5742 15.317 13.3703C16.3977 12.4604 17.2452 11.315 17.9689 10.1383C18.2967 9.60646 18.309 8.97566 17.9936 8.43763Z" fill="url(#paint3_radial_28758_254628)"/>
<path d="M17.9936 8.43763C16.7849 6.06864 14.0048 3.26758 9.55829 3.26758C5.09943 3.26758 2.35127 5.92215 1.14768 8.46237C0.81991 8.99422 0.807543 9.6312 1.12294 10.1692C2.68756 12.8718 5.1118 15.3393 9.55829 15.3393C10.1501 15.3393 10.7321 15.3134 11.2642 15.2378C11.5518 15.197 11.8479 15.2333 12.1035 15.3713C12.8249 15.7609 13.5502 16.1834 14.4748 16.706C14.7593 16.8668 15.1056 16.6503 15.087 16.3226L14.9518 14.1923C14.9317 13.8763 15.0748 13.5742 15.317 13.3703C16.3977 12.4604 17.2452 11.315 17.9689 10.1383C18.2967 9.60646 18.309 8.97566 17.9936 8.43763Z" fill="url(#paint4_radial_28758_254628)"/>
<path d="M17.9936 8.43763C16.7849 6.06864 14.0048 3.26758 9.55829 3.26758C5.09943 3.26758 2.35127 5.92215 1.14768 8.46237C0.81991 8.99422 0.807543 9.6312 1.12294 10.1692C2.68756 12.8718 5.1118 15.3393 9.55829 15.3393C10.1501 15.3393 10.7321 15.3134 11.2642 15.2378C11.5518 15.197 11.8479 15.2333 12.1035 15.3713C12.8249 15.7609 13.5502 16.1834 14.4748 16.706C14.7593 16.8668 15.1056 16.6503 15.087 16.3226L14.9518 14.1923C14.9317 13.8763 15.0748 13.5742 15.317 13.3703C16.3977 12.4604 17.2452 11.315 17.9689 10.1383C18.2967 9.60646 18.309 8.97566 17.9936 8.43763Z" fill="url(#paint5_radial_28758_254628)"/>
<path d="M17.9936 8.43763C16.7849 6.06864 14.0048 3.26758 9.55829 3.26758C5.09943 3.26758 2.35127 5.92215 1.14768 8.46237C0.81991 8.99422 0.807543 9.6312 1.12294 10.1692C2.68756 12.8718 5.1118 15.3393 9.55829 15.3393C10.1501 15.3393 10.7321 15.3134 11.2642 15.2378C11.5518 15.197 11.8479 15.2333 12.1035 15.3713C12.8249 15.7609 13.5502 16.1834 14.4748 16.706C14.7593 16.8668 15.1056 16.6503 15.087 16.3226L14.9518 14.1923C14.9317 13.8763 15.0748 13.5742 15.317 13.3703C16.3977 12.4604 17.2452 11.315 17.9689 10.1383C18.2967 9.60646 18.309 8.97566 17.9936 8.43763Z" fill="url(#paint6_radial_28758_254628)"/>
<path d="M17.9936 8.43763C16.7849 6.06864 14.0048 3.26758 9.55829 3.26758C5.09943 3.26758 2.35127 5.92215 1.14768 8.46237C0.81991 8.99422 0.807543 9.6312 1.12294 10.1692C2.68756 12.8718 5.1118 15.3393 9.55829 15.3393C10.1501 15.3393 10.7321 15.3134 11.2642 15.2378C11.5518 15.197 11.8479 15.2333 12.1035 15.3713C12.8249 15.7609 13.5502 16.1834 14.4748 16.706C14.7593 16.8668 15.1056 16.6503 15.087 16.3226L14.9518 14.1923C14.9317 13.8763 15.0748 13.5742 15.317 13.3703C16.3977 12.4604 17.2452 11.315 17.9689 10.1383C18.2967 9.60646 18.309 8.97566 17.9936 8.43763Z" fill="url(#paint7_radial_28758_254628)"/>
<path d="M17.9936 8.43763C16.7849 6.06864 14.0048 3.26758 9.55829 3.26758C5.09943 3.26758 2.35127 5.92215 1.14768 8.46237C0.81991 8.99422 0.807543 9.6312 1.12294 10.1692C2.68756 12.8718 5.1118 15.3393 9.55829 15.3393C10.1501 15.3393 10.7321 15.3134 11.2642 15.2378C11.5518 15.197 11.8479 15.2333 12.1035 15.3713C12.8249 15.7609 13.5502 16.1834 14.4748 16.706C14.7593 16.8668 15.1056 16.6503 15.087 16.3226L14.9518 14.1923C14.9317 13.8763 15.0748 13.5742 15.317 13.3703C16.3977 12.4604 17.2452 11.315 17.9689 10.1383C18.2967 9.60646 18.309 8.97566 17.9936 8.43763Z" fill="url(#paint8_radial_28758_254628)"/>
<path d="M17.9936 8.43763C16.7849 6.06864 14.0048 3.26758 9.55829 3.26758C5.09943 3.26758 2.35127 5.92215 1.14768 8.46237C0.81991 8.99422 0.807543 9.6312 1.12294 10.1692C2.68756 12.8718 5.1118 15.3393 9.55829 15.3393C10.1501 15.3393 10.7321 15.3134 11.2642 15.2378C11.5518 15.197 11.8479 15.2333 12.1035 15.3713C12.8249 15.7609 13.5502 16.1834 14.4748 16.706C14.7593 16.8668 15.1056 16.6503 15.087 16.3226L14.9518 14.1923C14.9317 13.8763 15.0748 13.5742 15.317 13.3703C16.3977 12.4604 17.2452 11.315 17.9689 10.1383C18.2967 9.60646 18.309 8.97566 17.9936 8.43763Z" fill="url(#paint9_radial_28758_254628)"/>
<path d="M17.9936 8.43763C16.7849 6.06864 14.0048 3.26758 9.55829 3.26758C5.09943 3.26758 2.35127 5.92215 1.14768 8.46237C0.81991 8.99422 0.807543 9.6312 1.12294 10.1692C2.68756 12.8718 5.1118 15.3393 9.55829 15.3393C10.1501 15.3393 10.7321 15.3134 11.2642 15.2378C11.5518 15.197 11.8479 15.2333 12.1035 15.3713C12.8249 15.7609 13.5502 16.1834 14.4748 16.706C14.7593 16.8668 15.1056 16.6503 15.087 16.3226L14.9518 14.1923C14.9317 13.8763 15.0748 13.5742 15.317 13.3703C16.3977 12.4604 17.2452 11.315 17.9689 10.1383C18.2967 9.60646 18.309 8.97566 17.9936 8.43763Z" fill="url(#paint10_radial_28758_254628)"/>
<circle cx="9.45312" cy="9.23242" r="4.15039" fill="url(#paint11_linear_28758_254628)"/>
<circle cx="9.45312" cy="9.23242" r="4.15039" fill="url(#paint12_radial_28758_254628)"/>
<circle cx="9.45273" cy="9.23202" r="2.39413" fill="url(#paint13_radial_28758_254628)"/>
<circle cx="9.45273" cy="9.23202" r="2.39413" fill="url(#paint14_radial_28758_254628)" fill-opacity="0.4"/>
<defs>
<radialGradient id="paint0_radial_28758_254628" cx="0" cy="0" r="1" gradientUnits="userSpaceOnUse" gradientTransform="translate(5.27049 4.35054) rotate(56.6049) scale(10.6549 20.0763)">
<stop stop-color="#3B3444"/>
<stop offset="1" stop-color="#8E63C6"/>
</radialGradient>
<radialGradient id="paint1_radial_28758_254628" cx="0" cy="0" r="1" gradientUnits="userSpaceOnUse" gradientTransform="translate(19.5018 11.119) rotate(180) scale(5.43449 9.08911)">
<stop stop-color="#3B3444"/>
<stop offset="1" stop-color="#3D3446" stop-opacity="0"/>
</radialGradient>
<radialGradient id="paint2_radial_28758_254628" cx="0" cy="0" r="1" gradientUnits="userSpaceOnUse" gradientTransform="translate(9.55829 12.1246) rotate(-90) scale(9.51456 10.3087)">
<stop offset="0.886179" stop-color="#72667B" stop-opacity="0"/>
<stop offset="1" stop-color="#72667B"/>
</radialGradient>
<radialGradient id="paint3_radial_28758_254628" cx="0" cy="0" r="1" gradientUnits="userSpaceOnUse" gradientTransform="translate(14.4655 15.0334) rotate(173.66) scale(0.663236 1.56891)">
<stop stop-color="#90749C" stop-opacity="0.6"/>
<stop offset="1" stop-color="#90749C" stop-opacity="0"/>
</radialGradient>
<radialGradient id="paint4_radial_28758_254628" cx="0" cy="0" r="1" gradientUnits="userSpaceOnUse" gradientTransform="translate(11.8532 14.9553) rotate(72.7585) scale(0.296528 0.876536)">
<stop stop-color="#90749C"/>
<stop offset="1" stop-color="#90749C" stop-opacity="0"/>
</radialGradient>
<radialGradient id="paint5_radial_28758_254628" cx="0" cy="0" r="1" gradientUnits="userSpaceOnUse" gradientTransform="translate(9.5583 9.24242) rotate(90) scale(10.5469 16.709)">
<stop offset="0.338542" stop-color="#573561"/>
<stop offset="0.78125" stop-color="#573561" stop-opacity="0"/>
</radialGradient>
<radialGradient id="paint6_radial_28758_254628" cx="0" cy="0" r="1" gradientUnits="userSpaceOnUse" gradientTransform="translate(12.7712 8.65649) rotate(87.9441) scale(7.62209 10.5014)">
<stop stop-color="#786480"/>
<stop offset="0.464136" stop-color="#786480" stop-opacity="0"/>
</radialGradient>
<radialGradient id="paint7_radial_28758_254628" cx="0" cy="0" r="1" gradientUnits="userSpaceOnUse" gradientTransform="translate(12.4249 14.0128) rotate(-61.6501) scale(12.2095 17.6574)">
<stop offset="0.618897" stop-color="#4C3C52" stop-opacity="0"/>
<stop offset="1" stop-color="#4C3C52"/>
</radialGradient>
<radialGradient id="paint8_radial_28758_254628" cx="0" cy="0" r="1" gradientUnits="userSpaceOnUse" gradientTransform="translate(11.7728 15.4556) rotate(-38.549) scale(12.3265 17.8266)">
<stop offset="0.749711" stop-color="#DC80FF" stop-opacity="0"/>
<stop offset="0.857055" stop-color="#DB80FF" stop-opacity="0.7"/>
</radialGradient>
<radialGradient id="paint9_radial_28758_254628" cx="0" cy="0" r="1" gradientUnits="userSpaceOnUse" gradientTransform="translate(9.5583 9.28149) rotate(76.6882) scale(6.74369 10.0955)">
<stop offset="0.877676" stop-opacity="0"/>
<stop offset="0.929664" stop-opacity="0.2"/>
<stop offset="1" stop-opacity="0"/>
</radialGradient>
<radialGradient id="paint10_radial_28758_254628" cx="0" cy="0" r="1" gradientUnits="userSpaceOnUse" gradientTransform="translate(1.95088 7.09399) rotate(38.4181) scale(14.4584)">
<stop stop-color="#502A78"/>
<stop offset="0.781471" stop-color="#45344E" stop-opacity="0"/>
</radialGradient>
<linearGradient id="paint11_linear_28758_254628" x1="6.45819" y1="5.49219" x2="10.716" y2="13.7734" gradientUnits="userSpaceOnUse">
<stop stop-color="#DCDBDF"/>
<stop offset="1" stop-color="#D4D0D7"/>
</linearGradient>
<radialGradient id="paint12_radial_28758_254628" cx="0" cy="0" r="1" gradientUnits="userSpaceOnUse" gradientTransform="translate(8.82813 9.74996) rotate(90) scale(2.65625)">
<stop stop-opacity="0.3"/>
<stop offset="1" stop-opacity="0"/>
</radialGradient>
<radialGradient id="paint13_radial_28758_254628" cx="0" cy="0" r="1" gradientUnits="userSpaceOnUse" gradientTransform="translate(7.2781 6.83789) rotate(58.8583) scale(5.13627 8.75319)">
<stop stop-color="#3B3444"/>
<stop offset="1" stop-color="#573561"/>
</radialGradient>
<radialGradient id="paint14_radial_28758_254628" cx="0" cy="0" r="1" gradientUnits="userSpaceOnUse" gradientTransform="translate(13.0594 6.19491) rotate(136.052) scale(5.00941 3.5691)">
<stop stop-color="#DAD8DD"/>
<stop offset="1" stop-color="#DAD8DD" stop-opacity="0"/>
</radialGradient>
</defs>
</svg>
