<svg  viewBox="0 0 25 25" fill="none" xmlns="http://www.w3.org/2000/svg">
<path d="M3.68359 4.06801L5.2169 8.66797L6.75025 4.06801" stroke="black" stroke-width="1.3" stroke-miterlimit="10" stroke-linecap="round" stroke-linejoin="round"/>
<path d="M14.416 4.06641H17.0993" stroke="black" stroke-width="1.3" stroke-miterlimit="10" stroke-linecap="round" stroke-linejoin="round"/>
<path d="M15.7588 4.06801V8.66797" stroke="black" stroke-width="1.3" stroke-miterlimit="10" stroke-linecap="round" stroke-linejoin="round"/>
<path d="M21.3151 4.06801H19.3984V8.66797H21.3151" stroke="black" stroke-width="1.3" stroke-miterlimit="10" stroke-linecap="round" stroke-linejoin="round"/>
<path d="M19.3984 6.36719H20.9318" stroke="black" stroke-width="1.3" stroke-miterlimit="10" stroke-linecap="round" stroke-linejoin="round"/>
<path d="M10.5836 4.0641C11.6416 4.0641 12.5003 5.0947 12.5003 6.36408C12.5003 7.63351 11.6416 8.66406 10.5836 8.66406C9.52562 8.66406 8.66699 7.63351 8.66699 6.36408C8.66699 5.0947 9.52562 4.0641 10.5836 4.0641Z" stroke="black" stroke-width="1.3" stroke-miterlimit="10" stroke-linecap="round" stroke-linejoin="round"/>
<path d="M23.9998 2.53445C23.9998 2.12776 23.8384 1.73776 23.5505 1.45022C23.263 1.16262 22.8732 1.0011 22.4665 1.0011H2.53335C2.12661 1.0011 1.73676 1.16262 1.44926 1.45022C1.16138 1.73776 1 2.12776 1 2.53445V10.201C1 11.0479 1.68656 11.7344 2.53335 11.7344H10.9665V10.1782C10.9665 9.76746 11.1314 9.37398 11.4239 9.08582C11.7164 8.79765 12.1123 8.63885 12.5229 8.64505C13.3609 8.65755 14.0333 9.3403 14.0333 10.1782V11.7344H22.4673C22.8736 11.7344 23.2634 11.5729 23.5509 11.2855C23.8384 10.998 23.9998 10.6082 23.9998 10.2018V2.53445Z" stroke="black" stroke-width="1.3" stroke-miterlimit="10" stroke-linecap="round" stroke-linejoin="round"/>
<path d="M10.9666 11.7341V14.8008H2.53335C2.12661 14.8008 1.73676 14.6392 1.44926 14.3516C1.16138 14.0641 1 13.6741 1 13.2674V10.2008C1 11.0476 1.68651 11.7341 2.53335 11.7341H10.9666Z" stroke="black" stroke-width="1.3" stroke-miterlimit="10" stroke-linecap="round" stroke-linejoin="round"/>
<path d="M14.0342 11.7341V14.8008H22.4674C22.8741 14.8008 23.264 14.6392 23.5515 14.3516C23.8393 14.0641 24.0007 13.6741 24.0007 13.2674V10.2008V10.2016C24.0007 10.608 23.8393 10.9978 23.5519 11.2852C23.2644 11.5726 22.8746 11.7341 22.4682 11.7341H14.0342Z" stroke="black" stroke-width="1.3" stroke-miterlimit="10" stroke-linecap="round" stroke-linejoin="round"/>
<path d="M20.1662 21.7C20.1662 22.9703 19.1366 24 17.8663 24H11.9188C11.309 24 10.724 23.7577 10.2928 23.3263C9.63734 22.671 8.59733 21.6309 7.5999 20.6334C7.13608 20.17 6.99765 19.4729 7.24836 18.8672C7.49945 18.2616 8.09019 17.8667 8.74564 17.8667H8.74755C9.18645 17.8667 9.60742 18.041 9.91753 18.3513C10.3668 18.8006 10.9663 19.4 10.9663 19.4V10.2001C10.9663 9.79347 11.1277 9.40347 11.4155 9.11588C11.7031 8.82834 12.0929 8.66681 12.4996 8.66681C13.3464 8.66681 14.033 9.35332 14.033 10.2001V14.8001H17.8663C19.1366 14.8001 20.1662 15.8298 20.1662 17.1001V21.7Z" stroke="black" stroke-width="1.3" stroke-miterlimit="10" stroke-linecap="round" stroke-linejoin="round"/>
</svg>
