<svg width="52" height="46" viewBox="0 0 52 46" fill="none" xmlns="http://www.w3.org/2000/svg">
<mask id="mask0_19_57" style="mask-type:alpha" maskUnits="userSpaceOnUse" x="0" y="9" width="49" height="37">
<rect x="1.5" y="10.5" width="46" height="34" rx="3.5" stroke="#FF0000" stroke-width="3"/>
</mask>
<g mask="url(#mask0_19_57)">
<rect x="-4" y="6" width="53" height="14" fill="black"/>
<rect x="-4" y="20" width="45" height="29" fill="black"/>
<rect x="29" y="32" width="20" height="17" fill="black"/>
</g>
<mask id="path-5-inside-1_19_57" fill="white">
<path d="M28 26C28 21.5817 31.5817 18 36 18H50C51.1046 18 52 18.8954 52 20V32C52 33.1046 51.1046 34 50 34H36C31.5817 34 28 30.4183 28 26V26Z"/>
</mask>
<path d="M28 26C28 21.5817 31.5817 18 36 18H50C51.1046 18 52 18.8954 52 20V32C52 33.1046 51.1046 34 50 34H36C31.5817 34 28 30.4183 28 26V26Z" stroke="black" stroke-width="6" mask="url(#path-5-inside-1_19_57)"/>
<mask id="mask1_19_57" style="mask-type:alpha" maskUnits="userSpaceOnUse" x="6" y="0" width="34" height="14">
<path d="M14.6298 6.14817L11.228 12.1482L31.2988 11.8625L14.6298 6.14817Z" stroke="#FF0000" stroke-width="2" stroke-linejoin="round"/>
<path d="M13.1335 2.14817L8.04877 11.1482L38.0488 10.7196L13.1335 2.14817Z" stroke="#FF0000" stroke-width="3" stroke-linejoin="round"/>
</mask>
<g mask="url(#mask1_19_57)">
<rect x="2.04877" y="-0.85183" width="42" height="10.9283" fill="black"/>
</g>
<path d="M8.04877 16.6655L13.9281 16.5976" stroke="black" stroke-width="3" stroke-linecap="round"/>
<path d="M8.04877 21.2964H17.9083" stroke="black" stroke-width="3" stroke-linecap="round"/>
<circle cx="36.8343" cy="26" r="2.87049" stroke="black" stroke-width="3"/>
</svg>
