<svg viewBox="0 0 18 17" fill="none" xmlns="http://www.w3.org/2000/svg">
<path d="M13.6545 9.6916L11.1545 8.4416C11.0561 8.39256 10.9465 8.37035 10.8368 8.37721C10.727 8.38407 10.621 8.41975 10.5295 8.48066L9.38185 9.24629C8.85502 8.95667 8.42147 8.52312 8.13185 7.99629L8.89748 6.84863C8.95839 6.7571 8.99407 6.65111 9.00093 6.54138C9.00779 6.43164 8.98558 6.32204 8.93654 6.22363L7.68654 3.72363C7.63473 3.619 7.55464 3.53097 7.45536 3.46953C7.35608 3.40808 7.24158 3.37567 7.12482 3.37598C6.29602 3.37598 5.50116 3.70522 4.91511 4.29127C4.32906 4.87732 3.99982 5.67217 3.99982 6.50098C4.00189 8.32371 4.72688 10.0712 6.01574 11.3601C7.30461 12.6489 9.05209 13.3739 10.8748 13.376C11.2852 13.376 11.6916 13.2951 12.0707 13.1381C12.4498 12.9811 12.7943 12.7509 13.0845 12.4607C13.3747 12.1705 13.6049 11.826 13.7619 11.4469C13.919 11.0677 13.9998 10.6614 13.9998 10.251C13.9999 10.1349 13.9676 10.021 13.9066 9.92222C13.8457 9.82342 13.7583 9.74356 13.6545 9.6916ZM10.8748 12.126C9.38348 12.1243 7.9537 11.5312 6.89917 10.4766C5.84464 9.42209 5.25147 7.99231 5.24982 6.50098C5.2497 6.06748 5.39979 5.64733 5.67456 5.31203C5.94932 4.97672 6.33178 4.74699 6.75685 4.66191L7.65373 6.45879L6.89044 7.59473C6.83341 7.68028 6.79836 7.77859 6.78841 7.88094C6.77846 7.98328 6.79392 8.0865 6.83341 8.18145C7.28059 9.24424 8.12608 10.0897 9.18888 10.5369C9.28411 10.5782 9.38811 10.595 9.4915 10.586C9.59488 10.577 9.6944 10.5424 9.78107 10.4854L10.9225 9.72441L12.7194 10.6213C12.6336 11.0469 12.4029 11.4295 12.0665 11.7039C11.7301 11.9783 11.3089 12.1275 10.8748 12.126ZM8.99982 0.250977C7.59706 0.250671 6.21811 0.613545 4.9972 1.30428C3.77629 1.99502 2.75501 2.99008 2.03277 4.19262C1.31052 5.39515 0.911915 6.7642 0.875748 8.16649C0.839581 9.56879 1.16709 10.9566 1.82638 12.1947L0.939664 14.8549C0.866215 15.0751 0.855555 15.3115 0.908881 15.5374C0.962207 15.7634 1.07741 15.97 1.24158 16.1342C1.40575 16.2984 1.61239 16.4136 1.83836 16.4669C2.06432 16.5202 2.30067 16.5096 2.52091 16.4361L5.18107 15.5494C6.27073 16.129 7.47811 16.4527 8.71156 16.496C9.94501 16.5393 11.1721 16.301 12.2997 15.7992C13.4273 15.2974 14.4258 14.5454 15.2194 13.6001C16.0129 12.6548 16.5807 11.5412 16.8796 10.3437C17.1785 9.14627 17.2007 7.89645 16.9445 6.68913C16.6882 5.48181 16.1603 4.34874 15.4008 3.37591C14.6413 2.40308 13.6701 1.61607 12.561 1.07461C11.4519 0.533155 10.234 0.251483 8.99982 0.250977ZM8.99982 15.251C7.79121 15.2518 6.6038 14.9335 5.55763 14.3283C5.48104 14.2839 5.39587 14.2563 5.30779 14.2472C5.2197 14.2382 5.13071 14.248 5.0467 14.276L2.12482 15.251L3.09904 12.3291C3.12712 12.2451 3.13705 12.1562 3.12816 12.0681C3.11927 11.98 3.09177 11.8948 3.04748 11.8182C2.28964 10.5079 1.98537 8.98424 2.18187 7.48345C2.37837 5.98265 3.06466 4.58865 4.13426 3.51769C5.20387 2.44673 6.597 1.75869 8.09755 1.56029C9.5981 1.3619 11.1222 1.66424 12.4334 2.42042C13.7445 3.1766 14.7695 4.34434 15.3493 5.7425C15.9291 7.14066 16.0313 8.69108 15.64 10.1532C15.2487 11.6154 14.3858 12.9076 13.1852 13.8293C11.9846 14.751 10.5134 15.2507 8.99982 15.251Z" fill="black"/>
</svg>
