<svg viewBox="0 0 18 15" fill="none" xmlns="http://www.w3.org/2000/svg">
<path d="M11.8469 6.85567L8.09688 4.35567C8.00273 4.29285 7.89329 4.25678 7.78024 4.25131C7.6672 4.24583 7.55479 4.27115 7.45501 4.32457C7.35523 4.37799 7.27183 4.4575 7.21371 4.55461C7.15559 4.65173 7.12493 4.7628 7.125 4.87598V9.87598C7.12493 9.98916 7.15559 10.1002 7.21371 10.1973C7.27183 10.2945 7.35523 10.374 7.45501 10.4274C7.55479 10.4808 7.6672 10.5061 7.78024 10.5007C7.89329 10.4952 8.00273 10.4591 8.09688 10.3963L11.8469 7.89629C11.9326 7.83924 12.0029 7.76189 12.0515 7.67111C12.1002 7.58034 12.1256 7.47896 12.1256 7.37598C12.1256 7.273 12.1002 7.17162 12.0515 7.08084C12.0029 6.99007 11.9326 6.91272 11.8469 6.85567ZM8.375 8.70801V6.04785L10.3734 7.37598L8.375 8.70801ZM17.307 2.80723C17.2334 2.51922 17.0924 2.25284 16.8955 2.03007C16.6987 1.80729 16.4517 1.63451 16.175 1.52598C13.4969 0.491604 9.23438 0.50098 9 0.50098C8.76562 0.50098 4.50312 0.491604 1.825 1.52598C1.54825 1.63451 1.30128 1.80729 1.10445 2.03007C0.907621 2.25284 0.766582 2.51922 0.692969 2.80723C0.490625 3.58692 0.25 5.01192 0.25 7.37598C0.25 9.74004 0.490625 11.165 0.692969 11.9447C0.766472 12.2329 0.907461 12.4994 1.1043 12.7223C1.30113 12.9452 1.54816 13.1182 1.825 13.2268C4.39062 14.2166 8.40625 14.251 8.94844 14.251H9.05156C9.59375 14.251 13.6117 14.2166 16.175 13.2268C16.4518 13.1182 16.6989 12.9452 16.8957 12.7223C17.0925 12.4994 17.2335 12.2329 17.307 11.9447C17.5094 11.1635 17.75 9.74004 17.75 7.37598C17.75 5.01192 17.5094 3.58692 17.307 2.80723ZM16.0969 11.6354C16.0731 11.7312 16.0269 11.82 15.9621 11.8946C15.8973 11.9692 15.8158 12.0273 15.7242 12.0643C13.2516 13.0189 9.04609 13.0018 9.00547 13.0018H9C8.95781 13.0018 4.75547 13.0174 2.28125 12.0643C2.18966 12.0273 2.10814 11.9692 2.04337 11.8946C1.97859 11.82 1.9324 11.7312 1.90859 11.6354C1.71875 10.9221 1.5 9.60801 1.5 7.37598C1.5 5.14395 1.71875 3.82989 1.90313 3.12051C1.92649 3.02409 1.97248 2.93462 2.03728 2.85949C2.10208 2.78436 2.18383 2.72575 2.27578 2.68848C4.66016 1.76739 8.65547 1.75098 8.98281 1.75098H9.00391C9.04609 1.75098 13.2523 1.73692 15.7227 2.68848C15.8142 2.72544 15.8958 2.78358 15.9605 2.85814C16.0253 2.93269 16.0715 3.02153 16.0953 3.11739C16.2812 3.82989 16.5 5.14395 16.5 7.37598C16.5 9.60801 16.2812 10.9221 16.0969 11.6314V11.6354Z" fill="black"/>
</svg>
