<?xml version="1.0" encoding="utf-8"?>
<!-- Generator: Adobe Illustrator 27.4.0, SVG Export Plug-In . SVG Version: 6.00 Build 0)  -->
<svg version="1.1" id="Layer_1" xmlns="http://www.w3.org/2000/svg" xmlns:xlink="http://www.w3.org/1999/xlink" x="0px" y="0px"
	 viewBox="0 0 50 50" style="enable-background:new 0 0 50 50;" xml:space="preserve">
<style type="text/css">
	.st0{fill:#C4C4C4;}
	.st1{fill:#727575;}
	.st2{fill:#AAAAAA;}
	.st3{fill:#1A2E35;}
	.st4{fill:#666A6B;}
	.st5{fill:#E59293;}
	.st6{fill:#777777;}
	.st7{fill:#EFEFEF;}
	.st8{fill:#D68A7D;}
	.st9{fill:#0E334F;}
	.st10{fill:#2E454C;}
	.st11{fill:#5CC2AF;}
	.st12{fill:#04722B;stroke:#1A2E35;stroke-width:7.879636e-02;stroke-linecap:round;stroke-linejoin:round;stroke-miterlimit:10;}
	.st13{fill:#F2AAB2;}
	.st14{fill:#00953B;stroke:#1A2E35;stroke-width:7.879636e-02;stroke-linecap:round;stroke-linejoin:round;stroke-miterlimit:10;}
	.st15{fill:#935852;}
	.st16{fill:#FFFFFF;}
	.st17{fill:url(#SVGID_1_);}
	.st18{fill:#F89F3D;}
	.st19{fill:url(#SVGID_00000176029465165002693010000007020495808268254886_);}
	.st20{fill:#B76658;}
	.st21{fill:#F7BFC9;}
	.st22{fill:#204C70;}
	.st23{fill:none;stroke:#E2E2E2;stroke-width:0.1344;stroke-miterlimit:10;}
</style>
<g>
	<g>
		<g>
			<g>
				<path class="st0" d="M45,30.8c-3.5-0.2-3.4-1.5-2.5-2.7c0.9-1.2-0.2-1.6,0.4-2.7c0.7-1.3-0.1-1.3,0.3-2.6c0.4-1.1,1-1.1,1-2.6
					c0.1-1.5,2.8-1.6,2.2,0.5c-0.6,2.1,0.9,1.6,0.7,3.1c-0.4,2.1,1.1,2,0.6,3.5C47.3,28.7,50.3,31,45,30.8z"/>
				<g>
					<rect x="45" y="23.8" class="st1" width="0.1" height="8.5"/>
				</g>
				<g>
					<path class="st1" d="M45.1,26.6L45.1,26.6c0.6-0.7,0.8-1.4,0.8-1.4l0.1,0C45.9,25.3,45.8,26,45.1,26.6z"/>
				</g>
				<g>
					<path class="st1" d="M45.1,29.2L45.1,29.2c1.1-0.7,1.4-1.4,1.4-1.4l0.1,0C46.6,27.9,46.3,28.5,45.1,29.2z"/>
				</g>
				<g>
					<path class="st1" d="M45,28.1c-1.1-0.7-1.2-1.8-1.2-1.8l0.1,0C43.9,26.3,44,27.3,45,28.1L45,28.1z"/>
				</g>
			</g>
			<g>
				<path class="st2" d="M39,29.8c-10,0-2.7-4.8-3.4-7.8c-0.7-3,0.6-4,1.2-6.5c0.7-2.6,3.7-2.8,4,0.2c0.3,3,1.6,2.9,1.5,6.3
					c-0.1,2.6,2.5,3.7,1.7,5.6C43.1,30.1,39,29.8,39,29.8z"/>
				<g>
					<rect x="38.7" y="17.3" class="st3" width="0.1" height="14.1"/>
				</g>
				<g>
					<path class="st3" d="M38.7,21.9c-1.3-1.5-1.6-2.9-1.6-2.9l0.1,0C37.2,19,37.4,20.4,38.7,21.9L38.7,21.9z"/>
				</g>
				<g>
					<path class="st3" d="M38.7,27.9c-1.8-1.5-2.1-2.9-2.2-2.9l0.1,0C36.6,25,37,26.4,38.7,27.9L38.7,27.9z"/>
				</g>
				<g>
					<path class="st3" d="M38.7,25L38.7,25c1.5-1.3,1.7-2.9,1.7-2.9l0.1,0C40.5,22.1,40.3,23.8,38.7,25z"/>
				</g>
			</g>
		</g>
		<path class="st0" d="M42.5,32.5c-1.4,0-1.2-1.4-0.2-1.4c1,0.1,0.7-1.3,1.9-1.3c1.2,0,0.7,0.8,1.8,1.1c1.1,0.4,0.7,1.5,0.1,1.5
			C45.4,32.5,42.5,32.5,42.5,32.5z"/>
	</g>
	<g>
		<g>
			<path class="st0" d="M7.7,30.9c6.5-0.3,6.3-2.8,4.7-4.9c-1.6-2.2,0.4-2.9-0.7-5c-1.3-2.5,0.2-2.4-0.6-4.9c-0.7-2-1.8-2.1-1.9-4.9
				c-0.1-2.8-5.2-3-4.1,1c1.1,3.9-1.7,3-1.2,5.8c0.7,3.8-2,3.6-1.2,6.6C3.4,27-2.1,31.4,7.7,30.9z"/>
			<g>
				<rect x="7.6" y="16.6" class="st4" width="0.1" height="15.8"/>
			</g>
			<g>
				<path class="st4" d="M7.6,21.8C6.3,20.6,6,19.4,6,19.3l0.1,0C6.1,19.3,6.4,20.5,7.6,21.8L7.6,21.8z"/>
			</g>
			<g>
				<path class="st4" d="M7.6,26.5c-2.2-1.2-2.7-2.4-2.7-2.4l0.1,0C5,24.1,5.4,25.2,7.6,26.5L7.6,26.5z"/>
			</g>
			<g>
				<path class="st4" d="M7.7,24.5L7.7,24.5c1.9-1.4,2.2-3.3,2.2-3.3l0.1,0C9.9,21.3,9.6,23.2,7.7,24.5z"/>
			</g>
		</g>
		<g>
			<path class="st2" d="M7.2,33.6c5.1,0,4.8,0,5.6,0c0.8,0,1-1.3,0.2-1.6c-0.8-0.3-1.6-0.3-1.9-1.4c-0.3-1.1-1.7-1.9-2.9-1.2
				c-1.2,0.7-0.8,1.7-2.6,1.5c-1.8-0.2-2.9,0.9-2.7,1.9c0.2,0.9,1.5,0.8,1.8,0.8C5.1,33.6,7.2,33.6,7.2,33.6z"/>
			<path class="st0" d="M14.3,34.1c1.7,0,1.5-1.8,0.3-1.7c-1.2,0.1-0.9-1.6-2.3-1.6c-1.4,0-0.8,0.9-2.2,1.4
				c-1.4,0.5-0.9,1.9-0.1,1.9C10.6,34.1,14.3,34.1,14.3,34.1z"/>
		</g>
	</g>
	<g>
		<path class="st5" d="M33.9,31.9H35v-6.8c0-0.1-0.1-0.2-0.2-0.2h-0.6c-0.1,0-0.2,0.1-0.2,0.2V31.9z"/>
		<path class="st6" d="M36,33.4H35V36c0,0.1,0.1,0.2,0.2,0.2h0.6c0.1,0,0.2-0.1,0.2-0.2V33.4z"/>
		<path class="st6" d="M15.8,33.4h-1.1V36c0,0.1,0.1,0.2,0.2,0.2h0.6c0.1,0,0.2-0.1,0.2-0.2V33.4z"/>
		<path class="st5" d="M15.8,31.9h1.1v-6.8c0-0.1-0.1-0.2-0.2-0.2H16c-0.1,0-0.2,0.1-0.2,0.2V31.9z"/>
		<g>
			<path class="st0" d="M13.6,26c0-0.3,0.3-0.6,0.6-0.6h22.2c0.3,0,0.6,0.3,0.6,0.6v1.4H13.6V26z"/>
			<path class="st0" d="M37.1,29.3v1.4c0,0.3-0.3,0.6-0.6,0.6H14.2c-0.3,0-0.6-0.3-0.6-0.6v-1.4H37.1z"/>
			<rect x="13.6" y="27.4" class="st2" width="23.4" height="2"/>
		</g>
		<path class="st2" d="M13.3,33.4h24.1c0.3,0,0.5-0.2,0.5-0.5v-0.5c0-0.3-0.2-0.5-0.5-0.5H13.3c-0.3,0-0.5,0.2-0.5,0.5v0.5
			C12.8,33.2,13,33.4,13.3,33.4z"/>
	</g>
	<g>
		<ellipse class="st7" cx="25.9" cy="43.2" rx="15.5" ry="1"/>
		<g>
			<g>
				<g>
					<path class="st8" d="M14.9,26.6c0,0,0.1,0,0.1,0c0.3,0,0.6,0.1,0.9,0.2c0.1-0.7,0.2-1.1,0.4-1.8c0.2-0.7,0.5-1.8,0.6-2.6
						c0.2-0.7,0.4-1.8,0.5-2.3c0.1-0.5,0.1-0.8,0.1-1.1c0-0.3,0,0,0-0.1c-0.1-0.1-0.2-0.3-0.2-0.5c-0.2,0-0.4,0-0.6,0
						c-0.3,0-0.7-0.1-1-0.1c0,0.1,0,0.2-0.1,0.3c-0.1,0.8-0.1,1.4-0.2,2.2c-0.1,0.8-0.4,1.3-0.4,2.3C15.2,23.9,15,25.5,14.9,26.6z"
						/>
				</g>
			</g>
			<g>
				<path class="st9" d="M15.1,28.3C15.1,28.3,15.1,28.3,15.1,28.3C15.1,28.3,15.1,28.3,15.1,28.3C15.1,28.3,15.1,28.3,15.1,28.3z"
					/>
			</g>
		</g>
		<g>
			<g>
				<path class="st3" d="M22.6,41.6c0.2,0,0.4-0.1,0.6-0.3c-0.1-0.4-0.4-0.7-0.4-0.7l-0.9,0.1v0.6C21.9,41.2,22,41.6,22.6,41.6z"/>
			</g>
			<g>
				<g>
					<g>
						<path class="st3" d="M23.2,41.6c0-0.1,0-0.2-0.1-0.2c-0.1,0.1-0.3,0.3-0.6,0.3c-0.5,0-0.7-0.4-0.7-0.4v-0.6l-0.5,0
							c0,0,0,0.7-0.2,1c0,0.1-0.1,0.1-0.2,0.2c0.2,0.1,0.4,0.2,0.4,0.2c-0.3,0-0.7,0-0.7,0s-1.1,0.3-1.2,0.5c0,0.1-0.1,0.2-0.1,0.3
							c0.2,0.1,0.4,0.1,0.9,0.1c0.7,0,2.4-0.3,3.1-0.4C23.3,42.3,23.3,41.8,23.2,41.6z"/>
					</g>
					<g>
						<path class="st10" d="M21.4,42.1c0,0-0.2-0.1-0.4-0.2c-0.2,0.2-0.3,0.3-0.3,0.3S21,42.1,21.4,42.1z"/>
					</g>
				</g>
				<g>
					<path class="st3" d="M19.3,43.3c0,0,0.3,0.1,0.9,0.1c0.5,0,1.5-0.1,1.5-0.1l0.2-0.2l0.2,0.2c0.4,0,1.2-0.1,1.2-0.1s0-0.2,0-0.6
						c-0.6,0.1-2.4,0.4-3.1,0.4c-0.4,0-0.7,0-0.9-0.1C19.3,43.1,19.3,43.3,19.3,43.3z"/>
				</g>
			</g>
		</g>
		<g>
			<g>
				<path class="st3" d="M17.2,41.7c0.2,0,0.4-0.1,0.5-0.2c-0.1-0.4-0.2-0.7-0.2-0.7l-0.9-0.1l-0.1,0.6
					C16.5,41.3,16.7,41.6,17.2,41.7z"/>
			</g>
			<g>
				<g>
					<g>
						<path class="st3" d="M17.8,41.8c0-0.1,0-0.2,0-0.3c-0.2,0.1-0.3,0.2-0.5,0.2c-0.5-0.1-0.7-0.4-0.7-0.4l0.1-0.6l-0.5,0
							c0,0-0.1,0.7-0.3,1c-0.1,0.1-0.1,0.1-0.2,0.2c0.2,0.1,0.4,0.3,0.4,0.3c-0.3,0-0.7,0-0.7,0s-1.3,0.1-1.4,0.3
							c-0.1,0.1-0.1,0.2-0.1,0.3c0.2,0.1,0.6,0.2,1,0.2c0.7,0,2.4,0,3.1,0C17.8,42.5,17.8,42,17.8,41.8z"/>
					</g>
					<g>
						<path class="st10" d="M15.9,42.1c0,0-0.2-0.1-0.4-0.3c-0.2,0.1-0.3,0.2-0.3,0.2S15.6,42.1,15.9,42.1z"/>
					</g>
				</g>
				<g>
					<path class="st3" d="M13.6,42.9c0,0,0.5,0.2,1,0.2c0.5,0.1,1.7,0.1,1.7,0.1l0.1-0.2l0.1,0.2c0.4,0,1.2,0.1,1.2,0.1
						s0.1-0.3,0-0.5c-0.6,0-2.4,0.1-3.1,0c-0.4,0-0.9-0.2-1-0.2C13.7,42.8,13.6,42.9,13.6,42.9z"/>
				</g>
			</g>
		</g>
		<g>
			<g>
				<path class="st8" d="M34.1,33.3c0,0,0.5,0.7,0.8,2.7c0.2,2,0.2,4.8,0.6,6c0,0-1.7,1.2-2,1c-0.4-0.2,0.9-1.3,0.9-1.3
					s-1.6-4.7-1.8-8.1L34.1,33.3z"/>
			</g>
		</g>
		<g>
			<g>
				<g>
					<g>
						<path class="st11" d="M29.1,42.8v-0.3l0.1,0c0.1,0,0.2,0,0.3,0.1l0.5,0.1L29.1,42.8z"/>
					</g>
				</g>
			</g>
			<g>
				<g>
					<path class="st8" d="M31.5,34l-1.6,0c-0.5,3.3,0.4,8,0.4,8s-0.9,0.1-1.3,0.2l0.1,0.3c0.1,0,0.2,0,0.4,0.1l0.9,0.3l0.7-0.3
						l0,0.1c0.2,0,0.3,0,0.3,0c-0.2-1.2,0.2-3.9,0.4-5.9C31.9,34.8,31.5,34,31.5,34z"/>
				</g>
			</g>
		</g>
		<g>
			<path class="st12" d="M30.4,14.7c-0.8,0-1.6,1.3-1.7,2.2c-0.1,0.9-0.3,2.9-0.6,3.9c0,0-0.6-0.1-1.2-0.2c-0.7-0.1-2.2-0.2-2.2-0.2
				s-0.3,0-0.1,0.8c0,0,1.8,0.6,2.7,0.9c0.9,0.3,1.7,0.1,1.8,0c0.2-0.1,0.8-1,1.2-2.4C30.6,18.3,31.8,14.7,30.4,14.7z"/>
		</g>
		<g>
			<path class="st3" d="M33.3,10.3c0,0,1.9-0.7,1.3,1.5c-0.5,2-2.1,1.8-2.2,0.5L33.3,10.3z"/>
		</g>
		<g>
			<path class="st3" d="M27.9,10c0,0-0.6-0.3-0.6-1.1c0,0,0.2-2.1,3.4-2.1s2.9,3.3,2.4,4.4c0,0,0,0.6-0.5,1.3c-0.5,0.6-1.3,1-1.3,1
				S31.3,10.6,27.9,10z"/>
		</g>
		<g>
			<g>
				<g>
					<path class="st9" d="M34.1,16.3c0.1,0,0.2,0.1,0.3,0.1c0-0.1,0-0.1-0.1-0.2L34.1,16.3z"/>
				</g>
				<g>
					<g>
						<path class="st13" d="M34.6,16.8c0-0.1-0.1-0.2-0.1-0.3c0,0,0,0,0,0C34.5,16.5,34.5,16.6,34.6,16.8z"/>
					</g>
				</g>
			</g>
			<path class="st14" d="M36,32.4c0-0.1-0.1-0.3-0.1-0.4c-0.3-1.1-0.3-2-0.1-3.7c0.3-1.9,0.5-3.2-0.3-4.8c-0.1-0.2-0.2-0.5-0.3-0.8
				c-0.4-1.7-0.4-4.2-0.7-5.8c-0.1-0.2-0.1-0.4-0.2-0.6c0,0.1,0,0.1,0.1,0.2c0,0,0,0,0,0c0-0.1-0.1-0.3-0.1-0.4
				c-0.7-1.8-2.7-1.6-2.7-1.6c-1.4,0-1.9,0.6-2.1,1.3c-0.2,0.6-0.1,1.2-0.1,1.5c0,0.7-0.9,1.4-0.5,2.5c0.3,1.1,0.8,2.6,0.9,4.2
				c0.2,1.7-0.6,2.5-0.9,5.5c-0.3,3-0.2,6.5-0.2,6.5c1.7,0.9,2.4,0.2,4.3,0.5c2,0.3,3.1-0.2,3.1-0.2C35.5,34.7,36.3,33.7,36,32.4z"
				/>
		</g>
		<g>
			<g>
				<path class="st8" d="M31.6,10.7c0,0-0.3-0.3-0.4-1c0,0-0.8,0.1-1.6-0.4c0,0,0.1,0.2,0.2,0.4c0,0-1-0.3-1.2-1.2
					c0,0-0.4,0.2-0.6,0.7l0,0c-0.5,1.6-0.6,4.6,1.4,4.6c0.1,0,0.3,0,0.4,0c0.4,0,0.7-0.1,0.7-0.1s-0.2,0.3-0.5,0.5
					c0.1,0.2,0.2,0.6,0.3,1.1c0,0,0.1,0,0.1,0c0.4,0,0.7,0.1,1.1,0.2c0.2-0.1,0.3-0.3,0.5-0.5c0,0-0.6-0.4-0.7-1.5
					c0,0,0.7-0.7,0.8-2.1c0,0,0.5,0,0.5-0.6C32.7,10.1,31.9,9.9,31.6,10.7z"/>
				<g>
					<path class="st9" d="M30.5,13.6c0,0-0.3,0.1-0.7,0.1c0,0,0.1,0.1,0.2,0.4C30.3,13.9,30.5,13.6,30.5,13.6z"/>
				</g>
			</g>
		</g>
		<g>
			<path class="st9" d="M29.3,10.6c0-0.4,0.3-0.7,0.7-0.7c0.4,0,0.7,0.3,0.7,0.7c0,0.4-0.3,0.7-0.7,0.7C29.6,11.3,29.3,11,29.3,10.6
				z M29.5,10.6c0,0.3,0.2,0.5,0.5,0.5c0.3,0,0.5-0.2,0.5-0.5c0-0.3-0.2-0.5-0.5-0.5C29.7,10.1,29.5,10.3,29.5,10.6z"/>
		</g>
		<g>
			<g>
				<path class="st9" d="M31.5,10.5h-0.1h-0.8v0.2h0.1l0,0.1c0,0,0.4,0,0.5,0c0.1,0,0.3-0.1,0.4-0.1c0-0.1,0.1-0.1,0.1-0.2H31.5z"/>
			</g>
		</g>
		<g>
			<path class="st12" d="M32.9,15.5c-0.7,0.2-0.6,1.9-0.4,3c0.2,1.1,0.6,3.4,0.6,3.4s-0.9,0.7-1.4,1.2c-0.4,0.5-1,1.2-1,1.2
				s0.4,0.2,0.5,0.9c0,0,1.5-1,2.2-1.5c0.7-0.5,1.1-1.1,1.2-1.4c0.1-0.3,0.3-2,0.2-4.1C34.8,16,34.2,15.1,32.9,15.5z"/>
		</g>
		<g>
			<path class="st15" d="M16.2,26.8c0,0,0.2,0.1,0.6,0.4c0,0,0,0.3-0.1,0.5c-0.1,0.2-0.4,0.2-0.4,0.2s-0.3-0.4-0.8-0.5
				c0,0-0.3,0-0.5,0.1c0,0-0.6,4-1.2,8.2c-0.6,4.3-1.1,7.4-1.1,7.4s-0.2,0.1-0.5,0.1c-0.3,0-0.4-0.2-0.4-0.2s0.6-2.5,1.1-6.3
				c0.5-3.9,0.8-5.1,1.1-6.7c0.3-1.6,0.3-2.3,0.3-2.3s-0.2-0.1-0.5-0.3c-0.2-0.1-0.4-0.1-0.4-0.1s0-0.2,0-0.4
				c0.1-0.2,0.3-0.4,0.3-0.4s0.1,0.1,0.5,0.3c0.3,0.2,0.6,0.2,0.6,0.2s0.3-0.2,0.6-0.2C15.7,26.6,16.2,26.8,16.2,26.8z"/>
		</g>
		<g>
			<g>
				<path class="st8" d="M15.4,26.3c0,0-0.7-0.2-0.9-0.1c-0.3,0.1-0.6,0.8-0.6,1.1c0,0.3,1,0.5,1.2,0.4c0.2,0,0.3-0.6,0.4-0.7
					c0.1-0.1,0.5-0.3,0.5-0.3S15.9,26.3,15.4,26.3z"/>
			</g>
		</g>
		<g>
			<path class="st9" d="M31.3,43c0,0-0.7,0-1.3,0.1c-0.8,0.1-1.6-0.2-1.6-0.2s0.1-0.5,0.8-0.6c0,0,0.3,0.4,0.9,0.4
				c0.5,0,1.3-0.3,1.3-0.3S31.4,42.8,31.3,43z"/>
		</g>
		<g>
			<path class="st9" d="M35.6,41.9c0,0-0.5,0.4-1,0.9c-0.5,0.6-1.4,0.8-1.4,0.8s-0.2-0.4,0.2-1c0,0,0.5,0.1,0.9-0.2
				c0.4-0.3,0.9-1,0.9-1S35.6,41.7,35.6,41.9z"/>
		</g>
		<g>
			<path class="st16" d="M32.4,11.3c0,0.1-0.1,0.2-0.2,0.2c-0.1,0-0.2-0.1-0.2-0.2c0-0.1,0.1-0.2,0.2-0.2
				C32.3,11,32.4,11.1,32.4,11.3z"/>
		</g>
		<g>
			<g>
				<path class="st9" d="M22.5,22.1c0-0.3,0-0.5,0-0.5l-1,0.3l0,0.2L22.5,22.1z"/>
			</g>
			<g>
				<g>
					<path class="st13" d="M22.5,22.1L22.5,22.1C22.5,22.1,22.5,22.1,22.5,22.1C22.5,22.1,22.5,22.1,22.5,22.1z"/>
				</g>
			</g>
			<g>
				<g>
					<g>
						<g>
							<path class="st11" d="M22,31.8c-0.1-0.3-0.1-0.7-0.2-1l0.1,0c0.1,0.4,0.1,0.7,0.2,1L22,31.8z"/>
						</g>
					</g>
				</g>
				<g>
					<g>
						<g>
							<g>
								<path class="st11" d="M22,29.7l-0.1,0c0-0.1,0-0.2,0-0.3l0.1,0C22,29.5,22,29.6,22,29.7L22,29.7z"/>
							</g>
						</g>
					</g>
					<g>
						<g>
							<polygon class="st13" points="21.9,29.4 21.9,29.4 21.9,29.4 							"/>
						</g>
					</g>
				</g>
				<g>
					<g>
						<path class="st13" d="M22,30.8C22,30.8,22,30.8,22,30.8L22,30.8C22,30.8,22,30.8,22,30.8z"/>
					</g>
				</g>
			</g>
			<g>
				<linearGradient id="SVGID_1_" gradientUnits="userSpaceOnUse" x1="19.3824" y1="26.1956" x2="19.3824" y2="14.1252">
					<stop  offset="0" style="stop-color:#D7E5F1"/>
					<stop  offset="1" style="stop-color:#FFFFFF"/>
				</linearGradient>
				<path class="st17" d="M21.8,25.2c-0.3-0.2-0.5-0.2-0.4-0.3c0.1-0.2,0.4-0.2,0.2-0.8c-0.2-0.6,0-1.2,0-1.2s-0.2,0-0.4,0.1
					c-0.3,0.1-0.9,0.3-1.3,0.2c-0.4-0.1-0.3-0.7-0.3-0.7s0.6-0.5,2-0.5l0-0.2c0,0,0.2-0.7,0.3-1.3S21.8,19,21.8,19s-0.4-0.5-0.4-1.3
					c0-0.8-0.2-1.4-0.2-1.4l0.7-0.9l1,0.3c0-0.4-0.1-0.8-0.2-1c-0.1-0.3-0.7-0.5-1.2-0.6c-0.3,0.6-0.9,1.6-1.2,1.9
					c-0.5,0.5-1.5,1.1-1.5,1.1s-0.9-1.3-1-1.8c-0.1-0.4-0.1-0.9-0.1-1.2c-0.4,0.1-0.9,0.4-1.3,0.7c0,0-0.1,0.9-0.1,2.4
					c0,1.3,0.1,3.1,0.2,3.6c0.1,1.8,0,3.6-0.1,4.3c-0.1,0.7-0.3,1-0.3,1s0.1,0.1,0.4,0.1c0.1,0,0.3,0,0.5,0c0.9,0,1.6-0.3,2.7-0.2
					c0.6,0,1.1,0.1,1.4,0.1C21.4,25.6,22.1,25.4,21.8,25.2z"/>
			</g>
		</g>
		<g>
			<path class="st18" d="M23.5,20.6c0,0,0.2-0.1,0.4-0.2c0.3-0.1,0.9-0.1,0.9-0.1s-0.1,0.5-0.5,0.7C23.9,21.2,23.5,20.6,23.5,20.6z"
				/>
		</g>
		<path class="st8" d="M24.8,17.6c-0.4-0.8-1.4-2.4-2.2-3l-0.8,2.3l1.4,1.6c0.2,0.5,0.4,0.9,0.8,1.5c0.3,0.4,0.6,1,0.6,1
			s-0.4-0.1-1.3,0.2c-0.1,0-0.3,0.1-0.4,0.1l-0.1,1.3c0.8,0,1.6,0,2-0.2c0.7-0.3,1.3-0.8,1.3-1.2C25.9,20.6,25.2,18.4,24.8,17.6z"/>
		<g>
			
				<linearGradient id="SVGID_00000067195271852407825040000012906239037818555823_" gradientUnits="userSpaceOnUse" x1="23.0959" y1="19.2168" x2="23.0959" y2="14.6169">
				<stop  offset="0" style="stop-color:#D7E5F1"/>
				<stop  offset="1" style="stop-color:#FFFFFF"/>
			</linearGradient>
			<path style="fill:url(#SVGID_00000067195271852407825040000012906239037818555823_);" d="M22.6,14.6c0.9,0.7,1.6,1.5,1.9,2
				c0.3,0.5,0.6,1,0.6,1s-0.3,0.3-0.8,0.6c-0.6,0.3-1.1,0.5-1.3,0.9c0,0-0.2-0.6-0.8-1c-0.5-0.4-0.6-0.8-0.7-1.2s-0.4-0.7-0.4-0.7
				s-0.1-0.7,0.4-1.2C22.1,14.5,22.6,14.6,22.6,14.6z"/>
		</g>
		<path class="st14" d="M24.5,16.7c-0.3-0.5-1-1.3-1.9-2c0,0,0,0,0,0c-0.2-0.2-0.7-0.4-1.1-0.5C21.1,14,20.9,14,20.9,14
			s-1.3,0.9-2.8,0c0,0-0.2,0.1-0.5,0.2c-0.4,0.1-0.9,0.4-1.3,0.7c-0.8,1-0.7,1.7-0.7,2.3c0,0.7-0.3,1.1-0.3,1.1s0.1,0.2,0.9,0.3
			c0,1,0.1,2,0.2,2.3c0.1,1.8,0,3.6-0.1,4.3c-0.1,0.7-0.3,1-0.3,1s0.1,0.1,0.4,0.1c0.1,0,0.3,0,0.5,0c0.9,0,1.6-0.3,2.7-0.2
			c0.6,0,1.1,0.1,1.4,0.1c0.1-0.1,0.2-0.2,0.3-0.3c-0.1,0.1-0.2,0.2-0.3,0.3c0.3,0,0.6,0,0.8-0.1c0.3-0.1,0.5-0.2,0.7-0.3
			c0.1,0,0.3,0,0.5,0.1c0,0-0.5-0.9-0.6-1.9c0-0.5,0-1.3,0-1.8c0,0,0-0.1,0-0.1l-1-0.1l1,0.1c0.1-1,0.2-2.4,0.3-3.2
			c0.1,0.2,0.2,0.4,0.2,0.4c0.2-0.5,0.7-0.6,1.3-0.9s0.8-0.6,0.8-0.6S24.8,17.2,24.5,16.7z"/>
		<g>
			<path class="st20" d="M24.3,20.6c0,0-0.3,0-0.7,0c-0.4,0-0.7,0.2-0.8,0.4c-0.1,0.2-0.1,0.8,0,1c0.1,0.2,0.9,0.1,1.1,0.1
				c0.2-0.1,0.1-0.5,0.3-0.7c0.1-0.1,0.3-0.4,0.3-0.4S24.4,20.7,24.3,20.6z"/>
		</g>
		<g>
			<g>
				<path class="st3" d="M16.8,7.4c0.3-0.6,1.2-1.5,2.3-1.6c1.1-0.1,2,0.6,2.3,1.2c0.3,0.6,0.3,1.7,0.3,2c0,1.3-0.9,2.4-0.9,2.4
					l-0.8-1.1l-0.5-2.6L16.8,7.4z"/>
			</g>
			<g>
				<g>
					<path class="st8" d="M20.7,9.6c0,0,0.1-2.9-1.6-2.9c-1.7,0-2.3,0.6-2.3,0.6s0,0.1-0.1,0.2l0,0c0,0,0,0,0,0c0,0,0,0,0,0
						c0,0,0,0,0,0c0,0,0,0,0,0c-0.2,0.8-1,5.3,1.7,5.2c0.4,0,0.9-0.1,0.9-0.1s-0.3,0.3-0.7,0.5c-0.1,0-0.2,0.1-0.2,0.1
						c0,0.2,0,0.5,0,0.9c0,0,0.2,0.2,1,0.2c0.8,0,1.1-0.6,1.1-0.6s-0.2-0.7-0.1-1.5c0,0,0.4-0.5,0.5-0.7c0.1-0.2,0.2-1.1,0.2-1.1
						s0.6-0.1,0.6-0.8C21.7,9.2,21,9,20.7,9.6z"/>
					<g>
						<path class="st3" d="M19.4,12.8c0,0-0.6,0.1-0.9,0.1c0,0,0,0.2,0,0.5c0.1,0,0.2,0,0.2-0.1C19.1,13.2,19.4,12.8,19.4,12.8z"/>
					</g>
				</g>
			</g>
			<g>
				<path class="st3" d="M16.8,7.4c0,0,0.5,0.2,1.1,0.2s2-0.3,2-0.3s0.2,0.8,0.3,1.3c0.1,0.5,0,1.5,0,1.5s0.3,0,0.5-0.1
					c0,0,0-0.2,0-0.4L21,8.4L20.4,7c0,0-1.3-0.7-1.3-0.6c0,0-1.1,0.2-1.1,0.2l-0.7,0.2C17.4,6.8,17.1,7.1,16.8,7.4z"/>
			</g>
		</g>
		<path class="st3" d="M23.3,39.7c-0.1-0.8,0-0.9-0.2-1.4c-0.3-0.5-0.7-3.9-0.7-5c0-0.2,0-0.3,0-0.5c0-1.3,0.3-3.6,0.4-4.5
			c0.2-1.1-0.1-2-0.2-2.5c-0.2,0-0.4,0.2-0.7,0.3c-0.5,0.2-1.1,0.1-2.2,0c-1.1-0.1-1.8,0.2-2.7,0.2c-0.2,0-0.4,0-0.5,0
			c0,0.1,0,0.2-0.1,0.3c-0.2,1.1-0.7,3.5-0.8,5.3c-0.1,1.1-0.1,3.1,0,5l0,0c0,0,0,0,0,0c0,0.1,0,0.2,0,0.3c0,1.2,0,2.4-0.1,2.9
			c-0.1,0.6,0,0.9-0.2,1.2c0,0,0.4,0.2,1.3,0.2c0,0,0,0,0,0c0,0,0,0,0,0c0.6,0,1.2-0.4,1.9,0c0,0-0.2-0.8-0.2-1.5
			c0.1-0.7,0-0.9-0.1-1.5c-0.1-0.5-0.1-3.5,0-4.5c0-0.2,0.1-0.7,0.1-1.2c0,0,0.2-1.1,0.8-1.9c0,0,0,0,0,0c0.1,1.2,0.2,2.4,0.3,3
			c0.3,1.2,1.3,5.1,1.4,5.9c0.1,0.7-0.2,1.3-0.1,1.7c0,0,0.5,0.2,1.2,0.1c0.4,0,0.6-0.2,0.8-0.3c0.1-0.1,0.2-0.1,0.3-0.2
			c0.4-0.1,0.8-0.1,0.8-0.1S23.4,40.5,23.3,39.7z"/>
		<g>
			<path class="st9" d="M19.6,9.8c0,0-0.1-0.7-0.5-0.7c-0.4,0-0.5,0.7-0.5,0.7s0.3-0.5,0.5-0.5C19.3,9.4,19.6,9.8,19.6,9.8z"/>
		</g>
		<g>
			<path class="st9" d="M30.3,10.8c0,0,0-0.5-0.3-0.5c-0.3,0-0.4,0.5-0.4,0.5s0.2-0.4,0.4-0.3C30.2,10.6,30.3,10.8,30.3,10.8z"/>
		</g>
		<g>
			<path class="st9" d="M28.4,10.8c0,0,0-0.5-0.2-0.5c-0.1,0-0.2,0.5-0.2,0.5s0.1-0.4,0.2-0.3C28.4,10.6,28.4,10.8,28.4,10.8z"/>
		</g>
		<g>
			<path class="st9" d="M17.5,9.8c0,0,0-0.7-0.3-0.7C17,9.1,17,9.8,17,9.8s0.2-0.5,0.3-0.5C17.4,9.4,17.5,9.8,17.5,9.8z"/>
		</g>
		<g>
			<path class="st9" d="M18.3,11.6l-0.5,0.2c0,0,0.2,0.2,0.4,0.2C18.2,11.8,18.2,11.7,18.3,11.6z"/>
			<path class="st21" d="M18.8,11.5l-0.5,0.2c0,0.1-0.1,0.2-0.1,0.4c0.1,0,0.2,0,0.3,0C18.8,11.8,18.8,11.5,18.8,11.5z"/>
		</g>
		<g>
			<path class="st9" d="M29.2,12.4l-0.5,0.1c0,0,0.2,0.2,0.4,0.2C29.2,12.6,29.2,12.4,29.2,12.4z"/>
			<path class="st21" d="M29.2,12.4c0,0.1-0.1,0.2,0,0.3c0,0,0,0,0.1,0c0.3-0.1,0.4-0.4,0.4-0.4L29.2,12.4z"/>
		</g>
		<path class="st3" d="M18.5,13.9c0,0,0,0.3,0.6,0.6c0,0,0.7,0,1.4-0.6c0,0,0.2,0,0.5,0.2c0,0-0.3,0.7-1.3,1.2c0,0-0.2-0.3-0.6-0.8
			c0,0-0.4,0.2-0.7,0.5c0,0-0.3-0.5-0.3-1C18.1,14,18.3,13.9,18.5,13.9z"/>
		<g>
			<path class="st3" d="M19,16.3l-0.5,0l0-0.1c0.1-0.8,0.3-1.6,0.3-1.6l0.1,0c0,0-0.2,0.8-0.3,1.5l0.3,0L19,16.3z"/>
		</g>
		<path class="st8" d="M21.2,21.2c0,0-0.2,0.3-0.2,0.6s0.1,0.7,0.1,0.7s0.7,0,1.4,0l0.1-1.3C21.9,21.3,21.2,21.2,21.2,21.2z"/>
		<g>
			<g>
				<path class="st8" d="M21,20.8c-0.2-0.1-0.6-0.1-0.9,0c-0.3,0.1-0.5,0-0.5,0.1c0,0.1,0.1,0.2,0.4,0.3l0,0c0,0,0.1,0,0.1,0.1
					c-0.2,0-0.7,0-0.8,0.1c-0.2,0.1-0.2,0.3-0.1,0.5c0.1,0.1,0.1,0.6,0.2,0.7c0.2,0.1,0.5,0.1,0.8,0.1c0.3,0,1.1-0.2,1.1-0.2
					l0.5-1.2C21.7,21.2,21.1,20.9,21,20.8z"/>
			</g>
		</g>
		<g>
			<g>
				<path class="st8" d="M30.1,24.4c-0.2,0-0.4,0.2-0.6,0.4c-0.2,0.2-0.3,0.2-0.3,0.3c0,0.1,0.1,0.1,0.3,0l0,0c0,0,0.1,0,0.1,0
					c-0.2,0.1-0.4,0.3-0.4,0.4c-0.1,0.1,0,0.3,0.1,0.3c0.1,0,0.3,0.3,0.5,0.3c0.1,0,0.3-0.1,0.5-0.3c0.2-0.1,0.6-0.6,0.6-0.6
					l-0.2-0.9C30.8,24.4,30.3,24.4,30.1,24.4z"/>
			</g>
		</g>
		<g>
			<path class="st3" d="M22.7,18.9c0,0-1-1.3-1.4-2.1c-0.4-0.8,0.2-1.6,0.3-1.7l0.1,0.1c0,0-0.7,0.8-0.3,1.5
				c0.4,0.8,1.4,2.1,1.4,2.1L22.7,18.9z"/>
		</g>
		<g>
			<path class="st3" d="M16.2,18.5c0,0,0-1.2,0.1-1.9l0.1,0c-0.1,0.7-0.1,1.9-0.1,1.9L16.2,18.5z"/>
		</g>
		<g>
			<path class="st22" d="M19,30.8c0,0-0.2-1-0.3-1.8l0.1,0c0.1,0.9,0.3,1.8,0.3,1.8L19,30.8z"/>
		</g>
		<g>
			<path class="st22" d="M21.9,27.7c0,0-0.6,0-0.9-0.3c-0.3-0.3-0.4-0.9-0.4-0.9l0.1,0c0,0,0.1,0.5,0.4,0.8c0.3,0.3,0.8,0.3,0.8,0.3
				L21.9,27.7z"/>
		</g>
		<g>
			<path class="st22" d="M16.4,27.5l0-0.1c0.7-0.2,0.7-1,0.7-1l0.1,0C17.1,26.4,17.2,27.3,16.4,27.5z"/>
		</g>
		<g>
			<path class="st22" d="M18.7,28.1c-0.2,0-0.5-0.1-0.5-0.4c-0.1-0.4-0.1-1.2-0.1-1.3l0.1,0c0,0,0.1,0.9,0.1,1.3
				c0,0.3,0.4,0.3,0.4,0.3L18.7,28.1C18.7,28.1,18.7,28.1,18.7,28.1z"/>
		</g>
		<g>
			<path class="st20" d="M17.9,10.9c-0.2,0-0.4-0.1-0.4-0.2c0-0.2,0.2-0.4,0.3-0.4V9.7H18v0.6l0,0c0,0-0.3,0.1-0.3,0.3
				c0,0.2,0.4,0.1,0.4,0.1l0,0.1C18,10.9,18,10.9,17.9,10.9z"/>
		</g>
		<g>
			<path class="st20" d="M28.8,11.8c-0.1,0-0.2,0-0.3-0.1c-0.1,0-0.1-0.1-0.1-0.2c0-0.2,0.2-0.3,0.3-0.3c0-0.3,0.1-0.7,0.1-0.7
				l0.1,0c0,0-0.1,0.4-0.1,0.7l0,0.1l-0.1,0c0,0-0.3,0-0.3,0.2c0,0,0,0.1,0,0.1c0.1,0.1,0.3,0,0.3,0l0,0.1
				C29,11.7,28.9,11.8,28.8,11.8z"/>
		</g>
		<g>
			<path class="st9" d="M27.6,10.6c0-0.4,0.3-0.7,0.6-0.7c0.3,0,0.6,0.3,0.6,0.7c0,0.4-0.3,0.7-0.6,0.7C27.9,11.3,27.6,11,27.6,10.6
				z M27.8,10.6c0,0.3,0.2,0.5,0.4,0.5c0.2,0,0.4-0.2,0.4-0.5c0-0.3-0.2-0.5-0.4-0.5C28,10.1,27.8,10.3,27.8,10.6z"/>
		</g>
		<g>
			<g>
				<path class="st9" d="M29,10.4c-0.1,0-0.3,0-0.4,0.1v0.2c0.1-0.1,0.2-0.1,0.4-0.1c0.1,0,0.3,0.1,0.4,0.1v-0.2
					C29.3,10.5,29.1,10.4,29,10.4z"/>
			</g>
		</g>
		<path class="st16" d="M18.1,10.9c0,0-0.5,0.1-0.6,0.3c-0.1,0.2-0.2,0.6-0.1,0.6c0.1,0.1,0.3-0.1,0.3-0.1s0.3,0.1,0.5-0.1
			c0,0,0.3,0.1,0.6-0.1c0,0,0.2,0,0.3-0.1c0.1-0.1-0.3-0.4-0.5-0.5C18.6,10.9,18.1,10.9,18.1,10.9z"/>
		<path class="st16" d="M31.8,14.6c0,0-0.2,0.5-1.1,0.6c0,0,0.1,0.8,0.5,0.7c0.4-0.1,0.8-1.1,0.8-1.1S32,14.7,31.8,14.6z"/>
		<path class="st16" d="M30.7,15.2c0,0-0.2,0.6-0.5,0.5c-0.3-0.1,0-1,0-1S30.4,15.1,30.7,15.2z"/>
		<path class="st16" d="M32.1,14.9c0,0,0.1-0.3-0.1-0.5c0,0-0.2,0-0.3,0c0,0,0.1,0.1,0.1,0.2l0,0.2L32.1,14.9z"/>
		<path class="st23" d="M33.3,10.3c0,0-0.1,0.8-0.3,1.3"/>
		<path class="st8" d="M15.4,26.8c0,0,0.2,0.6,0.4,0.6c0.2-0.1,0.1-0.7,0.1-0.7l-0.4-0.1L15.4,26.8z"/>
		<g>
			<path class="st8" d="M30.9,24.3l-0.1,0.1l-0.2,0.3l0.1,0.5l0.1,0l0.2,0l0.3-0.2C31.2,24.6,31,24.3,30.9,24.3z"/>
		</g>
	</g>
</g>
</svg>
