<?xml version="1.0" encoding="utf-8"?>
<!-- Generator: Adobe Illustrator 27.4.0, SVG Export Plug-In . SVG Version: 6.00 Build 0)  -->
<svg version="1.1" id="Layer_1" xmlns="http://www.w3.org/2000/svg" xmlns:xlink="http://www.w3.org/1999/xlink" x="0px" y="0px"
	 viewBox="0 0 50 50" style="enable-background:new 0 0 50 50;" xml:space="preserve">
<style type="text/css">
	.st0{fill:#ECECEC;}
	.st1{fill:#F5F5F5;}
	.st2{fill:#1A2E35;}
	.st3{fill:#8C8C8C;}
	.st4{opacity:0.2;}
	.st5{fill:#C4C4C4;}
	.st6{fill:#FF735D;}
	.st7{fill:#00752A;stroke:#1A2E35;stroke-width:6.979212e-02;stroke-linecap:round;stroke-linejoin:round;stroke-miterlimit:10;}
	.st8{fill:#00752A;stroke:#1A2E35;stroke-width:7.055965e-02;stroke-linecap:round;stroke-linejoin:round;stroke-miterlimit:10;}
	.st9{fill:#00953B;stroke:#1A2E35;stroke-width:7.055965e-02;stroke-linecap:round;stroke-linejoin:round;stroke-miterlimit:10;}
	.st10{opacity:0.3;}
	.st11{opacity:0.3;fill:#FFFFFF;}
	.st12{fill:#00953B;}
</style>
<g>
	<g>
		<g>
			<g>
				<path class="st0" d="M5.3,36.4c0.1,0,0.2,0.1,0.2,0.2c0,0.1,0.1,0.3,0.2,0.3c-0.1,0.1,0,0.4,0.1,0.4c-0.1,0-0.1,0.1,0,0.1
					c0,0.1,0.1,0.1,0.1,0.1c0.2,0.1,0.3,0.2,0.5,0.3c0,0,0,0.1,0,0.1c0,0,0.1,0,0.1,0.1C6.6,38,6.7,38,6.9,38c0.1,0,0.1,0,0.2,0
					c0,0,0,0,0.1,0c0,0,0.1,0,0.1,0c0.2,0,0.4-0.1,0.6-0.2c0,0,0.1,0,0.2,0l1,0.4c0,0,0.4,0.1,0.5,0.1c0.1,0,1.3-0.2,1.3-0.2
					s1.2,0,1.4,0c0,0,0.1,0,0.8,0.2l0.6,0.5L13.2,40h1.1l0,0c0,0,0,0,0,0h0.9c0,0-0.7-1.2-0.8-1.4c0,0,0,0,0,0l0,0c0,0,0,0,0,0
					l0.7-1.1l1.1-0.1c0,0,0.4-0.2,0.6-0.3c0,0,0,0,0,0c0,0,0.1,0,0.1-0.1c0,0,0,0,0,0c0,0,0,0,0,0l0,0c0,0,0,0,0,0c0,0,0,0,0.1,0
					c0.1,0.1,0.2,0.1,0.4,0.1c-0.1,0.1-0.1,0.2,0,0.2c0.1,0.1,0.2,0,0.2-0.1c0,0.1,0.2,0.1,0.2,0c0.1-0.1,0-0.2,0-0.3
					c0.1,0.1,0.2,0.1,0.2,0c0.1-0.1,0-0.2,0-0.2c0.1,0,0.1,0,0.2,0c0.1,0,0.1,0,0.1-0.1c0,0,0,0,0,0c-0.1,0-0.1-0.1-0.2-0.1
					c0-0.1-0.1-0.2-0.2-0.2c0.1,0,0.1,0,0.2-0.1c-0.1-0.1-0.3-0.2-0.4-0.2c0.1,0,0.1-0.1,0.2-0.1c-0.1-0.1-0.3-0.2-0.4-0.2
					c0,0,0.1,0,0.1-0.1c-0.1,0-0.2-0.1-0.3,0l0,0c0,0,0-0.1,0-0.1c0,0-0.1,0-0.1,0.1c0,0,0-0.1,0-0.1c0,0,0,0-0.1,0
					c-0.3-0.2-0.6-0.3-0.9-0.3c0.1-0.1,0.1-0.2,0-0.3c-0.1-0.1-0.2-0.1-0.2-0.2c-0.2-0.1-0.3-0.3-0.4-0.5c-0.1-0.1-0.1-0.2-0.3-0.2
					c0,0-0.1,0-0.1,0c0,0-0.1-0.1-0.1-0.1c0,0-0.1-0.1-0.1,0c0-0.1,0-0.2-0.1-0.2c-0.1-0.1-0.2-0.1-0.2-0.2c0,0-0.1-0.1-0.1,0
					c-0.1-0.2-0.3-0.2-0.5-0.2c-0.1,0-0.1,0-0.2,0c0,0-0.1,0-0.1,0c0,0-0.1,0-0.1,0c-0.2-0.1-0.3,0-0.5,0c-0.1,0-0.2,0.1-0.3,0.1
					c-0.1,0-0.2,0.1-0.2,0.2c-0.1,0.1-0.3,0.2-0.4,0.3c-0.1,0-0.2,0-0.2,0.1c-0.1,0-0.1,0.2,0,0.2c-0.1,0-0.2,0-0.2,0
					c0,0.1,0,0.2,0,0.2c-0.1,0-0.2,0.1-0.1,0.2c-0.1,0-0.1,0-0.2,0c-0.2,0-0.4-0.2-0.6-0.1c0,0-0.1-0.1-0.1-0.1
					c-0.1-0.2-0.2-0.2-0.4-0.3c0,0-0.1-0.2-0.2-0.1c-0.1,0-0.2-0.1-0.3-0.1c-0.1,0-0.2,0-0.3,0c-0.2,0-0.2,0.2-0.3,0.3
					c-0.1,0.1-0.2,0.1-0.2,0.2c-0.1-0.1-0.2,0-0.3,0.1c-0.1,0-0.2,0-0.3,0c-0.1,0-0.2,0-0.3,0.1c-0.1,0.1-0.1,0.2,0,0.2
					c-0.1,0-0.1,0.2-0.1,0.3C7.5,35,7.4,35,7.3,35c-0.2-0.1-0.3-0.1-0.5-0.2c-0.1,0-0.1,0-0.2,0c0-0.1-0.2-0.2-0.4-0.1
					c-0.1,0-0.2,0.2-0.3,0.3c-0.1,0.1-0.1,0.2-0.1,0.2c-0.1,0-0.2,0.2-0.1,0.2c-0.1,0-0.2,0.1-0.2,0.1c-0.1,0.1-0.1,0.2,0,0.2
					c-0.1,0.1-0.2,0.2-0.2,0.3c0,0,0,0.1,0,0.1C5.2,36.3,5.3,36.3,5.3,36.4z M8.9,37l0,0.1L8.9,37C8.8,37,8.9,37,8.9,37z M9.3,36.7
					L9.3,36.7c0.1,0,0.1,0,0.1,0l0.1,0l0.1,0.7L9,37.1l0-0.1C9.1,36.9,9.2,36.8,9.3,36.7z M13.3,36.6C13.3,36.6,13.3,36.6,13.3,36.6
					C13.3,36.6,13.3,36.6,13.3,36.6L13.3,36.6l0,0.1C13.3,36.7,13.3,36.6,13.3,36.6z M13.2,36.5l0,0.2l-0.4,0.3c0,0,0,0,0,0
					c0,0-0.1-0.1-0.1-0.1l0,0l-0.6-0.5l0.3-0.4l0.3-0.2c0,0,0,0,0,0c0.1,0.1,0.1,0.2,0.2,0.3c0,0.1,0.1,0.2,0.2,0.2
					C13,36.4,13,36.5,13.2,36.5C13.1,36.5,13.1,36.5,13.2,36.5z M11.8,36.6L11.8,36.6C11.8,36.6,11.8,36.6,11.8,36.6L11.8,36.6z
					 M12.1,36.7L12,36.6C12,36.6,12.1,36.7,12.1,36.7z M11.4,37.8L11.4,37.8C11.5,37.8,11.4,37.8,11.4,37.8c0,0-0.2-0.3-0.3-0.5
					c-0.1-0.2-0.5-0.5-0.7-0.7c0,0,0.1,0,0.1,0c0.1,0,0.1,0,0.2,0c0.1,0,0.1,0,0.2-0.1c0,0,0-0.1-0.1-0.1c0.1-0.1,0.2-0.3,0.1-0.4
					c0,0,0,0,0,0c0.1,0,0.2-0.1,0.2-0.2c0,0,0,0,0,0c0.1,0.2,0.2,0.7,0.3,0.9c0.2,0.2,0.5,0.3,0.5,0.3l0.6,0.5l0.1,0.2l0,0.2
					C12.3,37.8,11.6,37.8,11.4,37.8z M11,37.1l0.1,0.1c0,0-0.4,0-0.6,0c-0.2,0-0.3-0.2-0.3-0.2l-0.2-0.5c0.1,0,0.3-0.1,0.4-0.1
					l-0.1,0L11,37.1z M10.6,37.7c-0.3-0.1-0.7-0.4-0.7-0.4l-0.1-0.3c0.1,0,0.2,0.1,0.5,0.2c0.4,0.2,0.9,0.2,0.9,0.2l0.2,0.4
					C11.3,37.8,10.9,37.9,10.6,37.7z M9.6,36.6c0,0,0.1,0,0.1,0c0,0,0.1,0,0.1,0l0.2,0.4L9.7,37L9.6,36.6z M12,35.8l0.1,0.3
					l-0.2,0.3l-0.6-0.6l0,0.2l0.1,0.3l0.2,0.2c0,0,0.1,0,0.1,0l-0.1,0l-0.2-0.2l-0.1-0.5c0,0,0,0,0.1,0c0,0.1,0.2,0.1,0.3,0
					C11.7,35.8,11.9,35.8,12,35.8z M12.2,35.7c0,0,0.1,0,0.1,0l0,0.1L12.2,36l-0.1-0.3C12.1,35.8,12.1,35.8,12.2,35.7
					C12.2,35.8,12.2,35.8,12.2,35.7C12.3,35.7,12.3,35.7,12.2,35.7z M12.5,35.7C12.5,35.7,12.5,35.8,12.5,35.7L12.5,35.7L12.5,35.7
					C12.5,35.7,12.5,35.7,12.5,35.7z M14.4,36.5c0.1,0.1,0.2,0,0.3-0.1l0,0.5c0,0-0.3,0.3-0.5,0.5c-0.1,0.2-0.3,0.8-0.3,0.8
					c0,0,0,0,0,0c-0.2-0.1-0.4-0.2-0.6-0.3c0,0,0-0.2-0.1-0.4c0-0.1-0.2-0.2-0.3-0.3c0,0,0.4-0.4,0.6-0.6l0,0l0,0c0,0,0,0,0,0
					c0.1,0.1,0.2,0,0.3,0c0.1,0.1,0.2,0,0.2-0.1C14.2,36.6,14.4,36.6,14.4,36.5z M14.8,36.5c0.1,0,0.2,0,0.2,0l0,0.2l-0.3,0.2
					L14.8,36.5z M15.3,36.5L15.3,36.5L15.3,36.5C15.2,36.5,15.3,36.5,15.3,36.5z M16,37.1l0.1-0.3l0,0l0-0.1h0l0,0c0,0,0,0,0,0
					c0.1,0.1,0.3,0.1,0.4,0c0,0,0,0,0,0.1l-0.1,0l0,0L16,37.1z M15,37.2l0.2-0.2l0,0l0.4-0.3c0.1,0,0.3,0.1,0.4,0.1l0,0l0,0
					l-0.1,0.4L15,37.2z M14.6,37.5c0.1-0.1,0.1-0.1,0.1-0.1l0,0c0,0,0,0,0,0C14.7,37.4,14.6,37.4,14.6,37.5z M14.2,38.4
					C14.2,38.4,14.2,38.4,14.2,38.4c0,0,0-0.2,0.1-0.5c0,0,0-0.1,0-0.1c0,0,0,0,0,0L14.2,38.4z M14.4,37.7
					C14.4,37.7,14.4,37.7,14.4,37.7C14.4,37.7,14.4,37.7,14.4,37.7z M14.4,37.8C14.4,37.8,14.4,37.8,14.4,37.8
					C14.4,37.8,14.4,37.8,14.4,37.8z M8.6,37.6c0-0.1,0.1-0.1,0-0.2c0.1,0,0.1,0,0.1-0.1c0-0.1,0-0.1,0-0.2l0.2,0l0.5,0.3
					c0,0,0.2,0.2,0.3,0.3c0.2,0.1,0.8,0.4,0.8,0.4s0,0,0,0l0,0c0,0,0,0,0,0c0,0-0.5,0.2-0.9,0.2c-0.4,0-0.6-0.1-0.6-0.1L8.6,37.6z
					 M8.7,38l-0.5-0.2c0,0,0,0,0,0c0,0,0.1-0.1,0.1-0.1L8.7,38z"/>
			</g>
			<g>
				<path class="st0" d="M45.9,19c0.1-0.4-0.5-0.7-0.9-0.7c-0.2,0-0.4,0-0.6-0.1c-0.4-0.1-0.6-0.7-0.9-0.8c-0.3-0.1-0.6,0-0.9,0.1
					c-0.3,0.1-0.6,0.3-0.9,0.3c-0.3,0-0.6-0.1-0.8,0c-0.2,0.1-0.3,0.3-0.4,0.4c-0.2,0.1-0.4,0.1-0.6,0.2s-0.4,0-0.6,0.1
					C39.1,18.6,39,18.8,39,19L45.9,19z"/>
			</g>
			<g>
				<path class="st0" d="M27.3,12.2c0.1-0.4-0.5-0.7-0.9-0.7c-0.2,0-0.4,0-0.6-0.1c-0.4-0.1-0.6-0.7-0.9-0.8c-0.3-0.1-0.6,0-0.9,0.1
					c-0.3,0.1-0.6,0.3-0.9,0.3c-0.3,0-0.6-0.1-0.8,0c-0.2,0.1-0.3,0.3-0.4,0.4c-0.2,0.1-0.4,0.1-0.6,0.2c-0.2,0-0.4,0-0.6,0.1
					c-0.2,0.1-0.3,0.3-0.3,0.5L27.3,12.2z"/>
			</g>
			<g>
				<path class="st1" d="M37.6,13.2c0-0.2-0.3-0.4-0.6-0.5c-0.1,0-0.2,0-0.4,0c-0.2-0.1-0.3-0.4-0.6-0.5c-0.2-0.1-0.4,0-0.6,0.1
					c-0.2,0.1-0.3,0.2-0.5,0.2c-0.2,0-0.4-0.1-0.5,0c-0.1,0.1-0.2,0.2-0.3,0.3c-0.1,0.1-0.2,0.1-0.4,0.1c-0.1,0-0.2,0-0.4,0.1
					c-0.1,0.1-0.2,0.2-0.2,0.3L37.6,13.2z"/>
			</g>
			<g>
				<path class="st1" d="M11.1,10.9c0-0.2-0.3-0.4-0.6-0.5c-0.1,0-0.2,0-0.4,0C10,10.4,9.9,10,9.6,9.9c-0.2-0.1-0.4,0-0.6,0.1
					c-0.2,0.1-0.3,0.2-0.5,0.2c-0.2,0-0.4-0.1-0.5,0c-0.1,0.1-0.2,0.2-0.3,0.3c-0.1,0.1-0.2,0.1-0.4,0.1c-0.1,0-0.2,0-0.4,0.1
					c-0.1,0.1-0.2,0.2-0.2,0.3L11.1,10.9z"/>
			</g>
			<g>
				<path class="st1" d="M12.1,20.9c0.1-0.4-0.5-0.7-0.9-0.7c-0.2,0-0.4,0-0.6,0c-0.4-0.1-0.6-0.6-0.9-0.8c-0.3-0.1-0.6,0-0.9,0.1
					c-0.3,0.1-0.6,0.3-0.9,0.3c-0.3,0-0.6-0.1-0.8,0c-0.2,0.1-0.3,0.3-0.4,0.4c-0.2,0.1-0.4,0.1-0.6,0.2c-0.2,0-0.4,0-0.6,0.1
					c-0.2,0.1-0.3,0.3-0.3,0.5L12.1,20.9z"/>
			</g>
			<g>
				<path class="st2" d="M48.7,40c0,0-10.8,0-24.1,0c-13.3,0-24.1,0-24.1,0c0,0,10.8,0,24.1,0C37.9,39.9,48.7,39.9,48.7,40z"/>
			</g>
			<g>
				<g>
					<path class="st2" d="M16.6,38.7C16.6,38.7,16.6,38.7,16.6,38.7l0-0.1L16.6,38.7c0.1,0,0.2,0.2,0.2,0.5c0.1,0.2,0.1,0.4,0.2,0.5
						c0,0.1,0.1,0.2,0,0.2c0,0,0-0.1-0.1-0.2c0-0.1-0.1-0.3-0.2-0.5C16.7,39,16.6,38.8,16.6,38.7L16.6,38.7
						C16.6,38.7,16.6,38.7,16.6,38.7z"/>
				</g>
				<g>
					<path class="st2" d="M17.4,39.1c0,0,0,0.2,0,0.4c0,0.2,0,0.4-0.1,0.4s0-0.2,0-0.4C17.3,39.2,17.4,39.1,17.4,39.1z"/>
				</g>
				<g>
					<path class="st2" d="M16.3,39.3c0,0,0.1,0.1,0.3,0.3c0.1,0.2,0.2,0.3,0.2,0.3c0,0-0.1-0.1-0.3-0.3
						C16.4,39.5,16.3,39.4,16.3,39.3z"/>
				</g>
				<g>
					<g>
						<path class="st2" d="M27,39c0,0,0.1,0.2,0.2,0.5c0.1,0.3,0.2,0.5,0.2,0.5c0,0-0.1-0.2-0.2-0.5C27.1,39.2,27,39,27,39z"/>
					</g>
					<g>
						<path class="st2" d="M27.5,38.5c0,0,0,0.1,0,0.2c0,0.1,0,0.3,0,0.5c0,0.2,0,0.4,0,0.5c0,0.1,0,0.2,0,0.2c0,0,0-0.1,0-0.2
							c0-0.1,0-0.3,0-0.5c0-0.2,0-0.4,0-0.5C27.5,38.6,27.5,38.5,27.5,38.5z"/>
					</g>
					<g>
						<path class="st2" d="M28.1,39.2c0,0,0,0.2-0.1,0.4c0,0.2-0.1,0.4-0.1,0.4c0,0,0-0.2,0-0.4C28,39.4,28,39.2,28.1,39.2z"/>
					</g>
				</g>
			</g>
			<g>
				<path class="st3" d="M19.9,39.9c0,0,2-3.7,2.5-4.3c0.5-0.6,2.8-1.6,3.6-1.9c0.8-0.3,4.7-0.1,4.9-0.3c0,0,0.5-1,0.8-1.6
					c0.3-0.6,2.3-2.3,2.3-2.3l0.3,0.1l-2,1.8L32,31.9c0,0,1.3,0.1,1.7,0c0.4-0.1,0.9-0.5,0.9-0.5l0.7-1.6l0.3,0.1L35,31.3l1.1-0.3
					v0.3c0,0-0.6,0-1.7,0.5c-1.1,0.5-2.6,0.4-2.6,0.4l-0.5,1.2c0,0,1,0.1,2.1-0.2c1-0.3,2.2-1.1,2.2-1.1l0.6-2.4l1.2,0.3l-0.9,0.1
					l-0.4,2l1.9-1l0.1-1l0.3,0.1l-0.1,1l0.6-0.3l0.2,0.2l-1.1,0.3l-1.4,0.9c0,0-0.6,0.5-1,0.8c-0.4,0.3-2.3,1-2.3,1s1.4,0.5,2.7,0.6
					c1.3,0.1,1.7-0.2,1.7-0.2l2-2.3l0.5,0.2l-1.5,1.7l2.2-1l1.5,0.4l-4.3,1.5c0,0-1.1,0.4-1.5,0.4c-0.4,0-3.8-0.5-3.8-0.5
					s-4.1,0-4.6,0c-0.5,0-2.5,0.6-3.1,1.3c-0.5,0.7-0.8,1.4-0.8,1.4l0,2.2H19.9z"/>
				<path class="st3" d="M25.1,34.1c0,0,0.1-0.6,0.3-1.1c0.2-0.4,1.8-1.8,1.8-1.8l2.1-1.2l0.9-0.2l0.7-0.6l0.4-1.8h0.4
					c0,0-0.6,2.3-1,2.7C30.2,30.5,29,31,29,31l-1.8,1.5l-0.4,0.5l0.1,0.9L25.1,34.1"/>
				<polygon class="st3" points="28.3,26.4 28.1,27.7 28.7,28.3 29.3,26.8 29.5,27 28.8,28.5 29.7,29.8 29.2,30 28.1,28.5 
					25.8,26.8 26.2,26.5 27.7,27.6 28.1,26.4 				"/>
				<path class="st3" d="M25.3,28.2c0,0,0.1,2,0.1,2l-1.2-1l-0.5,0.4c0,0,2.5,2.4,2.6,2.4c0,0,0.7-0.6,0.7-0.6l-1.2-1L25.5,28
					L25.3,28.2z"/>
				<path class="st4" d="M24.4,30.2c0,0,0.1,0,0.3,0c0.1,0,0.5-0.2,0.5-0.2l-0.3-0.3c0,0-0.5,0-0.6,0c0,0-0.2,0.2-0.2,0.2L24.4,30.2
					z"/>
				<path class="st3" d="M15,30.7c0.1,0.1,2.1,1.2,2.1,1.2l3.9,0.2c0,0,0.9,0.8,1.1,1.7c0.2,0.9,0.3,1.6,0.3,1.6l0.8-0.5
					c0,0-0.5-1.9-0.9-2.4C22.1,32,21.1,31,21.1,31l0.1-1.9h-0.3l0,1.6L20,30.1l0.2-0.8l-0.5-0.1l-0.1,0.6l-1-0.7l-1,0.3l2.2,1.4
					l0.9,0.8l-2.9-0.3L17,29.6l-0.4,0.1l0.7,1.7l-1.9-1.1L15,30.7z"/>
				<path class="st4" d="M15.1,30.7c0.1,0.1,0.2,0.1,0.3,0.2c0.2-0.1,0.3-0.2,0.4-0.3l-0.3-0.2L15.1,30.7L15.1,30.7z"/>
				<path class="st4" d="M16.9,30.5l-0.1-0.2l0.4,0l0.1,0.2C17.3,30.4,17.1,30.5,16.9,30.5z"/>
				<path class="st5" d="M14.4,26.5c-0.3-0.1-0.6,0-0.8,0.1c0.1,0.1,0.2,0.1,0.2,0.2c-0.4,0.1-0.9,0.3-1.2,0.6
					c0.2,0.1,0.4,0.2,0.5,0.4c-0.5,0.1-0.9,0.3-1.3,0.7c0.2,0.1,0.4,0.2,0.6,0.2c-0.3,0.1-0.5,0.3-0.6,0.6c-0.2,0.1-0.3,0.2-0.5,0.4
					c0,0-0.1,0.1-0.1,0.1c-0.1,0.2,0.1,0.3,0.3,0.3c0.2,0,0.4-0.1,0.5,0c-0.2,0.1-0.3,0.5-0.1,0.7c0.2,0.2,0.5,0.2,0.7,0
					c-0.2,0.2-0.3,0.6-0.1,0.9c0.2,0.2,0.7,0.2,0.7-0.1c-0.1,0.2,0.3,0.4,0.5,0.2c0.2-0.2,0.1-0.5-0.1-0.7c0.4,0.1,0.8,0,1.1-0.2
					c0.2,0.2,0.7,0,0.7-0.3c0.3,0.2,0.8,0.1,1.1-0.1c0.6,0.2,1.2,0,1.8-0.1c0.2-0.1,0.5-0.2,0.7-0.4c0.3,0.1,0.6,0,0.8-0.2
					c0.3,0.2,0.8,0.1,1-0.2c0.2,0.4,0.7,0.5,1.1,0.3c0.1,0.3,0.6,0.5,0.8,0.2c0.1,0.3,0.5,0.4,0.7,0.2c0.2,0.3,0.7,0.3,0.9,0
					c0.2,0.2,0.6,0,0.9-0.1c0.2-0.1,0.4-0.1,0.6-0.2s0.2-0.4,0.1-0.5c0.3,0,0.5-0.3,0.6-0.5c0.2-0.3,0.3-0.6,0.5-0.8
					c0.3,0.1,0.6-0.2,0.6-0.5c0.3,0,0.5,0,0.8-0.1c-0.1,0-0.1,0.1,0,0.2s0.1,0.1,0.2,0.1c0.5,0,1,0,1.6,0c0.1,0.3,0.7,0.3,0.8,0
					c0.1,0.2,0.5,0.1,0.5-0.1c0.1,0.2,0.2,0.3,0.4,0.2c0.1,0.4,0.6,0.6,1,0.5c0.5-0.1,0.7-0.8,0.5-1.2c-0.2-0.3-0.6-0.5-0.9-0.4
					c0-0.3-0.3-0.6-0.6-0.7c0.2,0,0.2-0.3,0.1-0.4c-0.1-0.1-0.3-0.1-0.4-0.2c0.2-0.2,0.2-0.5,0-0.6c0.2,0,0.3-0.1,0.3-0.2
					c0-0.2-0.1-0.3-0.3-0.3c0.1,0,0.2-0.1,0.3-0.1c-0.1-0.1-0.2-0.2-0.3-0.2c0.3-0.2,0-0.8-0.3-0.8c0.2-0.1,0.2-0.4,0.1-0.6
					c-0.1-0.2-0.4-0.3-0.6-0.1c0.2-0.2,0.1-0.5-0.1-0.6c-0.2-0.1-0.4-0.2-0.7-0.2c-0.5-0.1-0.9-0.4-1.3-0.8c0-0.3-0.4-0.5-0.7-0.6
					c-0.3-0.1-0.7-0.2-1-0.3c-0.5-0.1-1-0.3-1.5-0.1c-0.1,0-0.2,0.1-0.3,0.1c-0.1,0-0.2,0-0.3,0c-0.2,0-0.3,0-0.5,0
					c-0.5,0-1.2,0-1.4,0.5c0-0.2-0.3,0-0.4,0.1c-0.2,0.2-0.5,0.3-0.7,0.5c-0.2,0.2-0.4,0.4-0.4,0.7c-0.1-0.1-0.3-0.1-0.4,0
					c-0.1,0.1-0.2,0.2-0.4,0.3c-0.1,0-0.2,0-0.3,0c-0.4,0-0.6,0.4-0.8,0.7c-0.3,0.6-0.8,1-1.3,1.4c-0.3,0.2-0.5,0.3-0.7,0.6
					c-0.2,0.3-0.2,0.6,0,0.9c-1,0-1.9,0.4-2.7,0.9c-0.1,0-0.1-0.1-0.2-0.1c-0.1,0.1-0.1,0.2-0.1,0.3c0-0.1-0.1-0.2-0.2-0.2
					C14.4,26.3,14.4,26.4,14.4,26.5"/>
				<path class="st5" d="M31.7,27.4c0,0.3,0.3,0.7,0.7,0.6c-0.4,0.4-0.3,1.1,0.2,1.3c-0.1-0.1-0.4,0.1-0.3,0.3
					c0.1,0.2,0.3,0.2,0.5,0.2s0.4-0.1,0.5,0c0.2,0,0.3,0.1,0.5,0.2c0.2,0,0.4-0.1,0.3-0.2c0.4,0.1,0.9,0.3,1.3,0.4
					c0.2,0,0.3,0.1,0.5,0.1c0.2,0,0.3-0.1,0.5-0.1c0.1,0,0.2,0.1,0.3,0.2c0.2,0.1,0.4,0.1,0.6,0c0.2,0.6,1.2,0.6,1.4,1.1
					c0.1,0.2,0.1,0.4,0.1,0.6c0.1,0.2,0.3,0.4,0.4,0.3c-0.1,0.5,0.4,1,0.8,1.3c0.2,0.2,0.5,0.3,0.8,0.2c0.2,0.3,0.6,0.4,0.9,0.3
					c0.5,0.2,1.1,0.4,1.7,0.5c0.1,0,0.2,0,0.3,0c0.1,0,0.1-0.1,0.2-0.1c0.1-0.1,0.3-0.1,0.5-0.1c0.5,0,0.9-0.2,1.3-0.4
					c0.1,0,0.2-0.1,0.3-0.2c0.1-0.1,0-0.2-0.1-0.3c0.5-0.3,0.9-0.5,1.4-0.8c0.1-0.1,0.3-0.2,0.4-0.3c0.1-0.2,0-0.4-0.1-0.4
					c0.5-0.2,0.7-0.8,0.4-1.2c0.4-0.1,0.6-0.5,0.5-0.8c0.1-0.2,0.4-0.3,0.6-0.5c0.2-0.1,0.5-0.3,0.4-0.6c0-0.1-0.1-0.2-0.1-0.3
					c-0.2-0.3-0.5-0.5-0.7-0.7c0.2-0.2,0.1-0.5-0.1-0.7c-0.2-0.2-0.4-0.3-0.7-0.3c0.2-0.2,0.1-0.7-0.3-0.7c0.2-0.2,0-0.5-0.2-0.7
					c-0.3-0.3-0.6-0.7-1-0.8c-0.4-0.1-0.9,0-1.1,0.4c-0.1-0.2-0.3-0.1-0.5-0.1c-0.5,0.2-1,0.3-1.6,0.5c-0.3,0.1-0.7,0.1-0.9-0.1
					c0.2-0.2,0.1-0.6-0.2-0.8c0.2-0.2,0.2-0.5,0-0.7c-0.2-0.2-0.5-0.2-0.8-0.3c-0.3,0-0.6,0-0.8-0.1c-0.3-0.1-0.6-0.4-0.9-0.2
					c0.1-0.3-0.4-0.3-0.6-0.5c-0.4-0.3-0.6-0.8-1-1c-0.3-0.1-0.5-0.1-0.8,0c-0.3,0.1-0.6,0.3-0.9,0.4c-0.3-0.2-0.5,0.3-0.6,0.4
					c-0.6,0.2-0.9,0.3-1.3,0.9c-0.2,0-0.3,0-0.4,0.2c-0.5-0.3-1.2,0.3-1.8,0.2c-0.2,0-0.3-0.1-0.5-0.1c-0.2,0-0.3,0.1-0.4,0.3
					c-0.3,0.1-0.7,0.2-0.9,0.5c-0.2,0.3-0.1,0.8,0.3,0.8l-0.6,1.2L31.7,27.4z"/>
				<g>
					<path class="st2" d="M43.9,31.7C43.9,31.7,43.9,31.7,43.9,31.7C43.9,31.8,43.9,31.8,43.9,31.7c0,0.1,0,0.1-0.1,0.2
						c0,0-0.1,0.1-0.2,0.1c-0.1,0-0.2,0-0.3,0l0,0c0,0.1,0,0.1-0.1,0.2c-0.1,0-0.1,0.1-0.2,0.1c-0.1,0-0.2,0-0.2-0.1
						c-0.1,0-0.2-0.1-0.2-0.1l0,0c0,0.1,0,0.2-0.1,0.3c0,0.1-0.1,0.1-0.2,0.1c-0.1,0-0.1,0-0.2-0.1c-0.1-0.1-0.2-0.2-0.2-0.3l0,0
						c0,0.1,0,0.2-0.1,0.2c-0.1,0.1-0.1,0.1-0.2,0.1c-0.1,0-0.1,0-0.2-0.1c-0.1,0-0.1-0.1-0.1-0.1c-0.1-0.1-0.1-0.2-0.1-0.2
						c0,0,0,0,0-0.1c0,0,0,0,0,0c0,0,0,0,0,0.1c0,0.1,0,0.1,0.1,0.2c0,0,0.1,0.1,0.1,0.1c0.1,0,0.1,0.1,0.2,0.1c0.1,0,0.1,0,0.2-0.1
						c0.1,0,0.1-0.1,0.1-0.2l0,0c0,0.1,0.1,0.2,0.2,0.3c0.1,0,0.1,0.1,0.2,0.1c0.1,0,0.1,0,0.2-0.1c0-0.1,0.1-0.2,0.1-0.3l0,0l0,0
						c0.1,0.1,0.3,0.2,0.5,0.2c0.2,0,0.3-0.1,0.3-0.2l0,0l0,0c0.1,0,0.2,0,0.3,0c0.1,0,0.1-0.1,0.2-0.1
						C43.9,31.9,43.9,31.8,43.9,31.7C43.9,31.8,43.9,31.7,43.9,31.7z"/>
				</g>
				<g>
					<path class="st2" d="M44.8,27.2c0,0,0-0.1-0.1-0.1c0,0-0.1-0.1-0.2-0.1c-0.1,0-0.2,0-0.2,0l0,0l0,0c0-0.1,0-0.2-0.1-0.2
						c0,0-0.1,0-0.1,0c0,0-0.1,0-0.1,0c0,0-0.1,0-0.1-0.1c0,0-0.1,0-0.1,0c-0.2-0.1-0.3,0-0.4,0.1l0,0l0,0c-0.1-0.1-0.2-0.2-0.3-0.2
						c-0.1,0-0.2,0-0.3,0c-0.1,0.1-0.2,0.1-0.2,0.1c0,0,0,0,0-0.1c0,0,0.1-0.1,0.1-0.1c0.1,0,0.2,0,0.3,0c0.1,0,0.2,0.1,0.3,0.2l0,0
						c0.1-0.1,0.3-0.2,0.5-0.1c0,0,0.1,0,0.1,0c0,0,0.1,0,0.1,0c0,0,0.1,0,0.2,0c0.1,0,0.2,0.2,0.2,0.3l0,0c0.1-0.1,0.2-0.1,0.3,0
						c0.1,0,0.1,0,0.2,0.1C44.8,27,44.8,27.1,44.8,27.2C44.8,27.1,44.8,27.2,44.8,27.2z"/>
				</g>
				<g>
					<path class="st2" d="M46.7,29.1c0,0,0-0.1-0.1-0.1c-0.1,0-0.1-0.1-0.2-0.1c-0.1,0-0.2,0-0.2,0.1c0,0-0.1,0.1-0.1,0.1l0,0
						c0,0,0-0.1,0-0.1c0,0-0.1,0-0.1,0c-0.1,0-0.1,0-0.2,0c-0.1,0-0.2,0-0.2,0c0,0,0.1,0,0.2-0.1c0,0,0,0,0.1,0c0,0,0.1,0,0.1,0
						c0,0,0.1,0,0.1,0c0,0,0,0,0,0.1c0,0,0,0,0,0.1l0,0c0,0,0.1-0.1,0.1-0.1c0.1-0.1,0.2-0.1,0.3-0.1c0.1,0,0.2,0,0.2,0.1
						C46.7,28.9,46.7,29,46.7,29.1C46.7,29,46.7,29.1,46.7,29.1z"/>
				</g>
				<g>
					<path class="st2" d="M36.9,22.9c0,0,0,0-0.1-0.1c-0.1,0-0.2,0-0.3,0.1c-0.1,0-0.1,0.1-0.2,0.2c0,0-0.1,0.1-0.1,0.1
						c0,0-0.1,0-0.1,0c-0.1,0-0.2,0-0.3,0.1c0,0-0.1,0.1-0.1,0.1c0,0,0,0.1,0,0.1c0,0,0,0,0,0c0,0,0,0,0,0l0,0l0,0
						c-0.1,0-0.1,0-0.2-0.1c-0.1,0-0.2,0-0.3,0c-0.1,0.1-0.2,0.2-0.1,0.3l0,0l0,0c-0.2-0.1-0.3-0.1-0.5,0c-0.1,0-0.3,0.1-0.3,0.2
						c-0.2,0.1-0.2,0.3-0.2,0.3c0,0,0,0,0,0c0,0,0,0,0-0.1c0-0.1,0.1-0.1,0.2-0.2c0.1-0.1,0.2-0.2,0.3-0.2c0.1,0,0.3-0.1,0.5,0l0,0
						c0-0.1,0-0.1,0-0.2c0-0.1,0.1-0.1,0.1-0.1c0.1-0.1,0.2-0.1,0.4-0.1c0.1,0,0.2,0,0.2,0.1l0,0c0,0,0,0,0-0.1c0,0,0-0.1,0-0.1
						c0-0.1,0-0.1,0.1-0.2c0,0,0.1-0.1,0.2-0.1c0.1,0,0.1,0,0.2,0c0.2,0,0.3-0.2,0.5-0.2c0.1-0.1,0.3-0.1,0.3-0.1
						C36.9,22.8,36.9,22.8,36.9,22.9C36.9,22.8,36.9,22.9,36.9,22.9z"/>
				</g>
				<g>
					<path class="st2" d="M21.9,26.7C21.9,26.7,21.8,26.7,21.9,26.7c-0.1,0-0.2-0.1-0.2-0.1c-0.1,0-0.2,0-0.3,0.1
						c-0.1,0.1-0.2,0.2-0.2,0.3l0,0l0,0c-0.1-0.1-0.2-0.1-0.4-0.2c-0.1,0-0.3,0-0.4,0.1c-0.1,0.1-0.2,0.2-0.2,0.3l0,0l0,0
						c-0.2-0.1-0.4-0.2-0.5-0.1c-0.2,0-0.3,0.2-0.4,0.3c-0.1,0.1-0.1,0.2-0.1,0.3c0,0,0,0,0,0c0,0,0,0,0,0c0,0,0,0,0,0c0,0,0,0,0,0
						c0,0,0,0,0,0c0,0,0,0,0,0c0,0,0,0,0,0c0,0,0,0,0,0c0,0,0,0,0,0c0-0.1,0-0.2,0.1-0.3c0.1-0.1,0.2-0.2,0.4-0.3
						c0.2,0,0.4,0,0.6,0.1l0,0c0-0.1,0.1-0.2,0.2-0.3c0.1-0.1,0.3-0.2,0.5-0.1c0.2,0,0.3,0.1,0.4,0.2l0,0c0-0.1,0.1-0.3,0.2-0.3
						c0.1-0.1,0.2-0.1,0.3-0.1C21.7,26.6,21.8,26.6,21.9,26.7C21.8,26.7,21.8,26.7,21.9,26.7C21.9,26.7,21.9,26.7,21.9,26.7z"/>
				</g>
				<g>
					<path class="st2" d="M27,23.6c0,0-0.1-0.1-0.2-0.1c-0.1,0-0.2,0-0.2,0c-0.1,0-0.2,0.1-0.2,0.2l0,0l0-0.1c0-0.1-0.1-0.2-0.2-0.2
						c-0.1,0-0.1,0-0.2,0.1c0,0,0,0,0,0c0,0,0,0,0,0c0,0,0,0,0,0c0,0,0,0,0,0c0,0,0,0,0,0c-0.1-0.1-0.2-0.1-0.3-0.1
						c-0.1,0-0.2,0.1-0.2,0.1c0,0,0,0.1-0.1,0.1c0,0,0,0,0,0c0,0,0,0,0-0.1c0,0,0.1-0.1,0.2-0.1c0.1,0,0.2,0,0.4,0.1c0,0,0,0,0,0
						c0,0,0,0,0,0c0,0,0,0,0,0c0,0,0,0,0,0c0.1-0.1,0.1-0.1,0.2-0.1c0.1,0,0.2,0.1,0.2,0.3l0,0c0.1-0.1,0.2-0.2,0.3-0.2
						c0.1,0,0.2,0,0.3,0C26.9,23.5,26.9,23.5,27,23.6C27,23.6,27,23.6,27,23.6z"/>
				</g>
				<g>
					<path class="st2" d="M22.6,21.9c0,0-0.1-0.1-0.2-0.1c-0.1,0-0.1,0-0.2,0c-0.1,0-0.1,0.1-0.2,0.2l0,0l0,0c0,0-0.1,0-0.1-0.1
						c-0.1,0-0.2-0.1-0.3,0c-0.1,0-0.2,0.1-0.2,0.1c0,0.1-0.1,0.1-0.1,0.2c0,0,0,0.1,0,0.1c0,0,0,0,0-0.1c0,0,0-0.1,0.1-0.2
						c0-0.1,0.1-0.1,0.2-0.1c0.1,0,0.2,0,0.3,0c0,0,0.1,0,0.1,0.1l0,0c0-0.1,0.1-0.2,0.2-0.2c0.1,0,0.2,0,0.2,0
						C22.5,21.8,22.6,21.9,22.6,21.9C22.6,21.9,22.6,21.9,22.6,21.9z"/>
				</g>
				<g>
					<path class="st2" d="M30.8,33.5C30.8,33.5,30.8,33.5,30.8,33.5C30.8,33.5,30.8,33.5,30.8,33.5c-0.1,0-0.2,0-0.3,0
						c-0.2,0-0.6,0-1,0c-0.4,0-0.9,0-1.4,0c-0.5,0-1.1,0-1.7,0.1c-0.2,0-0.3,0-0.4,0.1c-0.1,0-0.1,0-0.2,0.1c-0.1,0-0.1,0.1-0.2,0.1
						c-0.3,0.1-0.5,0.2-0.8,0.3c-0.5,0.2-0.9,0.4-1.3,0.6c-0.2,0.1-0.3,0.2-0.5,0.3c-0.1,0.1-0.3,0.2-0.3,0.2
						c-0.1,0.1-0.2,0.1-0.2,0.2c0,0,0,0,0,0c0,0,0,0,0,0c0,0,0.1-0.1,0.3-0.2c0.1-0.1,0.2-0.1,0.3-0.2c0.1-0.1,0.3-0.2,0.5-0.3
						c0.4-0.2,0.8-0.4,1.3-0.6c0.2-0.1,0.5-0.2,0.8-0.3c0.1,0,0.1-0.1,0.2-0.1c0.1,0,0.1-0.1,0.2-0.1c0.1,0,0.3-0.1,0.5-0.1
						c0.6-0.1,1.2-0.1,1.7-0.1c0.5,0,1,0,1.4,0c0.4,0,0.7,0,1,0C30.6,33.5,30.7,33.5,30.8,33.5C30.8,33.5,30.8,33.5,30.8,33.5
						C30.8,33.5,30.8,33.5,30.8,33.5z"/>
				</g>
				<g>
					<path class="st2" d="M30.1,34.7C30.1,34.7,30.1,34.7,30.1,34.7c0.1,0,0.1,0,0.1,0c0,0,0.1,0,0.2,0c0.1,0,0.1,0,0.2-0.1
						c0.2,0,0.3-0.1,0.5-0.1c0.2,0,0.4,0,0.7-0.1c0.2,0,0.5,0,0.7,0c0.2,0,0.4,0,0.5,0c0.1,0,0.1,0,0.2,0c0.1,0,0.1,0,0.2,0
						c0,0,0.1,0,0.1,0c0,0,0,0,0,0c0,0,0,0,0,0c0,0-0.1,0-0.1,0c0,0-0.1,0-0.2,0c-0.1,0-0.1,0-0.2,0c-0.2,0-0.3,0-0.5,0.1
						c-0.2,0-0.4,0-0.7,0c-0.2,0-0.5,0-0.7,0c-0.2,0-0.4,0-0.5,0.1c-0.1,0-0.1,0-0.2,0c-0.1,0-0.1,0-0.2,0
						C30.2,34.7,30.1,34.7,30.1,34.7C30.1,34.7,30.1,34.7,30.1,34.7z"/>
				</g>
				<g>
					<path class="st2" d="M28.5,35C28.5,35,28.5,35,28.5,35C28.4,35,28.4,35,28.5,35c-0.1,0-0.2,0-0.2-0.1c0,0-0.1,0-0.2,0
						c-0.2-0.1-0.6-0.1-1-0.1c-0.4,0-0.9,0.2-1.4,0.5c-0.2,0.2-0.5,0.3-0.7,0.5c-0.2,0.2-0.5,0.4-0.7,0.6c-0.1,0.1-0.3,0.2-0.4,0.2
						c-0.1,0.1-0.3,0.1-0.4,0.2c-0.1,0.1-0.2,0.2-0.3,0.3c-0.1,0.1-0.2,0.2-0.3,0.3c-0.3,0.4-0.6,0.9-0.8,1.2
						c-0.2,0.4-0.3,0.7-0.4,0.9c0,0.1-0.1,0.2-0.1,0.2c0,0,0,0,0,0.1c0,0,0,0,0,0c0,0,0,0,0,0c0,0,0,0,0-0.1c0-0.1,0.1-0.1,0.1-0.3
						c0.1-0.2,0.2-0.5,0.4-0.9c0.2-0.4,0.5-0.8,0.8-1.2c0.1-0.1,0.2-0.2,0.3-0.3c0.1-0.1,0.2-0.2,0.3-0.3c0.1-0.1,0.3-0.1,0.4-0.2
						c0.1-0.1,0.3-0.1,0.4-0.2c0.3-0.2,0.5-0.4,0.7-0.6c0.2-0.2,0.5-0.4,0.7-0.5c0.5-0.3,1-0.5,1.4-0.5c0.4,0,0.8,0,1,0.1
						C28.3,35,28.5,35,28.5,35z"/>
				</g>
				<g>
					<path class="st2" d="M22.4,40C22.4,40,22.4,39.9,22.4,40c0-0.1,0-0.1,0-0.1c0-0.1,0-0.2,0.1-0.4c0.1-0.1,0.2-0.3,0.3-0.4
						c0.1-0.2,0.3-0.3,0.5-0.4c0.2-0.1,0.4-0.2,0.5-0.4c0.2-0.1,0.3-0.2,0.4-0.3c0.1-0.1,0.2-0.2,0.2-0.3c0.1-0.1,0.1-0.1,0.1-0.1
						c0,0,0,0,0,0c0,0,0,0-0.1,0.1c0,0.1-0.1,0.2-0.2,0.3c-0.1,0.1-0.3,0.2-0.4,0.3c-0.2,0.1-0.4,0.2-0.5,0.4
						c-0.2,0.1-0.4,0.3-0.5,0.4c-0.1,0.1-0.2,0.3-0.3,0.4c-0.1,0.1-0.1,0.3-0.1,0.3C22.4,39.9,22.4,40,22.4,40z"/>
				</g>
				<g>
					<path class="st2" d="M24.6,35.1c0,0,0,0-0.1,0.1c-0.1,0.1-0.2,0.2-0.4,0.3c-0.2,0.1-0.4,0.2-0.6,0.3c-0.1,0.1-0.3,0.1-0.4,0.2
						c-0.1,0-0.1,0.1-0.2,0.1c-0.1,0-0.2,0-0.3,0l0,0l0,0c0-0.1,0-0.1,0.1-0.2c0,0,0.1-0.1,0.2-0.1c0.1-0.1,0.2-0.1,0.3-0.2
						c0.2-0.1,0.5-0.3,0.7-0.4c0.3-0.1,0.5-0.3,0.8-0.4c0.1,0,0.1-0.1,0.2-0.1c0,0,0.1,0,0.1,0c0,0,0,0,0.1,0c0,0,0,0,0,0.1
						c0,0.1,0,0.2,0,0.3c0,0.1-0.1,0.1-0.1,0.2c-0.1,0.1-0.1,0.1-0.2,0.2c-0.1,0.1-0.1,0.1-0.2,0.2c-0.1,0.1-0.3,0.2-0.5,0.3
						c-0.2,0.1-0.3,0.2-0.5,0.3c-0.2,0.1-0.3,0.2-0.5,0.2c-0.2,0.1-0.3,0.1-0.4,0.2c-0.1,0.1-0.2,0.2-0.4,0.3
						c-0.2,0.2-0.4,0.4-0.6,0.6c-0.2,0.2-0.3,0.4-0.4,0.6c-0.1,0.2-0.3,0.3-0.4,0.4c-0.1,0.1-0.2,0.1-0.3,0.1c-0.1,0-0.1,0-0.1,0
						c0,0,0,0,0.1,0c0.1,0,0.2-0.1,0.3-0.1c0.1-0.1,0.3-0.2,0.4-0.4c0.1-0.2,0.3-0.4,0.4-0.6c0.1-0.2,0.3-0.4,0.6-0.6
						c0.1-0.1,0.2-0.2,0.4-0.3c0.1-0.1,0.3-0.2,0.4-0.2c0.6-0.2,1.2-0.7,1.8-1.3c0.1-0.1,0.1-0.1,0.1-0.2c0-0.1,0-0.2,0-0.2
						c0,0,0,0-0.1,0c0,0-0.1,0-0.1,0c-0.1,0-0.1,0-0.2,0.1c-0.3,0.1-0.6,0.3-0.8,0.4c-0.3,0.1-0.5,0.3-0.7,0.4
						c-0.1,0.1-0.2,0.1-0.3,0.2c-0.1,0-0.1,0.1-0.1,0.1c0,0-0.1,0.1-0.1,0.2l0,0c0.1,0,0.2,0,0.2,0c0.1,0,0.2,0,0.2-0.1
						c0.1-0.1,0.3-0.1,0.4-0.2c0.2-0.1,0.5-0.2,0.6-0.3c0.2-0.1,0.3-0.2,0.4-0.3C24.5,35.2,24.5,35.2,24.6,35.1
						C24.6,35.1,24.6,35.1,24.6,35.1z"/>
				</g>
				<g>
					<path class="st2" d="M31.2,27.6C31.2,27.6,31.2,27.6,31.2,27.6c0,0,0,0.1,0,0.1c0,0.1,0,0.2-0.1,0.3c-0.1,0.3-0.1,0.6-0.3,1.1
						l0,0l0,0c-0.2,0.2-0.4,0.4-0.6,0.6l0,0l0,0c-0.2,0.1-0.4,0.1-0.6,0.2c-0.1,0-0.2,0-0.3,0.1c-0.1,0-0.2,0.1-0.3,0.1
						c-0.1,0.1-0.2,0.1-0.3,0.2c-0.1,0.1-0.2,0.1-0.3,0.2c-0.2,0.1-0.4,0.2-0.6,0.3c-0.4,0.2-0.7,0.4-1,0.6
						c-0.3,0.2-0.4,0.4-0.6,0.5c-0.1,0.1-0.1,0.1-0.1,0.1c0,0,0,0,0,0c0,0,0,0,0,0c0,0,0,0,0,0c0,0,0,0,0,0c0,0,0.1-0.1,0.1-0.2
						c0.1-0.1,0.3-0.3,0.6-0.5c0.3-0.2,0.6-0.4,1-0.6c0.2-0.1,0.4-0.2,0.6-0.4c0.1-0.1,0.2-0.1,0.3-0.2c0.1-0.1,0.2-0.1,0.3-0.2
						c0.1-0.1,0.2-0.1,0.3-0.1c0.1,0,0.2-0.1,0.3-0.1c0.2,0,0.4-0.1,0.5-0.2l0,0c0.2-0.2,0.4-0.4,0.6-0.6l0,0
						c0.1-0.5,0.2-0.8,0.3-1.1c0-0.1,0.1-0.2,0.1-0.3C31.2,27.6,31.2,27.6,31.2,27.6C31.2,27.6,31.2,27.6,31.2,27.6z"/>
				</g>
				<g class="st4">
					<path d="M33.7,25.7c0.2-0.4,0-0.9-0.4-1.1c-0.1-0.3-0.4-0.4-0.6-0.4c0-0.2-0.1-0.4-0.3-0.5c-0.2-0.1-0.4-0.3-0.6-0.3
						c0,0.2,0.1,0.4,0.5,0.6c0.2,0.1,0.5,0.4,0.4,0.7c0.4,0.1,0.7,0.4,0.7,0.8c0,0.4-0.2,0.8-0.6,1c0,0.5-0.7,0.9-1.2,0.9l0.2,0
						c0.3,0,0.5,0,0.8-0.1c0.1,0,0.1-0.1,0.2-0.1c0.2-0.1,0.4-0.3,0.4-0.5c0.3,0,0.6-0.3,0.5-0.7c0-0.1,0-0.1,0-0.2
						C33.6,25.8,33.7,25.8,33.7,25.7z"/>
				</g>
				<g>
					<path class="st2" d="M22.5,35.4C22.5,35.4,22.5,35.4,22.5,35.4c0-0.1,0-0.1-0.1-0.2c0-0.1-0.1-0.3-0.1-0.6
						c-0.1-0.2-0.1-0.5-0.2-0.8c0-0.1,0-0.2-0.1-0.2c0-0.1-0.1-0.2-0.1-0.2c-0.1-0.2-0.2-0.3-0.3-0.5c0,0,0-0.1-0.1-0.1l0-0.1
						c0,0,0,0,0-0.1c0,0-0.1-0.1-0.1-0.1c0,0-0.1-0.1-0.1-0.1c-0.1-0.1-0.1-0.1-0.2-0.2c-0.1-0.1-0.1-0.1-0.2-0.1
						c-0.1,0-0.1-0.1-0.2-0.2c-0.1-0.1-0.1-0.1-0.2-0.2c-0.1-0.1-0.2-0.2-0.3-0.3c-0.2-0.2-0.3-0.3-0.4-0.4c0,0-0.1-0.1-0.1-0.1
						c0,0,0,0,0,0c0,0,0,0,0,0c0,0,0.1,0.1,0.1,0.1c0.1,0.1,0.2,0.2,0.4,0.4c0.1,0.1,0.2,0.2,0.3,0.3c0.1,0.1,0.1,0.1,0.2,0.2
						c0.1,0.1,0.1,0.1,0.2,0.2c0,0,0.1,0,0.1,0.1c0,0,0.1,0,0.1,0.1c0.1,0.1,0.1,0.1,0.2,0.2c0,0,0.1,0.1,0.1,0.1
						c0,0,0.1,0.1,0.1,0.1c0,0,0,0,0,0.1l0,0.1c0,0,0,0.1,0.1,0.1c0.1,0.2,0.2,0.3,0.3,0.5c0,0.1,0.1,0.2,0.1,0.2
						c0,0.1,0,0.2,0.1,0.2c0.1,0.3,0.1,0.6,0.2,0.8c0.1,0.2,0.1,0.4,0.1,0.6C22.5,35.3,22.5,35.3,22.5,35.4
						C22.5,35.4,22.5,35.4,22.5,35.4z"/>
				</g>
			</g>
		</g>
		<g>
			<g>
				<path class="st6" d="M33.3,30.7c0,0.1,0,2.5,0,3c0,0.5,0.1,0.9,0,1.3c-0.1,0.4-0.2,3.2-0.2,3.6c0,0.4-0.2,0.5-0.3,0.7
					c-0.1,0.2-0.1,0.3-0.1,0.3l-0.6-0.3c0,0,0.3,0,0.4-0.7c0.1-0.6,0.4-2.4,0.2-3.1c-0.2-0.6-0.3-0.7-0.3-1.1c0-0.4-0.1-1.6-0.2-2.1
					c-0.1-0.5-0.2-1.1-0.2-1.1s0.6-1.4,0.6-1.4C32.7,30.1,33.3,30.7,33.3,30.7z"/>
				<path class="st7" d="M39.9,29c0,0.1,0.2,0.6,0.1,1.3C40,30.9,39.9,31.5,40,32c0.1,0.5,0.5,1.3,0.8,1.5c0,0,0,0.6,0,1.3
					s0.1,2.6,0.4,3.3c0.2,0.6,0.2,0.9,0,1C41,39.2,41,39.3,41,39.3l-0.5-0.2c0,0,0.1-0.1,0.2-0.8c0-1-0.3-2.7-0.5-3.1
					c-0.2-0.3-0.5-0.8-0.5-1s-1.1-2-1.1-2l-0.5-0.6V30L39.9,29z"/>
				<path class="st8" d="M33.3,30.7c0,0.1,0,2.5,0,3c0,0.5,0.1,0.9,0,1.3c-0.1,0.4-0.2,3.2-0.2,3.6c0,0.4-0.2,0.5-0.3,0.7
					c-0.1,0.2-0.1,0.3-0.1,0.3l-0.6-0.3c0,0,0.3,0,0.4-0.7c0.1-0.6,0.4-2.4,0.2-3.1c-0.2-0.6-0.3-0.7-0.3-1.1c0-0.4-0.1-1.6-0.2-2.1
					c-0.1-0.5-0.2-1.1-0.2-1.1s0.6-1.4,0.6-1.4C32.7,30.1,33.3,30.7,33.3,30.7z"/>
				<path class="st9" d="M38.5,26.4c0,0,1.4,0.8,1.5,1.5c0.2,0.6,0,1.7-0.3,2.2c-0.2,0.5-1.2,2.1-1.4,2.5c-0.2,0.4-0.2,2-0.3,2.4
					c0,0.4-0.5,0.3-0.7,0.7c-0.3,0.4-1.5,2.1-1.7,2.9c-0.2,0.8-0.6,0.8-0.6,0.8L34.5,39c0,0,0.3-0.6,0.5-0.9
					c0.2-0.3,1.3-2.4,1.5-2.8c0.2-0.4,0.2-1.1,0.2-1.8c0-0.6-0.2-1.5-0.1-2.1l0-0.2c0,0-1,0.5-1.6,0.3S33.6,31,33.6,31l-0.3-0.1
					l-1.1,1.5c0,0-1,1.6-1,1.6c0,0,0,0.4,0,0.5s0.9,1.8,0.9,1.8l1.3,1.5c0,0-0.1,0.3,0,0.5l-0.6,0.2c0,0,0-0.1-0.1-0.4
					c-0.1-0.4-0.5-0.9-0.7-1.2c-0.2-0.2-0.7-1.1-0.9-1.3c-0.1-0.1-0.6-0.6-0.7-0.8c-0.1-0.1-0.1-0.7-0.1-0.9s0.2-0.3,0.3-0.5
					c0.1-0.2,0.6-1.3,0.6-1.3l0.4-1c0,0,0.1-0.2,0.1-0.5c-0.1-0.3-0.1-0.5-0.3-0.8c-0.2-0.3-0.3-0.5-0.4-0.9c-0.1-0.4,0-0.8,0-1.1
					s0-0.7-0.1-1.1c-0.1-0.4,0-1.1,0-1.4c0-0.2-0.1-0.6-0.3-1c-0.2-0.3-0.4-1-0.6-1.4c-0.2-0.4-0.6-1.5-0.7-1.8
					c-0.1-0.3-0.3-0.9-0.4-1.2s-0.4-1.1-0.4-1.4c0-0.3-0.2-0.8-0.2-1.1c-0.1-0.3-0.3-0.6-0.3-0.6S27.5,17,27,16.9
					c-0.5-0.1-0.9-0.1-1.1,0c-0.2,0-0.2,0.1-0.4,0.1c-0.2,0-0.3-0.1-0.3-0.1s0.4-0.3,0.4-0.4c0,0,0-0.1,0-0.1c-0.1,0-0.6,0-0.6,0
					c0,0,0-0.1,0-0.2c0-0.1,0.1-0.1,0.2-0.2c0.1-0.1,0.1-0.2,0.2-0.3c0.1,0,0.3,0,0.3,0s0.7-0.2,1-0.5c0.3-0.2,0.3-0.4,0.5-0.4
					c0.2,0,0.3,0.1,0.4,0c0.1,0,0.2,0,0.3-0.1c0.1-0.1,0.2-0.3,0.3-0.4c0-0.1,0-0.2,0.1-0.2c0.1,0,0.1,0.1,0.1,0.1s0.2-0.1,0.2,0
					c0.1,0.1,0.1,0.2,0.1,0.2c-0.1,0-0.2,0-0.3,0.1c-0.1,0.1-0.1,0.2-0.1,0.2c0,0,0.1,0.1,0.3,0.1c0.2,0,0.6,0,0.8,0.1
					c0.2,0,0.3,0.2,0.3,0.2c0,0-0.2,0.1-0.3,0.2c-0.1,0.1-0.2,0.1-0.2,0.1s0.1,0.3,0.3,0.8c0.2,0.5,0.4,1.2,0.5,1.5
					c0.2,0.4,0.6,1.3,0.8,1.7c0.1,0.4,0.5,1,0.7,1.3c0.2,0.3,0.5,0.8,0.8,1.2c0.3,0.4,0.5,0.8,0.9,1.4c0.5,0.5,0.5,0.7,0.8,0.8
					c0,0,0.7,0.3,1,0.5c0.3,0.3,0.3,0.3,0.5,0.5c0.2,0.1,1.2,0.6,1.8,0.7C38,26.1,38.5,26.4,38.5,26.4z"/>
				<path class="st9" d="M40.9,32.2c0-0.1,0.1-1.2,0.1-1.8c0-0.5-0.1-1.3-0.4-1.9c-0.3-0.6-0.8-1.1-0.8-1.1v0.9c0,0,0.9,0.7,0.9,1.8
					c0,1.2,0,2,0,2H40.9z"/>
				<path class="st9" d="M35.1,39.2c0,0-0.2,0.1-0.1,0.3c0,0.2,0.1,0.3,0.1,0.5H34c0,0,0-0.2,0.3-0.5c0.2-0.3,0.3-0.5,0.3-0.5l0.5,0
					V39.2z"/>
				<path class="st9" d="M33.4,38.3c0,0,0.1,0.2,0.2,0.2c0.1,0,0.3,0.2,0.2,0.2c0,0.1-0.1,0.1,0,0.3l-0.8,0.6c0,0-0.1-0.2-0.1-0.5
					c0-0.3-0.2-0.5-0.2-0.5L33.4,38.3z"/>
				<path class="st6" d="M32.8,39.5c0,0.1,0.2,0.2,0.1,0.3c0,0.1-0.1,0.2-0.1,0.2l-1,0c0,0,0.2-0.4,0.4-0.6
					C32.4,39.1,32.8,39.5,32.8,39.5z"/>
				<g>
					<path class="st2" d="M28.4,15.6c0,0,0,0,0.1,0.1c0.1,0,0.2,0.1,0.3,0.1c0.1,0,0.2-0.1,0.3-0.1c0.1,0,0.1-0.1,0.1-0.1
						c0,0-0.2,0.2-0.4,0.2c-0.1,0-0.3-0.1-0.3-0.1C28.5,15.7,28.4,15.6,28.4,15.6z"/>
				</g>
				<g class="st10">
					<path d="M28.5,15.5c0.1,0,0.2,0,0.2,0c0.1,0,0.1-0.1,0.2-0.1c0.1-0.1,0.3-0.1,0.4,0c-0.1,0.1-0.2,0.2-0.4,0.3
						C28.8,15.6,28.6,15.6,28.5,15.5"/>
				</g>
				<g>
					<path class="st2" d="M26.9,15.6C26.9,15.6,27,15.6,26.9,15.6c0.1-0.1,0.1-0.1,0.2-0.2c0,0,0.1-0.1,0.1-0.1c0.1,0,0.1,0,0.2,0
						c0,0,0.1,0.1,0.1,0.1c0,0.1,0.1,0.1,0.1,0.1c0,0,0,0-0.1-0.1c0,0-0.1-0.1-0.2-0.1c0,0-0.1,0-0.1,0.1
						C27.1,15.5,27,15.5,26.9,15.6C27,15.6,26.9,15.6,26.9,15.6z"/>
				</g>
				<path class="st2" d="M27.5,15.5c0,0.1-0.1,0.2-0.2,0.2c-0.1,0-0.1,0-0.2,0c0,0-0.1-0.1-0.1-0.1c0,0,0-0.1,0-0.1
					c0,0,0.1-0.1,0.1-0.1C27.3,15.4,27.3,15.4,27.5,15.5C27.4,15.5,27.4,15.5,27.5,15.5"/>
				<g class="st10">
					<path d="M25.3,16.2c0.1-0.1,0.2-0.1,0.3-0.2c0,0,0.1,0,0.1,0c0,0,0,0,0,0.1C25.5,16.1,25.4,16.2,25.3,16.2
						C25.3,16.2,25.3,16.2,25.3,16.2L25.3,16.2z"/>
				</g>
				<g>
					<path class="st2" d="M25.4,16.2c0,0,0.1,0,0.2-0.1c0,0,0.1-0.1,0.1-0.1c0,0,0-0.1,0-0.1c0,0,0,0,0,0.1c0,0,0,0.1-0.1,0.1
						C25.5,16.2,25.4,16.2,25.4,16.2z"/>
				</g>
				<g>
					<path class="st2" d="M28.2,16.2c0,0,0,0.1,0,0.1c0,0.1-0.1,0.2-0.2,0.3c0,0,0,0,0,0c0,0,0,0,0,0c0,0-0.1,0-0.1,0
						c-0.1,0-0.1,0-0.1,0.1c-0.1,0-0.1,0-0.1,0c0,0,0.1,0,0.1,0c0,0,0.1,0,0.1-0.1c0,0,0,0,0.1,0c0,0,0,0,0,0c0,0,0,0,0,0
						c0.1-0.1,0.1-0.2,0.2-0.3C28.2,16.3,28.2,16.2,28.2,16.2z"/>
				</g>
				<g>
					<path class="st2" d="M28,15c0,0,0,0,0-0.1c0-0.1,0.1-0.1,0.2-0.2c0.1-0.1,0.1-0.1,0.2-0.2c0,0,0.1-0.1,0.1-0.1c0,0,0,0-0.1,0.1
						c0,0.1-0.1,0.1-0.2,0.2C28.1,14.7,28.1,14.8,28,15C28,14.9,28,15,28,15z"/>
				</g>
				<g>
					<path class="st2" d="M33.6,27.8c0,0,0,0,0,0.1c0,0.1,0,0.2,0,0.3c0,0.3-0.1,0.7-0.1,1.1c0,0.1,0,0.2,0,0.3c0,0.1,0,0.2,0.1,0.3
						c0,0.2,0,0.4,0,0.5c0,0.1-0.1,0.2-0.2,0.3c0,0-0.1,0.1-0.1,0.1c0,0,0,0,0,0c0,0,0,0,0.1-0.1c0-0.1,0.1-0.2,0.2-0.3
						c0-0.1,0-0.3,0-0.5c0-0.1,0-0.2-0.1-0.3c0-0.1,0-0.2,0-0.3c0-0.4,0-0.8,0.1-1.1c0-0.1,0-0.3,0.1-0.3
						C33.6,27.9,33.6,27.9,33.6,27.8C33.6,27.8,33.6,27.8,33.6,27.8z"/>
				</g>
				<g>
					<path class="st2" d="M37,28.6c0,0,0,0,0,0.1c0,0,0,0.1,0,0.1c0,0,0,0.1,0,0.2c0,0.1-0.1,0.3-0.1,0.4c0,0.2-0.1,0.3-0.1,0.5
						c0,0.4,0,0.7,0,1c0,0.1,0,0.2,0,0.3c0,0.1,0,0.1,0,0.1c0,0,0,0,0-0.1c0-0.1,0-0.2,0-0.3c0-0.3,0-0.6,0-1c0-0.2,0-0.4,0.1-0.5
						c0-0.2,0.1-0.3,0.1-0.4c0-0.1,0-0.1,0.1-0.2c0,0,0-0.1,0-0.1C37,28.6,37,28.6,37,28.6z"/>
				</g>
				<path class="st7" d="M41.1,39.2c0,0-0.1,0.2,0,0.4c0.1,0.2,0.2,0.2,0,0.3c-0.1,0.1-1,0-1,0s0.2-0.6,0.6-0.7l0.3-0.1L41.1,39.2z"
					/>
				<path class="st8" d="M32.8,39.5c0,0.1,0.2,0.2,0.1,0.3c0,0.1-0.1,0.2-0.1,0.2l-1,0c0,0,0.2-0.4,0.4-0.6
					C32.4,39.1,32.8,39.5,32.8,39.5z"/>
				<path class="st11" d="M32.3,23.4c0,0-0.7,0.7-0.7,1c0,0.3,0.1,0.4,0.2,0.7c0.1,0.3,0.1,0.6,0.4,0.6c0.3,0.1,0.3,0.1,0.3,0.1
					s0.2-0.6,0.4-0.9c0.2-0.3,0.3-0.3,0.3-0.3L32.8,24L32.3,23.4z"/>
				<polygon class="st11" points="37.5,26.2 36.8,26.8 36.4,26.1 36.5,26 36.9,26.1 				"/>
				<polygon class="st11" points="36.2,25.8 35.8,25.8 35.5,26.8 35.7,27.3 36.5,26.8 36.3,26.3 				"/>
				<polygon class="st11" points="31.3,21.2 30.9,21.3 30.6,22.2 30.8,22.7 31.6,22.3 31.4,21.7 				"/>
				<polygon class="st11" points="36,27.6 36,28.2 37.2,28.3 37.1,27.8 36.8,27.1 				"/>
				<polygon class="st11" points="37.1,27 37.3,27.5 37.3,28.2 37.9,28.2 38.1,27.7 38.4,27 38.3,26.6 37.9,26.3 				"/>
				<polygon class="st11" points="35.5,27.2 35.1,27.2 34.5,27.6 33.9,27.8 34,28.1 35,28.2 35.7,27.8 				"/>
				<polygon class="st11" points="33.8,26.7 33.7,27.6 34.1,27.5 34.8,27.1 34.7,26.9 34.4,26.6 				"/>
				<path class="st11" d="M35.1,25.3c0,0-0.4,0.9-0.4,0.9l0.4,0.6h0.2l0.1-0.3v-0.6l0.3-0.1l-0.4-0.2L35.1,25.3z"/>
				<polygon class="st11" points="32.5,27.7 32.6,28.3 33.2,28.6 33.3,27.9 32.9,27.5 				"/>
				<polygon class="st11" points="33.9,28.6 33.9,29.3 34.2,29.6 34.7,29.3 34.6,28.6 				"/>
				<polygon class="st11" points="34.9,28.4 35.1,29 35.7,29.1 35.8,28.5 35.7,28.2 				"/>
				<path class="st11" d="M37.3,28.5c0,0,0,0.6,0,0.6l0.7,0.4l0.2-0.3l0.4,0.2v-0.7l-0.3-0.2L37.3,28.5z"/>
				<path class="st11" d="M36.2,28.4c0,0-0.3,0.2-0.3,0.2v0.5l0.3,0.1l0.5-0.4L36.2,28.4z"/>
				<polygon class="st11" points="32,27.7 31.6,27.6 31.4,27.9 31.7,28.9 32.1,28.9 32.3,28.3 32.2,27.8 				"/>
				<path class="st11" d="M31.7,27.1c0,0,0.2-0.8,0.2-0.8l0.9-0.2l0.4,0.1V27l-0.6,0.4l-0.9-0.1L31.7,27.1z"/>
				<polygon class="st11" points="33.6,26.5 33.9,26.5 34.4,26.3 34.6,25.6 34.1,25.6 33.6,25.9 				"/>
				<path class="st11" d="M32.8,25.3c0,0,0.2,0.5,0.2,0.5l0.4,0.1l0.5-0.7l-0.4-0.6l-0.5,0.2L32.8,25.3z"/>
				<polygon class="st11" points="38.5,27.3 38.3,27.9 38.5,28.2 38.9,28.1 39.2,27.7 38.9,27.3 				"/>
				<polygon class="st11" points="31.6,22.5 30.9,22.9 31.1,23.6 31.7,23.6 32.2,23.2 32.4,22.7 31.8,22.4 				"/>
				<polygon class="st11" points="30.5,22 30.1,22.1 29.7,21.5 30.1,21.3 30.3,21.5 				"/>
				<polygon class="st11" points="30.4,19.3 30.2,19.6 29.7,19.4 29.5,18.8 29.6,18.5 30,18.5 				"/>
				<polygon class="st11" points="30.3,20.6 30.1,20.9 29.7,20.9 29.3,20.6 29.3,20 29.4,19.4 29.9,19.8 				"/>
				<path class="st11" d="M29.4,18.4c0,0,0,0.6,0,0.6l-0.3,0.2l-0.4-0.4l0.1-0.5l0.2-0.2L29.4,18.4z"/>
				<polygon class="st11" points="29.8,18.3 29.6,18.3 29,17.9 29,17.4 29.4,17.1 				"/>
				<polygon class="st11" points="29,17.1 28.8,17.5 28.3,17 28.5,16.6 28.7,16.4 29,16.7 				"/>
				<polygon class="st11" points="28,16.4 27.8,16.6 27.7,16.5 27.6,16.3 27.8,16.2 28,16.2 				"/>
				<polygon class="st11" points="26.5,16.2 26.2,16.3 26.1,16.2 26.1,16 26.3,15.9 26.5,16 				"/>
				<polygon class="st11" points="27.6,16.1 27.5,16.3 27.3,16.2 27.3,16 				"/>
				<polygon class="st11" points="28.1,15.8 27.9,16.1 27.7,16 27.6,15.7 27.8,15.6 				"/>
				<polygon class="st11" points="27.1,16.1 27.1,16.2 26.7,16.3 26.6,16.2 				"/>
				<polygon class="st11" points="27,15.8 26.9,16 26.6,15.9 26.7,15.8 26.9,15.7 				"/>
				<polygon class="st11" points="28.7,15.9 28.8,16.2 28.4,16.4 28.3,16 28.2,15.8 				"/>
				<g class="st10">
					<path d="M33.7,30.3c0-0.5-0.2-0.9-0.3-1.4c0,0.2,0,0.5,0,0.7c0,0.2,0.1,0.4,0.1,0.6c0,0.2,0.1,0.3-0.2,0.6l-0.1,0.1
						c0.1-0.1,0.2-0.1,0.3-0.2C33.7,30.6,33.8,30.4,33.7,30.3z"/>
				</g>
				<g>
					<path class="st2" d="M39.9,27.7C39.9,27.7,39.9,27.7,39.9,27.7c0,0.1,0.1,0.2,0.1,0.2c0,0.1,0.1,0.4,0.1,0.6c0,0.2,0,0.5,0,0.6
						c0,0.1,0,0.1,0,0.2c0,0,0,0.1,0,0.1c0,0,0-0.1,0-0.2c0-0.2,0-0.4,0-0.6c0-0.2,0-0.4-0.1-0.6C39.9,27.8,39.9,27.7,39.9,27.7z"/>
				</g>
				<path class="st2" d="M40.8,31.9c-0.1,0.2-0.2,0.4-0.1,0.7c0,0.1,0.1,0.2,0.2,0.3c0.1,0.1,0.1,0.2,0.1,0.4
					c0.1-0.2,0.2-0.5,0.2-0.7C41.1,32.3,41,32,40.8,31.9"/>
			</g>
			<path class="st12" d="M39.8,27.5c0,0,0.1,0.2,0.2,0.5c0.1,0.3,0.1,0.6,0.1,0.6s-0.2,0-0.2,0s-0.2-0.4-0.2-0.4
				S39.8,27.5,39.8,27.5z"/>
		</g>
		<g>
			<g>
				<g>
					<path class="st6" d="M20.1,18.4c-0.2,0-0.4,0.2-0.4,0.3l0.3,0.2c0.1-0.1,0.1-0.2,0.1-0.3S20.1,18.4,20.1,18.4z"/>
					<g>
						<path class="st9" d="M20.1,18.4c-0.2,0-0.4,0.2-0.4,0.3l0.3,0.2c0.1-0.1,0.1-0.2,0.1-0.3S20.1,18.4,20.1,18.4z"/>
					</g>
					<path class="st6" d="M9.4,31.4c0,0,0.3,0.3,0.2,1.1c-0.1,0.8-0.8,3.1-0.9,3.4c0,0.3,0,0.7,0,0.7L8,39.3l0.5,0.1
						c0,0,0.4-1.8,0.7-2.3c0.2-0.6,0.5-0.6,0.6-1.2c0.1-0.6,0.4-2,0.7-2.6c0.3-0.5,0.5-1.3,0.5-1.3l-0.9-1.1L9.4,31.4z"/>
					<path class="st7" d="M9.4,31.4c0,0,0.3,0.3,0.2,1.1c-0.1,0.8-0.8,3.1-0.9,3.4c0,0.3,0,0.7,0,0.7L8,39.3l0.5,0.1
						c0,0,0.4-1.8,0.7-2.3c0.2-0.6,0.5-0.6,0.6-1.2c0.1-0.6,0.4-2,0.7-2.6c0.3-0.5,0.5-1.3,0.5-1.3l-0.9-1.1L9.4,31.4z"/>
					<path class="st6" d="M3.6,31.1c0,0,0.2,1.4-0.2,2.1C3.1,33.8,2,34.8,1.9,35c-0.1,0.2,0,1.4-0.1,1.9C1.7,37.4,1,39.4,1,39.4
						l0.6,0.2c0,0,0.6-2,0.9-2.6c0.3-0.7,0.3-0.7,0.7-1.5c0.4-0.8,1.1-1.2,1.4-1.7c0.3-0.5,0.8-1.7,0.8-1.7L4.6,31L3.6,31.1z"/>
					<path class="st7" d="M3.6,31.1c0,0,0.2,1.4-0.2,2.1C3.1,33.8,2,34.8,1.9,35c-0.1,0.2,0,1.4-0.1,1.9C1.7,37.4,1,39.4,1,39.4
						l0.6,0.2c0,0,0.6-2,0.9-2.6c0.3-0.7,0.3-0.7,0.7-1.5c0.4-0.8,1.1-1.2,1.4-1.7c0.3-0.5,0.8-1.7,0.8-1.7L4.6,31L3.6,31.1z"/>
					<path class="st9" d="M4.4,27.8c-0.5,0.5-1.2,1.4-1.2,2c0,0,0.4,1.9,1,2.4c0.5,0.6,0.3,1.6,0.4,2c0.1,0.5-0.2,1.9-0.2,1.9
						s1.3,2.1,1.4,2.6c0.2,0.5,0.1,0.8,0.1,0.8h0.4c0,0,0.2-0.4,0-1c-0.2-0.6-0.7-1.9-0.7-2.5c-0.1-0.6,0.3-2.3,0.6-2.9
						c0.2-0.6,0.4-1.6,0.4-1.6s1,0.5,1.7,0.3c0.7-0.2,1.8-0.4,1.8-0.4s0.7,0.7,0.9,1.1c0.2,0.4,1.4,2.5,1.4,2.8c0,0.3,0,0.7,0.2,1
						c0.2,0.3,0.3,0.5,0.5,0.8c0.2,0.3,0.7,2.2,0.7,2.2l0.6-0.1c0,0-0.5-1.9-0.7-2.5c-0.2-0.7-0.1-0.9-0.4-1.4
						c-0.3-0.5-0.6-1.4-0.7-2.1c-0.1-0.7-0.4-2-0.3-2.6c0.1-0.6,0.5-1,0.4-1.6c-0.1-0.6-0.5-1.1-0.4-1.6c0.1-0.5,2.8-2.6,3.4-3.3
						c0.7-0.8,2-2.5,2.3-2.9c0.3-0.4,0.7-0.7,0.9-0.7s0.2,0.3,1,0.2l1,0c0,0,0.1,0.1,0.3,0.2c0.2,0.1,0.5,0.1,0.6,0
						c0.1-0.1,0-0.4-0.1-0.5c0-0.1-0.2-0.4-0.4-0.5c-0.2-0.1-0.9-0.8-1-1c-0.1-0.2-0.1-0.5-0.2-0.5c-0.1,0-0.3,0-0.3,0
						s-0.1-0.3-0.2-0.5c0-0.2,0-0.5-0.1-0.5c-0.1,0-0.3,0-0.3,0.1c0,0.1,0.1,0.2,0.1,0.3s0,0.2,0,0.3c0,0.1-0.1-0.1-0.1-0.1
						s-0.1-0.2-0.2-0.3c0-0.2,0-0.3-0.1-0.3c-0.1,0-0.3,0-0.3,0.2c0,0.1,0.1,0.2,0.1,0.4c0,0.1,0.1,0.4,0,0.5
						c-0.1,0.1-0.3,0.1-0.4,0.1c0,0-0.2,0.4-0.4,0.6c-0.2,0.2-1.7,1.9-2.5,2.4c-0.7,0.5-2,1.6-3.4,2.2c-1.5,0.6-1.8,0.2-2.3,0.8
						c-0.5,0.5-1.3,1.4-2.3,1.8c-0.6,0.2-1.2,0.4-1.6,0.5C5.1,27.2,4.7,27.5,4.4,27.8z"/>
					<path class="st9" d="M3.2,29.7c0,0-0.1,0.9-0.1,1.3c0,0.3,0,0.3,0,0.9c0,0.5-0.2,1.4-0.3,1.5l0,0.2c0,0,0.2-0.3,0.4-0.9
						c0.2-0.6,0.1-1.1,0.2-1.5c0.1-0.4,0.1-0.7,0.1-0.7L3.2,29.7z"/>
					<g>
						<path class="st2" d="M19,19.8C19,19.7,19,19.7,19,19.8c0.1-0.1,0.2-0.2,0.3-0.2c0.1,0,0.2,0,0.3,0.1c0.1,0,0.1,0.1,0.1,0.1
							c0,0,0,0-0.1-0.1c-0.1,0-0.1-0.1-0.2,0C19.2,19.6,19.1,19.7,19,19.8C19,19.7,19,19.8,19,19.8z"/>
					</g>
					<path class="st2" d="M19.5,19.6c0,0.1-0.1,0.1-0.1,0.2c0,0-0.1,0-0.2,0c-0.1,0-0.1-0.1-0.1-0.1c0,0,0.1-0.1,0.3-0.1
						C19.4,19.6,19.5,19.6,19.5,19.6L19.5,19.6z"/>
					<g class="st10">
						<path d="M21.3,20.6c-0.1-0.1-0.2-0.2-0.3-0.2c0,0,0,0,0,0c0,0,0,0,0,0C21.1,20.5,21.2,20.6,21.3,20.6"/>
					</g>
					<g>
						<path class="st2" d="M21.2,20.8c0,0,0,0-0.1-0.1c0,0-0.1,0-0.1-0.1c0,0,0,0-0.1-0.1c0,0,0,0-0.1-0.1c0-0.1,0-0.1,0-0.2
							c0,0,0.1-0.1,0.1-0.1c0.1,0,0.1,0,0.1,0c0,0,0,0-0.1,0c0,0-0.1,0-0.1,0.1c0,0,0,0.1,0,0.1c0,0,0.1,0.1,0.1,0.1
							C21.1,20.7,21.1,20.7,21.2,20.8C21.2,20.8,21.2,20.8,21.2,20.8z"/>
					</g>
					<path class="st11" d="M10.8,25c0,0-0.7,0.7-0.7,1c0,0.3,0.1,0.4,0.2,0.7c0.1,0.3,0.1,0.6,0.4,0.6c0.3,0.1,0.3,0.1,0.3,0.1
						s0.2-0.6,0.4-0.9c0.2-0.3,0.3-0.3,0.3-0.3l-0.2-0.6L10.8,25z"/>
					<path class="st11" d="M11,24.8c0,0,0.3,0.7,0.5,0.6c0.2-0.1,0.7-0.1,0.7-0.1s0.2-0.8,0.2-0.9c0-0.1-0.5,0.1-0.5,0.1
						C11.8,24.5,11,24.6,11,24.8z"/>
					<path class="st11" d="M13,24.1c-0.1,0-0.3,0.3-0.3,0.3c0,0.1-0.1,0.9-0.1,0.9l0.8,0.2l0.3-0.5v-0.6L13,24.1z"/>
					<polygon class="st11" points="9.8,26.2 9.2,26.8 9.2,27.3 9.5,28 10.2,27.4 10.1,26.7 					"/>
					<polygon class="st11" points="9,27 8.5,27 8.2,27.9 8.5,28.5 9.2,28 9.1,27.5 					"/>
					<polygon class="st11" points="8.7,28.8 8.8,29.4 9.9,29.5 9.9,29 9.6,28.3 					"/>
					<polygon class="st11" points="9.8,28.3 10,28.8 10.1,29.4 10.6,29.5 10.8,28.9 11.2,28.3 11,27.9 10.6,27.6 					"/>
					<polygon class="st11" points="8.3,28.4 7.9,28.4 7.3,28.8 6.7,29 6.7,29.3 7.8,29.3 8.5,29 					"/>
					<polygon class="st11" points="6.5,27.9 6.4,28.8 6.8,28.7 7.5,28.3 7.4,28.1 7.2,27.8 					"/>
					<path class="st11" d="M7.8,26.5c0,0-0.4,0.9-0.4,0.9l0.4,0.6h0.2l0.1-0.3V27l0.3-0.3l-0.1-0.4L7.8,26.5z"/>
					<polygon class="st11" points="5.7,29.2 5.7,29.8 6.4,30.1 6.4,29.3 6.1,28.9 					"/>
					<polygon class="st11" points="6.7,29.8 6.7,30.5 6.9,30.8 7.4,30.5 7.4,29.8 					"/>
					<polygon class="st11" points="7.7,29.6 7.8,30.2 8.4,30.3 8.5,29.7 8.4,29.3 					"/>
					<path class="st11" d="M9,29.8c0,0,0,0.6,0,0.6l0.7,0.4l0.2-0.3l0.4,0.2v-0.7L10,29.8L9,29.8z"/>
					<path class="st11" d="M8.5,30.3c0,0-0.3,0.2-0.3,0.2v0.5l0.3,0.1L9,30.7L8.5,30.3z"/>
					<polygon class="st11" points="5.2,29.2 4.7,29.1 4.6,29.4 4.8,30.4 5.2,30.4 5.4,29.8 5.3,29.2 					"/>
					<path class="st11" d="M4.5,28.6c0,0,0.2-0.8,0.2-0.8l0.9-0.2l0.4,0.1v0.8l-0.6,0.4l-0.9-0.1L4.5,28.6z"/>
					<polygon class="st11" points="6.4,27.7 6.6,27.7 7.1,27.5 7.4,26.8 6.9,26.8 6.4,27.1 					"/>
					<path class="st11" d="M8.5,26.1c0,0,0.2,0.5,0.2,0.5l0.4,0.1L9.7,26l-0.4-0.6l-0.5,0.2L8.5,26.1z"/>
					<polygon class="st11" points="11.9,25.5 11.7,25.9 11.8,26.2 12.2,26.1 12.4,25.8 12.2,25.5 					"/>
					<polygon class="st11" points="13.8,24.2 14.1,24.4 14.7,24 14.5,23.6 14.1,23.7 					"/>
					<polygon class="st11" points="13.2,23.4 13.2,23.9 13.8,23.9 14.2,23.4 14.2,23.1 13.9,22.9 					"/>
					<polygon class="st11" points="14.5,22.9 14.6,23.3 15,23.5 15.4,23.4 15.8,22.8 15.9,22.2 15.2,22.3 					"/>
					<path class="st11" d="M16.3,21.4c0,0-0.3,0.5-0.3,0.5l0.2,0.3l0.5-0.2l0.1-0.5l0-0.3L16.3,21.4z"/>
					<polygon class="st11" points="16.2,21 16.4,21.2 17.1,21 17.3,20.6 17.1,20.2 					"/>
					<polygon class="st11" points="17.4,20.5 17.4,20.9 18,20.8 18.1,20.3 17.9,20 17.5,20.2 					"/>
					<polygon class="st11" points="18.5,20.1 18.5,20.4 18.7,20.4 18.9,20.3 18.8,20 18.6,20 					"/>
					<polygon class="st11" points="18.9,20 19,20.3 19.2,20.3 19.3,20.1 					"/>
					<polygon class="st11" points="19.4,20.2 19.3,20.4 19.6,20.6 19.8,20.5 					"/>
					<polygon class="st11" points="19.7,20 19.6,20.2 19.9,20.3 20,20.1 19.8,20 					"/>
					<polygon class="st11" points="18.3,19.6 18,19.8 18.3,20.1 18.6,19.9 18.7,19.7 					"/>
					<g>
						<path class="st9" d="M18.1,19.3c-0.2,0-0.4-0.2-0.4-0.4c-0.1-0.2-0.1-0.4-0.1-0.6c0,0,0-0.1,0-0.1c0,0,0,0,0.1,0
							c0.1,0.1,0.3,0.2,0.4,0.3c0.1,0.1,0.2,0.3,0.2,0.4"/>
						<g class="st10">
							<path d="M18,19c0-0.1,0-0.1,0.1-0.2c0,0,0-0.1,0-0.1c-0.1-0.1-0.1-0.1-0.2-0.1c0,0,0.1,0.1,0.1,0.1c0,0,0,0.1,0,0.1
								c0,0-0.1,0-0.1,0c0.1,0,0.1,0.1,0.1,0.1c0,0-0.1,0-0.1,0.1C17.8,18.9,17.9,19,18,19c0,0,0,0.1,0,0.1c0,0,0.1,0.1,0.1,0.1l0,0
								C18.1,19.2,18,19.1,18,19z"/>
						</g>
						<g>
							<path class="st2" d="M17.6,18.3c0,0,0.1,0,0.2,0.1c0,0,0.1,0.1,0.1,0.1c0.1,0,0.1,0.1,0.1,0.2c0,0,0,0,0,0.1c0,0,0,0,0,0.1
								c0,0,0,0.1,0,0.1c0,0.1,0,0.1,0,0.2c0,0.1,0.1,0.1,0.1,0.1c0,0,0,0,0,0c0,0,0-0.1-0.1-0.1c0,0,0-0.1,0-0.2c0,0,0-0.1,0.1-0.1
								c0,0,0-0.1,0-0.1c0-0.1-0.1-0.1-0.1-0.2c0,0-0.1-0.1-0.1-0.1C17.7,18.4,17.6,18.3,17.6,18.3z"/>
						</g>
					</g>
					<g>
						<path class="st2" d="M19.6,19.3c0,0,0,0-0.1,0c-0.1,0-0.2,0-0.3,0c-0.1,0-0.2,0.1-0.2,0.1c-0.1,0-0.1,0.1-0.1,0.1
							c0,0,0,0,0.1-0.1c0.1-0.1,0.1-0.1,0.3-0.1c0.1,0,0.2,0,0.3,0C19.6,19.3,19.6,19.3,19.6,19.3z"/>
					</g>
					<path class="st2" d="M2.9,33.2c-0.2,0-0.5,0.1-0.6,0.3c-0.1,0.1-0.1,0.2-0.1,0.4c0,0.1-0.1,0.3-0.2,0.3c0.2,0,0.5-0.2,0.6-0.3
						C2.8,33.8,2.9,33.5,2.9,33.2"/>
					<g>
						<path class="st2" d="M6.5,29.5c0,0,0,0,0,0.1c0,0.1,0,0.2,0.1,0.3c0,0.2,0.1,0.6,0.1,0.9c0,0.4-0.1,0.7-0.1,0.9
							c0,0.1,0,0.2-0.1,0.3c0,0.1,0,0.1,0,0.1c0,0,0,0,0-0.1c0-0.1,0-0.2,0-0.3c0-0.2,0.1-0.6,0.1-0.9c0-0.4,0-0.7,0-0.9
							c0-0.1,0-0.2,0-0.3C6.5,29.6,6.5,29.5,6.5,29.5z"/>
					</g>
					<g>
						<path class="st2" d="M9.5,30.8c0,0,0.1,0.2,0.3,0.4c0.2,0.2,0.3,0.4,0.3,0.4c0,0-0.1-0.2-0.3-0.4C9.6,31,9.5,30.8,9.5,30.8z"
							/>
					</g>
				</g>
				<path class="st9" d="M6.2,39.4l-0.3,0.2c0,0,0.2,0.2,0,0.4h1C6.9,40,6.8,39.5,6.2,39.4z"/>
				<g>
					<path class="st6" d="M1.3,39.3L1,39.4c0,0,0.1,0.3-0.1,0.4l0.9,0.3C1.8,40.1,1.9,39.7,1.3,39.3z"/>
					<path class="st7" d="M1.3,39.3L1,39.4c0,0,0.1,0.3-0.1,0.4l0.9,0.3C1.8,40.1,1.9,39.7,1.3,39.3z"/>
				</g>
				<g>
					<path class="st6" d="M8.4,39.2L8,39.3c0,0,0.1,0.3-0.1,0.4L8.9,40C8.9,40,8.9,39.5,8.4,39.2z"/>
					<path class="st7" d="M8.4,39.2L8,39.3c0,0,0.1,0.3-0.1,0.4L8.9,40C8.9,40,8.9,39.5,8.4,39.2z"/>
				</g>
				<g>
					<path class="st9" d="M14.1,39.4l-0.3,0.2c0,0,0.3,0.2,0,0.4l1,0C14.9,40,14.8,39.5,14.1,39.4z"/>
				</g>
			</g>
			<path class="st12" d="M3.2,29.6l0,0.2l0.2,0.5l0,0.2l0.2,0.3c0,0,0-0.6,0-0.6S3.3,29.7,3.2,29.6C3.3,29.7,3.2,29.6,3.2,29.6z"/>
			<g>
				<path class="st2" d="M3.7,29.1c0,0,0,0.1-0.1,0.2c-0.1,0.2-0.1,0.4-0.2,0.6c0,0.3,0,0.5,0,0.7c0,0.2,0.1,0.3,0,0.3
					c0,0,0,0,0-0.1c0,0,0-0.1,0-0.2c0-0.2,0-0.4,0-0.7c0-0.3,0.1-0.5,0.2-0.6C3.6,29.2,3.6,29.2,3.7,29.1
					C3.7,29.1,3.7,29.1,3.7,29.1z"/>
			</g>
		</g>
	</g>
	<g>
		<g>
			<path class="st2" d="M13.8,16.5c0,0-0.1,0-0.2,0c-0.1,0-0.3,0-0.5,0c-0.2,0-0.5,0.1-0.7,0.3c-0.2,0.2-0.4,0.4-0.5,0.8
				c0,0,0,0,0,0l0,0.1l0-0.1c-0.1-0.3-0.3-0.5-0.6-0.7c-0.2-0.2-0.5-0.2-0.7-0.2c-0.2,0-0.4,0-0.5,0c-0.1,0-0.2,0.1-0.2,0.1
				c0,0,0,0,0,0c0,0,0.1,0,0.1,0c0.1,0,0.3-0.1,0.5-0.1c0.2,0,0.5,0.1,0.7,0.2c0.2,0.2,0.5,0.4,0.6,0.7l0,0c0,0,0,0,0,0
				c0.1-0.3,0.3-0.6,0.5-0.8c0.2-0.2,0.5-0.3,0.7-0.3c0.2,0,0.4,0,0.5,0C13.7,16.5,13.7,16.5,13.8,16.5
				C13.8,16.5,13.8,16.5,13.8,16.5z"/>
		</g>
	</g>
	<g>
		<g>
			<path class="st2" d="M18.9,14c0,0,0,0-0.1,0c-0.1,0-0.2,0-0.3,0c-0.1,0-0.3,0.1-0.4,0.2c-0.1,0.1-0.2,0.2-0.3,0.4l0,0l0,0.1
				l0-0.1c-0.1-0.2-0.2-0.3-0.3-0.4c-0.1-0.1-0.3-0.1-0.4-0.1c-0.1,0-0.2,0-0.3,0c-0.1,0-0.1,0-0.1,0c0,0,0,0,0,0c0,0,0,0,0.1,0
				c0.1,0,0.2,0,0.3,0c0.1,0,0.3,0,0.4,0.1c0.1,0.1,0.3,0.2,0.3,0.4l0,0l0,0c0-0.2,0.2-0.3,0.3-0.4c0.1-0.1,0.3-0.1,0.4-0.2
				C18.6,14,18.7,14,18.9,14C18.8,14,18.9,14,18.9,14C18.9,14,18.9,14,18.9,14z"/>
		</g>
	</g>
	<g>
		<g>
			<path class="st2" d="M15.6,12.9c0,0,0,0-0.1,0.1c-0.1,0.1-0.1,0.2-0.2,0.3c-0.2,0.3-0.4,0.7-0.4,1.3c0,0,0,0,0,0l0,0
				c0-0.3-0.1-0.5-0.2-0.7c-0.1-0.2-0.2-0.4-0.3-0.5c-0.1-0.1-0.2-0.2-0.3-0.3c-0.1-0.1-0.1-0.1-0.1-0.1c0,0,0,0,0,0
				c0,0,0.1,0,0.1,0.1c0.1,0,0.2,0.1,0.3,0.2c0.1,0.1,0.3,0.3,0.4,0.5c0.1,0.2,0.2,0.4,0.2,0.7l0,0c0,0,0,0,0,0c0-0.5,0.2-1,0.4-1.3
				c0.1-0.1,0.2-0.2,0.2-0.3C15.5,13,15.5,12.9,15.6,12.9C15.6,12.9,15.6,12.9,15.6,12.9z"/>
		</g>
	</g>
</g>
</svg>
