<?xml version="1.0" encoding="utf-8"?>
<!-- Generator: Adobe Illustrator 27.4.0, SVG Export Plug-In . SVG Version: 6.00 Build 0)  -->
<svg version="1.1" id="Layer_1" xmlns="http://www.w3.org/2000/svg" xmlns:xlink="http://www.w3.org/1999/xlink" x="0px" y="0px"
	 viewBox="0 0 50 50" style="enable-background:new 0 0 50 50;" xml:space="preserve">
<style type="text/css">
	
		.st0{fill:none;stroke:#D3D3D3;stroke-width:0.2397;stroke-linecap:round;stroke-linejoin:round;stroke-miterlimit:10;stroke-dasharray:0.7192,1.0788,0.7192,1.0788,0.7192,1.0788;}
	.st1{fill:#B7B7B7;}
	.st2{fill:#9B9B9B;}
	.st3{fill:#6D6D6D;}
	.st4{fill:#6B6B6B;}
	.st5{fill:#00953B;}
	.st6{fill:#CCCCCC;}
	.st7{fill:#FFFFFF;}
	.st8{fill:#ADADAD;}
	.st9{fill:#EDEDED;}
	.st10{fill:#142428;}
	.st11{fill:#1A2E35;stroke:#1A2E35;stroke-width:0.1021;stroke-linecap:round;stroke-linejoin:round;stroke-miterlimit:10;}
	.st12{fill:none;stroke:#499DA3;stroke-width:0.1199;stroke-linecap:round;stroke-linejoin:round;stroke-miterlimit:10;}
	.st13{fill:#FE8C6D;}
	.st14{fill:none;stroke:#E0483A;stroke-width:0.1199;stroke-linecap:round;stroke-linejoin:round;stroke-miterlimit:10;}
	.st15{fill:none;stroke:#1A2E35;stroke-width:0.1199;stroke-linecap:round;stroke-linejoin:round;stroke-miterlimit:10;}
	.st16{fill:#3E2336;}
	.st17{fill:#6CC4BD;}
	.st18{fill:#FB6F61;}
	.st19{fill:#692539;}
	.st20{fill:#FA4664;}
</style>
<g>
	<g>
		<g>
			<g>
				<path class="st0" d="M9.4,19.9c0.7,1.1,1.5,2.1,2,3.3c0.5,1.2,0.8,2.5,0.5,3.8c-0.5,2.4-3.2,4.1-5.6,3.6c-0.8-0.2-1.6-0.6-2-1.2
					c-0.7-1.1-0.3-2.6,0.7-3.4s2.4-1,3.6-0.7c1.2,0.3,2.4,1,3.4,1.7s2,1.5,3.2,2.1c2.3,1.2,5.1,1.4,7.5,0.6"/>
				<g>
					<polygon class="st1" points="8.4,20.1 6.5,17.5 7.3,17.3 					"/>
					<polygon class="st2" points="3.6,19.7 11.6,15.7 2.8,12.4 					"/>
					<polygon class="st3" points="2.8,12.5 7.1,18 8.4,20.1 8.4,17.3 					"/>
				</g>
			</g>
			<g>
				<path class="st0" d="M35.3,13.2c0.3,2.3,1.8,4.4,4,5.4c2.2,1,4.9,1,7-0.2c1.7-0.9,3-2.9,2.3-4.5c-0.7-1.5-3-2.1-4.5-1.2
					c-1.5,0.9-1.9,3-1.1,4.4c0.9,1.7,3.1,2.5,4.4,4c1.7,1.9,1.7,4.9,0.4,7c-1.3,2.2-3.7,3.6-6.3,4.3"/>
				<g>
					<polygon class="st4" points="36.3,12.2 37.3,9.8 36.6,9.8 					"/>
					<polygon class="st2" points="39.9,10.8 32.9,9.6 38.9,5.1 					"/>
					<polygon class="st3" points="38.9,5.1 36.9,10.3 36.3,12.3 35.7,10.1 					"/>
				</g>
			</g>
		</g>
		<g>
			<g>
				<g>
					<path class="st5" d="M13.6,9.8c0.3-0.5,0.5-1,0.7-1.5c-0.6,0.1-1.1,0.2-1.7,0.4c-0.4-0.4-0.8-0.7-1.2-0.9
						c-0.2,0.5-0.2,1-0.3,1.5c-0.5,0.2-1,0.5-1.5,0.8c0.5,0.2,1.1,0.5,1.6,0.7c0,0.6,0.1,1.2,0.3,1.8c0.4-0.5,0.8-1,1.2-1.5
						c0.5,0.2,1,0.2,1.5,0.3C14.2,10.7,13.9,10.2,13.6,9.8z"/>
				</g>
			</g>
			<g>
				<g>
					<path class="st5" d="M28.3,10.7c0.1-0.1,0.1-0.3,0.2-0.4c-0.2,0-0.3,0.1-0.5,0.1c-0.1-0.1-0.2-0.2-0.4-0.3
						c0,0.1-0.1,0.3-0.1,0.4c-0.1,0.1-0.3,0.1-0.4,0.2c0.2,0.1,0.3,0.1,0.5,0.2c0,0.2,0,0.4,0.1,0.5c0.1-0.1,0.2-0.3,0.3-0.4
						c0.1,0,0.3,0.1,0.4,0.1C28.5,10.9,28.4,10.8,28.3,10.7z"/>
				</g>
			</g>
			<g>
				<g>
					<path class="st5" d="M44.5,9.3c0.2-0.2,0.4-0.3,0.6-0.5c-0.3-0.1-0.5-0.2-0.8-0.2c-0.1-0.2-0.2-0.5-0.3-0.7
						c-0.2,0.2-0.3,0.4-0.4,0.6c-0.3,0-0.5,0-0.8,0c0.2,0.2,0.4,0.4,0.5,0.7c-0.1,0.3-0.2,0.6-0.2,0.8c0.3-0.1,0.6-0.2,0.8-0.4
						c0.2,0.2,0.4,0.3,0.6,0.4C44.5,9.8,44.5,9.5,44.5,9.3z"/>
				</g>
			</g>
			<g>
				<g>
					<path class="st5" d="M37.5,21.2c0.1-0.1,0.1-0.3,0.2-0.4c-0.2,0-0.3,0.1-0.5,0.1c-0.1-0.1-0.2-0.2-0.4-0.3
						c0,0.1-0.1,0.3-0.1,0.4c-0.1,0.1-0.3,0.1-0.4,0.2c0.2,0.1,0.3,0.1,0.5,0.2c0,0.2,0,0.4,0.1,0.5c0.1-0.1,0.2-0.3,0.3-0.4
						c0.1,0,0.3,0.1,0.4,0.1C37.7,21.5,37.6,21.3,37.5,21.2z"/>
				</g>
			</g>
			<g>
				<g>
					<path class="st5" d="M47.8,32.7c0.1-0.1,0.1-0.3,0.2-0.4c-0.2,0-0.3,0.1-0.5,0.1c-0.1-0.1-0.2-0.2-0.4-0.3
						c0,0.1-0.1,0.3-0.1,0.4c-0.1,0.1-0.3,0.1-0.4,0.2c0.2,0.1,0.3,0.1,0.5,0.2c0,0.2,0,0.4,0.1,0.5c0.1-0.1,0.2-0.3,0.3-0.4
						c0.1,0,0.3,0.1,0.4,0.1C48,33,47.9,32.8,47.8,32.7z"/>
				</g>
			</g>
			<g>
				<g>
					<path class="st5" d="M12.9,32.5c0.3-0.1,0.5-0.2,0.7-0.4c-0.2-0.1-0.5-0.3-0.8-0.4c0-0.3-0.1-0.5-0.2-0.7
						c-0.2,0.1-0.4,0.3-0.6,0.5c-0.3-0.1-0.5-0.1-0.8-0.1c0.1,0.3,0.3,0.5,0.4,0.8c-0.2,0.2-0.4,0.5-0.4,0.8c0.3,0,0.6-0.1,0.9-0.2
						c0.1,0.2,0.3,0.4,0.5,0.6C12.8,33,12.8,32.8,12.9,32.5z"/>
				</g>
			</g>
			<g>
				<g>
					<path class="st5" d="M2.2,24.1c0.1-0.1,0.1-0.3,0.2-0.4c-0.2,0-0.3,0.1-0.5,0.1c-0.1-0.1-0.2-0.2-0.4-0.3
						c0,0.1-0.1,0.3-0.1,0.4C1.4,24,1.2,24,1.1,24.1c0.2,0.1,0.3,0.1,0.5,0.2c0,0.2,0,0.4,0.1,0.5c0.1-0.1,0.2-0.3,0.3-0.4
						c0.1,0,0.3,0.1,0.4,0.1C2.4,24.3,2.3,24.2,2.2,24.1z"/>
				</g>
			</g>
		</g>
	</g>
	<g>
		<g>
			<g>
				<path class="st6" d="M39.5,40.3l-0.8,0.5c-0.1,0,0,0.1,0,0.2l4.9,1c0.3,0.1,0.5,0.1,0.8,0.1l2.3,0.1c0.1,0,0.1-0.1,0-0.2
					L45,41.1L39.5,40.3z"/>
				<g>
					<g>
						<path class="st5" d="M46.7,40.9c0,0,0,0.1,0,0.1c0,0.1-0.1,0.2-0.2,0.2l-1.6,0.3c-0.3,0.1-0.6,0.1-0.9,0l-0.5-0.1L40,40.9
							l-0.5-0.1c-0.1,0-0.3-0.1-0.4-0.2c-0.3-0.4-0.2-0.9,0.2-1.3c0.1,0,0.1-0.1,0.2-0.1l0.7,0.1l3.7,0.4l0.5,0.1
							c0.1,0,0.3,0.1,0.4,0.1l1.7,0.8C46.6,40.8,46.7,40.8,46.7,40.9z"/>
						<path class="st7" d="M43.5,40.2c-0.2,0.3-0.2,0.8-0.1,1.2c0,0.1,0.1,0.1,0.1,0.2l-0.2,0l-0.2,0l-0.2,0L40.7,41l-0.2,0l-0.1,0
							l-0.3,0c-0.2-0.3-0.2-0.7-0.1-1c0.1-0.2,0.2-0.4,0.3-0.5l0.2,0l0.1,0l2.8,0.3l0.2,0l0.4,0C43.8,39.9,43.6,40,43.5,40.2z"/>
						<path class="st5" d="M43.3,41.4c-0.2-0.3-0.2-0.6-0.2-0.9c0-0.3,0.2-0.6,0.4-0.8l-0.2,0c-0.2,0.2-0.4,0.5-0.4,0.8
							c0,0.3,0,0.6,0.2,0.9L43.3,41.4z"/>
						<path class="st5" d="M40.6,39.4c-0.2,0.2-0.3,0.4-0.3,0.7c-0.1,0.3,0,0.6,0.1,0.9l-0.1,0c-0.1-0.3-0.1-0.6-0.1-0.9
							c0-0.3,0.1-0.5,0.3-0.7L40.6,39.4z"/>
					</g>
					<path class="st5" d="M40.7,40.2c0-0.3,0.5-0.6,1.1-0.6c0.6,0,1,0.3,1,0.7c0,0.3-0.5,0.6-1.1,0.6C41.1,40.9,40.7,40.6,40.7,40.2
						z"/>
				</g>
			</g>
		</g>
		<g>
			<g>
				<polygon class="st8" points="6.4,42.5 2.2,43.8 26.8,44.9 37.3,39.9 				"/>
				<g>
					<polygon class="st6" points="6.9,42.3 1.9,43.4 1.9,43.8 26.7,44.7 37.5,39.8 37.5,39.4 					"/>
					<polygon class="st9" points="1.9,43.4 26.6,44.1 37.5,39.4 15,38.6 					"/>
				</g>
			</g>
			<g>
				<g>
					<path class="st7" d="M35.5,25.8c0.5-0.7,0.8-1.5,1-2.4c0.1-0.3-0.1-0.6-0.4-0.6c-1.3-0.3-2.7-0.2-4,0.2
						c0.2,0.8,0.4,1.5,0.6,2.3c0,0.2,0.1,0.3,0.2,0.4c0.1,0.1,0.2,0,0.3,0C33.9,25.6,34.6,25.6,35.5,25.8z"/>
					<path class="st10" d="M36.1,31.3c0-1.9-0.1-3.8-0.3-5.8c-1.3-0.6-2.8-0.6-4.5,0.1c-0.1,1.5,0,3.1,0.3,4.6c0,0.1,0,0.2,0.1,0.3
						c0.1,0.1,0.2,0.1,0.3,0.1C33.3,30.8,34.6,30.9,36.1,31.3z"/>
				</g>
				<g>
					<path class="st7" d="M39.6,25.7c-0.7-0.5-1.3-1.4-1.4-2.3c0-0.2,0.1-0.5,0.3-0.6c1.9-1,4.1-1.3,6.3-1c0.4,0.1,0.6,0.4,0.5,0.8
						c-0.3,1.3-1.1,2.4-2.3,3.1C41.9,25.5,40.8,25.6,39.6,25.7z"/>
					<g>
						<path class="st11" d="M35.5,36.8c2.4-0.2,5.1-0.6,7.6-1.6c0.8-0.3,1.4-1.1,1.4-1.9c0.1-2.6-0.5-5.3-1-7.6
							c-1.2-0.6-2.9-0.7-4.4-0.2c0,1.3,0,2.7,0,4c-2-0.5-3.8-0.8-5.9-0.8C34.2,31.2,34.9,34,35.5,36.8z"/>
						<g>
							<path class="st12" d="M39.2,29.5c0.5,0.1,0.9,0.3,1.4,0.5c0.4,0.2,0.8,0.5,1.1,1"/>
							<path class="st12" d="M39.5,29.2c0.8-0.3,1.8-0.3,2.6,0"/>
						</g>
					</g>
				</g>
				<g>
					<path class="st13" d="M17.4,32.6c-1.7,1.7-3.4,3.1-6,4.4c0.9,0.6,1.5,1.3,1.9,2.4c2.7-0.6,5.1-1.7,7.6-3.3
						C19.7,34.9,18.6,33.7,17.4,32.6z"/>
					<g>
						<g>
							<path class="st13" d="M12.2,36.6c-2.3-0.2-3.7-0.2-3.9,1.3c-0.1,0.4-0.1,0.8-0.1,1.2c0.1,0.4,0.3,0.8,0.7,1
								C8.8,40.4,9,40.8,9.2,41c0.2,0.2,0.5,0.3,0.8,0.3c0.5,0.1,1,0.1,1.5,0.1c0.2,0,0.3,0,0.4-0.2c0.1-0.2-0.1-0.5-0.3-0.6
								c-0.2-0.1-0.5-0.1-0.7-0.3c0.9,0.2,1.9-0.2,2.5-1.1C13.2,38.2,13,37.5,12.2,36.6z"/>
							<g>
								<path class="st5" d="M12.2,42.4c0,0.1,0,0.2-0.1,0.2c0,0-0.1,0-0.1,0c-0.1,0-0.1,0-0.2-0.1l-1.3-1.5c0,0-0.1-0.2-0.2-0.6
									c-0.1-0.2-0.2-0.5-0.3-0.8c-0.4-0.9-0.8-2.1-1.2-3.1c-0.1-0.3-0.2-0.6-0.3-0.8c-0.2-0.6-0.4-1.1-0.4-1.1
									c0.4-0.3,0.9-0.5,1.4-0.5l0.4,1l0.3,0.8l1.3,3.1l0.4,0.9l0.2,0.5L12.2,42.4z"/>
								<path class="st7" d="M11.8,40c-0.5,0.2-1,0.4-1.5,0.5c-0.1-0.2-0.2-0.5-0.3-0.8c-0.4-0.9-0.8-2.1-1.2-3.1
									c-0.1-0.3-0.2-0.6-0.3-0.8c0.4-0.2,0.9-0.4,1.4-0.5l0.3,0.8l1.3,3.1L11.8,40z"/>
								<path class="st5" d="M11.5,39.1c-0.5,0.2-1,0.4-1.5,0.5c-0.4-0.9-0.8-2.1-1.2-3.1c0.4-0.3,0.9-0.4,1.4-0.5L11.5,39.1z"/>
							</g>
							<g>
								<path class="st13" d="M11,36.8c-0.1,0.3-0.3,0.6-0.5,0.9c-0.1,0.3-0.2,0.6-0.2,0.9c0,0.4,0.1,0.8,0,1.2c0,0.2,0,0.5,0.2,0.6
									c0.1,0.1,0.2,0.1,0.3,0c0.1,0,0.2-0.1,0.3-0.2c0.2-0.3,0.3-0.7,0.4-1c0.4-0.1,0.8-0.5,0.9-0.9"/>
								<g>
									<path class="st14" d="M11.7,39.4c0-0.1,0.1-0.2,0.2-0.4c0.4-0.2,0.8-0.5,1-0.9"/>
									<path class="st14" d="M10.8,37.2c0-0.1,0.1-0.2,0.1-0.2"/>
								</g>
							</g>
							<path class="st13" d="M8.9,36.9c-0.5,0.2-0.9,0.5-1.1,0.9c-0.2,0.3-0.1,0.8,0.2,1c0.4,0.3,0.7,0.5,1.1,0.8
								c0.1,0.3,0.3,0.5,0.5,0.7c0.1,0.1,0.2,0.2,0.3,0.2c0.2,0,0.4-0.1,0.4-0.2c0.1-0.2,0.1-0.3,0.1-0.5c-0.1-0.8-0.6-1.5-1.2-1.9
								C9.1,37.6,9,37.3,8.9,36.9z"/>
						</g>
						<g>
							<path class="st14" d="M8.3,39c0.2,0.2,0.5,0.4,0.8,0.6c0.1,0.2,0.1,0.3,0.2,0.5c0.1,0.2,0.2,0.3,0.4,0.4
								c0.2,0.1,0.4,0,0.5-0.1"/>
							<path class="st14" d="M8.9,40.2c0.1,0.1,0.3,0.2,0.4,0.1"/>
						</g>
					</g>
				</g>
				<g>
					<path class="st5" d="M20.5,29.2c-1.6,1.1-2.6,2.2-4,4.1c1.4,0.9,2.8,2.1,4.2,3.5c0.8-0.3,1.4-0.6,2.4-1c1.8,1.1,3.9,1.6,6,1.7
						c2.1,0.1,4.2-0.3,6.4-0.8c1-1.3,1.4-3.3,0.9-4.9c-0.5-1.6-1.8-3.3-3.5-4C29,28.3,23.9,26.8,20.5,29.2z"/>
					<g>
						<g>
							<path class="st15" d="M28.5,32.3c0.5,1.4,1.3,2.8,2.2,4"/>
							<path class="st15" d="M33,30.8c0.9,0.7,1.7,1.7,2.1,2.8"/>
							<path class="st15" d="M28.4,34.1c0.4,0.6,1,1.1,1.6,1.4"/>
						</g>
						<g>
							<path class="st15" d="M21,31.9c0.5,1.3,1.2,2.6,2.1,3.8"/>
							<path class="st15" d="M20.4,33.6c0.6,0.7,1.4,1.2,2.2,1.6"/>
						</g>
					</g>
				</g>
				<g>
					<path class="st13" d="M28,29.8c0,0,0,0.1,0,0.1c0,0.1,0,0.2,0,0.4c-0.1,0.7-0.3,1.4-0.7,2c-0.5,0.7-1.5,1.2-2.3,1
						c-0.5-0.1-0.9-0.4-1.2-0.7c-0.5-0.4-0.9-1-1.4-1.4c1.7-0.5,3.4-1,5.2-1.2C27.7,29.9,27.9,29.8,28,29.8z"/>
					<path class="st16" d="M28.3,30c-0.1,0.1-0.2,0.2-0.3,0.3c-1.1,1.2-2.6,2-4.3,2.2c-0.5-0.4-0.9-1-1.4-1.4c1.7-0.5,3.4-1,5.2-1.2
						c0.2,0,0.3,0,0.5,0C28.1,29.9,28.2,29.9,28.3,30z"/>
				</g>
				<g>
					<path class="st10" d="M17,25.6c0.3,1,0,2.1-0.6,2.9c-0.2,0.3-0.5,0.6-0.3,0.9c0.1,0.2,0.4,0.3,0.7,0.3c0.2-0.1,0.4-0.2,0.6-0.4
						c0,0.3,0,0.6,0.1,0.9c0.1,0.3,0.3,0.5,0.6,0.5c0.3,0,0.8-0.4,0.7-0.7c0.9,1,2.7,1.3,4.2,0.8c1.9-0.2,3.4-0.6,5.2-1.6
						c0.2,0,0.4,0,0.7-0.1c0.2-0.2,0.4-0.3,0.7-0.5c-0.2,0.3-0.5,0.6-0.9,0.8c0.8,0.2,1.3,0.2,2-0.2c-0.1,0.4,0,0.8,0.4,0.9
						c0.5,0.1,1.2-0.9,1.4-1.2c0.3-0.8,0.2-1.8,0.2-2.7c-3.4,0-6.9-0.1-10.3-0.1c-1.3,0-2.7,0-4,0C17.9,26,17.4,26,17,25.6z"/>
					<path class="st13" d="M21.2,15c-1.8,1-3.3,2.7-4.2,4.7c-0.5,1-0.5,2.2-0.2,3.3c0.6,1.7,1.1,3.5,1.6,5.4c0.2,0.8,0.7,1.6,1.5,2
						c2.3,1.2,5.1,1.4,7.4,0.3c1.5-0.7,2.8-1.9,3.6-3.3c0.9-1.4,1.3-3.1,1.4-4.7c0.1-1.2-0.1-2.5-0.7-3.6c-0.6-1.2-1.8-2.2-3-2.9
						C26.3,14.8,23.2,13.8,21.2,15z"/>
					<path class="st13" d="M18.1,24.9c-0.2-0.4-0.6-0.7-1-0.8c-0.6-0.1-1.2,0.3-1.4,0.8c-0.2,0.6-0.2,1.3,0.1,1.8
						c0.3,0.6,0.8,1,1.3,1.2c0.5,0.3,1.1,0.4,1.7,0.4"/>
					<path class="st11" d="M31.7,26.1c-0.3-0.7-0.5-1.5-0.6-2.1c-2-1.5-3.4-3.9-3.8-6.3c-0.6,0.7-1.4,1.2-2.3,1.4
						c-0.9,0.2-1.8,0.2-2.7,0.3c-0.9,0.1-1.9,0.3-2.6,0.8c-0.8,0.5-1.4,1.3-1.4,2.3c0,0.2,0,0.4,0,0.6c0,0.3-0.2,0.5-0.5,0.5
						c-0.1,0-0.3-0.1-0.3-0.2c-0.2-0.2-0.2-0.5-0.2-0.8c0.1,1.1,0.3,2.2,0.6,3.3c-1-0.4-1.9-1.5-2-2.6c0.1,0.2-0.1,0.4-0.3,0.5
						c-0.2,0-0.4-0.1-0.6-0.3c-0.1-0.2-0.2-0.4-0.2-0.6c-0.1-0.9,0-1.9,0.4-2.8c-0.1,0.3-0.2,0.7-0.5,0.9c-0.1,0.1-0.3,0.1-0.4,0.1
						c-0.3-0.1-0.5-0.4-0.5-0.7c-0.1-1.2,0.7-2.4,1.6-3.2c1-0.8,2.1-1.3,3.2-1.9c1-0.6,1.9-1.4,2.9-1.9c1.2-0.6,2.6-0.9,3.9-0.7
						c1.3,0.2,2.6,1,3.2,2.3c0.2-0.1,0.5-0.2,0.7-0.3c1.2-0.4,2.5,0.1,3.1,1.2c0.9,1.5,1.6,3.1,2.1,4.9c0.4,1.1,0.3,2.3-0.1,3.4
						c0,0,0,0,0,0c-0.3,0.8-0.6,1.5-0.7,2.3c-0.1,0.9,0.2,1.9,1,2.3c0.1,0.1,0.2,0.2,0.3,0.3c0.2,0.4-0.3,0.7-0.6,0.7
						c-0.5,0-1-0.4-1.3-0.8c0.1,0.3,0.2,0.6,0.2,0.9c0,0.4-0.2,0.8-0.6,0.9c-0.2,0.1-0.5,0-0.6-0.2c-0.3-0.3,0-0.8-0.1-1.5
						C32,27.9,32,27.1,31.7,26.1z"/>
					<path class="st13" d="M30.9,25.4c0.3-0.4,0.7-0.9,1.1-1.1c0.5-0.3,1.1-0.3,1.5,0c0.4,0.3,0.6,0.9,0.5,1.5
						c-0.1,0.9-0.6,1.7-1.4,2.2c-0.8,0.4-1.8,0.5-2.6,0.1"/>
					<g>
						<path class="st17" d="M20.1,19.7c-0.3-0.7-0.5-1.5-0.5-2.3c0-0.1,0.1-0.2,0.2-0.3c0.1,0,0.1,0,0.2-0.1c0.1,0,0.3,0.1,0.3,0.2
							c0.1,0.7,0.2,1.4,0.5,2.1c0,0.1,0,0.3-0.1,0.3c-0.1,0-0.1,0.1-0.2,0.1C20.3,19.9,20.2,19.8,20.1,19.7z"/>
						<path class="st17" d="M19.7,19.9c-0.3-0.7-0.6-1.4-0.9-2.1c-0.1-0.1-0.2-0.2-0.3-0.1c-0.1,0-0.1,0-0.1,0.1
							c-0.1,0.1-0.1,0.2-0.1,0.3c0.2,0.7,0.5,1.5,0.9,2.2c0.1,0.1,0.2,0.2,0.4,0.1c0,0,0.1,0,0.1,0C19.7,20.1,19.8,20,19.7,19.9z"/>
					</g>
					<g>
						<path class="st18" d="M26.1,28.3c-0.1-0.6,0.6-1.2,1.5-1.3c0.9-0.1,1.6,0.4,1.7,1c0.1,0.6-0.6,1.2-1.5,1.3
							C26.9,29.4,26.1,29,26.1,28.3z"/>
						<path class="st18" d="M21.2,28.3c0.1-0.6-0.6-1.2-1.3-1.3c-0.8-0.1-1.5,0.3-1.5,1c-0.1,0.6,0.6,1.2,1.3,1.3
							C20.5,29.4,21.2,29,21.2,28.3z"/>
						<path class="st16" d="M20.3,27.4c0-0.4,0.3-0.7,0.6-0.7s0.6,0.3,0.6,0.7c0,0.4-0.3,0.7-0.6,0.7S20.3,27.8,20.3,27.4z"/>
						<path class="st16" d="M25.6,27.4c0-0.4,0.3-0.7,0.6-0.7s0.6,0.3,0.6,0.7c0,0.4-0.3,0.7-0.6,0.7S25.6,27.8,25.6,27.4z"/>
						<path class="st19" d="M25,23.2c1-0.1,1.9,0.2,2.7,0.7c0.1-0.6-0.4-1.2-1.1-1.4C26.1,22.3,25.3,22.6,25,23.2z"/>
						<path class="st19" d="M21.4,23.3c-0.9-0.1-2,0-2.7,0.5c0-0.6,0.5-1.2,1.1-1.3C20.4,22.4,21.2,22.7,21.4,23.3z"/>
						<path class="st14" d="M22.8,27.2c-0.2,0.2-0.3,0.4-0.3,0.7c0,0.2,0.2,0.5,0.4,0.6"/>
						<g>
							<path class="st16" d="M25.8,29c0,0.4-0.2,0.8-0.5,1.1c-0.5,0.4-1.3,0.6-2,0.3c-0.2-0.1-0.3-0.1-0.4-0.2
								c-0.4-0.3-0.7-0.7-0.7-1.2c0,0,0.1,0,0.1,0c1.2-0.1,2.3-0.3,3.4-0.6c0,0,0,0,0,0C25.7,28.6,25.8,28.8,25.8,29z"/>
							<path class="st20" d="M25.8,29c0,0.4-0.2,0.8-0.5,1.1c-0.5,0.4-1.3,0.6-2,0.3c-0.2-0.1-0.3-0.1-0.4-0.2
								c0.2-0.3,0.5-0.6,0.8-0.8h0c0.1-0.1,0.2-0.1,0.3-0.2c0.3-0.1,0.7-0.2,1-0.2h0C25.3,28.9,25.5,28.9,25.8,29z"/>
							<path class="st7" d="M25.7,28.5c-0.2,0.2-0.4,0.4-0.6,0.5c-0.2,0.1-0.5,0.2-0.7,0.3c-0.2,0.1-0.4,0.1-0.6,0.1
								c-0.4,0-0.7,0-1.1-0.1c-0.1,0-0.2-0.1-0.3-0.2c0,0-0.1-0.1-0.1-0.1C23.4,28.9,24.5,28.7,25.7,28.5
								C25.6,28.4,25.6,28.4,25.7,28.5z"/>
						</g>
					</g>
				</g>
				<g>
					<path class="st13" d="M32,35.4c-1.3,1-2.2,1.7-3.9,2.9c0.9,0.5,1.5,1.4,1.8,2.4c2.1-0.4,4.2-1.2,6.1-2.4c0.7-0.4,1-1.3,0.7-2
						c-0.4-1-1-2-1.7-2.7C33.7,33.9,32.7,34.8,32,35.4z"/>
					<g>
						<path class="st13" d="M28.7,37.8c-0.6-0.5-1.3-0.9-2-1c-0.7-0.1-1.5,0-2.1,0.5c-0.6,0.5-1,1.3-0.9,2.1c0,0.2,0,0.3,0.1,0.4
							c0.1,0.1,0.2,0.2,0.4,0.2c0.1,0,0.2-0.1,0.2-0.2c0.4-0.5,0.8-1,1.3-1.5c-0.5,0.5-1,1-1.3,1.7c-0.1,0.2-0.1,0.3-0.1,0.5
							c0,0.2,0.1,0.4,0.3,0.4c0.2,0.1,0.4-0.1,0.6-0.2c0.5-0.5,1-0.9,1.5-1.4c-0.6,0.3-1.1,0.8-1.5,1.4c-0.1,0.2-0.3,0.5-0.1,0.7
							c0.1,0.2,0.5,0.1,0.7,0c0.6-0.3,1.2-0.7,1.8-1.1c-0.6,0.1-1.3,0.5-1.7,1.1c-0.1,0.2-0.3,0.5-0.1,0.6c0.1,0.1,0.3,0.1,0.4,0.1
							c0.6-0.2,1.1-0.4,1.7-0.7c0.9,0.2,1.9-0.2,2.5-0.9C30.1,39.4,29.5,38.5,28.7,37.8z"/>
						<g>
							<path class="st14" d="M24.4,39.6c0.2-0.6,0.7-1.1,1.2-1.4"/>
							<path class="st14" d="M25.2,40.5c0.4-0.4,0.9-0.8,1.4-1.1"/>
							<path class="st14" d="M25.9,41.1c0.4-0.4,0.9-0.7,1.5-0.8"/>
						</g>
					</g>
				</g>
			</g>
		</g>
	</g>
</g>
</svg>
