<?xml version="1.0" encoding="utf-8"?>
<!-- Generator: Adobe Illustrator 27.4.0, SVG Export Plug-In . SVG Version: 6.00 Build 0)  -->
<svg version="1.1" id="Layer_1" xmlns="http://www.w3.org/2000/svg" xmlns:xlink="http://www.w3.org/1999/xlink" x="0px" y="0px"
	 viewBox="0 0 50 50" style="enable-background:new 0 0 50 50;" xml:space="preserve">
<style type="text/css">
	.st0{fill:#D8D8D8;}
	.st1{fill:#FFFFFF;}
	.st2{fill:#ECECEC;}
	.st3{opacity:7.000000e-02;}
	.st4{fill:#F0F0F0;}
	.st5{fill:#FFBEA7;}
	.st6{fill:#B0494C;}
	.st7{fill:#1A2E35;}
	.st8{fill:#2B454E;}
	.st9{fill:#00953B;stroke:#1A2E35;stroke-width:8.095603e-02;stroke-linecap:round;stroke-linejoin:round;stroke-miterlimit:10;}
	.st10{fill:#E7E7E7;}
	.st11{fill:#FF9A79;}
	.st12{fill:#566E72;}
	.st13{fill:#334F56;}
	.st14{fill:#D268CC;}
	.st15{fill:#C76668;}
	.st16{fill:#FF9090;}
	.st17{opacity:0.5;}
	.st18{fill:#B7B7B7;}
	.st19{opacity:3.000000e-02;}
	.st20{opacity:0.5;fill:#FFFFFF;}
	.st21{fill:#DD8669;}
	.st22{fill:#F5F5F5;}
	.st23{fill:#026827;}
	.st24{opacity:0.4;}
	.st25{fill:#375A64;}
	.st26{opacity:0.18;}
	.st27{fill:#FAFAFA;}
	.st28{fill:#C66150;}
	.st29{fill:#00953B;}
	.st30{fill:#FFAAA8;}
	.st31{opacity:0.1;}
	.st32{opacity:0.3;}
</style>
<g>
	<g id="College">
		<g>
			<g>
				<polygon class="st0" points="11.2,9.5 25.9,4.2 40.6,9.5 42,9.5 25.9,3.7 9.8,9.5 				"/>
			</g>
			<polygon class="st0" points="39.1,9.5 12.6,9.5 25.9,4.7 			"/>
			<g>
				<g>
					<path class="st1" d="M25.5,6.1v0.3l-0.3,0.1v1.4c0,0.2,0,0.3,0.1,0.4s0.2,0.1,0.4,0.1c0.2,0,0.3,0,0.4-0.1
						c0.1-0.1,0.1-0.2,0.1-0.4V6.5L26,6.4V6.1h1.1v0.3l-0.3,0.1v1.4c0,0.3-0.1,0.5-0.3,0.7c-0.2,0.2-0.5,0.2-0.8,0.2
						c-0.3,0-0.6-0.1-0.8-0.2c-0.2-0.2-0.3-0.4-0.3-0.7V6.5l-0.3-0.1V6.1h0.3h0.5H25.5z"/>
				</g>
			</g>
			<polygon class="st0" points="39.7,10.1 39.7,10.7 38.6,10.7 38.6,10.1 38,10.1 38,10.7 36.9,10.7 36.9,10.1 36.2,10.1 36.2,10.7 
				35.1,10.7 35.1,10.1 34.4,10.1 34.4,10.7 33.3,10.7 33.3,10.1 32.6,10.1 32.6,10.7 31.5,10.7 31.5,10.1 30.9,10.1 30.9,10.7 
				29.8,10.7 29.8,10.1 29.1,10.1 29.1,10.7 28,10.7 28,10.1 27.3,10.1 27.3,10.7 26.2,10.7 26.2,10.1 25.5,10.1 25.5,10.7 
				24.5,10.7 24.5,10.1 23.8,10.1 23.8,10.7 22.7,10.7 22.7,10.1 22,10.1 22,10.7 20.9,10.7 20.9,10.1 20.2,10.1 20.2,10.7 
				19.1,10.7 19.1,10.1 18.5,10.1 18.5,10.7 17.4,10.7 17.4,10.1 16.7,10.1 16.7,10.7 15.6,10.7 15.6,10.1 14.9,10.1 14.9,10.7 
				13.8,10.7 13.8,10.1 13.1,10.1 13.1,10.7 12.1,10.7 12.1,10.1 11.4,10.1 11.4,10.7 11.4,12.1 40.4,12.1 40.4,10.7 40.4,10.7 
				40.4,10.1 			"/>
		</g>
		<g>
			<rect x="12" y="12.5" class="st0" width="3.6" height="0.6"/>
			<rect x="12" y="24.7" class="st0" width="3.6" height="0.6"/>
			<rect x="12.4" y="13.3" class="st0" width="2.7" height="11.2"/>
		</g>
		<g>
			<rect x="19.9" y="12.5" class="st0" width="3.6" height="0.6"/>
			<rect x="19.9" y="24.7" class="st0" width="3.6" height="0.6"/>
			<rect x="20.3" y="13.3" class="st0" width="2.7" height="11.2"/>
		</g>
		<g>
			
				<rect x="36.2" y="12.5" transform="matrix(-1 -1.224647e-16 1.224647e-16 -1 75.9242 25.5094)" class="st0" width="3.6" height="0.6"/>
			
				<rect x="36.2" y="24.7" transform="matrix(-1 -1.224647e-16 1.224647e-16 -1 75.9242 50.0837)" class="st0" width="3.6" height="0.6"/>
			
				<rect x="36.6" y="13.3" transform="matrix(-1 -1.224647e-16 1.224647e-16 -1 75.9242 37.8139)" class="st0" width="2.7" height="11.2"/>
		</g>
		<g>
			
				<rect x="28.3" y="12.5" transform="matrix(-1 -1.224647e-16 1.224647e-16 -1 60.1465 25.5094)" class="st0" width="3.6" height="0.6"/>
			
				<rect x="28.3" y="24.7" transform="matrix(-1 -1.224647e-16 1.224647e-16 -1 60.1465 50.0837)" class="st0" width="3.6" height="0.6"/>
			
				<rect x="28.7" y="13.3" transform="matrix(-1 -1.224647e-16 1.224647e-16 -1 60.1465 37.8139)" class="st0" width="2.7" height="11.2"/>
		</g>
	</g>
	<g id="Tree_00000088852469174428641560000007117292089583683462_">
		<g>
			<path class="st2" d="M44.5,17.6c0.1,0.5-0.5,0.9-1,0.8c0,0.3-0.4,0.4-0.5,0.3c0.2,0.2,0.4,0.9,0,1.2c-0.4,0.4-1,0.2-1,0.2
				s-0.2,0.5-0.9,0.4c-0.7-0.1-0.9-0.9-0.8-1.2c-0.5,0.3-1.5,0.1-1.9-0.6c-0.4-0.7-0.4-1.5,0-1.9c-0.3-0.2-0.2-0.6,0-0.8
				c0.2-0.2,0.4-0.2,0.4-0.2s-0.2-0.2,0-0.4c-0.4-0.2-0.5-0.9,0.1-1.5s1.4-0.3,1.4-0.3s-0.2-0.5,0.2-1c0.3-0.4,0.9-0.4,0.9-0.4
				s0-0.4,0.4-0.4c-0.2-0.4,0-0.9,0.3-1.1c0.5-0.4,1.9-0.5,1.9,0.5c0.6-0.4,1.4,0.2,1.3,0.7c0.5-0.4,1.2,0.1,1,0.7
				c0.7-0.2,1.4,0.6,1,1.3c0.3-0.1,0.8,0,0.8,0.5c0.3-0.1,0.7,0.1,0.8,0.4c0.1,0.4-0.1,0.6-0.3,0.8c0.3,0,0.4,0.4,0.2,0.5
				c0.5,0,0.8,1,0.2,1.4c0.3,0.2,0.5,1.7-0.5,2.3c-1.1,0.6-2.6,0.2-2.6-0.7c-0.4-0.1-0.6-0.6-0.3-0.9C45,18.3,44.5,18,44.5,17.6z"/>
			<path class="st3" d="M48.3,19.8c1.1-0.6,0.9-2.1,0.5-2.3c0.6-0.3,0.3-1.4-0.2-1.4c0.2-0.1,0-0.5-0.2-0.5c0.3-0.2,0.4-0.4,0.3-0.8
				c0-0.2-0.2-0.3-0.3-0.4c0.2,0.3,0.1,0.9-0.4,1.1c-0.5,0.1-0.8-0.2-0.8-0.2s-0.1,0.2-0.7,0.1c-0.5-0.1-0.8-0.6-0.7-1
				c0.3-0.4-0.1-1-0.7-0.9c0,1.1-0.9,1.4-1.8,1c0.4,1.1-0.5,1.6-1,1.1c-0.2,0.4-0.7,0.3-0.9,0.1c-0.2,0.3-1,0-1-0.6
				c-0.4,0.6-1.2,0.4-1.3-0.2c-0.3,0.4-0.8,0.2-0.8,0c0,0.2,0.2,0.4,0.3,0.5c-0.2,0.2,0,0.4,0,0.4s-0.2,0-0.4,0.2
				c-0.2,0.2-0.2,0.6,0,0.8c-0.4,0.4-0.4,1.2,0,1.9c0.4,0.7,1.4,0.9,1.9,0.6c-0.1,0.3,0.1,1,0.8,1.2c0.7,0.1,0.9-0.4,0.9-0.4
				s0.5,0.2,1-0.2c0.4-0.4,0.2-1,0-1.2c0.2,0.1,0.6,0,0.5-0.3c0.5,0.1,1.1-0.3,1-0.8c0,0.4,0.5,0.7,0.8,0.6
				c-0.3,0.3-0.1,0.7,0.3,0.9C45.7,20,47.2,20.4,48.3,19.8z"/>
			<path class="st2" d="M42.4,16.8c0,0-0.9,0.3-1.2-0.4c-0.5,0.3-1.4,0.2-1.7-0.4c-0.5,0-0.8-0.5-0.8-0.5c-0.2,0.2,0,0.4,0,0.4
				s-0.2,0-0.4,0.2c-0.2,0.2-0.2,0.6,0,0.8c0,0-0.1,0.1-0.1,0.1c-0.2,0.4,0.4,0.7,0.7,0.5c-0.1,0.4,0.4,1.7,1.7,1.2
				c0.8,0.5,1.6-0.1,1.5-1.2C42.5,17.4,42.7,17,42.4,16.8z"/>
			<path class="st2" d="M47.4,17.9c0.4-0.5,0.3-1,0.3-1s-0.4,0.6-1.2,0.2c-0.8-0.4-0.4-1.2-0.4-1.2s-0.6,0.1-0.5-0.5
				c-0.2,0.1-0.5,0-0.5-0.4c-0.1,0.7-0.7,1.1-1.4,0.9c0.5,0.2,0.5,0.6,0.1,0.9c-0.4,0.4-0.3,1.4,0.6,1.4c0.1-0.1,0.2-0.3,0.2-0.5
				c0,0.4,0.5,0.7,0.8,0.6c0,0,0,0,0,0l0,0c0,0,0.3,0.2,0.6-0.1C46.1,18.4,47,18.4,47.4,17.9z"/>
		</g>
		<path class="st4" d="M46.4,19.7c0,0,0.7-1.1,0.7-1.2c0-0.1-0.7,1-1.1,1.3c-0.4,0.3-1.2,0.8-1.4,0.8c-0.2,0-0.2-0.3-0.1-0.7
			c0.1-0.5,0.1-0.6,0.4-1.1c0.3-0.4,1.3-1.6,1.3-1.7c-0.1-0.1-1.3,1.5-1.6,1.7c-0.3,0.2-0.6-1.1-0.7-1.1s0.3,0.9,0.3,1.3
			c0,0.4,0,0.9-0.2,1.1c-0.2,0.1-0.7-0.3-1.1-0.6c-0.3-0.4-0.3-2-0.5-2c-0.1,0,0.1,1.5,0.1,1.6c0,0.3-1.3-0.5-1.5-0.5
			c-0.2,0,1.2,0.5,1.8,1.1c0.5,0.5,0.6,0.6,0.7,1c0.2,0.4,0.2,0.9,0.2,2.2c0,1.4-0.4,5.2-0.4,6.1c0,0.1,0.1,0.2,0.2,0.3
			c0.3,0.2,0.8,0.2,1.1,0c0.1-0.1,0.2-0.2,0.2-0.3l0,0v0l0,0c0-0.8-0.4-4.7-0.4-6.1c0-1.4,0.1-1.9,0.5-2.2c0.4-0.3,1.1-0.8,1.4-0.9
			c0.3-0.1,1.2,0.1,1.2,0C47.5,19.8,46.4,19.7,46.4,19.7z"/>
	</g>
	<g id="Tree_00000060020075766237631440000018043861877286957503_">
		<g>
			<path class="st2" d="M7.3,17.6c-0.1,0.5,0.5,0.9,1,0.8c0,0.3,0.4,0.4,0.5,0.3c-0.2,0.2-0.4,0.9,0,1.2c0.4,0.4,1,0.2,1,0.2
				s0.2,0.5,0.9,0.4c0.7-0.1,0.9-0.9,0.8-1.2c0.5,0.3,1.5,0.1,1.9-0.6c0.4-0.7,0.4-1.5,0-1.9c0.3-0.2,0.2-0.6,0-0.8
				c-0.2-0.2-0.4-0.2-0.4-0.2s0.2-0.2,0-0.4c0.4-0.2,0.5-0.9-0.1-1.5c-0.6-0.5-1.4-0.3-1.4-0.3s0.2-0.5-0.2-1
				c-0.3-0.4-0.9-0.4-0.9-0.4s0-0.4-0.4-0.4c0.2-0.4,0-0.9-0.3-1.1C9.4,10.3,8,10.2,8,11.2c-0.6-0.4-1.4,0.2-1.3,0.7
				c-0.5-0.4-1.2,0.1-1,0.7c-0.7-0.2-1.4,0.6-1,1.3c-0.3-0.1-0.8,0-0.8,0.5c-0.3-0.1-0.7,0.1-0.8,0.4c-0.1,0.4,0.1,0.6,0.3,0.8
				c-0.3,0-0.4,0.4-0.2,0.5c-0.5,0-0.8,1-0.2,1.4c-0.3,0.2-0.5,1.7,0.5,2.3c1.1,0.6,2.6,0.2,2.6-0.7c0.4-0.1,0.6-0.6,0.3-0.9
				C6.8,18.3,7.2,18,7.3,17.6z"/>
			<path class="st3" d="M3.5,19.8c-1.1-0.6-0.9-2.1-0.5-2.3c-0.6-0.3-0.3-1.4,0.2-1.4c-0.2-0.1,0-0.5,0.2-0.5
				c-0.3-0.2-0.4-0.4-0.3-0.8c0-0.2,0.2-0.3,0.3-0.4c-0.2,0.3-0.1,0.9,0.4,1.1c0.5,0.1,0.8-0.2,0.8-0.2s0.1,0.2,0.7,0.1
				c0.5-0.1,0.8-0.6,0.7-1c-0.3-0.4,0.1-1,0.7-0.9c0,1.1,0.9,1.4,1.8,1c-0.4,1.1,0.5,1.6,1,1.1c0.2,0.4,0.7,0.3,0.9,0.1
				c0.2,0.3,1,0,1-0.6c0.4,0.6,1.2,0.4,1.3-0.2c0.3,0.4,0.8,0.2,0.8,0c0,0.2-0.2,0.4-0.3,0.5c0.2,0.2,0,0.4,0,0.4s0.2,0,0.4,0.2
				c0.2,0.2,0.2,0.6,0,0.8c0.4,0.4,0.4,1.2,0,1.9c-0.4,0.7-1.4,0.9-1.9,0.6c0.1,0.3-0.1,1-0.8,1.2c-0.7,0.1-0.9-0.4-0.9-0.4
				s-0.5,0.2-1-0.2c-0.4-0.4-0.2-1,0-1.2c-0.2,0.1-0.6,0-0.5-0.3c-0.5,0.1-1.1-0.3-1-0.8c0,0.4-0.5,0.7-0.8,0.6
				c0.3,0.3,0.1,0.7-0.3,0.9C6.1,20,4.6,20.4,3.5,19.8z"/>
			<path class="st2" d="M9.4,16.8c0,0,0.9,0.3,1.2-0.4c0.5,0.3,1.4,0.2,1.7-0.4c0.5,0,0.8-0.5,0.8-0.5c0.2,0.2,0,0.4,0,0.4
				s0.2,0,0.4,0.2c0.2,0.2,0.2,0.6,0,0.8c0,0,0.1,0.1,0.1,0.1c0.2,0.4-0.4,0.7-0.7,0.5c0.1,0.4-0.4,1.7-1.7,1.2
				c-0.8,0.5-1.6-0.1-1.5-1.2C9.3,17.4,9.1,17,9.4,16.8z"/>
			<path class="st2" d="M4.3,17.9c-0.4-0.5-0.3-1-0.3-1s0.4,0.6,1.2,0.2c0.8-0.4,0.4-1.2,0.4-1.2s0.6,0.1,0.5-0.5
				c0.2,0.1,0.5,0,0.5-0.4c0.1,0.7,0.7,1.1,1.4,0.9c-0.5,0.2-0.5,0.6-0.1,0.9c0.4,0.4,0.3,1.4-0.6,1.4c-0.1-0.1-0.2-0.3-0.2-0.5
				c0,0.4-0.5,0.7-0.8,0.6c0,0,0,0,0,0l0,0c0,0-0.3,0.2-0.6-0.1C5.7,18.4,4.7,18.4,4.3,17.9z"/>
		</g>
		<path class="st4" d="M5.4,19.7c0,0-0.7-1.1-0.7-1.2c0-0.1,0.7,1,1.1,1.3c0.4,0.3,1.2,0.8,1.4,0.8c0.2,0,0.2-0.3,0.1-0.7
			c-0.1-0.5-0.1-0.6-0.4-1.1c-0.3-0.4-1.3-1.6-1.3-1.7c0.1-0.1,1.3,1.5,1.6,1.7C7.6,19,7.9,17.7,8,17.7s-0.3,0.9-0.3,1.3
			c0,0.4,0,0.9,0.2,1.1c0.2,0.1,0.7-0.3,1.1-0.6c0.3-0.4,0.3-2,0.5-2c0.1,0-0.1,1.5-0.1,1.6c0,0.3,1.3-0.5,1.5-0.5
			c0.2,0-1.2,0.5-1.8,1.1c-0.5,0.5-0.6,0.6-0.7,1c-0.2,0.4-0.2,0.9-0.2,2.2c0,1.4,0.4,5.2,0.4,6.1c0,0.1-0.1,0.2-0.2,0.3
			c-0.3,0.2-0.8,0.2-1.1,0C7.1,29.2,7,29.1,7,29l0,0v0l0,0c0-0.8,0.4-4.7,0.4-6.1c0-1.4-0.1-1.9-0.5-2.2c-0.4-0.3-1.1-0.8-1.4-0.9
			c-0.3-0.1-1.2,0.1-1.2,0C4.3,19.8,5.4,19.7,5.4,19.7z"/>
	</g>
	<g id="Character_00000080910069993554688160000015403134843905292724_">
		<g id="Bottom_00000054956587851001720860000003676970090990815648_">
			<g>
				<path class="st5" d="M7.5,40.7c0.1-1.2,0-1.8,0.2-3.6l0,0c0-0.5,0-1,0.1-1.4c0.1-1.5,0.4-2,0.4-2.3c0,0,0.1-2.4,0.3-5.7
					c0.1-1.6,0.5-2,0.9-2.9l4.3,0.1c0.4,2.1,0.5,6.5,0.4,8.6c0,1.1-0.5,6.5-0.5,6.6c0,0.5,0,0.7,0.2,0.9c0.4,0.4,0.9,0.8,1.4,1.2
					c-0.1,0.2-0.7,0.3-1,0.1c-0.5-0.2-0.9-0.6-1.1-0.7c-0.4-0.3-0.9-0.5-0.9-1c0-0.1,0-0.1,0-0.1c0-0.3-0.5-3.8-0.6-4.7
					c0-0.8,0.1-2.1,0.1-2.1l-0.4-3.3c0,0-0.3,1.9-0.7,3.2c-0.3,1.1-0.7,2.9-1,4.2l0,0c-0.3,1.5-0.7,2.3-0.8,3.1c0,0.2-0.3,2-0.4,2.4
					c-0.1,0.4-1,0.4-1-0.3C7.3,42.5,7.5,41,7.5,40.7z"/>
				<path id="XMLID_00000139272448598022659970000015179267659408721323_" class="st6" d="M11.3,30.4l0.4-2.3c0,0,1.4-0.1,1.9-0.6
					c0,0-0.7,0.9-1.6,1l-0.4,1.9l0.1,3.2L11.3,30.4z"/>
			</g>
			<g>
				<path class="st7" d="M15.9,42.8c0,0,0.1,0.3-0.1,0.4c-0.2,0.1-0.6,0.3-1.2,0.3c-0.6-0.1-0.9-0.3-1.2-0.5
					c-0.2-0.2-0.6-0.5-0.8-0.6c-0.3-0.1-0.5-0.2-0.6-0.3C11.9,42,12,41.7,12,41.7L15.9,42.8z"/>
				<path id="XMLID_00000115499869416042582180000005610612558873628600_" class="st8" d="M12.2,40.4C12.2,40.4,12.1,40.4,12.2,40.4
					c-0.1,0.2-0.1,0.5-0.1,0.6c-0.1,0.2-0.1,0.7-0.1,0.8c0,0.2,0.4,0.3,0.7,0.4c0.3,0.1,0.6,0.3,0.8,0.5c0.3,0.2,0.9,0.5,1.3,0.5
					c0.6,0,1-0.1,1.1-0.4c0.1-0.3,0.1-0.5-0.6-0.8c-0.1-0.1-0.6-0.3-0.7-0.4c-0.2-0.1-0.3-0.2-0.5-0.4c-0.1-0.1-0.1-0.1-0.2-0.2
					c-0.1-0.1-0.1-0.1-0.2-0.2c0,0,0,0,0-0.1c0-0.1,0-0.1,0-0.2c0-0.1,0-0.1-0.1-0.2c-0.1,0-0.2,0-0.2,0c-0.1,0-0.3,0-0.4,0.1
					c-0.2,0-0.2,0.1-0.3,0.2c0,0.1-0.1,0.2-0.1,0.2c0,0,0,0.1,0,0.1c0,0,0,0,0,0c0,0,0-0.1-0.1-0.1c0,0,0-0.1-0.1-0.1
					c0-0.1,0-0.1-0.1-0.1c0,0-0.1-0.1-0.1-0.1c0,0-0.1,0-0.1-0.1C12.2,40.5,12.2,40.4,12.2,40.4z"/>
				<path class="st1" d="M15.4,42.1c-0.9,0.1-1.2,0.7-1.3,1c0.2,0.1,0.4,0.1,0.6,0.1c0.6,0,1-0.1,1.1-0.4C16,42.7,16,42.4,15.4,42.1
					z"/>
				<g>
					<g>
						<path class="st4" d="M14,42.2C14,42.2,14,42.2,14,42.2C14,42.2,14,42.2,14,42.2c0.1-0.2,0.5-0.5,0.8-0.5c0,0,0,0,0,0
							c0,0,0,0,0,0C14.6,41.8,14.2,42.1,14,42.2C14.1,42.2,14.1,42.2,14,42.2z"/>
					</g>
					<g>
						<path class="st4" d="M13.7,42C13.7,42,13.7,42,13.7,42C13.6,42,13.6,41.9,13.7,42c0.1-0.2,0.5-0.5,0.8-0.5c0,0,0,0,0,0
							c0,0,0,0,0,0C14.2,41.6,13.8,41.9,13.7,42C13.7,42,13.7,42,13.7,42z"/>
					</g>
					<g>
						<path class="st4" d="M13.3,41.7C13.3,41.7,13.3,41.7,13.3,41.7C13.3,41.7,13.3,41.7,13.3,41.7c0.1-0.2,0.5-0.5,0.8-0.5
							c0,0,0,0,0,0c0,0,0,0,0,0C13.9,41.3,13.5,41.6,13.3,41.7C13.4,41.7,13.3,41.7,13.3,41.7z"/>
					</g>
					<g>
						<path class="st4" d="M13,41.5C13,41.5,13,41.5,13,41.5C13,41.5,13,41.4,13,41.5c0.1-0.3,0.6-0.5,0.9-0.5c0,0,0,0,0,0
							c0,0,0,0,0,0C13.6,41.1,13.2,41.3,13,41.5C13,41.5,13,41.5,13,41.5z"/>
					</g>
				</g>
			</g>
			<g>
				<path class="st7" d="M8.7,43.5c0,0.4-0.1,0.7-0.3,1c-0.2,0.2-0.4,0.3-0.7,0.2c-0.3-0.1-0.7-0.3-0.7-0.7c-0.1-0.4-0.1-0.6,0-1
					L8.7,43.5z"/>
				<path id="XMLID_00000132779565209716549860000009087330431894839433_" class="st8" d="M7.6,40.4c-0.1,0-0.2,0.6-0.2,1.2
					C7.2,42.2,7,42.4,7,42.9c-0.1,0.6,0,0.8,0.2,1.2c0.2,0.4,0.9,0.7,1.3,0.2c0.3-0.4,0.3-0.9,0.3-1.4c0-0.6,0-1,0.1-1.5
					c0-0.4,0.2-0.9,0.1-1c0,0.1,0,0.2,0,0.2c0,0.1,0,0.2-0.1,0.2c0,0,0,0.1-0.1,0c0,0,0-0.1,0-0.1c0-0.2-0.1-0.2-0.1-0.2
					c-0.1,0-0.5-0.1-0.6-0.1c-0.1,0-0.4,0-0.4,0c0,0,0,0.1,0,0.2c0,0.1,0,0.2,0,0.1c0-0.1,0-0.2,0-0.2c0,0,0-0.1,0-0.2
					C7.5,40.5,7.6,40.4,7.6,40.4z"/>
				<path class="st1" d="M6.9,43.3c0,0.4,0.1,0.6,0.2,0.9c0.2,0.4,1,0.7,1.3,0.2c0.2-0.2,0.2-0.5,0.3-0.8
					C8.5,43.1,7.3,42.9,6.9,43.3z"/>
				<g>
					<g>
						<path class="st4" d="M8.5,42.9C8.5,42.9,8.5,42.9,8.5,42.9c0,0-0.6-0.2-1.1-0.1c0,0,0,0-0.1,0c0,0,0,0,0-0.1
							C7.9,42.5,8.5,42.8,8.5,42.9C8.5,42.8,8.5,42.8,8.5,42.9C8.5,42.9,8.5,42.9,8.5,42.9z"/>
					</g>
					<g>
						<path class="st4" d="M7.4,42.3C7.4,42.3,7.4,42.3,7.4,42.3C7.3,42.3,7.4,42.2,7.4,42.3c0.5-0.3,1.1,0,1.1,0c0,0,0,0,0,0.1
							c0,0,0,0-0.1,0C8.5,42.4,7.9,42.2,7.4,42.3C7.4,42.3,7.4,42.3,7.4,42.3z"/>
					</g>
					<g>
						<path class="st4" d="M7.4,41.9C7.4,41.9,7.4,41.9,7.4,41.9C7.4,41.9,7.4,41.8,7.4,41.9c0.6-0.3,1.1,0,1.2,0c0,0,0,0,0,0.1
							c0,0,0,0-0.1,0C8.5,42,8,41.7,7.4,41.9C7.4,41.9,7.4,41.9,7.4,41.9z"/>
					</g>
					<g>
						<path class="st2" d="M7.5,41.5C7.4,41.5,7.4,41.5,7.5,41.5C7.4,41.5,7.4,41.4,7.5,41.5c0.5-0.3,1.2,0,1.2,0.1c0,0,0,0,0,0.1
							c0,0,0,0-0.1,0C8.6,41.6,8,41.3,7.5,41.5C7.5,41.5,7.5,41.5,7.5,41.5z"/>
					</g>
				</g>
			</g>
			<path class="st9" d="M9.1,24.8c-0.5,0.9-0.8,1.7-0.9,4.4C8,32,8,32.9,8,33.2c0,0.3-0.3,0.8-0.4,2.4c-0.1,1.9,0,3.4,0,3.4
				s0.2,0.3,0.8,0.4c0.6,0.1,0.9-0.1,0.9-0.1s0.8-2.9,1.1-3.9c0.2-1,0.9-4.2,0.9-4.2l0.3,2.6c0,0-0.2,0.9,0,2.3
				c0.1,1.4,0.4,2.6,0.4,2.6s0.5,0.2,1,0.2c0.5,0,0.9-0.2,0.9-0.2s0.5-4,0.5-5.6c0-1.6,0-5.8-0.3-8.2L9.1,24.8z"/>
			<path class="st7" d="M11.9,28l-0.6,3.1l0.3,2.6l-0.1-2.7l0.5-2.6c0.4-0.1,1.3-0.5,1.6-1.2C13,27.9,11.9,28,11.9,28z M10.1,26.1
				c0.1-0.3,0.2-0.5,0.2-0.8c-0.2,0.2-0.3,0.5-0.4,0.7c-0.1,0.3-0.2,0.5-0.3,0.8c-0.1,0.3-0.1,0.5-0.2,0.8c0,0.3-0.1,0.5-0.1,0.8
				c0.1-0.3,0.1-0.5,0.2-0.8c0.1-0.3,0.1-0.5,0.2-0.8C9.9,26.6,10,26.4,10.1,26.1z M9.7,25.9c0.1-0.2,0.2-0.3,0.3-0.5
				c-0.1,0.1-0.3,0.3-0.4,0.4c-0.1,0.1-0.2,0.3-0.3,0.5c-0.1,0.2-0.2,0.3-0.2,0.5c-0.1,0.2-0.1,0.4-0.1,0.5l0.3-0.5
				c0.1-0.2,0.2-0.3,0.3-0.5C9.5,26.2,9.6,26,9.7,25.9z M9.1,36.4c-0.2,0.8-0.3,1.7-0.5,2.5c0.2-0.8,0.4-1.7,0.6-2.5
				c0.2-0.8,0.4-1.7,0.6-2.5c0.2-0.9,0.3-1.7,0.4-2.6c0.1-0.9,0.2-1.7,0.3-2.6c-0.1,0.9-0.3,1.7-0.4,2.6c-0.1,0.9-0.3,1.7-0.4,2.5
				C9.5,34.7,9.3,35.5,9.1,36.4z M13.7,32.2c0,0.4,0,0.8,0,1.1c0,0.4,0,0.7-0.1,1.1l-0.1,1.1c-0.1,0.8-0.1,1.5-0.1,2.3
				c0.1-0.7,0.2-1.5,0.3-2.2c0.1-0.7,0.2-1.5,0.2-2.3c0-0.8,0-1.5-0.1-2.3c-0.1-0.8-0.1-1.5-0.2-2.2l0.1,2.3
				C13.6,31.4,13.7,31.8,13.7,32.2z"/>
		</g>
		<g id="Top_00000117667756960131487810000008393773544286119831_">
			<g>
				<g>
					<path class="st5" d="M20,20.6c-0.1,0-0.2-0.1-0.2,0c-0.1,0-0.2,0.1-0.4,0.1c-0.2,0-0.5,0.1-0.7,0c0,0-0.1-0.1,0-0.1
						c0.1,0,0.2-0.1,0.3-0.1c0.1-0.1,0.1-0.1,0.2-0.2c0,0,0-0.1,0-0.1c0,0-0.1,0-0.1,0c0,0-0.1,0-0.1,0c-0.1,0-0.1,0-0.2,0.1
						c-0.4,0.1-0.8,0.2-1.1,0.5c0,0-0.3,0.4-0.5,0.6c-0.2,0.2-1.1,1.1-1.1,1.1s-0.5-0.6-0.8-1c-0.6-0.7-0.9-1-1.1-1.2
						c-0.2-0.2-0.5-0.5-0.9-0.5l0.2,2.5c0,0,1.2,1.1,1.5,1.4c0.7,0.6,1,0.7,1.3,0.5c0.4-0.3,0.7-0.6,1.1-1.3
						c0.3-0.6,0.4-0.7,0.5-0.9c0.1-0.2,0.3-0.1,0.5-0.1c0.2,0,0.3,0,0.5-0.1c0.2,0,0.3-0.1,0.4-0.2c0.1,0,0.1-0.1,0.2-0.1
						c0-0.1,0-0.1,0.1-0.2c0-0.1,0.1-0.1,0.2-0.2c0,0,0-0.1,0.1-0.2c0-0.1,0.1-0.1,0.2-0.2c0,0,0.1,0,0.1-0.1
						C20.1,20.7,20.1,20.7,20,20.6z"/>
					<path class="st10" d="M12.9,19.7c0.5,0.1,0.6,0.1,1,0.5c0.4,0.4,0.9,0.9,0.9,0.9s-0.2,0.7-0.7,1.2c-0.2,0.2-0.7,0.5-0.7,0.5
						L13,22.5L12.9,19.7z"/>
					<path class="st11" d="M15.9,22.5L15.9,22.5c0,0-0.1-0.1-0.1-0.2c-0.3,0.3-0.4,0.7-0.3,1.1C15.4,23.3,15.5,22.8,15.9,22.5z"/>
					<path class="st11" d="M18.5,20.8c-0.1,0.2-0.4,0.4-0.6,0.4c0,0,0.2,0,0.4-0.1C18.4,21.1,18.4,20.9,18.5,20.8z"/>
				</g>
			</g>
			<path id="Chest_00000171695568067986862980000001538378635567153072_" class="st9" d="M8.5,26.1c0.2-0.9,0.4-1.5,0.4-1.7
				c0-0.8-0.2-1.9-0.2-2.4c-0.1-1,0.2-2,0.4-2.2l1.2-0.3c0,0,1.4,0,1.6,0.1c0.1,0,1,0.2,1,0.2c0,0,0.3,0.4,0.7,1
				c0.6,1,0.7,1.4,0.5,2.3c-0.3,1.2,0,2.3,0,3.3C13.3,27.1,10.4,27.5,8.5,26.1z"/>
			<path class="st7" d="M9.7,15.6c0,0-0.1,0.1-0.2,0.1c-0.1,0-0.1,0.1-0.1,0.2c-0.1,0.1-0.1,0.3-0.1,0.4c0,0.2,0,0.5-0.1,0.7
				c0,0.2-0.1,0.5-0.1,0.7C9,18,8.9,18.2,9,18.4C9,18.6,9,18.8,9.2,19c0-0.2,0-0.4,0-0.6c0,0.1,0,0.3,0.1,0.4
				c0.1,0.2,0.2,0.3,0.4,0.4c0.2,0.1,0.4,0.1,0.6,0.2c0.3,0.1,0.7,0.1,1,0.1c0.2,0,0.4,0,0.6,0c0.3,0,0.5-0.1,0.8-0.2
				c0.2-0.1,0.4-0.4,0.4-0.7c0.1,0.1,0.1,0.3,0.1,0.4c0.1-0.2,0.2-0.4,0.2-0.6c0-0.2-0.1-0.4-0.2-0.6c-0.1-0.1-0.1-0.2-0.2-0.4
				c0-0.1-0.1-0.3,0-0.4c0-0.1,0.1-0.1,0.1-0.2c0.1-0.2,0.2-0.5,0.2-0.7c0-0.5-0.3-1.1-1.2-1.4C11.3,14.5,9.9,14.6,9.7,15.6z"/>
			<g>
				<path class="st12" d="M9.8,27.3l-2.1-0.9c0,0-0.5,1.3-0.7,2.3c-0.1,0.8,0.1,1.2,0.6,1.6s1.4,1,1.8,0.9c0.4,0,0.9-0.2,1.1-0.6
					s0.2-3.6,0.2-3.6L9.8,27.3z"/>
				<path class="st7" d="M9.3,31c0,0.2,0.1,0.3,0.4,0.3c0,0,0,0,0,0c0,0,0,0,0,0c0.3-0.1,0.7-0.3,0.8-0.6c0.2-0.4,0.2-3.6,0.2-3.6
					l-1,0.2C9.5,28.6,9.3,30.7,9.3,31z"/>
				<path class="st13" d="M10.7,27.1c-1-0.5-2.3-1.2-2.6-1.1c-0.3,0.1-0.5,0.5-0.6,0.9c-0.1,0.4,0.2,1.3,0.5,1.5
					c0.2,0.2,1.2-0.2,1.5-0.5c0.2-0.3,0.3-0.6,0.3-0.6L10.7,27.1z"/>
				<g>
					<path class="st14" d="M12.9,19.7l-0.9-0.1c0.4,0.9,0,3-0.6,4.4c-0.6,1.5-1.7,3.3-1.7,3.3l1-0.2c0,0,1-1.5,1.5-3
						C12.8,22.6,13.4,20.6,12.9,19.7z"/>
					<path class="st7" d="M12.9,19.7l-0.9-0.1c0.4,0.9,0,3-0.6,4.4c-0.6,1.5-1.7,3.3-1.7,3.3l1-0.2c0,0,1-1.5,1.5-3
						C12.8,22.6,13.4,20.6,12.9,19.7z"/>
				</g>
			</g>
			<g id="Head_00000098197490083090487080000006682905194233349296_">
				<g id="XMLID_00000160160142592526303810000007374944855771461504_">
					<path id="XMLID_00000111873905975416264030000018378875238475601320_" class="st5" d="M10.1,18.2c-0.2,0-0.4-0.1-0.5-0.2
						c-0.3-0.3-0.3-0.6-0.2-0.8c0.1-0.2,0.4-0.3,0.5-0.1c0.2,0.1,0.2,0.2,0.3,0.4c0.1,0.1,0.3,0,0.2-0.5c0.4-0.2,0.3-0.8,0.5-1
						c0.3-0.4,0.8-0.3,1-0.2c0.2-0.1,0.5-0.2,0.7,0c0.2,0.1,0.4,0.4,0.5,1.4c0.1,1-0.1,1.6-0.3,1.8C12.6,19,12.3,19.1,12,19l0,0.5
						c0,0,0.4,0.6-0.8,0.4c-0.6-0.1-0.9-0.4-0.9-0.4l0-1.5C10.3,18,10.3,18.2,10.1,18.2z"/>
				</g>
				<path class="st11" d="M12,19c-0.5,0-1.2-0.2-1.3-0.5c0.1,0.3,0.4,0.5,0.7,0.6c0.3,0.1,0.6,0.1,0.6,0.1L12,19z"/>
				<g>
					<path class="st15" d="M12.2,18.1c0,0.2-0.2,0.2-0.3,0.2c-0.2,0-0.2-0.2-0.2-0.3L12.2,18.1z"/>
					<path class="st16" d="M11.6,18c0,0.1,0.1,0.2,0.2,0.2c0,0,0.1,0,0.1,0C11.9,18.1,11.8,18,11.6,18z"/>
				</g>
				<g>
					<path id="XMLID_00000139999000458984527030000011801979819467641477_" class="st7" d="M12.9,17c0,0.1,0,0.1-0.1,0.1
						c-0.1,0-0.2,0-0.2,0c0-0.1,0-0.2,0.1-0.2C12.7,16.8,12.8,16.9,12.9,17z"/>
					<path class="st7" d="M12.6,16.9c0,0,0.1,0,0.1,0c0,0,0.1,0,0.1,0c0.1,0,0.1,0,0.1,0c0,0,0,0,0,0c0,0-0.1,0-0.1,0
						c0,0-0.1,0-0.1,0C12.6,16.9,12.6,16.9,12.6,16.9C12.5,17,12.5,17,12.6,16.9C12.5,17,12.5,17,12.6,16.9
						C12.5,16.9,12.6,16.9,12.6,16.9z"/>
				</g>
				<g>
					<path id="XMLID_00000002353476550804074470000016294429642327593407_" class="st7" d="M11.3,17c0,0.1,0,0.1,0.1,0.1
						c0.1,0,0.2,0,0.2-0.1c0-0.1,0-0.2-0.1-0.2C11.4,16.9,11.3,16.9,11.3,17z"/>
					<path class="st7" d="M11.6,16.9c0,0-0.1,0-0.1,0c0,0-0.1,0-0.1,0c-0.1,0-0.1,0-0.1,0c0,0,0,0,0,0c0,0,0.1,0,0.1,0
						c0,0,0.1,0,0.1,0C11.5,16.9,11.5,16.9,11.6,16.9C11.6,17,11.7,17,11.6,16.9c0.1,0.1,0.1,0.1,0.1,0.1
						C11.6,16.9,11.6,16.9,11.6,16.9z"/>
				</g>
				<g>
					<g id="XMLID_00000101796706857536006620000002065784110174455424_">
						<path id="XMLID_00000070815419004057172830000010429566737565287573_" class="st7" d="M12.9,16.4l-0.4-0.1
							c0-0.1,0.1-0.2,0.2-0.1C12.9,16.2,12.9,16.3,12.9,16.4z"/>
					</g>
					<g id="XMLID_00000072253109161449680140000001642683079232995252_">
						<path id="XMLID_00000003824419482480303230000003716653481258166690_" class="st7" d="M11.5,16.3l-0.4,0.2
							c-0.1-0.1,0-0.2,0.1-0.3C11.3,16.2,11.5,16.2,11.5,16.3z"/>
					</g>
					<g>
						<path class="st8" d="M13.3,16.5C13.3,16.5,13.3,16.5,13.3,16.5c-0.3,0-0.6,0-0.8,0c-0.2,0.1-0.3,0.1-0.4,0.2
							c-0.1,0-0.2-0.1-0.5-0.1c-0.2,0-0.5,0-0.8,0c0,0-0.1,0-0.1,0c0,0-0.1,0.1-0.1,0.1c0,0.1,0.1,0.1,0.1,0.1c0,0,0,0,0,0.1
							c0,0.1,0.1,0.3,0.1,0.4c0,0,0.1,0.1,0.1,0.1c0,0,0,0,0.1,0c0,0,0,0,0,0c0,0,0.1,0,0.1,0c0,0,0,0,0,0c0,0,0,0,0,0c0,0,0,0,0,0
							c0,0,0,0,0.1,0c0,0,0,0,0,0c0,0,0,0,0,0c0.3,0,0.4-0.2,0.5-0.3c0.1-0.2,0-0.4,0.2-0.4c0,0,0,0,0,0c0,0,0,0,0,0
							c0.1,0,0.1,0.2,0.2,0.4c0,0.1,0.1,0.1,0.1,0.1c0,0,0,0,0,0c0,0,0,0,0,0c0,0,0,0,0,0c0,0,0,0,0,0c0,0,0,0,0,0c0,0,0,0,0,0
							c0,0,0,0,0,0c0,0,0.1,0,0.1,0c0,0,0,0,0,0c0,0,0.1,0,0.2,0c0.3,0,0.4-0.2,0.4-0.3c0-0.1,0.1-0.3,0.1-0.4c0,0,0,0,0-0.1
							c0,0,0.1-0.1,0.1-0.1C13.4,16.6,13.4,16.5,13.3,16.5z M11.8,17.1c0,0.1,0,0.1-0.1,0.2l0,0c-0.1,0.1-0.2,0.1-0.3,0.1
							c-0.2,0-0.3-0.1-0.3-0.1c0,0,0,0,0,0c0,0,0,0,0,0c0,0,0,0,0,0c0,0,0,0,0,0c0,0,0,0,0,0c0,0,0,0,0,0c0,0,0,0,0,0l0,0
							c0,0,0,0,0,0c0,0,0,0,0,0c0,0,0,0,0,0c0,0,0,0,0,0c0,0,0,0,0,0c0,0,0,0,0,0c0-0.1-0.1-0.3,0-0.4c0.1,0,0.2-0.1,0.4-0.1
							c0,0,0,0,0,0c0,0,0.1,0,0.1,0c0,0,0,0,0,0c0,0,0.1,0,0.1,0c0,0,0,0,0,0c0,0,0,0,0,0c0,0,0,0,0,0c0,0,0,0,0,0
							c0,0,0.1,0,0.1,0.1C11.9,16.9,11.9,17,11.8,17.1z M13.2,17.1c0,0.1,0,0.3-0.2,0.3c0,0-0.1,0-0.2,0c-0.2,0-0.3-0.1-0.4-0.1
							c0,0,0,0,0,0c0,0,0,0,0,0c0,0,0,0,0,0c0,0,0,0,0,0c0,0,0,0,0,0c0,0,0,0,0,0c0,0,0,0,0,0c0,0,0,0,0,0c0,0,0,0,0,0c0,0,0,0,0,0
							c0,0,0-0.1,0-0.1c0-0.1,0-0.2,0-0.3c0-0.1,0.2-0.1,0.4-0.2c0,0,0.1,0,0.1,0c0,0,0,0,0,0c0,0,0,0,0,0c0,0,0,0,0,0c0,0,0,0,0,0
							c0,0,0,0,0,0c0,0,0,0,0,0c0,0,0,0,0.1,0c0,0,0,0,0,0c0,0,0,0,0,0c0,0,0,0,0,0c0,0,0,0,0,0c0,0,0,0,0,0c0,0,0,0,0,0
							c0,0,0,0,0,0c0,0,0,0,0.1,0C13.3,16.7,13.2,17,13.2,17.1z"/>
						<g id="XMLID_00000044158014697318017130000015009697220266066852_">
							<path class="st11" d="M12.6,17.6l-0.5,0.2L12,17.1c0-0.1,0-0.2,0.1-0.2L12.6,17.6z"/>
						</g>
						<path class="st8" d="M10.8,16.7L10,17.1c0,0,0.1,0,0.1,0.1l0.7-0.3L10.8,16.7z"/>
					</g>
				</g>
			</g>
			<g id="Arm_00000181065570816867122480000006942508388752505520_">
				<g>
					<path class="st5" d="M9.1,19.7c-0.8,0.2-1.1,0.4-1.3,0.9c-0.3,0.7-0.9,2.4-1.1,3.3c-0.1,0.5-0.2,0.7,0.2,1.2
						c0.3,0.4,1.2,1.1,1.9,1.6c0.2,0.1,0.6,0.5,0.8,0.6c0.9,0.5,1.9,0.4,1.9,0.4l-1-0.6l-0.2-0.3l-2-2.3c0,0,0.7-2,0.9-2.5
						C9.5,21.4,9.6,20.1,9.1,19.7z"/>
					<path class="st11" d="M8.4,24.4c-0.3-0.3-0.7-0.3-0.7-0.3S8,24,8.5,24.2L8.4,24.4z"/>
				</g>
				<g>
					<g id="XMLID_00000166666254254589922180000007253767517689957308_">
						<g id="XMLID_00000011712270438728157160000017410956774568435640_">
							<path id="XMLID_00000154407617951765353440000017459294378994924683_" class="st14" d="M9.7,26.3L9.7,26.3
								c0,0.2,0,0.3,0.1,0.3l2.4,1.5c0,0,0.1,0,0.1,0c0,0,0.1,0,0.1,0l4.6-2.4c0.1,0,0.1-0.1,0.1-0.2l0-0.1L12.3,28L9.7,26.3z"/>
						</g>
						<g id="XMLID_00000116957263022647076220000009654055597144246403_" class="st17">
							<path id="XMLID_00000160174318762237178230000012134403281828138140_" class="st1" d="M9.7,26.3L9.7,26.3
								c0,0.2,0,0.3,0.1,0.3l2.4,1.5c0,0,0.1,0,0.1,0c0,0,0.1,0,0.1,0l4.6-2.4c0.1,0,0.1-0.1,0.1-0.2l0-0.1L12.3,28L9.7,26.3z"/>
						</g>
						<g id="XMLID_00000054985463133265070810000002957643287761172615_">
							<path id="XMLID_00000009558099457486531550000016350125967727509171_" class="st12" d="M9.7,26.3L9.7,26.3
								c0,0.2,0,0.3,0.1,0.3l2.4,1.5c0,0,0.1,0,0.1,0c0,0,0.1,0,0.1,0l4.6-2.4c0.1,0,0.1-0.1,0.1-0.2l0-0.1L12.3,28L9.7,26.3z"/>
						</g>
						<g id="XMLID_00000119112924719712017060000009246556103685932722_">
							<path id="XMLID_00000046314441355489264450000009737940950122882215_" class="st18" d="M17.2,25.5l-2.6-1.7c0,0-0.1,0-0.2,0
								l-4.7,2.5c0,0,0,0,0,0.1l2.6,1.7L17.2,25.5z"/>
						</g>
						<g id="XMLID_00000024718559545458589690000010507284528212051883_">
							<polygon id="XMLID_00000021841180303795956770000013050444849271140277_" class="st14" points="12.3,27.7 10.9,26.9 
								15.2,24.6 16.6,25.5 							"/>
						</g>
						<g id="XMLID_00000072974886103990730390000002323647823939419290_">
							<polygon id="XMLID_00000007428869590540278550000017551650443265340346_" class="st12" points="12.3,27.7 10.9,26.9 
								15.2,24.6 16.6,25.5 							"/>
						</g>
						<g id="XMLID_00000171712374670219513000000013038338366133831597_">
							<polygon id="XMLID_00000152965810710667015590000014111871349774667653_" class="st7" points="11.7,25.4 11.7,25.4 
								12.4,25.9 13.7,25.2 13.7,25.2 13,24.7 							"/>
						</g>
						<g id="XMLID_00000113349915252928176990000009923034239653398448_">
							<polygon id="XMLID_00000096037969434589002900000002102982237506736286_" class="st14" points="11.7,25.4 12.4,25.9 
								13.7,25.2 13,24.8 							"/>
						</g>
						<g id="XMLID_00000078037519545065532410000010722536281121576094_">
							<polygon id="XMLID_00000089538073750011948640000011647247286884537994_" class="st12" points="11.7,25.4 12.4,25.9 
								13.7,25.2 13,24.8 							"/>
						</g>
						<g id="XMLID_00000013898394492804452470000014194979159559282081_">
							<path id="XMLID_00000055695180487649131120000003150812138454515347_" class="st14" d="M12.3,28l0,0.2c0,0,0.1,0,0.1,0
								l4.6-2.4c0.1,0,0.1-0.1,0.1-0.2l0-0.1L12.3,28z"/>
						</g>
						<g id="XMLID_00000115481929203833061030000008257942010582046138_" class="st19">
							<path id="XMLID_00000044137665929777103080000018234446220866381983_" class="st1" d="M12.3,28l0,0.2c0,0,0.1,0,0.1,0
								l4.6-2.4c0.1,0,0.1-0.1,0.1-0.2l0-0.1L12.3,28z"/>
						</g>
						<g id="XMLID_00000076601591427631488930000018024259040706953149_">
							<path id="XMLID_00000068674998740535001300000009475152756651635350_" class="st7" d="M12.3,28l0,0.2c0,0,0.1,0,0.1,0
								l4.6-2.4c0.1,0,0.1-0.1,0.1-0.2l0-0.1L12.3,28z"/>
						</g>
						<g id="XMLID_00000060728749089099531080000004629017252420181376_">
							<path id="XMLID_00000101099652155212518370000014835843845801932691_" class="st12" d="M12.4,28c0.1,0,0.2,0,0.3,0l4.6-2.4
								c0.1,0,0.1-0.1,0.2-0.2l0.6-2.9c0,0,0,0,0,0c0-0.1,0-0.2-0.1-0.2l-4.8,2.5c-0.1,0-0.1,0.1-0.1,0.2L12.4,28z"/>
						</g>
						<g id="XMLID_00000177456470847689915450000004880655486834287790_">
							<path id="XMLID_00000081637546306399161700000000233997708709469348_" class="st13" d="M12.3,28L12.3,28
								C12.4,28,12.4,28,12.3,28l0.7-3.1c0-0.1,0.1-0.1,0.1-0.2l4.8-2.5c0,0,0,0-0.1,0l-4.8,2.5c-0.1,0-0.1,0.1-0.1,0.2L12.3,28z"/>
						</g>
						<path class="st14" d="M13.1,24.8L13.1,24.8c-0.1,0-0.1,0-0.1,0L12.3,28l0,0c0,0,0,0,0,0L13.1,24.8
							C13.1,24.9,13.1,24.8,13.1,24.8z"/>
						<path class="st20" d="M13.1,24.8L13.1,24.8c-0.1,0-0.1,0-0.1,0L12.3,28l0,0c0,0,0,0,0,0L13.1,24.8
							C13.1,24.9,13.1,24.8,13.1,24.8z"/>
						<path class="st13" d="M13.1,24.8L13.1,24.8c-0.1,0-0.1,0-0.1,0L12.3,28l0,0c0,0,0,0,0,0L13.1,24.8
							C13.1,24.9,13.1,24.8,13.1,24.8z"/>
						<g id="XMLID_00000182504261287831620910000017274781599198701200_">
							<path id="XMLID_00000088121559542421951320000007720054445226833332_" class="st13" d="M15,25.4c0-0.2,0.3-0.4,0.5-0.6
								c0.2-0.1,0.4-0.1,0.3,0.1c0,0.2-0.3,0.4-0.5,0.6C15.1,25.7,15,25.6,15,25.4z"/>
						</g>
					</g>
				</g>
				<path class="st5" d="M9.6,26c0.2,0.2,0.6,0,0.9,0.1c0.3,0,0.6,0.1,0.9,0.1c0.3,0,0.4,0.1,0.2,0.3c-0.2,0.2-0.7,0.1-0.9,0.1
					c-0.1,0.1-0.2,0.3-0.1,0.5c0.2,0.2-0.9-0.2-1-0.4C9.5,26.5,9.4,26.1,9.6,26z"/>
				<path class="st10" d="M9.1,19.7c-0.5,0.1-0.7,0.2-1,0.4c-0.3,0.2-1.1,2-1.1,2s0.4,0.6,2,0.9c0,0,0.5-1.2,0.6-1.5
					C9.6,21.2,9.8,20,9.1,19.7z"/>
			</g>
		</g>
	</g>
	<g id="Character_9_">
		<g id="Arm_00000138573289688101364670000002689416140904467872_">
			<path class="st21" d="M27,17c0.8,0,1.3,0.5,1.6,1.3c0.3,0.8,0.6,2.1,0.7,2.7c0.1,0.6,0.4,3.3,0.4,3.3l-1,0.1l-1-3.1l-0.5-2L27,17
				z"/>
			<g id="Book_00000030471480273827797790000006004431593146138504_">
				<g id="XMLID_00000067949401842873956880000007492782065243596452_">
					<polygon class="st22" points="30.6,25.9 30.6,23.5 27.5,21.7 27.5,24 					"/>
				</g>
				<g id="XMLID_00000011742452437155120270000007711094073987036570_">
					<path class="st22" d="M30.5,23.6l0,2.3c-0.1,0-0.2,0.1-0.3,0.2l0-2.3C30.2,23.8,30.2,23.7,30.5,23.6z"/>
				</g>
				<g id="XMLID_00000034775006245657512170000011654884954802104711_">
					<path class="st23" d="M30.1,23.9c0-0.1,0.1-0.3,0.2-0.3l0.2-0.1c0.1-0.1,0.2,0,0.2,0.1l0,2.2l-0.1,0l0-2.2c0-0.1,0-0.1-0.1-0.1
						l-0.2,0.1C30.2,23.8,30.2,23.9,30.1,23.9l0.1,2.2l-0.1,0.1L30.1,23.9z"/>
				</g>
				<path class="st9" d="M30.1,26.2l-3.1-1.8l0-2.2c0-0.1,0.1-0.3,0.2-0.3l0.2-0.1c0,0,0.1,0,0.1,0l3.1,1.8c0,0-0.1,0-0.1,0
					l-0.2,0.1c-0.1,0.1-0.2,0.2-0.2,0.3L30.1,26.2z"/>
				<g id="XMLID_00000057145900783194306530000012981472571659668130_">
					<path class="st14" d="M30.1,23.8c0-0.1,0.1-0.1,0.1-0.1l0.2-0.1c0,0,0.1,0,0.1,0l-3.1-1.8c0,0-0.1,0-0.1,0l-0.2,0.1
						c0,0-0.1,0.1-0.1,0.1L30.1,23.8z"/>
					<path class="st23" d="M30.1,23.8c0-0.1,0.1-0.1,0.1-0.1l0.2-0.1c0,0,0.1,0,0.1,0l-3.1-1.8c0,0-0.1,0-0.1,0l-0.2,0.1
						c0,0-0.1,0.1-0.1,0.1L30.1,23.8z"/>
				</g>
				<g>
					<path class="st14" d="M27.4,22.2c0.2-0.2,0.3-0.2,0.5-0.3l0.1,0.1c-0.2,0-0.3,0.1-0.5,0.3L27.4,22.2z"/>
				</g>
				<g class="st24">
					<path class="st1" d="M27.4,22.2c0.2-0.2,0.3-0.2,0.5-0.3l0.1,0.1c-0.2,0-0.3,0.1-0.5,0.3L27.4,22.2z"/>
				</g>
			</g>
			<path class="st21" d="M29.5,25.8c0,0.1-0.3,0.2-0.4,0.1c-0.1,0-0.6-0.3-0.7-0.4c-0.1-0.1-0.2-0.4-0.2-0.5c0-0.1,0.1-0.4,0.2-0.4
				c0.1,0,0.1,0.1,0.1,0.1s0.1-0.2,0.2-0.2c0.1,0,0.2,0.1,0.2,0.2c0.1,0,0.2,0.1,0.2,0.2c0.1,0,0.2,0.1,0.1,0.4
				c0,0.1,0.1,0.3,0.1,0.3L29.5,25.8z"/>
			<path class="st25" d="M27,16.9c0.7,0.1,1.2,0.3,1.4,0.9c0.3,0.6,0.7,2.3,0.7,2.3s-0.5,0.6-1.7,0.5l-0.3-1.3L27,16.9z"/>
		</g>
		<g id="Backpack_00000156563477912753431380000009663081150389010839_">
			<path class="st7" d="M20.5,19.1c0,0,0.5-0.1,1-0.3l0-1.7c0,0-0.6,0.1-0.8,0.7C20.4,19,20.5,19.1,20.5,19.1z"/>
			<path class="st9" d="M24.1,16.3c0.4,0,0.9,0.2,1.1,0.5c0,0.1,0.2,0.5,0.2,0.5c0.2,1.2,0.7,4.1,0.4,4.5c-0.5,0.6-2.7,1.6-3.7,1.6
				c-0.8,0-1.6-0.8-1.7-1c-0.4-0.7,0.6-4.8,0.9-5.2C21.6,16.6,23.5,16.3,24.1,16.3z"/>
			<path class="st26" d="M25.7,21.9c-0.5,0.6-2.7,1.6-3.7,1.6c-0.2,0-0.4-0.1-0.6-0.2c0.2,0.1,0.5,0,0.6-0.3
				c0.1-0.3,0.2-2.7,0.2-4.7l3.2-0.9C25.6,18.5,26,21.5,25.7,21.9z"/>
			<path class="st17" d="M21.1,17.5c0-0.1,0.1-0.2,0.1-0.3c0.4-0.7,2.3-0.9,2.9-0.9c0.4,0,0.9,0.2,1.1,0.5c0,0.1,0.2,0.5,0.2,0.5
				c-0.9,0.5-3,0.9-3.2,0.8C21.8,18,21.1,17.5,21.1,17.5z"/>
			<g>
				<path class="st14" d="M20.5,20.6c0,0,0.3-0.2,0.4-0.2c0.1,0,0.9,0.6,1,0.7c0.1,0.1-0.1,1.6-0.1,1.6c0,0-0.3,0.2-0.4,0.2
					c0,0.1-0.9-0.6-1-0.7C20.3,22.1,20.4,20.7,20.5,20.6z"/>
				<path class="st23" d="M20.5,20.6c0,0,0.3-0.2,0.4-0.2c0.1,0,0.9,0.6,1,0.7c0.1,0.1-0.1,1.6-0.1,1.6c0,0-0.3,0.2-0.4,0.2
					c0,0.1-0.9-0.6-1-0.7C20.3,22.1,20.4,20.7,20.5,20.6z"/>
				<path class="st14" d="M21.5,21.3c0.1,0.1-0.1,1.6-0.1,1.6c0,0.1-0.9-0.6-1-0.7c-0.1-0.1,0-1.6,0.1-1.6
					C20.5,20.6,21.4,21.2,21.5,21.3z"/>
				<path class="st24" d="M20.8,20.4c0,0-0.3,0.2-0.4,0.2c0.1,0,0.9,0.6,1,0.7l0.4-0.2C21.8,21,20.9,20.4,20.8,20.4z"/>
				<path class="st8" d="M21.5,21.3c0.1,0.1-0.1,1.6-0.1,1.6c0,0.1-0.9-0.6-1-0.7c-0.1-0.1,0-1.6,0.1-1.6
					C20.5,20.6,21.4,21.2,21.5,21.3z"/>
				<path class="st14" d="M21.8,21.1c-0.1,0-0.3,0.1-0.4,0.1c-0.1,0.1-0.2,0.4-0.4,0.5c-0.2,0-0.5-0.3-0.6-0.4
					c-0.1-0.2-0.1-0.6,0-0.7c0.1-0.1,0.3-0.2,0.4-0.1C21.1,20.5,21.8,20.9,21.8,21.1z"/>
				<path class="st23" d="M21.8,21.1c-0.1,0-0.3,0.1-0.4,0.1c-0.1,0.1-0.2,0.4-0.4,0.5c-0.2,0-0.5-0.3-0.6-0.4
					c-0.1-0.2-0.1-0.6,0-0.7c0.1-0.1,0.3-0.2,0.4-0.1C21.1,20.5,21.8,20.9,21.8,21.1z"/>
				<path class="st0" d="M20.9,21.3c0,0,0.1,0.1,0.1,0.2c0,0.1-0.1,0.1-0.1,0.1c0,0-0.1-0.1-0.1-0.2C20.8,21.3,20.8,21.2,20.9,21.3z
					"/>
			</g>
			<path class="st8" d="M22.1,18.2c0,0-0.3-0.2-0.7-0.4c-0.4-0.2-0.6-0.3-0.7,0.1c-0.1,0.5-0.3,1-0.3,1.1c-0.1,0-0.1-0.2,0-0.7
				c0.1-0.8,0-1.1,0.8-1.5c1.3-0.5,2.3-0.9,3-0.7c0.7,0.2,0.9,0.6,1,1.1C25.3,17.3,24.5,18.1,22.1,18.2z"/>
		</g>
		<g id="Bottom_11_">
			<g>
				<g id="XMLID_5271_">
					<path id="XMLID_5272_" class="st21" d="M27.9,36.5c0-0.5,0.1-4.2,0.1-4.2l-2,1.1c0.2,2.2,0.4,3.2,0.4,3.6l0,0c0,0,0,0,0,0.1
						c0,0.4,0.5,0.7,0.9,1c0.2,0.1,0.6,0.5,1.1,0.7c0.3,0.1,1,0.1,1-0.1c-0.5-0.4-1-0.7-1.3-1.1C28,37.2,27.9,36.9,27.9,36.5z"/>
				</g>
				<g>
					<path class="st7" d="M30.3,39.2c0,0,0.1,0.3-0.1,0.4c-0.2,0.1-0.6,0.3-1.3,0.2c-0.6-0.1-1-0.3-1.2-0.5
						c-0.2-0.2-0.6-0.5-0.9-0.5c-0.3-0.1-0.5-0.2-0.6-0.3c-0.1-0.1-0.1-0.4-0.1-0.4L30.3,39.2z"/>
					<path id="XMLID_5269_" class="st8" d="M26.5,36.8C26.5,36.8,26.4,36.8,26.5,36.8c-0.1,0.2-0.1,0.4-0.2,0.6
						c-0.1,0.2-0.1,0.6-0.1,0.8c0,0.2,0.5,0.3,0.7,0.4c0.3,0.1,0.6,0.3,0.9,0.5c0.3,0.2,0.9,0.5,1.3,0.5c0.6,0,1-0.1,1.2-0.3
						c0.2-0.2,0.1-0.5-0.6-0.8c-0.1-0.1-0.6-0.4-0.8-0.5c-0.4-0.3-0.5-0.5-0.7-0.9c0-0.1,0-0.1-0.1-0.2c0,0-0.1-0.1-0.2-0.1
						c-0.1,0-0.5,0.1-0.6,0.1c-0.1,0-0.2,0.1-0.2,0.2c0,0,0,0.1,0,0.1c0,0,0,0.1,0,0.1c0,0,0,0-0.1,0c-0.1-0.1-0.1-0.1-0.2-0.2
						c0,0-0.1-0.1-0.1-0.1c0,0-0.1,0-0.1-0.1C26.5,36.9,26.5,36.9,26.5,36.8z"/>
					<path class="st27" d="M29.8,38.5c-0.9,0-1.3,0.6-1.3,0.9c0.2,0.1,0.4,0.1,0.6,0.1c0.6,0,1.1-0.1,1.2-0.3
						C30.4,39.1,30.4,38.8,29.8,38.5z"/>
					<g>
						<g>
							<path class="st4" d="M28.4,38.6C28.4,38.6,28.3,38.6,28.4,38.6C28.3,38.6,28.3,38.6,28.4,38.6c0.1-0.2,0.5-0.5,0.9-0.4
								c0,0,0,0,0,0c0,0,0,0,0,0C28.9,38.2,28.5,38.5,28.4,38.6C28.4,38.6,28.4,38.6,28.4,38.6z"/>
						</g>
						<g>
							<path class="st4" d="M28,38.4C28,38.4,28,38.4,28,38.4C27.9,38.4,27.9,38.3,28,38.4c0.1-0.2,0.5-0.5,0.9-0.4c0,0,0,0,0,0
								c0,0,0,0,0,0C28.5,38,28.1,38.3,28,38.4C28,38.4,28,38.4,28,38.4z"/>
						</g>
						<g>
							<path class="st4" d="M27.6,38.1C27.6,38.1,27.6,38.1,27.6,38.1C27.6,38.1,27.6,38.1,27.6,38.1c0.1-0.2,0.6-0.5,1-0.5
								c0,0,0,0,0,0c0,0,0,0,0,0C28.3,37.7,27.8,38,27.6,38.1C27.7,38.1,27.6,38.1,27.6,38.1z"/>
						</g>
						<g>
							<path class="st4" d="M27.3,37.9C27.3,37.9,27.3,37.9,27.3,37.9C27.2,37.9,27.2,37.8,27.3,37.9c0.1-0.3,0.7-0.5,1-0.5
								c0,0,0,0,0,0c0,0,0,0,0,0C28,37.4,27.5,37.7,27.3,37.9C27.3,37.9,27.3,37.9,27.3,37.9z"/>
						</g>
					</g>
				</g>
			</g>
			<g>
				<g id="XMLID_5265_">
					<path id="XMLID_5268_" class="st21" d="M23.6,34.4l-2-0.3c-0.1,1.2-0.1,2.3-0.2,3.3c0,0.2-0.2,1.6-0.2,2c0,0.6,0.9,0.7,1,0.4
						c0.1-0.4,0.5-2.1,0.6-2.2c0.2-0.6,0.4-1.4,0.8-2.7C23.6,34.7,23.6,34.4,23.6,34.4z"/>
				</g>
				<g>
					<path class="st7" d="M22.6,40c0,0.4-0.1,0.7-0.3,0.9c-0.2,0.2-0.4,0.2-0.7,0.2c-0.3-0.1-0.6-0.3-0.7-0.6
						c-0.1-0.4-0.1-0.6,0-0.9L22.6,40z"/>
					<path id="XMLID_5249_" class="st8" d="M21.5,37.3c-0.1,0-0.2,0.5-0.3,1c-0.1,0.5-0.3,0.7-0.4,1.2c-0.1,0.5-0.1,0.8,0.1,1.1
						c0.2,0.3,0.8,0.6,1.2,0.2c0.3-0.3,0.4-0.7,0.4-1.2c0-0.5,0.1-0.9,0.1-1.3c0-0.4,0.2-0.7,0.1-0.8c-0.1,0.2-0.1,0.5-0.2,0.4
						c0,0,0-0.1,0-0.1c0,0,0-0.1,0-0.1c0,0-0.1,0-0.1-0.1c-0.1,0-0.4-0.1-0.6-0.1c-0.1,0-0.1,0-0.2,0c0,0-0.1,0-0.1,0
						c0,0-0.1,0-0.1,0c0,0,0,0,0,0.1c0,0,0,0.1,0,0.1c0,0,0,0,0,0c0,0,0,0,0,0c0-0.1,0-0.1,0-0.2C21.5,37.5,21.5,37.4,21.5,37.3
						C21.5,37.3,21.5,37.3,21.5,37.3z"/>
					<path class="st27" d="M20.8,39.7c0,0.3,0,0.6,0.1,0.8c0.2,0.3,0.8,0.6,1.2,0.2c0.2-0.2,0.3-0.5,0.3-0.7
						C22.4,39.7,21.2,39.5,20.8,39.7z"/>
					<g>
						<g>
							<path class="st4" d="M22.3,39.5C22.3,39.5,22.3,39.5,22.3,39.5c0,0-0.6-0.3-1.1-0.2c0,0,0,0,0,0c0,0,0,0,0,0
								C21.8,39.1,22.3,39.4,22.3,39.5C22.4,39.5,22.4,39.5,22.3,39.5C22.3,39.5,22.3,39.5,22.3,39.5z"/>
						</g>
						<g>
							<path class="st4" d="M21.3,38.9C21.3,38.9,21.2,38.9,21.3,38.9C21.2,38.9,21.2,38.9,21.3,38.9c0.5-0.2,1.1,0.1,1.1,0.1
								c0,0,0,0,0,0.1c0,0,0,0-0.1,0C22.3,39.1,21.8,38.8,21.3,38.9C21.3,38.9,21.3,38.9,21.3,38.9z"/>
						</g>
						<g>
							<path class="st4" d="M21.3,38.6C21.3,38.6,21.3,38.6,21.3,38.6C21.3,38.5,21.3,38.5,21.3,38.6c0.6-0.2,1.1,0.1,1.1,0.1
								c0,0,0,0,0,0.1c0,0,0,0-0.1,0C22.4,38.8,21.9,38.4,21.3,38.6C21.3,38.6,21.3,38.6,21.3,38.6z"/>
						</g>
						<g>
							<path class="st2" d="M21.4,38.2C21.4,38.2,21.3,38.2,21.4,38.2C21.3,38.2,21.3,38.1,21.4,38.2c0.5-0.2,1.1,0.1,1.1,0.1
								c0,0,0,0,0,0.1c0,0,0,0-0.1,0C22.5,38.4,21.9,38.1,21.4,38.2C21.4,38.2,21.4,38.2,21.4,38.2z"/>
						</g>
					</g>
				</g>
			</g>
			<g>
				<path id="XMLID_00000174598064830505164840000017161279506047669920_" class="st7" d="M23.6,21.4c-0.1,0.2-0.1,0.3-0.2,0.4
					c-0.5,0.7-0.8,1.3-0.9,2.5c-0.2,3.1-0.3,6.2-0.3,6.2c0,0.3-0.3,0.7-0.5,2.1c-0.1,1.2-0.2,2.9-0.2,2.9s1.4,0.3,1.9-0.1
					c0.2-0.9,1-3.2,1.4-4.5c0.4-1.2,0.7-3,0.7-3l0.4,2.5c0,0-0.1,0.7-0.1,1.6c0.1,0.8,0.4,3,0.4,3c0.3,0.3,1.5,0.3,1.8-0.1
					c0,0,0.4-3.6,0.4-4.6c0.1-1.8,0.5-5.6-0.3-8.1c0-0.1-0.2-0.7-0.2-0.7C27.2,22,24.5,22,23.6,21.4z"/>
				<path class="st25" d="M24.8,22.3C24.8,22.3,24.8,22.3,24.8,22.3c-0.1,0.2-0.1,0.3-0.2,0.4c-0.1,0.4-0.2,0.8-0.6,1.1
					c-0.3,0.3-0.8,0.3-0.9,0.3c0.2-0.9,0.5-1.6,1.1-2.2c0,0,0,0,0,0c0,0,0,0-0.1,0c-0.6,0.6-0.9,1.3-1.1,2.3c0,0,0,0,0,0
					c0,0,0,0,0,0C23,24.5,23,24.9,23,25.3c-0.1,1.7-0.3,4.3-0.3,5c0,0.4-0.1,0.7-0.3,1.1c-0.1,0.3-0.2,0.7-0.3,1.3
					c-0.3,1.2-0.2,3.1-0.2,3.1c0,0,0,0,0,0c0,0,0,0,0,0c0,0,0,0,0,0c0,0,0-1.9,0.2-3.1c0.1-0.5,0.2-0.9,0.3-1.3
					c0.1-0.4,0.2-0.7,0.3-1.1c0.1-0.7,0.2-3.3,0.3-5c0-0.4,0.1-0.8,0.1-1.1c0,0,0,0,0,0c0.2,0,0.6,0,0.9-0.3
					c0.4-0.3,0.5-0.7,0.6-1.1C24.8,22.6,24.8,22.5,24.8,22.3C24.8,22.3,24.8,22.3,24.8,22.3z"/>
				<path class="st25" d="M21.6,35.2c0.3,0.3,1.4,0.4,1.8,0.2l-0.2,0.7c0,0-0.3,0.1-0.9,0.1c-0.7-0.1-0.8-0.3-0.8-0.3L21.6,35.2z"/>
				<path class="st25" d="M26.2,35c0.4,0.1,1.4,0.1,1.8-0.1l0,0.6c0,0-0.3,0.2-0.9,0.2c-0.6,0-0.8-0.1-0.8-0.1L26.2,35z"/>
				<path id="XMLID_00000095341098157069121890000017354000406543851173_" d="M25.5,28l0.5-3c0,0,0.9,0.1,1.6-0.7c0,0,0,0.8-1.3,1
					l-0.6,2.8l0.2,2.3L25.5,28z"/>
			</g>
		</g>
		<g id="Top_00000124862485261285709400000012204650913959808163_">
			<g>
				<path class="st4" d="M22.7,23.1c0.2-1.1,0.6-1.7,0.7-2c0,0-0.3-1.7-0.4-2.1c-0.1-1-0.1-1.6,0.1-1.8c0.2-0.1,1.3-0.3,1.4-0.3
					c0.9,0,1,0,1.7,0c0.3,0,0.8,0.1,0.8,0.1c0.2,0.2,0.5,0.4,0.8,0.7c0.5,0.6,0.7,1,0.6,1.7c-0.1,0.4-0.4,0.8-0.4,0.8
					c0,0.3-0.1,1.2-0.1,1.2c0,0.3,0.2,0.8,0.4,1.7C27.4,24.3,23.8,24,22.7,23.1z"/>
			</g>
			<g id="Head_15_">
				<g id="XMLID_00000100371526362427342500000010090381976032927421_">
					<path class="st7" d="M27.4,14.1c0.2-0.4,0-1.1-0.2-1.3c-0.3-0.4-0.9-0.6-1.7-0.6c-0.6,0-1.4,0.3-1.5,0.9
						c-0.6,0.3-0.4,1.1-0.3,1.4c0.3,0.7,0.7,1.3,0.7,1.6L27.4,14.1z"/>
					<g>
						<path id="XMLID_5251_" class="st21" d="M27.1,13.1c0.1,0.1,0.4,0.4,0.3,1c0,0.2,0,0.4,0,0.7c0,1.2-0.3,1.4-0.6,1.6
							c-0.2,0.1-0.3,0.1-0.6,0.1V17c0,0,0.7,1.1,0.4,2c0,0,0,0,0,0c-1.4-1-2.1-2.1-2.1-2.1c0,0,0-1.3,0-1.3c0,0,0,0,0,0
							c0,0-0.2,0.2-0.5,0c-0.3-0.2-0.4-0.7-0.2-1c0.2-0.2,0.5-0.1,0.6,0.1c0.1,0.2,0.5,0.2,0.4-0.2c0.2-0.1,0.3-0.2,0.2-0.8
							c0-0.2,0-0.4,0.2-0.6c0.2-0.2,0.7-0.2,1,0.1C26.6,13,26.8,12.9,27.1,13.1z"/>
						<g id="XMLID_5177_">
							<path id="XMLID_5248_" class="st28" d="M25.9,15.3l0.5,0.2c0,0.2-0.2,0.2-0.4,0.2C26,15.6,25.9,15.5,25.9,15.3z"/>
							<path class="st16" d="M26.3,15.7c0-0.1-0.1-0.3-0.3-0.3c0,0,0,0-0.1,0c0,0.1,0.1,0.2,0.2,0.2C26.2,15.7,26.2,15.7,26.3,15.7z
								"/>
						</g>
						<polygon id="XMLID_5175_" class="st28" points="26.4,14.1 26.5,15.2 27,14.9 						"/>
						<path id="XMLID_00000150078749433864037080000011301957236381700780_" class="st28" d="M26.2,16.4c-0.4,0-1.2-0.2-1.4-0.7
							c0,0,0,0.4,0.5,0.6c0.4,0.2,0.9,0.3,0.9,0.3L26.2,16.4z"/>
						<g>
							<path class="st7" d="M26,14.5c0,0.1-0.1,0.2-0.2,0.2c-0.1,0-0.2-0.1-0.2-0.2c0-0.1,0.1-0.2,0.2-0.2
								C25.9,14.3,26,14.4,26,14.5z"/>
							<path class="st7" d="M27.2,14.4c0,0.1-0.1,0.1-0.2,0.1c-0.1,0-0.1-0.1-0.1-0.2c0-0.1,0.1-0.1,0.2-0.1
								C27.2,14.2,27.2,14.3,27.2,14.4z"/>
							<path class="st7" d="M27.1,13.8c-0.1,0-0.3,0-0.3,0.2l0.5,0.1C27.3,13.9,27.3,13.8,27.1,13.8z"/>
							<path class="st7" d="M25.6,13.8c-0.1,0.1-0.2,0.2-0.1,0.3l0.4-0.2C25.8,13.9,25.7,13.8,25.6,13.8z"/>
						</g>
					</g>
				</g>
				<path class="st7" d="M27,12.5h-1.8c-1.2,0.5-0.8,2-0.5,2.2c0.7-0.3,0.7-1,0.6-1.4c0.4,0.3,1,0.6,1.3,0.6
					c-0.1-0.2-0.2-0.6-0.2-0.6s0.2,0.4,0.6,0.6c0.4,0.3,0.7,0.1,0.7,0.1S27.8,13,27,12.5z"/>
			</g>
			<g>
				<g>
					<path id="XMLID_00000169556506091545718870000013752691053884570810_" class="st7" d="M23.8,17c0,0,0.8,0.7,0.9,2
						c0.3,3.2-2,3.8-2,3.8s0-0.3,0.2-0.8c0,0,1.4-1.2,1.2-2.9c-0.1-1.2-0.6-1.9-0.9-2C23.1,17.1,23.4,17,23.8,17z"/>
				</g>
				<g>
					<path id="XMLID_356_" class="st21" d="M22.3,22.8c0.3-0.1,0.5-0.2,0.8-0.5c0.6-0.5,0.6-0.6,1.1-1.1c0.2-0.2,0.3-0.3,0.4-0.4
						c0.1-0.1,0.2-0.2,0.4-0.4c0.1-0.1,0.2-0.3,0.2-0.5c0-0.2,0.1-0.3,0-0.5c0-0.1,0-0.1,0-0.1c0-0.1,0-0.1,0-0.2
						c0-0.1,0-0.2-0.1-0.4c0-0.1-0.1-0.2-0.2-0.3c-0.1-0.1-0.1-0.1-0.2-0.1c0,0.1,0,0.2,0.1,0.3c0,0.2-0.1,0.3-0.2,0.4
						c-0.2,0.3-0.3,0.4-0.4,0.3c0-0.1,0-0.2,0-0.5c0-0.2-0.1-0.3-0.2-0.3c-0.1,0-0.1,0.1-0.2,0.3c0,0.2-0.1,0.4-0.1,0.7
						c0,0.3,0.1,0.4-0.1,0.5c-0.1,0.1-0.3,0.2-0.3,0.2s0-0.3,0.1-0.9c0.2-1.2,0-2.2-0.2-2.4c-0.5,0.2-1.1,0.5-1.3,1.4
						c-0.2,1-0.3,1.1-0.5,3C21.2,23,21.8,23,22.3,22.8z"/>
					<path class="st28" d="M23.2,20.4c-0.4,0.2-1.3,0.6-1.4,1.1c0,0-0.1-0.4,0.5-0.8c0.6-0.4,0.9-0.6,0.9-0.6L23.2,20.4z"/>
				</g>
				<g>
					<path class="st25" d="M23.2,20.3c0,0,0.1-0.8,0.2-1.3c0.1-0.6,0.1-1.5-0.3-1.9c-0.4,0.1-0.9,0.3-1.2,0.7
						c-0.2,0.4-0.2,0.7-0.3,1.4c0,0.2-0.1,0.8-0.1,1.1C22,20.6,22.7,20.6,23.2,20.3z"/>
				</g>
			</g>
		</g>
	</g>
	<g id="Chartacter_4_">
		<g>
			<path class="st14" d="M40,26l-0.6-0.3c0,0-3,0.7-3.3,1C36,26.9,35.5,29,35.7,29c0.2,0,3.5-1,3.5-1L40,26z"/>
			<path class="st29" d="M40,26l-0.6-0.3c0,0-3,0.7-3.3,1C36,26.9,35.5,29,35.7,29c0.2,0,3.5-1,3.5-1L40,26z"/>
			<path class="st7" d="M36.6,31.3c0.5,0.1,3.3-1.4,3.6-1.5C40.3,29.6,40,26,40,26l-3.2,1.1L36.6,31.3z"/>
			<path class="st8" d="M36.2,26.8c-0.3,0.9-0.8,3.8-0.7,4.1c0.1,0.3,0.9,0.5,1,0.5c0.2,0,0.3-4.3,0.3-4.3L36.2,26.8z"/>
		</g>
		<g id="Bottom_00000084495262564586551580000006247234402403266204_">
			<g>
				<path class="st30" d="M39,39.7l0.2-1.4l-1.6,0.1c0,0,0,0.8,0,1.2c0,0.3-0.3,0.7-0.3,0.7s0.8,0.4,1.2,0.3
					c0.4-0.1,0.6-0.7,0.6-0.8C39.1,39.7,39,39.7,39,39.7z"/>
				<path class="st7" d="M35.1,41.9c0,0-0.1,0.3,0.1,0.4c0.2,0.1,0.6,0.4,1.3,0.3c0.6-0.1,1-0.2,1.2-0.4c0.3-0.2,0.6-0.5,0.9-0.5
					c0.3,0,0.6-0.2,0.6-0.2c0.1-0.1,0.1-0.4,0.1-0.4L35.1,41.9z"/>
				<path id="XMLID_1343_" class="st25" d="M39,39.7C39,39.7,39.1,39.7,39,39.7c0.1,0.2,0.1,0.4,0.2,0.6c0.1,0.2,0.1,0.7,0,0.8
					c0,0.2-0.5,0.3-0.7,0.4c-0.3,0.1-0.6,0.3-0.9,0.5c-0.3,0.2-0.9,0.4-1.3,0.4c-0.5,0-1-0.2-1.1-0.4c-0.2-0.3-0.3-0.6,0.5-0.9
					c0.1-0.1,0.6-0.3,0.8-0.4c0.4-0.3,0.8-0.5,1-0.9c0-0.1,0.1-0.1,0.1-0.1c0,0,0.1,0,0.1,0c0.1,0,0.6,0.1,0.7,0.1
					c0.1,0,0.2,0.1,0.2,0.2c0,0,0,0.1,0,0.1c0,0,0,0.1,0,0.1c0,0,0,0,0.1,0c0.1-0.1,0.1-0.1,0.2-0.2c0,0,0.1-0.1,0.1-0.1
					c0,0,0.1,0,0.1-0.1C39,39.8,39,39.8,39,39.7z"/>
				<path class="st8" d="M37.6,42c0.1-0.1,0.3-0.2,0.4-0.3v0c0,0-0.9,0.5-1.2,0.2c-0.2-0.1-0.1-0.3-0.1-0.4c0-0.1-0.8-0.5-1-0.5l0,0
					c-0.1,0-0.1,0.1-0.1,0.1c-0.7,0.3-0.6,0.6-0.5,0.9c0.1,0.2,0.5,0.4,1.1,0.4C36.7,42.5,37.3,42.2,37.6,42z"/>
				<path class="st8" d="M36.8,41.5c-0.4,0.2-0.3,0.2-0.1,0.3c0.1,0,0.9-0.4,1.3-0.7c0.5-0.3,0.8-0.7,1-0.9c0.1,0,0.1-0.1,0.2-0.2
					c0-0.1,0-0.2,0-0.2c0-0.1-0.1-0.1-0.1-0.1c0,0.1,0,0.1,0,0.1c0,0-0.1,0-0.1,0.1c0,0-0.1,0.1-0.1,0.1c-0.1,0.1-0.1,0.2-0.2,0.2
					C38.2,40.7,37.2,41.3,36.8,41.5z"/>
				<g>
					<g>
						<path class="st7" d="M36.7,41.7C36.7,41.7,36.7,41.7,36.7,41.7C36.7,41.6,36.7,41.6,36.7,41.7c-0.1-0.2-0.7-0.6-1-0.5
							c0,0,0,0,0,0c0,0,0,0,0,0C36,41.2,36.5,41.5,36.7,41.7C36.7,41.7,36.7,41.7,36.7,41.7z"/>
					</g>
					<g>
						<path class="st7" d="M37.1,41.4C37.1,41.4,37.1,41.4,37.1,41.4C37.1,41.4,37.1,41.4,37.1,41.4c-0.1-0.2-0.7-0.6-1-0.5
							c0,0,0,0,0,0c0,0,0,0,0,0C36.4,41,36.9,41.3,37.1,41.4C37,41.4,37.1,41.4,37.1,41.4z"/>
					</g>
					<g>
						<path class="st7" d="M37.5,41.2C37.5,41.2,37.5,41.2,37.5,41.2C37.5,41.2,37.5,41.2,37.5,41.2c-0.1-0.2-0.7-0.6-1-0.5
							c0,0,0,0,0,0c0,0,0,0,0,0C36.8,40.8,37.3,41.1,37.5,41.2C37.4,41.2,37.4,41.2,37.5,41.2z"/>
					</g>
					<g>
						<path class="st7" d="M37.8,41C37.8,41,37.8,41,37.8,41C37.9,41,37.9,41,37.8,41c-0.1-0.2-0.7-0.6-1-0.5c0,0,0,0,0,0
							c0,0,0,0,0,0C37.1,40.5,37.7,40.9,37.8,41C37.8,41,37.8,41,37.8,41z"/>
					</g>
					<g>
						<path class="st7" d="M38.2,40.8C38.2,40.8,38.2,40.8,38.2,40.8C38.2,40.7,38.2,40.7,38.2,40.8c-0.1-0.3-0.8-0.6-1.1-0.5
							c0,0,0,0,0,0c0,0,0,0,0,0C37.4,40.3,38,40.6,38.2,40.8C38.2,40.8,38.2,40.8,38.2,40.8z"/>
					</g>
				</g>
			</g>
			<g>
				<path class="st30" d="M42.3,40.5l-0.4-1.4l1.7-0.3l0.1,1.3c0,0,0.2,0.5,0.1,0.6c-0.1,0.2-1.2,0.4-1.3,0.3
					C42.3,41,42.3,40.5,42.3,40.5z"/>
				<path class="st7" d="M42.4,43.4c0.1,0.4,0.1,0.7,0.3,0.9c0.2,0.2,0.5,0.3,0.8,0.1c0.3-0.1,0.7-0.4,0.8-0.7c0.1-0.4,0-0.6-0.1-1
					L42.4,43.4z"/>
				<path id="XMLID_00000115484927924189805470000000083711195351863981_" class="st25" d="M43.6,40.2c0.1,0,0.1,0.6,0.2,1.1
					c0.1,0.6,0.3,0.8,0.4,1.3c0.1,0.6,0.1,0.8-0.1,1.2c-0.2,0.4-1,0.8-1.4,0.4c-0.3-0.4-0.4-0.8-0.4-1.4c0-0.6,0-1-0.1-1.5
					c-0.1-0.4-0.2-0.8-0.1-0.9c0,0.1,0,0.1,0,0.2c0,0,0,0.3,0.1,0.3c0-0.1,0-0.1,0-0.2c0,0,0-0.1,0-0.1c0,0,0.2-0.1,0.2-0.1
					c0.1,0,0.4-0.1,0.5-0.1c0.1,0,0.1,0,0.2,0c0.1,0,0.1,0,0.2,0c0,0,0.1,0,0.1,0c0,0,0,0,0,0.1c0,0,0,0.1,0,0.1c0,0,0,0,0,0
					c0,0,0,0,0,0c0-0.1,0-0.1,0-0.2c0,0,0-0.1,0-0.1C43.6,40.3,43.6,40.2,43.6,40.2z"/>
				<path class="st8" d="M44.3,42.5c0,0.1,0.1,0.6,0,0.7c-0.2,0.1-0.3-0.3-0.3-0.3s-0.4-0.1-1,0.3c0,0.1,0,0.4-0.2,0.4
					c-0.2,0-0.3-0.7-0.3-0.7c0,0.5,0.1,1,0.4,1.3c0.4,0.4,1.2,0,1.4-0.4c0.2-0.4,0.2-0.6,0.1-1.2C44.3,42.6,44.3,42.5,44.3,42.5z"/>
				<path class="st8" d="M43.9,43c0,0.2,0.2,0.1,0.2-0.2c0-0.3-0.2-1-0.3-1.5c0-0.7-0.1-1.1-0.2-1.1c0,0,0,0,0,0l0,0.3
					c0,0,0,0.1,0,0.1c0,0.4,0,1.2,0.1,1.6C43.9,42.6,43.9,42.7,43.9,43z"/>
				<path class="st8" d="M43,43.2c-0.1-0.2-0.1-0.3-0.2-0.7c-0.1-0.4-0.3-1.1-0.4-1.5c0-0.1-0.1-0.2-0.1-0.2c0-0.1,0-0.1,0-0.2
					c0,0,0,0,0,0c-0.1,0,0,0.4,0,0.5c0,0.2,0.1,0.3,0.2,0.6c0.1,0.5,0.2,1.2,0.3,1.5C42.8,43.4,43,43.4,43,43.2z"/>
				<g>
					<g>
						<path class="st7" d="M42.9,43.2C42.9,43.2,42.9,43.2,42.9,43.2c0,0,0.5-0.3,1-0.2c0,0,0.1,0,0.1,0c0,0,0,0,0,0
							C43.4,42.8,42.9,43.1,42.9,43.2C42.8,43.1,42.8,43.2,42.9,43.2C42.8,43.2,42.9,43.2,42.9,43.2z"/>
					</g>
					<g>
						<path class="st7" d="M42.7,42.8C42.7,42.8,42.8,42.8,42.7,42.8c0,0,0.5-0.3,1.2-0.3c0,0,0.1,0,0.1,0c0,0,0,0,0,0
							C43.3,42.4,42.7,42.7,42.7,42.8C42.7,42.7,42.7,42.7,42.7,42.8C42.7,42.8,42.7,42.8,42.7,42.8z"/>
					</g>
					<g>
						<path class="st7" d="M43.8,42.1C43.9,42.1,43.9,42.1,43.8,42.1C43.9,42,43.9,42,43.8,42.1c-0.6-0.2-1.2,0.2-1.2,0.2
							c0,0,0,0,0,0.1c0,0,0,0,0.1,0C42.7,42.3,43.3,42,43.8,42.1C43.8,42.1,43.8,42.1,43.8,42.1z"/>
					</g>
					<g>
						<path class="st7" d="M43.8,41.7C43.8,41.7,43.8,41.7,43.8,41.7C43.8,41.6,43.8,41.6,43.8,41.7c-0.7-0.2-1.2,0.2-1.2,0.2
							c0,0,0,0,0,0.1c0,0,0,0,0.1,0C42.6,41.9,43.1,41.6,43.8,41.7C43.8,41.7,43.8,41.7,43.8,41.7z"/>
					</g>
					<g>
						<path class="st7" d="M43.7,41.2C43.7,41.2,43.7,41.2,43.7,41.2C43.8,41.2,43.7,41.1,43.7,41.2c-0.6-0.2-1.2,0.2-1.2,0.2
							c0,0,0,0,0,0.1c0,0,0,0,0.1,0C42.5,41.5,43.1,41.1,43.7,41.2C43.7,41.2,43.7,41.2,43.7,41.2z"/>
					</g>
				</g>
			</g>
			<g>
				<path id="XMLID_1342_" class="st25" d="M43,25.9c0.3,3.3,0.2,8.1,0.2,8.1c0,0.3,0.2,1,0.4,2.2c0.1,1.1,0,3.4,0,3.5
					c0,0-0.8,0.5-1.5,0.3c0,0-0.9-3.4-1.3-4.9c-0.4-1.5-0.9-3.8-0.9-3.8l-0.3,2.4c0,0,0.1,1,0.1,1.6c0,0.8-0.6,3.8-0.6,3.8
					s-0.9,0.5-1.6-0.1c0,0-0.5-4.5-0.5-5.4c-0.1-1.8-0.2-5.5,0-7.7L43,25.9z"/>
				<path id="XMLID_1341_" class="st7" d="M39.9,31.3l-0.4-2.4c0,0-0.9-0.1-1.3-0.5c0,0,0.3,0.5,1.1,0.7l0.4,2.1l-0.1,2.4L39.9,31.3
					z"/>
			</g>
			<path class="st29" d="M43.7,39.8c-0.2,0.3-0.9,0.5-1.6,0.3l-0.1-0.5c0.5,0.2,1.3,0,1.7-0.3V39.8z"/>
			<path class="st29" d="M39.2,39.2c-0.2,0.2-1.1,0.3-1.7,0l0-0.5c0.5,0.2,1.3,0.3,1.8,0L39.2,39.2z"/>
		</g>
		<g id="Top_00000034788684684597881340000009862584331209991560_">
			<path class="st30" d="M30.5,20.5c0.1,0,0.2-0.1,0.2,0c0.1,0,0.3,0.1,0.4,0.1c0.2,0,0.7,0.1,0.9,0.1c0,0,0.1-0.1,0.1-0.1
				c-0.1,0-0.2-0.1-0.3-0.2c-0.1-0.1-0.2-0.2-0.2-0.3c0,0,0-0.1,0-0.1c0,0,0.1,0,0.1,0c0,0,0.1,0,0.1,0c0.1,0,0.1,0,0.2,0.1
				c0.4,0.1,0.9,0.3,1.2,0.6c0,0,0.4,0.4,0.5,0.6c0.2,0.2,1.2,1.2,1.2,1.2s0.5-0.6,0.9-1c0.7-0.7,1-1,1.2-1.3c0.2-0.2,0.6-0.5,1-0.5
				l-0.3,2.7c0,0-1.3,1.2-1.7,1.5c-0.8,0.6-1,0.8-1.5,0.5c-0.4-0.3-0.7-0.6-1.2-1.4c-0.3-0.6-0.4-0.8-0.6-1
				c-0.1-0.2-0.4-0.2-0.5-0.2c-0.3,0-0.5,0-0.8-0.1c-0.2,0-0.3-0.1-0.5-0.2c-0.1,0-0.2-0.1-0.2-0.1c0-0.1,0-0.1-0.1-0.2
				c0-0.1-0.1-0.1-0.2-0.2c0-0.1,0-0.1-0.1-0.2c0-0.1-0.1-0.1-0.2-0.2c0,0-0.1,0-0.1-0.1C30.4,20.5,30.4,20.5,30.5,20.5z"/>
			<path class="st16" d="M35.1,22.5L35.1,22.5c0,0,0.1-0.2,0.1-0.2c0.3,0.3,0.4,0.8,0.3,1.2C35.5,23.4,35.4,22.9,35.1,22.5z"/>
			<path class="st16" d="M32.3,20.7c0.1,0.2,0.5,0.4,0.6,0.5c0,0-0.2,0-0.4-0.1C32.4,21,32.4,20.8,32.3,20.7z"/>
			<g>
				<g>
					<path class="st14" d="M38.8,19.6c-0.8,0-1.2,0.1-1.6,0.5c-0.4,0.4-1.5,1.6-1.5,1.6s-0.1-0.1-0.4,0.3c-0.3,0.4-0.3,0.5-0.3,0.5
						s0.4,0.1,0.7,0.5c0.3,0.4,0.4,0.9,0.4,0.9s0.1,0,0.4-0.3c0.3-0.2,2.2-2,2.2-2L38.8,19.6z"/>
					<path class="st23" d="M38.8,19.6c-0.8,0-1.2,0.1-1.6,0.5c-0.4,0.4-1.5,1.6-1.5,1.6s-0.1-0.1-0.4,0.3c-0.3,0.4-0.3,0.5-0.3,0.5
						s0.4,0.1,0.7,0.5c0.3,0.4,0.4,0.9,0.4,0.9s0.1,0,0.4-0.3c0.3-0.2,2.2-2,2.2-2L38.8,19.6z"/>
					<path class="st31" d="M36.8,22.8c0.1,0.2,0.1,0.3,0.1,0.5c0,0,0,0,0,0c0.1-0.3,0-0.6-0.2-0.9c-0.1-0.1-0.2-0.3-0.3-0.4
						c-0.1-0.1-0.1-0.1-0.2-0.2c-0.1,0-0.1-0.1-0.2-0.1c0,0,0,0,0,0c0.1,0.1,0.1,0.1,0.2,0.1c0.1,0,0.1,0.1,0.2,0.1
						c0.1,0.1,0.2,0.2,0.3,0.3C36.6,22.5,36.7,22.6,36.8,22.8z M35.7,22.1c0,0,0.1,0.1,0.2,0.1c0.1,0,0.1,0.1,0.2,0.1
						c0.1,0.1,0.2,0.2,0.3,0.3c0.1,0.1,0.2,0.2,0.2,0.4c0,0.1,0,0.1,0.1,0.2c0,0.1,0,0.2,0,0.2c0,0,0,0,0,0c0-0.1,0-0.2,0-0.2
						c0-0.1,0-0.1,0-0.2c0-0.1-0.1-0.2-0.2-0.4c-0.1-0.1-0.2-0.2-0.3-0.3c-0.1,0-0.1-0.1-0.2-0.1C35.8,22.2,35.8,22.1,35.7,22.1
						C35.7,22.1,35.7,22.1,35.7,22.1z"/>
				</g>
			</g>
			<path id="Chest_00000165914958519984199930000011379501144015791539_" class="st4" d="M41.1,19.3c0.3,0.1,1.3,0.5,1.7,0.7
				c0,0,0.4,0.9,0.2,3.1c0,0.3-0.1,1.3-0.2,2c-0.1,1,0,1.2,0,1.8c0,0-0.9,0.8-3.3,0.6c-1.9-0.1-2.4-0.9-2.4-0.9s0-2.5,0.1-3.9
				c0.1-1.8,0.6-2.8,1-3.1l1.2-0.2L41.1,19.3z"/>
			<g>
				<path class="st29" d="M41.3,19.4l0,0.1c0,0-0.4,1.1-0.5,3.2c0,2.1,0,5.5,0,5.5s1.2,0.3,2.4-0.2c0,0-0.1-1.6-0.1-2.4
					c0-0.8-0.1-2.1,0-3.3c0.1-1.2-0.3-2.3-0.3-2.3L41.3,19.4z"/>
				<path class="st29" d="M39.5,19.3l-1.2,0.3c0,0-0.7,0.4-1,2.1c-0.3,1.7-0.4,5.7-0.4,5.7c0.2,0.1,0.6,0.3,0.8,0.3
					c0,0,0.1-2,0.2-3.8C38,21.6,38.2,20.3,39.5,19.3L39.5,19.3z"/>
				<path class="st32" d="M41.6,23c-0.2,0.2-0.4,0.4-0.6,0.6C41.2,23.4,41.5,23.2,41.6,23L41.6,23c0-0.2-0.1-0.3-0.2-0.5
					c0,0-0.2-0.4-0.2-0.5c0.2-0.1,0.4-0.1,0.6-0.2l0,0l0,0c0-0.7,0-1.3,0-2c-0.1,0.6-0.1,1.3-0.1,1.9c-0.2,0.1-0.4,0.2-0.7,0.2l0,0
					C41.2,22.3,41.5,22.7,41.6,23z M37.4,22.3L37.4,22.3c0.1,0.3,0.3,0.6,0.4,0.8C37.7,22.9,37.6,22.6,37.4,22.3
					c0.2-0.2,0.4-0.5,0.6-0.7l0,0l0,0l-0.2-0.4c0-0.1,0.1-0.3,0.2-0.4c0.2-0.4,0.5-0.9,0.8-1.3c-0.5,0.5-0.9,1.1-1.1,1.7
					c0,0,0,0,0,0l0.2,0.3C37.7,21.8,37.5,22.1,37.4,22.3C37.4,22.3,37.4,22.3,37.4,22.3z"/>
			</g>
			<g>
				<path class="st16" d="M40,23.5c-0.3-0.2-0.5-0.3-0.7-0.3S38.6,23,38.4,23c-0.1,0-0.2,0.2,0,0.3c0.1,0.1,0.5,0.2,0.6,0.3
					c0.1,0.1,0.5,0.4,0.5,0.4L40,23.5z"/>
				<path class="st30" d="M43.8,20.7c-0.2-0.4-0.5-0.4-0.9-0.6c-1.1,0.6-0.3,2.8-0.3,2.8l0.5,1.8c0,0-1.6,0-1.8-0.2
					c-0.2-0.1-0.9-0.7-1.1-0.9c-0.3-0.2-0.4-0.2-0.5-0.2c-0.4,0.1-0.5,0.1-0.6,0.2C39,23.8,39,23.9,39,23.9c-0.1,0-0.3,0-0.3,0.2
					c0,0.1,0,0.2,0,0.2s0,0-0.1,0c-0.1,0.1,0.1,0.5,0.2,0.6c0.1,0.1,0.2,0.1,0.3,0c0.1,0,0.1-0.1,0.1-0.1l0.2,0
					c0.4,0.2,0.4,0.7,0.9,0.8c0.1,0,0.3,0,0.6,0.1c1,0.3,2.7,0.8,3.6,0.8c0.9,0,0.7-1,0.5-1.7C45,24.4,44.3,21.6,43.8,20.7z"/>
				<g>
					<path class="st16" d="M39,23.9l0.5-0.2L39,23.9C39,23.9,39,23.9,39,23.9z"/>
					<path class="st16" d="M38.7,24.3l0.6-0.1L38.7,24.3C38.7,24.3,38.7,24.3,38.7,24.3z"/>
					<path class="st16" d="M38.9,24.6C39,24.6,39,24.6,38.9,24.6c0.1,0,0.3,0,0.3,0s0,0,0.1,0.1c0,0,0.1,0.1,0.1,0.1l-0.2,0
						c0,0,0-0.1-0.2-0.1c0,0-0.1,0-0.1,0c0,0,0,0-0.1,0.1c0,0,0-0.1,0-0.1c0,0,0,0,0.1,0L38.9,24.6C39,24.7,39,24.6,38.9,24.6
						C38.9,24.6,38.9,24.6,38.9,24.6C38.9,24.6,38.9,24.6,38.9,24.6z"/>
				</g>
				<path class="st14" d="M42.9,20c0.7,0.3,1,0.5,1.2,1.1c0.3,0.8,0.7,2.4,0.8,2.8c0.3,0.4,0.1,1,0.1,1s-0.9-0.7-2-0.1
					c0,0-0.4-1.5-0.5-1.8C42.5,22.6,41.8,20.6,42.9,20z"/>
				<path class="st23" d="M42.9,20c0.7,0.3,1,0.5,1.2,1.1c0.3,0.8,0.7,2.4,0.8,2.8c0.3,0.4,0.1,1,0.1,1s-0.9-0.7-2-0.1
					c0,0-0.4-1.5-0.5-1.8C42.5,22.6,41.8,20.6,42.9,20z"/>
				<path class="st31" d="M43.2,24.2c0.1-0.1,0.2-0.2,0.3-0.2c0.1-0.1,0.3-0.1,0.4-0.1c0.2,0,0.3,0,0.5,0c0.2,0,0.3,0,0.5,0.1
					c0,0,0,0,0,0c-0.3-0.1-0.6-0.1-0.9-0.1C43.6,23.9,43.3,24,43.2,24.2C43.1,24.2,43.1,24.2,43.2,24.2z M43.2,24.5
					C43.2,24.5,43.2,24.5,43.2,24.5c0.1,0,0.2-0.1,0.3-0.1c0.1,0,0.2-0.1,0.3-0.1c0.2-0.1,0.4-0.1,0.6-0.1c0,0,0,0,0,0
					c-0.2,0-0.4,0-0.6,0C43.6,24.2,43.3,24.3,43.2,24.5z"/>
			</g>
			<g>
				<g id="Head_10_">
					<g>
						<g id="XMLID_00000085248465861689840050000017043741872047591092_">
							<g id="XMLID_00000087405943335192259860000008673747533227670921_">
								<path class="st8" d="M41.6,15.5c0,0,0.3,0,0.5,0.3c0.2,0.3,0.3,0.7,0.1,1.3c-0.2,0.6-0.6,1.2-0.7,1.3
									c-0.1,0.2-0.3,0.2-0.3,0.2l0-0.7l0-0.5c0,0-0.4-0.4-0.4-0.7c0-0.5,0.1-0.7,0.1-0.7L41.6,15.5z"/>
								<path class="st8" d="M39.1,16.4c0.2-0.1,0.4-0.1,0.7-0.1c0.2,0,0.4,0,0.6,0c0.2,0,0.4,0,0.6,0c0,0,0.7-0.1,0.7-0.6
									c0-0.2-0.1-0.4-0.1-0.4c-0.1-0.1-0.2-0.3-0.4-0.3c-0.3-0.2-0.6-0.3-0.9-0.3c-0.3,0-0.5,0-0.8,0.1c-0.2,0-0.4,0.1-0.5,0
									c-0.1,0-0.3-0.1-0.3-0.2c-0.1,0.2-0.2,0.4-0.1,0.6c-0.2,0-0.3,0.1-0.4,0.3c-0.1,0.2,0,0.3,0.1,0.5c0,0-0.1,0.1-0.1,0.1
									c0,0.1-0.1,0.2,0,0.3c0,0.1,0.1,0.2,0.3,0.3C38.7,16.5,38.9,16.5,39.1,16.4z"/>
								<path class="st30" d="M41.9,18.1c-0.4,0.2-0.5-0.1-0.5-0.1l-0.1,1.5c-0.7,1-2.6,0.6-1.8-0.1l0-0.3c0,0-0.1,0-0.3,0
									c-0.3-0.1-0.6-0.3-0.7-0.7c-0.1-0.5-0.1-1.3,0.1-2.2c0-0.2,0.1-0.4,0.3-0.4c0.4-0.2,0.8,0.1,1.3,0.3C40.3,16,40.9,16,41,16
									c-0.2,0.2-0.2,0.9,0.1,1.2c0,0.1,0.1,0.2,0.1,0.2c0.1,0.1,0.2-0.2,0.3-0.3c0.1-0.1,0.5-0.2,0.6,0.1
									C42.4,17.5,42.3,17.9,41.9,18.1z"/>
								<path class="st16" d="M39.5,19c0.4,0,0.8-0.1,1.1-0.2c0.3-0.1,0.5-0.5,0.6-0.8c0,0.3-0.1,0.8-0.5,1
									c-0.4,0.2-0.8,0.2-1.1,0.2L39.5,19z"/>
							</g>
							<g id="XMLID_00000070801411784526524540000015981197808822910134_">
								<path id="XMLID_00000121971027520775627480000010786235670667904142_" class="st8" d="M40.1,16.5l0.4,0.2
									c0-0.1,0-0.2-0.1-0.3C40.3,16.3,40.1,16.4,40.1,16.5z"/>
								<path id="XMLID_00000104688387705052059660000011929903492449691776_" class="st8" d="M38.7,16.4l0.4-0.1
									c0-0.1-0.2-0.2-0.3-0.1C38.7,16.2,38.7,16.3,38.7,16.4z"/>
								<path class="st7" d="M40.3,16.9c0,0.1-0.1,0.2-0.2,0.2c-0.1,0-0.2-0.1-0.2-0.2c0-0.1,0.1-0.2,0.2-0.2
									C40.3,16.8,40.3,16.8,40.3,16.9z"/>
								<path class="st7" d="M39,16.9c0,0.1-0.1,0.2-0.2,0.2c-0.1,0-0.2-0.1-0.2-0.2c0-0.1,0.1-0.2,0.2-0.2C39,16.7,39,16.8,39,16.9
									z"/>
								<path id="XMLID_00000066501766877180595940000010902434356373503388_" class="st16" d="M39.6,16.6l-0.1,1l-0.5-0.2
									C39.1,17,39.4,16.8,39.6,16.6z"/>
							</g>
						</g>
					</g>
					<path id="XMLID_1316_" class="st15" d="M40,17.8L39.3,18c0.1,0.2,0.2,0.3,0.4,0.2C39.9,18.2,40,18,40,17.8z"/>
					<path class="st16" d="M39.9,17.9C39.9,17.9,40,17.9,39.9,17.9c0.1,0.1,0,0.3-0.2,0.3c0,0-0.1,0-0.1,0
						C39.6,18.1,39.7,17.9,39.9,17.9z"/>
				</g>
			</g>
			<path class="st25" d="M41.6,19.5c-1.4,1-4,3-5.4,7.3l0.7,0.3c1-3.9,4-6.3,5.4-7.4L41.6,19.5z"/>
		</g>
	</g>
</g>
</svg>
