<?xml version="1.0" encoding="utf-8"?>
<!-- Generator: Adobe Illustrator 27.4.0, SVG Export Plug-In . SVG Version: 6.00 Build 0)  -->
<svg version="1.1" id="Layer_1" xmlns="http://www.w3.org/2000/svg" xmlns:xlink="http://www.w3.org/1999/xlink" x="0px" y="0px"
	 viewBox="0 0 50 50" style="enable-background:new 0 0 50 50;" xml:space="preserve">
<style type="text/css">
	.st0{fill:#00953B;}
	
		.st1{fill-rule:evenodd;clip-rule:evenodd;fill:none;stroke:#000000;stroke-width:0.2;stroke-linecap:round;stroke-linejoin:round;stroke-miterlimit:10;}
	.st2{fill:none;stroke:#000000;stroke-width:0.2;stroke-linecap:round;stroke-linejoin:round;stroke-miterlimit:10;}
	.st3{fill:none;stroke:#00953B;stroke-width:0.2;stroke-linecap:round;stroke-linejoin:round;stroke-miterlimit:10;}
	.st4{fill:#141515;}
	.st5{fill-rule:evenodd;clip-rule:evenodd;fill:#00953B;}
</style>
<g>
	<g>
		<g>
			<path d="M9.8,26.2L9.8,26.2C9.7,26.2,9.7,26.2,9.8,26.2L10.1,11c0,0,0-0.1,0.1-0.1c0,0,0.1,0,0.1,0.1L9.8,26.2
				C9.8,26.2,9.8,26.2,9.8,26.2z"/>
		</g>
		<g>
			<path d="M12.5,11.7C12.5,11.7,12.5,11.7,12.5,11.7c-4.4-1.3-4.4-1.5-4.3-1.6c0.1-0.2,3.1-6.3,3.2-6.6c0,0,0.1,0,0.1,0l4.3,1.8
				c0,0,0,0,0,0c0,0,0,0,0,0.1L12.5,11.7C12.6,11.7,12.5,11.7,12.5,11.7z M8.3,10.2c0.2,0.2,2.6,1,4.2,1.4l3.1-6.1l-4.1-1.7
				C10.6,5.5,8.4,9.8,8.3,10.2z"/>
		</g>
		<g>
			<path d="M12.7,11.1C12.7,11.1,12.7,11.1,12.7,11.1L8.8,9.7c0,0-0.1-0.1,0-0.1c0,0,0.1-0.1,0.1,0l3.8,1.3
				C12.8,10.9,12.8,11,12.7,11.1C12.7,11.1,12.7,11.1,12.7,11.1z"/>
		</g>
		<g>
			<path d="M11.7,5.1c-0.2,0-0.4-0.2-0.4-0.4c0-0.2,0.2-0.4,0.4-0.4c0.2,0,0.4,0.2,0.4,0.4C12.1,5,11.9,5.1,11.7,5.1z"/>
		</g>
		<g>
			<path d="M12.7,5.6c-0.2,0-0.4-0.2-0.4-0.4c0-0.2,0.2-0.4,0.4-0.4c0.2,0,0.4,0.2,0.4,0.4C13.1,5.4,13,5.6,12.7,5.6z"/>
		</g>
		<g>
			<path d="M13.8,5.9c-0.2,0-0.4-0.2-0.4-0.4c0-0.2,0.2-0.4,0.4-0.4c0.2,0,0.4,0.2,0.4,0.4C14.2,5.8,14,5.9,13.8,5.9z"/>
		</g>
		<g>
			<path d="M14.6,6.4c-0.2,0-0.4-0.2-0.4-0.4c0-0.2,0.2-0.4,0.4-0.4C14.8,5.6,15,5.7,15,6C15,6.2,14.8,6.4,14.6,6.4z"/>
		</g>
		<g>
			<path d="M11.1,6.2c-0.2,0-0.4-0.2-0.4-0.4c0-0.2,0.2-0.4,0.4-0.4c0.2,0,0.4,0.2,0.4,0.4C11.5,6,11.3,6.2,11.1,6.2z"/>
		</g>
		<g>
			<path d="M12.1,6.7c-0.2,0-0.4-0.2-0.4-0.4c0-0.2,0.2-0.4,0.4-0.4c0.2,0,0.4,0.2,0.4,0.4C12.5,6.5,12.3,6.7,12.1,6.7z"/>
		</g>
		<g>
			<path d="M13.2,7c-0.2,0-0.4-0.2-0.4-0.4c0-0.2,0.2-0.4,0.4-0.4c0.2,0,0.4,0.2,0.4,0.4C13.6,6.8,13.4,7,13.2,7z"/>
		</g>
		<g>
			<path d="M14,7.4c-0.2,0-0.4-0.2-0.4-0.4c0-0.2,0.2-0.4,0.4-0.4c0.2,0,0.4,0.2,0.4,0.4C14.4,7.2,14.2,7.4,14,7.4z"/>
		</g>
		<g>
			<path d="M10.6,7.2c-0.2,0-0.4-0.2-0.4-0.4c0-0.2,0.2-0.4,0.4-0.4c0.2,0,0.4,0.2,0.4,0.4C11,7,10.8,7.2,10.6,7.2z"/>
		</g>
		<g>
			<path d="M11.6,7.7c-0.2,0-0.4-0.2-0.4-0.4c0-0.2,0.2-0.4,0.4-0.4S12,7,12,7.3C12,7.5,11.8,7.7,11.6,7.7z"/>
		</g>
		<g>
			<path d="M12.7,8c-0.2,0-0.4-0.2-0.4-0.4c0-0.2,0.2-0.4,0.4-0.4c0.2,0,0.4,0.2,0.4,0.4C13,7.8,12.9,8,12.7,8z"/>
		</g>
		<g>
			<path d="M13.5,8.4c-0.2,0-0.4-0.2-0.4-0.4c0-0.2,0.2-0.4,0.4-0.4c0.2,0,0.4,0.2,0.4,0.4C13.9,8.2,13.7,8.4,13.5,8.4z"/>
		</g>
		<g>
			<path d="M10.3,8.2C10.1,8.2,10,8,10,7.8c0-0.2,0.2-0.4,0.4-0.4c0.2,0,0.4,0.2,0.4,0.4C10.7,8,10.5,8.2,10.3,8.2z"/>
		</g>
		<g>
			<path d="M11.3,8.7c-0.2,0-0.4-0.2-0.4-0.4c0-0.2,0.2-0.4,0.4-0.4c0.2,0,0.4,0.2,0.4,0.4C11.7,8.5,11.5,8.7,11.3,8.7z"/>
		</g>
		<g>
			<path d="M12.4,9C12.2,9,12,8.8,12,8.6c0-0.2,0.2-0.4,0.4-0.4c0.2,0,0.4,0.2,0.4,0.4C12.7,8.8,12.6,9,12.4,9z"/>
		</g>
		<g>
			<path d="M13.2,9.4c-0.2,0-0.4-0.2-0.4-0.4c0-0.2,0.2-0.4,0.4-0.4c0.2,0,0.4,0.2,0.4,0.4C13.5,9.2,13.4,9.4,13.2,9.4z"/>
		</g>
		<g>
			<path d="M9.8,9.2C9.6,9.2,9.4,9,9.4,8.8c0-0.2,0.2-0.4,0.4-0.4s0.4,0.2,0.4,0.4C10.1,9,9.9,9.2,9.8,9.2z"/>
		</g>
		<g>
			<path d="M10.8,9.7c-0.2,0-0.4-0.2-0.4-0.4c0-0.2,0.2-0.4,0.4-0.4c0.2,0,0.4,0.2,0.4,0.4C11.1,9.5,11,9.7,10.8,9.7z"/>
		</g>
		<g>
			<path d="M11.8,10c-0.2,0-0.4-0.2-0.4-0.4c0-0.2,0.2-0.4,0.4-0.4c0.2,0,0.4,0.2,0.4,0.4C12.2,9.8,12,10,11.8,10z"/>
		</g>
		<g>
			<path d="M12.6,10.4c-0.2,0-0.4-0.2-0.4-0.4c0-0.2,0.2-0.4,0.4-0.4c0.2,0,0.4,0.2,0.4,0.4C13,10.2,12.8,10.4,12.6,10.4z"/>
		</g>
		<path class="st0" d="M11.7,4.5c-0.1,0-0.2,0.1-0.2,0.3c0,0.1,0.1,0.3,0.2,0.3C11.9,5,12,4.9,12,4.7C12,4.6,11.9,4.5,11.7,4.5z"/>
		<path class="st0" d="M12.7,5c-0.1,0-0.2,0.1-0.2,0.3c0,0.1,0.1,0.3,0.2,0.3c0.1,0,0.2-0.1,0.2-0.3C13,5.1,12.9,5,12.7,5z"/>
		<path class="st0" d="M13.8,5.3c-0.1,0-0.2,0.1-0.2,0.3c0,0.1,0.1,0.3,0.2,0.3c0.1,0,0.2-0.1,0.2-0.3C14,5.4,13.9,5.3,13.8,5.3z"/>
		<path class="st0" d="M14.6,5.7c-0.1,0-0.2,0.1-0.2,0.3c0,0.1,0.1,0.3,0.2,0.3c0.1,0,0.2-0.1,0.2-0.3C14.8,5.8,14.7,5.7,14.6,5.7z"
			/>
		<path class="st0" d="M11.1,5.6c-0.1,0-0.2,0.1-0.2,0.3c0,0.1,0.1,0.3,0.2,0.3c0.1,0,0.2-0.1,0.2-0.3C11.4,5.7,11.3,5.6,11.1,5.6z"
			/>
		<path class="st0" d="M12.1,6c-0.1,0-0.2,0.1-0.2,0.3c0,0.1,0.1,0.3,0.2,0.3c0.1,0,0.2-0.1,0.2-0.3C12.4,6.1,12.3,6,12.1,6z"/>
		<path class="st0" d="M13.2,6.4c-0.1,0-0.2,0.1-0.2,0.3c0,0.1,0.1,0.3,0.2,0.3c0.1,0,0.2-0.1,0.2-0.3C13.4,6.5,13.3,6.4,13.2,6.4z"
			/>
		<path class="st0" d="M14,6.8c-0.1,0-0.2,0.1-0.2,0.3c0,0.1,0.1,0.3,0.2,0.3c0.1,0,0.2-0.1,0.2-0.3C14.2,6.9,14.1,6.8,14,6.8z"/>
		<path class="st0" d="M10.6,6.5c-0.1,0-0.2,0.1-0.2,0.3c0,0.1,0.1,0.3,0.2,0.3c0.1,0,0.2-0.1,0.2-0.3C10.8,6.6,10.7,6.5,10.6,6.5z"
			/>
		<path class="st0" d="M11.6,7c-0.1,0-0.2,0.1-0.2,0.3c0,0.1,0.1,0.3,0.2,0.3c0.1,0,0.2-0.1,0.2-0.3C11.9,7.1,11.8,7,11.6,7z"/>
		<path class="st0" d="M12.7,7.3c-0.1,0-0.2,0.1-0.2,0.3c0,0.1,0.1,0.3,0.2,0.3c0.1,0,0.2-0.1,0.2-0.3C12.9,7.4,12.8,7.3,12.7,7.3z"
			/>
		<path class="st0" d="M13.5,7.7c-0.1,0-0.2,0.1-0.2,0.3c0,0.1,0.1,0.3,0.2,0.3c0.1,0,0.2-0.1,0.2-0.3C13.7,7.9,13.6,7.7,13.5,7.7z"
			/>
		<path class="st0" d="M10.3,7.5c-0.1,0-0.2,0.1-0.2,0.3s0.1,0.3,0.2,0.3c0.1,0,0.2-0.1,0.2-0.3C10.5,7.7,10.4,7.5,10.3,7.5z"/>
		<path class="st0" d="M11.3,8c-0.1,0-0.2,0.1-0.2,0.3c0,0.1,0.1,0.3,0.2,0.3c0.1,0,0.2-0.1,0.2-0.3C11.5,8.1,11.4,8,11.3,8z"/>
		<path class="st0" d="M12.4,8.3c-0.1,0-0.2,0.1-0.2,0.3c0,0.1,0.1,0.3,0.2,0.3c0.1,0,0.2-0.1,0.2-0.3C12.6,8.5,12.5,8.3,12.4,8.3z"
			/>
		<path class="st0" d="M13.2,8.8C13.1,8.8,13,8.9,13,9s0.1,0.3,0.2,0.3c0.1,0,0.2-0.1,0.2-0.3C13.4,8.9,13.3,8.8,13.2,8.8z"/>
		<path class="st0" d="M9.8,8.5c-0.1,0-0.2,0.1-0.2,0.3c0,0.1,0.1,0.3,0.2,0.3c0.1,0,0.2-0.1,0.2-0.3C10,8.6,9.9,8.5,9.8,8.5z"/>
		<path class="st0" d="M10.8,9c-0.1,0-0.2,0.1-0.2,0.3c0,0.1,0.1,0.3,0.2,0.3c0.1,0,0.2-0.1,0.2-0.3C11,9.1,10.9,9,10.8,9z"/>
		<path class="st0" d="M11.8,9.3c-0.1,0-0.2,0.1-0.2,0.3c0,0.1,0.1,0.3,0.2,0.3c0.1,0,0.2-0.1,0.2-0.3C12,9.5,11.9,9.3,11.8,9.3z"/>
		<path class="st0" d="M12.6,9.7c-0.1,0-0.2,0.1-0.2,0.3c0,0.1,0.1,0.3,0.2,0.3c0.1,0,0.2-0.1,0.2-0.3C12.8,9.9,12.8,9.7,12.6,9.7z"
			/>
	</g>
	<g>
		<g>
			<path d="M42.3,26.2L42.3,26.2C42.3,26.2,42.4,26.1,42.3,26.2L42,12.9c0,0,0-0.1-0.1-0.1c0,0-0.1,0-0.1,0.1L42.3,26.2
				C42.2,26.1,42.3,26.2,42.3,26.2z"/>
		</g>
		<g>
			<path d="M39.9,13.5l-2.8-5.4c0,0,0,0,0,0c0,0,0,0,0,0l3.7-1.6c0,0,0.1,0,0.1,0c0.1,0.2,2.7,5.5,2.8,5.7
				C43.7,12.3,43.8,12.5,39.9,13.5C39.9,13.6,39.9,13.6,39.9,13.5C39.9,13.6,39.9,13.6,39.9,13.5z M40.8,6.6l-3.6,1.5l2.7,5.3
				c1.3-0.4,3.4-1,3.6-1.2C43.4,11.9,41.6,8.1,40.8,6.6z"/>
		</g>
		<g>
			<path d="M39.8,13C39.8,13,39.8,13,39.8,13l3.3-1.2c0,0,0.1,0,0-0.1c0,0,0,0-0.1,0l-3.3,1.2C39.7,12.9,39.7,12.9,39.8,13
				C39.7,13,39.7,13,39.8,13z"/>
		</g>
		<g>
			<path d="M40.3,7.5c0-0.2,0.1-0.3,0.3-0.3c0.2,0,0.3,0.2,0.3,0.3c0,0.2-0.1,0.4-0.3,0.4C40.4,7.9,40.3,7.7,40.3,7.5z"/>
		</g>
		<g>
			<path d="M39.4,7.9c0-0.2,0.1-0.3,0.3-0.3c0.2,0,0.3,0.2,0.3,0.3c0,0.2-0.1,0.3-0.3,0.3C39.5,8.3,39.4,8.1,39.4,7.9z"/>
		</g>
		<g>
			<path d="M38.5,8.2c0-0.2,0.1-0.4,0.3-0.4c0.2,0,0.3,0.2,0.3,0.4c0,0.2-0.1,0.3-0.3,0.3C38.6,8.5,38.5,8.4,38.5,8.2z"/>
		</g>
		<g>
			<path d="M37.8,8.6c0-0.2,0.1-0.3,0.3-0.3c0.2,0,0.3,0.1,0.3,0.3c0,0.2-0.1,0.4-0.3,0.4C37.9,8.9,37.8,8.7,37.8,8.6z"/>
		</g>
		<g>
			<path d="M40.8,8.4c0-0.2,0.1-0.3,0.3-0.3c0.2,0,0.3,0.2,0.3,0.3c0,0.2-0.1,0.4-0.3,0.4C40.9,8.8,40.8,8.6,40.8,8.4z"/>
		</g>
		<g>
			<path d="M39.9,8.8c0-0.2,0.1-0.4,0.3-0.4c0.2,0,0.3,0.2,0.3,0.4c0,0.2-0.1,0.3-0.3,0.3C40.1,9.2,39.9,9,39.9,8.8z"/>
		</g>
		<g>
			<path d="M39,9.1c0-0.2,0.1-0.3,0.3-0.3c0.2,0,0.3,0.2,0.3,0.3c0,0.2-0.1,0.3-0.3,0.3C39.1,9.5,39,9.3,39,9.1z"/>
		</g>
		<g>
			<path d="M38.3,9.5c0-0.2,0.1-0.3,0.3-0.3c0.2,0,0.3,0.2,0.3,0.3c0,0.2-0.1,0.4-0.3,0.4C38.4,9.8,38.3,9.7,38.3,9.5z"/>
		</g>
		<g>
			<path d="M41.2,9.3c0-0.2,0.1-0.4,0.3-0.4c0.2,0,0.3,0.2,0.3,0.4c0,0.2-0.1,0.3-0.3,0.3C41.4,9.6,41.2,9.5,41.2,9.3z"/>
		</g>
		<g>
			<path d="M40.4,9.7c0-0.2,0.1-0.3,0.3-0.3S41,9.5,41,9.7c0,0.2-0.1,0.3-0.3,0.3S40.4,9.9,40.4,9.7z"/>
		</g>
		<g>
			<path d="M39.5,10c0-0.2,0.1-0.3,0.3-0.3c0.2,0,0.3,0.2,0.3,0.3c0,0.2-0.1,0.4-0.3,0.4C39.6,10.3,39.5,10.2,39.5,10z"/>
		</g>
		<g>
			<path d="M38.7,10.3c0-0.2,0.1-0.4,0.3-0.4c0.2,0,0.3,0.2,0.3,0.4c0,0.2-0.1,0.3-0.3,0.3C38.9,10.7,38.7,10.5,38.7,10.3z"/>
		</g>
		<g>
			<path d="M41.5,10.2c0-0.2,0.1-0.3,0.3-0.3c0.2,0,0.3,0.2,0.3,0.3c0,0.2-0.1,0.3-0.3,0.3C41.7,10.5,41.5,10.3,41.5,10.2z"/>
		</g>
		<g>
			<path d="M40.6,10.6c0-0.2,0.1-0.3,0.3-0.3c0.2,0,0.3,0.2,0.3,0.3c0,0.2-0.1,0.4-0.3,0.4C40.8,10.9,40.6,10.8,40.6,10.6z"/>
		</g>
		<g>
			<path d="M39.7,10.9c0-0.2,0.1-0.4,0.3-0.4c0.2,0,0.3,0.2,0.3,0.4c0,0.2-0.1,0.3-0.3,0.3C39.9,11.2,39.7,11.1,39.7,10.9z"/>
		</g>
		<g>
			<path d="M39,11.2c0-0.2,0.1-0.3,0.3-0.3c0.2,0,0.3,0.2,0.3,0.3c0,0.2-0.1,0.3-0.3,0.3C39.2,11.6,39,11.4,39,11.2z"/>
		</g>
		<g>
			<path d="M42,11c0-0.2,0.1-0.3,0.3-0.3s0.3,0.2,0.3,0.3c0,0.2-0.1,0.4-0.3,0.4C42.1,11.4,42,11.2,42,11z"/>
		</g>
		<g>
			<path d="M41.1,11.4c0-0.2,0.1-0.4,0.3-0.4c0.2,0,0.3,0.2,0.3,0.4c0,0.2-0.1,0.3-0.3,0.3C41.3,11.8,41.1,11.6,41.1,11.4z"/>
		</g>
		<g>
			<path d="M40.2,11.7c0-0.2,0.1-0.3,0.3-0.3c0.2,0,0.3,0.2,0.3,0.3c0,0.2-0.1,0.3-0.3,0.3C40.3,12.1,40.2,11.9,40.2,11.7z"/>
		</g>
		<g>
			<path d="M39.5,12.1c0-0.2,0.1-0.3,0.3-0.3c0.2,0,0.3,0.2,0.3,0.3c0,0.2-0.1,0.4-0.3,0.4C39.6,12.4,39.5,12.3,39.5,12.1z"/>
		</g>
		<path class="st0" d="M40.4,7.5c0,0.1,0.1,0.2,0.2,0.2c0.1,0,0.2-0.1,0.2-0.2c0-0.1-0.1-0.2-0.2-0.2C40.5,7.3,40.4,7.4,40.4,7.5z"
			/>
		<path class="st0" d="M39.5,7.9c0,0.1,0.1,0.2,0.2,0.2c0.1,0,0.2-0.1,0.2-0.2c0-0.1-0.1-0.2-0.2-0.2C39.6,7.7,39.5,7.8,39.5,7.9z"
			/>
		<path class="st0" d="M38.6,8.2c0,0.1,0.1,0.2,0.2,0.2c0.1,0,0.2-0.1,0.2-0.2C39,8.1,38.9,8,38.8,8C38.7,8,38.6,8.1,38.6,8.2z"/>
		<path class="st0" d="M37.9,8.6c0,0.1,0.1,0.2,0.2,0.2c0.1,0,0.2-0.1,0.2-0.2c0-0.1-0.1-0.2-0.2-0.2C38,8.3,37.9,8.4,37.9,8.6z"/>
		<path class="st0" d="M40.9,8.4c0,0.1,0.1,0.2,0.2,0.2c0.1,0,0.2-0.1,0.2-0.2c0-0.1-0.1-0.2-0.2-0.2C41,8.2,40.9,8.3,40.9,8.4z"/>
		<path class="st0" d="M40,8.8c0,0.1,0.1,0.2,0.2,0.2c0.1,0,0.2-0.1,0.2-0.2c0-0.1-0.1-0.2-0.2-0.2C40.1,8.6,40,8.7,40,8.8z"/>
		<path class="st0" d="M39.1,9.1c0,0.1,0.1,0.2,0.2,0.2c0.1,0,0.2-0.1,0.2-0.2s-0.1-0.2-0.2-0.2C39.2,8.9,39.1,9,39.1,9.1z"/>
		<path class="st0" d="M38.4,9.5c0,0.1,0.1,0.2,0.2,0.2c0.1,0,0.2-0.1,0.2-0.2c0-0.1-0.1-0.2-0.2-0.2C38.5,9.3,38.4,9.4,38.4,9.5z"
			/>
		<path class="st0" d="M41.4,9.3c0,0.1,0.1,0.2,0.2,0.2c0.1,0,0.2-0.1,0.2-0.2c0-0.1-0.1-0.2-0.2-0.2C41.5,9,41.4,9.2,41.4,9.3z"/>
		<path class="st0" d="M40.5,9.7c0,0.1,0.1,0.2,0.2,0.2c0.1,0,0.2-0.1,0.2-0.2c0-0.1-0.1-0.2-0.2-0.2C40.6,9.5,40.5,9.6,40.5,9.7z"
			/>
		<path class="st0" d="M39.6,10c0,0.1,0.1,0.2,0.2,0.2c0.1,0,0.2-0.1,0.2-0.2c0-0.1-0.1-0.2-0.2-0.2C39.7,9.8,39.6,9.9,39.6,10z"/>
		<path class="st0" d="M38.9,10.3c0,0.1,0.1,0.2,0.2,0.2c0.1,0,0.2-0.1,0.2-0.2c0-0.1-0.1-0.2-0.2-0.2C39,10.1,38.9,10.2,38.9,10.3z
			"/>
		<path class="st0" d="M41.6,10.2c0,0.1,0.1,0.2,0.2,0.2c0.1,0,0.2-0.1,0.2-0.2s-0.1-0.2-0.2-0.2C41.7,9.9,41.6,10,41.6,10.2z"/>
		<path class="st0" d="M40.8,10.6c0,0.1,0.1,0.2,0.2,0.2c0.1,0,0.2-0.1,0.2-0.2c0-0.1-0.1-0.2-0.2-0.2
			C40.8,10.3,40.8,10.4,40.8,10.6z"/>
		<path class="st0" d="M39.8,10.9c0,0.1,0.1,0.2,0.2,0.2c0.1,0,0.2-0.1,0.2-0.2c0-0.1-0.1-0.2-0.2-0.2
			C39.9,10.6,39.8,10.7,39.8,10.9z"/>
		<path class="st0" d="M39.1,11.2c0,0.1,0.1,0.2,0.2,0.2c0.1,0,0.2-0.1,0.2-0.2S39.4,11,39.3,11C39.2,11,39.1,11.1,39.1,11.2z"/>
		<path class="st0" d="M42.1,11c0,0.1,0.1,0.2,0.2,0.2c0.1,0,0.2-0.1,0.2-0.2c0-0.1-0.1-0.2-0.2-0.2C42.2,10.8,42.1,10.9,42.1,11z"
			/>
		<path class="st0" d="M41.2,11.4c0,0.1,0.1,0.2,0.2,0.2c0.1,0,0.2-0.1,0.2-0.2c0-0.1-0.1-0.2-0.2-0.2
			C41.3,11.2,41.2,11.3,41.2,11.4z"/>
		<path class="st0" d="M40.3,11.7c0,0.1,0.1,0.2,0.2,0.2c0.1,0,0.2-0.1,0.2-0.2c0-0.1-0.1-0.2-0.2-0.2
			C40.4,11.5,40.3,11.6,40.3,11.7z"/>
		<path class="st0" d="M39.6,12.1c0,0.1,0.1,0.2,0.2,0.2c0.1,0,0.2-0.1,0.2-0.2c0-0.1-0.1-0.2-0.2-0.2C39.7,11.9,39.6,12,39.6,12.1z
			"/>
	</g>
	<path class="st1" d="M30.7,27.9c4.5-0.3,9.3-1,14.3-2.4"/>
	<path class="st1" d="M4.4,24.6c0,0,7.7,2.9,19.1,3.3"/>
	<path class="st1" d="M30.4,29.8c3.4-0.1,6.8-0.4,10.1-1.1"/>
	<path class="st1" d="M8.2,28c0.1,0,6.5,1.3,14.7,1.7"/>
	<path class="st2" d="M29.5,33.2c4.8-0.2,10.2-0.6,16.3-1.5"/>
	<path class="st2" d="M16.8,33c1.7,0.1,3.5,0.2,5.5,0.3"/>
	<path class="st2" d="M6.1,31.2c0,0,2.5,0.8,7.4,1.4"/>
	<path class="st2" d="M29.2,34.2c4.2,0,8.7-0.2,13.3-0.8"/>
	<path class="st2" d="M16.8,33.6c1.7,0.2,3.6,0.3,5.6,0.4"/>
	<path class="st2" d="M4.2,31.7c0,0,3.5,0.9,9.2,1.6"/>
	<line class="st2" x1="16.7" y1="43.4" x2="42.9" y2="43.6"/>
	<line class="st2" x1="9.2" y1="43.4" x2="13.4" y2="43.4"/>
	<g>
		<g>
			<path class="st4" d="M14.8,32.3C14.8,32.3,14.7,32.2,14.8,32.3l-0.1-0.3l-0.9,0v0.3c0,0,0,0.1-0.1,0.1c0,0-0.1,0-0.1-0.1v-0.3
				c0,0,0,0,0-0.1c0,0,0,0,0,0l1,0c0,0,0.1,0,0.1,0.1L14.8,32.3C14.9,32.2,14.8,32.3,14.8,32.3z"/>
		</g>
		<g>
			<path class="st4" d="M16.3,32.2C16.3,32.2,16.3,32.1,16.3,32.2l-0.1-0.3l-0.9,0v0.3c0,0,0,0.1-0.1,0.1c0,0-0.1,0-0.1-0.1v-0.3
				c0,0,0,0,0-0.1c0,0,0,0,0,0l1,0c0,0,0.1,0,0.1,0.1L16.3,32.2C16.4,32.1,16.4,32.2,16.3,32.2z"/>
		</g>
		<g>
			<g>
				<path class="st5" d="M23.9,15.6c0,0,1.2,1.7,2.5,2.6c1.3,0.9,3.2,1,4.2,1.3c1,0.3,0.8,0.9,0.1,1c-0.8,0.1-3-0.6-4.7-1.6
					c-1.7-1.1-2.3-3.1-2.3-3.1L23.9,15.6z"/>
			</g>
			<g>
				<path class="st5" d="M29.8,13.5C29.8,13.5,29.8,13.4,29.8,13.5c0.1-0.3,0.5-1.1,1.4-1.3c1-0.3,2.2,0.7,2.3,0.9
					C33.6,13.3,31.5,12.6,29.8,13.5L29.8,13.5z"/>
			</g>
			<g>
				<path class="st5" d="M29.6,3.8c0.1,0,0.1,0,0.1,0.1c0,0.1-5.3,7.9-5.3,7.9l-0.2-0.1L29.6,3.8z"/>
			</g>
			<g>
				<path class="st5" d="M22.4,17.8c0,0,0.7,2.3,1.6,2.5c0.9,0.2,0.8,0.3,0.3,0.5c-0.5,0.1-1.2,0-1.7-1
					C22.2,18.8,22.4,17.8,22.4,17.8L22.4,17.8z"/>
			</g>
			<g>
				<path class="st5" d="M27.3,20.1c0,0,2,2.9,2.3,4C29.9,25.1,26.2,22.1,27.3,20.1L27.3,20.1z"/>
			</g>
			<g>
				<path class="st5" d="M22.7,32.1c0,0,0-2.3,0.9-4.4c0.9-2,1.4-1.9,1.4-1.9s0.5,0.7-0.1,2.7c-0.6,2,0.5,4.4,0.5,4.4
					S23.5,31,22.7,32.1L22.7,32.1z"/>
			</g>
			<g>
				<path class="st5" d="M24.7,44c0,0-0.2-2.5-0.9-4.3c-0.7-1.8-1-3-1.1-4.3c-0.1-1.3-0.3-1.8,0-2.2c0.3-0.4,0.7-0.8,0.8-0.3
					c0.1,0.5,0.1,3.7,0.5,5.3C24.3,39.9,25.3,44,24.7,44L24.7,44z"/>
			</g>
			<g>
				<path d="M24.6,12.7C24.6,12.7,24.6,12.7,24.6,12.7L24,12.2c0,0,0-0.1,0-0.1c0,0,0.1,0,0.1,0l0.6,0.4c0.3-0.4,2.7-3.3,3.7-4.7
					c1-1.3,1.6-3.6,1.7-4l-0.4-0.2l-5.5,8.2l0.3,0.2c0,0,0,0.1,0,0.1c0,0-0.1,0-0.1,0L24,12c0,0,0,0,0,0c0,0,0,0,0-0.1l5.6-8.3
					c0,0,0.1,0,0.1,0l0.5,0.2c0,0,0,0,0,0.1c0,0-0.7,2.7-1.7,4.1C27.4,9.4,24.7,12.7,24.6,12.7C24.6,12.7,24.6,12.7,24.6,12.7z"/>
			</g>
			<g>
				<path d="M24.4,12.2C24.4,12.2,24.4,12.2,24.4,12.2c-0.1,0-0.1-0.1,0-0.1c0,0,1.2-1.3,3.1-4c1.9-2.7,2.4-4.2,2.4-4.2
					c0,0,0-0.1,0.1,0c0,0,0.1,0,0,0.1c0,0-0.5,1.6-2.4,4.2C25.7,10.9,24.5,12.2,24.4,12.2C24.5,12.2,24.4,12.2,24.4,12.2z"/>
			</g>
			<g>
				<path d="M21,17.1c-0.2,0-0.4-0.3-0.5-0.4c0,0,0-0.1,0-0.1l0.5-0.7c0,0,0.1,0,0.1,0c0,0,0,0.1,0,0.1l-0.5,0.7
					c0.2,0.2,0.3,0.3,0.4,0.3c0.1,0,0.5-0.6,0.9-1.1c0,0,0.1,0,0.1,0c0,0,0,0.1,0,0.1C21.8,16.2,21.3,17,21,17.1
					C21.1,17.1,21.1,17.1,21,17.1z"/>
			</g>
			<g>
				<path d="M21.3,16.1c-0.1,0-0.3-0.1-0.4-0.2c-0.2-0.2-0.6-0.8-0.5-1c0.1-0.2,0.4-0.4,0.4-0.4c0,0,0.1,0,0.1,0c0,0,0,0.1,0,0.1
					c0,0,0,0-0.1,0.1c0,0,0.4,0.7,0.6,0.8c0.1,0.1,0.2,0.2,0.1,0.3c0,0.1-0.1,0.2-0.1,0.2C21.4,16.1,21.4,16.1,21.3,16.1z
					 M20.7,14.7c0,0-0.1,0.1-0.1,0.2c-0.1,0.2,0.2,0.6,0.4,0.9c0.2,0.2,0.3,0.2,0.4,0.2c0,0,0-0.1,0-0.1c0-0.1,0-0.1-0.1-0.2
					C21.1,15.4,20.8,14.9,20.7,14.7z"/>
			</g>
			<g>
				<path d="M22,15.9c-0.3,0-0.5-0.2-0.5-0.2c0,0,0-0.1,0-0.1c0,0,0.1,0,0.1,0c0,0,0.2,0.2,0.4,0.2c0.1,0,0.1,0,0.2-0.1
					c0,0,0-0.1-0.1-0.2c-0.2-0.1-0.4-0.4-0.6-0.6c-0.1-0.1-0.3-0.3-0.3-0.4c-0.1,0-0.2,0.1-0.2,0.1c0,0-0.1,0-0.1,0c0,0,0-0.1,0-0.1
					c0,0,0.2-0.2,0.4-0.2c0.1,0,0.2,0.2,0.4,0.4c0.2,0.2,0.4,0.5,0.6,0.6c0.2,0.2,0.2,0.3,0.2,0.4C22.3,15.8,22.2,15.9,22,15.9
					C22,15.9,22,15.9,22,15.9z"/>
			</g>
			<g>
				<path d="M22.2,15.5C22.2,15.5,22.1,15.4,22.2,15.5c-0.1-0.1,0-0.1,0-0.1c0,0,0.1-0.1,0.1-0.2c0-0.2-0.2-0.5-0.5-0.8l0,0
					c-0.2-0.2-0.3-0.3-0.4-0.3c-0.1,0-0.2,0.3-0.2,0.4c0,0,0,0.1-0.1,0.1c0,0-0.1,0-0.1-0.1c0-0.1,0.1-0.5,0.3-0.5
					c0.2-0.1,0.3,0.1,0.6,0.3l0,0c0.2,0.2,0.6,0.7,0.6,0.9C22.4,15.4,22.2,15.5,22.2,15.5L22.2,15.5z"/>
			</g>
			<g>
				<path d="M22,14.5C22,14.5,22,14.4,22,14.5c-0.1-0.1-0.1-0.1,0-0.1c0.1,0,0.2-0.1,0.2-0.2c0-0.1-0.2-0.5-0.4-0.6
					c-0.2-0.1-0.2-0.1-0.3,0c-0.1,0.1-0.2,0.3-0.2,0.4c0,0,0,0.1-0.1,0.1c0,0-0.1,0-0.1-0.1c0-0.1,0.2-0.4,0.3-0.5
					c0.1-0.1,0.3-0.1,0.4,0c0.2,0.1,0.5,0.5,0.4,0.7C22.3,14.4,22.1,14.5,22,14.5C22,14.5,22,14.5,22,14.5z"/>
			</g>
			<g>
				<path d="M22.9,15.2C22.9,15.2,22.9,15.2,22.9,15.2C22.8,15.2,22.8,15.1,22.9,15.2L22.9,15.2c-0.1-0.1-0.1-0.2-0.2-0.5
					c-0.1-0.4-0.4-0.8-0.4-0.8c0,0,0-0.1,0-0.1c0,0,0.1,0,0.1,0c0,0,0.1,0.3,0.3,0.6c0,0,0,0,0.1,0c0,0,0.3,0,1-0.2
					c0.6-0.2,0.7-0.4,0.7-0.5c0,0,0,0,0,0c0,0,0.1,0,0.1,0c0.1,0.1,0.3,0.4,0.2,0.5l0,0c-0.1,0.1-0.2,0.4-0.9,0.7
					C23.2,15.1,22.9,15.2,22.9,15.2C22.9,15.2,22.9,15.2,22.9,15.2z M22.7,14.5c0,0.1,0,0.1,0.1,0.2c0.1,0.2,0.1,0.3,0.1,0.4
					c0.1,0,0.4-0.1,0.9-0.3c0.6-0.3,0.8-0.5,0.9-0.6l0,0c0,0,0-0.2-0.1-0.3c-0.1,0.1-0.3,0.3-0.7,0.4C23.1,14.5,22.8,14.5,22.7,14.5
					C22.8,14.5,22.8,14.5,22.7,14.5z"/>
			</g>
			<g>
				<path d="M21.8,16.9c-0.1,0-0.2,0-0.2,0c0,0,0,0,0-0.1l0-0.2c0,0,0-0.1,0.1-0.1c0,0,0.1,0,0.1,0.1l0,0.2c0.1,0,0.3,0,0.8-0.1
					c0.6-0.2,0.6-0.3,0.6-0.4c0-0.1,0.1-0.9,0.1-1c0,0,0-0.1,0.1-0.1c0,0,0.1,0,0.1,0.1c0,0-0.1,0.8-0.1,1c0,0.2-0.1,0.3-0.7,0.5
					C22.2,16.8,21.9,16.9,21.8,16.9z"/>
			</g>
			<g>
				<path d="M22.3,17.6c-0.1,0-0.2,0-0.3-0.1c-0.3-0.2-0.4-0.6-0.4-0.7c0,0,0-0.1,0-0.1c0,0,0.1,0,0.1,0.1c0,0.1,0.1,0.5,0.4,0.6
					c0.1,0.1,0.3,0.1,0.4,0c0.5-0.1,0.7-0.4,0.7-0.5L23,16.4c0,0,0-0.1,0-0.1c0,0,0.1,0,0.1,0l0.2,0.6c0,0,0,0,0,0
					c0,0-0.1,0.4-0.8,0.6C22.5,17.6,22.4,17.6,22.3,17.6z"/>
			</g>
			<g>
				<path d="M22.6,13.8C22.6,13.8,22.6,13.8,22.6,13.8c-0.1,0-0.4-0.6-0.5-0.8C22.1,13,22,13,22,13l0,0c0,0-0.1,0-0.1,0.1
					c-0.1,0.1-0.1,0.3-0.1,0.3c0,0,0,0.1,0,0.1c0,0-0.1,0-0.1,0c0-0.1,0-0.3,0.1-0.4c0.1-0.1,0.1-0.1,0.2-0.1l0,0
					c0.1,0,0.2,0.1,0.3,0.2c0.1,0.2,0.4,0.7,0.4,0.7C22.7,13.8,22.7,13.8,22.6,13.8C22.6,13.8,22.6,13.8,22.6,13.8z"/>
			</g>
			<g>
				<path d="M22.9,13.4C22.9,13.4,22.8,13.4,22.9,13.4c-0.2-0.4-0.4-0.8-0.5-0.8c0,0,0,0-0.1,0c-0.1,0.1-0.2,0.2-0.2,0.2
					c0,0,0,0.1-0.1,0.1c0,0-0.1,0-0.1-0.1c0-0.1,0.1-0.3,0.3-0.3c0.1-0.1,0.2,0,0.2,0C22.7,12.6,22.9,13.2,22.9,13.4
					C23,13.4,23,13.4,22.9,13.4C22.9,13.4,22.9,13.4,22.9,13.4z"/>
			</g>
			<g>
				<path d="M23.3,13.2C23.3,13.2,23.2,13.2,23.3,13.2c-0.2-0.4-0.3-0.9-0.5-1c0,0,0,0-0.1,0c-0.1,0-0.2,0.2-0.3,0.4l-0.1,0l-0.1,0
					c0.1-0.2,0.2-0.4,0.4-0.4c0.1,0,0.1,0,0.2,0C23.1,12.2,23.3,13,23.3,13.2C23.4,13.2,23.3,13.2,23.3,13.2
					C23.3,13.2,23.3,13.2,23.3,13.2z"/>
			</g>
			<g>
				<path d="M24,13.1C24,13.1,24,13.1,24,13.1c-0.2-0.4-0.4-1.2-0.7-1.4c0,0-0.1,0-0.1,0c-0.2,0-0.3,0.3-0.3,0.4c0,0-0.1,0-0.1,0
					c0,0,0-0.1,0-0.1c0,0,0.2-0.4,0.4-0.4c0.1,0,0.2,0,0.3,0C23.8,11.8,24.1,12.9,24,13.1C24.1,13,24.1,13.1,24,13.1
					C24.1,13.1,24,13.1,24,13.1z"/>
			</g>
			<g>
				<path d="M22.5,13.9C22.5,13.9,22.5,13.9,22.5,13.9c-0.1,0-0.1-0.1-0.1-0.1l0,0c0.3-0.5,0.7-0.7,1-0.7c0.6-0.2,0.8-0.1,0.8-0.1
					c0,0,0,0.1,0,0.1c0,0-0.1,0-0.1,0c0,0,0,0-0.1,0c-0.1,0-0.3,0-0.6,0.1C23.3,13.3,22.9,13.5,22.5,13.9L22.5,13.9
					C22.6,13.9,22.6,13.9,22.5,13.9z"/>
			</g>
			<g>
				<path d="M24.5,13.7C24.5,13.7,24.5,13.7,24.5,13.7c-0.1-0.1-0.1-0.2-0.1-0.4c0-0.2-0.3-0.9-0.5-1.1c-0.1-0.1-0.1-0.1-0.1-0.1
					c0,0-0.1,0-0.1,0c0,0,0-0.1,0-0.1c0,0,0.2-0.1,0.3,0.1c0.1,0.2,0.4,0.9,0.5,1.2C24.6,13.5,24.6,13.7,24.5,13.7
					C24.6,13.7,24.6,13.7,24.5,13.7L24.5,13.7z"/>
			</g>
			<g>
				<path d="M23.7,16c-0.1,0-0.1,0-0.5-0.6c-0.1-0.1-0.1-0.2-0.1-0.2c0,0,0,0,0-0.1c0,0,0.1-0.1,0.1,0c0,0,0,0,0.2,0.2
					c0.1,0.2,0.3,0.4,0.4,0.5c0,0,0,0,0,0c0-0.1,0.1-0.3,0.4-0.4c0.3-0.1,0.5-0.1,0.7-0.1c-0.1-0.1-0.3-0.3-0.4-0.4
					c-0.1-0.2-0.1-0.2-0.1-0.2c0,0,0-0.1,0-0.1c0,0,0.1,0,0.1,0c0,0,0,0,0.2,0.3c0.1,0.2,0.3,0.4,0.4,0.4c0,0,0.1,0,0.1,0.1
					c0,0,0,0.1,0,0.1c0,0-0.1,0-0.2,0.1c-0.1,0-0.4,0-0.7,0.1c-0.3,0.1-0.3,0.2-0.4,0.3C23.7,15.9,23.7,16,23.7,16L23.7,16z"/>
			</g>
			<g>
				<path d="M24.7,18.9C24.7,18.9,24.7,18.9,24.7,18.9c0,0-0.4-0.1-0.9-0.6c-0.6-0.5-0.5-1.2-0.5-1.2c0,0,0-0.1,0.1-0.1
					c0,0,0.1,0,0.1,0.1c0,0-0.1,0.6,0.5,1.1c0.6,0.4,0.9,0.6,0.9,0.6C24.8,18.7,24.8,18.8,24.7,18.9C24.8,18.8,24.7,18.9,24.7,18.9z
					"/>
			</g>
			<g>
				<path d="M24.4,19C24.4,19,24.4,19,24.4,19c-0.1-0.1-0.1-0.1,0-0.1c0,0,0.7-0.2,0.9-0.3c0.2-0.1,0.3-0.1,0.3-0.1
					c0,0,0.1,0,0.1,0.1c0,0,0,0.1-0.1,0.1c0,0-0.1,0-0.2,0.1C25.1,18.7,24.5,19,24.4,19C24.5,19,24.4,19,24.4,19z"/>
			</g>
			<g>
				<path d="M23.7,20.9c-0.5,0-0.6-0.2-1-1l0-0.1c-0.5-1-0.6-2.2-0.6-2.2c0,0,0-0.1,0.1-0.1c0,0,0.1,0,0.1,0.1c0,0,0.1,1.2,0.6,2.2
					l0,0.1c0.5,0.9,0.5,0.9,1,0.9c0.4,0,1.1-0.1,1.6-0.2c0.2,0,0.4-0.1,0.5-0.1c0.4-0.1,0.8-0.2,0.8-0.2c0,0,0.1,0,0.1,0
					c0,0,0,0.1,0,0.1c0,0-0.4,0.1-0.8,0.2c-0.1,0-0.3,0-0.5,0.1c-0.5,0.1-1.2,0.2-1.6,0.2C23.7,20.9,23.7,20.9,23.7,20.9z"/>
			</g>
			<g>
				<path d="M27.6,17.7C27.6,17.7,27.5,17.7,27.6,17.7c-0.1-0.1-0.1-0.1,0-0.1c0.6-0.3,0.9-0.5,1.6-0.5c0,0,0.1,0,0.1,0.1
					c0,0,0,0.1-0.1,0.1C28.5,17.2,28.2,17.4,27.6,17.7C27.6,17.7,27.6,17.7,27.6,17.7z"/>
			</g>
			<g>
				<path d="M29.9,18.5c-1.4,0-2.4-0.8-3.5-1.6c-0.7-0.6-1.6-1.5-1.6-1.5c0,0,0-0.1,0-0.1c0,0,0.1,0,0.1,0c0,0,0.9,1,1.6,1.5
					c1.2,0.9,2.3,1.8,4,1.5c0.1,0,0.2,0,0.3,0c0.5-0.1,0.8-0.1,1.5,0c0,0,0.1,0,0.1,0.1c0,0-0.1,0.1-0.1,0.1c-0.6-0.2-1-0.1-1.5,0
					c-0.1,0-0.2,0-0.3,0C30.3,18.5,30.1,18.5,29.9,18.5z"/>
			</g>
			<g>
				<path d="M31.9,20.9c-0.4,0-0.8,0-1.4-0.1c-1.8-0.2-3.9-1.2-5.1-2.3c-0.7-0.6-1.7-2.5-1.8-2.5c0,0,0-0.1,0-0.1c0,0,0.1,0,0.1,0
					c0,0,1,1.9,1.7,2.5c1.2,1.1,3.3,2,5.1,2.2c1.4,0.2,2.2,0.1,2.5-0.2c0,0,0.1,0,0.1,0c0,0,0,0.1,0,0.1
					C32.9,20.8,32.6,20.9,31.9,20.9z"/>
			</g>
			<g>
				<path d="M29.8,20.6C29.8,20.6,29.8,20.6,29.8,20.6C29.7,20.6,29.7,20.5,29.8,20.6c-0.1-0.1,0.1-0.6-0.1-1.3
					c-0.2-0.7-0.2-0.9-0.2-0.9c0,0,0-0.1,0-0.1c0,0,0.1,0,0.1,0c0,0,0.1,0.1,0.3,0.9C30.1,20,29.9,20.5,29.8,20.6
					C29.8,20.6,29.8,20.6,29.8,20.6z"/>
			</g>
			<g>
				<path d="M28.8,18.3C28.8,18.3,28.8,18.3,28.8,18.3c-0.1-0.1-0.1-0.1,0-0.1l1.1-0.9c0,0,0,0,0.1,0l0.2,0.1c0,0,0.1,0.1,0,0.1
					c0,0,0,0.1-0.1,0l-0.2,0L28.8,18.3C28.8,18.3,28.8,18.3,28.8,18.3z"/>
			</g>
			<g>
				<path d="M30.1,17.8C30.1,17.8,30.1,17.8,30.1,17.8l-0.4-0.1c0,0-0.1,0,0-0.1c0,0,0-0.1,0.1,0l0.4,0.1
					C30.2,17.6,30.2,17.7,30.1,17.8C30.2,17.7,30.2,17.8,30.1,17.8z"/>
			</g>
			<g>
				<path d="M30.2,18.1C30.2,18.1,30.2,18.1,30.2,18.1c-0.1-0.1-0.1-0.1,0-0.1l-0.1-0.6c0,0,0,0,0-0.1c0,0,0,0,0.1,0
					c0,0,1.1,0.1,1.8,0c0.3,0,0.4-0.1,0.4-0.1c0,0,0-0.1,0-0.1c0,0,0,0,0-0.1c0,0,0,0,0,0c0,0,0.1,0,0.2,0c0.1,0.1,0.1,0.2,0.1,0.4
					c0,0.6-0.6,0.6-0.9,0.6C31.6,18.1,30.3,18.1,30.2,18.1L30.2,18.1z M30.3,17.4l0.1,0.6c0.3,0,1.3,0,1.5-0.1
					c0.4,0,0.8-0.1,0.8-0.5c0-0.2,0-0.2,0-0.3c0,0,0,0,0,0.1c-0.1,0.1-0.2,0.2-0.5,0.2C31.4,17.5,30.5,17.5,30.3,17.4z"/>
			</g>
			<g>
				<path d="M28,18C28,18,28,18,28,18c-0.1-0.1-0.1-0.1,0-0.1c0,0,0.4-0.2,1-0.3c0,0,0.1,0,0.1,0.1c0,0,0,0.1-0.1,0.1
					C28.4,17.8,28,18,28,18C28,18,28,18,28,18z"/>
			</g>
			<g>
				<path d="M33,16.2C33,16.2,33,16.2,33,16.2l-1.6-0.6l-1.7-0.5l-1.2-0.4c0,0-0.1,0,0-0.1c0,0,0-0.1,0.1-0.1c0,0,0.5,0.1,0.7-0.1
					c0.2-0.1,0.5-0.4,0.5-0.4c0,0,0.1,0,0.1,0c0,0,0,0.1,0,0.1c0,0-0.3,0.3-0.6,0.4c-0.1,0-0.2,0.1-0.3,0.1l0.8,0.3l1.7,0.5l1.5,0.6
					l0.5-0.9c0,0,0.1,0,0.1,0c0,0,0,0.1,0,0.1L33,16.2C33,16.2,33,16.2,33,16.2z"/>
			</g>
			<g>
				<path d="M29.4,17.3C29.4,17.3,29.4,17.3,29.4,17.3l-0.6-0.2c0,0,0,0,0-0.1c0-0.5-0.1-1.3-0.1-1.4c0,0,0-0.7,0-1
					c0,0,0-0.1,0.1-0.1l0,0c0,0,0.1,0,0.1,0.1c0,0.4,0,1,0,1c0,0,0.1,1,0.1,1.3l0.5,0.2c0,0,0.1,0,0.4,0c0.2,0,0.2,0,0.2,0
					c0.1,0,0.2-0.1,0.6-0.2c0.6-0.1,0.9-0.3,1-0.3l-0.4-1.1c0,0,0,0,0-0.1c0,0,0,0,0.1,0c0,0,0.3,0,0.7-0.2c0.4-0.2,0.3-0.4,0.3-0.4
					c0,0,0-0.1,0.1-0.1c0,0,0.1,0,0.1,0c0,0,0.1,0.3-0.4,0.6c-0.3,0.2-0.6,0.2-0.7,0.2l0.4,1.1c0,0,0,0.1,0,0.1c0,0-0.3,0.2-1.1,0.4
					c-0.4,0.1-0.5,0.1-0.6,0.2c-0.1,0-0.1,0-0.3,0.1C29.6,17.3,29.4,17.3,29.4,17.3z"/>
			</g>
			<g>
				<path d="M28.9,16.7C28.9,16.7,28.8,16.7,28.9,16.7c-0.1,0-0.1-0.1,0-0.1l0.7-0.7l-0.6-1.1c0,0,0-0.1,0-0.1c0,0,0.1,0,0.1,0
					l0.6,1.1c0,0,0,0.1,0,0.1L28.9,16.7C28.9,16.7,28.9,16.7,28.9,16.7z"/>
			</g>
			<g>
				<path d="M28.7,15.8C28.7,15.8,28.7,15.8,28.7,15.8c-0.1-0.1-0.1-0.1,0-0.1c0.5-0.4,0.5-0.5,0.5-0.5c0,0,0.1,0,0.1,0
					c0,0,0,0.1,0,0.1C29.2,15.4,29,15.6,28.7,15.8C28.8,15.8,28.8,15.8,28.7,15.8z"/>
			</g>
			<g>
				<path d="M32.1,16.7L32.1,16.7c-0.2,0-0.3,0-0.3-0.1l-2.9-0.9c0,0-0.1-0.1,0-0.1c0,0,0.1-0.1,0.1,0l2.9,0.9c0,0,0,0,0,0l0,0
					c0,0,0.1,0,0.3,0l0,0c0.2,0,0.6-0.3,0.8-0.5c0,0,0.1-0.1,0.1-0.1c0,0,0.1,0,0.1,0c0,0,0,0.1,0,0.1c0,0,0,0-0.1,0.1
					C32.6,16.5,32.3,16.7,32.1,16.7z"/>
			</g>
			<g>
				<path d="M29.4,17.3C29.3,17.3,29.3,17.2,29.4,17.3l-0.2-1.4c0,0,0,0,0,0l0.5-0.8c0,0,0.1,0,0.1,0c0,0,0,0.1,0,0.1l-0.5,0.8
					L29.4,17.3C29.4,17.2,29.4,17.2,29.4,17.3L29.4,17.3z"/>
			</g>
			<g>
				<path d="M29.4,17.2C29.4,17.2,29.4,17.2,29.4,17.2c-0.1-0.1-0.1-0.1,0-0.1l1.4-0.8c0.1,0,0.7-0.4,0.7-0.4c0.1,0,0.7-0.1,0.9-0.1
					c0,0,0.1,0,0.1,0.1c0,0,0,0.1-0.1,0.1c-0.4,0-0.8,0.1-0.8,0.1c0,0-0.5,0.3-0.7,0.4L29.4,17.2C29.4,17.2,29.4,17.2,29.4,17.2z"/>
			</g>
			<g>
				<path d="M33.7,15.4C33.6,15.4,33.6,15.4,33.7,15.4l-1.4-0.7c0,0,0,0,0-0.1l0.1-0.4c0,0,0,0,0,0c0,0,0,0,0.1,0l1.4,0.7
					c0,0,0,0.1,0,0.1L33.7,15.4C33.7,15.4,33.7,15.4,33.7,15.4C33.7,15.4,33.7,15.4,33.7,15.4z M32.3,14.6l1.3,0.6l0.1-0.3l-1.3-0.6
					L32.3,14.6z"/>
			</g>
			<g>
				<path d="M32.4,15.1C32.4,15.1,32.4,15.1,32.4,15.1L32.4,15.1c-3.6-1.2-3.6-1.3-3.5-1.4c0-0.1,0.1-0.1,0.3-0.1c0.4,0,0.6,0,0.6,0
					c0,0,0.1,0,0.1,0.1c0,0,0,0.1-0.1,0.1c0,0-0.2,0-0.6,0c0,0-0.1,0-0.1,0c0.3,0.2,1.6,0.7,3.3,1.2l0,0C32.4,15,32.5,15,32.4,15.1
					C32.4,15.1,32.4,15.1,32.4,15.1z"/>
			</g>
			<g>
				<path d="M32.8,16.7C32.8,16.7,32.8,16.7,32.8,16.7l-0.2-0.2c0,0,0-0.1,0-0.1c0,0,0.1,0,0.1,0l0.1,0.1c0.1-0.1,0.4-0.3,0.7-0.8
					c0.3-0.7,0.5-1.3,0.2-2.3c-0.2-0.5-0.6-0.9-1.3-1.2c-0.6-0.2-1.1-0.2-1.5,0c-0.7,0.4-1.1,1.1-1.2,1.4c0,0.1,0,0.1,0,0.2
					c0.2,0.1,1.5,0.6,2.7,1l0,0.1l0,0.1l0-0.1l0,0.1c-0.6-0.2-2.5-0.8-2.7-1c0,0-0.1-0.1-0.1-0.3c0-0.4,0.5-1.1,1.2-1.5
					c0.4-0.2,1-0.2,1.6,0c0.6,0.3,1.2,0.8,1.3,1.3c0.4,1.1,0.1,1.7-0.2,2.4C33.3,16.5,32.8,16.7,32.8,16.7
					C32.8,16.7,32.8,16.7,32.8,16.7z"/>
			</g>
			<g>
				<path d="M30.9,26.5C30.9,26.5,30.9,26.5,30.9,26.5c-0.2-1.6,0.4-2.6,1.1-3.7c0.4-0.6,0.8-1.2,1-2c0.7-2-0.5-2.9-0.6-2.9
					c0,0,0-0.1,0-0.1c0,0,0.1,0,0.1,0c0,0,1.4,1,0.6,3.1c-0.3,0.7-0.7,1.4-1.1,2C31.5,24,30.9,25,30.9,26.5
					C31,26.5,31,26.5,30.9,26.5C31,26.5,31,26.5,30.9,26.5z"/>
			</g>
			<g>
				<path d="M30.7,26.9C30.7,26.9,30.7,26.9,30.7,26.9c0,0-0.4-0.2-2.5-0.3c-2-0.2-3.6-0.5-3.8-0.9c0-0.1,0-0.1,0-0.2
					c0.1-0.3,0.8-2,1.7-3.8c0.9-1.7,0.7-1.9,0.7-1.9c0,0,0-0.1,0-0.1c0,0,0.1,0,0.1,0c0.1,0,0.2,0.3-0.7,2.1c-1,1.9-1.6,3.5-1.7,3.8
					c0,0,0,0,0,0.1c0.2,0.3,1.6,0.7,3.7,0.8c2.2,0.2,2.5,0.3,2.5,0.3C30.7,26.7,30.8,26.8,30.7,26.9C30.7,26.8,30.7,26.9,30.7,26.9z
					"/>
			</g>
			<g>
				<path d="M30.7,26.9C30.7,26.9,30.7,26.9,30.7,26.9C30.6,26.9,30.6,26.8,30.7,26.9c-0.1-0.1,0.2-1.7,0.2-3
					c-0.1-1.3-0.5-2.6-0.6-3c0,0,0-0.1,0-0.1c0,0,0.1,0,0.1,0c0.1,0.4,0.6,1.7,0.6,3C31.1,25.2,30.8,26.8,30.7,26.9
					C30.7,26.8,30.7,26.9,30.7,26.9z"/>
			</g>
			<g>
				<path d="M32.1,23C32,23,32,22.9,32.1,23C32,21.7,30.8,21,30.8,21c0,0,0-0.1,0-0.1c0,0,0.1,0,0.1,0C30.9,21,32.1,21.6,32.1,23
					C32.2,22.9,32.1,23,32.1,23L32.1,23z"/>
			</g>
			<g>
				<path d="M33,21.4C33,21.4,33,21.4,33,21.4c-0.7-0.3-1.6-0.3-1.6-0.3c0,0-0.1,0-0.1-0.1c0,0,0-0.1,0.1-0.1c0,0,0.9,0,1.6,0.3
					C33.1,21.2,33.1,21.3,33,21.4C33.1,21.3,33,21.4,33,21.4z"/>
			</g>
			<g>
				<path d="M26.3,26.3C26.3,26.3,26.3,26.3,26.3,26.3c-0.8-1.9-0.5-3.8-0.5-3.8c0,0,0-0.1,0.1-0.1c0,0,0.1,0,0.1,0.1
					C26,22.5,25.7,24.4,26.3,26.3C26.4,26.2,26.4,26.3,26.3,26.3C26.4,26.3,26.4,26.3,26.3,26.3z"/>
			</g>
			<g>
				<path d="M29.9,26.7c-0.1,0-0.4-0.1-1-1c-0.7-1-1.9-3.4-1.9-3.4c0,0,0-0.1,0-0.1c0,0,0.1,0,0.1,0c0,0,1.1,2.4,1.9,3.4
					c0.7,0.9,0.9,0.9,0.9,0.9l0,0C30,26.6,30,26.6,29.9,26.7C30,26.7,30,26.7,29.9,26.7C30,26.7,29.9,26.7,29.9,26.7z"/>
			</g>
			<g>
				<path d="M22.5,33.1C22.4,33.1,22.4,33.1,22.5,33.1c-0.3-2.7,1.2-6.2,2.1-7.4c0,0,0.1,0,0.1,0c0,0,0,0.1,0,0.1
					C23.8,27,22.3,30.4,22.5,33.1C22.5,33.1,22.5,33.1,22.5,33.1C22.5,33.1,22.5,33.1,22.5,33.1z"/>
			</g>
			<g>
				<path d="M26,35.8L26,35.8C26,35.8,26,35.7,26,35.8c-0.1-0.1,0-1.2,0.2-2.9c0.2-1.7,0.1-3.7,0.1-3.8c0,0,0-0.1,0.1-0.1
					c0,0,0.1,0,0.1,0.1c0,0,0.1,2-0.1,3.8C26.2,34.6,26.1,35.7,26,35.8C26.1,35.7,26.1,35.8,26,35.8z"/>
			</g>
			<g>
				<path d="M28.2,36.6C28.2,36.6,28.2,36.6,28.2,36.6c-0.1,0-0.1-0.1-0.1-0.1c0,0,1.6-3.4,2.1-6c0.5-2.6,0.3-3.5,0.3-3.5
					c0,0,0-0.1,0.1-0.1c0,0,0.1,0,0.1,0.1c0,0,0.2,1-0.3,3.6C29.8,33.1,28.3,36.5,28.2,36.6C28.2,36.5,28.2,36.6,28.2,36.6z"/>
			</g>
			<g>
				<path d="M28,43.2L28,43.2C28,43.2,28,43.2,28,43.2c-0.1-0.1,0-2,0.1-2.9c0-0.2,0.1-0.3,0.1-0.5c0.2-0.9,0.4-2,0-2.9
					c-0.5-1-2.1-1.1-2.2-1.1c0,0-0.1,0-0.1-0.1c0,0,0-0.1,0.1-0.1c0.1,0,1.8,0.1,2.3,1.2c0.4,0.9,0.2,2,0.1,3c0,0.2-0.1,0.3-0.1,0.5
					C28.1,41.2,28.1,43.1,28,43.2C28.1,43.2,28.1,43.2,28,43.2z"/>
			</g>
			<g>
				<path d="M24.8,34.8C24.8,34.8,24.8,34.7,24.8,34.8c-0.3-0.7-0.3-2-0.3-2.1c0,0,0-0.1,0.1-0.1c0,0,0.1,0,0.1,0.1
					C24.6,32.7,24.7,34,24.8,34.8C24.9,34.7,24.9,34.7,24.8,34.8C24.8,34.8,24.8,34.8,24.8,34.8z"/>
			</g>
			<g>
				<path d="M25.4,34.6C25.4,34.6,25.3,34.6,25.4,34.6C25.2,34.2,25,33.1,25,33c0,0,0-0.1,0.1-0.1c0,0,0.1,0,0.1,0.1
					C25.1,33,25.3,34.1,25.4,34.6C25.5,34.6,25.4,34.6,25.4,34.6C25.4,34.6,25.4,34.6,25.4,34.6z"/>
			</g>
			<g>
				<path d="M24.2,34.9C24.2,34.9,24.1,34.9,24.2,34.9c-0.1-0.3-0.4-2.4-0.4-2.4c0,0,0-0.1,0.1-0.1c0,0,0.1,0,0.1,0.1
					C24,32.5,24.2,34.6,24.2,34.9C24.3,34.9,24.2,34.9,24.2,34.9C24.2,34.9,24.2,34.9,24.2,34.9z"/>
			</g>
			<g>
				<path d="M23.6,35C23.6,35,23.6,35,23.6,35C23.5,35,23.5,35,23.6,35c-0.1-0.1,0-0.3-0.1-0.7c-0.1-0.4-0.2-1.8-0.2-1.9
					c0,0,0-0.1,0.1-0.1c0,0,0.1,0,0.1,0.1c0,0,0.1,1.5,0.2,1.9C23.7,34.7,23.7,35,23.6,35C23.7,35,23.6,35,23.6,35z"/>
			</g>
			<g>
				<path d="M23.2,35.2C23.1,35.2,23.1,35.2,23.2,35.2c-0.1-0.1-0.1-0.6-0.1-1.4c-0.1-0.8-0.3-1.1-0.3-1.2c0,0,0-0.1,0-0.1
					c0,0,0.1,0,0.1,0c0,0,0.2,0.4,0.3,1.2C23.2,34.6,23.2,35.1,23.2,35.2C23.2,35.2,23.2,35.2,23.2,35.2
					C23.2,35.2,23.2,35.2,23.2,35.2z"/>
			</g>
			<g>
				<path d="M22.9,35.3C22.8,35.3,22.8,35.3,22.9,35.3c-0.1-0.1-0.1-0.3-0.1-1c-0.1-0.7-0.3-1.3-0.3-1.3c0,0,0-0.1,0-0.1
					c0,0,0.1,0,0.1,0c0,0,0.3,0.6,0.3,1.3C22.9,34.9,22.9,35.2,22.9,35.3C22.9,35.3,22.9,35.3,22.9,35.3L22.9,35.3z"/>
			</g>
			<g>
				<path d="M25.4,44C25.3,44,25.3,44,25.4,44c-0.6-1.7-0.5-1.7-0.5-1.8c0,0,0.1-0.1,1.7-0.5c0,0,0.1,0,0.1,0l0.6,1.6
					c0,0,0,0.1,0,0.1c0,0-0.1,0-0.1,0l-0.6-1.6C26,42,25.1,42.2,25,42.3C25,42.5,25.2,43.2,25.4,44C25.5,43.9,25.4,44,25.4,44
					C25.4,44,25.4,44,25.4,44z"/>
			</g>
			<g>
				<path d="M27.8,43.6C27.7,43.6,27.7,43.6,27.8,43.6c-0.1,0-0.6-1-0.9-2.3c-0.4-1.3-1.2-4.7-1.2-4.7c0,0,0-0.1,0.1-0.1
					c0,0,0.1,0,0.1,0.1c0,0,0.8,3.4,1.2,4.7c0.4,1.3,0.9,2.2,0.9,2.3C27.8,43.5,27.8,43.6,27.8,43.6C27.8,43.6,27.8,43.6,27.8,43.6z
					"/>
			</g>
			<g>
				<path d="M26.5,41.8C26.5,41.8,26.4,41.8,26.5,41.8c-0.1-0.1-0.4-1.1-0.6-2c-0.3-0.9-0.8-3.2-0.8-3.2c0,0,0-0.1,0.1-0.1
					c0,0,0.1,0,0.1,0c0,0,0.5,2.3,0.8,3.2C26.3,40.7,26.5,41.8,26.5,41.8C26.6,41.8,26.5,41.8,26.5,41.8
					C26.5,41.8,26.5,41.8,26.5,41.8z"/>
			</g>
			<g>
				<path d="M26,42C25.9,42,25.9,42,26,42c-0.1-0.1-0.3-1-0.7-2.3c-0.4-1.3-0.9-2.9-0.9-3c0,0,0-0.1,0-0.1c0,0,0.1,0,0.1,0
					c0,0,0.5,1.6,0.9,3C25.8,40.9,26,41.9,26,42C26,41.9,26,42,26,42C26,42,26,42,26,42z"/>
			</g>
			<g>
				<path d="M25.4,42.1C25.4,42.1,25.4,42.1,25.4,42.1c-0.1-0.1-0.1-0.4-0.3-0.8c-0.2-0.5-1.3-4.3-1.3-4.4c0,0,0-0.1,0-0.1
					c0,0,0.1,0,0.1,0c0,0,1.2,4,1.3,4.4C25.4,41.7,25.5,42.1,25.4,42.1C25.5,42.1,25.5,42.1,25.4,42.1
					C25.4,42.1,25.4,42.1,25.4,42.1z"/>
			</g>
			<g>
				<path d="M24.9,42.3C24.9,42.3,24.9,42.3,24.9,42.3c-0.1-0.1-0.3-1-0.6-2.1C24,39.1,23.4,37,23.4,37c0,0,0-0.1,0-0.1
					c0,0,0.1,0,0.1,0c0,0,0.6,2.1,0.9,3.2C24.7,41.3,25,42.2,24.9,42.3C25,42.3,25,42.3,24.9,42.3C24.9,42.3,24.9,42.3,24.9,42.3z"
					/>
			</g>
			<g>
				<path d="M28.4,37.4C28.4,37.4,28.4,37.4,28.4,37.4c-0.1-0.1-0.2-0.5-0.7-0.7c-0.5-0.2-1.6-0.5-1.6-0.6c0,0-0.1,0-0.1-0.1
					c0,0,0-0.1,0.1-0.1c0.1,0,1.1,0.3,1.6,0.6C28.4,36.8,28.5,37.3,28.4,37.4C28.5,37.4,28.5,37.4,28.4,37.4
					C28.5,37.4,28.4,37.4,28.4,37.4z"/>
			</g>
			<g>
				<path d="M26.5,37.7C26.5,37.7,26.5,37.7,26.5,37.7C26.4,37.7,26.4,37.7,26.5,37.7v-1.5c0,0,0-0.1,0.1-0.1h0c0,0,0.1,0,0.1,0.1
					L26.5,37.7C26.5,37.7,26.5,37.7,26.5,37.7z"/>
			</g>
			<g>
				<path d="M27,38.7C27,38.7,27,38.7,27,38.7C26.9,38.7,26.9,38.6,27,38.7l0-2.3c0,0,0-0.1,0.1-0.1c0,0,0.1,0,0.1,0.1L27,38.7
					C27,38.6,27,38.7,27,38.7z"/>
			</g>
			<g>
				<path d="M27.6,38.5C27.6,38.5,27.6,38.5,27.6,38.5C27.6,38.5,27.5,38.5,27.6,38.5l0-1.9c0,0,0-0.1,0.1-0.1l0,0
					c0,0,0.1,0,0.1,0.1L27.6,38.5C27.7,38.5,27.7,38.5,27.6,38.5z"/>
			</g>
			<g>
				<path d="M28.2,38.4C28.1,38.4,28.1,38.3,28.2,38.4l-0.1-1.5c0,0,0-0.1,0.1-0.1c0,0,0.1,0,0.1,0.1L28.2,38.4
					C28.2,38.3,28.2,38.4,28.2,38.4L28.2,38.4z"/>
			</g>
			<path d="M28.5,38.1C28.5,38.1,28.5,38.1,28.5,38.1c-0.1,0-0.5,0.2-0.9,0.3c-0.3,0.1-0.8,0.1-0.9,0.2c-0.1-0.5-0.2-1-0.3-1.4
				c-0.2-1-0.5-2-0.6-2.7c-0.1-0.8-0.5-1.4-1.1-1.8c-0.4-0.3-0.9-0.4-1.4-0.3c-0.4,0.1-0.8,0.3-0.9,0.6c-0.2,0.3-0.2,0.7,0,1.2
				c0.3,0.7,0.1,1.3,0.1,1.3c0,0,0,0,0,0c-0.1,0.3,0,0.6,0,0.7c-0.1,0.2,0,0.4,0.1,0.5c-0.1,0.4,0.1,0.6,0.2,0.6
				c0,0.1,0.2,0.6,0.5,1.5c0.1,0.4,0.2,0.8,0.4,1.4c0.4,1.2,0.8,2.6,0.8,3.1c0,0.3,0.1,0.6,0.1,0.8c0,0.3,0,0.5,0.2,0.6
				c0,0,0,0,0.1,0c0,0,0,0,0,0c0.1,0,0.2-0.2,0.4-0.6c0.2-0.3,0.4-0.7,0.6-0.8c0.4-0.2,0.8-0.1,1.3,0.2c0.5,0.3,0.8,0.3,0.9,0.2
				c0.1,0,0.1-0.1,0.1-0.2c0-0.1-0.1-0.2-0.2-0.6c-0.3-0.7-0.8-1.9-1-3h0c0,0,0.6-0.1,0.9-0.2c0.3-0.1,0.4-0.3,0.4-0.9
				c0-0.4,0-0.6-0.1-0.7C28.4,38.3,28.5,38.2,28.5,38.1C28.5,38.2,28.5,38.1,28.5,38.1z M22.7,35.3c0-0.2,0.1-0.7-0.1-1.2
				c-0.1-0.4-0.1-0.8,0-1c0.1-0.3,0.4-0.4,0.8-0.5c0.1,0,0.2,0,0.3,0c0.3,0,0.7,0.1,1,0.3c0.6,0.4,1,1,1.1,1.7c0,0,0,0,0,0
				c0,0-0.1,0-0.3,0.1C24.7,34.7,23.1,35,22.7,35.3z M28.1,43.6C28.1,43.6,28.1,43.6,28.1,43.6c-0.1,0.1-0.4,0.1-0.8-0.1
				c-0.6-0.4-1-0.5-1.5-0.2c-0.2,0.1-0.5,0.5-0.6,0.9c-0.1,0.2-0.3,0.5-0.3,0.5c-0.1-0.1-0.1-0.2-0.1-0.5c0-0.2,0-0.5-0.1-0.8
				c-0.1-0.5-0.5-1.9-0.9-3.1c-0.2-0.5-0.3-1-0.4-1.4c-0.3-1-0.4-1.4-0.5-1.5c0.2-0.1,1-0.5,1.8-0.6c0.9-0.1,1-0.1,1-0.1
				c0,0,0,0,0,0c0,0,0,0,0,0c0,0,0,0,0,0c0,0,0,0,0,0c0,0,0,0,0,0c-0.2-0.7-0.4-1.7-0.4-1.8c0,0,0,0,0,0c0.2,0,0.2,0,0.2,0s0,0,0,0
				c0.1,0.7,0.3,1.6,0.5,2.5c0.2,0.9,0.4,1.8,0.6,2.6c0.2,1.1,0.8,2.5,1.1,3.3C28,43.3,28.1,43.5,28.1,43.6z"/>
			<g>
				<path d="M27.8,42.6C27.8,42.6,27.7,42.6,27.8,42.6c-0.1-0.7,0.1-2.8,0.1-2.9c0,0,0-0.1,0.1-0.1c0,0,0.1,0,0.1,0.1
					C28.1,39.8,27.8,41.9,27.8,42.6C27.9,42.6,27.8,42.6,27.8,42.6L27.8,42.6z"/>
			</g>
			<g>
				<path d="M27.4,41.6C27.4,41.6,27.3,41.5,27.4,41.6c-0.1-0.6,0-1.6,0-1.7c0,0,0-0.1,0.1-0.1c0,0,0.1,0,0.1,0.1
					C27.5,39.9,27.5,41,27.4,41.6C27.5,41.5,27.5,41.5,27.4,41.6C27.4,41.6,27.4,41.6,27.4,41.6z"/>
			</g>
			<g>
				<path d="M26.5,45.4c-0.1,0-0.2,0-0.2-0.1c-0.1-0.1-0.2-0.4-0.2-0.6c0-0.2-0.1-0.4-0.2-0.6c-0.2-0.3,0-0.8,0-0.8c0,0,0.1,0,0.1,0
					c0,0,0,0.1,0,0.1c0,0-0.2,0.4,0,0.7c0.1,0.2,0.1,0.4,0.2,0.6c0.1,0.2,0.1,0.5,0.2,0.5c0.1,0.1,0.4,0,1-0.4l0.1-0.1
					c0.5-0.4,0.7-0.5,0.7-0.7c0-0.2-0.1-0.2-0.1-0.2c0,0,0-0.1,0-0.1c0,0,0.1,0,0.1,0c0,0,0.1,0.1,0.1,0.3c0,0.2-0.2,0.4-0.8,0.8
					l-0.1,0.1C27,45.2,26.7,45.4,26.5,45.4z"/>
			</g>
			<g>
				<path d="M26.4,45.1C26.4,45.1,26.4,45.1,26.4,45.1C26.3,45.1,26.3,45.1,26.4,45.1c-0.1-0.1,0.1-0.7,0.5-1
					c0.4-0.3,1.2-0.3,1.3-0.3c0,0,0.1,0,0.1,0.1c0,0,0,0.1-0.1,0.1c0,0-0.8,0-1.2,0.3C26.6,44.5,26.5,45.1,26.4,45.1
					C26.4,45.1,26.4,45.1,26.4,45.1z"/>
			</g>
			<g>
				<path d="M26.1,45.2c-0.1,0-0.2,0-0.5,0c-0.1,0-0.1,0-0.2,0c-0.2,0-0.3,0-0.4-0.1c0,0,0-0.1,0-0.2c0-0.1,0-0.3-0.1-0.3
					c0,0,0-0.1,0-0.1c0,0,0.1,0,0.1,0c0,0,0.1,0.2,0.1,0.4c0,0,0,0,0,0c0,0,0.2,0,0.3,0.1c0,0,0.1,0,0.1,0c0.3,0,0.5,0,0.5,0
					c0,0,0.1,0,0.1,0.1C26.2,45.1,26.2,45.2,26.1,45.2C26.1,45.2,26.1,45.2,26.1,45.2z"/>
			</g>
			<g>
				<path d="M25.3,44.9L25.3,44.9C25.3,44.9,25.2,44.9,25.3,44.9c-0.1-0.1,0-0.3,0.3-0.5c0.4-0.2,0.5,0,0.5,0c0,0,0,0.1,0,0.1
					c0,0-0.1,0-0.1,0l0,0c0,0-0.1-0.1-0.3,0C25.4,44.7,25.4,44.9,25.3,44.9C25.4,44.9,25.3,44.9,25.3,44.9z"/>
			</g>
			<g>
				<path d="M30.6,27.2L30.6,27.2c-4.9-0.1-6.2-1-6.3-1c0,0,0-0.1,0-0.1c0,0,0.1,0,0.1,0c0,0,1.3,0.9,6.2,1
					C30.7,27.1,30.7,27.1,30.6,27.2C30.7,27.2,30.7,27.2,30.6,27.2z"/>
			</g>
			<g>
				<path class="st4" d="M32.3,17.3C32.3,17.3,32.3,17.3,32.3,17.3c-0.4-0.2-0.5-0.6-0.5-0.6c0,0,0-0.1,0.1-0.1c0,0,0.1,0,0.1,0.1
					c0,0,0.1,0.4,0.4,0.5C32.4,17.2,32.4,17.2,32.3,17.3C32.4,17.3,32.4,17.3,32.3,17.3z"/>
			</g>
			<g>
				<path d="M24.2,6c-0.6,0-1.1-0.5-1.1-1.1c0-0.6,0.5-1.1,1.1-1.1c0.6,0,1.1,0.5,1.1,1.1C25.3,5.5,24.8,6,24.2,6z M24.2,4
					c-0.5,0-0.9,0.4-0.9,0.9s0.4,0.9,0.9,0.9c0.5,0,0.9-0.4,0.9-0.9S24.8,4,24.2,4z"/>
			</g>
			<path class="st4" d="M22.2,42.9C22.2,42.9,22.2,42.8,22.2,42.9l-5.2,1l0.2-11.7c0,0,0-0.1-0.1-0.1L16.4,32c0,0,0,0-0.1,0
				c0,0,0,0,0,0.1c0,0,0,0.1,0,0.2l-0.7,0c0,0,0,0,0,0l-0.7-0.1c0,0,0,0-0.1,0c0,0,0,0,0,0.1c0,0,0,0.1,0,0.2l-0.9,0l0,0
				c0,0,0-0.1-0.1-0.1l-0.7-0.1c0,0,0,0-0.1,0c0,0,0,0,0,0c0,0-0.1,11.2-0.1,12.5L5,46.3c0,0-0.1,0-0.1,0.1c0,0,0,0.1,0.1,0.1
				c0,0,0,0,0,0L16.9,44c0,0,0,0,0,0c0,0,0,0,0,0L22.2,42.9C22.2,43,22.2,42.9,22.2,42.9z M16.2,44l-0.8,0.2l0.2-11.8l0.7,0
				C16.3,34,16.3,41.7,16.2,44z M14.8,32.5c0,1.6,0,9.8-0.1,11.8l-1,0.2l0.2-12.1L14.8,32.5z"/>
			<g>
				<path class="st5" d="M23.3,5.1c0-0.1,0-0.6,0.3-0.8c0.3-0.3,0.8-0.4,1.2,0C25.2,4.6,23.8,4.4,23.3,5.1L23.3,5.1z"/>
			</g>
		</g>
		<path class="st0" d="M22.6,36.1c0-0.1-0.1-0.4,0-0.6c0.1-0.2,1.2-0.5,2.7-0.8c0,0,0,0.2,0.1,0.5C23.6,35.5,22.9,35.9,22.6,36.1z"
			/>
		<path class="st0" d="M22.7,36.2c0,0,0.7-0.6,2.8-0.9c0,0.1,0.1,0.3,0.1,0.4c-0.1,0-0.5,0-1.3,0.2c-1,0.2-1.4,0.4-1.5,0.6
			C22.7,36.5,22.6,36.4,22.7,36.2z"/>
		<path class="st0" d="M22.8,36.7c0,0,0.3-0.4,1.5-0.6c1-0.1,1.3-0.2,1.4-0.2c0,0.2,0.1,0.3,0.1,0.5c-0.1,0-0.4,0-1,0.1
			c-0.9,0.1-1.8,0.6-1.9,0.6C22.8,37.1,22.7,37,22.8,36.7z"/>
		<path class="st0" d="M28.2,39C28.2,39,28.2,39,28.2,39c0,0.1-0.2,0.2-0.6,0.3c-0.4,0.1-0.6,0.1-0.7,0.1c0-0.1,0-0.1,0-0.2
			c0.1,0,0.6,0,1-0.2C28,39,28.1,39,28.2,39C28.2,38.9,28.2,39,28.2,39z"/>
		<path class="st0" d="M27.9,39.7c-0.3,0.1-0.8,0.2-0.9,0.2c0,0,0,0,0,0c0-0.1,0-0.1,0-0.2c0-0.1,0-0.1,0-0.2c0.1,0,0.3,0,0.7-0.1
			c0.3,0,0.4-0.1,0.5-0.2C28.1,39.5,28,39.7,27.9,39.7z"/>
		<path class="st0" d="M28.2,38.7C28.2,38.8,28.2,38.8,28.2,38.7c0,0-0.1,0.1-0.3,0.2c-0.4,0.1-0.9,0.1-1,0.1c0-0.1,0-0.2-0.1-0.3
			c0.1,0,0.6-0.1,0.9-0.2c0.1,0,0.3-0.1,0.4-0.2C28.1,38.4,28.2,38.6,28.2,38.7z"/>
		<path class="st0" d="M15.5,32.4l-0.2,11.8l-0.5,0.1c0-2.2,0.1-11.1,0.1-12L15.5,32.4z"/>
		<path class="st0" d="M13.2,32.3l0.6,0.1l-0.2,12.2l-0.5,0.1C13.1,43.4,13.2,33.3,13.2,32.3z"/>
		<path class="st0" d="M17,32.3l-0.2,11.7L16.4,44c0-2.5,0.1-10.9,0.1-11.8L17,32.3z"/>
	</g>
</g>
</svg>
