<svg width="57" height="42" viewBox="0 0 57 42" fill="none" xmlns="http://www.w3.org/2000/svg">
<path d="M25.0228 14.5636L24.5948 14.1416L20.7661 15.4829L19.4727 16.0541L20.885 17.5059L22.835 22.7894L24.0716 26.6687V28.3347L23.1917 30.1097L22.7637 30.6909L21.8125 31.4247L21.643 33.0232L21.3606 34.2608L19.91 35.5222L19.3828 35.9982L19.9338 39.2587L25.5381 40.8866L27.9293 41.3249L31.8523 41.1067L34.5797 40.4192L36.3357 39.6339L37.3072 39.1852L37.5295 36.8648L37.8131 35.3667L37.9389 33.7424L37.2847 32.8233L36.102 31.6019L35.6114 30.2169L36.102 28.4541L36.4921 26.2506L36.9072 24.5255L37.0187 23.8186L36.7563 22.828L36.8569 22.0828L37.7221 21.7932L37.9892 20.9393L37.9137 20.3326L40.0148 19.8793L39.6579 17.0638L37.3546 14.694L35.9863 13.8373L33.835 13.4014L33.7489 14.1015L33.4368 15.1572L32.7587 16.0297L32.2743 16.6868L31.564 17.15L30.2616 17.5486L28.8839 17.387L27.6354 17.1716L27.0649 16.8484L26.333 16.299L25.6657 15.4804L25.0228 14.5636Z" fill="#00953B"/>
<path d="M1.44727 23.3327L2.46214 19.9092L4.03232 17.6479L5.16208 16.9196L8.62797 16.0381C8.62797 16.0381 11.1747 17.9545 13.4917 17.667C13.3002 18.3953 13.013 19.8326 13.013 19.8326L12.5917 21.9214L11.4428 23.1288L9.33646 24.8727L6.67482 26.2525H6.2344L6.40674 25.371L6.52163 24.7194L6.65567 24.0295L1.44727 23.3327Z" fill="#00953B"/>
<path d="M2.80826 33.8247L6.41396 33.1322L8.96344 31.6961L11.3672 29.3959L13.1519 27.1543L14.0624 25.6348L14.5668 24.4594L14.9936 23.836L16.2854 22.7394L16.886 21.5138L17.1498 20.3855L17.6535 19.4707L18.2931 19.7694L19.1992 20.6975L19.3833 21.2203V23.1725L19.3377 26.1276L19.2854 28.2155L18.6103 30.11L18.9561 33.8247L19.7211 39.7416V41.4857H17.2465H15.4044H12.9916H10.8834L8.17788 41.1478L4.88673 40.7375L3.00105 40.339L1.59709 39.8232L1.36133 39.0847L2.29831 36.4473L2.71995 34.736L2.80826 33.8247Z" fill="#00953B"/>
<path d="M42.3405 20.9389H44.1614L45.8139 20.5423L47.5437 19.409L49.133 17.8624L50.2513 17.0967L51.6131 17.2804L52.3476 18.2193L51.3071 18.547L50.7409 18.9401L49.9606 20.236L49.6328 22.1043V23.7428L50.0371 26.0246L50.3584 27.3798L50.7868 29.2194L50.6032 29.5161L49.2414 29.2194L47.344 28.0306L46.1046 26.7596L44.8499 24.673L43.0138 22.579L42.2793 22.0153L42.3405 20.9389Z" fill="#00953B"/>
<path d="M53.1156 33.8999L53.7246 35.2566L53.4201 36.2396L52.4673 37.6355L51.544 38.363L50.2474 39.1887L47.7722 40.2111L45.0022 40.9222L43.7129 41.1223H43.2734L43.7568 40.7346L43.8669 39.133L43.8197 37.5829L43.7641 35.467L43.7129 33.5569V31.228V30.4346L44.4542 31.1325L45.2029 32.2933L46.231 33.2313L47.1792 33.8866L47.9754 34.2253L48.9906 34.8828L49.2693 34.9836L49.7172 35.082H50.3044L50.9414 34.9326L52.2552 34.1954L53.1156 33.8999Z" fill="#00953B"/>
<path d="M38.7241 28.5609C38.7241 28.5609 40.5064 28.7801 42.061 28.1309L42.3505 28.5529C42.3505 28.5529 40.9494 29.338 38.5879 28.986L38.7241 28.5609Z" fill="#00953B"/>
<path d="M38.3331 29.8161C38.3331 29.8161 40.6991 30.0848 42.7628 29.2891L43.1471 29.8063C43.1471 29.8063 41.2871 30.7685 38.1523 30.3371L38.3331 29.8161Z" fill="#00953B"/>
<path d="M38.1056 31.1872C38.1056 31.1872 41.2256 31.4559 43.9468 30.6602L44.4537 31.1774C44.4537 31.1774 42.001 32.1396 37.8672 31.7082L38.1056 31.1872Z" fill="#00953B"/>
<path d="M38.1056 32.5573C38.1056 32.5573 41.2256 32.826 43.9468 32.0303L44.4537 32.5475C44.4537 32.5475 42.001 33.5097 37.8672 33.0783L38.1056 32.5573Z" fill="#00953B"/>
<path d="M38.0917 33.8464C38.0917 33.8464 41.0299 34.115 43.5926 33.3193L44.0699 33.8365C44.0699 33.8365 41.7601 34.7987 37.8672 34.3674L38.0917 33.8464Z" fill="#00953B"/>
<path d="M37.9593 34.9314C37.9593 34.9314 41.0572 35.2 43.7591 34.4043L44.2623 34.9215C44.2623 34.9215 41.8271 35.8837 37.7227 35.4524L37.9593 34.9314Z" fill="#00953B"/>
<path d="M37.7679 36.2194C37.7679 36.2194 40.8658 36.4881 43.5677 35.6924L44.0709 36.2096C44.0709 36.2096 41.6357 37.1718 37.5312 36.7404L37.7679 36.2194Z" fill="#00953B"/>
<path d="M37.6667 37.3776C37.6667 37.3776 40.8972 37.6463 43.7148 36.8506L44.2395 37.3678C44.2395 37.3678 41.7 38.33 37.4199 37.8986L37.6667 37.3776Z" fill="#00953B"/>
<path d="M37.2854 38.5378C37.2854 38.5378 40.6888 38.8065 43.6571 38.0107L44.21 38.528C44.21 38.528 41.5346 39.4901 37.0254 39.0588L37.2854 38.5378Z" fill="#00953B"/>
<path d="M37.2854 39.697C37.2854 39.697 40.6888 39.9656 43.6571 39.1699L44.21 39.6871C44.21 39.6871 41.5346 40.6493 37.0254 40.218L37.2854 39.697Z" fill="#00953B"/>
<path d="M40.0137 41.0475C40.0137 41.0475 42.3925 41.1248 43.806 40.3291L44.0692 40.8463C44.0692 40.8463 42.7952 41.8085 40.648 41.3772L40.0137 41.0475Z" fill="#00953B"/>
<path d="M19.4469 41.8776C19.3763 41.8556 19.3067 41.8183 19.235 41.8139C18.3882 41.7618 17.5417 41.697 16.694 41.6707C15.6646 41.6387 14.6339 41.6209 13.6043 41.6336C12.8009 41.6436 11.9987 41.7213 11.1953 41.7468C10.5374 41.7676 9.88963 41.6613 9.24422 41.5375C8.81262 41.4548 8.3776 41.3736 7.9404 41.3398C7.07203 41.2726 6.20846 41.1793 5.35353 41.0115C4.57652 40.859 3.79406 40.7293 3.02458 40.5452C2.54153 40.4297 2.06095 40.2694 1.61053 40.0614C1.1695 39.8577 1.0629 39.651 1.20896 39.0612C1.44841 38.0942 1.80167 37.1641 2.16239 36.2367C2.40088 35.6235 2.54441 34.9857 2.60036 34.3282C2.6094 34.222 2.56428 34.1976 2.48214 34.1699C2.24927 34.0914 2.00075 34.0367 1.79135 33.9156C1.23712 33.5949 0.895097 33.0812 0.63235 32.514C0.3667 31.9405 0.238546 31.3301 0.146456 30.7058C0.030905 29.9224 -0.0239926 29.1386 0.00991559 28.3485C0.0329431 27.8119 0.1497 27.292 0.292701 26.7757C0.545031 25.8646 0.789357 24.9513 1.03266 24.0378C1.25908 23.1878 1.47356 22.3345 1.70535 21.4859C1.84427 20.9773 2.00611 20.475 2.15801 19.97C2.31219 19.4574 2.58425 19.0077 2.89988 18.5814C3.34092 17.9857 3.81455 17.4217 4.44789 17.0173C4.92348 16.7136 5.43566 16.4887 5.98138 16.3482C6.52946 16.2072 7.08193 16.0833 7.63182 15.9492C7.6934 15.9341 7.75073 15.9017 7.80849 15.8373C7.73151 15.8279 7.65477 15.8151 7.57752 15.8098C7.23697 15.7866 6.89593 15.7698 6.55569 15.7429C5.86589 15.6883 5.26088 15.4077 4.70906 15.0105C4.13539 14.5975 3.65988 14.09 3.31878 13.4639C3.12643 13.1108 3.05131 12.7277 3.05838 12.3336C3.06908 11.7374 3.2588 11.1993 3.6529 10.7431C3.86317 10.4997 4.11296 10.3191 4.453 10.3654C4.8269 10.4163 4.86489 10.5349 4.8335 10.8117C4.79755 11.1287 4.75075 11.4467 4.74806 11.7646C4.74516 12.1079 4.88309 12.4059 5.14967 12.6364C5.42393 12.8735 5.76229 12.9052 6.08361 12.7303C6.48615 12.5112 6.77089 12.1716 7.04837 11.82C7.42547 11.3421 7.60517 10.7797 7.77219 10.2075C8.09522 9.10086 8.50494 8.03026 9.11254 7.04318C9.52281 6.37668 9.96328 5.73299 10.4836 5.14656C10.5064 5.12088 10.5236 5.09024 10.5156 5.03424C10.4752 5.07178 10.4338 5.10837 10.3945 5.14701C9.57146 5.95457 8.96604 6.91214 8.46316 7.94191C8.09725 8.6912 7.86405 9.48817 7.60224 10.2756C7.37721 10.9525 7.09251 11.6013 6.58333 12.122C6.39044 12.3193 6.17691 12.4867 5.90829 12.5796C5.49485 12.7228 5.08847 12.5126 4.96233 12.0894C4.84028 11.6799 4.90677 11.277 5.00315 10.8806C5.07027 10.6046 5.18446 10.3398 5.28301 10.0719C5.30528 10.0114 5.34276 9.95278 5.38558 9.90417C5.50719 9.76615 5.67111 9.80094 5.72059 9.97694C5.74261 10.0553 5.74112 10.1403 5.74981 10.2223C5.7614 10.3316 5.75992 10.4442 5.7864 10.5498C5.84549 10.7854 5.90808 10.8606 6.15498 10.7858C6.36993 10.7208 6.58948 10.6704 6.80294 10.6011C6.90197 10.5689 6.98282 10.5127 6.9779 10.3759C6.95221 9.66114 7.15355 8.99623 7.43375 8.34876C7.82756 7.43876 8.32041 6.58331 8.84856 5.74654C9.50098 4.71289 10.4142 3.97393 11.4736 3.39419C12.1122 3.04467 12.7654 2.72163 13.4811 2.58097C14.0077 2.47749 14.5507 2.40328 15.0852 2.41006C15.6596 2.41735 16.2336 2.52788 16.806 2.60563C17.3251 2.67612 17.747 2.95501 18.1453 3.27276C18.9248 3.89447 19.4355 4.70685 19.7805 5.6286C19.9864 6.17888 20.1799 6.73489 20.3498 7.29716C20.4284 7.55713 20.4632 7.83736 20.4721 8.10991C20.4896 8.64443 20.4746 9.18 20.4737 9.71514C20.4729 10.2506 20.2675 10.7248 20.0161 11.1791C19.5213 12.0727 19.036 12.973 18.5019 13.8429C18.2277 14.2896 17.8569 14.6769 17.5294 15.0908C17.5057 15.1207 17.4774 15.1469 17.4549 15.1775C17.4465 15.1889 17.4486 15.2081 17.4427 15.2422C17.9911 15.3473 18.426 15.6831 18.891 15.9579C19.0388 16.0453 19.1636 15.9953 19.293 15.9298C19.7435 15.7017 20.1856 15.4546 20.6462 15.2489C21.1416 15.0277 21.6484 14.8284 22.1607 14.6498C22.8551 14.4077 23.5583 14.1901 24.2604 13.9707C24.5695 13.8742 24.8879 13.8074 25.1976 13.7123C25.5632 13.6 25.8746 13.3998 26.0132 13.027C26.0785 12.8513 26.096 12.6491 26.0951 12.459C26.0913 11.6484 26.0763 10.8386 25.9244 10.0367C25.8528 9.65833 25.8279 9.27125 25.77 8.88992C25.7612 8.83197 25.6979 8.75434 25.6429 8.73587C25.2507 8.6039 25.0381 8.33086 25.0397 7.9254C25.0408 7.62568 25.0815 7.32273 25.1401 7.02831C25.1634 6.91114 25.2842 6.8142 25.3573 6.70579C25.3891 6.65853 25.434 6.60668 25.4366 6.5551C25.466 5.96594 25.484 5.37621 25.5148 4.78714C25.5263 4.56709 25.5 4.36503 25.3934 4.16667C25.2691 3.93535 25.3505 3.63144 25.5994 3.39153C25.7599 3.23693 25.9293 3.08226 26.181 3.09049C26.2176 3.09168 26.2586 3.05568 26.2921 3.02976C26.366 2.97255 26.4318 2.90405 26.509 2.85239C26.6438 2.76225 26.7774 2.70093 26.7374 2.47861C26.7078 2.31434 26.965 2.11454 27.204 2.07894C27.4314 2.04507 27.662 2.03236 27.8911 2.00921C27.9266 2.00562 27.9615 1.99594 28.028 1.98296C27.9789 1.92794 27.9537 1.88563 27.9167 1.86049C27.5299 1.59712 27.4423 1.24748 27.6132 0.822211C27.7206 0.555103 27.8452 0.298306 28.0765 0.11252C28.2773 -0.0487018 28.3465 -0.0438931 28.4806 0.173986C28.6937 0.52042 28.9481 0.834895 29.3466 0.948272C29.6921 1.04655 30.0578 1.07685 30.4163 1.12443C30.5512 1.14232 30.5705 1.03462 30.5427 0.934271C30.5211 0.856548 30.4527 0.789922 30.4391 0.712377C30.4204 0.606404 30.4024 0.481387 30.4417 0.389018C30.4878 0.280686 30.6129 0.298399 30.7211 0.3275C30.9546 0.390352 31.1882 0.454259 31.4248 0.503713C31.5242 0.524495 31.6323 0.520946 31.7341 0.508613C31.8977 0.488794 31.9556 0.513894 31.9407 0.669426C31.9167 0.921027 32.045 1.08021 32.2115 1.23832C32.7451 1.74488 33.3559 2.12453 34.0416 2.38726C34.1181 2.41657 34.1899 2.45867 34.2625 2.49747C34.389 2.56508 34.4675 2.66611 34.4575 2.81547C34.4461 2.98729 34.5254 3.09146 34.678 3.16014C35.2683 3.42565 35.4379 3.90009 35.3302 4.50464C35.2405 5.00791 35.1759 5.51854 35.0425 6.01023C34.9271 6.43563 34.8121 6.87285 34.5436 7.24111C34.4814 7.32639 34.4812 7.40639 34.5336 7.50096C34.8761 8.11989 34.6239 9.29222 33.7216 9.59955C33.5881 9.64505 33.4449 9.66996 33.3042 9.68453C33.1906 9.69629 33.1449 9.74393 33.1196 9.85294C33.004 10.3509 32.8686 10.8444 32.7621 11.3442C32.6786 11.7367 32.626 12.1359 32.5618 12.5324C32.544 12.6421 32.6214 12.6752 32.707 12.6968C33.112 12.7989 33.5188 12.8947 33.9217 13.0044C34.3191 13.1126 34.712 13.237 35.1081 13.3502C35.4355 13.4437 35.7632 13.5367 36.0932 13.62C36.6185 13.7526 37.0597 14.0385 37.4615 14.3842C38.0458 14.8871 38.612 15.4109 39.1919 15.919C39.9249 16.5613 40.2257 17.3876 40.2472 18.3393C40.2568 18.7638 40.2767 19.1881 40.2875 19.6125C40.291 19.7469 40.3401 19.7992 40.481 19.7792C40.7478 19.7412 41.0182 19.7268 41.2832 19.6803C41.3557 19.6676 41.464 19.5813 41.4713 19.519C41.5201 19.0969 41.7517 18.7877 42.0429 18.5064C42.4261 18.1363 42.87 17.8515 43.3307 17.5925C43.469 17.5148 43.5342 17.4296 43.5027 17.2674C43.4691 17.0946 43.4509 16.9186 43.4306 16.7435C43.4201 16.652 43.3811 16.6209 43.2878 16.6378C43.1742 16.6582 43.0585 16.6698 42.9432 16.6763C42.4768 16.7024 42.1065 16.4501 41.9533 16.0127C41.839 15.6864 41.7661 15.3515 41.8029 15.0071C41.8403 14.6573 41.7205 14.3481 41.6158 14.0282C41.4842 13.6263 41.3625 13.2201 41.2612 12.8097C41.1558 12.3825 41.0739 11.9492 40.9922 11.5166C40.8093 10.5482 40.7446 9.57641 41.032 8.61801C41.2277 7.96536 41.5502 7.38204 42.1095 6.9577C42.1624 6.91757 42.2075 6.85001 42.2275 6.78618C42.4189 6.17314 42.773 5.66291 43.2145 5.20804C43.2907 5.1295 43.3342 5.07282 43.2628 4.95755C42.7707 4.16327 42.9756 3.17708 43.7346 2.62936C44.1234 2.34881 44.5487 2.2199 45.0247 2.31288C45.157 2.33873 45.2818 2.4029 45.4101 2.44949C45.4063 2.46916 45.4025 2.48883 45.3987 2.5085C45.2196 2.54515 45.0398 2.57882 44.8614 2.61903C44.3841 2.72668 43.9783 2.94425 43.7047 3.3697C43.5042 3.68151 43.4778 4.30123 43.7394 4.56673C43.7833 4.61128 43.8826 4.64722 43.9313 4.62693C43.9735 4.60935 44.0157 4.49306 43.9971 4.44321C43.7908 3.89185 44.0171 3.46928 44.4062 3.11587C44.7385 2.81415 45.1396 2.64414 45.5961 2.60027C45.7606 2.58446 45.9229 2.50939 46.0785 2.44314C46.617 2.21379 47.1588 2.17943 47.7199 2.36236C48.1322 2.49679 48.5555 2.59736 48.9698 2.72616C49.5435 2.90449 50.0356 3.23135 50.456 3.64907C51.3408 4.52837 52.1383 5.48098 52.7513 6.57522C53.1401 7.26908 53.3314 8.02437 53.3879 8.81103C53.4162 9.20404 53.2327 9.55906 53.1076 9.92298C53.0537 10.0796 53.0143 10.2534 53.0214 10.417C53.0935 12.0677 52.4599 13.3951 51.196 14.4324C50.7192 14.8237 50.1439 14.964 49.5428 15.0185C49.4896 15.0234 49.4365 15.0299 49.3497 15.0392C49.4203 15.2327 49.4751 15.4088 49.548 15.577C49.6875 15.8989 49.8383 16.2158 49.982 16.5359C50.0244 16.6301 50.0882 16.6651 50.1914 16.6493C50.9342 16.5355 51.5059 16.8363 51.9831 17.382C52.338 17.7881 52.723 18.1688 53.0639 18.586C53.5533 19.1849 53.9019 19.8624 54.0572 20.6276C54.2799 21.725 54.7259 22.7278 55.3183 23.672C55.7887 24.4218 56.0574 25.2395 56.1259 26.1246C56.1349 26.2416 56.1806 26.3856 56.2614 26.4616C56.5688 26.751 56.7196 27.1196 56.8193 27.5094C56.9396 27.9794 57.005 28.4577 56.9997 28.9484C56.9898 29.8547 56.7061 30.665 56.1362 31.3552C55.3988 32.2484 54.5839 33.069 53.6357 33.7448C53.415 33.9021 53.4118 33.895 53.5308 34.1471C53.6504 34.4003 53.7699 34.6536 53.884 34.9094C54.1124 35.4216 54.0446 35.9097 53.7413 36.3679C53.1024 37.3329 52.3958 38.2418 51.409 38.8767C51.076 39.0909 50.6914 39.2273 50.3241 39.3848C49.79 39.6137 49.2428 39.813 48.7148 40.0547C47.9052 40.4253 47.0993 40.8079 46.2273 41.0042C45.6329 41.138 45.0287 41.2407 44.4235 41.311C43.6253 41.4038 42.8226 41.4941 42.0206 41.5066C41.1519 41.5201 40.2778 41.4815 39.4136 41.3926C38.7502 41.3244 38.0888 41.1694 37.5022 40.8158C37.0973 40.5717 36.7925 40.2549 36.8249 39.7317C36.8261 39.7115 36.8144 39.6905 36.8007 39.6404C36.5566 39.7561 36.3214 39.867 36.0868 39.9791C35.2691 40.3697 34.4526 40.7722 33.5737 41.0012C32.9689 41.1587 32.3445 41.2448 31.726 41.3456C30.2934 41.5792 28.855 41.37 27.4194 41.3807C27.1434 41.3827 26.8678 41.2841 26.59 41.2474C26.1919 41.1947 25.7876 41.1793 25.3937 41.1062C24.843 41.0039 24.295 40.8799 23.7539 40.7349C22.996 40.5319 22.2468 40.296 21.4912 40.0841C21.0577 39.9626 20.6179 39.8634 20.1826 39.7481C20.0337 39.7087 19.9901 39.7618 20.0075 39.9029C20.0271 40.0615 20.0495 40.2204 20.0556 40.3798C20.066 40.6486 20.0732 40.9181 20.0653 41.1869C20.0585 41.4175 20.0288 41.6474 20.0092 41.8776H19.4469ZM23.7559 24.2229C23.7742 24.2198 23.7925 24.2167 23.8108 24.2136C23.8044 24.1195 23.8011 24.0251 23.7909 23.9315C23.7268 23.3452 23.657 22.7596 23.5986 22.1728C23.5817 22.0036 23.5845 21.8301 23.6018 21.661C23.6087 21.5937 23.6793 21.533 23.7209 21.4693C23.779 21.5244 23.8736 21.5706 23.8893 21.6359C23.9986 22.0901 24.1153 22.5447 24.1843 23.0059C24.2926 23.7304 24.3665 24.4601 24.4527 25.1879C24.5654 26.1386 24.6 27.0891 24.4413 28.0392C24.3518 28.5754 24.1843 29.0831 23.9185 29.5591C23.5162 30.2792 22.9035 30.8077 22.2661 31.2928C21.9905 31.5026 21.8872 31.7133 21.8928 32.0248C21.8943 32.1074 21.8936 32.1908 21.8847 32.2728C21.8345 32.7374 21.7979 33.2044 21.7254 33.6656C21.6323 34.2581 21.3383 34.7577 20.8847 35.1402C20.5509 35.4217 20.1786 35.6597 19.811 35.8978C19.6722 35.9876 19.6269 36.0672 19.6707 36.2284C19.7224 36.4188 19.7474 36.617 19.7757 36.813C19.8723 37.4832 19.9705 38.1533 20.0552 38.825C20.0732 38.9679 20.1324 39.0247 20.2624 39.05C20.5052 39.0973 20.7501 39.1403 20.9871 39.2094C21.5297 39.3678 22.0695 39.5365 22.6078 39.7092C23.1302 39.8768 23.6459 40.0661 24.1709 40.2245C24.6015 40.3544 25.0414 40.4533 25.4773 40.5651C25.8547 40.6618 26.2414 40.7313 26.6077 40.8594C27.1304 41.0422 27.6558 41.1431 28.2098 41.0936C28.7802 41.0426 29.3513 40.9975 29.9227 40.9584C30.3839 40.9268 30.8472 40.9208 31.3074 40.8795C31.7235 40.8423 32.1402 40.7913 32.5501 40.7124C33.0461 40.617 33.5558 40.5393 34.0228 40.3589C34.9738 39.9916 35.9 39.5599 36.8371 39.1563C36.9731 39.0977 37.0335 39.0128 37.0254 38.8535C36.9907 38.1646 37.1188 37.4938 37.2683 36.8253C37.3667 36.3851 37.4748 35.9446 37.5314 35.4982C37.6026 34.9357 37.6153 34.366 37.6749 33.8018C37.6975 33.5879 37.6196 33.46 37.473 33.3201C36.9872 32.8566 36.495 32.3968 36.0449 31.8996C35.3447 31.1261 35.2583 30.2184 35.6363 29.2795C35.9611 28.4724 36.1073 27.6356 36.2194 26.7825C36.278 26.3368 36.3877 25.8968 36.4918 25.4584C36.592 25.0359 36.7214 24.6204 36.8227 24.1982C36.8483 24.0916 36.8287 23.9686 36.8077 23.8572C36.7113 23.3445 36.6033 22.834 36.5072 22.3213C36.4495 22.0135 36.6988 21.9028 36.9013 21.9273C37.0619 21.9468 37.1746 21.9145 37.2814 21.8048C37.3188 21.7664 37.3679 21.7297 37.4182 21.715C37.6918 21.6352 37.7276 21.4468 37.667 21.2047C37.647 21.1249 37.6306 21.0409 37.6329 20.9594C37.6378 20.7845 37.6527 20.6098 37.6696 20.4355C37.6837 20.2893 37.7868 20.2094 37.9133 20.1737C38.1511 20.1067 38.3915 20.046 38.634 19.9988C38.9849 19.9304 39.3385 19.8755 39.6912 19.8164C39.8118 19.7963 39.8479 19.7572 39.8139 19.6165C39.7326 19.2802 39.6803 18.9366 39.6237 18.5947C39.5581 18.1985 39.5262 17.7948 39.4325 17.4057C39.3172 16.9267 39.0119 16.5467 38.6608 16.2161C38.1081 15.6957 37.5446 15.1862 36.972 14.6879C36.6177 14.3794 36.2182 14.1298 35.7577 14.0109C35.2686 13.8846 34.7736 13.7811 34.2805 13.6708C34.0965 13.6296 34.0717 13.6506 34.0576 13.8448C33.9919 14.7443 33.641 15.5268 33.0577 16.2019C32.2038 17.19 31.1058 17.692 29.8107 17.7743C29.0882 17.8202 28.4018 17.6763 27.7394 17.3849C27.0925 17.1003 26.5233 16.702 26.0043 16.2306C25.5004 15.773 25.0637 15.2562 24.7441 14.6505C24.5683 14.3173 24.571 14.2988 24.2148 14.4118C23.5665 14.6175 22.9189 14.8277 22.2811 15.0635C21.6589 15.2934 21.0473 15.5527 20.4355 15.8095C20.2175 15.901 20.0123 16.023 19.7645 16.1499C19.9208 16.267 20.0298 16.3587 20.1484 16.4357C20.446 16.6291 20.7424 16.8329 20.9286 17.1377C21.168 17.5296 21.4063 17.9295 21.5801 18.3526C21.9094 19.1541 22.1966 19.9731 22.493 20.7878C22.675 21.2885 22.8345 21.7974 23.0173 22.2979C23.1773 22.7363 23.3567 23.1675 23.5253 23.6028C23.6049 23.8084 23.6792 24.0161 23.7559 24.2229ZM17.7533 19.7061C17.6615 19.9437 17.6306 20.1965 17.4902 20.3467C17.2803 20.5713 17.2357 20.802 17.2651 21.0792C17.2726 21.1499 17.2644 21.2225 17.2615 21.2941C17.2435 21.7326 17.1406 22.1407 16.8608 22.4938C16.5223 22.9211 16.1243 23.2796 15.6662 23.5736C15.4954 23.6833 15.3233 23.7924 15.162 23.9153C14.8146 24.1798 14.7153 24.5844 14.5961 24.9721C14.3769 25.6847 14.0857 26.3629 13.6867 26.9943C12.9821 28.1095 12.1731 29.1435 11.2883 30.1202C10.1476 31.3794 8.88199 32.4761 7.2967 33.1406C6.79773 33.3498 6.27789 33.5181 5.75506 33.6583C5.33712 33.7703 4.89935 33.8068 4.47186 33.8849C4.0716 33.9581 3.67434 34.0479 3.27374 34.1189C3.01962 34.1639 2.99534 34.1635 2.98089 34.4256C2.92482 35.4423 2.58459 36.3809 2.2186 37.3158C1.97863 37.9289 1.72601 38.5395 1.61617 39.1957C1.56691 39.49 1.5945 39.5971 1.86967 39.7031C2.37605 39.8982 2.88516 40.096 3.40854 40.2343C3.96516 40.3813 4.53698 40.4781 5.10699 40.5653C6.01018 40.7033 6.91426 40.8548 7.82379 40.9265C8.70541 40.9959 9.56664 41.1691 10.4373 41.2948C10.8349 41.3523 11.2484 41.3106 11.6541 41.2975C11.9332 41.2885 12.2113 41.2316 12.4899 41.2311C13.0131 41.2302 13.5364 41.2664 14.0597 41.2662C15.2825 41.2655 16.5053 41.251 17.7281 41.2451C18.1854 41.2429 18.643 41.2585 19.1 41.248C19.4669 41.2396 19.4907 41.2015 19.465 40.8464C19.4602 40.7805 19.4472 40.7153 19.4402 40.6496C19.3725 40.0199 19.3014 39.3906 19.2393 38.7604C19.1955 38.3163 19.1841 37.8681 19.1224 37.4268C19.0263 36.7398 18.8826 36.0594 18.7901 35.372C18.6439 34.2855 18.541 33.1929 18.3851 32.1079C18.2993 31.5103 18.1471 30.9219 18.0165 30.3312C17.9606 30.0786 17.8759 29.8413 18.0745 29.5992C18.47 29.1168 18.7298 28.5569 18.8968 27.9603C18.9985 27.5969 19.0985 27.2206 19.1109 26.8471C19.1383 26.027 19.1088 25.2051 19.1044 24.3838C19.1038 24.2738 19.1132 24.1637 19.119 24.0537C19.1661 23.1618 19.2124 22.2698 19.2616 21.378C19.2746 21.1412 19.1929 20.9416 19.0234 20.7853C18.7322 20.5168 18.434 20.2558 18.1341 19.9972C18.0108 19.8909 17.8754 19.7987 17.7533 19.7061ZM6.56182 26.0146C6.62956 25.9844 6.6868 25.9646 6.73837 25.935C7.66088 25.4046 8.58136 24.8707 9.5052 24.3427C10.0411 24.0364 10.5531 23.7026 10.9859 23.2534C11.3097 22.9172 11.6468 22.5922 11.9971 22.2839C12.1584 22.1419 12.2728 21.9886 12.3255 21.7857C12.3545 21.6738 12.3784 21.5605 12.4017 21.4473C12.5857 20.5525 12.7609 19.6559 12.9552 18.7634C13.0984 18.1054 13.3289 17.4745 13.6706 16.893C13.9519 16.4141 14.2423 15.9332 14.7958 15.7081C14.8011 15.7059 14.8002 15.6884 14.7978 15.7008C14.5773 15.5641 14.3462 15.4541 14.1551 15.2957C13.6835 14.9049 13.4001 14.3694 13.112 13.843C12.6347 12.971 12.1723 12.0914 11.7955 11.1694C11.7566 11.0741 11.6831 10.9931 11.6256 10.9055C11.6048 10.9096 11.584 10.9138 11.5631 10.9179C11.5465 10.998 11.5194 11.0776 11.516 11.1583C11.5122 11.2456 11.5352 11.3336 11.5384 11.4216C11.5816 12.6106 11.3033 13.7249 10.7452 14.7702C10.6135 15.0169 10.4672 15.2592 10.3 15.4828C9.83905 16.0994 9.15886 16.2638 8.44521 16.3515C7.99162 16.4072 7.53288 16.441 7.08698 16.5348C6.24785 16.7113 5.46101 17.0306 4.74399 17.5098C3.92885 18.0546 3.33251 18.7867 2.96436 19.6884C2.71784 20.2922 2.54055 20.924 2.32042 21.539C1.94657 22.5835 1.73091 23.6684 1.47443 24.7437C1.33177 25.3418 1.14813 25.9306 0.968541 26.5192C0.820577 27.0042 0.648052 27.4847 0.636486 27.9965C0.617935 28.8174 0.583638 29.6385 0.696197 30.4581C0.800068 31.2144 0.997393 31.937 1.41546 32.5806C1.83143 33.221 2.37246 33.5361 3.12489 33.4008C3.65495 33.3055 4.1927 33.2488 4.72891 33.1931C5.33469 33.1302 5.92105 32.9913 6.48781 32.7745C7.43726 32.4112 8.27524 31.8599 9.05175 31.2118C10.1506 30.2946 11.1192 29.2489 12.0298 28.1485C12.6584 27.389 13.2348 26.5927 13.693 25.7151C13.9448 25.2331 14.1662 24.7268 14.4803 24.288C14.824 23.808 15.243 23.3778 15.6575 22.9537C16.2583 22.3389 16.6719 21.6569 16.629 20.7595C16.6244 20.6625 16.687 20.5461 16.7521 20.4662C16.83 20.3707 16.9371 20.293 17.0441 20.2284C17.2783 20.0869 17.3093 19.8605 17.3433 19.5666C17.1246 19.6245 16.9362 19.668 16.7521 19.7254C16.6218 19.7661 16.5009 19.8409 16.369 19.8706C16.3004 19.886 16.175 19.8581 16.1513 19.8111C16.121 19.7514 16.1458 19.6388 16.1866 19.5741C16.2371 19.4941 16.3183 19.417 16.404 19.3786C16.7079 19.2425 17.0182 19.1204 17.3284 18.9991C17.4983 18.9327 17.5906 18.8076 17.597 18.6073C17.6028 18.4249 17.5047 18.2678 17.3373 18.2083C16.9221 18.0607 16.5252 18.1282 16.1443 18.3257C15.9689 18.4167 15.7986 18.5176 15.628 18.6175C15.5503 18.6629 15.4591 18.7317 15.3999 18.6302C15.3661 18.5724 15.374 18.4421 15.4176 18.3957C15.5697 18.2338 15.7325 18.0748 15.9155 17.9505C16.2044 17.7542 16.5168 17.6044 16.8881 17.662C16.9403 17.6701 17.0124 17.6468 17.0536 17.6121C17.2091 17.4816 17.312 17.3022 17.2691 17.1057C17.2178 16.8712 17.0909 16.6561 16.8335 16.588C16.3742 16.4666 15.9287 16.5493 15.4908 16.7073C15.1277 16.8383 14.8234 17.0623 14.5252 17.2987C14.4539 17.3553 14.3706 17.3966 14.2928 17.445C14.2787 17.4265 14.2646 17.408 14.2505 17.3895C14.4107 17.0233 14.7348 16.8061 15.0363 16.5685C15.3522 16.3197 15.7285 16.2051 16.1221 16.1141C16.0387 15.9336 15.9466 15.8444 15.7536 15.8837C15.2457 15.9872 14.8082 16.2171 14.4695 16.6067C13.8957 17.2664 13.5648 18.0432 13.422 18.9025C13.3587 19.283 13.3062 19.6653 13.2383 20.045C13.1279 20.6626 13.0046 21.2779 12.8968 21.8959C12.8739 22.0272 12.8203 22.1115 12.712 22.1868C12.5375 22.3081 12.3641 22.4363 12.2137 22.5854C12.0581 22.7396 11.9314 22.923 11.7905 23.0923C11.2385 23.7551 10.6464 24.3794 9.89695 24.8196C9.16906 25.247 8.43473 25.668 7.67794 26.0404C7.02973 26.3593 6.34893 26.6135 5.67661 26.8813C5.11167 27.1064 4.51331 27.2608 3.97391 27.5339C2.99431 28.0298 2.25068 28.7485 2.0991 29.9168C2.09336 29.961 2.02895 30.0298 1.99222 30.0295C1.94908 30.0293 1.90046 29.9708 1.86586 29.9281C1.84851 29.9067 1.85483 29.8644 1.85411 29.8315C1.8371 29.0602 2.10085 28.3946 2.63137 27.8414C3.2029 27.2453 3.92724 26.9062 4.70396 26.6734C5.0825 26.5599 5.47199 26.4834 5.85435 26.3819C5.91602 26.3656 5.98992 26.3184 6.0174 26.2646C6.09445 26.1138 6.17495 25.9573 6.20962 25.7935C6.30637 25.3367 6.38412 24.8757 6.46303 24.4152C6.59861 23.624 6.52685 22.8452 6.31433 22.0754C6.26612 21.9008 6.22555 21.7241 6.18146 21.5484L6.23446 21.5198C6.28303 21.5651 6.35214 21.6014 6.37666 21.6572C6.49046 21.9165 6.61434 22.1746 6.69343 22.4452C6.90287 23.1617 6.88641 23.8957 6.79465 24.6269C6.73733 25.0837 6.64346 25.5359 6.56182 26.0146ZM43.2515 6.92898C43.2454 6.90981 43.2394 6.89065 43.2333 6.87148C43.1308 6.8912 43.0155 6.88716 42.928 6.93459C42.4474 7.19516 42.0915 7.59132 41.7996 8.04345C41.3632 8.71942 41.2813 9.48017 41.2973 10.2625C41.3185 11.2979 41.4813 12.3133 41.7232 13.3171C41.8208 13.722 41.9858 14.1007 42.2637 14.4168C42.3274 14.4893 42.4315 14.5595 42.5227 14.5677C42.7394 14.5873 42.9595 14.5667 43.1781 14.5683C43.2282 14.5687 43.2781 14.5933 43.328 14.6067C43.3021 14.6564 43.2823 14.7111 43.2479 14.754C43.226 14.7813 43.184 14.8013 43.1482 14.8073C42.8946 14.85 42.6409 14.8933 42.3858 14.9253C42.2933 14.9368 42.2365 14.9574 42.2511 15.0624C42.2834 15.2965 42.2991 15.5344 42.3521 15.7637C42.4109 16.0176 42.5956 16.162 42.8255 16.1806C43.0973 16.2025 43.3221 16.0715 43.4451 15.8386C43.5005 15.7334 43.5842 15.6435 43.6525 15.5449C43.8141 15.3114 44.004 15.0914 44.1272 14.8389C44.273 14.5402 44.3651 14.2146 44.4729 13.8981C44.7045 13.2173 44.9561 12.5419 45.1532 11.8511C45.3602 11.1251 45.269 10.4068 44.9321 9.73059C44.7536 9.37225 44.5426 9.03023 44.3518 8.67788C44.2999 8.58218 44.1938 8.46111 44.3183 8.37035C44.4346 8.28556 44.5331 8.40001 44.612 8.4837C45.2522 9.16294 45.5904 9.98152 45.6607 10.9015C45.7164 11.6291 45.5149 12.3198 45.2463 12.9898C45.0748 13.4175 44.8874 13.8391 44.7269 14.2709C44.6122 14.5795 44.5408 14.9041 44.431 15.2149C44.3182 15.5346 44.1406 15.8196 43.7991 15.9304C43.6369 15.9831 43.6433 16.0641 43.6744 16.1865C43.7488 16.4793 43.8202 16.7729 43.8937 17.0659C43.9717 17.3769 44.0988 17.6553 44.3737 17.8487C44.6927 18.0733 45.0418 18.2052 45.4317 18.2163C46.2781 18.2402 47.0856 18.1194 47.8004 17.6107C48.1394 17.3694 48.4951 17.1492 48.8558 16.9415C49.0328 16.8396 49.2386 16.7878 49.4366 16.7113C49.426 16.674 49.4198 16.6479 49.4112 16.6226C49.2943 16.2798 49.1643 15.9407 49.0643 15.593C48.9968 15.3583 48.884 15.1799 48.6704 15.0566C48.5723 15 48.4846 14.9171 48.409 14.8313C48.201 14.5952 48.2304 14.4901 48.5004 14.3369C48.8145 14.1586 49.1283 13.9768 49.4248 13.7714C49.6222 13.6347 49.7825 13.4452 49.9736 13.298C50.0338 13.2517 50.1687 13.2264 50.2187 13.2623C50.2819 13.3077 50.3162 13.4244 50.3198 13.5122C50.3225 13.5778 50.2652 13.6525 50.2202 13.7123C50.0025 14.0017 49.7321 14.2326 49.4238 14.4216C49.3477 14.4682 49.2829 14.5334 49.2129 14.59C49.76 14.564 50.2644 14.4376 50.7232 14.1723C51.2735 13.8542 51.7493 13.4553 52.045 12.8743C52.3595 12.2566 52.4418 11.5873 52.4899 10.9091C52.5133 10.5792 52.5435 10.2496 52.583 9.92139C52.5937 9.83309 52.6476 9.74928 52.6857 9.6652C52.7486 9.52618 52.8455 9.39466 52.8739 9.24937C52.9791 8.71046 52.8904 8.18524 52.7032 7.67604C52.3721 6.77511 51.885 5.96499 51.2897 5.21308C50.4689 4.17621 49.4986 3.3519 48.2066 2.97089C47.4845 2.75792 46.754 2.60483 45.9971 2.78017C45.6036 2.87132 45.2213 2.99349 44.8973 3.24508C44.5881 3.48513 44.3581 3.77746 44.3339 4.1911C44.3273 4.30419 44.3578 4.35271 44.4843 4.33208C44.6912 4.29835 44.8522 4.20557 44.9773 4.03542C45.1117 3.85283 45.2758 3.70021 45.4974 3.61349C45.4097 3.78768 45.322 3.96187 45.2282 4.14816C45.2817 4.16079 45.3173 4.17115 45.3535 4.17739C45.5595 4.21288 45.7713 4.22795 45.9707 4.28588C46.5512 4.45451 46.9359 4.86755 47.2166 5.37569C47.5656 6.00733 47.8226 6.67952 48.0174 7.37534C48.2241 8.11374 48.2183 8.84414 47.9463 9.56576C47.8708 9.76594 47.7839 9.96181 47.7091 10.1622C47.6893 10.2152 47.6951 10.2778 47.6892 10.336C47.7454 10.3352 47.8134 10.3546 47.8559 10.3299C48.001 10.2456 48.1517 10.1612 48.2729 10.0476C48.404 9.92459 48.5003 9.76511 48.6202 9.62901C48.6697 9.57283 48.7412 9.53608 48.8064 9.48774C48.833 9.5294 48.8476 9.54214 48.8493 9.55644C48.9239 10.172 48.9656 10.7924 48.825 11.3996C48.6728 12.0567 48.3499 12.6403 47.9239 13.1625C47.6892 13.4503 47.4025 13.6696 47.0259 13.7369C46.965 13.7478 46.8961 13.7144 46.8309 13.7015C46.8453 13.635 46.8421 13.556 46.8781 13.5047C46.9437 13.4112 47.0266 13.3272 47.1127 13.2512C47.7043 12.7293 48.1253 12.0948 48.3543 11.3402C48.4278 11.0982 48.4565 10.8426 48.5056 10.5932C48.4878 10.5846 48.4699 10.5759 48.4521 10.5673C48.4017 10.5949 48.3503 10.6209 48.3011 10.6505C48.0574 10.7969 47.7987 10.9026 47.5117 10.9124C47.2221 10.9223 47.1122 10.78 47.2014 10.5052C47.3182 10.1452 47.4558 9.79191 47.5697 9.43103C47.6997 9.01865 47.7755 8.59763 47.7126 8.16115C47.579 7.2353 47.2381 6.37812 46.8199 5.55281C46.6021 5.12298 46.2468 4.82323 45.7645 4.69081C45.3517 4.57748 44.9605 4.64318 44.5698 4.78474C43.7619 5.07754 43.2186 5.65365 42.8246 6.39539C42.8392 6.40381 42.8485 6.41367 42.8575 6.41349C42.8791 6.41305 42.9016 6.41071 42.9221 6.4042C43.2048 6.31464 43.4563 6.39266 43.6429 6.60078C43.9747 6.97081 44.1161 7.41241 44.0483 7.91376C44.0316 8.03733 43.9644 8.07528 43.8543 8.04891C43.8022 8.03644 43.7479 8.01442 43.7058 7.98219C43.5152 7.83661 43.3356 7.79743 43.1142 7.94606C43.0396 7.99617 42.8756 7.96587 42.7793 7.91804C42.6452 7.85138 42.6016 7.70105 42.6513 7.55884C42.6861 7.4591 42.752 7.36124 42.8278 7.28679C42.9593 7.15763 43.1093 7.04724 43.2515 6.92898ZM41.0493 23.9148C41.0493 23.913 41.0493 23.9111 41.0493 23.9093C41.4346 23.9093 41.8199 23.9057 42.2052 23.9113C42.3365 23.9132 42.4703 23.9261 42.5979 23.9557C42.739 23.9884 42.7729 24.1168 42.6683 24.2173C42.6079 24.2753 42.5268 24.3293 42.447 24.3456C42.3082 24.3739 42.1624 24.3652 42.021 24.3835C41.821 24.4094 41.6169 24.4273 41.4244 24.4826C41.2092 24.5444 41.0107 24.6655 40.7949 24.7236C40.1865 24.8873 39.5643 24.966 38.9335 24.9713C38.895 24.9717 38.851 24.9646 38.8194 24.9805C38.7805 25 38.7261 25.0398 38.7258 25.0713C38.7254 25.1074 38.7707 25.1645 38.8074 25.1758C38.868 25.1946 38.9386 25.1914 39.0035 25.1843C39.2881 25.153 39.5717 25.1109 39.8568 25.0844C40.1031 25.0616 40.3508 25.0511 40.5982 25.044C40.6434 25.0427 40.6899 25.0836 40.7359 25.105C40.6937 25.1389 40.6564 25.1851 40.6083 25.2038C40.5322 25.2335 40.4498 25.2525 40.3684 25.2627C39.8985 25.3212 39.4277 25.3725 38.9585 25.4357C38.8962 25.4442 38.8411 25.5067 38.7827 25.5441C38.8444 25.5707 38.9065 25.6204 38.9679 25.6196C39.1493 25.6173 39.3314 25.6023 39.5114 25.579C39.805 25.5408 40.1094 25.5299 40.3871 25.4394C40.8484 25.2891 41.3034 25.143 41.7922 25.1017C42.0283 25.0817 42.2614 24.9935 42.4887 24.9153C42.6662 24.8544 42.8102 24.8679 42.8684 24.9896C42.9201 25.0975 42.8504 25.244 42.7047 25.3302C42.6814 25.344 42.655 25.3559 42.6286 25.3605C42.44 25.3928 42.252 25.4361 42.0618 25.4513C41.6495 25.4842 41.2348 25.5051 40.8497 25.6724C40.7602 25.7112 40.6373 25.8041 40.6327 25.8786C40.6244 26.0108 40.7662 26.0464 40.8852 26.0587C41.1315 26.0843 41.3779 26.1107 41.6248 26.1277C42.1451 26.1637 42.2939 26.3863 42.1329 26.8833C42.0455 27.153 42.0457 27.4193 42.1671 27.6872C42.3685 28.1317 42.6869 28.489 43.0049 28.8461C43.6499 29.5705 44.2602 30.3172 44.7338 31.1715C45.2428 32.0898 45.9346 32.8627 46.793 33.46C47.3581 33.8533 47.98 34.1654 48.5807 34.5064C48.824 34.6445 49.0665 34.8042 49.3306 34.8817C50.0181 35.0834 50.6846 34.9816 51.3007 34.6167C51.7117 34.3733 52.1033 34.0972 52.5138 33.853C52.8057 33.6794 53.1278 33.5553 53.4134 33.3731C54.2445 32.843 54.9225 32.1439 55.5258 31.3718C56.1041 30.6319 56.4213 29.7991 56.3541 28.8459C56.3212 28.3793 56.2923 27.9121 56.137 27.4625C56.0134 27.1048 55.8194 26.957 55.4418 27.0058C55.1752 27.0403 54.9087 27.092 54.6494 27.1626C54.011 27.3366 53.4006 27.5876 52.834 27.9288C52.4309 28.1716 52.0478 28.4477 51.6594 28.7143C51.5682 28.777 51.5398 28.8613 51.6196 28.9681C51.6981 29.0732 51.7534 29.1953 51.8282 29.3035C51.9038 29.4129 51.894 29.5049 51.8052 29.5997C51.6413 29.7745 51.4308 29.7625 51.2205 29.7515C50.8688 29.733 50.5171 29.7143 50.1656 29.6915C50.0674 29.6852 49.9662 29.6773 49.8732 29.648C49.6171 29.5674 49.3629 29.4795 49.1109 29.3867C48.0558 28.9982 47.1466 28.3822 46.3635 27.5822C46.1259 27.3395 45.9311 27.055 45.7129 26.7929C45.6857 26.7602 45.6349 26.7473 45.5951 26.7252C45.5847 26.7697 45.5645 26.8145 45.5656 26.8587C45.5694 27.0074 45.6076 27.1606 45.5822 27.3031C45.5534 27.4651 45.4843 27.6252 45.4043 27.7704C45.3729 27.8272 45.2644 27.8414 45.191 27.8751C45.1796 27.7989 45.1547 27.7217 45.1597 27.6466C45.1692 27.5047 45.2079 27.3643 45.2132 27.2225C45.2293 26.7901 45.1653 26.3671 45.0596 25.9474C44.9087 25.3481 44.6547 24.8047 44.1951 24.3845C43.8097 24.0323 43.4036 23.7021 42.9968 23.3744C42.7263 23.1565 42.4132 23.0316 42.0603 23.0045C41.381 22.9523 40.7166 23.0269 40.0809 23.2669C39.8553 23.3521 39.6574 23.5148 39.4549 23.6538C39.4108 23.6841 39.382 23.7649 39.3838 23.8213C39.3846 23.8465 39.4771 23.8849 39.5303 23.8892C39.7167 23.9044 39.904 23.9117 40.091 23.9138C40.4104 23.9174 40.7299 23.9148 41.0493 23.9148ZM43.531 33.4468C43.5174 33.4468 43.5038 33.4467 43.4902 33.4467C43.4902 32.509 43.4899 31.5714 43.4904 30.6337C43.4905 30.3827 43.4252 30.1563 43.2572 29.9634C43.1161 29.8015 42.981 29.6343 42.8403 29.4721C42.4185 28.9858 41.9929 28.5033 41.6886 27.9281C41.6606 27.8751 41.5589 27.833 41.4926 27.8346C41.3795 27.8374 41.2686 27.8914 41.1547 27.9021C40.5084 27.9629 39.8619 28.0209 39.2147 28.0701C39.1096 28.0781 39.0471 28.1124 39.0152 28.2046C38.9812 28.3031 38.9524 28.4037 38.9249 28.5043C38.7609 29.1037 38.6161 29.709 38.4296 30.3012C38.2449 30.8875 38.085 31.4729 38.0978 32.0937C38.1094 32.6555 38.1424 33.2183 38.1218 33.779C38.0992 34.3942 38.0353 35.0086 37.9711 35.6214C37.939 35.9272 37.866 36.2287 37.8117 36.5322C37.7205 37.0418 37.6041 37.5484 37.5449 38.0616C37.4769 38.6524 37.4569 39.2489 37.4224 39.8433C37.4154 39.9632 37.4165 40.0907 37.4505 40.2037C37.4798 40.3009 37.5423 40.412 37.6239 40.464C37.7506 40.5449 37.9015 40.6064 38.0498 40.6317C38.9441 40.7843 39.8378 40.9456 40.7371 41.0622C41.5831 41.1718 42.4312 41.1334 43.2659 40.935C43.4809 40.8839 43.6441 40.754 43.6649 40.5258C43.6966 40.1766 43.7173 39.8246 43.7115 39.4742C43.7013 38.8634 43.6669 38.2529 43.6437 37.6422C43.636 37.4386 43.6392 37.2343 43.6245 37.0313C43.5986 36.6744 43.5411 36.3185 43.5353 35.9616C43.5218 35.1235 43.531 34.285 43.531 33.4468ZM19.3962 6.49432C19.3924 6.44677 19.3966 6.41818 19.3871 6.39531C19.324 6.24326 19.2649 6.08893 19.1916 5.94177C18.806 5.16742 18.226 4.54255 17.6395 3.92181C17.5147 3.78979 17.4161 3.80836 17.2693 3.88619C16.8144 4.12734 16.3573 4.3673 15.8865 4.57433C15.385 4.79482 14.8578 4.95717 14.3577 5.1804C13.3173 5.6448 12.6394 6.45757 12.2526 7.51244C12.1153 7.88702 12.0459 8.2869 11.9504 8.67642C11.8463 9.10067 11.686 9.2418 11.2748 9.2748C11.2112 9.2799 11.1509 9.32535 11.0891 9.35214C11.1172 9.41315 11.135 9.48228 11.1753 9.5337C11.3181 9.71581 11.2845 9.8915 11.0592 9.9284C10.8912 9.95592 10.7062 9.9045 10.533 9.86824C10.3706 9.83426 10.2365 9.92515 10.2641 10.0898C10.2955 10.2768 10.3569 10.4663 10.5537 10.5406C10.7885 10.6292 11.0302 10.7057 11.2751 10.7583C11.369 10.7785 11.49 10.7379 11.5812 10.6909C11.7739 10.5916 11.7798 10.5766 11.8891 10.7765C12.2762 11.4843 12.6469 12.2012 13.0401 12.9055C13.3639 13.4856 13.6763 14.0744 14.1166 14.5813C14.4494 14.9645 14.8631 15.2229 15.3517 15.3269C16.2093 15.5096 16.9231 15.2383 17.4434 14.5331C17.6601 14.2394 17.8296 13.9071 17.993 13.5786C18.3205 12.9202 18.614 12.2446 18.9499 11.5906C19.2635 10.9799 19.6185 10.3889 19.8137 9.72531C20.0738 8.84109 19.9622 7.98973 19.5258 7.18601C19.3628 6.88577 19.1113 6.69527 18.7331 6.72506C18.5893 6.73638 18.4386 6.69973 18.2958 6.66529C18.2397 6.65176 18.1513 6.57725 18.1567 6.54317C18.1688 6.46747 18.2171 6.35659 18.2755 6.33787C18.3947 6.29965 18.5349 6.28792 18.6584 6.31004C18.8994 6.35318 19.1349 6.42709 19.3962 6.49432ZM43.8194 40.9224C44.0473 40.8912 44.2439 40.8738 44.4364 40.8362C45.0081 40.7245 45.5788 40.6078 46.1487 40.4875C46.8496 40.3396 47.5236 40.1113 48.1732 39.8075C48.8189 39.5054 49.4633 39.1992 50.1199 38.9224C50.6343 38.7055 51.1425 38.4914 51.5344 38.0744C51.6096 37.9944 51.6954 37.9245 51.7752 37.8488C52.3238 37.3288 52.8449 36.7856 53.2295 36.1268C53.4178 35.8043 53.5066 35.4694 53.3606 35.1037C53.2489 34.8237 53.1445 34.5404 53.0214 34.2656C53.0043 34.2274 52.8884 34.1998 52.8358 34.2181C52.7128 34.2609 52.6004 34.3343 52.4839 34.3958C52.0045 34.6487 51.5429 34.9473 51.0413 35.1439C50.36 35.4109 49.6361 35.3903 48.952 35.1481C48.4124 34.957 47.8928 34.6964 47.3879 34.423C46.4874 33.9352 45.6902 33.3069 45.0119 32.5343C44.6623 32.1362 44.3591 31.7059 44.1143 31.2347C44.0785 31.1657 44.0167 31.1102 43.9669 31.0485C43.9491 31.0566 43.9313 31.0647 43.9135 31.0728C43.9053 31.2086 43.8898 31.3443 43.89 31.4801C43.8918 32.6546 43.8851 33.8292 43.9048 35.0035C43.9154 35.6309 43.9874 36.2572 44.0057 36.8848C44.0311 37.7556 44.0386 38.6271 44.0396 39.4983C44.04 39.7773 44.0072 40.0579 43.9676 40.3347C43.9408 40.5225 43.8758 40.7049 43.8194 40.9224ZM34.0937 7.46124C34.0195 7.28756 33.8824 7.24615 33.7506 7.35669C33.7085 7.39199 33.6761 7.4407 33.6307 7.46976C33.5741 7.50598 33.5085 7.52821 33.4468 7.55649C33.4216 7.49198 33.3788 7.42858 33.3747 7.36277C33.3614 7.14838 33.3739 6.93212 33.3557 6.71834C33.2871 5.91125 33.2112 5.10476 33.1346 4.29837C33.1292 4.24116 33.1091 4.17543 33.0733 4.13253C32.6423 3.6163 32.1333 3.203 31.4797 3.00765C31.0174 2.86949 30.5494 2.74714 30.0786 2.64167C29.7085 2.55876 29.332 2.49454 28.9479 2.55824C28.6546 2.60688 28.3596 2.6456 28.0669 2.69724C28.008 2.70763 27.9452 2.74575 27.9022 2.78899C27.6014 3.09122 27.3492 3.42534 27.178 3.82274C26.9645 4.31802 26.7453 4.8086 26.6594 5.34714C26.5925 5.76582 26.5216 6.18404 26.4412 6.60028C26.4048 6.78874 26.3553 6.97743 26.2862 7.15609C26.1946 7.3925 26.0076 7.41822 25.8437 7.23302C25.8218 7.20828 25.8032 7.17998 25.7788 7.15817C25.6668 7.05811 25.5351 7.07047 25.4909 7.21176C25.4293 7.40861 25.3947 7.61657 25.374 7.82235C25.3648 7.91373 25.39 8.03796 25.4492 8.09984C25.5338 8.18845 25.6639 8.23359 25.7746 8.29729C25.8195 8.21603 25.8685 8.13674 25.9079 8.05291C25.9405 7.98358 25.9477 7.89834 25.9918 7.83949C26.0367 7.77966 26.121 7.69885 26.1737 7.70819C26.2407 7.72006 26.3162 7.80372 26.3458 7.8742C26.3779 7.95059 26.3648 8.04739 26.3655 8.13534C26.3697 8.6427 26.3532 9.15119 26.3827 9.65702C26.3995 9.94461 26.4455 10.2469 26.5562 10.5097C27.0037 11.5715 27.7525 12.3853 28.7365 12.9717C29.1584 13.2232 29.6256 13.2769 30.1038 13.0998C30.4725 12.9632 30.7759 12.728 31.0638 12.4722C31.9626 11.6739 32.6764 10.7716 32.7401 9.49716C32.754 9.22106 32.8467 9.17019 33.1233 9.20385C33.2108 9.21448 33.2999 9.22091 33.3844 9.2436C33.5633 9.29164 33.7196 9.24547 33.8719 9.15383C34.2576 8.92171 34.3458 8.35974 34.1911 7.95674C34.1788 7.9246 34.1293 7.8945 34.092 7.88629C33.9274 7.84999 33.8618 7.91625 33.8632 8.1074C33.8648 8.33104 33.7598 8.47293 33.5538 8.53946C33.4314 8.57902 33.3968 8.51737 33.4126 8.41735C33.4201 8.3692 33.458 8.31422 33.4985 8.28521C33.5919 8.21832 33.6034 8.14526 33.5638 8.04249C33.4895 7.84939 33.5469 7.68321 33.7306 7.58897C33.8402 7.53275 33.9646 7.50543 34.0937 7.46124ZM51.9848 18.126C51.7712 17.7616 51.5112 17.5111 51.1665 17.3528C50.9884 17.2709 50.8126 17.1675 50.6013 17.2327C50.0932 17.3897 49.6588 17.6575 49.278 18.0349C48.6057 18.7011 47.9619 19.4007 47.1907 19.9594C46.2366 20.6505 45.2172 21.1494 43.9922 21.0875C43.5475 21.065 43.0997 21.103 42.6534 21.1119C42.5634 21.1137 42.4839 21.1221 42.4886 21.2417C42.4973 21.4622 42.5006 21.6831 42.5193 21.9027C42.5222 21.9371 42.6074 22.0005 42.6326 21.9912C42.8233 21.9206 42.9346 22.0225 43.0422 22.1532C43.2346 22.387 43.4259 22.6219 43.6256 22.8493C44.0869 23.3744 44.5601 23.8891 45.0151 24.4196C45.459 24.9372 45.8878 25.4679 46.3193 25.996C46.3987 26.0931 46.4714 26.1997 46.5258 26.3123C46.6234 26.5146 46.6924 26.7311 46.7954 26.9303C47.0264 27.3772 47.404 27.6924 47.7952 27.989C48.3645 28.4204 49.0017 28.7291 49.6661 28.9807C49.919 29.0764 50.1838 29.1407 50.4431 29.2193C50.4581 29.2051 50.473 29.191 50.488 29.1768C50.4602 29.0349 50.4388 28.8914 50.4034 28.7515C50.2631 28.1972 50.1355 27.6389 49.9709 27.0918C49.7962 26.5113 49.6377 25.9277 49.5602 25.3272C49.4364 24.3689 49.3791 23.4041 49.4146 22.4386C49.4335 21.9226 49.4817 21.4021 49.5807 20.8961C49.7171 20.1994 50.037 19.5692 50.4248 18.9757C50.7469 18.4826 51.1696 18.1551 51.7872 18.1481C51.8396 18.1475 51.8919 18.1367 51.9848 18.126ZM19.5586 22.8925C19.542 22.8926 19.5254 22.8926 19.5088 22.8926C19.5088 23.6089 19.5084 24.3252 19.5097 25.0415C19.5098 25.1018 19.517 25.163 19.5291 25.2221C19.6093 25.6169 19.6797 26.0113 19.6277 26.4182C19.6162 26.5079 19.6386 26.6056 19.6615 26.6954C19.7171 26.9137 19.7865 27.1284 19.8426 27.3466C20.0089 27.9933 20.2586 28.5964 20.7159 29.0988C20.9715 29.3796 21.2097 29.6763 21.4673 29.9552C21.6402 30.1423 21.8578 30.241 22.1218 30.1805C22.9317 29.995 23.5857 29.3145 23.7272 28.4242C23.8426 27.6977 23.7253 26.984 23.5368 26.283C23.4085 25.8058 23.2588 25.3341 23.1081 24.8633C22.9726 24.4397 22.8275 24.019 22.6782 23.6001C22.4883 23.0674 22.2806 22.541 22.0984 22.0058C21.9727 21.6367 21.8861 21.2545 21.7662 20.8833C21.6025 20.3765 21.433 19.8712 21.2491 19.3716C20.9872 18.6599 20.666 17.9837 20.0748 17.4711C19.675 17.1245 19.2722 16.7855 18.8011 16.5374C18.6851 16.4764 18.5716 16.431 18.445 16.5084C18.2394 16.6342 18.0258 16.7481 17.829 16.8862C17.648 17.0132 17.6558 17.0402 17.8265 17.1899C17.839 17.2008 17.853 17.2098 17.8654 17.2208C18.1733 17.4952 18.484 17.7665 18.7859 18.0474C18.8334 18.0915 18.8785 18.1954 18.8578 18.2417C18.8306 18.3026 18.7425 18.3495 18.6709 18.3743C18.5231 18.4255 18.4023 18.3606 18.3048 18.2487C18.1168 18.033 17.9339 17.8127 17.7394 17.6032C17.6987 17.5594 17.6164 17.5543 17.5533 17.5314C17.546 17.6129 17.5115 17.7051 17.5383 17.7731C17.5705 17.8547 17.6488 17.9226 17.7179 17.9844C17.9184 18.1634 17.99 18.3917 17.9883 18.6506C17.9876 18.7554 17.9702 18.8615 17.9825 18.9644C17.9937 19.0572 18.0083 19.1733 18.0677 19.2326C18.3581 19.5226 18.6447 19.8226 18.9698 20.0704C19.345 20.3565 19.5541 20.705 19.5576 21.1733C19.5618 21.7463 19.5586 22.3194 19.5586 22.8925ZM50.8045 28.5611C50.8422 28.5547 50.8604 28.5562 50.8731 28.5486C50.9056 28.5288 50.9374 28.5069 50.9665 28.4824C51.779 27.798 52.6627 27.2345 53.6555 26.8425C54.2794 26.5962 54.9311 26.5173 55.5887 26.4587C55.7151 26.4474 55.7572 26.4152 55.7492 26.2812C55.7156 25.7182 55.5788 25.1832 55.3171 24.6855C54.9389 23.9663 54.533 23.2614 54.166 22.5367C53.876 21.964 53.6391 21.3679 53.4823 20.7396C53.3884 20.3637 53.259 19.9929 53.1067 19.6364C52.9575 19.2872 52.756 18.9592 52.4284 18.7402C52.1095 18.5271 51.7758 18.4748 51.4182 18.6613C50.9954 18.8819 50.7191 19.2386 50.4813 19.6338C50.0078 20.421 49.8467 21.2972 49.8091 22.1939C49.7719 23.0807 49.8062 23.9687 50.0007 24.8413C50.1238 25.3939 50.2572 25.9443 50.3815 26.4966C50.4732 26.9041 50.5601 27.3126 50.6444 27.7217C50.7018 27.9998 50.7511 28.2797 50.8045 28.5611ZM25.2943 14.3655C25.3274 14.4382 25.3442 14.4909 25.3731 14.5359C25.5481 14.8088 25.7152 15.0878 25.9049 15.3502C26.3182 15.9219 26.8133 16.4067 27.4261 16.7693C27.9713 17.0919 28.5652 17.2131 29.1853 17.2613C30.0018 17.3248 30.7918 17.2306 31.5338 16.87C32.264 16.5151 32.8088 15.9587 33.1965 15.2503C33.432 14.82 33.5791 14.3631 33.5355 13.861C33.527 13.7626 33.4953 13.7138 33.3883 13.7061C33.2129 13.6936 33.0384 13.6661 32.8637 13.6429C32.588 13.6062 32.3639 13.4737 32.264 13.2139C32.1746 12.9811 32.1369 12.7284 32.0765 12.4845C32.0631 12.4304 32.0501 12.3761 32.0281 12.286C31.7533 12.5457 31.5024 12.7724 31.3269 13.0682C31.1614 13.3473 30.9456 13.5707 30.6232 13.6522C30.3477 13.7218 30.0684 13.7934 29.7868 13.8177C29.1757 13.8704 28.6116 13.7192 28.1064 13.3591C27.6396 13.0263 27.3506 12.5542 27.0736 12.0704C26.9668 11.8839 26.8551 11.7001 26.7456 11.5151C26.731 11.5205 26.7163 11.5259 26.7016 11.5313C26.6932 11.5719 26.6807 11.6122 26.6771 11.6533C26.647 11.9936 26.6232 12.3345 26.5884 12.6743C26.5427 13.1211 26.4697 13.5589 26.1425 13.9059C25.9166 14.1454 25.6387 14.2877 25.2943 14.3655ZM49.7144 17.2453C49.7136 17.2293 49.7129 17.2134 49.7122 17.1975C49.6035 17.1902 49.4805 17.1465 49.3888 17.1825C49.1151 17.2898 48.8274 17.392 48.5926 17.5618C47.9209 18.0478 47.2262 18.461 46.3827 18.5633C45.8882 18.6232 45.3987 18.6565 44.9069 18.5316C44.4671 18.42 44.1294 18.1588 43.8193 17.847C43.6682 17.6951 43.6741 17.7031 43.5207 17.8433C43.2453 18.0949 42.961 18.3368 42.6804 18.5828C42.5077 18.7343 42.319 18.8714 42.1666 19.0411C41.9982 19.2287 42.0384 19.3443 42.2254 19.5035C42.3196 19.5837 42.4132 19.7035 42.4366 19.8196C42.4774 20.0218 42.4731 20.2352 42.4696 20.4435C42.4671 20.5949 42.5097 20.6627 42.6727 20.6653C43.1134 20.6723 43.5539 20.6933 43.9944 20.709C44.5136 20.7275 45.0171 20.6419 45.4936 20.4399C46.2735 20.1092 46.9728 19.6405 47.6169 19.097C48.1211 18.6714 48.5905 18.2048 49.0816 17.7633C49.2841 17.5813 49.503 17.4174 49.7144 17.2453ZM36.846 25.8251C36.8186 25.8769 36.7792 25.9238 36.7679 25.9767C36.6361 26.5949 36.4906 27.211 36.3849 27.8337C36.2779 28.4641 36.1304 29.0813 35.9448 29.6928C35.8136 30.1253 35.8166 30.5687 36.0401 30.9779C36.3569 31.5582 36.8114 32.0327 37.2592 32.5103C37.343 32.5995 37.4067 32.5771 37.4367 32.4491C37.4957 32.1974 37.5397 31.942 37.6034 31.6915C37.7644 31.0582 37.9173 30.4222 38.1025 29.7959C38.3161 29.074 38.4725 28.3469 38.4703 27.5903C38.47 27.4809 38.4344 27.4182 38.3368 27.3716C37.9834 27.2027 37.6866 26.9588 37.4474 26.6506C37.2432 26.3874 37.0543 26.1123 36.846 25.8251ZM42.1049 21.4262C42.1028 21.4261 42.1007 21.426 42.0986 21.426C42.0907 21.2773 42.0847 21.1285 42.0744 20.98C42.064 20.8315 42.0479 20.6833 42.0368 20.5348C42.0063 20.1237 42.0069 20.1181 41.592 20.1092C40.6518 20.0891 39.7243 20.2258 38.7962 20.35C38.6279 20.3725 38.462 20.4124 38.2947 20.4426C38.1848 20.4624 38.1536 20.5302 38.1675 20.6333C38.2401 21.173 38.3085 21.7134 38.3894 22.2519C38.3953 22.2913 38.4903 22.3487 38.5403 22.3453C39.4248 22.2847 40.3089 22.2174 41.1927 22.1481C41.4398 22.1287 41.6858 22.0975 41.9325 22.073C42.0548 22.0609 42.1204 22.0129 42.1079 21.8726C42.0947 21.7249 42.1049 21.5751 42.1049 21.4262ZM21.6427 31.6401C21.5738 31.6497 21.5459 31.6489 21.5215 31.6577C21.1659 31.7868 20.8095 31.9138 20.456 32.0483C20.1494 32.165 19.8454 32.2886 19.5419 32.4132C19.4225 32.4622 19.3787 32.5531 19.3828 32.688C19.3988 33.2165 19.3925 33.746 19.4176 34.274C19.4305 34.5468 19.4911 34.8175 19.532 35.0889C19.5506 35.2124 19.6268 35.2297 19.7229 35.1759C19.9806 35.0316 20.2484 34.9008 20.4893 34.732C20.9366 34.4184 21.2412 33.9994 21.339 33.4473C21.4052 33.0739 21.4822 32.7024 21.5471 32.3288C21.5852 32.1092 21.6089 31.8871 21.6427 31.6401ZM40.5883 27.5953C40.8758 27.5758 41.1221 27.5559 41.3687 27.5439C41.4925 27.5378 41.5388 27.4837 41.5431 27.3593C41.5511 27.123 41.5609 26.8851 41.5975 26.6522C41.6182 26.52 41.57 26.4996 41.4651 26.4921C41.2512 26.4769 41.0367 26.4634 40.8243 26.4356C40.7058 26.4201 40.584 26.3924 40.4757 26.3435C40.2484 26.2407 40.2029 26.032 40.1986 25.8067C40.1953 25.635 40.168 25.6169 40.0044 25.6445C39.636 25.7067 39.2674 25.7686 38.8976 25.8217C38.7755 25.8393 38.7162 25.8942 38.7239 26.0141C38.7432 26.3159 38.7558 26.6186 38.7926 26.9183C38.8056 27.0242 38.8547 27.1586 38.9337 27.2161C39.076 27.3197 39.2466 27.4119 39.4173 27.4431C39.8161 27.516 40.222 27.55 40.5883 27.5953ZM42.4164 22.7042C42.4264 22.6858 42.4364 22.6674 42.4465 22.6491C42.4006 22.6164 42.3575 22.5609 42.3084 22.5549C42.0265 22.5209 41.7413 22.4639 41.4607 22.4794C40.7905 22.5162 40.1221 22.5887 39.4531 22.6475C39.168 22.6726 38.8822 22.6937 38.5986 22.7308C38.5502 22.7372 38.5112 22.8153 38.4678 22.8603C38.5185 22.8872 38.5676 22.9317 38.6202 22.9365C38.6831 22.9421 38.7485 22.9105 38.8137 22.9009C38.8949 22.889 38.9776 22.8735 39.0586 22.8783C39.1047 22.881 39.1485 22.9213 39.1934 22.9446C39.1642 22.9796 39.1408 23.0359 39.1047 23.0459C38.9582 23.0865 38.8087 23.1192 38.6584 23.1418C38.5739 23.1545 38.5255 23.1758 38.5323 23.2725C38.5617 23.6903 38.59 24.1081 38.6141 24.5262C38.6207 24.6407 38.6728 24.6839 38.7821 24.6706C39.2839 24.6093 39.7868 24.5561 40.2868 24.4827C40.4433 24.4597 40.5919 24.3826 40.7441 24.3303C40.7424 24.3097 40.7407 24.289 40.739 24.2684C40.6576 24.2614 40.5761 24.2472 40.4949 24.2487C40.1763 24.2548 39.8568 24.2858 39.5396 24.2692C39.2471 24.2539 39.0605 23.9644 39.1507 23.6843C39.1908 23.5598 39.2741 23.4375 39.3678 23.3444C39.6111 23.1027 39.9223 22.9678 40.2455 22.8759C40.8809 22.6952 41.5292 22.6257 42.1894 22.703C42.2641 22.7117 42.3407 22.7042 42.4164 22.7042ZM19.9312 29.3951C19.8607 30.0736 19.7924 30.7307 19.7203 31.4242C20.6996 31.1061 21.668 30.7915 22.6364 30.4769C22.6308 30.4512 22.6252 30.4255 22.6196 30.3998C22.5489 30.4082 22.4782 30.4235 22.4075 30.4239C22.1794 30.4252 21.9308 30.4786 21.7275 30.4065C21.3436 30.2703 20.9779 30.0748 20.6199 29.8765C20.3828 29.7452 20.1723 29.566 19.9312 29.3951ZM16.7133 3.36481C16.6518 3.33476 16.6301 3.31738 16.6063 3.31357C16.2974 3.26413 15.9895 3.18892 15.6788 3.17443C15.0405 3.14467 14.4194 3.26146 13.8135 3.46525C12.8824 3.77846 12.0888 4.30273 11.4158 5.01441C10.6516 5.82252 10.1418 6.78727 9.71049 7.7996C9.67564 7.8814 9.65591 7.96964 9.62915 8.05488C9.64269 8.05884 9.65624 8.06279 9.66978 8.06674C9.73363 7.94806 9.80073 7.83099 9.8608 7.71041C10.1774 7.07508 10.5028 6.44646 10.9454 5.88488C11.8253 4.76861 12.9384 4.01153 14.3358 3.72647C15.0675 3.57722 15.8146 3.50386 16.5546 3.39583C16.5942 3.39006 16.6332 3.3806 16.7133 3.36481ZM5.79384 14.4942C5.81425 14.5172 5.83467 14.5401 5.85508 14.5631C5.93342 14.5085 6.02162 14.4638 6.08848 14.3975C6.51139 13.9785 6.93521 13.5533 7.21939 13.0265C7.45307 12.5933 7.64819 12.1363 7.82583 11.6764C8.04535 11.1082 8.2327 10.5273 8.42733 9.94965C8.60616 9.41887 8.74379 8.87177 8.95645 8.35531C9.50378 7.02602 10.2125 5.78862 11.1782 4.71278C11.9152 3.89164 12.7864 3.27774 13.871 3.00184C13.9995 2.96917 14.126 2.92905 14.2534 2.89238C14.18 2.86481 14.1021 2.84636 14.0374 2.86789C13.6966 2.98145 13.3539 3.09248 13.0213 3.2277C12.1879 3.56657 11.4759 4.09611 10.8761 4.75243C10.5245 5.13717 10.2592 5.60342 9.97167 6.04388C9.31483 7.05024 8.76687 8.11278 8.4012 9.26088C8.15304 10.04 7.93048 10.8273 7.69372 11.6101C7.38324 12.6366 6.84191 13.5232 6.07059 14.2677C5.98511 14.3502 5.88641 14.419 5.79384 14.4942ZM38.2839 26.8332C38.2993 26.8231 38.3147 26.813 38.3301 26.8028C38.3271 26.7383 38.328 26.6733 38.3204 26.6093C38.2624 26.117 38.1925 25.6259 38.1469 25.1325C38.1109 24.7432 38.1042 24.3512 38.0846 23.9604C38.0801 23.872 38.0783 23.783 37.9455 23.8321C37.7192 23.9156 37.4936 24.001 37.2651 24.0778C37.1675 24.1105 37.1305 24.1643 37.1227 24.2673C37.0507 25.216 37.4011 25.9987 38.0559 26.6619C38.1219 26.7288 38.2074 26.7766 38.2839 26.8332ZM37.0472 22.7829C37.0376 22.7847 37.028 22.7865 37.0184 22.7883C37.0563 23.0362 37.0872 23.2855 37.1383 23.5307C37.148 23.5775 37.2444 23.6474 37.2882 23.6392C37.5176 23.5961 37.7452 23.5385 37.9675 23.4674C38.0071 23.4547 38.0474 23.3505 38.039 23.2961C37.979 22.9107 37.9028 22.5279 37.8404 22.1428C37.8243 22.0433 37.7785 22.0113 37.6878 22.0155C37.5614 22.0213 37.4348 22.0319 37.3086 22.0284C37.1683 22.0245 37.1067 22.0967 37.0944 22.2237C37.0764 22.4099 37.0627 22.5965 37.0472 22.7829ZM15.6864 3.89885C15.684 3.88066 15.6815 3.86246 15.679 3.84426C15.617 3.84426 15.5513 3.83079 15.4936 3.84656C15.2243 3.92009 14.9548 3.99422 14.6899 4.08183C13.9174 4.33735 13.2256 4.73529 12.6456 5.30841C11.8463 6.09818 11.1089 6.94466 10.4421 7.84901C10.159 8.23282 9.91007 8.6432 9.66611 9.05369C9.58403 9.19181 9.50526 9.35877 9.57294 9.55947C9.60232 9.5272 9.61515 9.51686 9.62331 9.50363C9.99815 8.89608 10.3332 8.25894 10.7576 7.68836C11.2287 7.05491 11.7775 6.4788 12.2994 5.88377C13.1231 4.94462 14.0953 4.2417 15.3477 3.99152C15.4622 3.96864 15.5736 3.93011 15.6864 3.89885ZM9.4395 9.3289C9.40912 9.37794 9.39722 9.39494 9.38752 9.41312C8.96066 10.2129 8.77841 11.0948 8.54542 11.9583C8.37862 12.5766 8.15892 13.1725 7.87823 13.7463C7.63278 14.2481 7.26346 14.6555 6.87168 15.0449C6.82668 15.0896 6.79253 15.1453 6.75335 15.1959L6.79136 15.2317C6.83816 15.1983 6.89288 15.172 6.93051 15.1303C7.23912 14.7881 7.58128 14.4687 7.84365 14.0937C8.47958 13.1846 8.71389 12.1114 9.00232 11.0628C9.11302 10.6604 9.24583 10.2641 9.36257 9.86321C9.40974 9.70123 9.52413 9.54766 9.4395 9.3289ZM19.2287 31.6953C19.4751 31.3932 19.7264 28.9089 19.5602 28.523C19.5232 28.5877 19.4892 28.6312 19.4714 28.6805C19.3484 29.0209 19.2238 29.3609 19.1095 29.7043C19.0178 29.9799 18.8367 30.2551 19.0688 30.549C19.0839 30.5682 19.0822 30.6018 19.0852 30.6291C19.1149 30.9018 19.1422 31.1747 19.1743 31.4471C19.183 31.5208 19.2057 31.5928 19.2287 31.6953ZM18.2453 16.3319C18.2483 16.3104 18.2512 16.2888 18.2542 16.2673C17.8935 16.0615 17.5275 15.8644 17.1745 15.6463C17.0064 15.5425 16.9116 15.6057 16.8192 15.7351C16.7876 15.7794 16.7586 15.8264 16.7345 15.8753C16.6586 16.0294 16.676 16.0789 16.8388 16.1282C17.161 16.2258 17.4125 16.4006 17.5335 16.7296C17.5401 16.7476 17.5599 16.7607 17.5706 16.7728C17.8005 16.6226 18.0229 16.4773 18.2453 16.3319ZM10.0544 11.3111C10.0352 11.3094 10.0159 11.3077 9.9967 11.306C9.88431 12.6367 9.77193 13.9674 9.65954 15.2981C10.1201 13.9987 10.0768 12.6539 10.0544 11.3111ZM4.31127 12.1446C4.12612 12.6781 4.49571 13.4976 5.00599 13.7137C5.17151 13.7838 5.33289 13.8258 5.51022 13.7705C5.23226 13.5488 4.90718 13.3758 4.7102 13.1083C4.51215 12.8394 4.4416 12.4764 4.31127 12.1446ZM3.78607 12.5608C3.76961 12.567 3.75314 12.5733 3.73668 12.5796C3.72975 13.0303 3.89886 13.4289 4.16695 13.7811C4.42976 14.1264 4.76191 14.4072 5.10347 14.6745C4.84596 14.3392 4.5344 14.0441 4.311 13.6928C4.08975 13.345 3.95741 12.9404 3.78607 12.5608ZM10.8517 9.138C10.8347 9.10554 10.8322 9.09214 10.8245 9.08758C10.806 9.07671 10.7858 9.06787 10.7652 9.06195C10.5086 8.9883 10.3352 9.11296 10.1828 9.30022C9.83995 9.72148 9.83791 10.2335 9.79527 10.735C9.79485 10.74 9.80935 10.7463 9.82263 10.7564C9.8622 10.6094 9.89508 10.4627 9.94118 10.3203C10.1027 9.82136 10.2165 9.28452 10.8517 9.138ZM43.244 7.58791C43.3206 7.55534 43.4485 7.52471 43.5468 7.45335C43.676 7.35963 43.5832 7.24611 43.5253 7.15091C43.457 7.03848 43.3853 7.10376 43.3276 7.16441C43.2488 7.24724 43.1672 7.33073 43.1063 7.42633C43.0359 7.53667 43.0724 7.58906 43.244 7.58791ZM10.8181 11.0919C10.7829 10.9774 10.6297 10.8428 10.5286 10.8567C10.4938 10.8615 10.4429 10.921 10.4405 10.9582C10.4309 11.1041 10.5664 11.3367 10.6308 11.3031C10.7087 11.2624 10.757 11.1649 10.8181 11.0919ZM5.50559 11.3843C5.69232 11.7165 5.8756 11.7891 6.09962 11.6408C5.8962 11.5529 5.70089 11.4686 5.50559 11.3843ZM9.51928 12.1064C9.54564 12.1104 9.572 12.1144 9.59837 12.1183C9.62997 11.8702 9.66158 11.6221 9.69319 11.3739C9.67832 11.3721 9.66346 11.3703 9.64859 11.3685C9.60548 11.6145 9.56238 11.8604 9.51928 12.1064Z" fill="black"/>
<path d="M44.5984 10.4464C44.6018 10.518 44.6034 10.5898 44.609 10.6612C44.6358 11.0057 44.5304 11.2915 44.3229 11.5784C44.1311 11.8434 44.0205 12.1708 43.8944 12.479C43.7283 12.8851 43.5953 13.305 43.4235 13.7085C43.2203 14.186 42.7369 14.3786 42.2768 14.1856C42.229 14.1656 42.1731 14.116 42.1602 14.0693C42.0699 13.7437 42.0406 13.4219 42.2277 13.1108C42.2628 13.0524 42.2719 12.9372 42.2375 12.8849C41.9713 12.4809 41.8771 12.0188 41.8163 11.558C41.7538 11.0844 41.7508 10.6021 41.7387 10.1231C41.7345 9.96036 41.763 9.79072 41.8098 9.63418C41.8752 9.41561 42.0017 9.23786 42.2512 9.19175C42.596 9.12803 42.9414 9.00407 43.2847 9.00997C43.8427 9.01956 44.2647 9.32527 44.5476 9.80876C44.5763 9.85779 44.5833 9.9244 44.5852 9.98334C44.5902 10.1376 44.5869 10.2921 44.5869 10.4464C44.5907 10.4464 44.5945 10.4464 44.5984 10.4464ZM43.1659 9.37415C42.9023 9.40173 42.6696 9.41195 42.4432 9.45539C42.3191 9.47921 42.1939 9.54285 42.0909 9.61816C41.9792 9.6997 41.9609 9.938 42.0468 10.0281C42.1572 10.144 42.2722 10.0979 42.3862 10.0181C42.4528 9.97147 42.5263 9.93002 42.6027 9.90272C42.9425 9.78117 43.2768 9.85234 43.6073 9.94785C43.8127 10.0072 44.0128 10.0855 44.2194 10.1393C44.2827 10.1557 44.3599 10.1188 44.4307 10.1063C44.4028 10.0378 44.3936 9.9488 44.3442 9.90413C44.0012 9.59363 43.6054 9.39723 43.1659 9.37415ZM42.8062 13.2616C42.6744 13.3273 42.5546 13.3648 42.4641 13.4384C42.3643 13.5196 42.3529 13.765 42.4266 13.8531C42.5363 13.9841 42.6667 13.962 42.7971 13.8866C42.8537 13.8539 42.9222 13.8259 42.9578 13.7761C43.0303 13.6748 43.0842 13.56 43.1457 13.4507C43.0385 13.391 42.9313 13.3313 42.8062 13.2616Z" fill="black"/>
<path d="M48.7139 7.94691C48.5803 7.79563 48.5886 7.59412 48.5515 7.41215C48.4232 6.78198 48.3294 6.1433 48.0788 5.54464C47.8622 5.02727 47.5734 4.56311 47.0543 4.29935C46.8963 4.21907 46.7133 4.18716 46.5403 4.13792C46.4651 4.11652 46.3429 4.13416 46.377 4.01362C46.3938 3.95397 46.5071 3.87221 46.5633 3.8816C46.8105 3.923 47.0651 3.96455 47.2947 4.05983C47.9246 4.32125 48.2765 4.84981 48.5372 5.4484C48.8316 6.1241 48.9344 6.83081 48.8459 7.56313C48.8304 7.69154 48.7949 7.81754 48.7686 7.94465C48.7504 7.9454 48.7322 7.94616 48.7139 7.94691Z" fill="black"/>
<path d="M44.9798 6.51172C45.3692 6.55131 45.7277 6.63947 46.0087 6.91611C46.0756 6.9819 46.1011 7.08975 46.1456 7.17825C46.0445 7.20812 45.9332 7.28102 45.8444 7.25976C45.5804 7.19656 45.3253 7.09595 45.0665 7.01074C44.9732 6.98002 44.8744 6.96135 44.7872 6.91848C44.7316 6.89108 44.6607 6.83304 44.6549 6.78208C44.6485 6.72556 44.6938 6.64194 44.7428 6.60546C44.8086 6.55648 44.8996 6.54137 44.9798 6.51172Z" fill="black"/>
<path d="M51.7576 11.1953C51.8782 11.4229 51.8319 11.6229 51.7886 11.8077C51.7029 12.1739 51.5508 12.5167 51.2935 12.798C51.2305 12.8669 51.125 12.897 51.0391 12.9449C51.0527 12.849 51.0468 12.7448 51.0834 12.6586C51.2631 12.235 51.4534 11.8159 51.642 11.3961C51.6682 11.3377 51.7059 11.2843 51.7576 11.1953Z" fill="black"/>
<path d="M17.2249 8.90718C17.7323 8.87668 18.1421 9.02891 18.5165 9.29308C18.7193 9.43618 18.8098 9.64723 18.8461 9.88098C18.8578 9.95587 18.8386 10.0478 18.8029 10.1159C18.4257 10.8356 18.0359 11.5486 17.6631 12.2705C17.4516 12.6798 17.2744 13.1069 17.0643 13.517C16.8807 13.8756 16.621 14.159 16.1749 14.141C15.841 14.1275 15.5485 13.9847 15.2909 13.775C15.0157 13.551 14.8539 13.2491 14.7667 12.9154C14.654 12.4839 14.5657 12.0483 14.6466 11.5931C14.7057 11.2609 14.8287 10.9573 15.0085 10.6811C15.2393 10.3267 15.4864 9.98155 15.7464 9.64798C16.1293 9.15666 16.6223 8.86903 17.2249 8.90718ZM17.1716 10.0476C17.1711 10.054 17.1705 10.0604 17.17 10.0668C16.8293 10.0668 16.4877 10.0509 16.1486 10.0738C15.9914 10.0845 15.8359 10.1628 15.6871 10.2277C15.649 10.2444 15.6181 10.3298 15.6244 10.3783C15.6288 10.4118 15.7 10.4528 15.7466 10.4612C15.8653 10.4827 15.9867 10.4902 16.1074 10.4989C16.7388 10.5446 17.3703 10.5873 18.0015 10.6348C18.1631 10.6469 18.2226 10.5872 18.2671 10.3415C18.2926 10.2009 18.2026 10.1485 18.0904 10.1358C17.7847 10.1013 17.4779 10.0764 17.1716 10.0476ZM16.9305 13.1192C16.851 13.1546 16.7834 13.1862 16.7147 13.215C16.538 13.2888 16.3721 13.3669 16.1654 13.2743C15.6956 13.0637 15.3644 12.7078 15.0736 12.3007C15.0428 12.2576 14.9933 12.2279 14.9525 12.192C14.9375 12.2416 14.9074 12.2919 14.9099 12.3405C14.9443 12.9904 15.2521 13.5715 15.964 13.7699C16.4219 13.8976 16.8049 13.6747 16.9305 13.1192ZM16.0309 9.71039L16.0597 9.76924C16.0741 9.77531 16.0886 9.78659 16.103 9.78651C16.1523 9.78624 16.2017 9.78123 16.251 9.77936C16.8432 9.75699 17.4342 9.64032 18.0281 9.75842C18.0765 9.76805 18.127 9.779 18.1752 9.77438C18.2143 9.77062 18.2513 9.74443 18.2892 9.72819C18.2675 9.68794 18.2556 9.62874 18.222 9.61103C18.1257 9.56033 18.0217 9.52338 17.9188 9.48651C17.4465 9.31739 16.9672 9.31609 16.4933 9.46317C16.3294 9.51403 16.1845 9.62622 16.0309 9.71039ZM15.7667 11.5766C15.7733 11.3096 15.6201 11.1615 15.4298 11.2458C15.3175 11.2955 15.2109 11.3982 15.1458 11.5041C15.0688 11.6293 15.0804 11.7808 15.1827 11.9048C15.28 12.0226 15.4064 12.0613 15.5521 12.0151C15.6996 11.9684 15.7442 11.8486 15.7543 11.7081C15.7582 11.6534 15.7646 11.5988 15.7667 11.5766Z" fill="black"/>
<path d="M17.3511 8.51098C17.0549 8.49535 16.7884 8.36793 16.552 8.18309C16.406 8.06899 16.4425 7.78135 16.612 7.70258C16.6636 7.67857 16.7609 7.72649 16.8257 7.7623C17.0105 7.86429 17.1889 7.97766 17.3709 8.08468C17.3938 8.09816 17.4229 8.10256 17.4499 8.10761C17.7263 8.15948 17.8256 8.04749 17.7429 7.78056C17.7087 7.6704 17.6718 7.56008 17.6519 7.44705C17.6438 7.40107 17.6632 7.32579 17.6963 7.30421C17.7262 7.28474 17.8006 7.3073 17.8404 7.33388C18.052 7.47547 18.2054 7.79906 18.1461 8.0023C18.0596 8.29881 17.839 8.44516 17.5446 8.49254C17.4849 8.50214 17.4241 8.50425 17.3511 8.51098Z" fill="black"/>
<path d="M15.649 6.49805C16.0035 6.52376 16.2574 6.53952 16.4329 6.74586C16.4835 6.80543 16.5163 6.92155 16.4925 6.9888C16.4765 7.03386 16.3326 7.07727 16.2697 7.05477C15.9071 6.92501 15.5491 6.95127 15.1829 7.02999C15.0766 7.05284 14.917 7.1033 14.8718 6.93986C14.8279 6.7808 14.9621 6.69635 15.0849 6.65406C15.3006 6.5798 15.5251 6.53132 15.649 6.49805Z" fill="black"/>
<path d="M15.9207 5.43045C16.0122 5.44848 16.1095 5.45284 16.193 5.48905C16.2553 5.51603 16.3285 5.57757 16.3421 5.63639C16.3513 5.67633 16.2753 5.76737 16.221 5.78504C16.0233 5.84937 15.8198 5.89809 15.6162 5.94191C15.4287 5.98227 15.2385 6.01117 15.0488 6.04039C14.9414 6.05692 14.8508 6.03416 14.8175 5.91034C14.7822 5.7793 14.8345 5.68544 14.9554 5.65154C15.2716 5.56288 15.5914 5.48714 15.9097 5.40625C15.9134 5.41432 15.9171 5.42238 15.9207 5.43045Z" fill="black"/>
<path d="M30.8365 6.09747C30.7837 6.16087 30.7558 6.19443 30.7278 6.22785C30.4281 6.58545 30.0347 6.66892 29.5947 6.61506C29.3139 6.5807 29.0507 6.50311 28.8027 6.35633C28.7035 6.29756 28.5639 6.29521 28.4418 6.29034C28.3317 6.28595 28.2286 6.28874 28.1763 6.17206C28.1219 6.05059 28.1722 5.93716 28.2685 5.88266C28.4963 5.75379 28.732 5.63371 28.9762 5.54116C29.1243 5.48505 29.2119 5.59603 29.1456 5.74844C29.0853 5.88721 29.1302 5.93066 29.2589 5.96923C29.7432 6.11442 30.1745 6.04622 30.5321 5.66939C30.6247 5.57172 30.7038 5.56589 30.8148 5.64187C31.2015 5.90672 31.4482 6.28145 31.6335 6.69717C31.7359 6.92663 31.8058 7.17222 31.8728 7.41536C31.9561 7.71727 31.8093 7.97998 31.6818 8.23217C31.3304 8.92765 30.9555 9.61128 30.6042 10.3068C30.4888 10.5352 30.4253 10.7892 30.3237 11.0252C30.1293 11.4764 29.4641 11.6475 29.0741 11.3507C29.0044 11.2977 28.9311 11.2401 28.8837 11.1686C28.4634 10.5332 27.9966 9.92273 27.9051 9.12446C27.8696 8.81475 27.7791 8.5105 27.7027 8.20656C27.5837 7.73397 27.8455 7.41849 28.2553 7.27693C28.7148 7.1182 29.1948 7.18344 29.6647 7.23155C30.107 7.27684 30.5466 7.3528 30.9853 7.42754C31.1012 7.44728 31.2112 7.50826 31.3206 7.55765C31.4586 7.61995 31.5121 7.59297 31.4885 7.44295C31.4288 7.06252 31.2743 6.71752 31.061 6.39893C30.9976 6.30435 30.9252 6.21591 30.8365 6.09747ZM28.177 7.63887C28.443 7.75639 28.6544 7.87878 28.8822 7.94142C29.069 7.99277 29.2308 8.05937 29.3697 8.1925C29.4106 8.23171 29.4711 8.27382 29.5232 8.27443C30.0222 8.28024 30.5215 8.28484 31.0203 8.27156C31.1347 8.26851 31.269 8.22909 31.3247 8.0879C30.5688 7.38253 29.65 7.35396 28.708 7.42313C28.5326 7.43601 28.358 7.4675 28.177 7.63887ZM30.6637 9.41479C30.6477 9.40143 30.6317 9.38807 30.6157 9.37471C30.5814 9.39874 30.5435 9.41894 30.5134 9.4474C30.0846 9.85333 29.6062 9.82784 29.1047 9.61292C28.8414 9.50007 28.6947 9.27417 28.5464 9.04727C28.5024 8.97993 28.4391 8.92518 28.3846 8.86466C28.367 8.87545 28.3493 8.88624 28.3316 8.89703C28.3328 9.36203 28.4128 9.80719 28.7593 10.1576C29.0931 10.4953 29.5026 10.5178 29.9229 10.3613C30.3633 10.1974 30.4601 9.76289 30.6637 9.41479ZM30.0273 10.8243C29.8169 10.856 29.6351 10.9023 29.4526 10.9054C29.2736 10.9086 29.0938 10.8678 28.9143 10.8463C29.1262 11.1234 29.405 11.1439 29.7001 11.0857C29.8356 11.0589 29.9732 11.0186 30.0273 10.8243Z" fill="black"/>
<path d="M28.506 3.98535C28.6965 4.0367 28.9152 4.08271 29.1227 4.15934C29.1862 4.18278 29.246 4.28741 29.2537 4.36049C29.2575 4.39682 29.144 4.47274 29.0756 4.48467C28.7407 4.54305 28.4029 4.5849 28.0664 4.63469C27.9035 4.6588 27.7418 4.69256 27.5784 4.71272C27.4123 4.73323 27.3622 4.66245 27.4346 4.51024C27.5457 4.27705 27.7699 4.18419 27.9891 4.10151C28.14 4.04457 28.3063 4.02841 28.506 3.98535Z" fill="black"/>
<path d="M31.1564 4.04688C31.5129 4.08867 31.8389 4.17789 32.1145 4.39711C32.1821 4.45087 32.2097 4.55494 32.2557 4.63588C32.1755 4.67343 32.0917 4.74866 32.0158 4.74135C31.7996 4.7205 31.5834 4.678 31.3733 4.6214C31.1678 4.56605 30.9667 4.49037 30.7695 4.40943C30.6152 4.34608 30.6064 4.24364 30.7548 4.16869C30.8778 4.10653 31.0218 4.0859 31.1564 4.04688Z" fill="black"/>
<path d="M25.7627 7.52013C25.718 7.63244 25.6824 7.73483 25.6355 7.83178C25.622 7.85974 25.5733 7.89064 25.546 7.88639C25.5182 7.88208 25.4731 7.83221 25.4768 7.80889C25.4996 7.66577 25.5309 7.52365 25.5688 7.38373C25.5736 7.36578 25.6536 7.34459 25.6629 7.35554C25.7021 7.40138 25.7276 7.4589 25.7627 7.52013Z" fill="black"/>
<path d="M49.536 19.4234C49.4761 19.7295 49.4288 20.0121 49.3647 20.2907C49.133 21.2969 49.0563 22.3142 49.1315 23.3435C49.1667 23.8271 49.2025 24.3106 49.2353 24.7943C49.2654 25.2385 49.3583 25.6639 49.5831 26.0546C49.6145 26.1093 49.633 26.1788 49.6343 26.2419C49.637 26.3668 49.5168 26.4508 49.426 26.3731C49.271 26.2406 49.1279 26.0848 49.0137 25.9159C48.8117 25.6173 48.7509 25.268 48.7191 24.9143C48.6899 24.5907 48.6461 24.2675 48.6358 23.9432C48.6281 23.7039 48.6663 23.4632 48.6798 23.2229C48.6921 23.0034 48.7216 22.7816 48.7037 22.564C48.6424 21.8204 48.7835 21.1047 48.9855 20.3985C49.0726 20.094 49.1998 19.8008 49.3114 19.5034C49.3265 19.4633 49.3511 19.423 49.3816 19.3933C49.4095 19.3662 49.4581 19.3317 49.4851 19.3402C49.5131 19.349 49.5262 19.4055 49.536 19.4234Z" fill="black"/>
<path d="M1.44727 23.333L6.65567 24.0298L6.59668 24.3334L1.44727 23.6086V23.333Z" fill="black"/>
<path d="M8.63803 16.0254C9.35871 16.508 10.1464 16.8968 10.9649 17.1744C11.5784 17.3626 12.2068 17.4796 12.8397 17.5801C13.0525 17.6093 13.267 17.627 13.4893 17.6508L13.4934 17.684C12.3706 18.0547 11.2743 17.6509 10.2664 17.1485C9.67956 16.8432 9.11918 16.4814 8.61719 16.0515C8.61719 16.0515 8.63803 16.0254 8.63803 16.0254Z" fill="black"/>
</svg>
