<svg width="29" height="37" viewBox="0 0 29 37" fill="none" xmlns="http://www.w3.org/2000/svg">
<path d="M1.95927 23.5349C1.93966 23.5349 1.92004 23.5388 1.9004 23.5466C1.76698 23.5741 1.66494 23.7036 1.66494 23.841V26.0583C1.66494 26.2153 1.80621 26.3526 1.95927 26.3526C2.11626 26.3526 2.25753 26.2153 2.25361 26.0583V23.841C2.26146 23.6801 2.12019 23.5349 1.95927 23.5349ZM5.19694 25.4225H5.17339C5.03604 25.45 4.934 25.5873 4.94184 25.7286V27.9381C4.93793 28.0911 5.07921 28.2324 5.23617 28.2324C5.38923 28.2324 5.5305 28.0911 5.5305 27.9381V25.7286C5.53836 25.5559 5.36961 25.399 5.19694 25.4225ZM5.29505 29.9827C5.16553 30.0141 5.05959 30.1436 5.06352 30.2771V32.4983C5.06352 32.6553 5.20086 32.7926 5.35785 32.7926C5.51481 32.7926 5.65609 32.6553 5.65218 32.4983V30.2771C5.65609 30.1005 5.47165 29.9474 5.29505 29.9827ZM8.59551 31.8625C8.45029 31.8782 8.33256 32.0195 8.33649 32.1686V34.3742C8.33649 34.5312 8.47776 34.6685 8.63082 34.6685C8.78781 34.6685 8.92908 34.5312 8.92515 34.3742V32.1686C8.93694 31.996 8.76426 31.839 8.59551 31.8625ZM10.1888 26.49H10.1653C10.0318 26.5174 9.92981 26.647 9.93374 26.7843V29.0016C9.92981 29.1586 10.0711 29.2959 10.2281 29.2959C10.3811 29.2959 10.5224 29.1586 10.5224 29.0016V26.7843C10.5224 26.6155 10.3576 26.4664 10.1888 26.49ZM13.5874 32.9261C13.4461 32.9457 13.3284 33.0791 13.3284 33.2204V35.4416C13.3284 35.5986 13.4697 35.7359 13.6227 35.7359C13.7797 35.7359 13.921 35.5986 13.9171 35.4416V33.2204C13.921 33.0556 13.7522 32.9064 13.5874 32.9261ZM15.4868 26.3408C15.4672 26.3408 15.4476 26.3487 15.428 26.3526C15.2945 26.384 15.1925 26.5135 15.1925 26.647V28.6837C15.1925 28.8407 15.3338 28.9781 15.4868 28.9781C15.6438 28.9781 15.7851 28.8407 15.7812 28.6837V26.647C15.789 26.49 15.6477 26.3408 15.4868 26.3408ZM18.8226 32.7926C18.6892 32.8201 18.5871 32.9496 18.591 33.0869V35.1237C18.5871 35.2768 18.7284 35.4181 18.8854 35.4181C19.0424 35.4181 19.1797 35.2768 19.1797 35.1237V33.0869C19.1836 32.9104 18.9953 32.7573 18.8226 32.7926ZM20.1726 25.0418C20.153 25.0418 20.1333 25.0497 20.1098 25.0536C19.9803 25.0811 19.8743 25.2145 19.8783 25.348V27.3847C19.8783 27.5417 20.0156 27.6791 20.1726 27.6791C20.3296 27.6791 20.4708 27.5417 20.4669 27.3847V25.348C20.4748 25.191 20.3296 25.0418 20.1726 25.0418ZM23.5084 31.4936C23.3749 31.5211 23.2729 31.6506 23.2768 31.788V33.8247C23.2729 33.9778 23.4142 34.1191 23.5712 34.1191C23.7242 34.1191 23.8655 33.9778 23.8655 33.8247V31.788C23.8694 31.6114 23.681 31.4544 23.5084 31.4936ZM23.5084 31.4936C23.3749 31.5211 23.2729 31.6506 23.2768 31.788V33.8247C23.2729 33.9778 23.4142 34.1191 23.5712 34.1191C23.7242 34.1191 23.8655 33.9778 23.8655 33.8247V31.788C23.8694 31.6114 23.681 31.4544 23.5084 31.4936ZM18.8226 32.7926C18.6892 32.8201 18.5871 32.9496 18.591 33.0869V35.1237C18.5871 35.2768 18.7284 35.4181 18.8854 35.4181C19.0424 35.4181 19.1797 35.2768 19.1797 35.1237V33.0869C19.1836 32.9104 18.9953 32.7573 18.8226 32.7926ZM13.5874 32.9261C13.4461 32.9457 13.3284 33.0791 13.3284 33.2204V35.4416C13.3284 35.5986 13.4697 35.7359 13.6227 35.7359C13.7797 35.7359 13.921 35.5986 13.9171 35.4416V33.2204C13.921 33.0556 13.7522 32.9064 13.5874 32.9261ZM8.59551 31.8625C8.45029 31.8782 8.33256 32.0195 8.33649 32.1686V34.3742C8.33649 34.5312 8.47776 34.6685 8.63082 34.6685C8.78781 34.6685 8.92908 34.5312 8.92515 34.3742V32.1686C8.93694 31.996 8.76426 31.839 8.59551 31.8625ZM5.29505 29.9827C5.16553 30.0141 5.05959 30.1436 5.06352 30.2771V32.4983C5.06352 32.6553 5.20086 32.7926 5.35785 32.7926C5.51481 32.7926 5.65609 32.6553 5.65218 32.4983V30.2771C5.65609 30.1005 5.47165 29.9474 5.29505 29.9827ZM20.1726 25.0418C20.153 25.0418 20.1333 25.0497 20.1098 25.0536C19.9803 25.0811 19.8743 25.2145 19.8783 25.348V27.3847C19.8783 27.5417 20.0156 27.6791 20.1726 27.6791C20.3296 27.6791 20.4708 27.5417 20.4669 27.3847V25.348C20.4748 25.191 20.3296 25.0418 20.1726 25.0418ZM15.4868 26.3408C15.4672 26.3408 15.4476 26.3487 15.428 26.3526C15.2945 26.384 15.1925 26.5135 15.1925 26.647V28.6837C15.1925 28.8407 15.3338 28.9781 15.4868 28.9781C15.6438 28.9781 15.7851 28.8407 15.7812 28.6837V26.647C15.789 26.49 15.6477 26.3408 15.4868 26.3408ZM10.1888 26.49H10.1653C10.0318 26.5174 9.92981 26.647 9.93374 26.7843V29.0016C9.92981 29.1586 10.0711 29.2959 10.2281 29.2959C10.3811 29.2959 10.5224 29.1586 10.5224 29.0016V26.7843C10.5224 26.6155 10.3576 26.4664 10.1888 26.49ZM5.19694 25.4225H5.17339C5.03604 25.45 4.934 25.5873 4.94184 25.7286V27.9381C4.93793 28.0911 5.07921 28.2324 5.23617 28.2324C5.38923 28.2324 5.5305 28.0911 5.5305 27.9381V25.7286C5.53836 25.5559 5.36961 25.399 5.19694 25.4225ZM1.95927 23.5349C1.93966 23.5349 1.92004 23.5388 1.9004 23.5466C1.76698 23.5741 1.66494 23.7036 1.66494 23.841V26.0583C1.66494 26.2153 1.80621 26.3526 1.95927 26.3526C2.11626 26.3526 2.25753 26.2153 2.25361 26.0583V23.841C2.26146 23.6801 2.12019 23.5349 1.95927 23.5349ZM28.7475 17.5344V13.1194C28.7475 13.088 28.7436 13.0566 28.7318 13.0213C28.6847 11.4241 27.4328 10.023 25.5216 8.98698V6.09467C25.5216 6.05934 25.5177 6.02796 25.5098 5.99655C25.4549 4.27765 24.0225 2.78244 21.8523 1.72676C19.6428 0.655399 16.6249 0 13.2931 0C9.95335 0 6.91977 0.655399 4.71031 1.72676C2.55187 2.77458 1.12729 4.2541 1.05273 5.96122C1.03311 6.00048 1.02525 6.04757 1.02918 6.09467V10.5097C1.02918 12.1501 2.29284 13.5864 4.25506 14.6421V15.2425C4.05884 15.325 3.86262 15.4113 3.67818 15.5015C1.52367 16.5454 0.0990932 18.0289 0.0245279 19.7321C0.00491045 19.7753 -0.00294609 19.8184 0.000982179 19.8655V24.2805C0.000982179 25.968 1.33921 27.4358 3.39563 28.4993V30.7205C3.39563 32.4826 4.84765 34.0131 7.06497 35.0845C9.27836 36.1598 12.3041 36.8152 15.6359 36.8152C18.9678 36.8152 22.0014 36.1598 24.2187 35.0845C26.4399 34.0131 27.888 32.4826 27.888 30.7205V26.3055C27.888 26.2702 27.8841 26.2388 27.8763 26.2074C27.8253 24.5827 26.5341 23.162 24.564 22.1221C24.7367 22.0475 24.9133 21.9808 25.0782 21.9023C27.2994 20.827 28.7475 19.3004 28.7475 17.5344ZM25.5216 10.5097V9.66197C27.1934 10.6352 28.1431 11.8557 28.1431 13.1233C28.1431 14.5558 26.9266 15.9254 24.8191 16.9497C22.7156 17.97 19.7723 18.6175 16.5189 18.6175C13.2538 18.6175 10.2987 17.97 8.19128 16.9497C7.24941 16.4905 6.48023 15.9607 5.92295 15.3917C7.97544 16.153 10.5106 16.6043 13.2695 16.6043C16.6014 16.6043 19.6349 15.9489 21.8523 14.8736C24.0735 13.8023 25.5216 12.2717 25.5216 10.5097ZM4.96541 2.25655C7.07283 1.23228 10.0279 0.588666 13.2931 0.588666C16.5503 0.588666 19.4897 1.23228 21.5972 2.25655C23.7007 3.27692 24.9172 4.65831 24.9172 6.09467C24.9172 7.5271 23.7007 8.89672 21.5972 9.92099C19.4897 10.9453 16.5503 11.5889 13.2931 11.5889C10.0279 11.5889 7.07283 10.9453 4.96541 9.92099C2.85796 8.89672 1.64139 7.5271 1.64139 6.09467C1.64139 4.65831 2.85796 3.27692 4.96541 2.25655ZM3.93718 16.0274C4.03529 15.9803 4.14912 15.9411 4.25506 15.894V17.5383C4.25506 19.3004 5.70711 20.827 7.9205 21.9023C10.1378 22.9776 13.1596 23.633 16.4954 23.633C18.3477 23.633 20.1019 23.4211 21.6835 23.0561C21.3421 23.2798 20.9771 23.4956 20.5651 23.6918C18.4615 24.7161 15.5182 25.3597 12.2649 25.3597C8.99972 25.3597 6.04463 24.7161 3.93718 23.6918C1.82976 22.6715 0.613194 21.3019 0.613194 19.8655C0.613194 18.4331 1.82976 17.0517 3.93718 16.0274ZM0.58572 24.2805V21.7179C1.20186 22.699 2.28501 23.5427 3.67818 24.2217C5.89157 25.293 8.92122 25.9484 12.2609 25.9484C15.5967 25.9484 18.6107 25.293 20.8241 24.2217C21.7424 23.7743 22.5233 23.2484 23.1277 22.6636C23.3946 22.5773 23.6497 22.4871 23.9008 22.3928V24.2805C23.9008 25.7169 22.6803 27.0983 20.5651 28.1186C18.4498 29.1429 15.4947 29.7865 12.2374 29.7865C8.98403 29.7865 6.03284 29.1429 3.92149 28.1186C1.81407 27.0983 0.58572 25.7169 0.58572 24.2805ZM27.2994 30.7205C27.2994 32.153 26.075 33.5343 23.9636 34.5586C21.8483 35.5829 18.8893 36.2265 15.6359 36.2265C12.3787 36.2265 9.4314 35.5829 7.32007 34.5586C5.20872 33.5343 3.9843 32.153 3.9843 30.7205V28.7936C4.24723 28.9153 4.52194 29.0291 4.80449 29.139C5.40494 29.708 6.17019 30.2182 7.07283 30.6577C9.28619 31.733 12.3198 32.3884 15.6595 32.3884C18.9913 32.3884 22.0092 31.733 24.2187 30.6577C25.6001 29.9867 26.6793 29.1507 27.2994 28.1814V30.7205ZM27.2876 26.3055C27.2876 27.738 26.0671 29.1076 23.9636 30.1319C21.8562 31.1561 18.9168 31.7997 15.6595 31.7997C12.3944 31.7997 9.43925 31.1561 7.33183 30.1319C7.0375 29.9906 6.76671 29.8454 6.51161 29.6884C8.22269 30.1397 10.1692 30.3752 12.2374 30.3752C15.5692 30.3752 18.6028 29.7198 20.8241 28.6484C23.0414 27.5731 24.4895 26.0465 24.4895 24.2805V22.75C26.2672 23.735 27.2876 24.9987 27.2876 26.3055ZM16.4954 23.0443C13.2381 23.0443 10.2869 22.3968 8.1795 21.3764C6.06817 20.3522 4.84373 18.9707 4.84373 17.5383V14.9717C5.45596 15.9529 6.53909 16.7966 7.93228 17.4755C10.1456 18.5508 13.1793 19.2062 16.5189 19.2062C19.8508 19.2062 22.8687 18.5508 25.0782 17.4755C26.4595 16.8045 27.5388 15.9685 28.1549 14.9992V17.5383C28.1549 18.9707 26.9344 20.3522 24.8191 21.3764C22.7078 22.3968 19.7488 23.0443 16.4954 23.0443ZM24.4267 18.2957C24.4071 18.2957 24.3875 18.3036 24.3678 18.3075C24.2344 18.3389 24.1324 18.4684 24.1324 18.6019V20.6386C24.1324 20.7956 24.2736 20.933 24.4267 20.933C24.5837 20.933 24.7249 20.7956 24.721 20.6386V18.6019C24.7289 18.4449 24.5876 18.2957 24.4267 18.2957ZM23.5084 31.4936C23.3749 31.5211 23.2729 31.6506 23.2768 31.788V33.8247C23.2729 33.9778 23.4142 34.1191 23.5712 34.1191C23.7242 34.1191 23.8655 33.9778 23.8655 33.8247V31.788C23.8694 31.6114 23.681 31.4544 23.5084 31.4936ZM20.1726 27.6791C20.3296 27.6791 20.4708 27.5417 20.4669 27.3847V25.348C20.4748 25.191 20.3296 25.0418 20.1726 25.0418C20.153 25.0418 20.1333 25.0497 20.1098 25.0536C19.9803 25.0811 19.8743 25.2145 19.8783 25.348V27.3847C19.8783 27.5417 20.0156 27.6791 20.1726 27.6791ZM19.7448 19.5987C19.7213 19.5987 19.7017 19.6026 19.6821 19.6104C19.5486 19.6379 19.4466 19.7674 19.4505 19.9048V21.9376C19.4466 22.0946 19.5878 22.232 19.7448 22.232C19.8979 22.232 20.0392 22.0946 20.0392 21.9376V19.9048C20.0431 19.7439 19.9018 19.5947 19.7448 19.5987ZM18.8226 32.7926C18.6892 32.8201 18.5871 32.9496 18.591 33.0869V35.1237C18.5871 35.2768 18.7284 35.4181 18.8854 35.4181C19.0424 35.4181 19.1797 35.2768 19.1797 35.1237V33.0869C19.1836 32.9104 18.9953 32.7573 18.8226 32.7926ZM15.4868 28.9781C15.6438 28.9781 15.7851 28.8407 15.7812 28.6837V26.647C15.789 26.49 15.6477 26.3408 15.4868 26.3408C15.4672 26.3408 15.4476 26.3487 15.428 26.3526C15.2945 26.384 15.1925 26.5135 15.1925 26.647V28.6837C15.1925 28.8407 15.3338 28.9781 15.4868 28.9781ZM14.4468 19.7439H14.4194C14.2899 19.7713 14.1839 19.9008 14.1878 20.0382V22.2594C14.1878 22.4125 14.3252 22.5538 14.4822 22.5538C14.6391 22.5538 14.7804 22.4125 14.7765 22.2594V20.0382C14.7765 19.8694 14.6117 19.7242 14.4468 19.7439ZM13.5874 32.9261C13.4461 32.9457 13.3284 33.0791 13.3284 33.2204V35.4416C13.3284 35.5986 13.4697 35.7359 13.6227 35.7359C13.7797 35.7359 13.921 35.5986 13.9171 35.4416V33.2204C13.921 33.0556 13.7522 32.9064 13.5874 32.9261ZM10.1888 26.49H10.1653C10.0318 26.5174 9.92981 26.647 9.93374 26.7843V29.0016C9.92981 29.1586 10.0711 29.2959 10.2281 29.2959C10.3811 29.2959 10.5224 29.1586 10.5224 29.0016V26.7843C10.5224 26.6155 10.3576 26.4664 10.1888 26.49ZM9.45494 18.6764H9.4314C9.29405 18.7078 9.18808 18.8452 9.19594 18.9825V21.192C9.19594 21.345 9.33721 21.4863 9.49027 21.4863C9.64726 21.4863 9.78853 21.345 9.78461 21.192V18.9825C9.79246 18.8138 9.62371 18.6568 9.45494 18.6764ZM8.59551 31.8625C8.45029 31.8782 8.33256 32.0195 8.33649 32.1686V34.3742C8.33649 34.5312 8.47776 34.6685 8.63082 34.6685C8.78781 34.6685 8.92908 34.5312 8.92515 34.3742V32.1686C8.93694 31.996 8.76426 31.839 8.59551 31.8625ZM6.21728 16.7888C6.19766 16.7888 6.17412 16.7927 6.1545 16.8005C6.02106 16.828 5.91904 16.9575 5.92295 17.0949V19.3161C5.91904 19.4692 6.06032 19.6104 6.21728 19.6104C6.37034 19.6104 6.51161 19.4692 6.51161 19.3161V17.0949C6.51947 16.9379 6.37427 16.7888 6.21728 16.7888ZM5.29505 29.9827C5.16553 30.0141 5.05959 30.1436 5.06352 30.2771V32.4983C5.06352 32.6553 5.20086 32.7926 5.35785 32.7926C5.51481 32.7926 5.65609 32.6553 5.65218 32.4983V30.2771C5.65609 30.1005 5.47165 29.9474 5.29505 29.9827ZM5.19694 25.4225H5.17339C5.03604 25.45 4.934 25.5873 4.94184 25.7286V27.9381C4.93793 28.0911 5.07921 28.2324 5.23617 28.2324C5.38923 28.2324 5.5305 28.0911 5.5305 27.9381V25.7286C5.53836 25.5559 5.36961 25.399 5.19694 25.4225ZM1.95927 23.5349C1.93966 23.5349 1.92004 23.5388 1.9004 23.5466C1.76698 23.5741 1.66494 23.7036 1.66494 23.841V26.0583C1.66494 26.2153 1.80621 26.3526 1.95927 26.3526C2.11626 26.3526 2.25753 26.2153 2.25361 26.0583V23.841C2.26146 23.6801 2.12019 23.5349 1.95927 23.5349ZM5.29505 29.9827C5.16553 30.0141 5.05959 30.1436 5.06352 30.2771V32.4983C5.06352 32.6553 5.20086 32.7926 5.35785 32.7926C5.51481 32.7926 5.65609 32.6553 5.65218 32.4983V30.2771C5.65609 30.1005 5.47165 29.9474 5.29505 29.9827ZM8.59551 31.8625C8.45029 31.8782 8.33256 32.0195 8.33649 32.1686V34.3742C8.33649 34.5312 8.47776 34.6685 8.63082 34.6685C8.78781 34.6685 8.92908 34.5312 8.92515 34.3742V32.1686C8.93694 31.996 8.76426 31.839 8.59551 31.8625ZM13.5874 32.9261C13.4461 32.9457 13.3284 33.0791 13.3284 33.2204V35.4416C13.3284 35.5986 13.4697 35.7359 13.6227 35.7359C13.7797 35.7359 13.921 35.5986 13.9171 35.4416V33.2204C13.921 33.0556 13.7522 32.9064 13.5874 32.9261ZM18.8226 32.7926C18.6892 32.8201 18.5871 32.9496 18.591 33.0869V35.1237C18.5871 35.2768 18.7284 35.4181 18.8854 35.4181C19.0424 35.4181 19.1797 35.2768 19.1797 35.1237V33.0869C19.1836 32.9104 18.9953 32.7573 18.8226 32.7926ZM23.5084 31.4936C23.3749 31.5211 23.2729 31.6506 23.2768 31.788V33.8247C23.2729 33.9778 23.4142 34.1191 23.5712 34.1191C23.7242 34.1191 23.8655 33.9778 23.8655 33.8247V31.788C23.8694 31.6114 23.681 31.4544 23.5084 31.4936ZM23.5084 31.4936C23.3749 31.5211 23.2729 31.6506 23.2768 31.788V33.8247C23.2729 33.9778 23.4142 34.1191 23.5712 34.1191C23.7242 34.1191 23.8655 33.9778 23.8655 33.8247V31.788C23.8694 31.6114 23.681 31.4544 23.5084 31.4936ZM18.8226 32.7926C18.6892 32.8201 18.5871 32.9496 18.591 33.0869V35.1237C18.5871 35.2768 18.7284 35.4181 18.8854 35.4181C19.0424 35.4181 19.1797 35.2768 19.1797 35.1237V33.0869C19.1836 32.9104 18.9953 32.7573 18.8226 32.7926ZM13.5874 32.9261C13.4461 32.9457 13.3284 33.0791 13.3284 33.2204V35.4416C13.3284 35.5986 13.4697 35.7359 13.6227 35.7359C13.7797 35.7359 13.921 35.5986 13.9171 35.4416V33.2204C13.921 33.0556 13.7522 32.9064 13.5874 32.9261ZM8.59551 31.8625C8.45029 31.8782 8.33256 32.0195 8.33649 32.1686V34.3742C8.33649 34.5312 8.47776 34.6685 8.63082 34.6685C8.78781 34.6685 8.92908 34.5312 8.92515 34.3742V32.1686C8.93694 31.996 8.76426 31.839 8.59551 31.8625ZM5.29505 29.9827C5.16553 30.0141 5.05959 30.1436 5.06352 30.2771V32.4983C5.06352 32.6553 5.20086 32.7926 5.35785 32.7926C5.51481 32.7926 5.65609 32.6553 5.65218 32.4983V30.2771C5.65609 30.1005 5.47165 29.9474 5.29505 29.9827Z" fill="black"/>
<path d="M1.61766 7.94629C2.23187 8.92524 3.31376 9.77131 4.70815 10.4481C6.92142 11.5224 9.95199 12.1773 13.2929 12.1773C16.6258 12.1773 19.6418 11.5224 21.8528 10.4481C23.2349 9.7767 24.3139 8.93995 24.9311 7.97082V10.5095C24.9311 11.9428 23.709 13.325 21.5953 14.348C19.4816 15.3711 16.5238 16.0159 13.2681 16.0159C10.0125 16.0159 7.06274 15.371 4.95296 14.348C2.84342 13.3251 1.61719 11.9433 1.61719 10.5095V7.94634L1.61766 7.94629Z" fill="#00953B"/>
<path d="M3.00393 9.74907C2.97899 9.75001 2.95426 9.75413 2.93035 9.76131C2.93027 9.76538 2.93027 9.76948 2.93035 9.77355C2.79208 9.80299 2.69425 9.92654 2.69734 10.0679V12.2876C2.69496 12.4502 2.82482 12.5839 2.98737 12.5862C3.14993 12.5886 3.28363 12.4588 3.286 12.2962C3.28604 12.2933 3.28604 12.2905 3.286 12.2876V10.0679C3.29965 9.90589 3.17939 9.76349 3.01739 9.74984C3.01291 9.74948 3.00842 9.74924 3.00393 9.74907Z" fill="black"/>
<path d="M21.2149 11.2579C21.1899 11.2588 21.1652 11.2629 21.1413 11.2701C21.1412 11.2742 21.1412 11.2783 21.1413 11.2823C21.003 11.3118 20.9052 11.4353 20.9083 11.5767V13.6125C20.9059 13.775 21.0358 13.9087 21.1983 13.9111C21.3609 13.9135 21.4946 13.7836 21.4969 13.6211C21.497 13.6182 21.497 13.6154 21.4969 13.6125V11.5767C21.5106 11.4147 21.3903 11.2723 21.2283 11.2586C21.2238 11.2583 21.2194 11.258 21.2149 11.2579Z" fill="black"/>
<path d="M6.24087 11.6379C6.23666 11.6418 6.23257 11.6459 6.22861 11.6501C6.07577 11.6692 5.96348 11.8028 5.97107 11.9567V14.1642C5.96869 14.3267 6.09854 14.4604 6.2611 14.4628C6.42366 14.4652 6.55736 14.3353 6.55973 14.1728C6.55977 14.1699 6.55977 14.1671 6.55973 14.1642V11.9567C6.57388 11.7947 6.45405 11.652 6.2921 11.6378C6.27505 11.6363 6.25791 11.6364 6.24087 11.6379Z" fill="black"/>
<path d="M16.5293 12.5577C16.5044 12.5586 16.4797 12.5627 16.4557 12.5699C16.4557 12.574 16.4557 12.5781 16.4557 12.5821C16.3175 12.6116 16.2196 12.7351 16.2227 12.8765V14.9123C16.2204 15.0748 16.3502 15.2085 16.5128 15.2109C16.6753 15.2133 16.809 15.0834 16.8114 14.9209C16.8114 14.918 16.8114 14.9152 16.8114 14.9123V12.8765C16.825 12.7145 16.7048 12.5721 16.5428 12.5584C16.5383 12.5581 16.5338 12.5578 16.5293 12.5577Z" fill="black"/>
<path d="M11.2205 12.7045C11.2204 12.7086 11.2204 12.7127 11.2205 12.7168C11.0724 12.7354 10.9618 12.8619 10.9629 13.0111V15.2308C10.9605 15.3934 11.0904 15.5271 11.253 15.5295C11.4155 15.5319 11.5492 15.402 11.5516 15.2394C11.5516 15.2366 11.5516 15.2337 11.5516 15.2308V13.0111C11.5596 12.8487 11.4345 12.7106 11.2722 12.7025C11.2549 12.7017 11.2376 12.7023 11.2205 12.7045Z" fill="black"/>
<path d="M25.0782 17.4755C22.8687 18.5508 19.8508 19.2061 16.519 19.2061C13.1793 19.2061 10.1457 18.5508 7.93231 17.4755C6.53911 16.7966 5.45599 15.9528 4.84375 14.9717V17.5383C4.84375 18.9707 6.0682 20.3521 8.17952 21.3764C10.287 22.3967 13.2381 23.0443 16.4954 23.0443C19.7488 23.0443 22.7078 22.3967 24.8192 21.3764C26.9344 20.3521 28.1549 18.9707 28.1549 17.5383V14.9992C27.5388 15.9685 26.4596 16.8044 25.0782 17.4755ZM6.51164 19.316C6.51164 19.4691 6.37036 19.6104 6.2173 19.6104C6.06034 19.6104 5.91907 19.4691 5.92297 19.316V17.0948C5.91907 16.9574 6.02108 16.8279 6.15452 16.8005C6.17414 16.7926 6.19769 16.7887 6.2173 16.7887C6.37429 16.7887 6.51949 16.9378 6.51164 17.0948V19.316ZM9.78463 21.1919C9.78856 21.345 9.64728 21.4862 9.4903 21.4862C9.33724 21.4862 9.19596 21.345 9.19596 21.1919V18.9824C9.18811 18.8451 9.29407 18.7078 9.43142 18.6764H9.45497C9.62374 18.6567 9.79249 18.8137 9.78463 18.9824V21.1919ZM14.7765 22.2594C14.7804 22.4124 14.6392 22.5537 14.4822 22.5537C14.3252 22.5537 14.1879 22.4124 14.1879 22.2594V20.0381C14.1839 19.9008 14.2899 19.7713 14.4194 19.7438H14.4469C14.6117 19.7242 14.7765 19.8694 14.7765 20.0381V22.2594ZM20.0392 21.9376C20.0392 22.0945 19.8979 22.2319 19.7449 22.2319C19.5879 22.2319 19.4466 22.0945 19.4505 21.9376V19.9047C19.4466 19.7673 19.5486 19.6378 19.6821 19.6104C19.7017 19.6025 19.7213 19.5986 19.7449 19.5986C19.9018 19.5947 20.0431 19.7438 20.0392 19.9047V21.9376ZM24.721 20.6386C24.725 20.7956 24.5837 20.9329 24.4267 20.9329C24.2737 20.9329 24.1324 20.7956 24.1324 20.6386V18.6018C24.1324 18.4683 24.2344 18.3389 24.3678 18.3075C24.3875 18.3035 24.4071 18.2957 24.4267 18.2957C24.5876 18.2957 24.7289 18.4448 24.721 18.6018V20.6386Z" fill="#00953B"/>
<path d="M6.51065 17.0952V19.3164C6.51065 19.4695 6.36938 19.6107 6.21632 19.6107C6.05935 19.6107 5.91808 19.4695 5.92198 19.3164V17.0952C5.91808 16.9578 6.02009 16.8283 6.15354 16.8008C6.17315 16.793 6.1967 16.7891 6.21632 16.7891C6.3733 16.7891 6.51851 16.9382 6.51065 17.0952Z" fill="black"/>
<path d="M9.78439 18.9826V21.192C9.78832 21.3451 9.64704 21.4864 9.49006 21.4864C9.337 21.4864 9.19572 21.3451 9.19572 21.192V18.9826C9.18787 18.8452 9.29383 18.7079 9.43118 18.6765H9.45473C9.6235 18.6569 9.79225 18.8138 9.78439 18.9826Z" fill="black"/>
<path d="M14.7763 20.0383V22.2595C14.7802 22.4126 14.6389 22.5539 14.4819 22.5539C14.325 22.5539 14.1876 22.4126 14.1876 22.2595V20.0383C14.1837 19.901 14.2896 19.7714 14.4191 19.744H14.4466C14.6114 19.7244 14.7763 19.8696 14.7763 20.0383Z" fill="black"/>
<path d="M20.0399 19.9048V21.9377C20.0399 22.0947 19.8987 22.232 19.7456 22.232C19.5886 22.232 19.4474 22.0947 19.4513 21.9377V19.9048C19.4474 19.7675 19.5494 19.638 19.6828 19.6105C19.7025 19.6026 19.7221 19.5987 19.7456 19.5987C19.9026 19.5948 20.0439 19.7439 20.0399 19.9048Z" fill="black"/>
<path d="M24.7215 18.602V20.6388C24.7254 20.7958 24.5841 20.9331 24.4271 20.9331C24.2741 20.9331 24.1328 20.7958 24.1328 20.6388V18.602C24.1328 18.4686 24.2349 18.3391 24.3683 18.3077C24.3879 18.3038 24.4075 18.2959 24.4271 18.2959C24.5881 18.2959 24.7293 18.445 24.7215 18.602Z" fill="black"/>
<path d="M6.51065 17.0952V19.3164C6.51065 19.4695 6.36938 19.6107 6.21632 19.6107C6.05935 19.6107 5.91808 19.4695 5.92198 19.3164V17.0952C5.91808 16.9578 6.02009 16.8283 6.15354 16.8008C6.17315 16.793 6.1967 16.7891 6.21632 16.7891C6.3733 16.7891 6.51851 16.9382 6.51065 17.0952Z" fill="black"/>
<path d="M24.7215 18.602V20.6388C24.7254 20.7958 24.5841 20.9331 24.4271 20.9331C24.2741 20.9331 24.1328 20.7958 24.1328 20.6388V18.602C24.1328 18.4686 24.2349 18.3391 24.3683 18.3077C24.3879 18.3038 24.4075 18.2959 24.4271 18.2959C24.5881 18.2959 24.7293 18.445 24.7215 18.602Z" fill="black"/>
<path d="M9.78439 18.9826V21.192C9.78832 21.3451 9.64704 21.4864 9.49006 21.4864C9.337 21.4864 9.19572 21.3451 9.19572 21.192V18.9826C9.18787 18.8452 9.29383 18.7079 9.43118 18.6765H9.45473C9.6235 18.6569 9.79225 18.8138 9.78439 18.9826Z" fill="black"/>
<path d="M20.0399 19.9048V21.9377C20.0399 22.0947 19.8987 22.232 19.7456 22.232C19.5886 22.232 19.4474 22.0947 19.4513 21.9377V19.9048C19.4474 19.7675 19.5494 19.638 19.6828 19.6105C19.7025 19.6026 19.7221 19.5987 19.7456 19.5987C19.9026 19.5948 20.0439 19.7439 20.0399 19.9048Z" fill="black"/>
<path d="M14.7763 20.0383V22.2595C14.7802 22.4126 14.6389 22.5539 14.4819 22.5539C14.325 22.5539 14.1876 22.4126 14.1876 22.2595V20.0383C14.1837 19.901 14.2896 19.7714 14.4191 19.744H14.4466C14.6114 19.7244 14.7763 19.8696 14.7763 20.0383Z" fill="black"/>
<path d="M23.1279 22.6636C22.5236 23.2483 21.7426 23.7742 20.8243 24.2216C18.6109 25.2929 15.5969 25.9483 12.2611 25.9483C8.92144 25.9483 5.89179 25.2929 3.6784 24.2216C2.28523 23.5426 1.20208 22.6989 0.585938 21.7178V24.2804C0.585938 25.7168 1.81429 27.0982 3.92171 28.1185C6.03306 29.1428 8.98425 29.7864 12.2376 29.7864C15.4949 29.7864 18.45 29.1428 20.5653 28.1185C22.6805 27.0982 23.901 25.7168 23.901 24.2804V22.3928C23.6499 22.487 23.3948 22.5772 23.1279 22.6636ZM2.25382 26.0582C2.25775 26.2152 2.11648 26.3525 1.95949 26.3525C1.80643 26.3525 1.66516 26.2152 1.66516 26.0582V23.8409C1.66516 23.7035 1.7672 23.574 1.90062 23.5466C1.92026 23.5387 1.93987 23.5348 1.95949 23.5348C2.12041 23.5348 2.26168 23.68 2.25382 23.8409V26.0582ZM5.53072 27.938C5.53072 28.0911 5.38945 28.2323 5.23639 28.2323C5.07942 28.2323 4.93815 28.0911 4.94206 27.938V25.7285C4.93422 25.5873 5.03626 25.4499 5.17361 25.4224H5.19715C5.36983 25.3989 5.53858 25.5559 5.53072 25.7285V27.938ZM10.5226 29.0015C10.5226 29.1585 10.3813 29.2959 10.2283 29.2959C10.0713 29.2959 9.93003 29.1585 9.93395 29.0015V26.7842C9.93003 26.6469 10.0321 26.5174 10.1655 26.4899H10.1891C10.3578 26.4663 10.5226 26.6155 10.5226 26.7842V29.0015ZM15.7814 28.6837C15.7853 28.8406 15.644 28.978 15.487 28.978C15.334 28.978 15.1927 28.8406 15.1927 28.6837V26.6469C15.1927 26.5134 15.2947 26.3839 15.4282 26.3525C15.4478 26.3486 15.4674 26.3408 15.487 26.3408C15.6479 26.3408 15.7892 26.4899 15.7814 26.6469V28.6837ZM20.4672 27.3847C20.4711 27.5417 20.3298 27.679 20.1728 27.679C20.0158 27.679 19.8785 27.5417 19.8785 27.3847V25.3479C19.8746 25.2144 19.9805 25.081 20.11 25.0535C20.1336 25.0496 20.1532 25.0418 20.1728 25.0418C20.3298 25.0418 20.475 25.1909 20.4672 25.3479V27.3847Z" fill="#00953B"/>
<path d="M2.25273 23.8413V26.0586C2.25666 26.2156 2.11538 26.3529 1.9584 26.3529C1.80534 26.3529 1.66406 26.2156 1.66406 26.0586V23.8413C1.66406 23.7039 1.7661 23.5744 1.89952 23.5469C1.91916 23.5391 1.93878 23.5352 1.9584 23.5352C2.11931 23.5352 2.26058 23.6804 2.25273 23.8413Z" fill="black"/>
<path d="M5.53049 25.7284V27.9378C5.53049 28.0909 5.38922 28.2322 5.23616 28.2322C5.0792 28.2322 4.93792 28.0909 4.94183 27.9378V25.7284C4.934 25.5871 5.03604 25.4497 5.17338 25.4223H5.19693C5.3696 25.3987 5.53835 25.5557 5.53049 25.7284Z" fill="black"/>
<path d="M10.5224 26.7841V29.0014C10.5224 29.1584 10.3811 29.2957 10.228 29.2957C10.071 29.2957 9.92978 29.1584 9.9337 29.0014V26.7841C9.92978 26.6468 10.0318 26.5172 10.1653 26.4898H10.1888C10.3575 26.4662 10.5224 26.6153 10.5224 26.7841Z" fill="black"/>
<path d="M15.782 26.6469V28.6837C15.7859 28.8407 15.6447 28.9781 15.4877 28.9781C15.3346 28.9781 15.1934 28.8407 15.1934 28.6837V26.6469C15.1934 26.5135 15.2954 26.384 15.4288 26.3526C15.4484 26.3487 15.4681 26.3408 15.4877 26.3408C15.6486 26.3408 15.7899 26.49 15.782 26.6469Z" fill="black"/>
<path d="M20.4677 25.3481V27.3849C20.4716 27.5419 20.3303 27.6792 20.1733 27.6792C20.0164 27.6792 19.879 27.5419 19.879 27.3849V25.3481C19.8751 25.2147 19.981 25.0813 20.1105 25.0538C20.1341 25.0498 20.1537 25.042 20.1733 25.042C20.3303 25.042 20.4755 25.1911 20.4677 25.3481Z" fill="black"/>
<path d="M2.25273 23.8413V26.0586C2.25666 26.2156 2.11538 26.3529 1.9584 26.3529C1.80534 26.3529 1.66406 26.2156 1.66406 26.0586V23.8413C1.66406 23.7039 1.7661 23.5744 1.89952 23.5469C1.91916 23.5391 1.93878 23.5352 1.9584 23.5352C2.11931 23.5352 2.26058 23.6804 2.25273 23.8413Z" fill="black"/>
<path d="M20.4677 25.3481V27.3849C20.4716 27.5419 20.3303 27.6792 20.1733 27.6792C20.0164 27.6792 19.879 27.5419 19.879 27.3849V25.3481C19.8751 25.2147 19.981 25.0813 20.1105 25.0538C20.1341 25.0498 20.1537 25.042 20.1733 25.042C20.3303 25.042 20.4755 25.1911 20.4677 25.3481Z" fill="black"/>
<path d="M5.53049 25.7284V27.9378C5.53049 28.0909 5.38922 28.2322 5.23616 28.2322C5.0792 28.2322 4.93792 28.0909 4.94183 27.9378V25.7284C4.934 25.5871 5.03604 25.4497 5.17338 25.4223H5.19693C5.3696 25.3987 5.53835 25.5557 5.53049 25.7284Z" fill="black"/>
<path d="M15.782 26.6469V28.6837C15.7859 28.8407 15.6447 28.9781 15.4877 28.9781C15.3346 28.9781 15.1934 28.8407 15.1934 28.6837V26.6469C15.1934 26.5135 15.2954 26.384 15.4288 26.3526C15.4484 26.3487 15.4681 26.3408 15.4877 26.3408C15.6486 26.3408 15.7899 26.49 15.782 26.6469Z" fill="black"/>
<path d="M10.5224 26.7841V29.0014C10.5224 29.1584 10.3811 29.2957 10.228 29.2957C10.071 29.2957 9.92978 29.1584 9.9337 29.0014V26.7841C9.92978 26.6468 10.0318 26.5172 10.1653 26.4898H10.1888C10.3575 26.4662 10.5224 26.6153 10.5224 26.7841Z" fill="black"/>
<path d="M24.2188 30.658C22.0093 31.7333 18.9914 32.3887 15.6596 32.3887C12.3199 32.3887 9.28627 31.7333 7.07291 30.658C6.17027 30.2184 5.40502 29.7083 4.80457 29.1392C4.52202 29.0293 4.24731 28.9155 3.98438 28.7939V30.7208C3.98438 32.1532 5.2088 33.5346 7.32015 34.5589C9.43147 35.5832 12.3787 36.2267 15.636 36.2267C18.8894 36.2267 21.8484 35.5832 23.9637 34.5589C26.075 33.5346 27.2995 32.1532 27.2995 30.7208V28.1816C26.6794 29.151 25.6002 29.9869 24.2188 30.658ZM5.65226 32.4985C5.65617 32.6555 5.51489 32.7929 5.35793 32.7929C5.20094 32.7929 5.0636 32.6555 5.0636 32.4985V30.2773C5.05967 30.1439 5.16561 30.0144 5.29512 29.983C5.47173 29.9476 5.65617 30.1007 5.65226 30.2773V32.4985ZM8.92523 34.3744C8.92916 34.5314 8.78788 34.6688 8.6309 34.6688C8.47784 34.6688 8.33656 34.5314 8.33656 34.3744V32.1689C8.33264 32.0198 8.45036 31.8785 8.59559 31.8628C8.76434 31.8392 8.93702 31.9962 8.92523 32.1689V34.3744ZM13.9171 35.4419C13.921 35.5988 13.7798 35.7362 13.6228 35.7362C13.4697 35.7362 13.3285 35.5988 13.3285 35.4419V33.2206C13.3285 33.0794 13.4462 32.9459 13.5875 32.9263C13.7523 32.9067 13.921 33.0558 13.9171 33.2206V35.4419ZM19.1798 35.124C19.1798 35.277 19.0424 35.4183 18.8855 35.4183C18.7285 35.4183 18.5872 35.277 18.5911 35.124V33.0872C18.5872 32.9498 18.6892 32.8203 18.8227 32.7929C18.9954 32.7576 19.1837 32.9106 19.1798 33.0872V35.124ZM23.8656 33.825C23.8656 33.978 23.7243 34.1193 23.5712 34.1193C23.4143 34.1193 23.273 33.978 23.2769 33.825V31.7882C23.273 31.6509 23.375 31.5213 23.5085 31.4939C23.6811 31.4546 23.8695 31.6116 23.8656 31.7882V33.825Z" fill="#00953B"/>
<path d="M5.65127 30.277V32.4982C5.65518 32.6552 5.5139 32.7925 5.35694 32.7925C5.19995 32.7925 5.06261 32.6552 5.06261 32.4982V30.277C5.05868 30.1435 5.16462 30.0141 5.29413 29.9827C5.47074 29.9473 5.65518 30.1004 5.65127 30.277Z" fill="black"/>
<path d="M8.9247 32.1688V34.3744C8.92863 34.5313 8.78735 34.6687 8.63037 34.6687C8.47731 34.6687 8.33603 34.5313 8.33603 34.3744V32.1688C8.3321 32.0197 8.44983 31.8784 8.59506 31.8627C8.76381 31.8392 8.93648 31.9961 8.9247 32.1688Z" fill="black"/>
<path d="M13.9168 33.2199V35.4411C13.9207 35.5981 13.7794 35.7355 13.6225 35.7355C13.4694 35.7355 13.3281 35.5981 13.3281 35.4411V33.2199C13.3281 33.0786 13.4459 32.9452 13.5871 32.9256C13.7519 32.906 13.9207 33.0551 13.9168 33.2199Z" fill="black"/>
<path d="M19.1806 33.0866V35.1233C19.1806 35.2764 19.0432 35.4177 18.8862 35.4177C18.7293 35.4177 18.588 35.2764 18.5919 35.1233V33.0866C18.588 32.9492 18.69 32.8197 18.8235 32.7922C18.9961 32.7569 19.1845 32.91 19.1806 33.0866Z" fill="black"/>
<path d="M23.8661 31.7877V33.8245C23.8661 33.9776 23.7248 34.1188 23.5718 34.1188C23.4148 34.1188 23.2735 33.9776 23.2775 33.8245V31.7877C23.2735 31.6504 23.3756 31.5209 23.509 31.4934C23.6817 31.4541 23.87 31.6111 23.8661 31.7877Z" fill="black"/>
<path d="M5.65127 30.277V32.4982C5.65518 32.6552 5.5139 32.7925 5.35694 32.7925C5.19995 32.7925 5.06261 32.6552 5.06261 32.4982V30.277C5.05868 30.1435 5.16462 30.0141 5.29413 29.9827C5.47074 29.9473 5.65518 30.1004 5.65127 30.277Z" fill="black"/>
<path d="M23.8661 31.7877V33.8245C23.8661 33.9776 23.7248 34.1188 23.5718 34.1188C23.4148 34.1188 23.2735 33.9776 23.2775 33.8245V31.7877C23.2735 31.6504 23.3756 31.5209 23.509 31.4934C23.6817 31.4541 23.87 31.6111 23.8661 31.7877Z" fill="black"/>
<path d="M8.9247 32.1688V34.3744C8.92863 34.5313 8.78735 34.6687 8.63037 34.6687C8.47731 34.6687 8.33603 34.5313 8.33603 34.3744V32.1688C8.3321 32.0197 8.44983 31.8784 8.59506 31.8627C8.76381 31.8392 8.93648 31.9961 8.9247 32.1688Z" fill="black"/>
<path d="M19.1806 33.0866V35.1233C19.1806 35.2764 19.0432 35.4177 18.8862 35.4177C18.7293 35.4177 18.588 35.2764 18.5919 35.1233V33.0866C18.588 32.9492 18.69 32.8197 18.8235 32.7922C18.9961 32.7569 19.1845 32.91 19.1806 33.0866Z" fill="black"/>
<path d="M13.9168 33.2199V35.4411C13.9207 35.5981 13.7794 35.7355 13.6225 35.7355C13.4694 35.7355 13.3281 35.5981 13.3281 35.4411V33.2199C13.3281 33.0786 13.4459 32.9452 13.5871 32.9256C13.7519 32.906 13.9207 33.0551 13.9168 33.2199Z" fill="black"/>
<path d="M14.8006 8.90901C14.7082 8.82273 14.615 8.73645 14.5226 8.65016C14.2997 8.44324 14.0775 8.23556 13.8545 8.02863C13.5858 7.77895 13.3178 7.52927 13.049 7.27959C12.8161 7.06274 12.5832 6.8459 12.3503 6.62981C12.2373 6.52444 12.0655 6.45343 12.0953 6.5252V6.30683L11.7899 6.61225H12.235C12.3877 6.61225 12.542 6.61759 12.6947 6.61072C13.372 6.57942 14.0095 6.18848 14.3249 5.58375C14.4829 5.28138 14.5654 4.93778 14.5478 4.59648C14.5303 4.25899 14.4287 3.92455 14.2432 3.64128C14.0607 3.36334 13.8095 3.12512 13.5125 2.97241C13.2338 2.8281 12.9276 2.75174 12.6138 2.75098H11.5967C11.4371 2.75098 11.2837 2.89147 11.2913 3.0564C11.2989 3.22209 11.4257 3.36182 11.5967 3.36182H12.5618C12.6519 3.36182 12.742 3.36411 12.8314 3.37556C12.8046 3.37174 12.7772 3.36793 12.7504 3.36487C12.894 3.38396 13.0337 3.42214 13.1673 3.47788C13.1429 3.46795 13.1185 3.45726 13.094 3.44733C13.2246 3.50307 13.3468 3.57485 13.459 3.66113C13.4384 3.64509 13.4178 3.62906 13.3972 3.61302C13.5056 3.69778 13.6026 3.79475 13.6873 3.90317C13.6713 3.88256 13.6552 3.86194 13.6392 3.84133C13.7255 3.95357 13.7973 4.07574 13.853 4.2063C13.8431 4.18187 13.8324 4.15744 13.8225 4.133C13.8782 4.26662 13.9164 4.40635 13.9355 4.5499C13.9316 4.52318 13.9278 4.49569 13.9248 4.46896C13.9431 4.60946 13.9431 4.75224 13.9248 4.89273C13.9286 4.86601 13.9324 4.83852 13.9355 4.8118C13.9164 4.95535 13.8782 5.09508 13.8225 5.2287C13.8324 5.20426 13.8431 5.17983 13.853 5.1554C13.7973 5.28596 13.7255 5.40813 13.6392 5.52037C13.6552 5.49976 13.6713 5.47914 13.6873 5.45852C13.6026 5.56695 13.5056 5.66392 13.3972 5.74867C13.4178 5.73264 13.4384 5.7166 13.459 5.70057C13.3468 5.78685 13.2246 5.85863 13.094 5.91436C13.1185 5.90444 13.1429 5.89375 13.1673 5.88382C13.0337 5.93956 12.894 5.97774 12.7504 5.99683C12.7772 5.99301 12.8046 5.98919 12.8314 5.98614C12.6955 6.0037 12.5588 5.99988 12.4221 5.99988H11.7899C11.625 5.99988 11.4845 6.13961 11.4845 6.3053C11.4845 6.37631 11.4829 6.44732 11.4845 6.51833C11.486 6.6092 11.5234 6.69242 11.5891 6.75351C11.6379 6.79856 11.6868 6.84437 11.7357 6.88942C11.9487 7.08718 12.1617 7.2857 12.3748 7.48346C12.6573 7.74612 12.9398 8.00878 13.2223 8.27221C13.4766 8.50891 13.7316 8.74561 13.9859 8.98231C14.1118 9.09989 14.2371 9.21825 14.3638 9.3343C14.3653 9.33583 14.3676 9.33736 14.3692 9.33889C14.428 9.3931 14.5035 9.42822 14.5852 9.42822C14.6601 9.42822 14.7494 9.39462 14.8013 9.33889C14.8548 9.28086 14.8945 9.2045 14.8907 9.1228C14.8861 9.04568 14.8601 8.96475 14.8006 8.90901Z" fill="black" stroke="black" stroke-width="0.3" stroke-miterlimit="10"/>
<path d="M11.5967 3.36186H15.1487C15.3129 3.36186 15.4771 3.36415 15.6405 3.36186H15.6473C15.8069 3.36186 15.9604 3.22137 15.9528 3.05644C15.9451 2.89075 15.8184 2.75102 15.6473 2.75102H12.0953C11.9311 2.75102 11.767 2.74873 11.6036 2.75102H11.5967C11.4371 2.75102 11.2837 2.89151 11.2913 3.05644C11.2989 3.22213 11.4257 3.36186 11.5967 3.36186Z" fill="black" stroke="black" stroke-width="0.3" stroke-miterlimit="10"/>
<path d="M11.5967 4.98686H15.1487C15.3129 4.98686 15.4771 4.98915 15.6405 4.98686H15.6473C15.8069 4.98686 15.9604 4.84636 15.9528 4.68144C15.9451 4.51575 15.8184 4.37602 15.6473 4.37602H12.0953C11.9311 4.37602 11.767 4.37373 11.6036 4.37602H11.5967C11.4371 4.37602 11.2837 4.51651 11.2913 4.68144C11.2989 4.84636 11.4257 4.98686 11.5967 4.98686Z" fill="black" stroke="black" stroke-width="0.3" stroke-miterlimit="10"/>
</svg>
