<svg width="49" height="42" viewBox="0 0 49 42" fill="none" xmlns="http://www.w3.org/2000/svg">
<path d="M10.9883 11.1631C10.9944 11.1631 11.0016 11.167 11.0066 11.167H11.0088L10.9883 11.1631Z" fill="black"/>
<path d="M16.1233 15.998L16.1016 16.0339C16.1026 16.0317 16.1039 16.0301 16.1054 16.029L16.1233 15.998Z" fill="black"/>
<path d="M9.92773 15.668C9.93621 15.6749 9.93621 15.6886 9.94522 15.6961C9.959 15.7098 9.98178 15.7172 9.9945 15.7326L9.92773 15.668Z" fill="black"/>
<path d="M16.1006 16.0332H16.0985C16.0954 16.0368 16.0954 16.0399 16.0918 16.0456L16.1006 16.0332Z" fill="black"/>
<path d="M10.1406 23.6426L10.1656 23.6719C10.1678 23.6751 10.1694 23.6751 10.1716 23.6768L10.1406 23.6426Z" fill="black"/>
<path d="M0.574227 38.8742C0.551442 38.8615 0.542434 38.8371 0.523358 38.8233C0.511171 38.809 0.486267 38.8074 0.474609 38.791L0.574227 38.8742Z" fill="black"/>
<path d="M19.1446 27.832L19.1409 27.8342C19.1271 27.8458 19.1096 27.8633 19.0938 27.8744L19.1446 27.832Z" fill="black"/>
<path d="M18.916 18.6014C18.9234 18.5961 18.934 18.5908 18.9409 18.586C18.9478 18.5802 18.9531 18.5722 18.9621 18.5664L18.916 18.6014Z" fill="black"/>
<path d="M23.292 25.0117C23.2898 25.015 23.286 25.0188 23.2822 25.0226C23.2811 25.0258 23.279 25.0329 23.2773 25.0367L23.292 25.0117Z" fill="black"/>
<path d="M23.273 25.0524L23.2746 25.0502C23.2768 25.047 23.2779 25.0394 23.2801 25.0361L23.2676 25.0595C23.2697 25.0573 23.2708 25.0562 23.273 25.0524Z" fill="black"/>
<path d="M19.5507 18.4766L22.5897 17.7574L24.9078 17.4111L25.2554 17.7586L25.2321 19.0975L25.8181 20.2015L24.6922 22.2269L23.3468 23.2975L21.1838 23.0787L19.3579 22.8364L18.2136 22.8568L18.0254 21.5939L18.1861 20.0254L18.5894 18.9662L19.5507 18.4766Z" fill="#00953B"/>
<path d="M25.9774 19.8949C25.6744 19.3873 25.5127 19.0858 25.4794 18.9703C25.4831 18.9242 25.4545 18.8823 25.4354 18.8399C25.4407 18.8595 25.4587 18.8717 25.4597 18.894C25.4507 18.7996 25.4809 18.442 25.5509 17.8194L25.553 17.8019C25.5546 17.7489 25.5498 17.698 25.5371 17.645C25.5164 17.5528 25.4703 17.4617 25.4004 17.3716L25.2897 17.2842C24.8165 17.0701 23.6078 17.1734 21.6605 17.591L21.6568 17.5931C20.2293 17.9206 19.329 18.2507 18.9433 18.5861C18.4627 18.8791 18.1066 19.3332 17.8804 19.9527L17.8645 20.0295L17.7066 21.9975L17.705 22.024C17.7097 22.4595 17.7765 22.7642 17.9031 22.938L17.8872 22.9152C17.891 22.9205 17.8963 22.9274 17.9 22.9343V22.9359C17.9556 23.0201 18.0277 23.0869 18.1188 23.133C18.2189 23.1833 18.3345 23.2077 18.4664 23.2045L18.5167 23.1976C19.054 23.0901 19.3746 23.0429 19.4764 23.0567C19.4467 23.0519 19.4133 23.036 19.3804 23.0095L19.5235 23.0731L22.857 23.5675V23.5781C22.8761 24.2378 22.8496 24.6251 22.7764 24.7428L22.778 24.7412C22.7764 24.7412 22.7764 24.7428 22.7764 24.7449L22.7499 24.792C22.7028 24.9134 22.5958 24.987 22.432 25.0162L22.4135 25.0204C21.9853 25.1269 21.2673 25.2271 20.2638 25.3203L20.161 25.3495C20.0274 25.4184 19.9204 25.5164 19.843 25.6478L19.8293 25.6722C19.4822 26.4024 19.2559 26.8358 19.1499 26.9725L19.142 26.9868C19.0175 27.1691 18.9046 27.2867 18.8029 27.3583L17.4432 27.7037L17.3733 27.7318C16.1296 28.4233 14.9824 28.9113 13.9285 29.1948C13.7717 29.2372 13.6795 29.3967 13.7208 29.5546C13.7637 29.7104 13.9248 29.8036 14.0806 29.7602C15.1684 29.4672 16.3506 28.9654 17.6207 28.2633L19.0116 27.9093L19.1431 27.8341C19.3047 27.7202 19.4658 27.5517 19.6258 27.3143L19.6168 27.3302C19.745 27.1622 19.9887 26.7007 20.3469 25.9477C20.3607 25.9233 20.3814 25.9096 20.401 25.8958C21.3882 25.8004 22.1114 25.6987 22.555 25.59L22.5359 25.5938C22.9057 25.527 23.1548 25.3341 23.2862 25.022C23.4107 24.7968 23.4653 24.313 23.443 23.5606L23.4393 23.6136C23.4441 23.5696 23.4441 23.5331 23.443 23.4923C23.4515 23.4907 23.4605 23.4976 23.4685 23.4938C24.3391 23.159 25.1694 22.2152 25.9547 20.6627L25.9674 20.633C26.0665 20.3697 26.0776 20.1371 25.9986 19.9362L25.9774 19.8949ZM25.4004 18.7626C25.3596 18.7207 25.3109 18.7 25.2584 18.6857C25.3183 18.7016 25.3665 18.726 25.4004 18.7626ZM25.0184 18.7207C25.0761 18.6783 25.1429 18.6635 25.2165 18.6714C25.1498 18.6645 25.0772 18.6783 25.0184 18.7207ZM18.4452 22.6153C18.4187 22.6164 18.3996 22.6153 18.389 22.6095L18.3784 22.5941C18.3255 22.522 18.2979 22.3313 18.291 22.033L18.4452 20.1312C18.6243 19.6459 18.8977 19.2893 19.2644 19.0704L19.3116 19.037C19.4244 18.9348 19.6343 18.8293 19.8923 18.7244C19.8764 18.7981 19.8902 18.877 19.9363 18.9459C20.0253 19.0805 20.2081 19.1155 20.3432 19.0264C20.5801 18.8664 20.8026 18.7472 21.0114 18.6666L21.0183 18.6635C21.1645 18.6015 21.4549 18.5172 21.8534 18.4123C21.9186 18.4822 21.9991 18.5294 22.0987 18.5156C22.7918 18.4192 23.2046 18.4123 23.3498 18.4913C23.3519 18.496 23.3529 18.4997 23.3567 18.505C23.4165 18.7774 23.4674 18.9628 23.5056 19.0487C23.5215 19.0821 23.5495 19.0927 23.5707 19.1176C23.5813 19.1351 23.5654 19.1547 23.5792 19.1732C23.6359 19.2469 23.788 19.3947 24.0285 19.6088C24.0937 19.684 24.143 19.754 24.1721 19.8186L24.1796 19.8329C24.2161 19.9029 24.2214 20.0517 24.1939 20.2822V20.2838C24.1743 20.4539 24.1499 20.5615 24.1181 20.6028C24.1197 20.6018 24.1213 20.5996 24.125 20.5959L24.0529 20.7046C24.0619 20.6839 24.0704 20.6664 24.0794 20.6537C24.036 20.7104 23.8616 20.8593 23.5585 21.0977L23.6232 21.0596C23.5607 21.0871 23.5056 21.1364 23.4616 21.2048C23.4202 21.2694 23.3704 21.3802 23.3148 21.5381L23.3291 21.5047C23.3185 21.5222 23.3037 21.5449 23.283 21.5714C23.195 21.6764 23.0764 21.7908 22.9184 21.9116C22.5078 22.2137 22.0659 22.3313 21.5937 22.2624C21.4343 22.2396 21.2854 22.3498 21.2626 22.5099C21.2483 22.6063 21.2922 22.689 21.3569 22.752L19.6099 22.4918L19.754 22.5575C19.701 22.5136 19.6343 22.485 19.5521 22.4744C19.3889 22.4537 19.0154 22.503 18.4452 22.6153ZM23.3477 18.4716V18.4695C23.3498 18.4716 23.3498 18.4754 23.3498 18.4769L23.3477 18.4716ZM23.2586 22.9465C23.2094 22.9656 23.185 23.0085 23.1548 23.045C23.141 23.0397 23.1357 23.0254 23.1203 23.0201L23.0605 23.0048L21.855 22.8251C22.3536 22.8251 22.8305 22.7064 23.2692 22.3832L23.2761 22.3784C23.4685 22.2274 23.6232 22.0822 23.7392 21.9418V21.9397C23.7848 21.882 23.8235 21.8253 23.85 21.7712L23.8653 21.7378C23.904 21.6292 23.9321 21.5661 23.9496 21.5344C24.2675 21.2821 24.4694 21.1083 24.5388 21.0204H24.5372C24.5441 21.0119 24.5457 21.005 24.5537 20.996C24.5674 20.9801 24.5812 20.9647 24.595 20.9467C24.6851 20.8222 24.746 20.6224 24.7762 20.3506V20.3527C24.8175 20.003 24.7916 19.7381 24.6967 19.5627C24.6427 19.4472 24.5674 19.3311 24.4673 19.2193L24.4408 19.1928C24.2124 18.9893 24.081 18.8648 24.046 18.8177C24.0476 18.8214 24.0439 18.8261 24.0476 18.8293C24.0164 18.7737 23.9782 18.7207 23.9146 18.6931C23.9761 18.7207 24.0164 18.7578 24.0391 18.8049C24.0164 18.7546 23.9761 18.6015 23.9215 18.345L23.9194 18.3418V18.3402L23.9056 18.2968C23.8759 18.2242 23.8431 18.1627 23.8039 18.1145C23.7795 18.0822 23.7514 18.0546 23.7233 18.0303L23.7027 18.0138C23.6057 17.9471 23.4515 17.9105 23.2676 17.8861C24.1234 17.7489 24.692 17.7213 24.9638 17.8051C24.8938 18.4293 24.8636 18.8224 24.8753 18.9538C24.8795 18.9931 24.9007 19.0116 24.9108 19.0439C24.9124 19.0614 24.897 19.0683 24.9007 19.0874C24.9389 19.2437 25.1249 19.6067 25.4507 20.1556C25.4762 20.2155 25.4635 20.3029 25.4195 20.4221C24.7036 21.8221 23.9851 22.6678 23.2586 22.9465Z" fill="black"/>
<path d="M13.1953 7.03524C13.1968 7.03376 13.2002 7.03376 13.2002 7.03081C13.2032 7.02884 13.2032 7.0254 13.2052 7.02441L13.1953 7.03524Z" fill="black"/>
<path d="M24.043 28.4128C24.0522 28.4111 24.0593 28.4128 24.0668 28.4111H24.0679L24.043 28.4128Z" fill="black"/>
<path d="M31.6551 32.0596C31.6535 32.0824 31.6467 32.102 31.6445 32.1232V32.1242L31.6551 32.0596Z" fill="black"/>
<path d="M21.5867 32.1328C21.578 32.1388 21.565 32.142 21.5558 32.1475C21.5525 32.1496 21.5487 32.1545 21.5449 32.1567L21.5867 32.1328Z" fill="black"/>
<path d="M12.3624 11.9534L14.5647 12.517L15.6053 12.8408L16.1121 13.7267L16.3035 14.9183L15.8958 15.7329L15.1482 16.3809L14.125 16.8329L12.798 17.4111H11.3333L10.1674 17.3785L9.69274 17.0326L9.77419 16.3467V15.9256L9.02943 15.6682L8.65039 15.1643L9.07154 14.1778L9.96229 12.4721L10.2192 11.5245L11.0305 11.4824L12.3624 11.9534Z" fill="#00953B"/>
<path d="M7.30321 22.4736L8.04381 23.0443L9.10534 23.516L9.90919 23.736L10.4118 25.0579L10.3951 26.2514L9.99556 27.2934L9.5497 28.3431L8.85749 28.7156L7.81224 28.8682L6.70819 28.6536L5.63094 28.3431L4.78516 28.0041L5.08888 26.4489L5.37501 24.6467L5.97946 23.2706L7.30321 22.4736Z" fill="#00953B"/>
<path d="M48.7882 17.7487C48.4883 15.5879 48.1195 14.3861 47.6797 14.1461C47.6654 14.1371 47.65 14.1334 47.6341 14.1265C44.8008 12.132 42.9871 10.7676 42.1981 10.0342L42.1138 9.98123C39.456 8.83245 38.0263 8.14149 37.8245 7.90993C37.8631 7.9555 37.8759 8.01485 37.8578 8.09221C37.8759 8.00955 37.8563 7.92371 37.807 7.85695C35.5651 4.8679 34.269 3.26978 33.9161 3.06101C33.8864 3.04405 33.8583 3.02975 33.8318 3.02074C33.8218 3.01756 33.817 3.02445 33.8059 3.02074C33.2866 2.56186 31.5359 2.0198 28.5298 1.39136L26.0399 0.2039L26.1051 0.253179C25.5509 -0.264513 22.8702 0.011024 18.043 1.08615L18.034 1.08827C17.5889 1.20219 16.5662 0.942022 14.9697 0.308816L14.887 0.29027C14.4912 0.256358 14.0451 0.355975 13.5528 0.593361L13.5311 0.605019C12.8862 0.984412 12.3881 1.38447 12.04 1.8052C10.8753 3.21732 11.3294 4.78047 13.405 6.49622C13.4193 6.50681 13.4362 6.50099 13.4505 6.50999C13.5274 6.58365 13.6153 6.6467 13.6959 6.71665C13.5088 6.76593 13.3382 6.856 13.2015 7.03139C13.112 7.14002 13.0155 7.30481 12.9138 7.51835C12.7617 7.73613 12.6616 7.9873 12.6192 8.26972C12.6049 8.3137 12.5911 8.33808 12.5752 8.38312L12.5874 8.35397C12.5068 8.52565 12.4528 8.90399 12.4263 9.48156C12.4157 9.52554 12.4088 9.55892 12.4019 9.57429V9.5727L12.3982 9.58011C12.3489 9.67443 12.2928 9.76557 12.2265 9.85194V9.85353L11.3051 11.0654C11.2706 11.1115 11.2685 11.1655 11.2648 11.2196C11.1805 11.2047 11.0862 11.1782 11.0067 11.1676C10.4933 11.0654 10.1197 11.183 9.88605 11.5216L9.84578 11.6074C9.62482 12.3763 9.47221 12.8495 9.38637 13.0286V13.0264L8.40397 15.0421L8.3743 15.1931C8.39497 15.4756 8.50041 15.6774 8.69117 15.7967L8.69488 15.7988C8.88246 15.9122 9.16011 16.0086 9.51089 16.0929V16.1755C9.41286 16.5544 9.35776 16.8055 9.35299 16.9105C9.34716 17.0371 9.39697 17.1171 9.47062 17.177C9.49818 17.2242 9.52149 17.2734 9.56176 17.3153C9.55275 17.328 9.53898 17.3312 9.53156 17.3439C9.28993 17.8945 9.14581 18.2389 9.10024 18.3772L9.09706 18.3878L8.77224 19.4682L8.77754 19.4555C8.63235 19.873 8.502 20.2015 8.3902 20.44H8.38808C8.09347 21.0626 7.74904 21.5957 7.35799 22.0376C7.31083 22.0906 7.29706 22.1552 7.29547 22.222C7.18525 22.2082 7.07557 22.2103 6.97065 22.2342L6.93409 22.2448C6.20604 22.515 5.63218 23.1291 5.21304 24.0898L5.20986 24.0956C5.13409 24.28 5.07845 24.4777 5.04136 24.6939L5.03924 24.7007L4.85219 25.9672C4.83259 26.0917 4.73456 26.5336 4.55864 27.2913L4.55705 27.3003C4.51837 27.4932 4.50088 27.6336 4.503 27.72C4.50406 27.737 4.50618 27.7534 4.50777 27.7672L4.50618 27.7073C4.47969 28.039 4.61322 28.2965 4.90306 28.4809C4.83736 28.5334 4.79232 28.6033 4.78861 28.6934V28.6913C4.77854 28.8455 4.57083 29.5476 4.16759 30.7859C4.15699 30.7965 4.14798 30.8081 4.1305 30.8171L4.13951 30.814L3.19049 31.3227L3.16294 31.3396C3.02729 31.435 2.89906 31.6072 2.77825 31.8594L2.76394 31.8944L2.57159 32.4873L1.66391 34.8241L1.65013 34.8728L1.0413 37.9308C0.999442 38.0267 0.96394 38.0903 0.938506 38.1199C0.750399 38.2058 0.616869 38.2757 0.549045 38.3266C0.401208 38.441 0.360938 38.5725 0.427702 38.7235C0.447308 38.7669 0.487579 38.7913 0.522551 38.8236C0.740331 39.0568 1.08369 39.1426 1.5786 39.0515L1.63636 39.0335C2.79626 38.5603 3.93921 38.2079 5.06891 37.9779L5.08322 37.9748C5.19238 37.9461 5.4695 37.8354 5.9146 37.6425C6.06403 37.5779 6.13238 37.4062 6.06774 37.2568C6.00415 37.1079 5.83035 37.0395 5.68357 37.1042C5.2708 37.2817 5.02864 37.3797 4.94651 37.4041C3.79932 37.6393 2.63465 37.9991 1.45885 38.4766C1.4297 38.4797 1.41381 38.4776 1.38572 38.4813C1.45408 38.3992 1.5219 38.3012 1.5892 38.1433L1.60615 38.0844L1.7471 37.3845C2.49953 37.3993 2.99603 37.35 3.26203 37.2446C3.27262 37.2414 3.28375 37.2414 3.29223 37.2393L3.29435 37.2377C3.51849 37.1868 4.03088 36.8747 4.83047 36.3009C5.03235 36.1779 5.33226 36.02 5.73232 35.8256C5.73921 35.824 5.74981 35.824 5.76783 35.8256L5.74292 35.8208H5.74451C5.95116 35.8865 6.12655 35.9289 6.24419 35.9236C6.2569 35.9236 6.26962 35.922 6.27969 35.9199L6.24313 35.922C6.37083 35.9236 6.53562 35.8902 6.73221 35.8277C6.85885 35.7954 7.18525 35.6523 7.7199 35.3942L7.73527 35.3852C8.76376 34.805 9.5003 34.4103 9.96341 34.1856C9.92844 34.2169 9.88923 34.2455 9.87068 34.2905C9.45684 35.3572 8.46862 36.0608 6.90971 36.401C6.75128 36.4355 6.65113 36.5923 6.68664 36.7502C6.72002 36.9081 6.8758 37.0077 7.0353 36.9728C8.69011 36.613 9.75994 35.8521 10.2951 34.7218C11.3459 34.9295 12.1089 34.9608 12.598 34.8241C12.7283 34.9995 12.8089 35.3328 12.8226 35.8902C12.5068 38.2725 12.4051 39.655 12.5158 40.0249L12.5174 40.0264C12.5195 40.0355 12.5227 40.0445 12.5243 40.0514C12.5529 40.1287 12.598 40.1669 12.6404 40.213C12.6488 40.2305 12.6578 40.2511 12.6663 40.2707C13.1173 41.2213 13.84 41.4598 14.8362 40.9882L14.8537 40.9792C15.6411 40.5404 16.1206 39.948 16.2923 39.2004V39.1982C16.4449 38.5179 16.2785 37.1815 15.7979 35.1992C15.8085 34.7361 15.9781 34.2905 16.3204 33.8592C16.6961 33.4051 17.0712 33.1152 17.4469 32.9748C19.5113 32.8731 20.881 32.5965 21.5545 32.1471C22.1162 31.8737 22.7653 30.877 23.5018 29.1703C23.5739 29.0738 23.7705 29.014 24.0985 28.9965L24.1213 28.9949C25.7999 28.7718 27.0488 29.0161 27.8712 29.7161C28.4122 30.5771 28.3258 32.047 27.6031 34.1395C27.5771 34.2206 27.584 34.308 27.6259 34.3806C27.9141 34.8866 28.7132 34.9152 30.0278 34.4622L30.0554 34.45C31.0537 33.9816 31.5777 33.2011 31.6445 32.1228C31.822 31.47 31.4426 29.821 30.51 27.1758C30.4522 26.7848 30.527 26.4456 30.6976 26.1457C32.3169 26.1023 33.4217 25.9163 34.0252 25.5936L35.1798 25.8045C35.2816 25.822 35.3849 25.7865 35.4511 25.7091C35.9561 25.1374 36.3736 24.7007 36.7032 24.4008C37.0111 24.12 37.214 23.9743 37.3158 23.9584L37.3963 23.9976L41.4981 24.3574C41.5834 24.3653 41.6677 24.3341 41.7297 24.2742L44.5677 21.4711C46.2744 20.7802 47.2372 20.3377 47.4481 20.147C47.4921 20.1067 47.5255 20.0643 47.5462 20.0193C47.5552 19.9975 47.5462 19.9859 47.552 19.9663C48.1677 19.3262 48.5863 18.6262 48.7813 17.8627L48.7882 17.7487ZM33.9659 3.40861C33.9251 3.52624 33.8482 3.56863 33.755 3.57552C33.8461 3.55115 33.9336 3.49975 33.9659 3.40861ZM9.77371 16.707C9.84207 16.7351 9.88605 16.7769 9.90883 16.8331C9.87757 16.7769 9.83359 16.7351 9.77371 16.707ZM5.09011 27.6967C5.08852 27.658 5.10283 27.5632 5.1325 27.418L5.13038 27.4249C5.31001 26.6512 5.40963 26.1955 5.43029 26.0546V26.0535L5.61999 24.7887C5.65019 24.6181 5.69417 24.4602 5.75193 24.3182L5.74981 24.3251C6.09741 23.5308 6.55205 23.0253 7.11266 22.8075C7.20751 22.7889 7.31772 22.8064 7.45125 22.8674L8.38808 23.4799L8.35787 23.4566C8.37748 23.473 8.40027 23.4889 8.42464 23.5043C8.55287 23.5801 8.90577 23.6887 9.46002 23.8307C9.55593 23.88 9.637 23.9409 9.69688 24.023L9.699 24.0252C9.92844 24.3447 10.0795 24.7691 10.1457 25.3006L10.1478 25.3075C10.2056 25.6879 10.1616 26.0318 10.0175 26.3386C9.99679 26.3831 10.009 26.4308 10.0127 26.478C9.98249 26.532 9.95493 26.6141 9.92632 26.6798C9.88234 26.6809 9.8373 26.6724 9.79491 26.6947C9.504 26.86 9.02817 26.9268 8.36688 26.8987C7.85873 26.8388 7.45284 26.772 7.15293 26.6984C6.92879 26.6232 6.74598 26.5299 6.6098 26.4197L6.56211 26.3868C6.43918 26.3211 6.46568 26.0307 6.64319 25.5093L6.64425 25.5025C6.7285 25.2338 6.83924 25.0091 6.97754 24.83L6.98655 24.8163C7.00774 24.7866 7.02364 24.7707 7.03742 24.7585C7.15134 24.776 7.26897 24.7484 7.33203 24.6425C7.41575 24.5042 7.37442 24.324 7.23559 24.2398C7.0655 24.1359 6.89329 24.1407 6.72373 24.2567C6.65007 24.3055 6.5796 24.3818 6.51125 24.474C6.33215 24.7092 6.18855 24.9938 6.08522 25.3271L6.08628 25.3202C5.80969 26.141 5.87274 26.6613 6.26962 26.8897C6.45879 27.0386 6.69034 27.1652 6.97648 27.2601L6.99715 27.267H6.99873C7.32673 27.3475 7.76547 27.4201 8.31442 27.4826L8.3335 27.4847C8.90365 27.5123 9.3355 27.4445 9.69688 27.33C9.6582 27.471 9.61581 27.5934 9.57766 27.7544C9.55275 27.8249 9.5003 27.9123 9.43035 28.0141C9.19879 28.288 8.88934 28.465 8.502 28.5456L8.49882 28.5477C8.33933 28.5848 8.15652 28.5895 7.95676 28.5652L6.87951 28.3092L6.84825 28.3034C6.01846 28.1985 5.55481 28.1301 5.45679 28.1015C5.50765 28.1179 5.55004 28.1513 5.58661 28.2033C5.61098 28.2356 5.60409 28.2652 5.61681 28.2965C5.5882 28.2033 5.53415 28.1201 5.44142 28.0877C5.19715 28.0072 5.07951 27.8949 5.09011 27.7513L5.08852 27.6898C5.08852 27.6935 5.09011 27.6967 5.09011 27.6967ZM5.51878 28.6054L5.51666 28.607C5.59932 28.5477 5.63747 28.4475 5.63059 28.3437C5.64648 28.4422 5.6237 28.5297 5.51878 28.6054ZM5.74292 35.8208L5.70212 35.8118L5.69894 35.8097C5.71855 35.8171 5.72543 35.8128 5.74451 35.8208H5.74292ZM10.2056 34.1098C10.1669 34.1013 10.1303 34.1188 10.0911 34.1257C10.2087 34.0727 10.3158 34.024 10.3863 34.0012L10.4069 33.9922C10.4228 33.9853 10.4313 33.9816 10.4392 33.9816C10.7635 34.015 11.0226 34.0102 11.2086 33.963C11.2176 33.9609 11.2245 33.9662 11.2335 33.9641C11.3528 33.9434 11.7422 33.8168 12.3961 33.5874H12.3982L12.3823 33.5927C12.4909 33.563 12.5784 33.5466 12.6419 33.5455H12.6488C12.7792 33.5397 12.8401 33.5503 12.8963 33.5609C12.9281 33.8062 12.9228 34.0452 12.9371 34.2873C12.9244 34.2767 12.9175 34.2592 12.9048 34.2502C12.8136 34.1787 12.6891 34.1681 12.5874 34.2227C12.2302 34.4103 11.4354 34.3732 10.2056 34.1098ZM10.3947 33.9805C10.4069 33.9816 10.4159 33.9805 10.4281 33.9816L10.3947 33.9805ZM12.9911 39.7567C12.9297 39.7287 12.8608 39.7196 12.793 39.7403C12.8783 39.7149 12.9403 39.7249 12.9911 39.7567ZM21.2917 31.6257L21.2535 31.6485C20.6712 32.0491 19.3762 32.2982 17.3642 32.3925L17.2752 32.41C16.7909 32.5806 16.3204 32.9383 15.8663 33.4872L15.8626 33.4904C15.4312 34.0346 15.2119 34.61 15.2087 35.2151L15.2172 35.2867C15.6872 37.2128 15.8535 38.4744 15.7205 39.0705V39.069C15.5907 39.6444 15.2066 40.107 14.5734 40.462C13.9364 40.7598 13.477 40.613 13.1962 40.0196C13.1792 39.9846 13.1628 39.948 13.1469 39.9088C13.1331 39.876 13.0998 39.8601 13.0765 39.8357C13.0362 39.6725 13.0441 39.2491 13.1029 38.5725C13.1607 38.6254 13.2158 38.6816 13.2932 38.6991C13.7764 38.9111 14.2819 38.6636 14.8086 37.9308L14.8224 37.9112C15.3009 37.1179 15.3263 35.8796 14.9088 34.2121C15.2744 33.421 15.6713 32.8397 16.1047 32.4905C16.3167 32.3405 16.5429 32.2346 16.7803 32.1662C17.9487 31.9543 18.6359 31.7974 18.8431 31.6994C18.948 31.6544 19.0498 31.5945 19.1446 31.5171L19.1801 31.4837C19.4255 31.2071 19.6311 31.0169 19.7969 30.9152L19.8006 30.9141C19.9288 30.8336 20.18 30.7472 20.5568 30.6524L20.5615 30.6513C20.7968 30.5877 20.9706 30.5739 21.0829 30.6121L21.1073 30.6142C21.1672 30.6524 21.2742 30.7721 21.439 30.9788L21.5142 31.0455C21.581 31.0874 21.6478 31.1171 21.7145 31.1335C21.7447 31.1404 21.767 31.1239 21.7951 31.1261C21.6144 31.3682 21.4427 31.5542 21.2917 31.6257ZM24.0672 28.411C23.5437 28.4385 23.1918 28.5811 23.0127 28.8407L22.9841 28.8916C22.8527 29.1968 22.7319 29.4495 22.6106 29.7055C22.5984 29.7192 22.5772 29.7192 22.5671 29.7367C22.344 30.1124 22.1003 30.372 21.8359 30.5416C21.6568 30.3228 21.5058 30.168 21.4003 30.1034C21.3039 30.0456 21.2096 30.0282 21.1147 30.0472L21.2705 30.0562C21.0448 29.9805 20.7565 29.9895 20.4079 30.0838H20.4126C19.9792 30.1935 19.6724 30.3016 19.4917 30.416C19.285 30.5416 19.0429 30.761 18.7732 31.063C18.7202 31.1054 18.6635 31.1383 18.6116 31.1632L18.5957 31.17C18.4431 31.2437 17.7977 31.3836 16.6558 31.5924L16.6293 31.5982C16.3225 31.684 16.0332 31.8229 15.7587 32.012L15.738 32.0316C15.2172 32.4524 14.7487 33.1227 14.3333 34.0436L14.3174 34.2375C14.7244 35.8081 14.7276 36.9267 14.3243 37.5991C13.9772 38.0776 13.7028 38.2657 13.503 38.1618L13.4839 38.1549C13.396 38.0129 13.3949 37.571 13.486 36.8186C13.4961 36.7327 13.4617 36.6554 13.4066 36.5934C13.5841 35.5728 13.6153 34.5189 13.4754 33.4257V33.3945C13.4754 33.3887 13.4717 33.3887 13.4717 33.3839C13.4617 33.2207 13.3774 33.1015 13.2084 33.0294C13.0823 32.9738 12.8873 32.9504 12.6292 32.9589C12.5174 32.961 12.3844 32.9838 12.2281 33.0257L12.2117 33.0315L12.2069 33.0326C11.579 33.2541 11.2213 33.3717 11.1334 33.3876H11.1313C11.1752 33.3786 11.2213 33.3855 11.2706 33.4061L11.0772 33.3945C10.9527 33.4279 10.746 33.4295 10.4615 33.3982L10.4281 33.3961H10.4159C10.4 33.3961 10.3841 33.3982 10.3688 33.3992C10.3057 33.4061 10.2442 33.4257 10.1775 33.4538C9.79491 33.5895 8.89305 34.0589 7.46397 34.866C6.96376 35.1081 6.67074 35.2395 6.58437 35.2607C6.58578 35.2607 6.58702 35.2602 6.58808 35.2591L6.55682 35.2676C6.4164 35.3132 6.31307 35.3365 6.24631 35.3365L6.2108 35.3375C6.15994 35.3413 6.05502 35.3132 5.89341 35.257L5.88864 35.2554L5.82558 35.2416C5.74451 35.2326 5.66874 35.2385 5.60091 35.2533C5.56753 35.2607 5.53627 35.2708 5.50606 35.2835L5.49229 35.2904C5.06203 35.4992 4.73933 35.6708 4.51996 35.8023L4.50088 35.815C3.75693 36.3501 3.31183 36.6326 3.164 36.666H3.17301L3.06597 36.6972C2.92078 36.7746 2.51384 36.808 1.86262 36.799L2.22187 35.0043L3.12055 32.6876L3.12585 32.6738L3.31289 32.1053C3.38549 31.9559 3.4443 31.861 3.49411 31.826L4.41663 31.3295L4.42564 31.3248C4.53056 31.2628 4.61481 31.1859 4.67627 31.0895L4.70807 31.0227C5.13727 29.7002 5.36088 28.9355 5.37254 28.7278V28.73C5.37465 28.7247 5.37465 28.7194 5.37465 28.7162C5.37465 28.7024 5.36194 28.6913 5.36088 28.6791C5.54422 28.7194 5.99885 28.7866 6.75711 28.8847L7.85131 29.1422L7.88469 29.1475C8.15122 29.1788 8.39868 29.1703 8.62546 29.1199L8.62175 29.121C9.14581 29.0124 9.56653 28.767 9.88446 28.3845L9.89611 28.3702C10.009 28.216 10.0879 28.074 10.1314 27.9436L10.1383 27.9192C10.2755 27.3602 10.4106 26.958 10.5442 26.7164C10.5738 26.6602 10.5707 26.6004 10.5638 26.5405C10.7423 26.1378 10.8017 25.6985 10.7264 25.22L10.7286 25.2269C10.648 24.5937 10.4615 24.0781 10.1706 23.6781L10.1648 23.6712C10.0471 23.5112 9.89506 23.3866 9.70695 23.2955L9.6529 23.2759C9.11772 23.1408 8.8088 23.0496 8.72455 22.9988L8.70918 22.9887L7.81263 22.4043C8.23335 21.9242 8.60215 21.3556 8.91796 20.6906C9.04036 20.4331 9.17919 20.085 9.3302 19.6489L9.3355 19.6362L9.65661 18.5626C9.69688 18.4418 9.83041 18.1223 10.0508 17.621C10.9458 17.8282 12.0225 17.8086 13.2873 17.5537L13.3138 17.5468C14.8017 17.0959 15.7311 16.5909 16.0989 16.033C16.4078 15.6335 16.5763 15.2334 16.6007 14.837L16.5996 14.8439C16.659 14.1302 16.58 13.6109 16.3665 13.2829L16.3675 13.285C15.9166 12.5792 15.1117 12.1776 13.9518 12.0796C13.7913 12.0674 13.6508 12.1861 13.6371 12.3477C13.6228 12.5088 13.742 12.6518 13.9031 12.6656C14.3773 12.7038 14.7731 12.8018 15.0958 12.9517C15.1085 13.0439 15.1488 13.1282 15.2362 13.1753C15.3486 13.2342 15.4344 13.497 15.5017 13.9617C15.5256 14.251 15.4328 14.5318 15.2203 14.8058L15.2172 14.8106C15.0084 15.084 14.7694 15.3055 14.496 15.4734L12.9684 16.2089L12.9737 16.2068C12.8242 16.2735 12.7087 16.3191 12.6155 16.344C12.3881 16.3949 12.2117 16.3965 12.0951 16.3419L11.9738 16.6106L11.9547 16.3175C11.9981 16.3144 12.0331 16.3191 12.0617 16.3334C11.9822 16.2947 11.7597 16.1103 11.3951 15.7839L11.4206 15.8126C11.3951 15.7808 11.3596 15.7548 11.3157 15.7299C11.2335 15.6822 11.0226 15.6054 10.6931 15.4967C10.6369 15.4724 10.5982 15.4506 10.5812 15.4332H10.5823L10.5738 15.4247C10.3757 15.244 10.3317 14.8842 10.4403 14.3496C10.4716 14.1901 10.3704 14.0353 10.2125 14.0035C10.053 13.9702 9.89823 14.074 9.86485 14.2319C9.71278 14.9822 9.81557 15.5211 10.1738 15.8528C10.2442 15.9212 10.3391 15.9811 10.4647 16.0367L10.4901 16.0457C10.7895 16.1458 10.9628 16.2089 11.0226 16.2402C11.4158 16.5878 11.6754 16.7981 11.8 16.8596C11.8196 16.8681 11.8371 16.8644 11.8577 16.8723L11.854 16.8771C12.0909 16.9841 12.3892 16.9968 12.749 16.9174L12.7596 16.9136C12.8825 16.8803 13.0351 16.8225 13.2174 16.7398L13.2227 16.7367L14.7694 15.9948L14.7959 15.9811C15.135 15.7723 15.4312 15.4999 15.685 15.1645C15.8398 14.9674 15.9489 14.7618 16.0152 14.553C16.0115 14.6373 16.022 14.6987 16.0152 14.7947V14.8021C15.9977 15.0808 15.8694 15.3754 15.6273 15.688L15.5976 15.7368L15.6156 15.7066C15.3274 16.1458 14.5066 16.5703 13.1596 16.9809C11.9822 17.2157 10.9882 17.2369 10.1775 17.0477C10.0508 16.9878 9.9703 16.9311 9.95122 16.8734C9.965 16.7769 10.0058 16.5968 10.0863 16.2879L10.0948 16.2301C10.1038 16.0966 10.098 15.989 10.0805 15.9106C10.0577 15.8157 10.009 15.749 9.94592 15.6965C9.89294 15.6419 9.84048 15.59 9.76682 15.5598C9.75782 15.5566 9.75093 15.5529 9.74616 15.5508L9.71066 15.5402C9.38425 15.4687 9.14898 15.3881 9.0038 15.3002C8.99002 15.2912 8.98419 15.2419 8.9773 15.2053L9.91466 13.285V13.2829C10.0106 13.081 10.1706 12.5988 10.3878 11.8448C10.4795 11.7304 10.6438 11.6938 10.8949 11.7431L10.9145 11.7463C11.1265 11.7743 11.3649 11.8215 11.6293 11.8899C12.4332 12.2194 12.9519 12.3832 13.1824 12.3694C13.1824 12.3694 13.1803 12.3694 13.184 12.3694H13.1872C13.3488 12.3583 13.4717 12.2194 13.4617 12.0568C13.4505 11.8952 13.3117 11.7722 13.1528 11.7834H13.1506C13.0049 11.7918 12.5667 11.644 11.8334 11.3409L12.6928 10.208L12.6949 10.2059V10.208C12.7802 10.0941 12.856 9.97275 12.9207 9.84505L12.9175 9.85194C12.9228 9.84293 12.9265 9.83393 12.9313 9.82545C12.9615 9.76239 12.9853 9.68132 13.0049 9.58011L13.0086 9.53719C13.0208 9.2659 13.0362 9.05712 13.0579 8.89922C13.1241 8.84305 13.1718 8.76781 13.1681 8.67455C13.1628 8.48538 13.2275 8.33914 13.2783 8.18547C13.3175 8.08321 13.3594 7.9608 13.396 7.87814C13.5157 7.70116 13.6683 7.54326 13.8893 7.42721C14.089 7.3276 14.3031 7.30587 14.5331 7.36575L14.5538 7.37158C14.5712 7.37476 14.6046 7.39595 14.6274 7.40284C14.7185 7.45901 14.8155 7.5067 14.9098 7.55704C14.9782 7.60313 15.0402 7.63917 15.1244 7.70116C15.1488 7.71865 15.1801 7.71176 15.2087 7.72236C15.3274 7.78011 15.4328 7.85907 15.5558 7.91152L15.6379 7.93272C16.4958 8.03234 17.7781 8.37146 19.4848 8.94691L19.5569 8.96069C22.6948 9.19913 24.4053 9.40578 24.6861 9.58011H24.6877C24.6808 9.57429 24.6723 9.5674 24.6633 9.55892C24.7195 9.61827 24.7968 9.65165 24.879 9.65165L26.7489 9.64105L30.9445 10.8746L32.0482 11.7463L32.0885 11.7722L35.8787 13.8547L38.8296 16.2529L38.9229 16.3038L40.4452 16.7981L40.459 16.7997C40.5894 16.9232 40.7854 17.3911 41.0578 18.2193L41.0472 18.1732C41.0631 18.2749 41.1177 18.3634 41.212 18.4349C41.3455 18.5351 41.6756 18.631 42.1048 18.728C41.6788 19.4136 41.3206 19.8222 41.0451 19.9154L40.9804 19.9451C40.9894 19.9398 40.9979 19.9361 41.0032 19.935V19.9329C40.7822 20.0156 39.6822 20.0224 37.7005 19.9557L37.5367 19.9997L35.015 21.5554L34.9583 21.6015C34.9668 21.5925 34.9742 21.5872 34.9795 21.584C34.7973 21.6852 34.0671 21.6995 32.7906 21.6222L32.6258 21.6603C30.7447 22.7487 29.4222 23.3082 28.6554 23.3395C28.4943 23.3448 28.3682 23.481 28.3751 23.6426C28.382 23.8063 28.5192 23.9308 28.6809 23.925C29.5292 23.8916 30.9201 23.3151 32.8425 22.2114C34.1778 22.2866 34.9917 22.2506 35.2673 22.0937C35.3112 22.071 35.3483 22.0418 35.3796 22.0095L35.3229 22.0556L37.7688 20.5449C39.7665 20.6096 40.9205 20.5905 41.2088 20.484C41.2422 20.4713 41.2719 20.4554 41.2978 20.4379L41.2326 20.4702C41.6942 20.3133 42.2246 19.7151 42.8239 18.675C42.8716 18.5928 42.8769 18.4927 42.8366 18.4047C42.7963 18.3194 42.7158 18.2574 42.6204 18.2399C42.0412 18.1382 41.7079 18.0508 41.5945 17.9771C41.2904 17.0615 41.0334 16.5067 40.8246 16.3334C40.7229 16.2476 40.6122 16.2142 40.4961 16.2301L40.6259 16.2402L39.1598 15.7633L36.2338 13.3862L36.1898 13.3566L35.4177 12.9321C35.4093 12.9215 35.413 12.9088 35.404 12.9009C35.2445 12.744 35.1215 12.5411 35.0373 12.2883L35.0219 12.2496L35.0373 12.2851C34.8794 11.8305 34.7935 11.4305 34.7798 11.085V11.0744C34.757 10.7501 34.7729 10.4899 34.8269 10.2992L34.8285 10.2939C34.9318 9.90387 35.0622 9.55574 35.218 9.24682C35.2916 9.10269 35.2339 8.92518 35.0898 8.85206C34.9446 8.77841 34.7692 8.83616 34.6955 8.98135C34.5201 9.32524 34.3776 9.71152 34.2637 10.1391C34.1905 10.3951 34.1672 10.7215 34.1937 11.1162V11.1078C34.2091 11.4919 34.3024 11.9285 34.464 12.4097L32.399 11.2741L31.8379 10.8306C31.8289 10.7988 31.8358 10.7639 31.8151 10.7342C31.61 10.4518 31.4855 10.1519 31.4394 9.83234L31.4346 9.80266C31.3658 9.53613 31.3483 9.19224 31.3801 8.7853C31.4325 8.36086 31.5115 8.01697 31.6201 7.75362L31.6291 7.73137C31.7308 7.40655 31.9523 6.94343 32.2936 6.3399C32.3731 6.20001 32.3238 6.02039 32.1818 5.93984C32.0414 5.86089 31.8623 5.91017 31.7817 6.05218C31.4272 6.6822 31.1925 7.17658 31.0759 7.53637C30.9503 7.85218 30.8555 8.24482 30.7977 8.72171L30.7956 8.73814C30.759 9.20284 30.7818 9.59707 30.8624 9.9256C30.8783 10.0448 30.9223 10.1529 30.9556 10.2674L28.4101 9.51865C28.391 9.48527 28.3857 9.44499 28.3545 9.4185C27.9258 9.0762 27.6857 8.84994 27.6328 8.74132L27.6052 8.69575C27.326 8.31476 27.1193 7.93431 26.9879 7.55174C26.874 7.1591 26.8189 6.79931 26.8279 6.4782V6.46654C26.821 6.06437 26.8703 5.72365 26.9752 5.44865C27.0329 5.29816 26.9556 5.12966 26.8051 5.07137C26.6546 5.01361 26.484 5.08939 26.4262 5.23987C26.2948 5.58429 26.2349 5.99442 26.2418 6.46972C26.2318 6.85177 26.2927 7.26931 26.4262 7.72342L26.431 7.73613C26.582 8.17805 26.8152 8.61361 27.1331 9.04282L27.1045 8.99725C27.1278 9.04494 27.2014 9.11859 27.2507 9.17847L26.8719 9.06772L26.7876 9.055L24.9595 9.0656C24.835 8.99884 24.5828 8.93419 24.214 8.86584C23.9792 8.59719 23.7917 8.31847 23.6634 8.03128C23.5299 7.71176 23.4351 7.37476 23.3789 7.02451C23.3407 6.6679 23.3439 6.38547 23.3826 6.18147C23.4515 5.89109 23.5368 5.69822 23.6407 5.60284C23.7615 5.49421 23.7721 5.30982 23.6634 5.189C23.5564 5.06766 23.3704 5.05759 23.2496 5.16675C23.0514 5.3432 22.9036 5.63993 22.8093 6.05695L22.8072 6.06437C22.7547 6.33142 22.7515 6.67479 22.7987 7.09922L22.8003 7.11194C22.8633 7.50988 22.9682 7.89245 23.1193 8.2586L23.123 8.26601C23.1987 8.43452 23.337 8.585 23.4409 8.74608C22.8458 8.66554 22.078 8.58712 21.155 8.50446C21.1428 8.49227 21.1439 8.47267 21.129 8.4626C20.8233 8.24323 20.6166 8.06254 20.5059 7.92159C20.2468 7.55492 20.1037 7.31488 20.0889 7.20784L20.0793 7.16439C19.9882 6.86077 19.9532 6.56086 19.9781 6.25883C20.0147 5.81691 20.083 5.50322 20.18 5.32253C20.2568 5.18053 20.2044 5.00196 20.0624 4.92565C19.9182 4.84882 19.7407 4.90128 19.6634 5.04541C19.5288 5.29816 19.4376 5.6855 19.3921 6.21167V6.21379C19.3635 6.58524 19.4043 6.9588 19.5166 7.33237L19.5076 7.28892C19.5357 7.49398 19.7127 7.8225 20.038 8.27449L20.0449 8.28509C20.0783 8.32748 20.1339 8.37835 20.18 8.42339C19.9988 8.40802 19.8292 8.39424 19.639 8.37941C19.2098 8.23422 18.8044 8.10493 18.4272 7.98889C18.4145 7.95391 18.4145 7.91152 18.3853 7.88132C18.0006 7.48232 17.7569 7.06584 17.652 6.6361V6.63822C17.5025 6.01562 17.5057 5.48044 17.6588 5.02739C17.7113 4.87532 17.6292 4.70893 17.4766 4.65595C17.3224 4.60508 17.1555 4.68562 17.1046 4.84034C16.9154 5.39778 16.9064 6.04211 17.0813 6.77546V6.77652C17.1623 7.10876 17.3309 7.42562 17.5391 7.73613C16.9345 7.57452 16.4221 7.46272 15.9834 7.39595C15.9765 7.39224 15.9765 7.38535 15.9696 7.38323C15.9781 7.38535 15.9855 7.38906 15.9908 7.39224C15.9049 7.33608 15.7587 7.10982 15.5536 6.71559L15.543 6.6981C15.445 6.53808 15.3433 6.24717 15.2399 5.82645V5.82433C15.2135 5.72259 15.1764 5.50481 15.1292 5.16993V5.17364C15.1186 5.08356 15.1154 4.98023 15.1223 4.86101V4.84723C15.1244 4.63157 15.1854 4.42439 15.3099 4.22568C15.3957 4.0895 15.3555 3.90882 15.2188 3.82245C15.0805 3.73661 14.8998 3.77741 14.8134 3.9157C14.6311 4.20661 14.5384 4.51553 14.5363 4.84193C14.5273 4.99083 14.531 5.12754 14.549 5.24888V5.25206C14.5999 5.60867 14.6401 5.84711 14.6714 5.96793V5.96581C14.7694 6.3717 14.8754 6.66101 14.9851 6.87455C14.9098 6.85389 14.8505 6.84011 14.7821 6.82262C14.3662 6.55397 13.9783 6.25565 13.6349 5.90116C13.6275 5.89427 13.6153 5.89586 13.6084 5.89109C11.9891 4.48744 11.6087 3.24912 12.4931 2.17876C12.7951 1.81579 13.2365 1.46289 13.8135 1.11953C14.1977 0.937253 14.5294 0.856182 14.8118 0.875787C16.491 1.53655 17.6186 1.7999 18.1802 1.6563C22.8283 0.620915 25.3352 0.29345 25.7035 0.671784L25.6929 0.661716L25.7877 0.73325L28.3084 1.93555L28.3751 1.9578C31.5396 2.6175 33.2267 3.11771 33.4355 3.46107H33.4376L33.4397 3.46478C33.4869 3.54214 33.5759 3.56492 33.6638 3.57552C33.6532 3.57181 33.6485 3.5787 33.6374 3.57552C33.6289 3.57181 33.622 3.56863 33.6162 3.56492C33.9023 3.73449 35.1427 5.28226 37.3375 8.20985L37.2845 7.97352C37.2617 8.08691 37.2935 8.19395 37.3825 8.29569C37.6406 8.59189 39.1296 9.32842 41.8436 10.5048C42.5001 11.104 43.7994 12.1008 45.708 13.4742C45.6571 13.6146 45.7149 13.7741 45.8521 13.8372C46.6061 14.1864 46.9972 15.0283 47.0274 16.3663V16.3843C47.1058 17.3683 46.7497 18.2611 45.9586 19.0644L45.948 19.0771C45.7923 19.2536 45.3275 19.5328 44.555 19.9154L44.4538 19.9997C44.2148 20.3086 42.9765 21.1712 40.7414 22.5887L40.7632 22.5749C40.5925 22.6644 40.3806 22.7201 40.1294 22.745L40.158 22.7428L40.0542 22.7625C40.0701 22.7556 40.0823 22.7534 40.0923 22.7519C40.0081 22.7603 39.7421 22.7328 39.2896 22.666L39.2827 22.6644L39.2 22.666L38.1286 22.8361C37.2442 22.7799 36.6561 22.8218 36.362 22.9585C36.1442 23.0306 35.9142 23.1551 35.6631 23.3416L35.6408 23.3586C34.4846 24.4077 33.8133 24.9673 33.6252 25.0425C33.5494 25.0722 33.4953 25.13 33.4651 25.2004C33.1642 25.3096 32.7551 25.3917 32.2517 25.4532C32.2464 25.432 32.257 25.4129 32.2485 25.3938C32.1759 25.2476 32.0006 25.1888 31.8554 25.2603C31.857 25.2582 31.8591 25.2582 31.8591 25.2566C31.724 25.3075 31.2338 25.3249 30.3908 25.3112H30.3659C30.1603 25.3249 30.0103 25.3552 29.9065 25.4007C29.5525 25.53 29.3014 25.9131 29.1556 26.5516L29.1525 26.576C29.0454 27.3268 29.0046 27.7878 29.0311 27.9584C29.0534 28.1073 29.1291 28.2033 29.2537 28.2435L29.0661 28.0565C29.1307 28.2562 29.233 28.4316 29.3623 28.5789C29.3766 28.6001 29.3888 28.6213 29.41 28.6425C29.4857 28.7162 29.6611 28.8317 29.9261 28.9859C29.9399 28.9986 29.9552 29.0193 29.9701 29.0458C29.9886 29.1014 30.0045 29.1523 30.0114 29.2005C30.0469 29.6318 30.0782 29.9052 30.1084 30.0091V30.0101C30.1084 30.0123 30.1099 30.016 30.1099 30.017L30.1084 30.0138C30.2869 30.6386 30.3818 30.9947 30.3908 31.0837C30.3887 31.0805 30.3887 31.0736 30.3908 31.0662L30.3977 31.1404C30.4348 31.2993 30.4083 31.5717 30.3182 31.9559L30.315 31.9702C30.27 32.2171 30.1974 32.4296 30.0978 32.6071C29.7533 33.1152 29.41 33.3171 29.0645 33.2101C28.9485 33.1539 28.8679 33.0628 28.8329 32.9298L28.8298 32.9208C28.7312 32.5965 28.71 32.2521 28.7683 31.8907C28.7731 31.8541 28.7503 31.8239 28.7434 31.7905C28.8446 30.7758 28.7328 29.9476 28.3465 29.3579L28.2956 29.2985C27.3434 28.4634 25.9329 28.1688 24.0672 28.411ZM11.0332 16.2439H11.0316C11.0316 16.2439 11.0301 16.2439 11.0301 16.2418C11.0301 16.2439 11.0332 16.2439 11.0332 16.2439ZM41.5681 17.9681V17.9665C41.5681 17.9665 41.5681 17.9681 41.5696 17.9681H41.5681ZM31.3769 8.80808V8.80596L31.3779 8.79377V8.79218L31.3769 8.80808ZM39.2101 23.2468L39.2032 23.2446C39.209 23.2468 39.2101 23.2468 39.2159 23.2468H39.2101ZM29.9436 27.33C30.1168 27.8191 30.2535 28.2388 30.3871 28.6542C30.3505 28.607 30.3219 28.5493 30.2769 28.5143L30.2435 28.4915C30.0045 28.3564 29.8641 28.2668 29.8201 28.2229C29.8291 28.2319 29.8397 28.2456 29.8487 28.2631L29.81 28.2091C29.7279 28.1158 29.6659 28.0035 29.6219 27.8721C29.6203 27.8668 29.6135 27.8668 29.6113 27.862C29.5965 27.7444 29.6346 27.3475 29.7311 26.674C29.8291 26.2496 29.9536 26.0074 30.1084 25.9534L30.1486 25.9338C30.1465 25.9338 30.1465 25.9359 30.1465 25.9359C30.1486 25.9338 30.1592 25.9338 30.1603 25.9338C29.9536 26.3338 29.8535 26.772 29.9293 27.276L29.9436 27.33ZM29.9748 29.0542V29.0564L29.9732 29.0526C29.9732 29.0526 29.9748 29.0526 29.9748 29.0542ZM31.078 31.9702L31.068 32.0348C31.0309 32.9081 30.6149 33.5344 29.8169 33.9154C28.931 34.2169 28.4085 34.2836 28.2119 34.1416C28.2993 33.8788 28.3576 33.6414 28.426 33.3961C28.5277 33.5466 28.6554 33.6769 28.8345 33.7553L28.8594 33.7649C29.4995 33.9805 30.0797 33.6976 30.5996 32.9149L30.6112 32.8943C30.7394 32.6611 30.8327 32.3914 30.8905 32.082C30.9991 31.6141 31.0277 31.2543 30.9678 31.0068L30.9768 31.0805C30.9768 31.063 30.9768 31.0434 30.9731 31.0249C30.9604 30.9014 30.8603 30.5103 30.6732 29.8522L30.6711 29.8475V29.8491C30.6573 29.8003 30.6377 29.6249 30.6181 29.3934C31.015 30.717 31.1798 31.6003 31.078 31.9702ZM36.3074 23.9674C35.9895 24.2583 35.5894 24.678 35.1247 25.1967L34.5445 25.0918C34.9112 24.7935 35.4003 24.369 36.0218 23.8074C36.22 23.6606 36.3964 23.5583 36.5512 23.5112L36.5973 23.4921C36.7001 23.4396 36.8982 23.4094 37.1796 23.4004C36.9618 23.4518 36.6778 23.6309 36.3074 23.9674ZM44.1963 21.0133L41.4139 23.7623L37.5034 23.4184C37.4933 23.4131 37.4843 23.4004 37.4721 23.3972C37.665 23.4004 37.8737 23.4084 38.1228 23.4232L38.1874 23.42L39.2525 23.2499C39.7188 23.3199 40.0277 23.3485 40.1559 23.3342C40.1649 23.3342 40.1718 23.331 40.1803 23.3289H40.1856C40.1946 23.3273 40.1983 23.3241 40.2068 23.3241C40.2248 23.3199 40.2455 23.3162 40.2608 23.3114L40.2317 23.3162C40.5348 23.2817 40.8071 23.2134 41.0334 23.0957L41.0562 23.083C43.2414 21.6995 44.4856 20.8242 44.8432 20.4273C45.6677 20.0171 46.1833 19.696 46.3884 19.4645L46.3762 19.4751C47.2939 18.5457 47.7041 17.4997 47.6108 16.3387C47.5933 15.6372 47.4709 15.0617 47.2674 14.5843C47.2844 14.5986 47.2992 14.6076 47.3167 14.6193L47.4041 14.6617C47.401 14.6617 47.3988 14.6595 47.3951 14.6585L47.3973 14.6595C47.6606 14.8058 47.9266 15.8438 48.1953 17.7593C48.0109 18.4402 47.6373 19.0734 47.0608 19.6526C47.0412 19.6711 47.0502 19.7013 47.0375 19.7241C46.8589 19.8751 45.948 20.2821 44.2906 20.9503L44.1963 21.0133ZM47.0539 19.7135C47.0539 19.7135 47.0518 19.7151 47.0502 19.7151C47.0518 19.7151 47.0518 19.7135 47.0518 19.7135H47.0539ZM47.0306 19.7448C47.0205 19.7665 47.0147 19.7872 47.0099 19.8105C47.0147 19.7946 47.0078 19.7851 47.0147 19.7702C47.0205 19.7591 47.0253 19.7538 47.0306 19.7448ZM46.9951 19.9329C47.0205 20.0134 47.0656 20.0887 47.1429 20.1242C47.0444 20.0781 47.0057 20.0113 46.9951 19.9329Z" fill="black"/>
<path d="M18.1802 1.65723C18.1768 1.65723 18.1738 1.65723 18.1719 1.6587L18.1802 1.65723Z" fill="black"/>
<path d="M17.3574 32.3948L17.3652 32.3926H17.3724L17.3574 32.3948Z" fill="black"/>
<path d="M31.5997 14.1277L30.7844 13.6357H29.4349L28.2754 14.3228L28.3373 15.1539L28.6055 16.1379L30.1096 17.5296L31.5997 17.5934L32.7383 17.1593L33.2584 16.2908V15.7162L32.8226 14.9993L32.6118 14.8587L31.5997 14.1277Z" fill="#00953B"/>
<path d="M27.9627 14.1455L27.9368 14.1736C27.8928 14.2334 27.8578 14.2923 27.835 14.3542C27.7947 14.4682 27.7926 14.5768 27.826 14.6875C27.8456 14.7591 27.8695 14.8295 27.9065 14.8894L27.9526 14.9482L27.9262 14.9186C28.0242 15.0484 28.0819 15.1305 28.1 15.1729C28.18 15.7171 28.2594 16.0817 28.3347 16.2745C28.4539 16.6295 28.6839 16.9236 29.0241 17.161C29.4888 17.5097 30.078 17.7322 30.7849 17.8287H30.7886C31.6046 17.9304 32.1742 17.852 32.4937 17.5923L32.4603 17.6167C33.1322 17.2129 33.4851 16.8012 33.5143 16.3805C33.5831 15.6116 33.3675 15.0394 32.8673 14.6716C32.738 14.5747 32.5536 14.6033 32.4566 14.7326C32.3607 14.8629 32.3888 15.0473 32.5181 15.1432C32.8429 15.3817 32.9812 15.7786 32.9309 16.3328V16.3381C32.9144 16.5559 32.6574 16.8129 32.1588 17.1128L32.1254 17.1361C31.9342 17.2924 31.5134 17.3295 30.8606 17.2484H30.8643C30.2555 17.1658 29.7574 16.9803 29.3733 16.6905L29.3627 16.6836C29.1258 16.5188 28.9684 16.3206 28.8889 16.0854L28.8821 16.0658C28.8487 15.9852 28.8137 15.8363 28.7734 15.6413H28.7803C28.845 15.6403 28.9313 15.6185 29.0204 15.5926L29.0468 15.5905C29.0596 15.5873 29.0712 15.5836 29.0839 15.5804C29.1438 15.5608 29.2959 15.4993 29.538 15.3944C29.5465 15.3912 29.5555 15.3875 29.5624 15.3875C29.7134 15.405 29.847 15.4167 29.9466 15.4135C30.0526 15.4119 30.1771 15.396 30.3133 15.3658C30.4484 15.3414 30.5941 15.2699 30.7557 15.1491C30.8839 15.0505 30.9083 14.8661 30.8113 14.7384C30.7133 14.6081 30.5289 14.5837 30.3996 14.6817C30.3154 14.7469 30.2497 14.7824 30.2083 14.7903L30.1993 14.7925C30.0939 14.8158 30.0049 14.8258 29.9349 14.8274H29.9259C29.8507 14.8306 29.7415 14.8227 29.5995 14.8031L29.5693 14.8015C29.5327 14.7993 29.4957 14.8015 29.4607 14.8084H29.4538C29.4082 14.8168 29.3642 14.8306 29.3192 14.8492L29.3118 14.8523C29.0818 14.952 28.9467 15.0081 28.9086 15.0208C28.9117 15.0187 28.9154 15.0187 28.9223 15.0171L28.9838 15.0102L28.8948 15.0245C28.8471 15.0394 28.8243 15.0431 28.7994 15.0473L28.7978 15.0431C28.7554 14.9747 28.6961 14.819 28.6192 14.5715C28.6028 14.5238 28.5625 14.4963 28.5281 14.4639C28.8693 14.1836 29.3733 13.9738 30.0907 13.8525C30.7027 13.863 31.1007 13.9738 31.2676 14.1895C31.3661 14.3172 31.5505 14.3394 31.6782 14.2403C31.8065 14.1423 31.8308 13.9579 31.7307 13.8297C31.4446 13.4609 30.8919 13.2717 30.0711 13.2627H30.0674L30.0202 13.2659C29.0733 13.4227 28.3872 13.7157 27.9606 14.1455H27.9627ZM29.5539 15.3875H29.5465L29.5184 15.3838C29.5327 15.3854 29.5396 15.3838 29.5539 15.3875Z" fill="black"/>
<path d="M29.0298 17.1656L29.0249 17.1611L29.0215 17.1592L29.0298 17.1656Z" fill="black"/>
<path d="M27.8272 14.6961C27.8272 14.6939 27.8293 14.6907 27.8272 14.689C27.8255 14.6831 27.8234 14.6798 27.8223 14.6738L27.8272 14.6961Z" fill="black"/>
<path d="M28.343 16.2917C28.3408 16.2884 28.3392 16.2792 28.3376 16.2754C28.3376 16.2716 28.3359 16.2705 28.3359 16.2705L28.343 16.2917Z" fill="black"/>
<path d="M20.543 14.0786L20.5381 14.0752H20.5332L20.543 14.0786Z" fill="black"/>
<path d="M20.4036 11.5806L21.6933 11.1668L23.0286 11.1631L24.0675 11.334L24.9079 12.0905L24.8975 13.0611L24.0431 13.7385L22.3389 14.0785L20.9435 13.8686L19.8904 13.5401L19.5508 12.6208L20.4036 11.5806Z" fill="#00953B"/>
<path d="M20.5373 14.0755C21.3507 14.3177 22.172 14.3807 22.9986 14.2705L23.0214 14.2673C23.8565 14.0861 24.4733 13.8477 24.8733 13.5488L24.8898 13.5351C25.2734 13.2161 25.4329 12.8038 25.3624 12.3004L25.3592 12.2814C25.2771 11.8792 24.868 11.4791 24.1352 11.0849L24.114 11.0743C23.5508 10.8231 22.9705 10.7166 22.376 10.7516C22.3193 10.7548 22.279 10.7903 22.2372 10.8194C22.2038 10.8125 22.1773 10.7882 22.1429 10.7919C21.3253 10.8782 20.5723 11.1707 19.8813 11.6725L19.8707 11.681C19.3636 12.0832 19.1936 12.5458 19.3568 13.0656C19.5041 13.5774 19.8967 13.9144 20.5373 14.0755ZM20.23 12.1441C20.8372 11.7075 21.4938 11.4494 22.2017 11.3763C22.2525 11.3705 22.2859 11.3361 22.3262 11.3074C22.3564 11.3164 22.3792 11.3392 22.4105 11.3371C22.9085 11.3074 23.395 11.3986 23.8681 11.6095C24.4261 11.9115 24.7297 12.1722 24.7801 12.3948C24.8156 12.6634 24.7281 12.8828 24.5347 13.0576C24.5379 12.985 24.5194 12.9109 24.4685 12.8494C24.3652 12.7265 24.1808 12.7095 24.0563 12.8144C23.8968 12.9479 23.6652 13.0476 23.3595 13.1164L23.3526 13.1175C23.165 13.1673 22.9721 13.1599 22.7761 13.0984L22.7724 13.0968C22.6457 13.0576 22.5233 13.0073 22.402 12.9389L22.3919 12.9331L22.3585 12.9193C22.3654 12.923 22.3723 12.9252 22.376 12.9262C22.3331 12.9056 22.2176 12.8234 22.03 12.6793H22.0284L22.0141 12.6687C21.9585 12.6321 21.9018 12.6003 21.844 12.576L21.9039 12.6109C21.8753 12.5897 21.8419 12.5707 21.8016 12.5564V12.5548C21.7174 12.5251 21.5176 12.479 21.2124 12.4281C21.1949 12.4234 21.1848 12.4197 21.1742 12.4128C21.1774 12.3741 21.1986 12.3142 21.2548 12.2215C21.339 12.0832 21.2929 11.902 21.1546 11.8193C21.0163 11.7351 20.8351 11.779 20.753 11.9184C20.6285 12.125 20.5702 12.3073 20.5792 12.4684C20.5882 12.6406 20.6634 12.7763 20.8054 12.8743V12.8754C20.816 12.8828 20.8272 12.8897 20.8372 12.8987H20.8388C20.8987 12.9368 20.9724 12.9702 21.0582 12.9951L21.0879 13.002C21.3724 13.0497 21.542 13.0841 21.595 13.1037C21.5812 13.0984 21.5653 13.09 21.5478 13.0762L21.6077 13.1106C21.6331 13.1233 21.6617 13.1387 21.6861 13.1567C21.8928 13.3125 22.0353 13.4126 22.1058 13.4476C22.1105 13.4508 22.1142 13.4508 22.1195 13.4545L22.1174 13.4529C22.2753 13.5388 22.4369 13.6087 22.6039 13.6585H22.6007C22.6685 13.6792 22.7353 13.6792 22.8015 13.693C22.0968 13.7703 21.3947 13.7173 20.6989 13.5123L20.6862 13.5107C20.2586 13.4021 20.0027 13.2007 19.9184 12.9018L19.9163 12.8928C19.8342 12.63 19.9391 12.3794 20.23 12.1441ZM21.1721 12.4175L21.1827 12.4271H21.1811L21.1721 12.4197V12.4175Z" fill="black"/>
<path d="M24.9079 13.5215L24.8905 13.5356C24.8891 13.5381 24.8878 13.5401 24.8867 13.5416L24.9079 13.5215Z" fill="black"/>
<path d="M19.3584 13.0704V13.0659C19.3584 13.0659 19.3555 13.064 19.3555 13.0625L19.3584 13.0704Z" fill="black"/>
<path d="M14.5352 4.84452V4.84286C14.5374 4.8373 14.5352 4.83508 14.5352 4.83008V4.84452Z" fill="black"/>
<path d="M30.7988 8.72381V8.72174L30.8004 8.71191L30.7988 8.72381Z" fill="black"/>
<path d="M31.0684 7.55459C31.0705 7.54862 31.0743 7.54156 31.0754 7.53668C31.0754 7.53451 31.0776 7.53288 31.0776 7.53125L31.0684 7.55459Z" fill="black"/>
<path d="M30.8643 9.94478C30.8626 9.93935 30.8626 9.9323 30.8626 9.92524C30.8605 9.92199 30.8594 9.91981 30.8594 9.91602L30.8643 9.94478Z" fill="black"/>
<path d="M34.2617 10.1423L34.2633 10.1387V10.1377L34.2617 10.1423Z" fill="black"/>
<path d="M24.6934 19.5557C24.695 19.5579 24.695 19.5596 24.695 19.5629C24.695 19.5651 24.6989 19.5668 24.7006 19.5701L24.6934 19.5557Z" fill="black"/>
<path d="M20.7695 12.8419L20.7858 12.8566C20.7929 12.862 20.8016 12.869 20.8086 12.8728L20.7695 12.8408V12.8419Z" fill="black"/>
<path d="M22.163 13.4726C22.1513 13.4678 22.1354 13.462 22.1211 13.4551L22.1296 13.4583L22.163 13.4726Z" fill="black"/>
<path d="M20.8087 12.8751H20.8066V12.8721L20.8087 12.8751Z" fill="black"/>
<path d="M15.6953 15.1507V15.1484L15.6836 15.1662L15.6858 15.1651L15.6953 15.1507Z" fill="black"/>
<path d="M10.168 15.8486L10.1758 15.8555L10.1744 15.8521L10.1694 15.8486H10.168Z" fill="black"/>
<path d="M12.4492 19.7277H12.4508L12.4538 19.7246L12.4492 19.7277Z" fill="black"/>
<path d="M12.9364 24.0245V24.0229L12.9336 24.0205L12.9364 24.0245Z" fill="black"/>
<path d="M13.6348 22.4805C13.6517 22.5011 13.6538 22.5244 13.6681 22.5451C13.675 22.5578 13.6851 22.5658 13.6888 22.5785L13.6348 22.4805Z" fill="black"/>
<path d="M12.3546 20.5309L12.396 20.55C12.6805 20.6592 12.8506 20.7376 12.9036 20.7906C12.9036 20.7885 12.9015 20.7869 12.8999 20.7848L12.9205 20.8081C13.0281 20.913 13.0949 21.02 13.1171 21.1286C13.133 21.1975 13.124 21.2622 13.0928 21.3236C13.0488 21.3777 12.9152 21.517 12.6773 21.7555L12.6556 21.7799C12.6312 21.8111 12.6106 21.8413 12.5931 21.8731C12.5528 21.9415 12.5417 22.0114 12.5401 22.0777C12.5332 22.1746 12.5491 22.2689 12.6069 22.3601C12.6333 22.4025 12.6683 22.4427 12.7086 22.4846L12.7436 22.5132C12.9947 22.6934 13.1399 22.8062 13.1802 22.8481C13.1606 22.8269 13.1452 22.7994 13.133 22.7639L13.1871 22.8603C13.2273 22.9075 13.2538 22.9536 13.2628 22.9975V22.9986C13.2681 23.0182 13.2703 23.0288 13.2681 23.0394L13.2538 23.0728C13.2538 23.0691 13.256 23.0669 13.2575 23.0638L13.256 23.0659C13.2348 23.1252 13.1436 23.2815 12.9804 23.5375L12.9666 23.5603C12.9401 23.6111 12.9205 23.6583 12.9068 23.7044C12.8713 23.8252 12.8824 23.9306 12.937 24.0228C13.0361 24.1956 13.1908 24.265 13.4017 24.2284C13.4859 24.2141 13.5771 24.1797 13.6772 24.123C13.6926 24.115 13.7106 24.1039 13.726 24.0933L13.7313 24.0896C13.8754 23.9985 14.0518 23.8183 14.2664 23.5475L14.2696 23.5428C14.4784 23.2672 14.6098 23.0638 14.6644 22.9355L14.6676 22.9308V22.9286L14.6697 22.9249C14.6872 22.8778 14.7009 22.8248 14.7084 22.767L14.7105 22.7374C14.7152 22.5503 14.729 22.4025 14.7555 22.2976C14.7942 22.1397 14.6978 21.9818 14.5399 21.9425C14.3819 21.9044 14.224 22.0014 14.1859 22.1582C14.1504 22.306 14.1292 22.4936 14.1244 22.722L14.126 22.6918C14.1244 22.6992 14.1244 22.7061 14.1244 22.7093C14.0926 22.7845 13.9941 22.9308 13.8468 23.1268C13.8468 23.1236 13.8505 23.1199 13.8505 23.1141C13.8595 23.0394 13.8558 22.9573 13.8362 22.8709V22.873C13.8097 22.7591 13.745 22.6494 13.6682 22.5445C13.6518 22.5095 13.6369 22.474 13.603 22.4427C13.5458 22.3829 13.3911 22.2605 13.1664 22.0957C13.3842 21.8747 13.531 21.72 13.5781 21.6591C13.647 21.5658 13.6666 21.4709 13.6348 21.3708L13.6184 21.5907C13.7106 21.4042 13.735 21.2081 13.691 21.0047C13.6417 20.78 13.5225 20.5749 13.3291 20.3889L13.3519 20.4112C13.3381 20.3958 13.3243 20.3815 13.3105 20.3672C13.2363 20.2973 13.089 20.2188 12.9105 20.1346C13.194 19.9661 13.4313 19.8347 13.5871 19.7642C13.736 19.6996 13.8028 19.5258 13.736 19.3779C13.6714 19.229 13.4976 19.1623 13.3487 19.229C13.1399 19.3223 12.84 19.4887 12.4505 19.7271C12.3626 19.778 12.2958 19.8257 12.2471 19.8712C12.149 19.9661 12.1172 20.071 12.1294 20.1839C12.1353 20.3169 12.1967 20.4308 12.3281 20.515C12.3361 20.5203 12.3451 20.5256 12.3546 20.5309ZM14.1223 22.713L14.1244 22.7114C14.123 22.7125 14.1223 22.7137 14.1223 22.7151V22.713ZM13.8049 23.2709L13.7927 23.2974C13.7948 23.2916 13.7948 23.2884 13.798 23.2847C13.798 23.2815 13.8017 23.2741 13.8049 23.2709Z" fill="black"/>
<path d="M12.5312 22.1151C12.5312 22.1029 12.5403 22.0928 12.5403 22.078C12.5418 22.0674 12.5312 22.0594 12.5334 22.0488L12.5312 22.1151Z" fill="black"/>
<path d="M12.1285 20.2188C12.1248 20.2061 12.1317 20.1944 12.1301 20.1838C12.1285 20.169 12.1211 20.1573 12.1211 20.1436L12.1285 20.2188Z" fill="black"/>
<path d="M13.9916 27.0616L14.0049 27.0566C14.001 27.0583 13.9988 27.0583 13.9949 27.0605C13.9916 27.0605 13.9844 27.0639 13.9844 27.0639C13.9844 27.0639 13.9877 27.0616 13.9916 27.0616Z" fill="black"/>
<path d="M15.688 25.6602L15.6836 25.663L15.688 25.6614V25.6602Z" fill="black"/>
<path d="M15.0645 26.5471C15.5822 26.3473 15.889 26.2228 15.9733 26.1735C15.9939 26.1619 16.0098 26.1476 16.0273 26.1338C16.2085 26.0474 16.4183 25.8805 16.6674 25.6002L16.6743 25.5912C16.8693 25.3564 16.9662 25.1371 16.9662 24.9373L16.9488 24.8393C16.9466 24.8319 16.9429 24.8229 16.9398 24.816C16.8465 24.5881 16.678 24.4896 16.4342 24.5229C16.3998 24.5267 16.3643 24.5357 16.3256 24.5463L16.3696 24.5372C16.1274 24.5728 15.8254 24.6687 15.4662 24.8266C15.3173 24.8912 15.2489 25.0639 15.3136 25.2128C15.3782 25.3617 15.552 25.4285 15.6998 25.3639C15.9224 25.2669 16.0782 25.2303 16.2398 25.1864C16.2292 25.2001 16.2329 25.2038 16.2223 25.2176L16.2292 25.2107C16.0114 25.455 15.8535 25.5949 15.7555 25.6283L15.6362 25.704C15.6537 25.6866 15.6696 25.6738 15.685 25.6638C15.6188 25.6982 15.3416 25.8111 14.8451 26.0018L14.8398 26.004L14.8133 26.014C14.2172 26.3161 13.8786 26.4808 13.7981 26.5068C13.796 26.5068 13.7928 26.5089 13.7891 26.511L13.7764 26.5142C13.6047 26.5863 13.4505 26.6197 13.2947 26.6531C13.3731 26.5895 13.4823 26.5121 13.6243 26.4231C13.7615 26.3372 13.8029 26.156 13.7176 26.0199C13.6312 25.8826 13.4489 25.8402 13.3117 25.9266C12.937 26.1629 12.7065 26.3717 12.6207 26.5529C12.6117 26.572 12.6048 26.5916 12.5979 26.6107L12.5963 26.6197C12.5857 26.6531 12.5783 26.6843 12.5735 26.7161C12.538 26.962 12.635 27.1299 12.8629 27.2248H12.8644C12.8825 27.2317 12.9 27.2386 12.9185 27.2439C12.9927 27.2667 13.0764 27.2788 13.1755 27.2788L13.2195 27.2767C13.4648 27.2439 13.7244 27.1707 13.9942 27.06C14.1049 27.0208 14.4615 26.8491 15.0645 26.5471Z" fill="black"/>
<path d="M6.50195 24.4845C6.5035 24.4814 6.50764 24.4794 6.51074 24.4737L6.51229 24.4727L6.50195 24.4845Z" fill="black"/>
<path d="M6.28739 26.9058C6.28051 26.9026 6.27733 26.8936 6.27044 26.8899C6.26302 26.8852 6.24871 26.8814 6.24023 26.874L6.28739 26.9058Z" fill="black"/>
<path d="M30.3204 15.3672H30.314L30.3125 15.3692L30.3204 15.3672Z" fill="black"/>
<path d="M29.9014 25.4023C29.8905 25.4078 29.8775 25.4132 29.8672 25.4186L29.9046 25.4023H29.9014Z" fill="black"/>
<path d="M29.3707 28.596C29.3675 28.5929 29.3654 28.5854 29.3617 28.5786C29.3538 28.5685 29.3389 28.5542 29.332 28.542L29.3707 28.596Z" fill="black"/>
<path d="M29.9043 25.4026L29.906 25.4014H29.9073L29.9043 25.4026Z" fill="black"/>
<path d="M30.8926 32.0752L30.8903 32.0824L30.8887 32.0902L30.8926 32.0752Z" fill="black"/>
<path d="M13.3077 38.7086C13.3008 38.7065 13.2992 38.6996 13.2923 38.6985C13.2706 38.6895 13.252 38.6927 13.2324 38.6826L13.3077 38.7086Z" fill="black"/>
<path d="M18.8546 31.6963C18.8523 31.6985 18.8473 31.6985 18.8434 31.6996C18.8412 31.7018 18.8401 31.7018 18.8379 31.7035L18.8546 31.6963Z" fill="black"/>
<path d="M19.4883 30.4178L19.4913 30.417L19.4883 30.4178Z" fill="black"/>
<path d="M15.7207 32.0456L15.7386 32.0315C15.7408 32.0277 15.7424 32.0255 15.744 32.0244L15.7207 32.0456Z" fill="black"/>
<path d="M6.72461 35.8283L6.7365 35.8252L6.73133 35.8273L6.72461 35.8283Z" fill="black"/>
<path d="M10.1758 33.454H10.178C10.1818 33.4524 10.1921 33.4464 10.198 33.4453L10.1758 33.454Z" fill="black"/>
<path d="M6.72759 35.8281H6.72537L6.70703 35.8342C6.71203 35.832 6.71981 35.8303 6.72759 35.8281Z" fill="black"/>
<path d="M36.3262 22.9716C36.3352 22.9658 36.3511 22.9647 36.3617 22.9589C36.3649 22.9589 36.3686 22.9557 36.3717 22.9541L36.3262 22.9716Z" fill="black"/>
<path d="M47.6113 16.3369V16.3386C47.6113 16.3441 47.6136 16.3491 47.6136 16.3552L47.6113 16.3369Z" fill="black"/>
<path d="M27.8858 21.8217L27.6155 21.9171C27.4635 21.9711 27.3824 22.1375 27.437 22.2907C27.491 22.4427 27.6579 22.5238 27.8105 22.4692L28.0802 22.3749C28.2334 22.3198 28.3144 22.1534 28.2593 22.0013C28.2048 21.8482 28.0389 21.7671 27.8858 21.8217Z" fill="black"/>
<path d="M32.5071 19.6979C32.1748 19.8754 31.9735 19.9771 31.9014 20.0015L31.8855 20.0084C31.7679 20.0577 31.6434 20.0927 31.5072 20.1117C31.3472 20.1372 31.2364 20.2861 31.2613 20.4471C31.2836 20.6066 31.4335 20.7174 31.5946 20.693C31.7748 20.6644 31.9454 20.6194 32.1033 20.5521C32.205 20.5155 32.4297 20.4048 32.7837 20.2156C32.9257 20.1403 32.9802 19.9628 32.905 19.8187C32.8276 19.6772 32.6512 19.6227 32.5071 19.6979Z" fill="black"/>
<path d="M32.1163 20.5488C32.1124 20.5505 32.1091 20.5505 32.1052 20.5522C32.1029 20.5522 32.1018 20.5544 32.0996 20.5544L32.1163 20.5488Z" fill="black"/>
<path d="M29.3418 19.0978C29.1801 19.0925 29.0456 19.2192 29.0397 19.3802C29.0381 19.4348 29.0365 19.4889 29.035 19.5419C29.035 19.5646 29.0328 19.6017 29.0312 19.6526V19.8799C29.035 20.0415 29.168 20.1714 29.329 20.1682C29.4928 20.1661 29.6205 20.0331 29.6189 19.8693C29.6173 19.8015 29.6173 19.7331 29.6189 19.6643C29.6189 19.6203 29.6205 19.5858 29.6205 19.5615C29.6221 19.5064 29.6242 19.4539 29.6258 19.3998C29.6311 19.2382 29.5044 19.1026 29.3418 19.0978Z" fill="black"/>
<path d="M33.367 18.5769C33.411 18.7333 33.5726 18.8223 33.7289 18.7783C34.0495 18.6872 34.404 18.5293 34.7913 18.3046C34.9317 18.224 34.9815 18.0455 34.9005 17.9056C34.8199 17.7646 34.6392 17.7175 34.4983 17.798C34.1533 17.9978 33.8423 18.1366 33.5689 18.2134C33.4131 18.2595 33.3219 18.4212 33.367 18.5769Z" fill="black"/>
<path d="M38.527 18.7373V18.7389L38.5254 18.7417L38.527 18.7373Z" fill="black"/>
<path d="M38.1657 19.1376C38.3358 18.9903 38.4551 18.8589 38.5271 18.7396C38.5812 18.6554 38.6236 18.5696 38.6548 18.4816L38.6585 18.471C38.6813 18.3973 38.6951 18.3375 38.7025 18.2903C38.7041 18.2659 38.7057 18.2453 38.7057 18.2235C38.7041 18.0609 38.5706 17.9305 38.4095 17.9326C38.2479 17.9342 38.1186 18.0678 38.1202 18.2288V18.2151C38.1186 18.2273 38.1106 18.2553 38.1006 18.2887C38.0863 18.3343 38.0624 18.3799 38.0322 18.4275L38.0163 18.454L38.029 18.4323C37.9861 18.5012 37.904 18.5865 37.781 18.6941C37.6586 18.799 37.6449 18.9855 37.7519 19.1079C37.8568 19.2308 38.0428 19.243 38.1657 19.1376Z" fill="black"/>
<path d="M38.5415 18.7178L38.5273 18.7389H38.5295L38.5415 18.7178Z" fill="black"/>
<path d="M30.2621 21.4776C30.1704 21.5332 30.0941 21.5788 30.0321 21.6138C29.8922 21.6943 29.843 21.8739 29.9235 22.0159C30.004 22.1558 30.1831 22.203 30.3236 22.1246C30.3903 22.0859 30.4725 22.0366 30.5694 21.9767C30.7056 21.8925 30.7496 21.7123 30.6637 21.5735C30.5795 21.4368 30.3988 21.3933 30.2621 21.4776Z" fill="black"/>
<path d="M34.8105 16.1733L34.8121 16.1802C34.8349 16.3402 34.9859 16.4504 35.1454 16.4282C35.3055 16.4033 35.4151 16.2544 35.3929 16.0997L35.3908 16.0928C35.3749 15.9857 35.3473 15.8421 35.307 15.6614C35.27 15.5014 35.1142 15.4034 34.9563 15.4389C34.7984 15.4733 34.6982 15.6312 34.7337 15.7897C34.7719 15.9524 34.7962 16.079 34.8105 16.1723V16.1733Z" fill="black"/>
<path d="M36.3396 19.6489C36.5706 19.4783 36.7905 19.2976 36.9972 19.1085C37.1164 18.9977 37.1254 18.8133 37.0147 18.6946C36.906 18.5754 36.7206 18.5664 36.5924 18.6856L36.6008 18.6771C36.4095 18.8525 36.2077 19.0173 35.992 19.1752C35.8627 19.2717 35.8341 19.454 35.9295 19.5859C36.0254 19.7152 36.2077 19.7438 36.3396 19.6489Z" fill="black"/>
<path d="M27.7387 17.9039C27.779 17.6962 27.8124 17.5303 27.8404 17.4021C27.8759 17.2442 27.7758 17.0884 27.6179 17.0529C27.46 17.0179 27.3042 17.1175 27.2687 17.2754C27.239 17.409 27.2041 17.5807 27.1633 17.7931C27.1336 17.951 27.2374 18.1052 27.3964 18.137C27.5543 18.1667 27.709 18.0628 27.7387 17.9039Z" fill="black"/>
<path d="M27.1452 12.9719C26.9963 12.9104 26.8241 12.9846 26.7632 13.1335C26.6328 13.4572 26.4998 13.7895 26.3684 14.1259C26.3085 14.2769 26.3827 14.447 26.5332 14.5069C26.6837 14.5668 26.8543 14.4905 26.9142 14.3416C27.0435 14.0083 27.1749 13.6787 27.3063 13.3544C27.3683 13.2034 27.2962 13.0333 27.1452 12.9719Z" fill="black"/>
<path d="M29.0506 12.5994C29.1057 12.5888 29.1645 12.5782 29.2302 12.5692L29.3214 12.5416C29.2928 12.5554 29.2668 12.5639 29.2382 12.5681C29.2594 12.5639 29.3452 12.5554 29.4978 12.5395C29.6594 12.522 29.7755 12.3779 29.7596 12.2168C29.7421 12.0552 29.598 11.9397 29.4369 11.9556C29.2774 11.973 29.1825 11.9836 29.1539 11.9868C29.1508 11.9868 29.1492 11.9889 29.147 11.9889C29.0702 11.9995 28.9982 12.0112 28.9314 12.0255C28.7735 12.0589 28.6702 12.2131 28.7035 12.371C28.7369 12.531 28.8911 12.6327 29.0506 12.5994Z" fill="black"/>
<path d="M27.3061 11.3123C27.4163 11.316 27.4952 11.3192 27.5445 11.3208H27.5424C27.607 11.325 27.6759 11.3298 27.7464 11.3335C27.9075 11.3457 28.0474 11.2248 28.058 11.0632C28.0707 10.9 27.9483 10.7601 27.7867 10.7495C27.713 10.7442 27.6404 10.7384 27.5726 10.7368C27.5196 10.7336 27.4385 10.7299 27.3267 10.7268C27.164 10.7209 27.0284 10.8476 27.0236 11.0092C27.0178 11.1719 27.1444 11.307 27.3061 11.3123Z" fill="black"/>
<path d="M25.1574 15.6436C24.9947 15.6404 24.8612 15.7681 24.8575 15.9308C24.8543 16.0924 24.982 16.2275 25.1436 16.2307L25.3068 16.2344C25.4684 16.2376 25.6014 16.1099 25.6046 15.9472C25.6083 15.7856 25.4801 15.6521 25.319 15.6473L25.1574 15.6436Z" fill="black"/>
<path d="M20.6048 16.1934C20.7293 16.0895 20.7463 15.9041 20.643 15.7795C20.5396 15.655 20.3531 15.6391 20.2344 15.7393H20.2323L20.2286 15.7424C19.961 15.9639 19.757 16.151 19.6166 16.3041C19.5064 16.4228 19.5148 16.6072 19.6346 16.7179C19.7522 16.8282 19.9382 16.8197 20.0484 16.6999C20.1708 16.5669 20.3552 16.399 20.6027 16.1934L20.599 16.1971L20.6048 16.1934Z" fill="black"/>
<path d="M23.015 16.1807C23.0659 16.0287 22.9838 15.8617 22.829 15.8109L22.8269 15.8093C22.8079 15.804 22.7681 15.7844 22.7061 15.7531L22.713 15.7552C22.6796 15.7372 22.6468 15.716 22.615 15.6932C22.4836 15.6005 22.3013 15.6307 22.2064 15.7637C22.1132 15.8951 22.1434 16.0774 22.2748 16.1728C22.3257 16.2072 22.3765 16.2385 22.429 16.2687L22.4348 16.2719C22.5238 16.318 22.5943 16.3492 22.6447 16.3667C22.7973 16.4181 22.9642 16.3355 23.015 16.1807Z" fill="black"/>
<path d="M16.9556 18.065C17.1066 18.1217 17.2751 18.0443 17.3308 17.8912C17.4065 17.6861 17.4654 17.5441 17.5078 17.4667C17.5867 17.3247 17.5343 17.1472 17.3922 17.0688C17.2497 16.9914 17.0733 17.0444 16.9938 17.1864C16.9381 17.2882 16.8655 17.4561 16.7818 17.6893C16.7262 17.8403 16.8025 18.0088 16.9556 18.065Z" fill="black"/>
<path d="M17.4775 21.8128C17.4462 21.7402 17.4001 21.649 17.3439 21.5351V21.5372L17.3424 21.5319C17.2687 21.3862 17.0933 21.3285 16.9481 21.4021C16.804 21.4742 16.7462 21.6512 16.8178 21.7953L16.8199 21.799C16.8739 21.9055 16.9147 21.9913 16.9444 22.0549C17.0106 22.2017 17.1844 22.2669 17.3318 22.2001C17.4796 22.1333 17.5442 21.9601 17.4775 21.8128Z" fill="black"/>
<path d="M18.8682 24.3815C19.0283 24.4075 19.1803 24.3005 19.2068 24.1404C19.2349 23.9815 19.1263 23.8304 18.9684 23.8024C18.9244 23.7955 18.8863 23.7886 18.8492 23.7796V23.7817L18.847 23.7796L18.8423 23.778C18.8174 23.7738 18.7771 23.7637 18.7246 23.7483C18.5683 23.7022 18.4057 23.7934 18.3617 23.9481C18.3156 24.1039 18.4057 24.2671 18.5614 24.311C18.6314 24.3317 18.686 24.346 18.7262 24.3529H18.7246C18.7686 24.364 18.8174 24.372 18.8682 24.3815Z" fill="black"/>
<path d="M17.1959 27.2674C17.2753 27.4094 17.4539 27.4608 17.5943 27.3802C17.6712 27.3373 17.7734 27.2706 17.9027 27.1794C18.0341 27.0862 18.0659 26.9039 17.9732 26.7725C17.8799 26.6395 17.6977 26.6077 17.5647 26.7009C17.4518 26.7794 17.3675 26.836 17.3087 26.8694C17.1657 26.9479 17.1169 27.127 17.1959 27.2674Z" fill="black"/>
<path d="M15.695 20.0563C15.7474 19.9631 15.8613 19.705 16.0388 19.2843C16.0998 19.1333 16.0298 18.9616 15.8788 18.9001C15.7299 18.8387 15.5582 18.9091 15.4968 19.058C15.3299 19.456 15.2281 19.6912 15.1857 19.7628C15.1052 19.9021 15.1524 20.0823 15.2928 20.1628C15.4332 20.2434 15.6144 20.1962 15.695 20.0563Z" fill="black"/>
<path d="M17.8627 14.2259C18.0227 14.2481 18.1716 14.1363 18.1944 13.9768L18.2119 13.8433C18.2347 13.6822 18.1224 13.5344 17.9629 13.5116C17.8013 13.4894 17.654 13.6012 17.6306 13.7607L17.6121 13.8942C17.5904 14.0558 17.7011 14.2031 17.8627 14.2259Z" fill="black"/>
<path d="M16.9375 9.98072C16.9513 9.8191 16.8315 9.67763 16.6704 9.66332C16.6042 9.65643 16.539 9.65325 16.4744 9.65325H16.4722C16.397 9.65113 16.3403 9.65325 16.3022 9.65431H16.3C16.2232 9.66014 16.1639 9.66703 16.1215 9.67392L16.1411 9.67074C16.1374 9.67233 16.1315 9.67233 16.1268 9.67233C16.1003 9.67604 16.0266 9.68981 15.9079 9.71101C15.7479 9.73856 15.6425 9.8917 15.6705 10.0512C15.7002 10.2112 15.8512 10.3161 16.0107 10.2875C16.1246 10.2669 16.1904 10.2563 16.2057 10.2547H16.2004L16.2195 10.2531C16.2412 10.2478 16.2826 10.2435 16.3424 10.2404H16.344C16.3657 10.2388 16.406 10.2388 16.4638 10.2388C16.5146 10.2404 16.5671 10.2425 16.618 10.2478C16.7796 10.2621 16.9226 10.1423 16.9375 9.98072Z" fill="black"/>
<path d="M18.4278 9.93714C18.4521 9.94085 18.4749 9.94774 18.4993 9.95357L18.5072 9.95674H18.5083C18.5226 9.96045 18.5507 9.97052 18.5926 9.98801C18.7436 10.0479 18.9131 9.97423 18.973 9.82321C19.0329 9.67273 18.9614 9.50264 18.8103 9.44276C18.7452 9.41627 18.6964 9.39878 18.6593 9.3903C18.654 9.38818 18.6524 9.38818 18.6524 9.38818L18.6609 9.3903C18.6191 9.37812 18.5767 9.36911 18.5348 9.36063C18.3748 9.33043 18.2227 9.43587 18.1925 9.5959C18.1628 9.75486 18.2683 9.90747 18.4278 9.93714Z" fill="black"/>
<path d="M12.6223 29.8686C12.5174 29.8813 12.4051 29.9078 12.2891 29.946C12.1667 29.9863 11.9785 30.0583 11.7247 30.1617C11.5753 30.2231 11.5038 30.3953 11.5647 30.5442C11.6262 30.6952 11.7963 30.7673 11.9473 30.7058C12.1894 30.6057 12.3648 30.5389 12.4735 30.5018C12.5529 30.4753 12.6282 30.4584 12.696 30.4499C12.856 30.4303 12.9705 30.283 12.9509 30.1235C12.9313 29.9619 12.784 29.848 12.6223 29.8686Z" fill="black"/>
<path d="M8.20483 30.8916C8.10469 30.9408 8.02414 30.9811 7.96268 31.0161C7.82014 31.0945 7.77139 31.2741 7.84981 31.4161C7.9293 31.5566 8.10839 31.6074 8.24987 31.5279C8.30074 31.4983 8.37333 31.4612 8.46076 31.4193L8.46447 31.4172C8.60966 31.3473 8.67113 31.1719 8.59959 31.0261C8.52912 30.881 8.35373 30.8195 8.20483 30.8916Z" fill="black"/>
<path d="M6.49545 29.6791C6.36563 29.774 6.21674 29.925 6.04823 30.1348C5.94809 30.2615 5.96769 30.4459 6.09327 30.5476C6.22203 30.6493 6.4059 30.6281 6.50605 30.5015C6.64117 30.333 6.75297 30.218 6.83934 30.1544C6.97075 30.0596 6.99884 29.8773 6.90399 29.7459C6.80914 29.6145 6.62686 29.5848 6.49545 29.6791Z" fill="black"/>
<path d="M4.7511 32.8214C4.45808 32.9179 4.15128 33.0933 3.82858 33.3492C3.70035 33.4509 3.67969 33.6353 3.78089 33.762C3.88104 33.8881 4.06491 33.9088 4.19367 33.8091C4.4602 33.5972 4.70712 33.4531 4.93338 33.3794C5.08758 33.3285 5.17183 33.1638 5.12096 33.009C5.07009 32.857 4.9053 32.7727 4.7511 32.8214Z" fill="black"/>
<path d="M6.50536 31.2251C6.40733 31.0969 6.22293 31.0709 6.0947 31.1689C5.96488 31.2669 5.9405 31.4513 6.03853 31.5796L6.13709 31.7089C6.23512 31.8392 6.41899 31.8636 6.54775 31.7672C6.67704 31.6686 6.70141 31.4847 6.60338 31.3549L6.50536 31.2251Z" fill="black"/>
<path d="M11.1344 21.1244C11.1323 21.082 11.1312 21.0438 11.1291 21.0088C11.1254 20.8472 10.9924 20.7195 10.8313 20.7227C10.6676 20.7264 10.5393 20.861 10.543 21.0226C10.5452 21.0629 10.5468 21.1048 10.5489 21.1471C10.5489 21.1805 10.5521 21.2383 10.5568 21.3225C10.568 21.4842 10.7068 21.6087 10.8679 21.5981C11.0295 21.5875 11.1519 21.4486 11.1434 21.287C11.1381 21.2065 11.1344 21.1519 11.1344 21.1244Z" fill="black"/>
<path d="M12.0547 27.3773C12.1267 27.2315 12.0674 27.0562 11.9233 26.9841C11.7781 26.912 11.6027 26.9698 11.5301 27.1155C11.3007 27.5733 11.1634 27.8404 11.12 27.9135C11.0389 28.0529 11.085 28.233 11.2254 28.3157C11.3637 28.3962 11.5439 28.3506 11.625 28.2108C11.6758 28.1244 11.8194 27.8473 12.0547 27.3773Z" fill="black"/>
<path d="M10.8387 19.1098L11.1672 19.0292C11.3251 18.99 11.421 18.8305 11.3808 18.6726C11.3426 18.5163 11.1847 18.4204 11.0268 18.4586L10.6972 18.5412C10.5409 18.5794 10.4445 18.7394 10.4831 18.8952C10.5218 19.0531 10.6808 19.1479 10.8387 19.1098Z" fill="black"/>
<path d="M11.4012 23.7271C11.4383 23.885 11.5941 23.983 11.752 23.947C11.9099 23.9115 12.0095 23.7535 11.9729 23.5956C11.9517 23.5066 11.9327 23.4118 11.9131 23.3153C11.8813 23.1553 11.7276 23.052 11.5676 23.0854C11.4097 23.1166 11.3063 23.2714 11.3376 23.4293C11.3588 23.5342 11.3795 23.6322 11.4012 23.7271Z" fill="black"/>
</svg>
