<svg width="61" height="53" viewBox="0 0 61 53" fill="none" xmlns="http://www.w3.org/2000/svg">
<g clip-path="url(#clip0_3392_102663)">
<path d="M23.4541 20.1657C24.1771 20.2211 24.5006 20.9875 24.0415 21.5823C23.8046 21.8893 23.4366 22.0914 23.1554 22.3689C23.0153 22.5071 22.8706 22.6986 22.8433 22.8831C22.7524 23.4974 22.7016 24.1002 22.3675 24.6663C22.208 24.9366 22.2569 25.3442 22.2532 25.69C22.2473 26.2483 22.2939 26.8073 22.2832 27.3653C22.2767 27.6991 22.404 27.8077 22.7252 27.8256C24.124 27.9034 25.5213 28.0078 26.92 28.0896C27.5518 28.1266 28.1178 28.2972 28.6694 28.6352C30.9632 30.0412 33.3057 31.3692 35.5743 32.8142C36.5862 33.4588 37.462 34.3171 38.4101 35.0649C38.5127 35.1459 38.7036 35.1976 38.8231 35.1615C40.3602 34.6973 41.8908 34.2116 43.4253 33.739C43.7587 33.6363 43.8924 33.4454 43.7999 33.0986C43.535 32.1052 43.3325 31.1142 42.5271 30.3351C42.0581 29.8814 41.7967 29.2122 41.4233 28.6101C40.8232 28.784 40.2123 28.1581 40.2554 27.2754C40.2648 27.0821 40.2333 26.8772 40.1756 26.6917C39.7901 25.4517 39.5609 24.2333 40.1468 22.9664C41.0945 20.9176 43.903 20.652 45.219 21.4386C45.387 21.539 45.6269 21.5851 45.8218 21.5611C46.3414 21.4972 46.7117 21.7278 47.0423 22.0789C47.7488 22.8294 47.906 23.7612 47.9052 24.7408C47.9048 25.1753 47.8686 25.5612 48.2207 25.9588C48.6653 26.4608 48.2456 27.5394 47.5813 27.7691C47.7262 28.5213 47.5449 29.2058 47.1088 29.8434C47.0191 29.9745 47.0181 30.2217 47.0705 30.385C47.2211 30.8541 47.4283 31.3045 47.5967 31.7682C47.6974 32.0453 47.865 32.0714 48.1184 31.9908C49.1334 31.6679 50.1639 31.3898 51.1664 31.0323C52.1484 30.6821 52.9819 30.868 53.6036 31.6717C54.3222 32.6007 54.9616 33.5915 55.6259 34.562C55.7674 34.7688 55.8679 35.0037 56.0326 35.3098C56.2089 34.9142 56.3637 34.5957 56.4938 34.2673C56.6268 33.9314 56.8614 33.8279 57.176 33.9638C57.5183 34.1116 57.515 34.3815 57.3693 34.6824C57.1679 35.0984 56.9516 35.5097 56.7899 35.9412C56.7223 36.1215 56.7786 36.3486 56.7786 36.5544C56.8339 36.5673 56.8891 36.5803 56.9443 36.5932C57.3248 36.0919 57.7075 35.5923 58.0848 35.0886C58.2774 34.8316 58.4757 34.5805 58.8218 34.8499C59.1679 35.1194 59.1019 35.4048 58.8352 35.7068C58.4987 36.0878 58.1848 36.4889 57.9227 36.8067C58.1473 37.3623 58.3522 37.8593 58.5464 38.3606C58.5724 38.4278 58.5761 38.5415 58.5367 38.5906C58.1747 39.0419 58.5245 39.3798 58.7038 39.7477C59.3525 41.0784 60.0415 42.3918 60.6255 43.7505C60.8704 44.3201 60.9643 44.9828 60.9966 45.6099C61.0463 46.5745 60.5463 47.3299 59.6078 47.5306C58.7528 47.7134 57.8479 47.6651 56.9644 47.7069C56.7949 47.7149 56.6228 47.6682 56.4452 47.6459C56.3076 48.3163 56.4091 48.8215 56.9381 49.3215C58.0492 50.3716 59.0709 51.5168 60.1282 52.6241C60.2127 52.7126 60.2881 52.8097 60.3678 52.9028L60.2682 53C58.9731 51.647 57.678 50.294 56.4233 48.9833C53.4531 50.711 50.2927 51.6367 46.9539 51.9854C46.1593 52.0683 45.94 51.9591 45.3185 51.4816C45.2062 51.7353 45.0907 51.9744 44.9941 52.2209C44.9052 52.4476 44.8367 52.6822 44.7593 52.9133C44.711 52.8953 44.6627 52.8773 44.6144 52.8593C44.816 52.3353 45.0175 51.8113 45.231 51.2562C43.9305 50.5553 43.2586 49.2439 42.4476 48.0553C42.2143 47.7133 42.0221 47.3433 41.7942 46.9973C41.0943 45.9349 40.5482 44.7907 39.766 43.7599C38.6073 42.2327 37.9428 40.4115 37.4568 38.467C37.3288 38.6392 37.2445 38.7627 37.1502 38.8778C35.7259 40.6152 34.299 42.3505 32.8754 44.0886C32.2329 44.8731 31.3684 45.3245 30.4697 45.7316C30.3616 45.7806 30.2488 45.887 30.2026 45.9945C29.9725 46.5309 29.764 47.0766 29.5136 47.7049C29.5359 47.7295 29.6365 47.8405 29.7783 47.997C29.8563 47.8471 29.8909 47.7243 29.9691 47.6446C30.0696 47.5422 30.2488 47.3804 30.3164 47.4119C30.4502 47.4743 30.564 47.6385 30.6219 47.786C30.6619 47.888 30.6132 48.0391 30.5719 48.1569C30.2788 48.9924 29.2907 49.7179 28.317 49.5868C28.0842 49.5554 27.8437 49.5821 27.5983 49.5821C27.7939 50.7069 27.9862 51.8123 28.1848 52.9542H12.2502C12.5374 52.1786 12.8132 51.4396 13.0846 50.699C13.5342 49.4727 13.9809 48.2453 14.4287 47.0183C14.4342 47.0034 14.4339 46.9838 14.4437 46.9732C15.0254 46.346 14.7082 45.6996 14.5689 45.0002C14.0366 42.3281 13.5682 39.6427 13.1097 36.9565C12.9544 36.0463 12.9148 35.1166 12.7849 34.2011C12.7583 34.0141 12.5996 33.8043 12.4419 33.6838C8.61057 30.7563 4.98866 27.5891 1.58428 24.1728C1.1687 23.7558 0.802417 23.2897 0.406633 22.8525C0.047091 22.4552 -0.0619745 21.9935 0.0321204 21.4764C0.517075 18.8111 0.958471 16.1368 1.5071 13.4848C1.82264 11.9595 2.27183 10.4574 2.74629 8.97235C2.9143 8.44647 3.34985 8.01017 3.63295 7.51555C3.72944 7.34698 3.79614 7.11589 3.76917 6.92892C3.5665 5.52403 3.33545 4.12327 3.11711 2.72063C3.06564 2.38998 3.07671 2.08608 3.43885 1.90253C3.51799 1.86242 3.56501 1.70779 3.579 1.59968C3.60951 1.36383 3.56247 1.1077 3.63737 0.891247C3.69069 0.737194 3.89122 0.634346 4.02606 0.508647C4.15127 0.65088 4.36443 0.781083 4.38571 0.937531C4.4586 1.47318 4.46354 2.01808 4.49627 2.55933C4.49995 2.62017 4.51552 2.68028 4.52935 2.76329C4.64449 1.97338 4.75816 1.21151 4.86537 0.448721C4.90646 0.156401 5.02524 -0.0446782 5.35772 0.00855387C5.67547 0.0594247 5.76182 0.283932 5.73313 0.573125C5.70336 0.873026 5.66839 1.17241 5.69193 1.48505C5.73131 1.32104 5.72678 1.12215 5.8216 1.00219C5.93095 0.863843 6.12908 0.720406 6.28651 0.722774C6.38974 0.724326 6.58151 0.985396 6.57422 1.12166C6.54358 1.69365 6.42203 2.26079 6.39222 2.83276C6.35759 3.49714 6.38415 4.16472 6.38415 4.83091C6.42771 4.84829 6.47126 4.86567 6.51482 4.88304C6.6566 4.62113 6.7984 4.35922 6.94017 4.0973C6.98568 4.01322 7.0159 3.91438 7.0797 3.84799C7.23291 3.68857 7.40188 3.54438 7.56448 3.39404C7.67852 3.63914 7.86784 3.87896 7.88543 4.13083C7.903 4.38225 7.7857 4.66524 7.66289 4.90046C7.21335 5.76141 6.74591 6.61339 6.26656 7.4581C6.0416 7.85452 6.07939 8.33854 6.30243 8.72073C6.45321 8.97911 6.56099 9.31672 6.54409 9.61057C6.44146 11.3952 6.31153 13.1785 6.16337 14.9601C6.01257 16.7734 5.82412 18.5836 5.67255 20.3969C5.65968 20.5509 5.75668 20.7705 5.87656 20.8711C8.6479 23.1982 11.4288 25.5138 14.212 27.8267C14.314 27.9115 14.4558 27.9958 14.5805 27.9979C15.4516 28.0127 16.3232 28.0057 17.292 28.0057C17.292 27.2317 17.2804 26.4735 17.2965 25.7158C17.3057 25.2838 17.2618 24.9079 17.0292 24.5008C16.7863 24.0756 16.7267 23.5359 16.6328 23.0375C16.5702 22.7054 16.4607 22.4707 16.1498 22.2838C15.6913 22.0082 15.2163 21.7095 15.1763 21.0727C15.1469 20.6047 15.3065 20.262 15.6534 20.1594C15.5842 19.3454 15.4436 18.588 15.4755 17.838C15.5152 16.9039 15.8968 16.6249 16.8332 16.6254C16.9411 16.6255 17.0491 16.6254 17.1591 16.6254C17.068 15.5479 17.426 15.0661 18.4744 14.8056C19.3115 14.5977 20.1189 14.7086 20.9061 15.0228C21.8553 15.4015 22.6454 16.0042 23.344 16.747C23.9352 17.3755 24.1261 18.079 23.8604 18.9032C23.7286 19.3121 23.5972 19.7212 23.4541 20.1657ZM16.0308 28.1148C15.8212 28.1148 15.6315 28.1107 15.4419 28.1154C14.2352 28.1453 13.8933 28.3672 13.5312 29.5117C13.0507 31.0305 12.8451 32.6001 13.0031 34.1851C13.1864 36.0234 13.4009 37.8628 13.7115 39.683C14.0486 41.6582 14.5148 43.6112 14.9184 45.5753C15.0457 46.1945 15.4146 46.5863 16.0267 46.6678C17.0795 46.8081 18.1377 46.9692 19.1963 46.9911C21.2184 47.0328 23.2335 46.9059 25.2133 46.4242C25.6994 46.3059 25.9627 46.0636 26.1006 45.5674C26.99 42.3671 27.6657 39.1305 27.8626 35.8055C27.8941 35.2729 27.9303 34.7435 27.3809 34.411C27.3469 34.3904 27.3503 34.3075 27.3227 34.2009C27.4323 34.2363 27.4994 34.239 27.5388 34.2734C28.6589 35.2522 30.0042 35.8356 31.3203 36.4786C31.7705 36.6986 32.1018 36.7624 32.3986 36.2965C32.427 36.252 32.5196 36.2486 32.7163 36.1783C32.5659 36.39 32.5027 36.491 32.4278 36.5822C31.9422 37.1737 31.4099 37.7323 30.9757 38.3594C29.9972 39.773 29.062 41.2169 28.1203 42.6557C27.8881 43.0104 27.8531 43.3986 28.0589 43.7919C28.7862 45.1823 31.0227 45.648 32.0965 44.5396C33.3807 43.2139 34.6172 41.8307 35.7596 40.3815C36.6825 39.2108 37.478 37.931 38.2482 36.6501C38.7399 35.8321 38.6575 35.5362 37.9619 34.8937C37.3901 34.3655 36.7978 33.8378 36.1416 33.427C33.7405 31.9237 31.3028 30.4793 28.8927 28.9902C28.229 28.5801 27.5542 28.2828 26.7618 28.2596C25.7651 28.2304 24.7695 28.1648 23.7835 28.1153C23.4715 29.7218 22.956 30.5279 21.8572 31.0753C20.7278 31.6379 19.535 31.7701 18.3359 31.3684C17.2991 31.0211 16.4683 30.3962 16.1885 29.2566C16.1019 28.9041 16.0864 28.5341 16.0308 28.1148ZM5.47182 20.3972C5.50317 20.1389 5.53383 19.9344 5.55198 19.7288C5.68647 18.2053 5.82597 16.6822 5.94935 15.1578C6.09983 13.2987 6.23393 11.4383 6.38016 9.57888C6.41551 9.12942 6.24895 8.74516 5.84928 8.59794C5.20368 8.36013 4.52922 8.18479 3.85347 8.05206C3.48104 7.97891 3.19264 8.18809 3.07429 8.59171C2.97594 8.92701 2.82179 9.24585 2.72319 9.58109C1.6577 13.2045 0.925975 16.8999 0.298897 20.6219C0.100078 21.802 0.378827 22.6799 1.21778 23.5388C4.46508 26.8636 7.95389 29.9093 11.5912 32.7909C11.9347 33.063 12.2915 33.3182 12.668 33.6007C13.0684 30.6403 13.5656 28.7784 14.1595 28.0151C11.133 25.4907 8.10488 22.9648 5.07674 20.439C5.09304 20.4122 5.10933 20.3854 5.12562 20.3586C5.22568 20.3698 5.32574 20.3809 5.47182 20.3972ZM43.7322 41.8131C42.875 42.9938 41.756 43.7446 40.4243 44.2272C40.7009 44.7328 40.9318 45.2266 41.2258 45.6792C42.2401 47.2407 43.221 48.8288 44.3242 50.3257C45.0246 51.2759 45.3923 51.2365 46.3512 50.515C46.5293 50.381 46.7081 50.2449 46.869 50.0912C47.5948 49.3983 48.3471 48.7294 49.0297 47.9955C50.832 46.0576 52.5952 44.0829 54.394 42.1416C54.7237 41.7857 55.1552 41.5261 55.5272 41.2074C56.4207 40.4419 57.3173 39.6795 58.1899 38.8905C58.4866 38.6223 58.5213 38.2834 58.1009 37.9119C57.6376 38.4211 57.1763 38.9282 56.715 39.4352C56.6658 39.3875 56.6166 39.3398 56.5674 39.2921C56.9893 38.858 57.3938 38.405 57.8382 37.9954C58.2414 37.6237 58.2141 37.3565 57.6653 37.1037C57.2157 37.6412 56.7604 38.1856 56.305 38.7301C56.2749 38.7039 56.2448 38.6776 56.2148 38.6514C56.3062 38.5283 56.3923 38.4007 56.4898 38.2827C57.2315 37.3856 57.9739 36.4891 58.7196 35.5953C58.8918 35.3888 58.9943 35.1823 58.732 34.9824C58.4566 34.7726 58.3363 35.0221 58.2047 35.1926C57.5519 36.0382 56.9058 36.889 56.2503 37.7325C56.1204 37.8996 55.9595 38.0426 55.813 38.1967C55.7771 38.1759 55.7412 38.1551 55.7054 38.1342C55.7593 37.9461 55.7914 37.748 55.8708 37.5714C56.3018 36.6122 56.743 35.6576 57.1845 34.7033C57.2884 34.4789 57.4211 34.2484 57.1022 34.0991C56.7746 33.9456 56.6914 34.2101 56.5969 34.4326C56.1483 35.4883 55.7026 36.5454 55.2512 37.5999C55.1891 37.7449 55.1282 37.9098 55.0166 38.0086C54.911 38.1023 54.7316 38.174 54.5998 38.1543C54.5141 38.1415 54.4087 37.9538 54.3928 37.8338C54.3342 37.3918 54.3295 36.9423 54.263 36.5019C54.2297 36.2814 54.1068 36.0745 54.0245 35.8614C53.9776 35.8735 53.9307 35.8856 53.8838 35.8977C53.8478 35.9978 53.7853 36.0964 53.78 36.198C53.7443 36.8823 53.6274 37.5799 53.7174 38.2487C53.8243 39.0427 53.5743 39.5959 52.9915 40.0775C50.3884 42.2286 47.7933 44.3896 45.1878 46.5377C44.9064 46.7697 44.5931 46.8103 44.295 46.5039C44.0048 46.2056 43.6551 45.9594 43.3998 45.6362C43.3031 45.5136 43.3217 45.1898 43.4178 45.0436C43.7816 44.4899 44.1987 43.9714 44.6165 43.4122C44.3515 42.933 44.0588 42.4036 43.7322 41.8131ZM51.1444 45.9469C52.5075 46.3776 53.7671 46.8165 55.0503 47.1692C56.3235 47.5193 57.6194 47.7742 58.9582 47.5679C60.3763 47.3493 61.0624 46.4553 60.817 45.0486C60.4389 42.8811 59.2063 41.0924 58.234 39.2036C57.2838 40 56.3644 40.7707 55.379 41.5966C55.993 42.5488 56.6285 43.5343 57.2297 44.4666C56.9761 44.3197 56.701 44.0306 56.412 44.0159C55.3333 43.9609 54.2499 43.9899 53.1686 44.0046C53.0283 44.0065 52.8503 44.0714 52.7564 44.1706C52.2428 44.7126 51.75 45.2745 51.1444 45.9469ZM22.516 18.6712C21.5691 19.4774 21.1384 19.4877 20.1565 18.7664C19.9641 18.625 19.7989 18.4339 19.5891 18.3317C19.2674 18.1749 18.9246 17.9955 18.579 17.9664C17.5365 17.8788 16.68 18.7163 16.6478 19.9499C16.6197 21.028 16.752 22.1101 16.8082 23.1907C16.8756 24.4887 17.6543 25.222 18.7607 25.7207C20.3914 26.4557 22.3868 25.4267 22.565 23.6333C22.708 22.1948 22.6375 20.7347 22.6485 19.284C22.6499 19.1003 22.5713 18.916 22.516 18.6712ZM41.0299 25.359C41.3006 26.5631 41.5312 27.7442 41.8369 28.9055C42.1497 30.0936 43.0166 30.8062 44.1081 31.2465C44.7583 31.5088 45.43 31.4483 45.9204 30.9165C46.4322 30.3617 46.879 29.7409 47.3037 29.1145C47.4419 28.9107 47.4942 28.5886 47.4602 28.3376C47.3241 27.3301 47.1427 26.3286 46.9656 25.3271C46.9464 25.2182 46.8646 25.1037 46.7805 25.0259C46.3021 24.5832 45.8141 24.1508 45.3014 23.6897C44.2421 24.846 42.7267 25.1933 41.0299 25.359ZM31.729 36.9142C30.5591 36.3142 29.3249 35.6812 28.0797 35.0426C28.0683 35.0885 28.0487 35.1317 28.048 35.1751C27.9884 38.7924 27.2134 42.2874 26.2232 45.7415C26.0986 46.1761 26.2087 46.426 26.5024 46.6661C26.8627 46.1614 27.1627 45.6199 27.5786 45.1916C28.0248 44.7322 27.8809 44.259 27.8347 43.7478C27.8032 43.3994 27.8143 43.0295 27.9002 42.6933C27.9769 42.3932 28.1568 42.1088 28.335 41.8475C29.4558 40.2038 30.5888 38.5685 31.729 36.9142ZM22.1666 25.1501C22.1147 25.1454 22.0629 25.1407 22.011 25.136C20.664 26.4248 19.7053 26.6508 17.5069 25.1751C17.5069 26.4518 17.4648 27.7209 17.5415 28.9827C17.5573 29.2428 17.9754 29.6024 18.2772 29.6989C19.4584 30.0768 20.6108 29.8854 21.657 29.2341C21.8914 29.0882 22.131 28.7458 22.1438 28.483C22.1977 27.3743 22.1666 26.2614 22.1666 25.1501ZM6.10993 4.87726C6.21365 3.67834 6.31381 2.5232 6.41297 1.36799C6.41978 1.28859 6.44367 1.19824 6.4159 1.13118C6.37343 1.02863 6.29287 0.941957 6.22847 0.848547C6.13506 0.919773 5.98748 0.974056 5.95899 1.06558C5.88872 1.29146 5.86361 1.53335 5.83713 1.77069C5.74544 2.59308 5.6609 3.41628 5.57363 4.23917C5.49548 4.12964 5.47274 4.01389 5.45352 3.89755C5.27931 2.84356 5.41462 1.80056 5.539 0.753481C5.56153 0.563743 5.44249 0.205423 5.33005 0.179329C4.97489 0.0969058 5.00355 0.456356 4.98293 0.664318C4.8965 1.53526 4.83347 2.40877 4.77703 3.28233C4.75515 3.62093 4.77345 3.96215 4.77345 4.30217C4.7342 4.30739 4.69496 4.31262 4.65571 4.31784C4.57395 3.89466 4.46564 3.47454 4.41668 3.04757C4.34412 2.41492 4.32754 1.77583 4.25563 1.14308C4.23743 0.982977 4.09977 0.836523 4.01701 0.6838C3.92321 0.840277 3.76682 0.990054 3.74928 1.1547C3.71763 1.45177 3.74703 1.76091 3.79003 2.05936C3.9024 2.83904 4.03589 3.61567 4.16095 4.39352C4.11982 4.40127 4.07869 4.40902 4.03756 4.41677C3.88773 3.62794 3.7379 2.83911 3.58806 2.05028C3.51165 2.05164 3.43524 2.053 3.35882 2.05435C3.33196 2.32663 3.25607 2.60473 3.28742 2.8701C3.38091 3.66152 3.5091 4.44917 3.63788 5.23596C3.74728 5.90443 3.87634 6.56966 3.97029 7.08999C4.72641 7.23662 5.36007 7.3595 6.13015 7.50883C6.59525 6.59796 7.13385 5.57065 7.64327 4.529C7.79906 4.2104 7.83762 3.85721 7.47504 3.49264C7.24216 3.90819 7.00685 4.278 6.82304 4.67197C6.67738 4.98417 6.47289 5.07735 6.14366 5.05447C5.89899 5.03747 5.60792 5.03265 5.41241 5.14895C5.21759 5.26484 5.11611 5.53845 4.99777 5.70836C4.87349 5.12303 5.19556 4.87329 6.10993 4.87726ZM25.9938 46.3787C25.6054 46.4962 25.2624 46.6266 24.9078 46.7026C22.8906 47.1355 20.8449 47.2473 18.7888 47.2007C17.4752 47.1709 16.1555 47.1483 14.9925 46.4191C14.3166 47.285 14.3634 47.4891 15.3752 47.751C18.8071 48.6393 22.2358 48.5756 25.6525 47.6534C26.4745 47.4315 26.5773 47.023 25.9938 46.3787ZM43.2843 31.0696C43.8157 32.1658 44.0591 33.2015 43.9978 34.3069C43.9909 34.4313 44.3078 34.6818 44.4841 34.691C45.6978 34.7538 46.7775 34.3825 47.6169 33.4831C47.7922 33.2953 47.9215 32.8885 47.8407 32.6677C47.545 31.8604 47.1515 31.089 46.7953 30.3051C45.4005 31.7057 44.9578 31.8156 43.2843 31.0696ZM22.3375 27.9686C22.4127 28.6937 22.1862 29.2249 21.543 29.5356C20.5628 30.0092 19.5351 30.1373 18.4781 29.9293C17.6584 29.7681 17.345 29.3835 17.2968 28.5543C17.2819 28.2984 17.2025 28.1685 16.9476 28.1547C16.7475 28.1438 16.5476 28.1289 16.3067 28.113C16.227 29.1695 16.5265 30.0321 17.3313 30.6442C18.7631 31.7334 21.1803 31.5947 22.5088 30.3721C23.1679 29.7656 23.4968 29.0011 23.5165 28.0656C23.1221 28.0332 22.7769 28.0047 22.3375 27.9686ZM30.0736 45.9969C29.2793 45.6268 28.6342 45.3262 27.8798 44.9748C27.5113 45.5255 27.078 46.1878 26.6287 46.839C26.3269 47.2765 26.3375 47.6822 26.6528 48.1103C26.8977 48.4429 27.083 48.821 27.3397 49.1429C27.4611 49.2952 27.6877 49.3631 27.8666 49.4693C27.8944 49.4294 27.9221 49.3896 27.9499 49.3497C27.7012 48.8923 27.4526 48.4349 27.204 47.9775L27.3192 47.9168C27.5096 48.2432 27.7022 48.5684 27.8899 48.8964C28.0798 49.2283 28.2524 49.5837 28.7707 49.4201C28.464 48.9311 28.1683 48.4595 27.8726 47.9879C27.9112 47.9623 27.9498 47.9368 27.9884 47.9112C28.1108 48.101 28.2317 48.2917 28.3561 48.4802C28.4876 48.6795 28.6131 48.8837 28.7579 49.073C29.0296 49.4279 29.2063 49.4304 29.543 49.1086C29.1937 48.6879 28.8438 48.2664 28.4938 47.8448C28.5315 47.814 28.5693 47.7833 28.607 47.7525C28.8463 48.0418 29.0733 48.3426 29.3279 48.6176C29.709 49.0292 29.9136 49.0064 30.2103 48.5267C30.3178 48.3527 30.4163 48.1588 30.4548 47.9615C30.4799 47.8332 30.3891 47.6821 30.3502 47.5413L30.2192 47.5492C30.1099 47.7482 30.0005 47.9471 29.8934 48.1419C29.254 47.8964 29.212 47.7347 29.5089 47.2192C29.7479 46.8043 29.9145 46.3475 30.0736 45.9969ZM47.3123 43.5788C47.3302 43.6171 47.3482 43.6554 47.3661 43.6937C46.8366 43.8824 46.3148 44.0977 45.7758 44.2533C45.0386 44.4661 44.5384 44.962 44.1441 45.5735C44.0413 45.7328 44.0952 45.9937 44.0771 46.2079C44.2416 46.1189 44.47 46.0722 44.5603 45.9344C45.2127 44.9384 46.271 44.6754 47.3033 44.3594C47.3096 44.3575 47.3311 44.4056 47.3718 44.4755C46.2266 44.8716 45.0022 45.1619 44.3959 46.6134C44.7295 46.5048 44.985 46.4864 45.1552 46.356C46.3938 45.4069 47.6157 44.4361 48.8411 43.4698C48.9709 43.3675 49.089 43.2501 49.2171 43.1357C48.1112 42.3099 46.9777 41.7283 45.609 41.8357C45.5856 41.8818 45.5622 41.928 45.5387 41.9742C46.0843 42.2434 46.6299 42.5126 47.1755 42.7819C47.1592 42.8307 47.1428 42.8796 47.1265 42.9284C46.6897 43.0639 46.2614 43.2523 45.8144 43.3243C44.7162 43.5011 44.0514 44.1971 43.5482 45.1093C43.4881 45.2182 43.4343 45.4035 43.4852 45.4885C43.7031 45.8518 43.8913 45.6591 44.0431 45.4126C44.8026 44.1792 46.1147 43.9873 47.3123 43.5788ZM22.848 22.3465C23.3803 22.0267 23.8647 21.7823 24.0435 21.2231C24.1679 20.834 23.9345 20.2847 23.7045 20.3718C23.385 20.4927 22.9932 20.7328 22.8824 21.0192C22.7407 21.3854 22.848 21.8485 22.848 22.3465ZM16.5143 22.4028C16.4858 21.8698 16.4378 21.5061 16.4547 21.1456C16.4741 20.7295 16.2111 20.5405 15.9093 20.3986C15.8042 20.3492 15.5247 20.4147 15.5094 20.4749C15.4357 20.7641 15.417 21.0689 15.3989 21.3693C15.395 21.4339 15.461 21.5191 15.5177 21.5682C15.8111 21.8223 16.1119 22.0677 16.5143 22.4028ZM55.2287 41.6246C55.1584 41.6362 55.0881 41.6477 55.0178 41.6593C55.0595 42.4101 55.512 43.0651 55.6396 43.802H56.5689C56.1063 43.0505 55.6675 42.3376 55.2287 41.6246ZM5.93867 8.27619C5.92479 7.76002 5.69398 7.51662 5.06843 7.38528C4.38207 7.24117 3.91931 7.38225 3.74771 7.7548C4.4666 7.92588 5.19413 8.09901 5.93867 8.27619ZM40.8652 26.8855C40.6773 27.1005 40.4275 27.2718 40.4524 27.3786C40.5361 27.7369 40.6982 28.0831 40.8772 28.4079C40.9177 28.4814 41.167 28.4982 41.2841 28.451C41.373 28.4152 41.4618 28.2305 41.4506 28.1224C41.4215 27.8417 41.3616 27.5578 41.2646 27.2933C41.2176 27.1651 41.0601 27.0776 40.8652 26.8855ZM48.2688 26.4886C48.1699 26.2842 48.0751 26.0424 47.9323 25.8336C47.9056 25.7945 47.669 25.8581 47.5603 25.9249C47.2766 26.0994 47.3222 26.3674 47.394 26.6411C47.4459 26.839 47.4555 27.0487 47.5161 27.2431C47.5482 27.3463 47.6415 27.4936 47.7201 27.5022C47.8078 27.5117 47.9567 27.4072 47.997 27.316C48.1037 27.0746 48.1661 26.8135 48.2688 26.4886ZM28.0265 44.1526C28.1858 45.2559 29.6857 45.9761 30.5848 45.4298C29.5989 45.2873 28.7591 44.9233 28.0265 44.1526ZM55.9639 37.7495C56.7845 36.9734 56.8533 36.8082 56.5253 36.4692C56.3517 36.8651 56.1832 37.2493 55.9639 37.7495Z" fill="black"/>
<path d="M16.0314 28.1149C16.087 28.5342 16.1025 28.9042 16.189 29.2567C16.4688 30.3964 17.2996 31.0212 18.3365 31.3686C19.5356 31.7702 20.7283 31.638 21.8577 31.0754C22.9566 30.528 23.472 29.7219 23.7841 28.1155C24.7701 28.1649 25.7657 28.2305 26.7623 28.2597C27.5548 28.2829 28.2295 28.5802 28.8932 28.9903C31.3033 30.4795 33.741 31.9239 36.1421 33.4271C36.7983 33.8379 37.3906 34.3656 37.9625 34.8938C38.658 35.5363 38.7405 35.8323 38.2487 36.6502C37.4786 37.9311 36.6831 39.2109 35.7601 40.3817C34.6177 41.8308 33.3813 43.2141 32.097 44.5397C31.0232 45.6481 28.7868 45.1824 28.0594 43.792C27.8537 43.3987 27.8886 43.0106 28.1208 42.6558C29.0626 41.217 29.9977 39.7731 30.9763 38.3596C31.4104 37.7325 31.9428 37.1739 32.4283 36.5823C32.5033 36.4911 32.5664 36.3901 32.7169 36.1784C32.5202 36.2487 32.4275 36.2521 32.3992 36.2966C32.1024 36.7625 31.7711 36.6987 31.3209 36.4788C30.0047 35.8357 28.6594 35.2523 27.5393 34.2735C27.4999 34.2391 27.4328 34.2364 27.3232 34.201C27.3509 34.3076 27.3474 34.3905 27.3815 34.4111C27.9309 34.7436 27.8947 35.273 27.8631 35.8056C27.6662 39.1306 26.9906 42.3672 26.1012 45.5675C25.9633 46.0638 25.6999 46.306 25.2138 46.4243C23.2341 46.906 21.219 47.0329 19.1969 46.9912C18.1383 46.9693 17.08 46.8083 16.0272 46.668C15.4151 46.5864 15.0462 46.1946 14.919 45.5754C14.5153 43.6114 14.0492 41.6583 13.7121 39.6831C13.4015 37.8629 13.187 36.0235 13.0036 34.1852C12.8456 32.6002 13.0512 31.0306 13.5317 29.5118C13.8938 28.3674 14.2357 28.1454 15.4425 28.1156C15.632 28.1109 15.8218 28.1149 16.0314 28.1149Z" fill="#00953B"/>
<path d="M5.47255 20.3977C5.32647 20.3814 5.22642 20.3702 5.12636 20.3591C5.11007 20.3858 5.09378 20.4126 5.07748 20.4394C8.10562 22.9653 11.1338 25.4911 14.1602 28.0155C13.5663 28.7788 13.0692 30.6407 12.6687 33.6011C12.2922 33.3187 11.9354 33.0635 11.5919 32.7913C7.95463 29.9098 4.46582 26.864 1.21852 23.5392C0.379564 22.6803 0.100815 21.8024 0.299634 20.6223C0.926712 16.9004 1.65843 13.2049 2.72393 9.58153C2.82253 9.24629 2.97668 8.92745 3.07502 8.59215C3.19338 8.18853 3.48178 7.97935 3.85421 8.0525C4.52996 8.18523 5.20442 8.36057 5.85002 8.59837C6.24969 8.7456 6.41624 9.12986 6.3809 9.57932C6.23467 11.4387 6.10056 13.2991 5.95009 15.1582C5.8267 16.6826 5.68721 18.2058 5.55271 19.7293C5.53457 19.9349 5.50391 20.1394 5.47255 20.3977Z" fill="#00953B"/>
<path d="M43.7318 41.8134C44.0583 42.4039 44.351 42.9333 44.616 43.4125C44.1983 43.9717 43.7812 44.4902 43.4174 45.0439C43.3213 45.1901 43.3027 45.5139 43.3994 45.6365C43.6546 45.9597 44.0043 46.2059 44.2945 46.5041C44.5927 46.8106 44.906 46.7699 45.1873 46.538C47.7928 44.3898 50.3879 42.2289 52.991 40.0778C53.5739 39.5962 53.8238 39.043 53.717 38.249C53.6269 37.5802 53.7439 36.8826 53.7796 36.1983C53.7849 36.0967 53.8474 35.998 53.8834 35.898C53.9303 35.8859 53.9771 35.8738 54.024 35.8617C54.1064 36.0747 54.2293 36.2817 54.2626 36.5022C54.3291 36.9425 54.3338 37.3921 54.3924 37.834C54.4083 37.9541 54.5136 38.1418 54.5993 38.1546C54.7312 38.1743 54.9105 38.1026 55.0162 38.0089C55.1277 37.91 55.1887 37.7452 55.2508 37.6002C55.7022 36.5456 56.1478 35.4886 56.5964 34.4329C56.6909 34.2104 56.7742 33.9459 57.1017 34.0993C57.4206 34.2487 57.2879 34.4791 57.1841 34.7035C56.7425 35.6579 56.3014 36.6125 55.8703 37.5716C55.7909 37.7483 55.7588 37.9463 55.7049 38.1345C55.7408 38.1553 55.7766 38.1762 55.8125 38.197C55.9591 38.0429 56.1199 37.8999 56.2498 37.7327C56.9054 36.8893 57.5514 36.0384 58.2042 35.1929C58.3359 35.0224 58.4562 34.7729 58.7316 34.9827C58.9939 35.1826 58.8913 35.3891 58.7191 35.5956C57.9735 36.4894 57.231 37.3859 56.4894 38.283C56.3918 38.401 56.3057 38.5285 56.2143 38.6517C56.2444 38.6779 56.2745 38.7041 56.3045 38.7304C56.7599 38.1859 57.2153 37.6415 57.6648 37.104C58.2137 37.3568 58.2409 37.624 57.8377 37.9957C57.3934 38.4052 56.9889 38.8583 56.567 39.2924C56.6162 39.3401 56.6653 39.3878 56.7145 39.4355C57.1758 38.9284 57.6371 38.4214 58.1005 37.9121C58.5208 38.2837 58.4861 38.6226 58.1895 38.8908C57.3169 39.6798 56.4202 40.4422 55.5267 41.2077C55.1547 41.5264 54.7233 41.7859 54.3935 42.1419C52.5947 44.0832 50.8316 46.0578 49.0292 47.9958C48.3467 48.7297 47.5943 49.3986 46.8685 50.0915C46.7076 50.2452 46.5289 50.3813 46.3508 50.5153C45.3918 51.2368 45.0241 51.2762 44.3238 50.326C43.2206 48.8291 42.2396 47.241 41.2254 45.6795C40.9313 45.2268 40.7004 44.733 40.4238 44.2275C41.7555 43.7449 42.8746 42.9941 43.7318 41.8134Z" fill="white"/>
<path d="M51.1445 45.9465C51.7502 45.274 52.243 44.7122 52.7565 44.1701C52.8505 44.071 53.0285 44.006 53.1687 44.0041C54.2501 43.9894 55.3334 43.9604 56.4121 44.0154C56.7012 44.0301 56.9763 44.3192 57.2299 44.4661C56.6287 43.5338 55.9932 42.5483 55.3792 41.5961C56.3645 40.7702 57.2839 39.9995 58.2341 39.2031C59.2064 41.0919 60.4391 42.8806 60.8172 45.0482C61.0625 46.4548 60.3765 47.3488 58.9584 47.5674C57.6196 47.7737 56.3237 47.5188 55.0504 47.1688C53.7673 46.816 52.5077 46.3771 51.1445 45.9465Z" fill="white"/>
<path d="M22.5166 18.6711C22.5719 18.9159 22.6505 19.1002 22.6491 19.2838C22.638 20.7345 22.7086 22.1947 22.5656 23.6331C22.3874 25.4265 20.392 26.4555 18.7613 25.7205C17.6549 25.2219 16.8762 24.4885 16.8088 23.1905C16.7526 22.1099 16.6203 21.0278 16.6484 19.9497C16.6806 18.7161 17.5371 17.8786 18.5796 17.9662C18.9252 17.9953 19.268 18.1747 19.5897 18.3315C19.7994 18.4337 19.9647 18.6248 20.1571 18.7662C21.139 19.4875 21.5697 19.4772 22.5166 18.6711ZM18.2066 22.9251C18.7001 23.9541 20.5302 24.2895 21.2018 23.0215C20.094 24.0676 19.1341 23.8276 18.2066 22.9251ZM18.9668 19.5291C18.2039 19.2015 17.3791 19.7858 17.388 20.7662C17.6514 19.8598 18.142 19.4558 18.9668 19.5291ZM19.9854 20.9984C19.9616 20.996 19.9379 20.9936 19.9142 20.9912C19.943 21.2674 19.9549 21.5469 20.0066 21.8187C20.0414 22.0014 20.2101 22.1906 20.1756 22.3447C20.1443 22.4847 19.9195 22.5813 19.764 22.7104C20.2808 22.6829 20.4405 22.5337 20.3403 22.1915C20.2238 21.7933 20.1038 21.396 19.9854 20.9984ZM21.3349 21.1772C21.4711 20.9299 21.6082 20.7922 21.5968 20.6682C21.5868 20.5603 21.3802 20.3695 21.3119 20.3897C21.1804 20.4287 21.0113 20.5823 20.9971 20.7046C20.9845 20.8141 21.1593 20.9453 21.3349 21.1772ZM18.3508 21.1842C18.516 20.9414 18.6813 20.8041 18.6646 20.6948C18.6459 20.5727 18.4761 20.4274 18.3441 20.3892C18.2801 20.3706 18.0793 20.5689 18.0726 20.6773C18.0648 20.8009 18.2042 20.9338 18.3508 21.1842ZM20.6716 19.6149C21.3419 19.5751 21.8218 19.8994 22.2076 20.4141C21.9524 19.7204 21.3636 19.4088 20.6716 19.6149Z" fill="white"/>
<path d="M41.0293 25.3587C42.7261 25.193 44.2416 24.8457 45.3008 23.6895C45.8135 24.1506 46.3015 24.5829 46.78 25.0256C46.8641 25.1035 46.9458 25.2179 46.965 25.3268C47.1422 26.3283 47.3235 27.3298 47.4597 28.3373C47.4936 28.5883 47.4413 28.9104 47.3031 29.1142C46.8784 29.7406 46.4316 30.3614 45.9199 30.9163C45.4294 31.448 44.7577 31.5085 44.1075 31.2462C43.016 30.8059 42.1491 30.0934 41.8363 28.9053C41.5306 27.744 41.3 26.5628 41.0293 25.3587ZM43.3848 28.9088C43.7439 29.3902 44.2326 29.5841 44.817 29.4787C45.4655 29.3618 45.7915 28.8779 46.1358 28.3123C45.677 28.681 45.3241 29.0884 44.8786 29.2902C44.3489 29.5303 43.846 29.22 43.3848 28.9088ZM44.4041 26.4013C44.3696 26.4209 44.3351 26.4405 44.3005 26.4601C44.5419 26.8794 44.7833 27.2987 45.0466 27.756C44.8055 27.8542 44.594 27.9404 44.3825 28.0266C44.5634 28.0838 44.7151 28.0612 44.8595 28.0154C45.183 27.9126 45.2982 27.7455 45.0645 27.4248C44.8258 27.0972 44.6228 26.7435 44.4041 26.4013ZM43.3876 27.2285C43.1766 27.0793 43.0525 26.9257 42.9252 26.9229C42.8268 26.9208 42.629 27.1276 42.6453 27.2059C42.6717 27.3324 42.8238 27.4899 42.9495 27.5192C43.0413 27.5406 43.176 27.377 43.3876 27.2285ZM46.0143 26.6858C45.837 26.548 45.7091 26.3781 45.6209 26.3968C45.4932 26.4239 45.3941 26.5872 45.2827 26.6925C45.3952 26.799 45.4953 26.964 45.6245 26.9916C45.7104 27.0099 45.8379 26.8318 46.0143 26.6858Z" fill="white"/>
<path d="M22.1673 25.1499C22.1673 26.2612 22.1984 27.374 22.1446 28.4827C22.1318 28.7456 21.8921 29.0879 21.6578 29.2338C20.6115 29.8852 19.4591 30.0765 18.278 29.6987C17.9761 29.6021 17.558 29.2425 17.5422 28.9825C17.4656 27.7206 17.5076 26.4516 17.5076 25.1748C19.706 26.6505 20.6648 26.4245 22.0117 25.1357C22.0636 25.1404 22.1155 25.1451 22.1673 25.1499Z" fill="white"/>
<path d="M6.10927 4.87699C5.1949 4.87302 4.87283 5.12275 4.99711 5.70809C5.11545 5.53818 5.21693 5.26457 5.41175 5.14867C5.60725 5.03238 5.89832 5.0372 6.143 5.0542C6.47223 5.07707 6.67672 4.98389 6.82238 4.67169C7.00619 4.27773 7.2415 3.90792 7.47438 3.49237C7.83695 3.85694 7.7984 4.21012 7.6426 4.52873C7.13319 5.57038 6.59458 6.59769 6.12949 7.50855C5.3594 7.35922 4.72574 7.23635 3.96962 7.08972C3.87568 6.56939 3.74662 5.90415 3.63721 5.23569C3.50844 4.44889 3.38025 3.66125 3.28676 2.86983C3.25541 2.60446 3.3313 2.32636 3.35816 2.05408C3.43458 2.05272 3.51098 2.05137 3.5874 2.05001C3.73723 2.83884 3.88707 3.62767 4.03689 4.4165C4.07802 4.40875 4.11916 4.401 4.16029 4.39325C4.03522 3.6154 3.90174 2.83877 3.78937 2.05908C3.74637 1.76064 3.71697 1.45149 3.74861 1.15442C3.76616 0.989782 3.92254 0.840004 4.01636 0.683526C4.09911 0.83625 4.23676 0.982704 4.25497 1.1428C4.32688 1.77556 4.34346 2.41465 4.41601 3.0473C4.46498 3.47426 4.57328 3.89439 4.65504 4.31757C4.6943 4.31235 4.73354 4.30712 4.77279 4.3019C4.77279 3.96187 4.75448 3.62066 4.77636 3.28206C4.8328 2.4085 4.89584 1.53498 4.98226 0.664046C5.00288 0.456084 4.97422 0.0966332 5.32939 0.179056C5.44183 0.20515 5.56087 0.56347 5.53834 0.753208C5.41395 1.80028 5.27864 2.84329 5.45286 3.89728C5.47207 4.01362 5.49481 4.12937 5.57297 4.23889C5.66024 3.41601 5.74478 2.59281 5.83647 1.77042C5.86294 1.53308 5.88805 1.29118 5.95832 1.06531C5.98682 0.973783 6.1344 0.9195 6.22782 0.848273C6.29221 0.941684 6.37277 1.02836 6.41524 1.1309C6.44301 1.19796 6.41911 1.28832 6.41231 1.36771C6.31315 2.52293 6.21299 3.67806 6.10927 4.87699Z" fill="white"/>
<path d="M43.2852 31.0692C44.9587 31.8152 45.4014 31.7053 46.7962 30.3047C47.1524 31.0887 47.5459 31.86 47.8416 32.6674C47.9224 32.8881 47.7931 33.2949 47.6178 33.4828C46.7784 34.3821 45.6987 34.7534 44.4849 34.6906C44.3087 34.6815 43.9918 34.4309 43.9986 34.3065C44.06 33.2011 43.8166 32.1654 43.2852 31.0692Z" fill="white"/>
<path d="M22.3382 27.9688C22.7775 28.0049 23.1227 28.0333 23.5172 28.0658C23.4974 29.0012 23.1685 29.7657 22.5095 30.3722C21.1809 31.5948 18.7638 31.7336 17.3319 30.6444C16.5272 30.0322 16.2277 29.1697 16.3073 28.1132C16.5483 28.129 16.7482 28.144 16.9483 28.1548C17.2032 28.1686 17.2825 28.2985 17.2974 28.5545C17.3457 29.3837 17.6591 29.7682 18.4788 29.9295C19.5358 30.1374 20.5634 30.0094 21.5436 29.5358C22.1868 29.225 22.4133 28.6938 22.3382 27.9688Z" fill="#E8BB00"/>
<path d="M47.3122 43.5792C46.1147 43.9877 44.8026 44.1796 44.043 45.413C43.8913 45.6594 43.703 45.8522 43.4852 45.4889C43.4342 45.4039 43.4881 45.2186 43.5481 45.1096C44.0513 44.1975 44.7161 43.5015 45.8144 43.3246C46.2613 43.2527 46.6896 43.0642 47.1264 42.9288C47.1428 42.8799 47.1591 42.8311 47.1755 42.7822C46.6299 42.513 46.0843 42.2438 45.5387 41.9746C45.5621 41.9284 45.5855 41.8822 45.609 41.836C46.9776 41.7286 48.1111 42.3102 49.217 43.1361C49.089 43.2505 48.9709 43.3678 48.841 43.4702C47.6157 44.4365 46.3937 45.4073 45.1552 46.3563C44.985 46.4867 44.7294 46.5052 44.3958 46.6137C45.0021 45.1623 46.2265 44.8719 47.3717 44.4759C47.331 44.406 47.3095 44.3578 47.3032 44.3598C46.2709 44.6757 45.2126 44.9388 44.5602 45.9348C44.4699 46.0725 44.2415 46.1193 44.0771 46.2082C44.0951 45.994 44.0413 45.7332 44.144 45.5739C44.5383 44.9624 45.0385 44.4665 45.7757 44.2536C46.3147 44.098 46.8366 43.8827 47.3661 43.694C47.3481 43.6557 47.3302 43.6175 47.3122 43.5792Z" fill="white"/>
<path d="M22.8475 22.3463C22.8475 21.8482 22.7402 21.3852 22.8819 21.0189C22.9927 20.7326 23.3845 20.4924 23.704 20.3715C23.934 20.2845 24.1674 20.8338 24.043 21.2228C23.8642 21.7821 23.3798 22.0264 22.8475 22.3463Z" fill="white"/>
<path d="M16.514 22.4024C16.1117 22.0673 15.8108 21.8219 15.5174 21.5679C15.4607 21.5188 15.3947 21.4336 15.3986 21.369C15.4167 21.0685 15.4354 20.7637 15.5091 20.4745C15.5244 20.4143 15.8039 20.3488 15.909 20.3983C16.2108 20.5401 16.4739 20.7292 16.4544 21.1452C16.4375 21.5058 16.4855 21.8694 16.514 22.4024Z" fill="white"/>
<path d="M55.2285 41.625C55.6673 42.338 56.1061 43.0509 56.5687 43.8024H55.6394C55.5118 43.0655 55.0593 42.4105 55.0176 41.6597C55.0879 41.6481 55.1582 41.6366 55.2285 41.625Z" fill="white"/>
<path d="M5.93901 8.2765C5.19446 8.09932 4.46693 7.92619 3.74805 7.75512C3.91964 7.38257 4.38241 7.24148 5.06877 7.38559C5.69432 7.51693 5.92512 7.76034 5.93901 8.2765Z" fill="white"/>
<path d="M40.8657 26.8857C41.0606 27.0778 41.2181 27.1653 41.2651 27.2935C41.362 27.558 41.422 27.8419 41.4511 28.1226C41.4623 28.2307 41.3735 28.4154 41.2845 28.4512C41.1675 28.4984 40.9181 28.4816 40.8776 28.4081C40.6986 28.0833 40.5366 27.7371 40.4529 27.3788C40.4279 27.272 40.6778 27.1007 40.8657 26.8857Z" fill="white"/>
<path d="M48.2688 26.4883C48.1662 26.8132 48.1037 27.0742 47.997 27.3156C47.9567 27.4069 47.8078 27.5114 47.7202 27.5018C47.6416 27.4933 47.5482 27.346 47.5161 27.2428C47.4556 27.0484 47.446 26.8386 47.3941 26.6408C47.3223 26.3671 47.2766 26.099 47.5603 25.9246C47.6691 25.8578 47.9056 25.7942 47.9323 25.8333C48.0751 26.0421 48.17 26.2838 48.2688 26.4883Z" fill="white"/>
<path d="M55.9648 37.7491C56.1841 37.2489 56.3526 36.8647 56.5262 36.4688C56.8542 36.8078 56.7854 36.973 55.9648 37.7491Z" fill="white"/>
<path d="M18.2051 22.9248C19.1326 23.8274 20.0925 24.0673 21.2003 23.0212C20.5287 24.2892 18.6986 23.9538 18.2051 22.9248Z" fill="black"/>
<path d="M18.9656 19.529C18.1409 19.4557 17.6502 19.8597 17.3868 20.7661C17.378 19.7858 18.2027 19.2014 18.9656 19.529Z" fill="black"/>
<path d="M19.9851 20.9984C20.1035 21.396 20.2235 21.7933 20.34 22.1915C20.4402 22.5337 20.2805 22.6829 19.7637 22.7104C19.9192 22.5813 20.144 22.4847 20.1753 22.3447C20.2098 22.1906 20.0411 22.0014 20.0063 21.8187C19.9546 21.5469 19.9427 21.2674 19.9139 20.9912C19.9376 20.9936 19.9613 20.996 19.9851 20.9984Z" fill="black"/>
<path d="M21.3345 21.1777C21.1589 20.9458 20.9841 20.8145 20.9967 20.7051C21.0109 20.5828 21.18 20.4291 21.3115 20.3902C21.3798 20.3699 21.5865 20.5608 21.5964 20.6687C21.6078 20.7926 21.4707 20.9304 21.3345 21.1777Z" fill="black"/>
<path d="M18.3509 21.1839C18.2042 20.9336 18.0648 20.8007 18.0726 20.677C18.0793 20.5686 18.2801 20.3704 18.3441 20.3889C18.4761 20.4272 18.646 20.5725 18.6646 20.6946C18.6814 20.8039 18.516 20.9412 18.3509 21.1839Z" fill="black"/>
<path d="M20.6719 19.6154C21.3639 19.4093 21.9527 19.7209 22.2079 20.4146C21.8221 19.8999 21.3422 19.5756 20.6719 19.6154Z" fill="black"/>
<path d="M43.3848 28.9089C43.8459 29.2202 44.3488 29.5304 44.8785 29.2904C45.324 29.0885 45.6769 28.6811 46.1358 28.3125C45.7914 28.878 45.4654 29.362 44.817 29.4789C44.2325 29.5842 43.7438 29.3904 43.3848 28.9089Z" fill="black"/>
<path d="M44.4044 26.4014C44.623 26.7436 44.8261 27.0973 45.0648 27.4249C45.2985 27.7456 45.1833 27.9127 44.8597 28.0155C44.7154 28.0613 44.5636 28.0839 44.3827 28.0267C44.5942 27.9405 44.8058 27.8543 45.0468 27.7561C44.7835 27.2988 44.5422 26.8795 44.3008 26.4602C44.3353 26.4406 44.3698 26.421 44.4044 26.4014Z" fill="black"/>
<path d="M43.3878 27.2284C43.1762 27.3769 43.0415 27.5405 42.9497 27.5191C42.824 27.4898 42.6719 27.3324 42.6455 27.2059C42.6291 27.1276 42.827 26.9207 42.9253 26.9229C43.0527 26.9257 43.1767 27.0793 43.3878 27.2284Z" fill="black"/>
<path d="M46.0147 26.686C45.8384 26.8319 45.7109 27.01 45.625 26.9917C45.4957 26.9641 45.3957 26.7991 45.2832 26.6926C45.3945 26.5874 45.4936 26.424 45.6214 26.3969C45.7096 26.3782 45.8375 26.5481 46.0147 26.686Z" fill="black"/>
</g>
<defs>
<clipPath id="clip0_3392_102663">
<rect width="61" height="53" fill="white"/>
</clipPath>
</defs>
</svg>
