<?xml version="1.0" encoding="utf-8"?>
<!-- Generator: Adobe Illustrator 27.4.0, SVG Export Plug-In . SVG Version: 6.00 Build 0)  -->
<svg version="1.1" id="Layer_1" xmlns="http://www.w3.org/2000/svg" xmlns:xlink="http://www.w3.org/1999/xlink" x="0px" y="0px"
	 viewBox="0 0 50 50" style="enable-background:new 0 0 50 50;" xml:space="preserve">
<style type="text/css">
	.st0{fill:#00953B;}
	.st1{fill:#E0E0E0;}
	.st2{fill:none;stroke:#1A2E35;stroke-width:0.2219;stroke-linecap:round;stroke-linejoin:round;}
	.st3{fill:none;stroke:#533CD6;stroke-width:0.2219;stroke-linecap:round;stroke-linejoin:round;}
	.st4{fill:#FF9388;}
	.st5{fill:none;stroke:#DD7A64;stroke-width:0.2219;stroke-linecap:round;stroke-linejoin:round;}
	.st6{fill:#04722B;}
	.st7{fill:#F7F7F7;}
	.st8{fill:#E2E2E2;}
	.st9{fill:#FFFFFF;}
	.st10{fill:#1A2E35;}
	.st11{fill:#C6C6C6;}
	.st12{fill:#162243;}
	.st13{fill:none;stroke:#DD7A64;stroke-width:0.2107;stroke-linecap:round;stroke-linejoin:round;}
</style>
<g>
	<path class="st0" d="M37.8,36.4l-11.2-0.2c0,0-0.4,0.1-0.8,2.6c-0.4,2.1-0.3,6.7-0.2,8.2h5.4c-0.1-0.9-0.1-2.7,0.3-3.5
		c0.6-1.2,0.9,1.7,1.6,3.5h6.5C39.1,45,38.6,37.7,37.8,36.4z"/>
	<path class="st1" d="M23.4,20.1c0.3,0.5,2.8,2.9,2.8,3.1c0,0.3-0.5,13.1-0.9,14.8c-0.1,2.4,12.4,6.1,15.1,1.8
		c-0.6-3.5-1.1-11.3,0-12.9c1.6-1.1,1.9-2.5,1.9-2.5c0.3-0.7-0.3-3.1-1.2-4.6c-1.6-2.4-3.7-2.9-6.3-3.4c-2.1-0.5-4.3-1-6.7-0.4
		C26.2,16.6,23.1,19.7,23.4,20.1z"/>
	<g>
		<path class="st2" d="M27.6,41.6c-0.5,2.6,0,5.1,0,5.1"/>
		<path class="st2" d="M34.9,42.6c0.4,3.1,0.8,4.2,0.8,4.2"/>
		<path class="st2" d="M26.8,39.1c0,0-0.5,2.1-1.5,3"/>
		<path class="st2" d="M36.6,39.7c0,0,0.5,2.1,1.5,3"/>
		<path class="st2" d="M25.7,38.8c2.3,2.2,12.3,4.8,14.7,1"/>
	</g>
	<path class="st3" d="M26.2,25.9c0-1.5-0.1-3.9-0.1-4c0,0,0-1.5,0.1-2.5"/>
	<path class="st4" d="M32.1,15.5c-0.2,0.7-0.8,0.8-0.9,1c-0.5,0.8-0.2,2,1.1,2.1c0.8,0,3-1,3.4-1.7c-0.1-0.3-0.7-0.6-0.7-1.1
		c0-0.2,0.3-1,0.1-1.1c-0.6-0.4-1.7,0.3-2.3,0.5C32.5,15.3,32.3,15.3,32.1,15.5z"/>
	<path class="st5" d="M31.9,16.1c0.1,0.2,0.3,0.4,0.6,0.5c0.3,0.1,1.1-0.2,2.1-0.8"/>
	<path class="st2" d="M30.9,16.2c-0.7,0.7-0.2,2.2,0.4,2.6c1.8,1,4.6-1,4.8-1.9"/>
	<path class="st5" d="M32.6,14.3c0.1,0,0,0,0.1,0.1"/>
	<g>
		<path class="st6" d="M27.8,20.8c-3.4,5.5-10,7.5-14.8,4.5c-0.8-0.5-2.6-2.2-3.2-3.1c-2.2-3.9-2.2-7.6,0.6-12.1
			c3.4-5.5,10.1-8.3,14.7-5.1C29.9,8.3,31.2,15.3,27.8,20.8z"/>
		<ellipse transform="matrix(0.5246 -0.8514 0.8514 0.5246 -3.509 22.3523)" class="st0" cx="18.3" cy="14.3" rx="11.6" ry="10.3"/>
		<ellipse transform="matrix(0.5246 -0.8514 0.8514 0.5246 -3.509 22.3523)" class="st6" cx="18.3" cy="14.3" rx="9.5" ry="8.4"/>
		<ellipse transform="matrix(0.5246 -0.8514 0.8514 0.5246 -3.509 22.3523)" class="st7" cx="18.3" cy="14.3" rx="9" ry="7.9"/>
		<path class="st8" d="M12.5,10.9c2.6-4.2,7.7-5.8,11.5-3.5c0.1,0.1,0.2,0.1,0.2,0.2c-0.4-0.4-0.8-0.7-1.2-0.9
			c-3.7-2.3-8.9-0.7-11.5,3.5c-2.5,4.1-1.7,9.3,1.8,11.6C10.6,19.2,10.2,14.7,12.5,10.9z"/>
		<ellipse transform="matrix(0.8015 -0.598 0.598 0.8015 -2.2633 15.5518)" class="st9" cx="22.3" cy="11.2" rx="2" ry="2.9"/>
		<ellipse transform="matrix(0.3579 -0.9338 0.9338 0.3579 5.4541 23.2196)" class="st9" cx="19.6" cy="7.6" rx="0.6" ry="1"/>
		<path class="st6" d="M38.3,36.3l-12-14.3l-3.7,3l10.7,14.8c1.3,2.1,4.9,1,5.3-1.2c0,0,0,0,0,0C38.7,37.6,38.5,36.8,38.3,36.3z"/>
		<path class="st0" d="M33.1,38.5L22.4,23.7l3.7-3l11.6,14.4C40.4,38.5,34.8,41.2,33.1,38.5z"/>
		<g>
			<path class="st9" d="M29.9,34c1.5-0.6,2.9-1.6,4.3-3.3l-0.8-1c-1.1,1.5-2.6,2.5-4.3,3.2L29.9,34z"/>
			<path class="st9" d="M36.2,33.2l-0.8-1c-1.2,1.5-2.6,2.6-4.4,3.3l0.8,1.1C33.2,35.9,34.7,35,36.2,33.2z"/>
		</g>
	</g>
	<path class="st4" d="M29.1,31.8c0.5,0.1,1.2-0.3,1.3,0c0.1,0.3-0.8,0.5-0.7,0.8c0,0.1,0.3,0.1,0.3,0.1c0.3,0.1,0.7,0.2,1,0.2
		c0.1,0,0.3,0,0.4,0.1c0.1,0.3-0.7,0.3-0.8,0.3c-0.1,0-0.4-0.1-0.3-0.1c0.1,0.1,1,0.3,1,0.5c0,0.1-0.3,0.1-0.4,0.1
		c-0.2,0-1.1-0.1-1.1-0.1c0,0,0.3,0.1,0.3,0.1c0.1,0,0.7,0.2,0.7,0.4c0,0.1-0.3,0.1-0.4,0.1c-0.1,0-1.2-0.2-1.2-0.2
		c-0.2,0.1,0.7,0.4,0.8,0.5c0,0,0.1,0.1,0,0.1c-0.3,0.2-1.2-0.2-1.5-0.3c-1.1-0.6-2.2-1.5-3.3-2.6c-1.9-1.9-2.4-3.5-2.4-4.7
		c0-0.2-0.4-0.3-0.4-0.5c0-0.2,0.4-0.3,0.4-0.5c0-0.4,0.1-0.6,0.1-0.8C25.3,28.5,27.4,31.5,29.1,31.8z"/>
	<path class="st4" d="M42.1,30.1c0.4-2.9-0.3-6-0.3-6s-1.6-0.2-2.6,1.5c0.6,4.1,0.3,6.1-1,8.2C38.1,33.9,38,34,38,34.1
		c-1.7,2.2-2.7,2.1-3.4,1.8c-0.3-0.1-1.1-0.7-1.2-0.6c-0.3,0.4,0.4,0.8,0.2,1c-0.1,0.1-0.3,0-0.4,0c-0.3-0.1-0.7-0.1-1-0.2
		c-0.1,0-0.3-0.1-0.4-0.1c-0.3,0.2,0.5,0.6,0.6,0.6c0.1,0,0.4,0.1,0.3,0.1c-0.2,0-1.1-0.2-1.1-0.1c-0.1,0.1,0.2,0.3,0.3,0.3
		c0.2,0.1,1,0.4,1,0.4c0,0-0.3,0-0.3,0c-0.1,0-0.7-0.1-0.8,0c0,0.1,0.3,0.2,0.3,0.2c0.1,0.1,1.2,0.3,1.2,0.3c0.1,0.2-0.8,0.1-1,0.1
		c0,0-0.1,0-0.1,0.1c0.2,0.3,1.1,0.4,1.5,0.4c1.3,0,3.3-0.9,4.5-1.7c0,0,0,0,0,0c1.6-1,2.9-2.9,3.7-5.7c0-0.1,0-0.1,0-0.2
		c0.2-0.1,0.4-0.3,0.4-0.4C42.3,30.3,42.2,30.2,42.1,30.1z"/>
	<path class="st2" d="M37.8,24.4c0.4,1.4,0.9,3,1.1,3.6c0-1.4,0.3-2.3,0.3-2.3c0.5-1.6,2.4-1.9,3.1-1.3"/>
	<path class="st4" d="M34.4,9.5c-0.6-0.1-1.2,0.3-1.6,0.6c-0.4,0.3-1.1,0.6-1.2,1.5c-0.2,1.5-0.5,1.3-0.6,2.1c0,0.5,0.7,2.7,1.5,3
		c0.4,0.1,1.6-0.3,2.8-1.5c0.5-0.5,0.9-1.1,1.3-1.9c0.3-0.6,0.3-1.7,0-2.3c-0.2-0.4-0.7-0.8-1.1-1C35,9.8,34.8,9.6,34.4,9.5z"/>
	<path class="st10" d="M35.4,11.6c-0.1-0.2,0,0-0.4,0.1c-0.2,0.1-0.4,0.1-0.6,0.1c-0.9,0-1.9-0.3-2.6-1.1c-1-1.1-1.2-2.7-0.4-4
		c0.3-0.4,0.7-0.9,1.2-1.1c0.1,0,0.3-0.1,0.4-0.1c0,0,0.2,0,0.2,0c0.1,0.1-0.2,0.5-0.1,0.7c0,0.1,0.4-0.2,0.5-0.1
		c0.1,0.2-0.2,0.7,0,0.8c0,0,0.3-0.2,0.4-0.2c0.3-0.2,0.7-0.5,1-0.3c0.6,0.4,1.1,1.1,1.3,1.8c0.1,0.3,0.1,0.6,0.1,0.9
		c0,0,0,0.2,0,0.3c0.1,0,0.9-0.3,1.4,0.4c0.5,0.6,0.5,1.6,0.3,2.3c-0.2,1-1,2-1.7,2.7c-0.3,0.3-1.2,0.5-1.2,0.5
		c0-0.1,0.8-1.2,0.8-1.6c0-0.5-0.5-0.4-0.7-0.1c0,0.1-0.1,0.2-0.2,0.1c-0.1-0.3,0.1-0.6,0.3-0.8C35.6,12.3,35.7,12,35.4,11.6z"/>
	<g>
		<path class="st11" d="M35.5,11c-0.1-0.5,0.3-1,0.6-1.3C36,10.1,35.7,10.6,35.5,11L35.5,11z"/>
	</g>
	<g>
		<path class="st11" d="M33.4,9.5c0.1,0.8,0.6,1.4,1.3,1.8c0.1,0.1,0,0.2-0.1,0.2c-1.9,0-3.6-2.2-2.3-3.9c-1,1.6,0.6,3.6,2.3,3.7
			c0,0-0.1,0-0.1,0.1C33.9,11,33.5,10.3,33.4,9.5L33.4,9.5z"/>
	</g>
	<path class="st5" d="M31.5,11.1c0.2,0,0.5,0.2,0.7,0.4c0.4,0.4,0.6,1,0.4,1.5c-0.2,0.5-1,1.1-0.2,1.4"/>
	<path class="st12" d="M32,12.1c0.1-0.1,0.3,0.1,0.3,0.2c0.1,0.2,0,0.5-0.2,0.6c-0.3,0.1-0.3-0.3-0.2-0.4c0-0.1,0.1-0.1,0.1-0.2
		C32.1,12.2,32,12.1,32,12.1z"/>
	<path class="st12" d="M33.9,12.7c0.1,0,0.2,0.1,0.2,0.1c0.1,0.2,0.2,0.4,0,0.6c-0.1,0.1-0.4,0.2-0.5-0.1c0-0.1,0-0.2,0.1-0.3
		c0,0,0.1,0,0.1-0.1C33.9,12.8,33.8,12.7,33.9,12.7z"/>
	<path class="st5" d="M33.5,12c0.1,0.2,0.3,0.2,0.4,0.2c0.2,0.1,0.5,0.2,0.6,0.5"/>
	<path class="st12" d="M32.8,15.6c0.3,0,0.6-0.4,1.1-0.9c0,0-0.4,0.1-0.4,0.1c-0.3,0.1-1.3,0-1.3,0C32.2,15,32.4,15.6,32.8,15.6z"/>
	<path class="st9" d="M32.3,15.1c0.2,0.2,0.8,0.2,1.1,0c0.1-0.1,0.3-0.2,0.2-0.2c-0.3,0.1-1.2-0.1-1.2-0.1S32.2,14.9,32.3,15.1z"/>
	<path class="st13" d="M32.2,14.8c0.8,0.2,1.1,0.1,1.8-0.1"/>
	<path class="st13" d="M34,14.5c0,0.2,0.1,0.3,0.1,0.3"/>
	<path class="st5" d="M32.9,16c-0.1,0-0.2,0-0.2,0"/>
	<path class="st4" d="M22.9,27.1c0-0.2-0.4-0.3-0.4-0.5c0-0.2,0.2-0.4,0.4-0.5"/>
</g>
</svg>
