<svg width="49" height="46" viewBox="0 0 49 46" fill="none" xmlns="http://www.w3.org/2000/svg">
<path d="M48.9942 40.7772C48.9727 39.4167 47.9481 37.5635 47.4951 36.2994C46.8858 34.5855 46.2926 32.8662 45.6563 31.1683C45.7641 31.0451 45.8342 30.8791 45.8558 30.7237C46.6539 24.7945 47.2201 18.8439 47.5059 12.8665C47.6461 9.95811 47.7432 7.04439 47.7378 4.13067C47.7378 2.4917 47.7 1.38298 45.9744 0.906291C45.0146 0.643841 43.8336 0.825949 42.836 0.809881C41.2776 0.788456 39.7192 0.767032 38.1608 0.740251C35.2003 0.697402 32.2399 0.649197 29.274 0.606349C23.0349 0.515295 16.8012 0.456378 10.5676 0.386748C9.95821 0.381392 9.82879 1.10982 10.1685 1.43655C10.1685 1.43655 10.1685 1.43655 10.1685 1.4419C9.85575 7.24792 9.69398 13.0593 9.51603 18.8707C9.42975 21.6344 8.97678 24.6606 9.32729 27.403C9.38122 27.8261 9.47289 28.2278 9.62388 28.5867C9.6077 28.5974 9.59152 28.6027 9.57535 28.6188C6.86294 31.1576 4.40937 34.0177 1.98816 36.8297C1.31949 37.6063 0.586116 38.5704 0.942019 39.331C0.553762 40.2255 0.289531 41.1467 0.0199082 42.0894C-0.0663712 42.3893 0.170897 42.6464 0.46209 42.6625C10.217 43.3267 19.972 44.0122 29.7324 44.655C34.5263 44.971 39.3309 45.4209 44.1356 45.603C46.0445 45.6726 49.0697 44.9817 48.1099 42.4268C48.6491 42.1697 49.0158 41.6823 48.9996 40.7718L48.9942 40.7772ZM10.5568 24.3768C10.6269 21.929 10.697 19.4866 10.7671 17.0389C10.9127 11.8917 11.0583 6.7498 11.0852 1.60258C21.5142 1.75791 31.9379 1.89181 42.3669 2.015C43.6719 2.03107 45.8882 1.6615 46.5299 3.21477C46.8912 4.09317 46.5029 5.93568 46.4813 6.89442C46.422 9.50284 46.3142 12.1059 46.1578 14.709C45.8504 19.8455 45.3489 24.9659 44.6803 30.0649C34.6665 29.3204 24.6257 28.9616 14.5849 29.0312C13.1667 29.0419 11.4789 29.3472 10.6269 27.8314C10.1793 27.0441 10.5406 25.2391 10.5622 24.3768H10.5568ZM40.8732 44.264C39.0128 44.1461 37.1578 44.0283 35.2974 43.9105C31.4256 43.6641 27.5538 43.4177 23.682 43.182L1.02291 41.7948C1.17929 41.1467 1.31949 40.5093 1.41656 39.8559C1.54058 39.9416 1.68079 40.0219 1.85334 40.0916C2.94801 40.5468 4.41476 40.3594 5.57414 40.4236C7.43993 40.5254 9.30033 40.6325 11.1661 40.7343C15.0487 40.9485 18.9313 41.1681 22.8138 41.3824C30.2716 41.8002 37.724 42.2126 45.1818 42.6304C45.7534 42.6625 46.4004 42.7161 46.999 42.6786C47.9697 45.3138 41.6982 44.3122 40.8678 44.2586L40.8732 44.264ZM45.1871 41.3503C43.7905 41.2753 42.3938 41.1949 40.9918 41.1146C35.3998 40.8039 29.8079 40.4933 24.2159 40.1773C18.7803 39.872 13.3447 39.5667 7.90908 39.2667C6.98697 39.2132 4.54418 39.5024 3.71374 39.0311C1.8857 37.9973 4.23142 36.1977 5.0295 35.2604C6.71734 33.284 8.42136 31.2647 9.92585 29.1437C10.1901 29.524 10.5568 29.8346 11.0583 30.0328C11.6784 30.2738 12.3956 30.3863 13.1505 30.4238C12.6059 30.7559 12.099 31.1737 11.6191 31.6289C11.371 31.6182 11.123 31.6075 10.8803 31.5968C10.5783 31.5807 10.5837 32.0413 10.8803 32.0574C10.9774 32.0628 11.0691 32.0681 11.1661 32.0735C10.7455 32.4966 10.3411 32.9305 9.94203 33.3268C9.14395 34.1249 8.25419 34.9604 7.55317 35.8977C7.40218 35.887 7.25659 35.8817 7.1056 35.871C6.79284 35.8549 6.81441 36.3048 7.1056 36.3423C7.14874 36.3477 7.19188 36.353 7.23502 36.3584C7.11638 36.5458 7.00314 36.7333 6.90069 36.9315C6.85215 37.0225 6.95461 37.1511 7.05167 37.0814C7.33748 36.8833 7.6071 36.6637 7.87133 36.4334C8.39979 36.4976 8.92825 36.5565 9.45671 36.6208C9.14395 36.9315 8.83119 37.2368 8.51303 37.5421C8.34586 37.7027 8.59931 37.9491 8.76648 37.7938C9.17091 37.4242 9.57535 37.0547 9.98517 36.6851C11.1392 36.819 12.2931 36.9475 13.4525 37.0761C13.3447 37.301 13.2368 37.5206 13.1344 37.7402C13.0265 37.9706 13.3231 38.1312 13.4687 37.9384C13.6628 37.6813 13.857 37.4189 14.0511 37.1457C15.0487 37.2528 16.0463 37.3546 17.0439 37.451C16.9199 37.7081 16.8066 37.9652 16.6772 38.2223C16.5208 38.5276 16.9684 38.79 17.141 38.4955C17.3297 38.1741 17.513 37.8527 17.6964 37.5206C18.4567 37.5956 19.2117 37.6653 19.972 37.7295C19.9073 37.8849 19.8426 38.0402 19.7725 38.1902C19.6269 38.5062 20.0691 38.7847 20.2524 38.4687C20.3818 38.2491 20.5059 38.0188 20.6191 37.7884C21.579 37.8741 22.5388 37.9545 23.4987 38.0295C23.4987 38.1259 23.4987 38.2276 23.5095 38.3241C23.5256 38.6508 23.984 38.6401 24.0164 38.3241C24.0271 38.2384 24.0379 38.1527 24.0487 38.067C25.1703 38.1527 26.2974 38.233 27.419 38.308C27.2249 38.8329 27.02 39.3578 26.815 39.8827C26.7072 40.1558 27.1332 40.3112 27.2788 40.0755C27.6023 39.5506 27.9043 38.9668 28.1793 38.3615C29.2416 38.4312 30.2986 38.4901 31.3609 38.5437C31.3825 38.8918 31.3986 39.2346 31.4094 39.5774C31.4202 39.9041 31.9163 39.9095 31.9217 39.5774C31.9325 39.2507 31.9487 38.9186 31.9648 38.5811C32.7791 38.624 33.5988 38.6561 34.413 38.6936C34.4454 39.1007 34.4831 39.5024 34.5155 39.8934C34.5532 40.2951 35.1572 40.3112 35.1572 39.8934C35.1572 39.5078 35.168 39.1168 35.1841 38.7258C36.1817 38.7633 37.1739 38.79 38.1662 38.8168C38.2147 39.181 38.2578 39.5399 38.2902 39.8934C38.3333 40.338 39.0128 40.3594 39.002 39.8934C38.9966 39.5506 38.9912 39.1971 38.9912 38.8436C40.1236 38.8704 41.256 38.8864 42.3885 38.8972C42.5556 39.5452 42.6958 40.2094 42.7875 40.9057C42.8306 41.2217 43.3699 41.1467 43.3483 40.8307C43.3052 40.2094 43.2459 39.5613 43.165 38.9025C43.4184 38.9025 43.6719 38.9079 43.9253 38.9079C44.3891 38.9079 44.3783 38.233 43.9253 38.2009C43.6341 38.1794 43.3483 38.158 43.0571 38.1366C42.7498 36.1388 42.1835 34.1195 41.0943 32.5287C40.8516 32.1752 40.2099 32.3788 40.3609 32.8394C40.3879 32.9251 40.4148 33.0054 40.4418 33.0858C36.6778 32.6305 32.8222 32.5716 29.0152 32.4377C28.9612 32.4216 28.9127 32.4216 28.8642 32.4377C28.0553 32.4109 27.2518 32.3788 26.4537 32.3413C23.256 32.1806 20.0583 32.0306 16.8606 31.886C16.7958 31.736 16.5424 31.7039 16.4292 31.8592C16.4292 31.8592 16.4292 31.8592 16.4292 31.8646C15.2428 31.811 14.0619 31.7575 12.8755 31.7039C13.2422 31.3504 13.5873 30.9862 13.8785 30.5898C13.9109 30.547 13.9217 30.4988 13.9217 30.4559C15.4262 30.4506 17.0169 30.2363 18.295 30.2417C21.2392 30.2524 24.1835 30.3006 27.1224 30.3863C32.8869 30.5523 38.6461 30.863 44.3945 31.2968C44.3998 31.329 44.4052 31.3558 44.416 31.3879C45.2249 33.8303 46.1093 36.2459 46.9667 38.6722C47.0961 39.0471 47.5922 39.9095 47.5383 40.2897C47.3172 41.8002 46.1093 41.4092 45.1871 41.361V41.3503ZM14.4879 32.2984C15.0109 32.3306 15.534 32.3627 16.0571 32.3948C15.7281 32.8876 15.41 33.4018 15.108 33.9267C14.434 33.8999 13.7599 33.8678 13.0858 33.841C13.5442 33.3964 14.0026 32.9465 14.4393 32.4859C14.4987 32.4216 14.5041 32.3574 14.4879 32.2984ZM19.5891 32.6198C21.7246 32.7591 23.86 32.893 25.9954 33.0215C26.8528 33.0751 27.7156 33.134 28.5784 33.2036C28.5029 33.6375 28.4328 34.0767 28.3735 34.5159C27.4244 34.4784 26.4753 34.4409 25.5316 34.398C25.2297 34.382 24.9277 34.3712 24.6203 34.3552C24.6742 34.0177 24.7282 33.6857 24.7713 33.3482C24.8198 32.984 24.2914 32.9787 24.1781 33.2679C24.0433 33.6053 23.9409 33.9588 23.8492 34.323C23.1536 34.2909 22.4579 34.2588 21.7569 34.2266C21.8054 33.8249 21.8324 33.4232 21.8216 33.0215C21.8162 32.7591 21.401 32.6787 21.3417 32.9572C21.25 33.375 21.1583 33.7874 21.0667 34.1945C20.4519 34.1677 19.8372 34.1409 19.2225 34.1088C19.3681 33.6642 19.4975 33.2143 19.5945 32.7644C19.6053 32.7109 19.5999 32.6627 19.5945 32.6198H19.5891ZM28.2494 35.2979C28.1901 35.646 28.1254 35.9942 28.0445 36.3369C27.9798 36.5887 27.9097 36.8351 27.8342 37.0868C26.6263 37.0118 25.4184 36.9368 24.2105 36.8672C24.3022 36.2512 24.41 35.6406 24.5125 35.0247C24.8522 35.0461 25.1919 35.0729 25.5262 35.0943C26.4322 35.1532 27.3381 35.2229 28.2494 35.2925V35.2979ZM23.7036 34.9658C23.5903 35.5764 23.5256 36.203 23.5041 36.8243C22.7114 36.7761 21.9133 36.7279 21.1206 36.6851C21.3579 36.0798 21.5412 35.4585 21.6598 34.8212C22.3393 34.8694 23.0241 34.9176 23.7036 34.9658ZM20.9211 34.7676C20.7647 35.3996 20.5867 36.0209 20.3818 36.6369C19.6646 36.594 18.942 36.5512 18.2248 36.5137C18.5268 35.9031 18.8018 35.2711 19.0391 34.6337C19.67 34.6765 20.2956 34.7194 20.9265 34.7676H20.9211ZM12.7191 34.1784C13.4363 34.232 14.1535 34.2856 14.8707 34.3391C14.5148 34.9765 14.1751 35.6246 13.8516 36.2673C12.7839 36.2084 11.7162 36.1441 10.6538 36.0852C11.3495 35.4585 12.0397 34.8265 12.7191 34.1784ZM10.0445 36.0477C9.49446 36.0156 8.94443 35.9834 8.3944 35.9513C9.04688 35.3139 9.66162 34.623 10.2979 33.9963C10.8749 34.0392 11.4465 34.082 12.0235 34.1249C11.3549 34.7569 10.697 35.3996 10.0445 36.0477ZM15.7767 34.4034C16.6071 34.4623 17.4429 34.5212 18.2734 34.5801C18.0253 35.2175 17.7665 35.8442 17.4969 36.4708C16.5424 36.4173 15.5825 36.3637 14.6281 36.3048C15.0325 35.6888 15.4262 35.0515 15.7767 34.398V34.4034ZM19.0445 32.6144C18.8504 33.1019 18.6562 33.5893 18.4675 34.0767C17.6425 34.0392 16.8228 34.0017 15.9978 33.9642C16.2566 33.4554 16.4885 32.9465 16.6934 32.4323C17.4807 32.4805 18.2734 32.5287 19.0607 32.5823C19.0553 32.593 19.0445 32.5984 19.0391 32.6144H19.0445ZM12.3525 33.8142C11.7593 33.7928 11.1607 33.7607 10.5676 33.7392C11.1392 33.2036 11.7647 32.6948 12.3632 32.1592C12.9295 32.1967 13.4957 32.2342 14.0673 32.2663C13.4849 32.7644 12.9133 33.284 12.3525 33.8089V33.8142ZM29.2902 33.2572C29.9588 33.3107 30.6275 33.3643 31.3016 33.4179C31.253 33.8142 31.2207 34.2159 31.2099 34.623C30.552 34.5962 29.8995 34.5748 29.247 34.548C29.2956 34.1142 29.3117 33.6803 29.2902 33.2572ZM31.2045 35.5282C31.2153 36.1173 31.2422 36.7119 31.2746 37.3064C30.401 37.2528 29.5274 37.1886 28.6539 37.135C28.8534 36.5565 29.0098 35.962 29.123 35.3675C29.8186 35.421 30.5089 35.48 31.2045 35.5335V35.5282ZM34.3213 34.7569C33.5826 34.7194 32.8384 34.6873 32.0996 34.6551C32.0889 34.2534 32.0565 33.8624 32.0134 33.4714C32.8222 33.5357 33.6311 33.5946 34.44 33.6482C34.386 34.0124 34.3429 34.382 34.3213 34.7569ZM34.3213 37.5099C33.5556 37.4617 32.7899 37.4028 32.0295 37.3546C32.0619 36.7708 32.0943 36.1816 32.0996 35.5978C32.8276 35.6514 33.5556 35.7049 34.2836 35.7531C34.2782 36.3369 34.2944 36.9261 34.3267 37.5099H34.3213ZM37.848 35.9299C37.8804 36.5405 37.9451 37.1564 38.0206 37.767C37.0877 37.7027 36.1548 37.6331 35.2219 37.5742C35.2488 36.9904 35.2812 36.4012 35.3028 35.8174C36.1494 35.8656 37.0014 35.9031 37.848 35.9352V35.9299ZM35.3135 33.7017C36.1871 33.7553 37.0607 33.7928 37.9343 33.8196C37.9127 33.8624 37.8911 33.9106 37.8858 33.9642C37.848 34.3016 37.8318 34.6444 37.8264 34.9926C36.996 34.9229 36.1602 34.8694 35.3297 34.8212C35.3297 34.4462 35.3297 34.0767 35.3135 33.7017ZM41.3962 35.796C41.6659 36.5512 41.9247 37.3064 42.1512 38.0723C41.0943 37.992 40.0427 37.9063 38.9858 37.8313C38.9858 37.2046 38.975 36.578 38.9319 35.9567C39.6599 35.9727 40.3825 35.9781 41.1104 35.9674C41.2614 35.9674 41.3531 35.887 41.3962 35.7906V35.796ZM41.2453 35.3728C41.2075 35.3514 41.1644 35.3353 41.1104 35.33C40.3609 35.2336 39.606 35.1532 38.851 35.0836C38.7971 34.6658 38.7324 34.2588 38.6353 33.8624C38.6353 33.8517 38.6245 33.8464 38.6245 33.8356C39.3148 33.8517 40.005 33.8517 40.6952 33.8356C40.8786 34.3552 41.0619 34.864 41.2453 35.3675V35.3728Z" fill="black"/>
<path d="M43.5 5L15.5 5.5L13.5 26H15H21.5H29L42.5 27.5L43.5 5Z" fill="#00953B"/>
<path d="M43.0745 4.88539C43.0314 4.73006 42.902 4.59616 42.6863 4.58545C36.8193 4.30157 30.9199 4.5051 25.0475 4.52117C22.265 4.52653 19.4717 4.48904 16.6946 4.60687C15.8965 4.63901 14.8019 4.5426 14.8181 5.56026C14.8181 5.59239 14.8288 5.62989 14.845 5.66202C14.8342 5.6888 14.8181 5.71023 14.8127 5.73701C13.4915 12.1429 12.9037 18.9773 13.0763 25.5064C13.0871 25.9617 13.745 25.951 13.7827 25.5064C14.3004 18.9291 14.9367 12.4054 15.6485 5.84949C15.6593 5.75843 15.6323 5.68345 15.5838 5.61917C16.177 5.6406 18.2692 5.53883 18.555 5.53883C19.7899 5.5549 21.0302 5.5549 22.2704 5.56026C24.4382 5.56026 26.6006 5.5549 28.7683 5.56026C33.4059 5.57097 38.0649 5.66202 42.6917 5.421C42.8157 5.41564 42.9074 5.36744 42.9721 5.29781C42.573 12.4857 42.147 19.8182 42.3843 27.0168C32.9529 25.4636 22.8798 24.703 13.3783 25.9081C13.0601 25.951 13.0385 26.4384 13.3783 26.4169C23.2033 25.8385 32.6779 27.2578 42.4328 27.9649C42.627 27.9809 42.7726 27.8631 42.8427 27.7131C42.9775 27.6756 43.0961 27.5685 43.1177 27.3864C43.9158 20.0592 44.0182 12.5393 44.1422 5.17462C44.153 4.54795 43.3603 4.4569 43.0799 4.87467L43.0745 4.88539Z" fill="black"/>
</svg>
