<?xml version="1.0" encoding="utf-8"?>
<!-- Generator: Adobe Illustrator 27.4.0, SVG Export Plug-In . SVG Version: 6.00 Build 0)  -->
<svg version="1.1" id="Layer_1" xmlns="http://www.w3.org/2000/svg" xmlns:xlink="http://www.w3.org/1999/xlink" x="0px" y="0px"
	 viewBox="0 0 50 50" style="enable-background:new 0 0 50 50;" xml:space="preserve">
<style type="text/css">
	.st0{opacity:0.3;}
	.st1{fill:#1A2E35;}
	.st2{fill:none;stroke:#1A2E35;stroke-width:0.1098;stroke-linecap:round;stroke-linejoin:round;stroke-miterlimit:10;}
	.st3{fill:#1A2E35;stroke:#1A2E35;stroke-width:0.1175;stroke-linecap:round;stroke-linejoin:round;stroke-miterlimit:10;}
	.st4{fill:none;stroke:#FFFFFF;stroke-width:0.1098;stroke-linecap:round;stroke-linejoin:round;stroke-miterlimit:10;}
	.st5{fill:#FFFFFF;stroke:#1A2E35;stroke-width:0.1098;stroke-linecap:round;stroke-linejoin:round;stroke-miterlimit:10;}
	.st6{fill:#E0E0E0;stroke:#1A2E35;stroke-width:0.1098;stroke-linecap:round;stroke-linejoin:round;stroke-miterlimit:10;}
	.st7{fill:#00953B;}
</style>
<g>
	<g>
		<g class="st0">
			<g>
				<g>
					<g>
						<path d="M13.2,36.7c0,0-0.1,0-0.1,0c-2.3,2.6-3.2,6.6-2.3,10.5c0,0,0,0,0,0l0.1,0c0,0,0,0,0,0c-0.9-3.8,0-7.7,2.3-10.3
							C13.2,36.8,13.2,36.7,13.2,36.7z"/>
					</g>
					<g>
						<g>
							<path d="M11.9,43.7c-0.9-0.2-1.3,1.4-1.3,1.5c0,0.2,0,0.4,0,0.6c0.1-0.2,0.4-0.6,1.1-0.8C12.3,44.6,12.8,43.9,11.9,43.7z"/>
						</g>
						<g>
							<path d="M9.2,43.2c-0.9-0.2-0.5,1.3,0.2,1.6c0.7,0.3,1.1,0.7,1.3,0.9c0-0.2-0.1-0.4-0.1-0.6C10.5,45.2,10,43.4,9.2,43.2z"/>
						</g>
					</g>
					<g>
						<g>
							<path d="M12.1,42.1c-0.9-0.4-1.6,1.1-1.5,1.2c0,0.2,0,0.4,0,0.5c0.1-0.2,0.5-0.5,1.2-0.6C12.4,43.1,12.9,42.5,12.1,42.1z"/>
						</g>
						<g>
							<path d="M9.4,41.1c-0.9-0.3-0.7,1.1-0.1,1.6c0.6,0.5,1,0.9,1.1,1.1c0-0.2,0-0.4,0-0.6C10.5,43.3,10.3,41.5,9.4,41.1z"/>
						</g>
					</g>
					<g>
						<g>
							<path d="M12.5,40.6c-0.8-0.5-1.7,0.8-1.7,0.8c0,0.2-0.1,0.3-0.1,0.5c0.1-0.2,0.6-0.4,1.3-0.3C12.7,41.7,13.3,41.1,12.5,40.6z
								"/>
						</g>
						<g>
							<path d="M10,39.2c-0.8-0.5-0.9,0.9-0.3,1.5c0.6,0.6,0.9,1.1,1,1.3c0-0.2,0.1-0.4,0.1-0.5C10.7,41.4,10.8,39.7,10,39.2z"/>
						</g>
					</g>
					<g>
						<g>
							<path d="M13.1,39.3c-0.8-0.7-1.8,0.4-1.8,0.5c-0.1,0.2-0.1,0.3-0.2,0.5c0.1-0.2,0.7-0.2,1.4-0.1
								C13.2,40.3,13.9,39.9,13.1,39.3z"/>
						</g>
						<g>
							<path d="M10.9,37.4c-0.8-0.7-1,0.7-0.5,1.4c0.5,0.7,0.8,1.2,0.8,1.4c0.1-0.2,0.1-0.3,0.2-0.5C11.3,39.7,11.6,38,10.9,37.4z"
								/>
						</g>
					</g>
					<g>
						<g>
							<path d="M14,38.1c-0.7-0.8-1.9,0.1-1.9,0.1c-0.1,0.1-0.2,0.3-0.3,0.4c0.2-0.1,0.7-0.1,1.4,0.2C13.9,39.1,14.6,38.8,14,38.1z"
								/>
						</g>
						<g>
							<path d="M12,35.8c-0.7-0.8-1.1,0.5-0.7,1.3c0.4,0.7,0.6,1.3,0.6,1.6c0.1-0.2,0.2-0.3,0.2-0.5C12,38.1,12.6,36.5,12,35.8z"/>
						</g>
					</g>
					<g>
						<path d="M12.6,37.3c0,0,0.5-1.4,1.1-2c0.5-0.5,1-0.2,1.1,0.2c0.1,0.4-0.3,0.7-0.7,0.9C13.7,36.7,12.6,37.3,12.6,37.3z"/>
						<path d="M12.6,37.4C12.6,37.4,12.6,37.4,12.6,37.4C12.6,37.4,12.6,37.4,12.6,37.4C12.6,37.4,12.6,37.4,12.6,37.4
							C12.6,37.3,12.6,37.3,12.6,37.4c0-0.4,0.5-1.6,1-2.1c0.3-0.3,0.6-0.4,0.8-0.2c0.2,0.1,0.3,0.3,0.4,0.5c0.1,0.5-0.5,0.9-0.7,1
							C13.8,36.8,12.8,37.3,12.6,37.4C12.7,37.4,12.7,37.4,12.6,37.4z M14.2,35.2c-0.1,0-0.3,0.1-0.5,0.3c-0.4,0.4-0.9,1.4-1,1.8
							c0.1-0.1,0.2-0.1,0.5-0.3c0.3-0.2,0.7-0.4,0.9-0.5c0.4-0.2,0.7-0.5,0.7-0.9c0-0.2-0.1-0.3-0.3-0.4
							C14.4,35.2,14.3,35.2,14.2,35.2z"/>
					</g>
				</g>
				<g>
					<g>
						<path d="M10.1,47.4c-3.1-5-3.8-11.4-2-16.7c0-0.1,0-0.2-0.1-0.2c-0.1,0-0.1,0-0.2,0.1c-1.8,5.4-1.1,11.8,2,16.9L10.1,47.4z"/>
					</g>
					<g>
						<g>
							<path d="M9.8,41.7c-1.4,0.3-1.1,3.1-1.1,3.1c0.1,0.3,0.2,0.5,0.3,0.8c0-0.4,0.3-1.2,1.1-2C10.9,42.8,11.1,41.4,9.8,41.7z"/>
						</g>
						<g>
							<path d="M5.8,42.9c-1.4,0.4-0.1,2.3,1,2.3c1.1,0,1.9,0.2,2.2,0.5c-0.1-0.3-0.3-0.5-0.4-0.8C8.6,44.9,7.1,42.6,5.8,42.9z"/>
						</g>
					</g>
					<g>
						<g>
							<path d="M9.3,39.3C7.8,39.3,7.7,42,7.7,42c0.1,0.3,0.1,0.6,0.2,0.8c0-0.4,0.5-1.1,1.4-1.7C10.3,40.5,10.6,39.1,9.3,39.3z"/>
						</g>
						<g>
							<path d="M5.1,39.6c-1.4,0.1-0.4,2.2,0.7,2.4c1.1,0.2,1.9,0.6,2.1,0.9c-0.1-0.3-0.2-0.6-0.3-0.8C7.6,42.1,6.5,39.6,5.1,39.6z"
								/>
						</g>
					</g>
					<g>
						<g>
							<path d="M9.1,36.8c-1.5-0.2-2,2.3-1.9,2.4c0,0.3,0.1,0.6,0.1,0.9c0.1-0.4,0.6-1,1.7-1.4C9.9,38.2,10.5,36.9,9.1,36.8z"/>
						</g>
						<g>
							<path d="M4.9,36.3c-1.4-0.2-0.8,2,0.4,2.4c1.1,0.4,1.8,0.9,2,1.3c-0.1-0.3-0.1-0.6-0.1-0.9C7.1,39.2,6.3,36.5,4.9,36.3z"/>
						</g>
					</g>
					<g>
						<g>
							<path d="M9.3,34.3C7.9,33.8,7,36.2,7,36.2c0,0.3,0,0.6,0,0.8c0.1-0.3,0.8-0.8,1.9-1C9.9,35.8,10.7,34.7,9.3,34.3z"/>
						</g>
						<g>
							<path d="M5.2,33c-1.4-0.4-1,1.8,0,2.4c1,0.6,1.7,1.3,1.8,1.6c0-0.3,0-0.6,0-0.9C6.9,36.2,6.5,33.5,5.2,33z"/>
						</g>
					</g>
					<g>
						<g>
							<path d="M9.9,31.9c-1.3-0.8-2.6,1.4-2.5,1.5c-0.1,0.3-0.1,0.5-0.1,0.8c0.2-0.3,0.9-0.6,2-0.6C10.3,33.5,11.2,32.6,9.9,31.9z"
								/>
						</g>
						<g>
							<path d="M5.9,29.9c-1.3-0.7-1.3,1.6-0.3,2.4c0.9,0.8,1.5,1.6,1.6,1.9c0-0.3,0.1-0.6,0.1-0.8C7.2,33.3,7.2,30.6,5.9,29.9z"/>
						</g>
					</g>
				</g>
			</g>
		</g>
		<g class="st0">
			<g>
				<g>
					<g>
						<path d="M38.9,38.9C38.9,38.9,39,38.9,38.9,38.9c1.7,2.1,2.3,5,1.7,7.6c0,0,0,0,0,0l-0.1,0c0,0,0,0,0,0
							C41.1,43.9,40.5,41,38.9,38.9C38.9,39,38.9,38.9,38.9,38.9z"/>
					</g>
					<g>
						<g>
							<path d="M39.8,44c0.7-0.1,0.9,1.1,0.9,1.2c0,0.1,0,0.3,0,0.4c0-0.2-0.3-0.5-0.8-0.7C39.5,44.6,39.2,44,39.8,44z"/>
						</g>
						<g>
							<path d="M41.7,43.9c0.6,0,0.4,1-0.1,1.1c-0.5,0.2-0.8,0.4-0.9,0.5c0-0.1,0-0.3,0.1-0.4C40.8,45.1,41.1,44,41.7,43.9z"/>
						</g>
					</g>
					<g>
						<g>
							<path d="M39.7,42.8c0.6-0.2,1.1,0.9,1.1,1c0,0.1,0,0.3,0,0.4c-0.1-0.2-0.4-0.4-0.9-0.5C39.4,43.5,39.1,43,39.7,42.8z"/>
						</g>
						<g>
							<path d="M41.5,42.4c0.6-0.2,0.5,0.9,0,1.1c-0.4,0.3-0.7,0.5-0.8,0.7c0-0.1,0-0.3,0-0.4C40.8,43.8,40.9,42.6,41.5,42.4z"/>
						</g>
					</g>
					<g>
						<g>
							<path d="M39.4,41.7c0.6-0.3,1.2,0.7,1.2,0.7c0,0.1,0.1,0.3,0.1,0.4c-0.1-0.1-0.4-0.3-0.9-0.4C39.2,42.5,38.8,42,39.4,41.7z"
								/>
						</g>
						<g>
							<path d="M41.1,41c0.6-0.3,0.6,0.8,0.2,1.1c-0.4,0.3-0.6,0.6-0.7,0.8c0-0.1,0-0.3-0.1-0.4C40.6,42.5,40.6,41.3,41.1,41z"/>
						</g>
					</g>
					<g>
						<g>
							<path d="M38.9,40.7c0.5-0.4,1.3,0.5,1.3,0.5c0,0.1,0.1,0.2,0.1,0.4c-0.1-0.1-0.5-0.2-1-0.2C38.9,41.5,38.4,41.1,38.9,40.7z"
								/>
						</g>
						<g>
							<path d="M40.5,39.6c0.5-0.4,0.7,0.6,0.4,1c-0.3,0.4-0.5,0.8-0.5,0.9c0-0.1-0.1-0.2-0.1-0.4C40.2,41.2,40,40,40.5,39.6z"/>
						</g>
					</g>
					<g>
						<g>
							<path d="M38.3,39.8c0.5-0.5,1.3,0.2,1.3,0.3c0.1,0.1,0.1,0.2,0.2,0.3c-0.1-0.1-0.5-0.1-1,0C38.4,40.5,37.9,40.3,38.3,39.8z"
								/>
						</g>
						<g>
							<path d="M39.7,38.4c0.5-0.5,0.8,0.5,0.5,1c-0.3,0.5-0.4,0.9-0.4,1c-0.1-0.1-0.1-0.2-0.2-0.3C39.7,40,39.3,38.9,39.7,38.4z"/>
						</g>
					</g>
					<g>
						<path d="M39.3,39.4c0,0-0.4-1-0.7-1.5c-0.4-0.4-0.7-0.2-0.8,0c0,0.3,0.2,0.5,0.5,0.7C38.5,38.9,39.3,39.4,39.3,39.4z"/>
						<path d="M39.3,39.5C39.3,39.5,39.3,39.5,39.3,39.5C39.3,39.5,39.3,39.5,39.3,39.5C39.3,39.4,39.3,39.4,39.3,39.5
							C39.3,39.4,39.3,39.4,39.3,39.5c0-0.3-0.4-1.2-0.7-1.5c-0.2-0.2-0.4-0.3-0.6-0.2c-0.1,0-0.2,0.2-0.3,0.3
							c-0.1,0.3,0.4,0.7,0.5,0.8C38.5,38.9,39.2,39.4,39.3,39.5C39.3,39.5,39.3,39.5,39.3,39.5z M38.2,37.7c0.1,0,0.2,0.1,0.3,0.2
							c0.3,0.3,0.6,1.1,0.7,1.3c-0.1,0-0.2-0.1-0.3-0.2c-0.2-0.1-0.5-0.3-0.6-0.4c-0.3-0.2-0.5-0.5-0.5-0.7c0-0.1,0.1-0.2,0.2-0.2
							C38,37.7,38.1,37.7,38.2,37.7z"/>
					</g>
				</g>
				<g>
					<g>
						<path d="M41,46.7c2.2-3.2,2.7-7.6,1.4-11.6c0-0.1,0-0.1,0-0.1c0,0,0.1,0,0.1,0.1c1.3,4,0.8,8.4-1.4,11.7L41,46.7z"/>
					</g>
					<g>
						<g>
							<path d="M41.3,42.8c1,0.4,0.8,2.3,0.7,2.3c-0.1,0.2-0.2,0.4-0.2,0.5c0-0.3-0.2-0.9-0.8-1.5C40.5,43.4,40.4,42.4,41.3,42.8z"
								/>
						</g>
						<g>
							<path d="M44.1,44c1,0.4,0.1,1.6-0.7,1.5c-0.8-0.1-1.4,0-1.5,0.1c0.1-0.2,0.2-0.3,0.3-0.5C42.1,45.1,43.2,43.7,44.1,44z"/>
						</g>
					</g>
					<g>
						<g>
							<path d="M41.6,41.1c1,0.2,1.1,2.1,1.1,2.1c0,0.2-0.1,0.4-0.2,0.6c0-0.3-0.3-0.8-1-1.3C41,41.9,40.7,40.9,41.6,41.1z"/>
						</g>
						<g>
							<path d="M44.6,41.8c1,0.2,0.3,1.6-0.5,1.6c-0.8,0.1-1.3,0.2-1.5,0.4c0.1-0.2,0.1-0.4,0.2-0.6C42.8,43.2,43.6,41.6,44.6,41.8z
								"/>
						</g>
					</g>
					<g>
						<g>
							<path d="M41.8,39.4c1,0,1.4,1.8,1.3,1.9c0,0.2,0,0.4-0.1,0.6c0-0.3-0.5-0.8-1.2-1.1C41.2,40.3,40.8,39.3,41.8,39.4z"/>
						</g>
						<g>
							<path d="M44.7,39.5c1,0,0.5,1.5-0.3,1.7c-0.8,0.2-1.3,0.5-1.4,0.7c0-0.2,0.1-0.4,0.1-0.6C43.2,41.3,43.8,39.5,44.7,39.5z"/>
						</g>
					</g>
					<g>
						<g>
							<path d="M41.6,37.6c1-0.2,1.6,1.6,1.6,1.6c0,0.2,0,0.4,0,0.6c-0.1-0.3-0.6-0.7-1.3-0.9C41.2,38.6,40.7,37.8,41.6,37.6z"/>
						</g>
						<g>
							<path d="M44.5,37.1c1-0.2,0.7,1.4,0,1.7c-0.7,0.4-1.2,0.7-1.3,0.9c0-0.2,0-0.4,0-0.6C43.3,39.2,43.6,37.3,44.5,37.1z"/>
						</g>
					</g>
					<g>
						<g>
							<path d="M41.2,35.9c0.9-0.4,1.8,1.3,1.8,1.3c0,0.2,0.1,0.4,0.1,0.6c-0.1-0.2-0.6-0.5-1.4-0.6C41,37,40.3,36.2,41.2,35.9z"/>
						</g>
						<g>
							<path d="M44,34.8c0.9-0.4,0.9,1.2,0.2,1.7c-0.7,0.5-1.1,0.9-1.1,1.2c0-0.2,0-0.4-0.1-0.6C43.1,37.2,43.1,35.2,44,34.8z"/>
						</g>
					</g>
				</g>
			</g>
		</g>
		<g>
			<g>
				<path class="st1" d="M15.6,28.7C15.6,28.7,15.6,28.7,15.6,28.7c-0.1,0-1.6-0.9-2.6-1.7L12.9,27c-0.2-0.2-0.6-0.5-0.7-0.6
					c-0.4-0.4-0.6-1-0.5-1.5c0.1-0.4,0.3-0.8,0.7-1c0.8-0.5,2,0.6,2.4,1.1c0.1-0.4,0.3-1.1,1-1.5c0.4-0.2,0.9-0.3,1.3-0.1
					c0.4,0.1,0.6,0.4,0.8,0.7c0,0,0.2,0.3,0.1,0.7l0,0l-0.1,0l0.1,0c0,0.1,0,0.1,0,0.2C17.7,26.3,15.8,28.6,15.6,28.7
					C15.7,28.7,15.6,28.7,15.6,28.7z"/>
			</g>
			<path class="st2" d="M38.4,29.4c0.3-0.2,0.6-0.5,0.8-0.7c0.6-0.8-0.1-1.6-0.8-1.6c-0.8,0-1.2,0.7-1.2,0.7s-0.4-1.6-1.2-1.6
				c-0.8,0-1.1,0.8-0.9,1.4s1.4,2.6,1.4,2.6s0.7-0.3,1.3-0.6"/>
			<path class="st2" d="M25.8,12.5c0.3,0.6,0.8,1.5,0.8,1.5s1.5-0.6,1.9-1.2c0.4-0.6,0-1.1-0.6-1.1c-0.6,0-0.8,0.5-0.8,0.5
				S26.8,11,26.3,11c-0.4,0-0.6,0.3-0.7,0.7"/>
			<g>
				<path class="st1" d="M32.6,35.3C32.6,35.3,32.6,35.3,32.6,35.3c-0.1-0.1-0.9-1.5-1.1-1.9c-0.1-0.3,0-0.6,0.2-0.8
					c0.1-0.2,0.3-0.3,0.6-0.3c0,0,0,0,0,0c0.5,0,0.7,0.8,0.8,1.1c0.1-0.2,0.4-0.4,0.8-0.5c0,0,0,0,0,0c0.3,0,0.6,0.2,0.7,0.4
					c0.1,0.2,0.1,0.5-0.1,0.8c-0.1,0.2-0.4,0.4-0.8,0.6c0,0,0,0,0,0l-0.3,0.2C33.1,35.2,32.6,35.3,32.6,35.3
					C32.6,35.3,32.6,35.3,32.6,35.3z M33.8,34.7L33.8,34.7L33.8,34.7z"/>
			</g>
		</g>
		<g>
			<g>
				<g>
					<path class="st3" d="M45.5,10c0.2-0.7,0.6-1.6,0.3-1.5c-0.4,0.1-1.5,1.3-1.2,0.7c0.3-0.7,0.9-1.3,0.9-1.7
						c-0.1-0.4-0.9-0.7-1.3-0.7c-0.4,0-0.9,0.4-1.3,1.2c-0.4,0.8-0.7,0.7-0.7,0.7s1.2-1.9,1-2.5c-0.2-0.6-2.1-1.6-2.4-1.7
						c-0.3-0.1-1.3,1.2-1.9,1.9c-0.6,0.7,0.9-2.1,0.9-2.5c0-0.4-0.6-0.2-1,0.4c-0.4,0.6-1.2,1.9-0.9,1c0.3-0.9,1-1.8,1-2.1
						c0,0,0-0.1,0-0.1l-0.2-0.1c0,0-0.9,1.3-1.4,2.2c-0.5,0.9-0.8,2-1.1,2.6c-0.4,0.5-2,1.1-2.4,2c-0.4,1-0.5,2.7-0.5,2.7l-1.8,2.6
						c0,0-0.1,0.1,0.7,0.3c0.8,0.2,2.3,1.2,3,2.2c0.7,0.9,0.9,2.7,0.9,2.7s0.3,0.5,0.6,0.3c0.3-0.2,0.4-1,1.1-1.6
						c0.7-0.6,2-2.7,2-2.7s1,0.7,1.9-0.1c0.9-0.8,2.3-4.3,3.1-5.3C45.1,10.5,45.3,10.3,45.5,10C45.5,10.1,45.5,10,45.5,10z"/>
					<g>
						<path class="st4" d="M36.7,8.9c0.2-0.2,0.4-0.4,0.5-0.5c0.3-0.5,0.8-2,0.8-2"/>
						<path class="st4" d="M33.9,13.4l0.4-0.7c0,0,0.3-1.6,0.6-2.3c0.2-0.4,0.8-0.8,1.3-1.2"/>
						<line class="st4" x1="33.1" y1="15" x2="33.7" y2="13.9"/>
						<path class="st4" d="M40.3,7.3c0.3-0.5,0.5-0.8,0.5-0.8"/>
						<path class="st4" d="M34.5,15.6l1-2.3c0,0,0.3-1.2,0.9-1.9c0.6-0.7,1.8-1.1,2.8-2.4c0.3-0.4,0.6-0.8,0.8-1.1"/>
						<path class="st4" d="M39.3,11.5c1-1.5,2.3-3.4,2.3-3.4"/>
						<path class="st4" d="M35.6,16.5l1.5-2.3c0,0,0.6-0.2,1.5-1.5c0.1-0.2,0.2-0.3,0.4-0.5"/>
						<line class="st4" x1="43.4" y1="8.9" x2="43.8" y2="8.2"/>
						<polyline class="st4" points="38.1,15.9 38.9,15 40.3,14.1 43,9.5 						"/>
						<line class="st4" x1="36.7" y1="17.6" x2="37.8" y2="16.3"/>
						<path class="st4" d="M43.9,11.1c0.3-0.7,0.5-0.9,0.5-0.9"/>
						<path class="st4" d="M37.1,19.2c0,0,2.5-3.5,2.7-3.7c0.2-0.1,1.6,0.2,2-0.2c0.3-0.4,1.2-2.2,1.7-3.3"/>
					</g>
				</g>
				<path class="st5" d="M16.8,34.1c0,0,0.8-1,1.1-1.9c0.3-0.9,0.5-1.6,0.9-1.9c0.4-0.3,2.5-1.6,2.7-2.2c0.2-0.6,0.6-1.6,1.1-2
					c0.5-0.5,3.3-3.2,5.2-5.7s3.3-4.2,3.5-4.7c0.2-0.5,0.4-0.7,0.4-0.7s1.2-0.5,3,1c1.8,1.5,2,2.8,2,3.2c0,0.5,0,0.6,0,0.6l-8,7.4
					l-9.5,7.9c0,0-0.7,0-1.4-0.5C17.1,34.2,16.8,34.1,16.8,34.1z"/>
			</g>
			<g>
				<path class="st5" d="M29.3,37.6c0,0,0.4-0.4,0.8-0.3c0.3,0,0.4,0.2,0.5,0.9c0,0.7,0,1.3-0.2,1.6c-0.2,0.3-0.6,0.6-0.6,0.6
					s0.2-1.6,0.1-2.1C29.9,37.9,29.3,37.6,29.3,37.6z"/>
				<g>
					<path class="st5" d="M26.7,43.3c0,0,0.7,0.3,1.2,0c0.4-0.3,0.7-1.1,0.9-1.3c0.1-0.2,0.9-0.6,1.1-1.6c0.1-1,0.6-2.3,0.5-2.6
						c0-0.3-0.6-0.4-1-0.1S29,38,28.9,38.3c-0.1,0.3-0.7,2.9-0.9,3.1c-0.2,0.2-0.9,0.4-1,0.8C26.8,42.6,26.7,43.3,26.7,43.3z"/>
					<path class="st2" d="M29.8,38.1c0,0-0.2-0.1-0.2,0.2c0,0.3-0.1,1.1,0,1.2c0.1,0.1,0.1,0.1,0.1,0.1"/>
					<line class="st2" x1="30.3" y1="37.8" x2="30" y2="38"/>
				</g>
				<path class="st6" d="M20.5,42.5c0,0,0.9,1.6,1.4,1.7c0.6,0.2,2,0.3,2.3,0.4c0.3,0.1,1.5,0.6,1.9,0c0.5-0.5,0.8-1.5,1-2
					c0.2-0.5,0.4-1.1,0.4-1.1l-7.3,0.4L20.5,42.5z"/>
			</g>
			<g>
				<g>
					<path class="st7" d="M25.1,16.4c0,0-0.1-0.7-0.2-1c-0.1-0.2-0.6-1.1-0.8-1.2c-0.2-0.1-0.2-0.1-0.2-0.1s-0.7-3.2-1.2-4
						s-1.1-1.2-1.3-1.3c-0.2-0.1-0.7-1.6-0.9-2.1c-0.2-0.5-0.5-2.2-1.7-2.6c-1.2-0.3-2.6,1.8-3,2.3c-0.4,0.5,0.7-1.9,0.6-2.7
						S15,1.5,11.8,4.4C8.6,7.2,8.5,7.9,8.9,8.5c0.4,0.6,2.5-2.1,2.2-1.1c-0.4,1-1.5,2.3-1.7,3.3c-0.3,1,0,1.6,0.4,1.8
						c0.4,0.2,1.2,0.3,1.2,0.3s0.8,0,1.1,0.2c0.3,0.2,0.3,0.2,0.3,0.2l2.1,1.8c0,0,0.3,1,0.3,1.3c0,0.3,0.2,1.2,0.5,1.4
						c0.2,0.2,2.1,1.1,2.1,1.1s0.1,0.5,0.4,0.8c0.3,0.3,0.7,0.4,0.7,0.4s0.4-2.1,2.5-2.9c2.1-0.8,4-0.7,4-0.7L25.1,16.4z"/>
					<g>
						<path class="st2" d="M5.9,7.7c0,0,1.2,0.3,2,2.5c0.7,2.2,2.6,2.6,3,2.6s1.2,0.1,1.4,0.4c0.2,0.2,1.8,1.6,2.1,1.8
							c0.2,0.2,0.2,1.2,0.4,1.6c0.1,0.4-0.1,0.9,0.9,1.4c1,0.4,1.6,0.8,1.6,0.8s0,0.5,0.4,0.8c0.4,0.3,0.7,0.4,0.7,0.4
							s-1-1.8,1.8-3.2c2.7-1.4,5-0.4,5-0.4s0.1-0.2-0.2-1c-0.3-0.7-1.1-1.3-1.1-1.3s-0.4-1.4-0.5-2c-0.1-0.6-0.4-1.8-0.7-2.4
							c-0.3-0.5-1.2-0.8-1.4-1.2C21,8.1,20.1,5,19.7,4.4c-0.4-0.7-1.4-1.8-1.4-1.8"/>
						<path class="st2" d="M22.5,13.9c0.5,0,0.8,0,0.8,0"/>
						<path class="st2" d="M16.3,18c0,0,0.1-2,1.7-3.2c1-0.7,2.8-0.9,4-0.9"/>
						<path class="st2" d="M18.6,6.8c0.5-0.3,0.9-0.4,0.9-0.4"/>
						<path class="st2" d="M14.6,14.4c0,0,0.4-2.3,1.6-5c0.4-0.9,0.9-1.5,1.4-2"/>
						<path class="st2" d="M16.1,6.2c0,0-1.8,2.9-1.8,4.8"/>
					</g>
				</g>
				<g>
					<path class="st6" d="M29.8,35.7c0-0.2-0.1-0.5-0.1-0.5s-0.2-3-0.2-5.6c0-2.7,0-3.8-0.4-4.7c-0.4-0.9-1-1.7-1-1.7
						s-1.8-3.4-2.2-4.5c-0.5-1.1-0.8-2.3-0.8-2.3s-0.9-0.9-3.2-0.8c-2.3,0.1-3.7,1.4-4,2.3c-0.3,0.9,0.4,2,0.4,2s2.8,3.2,3.6,3.9
						c0.7,0.7,1.4,2.7,1.4,3.4c0,0.7-2.1,2.2-2.5,3.2c-0.4,1-1.1,3-1.7,4.3c-0.6,1.3-1.4,2.6-1.5,3.3c-0.2,0.6-1.2,2.3-1.3,2.8
						c0,0.5,0.6,0.7,0.9,0.7c0.3,0,0.6-0.1,0.6-0.1s-0.2,0.3,0.6,0.6c0.8,0.3,3.2,0.8,3.6,0.8c0.4,0,0.8-0.4,1.2-0.8
						c0.5-0.3,3.1-2.2,3.2-2.3c0.1-0.1,1.5-1.1,2.1-1.5c0.5-0.3,1.1-0.9,1.2-1.4C29.8,36.3,29.9,35.9,29.8,35.7z M21.4,38.9
						c-0.6,0.5-1,1.5-1,1.5s-0.9-0.3-1.1-0.3c0,0,0.5-0.4,0.7-0.9c0.3-0.4,1-1.9,1.1-2.2s1.2-0.3,1.2,0.1
						C22.3,37.6,21.9,38.4,21.4,38.9z"/>
					<path class="st2" d="M17.1,39.2c0,0,0.7,0.2,0.8,0.7c0.1,0.5-0.1,0.9-0.2,1.1"/>
					<path class="st2" d="M22.9,34.4c0.1-0.2,0.1-0.4,0.1-0.5"/>
					<path class="st2" d="M21.3,36.7c0,0,0.3-0.4,0.9-0.9c0.2-0.2,0.4-0.5,0.5-0.8"/>
					<path class="st2" d="M23.4,36c0,0-0.2,0.5,0,0.7c0.2,0.2,0.2,0.2,0.2,0.2s-0.6,0.4-0.7,0.5"/>
				</g>
			</g>
			<path class="st2" d="M19.3,40.1c0,0-0.8,1.1-1.5,1.1"/>
			<g>
				<path class="st5" d="M17.6,33.4c0,0-0.7,0.2-0.9,0.9c-0.2,0.7,0.3,0.8,0.5,1.8c0.2,1,0.4,2,1,1.9c0.6-0.1,1.1-0.6,1.4-1.6
					s0.1-2.4-0.4-2.7"/>
				<path class="st2" d="M17.8,37.8c0,0,0.3-0.5,0.5-0.8c0.2-0.3,0.3-0.6,0.1-1.1c-0.2-0.5-0.7-0.5-0.9,0.2c-0.1,0.7,0,1.4,0,1.4"/>
			</g>
			<g>
				<path class="st5" d="M20.3,38.8c0,0,1.1,1.3,1.5,1.6c0.3,0.3,1.3,0,1.6-0.1c0.2-0.1,2.6-0.9,3.2-1.1c0.5-0.3,1.1-1,1.3-1.2
					c0.2-0.2,0.8-0.7,0.9-1.1c0.1-0.4-0.3-1-1.2-0.7s-2.5,1-2.5,1l-2.1,0.2c0,0-1.1-1-1.8-0.3L20.3,38.8z"/>
				<path class="st2" d="M28.5,36.5c0,0-0.4-0.2-0.6,0c-0.2,0.2-1,0.8-0.9,1.1c0,0.3,0.3,0.6,0.5,0.5"/>
			</g>
			<g>
				<path class="st5" d="M22.5,42.5c0,0,1.1,1.6,1.6,1.4c0.6-0.1,3.5-1.9,3.9-2.2s0.6-1.1,0.9-2c0.3-0.9,0.5-1.4,0.4-1.6
					c-0.1-0.2-0.8-0.3-1.4,0.1c-0.6,0.4-1.2,1.4-1.2,1.4L22.5,42.5z"/>
				<path class="st2" d="M29,38c0,0-0.4,0-0.5,0.6c-0.1,0.5-0.1,1.2,0.1,1.2c0.2,0.1,0.3-0.1,0.3-0.1"/>
				<path class="st2" d="M26.8,39.5c0,0-0.4,0.3-0.3,0.7"/>
			</g>
		</g>
	</g>
	<path class="st7" d="M12.8,24c-0.1,0-0.2,0-0.3,0.1c-0.3,0.2-0.5,0.5-0.6,0.8c-0.1,0.4,0.1,1,0.4,1.3c0.1,0.1,0.4,0.4,0.7,0.6
		l0.1,0.1c0.9,0.6,2.2,1.4,2.5,1.6c0.3-0.4,2-2.4,2.1-3.6c0-0.1,0-0.1,0-0.2l0.1,0l-0.1,0c0-0.4-0.1-0.6-0.1-0.6
		c-0.1-0.3-0.4-0.5-0.7-0.6c-0.4-0.1-0.8-0.1-1.1,0.1C15,24.1,15,25.2,15,25.2c0,0,0,0.1-0.1,0.1c0,0-0.1,0-0.1,0
		C14.4,24.8,13.5,24,12.8,24z"/>
	<path class="st7" d="M32.3,32.4C32.3,32.4,32.3,32.4,32.3,32.4c-0.2,0-0.4,0.1-0.5,0.2c-0.1,0.2-0.2,0.5-0.1,0.7
		c0.1,0.4,0.8,1.6,1,1.8c0.1,0,0.5-0.2,0.9-0.4l0.3-0.2c0.4-0.2,0.6-0.4,0.7-0.6c0.2-0.2,0.2-0.5,0.1-0.7c-0.1-0.2-0.4-0.4-0.6-0.4
		c0,0,0,0,0,0c-0.5,0-0.8,0.5-0.8,0.5c0,0,0,0,0,0c0,0,0,0,0,0c0,0,0,0,0,0C33,33.5,32.8,32.4,32.3,32.4z"/>
</g>
</svg>
