<?xml version="1.0" encoding="utf-8"?>
<!-- Generator: Adobe Illustrator 27.4.0, SVG Export Plug-In . SVG Version: 6.00 Build 0)  -->
<svg version="1.1" id="Layer_1" xmlns="http://www.w3.org/2000/svg" xmlns:xlink="http://www.w3.org/1999/xlink" x="0px" y="0px"
	 viewBox="0 0 50 50" style="enable-background:new 0 0 50 50;" xml:space="preserve">
<style type="text/css">
	.st0{opacity:0.4;fill:#ECECEC;}
	.st1{fill:#DCDCDC;}
	.st2{fill:#FFFFFF;}
	.st3{fill:#C8C8C8;}
	.st4{fill:#ECECEC;}
	.st5{fill:#1A2E35;}
	.st6{fill:#2B454E;}
	.st7{fill:#00953B;stroke:#1A2E35;stroke-width:7.571059e-02;stroke-linecap:round;stroke-linejoin:round;stroke-miterlimit:10;}
	.st8{fill:#FFABA1;}
	.st9{opacity:6.000000e-02;}
	.st10{fill:none;stroke:#FFA89E;stroke-width:0;stroke-linecap:round;stroke-linejoin:round;}
	.st11{fill:#00953B;}
</style>
<g>
	<polygon class="st0" points="25,20.1 28.6,1.4 26.3,20.3 35.5,3.6 27.4,20.9 41.3,7.9 28.3,21.8 45.6,13.7 28.9,22.9 47.8,20.6 
		29.1,24.2 47.8,27.8 28.9,25.5 45.6,34.7 28.3,26.6 41.3,40.5 27.4,27.5 35.5,44.7 26.3,28.1 28.6,47 25,28.3 21.4,47 23.7,28.1 
		14.5,44.7 22.6,27.5 8.7,40.5 21.7,26.6 4.4,34.7 21.1,25.5 2.2,27.8 20.9,24.2 2.2,20.6 21.1,22.9 4.4,13.7 21.7,21.8 8.7,7.9 
		22.6,20.9 14.5,3.6 23.7,20.3 21.4,1.4 	"/>
	<g>
		<g>
			<g>
				<g>
					<path class="st1" d="M41.5,36.1C41.5,36.2,41.6,36.2,41.5,36.1C41.6,36.1,41.6,36.1,41.5,36.1c0.2-0.3,2-2.4,2.4-3.6
						c0.4-1.2,0.6-2.7,0.6-4c0-0.3,0.1-1-0.4-1.1c-0.3-0.1-0.5,0.5-0.6,0.7c-1,2.1-1.8,6.7-2,7.8C41.5,36,41.5,36.1,41.5,36.1z"/>
					<path class="st2" d="M41.5,36.1C41.5,36.2,41.6,36.2,41.5,36.1C41.6,36.1,41.6,36.1,41.5,36.1c0.1-0.1,0.1-0.1,0.1-0.2
						c0.3-0.4,0.5-0.9,0.8-1.3c0.3-0.6,0.6-1.1,0.9-1.7c0.4-1,0.6-2.1,0.7-3.2c0-0.1,0.1-1-0.1-0.9c-0.1,0-0.2,0.2-0.3,0.3
						c-0.1,0.2-0.2,0.5-0.2,0.8c-0.6,2-1.2,4-1.7,6C41.5,36,41.5,36.1,41.5,36.1z M41.7,35.8c0.2-0.9,0.5-1.7,0.7-2.6
						c0.3-1,0.6-2.1,0.9-3.1c0.1-0.3,0.2-0.5,0.2-0.8c0-0.1,0.1-0.3,0.2-0.4c0.1-0.1,0.1-0.2,0.2,0c0,0,0,0.2,0,0.2
						c0,0.5-0.1,1-0.2,1.5c-0.2,1-0.4,2-0.9,2.9C42.5,34.3,42.1,35.1,41.7,35.8z"/>
				</g>
				<g>
					<path class="st1" d="M43.3,37.6c-0.5,0.6-0.9,1.2-1.3,1.8c-0.4,0.7-0.8,1.4-1.1,2.1c-0.3,0.7-0.5,1.5-1,2.1c0,0,0,0,0,0
						c0,0,0,0,0,0c0,0,0,0,0,0c0-0.1,2.6-2.2,3.5-3.4c0.5-0.7,0.9-1.4,1.2-2.2c0.2-0.6,0.4-1.5,0.1-1.8
						C44.5,35.9,43.7,37.1,43.3,37.6z"/>
					<path class="st2" d="M43.4,38.1c-0.6,0.9-1,1.9-1.6,2.9c-0.5,1-1.2,1.8-1.9,2.7c0,0,0,0,0,0c0.9-0.8,1.7-1.6,2.4-2.6
						c0.6-0.8,1.2-1.7,1.5-2.6c0.1-0.2,0.1-0.5,0.2-0.7c0-0.1,0.1-0.3-0.1-0.3c-0.1,0-0.2,0-0.2,0.1C43.7,37.7,43.5,37.9,43.4,38.1z
						 M43.9,37.5c0.3-0.1,0.2,0.3,0.1,0.3c-0.1,0.5-0.3,0.9-0.5,1.4c-0.9,1.7-2.2,3.2-3.6,4.4c0.7-0.8,1.3-1.6,1.8-2.5
						c0.5-0.9,0.9-1.8,1.4-2.7c0.1-0.2,0.3-0.5,0.5-0.7C43.7,37.7,43.8,37.6,43.9,37.5z"/>
				</g>
				<g>
					<path class="st1" d="M38.4,32.3c0.1,1.2,0.4,2.6,0.9,3.8c0.5,1.2,1.3,2.3,1.9,3.5c0,0,0,0,0,0c0,0,0,0,0,0c0,0,0,0,0-0.1
						c0-1.5-0.1-2.9-0.6-4.3c-0.2-0.7-0.5-1.3-0.7-2c-0.2-0.6-0.4-1.3-0.7-1.9c-0.1-0.2-0.4-0.5-0.6-0.3
						C38.3,31.2,38.4,32,38.4,32.3z"/>
					<path class="st2" d="M38.9,33.1c0,0.3,0.1,0.5,0.1,0.7c0.2,1.1,0.7,2.2,1.1,3.2c0.3,0.8,0.7,1.7,1,2.5c0,0,0,0,0,0c0,0,0,0,0,0
						c-0.1-1-0.3-1.9-0.6-2.9c-0.4-1.2-0.7-2.3-1.2-3.5c0-0.1-0.3-0.9-0.5-0.6C38.9,32.7,38.9,33,38.9,33.1z M39.3,32.7
						c0.1,0.2,0.2,0.5,0.3,0.7c0.1,0.2,0.2,0.5,0.2,0.7c0.3,1,0.7,2,1,3.1c0.2,0.7,0.3,1.4,0.4,2.1c-0.3-0.8-0.7-1.6-1-2.4
						c-0.4-0.9-0.8-1.9-1.1-2.9c-0.1-0.3-0.1-0.6-0.2-0.8c0-0.1,0-0.3,0-0.4C39,32.8,39,32.4,39.3,32.7z"/>
				</g>
				<g>
					<path class="st1" d="M41.1,31.5C41.1,31.5,41.1,31.5,41.1,31.5C41,31.5,41,31.5,41.1,31.5C41,31.5,41,31.5,41.1,31.5
						c-0.2-0.2-0.2-0.3-0.3-0.4c0,0,0,0,0-0.1c0,0,0,0,0,0c-0.8-1.3-2.3-2-2.8-3.4c-0.3-0.6-0.4-1.3-0.4-2c0-0.3-0.2-1.2,0.2-1.4
						c0.3-0.1,0.6,0.4,0.8,0.6c0.4,0.6,0.7,1.4,0.9,2.2c0.2,0.7,0.4,1.4,0.6,2.1c0.2,0.7,0.5,1.3,0.8,1.9
						C40.9,31.1,41,31.3,41.1,31.5z"/>
					<path class="st2" d="M40.8,30.9c-0.1-0.1-0.2-0.3-0.2-0.4c-0.3-0.6-0.6-1.3-0.9-1.9c-0.5-0.9-0.7-1.9-1.1-2.9
						c-0.1-0.1-0.2-0.7-0.4-0.5c-0.2,0.2,0.1,1.8,0.4,2.5c0.2,0.4,0.4,0.7,0.7,1.1c0.6,0.6,1.1,1.3,1.5,2c0,0.1,0.1,0.1,0.1,0.2
						c0.1,0.1,0.1,0.2,0.2,0.4c0-0.1-0.1-0.1-0.1-0.2c0.1,0.1,0.1,0.2,0.2,0.3c0,0,0,0,0,0C41,31.3,40.9,31.1,40.8,30.9z M39.4,29
						c-0.4-0.4-0.7-0.9-0.9-1.4c-0.2-0.5-0.3-1.1-0.4-1.6c0-0.1-0.1-0.5,0-0.6c0.1,0,0.3,0.6,0.3,0.6c0.1,0.3,0.2,0.5,0.3,0.8
						c0.2,0.5,0.4,1.1,0.6,1.6c0.3,0.6,0.6,1.2,0.9,1.8C40,29.7,39.7,29.4,39.4,29z"/>
				</g>
				<g>
					<path class="st1" d="M35.7,43.4c-0.7,1.4-0.4,3.1-2.1,4.3c0,0,0,0,0,0c0,0,0,0,0,0c0.2-0.1,0.3-0.2,0.5-0.3
						c0.9-0.6,1.7-1.5,2.3-2.4c0.4-0.6,0.6-1.2,0.8-1.8c0.1-0.3,0.4-1.1,0.2-1.3C37,41.2,35.9,43.1,35.7,43.4z"/>
					<path class="st2" d="M36.4,43.2c-0.6,0.7-0.8,1.6-1.2,2.5c-0.3,0.6-0.6,1.1-1,1.6c-0.2,0.2-0.4,0.3-0.6,0.5c0,0,0,0,0,0
						c0.2-0.1,0.3-0.2,0.5-0.3c0,0,0,0,0,0c0.5-0.4,0.9-0.9,1.3-1.4c0.5-0.7,1-1.5,1.3-2.3c0.1-0.1,0.3-0.7,0.2-0.8
						C36.9,42.7,36.5,43.1,36.4,43.2z M37,42.9c0.1,0.1-0.3,1-0.5,1.3c-0.4,0.7-0.8,1.4-1.3,2c-0.2,0.3-0.5,0.5-0.7,0.8
						c0.2-0.3,0.4-0.7,0.6-1c0.4-0.8,0.6-1.6,1-2.3c0.1-0.2,0.3-0.4,0.4-0.5C36.6,43.1,36.9,42.8,37,42.9z"/>
				</g>
				<g>
					<path class="st1" d="M42.7,45.8c-0.6,0.3-1.2,0.5-1.9,0.7c-1.3,0.3-2.5,0.3-3.8,0c0,0,0,0-0.1,0c-0.1,0-0.1,0-0.2,0
						c0,0,0,0,0,0c0,0,0,0,0,0l0,0c0,0,0,0,0,0c0.1,0,0.1-0.1,0.2-0.1c1.5-0.6,2.9-1.4,4.4-1.7c0.3-0.1,2.6-0.6,2.5,0.2
						C43.8,45.4,43,45.7,42.7,45.8z"/>
					<path class="st2" d="M42.9,45.2c0-0.3-0.4-0.3-0.6-0.3c-0.5,0-0.9,0.2-1.4,0.3c-0.5,0.1-0.9,0.3-1.4,0.4
						c-0.8,0.3-1.6,0.6-2.5,0.8c-0.1,0-0.1,0-0.2,0c-0.1,0-0.1,0.1-0.2,0.1c0,0,0,0,0,0l0,0c0,0,0,0,0.1,0c0,0,0,0,0.1,0
						c0.1,0,0.1,0,0.2,0c0.8,0,1.5-0.1,2.3-0.2c1-0.1,2.1-0.3,3-0.6C42.5,45.6,42.9,45.4,42.9,45.2z M42.6,45.4
						c-0.1,0.1-0.2,0.1-0.3,0.1c-0.3,0.1-0.5,0.2-0.8,0.3c-0.6,0.1-1.1,0.2-1.7,0.3c-0.7,0.1-1.4,0.2-2.1,0.2
						c0.5-0.1,1.1-0.3,1.6-0.5c0.5-0.2,1-0.4,1.5-0.5c0.5-0.1,1.1-0.3,1.6-0.3C42.6,45,42.9,45.2,42.6,45.4z"/>
				</g>
			</g>
			<path class="st1" d="M41.3,31.9c-0.3-2.6-0.6-5.2-1.1-7.8c0-0.1-0.1,0-0.1,0c0.3,2.2,0.5,4.4,0.8,6.7c0.2,2.2,0.5,4.4,0.4,6.7
				c0,2.1-0.3,4.2-1.4,6c-1,1.6-2.6,2.7-4.3,3.5c-2.3,1-4.7,1.3-7.1,1.6c-0.1,0-0.1,0.1,0,0.1c3.9-0.4,8.5-1,11.1-4.2
				C42.4,40.9,41.7,36,41.3,31.9z"/>
			<g>
				<path class="st1" d="M39,24.8c0.3,0,0.5-0.2,0.7-0.4c0.1-0.1,0.2-0.3,0.3-0.4c0,0,0,0.1,0,0.1c-0.1,0.4-0.3,0.7-0.3,1.1
					c0,0.1,0,0.4,0.2,0.4c0.2,0,0.3-0.5,0.3-0.7c0-0.3,0.1-0.5,0-0.8c0.1,0.2,0.2,0.8,0.4,1.1c0.1,0.2,0.2,0.3,0.3,0.3
					c0.2,0,0.2-0.2,0.2-0.3c-0.1-0.7-0.8-1.3-0.8-1.3c0,0,0,0,0,0c0.2,0.2,1.3,0.6,1.5,0.5c0.1-0.1,0.1-0.2,0-0.3
					c-0.4-0.4-0.9-0.5-1.2-0.5c-0.4-0.1-0.7,0-1.1,0.2c-0.3,0.2-0.5,0.4-0.7,0.7C38.8,24.7,38.8,24.8,39,24.8z"/>
				<g>
					<g>
						<path class="st3" d="M37.6,22c0.4,0.3,0.8,0.6,1.1,0.9c0.3,0.2,0.6,0.4,0.9,0.4c0,0,0,0,0.1,0c0,0,0,0,0.1,0c0,0,0,0,0,0
							c0,0,0,0,0,0c0,0,0.1,0,0.1,0c0,0,0,0,0.1,0c0,0,0,0,0.1,0c0,0,0,0,0.1,0c0,0,0,0,0.1,0c0,0,0.1-0.1,0.1-0.1
							c0.3-0.2,0.5-0.4,0.6-0.7c0.7-1,0.8-2.5,0.8-3.7c0.1-0.7,0.3-1.7-0.3-2.3c-0.2-0.2-0.3-0.2-0.5-0.3c0,0,0,0,0,0
							c-0.2,0-0.5,0.1-0.7,0.2c0,0,0,0,0,0c-0.2,0.1-0.5,0.2-0.7,0.3c-0.3,0-0.6,0-0.9-0.1c0,0,0,0,0,0c-0.2,0-0.4-0.1-0.5-0.1
							c0,0,0,0,0,0c-0.3,0-0.5,0-0.7,0.1c-0.2,0.1-0.3,0.3-0.4,0.5c0,0,0,0,0,0c-0.1,0.2-0.2,0.4-0.4,0.5c-0.1,0.1-0.2,0.1-0.3,0.2
							c0,0,0,0,0,0c-0.2,0.1-0.4,0.2-0.5,0.3c0,0,0,0,0,0c0,0,0,0,0,0C34.8,19.5,36.7,21.3,37.6,22z"/>
						<path class="st2" d="M40.7,22.1c-0.1,0.4-0.3,0.8-0.6,1.1c0,0,0.1-0.1,0.1-0.1c0.2-0.3,0.4-0.5,0.5-0.9
							c0.2-0.7,0.2-1.5,0.3-2.3c0.1-0.7,0.2-1.5,0.2-2.2c0-0.5,0-1.1-0.3-1.5c0,0,0,0,0,0c0.3,0.5,0.3,1.3,0.3,1.8
							c-0.1,0.7-0.1,1.3-0.2,2C41,20.7,40.9,21.4,40.7,22.1z"/>
						<path class="st2" d="M40.3,16.4c0.3,1.2,0.2,2.3,0.1,3.5c-0.1,0.7-0.1,1.3-0.2,2c0,0.5-0.1,0.9-0.2,1.3c0,0,0,0,0.1,0
							c0.1-0.4,0.1-0.8,0.2-1.3c0.1-0.7,0.1-1.4,0.2-2.1C40.6,18.7,40.6,17.5,40.3,16.4C40.3,16.4,40.3,16.4,40.3,16.4z"/>
						<path class="st2" d="M38.1,16.5c0.2,1,0.4,1.9,0.7,2.9c0.2,0.6,0.4,1.1,0.6,1.7c0.2,0.5,0.4,1,0.5,1.6c0,0.2,0,0.4,0,0.6
							c0,0,0,0,0.1,0c0-0.4-0.1-0.9-0.1-1.3c-0.1-0.7-0.1-1.4-0.3-2.1c-0.2-1.1-0.5-2.2-0.9-3.2c0,0,0,0,0,0
							c0.4,1.1,0.7,2.2,0.9,3.3c0.1,0.7,0.2,1.4,0.3,2c0,0.2,0,0.3,0,0.5c-0.1-0.4-0.3-0.8-0.4-1.2c-0.2-0.6-0.4-1.1-0.5-1.7
							C38.6,18.6,38.3,17.6,38.1,16.5C38.2,16.5,38.1,16.5,38.1,16.5z"/>
						<path class="st2" d="M36.3,17.8c0.2,0.9,0.6,1.8,1.1,2.6c0.3,0.6,0.8,1.1,1.2,1.6c0.2,0.2,0.4,0.5,0.6,0.7
							c0.2,0.2,0.4,0.4,0.6,0.6c0,0,0,0,0,0c-0.6-1-1.3-2-1.8-3c-0.5-1-0.8-2.1-1-3.2c0,0,0,0,0,0c0.1,1.1,0.5,2.1,0.9,3.1
							c0.5,1,1.2,2,1.8,2.9c-0.2-0.2-0.3-0.3-0.5-0.5c-0.2-0.2-0.4-0.5-0.7-0.7c-0.4-0.5-0.8-1-1.1-1.5
							C36.9,19.7,36.6,18.8,36.3,17.8C36.3,17.8,36.3,17.8,36.3,17.8z"/>
						<path class="st2" d="M35.7,18.2c0,0.3,0,0.6,0.1,0.9c0.2,0.6,0.6,1.2,1,1.7c0.4,0.5,0.9,1,1.4,1.5c0.4,0.4,0.9,0.8,1.4,1.1
							c0,0,0,0,0.1,0c-0.4-0.3-0.9-0.6-1.3-1c-0.5-0.4-1-0.9-1.4-1.4c-0.4-0.5-0.9-1-1.1-1.6C35.8,19,35.7,18.6,35.7,18.2
							C35.7,18.2,35.7,18.2,35.7,18.2z"/>
					</g>
					<path class="st1" d="M36.9,21.4c0.1,0.4,0.6,0.6,1,0.7c0.6,0.1,1.2,0,1.8-0.1c0.3-0.1,1-0.2,1.6-0.5c0.2-0.1,0.5-0.2,0.6-0.4
						c0.2-0.2,0.1-0.5,0-0.7c0,0,0,0,0,0c0,0,0,0,0,0c-0.1-0.2-0.3-0.4-0.5-0.5c-0.8-0.7-2-0.9-3-0.5c-0.5,0.1-0.9,0.4-1.2,0.7
						C37.1,20.4,36.8,21,36.9,21.4z"/>
					<g>
						<path class="st4" d="M34.4,19.4c-0.1,0.6,0.4,1.4,0.7,1.9c0.9,1.4,3.1,2.5,4.6,2.5c0.1,0,0.1,0,0.2,0c0,0,0,0,0,0
							c0,0,0,0,0.1,0c0,0,0,0,0,0c0.2,0,0.4-0.1,0.6-0.1c0,0,0.1,0,0.1,0c0.9-0.4,1.7-1.2,2.1-2.1c0.5-1.1,0.9-2.5,0.3-3.7
							c-0.1-0.3-0.4-0.6-0.6-0.7c0,0,0,0-0.1,0c-0.1,0-0.2,0-0.3,0c-0.1,0-0.2,0-0.3,0.1c0,0,0,0,0,0c-0.1,0-0.1,0.1-0.2,0.1
							c-0.2,0.2-0.2,0.5-0.7,0.3c0,0,0,0,0,0c0,0,0,0,0,0c-0.1,0-0.2-0.1-0.3-0.2c0,0,0,0,0,0c0,0,0,0,0,0c-0.2-0.1-0.4-0.2-0.7-0.1
							c0,0,0,0,0,0c-0.2,0-0.3,0.1-0.4,0.3c-0.3,0.4-0.3,1.1-0.2,1.5c0,0.8,0.1,1.5,0.2,2.3c0,0.2,0.1,0.4,0.1,0.6
							c-0.1-0.3-0.2-0.5-0.3-0.8c-0.3-0.8-0.7-1.5-1.3-2.2c-0.2-0.2-0.7-1.1-1.1-1c0,0-0.1,0-0.1,0.1c0,0,0,0,0,0
							c-0.1,0.1-0.1,0.3-0.2,0.4c-0.1,0.1-0.1,0.2-0.2,0.3c0,0,0,0,0,0C36.4,19,36.2,19,36,19c-0.2,0-0.4-0.1-0.6-0.1
							c-0.1,0-0.2,0-0.3,0c0,0,0,0,0,0c-0.1,0-0.2,0-0.3,0.1c0,0,0,0,0,0C34.6,19.1,34.5,19.2,34.4,19.4z"/>
						<g>
							<path class="st2" d="M40.8,23.7c0,0,0.1,0,0.1,0c0,0,0.1-0.1,0.1-0.1c0.4-0.3,0.7-0.7,1-1.1c0.4-0.5,0.7-1.1,0.9-1.8
								c0.2-0.7,0.4-1.4,0.3-2.1c-0.1-0.5-0.2-1-0.5-1.4c0,0,0,0-0.1,0c0.3,0.5,0.5,1,0.5,1.6c0.1,0.7-0.1,1.4-0.3,2
								c-0.2,0.6-0.5,1.2-0.9,1.8c-0.2,0.3-0.5,0.6-0.8,0.9c0.6-0.8,0.9-1.8,1.1-2.8c0.3-1.2,0.2-2.3-0.2-3.5c0,0,0,0,0,0
								c0.4,1.1,0.4,2.3,0.2,3.4c-0.1,0.7-0.3,1.3-0.6,2C41.3,23,41.1,23.4,40.8,23.7C40.8,23.7,40.8,23.7,40.8,23.7z"/>
							<path class="st2" d="M38.7,20.9c0.5,0.9,1,1.9,1.4,2.9c0,0,0,0,0,0.1c0,0,0,0,0.1,0c0-0.2,0.1-0.4,0.1-0.7
								c0.5-1.8,0.9-3.7,0.9-5.5c0,0,0,0,0,0c0,1.8-0.4,3.7-0.8,5.5c0.3-1.9,0.5-3.8,0.5-5.7c0,0,0,0,0,0c-0.1,2-0.2,3.9-0.5,5.9
								c0,0,0,0,0,0c0,0,0,0,0,0c0,0.2,0,0.3-0.1,0.5c0,0,0,0,0,0c0-0.5,0-1,0-1.5c0-0.6-0.1-1.2-0.2-1.7c-0.1-0.6-0.1-1.3,0-1.9
								c0-0.5,0.1-0.9,0.2-1.3c0,0,0,0,0,0c-0.2,0.4-0.2,0.8-0.2,1.2c0,0.6,0,1.2,0,1.8c0,0.6,0.2,1.3,0.2,1.9c0,0.5,0,0.9,0,1.4
								C39.6,22.7,39.2,21.8,38.7,20.9c-0.5-1-1-1.9-1.8-2.7c0,0,0,0,0,0C37.6,19,38.1,20,38.7,20.9z"/>
							<path class="st2" d="M34.8,19c-0.1,1.2,0.8,2.3,1.7,3c0.2,0.2,0.4,0.3,0.6,0.5c0,0,0.1,0.1,0.1,0.1c0,0,0,0,0,0
								c0.8,0.6,1.6,1,2.6,1.2c0.1,0,0.1,0,0.2,0c-0.5-0.9-1-1.7-1.6-2.5c-0.6-0.8-1.2-1.7-1.8-2.5c0,0,0,0,0,0
								c0.6,0.8,1.3,1.6,1.8,2.5c0.6,0.8,1.1,1.6,1.6,2.5c-1.2-0.2-2.2-0.8-3.1-1.5c-0.4-0.4-0.7-0.9-1-1.4c-0.3-0.6-0.6-1.3-0.7-2
								c0,0,0,0,0,0c0,0.7,0.4,1.4,0.7,2c0.2,0.5,0.5,0.9,0.9,1.3c0,0-0.1,0-0.1-0.1C35.7,21.3,34.8,20.3,34.8,19
								C34.8,19,34.8,19,34.8,19z"/>
						</g>
					</g>
				</g>
			</g>
		</g>
		<g>
			<g>
				<g>
					<path class="st1" d="M7.9,38.2C7.9,38.2,7.9,38.2,7.9,38.2C7.9,38.2,7.9,38.2,7.9,38.2c-0.2-0.2-1.6-2-2-3
						c-0.4-1-0.5-2.3-0.5-3.3c0-0.3,0-0.9,0.3-0.9c0.3-0.1,0.4,0.4,0.5,0.6C7,33.3,7.7,37,7.9,38C7.9,38.1,7.9,38.2,7.9,38.2z"/>
					<path class="st2" d="M7.9,38c-0.4-1.7-0.9-3.4-1.4-5c-0.1-0.2-0.1-0.4-0.2-0.6c0-0.1-0.1-0.3-0.2-0.3c-0.2,0-0.1,0.7-0.1,0.8
						c0.1,0.9,0.3,1.8,0.6,2.7c0.2,0.5,0.5,1,0.7,1.4C7.4,37.3,7.6,37.7,7.9,38c0,0.1,0,0.2,0,0.2c0,0,0,0,0,0c0,0,0,0,0,0
						C7.9,38.2,7.9,38.1,7.9,38z M6.8,36.1c-0.4-0.8-0.6-1.6-0.7-2.5c-0.1-0.4-0.1-0.9-0.1-1.3c0,0,0-0.1,0-0.2c0.1-0.2,0.2,0,0.2,0
						c0.1,0.1,0.1,0.2,0.1,0.3c0.1,0.2,0.1,0.4,0.2,0.7C6.7,34,7,34.9,7.2,35.8c0.2,0.7,0.4,1.4,0.6,2.2C7.4,37.3,7.1,36.7,6.8,36.1
						z"/>
				</g>
				<g>
					<path class="st1" d="M6.4,39.5c0.4,0.5,0.7,1,1,1.5c0.3,0.6,0.6,1.1,0.9,1.7c0.2,0.6,0.4,1.3,0.8,1.8c0,0,0,0,0,0c0,0,0,0,0,0
						c0,0,0,0,0,0c0,0-2.2-1.8-2.9-2.9c-0.4-0.6-0.7-1.2-1-1.8c-0.2-0.5-0.4-1.3-0.1-1.5C5.4,38.1,6.1,39,6.4,39.5z"/>
					<path class="st2" d="M6,39.4c-0.1,0-0.1-0.1-0.2-0.1c-0.1,0.1-0.1,0.2,0,0.3c0,0.2,0.1,0.4,0.1,0.6c0.3,0.8,0.8,1.5,1.3,2.2
						c0.6,0.8,1.3,1.5,2,2.2c0,0,0,0,0,0c-0.6-0.7-1.1-1.4-1.6-2.2c-0.4-0.8-0.8-1.6-1.3-2.4C6.2,39.7,6.1,39.5,6,39.4z M6.1,39.6
						c0.1,0.2,0.3,0.4,0.4,0.6c0.4,0.7,0.8,1.5,1.2,2.2c0.4,0.7,0.9,1.5,1.5,2.1c-1.2-1-2.3-2.3-3-3.7C6,40.4,5.9,40,5.8,39.7
						c0-0.1-0.1-0.4,0.1-0.3C6,39.4,6.1,39.5,6.1,39.6z"/>
				</g>
				<g>
					<path class="st1" d="M10.5,35c-0.1,1-0.4,2.2-0.8,3.1c-0.4,1-1.1,1.9-1.6,2.9c0,0,0,0,0,0c0,0,0,0,0,0c0,0,0,0,0-0.1
						c0-1.2,0.1-2.4,0.5-3.6c0.2-0.6,0.4-1.1,0.6-1.7c0.2-0.5,0.3-1.1,0.6-1.6c0.1-0.2,0.3-0.4,0.5-0.2C10.6,34.1,10.5,34.7,10.5,35
						z"/>
					<path class="st2" d="M10,35.3c-0.2-0.3-0.4,0.4-0.4,0.5c-0.4,0.9-0.6,1.9-1,2.9c-0.3,0.8-0.4,1.6-0.5,2.4c0,0,0,0,0,0
						c0,0,0,0,0,0C8.4,40.4,8.7,39.7,9,39c0.4-0.9,0.7-1.8,0.9-2.7c0-0.2,0.1-0.4,0.1-0.6C10.1,35.6,10.1,35.4,10,35.3z M10,35.6
						c0,0.1,0,0.2,0,0.3c0,0.2-0.1,0.5-0.1,0.7C9.6,37.4,9.3,38.2,9,39c-0.3,0.7-0.5,1.3-0.8,2c0.1-0.6,0.2-1.2,0.3-1.8
						c0.2-0.9,0.6-1.7,0.8-2.6c0.1-0.2,0.1-0.4,0.2-0.6c0.1-0.2,0.1-0.4,0.2-0.6C10,35.1,10,35.4,10,35.6z"/>
				</g>
				<g>
					<path class="st1" d="M8.3,34.4C8.3,34.4,8.3,34.4,8.3,34.4C8.3,34.4,8.3,34.4,8.3,34.4C8.3,34.4,8.3,34.3,8.3,34.4
						c0.1-0.2,0.2-0.3,0.2-0.4c0,0,0,0,0-0.1c0,0,0,0,0,0c0.6-1.1,1.9-1.7,2.4-2.9c0.2-0.5,0.3-1.1,0.3-1.7c0-0.2,0.2-1-0.2-1.1
						c-0.3-0.1-0.5,0.3-0.7,0.5c-0.4,0.5-0.6,1.2-0.8,1.8c-0.2,0.6-0.4,1.2-0.5,1.8c-0.2,0.6-0.4,1.1-0.6,1.6
						C8.4,34,8.4,34.2,8.3,34.4z"/>
					<path class="st2" d="M8.3,34.4C8.3,34.4,8.3,34.4,8.3,34.4c0.1-0.1,0.1-0.2,0.2-0.3C8.4,34.2,8.4,34.2,8.3,34.4
						c0.1-0.2,0.2-0.3,0.2-0.4c0-0.1,0.1-0.1,0.1-0.2c0.4-0.6,0.8-1.2,1.3-1.7c0.2-0.3,0.4-0.5,0.5-0.9c0.2-0.6,0.5-1.9,0.3-2.1
						c-0.2-0.2-0.3,0.3-0.3,0.4c-0.3,0.8-0.6,1.6-0.9,2.4C9.3,32.5,9,33,8.7,33.5c-0.1,0.1-0.1,0.2-0.2,0.3
						C8.4,34,8.4,34.2,8.3,34.4z M8.9,33.2c0.3-0.5,0.5-1,0.8-1.5c0.2-0.4,0.3-0.9,0.5-1.3c0.1-0.2,0.2-0.4,0.2-0.7
						c0-0.1,0.2-0.5,0.3-0.5c0.1,0,0,0.4,0,0.5c-0.1,0.5-0.2,0.9-0.3,1.4c-0.1,0.5-0.4,0.8-0.7,1.2C9.4,32.6,9.2,32.9,8.9,33.2z"/>
				</g>
				<g>
					<path class="st1" d="M12.7,44.2c0.6,1.1,0.4,2.5,1.7,3.6c0,0,0,0,0,0c0,0,0,0,0,0c-0.1-0.1-0.3-0.2-0.4-0.3
						c-0.8-0.5-1.4-1.2-1.9-2c-0.3-0.5-0.5-1-0.7-1.5c-0.1-0.3-0.3-0.9-0.1-1.1C11.6,42.4,12.6,44,12.7,44.2z"/>
					<path class="st2" d="M11.6,43.8c-0.1,0.1,0.1,0.5,0.1,0.7c0.3,0.7,0.6,1.3,1.1,1.9c0.3,0.4,0.7,0.8,1.1,1.2c0,0,0,0,0,0
						c0.1,0.1,0.3,0.2,0.4,0.3c0,0,0,0,0,0c-0.2-0.1-0.3-0.3-0.5-0.4c-0.3-0.4-0.6-0.8-0.8-1.3c-0.3-0.7-0.5-1.5-1-2
						C12.1,44,11.8,43.7,11.6,43.8z M12,44c0.1,0.1,0.2,0.3,0.3,0.4c0.4,0.6,0.5,1.3,0.9,1.9c0.2,0.3,0.3,0.6,0.5,0.9
						c-0.2-0.2-0.4-0.4-0.6-0.6c-0.4-0.5-0.8-1.1-1.1-1.7c-0.1-0.3-0.5-1-0.4-1.1C11.7,43.8,12,44,12,44z"/>
				</g>
				<g>
					<path class="st1" d="M6.9,46.3c0.5,0.2,1,0.4,1.6,0.6c1,0.3,2.1,0.2,3.2,0c0,0,0,0,0.1,0c0.1,0,0.1,0,0.2,0c0,0,0,0,0,0
						c0,0,0,0,0,0l0,0c0,0,0,0,0,0c-0.1,0-0.1,0-0.2-0.1c-1.2-0.5-2.4-1.1-3.7-1.4c-0.3-0.1-2.1-0.5-2.1,0.2
						C6,45.9,6.7,46.2,6.9,46.3z"/>
					<path class="st2" d="M7.3,46.1c0.8,0.3,1.7,0.4,2.5,0.5c0.6,0.1,1.3,0.2,1.9,0.2c0.1,0,0.1,0,0.2,0c0,0,0,0,0.1,0c0,0,0,0,0,0
						l0,0c0,0,0,0,0,0c-0.1,0-0.1,0-0.2-0.1c-0.1,0-0.1,0-0.2,0c-0.7-0.2-1.4-0.4-2.1-0.7c-0.4-0.1-0.7-0.3-1.1-0.4
						c-0.4-0.1-0.8-0.2-1.1-0.2c-0.2,0-0.5,0-0.5,0.2C6.8,45.9,7.1,46.1,7.3,46.1z M7.2,45.6c0.5,0,0.9,0.2,1.4,0.3
						C9,46,9.4,46.1,9.8,46.3c0.4,0.2,0.9,0.3,1.3,0.4c-0.6,0-1.2-0.1-1.8-0.2c-0.5-0.1-0.9-0.2-1.4-0.3c-0.2-0.1-0.5-0.1-0.7-0.2
						C7.1,46,7.1,46,7,45.9C6.8,45.8,7,45.6,7.2,45.6z"/>
				</g>
			</g>
			<path class="st1" d="M8.1,34.7c0.2-2.2,0.5-4.4,0.9-6.5c0,0,0.1,0,0.1,0c-0.2,1.9-0.5,3.7-0.6,5.6c-0.2,1.8-0.4,3.7-0.4,5.5
				c0,1.7,0.3,3.5,1.2,5c0.8,1.3,2.1,2.3,3.6,2.9c1.9,0.8,3.9,1.1,5.9,1.3c0.1,0,0.1,0.1,0,0.1c-3.3-0.3-7-0.8-9.3-3.5
				C7.2,42.2,7.8,38.1,8.1,34.7z"/>
			<g>
				<path class="st1" d="M10,28.8c-0.2,0-0.4-0.2-0.6-0.3c-0.1-0.1-0.2-0.2-0.2-0.3c0,0,0,0.1,0,0.1c0.1,0.3,0.3,0.6,0.3,0.9
					c0,0.1,0,0.4-0.1,0.3c-0.2,0-0.3-0.4-0.3-0.6c0-0.2,0-0.4,0-0.6c-0.1,0.2-0.2,0.6-0.3,1c-0.1,0.2-0.2,0.2-0.3,0.2
					c-0.1,0-0.2-0.2-0.2-0.3c0.1-0.6,0.6-1.1,0.7-1.1c0,0,0,0,0,0c-0.2,0.2-1.1,0.5-1.3,0.4c-0.1-0.1-0.1-0.2,0-0.2
					c0.3-0.3,0.8-0.4,1-0.4c0.3,0,0.6,0,0.9,0.2c0.2,0.1,0.4,0.3,0.6,0.6C10.2,28.7,10.2,28.8,10,28.8z"/>
				<g>
					<g>
						<path class="st3" d="M11.2,26.5c-0.3,0.3-0.6,0.5-1,0.7c-0.2,0.2-0.5,0.4-0.8,0.3c0,0,0,0-0.1,0c0,0,0,0,0,0c0,0,0,0,0,0
							c0,0,0,0,0,0c0,0,0,0-0.1,0c0,0,0,0-0.1,0c0,0,0,0-0.1,0c0,0,0,0-0.1,0c0,0,0,0-0.1,0c0,0-0.1,0-0.1-0.1
							c-0.2-0.1-0.4-0.3-0.5-0.6c-0.6-0.8-0.6-2.1-0.7-3c0-0.6-0.2-1.4,0.2-1.9c0.1-0.1,0.3-0.2,0.4-0.2c0,0,0,0,0,0
							c0.2,0,0.4,0.1,0.6,0.2c0,0,0,0,0,0C9.1,21.9,9.3,22,9.5,22c0.2,0,0.5,0,0.7-0.1c0,0,0,0,0,0c0.1,0,0.3-0.1,0.4-0.1
							c0,0,0,0,0,0c0.2,0,0.4,0,0.6,0.1c0.2,0.1,0.2,0.2,0.3,0.4c0,0,0,0,0,0c0.1,0.2,0.2,0.3,0.3,0.4c0.1,0.1,0.2,0.1,0.2,0.1
							c0,0,0,0,0,0c0.2,0.1,0.3,0.1,0.5,0.3c0,0,0,0,0,0c0,0,0,0,0,0C13.5,24.4,11.9,25.9,11.2,26.5z"/>
						<path class="st2" d="M8.6,26.5c0.1,0.4,0.3,0.7,0.5,0.9c0,0-0.1,0-0.1-0.1c-0.2-0.2-0.3-0.5-0.4-0.7c-0.1-0.6-0.2-1.3-0.3-1.9
							c-0.1-0.6-0.2-1.2-0.2-1.8c0-0.4,0-0.9,0.2-1.3c0,0,0,0,0,0c-0.3,0.4-0.2,1.1-0.2,1.5c0,0.6,0.1,1.1,0.2,1.7
							C8.4,25.4,8.4,26,8.6,26.5z"/>
						<path class="st2" d="M8.9,21.8c-0.2,1-0.2,2-0.1,2.9c0,0.5,0.1,1.1,0.2,1.6c0,0.4,0.1,0.8,0.2,1.1c0,0,0,0-0.1,0
							c-0.1-0.3-0.1-0.7-0.1-1c-0.1-0.6-0.1-1.2-0.2-1.7C8.7,23.7,8.7,22.7,8.9,21.8C8.9,21.8,8.9,21.8,8.9,21.8z"/>
						<path class="st2" d="M10.7,21.9c-0.1,0.8-0.3,1.6-0.6,2.4c-0.1,0.5-0.3,1-0.5,1.4c-0.1,0.4-0.4,0.9-0.4,1.3c0,0.2,0,0.3,0,0.5
							c0,0,0,0-0.1,0c0-0.4,0.1-0.7,0.1-1.1c0.1-0.6,0.1-1.2,0.2-1.7c0.2-0.9,0.4-1.8,0.7-2.7c0,0,0,0,0,0c-0.3,0.9-0.6,1.8-0.7,2.8
							c-0.1,0.6-0.2,1.1-0.2,1.7c0,0.1,0,0.3,0,0.4c0.1-0.3,0.2-0.7,0.3-1c0.2-0.5,0.3-0.9,0.5-1.4C10.3,23.6,10.5,22.8,10.7,21.9
							C10.7,21.9,10.7,21.9,10.7,21.9z"/>
						<path class="st2" d="M12.2,23c-0.1,0.8-0.5,1.5-0.9,2.2c-0.3,0.5-0.6,0.9-1,1.3c-0.2,0.2-0.3,0.4-0.5,0.6
							c-0.2,0.2-0.3,0.4-0.5,0.5c0,0,0,0,0,0c0.5-0.8,1.1-1.6,1.5-2.5c0.4-0.8,0.7-1.7,0.8-2.6c0,0,0,0,0,0
							c-0.1,0.9-0.4,1.8-0.8,2.6c-0.4,0.9-1,1.6-1.5,2.4c0.1-0.1,0.3-0.3,0.4-0.4c0.2-0.2,0.4-0.4,0.5-0.6c0.3-0.4,0.7-0.8,0.9-1.3
							C11.7,24.5,12,23.8,12.2,23C12.2,23,12.2,23,12.2,23z"/>
						<path class="st2" d="M12.7,23.3c0,0.2,0,0.5-0.1,0.7c-0.2,0.5-0.5,1-0.9,1.4c-0.4,0.4-0.8,0.8-1.2,1.2
							c-0.4,0.3-0.7,0.6-1.1,0.9c0,0,0,0,0,0c0.4-0.3,0.7-0.5,1.1-0.8c0.4-0.4,0.8-0.7,1.2-1.1c0.4-0.4,0.7-0.8,0.9-1.4
							C12.7,23.9,12.7,23.6,12.7,23.3C12.7,23.3,12.7,23.3,12.7,23.3z"/>
					</g>
					<path class="st1" d="M11.7,26c-0.1,0.4-0.5,0.5-0.8,0.6c-0.5,0.1-1,0-1.5-0.1C9.1,26.4,8.5,26.3,8,26c-0.2-0.1-0.4-0.2-0.5-0.3
						c-0.2-0.2-0.1-0.4,0-0.6c0,0,0,0,0,0c0,0,0,0,0,0c0.1-0.2,0.2-0.3,0.4-0.4c0.7-0.6,1.6-0.7,2.5-0.4c0.4,0.1,0.7,0.3,1,0.6
						C11.6,25.1,11.9,25.6,11.7,26z"/>
					<g>
						<path class="st4" d="M13.8,24.3c0.1,0.5-0.3,1.2-0.6,1.6c-0.8,1.2-2.6,2.1-3.9,2.1c-0.1,0-0.1,0-0.2,0c0,0,0,0,0,0
							c0,0,0,0,0,0c0,0,0,0,0,0c-0.2,0-0.3-0.1-0.5-0.1c0,0-0.1,0-0.1,0c-0.8-0.3-1.4-1-1.7-1.8C6.3,25.2,6,24,6.5,23
							c0.1-0.2,0.3-0.5,0.5-0.6c0,0,0,0,0,0c0.1,0,0.1,0,0.2,0c0.1,0,0.2,0,0.2,0c0,0,0,0,0,0c0.1,0,0.1,0.1,0.2,0.1
							c0.2,0.2,0.2,0.4,0.5,0.3c0,0,0,0,0,0c0,0,0,0,0,0c0.1,0,0.2-0.1,0.3-0.2c0,0,0,0,0,0c0,0,0,0,0,0c0.2-0.1,0.4-0.1,0.5-0.1
							c0,0,0,0,0,0c0.1,0,0.3,0.1,0.4,0.2c0.3,0.3,0.2,0.9,0.2,1.3c0,0.6-0.1,1.3-0.2,1.9c0,0.2-0.1,0.4-0.1,0.5
							c0.1-0.2,0.2-0.4,0.3-0.7c0.3-0.6,0.6-1.3,1.1-1.8c0.2-0.2,0.6-0.9,0.9-0.8c0,0,0.1,0,0.1,0c0,0,0,0,0,0
							c0.1,0.1,0.1,0.3,0.1,0.4c0,0.1,0.1,0.2,0.1,0.2c0,0,0,0,0,0c0.1,0.1,0.2,0.1,0.4,0.1c0.2,0,0.3-0.1,0.5-0.1
							c0.1,0,0.1,0,0.2,0c0,0,0,0,0,0c0.1,0,0.2,0,0.3,0.1c0,0,0,0,0,0C13.6,24,13.8,24.1,13.8,24.3z"/>
						<g>
							<path class="st2" d="M8.5,27.9C8.5,27.9,8.5,27.9,8.5,27.9c-0.1-0.1-0.1-0.1-0.2-0.1c-0.3-0.3-0.6-0.6-0.8-0.9
								c-0.3-0.4-0.5-1-0.7-1.5c-0.2-0.6-0.3-1.1-0.2-1.7c0.1-0.4,0.2-0.8,0.4-1.2c0,0,0,0,0,0c-0.2,0.4-0.4,0.8-0.4,1.3
								c0,0.6,0.1,1.2,0.3,1.7c0.2,0.5,0.4,1,0.7,1.5c0.2,0.3,0.4,0.5,0.6,0.7c-0.5-0.7-0.8-1.5-0.9-2.3c-0.2-1-0.2-2,0.2-2.9
								c0,0,0,0,0,0c-0.4,0.9-0.4,1.9-0.2,2.9c0.1,0.6,0.3,1.1,0.5,1.6C8.1,27.3,8.3,27.6,8.5,27.9C8.5,27.9,8.5,27.9,8.5,27.9z"/>
							<path class="st2" d="M10.3,25.5c-0.4,0.8-0.8,1.6-1.1,2.4c0,0,0,0,0,0.1c0,0,0,0,0,0c0-0.2-0.1-0.4-0.1-0.5
								c-0.4-1.5-0.7-3-0.7-4.6c0,0,0,0,0,0c0,1.5,0.3,3.1,0.7,4.5c-0.3-1.6-0.4-3.1-0.4-4.7c0,0,0,0,0,0c0,1.6,0.2,3.3,0.4,4.9
								c0,0,0,0,0,0c0,0,0,0,0,0c0,0.1,0,0.3,0.1,0.4c0,0,0,0,0,0c0-0.4,0-0.8,0-1.2c0-0.5,0.1-1,0.1-1.5c0-0.5,0.1-1,0-1.6
								c0-0.4,0-0.8-0.2-1.1c0,0,0,0,0,0c0.1,0.3,0.2,0.7,0.2,1c0,0.5,0,1,0,1.5c0,0.5-0.1,1.1-0.2,1.6c0,0.4,0,0.8,0,1.2
								C9.5,27.1,9.8,26.3,10.3,25.5c0.4-0.8,0.8-1.6,1.5-2.3c0,0,0,0,0,0C11.2,23.9,10.7,24.7,10.3,25.5z"/>
							<path class="st2" d="M13.5,24c0.1,1-0.7,1.9-1.4,2.5c-0.2,0.1-0.3,0.3-0.5,0.4c0,0-0.1,0.1-0.1,0.1c0,0,0,0,0,0
								c-0.6,0.5-1.4,0.9-2.2,1c-0.1,0-0.1,0-0.2,0c0.4-0.7,0.9-1.4,1.3-2.1c0.5-0.7,1-1.4,1.5-2.1c0,0,0,0,0,0
								c-0.5,0.7-1,1.3-1.5,2c-0.5,0.7-0.9,1.4-1.3,2.1c1-0.2,1.8-0.7,2.6-1.3c0.3-0.3,0.6-0.8,0.8-1.2c0.3-0.5,0.5-1.1,0.6-1.6
								c0,0,0,0,0,0c0,0.6-0.3,1.1-0.5,1.6c-0.2,0.4-0.4,0.8-0.7,1.1c0,0,0,0,0.1-0.1C12.7,25.9,13.5,25,13.5,24
								C13.5,24,13.5,24,13.5,24z"/>
						</g>
					</g>
				</g>
			</g>
		</g>
	</g>
	<g>
		<path class="st5" d="M4.1,48.6c10.4-0.1,31.3-0.1,41.7,0C35.5,48.6,14.5,48.6,4.1,48.6L4.1,48.6z"/>
	</g>
	<g>
		<g>
			<g>
				<g>
					<g>
						<path class="st6" d="M36.2,48.6H25c-0.5-2-2.7-13.1-2.7-13.1c0,0,0-0.1,0-0.1c0,0,0,0,0,0h11.2c0,0,1.6,4.5,2,6.6
							C35.8,43.7,36.2,48.6,36.2,48.6z"/>
					</g>
				</g>
				<g>
					<g>
						<path class="st6" d="M33.2,35.4C33.2,35.4,33.2,35.4,33.2,35.4c0.2-0.2-1.5,8.5-2.4,9.8c0,0-3.1,1.5-3.3,1.5
							c0,0-0.9,1.8-0.9,1.8H13.8l0.8-2.3c-0.1-0.4-0.2-2.3,0-3.5c0.4-2.2,3.3-7.4,3.3-7.4L33.2,35.4z"/>
						<path class="st5" d="M26.8,48.6h-0.3c0.2-0.4,1-2,1-2c0,0,0.1,0,0.1,0C27.6,46.6,27,48.1,26.8,48.6z"/>
					</g>
					<g>
						<path class="st5" d="M25.1,47.8c0.5-0.4,1.1-0.7,1.6-1c0.6-0.3,1.1-0.6,1.7-0.9c1.1-0.5,2.3-0.9,3.5-1.3c0,0,0.1,0,0,0.1
							c-1.1,0.5-2.3,1.1-3.4,1.6c-0.6,0.3-1.2,0.5-1.7,0.8C26.2,47.3,25.7,47.6,25.1,47.8C25.1,47.8,25.1,47.8,25.1,47.8z"/>
						<path class="st5" d="M28.2,42.2c0-0.6,0.1-1.1,0.1-1.7c0.1-1.3,0.1-2.7,0.2-4c0-0.1,0.1-0.1,0.1,0c0,1,0,2.1,0,3.1
							c0,0.5,0,1,0,1.5c0,0.5,0,1,0,1.5c0,0.4,0.1,1.1,0.6,1.1c0.5,0,0.7-0.4,0.8-0.8c0.3-0.9,0.4-1.9,0.5-2.9
							c0.1-0.6,0.1-1.1,0.1-1.7c0-0.6,0.1-1.4,0-2c0,0,0.1,0,0.1,0c0.1,0.5,0.1,1.5,0.1,2.1c-0.1,5.2-0.9,5.5-1.4,5.6
							c-0.1,0-0.1,0-0.2,0c0,0.1,0,0.2,0,0.4c0,0.2,0,0.4-0.1,0.6c0,0.2-0.1,0.4-0.1,0.5c0,0.2-0.1,0.4-0.2,0.5c0,0-0.1,0-0.1,0
							c0-0.2,0-0.4,0-0.5c0-0.2,0.1-0.4,0.1-0.5c0-0.2,0.1-0.4,0.1-0.5c0-0.1,0-0.2,0.1-0.4c-0.3,0-0.5-0.2-0.6-0.5
							C28.2,43.2,28.2,42.6,28.2,42.2z"/>
						<path class="st5" d="M19.1,41.6c0.7,0.1,1.5,0.1,2.2,0.1c0.7-0.1,1.4-0.3,1.9-0.7c1.2-0.9,1.7-2.5,2.1-3.9c0,0,0.1,0,0.1,0
							c-0.1,1.2-0.4,2.5-1.2,3.5c-0.4,0.4-0.8,0.8-1.3,1.1c-0.5,0.3-1.1,0.4-1.7,0.3C20.5,41.9,19.8,41.8,19.1,41.6
							C19.1,41.6,19.1,41.6,19.1,41.6z"/>
						<path class="st5" d="M34.4,41.3c-0.2,0-0.4,0-0.6-0.2c-0.2-0.1-0.4-0.4-0.5-0.9c-0.4-1-0.5-2.4-0.6-3.8c0,0,0,0,0,0
							c0.1,1.2,0.2,2.4,0.4,3.3c0.1,0.4,0.2,0.8,0.4,1.1c0.2,0.3,0.3,0.4,0.5,0.5C34.1,41.5,34.3,41.5,34.4,41.3
							C34.5,41.4,34.5,41.3,34.4,41.3z"/>
						<path class="st5" d="M19,35.9c-0.7,2.1-1.5,4.2-2.2,6.2c-0.2,0.6-0.5,1.2-0.5,1.9c0,0.7,0,1.3,0,2c-0.1,0.4-0.3,0.8-0.4,1.2
							c-0.1,0.4-0.3,0.8-0.4,1.2c0.1-0.4,0.2-0.8,0.3-1.2c0.1-0.4,0.2-0.8,0.3-1.2c-0.1-0.5-0.1-1.3-0.1-2c0-0.2,0-0.5,0.1-0.7
							c0.3-0.9,0.6-1.7,0.9-2.5C17.7,39.2,18.3,37.5,19,35.9L19,35.9z"/>
					</g>
				</g>
			</g>
		</g>
		<g>
			<g>
				<g>
					<g>
						<path class="st7" d="M34.9,38.8l-19.1,0.7c0,0-0.5-1.7-0.3-2.5c2.1-7.2-0.7-13.6,3.3-20c1.6-2.6,7.6-1.2,8.4,0
							c2.8,3.9,7.9,15.5,8.5,19.6C35.8,37.3,34.9,38.8,34.9,38.8z"/>
					</g>
				</g>
				<g>
					<g>
						<g>
							<path class="st8" d="M18,21.2c0,9.9,1.6,16.2,5.8,16.4c2.8,0.1,2.8-5.4,2.7-5.6c-0.1-0.6-2.2-6.6-4.7-12
								C19.1,14.1,18,17.2,18,21.2z"/>
						</g>
					</g>
					<g>
						<path class="st7" d="M24.8,26.3l-7.3,4c0,0-0.1-9.1,0.6-11.8c0.8-3,2.2-2,3.7,0.6C23.3,21.6,24.8,26.3,24.8,26.3z"/>
						<g>
							<path class="st5" d="M23.8,25.1c-1,0.4-3.8,1.9-4.3,2.2c-0.2,0.1-1.2,0.7-1.5,0.8c0,0,0,0.1,0,0c0.5-0.2,1-0.5,1.4-0.7
								C20.1,27.2,23,25.7,23.8,25.1C23.9,25.1,23.8,25.1,23.8,25.1z"/>
							<path class="st5" d="M17.7,22.1C17.7,22,17.6,22,17.7,22.1c-0.1,0.8-0.2,1.5-0.2,2.3c-0.1-0.4-0.1-0.8-0.1-1.2c0,0,0,0,0,0
								c0,0.5,0,0.9,0.1,1.4c0,0.5-0.1,1.1-0.1,1.6c0,1.4-0.1,2.7-0.1,4.1c0,0.1,0.1,0.1,0.1,0.1c0.2-0.1,0.5-0.3,0.7-0.5
								c0,0,0-0.1,0-0.1c-0.2,0.1-0.4,0.2-0.7,0.3c0.1-1.3,0.1-2.7,0.1-4C17.7,24.8,17.7,23.4,17.7,22.1z"/>
							<path class="st5" d="M23.7,22.9c-0.1-0.4-0.2-0.8-0.3-1.3c0,0,0,0,0,0c0.1,0.3,0.1,0.6,0.2,0.9c-0.2-0.6-0.5-1.2-0.8-1.8
								c0,0,0,0,0,0c0.3,0.9,0.6,1.8,1,2.7c0.3,0.9,0.6,1.8,1,2.7c-0.2,0.1-0.3,0.2-0.5,0.3c0,0,0,0.1,0,0c0.2-0.1,0.4-0.2,0.6-0.3
								c0,0,0.1-0.1,0.1-0.1C24.6,25.1,24.2,24,23.7,22.9z"/>
						</g>
					</g>
				</g>
				<g>
					<g>
						<path class="st8" d="M23.2,37.5c2.5,0.5,7.6-2.5,12-6.9c1-1-3.3-8.1-4.3-7.2c-3.1,2.9-8,6.4-8.9,9.4
							C21.6,34.1,21.5,37.2,23.2,37.5z"/>
					</g>
					<path class="st8" d="M31.3,23.9c0-0.7-0.5-2.8-0.3-3c0.2-0.3,4.1,2.6,4.6,3.8c0.6,1.2,0.7,4.2,0.6,4.7
						c-0.1,0.5-1.6,1.7-1.6,1.7L31.3,23.9z"/>
					<path class="st5" d="M30.3,24c-2.3,2-4.7,4-6.7,6.3c-0.3,0.3-0.6,0.7-0.8,1.1c-0.3,0.7-0.5,1.4-0.7,2.2
						c-0.1,0.6-0.2,1.2-0.3,1.8c0-0.6,0.1-1.2,0.2-1.8c0.1-0.8,0.3-1.5,0.6-2.2c0.2-0.4,0.5-0.8,0.8-1.1
						C25.5,27.8,27.9,25.9,30.3,24L30.3,24z"/>
				</g>
				<g>
					<g>
						<g>
							<path class="st8" d="M28.6,17.9c4.9,5.1,9.1,10.1,6.9,14.9c-1.2,2.5-5.6-3.4-5.5-3.8c0-0.3-1.4-5.2-3.3-9.9
								C24.6,14.3,27.4,16.6,28.6,17.9z"/>
						</g>
						<path class="st5" d="M34.2,24.6c1,1.5,2.1,3.7,1.9,5.5c0-0.1,0-0.2,0-0.4c0-0.8-0.3-1.7-0.6-2.5
							C35.1,26.4,34.7,25.5,34.2,24.6L34.2,24.6z"/>
					</g>
					<g>
						<path class="st7" d="M28.7,26.4l6.4-2c0,0-5.4-6.6-7.8-8c-2.7-1.5-2.5-0.5-1.3,2.7C27,21.9,28.7,26.4,28.7,26.4z"/>
						<g>
							<path class="st5" d="M28.6,24.7c0.8-0.3,3.3-1,3.7-1.2c0.2-0.1,1.1-0.3,1.3-0.3c0,0,0,0,0,0c-0.4,0.1-0.8,0.3-1.2,0.4
								C32,23.8,29.5,24.6,28.6,24.7C28.6,24.8,28.6,24.7,28.6,24.7z"/>
						</g>
						<path class="st5" d="M29.7,26.1c-0.3,0.1-0.7,0.3-1,0.4c-0.4-1.1-0.8-2.3-1-3.4c-0.3-1.1-0.5-2.3-0.6-3.5c0.3,1.3,0.7,3,1,4.3
							c0.2,0.8,0.4,1.7,0.7,2.6c0,0-0.1,0-0.1,0C29,26.2,29.3,26.1,29.7,26.1L29.7,26.1z"/>
					</g>
				</g>
				<g>
					<path class="st8" d="M34.6,33.4c-1.5,0.2-5.2,0.2-11.8-3.7c-0.9-0.5,2.2-8,3.2-7.5c1.3,0.7,6.7,3.9,7,4.2
						C35.1,28.5,35.9,33.2,34.6,33.4z"/>
					<g>
						<g>
							<path class="st8" d="M20.9,21.5c-0.1-0.7-1.1-2-1.5-3c-0.4-1-0.4-2,0-1.9c0.4,0.1,0.8,0.5,1.8,1.6c0.7,0.7,2.7,1.5,3.9,3
								C25.7,22,21,22.3,20.9,21.5z"/>
							<path class="st8" d="M20.9,21.5c-0.1-0.7-1.1-2-1.5-3c-0.4-1-0.4-2,0-1.9c0.4,0.1,0.8,0.5,1.8,1.6c0.7,0.7,2.7,1.5,3.9,3
								C25.7,22,21,22.3,20.9,21.5z"/>
							<path class="st9" d="M20.9,21.5c-0.1-0.7-1.1-2-1.5-3c-0.4-1-0.4-2,0-1.9c0.4,0.1,0.8,0.5,1.8,1.6c0.7,0.7,2.7,1.5,3.9,3
								C25.7,22,21,22.3,20.9,21.5z"/>
						</g>
						<path class="st8" d="M15,20.6c-0.1,0.9,1.3,0.8,1.3,0.8s-0.6,0.3-0.8,0.9c-0.2,0.7,0.7,1.3,0.7,1.3s-0.5,0.4-0.6,1
							c-0.1,0.6,0.7,1.4,0.7,1.4s-0.3,0.6,0,1.3c0.5,1.1,5.9,2.3,6.7,2.5l3.7-6.6c0,0-2.7-4.3-6.8-4.1C18.8,19.1,15.1,19.2,15,20.6z
							"/>
						<g>
							<path class="st5" d="M16.3,21.4c1.2-0.3,2.5-0.2,3.7-0.2c0,0,0,0,0,0C18.8,21.2,17.5,21.5,16.3,21.4
								C16.3,21.4,16.3,21.4,16.3,21.4z"/>
							<path class="st5" d="M16.3,23.5c0.3,0,0.6,0,0.8,0c0.3,0,0.6,0.1,0.9,0.1c0.6,0.1,1.2,0.2,1.8,0.3c0,0,0,0,0,0
								c-0.6-0.1-1.2-0.1-1.8-0.2c-0.3,0-0.6,0-0.9-0.1C16.8,23.6,16.5,23.6,16.3,23.5C16.2,23.5,16.2,23.5,16.3,23.5z"/>
							<path class="st5" d="M16.3,26c0.2-0.1,0.5,0,0.8,0.1c0.3,0,0.5,0.1,0.8,0.1c0.5,0.1,1.1,0.1,1.6,0.2c0,0,0,0,0,0
								c-0.6-0.1-1.1-0.1-1.7-0.2c-0.3,0-0.5-0.1-0.8-0.1C16.8,26.2,16.5,26.2,16.3,26C16.3,26,16.3,26,16.3,26z"/>
						</g>
						<path class="st5" d="M15.3,20c1.1-0.5,2.3-0.8,3.4-0.9c2.3-0.1,4,0.3,4.3,0.5c-0.6-0.4-2.2-0.8-4.3-0.6
							C15.9,19.2,15.3,20,15.3,20z"/>
					</g>
					<path class="st5" d="M26.2,22.4c1.7,0.9,3.4,1.9,5.1,3c0.5,0.3,1.1,0.6,1.6,1c0.9,1,1.5,2.3,2.1,3.5c-0.2-0.4-0.5-0.9-0.7-1.3
						c-0.2-0.4-0.5-0.8-0.8-1.2c-0.3-0.4-0.6-0.8-1-1.1l-1.3-0.8C29.6,24.5,27.9,23.5,26.2,22.4L26.2,22.4z"/>
					<path class="st5" d="M16.7,27.7c0.4,0.3,1,0.4,1.5,0.6c1,0.3,2,0.6,3.1,0.9c0.5,0.1,1.1,0.3,1.6,0.4c3,1.9,6.3,3.3,9.7,3.8
						c0,0-0.7-0.1-0.7-0.1c-0.2,0-0.5-0.1-0.7-0.1c-2.6-0.5-5.1-1.5-7.4-2.8c-0.3-0.2-0.9-0.5-1.1-0.7c-1.5-0.4-3.1-0.9-4.6-1.4
						C17.7,28.2,17.2,28.1,16.7,27.7L16.7,27.7z"/>
				</g>
				<g>
					<g>
						<g>
							<path class="st8" d="M25.4,18.6c-1,0.6-3.5-0.4-4.7-1.5c-0.1-0.1-0.3-1.1-0.5-2.4c-0.2-0.8-0.4-1.6-0.6-2.3l5.1-0.4
								c0,0,0.1,1.7,0.5,3c0,0.1,0.1,0.2,0.1,0.3c0,0,0,0,0,0C25.6,15.8,26.4,18,25.4,18.6z"/>
						</g>
						<path class="st5" d="M25,14.1c-1.5,2.1-3.7,2-4.4,1.9c-0.1-0.4-0.2-0.8-0.3-1.3c-0.2-0.8-0.4-1.6-0.6-2.3l5.1-0.4
							C24.7,11.9,24.7,13,25,14.1z"/>
					</g>
					<g>
						<g>
							<path class="st8" d="M21.1,4.8c1.5,1,4,5.6,3.7,7.2c-0.4,2.4-2.6,4.4-5,3.6c-2.4-0.8-5.5-6.8-5-8.4
								C15.4,4.7,18.9,3.3,21.1,4.8z"/>
						</g>
						<line class="st10" x1="24.9" y1="12.7" x2="24.9" y2="12.7"/>
						<g>
							<path class="st5" d="M19.4,9.2c-0.1,0-0.3,0.1-0.4,0.1c-0.2,0-0.3,0.1-0.5,0c-0.1,0-0.1-0.2-0.1-0.3c0.1-0.2,0.3-0.3,0.5-0.4
								c0.2-0.1,0.4,0,0.6,0C19.7,8.9,19.6,9.2,19.4,9.2z"/>
							<path class="st5" d="M16.5,10.9c0.1-0.1,0.2-0.2,0.3-0.3c0.1-0.1,0.2-0.2,0.3-0.4c0-0.1-0.1-0.2-0.2-0.2
								c-0.2-0.1-0.4,0.1-0.6,0.2c-0.2,0.2-0.3,0.3-0.3,0.5C16.1,10.9,16.3,11,16.5,10.9z"/>
							<path class="st5" d="M21.3,13c0,0.1,0,0.2-0.2,0.3c-0.1,0.1-0.2,0.1-0.4,0.1c0,0,0,0,0,0c0.1,0.1,0.3,0,0.5-0.1
								C21.4,13.3,21.4,13.2,21.3,13C21.3,13,21.3,13,21.3,13z"/>
							<g>
								<g>
									<path class="st5" d="M20.5,12.3c0,0.4-0.2,0.6-0.4,0.8c-0.1,0.1-0.2,0.2-0.4,0.2c0,0,0,0-0.1,0c0,0,0,0-0.1,0
										c0,0-0.1,0-0.1,0l0,0c0,0,0,0,0,0c0,0,0,0,0,0l0,0c-0.1-0.2-0.3-0.6-0.3-0.6c-0.1,0.1-0.4,0.5-0.4,0.4
										c-0.5-1-1.1-2.2-1.4-3.3c0,0,0-0.1,0.1,0c0.5,1,0.9,2,1.4,3c0.1-0.1,0.3-0.4,0.4-0.4c0,0,0.3,0.7,0.4,0.8c0,0,0,0,0,0
										C20,13.1,20.2,12.8,20.5,12.3C20.4,12.3,20.5,12.3,20.5,12.3z"/>
								</g>
							</g>
							<g>
								<g>
									<path class="st5" d="M17.7,11.6C17.7,11.6,17.7,11.6,17.7,11.6c0.2,0.3,0.4,0.6,0.2,0.9c0,0,0,0,0,0
										C18.2,12.2,17.9,11.8,17.7,11.6z"/>
								</g>
								<path class="st5" d="M17.9,11.9c0,0.1,0.1,0.2,0,0.3c0,0.1-0.1,0.2-0.1,0.2c-0.1,0.1-0.2,0.1-0.3,0c-0.1,0-0.2-0.1-0.2-0.1
									c0,0-0.1-0.1-0.1-0.1c-0.1-0.1-0.1-0.2-0.1-0.3c0,0.1,0.1,0.1,0.1,0.2c0.1,0.1,0.1,0.1,0.2,0.1c0.1,0.1,0.2,0.1,0.3,0.1
									c0.1-0.1,0.1-0.2,0.1-0.3c0-0.1-0.1-0.3-0.2-0.4C17.7,11.6,17.8,11.7,17.9,11.9z"/>
							</g>
							<g>
								<g>
									<path class="st5" d="M19.3,10.5C19.3,10.5,19.4,10.5,19.3,10.5c0.2,0.3,0.4,0.6,0.7,0.5c0,0,0,0,0,0
										C19.7,11.2,19.4,10.8,19.3,10.5z"/>
								</g>
								<path class="st5" d="M19.5,10.8c0.1,0.1,0.1,0.1,0.2,0.1c0.1,0,0.2,0,0.3,0c0.1-0.1,0.1-0.2,0.1-0.2c0-0.1,0-0.2,0-0.3
									c0,0,0-0.1-0.1-0.1c-0.1-0.1-0.1-0.2-0.2-0.2c0,0.1,0.1,0.1,0.1,0.2c0,0.1,0.1,0.1,0.1,0.2c0,0.1,0,0.3-0.1,0.3
									C19.8,10.9,19.7,10.8,19.5,10.8c0-0.2-0.1-0.3-0.2-0.4C19.3,10.6,19.4,10.7,19.5,10.8z"/>
							</g>
						</g>
						<g>
							<path class="st5" d="M24,7.9c-1,0.9-2.6,0.1-3.1-1.1c0,0-2.5,2.6-4.5,0.5c0,0,0.1,1.4-1.1,2.5l0.4,1.1
								c-0.4,0.1-1.3-0.4-1.1-1.6c0,0-0.9-1.2-0.6-2.5C14.3,5.2,15.5,5,15.5,5s0.2-1.1,1.4-1.8c1.2-0.7,2.3-0.1,2.3-0.1
								s1.6-0.8,2.6,0c1,0.8,1,1.9,1,1.9s0.7,0.1,1.2,1.1C24.4,6.8,24.3,7.6,24,7.9z"/>
							<path class="st5" d="M16.3,6.9c0.1,0.2,0.3,0.4,0.4,0.6c0.2,0.2,0.3,0.3,0.5,0.5c0.4,0.3,0.9,0.4,1.3,0.3
								c0.5,0,0.9-0.3,1.3-0.6c0.2-0.2,0.4-0.3,0.5-0.5c0.2-0.2,0.3-0.3,0.5-0.5c-0.1,0.2-0.3,0.4-0.5,0.6c-0.2,0.2-0.3,0.3-0.5,0.5
								c-0.4,0.3-0.8,0.6-1.3,0.6c-0.5,0.1-1-0.1-1.4-0.4C16.8,7.8,16.5,7.4,16.3,6.9z"/>
							<path class="st5" d="M15.8,9.4c0.2-0.4,0.4-0.7,0.5-1.1c0.1-0.2,0.1-0.4,0.1-0.6c0-0.2-0.1-0.4-0.1-0.6
								c0.1,0.2,0.2,0.4,0.2,0.6c0,0.2,0,0.4,0,0.7c-0.1,0.2-0.1,0.4-0.2,0.6C16.1,9.1,16,9.3,15.8,9.4z"/>
						</g>
						<g>
							<path class="st8" d="M22.7,9c0,0-0.1-2,0.7-2.1c0.8-0.1,1.6,2.3,1.1,3.1c-0.5,0.8-1.2,0.3-1.2,0.3L22.7,9z"/>
							<path class="st5" d="M23.6,7.6C23.7,7.6,23.7,7.6,23.6,7.6c-0.3,0.6-0.2,1.2,0,1.8c0-0.3,0.1-0.5,0.5-0.6c0,0,0,0,0,0
								c-0.2,0.1-0.3,0.3-0.4,0.5c0,0.2,0,0.4,0.1,0.6c0,0.1-0.1,0.1-0.1,0c0,0,0,0,0,0C23.2,9.4,23,8.2,23.6,7.6z"/>
						</g>
					</g>
				</g>
			</g>
		</g>
	</g>
	<g>
		<path class="st11" d="M34.9,15.9c0,0,3.2-1.2,4.6-2.7c1.4-1.5,1.6-3.1,1-3.5c-0.9-0.6-2.7,2.2-2.7,2.2s1.4-4-0.3-4.3
			c-1.4-0.3-1.6,4.4-2.1,6.3C35.2,15,34.9,15.9,34.9,15.9z"/>
		<path class="st11" d="M34.4,8c0,0,1-1.9,1.1-3.4c0.1-1.5-0.3-2.4-0.8-2.4c-0.6,0-0.5,2.2-0.5,2.2s-0.8-2.5-1.6-2
			c-0.9,0.5,0.5,2.9,1.1,4.2C34.1,7.4,34.4,8,34.4,8z"/>
		<path class="st11" d="M11.7,20.1c0,0-1.4-1.3-2.1-2.4c-0.7-1.1-0.6-1.8-0.2-1.9c0.5-0.2,1.4,1.4,1.4,1.4s-0.3-2.1,0.5-1.9
			c0.8,0.2,0.9,2,0.6,3.5C11.8,19.5,11.7,20.1,11.7,20.1z"/>
	</g>
</g>
</svg>
