<svg width="24" height="46" viewBox="0 0 24 46" fill="none" xmlns="http://www.w3.org/2000/svg">
<path d="M0.0295207 4.6C0.129521 6.11 0.0695207 7.63 0.0895207 9.14C0.109521 10.59 0.479521 11.68 2.04952 11.96C2.51952 12.02 3.02952 12.24 2.86952 12.8C2.61952 13.59 1.16952 12.89 0.369521 13.95C-0.130479 14.62 0.169521 16.08 0.169521 16.92C0.269521 18.27 0.0695207 19.65 0.289521 20.99C0.499521 22.02 1.24952 22.46 2.22952 22.58C2.62952 22.65 3.27952 22.61 3.32952 23.1C3.32952 23.44 2.84952 23.47 2.57952 23.44C0.589521 23.26 0.639521 24.81 0.659521 26.32C0.649521 27.64 0.849521 28.96 1.07952 30.25C1.27952 31.73 1.62952 32.09 3.16952 32.13C3.56952 32.13 4.00952 32.01 4.30952 32.35C4.83952 33.02 5.13952 33.09 5.97952 33.27C6.95952 33.48 7.98952 33.51 8.98952 33.51C9.60952 33.51 9.81952 33.81 9.80952 34.39C9.80952 34.96 9.80952 35.54 9.80952 36.11C9.80952 36.93 9.85952 37.75 9.87952 38.57C9.91952 39.78 9.74952 40.99 9.59952 42.19C9.50952 42.89 9.41952 43.6 9.42952 44.31C9.42952 44.48 9.44952 44.68 9.49952 44.83C9.52952 44.92 9.57952 44.98 9.64952 45.03C9.76952 45.09 9.92952 45 10.0595 44.81C10.1395 44.69 10.2095 44.55 10.2495 44.39C10.4195 43.83 10.5295 43.24 10.5995 42.65C10.7295 41.27 10.6495 39.89 10.6695 38.5C10.6695 37.12 10.7095 35.73 10.4895 34.37C10.3995 33.88 10.4895 33.53 11.0295 33.54C11.2695 33.54 11.5195 33.65 11.5795 33.9C11.7395 34.35 11.4295 35.21 11.8495 35.61C12.0195 35.76 12.2695 35.89 12.3195 35.55C12.4195 35.07 12.2995 34.47 12.3695 34.01C12.4895 33.44 12.6795 33.82 12.6595 34.19C12.4695 36.07 12.4495 37.96 12.4695 39.84C12.4395 40.72 12.3595 41.61 12.3795 42.49C12.3895 43.19 12.3895 43.91 12.6195 44.57C12.9195 45.18 13.1895 44.46 13.2095 44.1C13.3395 43.21 13.3495 42.3 13.2895 41.4C13.2195 39.96 13.1795 38.5 13.2795 37.06C13.3495 36.12 13.3095 35.18 13.3295 34.24C13.3495 33.67 13.7195 33.5 14.2295 33.51C15.4295 33.48 18.2795 33.57 19.1295 32.76C19.2395 32.66 19.3295 32.53 19.3895 32.39C19.5795 32.03 19.5695 31.5 19.9395 31.29C20.1895 31.15 20.5195 31.2 20.7995 31.19C21.2595 31.19 21.7595 31.04 22.0595 30.69C22.2895 30.44 22.4095 30.11 22.4895 29.78C22.7695 28.66 22.5195 27.5 22.5895 26.36C22.6095 25.53 22.7495 24.69 22.6595 23.86C22.5995 23.29 22.1895 22.83 21.6195 22.75C21.2995 22.69 20.9395 22.75 20.7195 22.68C20.4395 22.59 20.4695 22.3 20.6795 22.15C21.0695 21.86 21.8495 21.96 22.2795 21.68C22.7795 21.42 22.8095 20.81 22.8295 20.31C22.8695 19.64 22.9195 18.98 22.9295 18.31C22.9395 17.38 22.9795 16.45 23.0395 15.52C23.0795 14.78 23.1495 13.92 22.6795 13.3C22.3995 12.92 21.8995 12.77 21.4395 12.69C20.9495 12.6 20.6895 12.12 21.2495 11.89C22.0995 11.66 23.1495 11.82 23.2695 10.66C23.3595 9.01 23.2195 7.35 23.3495 5.7C23.3595 4.83 23.5295 3.6 22.9495 2.91C22.1895 2.07 21.3095 2.6 20.8595 2.22C20.6195 1.97 20.6595 1.59 20.5295 1.27C20.3395 0.76 19.8195 0.59 19.3195 0.44C18.3695 0.13 17.3595 0.26 16.3795 0.17C15.6495 0.15 14.9195 0.07 14.1895 0.04C12.8195 0 11.4295 0 10.0395 0C8.63952 0.02 7.24952 0.11 5.84952 0.21C5.32952 0.25 4.80952 0.33 4.29952 0.41C3.84952 0.48 3.32952 0.61 3.18952 1.09C3.03952 1.62 3.25952 2.26 2.52952 2.37C0.919521 2.48 -0.170479 2.6 0.0195207 4.58V4.6H0.0295207ZM19.4395 1.66C19.6595 1.87 19.5495 2.36 19.5395 2.68C19.4995 3.29 19.4695 3.91 19.4495 4.52C19.4295 6.28 19.4695 8.05 19.3395 9.81C19.2595 14.36 19.0595 18.9 18.7295 23.44C18.5695 25.67 18.4095 27.91 18.1495 30.13C18.0595 30.63 18.2095 31.27 17.9195 31.69C17.7395 31.9 17.4295 31.91 17.1595 31.91C15.8195 31.91 14.4795 31.9 13.1495 31.91C10.8995 31.86 8.64952 31.78 6.40952 31.55C5.50952 31.46 5.69952 30.38 5.57952 29.73C5.39952 28.21 5.29952 26.69 5.15952 25.16C4.88952 21.39 4.65952 17.61 4.53952 13.83C4.44952 10.65 4.30952 7.47 4.32952 4.29C4.09952 1.19 4.32952 2.13 7.47952 1.74C9.99952 1.54 12.5195 1.38 15.0395 1.45C16.1195 1.43 17.1995 1.45 18.2795 1.53C18.6495 1.57 19.1395 1.45 19.4295 1.66H19.4395ZM2.88952 14.14C3.15952 14.36 3.03952 15.04 3.07952 15.39C3.09952 16.15 3.19952 16.91 3.18952 17.67C3.18952 18.17 3.23952 18.66 3.25952 19.16C3.27952 19.7 3.28952 20.25 3.32952 20.79C3.34952 21.14 3.29952 21.51 2.87952 21.54C2.47952 21.56 2.00952 21.47 1.72952 21.18C1.29952 20.71 1.31952 19.98 1.30952 19.37C1.35952 17.91 0.939521 16.44 1.17952 14.98C1.28952 14.45 1.76952 14.23 2.26952 14.13C2.45952 14.08 2.73952 14.04 2.87952 14.15L2.88952 14.14ZM2.78952 10.88C2.52952 11.1 2.09952 10.92 1.81952 10.71C1.24952 10.25 1.21952 9.43 1.20952 8.75C1.20952 7.77 0.979521 6.83 0.939521 5.86C0.939521 5.32 0.899521 4.74 0.949521 4.2C1.02952 3.63 1.50952 3.46 2.03952 3.36C2.36952 3.3 2.86952 3.23 2.97952 3.64C3.00952 3.75 3.01952 3.89 3.00952 4.02C2.94952 6.06 2.98952 8.1 2.97952 10.14C2.97952 10.38 2.97952 10.71 2.80952 10.87L2.78952 10.88ZM1.59952 25.52C1.57952 24.9 1.89952 24.43 2.54952 24.36C2.81952 24.32 3.10952 24.36 3.29952 24.48C3.52952 24.63 3.58952 24.92 3.61952 25.19C3.66952 25.74 3.71952 26.3 3.76952 26.87C3.83952 27.91 4.00952 28.96 3.99952 30.01C3.97952 30.19 3.93952 30.33 3.81952 30.43C3.57952 30.63 3.04952 30.64 2.71952 30.56C2.28952 30.44 2.23952 29.98 2.14952 29.56C1.97952 28.73 1.84952 27.89 1.77952 27.05C1.72952 26.53 1.61952 26.02 1.60952 25.52V25.51L1.59952 25.52ZM20.8895 23.6C21.6795 23.58 22.1595 24.06 22.0795 24.86C22.0195 25.65 21.7695 26.4 21.6995 27.19C21.6395 27.8 21.6595 28.42 21.5895 29.03C21.5295 29.61 21.2295 30.03 20.6195 30.09C20.0095 30.16 19.7595 29.87 19.8295 29.28C19.9295 27.95 20.0695 26.6 20.1895 25.27C20.2095 25 20.2195 24.72 20.2295 24.44C20.2295 24 20.3795 23.62 20.8795 23.6H20.8895ZM21.0595 10.68C20.7695 10.44 20.8995 9.97 20.8695 9.64C20.7695 7.69 20.8295 5.72 20.7995 3.77C20.7695 3.02 21.3695 3.13 21.8495 3.48C22.1295 3.69 22.2995 4.02 22.3395 4.37C22.3795 4.66 22.3595 4.96 22.3395 5.26C22.2695 6.21 22.3195 7.17 22.2595 8.13C22.2195 8.72 22.1895 9.32 22.1895 9.91C22.1895 10.18 22.1295 10.48 21.8895 10.63C21.6495 10.78 21.2995 10.83 21.0695 10.68H21.0595ZM20.6795 21.13C20.4695 21.02 20.5095 20.67 20.5095 20.45C20.5295 20.07 20.5295 19.69 20.5595 19.31C20.6195 18.57 20.6195 17.84 20.6595 17.1C20.7195 16.22 20.7495 15.34 20.7895 14.45C20.7995 14.24 20.8095 14.01 20.9095 13.84C21.0995 13.52 21.5795 13.62 21.8095 13.87C22.1295 14.22 22.0895 14.77 22.0995 15.22C22.0995 15.98 22.1195 16.75 22.0895 17.51C22.0495 18.33 21.9495 19.13 21.9195 19.95C21.9095 20.33 21.8695 20.8 21.4995 20.99C21.2395 21.12 20.9295 21.22 20.6795 21.12V21.13ZM12.0495 34.37C11.9495 34.29 11.9195 34.01 11.8995 33.86C11.8895 33.71 11.8595 33.52 11.9895 33.43C12.0895 33.39 12.1495 33.52 12.1695 33.6C12.2095 33.73 12.2195 34.4 12.0495 34.37Z" fill="black"/>
<path d="M19.441 1.66031C19.661 1.87031 19.551 2.36031 19.541 2.68031C19.501 3.29031 19.471 3.91031 19.451 4.52031C19.431 6.28031 19.471 8.05031 19.341 9.81031C19.261 14.3603 19.061 18.9003 18.731 23.4403C18.571 25.6703 18.411 27.9103 18.151 30.1303C18.061 30.6303 18.211 31.2703 17.921 31.6903C17.741 31.9003 17.431 31.9103 17.161 31.9103C15.821 31.9103 14.481 31.9003 13.151 31.9103C10.901 31.8603 8.65096 31.7803 6.41096 31.5503C5.51096 31.4603 5.70096 30.3803 5.58096 29.7303C5.40096 28.2103 5.30096 26.6903 5.16096 25.1603C4.89096 21.3903 4.66096 17.6103 4.54096 13.8303C4.45096 10.6503 4.31096 7.47031 4.33096 4.29031C4.10096 1.19031 4.33096 2.13031 7.48096 1.74031C10.001 1.54031 12.521 1.38031 15.041 1.45031C16.121 1.43031 17.201 1.45031 18.281 1.53031C18.651 1.57031 19.141 1.45031 19.431 1.66031H19.441Z" fill="#00953B"/>
<path d="M15.7401 26.7802C15.7101 24.8402 14.1701 23.4602 12.3001 23.2802C10.8501 23.0902 9.3301 23.7302 8.4401 24.9002C8.1501 25.2802 7.8401 25.6902 7.7501 26.1702C7.6001 27.4002 8.3301 28.7102 9.2401 29.4902C10.2601 30.3702 11.7701 30.7302 13.0701 30.2902C14.6001 29.8102 15.7701 28.4402 15.7501 26.7902V26.7802H15.7401ZM9.6101 27.1702C9.7401 27.0002 9.9401 26.8802 10.0901 26.7302C10.3501 26.4802 10.6001 26.2002 10.8401 25.9202C10.9701 25.7702 11.1201 25.5902 11.1701 25.4002C11.2301 25.0402 10.6901 25.5002 10.6101 25.6002C10.4001 25.8102 10.2001 26.0302 10.0101 26.2602C9.7001 26.6302 9.3601 27.0602 9.1301 26.4302C8.8101 25.5602 9.4601 24.9902 10.1701 24.6202C10.8901 24.2402 11.7501 24.1702 12.5301 24.3402C13.6901 24.5902 14.7401 25.6102 14.7201 26.8502C14.6901 28.4902 13.0201 29.6302 11.4701 29.2802C10.8301 29.1302 10.2201 28.7902 9.8301 28.2602C9.6101 27.9302 9.3501 27.5502 9.6001 27.2002L9.6101 27.1702Z" fill="black"/>
<path d="M12.1192 20.7905C13.3292 20.8105 14.5392 20.1105 15.1292 19.0405C15.9392 17.6705 15.5692 15.8705 14.5592 14.7105C13.6092 13.5705 12.1692 13.0505 10.7092 13.2605C9.79917 13.3805 9.19916 13.5605 8.72916 14.4205C7.08916 17.1305 8.81916 20.8405 12.1092 20.7905H12.1192ZM9.39916 16.9605C9.39916 16.3605 9.65917 15.7905 9.96917 15.2705C10.1892 14.9005 10.3492 14.4705 10.7092 14.2705C10.9792 14.1105 11.3392 14.1105 11.6592 14.1405C12.7592 14.2505 13.7392 15.0305 14.2192 16.0105C14.8692 17.3105 14.4492 18.9605 13.0392 19.5105C12.2292 19.8405 11.2392 19.7305 10.5492 19.1905C9.85917 18.6805 9.39916 17.8405 9.39916 16.9705V16.9605Z" fill="black"/>
<path d="M12.1195 2.77051C10.2495 2.81051 8.54945 4.33051 8.18945 6.16051C7.92945 7.42051 8.34945 8.80051 9.22945 9.72051C11.4195 11.8105 14.5995 10.7105 15.2195 7.79051C15.6095 6.17051 14.9395 4.41051 13.5895 3.44051C13.1595 3.12051 12.6795 2.80051 12.1295 2.77051H12.1195ZM14.3695 6.85051C14.3395 7.60051 14.0795 8.37051 13.5795 8.93051C12.7495 9.81051 11.5695 10.0805 10.5095 9.41051C8.95945 8.48051 8.85945 6.16051 10.1795 4.99051C10.5995 4.60051 11.1695 4.45051 11.7095 4.30051C12.0395 4.21051 12.3695 4.07051 12.6795 4.08051C12.9495 4.08051 13.2095 4.21051 13.3995 4.39051C14.0595 5.01051 14.4095 5.94051 14.3695 6.84051V6.85051Z" fill="black"/>
<path d="M15.0199 10.1306C15.1599 10.2106 15.3899 9.98063 15.4999 9.85063C15.7599 9.53063 15.9599 9.15063 16.0799 8.75063C16.5199 7.35063 16.3199 5.77063 15.5299 4.54063C15.4399 4.41063 15.2599 4.16062 15.1499 4.14062C15.0999 4.14062 15.1099 4.23063 15.1499 4.39062C15.2499 4.69063 15.3899 5.00063 15.4899 5.30063C15.8999 6.41063 15.8899 7.57062 15.4499 8.66062C15.3699 8.88062 15.2799 9.10062 15.1899 9.32062C15.0999 9.55062 14.8899 9.93063 15.0199 10.1206V10.1306Z" fill="black"/>
<path d="M5.50001 4.69055C5.51001 4.13055 5.41001 3.44055 5.86001 3.02055C6.17001 2.73055 6.69001 2.66055 7.10001 2.52055C7.41001 2.41055 7.37001 2.31055 6.99001 2.31055C6.70001 2.31055 6.36001 2.35055 6.07001 2.44055C5.06001 2.71055 4.84001 3.67055 4.75001 4.60055C4.73001 5.04055 4.69001 5.72055 4.99001 6.06055C5.08001 6.15055 5.20001 6.16055 5.28001 6.08055C5.58001 5.75055 5.48001 5.13055 5.50001 4.71055V4.69055Z" fill="black"/>
<path d="M7.15975 16.501C7.42975 16.641 7.65975 15.481 7.74975 15.281C8.02975 14.381 8.66976 13.681 9.34976 13.061C9.48976 12.931 9.82975 12.531 9.41975 12.641C8.29975 13.101 7.46976 14.301 7.14976 15.451C7.08976 15.751 6.96976 16.241 7.14976 16.491L7.15975 16.501Z" fill="black"/>
<path d="M16.3309 26.1507C16.3309 26.1507 16.3509 26.0807 16.3509 25.9707C16.3309 25.5507 16.1709 25.1107 15.9609 24.7307C15.3509 23.7107 14.3609 22.8707 13.2009 22.5807C13.0609 22.5507 12.8209 22.5107 12.7509 22.6107C12.7209 22.8307 13.4509 23.0707 13.6409 23.1607C14.8009 23.5807 15.7709 24.4907 16.1409 25.6907C16.1909 25.8107 16.2609 26.1207 16.3209 26.1607L16.3309 26.1507Z" fill="black"/>
<path d="M15.5898 31.3002C15.5398 31.5902 16.4698 31.5302 16.6798 31.5202C17.7198 31.4902 17.7498 30.5602 17.7598 29.7402C17.7598 29.6102 17.7598 29.4002 17.6998 29.3102C17.6098 29.2602 17.5298 29.6402 17.4998 29.7102C17.3098 30.5902 17.3198 31.1902 16.2598 31.1302C16.0498 31.1302 15.6898 31.1202 15.5898 31.2802V31.3002Z" fill="black"/>
<path d="M10.2703 27.7804C10.6503 28.0704 11.9403 26.3904 12.2503 26.1004C12.4403 25.8904 12.6803 25.6604 12.8203 25.4204C13.0003 25.0904 12.6503 25.2704 12.5003 25.3804C11.8703 25.8704 11.3203 26.4604 10.7503 27.0104C10.5803 27.1904 10.1903 27.5204 10.2603 27.7804H10.2703Z" fill="black"/>
<path d="M12.4908 28.4801C12.9308 28.6901 13.6608 27.3401 13.8608 27.0001C13.9408 26.8601 14.0208 26.7001 14.0608 26.5501C14.0808 26.4801 14.0808 26.4301 14.0608 26.4201C13.9208 26.3601 13.5908 26.8501 13.4808 26.9601C13.2408 27.2601 12.9808 27.5501 12.7408 27.8401C12.6208 28.0001 12.3808 28.2701 12.4808 28.4701L12.4908 28.4801Z" fill="black"/>
<path d="M11.7195 28.0206C12.0195 27.9806 12.6495 27.0806 12.9095 26.8206C12.9995 26.7106 13.3495 26.3306 13.2695 26.2106C13.2495 26.2006 13.2095 26.2106 13.1495 26.2506C13.0295 26.3206 12.9095 26.4406 12.8095 26.5406C12.6295 26.7506 11.5795 27.8106 11.7295 28.0206H11.7195Z" fill="black"/>
<path d="M10.3 17.581C10.75 17.591 11.57 16.291 11.88 15.921C12 15.771 12.13 15.611 12.22 15.441C12.29 15.311 12.39 15.101 12.28 15.011C12.1 14.941 11.88 15.171 11.74 15.301C11.5 15.581 9.88 17.311 10.28 17.571L10.3 17.581Z" fill="black"/>
<path d="M12.9395 15.9806C12.8095 15.9406 12.5695 16.3006 12.4795 16.4006C12.1995 16.7906 11.8995 17.1806 11.5795 17.5506C11.4695 17.6806 11.3395 17.8306 11.2795 17.9806C11.2095 18.1206 11.2495 18.1906 11.3995 18.1306C11.5495 18.0706 11.6995 17.9306 11.8195 17.8106C12.0895 17.5406 13.0395 16.3206 12.9395 15.9806Z" fill="black"/>
<path d="M11.5898 18.9902C11.7398 19.2202 12.4698 17.8202 12.5998 17.6802C12.7098 17.5202 12.8298 17.3302 12.9098 17.1702C13.0598 16.8102 12.6098 17.2802 12.5498 17.3602C12.2398 17.7202 11.5898 18.5202 11.5898 18.9902Z" fill="black"/>
<path d="M10.4504 8.28061C11.1204 8.33061 12.0604 6.76061 12.3904 6.23061C12.4904 6.07061 12.6004 5.87061 12.6304 5.69061C12.6704 5.48061 12.5404 5.48061 12.3804 5.60061C12.1804 5.76061 12.0304 5.99061 11.8704 6.20061C11.5004 6.68061 11.0704 7.10061 10.6804 7.55061C10.5604 7.69061 10.1904 8.15061 10.4404 8.27061L10.4504 8.28061Z" fill="black"/>
<path d="M11.3501 8.45045C11.8601 8.53045 12.8001 6.97045 13.0501 6.54045C13.1101 6.44045 13.3801 5.87045 13.0801 6.12045C12.9001 6.28045 12.7301 6.51045 12.5701 6.70045C12.3801 6.99045 11.0701 8.20045 11.3601 8.45045H11.3501Z" fill="black"/>
</svg>
