<?xml version="1.0" encoding="utf-8"?>
<!-- Generator: Adobe Illustrator 27.4.0, SVG Export Plug-In . SVG Version: 6.00 Build 0)  -->
<svg version="1.1" id="Layer_1" xmlns="http://www.w3.org/2000/svg" xmlns:xlink="http://www.w3.org/1999/xlink" x="0px" y="0px"
	 viewBox="0 0 50 50" style="enable-background:new 0 0 50 50;" xml:space="preserve">
<style type="text/css">
	.st0{fill:#00953B;stroke:#1A2E35;stroke-width:8.041432e-02;stroke-linecap:round;stroke-linejoin:round;stroke-miterlimit:10;}
	.st1{fill:#1A2E35;}
	.st2{fill:#1A2E35;stroke:#1A2E35;stroke-width:0.1124;stroke-linecap:round;stroke-linejoin:round;stroke-miterlimit:10;}
	.st3{fill:none;stroke:#595959;stroke-width:0.1124;stroke-linecap:round;stroke-linejoin:round;stroke-miterlimit:10;}
	.st4{fill:#FFFFFF;stroke:#1A2E35;stroke-width:0.1124;stroke-linecap:round;stroke-linejoin:round;stroke-miterlimit:10;}
	.st5{fill:#D9D9D9;stroke:#1A2E35;stroke-width:0.1124;stroke-linecap:round;stroke-linejoin:round;stroke-miterlimit:10;}
	.st6{fill:none;stroke:#1A2E35;stroke-width:0.1124;stroke-linecap:round;stroke-linejoin:round;stroke-miterlimit:10;}
	.st7{fill:#525252;stroke:#1A2E35;stroke-width:0.1124;stroke-linecap:round;stroke-linejoin:round;stroke-miterlimit:10;}
	
		.st8{clip-path:url(#XMLID_00000029743359681684308460000010189572678925918341_);fill:#00953B;stroke:#1A2E35;stroke-width:8.041432e-02;stroke-linecap:round;stroke-linejoin:round;stroke-miterlimit:10;}
	
		.st9{clip-path:url(#XMLID_00000093143172713734168420000012429354129491409820_);fill:none;stroke:#595959;stroke-width:0.1124;stroke-linecap:round;stroke-linejoin:round;stroke-miterlimit:10;}
</style>
<g>
	<path class="st0" d="M36.9,35.7c1.4-0.6,2.6-1.5,2.6-1.5s-1,0.2-2.1,0.5c1.6-1,3-2.4,3-2.4s-1.2,0.5-2.6,1.1c1.1-1,1.9-2.2,1.9-2.2
		s-1.7,0.9-3.3,2c1.2-1.4,2-3.2,2-3.2s-1.5,1.3-2.9,2.6C36.5,31.1,37,29,37,29s-1.1,1.4-2.2,2.9c0.6-1.7,0.7-3.7,0.7-3.7
		s-0.8,1.4-1.5,3c0.2-1.7,0.1-3.4,0.1-3.4s-0.5,1.4-0.9,3.1c-0.1-1.7-0.5-3.3-0.5-3.3s-0.4,2.2-0.6,4.2c-0.3-1.9-1.4-4.1-1.4-4.1
		s0.1,1.5,0.2,3.1c-0.7-1.5-1.6-2.8-1.6-2.8s0.3,1.5,0.7,3.1c-0.9-1.4-2.1-2.6-2.1-2.6s0.8,2,1.6,3.9c-1.2-1.5-3.3-2.9-3.3-2.9
		s0.9,1.4,2,2.8c-1.4-1-3.1-1.8-3.1-1.8s1.2,1.3,2.5,2.6c-1.6-0.8-3.5-1.3-3.5-1.3s1.4,1.1,3,2.1c-1.7-0.5-3.7-0.6-3.7-0.6
		s1.2,0.6,2.7,1.3c-1.6-0.2-3.1,0-3.1,0s1.9,0.7,3.8,1.2c-1.3,0.1-2.5,0.4-2.5,0.4s0.6,0.1,1.5,0.2c-0.9,0.2-1.5,0.4-1.5,0.4
		s1.9,0.2,3.7,0.2c0.2,0,0.4,0,0.6,0c-1.1,0.3-2.3,1-2.3,1s1.5-0.2,2.8-0.4c1.1-0.2,2.5-0.7,2.9-0.8c0,0,0,0,0,0s0,0,0,0
		c0,0,0,0,0,0c0,0,0,0,0,0s0,0,0,0c0,0,0,0,0,0c0,0,0,0,0,0l0.1,3.1l0.3,0l-0.1-3c0.7,0.4,2.1,1.1,3.3,1.4c1.6,0.5,4,0.4,4,0.4
		s-1.6-0.6-3.2-1.1c1.6,0,3.5-0.4,3.5-0.4s-1.9-0.3-3.6-0.5c1.6-0.2,3.5-1.2,3.5-1.2S38.4,35.5,36.9,35.7z"/>
	<path class="st0" d="M19.1,36c0.6-0.3,1.2-0.7,1.2-0.7s-0.5,0.1-1,0.2c0.7-0.4,1.4-1.1,1.4-1.1s-0.5,0.2-1.2,0.5
		c0.5-0.5,0.9-1,0.9-1s-0.8,0.4-1.5,0.9c0.5-0.6,0.9-1.5,0.9-1.5s-0.7,0.6-1.3,1.2c0.4-0.7,0.7-1.7,0.7-1.7s-0.5,0.6-1,1.3
		c0.3-0.8,0.3-1.7,0.3-1.7s-0.4,0.7-0.7,1.4c0.1-0.8,0-1.6,0-1.6s-0.2,0.7-0.4,1.4c0-0.8-0.2-1.5-0.2-1.5s-0.2,1-0.3,2
		c-0.1-0.9-0.6-1.9-0.6-1.9s0,0.7,0.1,1.5c-0.3-0.7-0.7-1.3-0.7-1.3s0.1,0.7,0.3,1.4c-0.4-0.6-1-1.2-1-1.2s0.4,0.9,0.8,1.8
		c-0.6-0.7-1.5-1.3-1.5-1.3s0.4,0.7,0.9,1.3c-0.6-0.5-1.4-0.8-1.4-0.8s0.6,0.6,1.2,1.2c-0.7-0.4-1.6-0.6-1.6-0.6s0.7,0.5,1.4,1
		c-0.8-0.3-1.7-0.3-1.7-0.3s0.6,0.3,1.2,0.6c-0.7-0.1-1.4,0-1.4,0s0.9,0.3,1.8,0.5c-0.6,0-1.2,0.2-1.2,0.2s0.3,0.1,0.7,0.1
		c-0.4,0.1-0.7,0.2-0.7,0.2s0.9,0.1,1.7,0.1c0.1,0,0.2,0,0.3,0c-0.5,0.1-1.1,0.5-1.1,0.5s0.7-0.1,1.3-0.2c0.5-0.1,1.2-0.3,1.4-0.4
		c0,0,0,0,0,0s0,0,0,0c0,0,0,0,0,0c0,0,0,0,0,0s0,0,0,0c0,0,0,0,0,0c0,0,0,0,0,0l0,1.4l0.1,0l0-1.4c0.3,0.2,1,0.5,1.5,0.7
		c0.8,0.2,1.8,0.2,1.8,0.2s-0.7-0.3-1.5-0.5c0.7,0,1.6-0.2,1.6-0.2s-0.9-0.1-1.7-0.2c0.8-0.1,1.6-0.6,1.6-0.6S19.8,35.9,19.1,36z"/>
	<path class="st1" d="M15,8.3V7.6h-0.3L14.2,5h-1.1l0-0.4h0.5l-0.2-0.7H13V3.3h0.4V3h-0.2l-0.2-1.2c0.1,0,0.2-0.1,0.2-0.2
		c0-0.1-0.1-0.2-0.2-0.2c-0.1,0-0.2,0.1-0.2,0.2c0,0.1,0.1,0.2,0.2,0.2L12.5,3h-0.2v0.3h0.4v0.6h-0.4L12,4.6h0.5l0,0.4h-1.1
		l-0.5,2.6h-0.3v0.7h0.2l0.5,4.2v0.6c0,0.5,0.4,0.8,0.8,0.8h0.1v0.9h-0.1l-0.3,0.3h0l0,0l0,0h0l0.3,0.3h0.3v0.4h-0.2v1.4h0.4v19.5
		h-0.4v4.9h1.4v-4.9h-0.4V17.4h0.4v-1.4h-0.2v-0.4h0.3l0.3-0.3h0l0,0l0,0h0l-0.3-0.3h-0.1v-0.9h0.1c0.5,0,0.8-0.4,0.8-0.8v-0.6
		l0.5-4.2H15z M12.1,13.6c-0.3,0-0.5-0.2-0.5-0.5v-0.3h0.6v0.8v0H12.1z M13.3,12.5h-1v-1.1h1V12.5z M14,13.1c0,0.3-0.2,0.5-0.5,0.5
		h-0.1v0v-0.8H14V13.1z M14,12.5h-0.6v-1.2h-1.2v1.2h-0.6l-0.5-4.2h3.4L14,12.5z"/>
	<g>
		<g>
			<g>
				<polygon id="XMLID_189_" class="st2" points="33.1,28.1 32.8,36.8 28.7,29.1 				"/>
				<g id="XMLID_186_">
					<path id="XMLID_188_" class="st2" d="M31.7,12.1c0,0,0.7,0.5,1.4,0.8c0.7,0.3,1.8,0.9,1.8,1.1c0,0.2-1.3,7.4-1.3,7.4l1.2,7
						c0,0-2.4,0.8-3.2,0.9c-0.8,0.1-3.4,0.4-5.3,0.2c-1.9-0.2-2.4-0.7-2.4-0.7l1.7-8.1l-0.5-5.9c0,0,3.8-2,3.8-2.1
						C29,12.5,30.8,11.8,31.7,12.1z"/>
					<g>
						<path id="XMLID_187_" class="st2" d="M31.4,15.6l0.9-0.5c0,0,0-0.7,0-1.9c0-0.3,0-0.5,0-0.7c-0.3-0.2-0.6-0.4-0.6-0.4
							c-0.9-0.4-2.7,0.4-2.8,0.5c0,0-0.4,0.2-0.9,0.5l-1,1.9l0.5,0.5l-0.8,0.6c0,0,0.3,1.4,0.4,2.6c0.1,1.1,0.5,2.7,0.5,2.7
							s2.5-2.2,3.2-3c0.6-0.8,1.4-2.5,1.4-2.5L31.4,15.6z"/>
						<path class="st3" d="M32.3,13l0,2.1l-0.9,0.5l0.7,0.3c0,0-0.3,1.5-1.3,2.6"/>
						<path class="st3" d="M27.9,13.6L27.1,15l0.5,0.5l-0.8,0.6c0,0,0.3,2,0.5,3.1"/>
					</g>
				</g>
				<g id="XMLID_183_">
					<path id="XMLID_185_" class="st4" d="M28.7,13c0,0-0.2,0.2-0.3,0.9c-0.1,0.7-0.7,4.2-0.7,5.4c0,1.2,0.1,2.1,0.1,2.1
						s1.2-1.3,2.2-3.5c1-2.2,1.8-5.8,1.8-5.8l-0.6-0.4C31.1,11.8,29,12.5,28.7,13z"/>
					<polygon id="XMLID_184_" class="st2" points="29,14.2 28,13.9 27.8,15.2 28.9,14.6 29.9,15.5 30,13.9 					"/>
				</g>
				<g id="XMLID_177_">
					<path id="XMLID_182_" class="st5" d="M26.3,8.3c0,0-0.1,1.2,0,1.5s0.2,0.6,0.2,0.8c0,0.2-0.3,0.9-0.2,1
						c0.1,0.1,0.5,0.3,0.5,0.3s0.7,1.4,0.8,1.4c0.1,0,1-0.3,1-0.3s0.2,0.8,0.2,0.7c0.1,0,0.6-0.3,1.5-1c0.9-0.7,0.8-1.1,0.8-1.1
						L31,10.8c0,0,0.4-2.6,0.2-3.2c-0.2-0.6-1-1-1.7-1.2c-0.7-0.2-2.4-0.1-3.2,0.6C25.5,7.6,25.8,8.1,26.3,8.3z"/>
					<path id="XMLID_181_" class="st6" d="M26.7,9.9c0,0,0.1-0.4,0.6-0.2"/>
					<path id="XMLID_180_" class="st6" d="M26.9,10.2l0.1,0.3c0,0,0.3,0,0.5-0.2"/>
					<path id="XMLID_179_" class="st6" d="M27.2,12c0,0,0.2,0.1,0.6-0.2"/>
					<path id="XMLID_178_" class="st6" d="M30.3,10.6c0,0,0,0.2-0.3,0.3C29.8,11,29.5,11,29.5,11s0,0.3-0.1,0.7"/>
				</g>
				<g id="XMLID_174_">
					<path id="XMLID_176_" class="st7" d="M31,10.8c0,0,0.4-2.6,0.2-3.2c-0.2-0.6-1-1-1.7-1.2c-0.7-0.2-2.4-0.1-3.2,0.6
						c-0.8,0.7-0.5,1.2,0,1.3c0,0,0.4,0,0.7-0.1c0.3-0.2,0.7-0.5,1-0.3c0.3,0.2,0.2,0.9,0.2,1.2c0,0.3,0.4,0.3,0.6,0.5
						c0.2,0.2,0,0.4,0.2,0.5c0.2,0.1,0.4-0.1,0.4-0.2c0-0.1,0-0.4,0.2-0.6c0.2-0.2,0.7,0.1,0.7,0.7c0,0.5,0,0.6,0,0.6
						s0.4,0.2,0.7,0.3L31,10.8z"/>
					<path id="XMLID_175_" class="st2" d="M31.2,8.8c0-0.5,0-0.9,0-1.2c-0.2-0.6-1-1-1.7-1.2c-0.7-0.2-2.4-0.1-3.2,0.6
						c-0.8,0.7-0.5,1.2,0,1.3c0,0,0.4,0,0.7-0.1c0.3-0.2,0.7-0.5,1-0.3c0,0,0.7,0.1,1.3,0.5C29.8,8.6,30.4,9,31.2,8.8z"/>
				</g>
				<g>
					<path id="XMLID_173_" class="st2" d="M34.3,13.6c0,0,1.1,0.5,1.4,0.6c0.3,0.1,0.4,0.5,1,2.1c0.5,1.6,1.5,4.4,1.3,5
						s-5.1,4.8-5.1,4.8l-1-1.2l2.8-3.5c0,0-0.1-0.1,0-0.3c0.1-0.2,0.3-0.5,0.3-0.5s-1.6-3.3-1.6-3.6c-0.1-0.3-0.1-0.7,0.1-1.2"/>
					<path class="st3" d="M33.9,18.5L33,16.7c0,0,0.2-1.1,1.2-1.6"/>
				</g>
			</g>
			<g>
				<g id="XMLID_168_">
					<path id="XMLID_172_" class="st5" d="M24.8,13.3c0,0.1-0.5,1.3-0.6,1.7c0,0.4-2.2,0.9-2.2,0.9s0-0.9,0-1.6s-0.1-1.6,0.7-1.9
						C23.5,12,24.8,12.8,24.8,13.3z"/>
					<path id="XMLID_171_" class="st5" d="M25.5,9.2c0,0,0.4,0.4,0.4,0.9c0,0.5,0.2,1.1,0.3,1.2c0.1,0.2,0.4,0.2,0.3,0.5
						c-0.1,0.2-0.4,0.4-0.4,0.4s-0.2,1.4-0.3,1.5c-0.1,0.1-1.6-0.1-1.9-0.2c-0.3-0.1-1-1.2-1.1-2.1c0-0.9,0.4-2.2,1.2-2.5
						C24.8,8.6,25.5,9.2,25.5,9.2z"/>
					<path id="XMLID_170_" class="st6" d="M25.6,10.3c0,0-0.3-0.2-0.5,0.1"/>
					<path id="XMLID_169_" class="st6" d="M25.7,10.8l0,0.4c0,0-0.2,0.1-0.4,0"/>
				</g>
				<path id="XMLID_167_" class="st2" d="M20.9,20.5c0,0-0.3,0.5-0.3,1c0,0.5,0.1,0.9,0.2,1c0.1,0.1,1,0.3,1.3,0.2
					c0.3-0.1,0.5-0.6,0.3-1.2c-0.2-0.6-1.2-1.2-1.2-1.2L20.9,20.5z"/>
				<g id="XMLID_162_">
					<g>
						<defs>
							<path id="XMLID_166_" d="M24.1,15c0,0-0.6-0.3-1.4,0.1c-0.9,0.4-1.5,1.3-1.3,3.8c0.2,2.5,1,3.6,1,3.7c0,0.1-2.6,3-3.3,4.9
								c-0.8,1.9-2.7,6.4-4.1,9.1c-1.3,2.7-3.7,5.6-3.9,6.1c-0.2,0.4,0.4,1.1,1.2,1.5c0.9,0.5,1.9,0.6,1.9,0.6s-0.8,1.3-0.7,1.5
								c0.1,0.2,3,0.9,4.5,0.4c1.6-0.5,1.6-0.8,2.8-0.1c1.2,0.7,3,0.9,4.4,0.4s1.7-0.8,2.5-0.4c0.8,0.4,1.7,0.8,2.6,0.5
								c0.9-0.3,1.5-0.9,1.8-1.1c0.3-0.2,1.4,0,2.5-0.1c1.1-0.1,1.9-0.7,2-0.9c0.1-0.2-1.7-5.1-3.5-9.3c-1.8-4.2-6.7-13.3-6.7-13.3
								s0-1.1,0.3-1.6c0.3-0.4,0.7-1.1,0.6-1.7C26.9,18.5,24.8,15.4,24.1,15z"/>
						</defs>
						<use xlink:href="#XMLID_166_"  style="overflow:visible;fill:#FFFFFF;"/>
						<clipPath id="XMLID_00000072245854929779466690000008168201637858602148_">
							<use xlink:href="#XMLID_166_"  style="overflow:visible;"/>
						</clipPath>
						
							<path style="clip-path:url(#XMLID_00000072245854929779466690000008168201637858602148_);fill:#00953B;stroke:#1A2E35;stroke-width:8.041432e-02;stroke-linecap:round;stroke-linejoin:round;stroke-miterlimit:10;" d="
							M23.6,29.8c-0.4,2.7-2.9,15-3,16.1c0,0.2-0.1,0.4-0.1,0.5c-1-0.5-1.1-0.2-2.6,0.2c-0.2,0.1-0.3,0.1-0.5,0.1
							c0.8-2.2,2.8-8.1,3.6-13c1-6.2-0.1-4.2-1.7-0.2c-1.5,4-2.9,7.8-3.7,9.2c-0.5,0.8-1.1,1.5-1.6,1.9c-0.3,0-1.1-0.2-1.8-0.6
							c-0.9-0.5-1.5-1.1-1.2-1.5c0.2-0.4,2.6-3.4,3.9-6.1c1.3-2.7,3.3-7.2,4.1-9.1c0.8-1.9,3.3-4.9,3.3-4.9s-0.7-1.2-1-3.7
							c-0.2-2.5,0.4-3.4,1.3-3.8c0.4-0.2,0.8-0.2,1-0.2l0.1,0.5c0,0-0.5,2.1-0.1,4.5c0.4,2.5,1,3.4,1,3.4l1.8-0.7
							c0,0.1,0.1,0.1,0.1,0.2c-0.4,0.3-0.9,0.8-1.3,1.2C24.5,24.7,24,27.1,23.6,29.8z M30.5,33.1c0,0,0.7,3.4,0.7,4.3
							c0,0.8,0.5,6.4,0.7,8.6c0,0,0.1,0,0.1,0c0.3-0.2,1.4,0,2.5-0.1c0.2,0,0.4,0,0.6-0.1L30.5,33.1z M26.8,34.1
							c-0.4-0.6-0.5,9.8-0.5,12.4c0.5-0.2,0.8-0.2,1.3,0c0,0,0.1,0,0.1,0.1C27.6,43.5,27.2,34.7,26.8,34.1z"/>
						
							<path style="clip-path:url(#XMLID_00000072245854929779466690000008168201637858602148_);fill:#00953B;stroke:#1A2E35;stroke-width:8.041432e-02;stroke-linecap:round;stroke-linejoin:round;stroke-miterlimit:10;" d="
							M23.6,29.8c-0.4,2.7-2.9,15-3,16.1c0,0.2-0.1,0.4-0.1,0.5c-1-0.5-1.1-0.2-2.6,0.2c-0.2,0.1-0.3,0.1-0.5,0.1
							c0.8-2.2,2.8-8.1,3.6-13c1-6.2-0.1-4.2-1.7-0.2c-1.5,4-2.9,7.8-3.7,9.2c-0.5,0.8-1.1,1.5-1.6,1.9c-0.3,0-1.1-0.2-1.8-0.6
							c-0.9-0.5-1.5-1.1-1.2-1.5c0.2-0.4,2.6-3.4,3.9-6.1c1.3-2.7,3.3-7.2,4.1-9.1c0.8-1.9,3.3-4.9,3.3-4.9s-0.7-1.2-1-3.7
							c-0.2-2.5,0.4-3.4,1.3-3.8c0.4-0.2,0.8-0.2,1-0.2l0.1,0.5c0,0-0.5,2.1-0.1,4.5c0.4,2.5,1,3.4,1,3.4l1.8-0.7
							c0,0.1,0.1,0.1,0.1,0.2c-0.4,0.3-0.9,0.8-1.3,1.2C24.5,24.7,24,27.1,23.6,29.8z M30.5,33.1c0,0,0.7,3.4,0.7,4.3
							c0,0.8,0.5,6.4,0.7,8.6c0,0,0.1,0,0.1,0c0.3-0.2,1.4,0,2.5-0.1c0.2,0,0.4,0,0.6-0.1L30.5,33.1z M26.8,34.1
							c-0.4-0.6-0.5,9.8-0.5,12.4c0.5-0.2,0.8-0.2,1.3,0c0,0,0.1,0,0.1,0.1C27.6,43.5,27.2,34.7,26.8,34.1z"/>
						
							<use xlink:href="#XMLID_166_"  style="overflow:visible;fill:none;stroke:#1A2E35;stroke-width:0.1124;stroke-linecap:round;stroke-linejoin:round;stroke-miterlimit:10;"/>
					</g>
					<path id="XMLID_165_" class="st6" d="M14.1,44.8c0,0,3.5-4.6,4.6-10.4c1.1-5.8,3-8.7,3-8.7"/>
					<path id="XMLID_164_" class="st6" d="M22.9,28.9c0,0-0.7,3.5-1.1,7c-0.4,3.5-1.9,8.9-1.9,8.9"/>
					<path id="XMLID_163_" class="st6" d="M31.9,45.5c0,0-0.2-1.6-0.6-6.8c-0.5-5.2-1.2-6.6-1.2-6.6"/>
				</g>
				<g id="XMLID_159_">
					<path id="XMLID_161_" class="st4" d="M20.9,20.1c0,0-0.2,0.9-0.1,1.3c0.2,0.4,1,0.6,1.2,0.2c0.2-0.4-0.2-0.9-0.4-1.1
						C21.5,20.5,21.2,19.8,20.9,20.1z"/>
					<path id="XMLID_160_" class="st5" d="M21,20.7c0,0-0.2-1.2-0.2-1.4c0-0.2,0.7-1.1,0.9-1.3c0.1-0.1,0.2,0.1,0.1,0.2
						c-0.1,0.2-0.4,1-0.4,1v0.2c0,0,0.4-0.6,0.6-1c0.2-0.3,0.4-0.1,0.2,0.1c-0.1,0.2-0.5,1.1-0.5,1.1c0,0.1,0,0.3,0,0.3
						s0.7-0.4,0.8-0.4c0.1,0,0.3,0.2,0.2,0.2c-0.1,0.1-0.8,0.7-0.8,0.7s0.9-0.2,1-0.2c0.1,0,0,0.2-0.1,0.3c-0.2,0.1-0.6,0.2-0.7,0.3
						c-0.1,0.1,0,0.4-0.2,0.6C21.6,21.6,21.2,21.3,21,20.7z"/>
				</g>
				<g>
					<defs>
						<path id="XMLID_158_" d="M25.6,9.4c0,0,0,0.1-0.4,0c-0.4-0.1-0.8-0.1-0.9,0.4c-0.2,0.4,0.6,1.1,0.3,1.4
							c-0.3,0.3-0.9,0.1-0.6,0.7c0.3,0.5,0.9,0.5,0.7,1.3C24.6,14,24,14,24.3,14.2c0.4,0.2,1,0,1.1,0.6c0.1,0.5,0,1,0.3,1
							c0.3,0,0.2-0.4,0.1-0.5c-0.1-0.1,0.5-0.1,0.4,0.4s-1.1,0.6-1.4,0.3c-0.3-0.4-0.7-0.9-1.1-0.9c-0.4,0-0.9,0.1-1-0.2
							c-0.2-0.3,0-0.8,0-0.8s-0.5,0.6-0.5,0.8c0,0.3,0.3,0.4,0.2,0.7c-0.1,0.4-0.9,0.9-0.7,1.3c0.2,0.4,0.7,0.6,0.4,1.2
							c-0.3,0.6-0.9,0.5-0.8,0.8c0,0.3,0.5,0.3,0.3,0.7c-0.3,0.4-0.6,0.5-0.4,0.6c0.2,0.1-0.4,0.7-1,0.1c-0.6-0.7,0.3-1.1,0-1.4
							c-0.3-0.4-1.2,0.3-1.5-0.4c-0.3-0.7,0.8-0.9,0.8-1.3c0-0.5-0.8-0.3-1-1c-0.2-0.7,0.3-1.2,0.7-1.6c0.4-0.4,0.4-0.4-0.1-0.9
							C18.6,13,18.3,12,19,11.5s1.6-0.4,1.4-1.1s-0.2-1.4,0.8-2.2c1-0.8,2.8-1,3.6-0.7C25.7,7.9,26.5,8.8,25.6,9.4z"/>
					</defs>
					<use xlink:href="#XMLID_158_"  style="overflow:visible;fill:#1A2E35;"/>
					<clipPath id="XMLID_00000183217759104926706690000013746678974089329063_">
						<use xlink:href="#XMLID_158_"  style="overflow:visible;"/>
					</clipPath>
					
						<path style="clip-path:url(#XMLID_00000183217759104926706690000013746678974089329063_);fill:none;stroke:#595959;stroke-width:0.1124;stroke-linecap:round;stroke-linejoin:round;stroke-miterlimit:10;" d="
						M25.3,8.3c-0.5-0.3-1.4-0.2-2.2,0.6c-1.1,1.1,0.3,1.5-0.3,2.3c-0.5,0.7-1.4,1-1.3,1.6c0.1,0.6,1.1,0.8,0.3,1.6
						c-0.8,0.8-1.3,1.3-1.2,1.8c0.1,0.6,1,0.3,0.7,1.1c-0.3,0.7-1.2,1.2-0.9,1.5c0.3,0.4,1-0.1,0.4,0.7c-0.6,0.8-0.6,0.6,0.1,1.2"/>
					
						<path style="clip-path:url(#XMLID_00000183217759104926706690000013746678974089329063_);fill:none;stroke:#595959;stroke-width:0.1124;stroke-linecap:round;stroke-linejoin:round;stroke-miterlimit:10;" d="
						M25.3,9.4c0,0,0.5-0.2,0.4-0.6"/>
					
						<path style="clip-path:url(#XMLID_00000183217759104926706690000013746678974089329063_);fill:none;stroke:#595959;stroke-width:0.1124;stroke-linecap:round;stroke-linejoin:round;stroke-miterlimit:10;" d="
						M19.8,16.4c0.1,0.1,0.2,0.2,0.3,0.2c0.4,0.3,0.1,0.6-0.4,1.2s-0.4,0.8,0,1"/>
					
						<path style="clip-path:url(#XMLID_00000183217759104926706690000013746678974089329063_);fill:none;stroke:#595959;stroke-width:0.1124;stroke-linecap:round;stroke-linejoin:round;stroke-miterlimit:10;" d="
						M25.7,8c0,0-1.5-0.8-2.9,0.1c-1.5,0.9-1.6,1.9-1.1,2.4c0.4,0.5-0.2,0.6-0.9,1.3c-0.7,0.7-0.6,1.8,0,2.1c0.6,0.3-0.5,0.7-1,1.4
						c-0.1,0.2-0.2,0.4-0.2,0.5"/>
					
						<path style="clip-path:url(#XMLID_00000183217759104926706690000013746678974089329063_);fill:none;stroke:#595959;stroke-width:0.1124;stroke-linecap:round;stroke-linejoin:round;stroke-miterlimit:10;" d="
						M21.9,7.6c0,0-1.6,1.2-1.4,1.9c0.2,0.7,0.6,1,0,1.6c-0.6,0.6-2.3,1.1-1.5,1.9c0.8,0.9,1,0.9,0.4,1.4c-0.6,0.4-1.1,0.6-1,1.3"/>
					
						<use xlink:href="#XMLID_158_"  style="overflow:visible;fill:none;stroke:#1A2E35;stroke-width:0.1124;stroke-linecap:round;stroke-linejoin:round;stroke-miterlimit:10;"/>
				</g>
				<g id="XMLID_152_">
					<path id="XMLID_157_" class="st5" d="M23.7,14.9c0,0-1,0.2-1,1.5c0.1,1.4,1.2,7.4,1.6,7.5c0.4,0.1,5.7-4.6,5.8-4.6
						c0.1,0,0.5-0.2,0.6-0.4c0.1-0.2,0.3-0.8,0.4-0.9c0.1-0.1,0.7-0.8,0.6-0.9c-0.1-0.1-0.2,0-0.2,0l-0.7,0.7c0,0-0.2,0,0-0.2
						c0.2-0.2,0.8-1,0.8-1.1c0-0.1-0.3,0.1-0.3,0.1s0.1-0.2-0.1-0.2c-0.2,0.1-0.4,0.2-0.4,0.2s-0.1,0-0.3,0.2
						c-0.1,0.2-0.8,0.9-0.8,0.9s-0.4,1.2-0.5,1.2c0,0.1-0.6,0.4-1.4,0.8c-0.9,0.4-2.4,1-2.4,1s-0.2-2.8-0.3-4
						C25.1,15.6,24.5,14.7,23.7,14.9z"/>
					<path id="XMLID_156_" class="st6" d="M31.3,16.5c0,0-0.8,0.9-0.9,1.1"/>
					<path id="XMLID_153_" class="st6" d="M30.8,16.5c0,0-0.7,1-0.8,1.1"/>
				</g>
			</g>
		</g>
		<g id="XMLID_1_">
			<g id="XMLID_145_">
				<path id="XMLID_151_" class="st0" d="M26.4,26.3c0,0,0.4,0.1,1.2-0.5C27.6,25.8,26.9,25.6,26.4,26.3z"/>
				<path id="XMLID_150_" class="st0" d="M26.1,26.7c0,0,0.4,0.1,1.2-0.5C27.3,26.3,26.6,26.1,26.1,26.7z"/>
				<path id="XMLID_149_" class="st0" d="M26,27.5c0,0,0.4,0,1-0.8C27,26.7,26.4,26.7,26,27.5z"/>
				<path id="XMLID_148_" class="st0" d="M27.6,27.8c0,0,0.1-0.4-0.5-1.2C27.1,26.6,26.9,27.3,27.6,27.8z"/>
				<path id="XMLID_147_" class="st4" d="M28,26.8c0,0,0.1-0.4-0.5-1.2C27.5,25.7,27.3,26.3,28,26.8z"/>
				<path id="XMLID_146_" class="st0" d="M27.8,27.2c0,0,0.1-0.4-0.5-1.2C27.3,26,27.1,26.7,27.8,27.2z"/>
			</g>
			<g id="XMLID_138_">
				<path id="XMLID_144_" class="st0" d="M27.6,23.4c0,0-0.1,0.4,0.5,1.2C28.1,24.6,28.3,23.9,27.6,23.4z"/>
				<path id="XMLID_143_" class="st0" d="M27.1,23.1c0,0-0.1,0.4,0.5,1.2C27.6,24.3,27.8,23.6,27.1,23.1z"/>
				<path id="XMLID_142_" class="st0" d="M26.4,23.1c0,0,0,0.4,0.8,1C27.2,24.1,27.2,23.4,26.4,23.1z"/>
				<path id="XMLID_141_" class="st0" d="M26.1,24.7c0,0,0.4,0.1,1.2-0.5C27.3,24.2,26.6,24,26.1,24.7z"/>
				<path id="XMLID_140_" class="st4" d="M27.1,25.1c0,0,0.4,0.1,1.2-0.5C28.3,24.6,27.6,24.4,27.1,25.1z"/>
				<path id="XMLID_139_" class="st0" d="M26.7,24.9c0,0,0.4,0.1,1.2-0.5C27.9,24.3,27.2,24.2,26.7,24.9z"/>
			</g>
			<g id="XMLID_131_">
				<path id="XMLID_137_" class="st4" d="M32.5,27.6c0,0,0-0.4-0.7-1.1C31.8,26.5,31.7,27.2,32.5,27.6z"/>
				<path id="XMLID_136_" class="st0" d="M33,27.8c0,0,0-0.4-0.7-1.1C32.3,26.7,32.2,27.4,33,27.8z"/>
				<path id="XMLID_135_" class="st0" d="M33.8,27.6c0,0-0.1-0.4-1-0.8C32.8,26.8,32.9,27.5,33.8,27.6z"/>
				<path id="XMLID_134_" class="st0" d="M33.7,26c0,0-0.4,0-1,0.7C32.7,26.8,33.4,26.8,33.7,26z"/>
				<path id="XMLID_133_" class="st0" d="M32.7,25.8c0,0-0.4,0-1,0.7C31.7,26.6,32.3,26.6,32.7,25.8z"/>
				<path id="XMLID_132_" class="st0" d="M33.1,26c0,0-0.4,0-1,0.7C32.1,26.7,32.8,26.7,33.1,26z"/>
			</g>
			<g id="XMLID_124_">
				<path id="XMLID_130_" class="st0" d="M32.3,26c0,0,0-0.7-1.1-1.6C31.2,24.4,31.1,25.4,32.3,26z"/>
				<path id="XMLID_129_" class="st0" d="M33.1,26.3c0,0,0-0.7-1.1-1.6C32,24.7,31.9,25.7,33.1,26.3z"/>
				<path id="XMLID_128_" class="st0" d="M34.2,26.1c0,0-0.1-0.6-1.5-1.3C32.8,24.8,32.9,25.8,34.2,26.1z"/>
				<path id="XMLID_127_" class="st0" d="M34.2,23.6c0,0-0.7,0-1.6,1.1C32.6,24.8,33.6,24.8,34.2,23.6z"/>
				<path id="XMLID_126_" class="st0" d="M32.6,23.3c0,0-0.7,0-1.6,1.1C31,24.5,32.1,24.5,32.6,23.3z"/>
				<path id="XMLID_125_" class="st0" d="M33.3,23.5c0,0-0.7,0-1.6,1.1C31.7,24.7,32.7,24.7,33.3,23.5z"/>
			</g>
			<g id="XMLID_117_">
				<path id="XMLID_123_" class="st0" d="M30.2,28.9c0,0,0.5-0.4,0.5-1.8C30.8,27.1,29.9,27.7,30.2,28.9z"/>
				<path id="XMLID_122_" class="st0" d="M30.5,29.7c0,0,0.5-0.4,0.5-1.8C31.1,27.9,30.2,28.4,30.5,29.7z"/>
				<path id="XMLID_121_" class="st0" d="M31.4,30.4c0,0,0.4-0.5,0-1.9C31.4,28.5,30.7,29.3,31.4,30.4z"/>
				<path id="XMLID_120_" class="st0" d="M33.2,28.8c0,0-0.4-0.5-1.9-0.5C31.4,28.3,32,29.2,33.2,28.8z"/>
				<path id="XMLID_119_" class="st4" d="M32.5,27.4c0,0-0.4-0.5-1.9-0.5C30.6,27,31.2,27.8,32.5,27.4z"/>
				<path id="XMLID_118_" class="st0" d="M32.7,28.1c0,0-0.4-0.5-1.9-0.5C30.8,27.6,31.5,28.4,32.7,28.1z"/>
			</g>
			<g id="XMLID_110_">
				<path id="XMLID_116_" class="st0" d="M27.8,27.4c0,0,0.7,0.1,1.7-0.9C29.5,26.5,28.5,26.3,27.8,27.4z"/>
				<path id="XMLID_115_" class="st0" d="M27.4,28.1c0,0,0.7,0.1,1.7-0.9C29.1,27.3,28.1,27,27.4,28.1z"/>
				<path id="XMLID_114_" class="st0" d="M27.4,29.3c0,0,0.7-0.1,1.4-1.3C28.8,28,27.8,28,27.4,29.3z"/>
				<path id="XMLID_113_" class="st0" d="M29.8,29.5c0,0,0.1-0.7-0.9-1.7C28.9,27.8,28.7,28.8,29.8,29.5z"/>
				<path id="XMLID_112_" class="st4" d="M30.3,28c0,0,0.1-0.7-0.9-1.7C29.4,26.3,29.2,27.3,30.3,28z"/>
				<path id="XMLID_111_" class="st0" d="M30,28.6c0,0,0.1-0.7-0.9-1.7C29.1,26.9,28.9,28,30,28.6z"/>
			</g>
			<g id="XMLID_95_">
				<g id="XMLID_107_">
					<path id="XMLID_109_" class="st4" d="M27,24.5c0,0-0.2,0.1-0.2,0.2c0,0.1-0.1,0.2-0.1,0.3c-0.1,0.1-0.1,0.3-0.1,0.3
						s0.1,0.1,0,0.2c-0.1,0.1-0.2,0.3-0.2,0.3c0,0.1,0.1,0.1,0.1,0.1c0,0.1-0.1,0.1,0,0.3c0.1,0.1,0.3,0.1,0.3,0.2
						c0,0.1,0,0.2,0.2,0.3c0.2,0.1,0.3,0,0.3,0s0.1,0.1,0.2,0.1c0.1,0,0.2-0.2,0.2-0.2c0.1,0,0.1,0,0.2,0c0.1,0,0.2-0.1,0.2-0.2
						c0-0.1,0.2,0,0.3-0.2c0.1-0.1-0.1-0.4-0.1-0.4s0-0.1,0.1-0.2c0.1-0.1-0.1-0.3-0.1-0.3s-0.1-0.1-0.1-0.2c0-0.1-0.1-0.2-0.2-0.2
						c-0.1,0-0.2-0.2-0.2-0.2s-0.1-0.2-0.3-0.1c-0.1,0.1-0.2,0-0.2,0s-0.1-0.2-0.2-0.1c-0.1,0.1-0.1,0.1-0.1,0.1S27.2,24.4,27,24.5z
						"/>
					<path id="XMLID_108_" class="st0" d="M27.8,25.6c0,0.2-0.1,0.3-0.3,0.3c-0.2,0-0.3-0.1-0.3-0.3c0-0.2,0.1-0.3,0.3-0.3
						C27.7,25.3,27.8,25.5,27.8,25.6z"/>
				</g>
				<line id="XMLID_105_" class="st6" x1="27.4" y1="25.3" x2="27.4" y2="24.8"/>
				<line id="XMLID_104_" class="st6" x1="27.7" y1="25.4" x2="27.9" y2="25.1"/>
				<line id="XMLID_103_" class="st6" x1="27.8" y1="25.8" x2="28.2" y2="26.1"/>
				<line id="XMLID_102_" class="st6" x1="27.3" y1="25.8" x2="27.1" y2="26.3"/>
				<line id="XMLID_101_" class="st6" x1="27.3" y1="25.5" x2="26.8" y2="25.4"/>
				<line id="XMLID_100_" class="st6" x1="27.5" y1="25.9" x2="27.6" y2="26.3"/>
				<line id="XMLID_99_" class="st6" x1="27.3" y1="25.4" x2="27.1" y2="24.9"/>
				<line id="XMLID_98_" class="st6" x1="27.2" y1="25.7" x2="26.8" y2="25.9"/>
				<line id="XMLID_97_" class="st6" x1="27.8" y1="25.6" x2="28.1" y2="25.6"/>
				<line id="XMLID_96_" class="st6" x1="27.7" y1="25.9" x2="27.8" y2="26.2"/>
			</g>
			<g id="XMLID_80_">
				<g id="XMLID_92_">
					<path id="XMLID_94_" class="st4" d="M29,26.3c0,0-0.2,0.1-0.2,0.2c0,0.1-0.1,0.2-0.1,0.3S28.5,27,28.5,27s0.1,0.1,0,0.2
						c-0.1,0.1-0.2,0.3-0.2,0.3c0,0.1,0.1,0.1,0.1,0.1c0,0.1-0.1,0.1,0,0.3c0.1,0.1,0.3,0.1,0.3,0.2c0,0.1,0,0.2,0.2,0.3
						c0.2,0.1,0.3,0,0.3,0s0.1,0.1,0.2,0.1c0.1,0,0.2-0.2,0.2-0.2c0.1,0,0.1,0,0.2,0c0.1,0,0.2-0.1,0.2-0.2c0-0.1,0.2,0,0.3-0.2
						c0.1-0.1-0.1-0.4-0.1-0.4s0-0.1,0.1-0.2c0.1-0.1-0.1-0.3-0.1-0.3s-0.1-0.1-0.1-0.2c0-0.1-0.1-0.2-0.2-0.2
						c-0.1,0-0.2-0.2-0.2-0.2s-0.1-0.2-0.3-0.1c-0.1,0.1-0.2,0-0.2,0s-0.1-0.2-0.2-0.1c-0.1,0.1-0.1,0.1-0.1,0.1S29.1,26.2,29,26.3z
						"/>
					<path id="XMLID_93_" class="st0" d="M29.8,27.3c0,0.2-0.1,0.3-0.3,0.3c-0.2,0-0.3-0.1-0.3-0.3c0-0.2,0.1-0.3,0.3-0.3
						C29.6,27.1,29.8,27.2,29.8,27.3z"/>
				</g>
				<line id="XMLID_90_" class="st6" x1="29.4" y1="27" x2="29.3" y2="26.6"/>
				<line id="XMLID_89_" class="st6" x1="29.7" y1="27.1" x2="29.9" y2="26.8"/>
				<line id="XMLID_88_" class="st6" x1="29.8" y1="27.5" x2="30.1" y2="27.8"/>
				<line id="XMLID_87_" class="st6" x1="29.3" y1="27.6" x2="29" y2="28"/>
				<line id="XMLID_86_" class="st6" x1="29.2" y1="27.2" x2="28.8" y2="27.1"/>
				<line id="XMLID_85_" class="st6" x1="29.5" y1="27.6" x2="29.5" y2="28"/>
				<line id="XMLID_84_" class="st6" x1="29.3" y1="27.1" x2="29.1" y2="26.6"/>
				<line id="XMLID_83_" class="st6" x1="29.2" y1="27.5" x2="28.8" y2="27.6"/>
				<line id="XMLID_82_" class="st6" x1="29.8" y1="27.3" x2="30.1" y2="27.3"/>
				<line id="XMLID_81_" class="st6" x1="29.6" y1="27.6" x2="29.8" y2="27.9"/>
			</g>
			<g id="XMLID_73_">
				<path id="XMLID_79_" class="st0" d="M29.3,22.3c0,0-0.3,0.3-0.3,1.2C28.9,23.5,29.5,23.1,29.3,22.3z"/>
				<path id="XMLID_78_" class="st0" d="M29.1,21.8c0,0-0.3,0.3-0.3,1.2C28.7,23,29.3,22.6,29.1,21.8z"/>
				<path id="XMLID_77_" class="st0" d="M28.5,21.3c0,0-0.3,0.4,0,1.3C28.5,22.5,28.9,22,28.5,21.3z"/>
				<path id="XMLID_76_" class="st0" d="M27.3,22.4c0,0,0.3,0.3,1.2,0.3C28.5,22.7,28.1,22.1,27.3,22.4z"/>
				<path id="XMLID_75_" class="st0" d="M27.8,23.3c0,0,0.3,0.3,1.2,0.3C29,23.6,28.6,23,27.8,23.3z"/>
				<path id="XMLID_74_" class="st0" d="M27.6,22.9c0,0,0.3,0.3,1.2,0.3C28.9,23.2,28.5,22.6,27.6,22.9z"/>
			</g>
			<g id="XMLID_66_">
				<path id="XMLID_72_" class="st0" d="M27.6,26.5c0,0,0.4,0.1,1.2-0.5C28.8,26.1,28.2,25.9,27.6,26.5z"/>
				<path id="XMLID_71_" class="st0" d="M27.3,27c0,0,0.4,0.1,1.2-0.5C28.5,26.5,27.9,26.3,27.3,27z"/>
				<path id="XMLID_70_" class="st0" d="M27.3,27.7c0,0,0.4,0,1-0.8C28.3,27,27.6,27,27.3,27.7z"/>
				<path id="XMLID_69_" class="st0" d="M28.9,28.1c0,0,0.1-0.4-0.5-1.2C28.4,26.9,28.2,27.5,28.9,28.1z"/>
				<path id="XMLID_68_" class="st0" d="M29.3,27.1c0,0,0.1-0.4-0.5-1.2C28.8,25.9,28.6,26.6,29.3,27.1z"/>
				<path id="XMLID_67_" class="st0" d="M29.1,27.5c0,0,0.1-0.4-0.5-1.2C28.6,26.3,28.4,27,29.1,27.5z"/>
			</g>
			<g id="XMLID_59_">
				<path id="XMLID_65_" class="st4" d="M31,23.3c0,0-0.4,0-1.1,0.7C29.9,24,30.6,24.1,31,23.3z"/>
				<path id="XMLID_64_" class="st0" d="M31.1,22.8c0,0-0.4,0-1.1,0.7C30.1,23.5,30.8,23.5,31.1,22.8z"/>
				<path id="XMLID_63_" class="st0" d="M31,22c0,0-0.4,0.1-0.8,1C30.2,23,30.9,22.9,31,22z"/>
				<path id="XMLID_62_" class="st0" d="M29.4,22.1c0,0,0,0.4,0.7,1C30.1,23.1,30.2,22.4,29.4,22.1z"/>
				<path id="XMLID_61_" class="st0" d="M29.2,23.1c0,0,0,0.4,0.7,1C29.9,24.1,30,23.4,29.2,23.1z"/>
				<path id="XMLID_60_" class="st0" d="M29.3,22.7c0,0,0,0.4,0.7,1C30.1,23.7,30.1,23,29.3,22.7z"/>
			</g>
			<g id="XMLID_44_">
				<g id="XMLID_56_">
					<path id="XMLID_58_" class="st4" d="M28.6,23.4c0,0-0.3,0.1-0.3,0.3c0,0.2-0.1,0.3-0.2,0.3c-0.1,0.1-0.2,0.4-0.2,0.4
						s0.1,0.1,0,0.2c-0.1,0.1-0.2,0.3-0.2,0.4c0,0.1,0.2,0.1,0.2,0.2c0,0.1-0.1,0.2,0,0.3c0.1,0.1,0.4,0.1,0.4,0.2
						c0,0.1,0,0.3,0.2,0.4c0.2,0.1,0.4,0,0.4,0s0.1,0.1,0.2,0.2c0.1,0,0.2-0.2,0.3-0.2s0.1,0,0.3,0c0.2,0,0.2-0.1,0.3-0.2
						s0.3,0,0.3-0.2c0.1-0.2-0.1-0.5-0.1-0.5s0-0.1,0.1-0.3c0.1-0.1-0.1-0.4-0.1-0.4s-0.1-0.1-0.1-0.2c0-0.2-0.1-0.3-0.3-0.2
						c-0.1,0-0.2-0.3-0.2-0.3s-0.2-0.2-0.3-0.1c-0.1,0.1-0.3,0-0.3,0s-0.1-0.2-0.2-0.1s-0.1,0.1-0.1,0.1S28.8,23.3,28.6,23.4z"/>
					<circle id="XMLID_57_" class="st0" cx="29.3" cy="24.8" r="0.4"/>
				</g>
				<line id="XMLID_54_" class="st6" x1="29.2" y1="24.4" x2="29.1" y2="23.8"/>
				<line id="XMLID_53_" class="st6" x1="29.5" y1="24.6" x2="29.8" y2="24.1"/>
				<line id="XMLID_52_" class="st6" x1="29.6" y1="25.1" x2="30.2" y2="25.5"/>
				<line id="XMLID_51_" class="st6" x1="29" y1="25.1" x2="28.7" y2="25.7"/>
				<line id="XMLID_50_" class="st6" x1="28.9" y1="24.7" x2="28.4" y2="24.5"/>
				<line id="XMLID_49_" class="st6" x1="29.3" y1="25.2" x2="29.3" y2="25.7"/>
				<line id="XMLID_48_" class="st6" x1="29.1" y1="24.5" x2="28.7" y2="23.9"/>
				<line id="XMLID_47_" class="st6" x1="28.9" y1="25" x2="28.4" y2="25.2"/>
				<line id="XMLID_46_" class="st6" x1="29.6" y1="24.8" x2="30.1" y2="24.8"/>
				<line id="XMLID_45_" class="st6" x1="29.5" y1="25.2" x2="29.6" y2="25.6"/>
			</g>
			<g id="XMLID_29_">
				<g id="XMLID_41_">
					<path id="XMLID_43_" class="st4" d="M30.5,25.2c0,0-0.3,0.1-0.3,0.3s-0.1,0.3-0.2,0.3c-0.1,0.1-0.2,0.4-0.2,0.4s0.1,0.1,0,0.2
						c-0.1,0.1-0.2,0.3-0.2,0.4c0,0.1,0.2,0.1,0.2,0.2c0,0.1-0.1,0.2,0,0.3c0.1,0.1,0.4,0.1,0.4,0.2c0,0.1,0,0.3,0.2,0.4
						c0.2,0.1,0.4,0,0.4,0s0.1,0.1,0.2,0.2c0.1,0,0.2-0.2,0.3-0.2c0.1,0,0.1,0,0.3,0c0.2,0,0.2-0.1,0.3-0.2s0.3,0,0.3-0.2
						c0.1-0.2-0.1-0.5-0.1-0.5s0-0.1,0.1-0.3c0.1-0.1-0.1-0.4-0.1-0.4s-0.1-0.1-0.1-0.2c0-0.2-0.1-0.3-0.3-0.2
						c-0.1,0-0.2-0.3-0.2-0.3s-0.2-0.2-0.3-0.1c-0.1,0.1-0.3,0-0.3,0s-0.1-0.2-0.2-0.1c-0.1,0.1-0.1,0.1-0.1,0.1
						S30.7,25.1,30.5,25.2z"/>
					<path id="XMLID_42_" class="st0" d="M31.5,26.6c0,0.2-0.2,0.4-0.4,0.4c-0.2,0-0.4-0.2-0.4-0.4c0-0.2,0.2-0.4,0.4-0.4
						C31.3,26.3,31.5,26.4,31.5,26.6z"/>
				</g>
				<line id="XMLID_39_" class="st6" x1="31" y1="26.2" x2="30.9" y2="25.6"/>
				<line id="XMLID_38_" class="st6" x1="31.4" y1="26.4" x2="31.6" y2="25.9"/>
				<line id="XMLID_37_" class="st6" x1="31.5" y1="26.8" x2="32" y2="27.3"/>
				<line id="XMLID_36_" class="st6" x1="30.8" y1="26.9" x2="30.5" y2="27.5"/>
				<line id="XMLID_35_" class="st6" x1="30.8" y1="26.5" x2="30.2" y2="26.3"/>
				<line id="XMLID_34_" class="st6" x1="31.1" y1="27" x2="31.2" y2="27.5"/>
				<line id="XMLID_33_" class="st6" x1="30.9" y1="26.3" x2="30.6" y2="25.7"/>
				<line id="XMLID_32_" class="st6" x1="30.7" y1="26.8" x2="30.2" y2="26.9"/>
				<line id="XMLID_31_" class="st6" x1="31.5" y1="26.6" x2="32" y2="26.6"/>
				<line id="XMLID_30_" class="st6" x1="31.3" y1="27" x2="31.5" y2="27.4"/>
			</g>
			<g id="XMLID_14_">
				<g id="XMLID_26_">
					<path id="XMLID_28_" class="st4" d="M30.6,23.1c0,0-0.2,0.1-0.2,0.2c0,0.1-0.1,0.2-0.1,0.3c-0.1,0.1-0.1,0.3-0.1,0.3
						s0.1,0.1,0,0.2C30.1,24,30,24.2,30,24.3s0.1,0.1,0.1,0.1c0,0.1-0.1,0.1,0,0.3c0.1,0.1,0.3,0.1,0.3,0.2c0,0.1,0,0.2,0.2,0.3
						c0.2,0.1,0.3,0,0.3,0s0.1,0.1,0.2,0.1c0.1,0,0.2-0.2,0.2-0.2c0.1,0,0.1,0,0.2,0c0.1,0,0.2-0.1,0.2-0.2c0-0.1,0.2,0,0.3-0.2
						c0.1-0.1-0.1-0.4-0.1-0.4s0-0.1,0.1-0.2c0.1-0.1-0.1-0.3-0.1-0.3S32,23.8,32,23.6c0-0.1-0.1-0.2-0.2-0.2
						c-0.1,0-0.2-0.2-0.2-0.2s-0.1-0.2-0.3-0.1c-0.1,0.1-0.2,0-0.2,0S31.1,23,31,23.1c-0.1,0.1-0.1,0.1-0.1,0.1S30.8,23,30.6,23.1z"
						/>
					<path id="XMLID_27_" class="st0" d="M31.4,24.1c0,0.2-0.1,0.3-0.3,0.3c-0.2,0-0.3-0.1-0.3-0.3c0-0.2,0.1-0.3,0.3-0.3
						C31.3,23.9,31.4,24,31.4,24.1z"/>
				</g>
				<line id="XMLID_24_" class="st6" x1="31.1" y1="23.8" x2="31" y2="23.4"/>
				<line id="XMLID_23_" class="st6" x1="31.3" y1="23.9" x2="31.5" y2="23.6"/>
				<line id="XMLID_22_" class="st6" x1="31.4" y1="24.3" x2="31.8" y2="24.6"/>
				<line id="XMLID_21_" class="st6" x1="30.9" y1="24.4" x2="30.7" y2="24.8"/>
				<line id="XMLID_20_" class="st6" x1="30.9" y1="24" x2="30.4" y2="23.9"/>
				<line id="XMLID_19_" class="st6" x1="31.1" y1="24.4" x2="31.2" y2="24.8"/>
				<line id="XMLID_18_" class="st6" x1="31" y1="23.9" x2="30.7" y2="23.4"/>
				<line id="XMLID_17_" class="st6" x1="30.8" y1="24.3" x2="30.5" y2="24.4"/>
				<line id="XMLID_16_" class="st6" x1="31.4" y1="24.1" x2="31.8" y2="24.1"/>
				<line id="XMLID_15_" class="st6" x1="31.3" y1="24.4" x2="31.4" y2="24.7"/>
			</g>
			<circle id="XMLID_13_" class="st0" cx="31.6" cy="22.6" r="0.2"/>
			<path id="XMLID_12_" class="st0" d="M30.2,21.8c0,0.1,0,0.1-0.1,0.1c-0.1,0-0.1,0-0.1-0.1c0-0.1,0-0.1,0.1-0.1
				C30.1,21.7,30.2,21.7,30.2,21.8z"/>
			<path id="XMLID_11_" class="st0" d="M32.2,22.8C32.2,22.8,32.1,22.9,32.2,22.8c-0.2,0.1-0.2,0.1-0.2,0C32,22.7,32,22.7,32.2,22.8
				C32.1,22.7,32.2,22.7,32.2,22.8z"/>
			<circle id="XMLID_10_" class="st0" cx="31" cy="21.4" r="0.1"/>
			<path id="XMLID_9_" class="st0" d="M30.6,22C30.6,22.1,30.5,22.1,30.6,22c-0.2,0.1-0.2,0.1-0.2,0C30.4,22,30.4,21.9,30.6,22
				C30.5,21.9,30.6,22,30.6,22z"/>
			<path id="XMLID_8_" class="st0" d="M30.6,21.5C30.6,21.6,30.5,21.6,30.6,21.5c-0.1,0.1-0.1,0-0.1,0
				C30.4,21.5,30.4,21.4,30.6,21.5C30.5,21.4,30.6,21.5,30.6,21.5z"/>
			<path id="XMLID_7_" class="st0" d="M26,26.1C26,26.1,25.9,26.2,26,26.1c-0.2,0.1-0.2,0.1-0.2,0C25.8,26,25.8,26,26,26.1
				C25.9,26,26,26,26,26.1z"/>
			<path id="XMLID_6_" class="st0" d="M26.1,25.5c0,0.1-0.1,0.1-0.1,0.1s-0.1-0.1-0.1-0.1c0-0.1,0.1-0.1,0.1-0.1
				S26.1,25.4,26.1,25.5z"/>
			<circle id="XMLID_5_" class="st0" cx="25.4" cy="25.7" r="0.1"/>
			<path id="XMLID_4_" class="st0" d="M32.4,29.6C32.4,29.6,32.4,29.6,32.4,29.6c-0.1,0.1-0.2,0-0.2,0
				C32.3,29.5,32.3,29.5,32.4,29.6C32.4,29.5,32.4,29.5,32.4,29.6z"/>
			<path id="XMLID_3_" class="st0" d="M32.1,29.1C32.1,29.1,32,29.2,32.1,29.1c-0.2,0.1-0.2,0.1-0.2,0C31.9,29,31.9,29,32.1,29.1
				C32,29,32.1,29,32.1,29.1z"/>
			<path id="XMLID_2_" class="st0" d="M33.5,28.1c0,0.1-0.1,0.1-0.1,0.1c-0.1,0-0.1-0.1-0.1-0.1c0-0.1,0.1-0.1,0.1-0.1
				C33.4,28,33.5,28,33.5,28.1z"/>
		</g>
	</g>
</g>
</svg>
