<svg width="71" height="26" viewBox="0 0 71 26" fill="none" xmlns="http://www.w3.org/2000/svg">
<path d="M40.1383 11.2389L41.925 6.58852C41.4539 6.30521 40.7851 6.13477 40.0675 6.13477C38.4664 6.13477 37.3168 6.93171 36.2746 9.3617V6.37892H32.9234L27.4902 20.5442H32.3498L35.3398 12.7038C37.1215 8.03039 39.8503 9.94904 40.1383 11.2366V11.2389Z" fill="#009639"/>
<path d="M68.2394 19.111C68.4501 19.111 68.6408 19.1603 68.8114 19.259C68.9848 19.355 69.1208 19.487 69.2194 19.655C69.3181 19.823 69.3674 20.0056 69.3674 20.203C69.3674 20.403 69.3181 20.587 69.2194 20.755C69.1208 20.9203 68.9848 21.0523 68.8114 21.151C68.6408 21.247 68.4501 21.295 68.2394 21.295C68.0288 21.295 67.8368 21.247 67.6634 21.151C67.4928 21.0523 67.3581 20.9203 67.2594 20.755C67.1608 20.587 67.1114 20.403 67.1114 20.203C67.1114 20.0056 67.1608 19.823 67.2594 19.655C67.3581 19.487 67.4928 19.355 67.6634 19.259C67.8368 19.1603 68.0288 19.111 68.2394 19.111ZM68.2394 21.083C68.4128 21.083 68.5661 21.0456 68.6994 20.971C68.8354 20.8936 68.9408 20.7883 69.0154 20.655C69.0901 20.5216 69.1274 20.371 69.1274 20.203C69.1274 20.0376 69.0901 19.8883 69.0154 19.755C68.9408 19.6216 68.8354 19.5176 68.6994 19.443C68.5634 19.3656 68.4101 19.327 68.2394 19.327C68.0688 19.327 67.9154 19.3656 67.7794 19.443C67.6434 19.5176 67.5381 19.6216 67.4634 19.755C67.3888 19.8883 67.3514 20.0376 67.3514 20.203C67.3514 20.371 67.3888 20.5216 67.4634 20.655C67.5381 20.7883 67.6421 20.8936 67.7754 20.971C67.9114 21.0456 68.0661 21.083 68.2394 21.083ZM68.7114 20.011C68.7114 20.075 68.6954 20.1336 68.6634 20.187C68.6314 20.2376 68.5861 20.2763 68.5274 20.303L68.7874 20.687H68.4994L68.2674 20.327H68.0754V20.687H67.8234V19.699H68.3954C68.4914 19.699 68.5674 19.7296 68.6234 19.791C68.6821 19.8496 68.7114 19.923 68.7114 20.011ZM68.0754 20.107H68.3474C68.3794 20.107 68.4048 20.099 68.4234 20.083C68.4421 20.0643 68.4514 20.0403 68.4514 20.011C68.4514 19.9816 68.4421 19.959 68.4234 19.943C68.4048 19.9243 68.3794 19.915 68.3474 19.915H68.0754V20.107Z" fill="#009639"/>
<path d="M13.578 16.2224C15.3012 11.7217 8.77945 8.78733 9.94126 5.7723C10.2708 4.92008 10.9371 4.44099 12.0208 4.44099C13.6317 4.44099 15.2475 5.66405 15.9138 8.24605L17.9128 3.06131C16.6143 1.90966 15.1743 1.34766 12.6408 1.34766C9.231 1.34766 6.43143 2.82177 5.26718 5.8368C3.40976 10.6553 9.8241 13.6174 8.75504 16.3974C8.36452 17.4109 7.57859 17.8462 6.42655 17.8462C4.8791 17.8462 2.98994 16.2201 2.12835 13.6842L0 19.2144C1.27164 20.5733 3.09978 21.0432 5.29891 21.0432C9.43846 21.0432 12.3137 19.523 13.578 16.2224Z" fill="#009639"/>
<path d="M23.3703 6.38582L18.4815 6.37891L11.1152 25.5608H15.9748L22.3672 8.90793C24.4028 8.90793 25.24 10.594 23.9122 14.0351C22.9725 16.472 21.4177 18.872 18.4034 20.5949C23.0311 20.5949 26.951 18.8674 28.9426 13.7011C30.9343 8.5371 27.6197 6.38582 23.3703 6.38582Z" fill="#009639"/>
<path d="M47.0114 6.6523C48.8082 6.39677 50.0453 4.81506 49.7745 3.11944C49.5037 1.42382 47.8276 0.256401 46.0308 0.511931C44.234 0.767461 42.9969 2.34918 43.2676 4.0448C43.5384 5.74041 45.2145 6.90783 47.0114 6.6523Z" fill="#009639"/>
<path d="M66.0773 6.13477C61.4643 6.13477 58.3694 9.06687 56.6999 13.3948C55.1988 17.2828 56.5779 20.7515 60.8443 20.7515C64.5543 20.7515 67.3978 18.5335 68.7524 16.0528C67.2343 17.2321 65.3231 18.1764 63.6732 18.1764C61.4423 18.1764 60.7638 15.8501 61.7303 13.3441C62.9068 10.2945 64.5763 7.96359 65.8211 7.96359C67.4393 7.96359 65.9577 12.2915 61.95 14.3207C66.4874 14.3207 69.0087 13.1345 70.0729 10.3751C70.9564 8.08336 69.1088 6.13477 66.0773 6.13477Z" fill="#009639"/>
<path d="M59.2183 6.34306H56.5725L58.2957 1.87695H55.9086C54.3221 5.38949 51.4542 7.33348 48.3447 7.81718L47.7003 9.45943H50.517L46.2676 20.5429H51.1272L55.3765 9.45943H58.0223L59.2183 6.34076V6.34306Z" fill="#009639"/>
<path d="M42.8053 7.05113L37.6309 20.5439H42.4904L47.3305 7.91948C45.783 7.98397 44.2917 7.726 42.8053 7.04883V7.05113Z" fill="#009639"/>
</svg>
