<svg width="343" height="60" viewBox="0 0 343 60" fill="none" xmlns="http://www.w3.org/2000/svg">
<rect width="343" height="60" rx="10" fill="#484848"/>
<g opacity="0.3">
<mask id="mask0_501_4030" style="mask-type:alpha" maskUnits="userSpaceOnUse" x="0" y="0" width="343" height="60">
<path d="M0 10C0 4.47715 4.47715 0 10 0H333C338.523 0 343 4.47715 343 10V50C343 55.5228 338.523 60 333 60H10C4.47716 60 0 55.5228 0 50V10Z" fill="#1D0101"/>
</mask>
<g mask="url(#mask0_501_4030)">
<path d="M296.823 3.90799C296.823 3.90773 296.823 3.90743 296.822 3.90711C295.094 1.18222 294.101 -1.96909 291.994 -4.44022C288.492 -8.54618 282.575 -10.052 278.538 -13.6875C276.311 -15.6921 274.731 -18.2812 272.468 -20.249C268.434 -23.758 262.423 -25.1436 259.389 -29.4695C258.78 -30.3383 258.306 -31.3972 258.579 -32.4082C258.795 -33.2102 259.45 -33.8441 260.178 -34.299C263.052 -36.0963 267.034 -35.4474 269.877 -33.6085C272.721 -31.7696 274.68 -28.9613 276.562 -26.2245C278.445 -23.4877 280.397 -20.6763 283.233 -18.8264C287.017 -16.3567 292.031 -15.8351 295.463 -12.9373C299.178 -9.80146 300.106 -4.74815 301.633 -0.25257C302.117 1.17317 302.71 2.61854 303.816 3.68529C305.26 5.07725 307.349 5.61847 309.285 6.27596C311.951 7.18168 314.601 8.48566 316.252 10.6734C317.344 12.1211 318.92 16.3048 316.346 17.1948C314.209 17.934 310.997 15.3072 309.328 14.352C304.568 11.6271 299.751 8.52515 296.824 3.90886C296.824 3.90854 296.823 3.90825 296.823 3.90799V3.90799Z" fill="#C7C7C7" fill-opacity="0.2"/>
<path d="M97.5495 27.883C97.5492 27.883 97.549 27.8828 97.5489 27.8826C94.9972 20.7996 93.0394 12.9296 86.9712 8.15835C83.4835 5.41607 79.0401 4.06339 75.136 1.88668C69.9004 -1.03234 65.6354 -5.50043 63.0845 -10.7368C60.7979 -15.4303 59.7537 -20.8622 55.9902 -24.5966C50.1416 -30.3986 39.5166 -30.2878 34.3751 -36.6663C31.716 -39.9647 30.9346 -44.6025 27.5014 -47.1743C24.2087 -49.6417 19.5232 -49.4178 15.6902 -51.0328C11.92 -52.622 9.02216 -56.4396 9.56571 -60.3264C10.3356 -65.8244 17.5175 -68.7622 23.1538 -67.3357C28.7901 -65.9092 33.0072 -61.5338 36.5973 -57.1615C40.1874 -52.7901 43.666 -48.0651 48.7728 -45.3849C54.8328 -42.2035 62.2328 -42.4069 68.6927 -40.0417C73.9159 -38.129 78.4246 -34.499 81.2696 -29.9155C84.8895 -24.0829 85.8163 -16.9299 89.9368 -11.4053C97.4301 -1.35755 112.741 0.14988 122.216 8.54954C129.45 14.9618 132.451 25.3685 129.668 34.3927C127.73 40.6808 122.701 46.3453 115.329 46.3516C110.381 46.3563 105.479 41.2181 102.733 37.7233C100.416 34.7761 98.7982 31.3498 97.55 27.8834C97.5499 27.8831 97.5497 27.883 97.5495 27.883V27.883Z" fill="#C7C7C7" fill-opacity="0.2"/>
<path d="M208.549 74.4767C205.997 67.3936 204.04 59.5234 197.971 54.7521C194.484 52.0098 190.04 50.6571 186.136 48.4804C180.9 45.5614 176.635 41.0933 174.084 35.857C171.798 31.1635 170.754 25.7315 166.99 21.9971C161.142 16.1952 150.517 16.3059 145.375 9.92745C142.716 6.62901 141.935 1.99126 138.501 -0.580563C135.209 -3.04791 130.523 -2.82404 126.69 -4.43908C122.92 -6.02821 120.022 -9.84589 120.566 -13.7327C121.336 -19.2306 128.517 -22.1685 134.154 -20.742C139.79 -19.3154 144.007 -14.94 147.597 -10.5678C151.187 -6.19632 154.666 -1.47136 159.773 1.20886C165.833 4.39025 173.233 4.18681 179.693 6.55204C184.916 8.4648 189.425 12.0947 192.27 16.6783C195.889 22.5108 196.816 29.6639 200.937 35.1885C208.43 45.2362 223.741 46.7436 233.216 55.1433C240.45 61.5556 243.451 71.9623 240.668 80.9864C238.73 87.2746 233.701 92.939 226.329 92.9453C221.381 92.95 216.479 87.8119 213.733 84.3171C211.416 81.3698 209.797 77.9433 208.549 74.4767Z" fill="#C7C7C7" fill-opacity="0.2"/>
<path d="M205.56 16.303C205.56 16.303 205.56 16.3028 205.56 16.3027C203.077 12.3877 201.651 7.86008 198.623 4.30881C193.591 -1.59052 185.09 -3.75386 179.289 -8.97606C176.09 -11.8566 173.82 -15.5761 170.569 -18.404C164.773 -23.4463 156.135 -25.436 151.778 -31.6511C150.903 -32.8986 150.222 -34.4201 150.613 -35.8734C150.923 -37.0257 151.865 -37.9369 152.91 -38.5905C157.039 -41.1725 162.759 -40.2409 166.845 -37.5984C170.931 -34.9559 173.746 -30.9222 176.451 -26.9898C179.155 -23.0575 181.96 -19.019 186.034 -16.3608C191.471 -12.8126 198.674 -12.0624 203.605 -7.8991C208.942 -3.39331 210.276 3.86655 212.469 10.3252C213.165 12.373 214.017 14.4508 215.607 15.9826C217.682 17.9817 220.681 18.7602 223.463 19.7052C227.295 21.006 231.102 22.8795 233.473 26.0232C235.042 28.1033 237.307 34.1133 233.608 35.3922C230.538 36.4542 225.923 32.6805 223.525 31.3074C216.686 27.3924 209.766 22.9362 205.559 16.3034C205.559 16.3032 205.559 16.303 205.56 16.303V16.303Z" fill="#C7C7C7" fill-opacity="0.2"/>
<path d="M265.823 43.8455C265.823 43.8452 265.823 43.8449 265.822 43.8446C264.094 41.1197 263.102 37.9684 260.994 35.4973C257.492 31.3913 251.575 29.8855 247.538 26.25C245.311 24.2454 243.731 21.6562 241.468 19.6885C237.434 16.1795 231.423 14.7939 228.389 10.468C227.78 9.59917 227.306 8.54027 227.579 7.5293C227.795 6.72727 228.45 6.09335 229.178 5.63853C232.052 3.84124 236.034 4.49008 238.877 6.32901C241.721 8.16793 243.68 10.9762 245.562 13.713C247.445 16.4498 249.397 19.2612 252.233 21.1111C256.017 23.5808 261.031 24.1024 264.463 27.0002C268.178 30.136 269.106 35.1893 270.633 39.6849C271.117 41.1107 271.71 42.556 272.816 43.6228C274.26 45.0147 276.349 45.556 278.285 46.2135C280.951 47.1192 283.601 48.4232 285.252 50.6109C286.344 52.0586 287.92 56.2423 285.346 57.1323C283.209 57.8715 279.997 55.2447 278.328 54.2895C273.568 51.5646 268.751 48.4626 265.824 43.8464C265.824 43.846 265.823 43.8457 265.823 43.8455V43.8455Z" fill="#C7C7C7" fill-opacity="0.2"/>
<path d="M243.97 -10.407C243.97 -10.4068 243.971 -10.4072 243.97 -10.4075C243.214 -11.7841 242.333 -13.1488 241.034 -14.0911C239.562 -15.1595 237.7 -15.5836 235.917 -16.0652C233.334 -16.7619 230.674 -17.7132 228.952 -19.6731C227.231 -21.633 226.861 -24.8733 228.823 -26.6156C230.433 -28.0445 233.003 -28.0005 235.043 -27.215C238.828 -25.7578 241.302 -22.318 243.378 -18.9748C245.455 -15.6315 247.502 -12.055 250.934 -9.95217C253.561 -8.34341 256.789 -7.74484 259.301 -5.97897C264.248 -2.50065 265.485 9.32235 256.562 6.51958C249.334 4.24879 247.087 -4.72864 243.969 -10.4065C243.969 -10.4069 243.97 -10.4072 243.97 -10.407V-10.407Z" fill="#C7C7C7" fill-opacity="0.2"/>
<path d="M315.97 46.6516C315.97 46.6518 315.971 46.6514 315.97 46.6511C315.214 45.2745 314.333 43.9098 313.034 42.9675C311.562 41.8991 309.7 41.475 307.917 40.9934C305.334 40.2967 302.674 39.3454 300.952 37.3855C299.231 35.4256 298.861 32.1853 300.823 30.443C302.433 29.0141 305.003 29.0581 307.043 29.8436C310.828 31.3008 313.302 34.7406 315.378 38.0838C317.455 41.427 319.502 45.0036 322.934 47.1064C325.561 48.7152 328.789 49.3138 331.301 51.0796C336.248 54.5579 337.485 66.3809 328.562 63.5782C321.334 61.3074 319.087 52.33 315.969 46.6521C315.969 46.6517 315.97 46.6514 315.97 46.6516V46.6516Z" fill="#C7C7C7" fill-opacity="0.2"/>
<path d="M84.5915 56.1952C84.5913 56.1954 84.591 56.1954 84.5908 56.1951C78.9399 47.7869 76.4542 37.8549 72.2215 28.7233C70.2967 24.5702 67.8235 20.3857 63.7609 18.0047C60.4277 16.0519 56.4022 15.5366 52.7609 14.1682C36.6541 8.11492 31.4433 -12.7008 15.6711 -19.5035C12.5435 -20.8522 8.97987 -21.5671 5.6508 -20.7635C3.96561 -20.3566 2.22672 -19.3849 1.80708 -17.7808C1.26848 -15.722 3.09162 -13.8422 4.78094 -12.4573C9.80016 -8.34192 15.0903 -4.52582 20.6101 -1.0365C23.66 0.891191 26.8701 2.80081 28.9237 5.68449C30.9278 8.49825 31.6539 12.0111 33.7463 14.7652C36.3047 18.132 40.5821 19.9591 43.4097 23.1248C44.1507 23.9543 44.7868 25.2002 44.0904 26.0635C43.5436 26.7414 42.4878 26.7571 41.5957 26.655C33.5407 25.732 26.7041 20.3448 22.0905 13.9985C19.6742 10.675 17.6355 6.94527 14.1998 4.56825C10.7642 2.19124 5.28237 1.79691 2.71246 5.01443C0.381279 7.93346 1.66252 12.3796 4.42821 14.9333C7.1939 17.4871 11.0194 18.6473 14.6591 19.8531C20.0765 21.6488 25.4716 23.7634 29.9885 27.1279C34.4799 30.4734 38.1113 35.0484 43.3717 37.1481C47.2815 38.7089 51.6482 38.7128 55.862 39.1606C60.0758 39.6083 64.5398 40.69 67.3006 43.7504C70.0084 46.7519 70.4843 50.9577 71.768 54.7188C73.8414 60.7956 78.6698 66.2904 85.1371 68.0209C87.9987 68.7868 96.8203 67.7633 94.3462 62.9448C93.5127 61.3219 91.1749 61.4146 89.6731 60.8459C87.3991 59.9843 85.8718 58.0984 84.5923 56.1953C84.5921 56.195 84.5917 56.195 84.5915 56.1952V56.1952Z" fill="#C7C7C7" fill-opacity="0.2"/>
<path d="M-2.52086 21.7886C-2.52114 21.7884 -2.52144 21.7881 -2.52177 21.788C-7.32599 18.9577 -11.4513 15.2078 -16.0474 12.0807C-20.6437 8.95348 -25.9842 6.3903 -31.6345 6.47828C-33.2454 6.50342 -35.0446 6.85534 -35.9409 8.12868C-36.5199 8.95113 -36.5984 10.0171 -36.4059 10.9904C-35.8459 13.8198 -33.2413 15.9227 -30.4516 17.0413C-27.662 18.1591 -24.6105 18.5212 -21.6985 19.3099C-9.48011 22.6185 -1.00708 32.8901 9.47 39.7227C11.6632 41.1531 14.0299 42.4649 16.6527 42.8813C19.2755 43.2984 22.2171 42.6676 23.9411 40.7415C28.8108 35.3017 19.5919 31.6576 15.6308 29.8462C9.6139 27.0946 3.18147 25.1481 -2.51996 21.7893C-2.52029 21.7891 -2.52059 21.7889 -2.52086 21.7886V21.7886Z" fill="#C7C7C7" fill-opacity="0.2"/>
</g>
</g>
</svg>
