<svg width="22" height="24" viewBox="0 0 22 24" fill="none" xmlns="http://www.w3.org/2000/svg">
<path d="M18.5977 15.178V10.618C18.5977 7.23095 16.4283 4.27743 13.4414 3.17422C13.4762 3 13.4956 2.82197 13.4956 2.64388C13.4956 1.18454 12.3102 0 10.8497 0C9.38919 0 8.20372 1.18454 8.20372 2.64388C8.20372 2.81809 8.22307 2.99224 8.25406 3.1587C7.22748 3.52258 6.27834 4.09934 5.46868 4.88127C3.94233 6.35224 3.10168 8.33029 3.10168 10.4516V15.178C3.10168 15.3445 2.96608 15.4839 2.79561 15.4839C1.36611 15.4839 0.145765 16.56 0.0140462 17.9303C-0.0595768 18.6929 0.192281 19.4516 0.707512 20.0168C1.21886 20.5781 1.95108 20.9032 2.71422 20.9032H7.3863C7.58 22.6413 9.0599 24 10.8497 24C12.6395 24 14.1194 22.6413 14.3131 20.9032H18.9851C19.7484 20.9032 20.4805 20.5781 20.9919 20.0168C21.5032 19.4516 21.7551 18.6929 21.6853 17.9303C21.5536 16.56 20.3294 15.4839 18.9038 15.4839C18.7333 15.4838 18.5977 15.3483 18.5977 15.178ZM10.8497 1.54835C11.454 1.54835 11.946 2.03997 11.946 2.64381C11.946 2.6941 11.9382 2.74058 11.9305 2.79088C11.667 2.75215 11.3997 2.72507 11.1324 2.71731C10.6714 2.7018 10.2181 2.73283 9.76876 2.79476C9.761 2.74446 9.75323 2.69798 9.75323 2.64769C9.75336 2.03997 10.2454 1.54835 10.8497 1.54835ZM10.8497 22.4515C9.91607 22.4515 9.13352 21.7857 8.9514 20.9032H12.7479C12.5659 21.7857 11.7834 22.4515 10.8497 22.4515ZM20.1434 18.0774C20.1744 18.4103 20.0698 18.7316 19.849 18.9754C19.6205 19.2193 19.3183 19.3547 18.9851 19.3547H2.71429C2.38111 19.3547 2.07898 19.2192 1.85423 18.9754C1.62955 18.7316 1.52493 18.4102 1.55592 18.0774C1.61014 17.4929 2.15642 17.0322 2.79561 17.0322C3.81837 17.0322 4.65126 16.2 4.65126 15.178V10.4516C4.65126 8.7561 5.32531 7.1729 6.54565 5.99612C7.71172 4.8697 9.23037 4.25804 10.8497 4.25804C10.9272 4.25804 11.0007 4.25804 11.0783 4.26192C14.3673 4.37802 17.0481 7.23095 17.0481 10.618V15.178C17.0481 16.2 17.881 17.0322 18.9038 17.0322C19.5429 17.0322 20.0854 17.4929 20.1434 18.0774Z" fill="black"/>
</svg>
