<svg width="131" height="101" viewBox="0 0 131 101" fill="none" xmlns="http://www.w3.org/2000/svg">
<g clip-path="url(#clip0_29296_221676)">
<path d="M44.81 85.4902C44.81 85.4902 44.71 85.4702 44.67 85.4402C43.9 84.8302 43.18 84.1702 42.51 83.4502C42.65 85.8002 42.77 87.2202 42.77 87.2202C42.82 87.6302 43.27 87.9702 44.04 88.2502H44.08C44.17 87.8602 44.4 86.9602 44.8 85.4902H44.81Z" fill="#11A64B"/>
<path d="M63.21 51.3896C63.17 51.4596 63.1 51.5096 63 51.4796C62.92 52.5696 62.84 53.4996 62.78 54.1896C64.78 53.7596 66.88 53.7597 68.95 54.2197C70.33 54.3397 71.63 54.7396 72.79 55.3696C72.84 55.2796 72.95 55.2197 73.06 55.2896L73.11 55.3196C73.18 55.2896 73.25 55.2596 73.31 55.2296C73.06 54.1796 72.91 53.6196 72.91 53.6196C72.74 52.9396 71.59 52.3396 69.76 51.8896C68 52.8096 65.96 52.7397 63.2 51.3997L63.21 51.3896Z" fill="#11A64B"/>
<path d="M81.12 100.96H91.37C91.34 99.3296 90.21 98.0296 88.83 98.0396C88.01 98.0396 87.29 98.5196 86.83 99.2396L87.21 94.5596H81.04L81.12 100.97V100.96Z" fill="#11A64B"/>
<path d="M67.41 94.7504C66.54 94.7504 65.67 94.7504 64.8 94.7504C64.69 94.7504 64.61 94.6604 64.6 94.5504C64.59 94.3704 64.58 94.2004 64.57 94.0204C64.49 92.8004 64.42 91.5804 64.34 90.3604C57.56 90.5504 50.35 89.5204 44.98 85.4004V85.4204C44.92 85.4604 44.87 85.4804 44.82 85.4704C44.41 86.9304 44.19 87.8404 44.1 88.2404H44.06C44.06 88.2404 44.06 88.3204 44.06 88.3604C44.04 88.4404 44.03 88.4904 44.03 88.4904L44.07 88.5304C44.6 97.3204 50.97 100.62 58.75 100.62C62.01 100.62 65.02 100.04 67.45 98.7204L67.4 94.7304L67.41 94.7504Z" fill="#FFE200"/>
<path d="M77.6899 61.0004C78.0599 62.2004 78.1299 63.4104 78.1799 64.6504C78.2399 66.0904 78.2899 67.5404 78.3199 68.9804C78.3899 71.7704 78.3999 74.5704 78.3599 77.3604C78.3099 80.7704 78.1799 84.1804 77.9899 87.5904L78.4299 94.5504H90.9799C91.7899 83.2804 92.0599 74.4004 91.5599 63.5104C91.3399 58.5904 87.4799 54.6204 82.5799 54.2104C79.4199 53.5004 76.1599 53.9004 73.3199 55.2204C73.2499 55.2504 73.1799 55.2804 73.1199 55.3104C75.2899 56.5704 76.9399 58.6004 77.6899 61.0004Z" fill="#FFE200"/>
<path d="M57.07 56.0902C57.35 56.1402 57.62 56.1802 57.89 56.2102C59.38 55.2402 61.04 54.5602 62.78 54.1902C62.84 53.5002 62.92 52.5702 63 51.4802C61.47 50.9502 60.02 50.1902 58.72 49.2302C58.52 49.0802 58.72 48.7402 58.92 48.8902C60.2 49.8302 61.61 50.5802 63.11 51.1002C63.25 51.1502 63.27 51.3002 63.22 51.4002C65.98 52.7402 68.02 52.8102 69.78 51.8902C71.68 50.8902 73.24 48.7402 75 45.7702C76.43 43.3502 77.39 41.4102 77.62 39.7002C70.69 40.2302 65.29 31.9502 65.29 31.9502C64.2 36.9902 61.03 36.7802 59.69 36.4402C59.93 35.6502 59.88 34.8102 59.56 34.0702C59.28 33.4102 58.79 32.8202 58.11 32.4302C56.44 31.4502 54.3 32.0102 53.31 33.6702C52.33 35.3302 52.89 37.4602 54.55 38.4402C55.23 38.8402 55.99 38.9802 56.72 38.8902C54.61 43.2302 53.19 48.4602 52.5 51.4002C52.21 52.6502 52.04 53.4802 52.01 53.6502C51.86 54.5002 54.12 55.6002 57.06 56.1002L57.07 56.0902ZM73.57 40.9802C73.65 42.0002 74.4 42.8602 75.4 43.1002C75.65 43.1602 75.54 43.5402 75.29 43.4802C74.11 43.1902 73.26 42.1802 73.17 40.9802C73.15 40.7302 73.55 40.7302 73.57 40.9802ZM71.42 43.9502C71.48 43.5602 71.62 43.1802 71.81 42.8402C71.94 42.6202 72.28 42.8202 72.15 43.0402C71.94 43.3902 71.81 43.7902 71.78 44.1902C71.76 44.4102 71.71 44.9702 72.04 45.0002C72.22 45.0202 72.37 44.8902 72.49 44.7802C72.63 44.6502 72.75 44.5002 72.86 44.3402C73.08 44.0202 73.23 43.6702 73.32 43.2902C73.38 43.0402 73.76 43.1502 73.7 43.4002C73.6 43.8102 73.43 44.2002 73.2 44.5502C73 44.8402 72.74 45.1802 72.41 45.3302C72.06 45.4902 71.64 45.4002 71.48 45.0302C71.33 44.7002 71.36 44.3002 71.41 43.9602L71.42 43.9502ZM72.98 47.5302C72.98 48.4802 72.2 49.2502 71.25 49.2502C70.3 49.2502 69.52 48.4802 69.52 47.5302C69.52 46.5802 70.3 45.8102 71.25 45.8102C72.2 45.8102 72.98 46.5802 72.98 47.5302ZM70.08 42.1202C69.99 42.6502 69.89 43.1802 69.8 43.7102C69.72 44.1702 69.68 44.6802 69.52 45.1202C69.23 45.9302 68.41 46.1002 67.65 46.1702C67.4 46.2002 67.4 45.8002 67.65 45.7702C67.99 45.7402 68.36 45.7002 68.66 45.5402C69 45.3602 69.14 45.0602 69.22 44.7002C69.4 43.8102 69.54 42.9102 69.7 42.0202C69.74 41.7702 70.13 41.8802 70.08 42.1302V42.1202ZM66.37 38.6002C67.22 39.3402 68.45 39.4502 69.42 38.8902C69.64 38.7602 69.84 39.1002 69.62 39.2302C68.49 39.8802 67.07 39.7402 66.09 38.8802C65.9 38.7102 66.18 38.4302 66.37 38.6002ZM65.95 41.4502C66.01 41.0602 66.15 40.6802 66.34 40.3402C66.47 40.1202 66.81 40.3202 66.68 40.5402C66.47 40.8902 66.34 41.2902 66.31 41.6902C66.29 41.9102 66.24 42.4702 66.57 42.5002C66.75 42.5202 66.9 42.3902 67.02 42.2802C67.16 42.1502 67.28 42.0002 67.39 41.8402C67.61 41.5202 67.76 41.1702 67.85 40.7902C67.91 40.5402 68.29 40.6502 68.23 40.9002C68.13 41.3102 67.96 41.7002 67.73 42.0502C67.53 42.3402 67.27 42.6802 66.94 42.8302C66.59 42.9902 66.17 42.9002 66.01 42.5302C65.86 42.2002 65.89 41.8002 65.94 41.4602L65.95 41.4502ZM65.77 47.5302C65.76 47.6402 65.69 47.7302 65.57 47.7302C65.47 47.7302 65.36 47.6402 65.37 47.5302C65.49 46.6402 65.15 45.7402 64.48 45.1502C64.29 44.9802 64.57 44.7002 64.76 44.8702C65.5 45.5202 65.9 46.5502 65.77 47.5302ZM62.87 40.6102C63.98 40.6102 64.89 41.5102 64.89 42.6102C64.89 43.7102 63.99 44.6102 62.87 44.6102C61.75 44.6102 60.85 43.7102 60.85 42.6102C60.85 41.5102 61.75 40.6102 62.87 40.6102ZM56.41 36.3002C56.37 36.4002 56.28 36.4702 56.17 36.4402C56.07 36.4102 56 36.3002 56.03 36.2002C56.23 35.6202 56.13 34.9902 55.75 34.5002C55.73 34.4702 55.72 34.4402 55.72 34.4002C55.28 34.6902 55 35.1702 54.77 35.6302C54.66 35.8602 54.32 35.6602 54.43 35.4302C54.7 34.8802 55.05 34.3202 55.6 34.0002C56.11 33.7102 56.8 33.6502 57.3 34.0002C57.51 34.1402 57.3 34.4902 57.1 34.3402C56.78 34.1202 56.39 34.1102 56.04 34.2402L56.09 34.2902C56.52 34.8502 56.64 35.6302 56.41 36.2902V36.3002Z" fill="#F7B181"/>
<path d="M69.2199 44.6897C69.1399 45.0597 69.0099 45.3597 68.6599 45.5297C68.3499 45.6897 67.9899 45.7297 67.6499 45.7597C67.3999 45.7797 67.3999 46.1797 67.6499 46.1597C68.4199 46.0797 69.2399 45.9097 69.5199 45.1097C69.6799 44.6597 69.7199 44.1597 69.7999 43.6997C69.8899 43.1697 69.9899 42.6397 70.0799 42.1097C70.1199 41.8597 69.7399 41.7497 69.6999 41.9997C69.5399 42.8897 69.3999 43.7997 69.2199 44.6797V44.6897Z" fill="#8A2121"/>
<path d="M69.61 39.2199C69.83 39.0899 69.63 38.7499 69.41 38.8799C68.44 39.4399 67.21 39.3299 66.36 38.5899C66.17 38.4199 65.89 38.6999 66.08 38.8699C67.06 39.7299 68.48 39.8699 69.61 39.2199Z" fill="#8A2121"/>
<path d="M75.2999 43.4697C75.5499 43.5297 75.6499 43.1497 75.4099 43.0897C74.4099 42.8497 73.6599 41.9997 73.5799 40.9697C73.5599 40.7197 73.1599 40.7197 73.1799 40.9697C73.2799 42.1697 74.1299 43.1797 75.2999 43.4697Z" fill="#8A2121"/>
<path d="M66.96 42.8198C67.29 42.6698 67.55 42.3298 67.75 42.0398C67.99 41.6898 68.16 41.2998 68.25 40.8898C68.31 40.6398 67.93 40.5398 67.87 40.7798C67.78 41.1598 67.62 41.5098 67.41 41.8298C67.3 41.9898 67.18 42.1398 67.04 42.2698C66.92 42.3898 66.77 42.5098 66.59 42.4898C66.26 42.4598 66.31 41.8998 66.33 41.6798C66.36 41.2698 66.49 40.8798 66.7 40.5298C66.83 40.3098 66.49 40.1098 66.36 40.3298C66.16 40.6698 66.02 41.0498 65.97 41.4398C65.92 41.7898 65.89 42.1898 66.04 42.5098C66.21 42.8698 66.63 42.9598 66.97 42.8098L66.96 42.8198Z" fill="#8A2121"/>
<path d="M72.4299 45.3101C72.7599 45.1601 73.0199 44.82 73.2199 44.53C73.4599 44.18 73.6299 43.7901 73.7199 43.3801C73.7799 43.1301 73.3999 43.0301 73.3399 43.2701C73.2499 43.6501 73.0899 44 72.8799 44.32C72.7699 44.48 72.6499 44.63 72.5099 44.76C72.3899 44.88 72.2399 45 72.0599 44.98C71.7299 44.95 71.7799 44.39 71.7999 44.17C71.8299 43.76 71.9599 43.3701 72.1699 43.0201C72.2999 42.8001 71.9599 42.6 71.8299 42.82C71.6299 43.16 71.4899 43.54 71.4399 43.93C71.3899 44.28 71.3599 44.68 71.5099 45C71.6799 45.36 72.0999 45.45 72.4399 45.3L72.4299 45.3101Z" fill="#8A2121"/>
<path d="M64.4799 45.1404C65.1599 45.7304 65.4899 46.6304 65.3699 47.5204C65.3599 47.6304 65.4699 47.7204 65.5699 47.7204C65.6899 47.7204 65.7499 47.6304 65.7699 47.5204C65.8999 46.5404 65.5099 45.5104 64.7599 44.8604C64.5699 44.6904 64.2899 44.9704 64.4799 45.1404Z" fill="#8A2121"/>
<path d="M62.8699 44.6104C63.9799 44.6104 64.8899 43.7104 64.8899 42.6104C64.8899 41.5104 63.9899 40.6104 62.8699 40.6104C61.7499 40.6104 60.8499 41.5104 60.8499 42.6104C60.8499 43.7104 61.7499 44.6104 62.8699 44.6104Z" fill="#EB806E"/>
<path d="M71.5299 49.2199C72.4799 49.0699 73.1199 48.1799 72.9599 47.2399C72.8099 46.2999 71.9199 45.6599 70.9699 45.8099C70.0199 45.9599 69.3799 46.8499 69.5399 47.7899C69.6899 48.7299 70.5799 49.3699 71.5299 49.2199Z" fill="#EB806E"/>
<path d="M63.2099 51.3901C63.2599 51.2901 63.2399 51.1401 63.0999 51.0901C61.5999 50.5701 60.1899 49.8201 58.9099 48.8801C58.6999 48.7301 58.5099 49.0702 58.7099 49.2202C60.0199 50.1802 61.4599 50.9402 62.9899 51.4702C63.0899 51.5002 63.1599 51.4602 63.1999 51.3802L63.2099 51.3901Z" fill="#8A2121"/>
<path d="M42.42 83.0504C42.49 82.9804 42.6 82.9604 42.69 83.0504C43.39 83.8104 44.15 84.5104 44.96 85.1504C45.04 85.2104 45.03 85.3304 44.97 85.4104C50.34 89.5304 57.55 90.5604 64.33 90.3704C64.33 90.2404 64.42 90.1804 64.52 90.1804L63.92 80.7504C63.82 80.7504 63.72 80.6904 63.71 80.5704C58.71 80.7204 53.09 80.2504 49.67 76.3904C49.1 75.7404 48.66 75.0604 48.32 74.3504C48.23 74.4004 48.12 74.4004 48.07 74.2804C46.07 69.6804 48.11 64.4504 50.27 60.2904C50.39 60.0604 50.73 60.2604 50.61 60.4904C48.53 64.4904 46.48 69.6204 48.4 74.0604C49.43 71.0104 50.69 67.4404 52.23 63.2904C53.35 60.2504 55.39 57.8404 57.89 56.2204C57.62 56.1904 57.35 56.1504 57.07 56.1004C54.13 55.6004 51.87 54.5004 52.02 53.6504C52.05 53.4804 52.21 52.6504 52.51 51.4004C49.26 51.7704 46.54 52.3604 44.78 53.0504C43.65 53.3104 42.6 54.0504 41.89 55.4104C37.46 63.9104 35.27 74.2404 41.81 82.3304C42.01 82.5804 42.22 82.8204 42.43 83.0604L42.42 83.0504Z" fill="#11A64B"/>
<path d="M67.5999 94.5498C67.5999 94.6498 67.5399 94.7498 67.4099 94.7498L67.4599 98.7398L67.4899 100.96H77.7399C77.7099 99.3298 76.5799 98.0298 75.1999 98.0398C74.3799 98.0398 73.6599 98.5198 73.1999 99.2398L73.5799 94.5598H67.5999V94.5498Z" fill="#11A64B"/>
<path d="M77.9098 68.6203C77.8698 67.2003 77.8298 65.7703 77.7698 64.3503C77.7198 63.1203 77.6098 61.9403 77.1998 60.7703C76.4298 58.6003 74.8698 56.7703 72.8698 55.6203C72.7598 55.5603 72.7498 55.4403 72.7998 55.3603C71.6398 54.7303 70.3398 54.3303 68.9598 54.2103C66.8998 53.7503 64.7998 53.7603 62.7898 54.1803C61.0498 54.5503 59.3898 55.2303 57.8998 56.2003C55.3998 57.8203 53.3598 60.2303 52.2398 63.2703C50.7098 67.4203 49.4498 70.9903 48.4098 74.0403C48.4598 74.1703 48.4098 74.2703 48.3198 74.3203C48.6598 75.0303 49.0998 75.7203 49.6698 76.3603C53.0898 80.2303 58.7098 80.6903 63.7098 80.5403C63.6698 79.9603 63.6398 79.3903 63.5998 78.8203C63.4398 76.3303 63.2798 73.8403 63.1298 71.3503C63.0298 69.7903 62.9298 68.2303 62.8298 66.6703C62.8098 66.4203 63.2098 66.4203 63.2298 66.6703C63.2698 67.2403 63.2998 67.8103 63.3398 68.3803C63.4998 70.8703 63.6598 73.3603 63.8098 75.8503C63.9098 77.4103 64.0098 78.9703 64.1098 80.5303C64.1098 80.6603 64.0198 80.7203 63.9198 80.7203L64.5198 90.1503C64.6198 90.1503 64.7198 90.2103 64.7298 90.3403C64.7398 90.5203 64.7498 90.6903 64.7598 90.8703C64.8298 92.0203 64.9098 93.1803 64.9798 94.3303H67.4098C67.5398 94.3303 67.5998 94.4303 67.5998 94.5303H77.1498C77.3798 91.3003 77.5798 88.0803 77.7298 84.8403C77.9698 79.4303 78.0498 74.0103 77.9098 68.5903V68.6203Z" fill="#FFE200"/>
<path d="M78.3198 68.9802C78.2898 67.5402 78.2398 66.0902 78.1798 64.6502C78.1298 63.4102 78.0598 62.2002 77.6898 61.0002C76.9398 58.6102 75.2898 56.5802 73.1198 55.3102L73.0698 55.2802C72.9598 55.2202 72.8498 55.2802 72.7998 55.3602C72.7498 55.4402 72.7598 55.5602 72.8698 55.6202C74.8698 56.7702 76.4398 58.5902 77.1998 60.7702C77.6098 61.9402 77.7198 63.1202 77.7698 64.3502C77.8298 65.7702 77.8798 67.2002 77.9098 68.6202C78.0398 74.0402 77.9698 79.4502 77.7298 84.8702C77.5798 88.1002 77.3798 91.3302 77.1498 94.5602C77.1298 94.8102 77.5298 94.8102 77.5498 94.5602C77.7198 92.2402 77.8698 89.9202 77.9898 87.6002C78.1698 84.1902 78.3098 80.7802 78.3598 77.3702C78.3998 74.5802 78.3898 71.7802 78.3198 68.9902V68.9802Z" fill="#2D2D2D"/>
<path d="M64.11 80.5504C64.01 78.9904 63.91 77.4304 63.81 75.8704C63.65 73.3804 63.49 70.8904 63.34 68.4004C63.3 67.8304 63.27 67.2604 63.23 66.6904C63.21 66.4404 62.82 66.4404 62.83 66.6904C62.93 68.2504 63.03 69.8104 63.13 71.3704C63.29 73.8604 63.45 76.3504 63.6 78.8404C63.64 79.4104 63.67 79.9804 63.71 80.5504C63.72 80.6804 63.82 80.7404 63.92 80.7404C64.02 80.7404 64.11 80.6804 64.11 80.5504Z" fill="#2D2D2D"/>
<path d="M64.5898 94.5499C64.5898 94.6599 64.6798 94.7499 64.7898 94.7499H67.3998C67.5298 94.7499 67.5898 94.6499 67.5898 94.5499C67.5898 94.4499 67.5298 94.3499 67.3998 94.3499H64.9698C64.8998 93.1999 64.8198 92.0399 64.7498 90.8899C64.7398 90.7099 64.7298 90.5399 64.7198 90.3599C64.7198 90.2299 64.6098 90.1699 64.5098 90.1699C64.4098 90.1699 64.3198 90.2299 64.3198 90.3599C64.3998 91.5799 64.4698 92.7999 64.5498 94.0199C64.5598 94.1999 64.5698 94.3699 64.5798 94.5499H64.5898Z" fill="#2D2D2D"/>
<path d="M59.68 36.4302C61.01 36.7602 64.19 36.9802 65.28 31.9402C65.28 31.9402 70.68 40.2202 77.61 39.6902C77.63 39.5502 77.64 39.4102 77.65 39.2802C77.65 39.2302 77.65 39.1902 77.65 39.1402V39.0702C77.77 36.6502 76.57 34.3102 72.8 32.1102C66.73 28.5602 62.73 28.6902 59.54 34.0702C59.85 34.8102 59.91 35.6502 59.67 36.4402L59.68 36.4302Z" fill="black"/>
<path d="M56.0398 34.2295C56.3898 34.0995 56.7898 34.1095 57.0998 34.3295C57.3098 34.4795 57.5098 34.1295 57.2998 33.9895C56.7998 33.6395 56.1098 33.6995 55.5998 33.9895C55.0498 34.2995 54.6898 34.8595 54.4298 35.4195C54.3198 35.6495 54.6598 35.8495 54.7698 35.6195C54.9898 35.1495 55.2698 34.6795 55.7198 34.3895C55.7198 34.4195 55.7198 34.4595 55.7498 34.4795C56.1198 34.9595 56.2298 35.5995 56.0298 36.1795C55.9898 36.2795 56.0698 36.3995 56.1698 36.4195C56.2798 36.4495 56.3798 36.3795 56.4098 36.2795C56.6398 35.6195 56.5198 34.8395 56.0898 34.2795L56.0398 34.2295Z" fill="#8A2121"/>
<path d="M48.41 74.0598C46.49 69.5998 48.54 64.4698 50.62 60.4698C50.74 60.2398 50.39 60.0398 50.28 60.2698C48.12 64.4298 46.08 69.6598 48.08 74.2598C48.13 74.3798 48.25 74.3798 48.33 74.3298C48.41 74.2798 48.47 74.1698 48.42 74.0598H48.41Z" fill="#FFE200"/>
<path d="M44.6799 85.4305C44.6799 85.4305 44.7699 85.4805 44.8199 85.4805C44.8699 85.4805 44.9199 85.4705 44.9599 85.4305V85.4105C45.0299 85.3405 45.0399 85.2105 44.9599 85.1505C44.1499 84.5105 43.3899 83.8105 42.6899 83.0505C42.5999 82.9605 42.4899 82.9805 42.4199 83.0505C42.3499 83.1205 42.3199 83.2405 42.4099 83.3305C42.4399 83.3705 42.4799 83.4005 42.5199 83.4405C43.1899 84.1605 43.9099 84.8205 44.6799 85.4305Z" fill="#FFE200"/>
<g opacity="0.2">
<path d="M39.2 34.6403C39.45 34.5303 39.72 34.4403 39.97 34.3303L36.57 29.4803C36.45 29.3103 36.18 29.2503 35.99 29.3503C35.79 29.4503 35.72 29.6603 35.83 29.8303L39.19 34.6403H39.2Z" fill="black"/>
<path d="M30.2998 50.5005C30.4598 50.2505 30.5998 49.9805 30.7698 49.7305L23.8798 45.7505C23.6698 45.6205 23.3898 45.7005 23.2598 45.9105C23.1398 46.1305 23.2098 46.4005 23.4298 46.5205L30.2998 50.4905V50.5005Z" fill="black"/>
<path d="M26.8899 67.8301H21.3599C21.1099 67.8301 20.9099 68.0301 20.9099 68.2801C20.9099 68.5301 21.1099 68.7301 21.3599 68.7301H26.8399C26.8399 68.4301 26.8699 68.1301 26.8899 67.8301Z" fill="black"/>
<path d="M87.89 36.3798L91.25 31.7898C91.37 31.6198 91.34 31.3798 91.17 31.2498C91 31.1198 90.76 31.1598 90.64 31.3298L87.29 35.8998C87.5 36.0498 87.69 36.2098 87.89 36.3698V36.3798Z" fill="black"/>
<path d="M99.1399 50.3499L103.77 47.6799C103.98 47.5599 104.06 47.2799 103.94 47.0699C103.81 46.8499 103.53 46.7799 103.32 46.9099L98.6699 49.5899C98.8299 49.8499 98.9899 50.0999 99.1399 50.3599V50.3499Z" fill="black"/>
<path d="M65.1299 25.1102V21.0702C65.1299 20.9802 64.9599 20.9102 64.7499 20.9102C64.5399 20.9102 64.3699 20.9802 64.3699 21.0702V25.0902C64.6299 25.0902 64.8799 25.1002 65.1299 25.1102Z" fill="black"/>
<path d="M30.8899 85.76L27.4499 87.74C27.2399 87.86 27.1599 88.14 27.2799 88.35C27.3599 88.49 27.5199 88.57 27.6699 88.57C27.7499 88.57 27.8199 88.55 27.8999 88.51L31.3499 86.52C31.1999 86.26 31.0299 86.01 30.8899 85.75V85.76Z" fill="black"/>
<path d="M98.68 86.4805C98.55 86.7505 98.43 87.0305 98.29 87.2905L104.46 90.8505C104.53 90.8905 104.61 90.9105 104.68 90.9105C104.83 90.9105 104.99 90.8305 105.07 90.6905C105.19 90.4705 105.12 90.2005 104.9 90.0805L98.67 86.4805H98.68Z" fill="black"/>
<path d="M108.47 67.4199H100.58C100.6 67.7199 100.62 68.0199 100.63 68.3199H108.47C108.72 68.3199 108.92 68.1199 108.92 67.8699C108.92 67.6199 108.72 67.4199 108.47 67.4199Z" fill="black"/>
</g>
<path d="M0.929932 69.9003V66.1203C0.929932 65.3203 0.999932 64.6703 1.14993 64.1603C1.29993 63.6503 1.49993 63.2403 1.75993 62.9403C2.01993 62.6403 2.32993 62.4303 2.67993 62.3203C3.02993 62.2103 3.40993 62.1503 3.80993 62.1503C4.26993 62.1503 4.69993 62.2503 5.08993 62.4603C5.47993 62.6603 5.80993 63.0403 6.05993 63.5803C6.20993 63.2303 6.38993 62.9503 6.57993 62.7203C6.76993 62.5003 6.97993 62.3203 7.19993 62.1803C7.41993 62.0503 7.64993 61.9603 7.88993 61.9003C8.12993 61.8503 8.36993 61.8203 8.61993 61.8203C9.06993 61.8203 9.48993 61.8903 9.88993 62.0303C10.2899 62.1703 10.6299 62.4003 10.9199 62.7103C11.2099 63.0303 11.4399 63.4403 11.6099 63.9503C11.7799 64.4603 11.8599 65.0903 11.8599 65.8303V69.8903H0.929932V69.9003ZM5.41993 65.9003C5.41993 65.1803 5.28993 64.6703 5.01993 64.3803C4.74993 64.0903 4.36993 63.9503 3.86993 63.9503C3.36993 63.9503 2.96993 64.1203 2.73993 64.4503C2.50993 64.7803 2.39993 65.3603 2.39993 66.1703V68.1003H5.41993V65.8903V65.9003ZM10.3799 65.9003C10.3799 65.4603 10.3399 65.1003 10.2599 64.8103C10.1799 64.5203 10.0599 64.2903 9.90993 64.1203C9.75993 63.9503 9.56993 63.8303 9.35993 63.7603C9.14993 63.6903 8.90993 63.6503 8.63993 63.6503C8.08993 63.6503 7.66993 63.8103 7.37993 64.1203C7.08993 64.4303 6.93993 64.9703 6.93993 65.7403V68.1203H10.3899V65.9103L10.3799 65.9003Z" fill="#313131"/>
<path d="M4.55999 55.8495L9.48999 56.7195C10.14 56.8395 10.61 56.8095 10.89 56.6295C11.17 56.4595 11.35 56.1495 11.43 55.7095C11.47 55.4695 11.47 55.2195 11.43 54.9495C11.38 54.6895 11.29 54.4495 11.15 54.2295C11.01 54.0095 10.83 53.8195 10.61 53.6495C10.39 53.4895 10.13 53.3795 9.82999 53.3195L5.14999 52.4895L5.44999 50.7695L13.29 52.1595L12.99 53.8295L11.84 53.6295C12.26 54.0795 12.54 54.5295 12.69 54.9895C12.84 55.4495 12.87 55.9195 12.78 56.4095C12.62 57.3295 12.27 57.9395 11.72 58.2495C11.18 58.5595 10.42 58.6295 9.43999 58.4595L4.23999 57.5395L4.53999 55.8395L4.55999 55.8495Z" fill="#313131"/>
<path d="M7.30993 44.3099L8.36993 44.7599C7.87993 43.9499 7.72993 43.1799 7.90993 42.4299C7.95993 42.2399 8.01993 42.0499 8.10993 41.8499C8.33993 41.3599 8.63993 41.0099 8.99993 40.7999C9.35993 40.5899 9.76993 40.4999 10.2299 40.5199C9.61993 39.4999 9.51993 38.5099 9.91993 37.5599C10.2499 36.7799 10.7099 36.2999 11.2999 36.1199C11.8899 35.9399 12.6599 36.0499 13.6099 36.4499L18.4499 38.4999L17.7699 40.1099L13.3699 38.2399C13.0099 38.0899 12.7099 37.9899 12.4499 37.9299C12.1899 37.8699 11.9799 37.8699 11.8099 37.8999C11.6399 37.9299 11.4899 38.0099 11.3799 38.1299C11.2699 38.2499 11.1699 38.3999 11.0999 38.5799C10.9799 38.8599 10.9299 39.1299 10.9399 39.3899C10.9499 39.6499 11.0099 39.8899 11.1199 40.1099C11.2299 40.3299 11.3699 40.5199 11.5499 40.6799C11.7299 40.8499 11.9299 40.9799 12.1599 41.0699L16.5699 42.9499L15.8899 44.5599L11.3399 42.6199C10.7099 42.3499 10.2399 42.2699 9.91993 42.3599C9.59993 42.4499 9.36993 42.6699 9.22993 43.0099C9.16993 43.1499 9.12993 43.3299 9.10993 43.5599C9.08993 43.7799 9.10993 44.0199 9.16993 44.2599C9.22993 44.4999 9.34993 44.7399 9.52993 44.9699C9.70993 45.1999 9.96993 45.3899 10.3099 45.5299L14.6899 47.3899L14.0099 48.9799L6.67993 45.8599L7.33993 44.3099H7.30993Z" fill="#313131"/>
<path d="M14.82 29.5799L15.72 30.2899C15.46 29.3799 15.52 28.5899 15.89 27.9199C15.99 27.7499 16.1 27.5799 16.23 27.4099C16.58 26.9999 16.96 26.7399 17.36 26.6299C17.76 26.5199 18.18 26.5399 18.61 26.6799C18.29 25.5299 18.45 24.5499 19.09 23.7399C19.62 23.0699 20.19 22.7299 20.8 22.7099C21.42 22.6899 22.13 22.9999 22.94 23.6399L27.06 26.8899L25.98 28.2599L22.23 25.2999C21.93 25.0599 21.66 24.8799 21.42 24.7599C21.19 24.6399 20.98 24.5799 20.81 24.5599C20.64 24.5399 20.48 24.5799 20.34 24.6599C20.2 24.7499 20.07 24.8699 19.95 25.0199C19.76 25.2599 19.64 25.5099 19.58 25.7599C19.52 26.0099 19.52 26.2599 19.56 26.4999C19.61 26.7399 19.69 26.9599 19.82 27.1699C19.95 27.3799 20.11 27.5599 20.3 27.7099L24.06 30.6799L22.98 32.0499L19.1 28.9899C18.56 28.5699 18.13 28.3599 17.8 28.3599C17.47 28.3599 17.19 28.5099 16.96 28.7999C16.87 28.9199 16.78 29.0899 16.7 29.2999C16.62 29.5099 16.58 29.7399 16.57 29.9899C16.57 30.2399 16.62 30.4999 16.73 30.7699C16.84 31.0399 17.04 31.2899 17.33 31.5199L21.07 34.4699L20 35.8299L13.75 30.8999L14.79 29.5799H14.82Z" fill="#313131"/>
<path d="M25.9398 20.3C25.7498 19.77 25.6798 19.26 25.7198 18.76C25.7598 18.26 25.9098 17.79 26.1598 17.35C26.4098 16.91 26.7598 16.51 27.2098 16.15C27.6898 15.77 28.1598 15.51 28.6298 15.38C29.0998 15.25 29.5598 15.22 29.9998 15.3C30.4398 15.38 30.8698 15.56 31.2798 15.84C31.6898 16.12 32.0698 16.49 32.4398 16.94L32.9198 17.54L28.4598 21.11C28.9298 21.66 29.4398 22.01 29.9898 22.14C30.5398 22.27 31.0898 22.12 31.6398 21.68C32.0698 21.34 32.3298 20.99 32.4098 20.65C32.4898 20.31 32.4398 19.96 32.2698 19.59L33.5898 18.54C33.9998 19.27 34.1198 20 33.9698 20.7C33.8198 21.41 33.3298 22.09 32.5098 22.74C31.5198 23.53 30.5398 23.85 29.5698 23.69C28.5998 23.53 27.6998 22.94 26.8698 21.9C26.4398 21.37 26.1398 20.83 25.9598 20.3H25.9398ZM27.7198 20.15L30.8298 17.66C30.4198 17.15 29.9798 16.84 29.4998 16.74C29.0198 16.64 28.5198 16.79 27.9998 17.22C27.4998 17.62 27.2298 18.08 27.2098 18.59C27.1898 19.1 27.3598 19.62 27.7198 20.16V20.15Z" fill="#313131"/>
<path d="M35.3699 10.9196L35.9499 11.9496C35.9899 11.4496 36.1199 11.0096 36.3499 10.6196C36.5799 10.2296 36.8799 9.92965 37.2699 9.71965C37.4199 9.63965 37.5499 9.56965 37.6599 9.51965C37.7699 9.46965 37.8699 9.42965 37.9799 9.38965L38.5799 10.8796C38.4699 10.9096 38.3499 10.9496 38.2299 11.0096C38.1099 11.0696 37.9899 11.1296 37.8599 11.1996C37.5699 11.3596 37.3499 11.5496 37.1899 11.7596C37.0299 11.9696 36.9199 12.1996 36.8499 12.4296C36.7899 12.6596 36.7699 12.8996 36.7999 13.1296C36.8299 13.3596 36.8999 13.5796 37.0099 13.7796L39.2899 17.8596L37.7799 18.6996L33.8899 11.7496L35.3599 10.9296L35.3699 10.9196Z" fill="#313131"/>
<path d="M42.0999 4.41992L44.8799 11.5399L43.3899 12.1499L40.3799 5.11992L42.0999 4.41992ZM45.3999 12.6199L46.1899 14.5599L44.5399 15.2299L43.7499 13.2899L45.3899 12.6199H45.3999Z" fill="#313131"/>
<path d="M53.03 1.09L54.73 0.87L60.72 8.07L59.71 0.23L61.5 0L62.9 10.85L61.2 11.07L55.2 3.9L56.2 11.71L54.42 11.94L53.02 1.09H53.03Z" fill="#313131"/>
<path d="M66.4199 6.84009C66.4699 6.21009 66.61 5.64009 66.83 5.14009C67.05 4.64009 67.3499 4.22009 67.7099 3.88009C68.0799 3.54009 68.5099 3.29009 69.0199 3.13009C69.5299 2.97009 70.0899 2.91009 70.7099 2.97009C71.3399 3.02009 71.89 3.18009 72.36 3.43009C72.83 3.68009 73.2199 4.00009 73.5199 4.40009C73.8199 4.80009 74.03 5.26009 74.16 5.78009C74.28 6.31009 74.3199 6.88009 74.2699 7.49009C74.2099 8.18009 74.0599 8.78009 73.8199 9.29009C73.5799 9.80009 73.2699 10.2201 72.8899 10.5501C72.5099 10.8801 72.07 11.1201 71.58 11.2601C71.09 11.4001 70.55 11.4501 69.97 11.4001C68.73 11.2901 67.8 10.8501 67.18 10.0601C66.56 9.27009 66.3099 8.20009 66.4199 6.86009V6.84009ZM68.55 9.08009C68.83 9.62009 69.3499 9.92009 70.0999 9.98009C70.8299 10.0401 71.3899 9.84009 71.7699 9.36009C72.1499 8.88009 72.3799 8.21009 72.4599 7.34009C72.5299 6.48009 72.42 5.78009 72.12 5.25009C71.82 4.72009 71.3099 4.43009 70.5699 4.36009C69.8399 4.30009 69.28 4.50009 68.9 4.98009C68.52 5.46009 68.29 6.12009 68.22 6.97009C68.15 7.83009 68.26 8.54009 68.55 9.07009V9.08009Z" fill="#313131"/>
<path d="M84.0699 5.58984L85.8199 6.32984L84.7999 12.2198L88.5899 7.56984L90.0599 8.18984L89.3099 14.1298L92.8199 9.28984L94.4999 9.99984L89.2499 16.4298L87.6599 15.7598L88.4299 9.79984L84.6799 14.4998L83.0999 13.8298L84.0699 5.58984Z" fill="#313131"/>
<path d="M99.1999 13.0996L94.9099 19.8096L93.4399 18.8696L97.7299 12.1596L99.1999 13.0996ZM100.83 10.6096L99.8999 12.0696L98.3799 11.0996L99.3099 9.63965L100.83 10.6096Z" fill="#313131"/>
<path d="M104.3 16.8297L103.54 17.7097C104.13 17.5697 104.67 17.5697 105.15 17.6897C105.63 17.8097 106.07 18.0397 106.45 18.3697C107.79 19.5297 107.82 20.8597 106.54 22.3397L103.09 26.3197L101.77 25.1797L105.04 21.4097C105.46 20.9197 105.67 20.4997 105.66 20.1497C105.65 19.7997 105.48 19.4697 105.13 19.1697C104.9 18.9697 104.65 18.8197 104.38 18.7297C104.11 18.6397 103.85 18.6097 103.59 18.6197C103.33 18.6397 103.08 18.6997 102.84 18.8097C102.6 18.9197 102.4 19.0797 102.22 19.2797L99.11 22.8697L97.8 21.7397L103.02 15.7197L104.29 16.8197L104.3 16.8297Z" fill="#313131"/>
<path d="M107.97 28.1296C107.78 28.3196 107.66 28.5096 107.6 28.6996C107.54 28.8896 107.52 29.0896 107.55 29.2796C107.58 29.4696 107.64 29.6696 107.76 29.8696C107.87 30.0696 108.01 30.2696 108.17 30.4696C108.53 30.9296 108.86 31.1996 109.16 31.2896C109.46 31.3796 109.73 31.3196 110 31.1096C110.21 30.9396 110.33 30.7396 110.38 30.4996C110.42 30.2596 110.33 29.9296 110.08 29.4896C109.77 28.9296 109.51 28.4196 109.29 27.9896C109.07 27.5496 108.93 27.1496 108.86 26.7796C108.8 26.4096 108.82 26.0796 108.94 25.7796C109.06 25.4796 109.3 25.1796 109.68 24.8796C109.97 24.6496 110.28 24.4996 110.62 24.4396C110.96 24.3796 111.3 24.3996 111.64 24.4896C111.99 24.5896 112.33 24.7596 112.67 24.9996C113.01 25.2496 113.33 25.5496 113.63 25.9296C114.01 26.4096 114.28 26.8496 114.44 27.2396C114.6 27.6396 114.67 27.9996 114.67 28.3296C114.67 28.6596 114.59 28.9696 114.46 29.2396C114.33 29.5196 114.16 29.7796 113.97 30.0296L112.83 28.9396C113.06 28.5996 113.18 28.2596 113.17 27.9496C113.16 27.6396 112.98 27.2496 112.62 26.7896C112.41 26.5296 112.21 26.3296 112.03 26.1996C111.85 26.0696 111.68 25.9896 111.53 25.9396C111.38 25.8996 111.24 25.8896 111.13 25.9296C111.01 25.9696 110.91 26.0196 110.82 26.0896C110.68 26.1996 110.59 26.2996 110.52 26.4096C110.46 26.5096 110.43 26.6296 110.44 26.7596C110.45 26.8896 110.49 27.0396 110.57 27.2196C110.64 27.3996 110.75 27.6096 110.88 27.8496L111.37 28.7296C111.63 29.1996 111.81 29.6196 111.92 29.9796C112.03 30.3396 112.07 30.6696 112.03 30.9696C112 31.2596 111.9 31.5296 111.73 31.7596C111.57 31.9996 111.35 32.2196 111.09 32.4296C110.52 32.8796 109.9 33.0296 109.2 32.8796C108.5 32.7296 107.81 32.2096 107.11 31.3396C106.82 30.9796 106.58 30.6096 106.38 30.2196C106.18 29.8296 106.06 29.4496 106.01 29.0596C105.96 28.6696 106.01 28.2896 106.14 27.9096C106.28 27.5296 106.54 27.1696 106.93 26.8196L107.97 28.1196V28.1296Z" fill="#313131"/>
<path d="M121.25 38.61L116.83 42.89L122.9 42.47L123.65 44.22L115.01 44.47C114.51 44.49 114.06 44.49 113.66 44.48C113.27 44.48 112.92 44.42 112.61 44.33C112.3 44.24 112.04 44.09 111.81 43.88C111.58 43.67 111.39 43.38 111.23 43C111.13 42.76 111.05 42.52 110.99 42.3C110.93 42.08 110.89 41.84 110.87 41.57L112.22 41.34C112.24 41.61 112.31 41.9 112.44 42.2C112.56 42.48 112.72 42.67 112.93 42.77C113.13 42.87 113.45 42.91 113.89 42.89L114.71 42.86L120.46 36.75L121.26 38.61H121.25Z" fill="#313131"/>
<path d="M122.54 48.0199C123.1 48.0799 123.59 48.2299 124.02 48.4799C124.45 48.7299 124.81 49.0699 125.1 49.4899C125.39 49.9099 125.6 50.3999 125.73 50.9499C125.87 51.5499 125.9 52.0799 125.82 52.5699C125.74 53.0599 125.56 53.4699 125.3 53.8399C125.03 54.2099 124.69 54.5099 124.26 54.7599C123.83 55.0099 123.33 55.1999 122.76 55.3299L122.01 55.4999L120.71 49.9399C120.01 50.1199 119.48 50.4399 119.12 50.8799C118.76 51.3199 118.66 51.8799 118.82 52.5699C118.94 53.1099 119.14 53.4899 119.41 53.7099C119.68 53.9299 120.02 54.0399 120.43 54.0399L120.81 55.6799C119.97 55.7299 119.27 55.5299 118.7 55.0899C118.13 54.6499 117.73 53.9099 117.49 52.8899C117.2 51.6599 117.34 50.6399 117.9 49.8299C118.46 49.0199 119.39 48.4699 120.68 48.1699C121.35 48.0099 121.96 47.9699 122.52 48.0399L122.54 48.0199ZM121.91 49.6899L122.81 53.5699C123.45 53.4199 123.91 53.1499 124.21 52.7699C124.51 52.3899 124.58 51.8699 124.43 51.2099C124.28 50.5799 123.99 50.1499 123.54 49.9099C123.09 49.6699 122.55 49.5999 121.91 49.6899Z" fill="#313131"/>
<path d="M125.38 58.1898L126.76 58.0898L126.85 59.3398L128.99 59.1898L129.11 60.9198L126.97 61.0698L127.11 63.0398L125.73 63.1398L125.59 61.1698L121.43 61.4598C121.02 61.4898 120.73 61.5898 120.56 61.7698C120.39 61.9498 120.31 62.1998 120.34 62.5298C120.35 62.6998 120.37 62.8698 120.41 63.0198C120.44 63.1798 120.49 63.3298 120.55 63.4798L119.27 63.8298C119.07 63.3498 118.95 62.8298 118.91 62.2598C118.85 61.3798 119.03 60.7598 119.46 60.3798C119.89 59.9998 120.56 59.7798 121.46 59.7198L125.46 59.4398L125.37 58.1898H125.38Z" fill="#313131"/>
<path d="M121.23 68.4504H119.13V66.6704H121.23V68.4504ZM130.07 68.5004L122.43 68.3804V66.7704L130.07 66.6504V68.5004Z" fill="#313131"/>
</g>
<defs>
<clipPath id="clip0_29296_221676">
<rect width="129.14" height="100.96" fill="white" transform="translate(0.929932)"/>
</clipPath>
</defs>
</svg>
