<svg width="20" height="21" viewBox="0 0 20 21" fill="none" xmlns="http://www.w3.org/2000/svg">
<path d="M10.0002 19.0902C14.8716 19.0902 18.8207 15.1412 18.8207 10.2697C18.8207 5.3983 14.8716 1.44922 10.0002 1.44922C5.12877 1.44922 1.17969 5.3983 1.17969 10.2697C1.17969 15.1412 5.12877 19.0902 10.0002 19.0902Z" fill="#11A64B"/>
<path d="M10.003 3.09766C6.04665 3.09766 2.82812 6.31632 2.82812 10.2725C2.82812 14.2287 6.04679 17.4474 10.003 17.4474C13.9592 17.4474 17.1778 14.2287 17.1778 10.2725C17.1778 6.31632 13.9592 3.09766 10.003 3.09766ZM10.003 17.3957C6.07531 17.3957 2.87979 14.2003 2.87979 10.2725C2.87979 6.34471 6.07531 3.14932 10.003 3.14932C13.9307 3.14932 17.126 6.34471 17.126 10.2725C17.126 14.2003 13.9307 17.3957 10.003 17.3957Z" fill="white"/>
<path d="M3.25294 11.2951C3.2029 10.9624 3.1768 10.6219 3.1768 10.2754C3.1768 6.51203 6.23859 3.45023 10.002 3.45023C13.3993 3.45023 16.2247 5.94536 16.7423 9.19913C16.7671 9.24622 16.7849 9.29035 16.7981 9.32533C16.8101 9.35695 16.819 9.38829 16.8258 9.41924C16.403 6.02985 13.504 3.39844 10.002 3.39844C6.20993 3.39844 3.125 6.48351 3.125 10.2754C3.125 10.6591 3.15662 11.0356 3.21729 11.4023L3.25281 11.2951H3.25294Z" fill="white"/>
<path d="M16.8442 9.57422C16.8451 9.63046 16.841 9.68279 16.8357 9.72867C16.8314 9.76674 16.8236 9.80266 16.8141 9.83697C16.8233 9.9824 16.828 10.1289 16.828 10.2766C16.828 14.04 13.7663 17.1018 10.0029 17.1018C6.74423 17.1018 4.01165 14.8062 3.33722 11.7474L3.28125 11.7338C3.95151 14.8283 6.71073 17.1536 10.0029 17.1536C13.7949 17.1536 16.8798 14.0686 16.8798 10.2766C16.8798 10.0396 16.8677 9.80522 16.8442 9.57422Z" fill="white"/>
<path d="M16.5767 10.2852C16.5677 10.2969 16.5585 10.3084 16.5493 10.3196C16.5412 10.3293 16.533 10.3388 16.5246 10.3484C16.5236 10.4405 16.5205 10.5322 16.5156 10.6232L16.5659 10.6506C16.5728 10.5296 16.5766 10.4077 16.5768 10.2852H16.5767Z" fill="white"/>
<path d="M3.48188 10.5971C3.4765 10.4889 3.47381 10.38 3.47381 10.2705C3.47381 6.6714 6.402 3.7432 10.0011 3.7432C13.1053 3.7432 15.7103 5.92149 16.3681 8.82964C16.376 8.83395 16.3838 8.83798 16.3918 8.84256C16.4027 8.84875 16.4137 8.85507 16.4249 8.86166C16.4262 8.86247 16.4276 8.86341 16.4288 8.86408C15.7829 5.90979 13.1462 3.69141 10.001 3.69141C6.37321 3.69141 3.42188 6.64288 3.42188 10.2705C3.42188 10.4248 3.42739 10.5778 3.43788 10.7294L3.48174 10.5971H3.48188Z" fill="white"/>
<path d="M3.7851 9.99402C3.93174 6.68831 6.66701 4.04398 10.0082 4.04398C12.9005 4.04398 15.3387 6.02531 16.037 8.70206C16.0562 8.70623 16.0752 8.71107 16.0942 8.71618C15.3997 6.00338 12.9344 3.99219 10.0082 3.99219C6.6475 3.99219 3.89474 6.64526 3.73438 9.96711L3.78496 9.99402H3.7851Z" fill="white"/>
<path d="M4.33298 8.50155C5.08787 6.09307 7.34042 4.34086 9.99457 4.34086C12.6487 4.34086 15.007 6.17662 15.707 8.67268C15.7246 8.67268 15.7427 8.67295 15.761 8.67335C15.0598 6.14796 12.7402 4.28906 9.9947 4.28906C7.2492 4.28906 4.92548 6.15132 4.22656 8.68008C4.25778 8.61846 4.29329 8.55886 4.33312 8.50155H4.33298Z" fill="white"/>
<path d="M4.01562 10.1216L4.03379 10.1312C4.04549 10.1374 4.05639 10.1442 4.06688 10.151C4.07079 9.95541 4.08424 9.76208 4.10684 9.57144C4.09325 9.51009 4.08397 9.44861 4.07926 9.38672C4.04334 9.62741 4.02181 9.87267 4.01562 10.1216Z" fill="white"/>
<path d="M15.7325 11.7904C15.0605 14.3285 12.7442 16.2048 9.99761 16.2048C7.25104 16.2048 5.12253 14.4771 4.35204 12.0947C4.33374 12.094 4.31544 12.0932 4.29688 12.0923C5.06844 14.5048 7.3323 16.2566 9.99748 16.2566C12.6627 16.2566 15.1348 14.3393 15.7953 11.7539C15.7745 11.7664 15.7535 11.7787 15.7323 11.7904H15.7325Z" fill="white"/>
<path d="M4.36416 10.2708C4.36416 10.2266 4.3647 10.1828 4.36578 10.1389C4.34923 10.1143 4.33255 10.0887 4.31627 10.0625C4.31371 10.1317 4.3125 10.2011 4.3125 10.2708C4.3125 10.3509 4.31425 10.4306 4.31761 10.51C4.33389 10.5355 4.35152 10.5612 4.37075 10.5869C4.37156 10.5877 4.3725 10.5887 4.37345 10.5895C4.36753 10.484 4.36443 10.3777 4.36443 10.2708H4.36416Z" fill="white"/>
<path d="M15.376 11.9426C14.662 14.2352 12.52 15.9043 9.99556 15.9043C7.47111 15.9043 5.42171 14.3064 4.66332 12.09C4.64557 12.091 4.62754 12.0919 4.60938 12.0926C5.37059 14.3367 7.49748 15.9561 9.99556 15.9561C12.4936 15.9561 14.7274 14.2541 15.4365 11.9219C15.4165 11.9291 15.3963 11.936 15.3761 11.9426H15.376Z" fill="white"/>
<path d="M4.81887 8.05269C5.68193 6.0462 7.67805 4.63773 9.99707 4.63773C12.5558 4.63773 14.7216 6.35241 15.4057 8.69308C15.4212 8.69079 15.4367 8.68851 15.4523 8.68662C15.454 8.68636 15.4558 8.68622 15.4577 8.68609C14.7696 6.31998 12.5822 4.58594 9.99707 4.58594C7.63029 4.58594 5.5969 6.03961 4.74219 8.10085C4.76694 8.08417 4.7925 8.06816 4.81874 8.05269H4.81887Z" fill="white"/>
<path d="M4.68029 10.559C4.662 10.5342 4.64357 10.5093 4.625 10.4844C4.62904 10.5886 4.63603 10.6921 4.64585 10.7948C4.66388 10.7996 4.68151 10.8027 4.69873 10.8036C4.69079 10.7226 4.6846 10.6411 4.68029 10.559Z" fill="white"/>
<path d="M5.23968 7.88124C6.11834 6.13737 7.92585 4.93838 10.0082 4.93838C12.3085 4.93838 14.2734 6.40147 15.0215 8.44603L15.0384 8.43823L15.0287 8.46621C15.0636 8.56254 15.0957 8.66021 15.1251 8.7591C15.1416 8.75425 15.1583 8.74968 15.175 8.74537C14.5144 6.51704 12.4482 4.88672 10.0083 4.88672C7.88845 4.88672 6.05081 6.11746 5.17188 7.90183C5.19394 7.89483 5.21654 7.88797 5.23982 7.88151L5.23968 7.88124Z" fill="white"/>
<path d="M15.1084 12.0159C15.0899 12.0191 15.0712 12.0219 15.0525 12.0246C14.3262 14.1094 12.3409 15.6095 10.0118 15.6095C8.03204 15.6095 6.30068 14.5258 5.37978 12.9204H5.32031C6.24633 14.5554 8.00231 15.6613 10.0118 15.6613C12.3731 15.6613 14.3846 14.1342 15.1103 12.0156C15.1096 12.0156 15.1091 12.0159 15.1084 12.016V12.0159Z" fill="white"/>
<path d="M5.22863 12.6403C5.13526 12.4524 5.05265 12.2582 4.98162 12.0586C4.9644 12.0616 4.94718 12.0645 4.92969 12.0672C5.01256 12.3013 5.11131 12.528 5.22432 12.7461L5.22863 12.6403Z" fill="white"/>
<path d="M5.26853 11.9883C5.25211 11.9934 5.23557 11.9982 5.21875 12.0029C5.24929 12.0873 5.28198 12.1707 5.31696 12.253C5.32517 12.2326 5.33338 12.2122 5.34158 12.1916L5.34239 12.1897C5.34306 12.1879 5.34387 12.1861 5.34454 12.1843C5.3179 12.1196 5.29261 12.0542 5.26866 11.9883H5.26853Z" fill="white"/>
<path d="M14.667 8.22266L14.6406 8.29194C14.6795 8.38262 14.7158 8.47464 14.7495 8.56801L14.7967 8.54635C14.757 8.4367 14.7138 8.32867 14.667 8.22266Z" fill="white"/>
<path d="M5.60997 7.80949C6.47424 6.27442 8.11976 5.23526 10.0033 5.23526C11.8868 5.23526 13.688 6.37532 14.5144 8.03134L14.6043 8.09793C13.7871 6.37667 12.032 5.18359 10.0033 5.18359C8.0872 5.18359 6.41504 6.24792 5.54688 7.81635C5.56746 7.81379 5.58845 7.8115 5.60997 7.80949Z" fill="white"/>
<path d="M14.7663 12.0435C14.7508 12.0435 14.7352 12.0434 14.7195 12.043C14.0016 13.9507 12.1579 15.3117 10.0022 15.3117C8.19442 15.3117 6.60595 14.3546 5.71706 12.9204H5.65625C6.55106 14.3843 8.16442 15.3635 10.0023 15.3635C12.1868 15.3635 14.0542 13.9802 14.7746 12.0435C14.7719 12.0435 14.7691 12.0435 14.7664 12.0435H14.7663Z" fill="white"/>
<path d="M5.96612 7.8015C6.80025 6.44147 8.30087 5.5324 10.0098 5.5324C11.7187 5.5324 13.2919 6.48613 14.1129 7.90106C14.118 7.90106 14.1231 7.90106 14.1282 7.90106V7.92783C14.1287 7.9285 14.1292 7.92918 14.1296 7.92985V7.90106C14.144 7.90106 14.1583 7.90133 14.1729 7.90146C13.3467 6.4564 11.7901 5.48047 10.0098 5.48047C8.22943 5.48047 6.7463 6.41093 5.90625 7.80002C5.92643 7.80042 5.94634 7.80083 5.96612 7.80137V7.8015Z" fill="white"/>
<path d="M14.42 12.0078C13.7262 13.7659 12.0103 15.0132 10.0085 15.0132C8.37433 15.0132 6.93048 14.1819 6.07792 12.9198H6.01562C6.87491 14.2118 8.34392 15.065 10.0084 15.065C12.0352 15.065 13.7721 13.8002 14.4713 12.0184C14.4539 12.0152 14.4368 12.0117 14.4199 12.0078H14.42Z" fill="white"/>
<path d="M14.1356 11.9062C13.4835 13.5499 11.8776 14.7152 10.0045 14.7152C8.54602 14.7152 7.24949 14.0087 6.43904 12.9197H6.375C7.19325 14.0387 8.51535 14.767 10.0045 14.767C11.898 14.767 13.5216 13.5898 14.1823 11.929C14.1666 11.9217 14.151 11.9142 14.1356 11.9062Z" fill="white"/>
<path d="M6.28967 7.83159C7.08492 6.62614 8.45114 5.82901 10.0001 5.82901C11.549 5.82901 12.9833 6.6665 13.769 7.92267C13.7861 7.91715 13.8036 7.91245 13.8215 7.90895C13.0282 6.63058 11.6121 5.77734 10.0001 5.77734C8.38804 5.77734 7.03702 6.59183 6.23438 7.8215C6.25308 7.82446 6.27151 7.82796 6.28967 7.83172V7.83159Z" fill="white"/>
<path d="M6.59679 7.91886C7.34535 6.83664 8.5948 6.12602 10.0074 6.12602C11.5015 6.12602 12.8133 6.92086 13.5427 8.10976C13.5522 8.09322 13.5628 8.07761 13.5744 8.06281C12.8335 6.87014 11.5118 6.07422 10.0074 6.07422C8.50304 6.07422 7.30391 6.79816 6.54688 7.89989C6.56302 7.9054 6.5797 7.91173 6.59679 7.91886Z" fill="white"/>
<path d="M13.884 11.7266C13.2935 13.2961 11.777 14.4157 10.0035 14.4157C8.7024 14.4157 7.53973 13.8128 6.77933 12.8721L6.77637 12.9182H6.75C7.52009 13.863 8.69245 14.4675 10.0035 14.4675C11.7919 14.4675 13.3223 13.3428 13.9251 11.7637C13.911 11.7516 13.8973 11.7392 13.8838 11.7266H13.884Z" fill="white"/>
<path d="M6.85596 8.06626C7.55245 7.07553 8.70409 6.4268 10.0045 6.4268C11.446 6.4268 12.7045 7.22393 13.3631 8.40032C13.3747 8.38485 13.3858 8.36938 13.3965 8.3539C12.7258 7.17321 11.4567 6.375 10.0045 6.375C8.68593 6.375 7.51842 7.03315 6.8125 8.03815C6.8269 8.04729 6.84143 8.05658 6.85596 8.06626Z" fill="white"/>
<path d="M13.6707 11.4375C13.1765 12.9917 11.7198 14.121 10.0041 14.121C8.70546 14.121 7.55517 13.474 6.85841 12.4854C6.85612 12.4915 6.8537 12.4975 6.85141 12.5036C6.8463 12.5168 6.84105 12.5299 6.83594 12.5431C7.54401 13.5291 8.70035 14.1726 10.0041 14.1726C11.7253 14.1726 13.1892 13.0514 13.7045 11.5011C13.6925 11.4804 13.6813 11.4592 13.6707 11.4375Z" fill="white"/>
<path d="M7.08051 8.26426C7.72104 7.3346 8.79276 6.72381 10.0045 6.72381C10.9034 6.72381 11.725 7.05988 12.351 7.61269L12.384 7.64108L12.4239 7.67888C12.4333 7.68763 12.4428 7.69624 12.452 7.70512C12.4641 7.7105 12.4773 7.71629 12.4909 7.72261C12.5294 7.74037 12.5648 7.75853 12.5976 7.77723C11.9421 7.09634 11.022 6.67188 10.0044 6.67188C8.78065 6.67188 7.69777 7.28577 7.04688 8.22147C7.06006 8.23694 7.07109 8.25134 7.08037 8.26412L7.08051 8.26426Z" fill="white"/>
<path d="M13.0156 8.30469C13.03 8.35245 13.0398 8.40048 13.0452 8.44905C13.0806 8.50797 13.1142 8.56784 13.1463 8.62892C13.1597 8.61681 13.1729 8.60471 13.1857 8.5926C13.1333 8.49385 13.0766 8.39779 13.0156 8.30469Z" fill="white"/>
<path d="M13.1332 11.9468C12.534 13.0609 11.3569 13.8201 10.0058 13.8201C8.73576 13.8201 7.61964 13.1493 6.99243 12.1435C6.98611 12.1595 6.97978 12.1755 6.97346 12.1915C6.97184 12.1954 6.97036 12.1995 6.96875 12.2034C7.60861 13.2058 8.73078 13.8719 10.0057 13.8719C11.4305 13.8719 12.6648 13.0398 13.248 11.8359C13.2165 11.8824 13.178 11.9194 13.1331 11.9468H13.1332Z" fill="white"/>
<path d="M7.15268 8.71329C7.70536 7.70547 8.77667 7.02055 10.005 7.02055C10.7254 7.02055 11.3917 7.25626 11.9312 7.65435C11.9571 7.64951 11.9815 7.64641 12.0038 7.64413C11.4486 7.2206 10.7557 6.96875 10.005 6.96875C8.74707 6.96875 7.65114 7.67588 7.09375 8.71343H7.15268V8.71329Z" fill="white"/>
<path d="M12.7556 12.0035C12.1791 12.9147 11.1624 13.5211 10.0066 13.5211C8.85079 13.5211 7.82871 12.9115 7.25303 11.9961C7.23406 11.998 7.21482 11.9999 7.19531 12.0015C7.77759 12.9436 8.81998 13.5727 10.0066 13.5727C11.1932 13.5727 12.2341 12.9444 12.8167 12.0034H12.7556V12.0035Z" fill="white"/>
<path d="M7.47033 8.7158C7.48001 8.7158 7.48916 8.7158 7.49858 8.7158C8.02045 7.87925 8.94902 7.32133 10.0055 7.32133C10.5917 7.32133 11.1385 7.493 11.5983 7.78871C11.6067 7.7836 11.615 7.77835 11.6235 7.77351C11.6252 7.77243 11.627 7.77162 11.6286 7.77068C11.6352 7.76691 11.6419 7.76342 11.6485 7.75978C11.176 7.44995 10.6115 7.26953 10.0055 7.26953C8.91889 7.26953 7.96529 7.84939 7.4375 8.7158C7.4484 8.7158 7.4593 8.7158 7.47033 8.7158Z" fill="white"/>
<path d="M12.3903 12.0072C11.8531 12.7458 10.9822 13.2271 10.0011 13.2271C9.01988 13.2271 8.10396 12.7205 7.57065 11.9492C7.55289 11.9531 7.535 11.9569 7.51684 11.9605C7.51643 11.9605 7.51603 11.9607 7.51562 11.9608C8.05673 12.7558 8.96889 13.2788 10.0011 13.2788C11.0332 13.2788 11.9095 12.7761 12.4542 12.0072C12.433 12.0072 12.4116 12.0072 12.3903 12.0072Z" fill="white"/>
<path d="M7.86038 8.71616C8.34336 8.05141 9.12677 7.6182 10.0095 7.6182C10.5059 7.6182 10.9709 7.7553 11.3687 7.99343C11.3796 7.9797 11.3909 7.96625 11.4026 7.95333C10.9954 7.70794 10.5187 7.56641 10.0095 7.56641C9.09637 7.56641 8.2874 8.02101 7.79688 8.71562C7.8184 8.71576 7.83952 8.71589 7.86038 8.71602V8.71616Z" fill="white"/>
<path d="M12.0555 12.0023C12.0555 12.0023 12.0499 12.0016 12.0481 12.0015L12.0219 11.9992C11.5346 12.5681 10.8113 12.9294 10.0052 12.9294C9.13663 12.9294 8.36412 12.51 7.87938 11.8633C7.86257 11.8693 7.84548 11.8753 7.82812 11.8809C8.32161 12.5478 9.11363 12.9811 10.0052 12.9811C10.84 12.9811 11.5876 12.6012 12.0846 12.0052C12.0733 12.0043 12.0633 12.0032 12.0555 12.0023Z" fill="white"/>
<path d="M8.20858 8.74329C8.64125 8.23676 9.2842 7.91508 10.001 7.91508C10.4447 7.91508 10.8602 8.03845 11.2149 8.25236C11.2209 8.23595 11.2272 8.21967 11.234 8.20353C10.8731 7.98759 10.4513 7.86328 10.001 7.86328C9.25689 7.86328 8.59066 8.20245 8.14844 8.73427C8.16875 8.73696 8.1888 8.74006 8.20858 8.74329Z" fill="white"/>
<path d="M11.776 11.824C11.3436 12.3181 10.7088 12.6308 10.002 12.6308C9.25536 12.6308 8.58873 12.2817 8.15646 11.7383C8.14099 11.7465 8.12525 11.7544 8.10938 11.7624C8.55079 12.3224 9.23518 12.6826 10.0019 12.6826C10.7154 12.6826 11.3572 12.3707 11.7986 11.8763L11.7758 11.8241L11.776 11.824Z" fill="white"/>
<path d="M8.53846 8.82867C8.91234 8.4482 9.43232 8.21182 10.0067 8.21182C10.4379 8.21182 10.8385 8.34514 11.1696 8.57265C11.1692 8.55179 11.1695 8.53121 11.1704 8.51076C10.8366 8.28931 10.4365 8.16016 10.0067 8.16016C9.40905 8.16016 8.86875 8.40972 8.48438 8.8101C8.50213 8.81589 8.52016 8.82208 8.53846 8.82881V8.82867Z" fill="white"/>
<path d="M11.1199 12.0039C10.7992 12.2103 10.4177 12.3302 10.0087 12.3302C9.59967 12.3302 9.21825 12.2103 8.89752 12.0039C8.86657 12.0039 8.83563 12.0039 8.80469 12.0039C9.14641 12.242 9.56146 12.382 10.0087 12.382C10.4559 12.382 10.871 12.242 11.2128 12.0039C11.1818 12.0039 11.1509 12.0039 11.1199 12.0039Z" fill="white"/>
<path d="M8.81029 8.9715C9.12376 8.68426 9.54123 8.50869 9.99906 8.50869C10.2697 8.50869 10.5263 8.57018 10.7557 8.67969C10.776 8.67686 10.7963 8.67485 10.8168 8.6735C10.8281 8.67283 10.8406 8.67202 10.8535 8.67135C10.5988 8.53466 10.3078 8.45703 9.99906 8.45703C9.52307 8.45703 9.08946 8.64148 8.76562 8.94257C8.78056 8.95186 8.79549 8.96154 8.81043 8.97164L8.81029 8.9715Z" fill="white"/>
<path d="M10.5169 12.0024C10.4743 12.0024 10.4339 11.997 10.3965 11.9864C10.2701 12.0153 10.1383 12.0307 10.0031 12.0307C9.85931 12.0307 9.71953 12.0132 9.58566 11.9805C9.54826 11.9939 9.50911 12.0011 9.46875 12.002C9.63773 12.0542 9.8172 12.0824 10.0033 12.0824C10.1893 12.0824 10.368 12.0543 10.5367 12.0023H10.5169V12.0024Z" fill="white"/>
<path d="M9.28012 8.94638L9.28227 8.94141C9.18379 8.99482 9.09176 9.05899 9.00781 9.13218C9.00983 9.13433 9.01185 9.13662 9.01387 9.13891C9.02302 9.14886 9.0327 9.15936 9.04266 9.17052C9.1067 9.11469 9.17572 9.06451 9.24877 9.02038C9.25375 9.00814 9.25872 8.9963 9.26357 8.98486C9.26357 8.98486 9.27716 8.95338 9.27998 8.94665L9.28012 8.94638Z" fill="white"/>
<path d="M10.1386 11.7303C10.092 11.7348 10.0448 11.7372 9.99707 11.7372C9.93733 11.7372 9.8784 11.7336 9.82055 11.7266C9.81921 11.7297 9.81786 11.7326 9.81638 11.7358C9.80966 11.7505 9.80293 11.764 9.79688 11.7758C9.86239 11.7845 9.92912 11.789 9.99707 11.789C10.0503 11.789 10.1029 11.7862 10.1547 11.7808C10.1484 11.7653 10.1429 11.7485 10.1386 11.7303Z" fill="white"/>
<path d="M15.9633 12.0797C15.1855 14.634 12.8076 16.4978 10.0025 16.4978C7.19738 16.4978 4.80397 14.622 4.03414 12.0551C4.01477 12.0513 3.99567 12.0473 3.97656 12.043C4.74423 14.645 7.15513 16.5496 10.0025 16.5496C12.8498 16.5496 15.2194 14.6775 16.0083 12.1097C15.9926 12.1007 15.9777 12.0907 15.9634 12.0798L15.9633 12.0797Z" fill="white"/>
<path d="M16.4682 11.4561C16.5013 11.2753 16.5269 11.0919 16.5447 10.9062L16.5302 10.9482C16.5287 10.9532 16.5265 10.9603 16.5237 10.9687C16.5214 10.9755 16.5186 10.9835 16.5151 10.9919L16.5143 10.9941C16.5134 10.9963 16.5096 11.0051 16.5085 11.0076L16.5072 11.0107C16.5031 11.0194 16.4988 11.028 16.4943 11.0363C16.4881 11.0476 16.4815 11.0591 16.4747 11.0705C16.4602 11.1885 16.4426 11.3054 16.4219 11.4213C16.4382 11.4318 16.4536 11.4435 16.4683 11.4561H16.4682Z" fill="white"/>
<path d="M16.2478 12.1642C15.4347 14.8434 12.9416 16.7989 10.0003 16.7989C7.05907 16.7989 4.43855 14.7419 3.69362 11.957C3.6729 11.9483 3.65259 11.9391 3.63281 11.9297C4.36967 14.7574 6.94511 16.8506 10.0003 16.8506C13.0555 16.8506 15.4931 14.8674 16.3047 12.1542C16.2862 12.1588 16.2672 12.1622 16.2477 12.1642H16.2478Z" fill="white"/>
<path d="M16.2023 11.457C16.2606 11.457 16.3133 11.4706 16.3604 11.4979C16.4083 11.5244 16.446 11.5609 16.4732 11.6073C16.5005 11.6537 16.5141 11.7042 16.5141 11.7588C16.5141 11.8134 16.5005 11.8649 16.4732 11.9114C16.4459 11.9571 16.4083 11.9936 16.3604 12.0207C16.3133 12.0472 16.2606 12.0606 16.2023 12.0606C16.1441 12.0606 16.0911 12.0472 16.0432 12.0207C15.9961 11.9934 15.9588 11.957 15.9315 11.9114C15.9042 11.8649 15.8906 11.8141 15.8906 11.7588C15.8906 11.7035 15.9042 11.6537 15.9315 11.6073C15.9588 11.5609 15.996 11.5244 16.0432 11.4979C16.0911 11.4706 16.1442 11.457 16.2023 11.457ZM16.2023 12.002C16.2502 12.002 16.2926 11.9917 16.3295 11.9711C16.367 11.9497 16.3962 11.9206 16.4168 11.8838C16.4374 11.8469 16.4477 11.8053 16.4477 11.7589C16.4477 11.7125 16.4374 11.672 16.4168 11.6352C16.3962 11.5983 16.367 11.5695 16.3295 11.5489C16.2919 11.5275 16.2496 11.5169 16.2023 11.5169C16.1551 11.5169 16.1127 11.5275 16.0752 11.5489C16.0377 11.5695 16.0085 11.5983 15.9879 11.6352C15.9673 11.672 15.957 11.7133 15.957 11.7589C15.957 11.8045 15.9673 11.8469 15.9879 11.8838C16.0085 11.9206 16.0373 11.9497 16.0741 11.9711C16.1117 11.9917 16.1545 12.002 16.2023 12.002ZM16.3328 11.7058C16.3328 11.7234 16.3284 11.7397 16.3195 11.7545C16.3106 11.7685 16.2981 11.7791 16.282 11.7865L16.3538 11.8927H16.2742L16.21 11.7931H16.157V11.8927H16.0873V11.6196H16.2454C16.2719 11.6196 16.2929 11.628 16.3084 11.645C16.3246 11.6611 16.3327 11.6814 16.3327 11.7058H16.3328ZM16.1571 11.7323H16.2323C16.2412 11.7323 16.2482 11.7301 16.2533 11.7257C16.2584 11.7206 16.2611 11.7139 16.2611 11.7058C16.2611 11.6977 16.2586 11.6914 16.2533 11.687C16.2482 11.6818 16.2412 11.6792 16.2323 11.6792H16.1571V11.7322V11.7323Z" fill="white"/>
<path d="M16.2167 10.8391C16.2149 10.8382 16.213 10.8372 16.2113 10.8361C16.2035 10.8437 16.1961 10.8517 16.1877 10.8585C16.181 10.864 16.1721 10.8729 16.1657 10.8718C16.1448 10.8683 16.1323 10.8816 16.1175 10.8909C16.0872 10.91 16.0574 10.9296 16.0271 10.9487C15.8987 11.0295 15.7633 11.0951 15.6185 11.1411C15.5834 11.1523 15.548 11.1645 15.5118 11.1709C15.4228 11.1865 15.3336 11.2018 15.2421 11.1945C15.1833 11.1898 15.1265 11.1781 15.074 11.1519C15.0163 11.123 14.9679 11.0823 14.9325 11.0268C14.9072 10.987 14.8816 10.9471 14.8695 10.9015C14.8444 10.8077 14.8364 10.7126 14.852 10.6159C14.8721 10.4916 14.9095 10.3725 14.9609 10.258C15.0043 10.1613 15.0509 10.0659 15.0984 9.97106C15.1576 9.85281 15.2282 9.74154 15.3093 9.63701C15.3763 9.55077 15.4503 9.4722 15.5453 9.41543C15.5847 9.39188 15.6266 9.37816 15.6722 9.37655C15.7295 9.37439 15.7728 9.40386 15.789 9.45794C15.7949 9.47785 15.7981 9.49992 15.7962 9.5205C15.7888 9.60633 15.7582 9.68598 15.7205 9.76199C15.6661 9.87151 15.5962 9.97106 15.5163 10.064C15.4047 10.1939 15.2805 10.3089 15.1354 10.4004C15.1061 10.4189 15.076 10.4363 15.0469 10.455C15.0257 10.4686 15.0107 10.4916 14.9824 10.4944C14.9786 10.4948 14.9727 10.5048 14.9734 10.5096C14.9743 10.5162 14.9792 10.5247 14.9848 10.5274C14.9924 10.531 15.0023 10.531 15.0111 10.5307C15.0524 10.5297 15.0938 10.5272 15.1351 10.5264C15.308 10.5232 15.479 10.5036 15.6476 10.4648C15.7968 10.4305 15.9403 10.381 16.0699 10.2976C16.154 10.2435 16.2298 10.1799 16.2943 10.1024C16.3607 10.0223 16.4116 9.93326 16.452 9.83855C16.4732 9.7885 16.4942 9.73562 16.5003 9.68235C16.5095 9.60082 16.5133 9.51741 16.483 9.43722C16.4625 9.3826 16.4385 9.32852 16.4023 9.28385C16.3605 9.23219 16.3134 9.18402 16.2543 9.14918C16.1984 9.11622 16.1413 9.08675 16.0808 9.06281C15.9975 9.02984 15.9111 9.01195 15.8229 9.00778C15.7146 9.00253 15.6061 9.00428 15.4977 9.0176C15.3513 9.03563 15.2096 9.07047 15.0721 9.12294C14.8561 9.20555 14.6719 9.33753 14.5095 9.49857C14.3471 9.65961 14.2208 9.84837 14.1169 10.0515C14.0829 10.1181 14.0526 10.1867 14.0228 10.2553C13.9372 10.452 13.8846 10.6563 13.8851 10.8722C13.8855 11.003 13.9032 11.1306 13.9555 11.2519C14.0155 11.391 14.1129 11.4989 14.2411 11.5769C14.3779 11.6602 14.5308 11.6942 14.6897 11.7004C14.8072 11.705 14.9244 11.6995 15.0409 11.6793C15.3052 11.6335 15.5442 11.5303 15.7595 11.3719C15.8745 11.2871 15.9757 11.1878 16.0653 11.0766C16.1174 11.012 16.165 10.9444 16.2049 10.8718C16.2105 10.8617 16.2128 10.85 16.2167 10.839V10.8391ZM12.0735 11.6604C12.09 11.6619 12.1086 11.6649 12.1273 11.6649C12.3871 11.6652 12.6468 11.6652 12.9065 11.6652C12.9529 11.6652 12.9641 11.6574 12.981 11.6139C13.0018 11.5609 13.0225 11.5079 13.0428 11.4547C13.078 11.3631 13.1126 11.2712 13.1483 11.1797C13.1843 11.0872 13.2217 10.9953 13.2579 10.9027C13.3116 10.7655 13.3645 10.6281 13.4179 10.4909C13.472 10.3515 13.5262 10.2122 13.5804 10.0729C13.6274 9.95236 13.6746 9.83195 13.7218 9.71141C13.7258 9.70105 13.7311 9.69109 13.735 9.6806C13.744 9.65692 13.7605 9.64495 13.7864 9.64629C13.7986 9.64683 13.811 9.64602 13.8234 9.64602C13.9376 9.64602 14.0518 9.64602 14.166 9.64602C14.2308 9.64602 14.2223 9.65262 14.2589 9.58575C14.2605 9.58279 14.2613 9.57956 14.2625 9.57633C14.3128 9.44745 14.3635 9.31869 14.4133 9.18967C14.428 9.1516 14.4402 9.11272 14.456 9.06725C14.4238 9.08204 14.4354 9.05352 14.4242 9.04841C14.2838 9.04451 14.1433 9.04061 13.998 9.0367C14.0012 9.01558 14.0011 8.99756 14.0069 8.98168C14.0296 8.91993 14.0541 8.85885 14.0781 8.79763C14.1262 8.67386 14.1745 8.55022 14.2224 8.42645C14.2425 8.37465 14.262 8.32245 14.2807 8.27321C14.2656 8.26204 14.2551 8.25276 14.2431 8.2459C14.2338 8.24052 14.2231 8.23527 14.2127 8.235C14.1636 8.23352 14.1145 8.23379 14.0654 8.23312C14.0475 8.23285 14.0298 8.23056 14.0119 8.23069C13.9739 8.2311 13.9357 8.22975 13.8982 8.23446C13.8697 8.23796 13.8429 8.24912 13.8269 8.27805C13.7922 8.34048 13.7562 8.40236 13.7196 8.46358C13.6187 8.63229 13.4868 8.77517 13.3393 8.90324C13.1616 9.05756 12.957 9.16694 12.7332 9.23972C12.6525 9.26596 12.5703 9.28721 12.489 9.31197C12.4686 9.31816 12.4454 9.32219 12.4356 9.34681C12.4051 9.4235 12.3736 9.49978 12.3428 9.57647C12.3211 9.63042 12.3312 9.64602 12.388 9.64616C12.5134 9.64643 12.6388 9.64616 12.7642 9.64616C12.7743 9.64616 12.7843 9.64575 12.7944 9.64629C12.8223 9.64791 12.8265 9.65369 12.8185 9.67925C12.8176 9.68248 12.8162 9.68558 12.815 9.68867C12.7912 9.7511 12.7674 9.81366 12.7436 9.87608C12.7175 9.94483 12.6916 10.0137 12.6651 10.0823C12.6281 10.1781 12.5905 10.2736 12.5532 10.3693C12.5278 10.4348 12.5028 10.5005 12.4772 10.5659C12.4484 10.6396 12.4192 10.7132 12.3906 10.7869C12.3651 10.8524 12.3406 10.9182 12.3151 10.9837C12.288 11.0533 12.2598 11.1224 12.2327 11.1921C12.2065 11.2597 12.1814 11.3276 12.1553 11.3953C12.129 11.4629 12.1022 11.5303 12.0757 11.598C12.0683 11.617 12.0627 11.6362 12.0733 11.6604H12.0735ZM9.58869 9.07195C9.57819 9.09657 9.5673 9.12093 9.55748 9.14568C9.51321 9.25775 9.46922 9.36982 9.42536 9.48202C9.39684 9.55481 9.36859 9.62759 9.34033 9.70038C9.30643 9.78769 9.2728 9.87527 9.23862 9.96245C9.20163 10.057 9.16422 10.1513 9.12709 10.2458C9.08956 10.3413 9.05242 10.437 9.01502 10.5325C8.99013 10.5959 8.96457 10.6588 8.94009 10.7222C8.91318 10.7919 8.88762 10.8622 8.86044 10.9319C8.81187 11.0566 8.76209 11.1811 8.71352 11.3058C8.67787 11.3973 8.6433 11.4892 8.60859 11.5809C8.60307 11.5955 8.59823 11.6105 8.595 11.6257C8.59029 11.6477 8.5989 11.6602 8.62096 11.6635C8.63307 11.6654 8.64558 11.6649 8.65783 11.6649C8.91654 11.6649 9.17526 11.6649 9.43397 11.6649C9.44177 11.6649 9.44971 11.6645 9.45751 11.6648C9.4711 11.6652 9.48106 11.6604 9.48711 11.6475C9.49922 11.6217 9.51362 11.5968 9.52411 11.5703C9.55061 11.5028 9.5751 11.4346 9.60107 11.3669C9.63753 11.2722 9.67479 11.1776 9.71152 11.083C9.75107 10.981 9.78996 10.8788 9.82964 10.7768C9.86651 10.6822 9.90377 10.5878 9.94091 10.4932C9.98329 10.3852 10.0236 10.2762 10.0687 10.1692C10.1065 10.0796 10.1506 9.99272 10.2097 9.91456C10.2635 9.84339 10.3265 9.78231 10.4053 9.73845C10.4597 9.70818 10.5186 9.69311 10.5796 9.69742C10.7219 9.70724 10.8278 9.77841 10.9008 9.89976C10.9072 9.91012 10.9136 9.92048 10.9195 9.9299C10.9362 9.9299 10.946 9.92492 10.9517 9.90945C10.9712 9.85711 10.9923 9.80558 11.0126 9.75352C11.062 9.62665 11.1114 9.49978 11.1606 9.37278C11.1889 9.29999 11.2169 9.22707 11.2443 9.15389C11.25 9.13895 11.2522 9.12281 11.2555 9.10989C11.2458 9.10707 11.2392 9.10707 11.2354 9.10384C11.223 9.09294 11.2138 9.07626 11.1996 9.07007C11.1558 9.05097 11.111 9.03267 11.065 9.01962C10.9919 8.99903 10.916 9.00213 10.8414 9.00697C10.7823 9.01087 10.7239 9.0246 10.669 9.04774C10.595 9.07895 10.5298 9.12402 10.4727 9.18052C10.3932 9.25923 10.3336 9.35219 10.2825 9.45094C10.2622 9.4901 10.2454 9.53167 10.2097 9.56786C10.2112 9.54391 10.2132 9.52521 10.2133 9.50651C10.2136 9.4048 10.2137 9.30309 10.2132 9.20138C10.2129 9.1668 10.21 9.13223 10.209 9.09765C10.2086 9.08258 10.203 9.07155 10.1887 9.0663C10.1751 9.06133 10.1615 9.05487 10.1474 9.05339C10.1176 9.05016 10.0873 9.04854 10.0573 9.04827C9.93633 9.04706 9.81538 9.04639 9.69443 9.04626C9.6756 9.04626 9.6565 9.04868 9.63806 9.05298C9.62205 9.05662 9.60712 9.06442 9.58896 9.07155L9.58869 9.07195ZM11.3539 11.6613C11.3682 11.6339 11.3818 11.61 11.3932 11.5851C11.4025 11.5649 11.409 11.5434 11.4172 11.5227C11.455 11.4261 11.4932 11.3296 11.5309 11.233C11.5564 11.1675 11.5813 11.1018 11.6069 11.0363C11.6341 10.9666 11.6616 10.8972 11.6887 10.8275C11.7145 10.7609 11.7395 10.6941 11.7655 10.6276C11.802 10.5341 11.8392 10.4409 11.8757 10.3474C11.9123 10.2539 11.9483 10.1602 11.9847 10.0666C12.0202 9.9751 12.0554 9.88348 12.0912 9.792C12.1343 9.68181 12.1787 9.57216 12.2202 9.46157C12.2322 9.42955 12.2517 9.39942 12.2514 9.3635C12.2514 9.36054 12.2494 9.35758 12.2479 9.35367C12.2422 9.35583 12.2372 9.35771 12.2298 9.3604C12.2181 9.3378 12.1953 9.33632 12.1729 9.3347C12.0681 9.32704 11.963 9.32152 11.8598 9.30094C11.782 9.28546 11.7032 9.27188 11.6279 9.2482C11.558 9.22627 11.4905 9.19869 11.4156 9.19586C11.3969 9.24268 11.3778 9.29031 11.3588 9.3378C11.3357 9.39565 11.3121 9.4535 11.2894 9.51149C11.2522 9.60593 11.2158 9.70051 11.1788 9.79496C11.154 9.85832 11.1286 9.92142 11.104 9.98479C11.066 10.0825 11.0288 10.1804 10.9907 10.2781C10.9665 10.3404 10.9408 10.4021 10.9166 10.4645C10.8786 10.5622 10.8415 10.6602 10.8037 10.758C10.7768 10.8277 10.7495 10.8971 10.7224 10.9668C10.7059 11.0094 10.6901 11.0523 10.6736 11.095C10.647 11.1635 10.6196 11.2318 10.5929 11.3003C10.573 11.3511 10.5535 11.4023 10.5338 11.4533C10.514 11.5042 10.4914 11.5543 10.4754 11.6064C10.4605 11.6551 10.4725 11.665 10.5167 11.6649C10.519 11.6649 10.5212 11.6649 10.5235 11.6649C10.7865 11.6649 11.0496 11.6649 11.3126 11.6648C11.3269 11.6648 11.3412 11.6623 11.3539 11.6611V11.6613ZM12.1149 7.97346L12.1144 7.96875C12.0667 7.974 12.018 7.97467 11.9719 7.9857C11.8979 8.00346 11.8278 8.03292 11.7628 8.07396C11.6723 8.13114 11.6042 8.2089 11.557 8.30321C11.5123 8.39254 11.4957 8.48927 11.5017 8.58937C11.5081 8.70023 11.54 8.80288 11.6066 8.89221C11.7114 9.0328 11.8533 9.11447 12.027 9.13586C12.2011 9.15725 12.3607 9.11635 12.4999 9.00751C12.596 8.93244 12.6622 8.83638 12.6961 8.71853C12.7137 8.65745 12.7141 8.59542 12.7137 8.53273C12.7129 8.40922 12.6638 8.30321 12.5952 8.20473C12.5638 8.15966 12.5219 8.12562 12.4753 8.09454C12.4239 8.06024 12.3694 8.0336 12.3136 8.00911C12.2934 8.00023 12.2704 7.99768 12.2489 7.99203C12.2403 7.98987 12.2319 7.98691 12.2233 7.98476C12.2073 7.98086 12.1916 7.97548 12.1753 7.974C12.1554 7.97211 12.1351 7.97359 12.1149 7.97359V7.97346Z" fill="white"/>
<path d="M5.55469 12.5795C5.55657 12.5316 5.57608 12.4886 5.59317 12.445C5.62882 12.3535 5.66635 12.2628 5.70187 12.1714C5.75044 12.0466 5.79739 11.9212 5.84569 11.7964C5.88107 11.7049 5.9178 11.6138 5.95346 11.5223C5.98911 11.4309 6.02395 11.3391 6.05974 11.2478C6.09553 11.1564 6.13226 11.0655 6.16831 10.9741C6.19333 10.9109 6.21782 10.8474 6.24244 10.7839C6.27029 10.7122 6.29814 10.6405 6.32585 10.5687C6.36393 10.4699 6.4016 10.3708 6.44021 10.2722C6.476 10.1809 6.51326 10.0901 6.54892 9.99858C6.59278 9.88624 6.63515 9.7735 6.67901 9.66116C6.71426 9.57075 6.75113 9.48088 6.78678 9.39061C6.81866 9.30975 6.84961 9.22862 6.88149 9.14777C6.8901 9.12597 6.89737 9.1027 6.91096 9.0844C6.92051 9.07148 6.9388 9.0626 6.95495 9.05763C6.97607 9.05117 6.99881 9.04754 7.02087 9.04754C7.29856 9.04713 7.57624 9.04592 7.85393 9.04834C7.99949 9.04955 8.14466 9.06247 8.28552 9.10202C8.35091 9.12032 8.41642 9.14064 8.47818 9.16848C8.55136 9.20158 8.61958 9.24517 8.68348 9.29441C8.70016 9.30733 8.72088 9.31634 8.7346 9.33168C8.77766 9.37984 8.82461 9.42505 8.8569 9.48209C8.91273 9.58071 8.94959 9.68605 8.95794 9.79879C8.96628 9.9114 8.96211 10.0241 8.93816 10.1357C8.91354 10.2507 8.87627 10.3614 8.83066 10.4697C8.7638 10.6289 8.68375 10.7805 8.58271 10.9211C8.51854 11.0104 8.44495 11.0913 8.36638 11.168C8.22296 11.308 8.05654 11.4139 7.87424 11.4952C7.73782 11.556 7.59481 11.5965 7.4483 11.6254C7.32506 11.6498 7.20061 11.6635 7.07549 11.6713C7.02545 11.6744 6.975 11.6718 6.92401 11.6718C6.92024 11.6643 6.91647 11.6566 6.91163 11.6468C6.91701 11.6424 6.92226 11.635 6.92871 11.6335C6.94593 11.6297 6.95831 11.6228 6.9684 11.607C6.97553 11.5958 6.99114 11.5896 7.00352 11.5821C7.08612 11.5324 7.16523 11.4773 7.23748 11.4138C7.30959 11.3504 7.37834 11.2829 7.44655 11.2152C7.54301 11.1194 7.62279 11.01 7.69571 10.8961C7.75948 10.7964 7.81921 10.694 7.86334 10.5834C7.88944 10.5182 7.92012 10.4547 7.94407 10.3886C7.98819 10.2667 8.02519 10.1429 8.0373 10.0126C8.04282 9.95284 8.04066 9.89445 8.03017 9.83592C8.00434 9.69264 7.89429 9.58353 7.751 9.55891C7.72786 9.55488 7.70459 9.55165 7.68145 9.54801C7.65898 9.54452 7.64203 9.55245 7.63086 9.57223C7.62696 9.57909 7.62239 9.58555 7.61956 9.59268C7.58593 9.67771 7.5527 9.763 7.5192 9.84817C7.48247 9.94153 7.4452 10.0349 7.40861 10.1283C7.38345 10.1927 7.3591 10.2574 7.33394 10.3219C7.29573 10.4195 7.25698 10.5171 7.21891 10.6148C7.18407 10.7041 7.15003 10.7938 7.11505 10.8832C7.07845 10.9767 7.04119 11.0699 7.00446 11.1634C6.97997 11.2257 6.95616 11.2882 6.93194 11.3507C6.89347 11.4494 6.85472 11.548 6.81624 11.6469C6.78099 11.7373 6.74628 11.828 6.7109 11.9184C6.6743 12.0119 6.63704 12.1052 6.60031 12.1987C6.57703 12.2579 6.55457 12.3173 6.53156 12.3765C6.50654 12.441 6.48124 12.5053 6.45622 12.5697C6.45501 12.5727 6.45568 12.5763 6.45541 12.5797H5.55496L5.55469 12.5795Z" fill="white"/>
<path d="M3.49232 11.3524C3.49743 11.3595 3.50241 11.3667 3.50604 11.3716C3.62915 11.0575 3.75292 10.7417 3.87696 10.4249C3.91275 10.4439 3.92257 10.4759 3.93535 10.5048C3.98096 10.6087 4.03948 10.7049 4.10769 10.7953C4.12236 10.8148 4.14146 10.8311 4.15882 10.8484C4.18963 10.8794 4.22178 10.909 4.25125 10.9411C4.30627 11.0007 4.37448 11.0434 4.44619 11.0758C4.57682 11.1348 4.71473 11.151 4.85545 11.1118C5.01367 11.0677 5.10313 10.9605 5.13583 10.8027C5.14632 10.7517 5.13381 10.7023 5.11766 10.6545C5.08981 10.5723 5.04569 10.4979 4.9955 10.428C4.91142 10.3108 4.8237 10.1962 4.73787 10.0803C4.66858 9.98684 4.60198 9.89146 4.54696 9.78867C4.45157 9.61054 4.40125 9.42179 4.41511 9.21837C4.42211 9.11477 4.44955 9.01643 4.4883 8.92037C4.5335 8.80843 4.59499 8.70605 4.67087 8.61322C4.74177 8.52631 4.82478 8.4511 4.91747 8.38706C4.99053 8.33661 5.06842 8.29477 5.14968 8.25992C5.25799 8.21338 5.37153 8.18432 5.4871 8.16144C5.66456 8.12633 5.84376 8.1309 6.02256 8.13709C6.11727 8.14046 6.21279 8.1523 6.30374 8.18028C6.3589 8.19723 6.41608 8.2092 6.46882 8.23288C6.51658 8.25427 6.56299 8.27943 6.60766 8.30661C6.65717 8.33688 6.70507 8.36984 6.75148 8.40469C6.77247 8.42029 6.78982 8.44168 6.80516 8.46321C6.81068 8.47101 6.80852 8.48743 6.80476 8.49819C6.79077 8.53936 6.77516 8.57999 6.75942 8.62048C6.73224 8.69017 6.70453 8.7596 6.67708 8.82915C6.62919 8.95064 6.58143 9.07226 6.53353 9.19375C6.51523 9.24043 6.49505 9.28631 6.47904 9.3338C6.47097 9.35788 6.46142 9.37578 6.43397 9.37793C6.41433 9.32694 6.39644 9.27528 6.37478 9.22523C6.30105 9.05477 6.19315 8.91243 6.02956 8.81785C5.89287 8.73888 5.74662 8.71466 5.59244 8.75018C5.48576 8.77466 5.40813 8.8379 5.35983 8.93651C5.33185 8.99342 5.31315 9.05235 5.31705 9.11693C5.32014 9.16644 5.3305 9.21379 5.34961 9.2598C5.38324 9.34093 5.43302 9.41277 5.47916 9.4865C5.50742 9.5317 5.54361 9.57193 5.5759 9.61458C5.59675 9.64216 5.61706 9.67014 5.63778 9.69786C5.64774 9.71131 5.65702 9.72544 5.66819 9.73795C5.72402 9.80064 5.77353 9.86791 5.81847 9.93868C5.8412 9.97447 5.86609 10.0088 5.88883 10.0446C5.97049 10.1733 6.02834 10.3116 6.05471 10.4622C6.05821 10.4818 6.05794 10.5023 6.05835 10.5223C6.05902 10.5536 6.0574 10.585 6.05915 10.6162C6.0644 10.7098 6.04005 10.7977 6.00749 10.8839C5.94439 11.0514 5.84981 11.1998 5.72577 11.3284C5.62554 11.4324 5.50782 11.5133 5.37826 11.5775C5.21493 11.6583 5.04152 11.7043 4.86258 11.7314C4.67921 11.7591 4.49435 11.7623 4.30963 11.7526C4.18088 11.7459 4.05361 11.7244 3.93051 11.6851C3.79826 11.643 3.67516 11.5826 3.57035 11.4894C3.55111 11.4723 3.53241 11.4546 3.5125 11.4384C3.50752 11.4343 3.49905 11.4347 3.49219 11.433C3.49219 11.4062 3.49219 11.3793 3.49219 11.3525L3.49232 11.3524Z" fill="white"/>
<path d="M16.2143 10.8378C16.2106 10.8488 16.2082 10.8605 16.2026 10.8706C16.1627 10.9433 16.1151 11.0107 16.063 11.0754C15.9734 11.1866 15.8722 11.2859 15.7572 11.3707C15.5419 11.5292 15.3029 11.6325 15.0386 11.6781C14.922 11.6983 14.8049 11.7038 14.6873 11.6992C14.5285 11.693 14.3756 11.659 14.2388 11.5757C14.1106 11.4977 14.0132 11.3898 13.9532 11.2507C13.9008 11.1295 13.8832 11.0018 13.8828 10.871C13.8823 10.6551 13.9349 10.4508 14.0204 10.2542C14.0503 10.1855 14.0805 10.1169 14.1146 10.0503C14.2186 9.84718 14.345 9.65842 14.5072 9.49738C14.6696 9.33634 14.8538 9.20436 15.0698 9.12176C15.2073 9.06929 15.349 9.03431 15.4954 9.01641C15.6037 9.00309 15.7123 9.00148 15.8206 9.00659C15.9088 9.01076 15.9952 9.02879 16.0785 9.06162C16.1391 9.08557 16.1962 9.11489 16.252 9.14799C16.3111 9.18284 16.3582 9.231 16.4 9.28266C16.4362 9.32733 16.46 9.38141 16.4807 9.43604C16.511 9.51622 16.5072 9.59963 16.4979 9.68116C16.4919 9.73444 16.4709 9.78731 16.4496 9.83736C16.4093 9.93221 16.3584 10.0211 16.292 10.1012C16.2275 10.1788 16.1516 10.2423 16.0676 10.2964C15.938 10.3798 15.7945 10.4293 15.6453 10.4636C15.4767 10.5024 15.3057 10.522 15.1328 10.5252C15.0915 10.5261 15.0501 10.5285 15.0088 10.5296C14.9999 10.5298 14.9901 10.5298 14.9825 10.5262C14.9769 10.5235 14.972 10.5149 14.9711 10.5084C14.9704 10.5036 14.9763 10.4936 14.9801 10.4932C15.0084 10.4904 15.0234 10.4674 15.0445 10.4538C15.0737 10.4351 15.1037 10.4176 15.1331 10.3992C15.2782 10.3076 15.4024 10.1925 15.5139 10.0628C15.5939 9.96988 15.6638 9.87032 15.7182 9.76081C15.7558 9.68479 15.7865 9.60515 15.7939 9.51931C15.7957 9.49873 15.7926 9.47667 15.7866 9.45675C15.7705 9.40267 15.7272 9.37321 15.6699 9.37536C15.6243 9.37711 15.5824 9.3907 15.543 9.41424C15.448 9.47101 15.374 9.54958 15.307 9.63582C15.2259 9.74036 15.1553 9.85175 15.0961 9.96988C15.0486 10.0647 15.002 10.1601 14.9586 10.2568C14.9072 10.3713 14.8698 10.4904 14.8497 10.6147C14.8343 10.7113 14.8422 10.8066 14.8672 10.9003C14.8795 10.9459 14.9049 10.9858 14.9302 11.0256C14.9656 11.0812 15.0139 11.1218 15.0717 11.1507C15.1241 11.1769 15.1808 11.1886 15.2398 11.1934C15.3312 11.2006 15.4204 11.1853 15.5095 11.1697C15.5457 11.1634 15.5809 11.1511 15.6162 11.1399C15.761 11.0939 15.8964 11.0281 16.0248 10.9476C16.0551 10.9285 16.0851 10.9088 16.1152 10.8897C16.1299 10.8804 16.1424 10.8671 16.1634 10.8706C16.1698 10.8717 16.1787 10.8628 16.1854 10.8573C16.1938 10.8504 16.2012 10.8425 16.209 10.835C16.2107 10.8359 16.2126 10.8368 16.2143 10.8379V10.8378Z" fill="white"/>
<path d="M12.0684 11.6602C12.0577 11.6359 12.0634 11.6168 12.0708 11.5978C12.0973 11.5303 12.1241 11.4629 12.1503 11.3951C12.1764 11.3275 12.2016 11.2594 12.2278 11.1919C12.2548 11.1223 12.283 11.0532 12.3101 10.9835C12.3357 10.918 12.3602 10.8522 12.3856 10.7867C12.4143 10.713 12.4435 10.6394 12.4723 10.5656C12.4978 10.5001 12.5228 10.4345 12.5483 10.3691C12.5855 10.2734 12.6232 10.1779 12.6602 10.0821C12.6867 10.0135 12.7125 9.94461 12.7386 9.87586C12.7624 9.8133 12.7863 9.75088 12.8101 9.68845C12.8113 9.68536 12.8125 9.68226 12.8136 9.67903C12.8215 9.65361 12.8173 9.64769 12.7895 9.64607C12.7794 9.64553 12.7693 9.64594 12.7592 9.64594C12.6338 9.64594 12.5084 9.64607 12.3831 9.64594C12.3261 9.64594 12.3161 9.6302 12.3378 9.57625C12.3687 9.4997 12.4001 9.42328 12.4307 9.34659C12.4405 9.32197 12.4636 9.31794 12.4841 9.31175C12.5652 9.28699 12.6476 9.26574 12.7283 9.2395C12.952 9.16672 13.1566 9.05734 13.3344 8.90302C13.4818 8.77495 13.6138 8.63207 13.7147 8.46336C13.7513 8.40201 13.7872 8.34026 13.8219 8.27783C13.8379 8.24891 13.8647 8.23774 13.8932 8.23424C13.9308 8.22967 13.969 8.23088 14.0069 8.23047C14.0248 8.23034 14.0426 8.23263 14.0605 8.2329C14.1096 8.23357 14.1587 8.2333 14.2078 8.23478C14.2181 8.23505 14.2289 8.24043 14.2382 8.24568C14.2502 8.25254 14.2607 8.26182 14.2757 8.27299C14.257 8.32223 14.2376 8.37429 14.2175 8.42623C14.1694 8.55 14.1213 8.67377 14.0731 8.79741C14.0493 8.85876 14.0247 8.91971 14.0019 8.98146C13.9962 8.99734 13.9963 9.01536 13.9931 9.03649C14.1384 9.04052 14.2788 9.04442 14.4193 9.04819C14.4306 9.0533 14.4591 9.04469 14.451 9.06703C14.4353 9.1125 14.423 9.15151 14.4084 9.18945C14.3586 9.31847 14.3079 9.44723 14.2576 9.57611C14.2563 9.57921 14.2555 9.58257 14.2539 9.58553C14.2173 9.6524 14.2258 9.6458 14.1611 9.6458C14.0469 9.64594 13.9326 9.6458 13.8184 9.6458C13.8061 9.6458 13.7938 9.64675 13.7814 9.64607C13.7556 9.64486 13.7391 9.6567 13.73 9.68038C13.726 9.69074 13.7209 9.70069 13.7169 9.71119C13.6696 9.8316 13.6224 9.95214 13.5755 10.0727C13.5211 10.2119 13.467 10.3513 13.4129 10.4907C13.3597 10.6279 13.3066 10.7654 13.253 10.9025C13.2168 10.9949 13.1794 11.087 13.1433 11.1795C13.1077 11.271 13.0731 11.3629 13.0378 11.4545C13.0174 11.5077 12.9967 11.5607 12.9761 11.6137C12.9591 11.6571 12.948 11.6649 12.9016 11.6649C12.6418 11.6649 12.382 11.6649 12.1223 11.6647C12.1038 11.6647 12.0851 11.6616 12.0685 11.6602H12.0684Z" fill="white"/>
<path d="M9.58896 9.07205C9.60712 9.06506 9.62205 9.05725 9.63806 9.05349C9.65636 9.04932 9.6756 9.04676 9.69443 9.04676C9.81538 9.04676 9.93633 9.04757 10.0573 9.04878C10.0874 9.04905 10.1176 9.05066 10.1474 9.05389C10.1615 9.05537 10.1751 9.06183 10.1887 9.06681C10.203 9.07205 10.2086 9.08295 10.209 9.09815C10.21 9.13273 10.2129 9.16731 10.2132 9.20188C10.2139 9.30359 10.2136 9.4053 10.2133 9.50701C10.2133 9.52571 10.2112 9.54441 10.2097 9.56836C10.2455 9.53204 10.2623 9.4906 10.2825 9.45145C10.3336 9.35256 10.3931 9.25973 10.4727 9.18103C10.5298 9.12452 10.5949 9.07932 10.669 9.04824C10.7239 9.0251 10.7823 9.01124 10.8414 9.00748C10.916 9.00263 10.9919 8.99954 11.065 9.02012C11.111 9.03304 11.1556 9.05147 11.1996 9.07057C11.2138 9.07676 11.223 9.09344 11.2354 9.10434C11.2392 9.10757 11.2458 9.10771 11.2555 9.1104C11.2522 9.12318 11.25 9.13932 11.2443 9.15439C11.2169 9.22758 11.1889 9.30036 11.1606 9.37328C11.1115 9.50028 11.0621 9.62715 11.0126 9.75402C10.9923 9.80595 10.9712 9.85762 10.9517 9.90995C10.9459 9.92542 10.9362 9.93026 10.9195 9.9304C10.9136 9.92085 10.9072 9.91062 10.9008 9.90026C10.8278 9.77891 10.7219 9.70774 10.5796 9.69792C10.5186 9.69375 10.4598 9.70868 10.4053 9.73895C10.3265 9.78281 10.2635 9.84376 10.2097 9.91506C10.1506 9.99323 10.1065 10.0801 10.0687 10.1697C10.0236 10.2767 9.98329 10.3857 9.94091 10.4937C9.90377 10.5883 9.86637 10.6826 9.82964 10.7773C9.78996 10.8793 9.75107 10.9815 9.71152 11.0835C9.67479 11.1782 9.63753 11.2727 9.60107 11.3674C9.57497 11.4351 9.55061 11.5034 9.52411 11.5708C9.51375 11.5973 9.49922 11.6222 9.48711 11.648C9.48106 11.6609 9.4711 11.6658 9.45752 11.6653C9.44971 11.665 9.44177 11.6654 9.43397 11.6654C9.17526 11.6654 8.91654 11.6654 8.65783 11.6654C8.64558 11.6654 8.63307 11.6658 8.62096 11.664C8.5989 11.6607 8.59029 11.6482 8.595 11.6262C8.59823 11.611 8.60307 11.5961 8.60859 11.5814C8.6433 11.4897 8.67787 11.3978 8.71353 11.3063C8.76209 11.1815 8.81187 11.0571 8.86044 10.9324C8.88762 10.8627 8.91318 10.7924 8.94009 10.7227C8.96457 10.6593 8.99027 10.5962 9.01502 10.533C9.05256 10.4375 9.08969 10.3418 9.12709 10.2463C9.16422 10.1518 9.20163 10.0574 9.23862 9.96296C9.2728 9.87564 9.30643 9.78819 9.34033 9.70088C9.36859 9.62809 9.39697 9.55531 9.42536 9.48253C9.46935 9.37032 9.51321 9.25825 9.55748 9.14618C9.5673 9.12143 9.57819 9.09694 9.58869 9.07246L9.58896 9.07205Z" fill="white"/>
<path d="M11.3534 11.6606C11.3406 11.6618 11.3263 11.6642 11.3121 11.6642C11.0491 11.6645 10.7859 11.6643 10.5229 11.6643C10.5206 11.6643 10.5184 11.6643 10.5162 11.6643C10.4719 11.6646 10.4599 11.6545 10.4749 11.6058C10.4907 11.5537 10.5135 11.5036 10.5332 11.4527C10.553 11.4017 10.5724 11.3506 10.5923 11.2997C10.6191 11.2313 10.6464 11.1629 10.673 11.0944C10.6896 11.0518 10.7055 11.0089 10.7219 10.9662C10.7488 10.8965 10.7762 10.8271 10.8031 10.7574C10.8408 10.6596 10.8781 10.5617 10.916 10.464C10.9402 10.4017 10.9658 10.3398 10.9901 10.2775C11.0282 10.1799 11.0655 10.0819 11.1034 9.98424C11.128 9.92087 11.1533 9.85777 11.1782 9.79441C11.2152 9.69996 11.2517 9.60538 11.2888 9.51094C11.3115 9.45295 11.3351 9.3951 11.3582 9.33725C11.3773 9.28962 11.3963 9.24213 11.415 9.19531C11.4898 9.19814 11.5575 9.22585 11.6273 9.24765C11.7028 9.27133 11.7815 9.28491 11.8592 9.30039C11.9626 9.32097 12.0676 9.32649 12.1723 9.33415C12.1948 9.33577 12.2175 9.33725 12.2292 9.35985C12.2368 9.35703 12.2417 9.35514 12.2474 9.35312C12.2489 9.35716 12.2509 9.35999 12.2509 9.36295C12.2511 9.399 12.2316 9.42914 12.2197 9.46102C12.1781 9.57175 12.1337 9.68139 12.0906 9.79145C12.055 9.88293 12.0196 9.97442 11.9841 10.066C11.9478 10.1597 11.9116 10.2533 11.8751 10.3468C11.8385 10.4403 11.8014 10.5336 11.7649 10.6271C11.739 10.6935 11.7139 10.7604 11.6881 10.827C11.6611 10.8967 11.6335 10.9661 11.6063 11.0358C11.5809 11.1013 11.5559 11.167 11.5303 11.2325C11.4925 11.3291 11.4544 11.4255 11.4166 11.5221C11.4085 11.5428 11.4019 11.5644 11.3927 11.5846C11.3812 11.6094 11.3676 11.6334 11.3534 11.6607V11.6606Z" fill="white"/>
<path d="M12.1144 7.97359C12.1346 7.97359 12.1547 7.97211 12.1748 7.974C12.1909 7.97548 12.2068 7.98086 12.2228 7.98476C12.2314 7.98691 12.2398 7.98974 12.2484 7.99203C12.27 7.99768 12.2929 8.00023 12.3131 8.00911C12.3689 8.0336 12.4234 8.06024 12.4748 8.09454C12.5214 8.12549 12.5632 8.15966 12.5947 8.20473C12.6633 8.30321 12.7124 8.40922 12.7132 8.53273C12.7136 8.59542 12.7132 8.65745 12.6956 8.71853C12.6617 8.83638 12.5955 8.93244 12.4994 9.00751C12.3602 9.11635 12.2006 9.15738 12.0265 9.13586C11.8528 9.11447 11.7109 9.0328 11.6061 8.89221C11.5395 8.80301 11.5077 8.70023 11.5012 8.58937C11.4952 8.48927 11.5118 8.39254 11.5565 8.30321C11.6037 8.2089 11.6718 8.131 11.7623 8.07396C11.8273 8.03292 11.8974 8.00346 11.9714 7.9857C12.0175 7.97467 12.0662 7.974 12.1138 7.96875L12.1144 7.97346V7.97359Z" fill="white"/>
<path d="M9.18564 17.982C9.19533 17.968 9.21013 17.9578 9.22977 17.9513C9.24941 17.9449 9.27551 17.9431 9.3078 17.946C9.35839 17.9504 9.39606 17.9632 9.42068 17.9846C9.4453 18.0058 9.45902 18.0372 9.46185 18.0785L9.62625 18.0929C9.62639 18.0504 9.62006 18.0127 9.60701 17.9797C9.59396 17.9468 9.57472 17.9188 9.54903 17.896C9.52346 17.8733 9.49212 17.8551 9.45512 17.8416C9.41812 17.8281 9.37534 17.8191 9.32691 17.8149C9.2595 17.809 9.20246 17.814 9.15577 17.8296C9.10909 17.8453 9.07277 17.8699 9.0468 17.9034C9.02083 17.9369 9.00577 17.9772 9.00173 18.0243C8.99608 18.0888 9.01048 18.1406 9.04492 18.1794C9.07936 18.2181 9.13802 18.2493 9.22089 18.2729L9.32233 18.3019C9.34789 18.3091 9.36794 18.3173 9.38234 18.3263C9.39673 18.3353 9.40682 18.3458 9.41247 18.3576C9.41812 18.3695 9.42027 18.3837 9.41879 18.4007C9.41731 18.4175 9.4114 18.432 9.40117 18.4443C9.39095 18.4565 9.37574 18.4654 9.35583 18.4711C9.33592 18.4767 9.31009 18.4782 9.27847 18.4754C9.24834 18.4727 9.22439 18.4669 9.20676 18.4579C9.18914 18.4489 9.17569 18.4363 9.16654 18.4203C9.15725 18.4043 9.15053 18.3844 9.14622 18.3607L8.98438 18.3667C8.98599 18.3972 8.99245 18.4263 9.00375 18.4538C9.01518 18.4814 9.032 18.5056 9.0542 18.5268C9.0764 18.5479 9.10479 18.5652 9.13936 18.5788C9.17394 18.5924 9.21537 18.6014 9.26394 18.6056C9.32368 18.6108 9.37682 18.6068 9.42323 18.5936C9.46965 18.5803 9.50692 18.558 9.53477 18.5265C9.56261 18.495 9.57876 18.4546 9.58306 18.4054C9.58697 18.3611 9.58105 18.3235 9.56544 18.2924C9.54983 18.2613 9.52481 18.2352 9.4905 18.2141C9.4562 18.1931 9.41328 18.1753 9.36135 18.1608L9.26394 18.1331C9.2369 18.1265 9.21632 18.1179 9.20192 18.1075C9.18766 18.097 9.17824 18.0855 9.17367 18.0727C9.16909 18.0599 9.16748 18.0462 9.16883 18.0314C9.17044 18.0124 9.17622 17.9959 9.18591 17.9819L9.18564 17.982Z" fill="white"/>
<path d="M8.71524 18.0179L8.60492 17.9981C8.55218 17.9887 8.5063 17.9865 8.46742 17.9918C8.42854 17.997 8.39571 18.0083 8.36894 18.0258C8.34217 18.0432 8.32091 18.0663 8.30503 18.095C8.28916 18.1236 8.27786 18.1567 8.27113 18.1943C8.26454 18.2311 8.26387 18.2649 8.26911 18.296C8.27436 18.327 8.28647 18.3549 8.30571 18.3799C8.32495 18.4048 8.35185 18.4263 8.38656 18.4444C8.42127 18.4624 8.4654 18.4761 8.51881 18.4857L8.78641 18.5334L8.9192 17.79L8.76098 17.7617L8.71524 18.0179ZM8.47738 18.3365C8.46042 18.3292 8.44751 18.32 8.43876 18.3092C8.43002 18.2983 8.4245 18.2855 8.42249 18.2708C8.42047 18.2561 8.42114 18.2391 8.42464 18.2197C8.42894 18.1953 8.43675 18.1753 8.44778 18.1593C8.45881 18.1434 8.47509 18.1328 8.49635 18.1277C8.51774 18.1225 8.54599 18.1231 8.58151 18.1294L8.69183 18.1491L8.6516 18.374L8.54222 18.3545C8.51585 18.3498 8.49419 18.3437 8.47724 18.3365H8.47738Z" fill="white"/>
<path d="M8.04041 17.896L7.93022 17.8658C7.92 17.863 7.9091 17.8604 7.89726 17.8579C7.89713 17.8579 7.89686 17.8579 7.89672 17.8579L7.84331 17.5538L7.67501 17.5078L7.74389 17.853C7.72815 17.8564 7.71335 17.8607 7.69976 17.8666C7.66747 17.8805 7.64083 17.9005 7.61971 17.927C7.59859 17.9534 7.58285 17.9857 7.57249 18.0238C7.56361 18.0565 7.56065 18.0874 7.56361 18.1167C7.56657 18.1461 7.57639 18.1738 7.59294 18.1999C7.60962 18.226 7.63424 18.2495 7.6668 18.2705C7.69949 18.2915 7.7416 18.309 7.79326 18.3231L8.06772 18.398L8.2667 17.6695L8.1136 17.6277L8.04027 17.8961L8.04041 17.896ZM7.75909 18.1672C7.74147 18.154 7.73057 18.1385 7.72627 18.1209C7.72196 18.1033 7.7229 18.0832 7.72896 18.0608C7.73528 18.0376 7.74456 18.0189 7.75681 18.0048C7.76905 17.9907 7.78587 17.9819 7.80726 17.9786C7.82865 17.9752 7.85596 17.9782 7.88932 17.9873L8.00664 18.0193L7.94865 18.2315L7.83739 18.2011C7.80268 18.1917 7.77658 18.1802 7.75896 18.167L7.75909 18.1672Z" fill="white"/>
<path d="M7.44973 17.4191L7.20312 18.1328L7.36004 18.187L7.60664 17.4733L7.44973 17.4191Z" fill="white"/>
<path d="M6.99764 17.2422L6.7618 17.8051L6.54815 17.7155L6.49219 17.8492L7.07258 18.0925L7.12855 17.9587L6.91598 17.8697L7.15182 17.3068L6.99764 17.2422Z" fill="white"/>
<path d="M6.245 16.875L6.16778 16.9861L6.50506 17.1628L6.41963 17.3258L6.11989 17.1688L6.05746 17.2878L6.35734 17.4448L6.27931 17.5938L5.96073 17.427L5.89844 17.5459L6.36232 17.7889L6.71266 17.1199L6.245 16.875Z" fill="white"/>
<path d="M5.93754 17.1783C5.93983 17.1386 5.93149 17.1014 5.91252 17.0666C5.89355 17.0319 5.86516 17.0027 5.82749 16.9792C5.79036 16.9561 5.75201 16.9435 5.71246 16.9417C5.67291 16.9398 5.6355 16.9485 5.60025 16.9676C5.56501 16.9867 5.53487 17.0163 5.50985 17.0564C5.48482 17.0965 5.47123 17.1362 5.46908 17.1756C5.46693 17.215 5.47527 17.252 5.49397 17.2865C5.51267 17.3211 5.54146 17.3505 5.58034 17.3747C5.61748 17.3979 5.65568 17.4103 5.69483 17.412C5.73412 17.4136 5.77125 17.405 5.80637 17.3862C5.84148 17.3673 5.87148 17.3379 5.89651 17.2978C5.92153 17.2577 5.93525 17.2179 5.93754 17.1782V17.1783ZM5.84363 17.2649C5.82386 17.2967 5.80139 17.32 5.77623 17.335C5.75107 17.3501 5.72443 17.357 5.69618 17.3555C5.66793 17.3541 5.63954 17.3445 5.61075 17.3266C5.56824 17.3001 5.5424 17.2659 5.53326 17.2239C5.52411 17.1821 5.5342 17.1374 5.56366 17.0902C5.58344 17.0584 5.60591 17.0352 5.63106 17.0201C5.65622 17.005 5.683 16.998 5.71138 16.9992C5.73977 17.0003 5.76829 17.0099 5.79708 17.0278C5.84013 17.0547 5.8661 17.0891 5.87471 17.1311C5.88346 17.1731 5.87296 17.2177 5.8435 17.2649H5.84363Z" fill="white"/>
<path d="M5.75251 17.1615L5.72413 17.1439L5.73368 17.0638L5.67529 17.0273L5.66601 17.1257C5.65605 17.1253 5.64704 17.1268 5.63896 17.1305C5.62672 17.1362 5.61596 17.1465 5.60654 17.1615C5.59914 17.1735 5.59484 17.1856 5.5939 17.1978C5.59295 17.21 5.59659 17.2226 5.60479 17.2352C5.61313 17.2478 5.62713 17.2604 5.6469 17.2727L5.72588 17.322L5.844 17.1327L5.79113 17.0996L5.75251 17.1615ZM5.65619 17.211C5.65457 17.2049 5.65578 17.1986 5.65982 17.192C5.66359 17.1861 5.66856 17.1821 5.67475 17.1802C5.68094 17.1783 5.69009 17.181 5.70206 17.1885L5.72628 17.2036L5.69991 17.2457L5.67838 17.2322C5.6652 17.224 5.6578 17.2169 5.65619 17.2109V17.211Z" fill="white"/>
<path d="M5.4715 16.6829L5.60604 16.782C5.62595 16.7503 5.64115 16.7195 5.65178 16.6896C5.66241 16.6597 5.66779 16.6311 5.66792 16.6036C5.66792 16.5762 5.66295 16.5494 5.65272 16.5235C5.6425 16.4975 5.6277 16.4727 5.60819 16.4492C5.58868 16.4256 5.5642 16.403 5.53473 16.3813C5.46154 16.3273 5.3901 16.3051 5.32041 16.3147C5.25072 16.3242 5.1879 16.367 5.13179 16.443L4.84375 16.8338L4.97829 16.933L5.267 16.5414C5.29418 16.5045 5.3227 16.4815 5.35257 16.4725C5.38244 16.4635 5.41499 16.4718 5.45024 16.4978C5.46787 16.5107 5.48092 16.5243 5.48926 16.5384C5.49773 16.5525 5.50244 16.5672 5.50352 16.5824C5.5046 16.5976 5.50231 16.6137 5.49679 16.6307C5.49128 16.6476 5.4828 16.6651 5.47137 16.6829H5.4715Z" fill="white"/>
<path d="M4.95604 16.4464C4.98954 16.4091 5.01617 16.3712 5.03608 16.3327C5.056 16.2942 5.06891 16.2563 5.07497 16.219C5.08089 16.1818 5.08008 16.145 5.07241 16.1087C5.06474 16.0724 5.05061 16.0377 5.03016 16.0046C5.00972 15.9715 4.98294 15.9401 4.94985 15.9104C4.90787 15.8727 4.86428 15.8456 4.81921 15.8287C4.77414 15.8119 4.7284 15.8056 4.68185 15.8099C4.63543 15.8141 4.58929 15.8291 4.54341 15.8548C4.49767 15.8805 4.45354 15.917 4.41116 15.9642C4.37766 16.0015 4.35116 16.0392 4.33151 16.0775C4.31187 16.1157 4.29909 16.1535 4.29304 16.1908C4.28712 16.228 4.28779 16.2646 4.29519 16.3007C4.30259 16.3367 4.31658 16.3713 4.33717 16.4044C4.35761 16.4375 4.38439 16.4689 4.41748 16.4986C4.45892 16.5359 4.50238 16.5629 4.54772 16.58C4.59305 16.5971 4.63893 16.6034 4.68548 16.5992C4.7319 16.5949 4.77804 16.5803 4.82392 16.5551C4.8698 16.5299 4.91393 16.4938 4.9563 16.4465L4.95604 16.4464ZM4.90841 16.1947C4.90236 16.2167 4.8924 16.2392 4.87841 16.2622C4.86442 16.2852 4.84679 16.3085 4.82567 16.332C4.7993 16.3614 4.7728 16.3852 4.74602 16.4033C4.71925 16.4215 4.69261 16.4333 4.66597 16.4387C4.63934 16.4441 4.61337 16.4432 4.58835 16.4358C4.56319 16.4284 4.53884 16.4141 4.51529 16.3929C4.49646 16.3759 4.48179 16.3581 4.47157 16.3394C4.46134 16.3207 4.45542 16.301 4.45381 16.2801C4.45219 16.2593 4.45421 16.2376 4.46 16.2154C4.46578 16.1931 4.47574 16.1705 4.48973 16.1475C4.50372 16.1244 4.52135 16.1012 4.54247 16.0776C4.56884 16.0483 4.59561 16.0246 4.62252 16.0066C4.64956 15.9887 4.67606 15.977 4.7023 15.9716C4.72853 15.9662 4.75423 15.967 4.77952 15.9742C4.80482 15.9813 4.8293 15.9954 4.85298 16.0167C4.87182 16.0336 4.88661 16.0515 4.89711 16.0705C4.9076 16.0895 4.91366 16.1092 4.91527 16.1302C4.91689 16.1511 4.91473 16.1726 4.90868 16.1947H4.90841Z" fill="white"/>
<path d="M4.47606 15.48L4.2904 15.6492L4.14968 15.6497L4.27291 15.2571L4.149 15.1211L3.98769 15.6462L3.60938 15.6501L3.73046 15.783L4.14981 15.7772L3.91787 15.9886L4.03034 16.1122L4.58854 15.6035L4.47606 15.48Z" fill="white"/>
<path d="M3.794 14.6445L3.67682 14.7125L3.90728 15.0155L3.76077 15.1268L3.55587 14.8575L3.44891 14.9388L3.65381 15.2082L3.51995 15.31L3.30227 15.0238L3.19531 15.1051L3.51228 15.5218L4.11339 15.0647L3.794 14.6445Z" fill="white"/>
<path d="M3.51534 14.2208L2.875 14.6211L2.963 14.7619L3.60334 14.3616L3.51534 14.2208Z" fill="white"/>
<path d="M3.36922 13.9724L2.93252 14.2048L3.22016 13.6923L3.15114 13.5625L2.48438 13.9173L2.55797 14.0554L2.99548 13.8227L2.70596 14.3337L2.77605 14.4654L3.44268 14.1106L3.36922 13.9724Z" fill="white"/>
<path d="M2.96885 13.1341L2.79234 13.1396L2.69251 12.8741L2.8292 12.7629L2.76853 12.6016L2.15625 13.119L2.22554 13.3032L3.02765 13.2907L2.96885 13.1342V13.1341ZM2.65256 13.1495L2.32859 13.1635L2.58125 12.9597L2.65269 13.1495H2.65256Z" fill="white"/>
<path d="M2.62444 12.0198C2.60924 11.956 2.58785 11.9059 2.56027 11.8697C2.53282 11.8336 2.50054 11.8097 2.46381 11.7982C2.42694 11.7867 2.38726 11.7861 2.34474 11.7962C2.31528 11.8032 2.28958 11.8149 2.26765 11.8309C2.24572 11.847 2.2285 11.8685 2.21572 11.8954C2.20738 11.9131 2.20173 11.9339 2.19796 11.9573C2.17617 11.9318 2.15303 11.9137 2.12841 11.9038C2.09423 11.8898 2.05724 11.8876 2.01755 11.8972C1.97921 11.9063 1.94786 11.9228 1.92378 11.9463C1.89969 11.9698 1.88436 12.0021 1.8779 12.0432C1.87144 12.0842 1.87575 12.1367 1.89108 12.2004L1.96104 12.4925L2.69548 12.3168L2.62431 12.0195L2.62444 12.0198ZM2.29631 12.0303C2.2994 12.0095 2.30734 11.9931 2.32039 11.981C2.33344 11.9688 2.3512 11.96 2.37394 11.9546C2.39587 11.9494 2.41537 11.9489 2.43233 11.9532C2.44928 11.9575 2.46381 11.9682 2.47605 11.9857C2.48816 12.0031 2.49825 12.0286 2.50632 12.0623L2.53807 12.1949L2.33546 12.2434L2.30304 12.1076C2.29564 12.0768 2.29348 12.051 2.29644 12.0304L2.29631 12.0303ZM2.00894 12.118C2.01055 12.0987 2.01647 12.0835 2.02683 12.0724C2.03719 12.0612 2.05266 12.0531 2.07325 12.0481C2.09316 12.0434 2.11051 12.0434 2.12545 12.0481C2.14038 12.0529 2.15316 12.0629 2.16366 12.0781C2.17415 12.0933 2.18276 12.1147 2.18935 12.1422L2.22016 12.2708L2.04634 12.3124L2.01755 12.192C2.01028 12.1618 2.00746 12.1371 2.00907 12.1178L2.00894 12.118Z" fill="white"/>
<path d="M2.16831 11.7262C2.21795 11.7194 2.26275 11.7077 2.30284 11.6912C2.34294 11.6746 2.37724 11.6542 2.4059 11.6296C2.43456 11.6049 2.4577 11.5764 2.47532 11.5437C2.49295 11.511 2.50465 11.4755 2.5103 11.437C2.51609 11.3986 2.51595 11.3573 2.5099 11.3133C2.50223 11.2574 2.48662 11.2085 2.46308 11.1665C2.43953 11.1245 2.40873 11.0901 2.37052 11.0633C2.33231 11.0365 2.28751 11.0181 2.23585 11.0081C2.18432 10.998 2.12714 10.9974 2.06418 11.006C2.01453 11.0127 1.96987 11.0244 1.93018 11.0408C1.89049 11.0574 1.85618 11.0778 1.82753 11.1024C1.79887 11.1271 1.77573 11.1554 1.7581 11.1877C1.74048 11.22 1.72878 11.2554 1.72299 11.294C1.71721 11.3325 1.71734 11.3738 1.72339 11.4178C1.73093 11.473 1.74653 11.5218 1.77008 11.564C1.79362 11.6064 1.82457 11.6409 1.86277 11.6678C1.90098 11.6945 1.94565 11.7131 1.99691 11.7236C2.04817 11.7341 2.10521 11.7349 2.16804 11.7263L2.16831 11.7262ZM1.89439 11.4802C1.87999 11.4583 1.87071 11.4317 1.86641 11.4003C1.86291 11.3751 1.86345 11.3521 1.86762 11.3313C1.87192 11.3104 1.88013 11.2915 1.89237 11.2745C1.90462 11.2576 1.92022 11.2424 1.93906 11.2292C1.95789 11.2159 1.98009 11.2051 2.00552 11.1966C2.03108 11.1881 2.05947 11.1818 2.09095 11.1775C2.1301 11.1721 2.16575 11.1713 2.19791 11.1751C2.23006 11.1789 2.25791 11.1872 2.28132 11.2C2.30473 11.2128 2.32383 11.2301 2.33863 11.2519C2.35343 11.2737 2.36285 11.3003 2.36715 11.3318C2.37065 11.357 2.37025 11.3801 2.36594 11.4014C2.36177 11.4226 2.35357 11.4417 2.34119 11.4587C2.32894 11.4756 2.31334 11.4906 2.2945 11.5035C2.27567 11.5164 2.25347 11.5272 2.22791 11.5355C2.20235 11.544 2.17396 11.5503 2.14248 11.5548C2.10333 11.5601 2.06767 11.5611 2.03552 11.5577C2.00337 11.5542 1.97538 11.546 1.95157 11.533C1.92776 11.5199 1.90865 11.5024 1.89426 11.4805L1.89439 11.4802Z" fill="white"/>
<path d="M1.81864 10.7265L2.42836 10.6996L2.42096 10.5326L1.81124 10.5595L1.80101 10.3281L1.65625 10.3346L1.6841 10.9633L1.82886 10.957L1.81864 10.7265Z" fill="white"/>
<path d="M1.81124 9.99467L2.42082 10.0214L2.42822 9.85448L1.8185 9.82771L1.82873 9.5963L1.68396 9.58984L1.65625 10.2187L1.80101 10.225L1.81124 9.99467Z" fill="white"/>
<path d="M2.51573 9.044L2.37433 9.00781L2.32953 9.36043L1.72411 9.28334L1.70312 9.44815L2.45223 9.5434L2.51573 9.044Z" fill="white"/>
<path d="M2.64486 8.42924L2.51692 8.38497L2.43821 8.75751L2.25807 8.71943L2.32803 8.38834L2.19658 8.36062L2.12676 8.69172L1.96209 8.65701L2.03649 8.30506L1.90504 8.27734L1.79688 8.78953L2.53575 8.94572L2.64486 8.42924Z" fill="white"/>
<path d="M3.35044 5.58855C3.38582 5.61546 3.4208 5.63066 3.45537 5.63403C3.49009 5.63739 3.52547 5.63026 3.56152 5.61264C3.59758 5.59501 3.63565 5.56811 3.67561 5.53205L3.75109 5.46451C3.77113 5.44527 3.78943 5.43236 3.80584 5.42577C3.82239 5.41931 3.83719 5.41756 3.85038 5.42052C3.86356 5.42348 3.87607 5.42953 3.88791 5.43855C3.90298 5.45012 3.91388 5.4637 3.9206 5.47945C3.9272 5.49519 3.928 5.51308 3.92289 5.53313C3.91778 5.55317 3.9054 5.57618 3.88576 5.60187C3.85495 5.64224 3.82401 5.66712 3.79279 5.67668C3.76158 5.68623 3.72781 5.68098 3.69149 5.6612L3.59139 5.79238C3.62718 5.81525 3.66243 5.82991 3.69727 5.83664C3.73212 5.84323 3.76602 5.84189 3.79898 5.83234C3.83194 5.82292 3.86396 5.8061 3.89518 5.78202C3.92639 5.75794 3.95679 5.72659 3.98626 5.68784C4.02729 5.63403 4.05366 5.58317 4.06537 5.53528C4.07707 5.48738 4.07572 5.44352 4.06119 5.40384C4.0468 5.36401 4.02083 5.32984 3.98316 5.30118C3.93164 5.2619 3.88024 5.24643 3.82898 5.25477C3.77786 5.26324 3.72014 5.29607 3.65583 5.35352L3.577 5.42375C3.55722 5.44151 3.53973 5.45402 3.52439 5.46142C3.50905 5.46882 3.49479 5.47164 3.48174 5.47016C3.46869 5.46868 3.45551 5.46276 3.44206 5.45254C3.4286 5.44231 3.41945 5.42953 3.41461 5.41433C3.40977 5.39913 3.4103 5.38164 3.41622 5.36173C3.42214 5.34181 3.43466 5.31921 3.45389 5.29405C3.47233 5.26997 3.48995 5.25288 3.50704 5.24279C3.52399 5.2327 3.54175 5.228 3.56018 5.2288C3.57861 5.22961 3.59906 5.23445 3.62139 5.2436L3.70292 5.10355C3.67628 5.08848 3.64817 5.07839 3.61884 5.07341C3.58951 5.0683 3.55991 5.06951 3.53031 5.07704C3.50058 5.08458 3.47085 5.09924 3.44084 5.12117C3.41084 5.1431 3.38111 5.17337 3.35151 5.21199C3.31519 5.25961 3.29016 5.3067 3.27658 5.35298C3.26299 5.3994 3.26205 5.44272 3.27375 5.48321C3.28545 5.52371 3.31102 5.55882 3.35017 5.58882L3.35044 5.58855Z" fill="white"/>
<path d="M4.33002 5.23949L4.1379 5.06392L4.21351 4.98118C4.2497 4.94163 4.27594 4.90396 4.29222 4.86831C4.30863 4.83265 4.31657 4.79889 4.31616 4.76687C4.31576 4.73498 4.30769 4.70458 4.29181 4.67592C4.27607 4.64713 4.25414 4.61995 4.22602 4.59426C4.19844 4.5691 4.17019 4.5504 4.14113 4.53815C4.11207 4.52605 4.08193 4.52134 4.05072 4.5243C4.01937 4.52726 3.98682 4.53856 3.95305 4.5582C3.91928 4.57798 3.88403 4.60784 3.84744 4.64794L3.66406 4.84853L4.22158 5.35802L4.33002 5.23936V5.23949ZM3.94578 4.73794C3.96381 4.71816 3.98049 4.7031 3.99583 4.6926C4.01103 4.68224 4.0257 4.67619 4.03956 4.67457C4.05341 4.67296 4.06714 4.67525 4.08072 4.6813C4.09418 4.68749 4.1083 4.69718 4.12283 4.7105C4.141 4.72718 4.15391 4.7444 4.16145 4.76229C4.16898 4.78019 4.16925 4.79956 4.16212 4.82028C4.15512 4.841 4.13938 4.86467 4.11516 4.89131L4.03956 4.97405L3.87085 4.81987L3.94578 4.73794Z" fill="white"/>
<path d="M4.79895 4.76137L4.611 4.5562L4.69522 4.47911C4.70303 4.47198 4.7111 4.46404 4.71944 4.45543C4.71958 4.45529 4.71971 4.45516 4.71984 4.45502L5.0056 4.57207L5.13435 4.45422L4.80581 4.32843C4.81133 4.31322 4.81537 4.29842 4.81765 4.28389C4.82317 4.24918 4.82034 4.21595 4.80931 4.18393C4.79828 4.15205 4.77931 4.12151 4.75267 4.09231C4.7298 4.06742 4.70518 4.04832 4.67881 4.03513C4.65244 4.02195 4.62378 4.01549 4.59284 4.01563C4.5619 4.01576 4.5288 4.0241 4.49369 4.04052C4.45857 4.05693 4.42117 4.0833 4.38162 4.11949L4.17188 4.31161L4.6819 4.86846L4.79895 4.76137ZM4.461 4.22174C4.4875 4.19739 4.51104 4.18138 4.53163 4.17357C4.55221 4.16577 4.57105 4.16469 4.58827 4.17048C4.60549 4.17626 4.6219 4.1877 4.63764 4.20479C4.65379 4.22241 4.66468 4.2403 4.67007 4.2582C4.67545 4.27623 4.67397 4.29506 4.66536 4.31484C4.65675 4.33475 4.63966 4.35627 4.61423 4.37955L4.5245 4.46175L4.37583 4.2995L4.46086 4.2216L4.461 4.22174Z" fill="white"/>
<path d="M4.84823 3.7164L4.71875 3.82031L5.19142 4.40925L5.3209 4.30533L4.84823 3.7164Z" fill="white"/>
<path d="M5.22516 3.61744L5.57617 4.11671L5.71286 4.02052L5.36185 3.52138L5.55128 3.38806L5.468 3.26953L4.95312 3.63157L5.03654 3.7501L5.22516 3.61744Z" fill="white"/>
<path d="M6.43003 3.58004L6.37702 3.45546L6.04808 3.64717L5.95539 3.48829L6.24773 3.31769L6.18006 3.20172L5.88771 3.37218L5.80309 3.22688L6.11374 3.04579L6.04606 2.92969L5.59375 3.19338L5.97409 3.84588L6.43003 3.58004Z" fill="white"/>
<path d="M6.4819 3.07355L6.45002 3.0079L6.48002 2.99337L6.54271 3.04409L6.6046 3.01409L6.52616 2.95382C6.53181 2.94561 6.53531 2.93713 6.53652 2.92839C6.53827 2.91507 6.53531 2.9004 6.52751 2.88453C6.52132 2.87188 6.51338 2.86179 6.50343 2.85439C6.49361 2.84699 6.48109 2.8435 6.46589 2.84376C6.45069 2.84403 6.43266 2.84928 6.41181 2.85951L6.32812 2.90014L6.42566 3.10086L6.48177 3.07355H6.4819ZM6.42943 2.9074C6.44342 2.90067 6.45338 2.89812 6.4593 2.9C6.46522 2.90175 6.46993 2.90619 6.47329 2.91319C6.47638 2.91951 6.47706 2.92583 6.47544 2.93216C6.47383 2.93848 6.46656 2.94467 6.45392 2.95086L6.42822 2.96337L6.40656 2.9187L6.42943 2.90767V2.9074Z" fill="white"/>
<path d="M6.32577 3.16034C6.35819 3.18348 6.39411 3.19612 6.43367 3.19854C6.47322 3.20097 6.51291 3.19235 6.55287 3.17298C6.59215 3.15388 6.62309 3.12805 6.6457 3.09549C6.6683 3.06293 6.68081 3.02661 6.68337 2.98665C6.68592 2.94669 6.67677 2.90539 6.65619 2.86287C6.63561 2.82036 6.6091 2.7878 6.57695 2.76493C6.54479 2.74219 6.50901 2.72955 6.46972 2.72699C6.43044 2.72444 6.39021 2.73331 6.34904 2.75323C6.30976 2.77233 6.27895 2.79803 6.25662 2.83045C6.23428 2.86287 6.2219 2.89893 6.21921 2.93862C6.21652 2.97831 6.22554 3.01948 6.24612 3.06185C6.26671 3.10437 6.29321 3.13719 6.32563 3.1602L6.32577 3.16034ZM6.30411 2.86153C6.32025 2.83839 6.34366 2.81942 6.37407 2.80462C6.41914 2.78269 6.46178 2.77906 6.50215 2.79359C6.54251 2.80812 6.5748 2.84041 6.59915 2.89045C6.61543 2.92409 6.62336 2.95557 6.62269 2.9849C6.62202 3.01423 6.61368 3.0406 6.59767 3.06414C6.58166 3.08769 6.55838 3.10679 6.52798 3.12145C6.48237 3.14365 6.43932 3.14729 6.39922 3.13222C6.359 3.11728 6.32671 3.08473 6.30249 3.03454C6.28621 3.00091 6.27828 2.96943 6.27895 2.9401C6.27962 2.91077 6.28796 2.88453 6.30424 2.86139L6.30411 2.86153Z" fill="white"/>
<path d="M6.96201 3.23043C6.98528 3.24523 7.01058 3.25505 7.03789 3.2603C7.06533 3.26541 7.09412 3.26608 7.12439 3.26204C7.15467 3.25801 7.18682 3.2494 7.22099 3.23608C7.30562 3.20285 7.36252 3.15415 7.39145 3.09011C7.42051 3.02607 7.41768 2.95005 7.38311 2.86207L7.20552 2.41016L7.05 2.47124L7.22785 2.92409C7.24467 2.96674 7.24884 3.0032 7.24063 3.03333C7.23243 3.06347 7.20794 3.08647 7.16718 3.10248C7.14686 3.11042 7.12843 3.11432 7.11202 3.11392C7.0956 3.11352 7.08067 3.10975 7.06722 3.10248C7.05376 3.09522 7.04138 3.08486 7.02995 3.07114C7.01851 3.05741 7.00829 3.041 6.99927 3.0219L6.84375 3.08298C6.86003 3.11674 6.87806 3.14607 6.89756 3.17096C6.91721 3.19585 6.9386 3.21563 6.96187 3.23043H6.96201Z" fill="white"/>
<path d="M7.52836 2.84435C7.55029 2.88175 7.57545 2.91283 7.60384 2.93785C7.63222 2.96274 7.66371 2.98171 7.69855 2.99449C7.7334 3.00728 7.77026 3.01387 7.80914 3.01427C7.84802 3.01454 7.88892 3.00862 7.9317 2.99651C7.98592 2.98104 8.0322 2.95884 8.07055 2.92965C8.10875 2.90045 8.13849 2.86507 8.15974 2.8235C8.18087 2.78193 8.19284 2.73497 8.19553 2.6825C8.19822 2.63003 8.19096 2.57326 8.1736 2.51231C8.15988 2.46415 8.14212 2.4215 8.12032 2.3845C8.0984 2.34751 8.07337 2.31643 8.04498 2.29154C8.0166 2.26665 7.98525 2.24768 7.95081 2.23476C7.91637 2.22185 7.87964 2.21526 7.84076 2.21485C7.80188 2.21458 7.76098 2.2205 7.71819 2.23261C7.66465 2.24781 7.6185 2.27015 7.57989 2.29934C7.54128 2.32867 7.51141 2.36405 7.49029 2.40563C7.46917 2.4472 7.45692 2.49415 7.45383 2.54622C7.45073 2.59842 7.45786 2.65506 7.47508 2.71614C7.48881 2.7643 7.50657 2.80708 7.52863 2.84449L7.52836 2.84435ZM7.63613 2.47451C7.64581 2.44908 7.66034 2.42769 7.67998 2.41033C7.69963 2.39298 7.72465 2.38006 7.75519 2.37132C7.77954 2.36432 7.80241 2.36163 7.82367 2.36284C7.84493 2.36419 7.86484 2.3697 7.8834 2.37939C7.90197 2.38921 7.91906 2.4024 7.9348 2.41921C7.95054 2.43603 7.9644 2.45648 7.97637 2.48056C7.98834 2.50465 7.9987 2.53196 8.00731 2.5625C8.01808 2.60044 8.02386 2.63568 8.02467 2.66811C8.02548 2.70053 8.02117 2.72919 8.01175 2.75421C8.00234 2.77924 7.98794 2.80063 7.9683 2.81825C7.94879 2.83588 7.92377 2.84906 7.89323 2.85767C7.86874 2.86467 7.84573 2.86749 7.82421 2.86628C7.80255 2.86507 7.7825 2.85955 7.76407 2.84987C7.7455 2.84018 7.72855 2.82686 7.71308 2.80991C7.69761 2.79309 7.68389 2.77251 7.67205 2.74843C7.66007 2.72434 7.64971 2.69703 7.6411 2.66649C7.63034 2.62855 7.62442 2.59344 7.62321 2.56102C7.62213 2.52873 7.6263 2.4998 7.63599 2.47437L7.63613 2.47451Z" fill="white"/>
<path d="M8.54625 2.82741L8.50239 2.58013L8.57706 2.46079L8.84304 2.7748L9.02426 2.74265L8.66666 2.32572L8.86551 2.00391L8.68846 2.03525L8.4693 2.39285L8.41454 2.08382L8.25 2.11288L8.38171 2.8566L8.54625 2.82741Z" fill="white"/>
<path d="M9.62187 2.69347L9.62725 2.55812L9.24786 2.59082L9.23211 2.40758L9.56926 2.37838L9.55769 2.24465L9.22054 2.27371L9.20615 2.10608L9.56442 2.07527L9.55285 1.94141L9.03125 1.98634L9.0961 2.73881L9.62187 2.69347Z" fill="white"/>
<path d="M9.96538 1.93244L9.95312 2.6875L10.1191 2.69019L10.1314 1.93514L9.96538 1.93244Z" fill="white"/>
<path d="M10.7226 2.72131L10.8693 2.73207L10.9244 1.97893L10.7684 1.9675L10.732 2.46179L10.454 1.94449L10.3053 1.93359L10.25 2.68673L10.4062 2.69817L10.4424 2.20482L10.7226 2.72131Z" fill="white"/>
<path d="M11.5884 2.08594L11.1719 2.77167L11.3356 2.80517L11.4249 2.65288L11.7028 2.70965L11.7241 2.88455L11.893 2.91913L11.7811 2.12549L11.5883 2.08607L11.5884 2.08594ZM11.6516 2.24738L11.6896 2.56973L11.4909 2.5291L11.6516 2.24738Z" fill="white"/>
<path d="M12.6226 3.12399C12.6678 3.11996 12.7052 3.10543 12.7345 3.0804C12.7638 3.05538 12.7855 3.02215 12.7995 2.98071C12.8092 2.95206 12.8131 2.92407 12.8111 2.89703C12.809 2.86999 12.8 2.84375 12.784 2.8186C12.7735 2.80218 12.7593 2.78617 12.7414 2.77057C12.7745 2.76572 12.8019 2.75577 12.8234 2.74029C12.8534 2.71877 12.875 2.68877 12.8882 2.65002C12.9008 2.61262 12.9036 2.57751 12.8965 2.54454C12.8894 2.51158 12.8703 2.48145 12.8389 2.45413C12.8076 2.42682 12.7609 2.40261 12.6987 2.38148L12.4142 2.28516L12.1719 3.00049L12.4614 3.09857C12.5236 3.11955 12.5772 3.12817 12.6224 3.12413L12.6226 3.12399ZM12.65 2.92111C12.6428 2.9425 12.6328 2.95919 12.6202 2.97129C12.6075 2.9834 12.5906 2.99 12.5694 2.99094C12.5482 2.99201 12.5213 2.9869 12.4886 2.97587L12.3594 2.93214L12.4263 2.73478L12.5585 2.77958C12.5885 2.7898 12.6115 2.80164 12.6274 2.81523C12.6433 2.82882 12.6528 2.84429 12.6563 2.86192C12.6597 2.87941 12.6577 2.89918 12.6502 2.92125L12.65 2.92111ZM12.706 2.52517C12.7215 2.53674 12.7311 2.54993 12.735 2.56459C12.7389 2.57939 12.7376 2.59674 12.7307 2.61679C12.7241 2.63616 12.7149 2.65083 12.7029 2.66092C12.6909 2.67101 12.6757 2.67639 12.6572 2.6772C12.6386 2.678 12.616 2.67383 12.5893 2.66482L12.4641 2.62244L12.5214 2.45319L12.6386 2.49288C12.6679 2.50284 12.6904 2.5136 12.7059 2.52517H12.706Z" fill="white"/>
<path d="M12.9456 3.22887C12.9639 3.26116 12.9877 3.28995 13.0173 3.31538C13.0467 3.34081 13.0819 3.3626 13.1222 3.3809C13.1736 3.40417 13.2233 3.41709 13.2714 3.41951C13.3194 3.42193 13.3651 3.41413 13.408 3.3961C13.451 3.37807 13.4904 3.34982 13.5264 3.31161C13.5623 3.27327 13.5934 3.22524 13.6196 3.16752C13.6403 3.12192 13.6542 3.07792 13.6614 3.03554C13.6687 2.99316 13.6695 2.95321 13.664 2.91594C13.6585 2.87854 13.6468 2.84383 13.6287 2.81167C13.6109 2.77952 13.587 2.75073 13.5576 2.72544C13.528 2.70001 13.493 2.67821 13.4526 2.65992C13.4019 2.63691 13.3523 2.62413 13.304 2.62157C13.2555 2.61902 13.2099 2.62668 13.1669 2.64485C13.1238 2.66288 13.0843 2.69086 13.0482 2.72866C13.012 2.76647 12.981 2.81436 12.9547 2.87208C12.934 2.91769 12.92 2.96182 12.9126 3.0046C12.9052 3.04738 12.9043 3.08734 12.9098 3.12474C12.9153 3.16214 12.9271 3.19685 12.9454 3.22914L12.9456 3.22887ZM13.0843 3.02411C13.0907 2.99801 13.1004 2.97043 13.1136 2.94164C13.1299 2.90571 13.148 2.87504 13.1681 2.84961C13.1881 2.82419 13.2101 2.80495 13.2337 2.79176C13.2576 2.77858 13.2825 2.77172 13.3087 2.77118C13.3348 2.77064 13.3624 2.77696 13.3913 2.79001C13.4144 2.80051 13.4337 2.81315 13.449 2.82782C13.4643 2.84248 13.476 2.85957 13.4839 2.87908C13.4917 2.89845 13.4962 2.91971 13.4974 2.94271C13.4987 2.96572 13.496 2.9902 13.4896 3.01644C13.4832 3.04254 13.4735 3.07012 13.4603 3.09891C13.444 3.13483 13.4257 3.16551 13.4054 3.19066C13.3851 3.21596 13.3632 3.23506 13.3399 3.24811C13.3166 3.26116 13.2917 3.26816 13.2654 3.26896C13.239 3.26977 13.2114 3.26372 13.1825 3.25053C13.1594 3.24004 13.14 3.22739 13.1242 3.21246C13.1085 3.19766 13.0968 3.18044 13.0889 3.16107C13.081 3.14169 13.0766 3.12057 13.0758 3.0977C13.0749 3.07483 13.0777 3.05034 13.0841 3.02424L13.0843 3.02411Z" fill="white"/>
<path d="M13.8327 3.72406L14.135 3.19398L14.3362 3.30874L14.4079 3.18282L13.8613 2.87109L13.7896 2.99689L13.9898 3.11111L13.6875 3.64132L13.8327 3.72406Z" fill="white"/>
<path d="M14.2656 3.99775L14.4027 4.09314L14.7513 3.59212L14.9414 3.72437L15.0241 3.60544L14.5075 3.24609L14.4248 3.36502L14.6141 3.49674L14.2656 3.99775Z" fill="white"/>
<path d="M15.0444 4.59819L15.1505 4.49796L14.8766 4.27153L15.2653 3.80106L15.1374 3.69531L14.6562 4.27745L15.0444 4.59819Z" fill="white"/>
<path d="M15.4877 5.03043L15.5936 4.94594L15.3206 4.6805L15.4489 4.54852L15.6915 4.7845L15.7852 4.68817L15.5426 4.45219L15.6599 4.33164L15.9177 4.58242L16.0113 4.48609L15.636 4.12109L15.1094 4.66247L15.4877 5.03043Z" fill="white"/>
<path d="M16.9334 7.21786C16.9608 7.27974 16.9927 7.32737 17.029 7.3606C17.0653 7.39383 17.1045 7.41374 17.1463 7.4202C17.1882 7.42666 17.2307 7.42047 17.2739 7.40123C17.3332 7.37499 17.3714 7.33732 17.3888 7.28849C17.406 7.23952 17.4049 7.17319 17.3855 7.08924L17.3619 6.98632C17.3558 6.96049 17.3533 6.9391 17.3542 6.92201C17.3551 6.90506 17.3594 6.8912 17.367 6.88044C17.3745 6.86967 17.3861 6.86093 17.4016 6.85407C17.417 6.84721 17.4326 6.84532 17.4482 6.84842C17.4638 6.85151 17.479 6.86039 17.4936 6.87519C17.5082 6.88985 17.522 6.91178 17.5347 6.94084C17.547 6.96856 17.5534 6.99224 17.5541 7.01201C17.5548 7.03179 17.5504 7.04955 17.5408 7.06543C17.5312 7.0813 17.5171 7.09677 17.4984 7.11198L17.582 7.25082C17.6079 7.23467 17.6303 7.2149 17.6488 7.19162C17.6674 7.16835 17.6806 7.14184 17.6883 7.11224C17.6959 7.08265 17.6974 7.04942 17.6927 7.01255C17.688 6.97569 17.6757 6.93506 17.656 6.89053C17.6316 6.83577 17.6026 6.79124 17.5684 6.75693C17.5343 6.72262 17.4967 6.70096 17.4556 6.69182C17.4146 6.68267 17.3714 6.68805 17.3264 6.70809C17.2857 6.72612 17.2556 6.74953 17.2359 6.77819C17.2163 6.80698 17.2055 6.84142 17.2037 6.88151C17.2018 6.92174 17.207 6.96789 17.2195 7.02022L17.2424 7.11884C17.2497 7.14574 17.2522 7.16794 17.2499 7.18543C17.2476 7.20306 17.2421 7.21691 17.2331 7.227C17.2241 7.23709 17.2128 7.2453 17.1993 7.25122C17.182 7.25889 17.1648 7.26198 17.1478 7.26023C17.1309 7.25849 17.1147 7.25055 17.0997 7.23642C17.0846 7.2223 17.0703 7.20037 17.0573 7.17077C17.0367 7.12435 17.0297 7.0852 17.0364 7.05332C17.0431 7.02143 17.0639 6.99426 17.0987 6.97192L17.0318 6.82111C16.9946 6.84142 16.9647 6.86537 16.9421 6.89268C16.9195 6.91999 16.9044 6.9504 16.8969 6.9839C16.8894 7.0174 16.8886 7.05359 16.8948 7.09247C16.9008 7.13148 16.9137 7.17319 16.9335 7.21759L16.9334 7.21786Z" fill="white"/>
<path d="M17.1609 7.73484L17.4072 7.65116L17.4433 7.75731C17.4605 7.80803 17.4808 7.8492 17.5042 7.88068C17.5277 7.91216 17.5533 7.93544 17.5816 7.95051C17.6097 7.96558 17.6403 7.97297 17.6731 7.97311C17.7059 7.97311 17.7402 7.96705 17.7764 7.95481C17.8118 7.94284 17.8418 7.92696 17.8664 7.90746C17.891 7.88795 17.9096 7.86373 17.9222 7.83494C17.9348 7.80615 17.9405 7.77211 17.9396 7.73296C17.9387 7.69381 17.9294 7.64861 17.9119 7.59721L17.8244 7.33984L17.1094 7.58268L17.161 7.73498L17.1609 7.73484ZM17.7958 7.75274C17.7905 7.76565 17.7819 7.77655 17.7701 7.78543C17.7582 7.79431 17.7429 7.80198 17.7242 7.8083C17.7008 7.81624 17.6795 7.8192 17.6602 7.81718C17.6409 7.81516 17.6238 7.80601 17.609 7.78987C17.5942 7.77373 17.5811 7.74857 17.5695 7.71453L17.5334 7.60838L17.7498 7.53492L17.7854 7.64013C17.794 7.66556 17.7993 7.68735 17.801 7.70578C17.8028 7.72422 17.801 7.73982 17.7958 7.75287V7.75274Z" fill="white"/>
<path d="M17.3498 8.37083L17.6202 8.30545L17.6471 8.41644C17.6495 8.42666 17.6526 8.43756 17.6561 8.44913C17.6561 8.44927 17.6561 8.44954 17.6562 8.44967L17.4157 8.64327L17.4567 8.81292L17.7255 8.58609C17.7362 8.5982 17.7472 8.60896 17.7589 8.61798C17.7866 8.63964 17.8171 8.65322 17.8504 8.65901C17.8836 8.66466 17.9195 8.66291 17.9579 8.65363C17.9908 8.64569 18.0194 8.63331 18.0436 8.61663C18.0678 8.59995 18.0873 8.57788 18.1022 8.55071C18.117 8.52353 18.1258 8.49057 18.1283 8.45182C18.1309 8.41308 18.1259 8.36774 18.1134 8.31567L18.0465 8.03906L17.3125 8.21665L17.3498 8.37083ZM17.9935 8.42074C17.9904 8.44254 17.9822 8.45949 17.9689 8.47187C17.9556 8.48411 17.9376 8.49299 17.915 8.49851C17.8917 8.50416 17.8708 8.50496 17.8525 8.50106C17.8342 8.49716 17.8184 8.48667 17.8052 8.46958C17.792 8.45249 17.7814 8.42707 17.7732 8.39357L17.7445 8.27531L17.9583 8.22365L17.9853 8.33572C17.9938 8.3707 17.9965 8.39908 17.9934 8.42088L17.9935 8.42074Z" fill="white"/>
<path d="M18.2128 8.76183L17.4688 8.89062L17.4971 9.05421L18.2412 8.92542L18.2128 8.76183Z" fill="white"/>
<path d="M18.138 9.30332L17.5312 9.36897L17.5491 9.53512L18.1559 9.46947L18.1808 9.6998L18.3249 9.68419L18.2572 9.05859L18.1131 9.0742L18.138 9.30332Z" fill="white"/>
<path d="M17.5905 10.3734L17.7252 10.3871L17.7163 10.0065L17.9003 10.0022L17.9081 10.3406L18.0424 10.3375L18.0346 9.99912L18.2026 9.99522L18.2111 10.3547L18.3454 10.3516L18.3331 9.82812L17.5781 9.84575L17.5905 10.3734Z" fill="white"/>
<path d="M18.3339 10.5899C18.3163 10.5548 18.2907 10.5264 18.2572 10.505C18.2237 10.4835 18.1834 10.4716 18.1361 10.4692C18.0889 10.4668 18.0475 10.4742 18.0116 10.4914C17.9758 10.5086 17.9473 10.534 17.9261 10.5675C17.905 10.601 17.8933 10.6401 17.891 10.6843C17.8887 10.7279 17.8965 10.7676 17.9142 10.803C17.9318 10.8385 17.9575 10.867 17.9914 10.8884C18.0253 10.9099 18.0658 10.9219 18.113 10.9242C18.1602 10.9266 18.2015 10.9192 18.237 10.9019C18.2726 10.8846 18.3008 10.8594 18.3219 10.8263C18.3431 10.793 18.3548 10.7536 18.3571 10.7079C18.3593 10.6641 18.3515 10.6249 18.3339 10.5896V10.5899ZM18.2479 10.8228C18.2158 10.8511 18.1719 10.8639 18.1162 10.8611C18.0788 10.8592 18.0475 10.8509 18.0222 10.8362C17.9968 10.8215 17.9777 10.8015 17.9649 10.7761C17.9521 10.7506 17.9464 10.7212 17.9482 10.6873C17.9507 10.6366 17.9684 10.5973 18.0008 10.5693C18.0334 10.5413 18.0773 10.5287 18.133 10.5315C18.1703 10.5334 18.2017 10.5417 18.2271 10.5564C18.2525 10.571 18.2713 10.5911 18.2839 10.6165C18.2964 10.6418 18.3018 10.6714 18.3 10.7052C18.2975 10.7552 18.2801 10.7944 18.2479 10.8228Z" fill="white"/>
<path d="M18.007 10.6599L18.0799 10.6637L18.0782 10.6971L18.0035 10.7276L18 10.7962L18.0905 10.7565C18.0951 10.7654 18.1008 10.7727 18.1079 10.7779C18.1188 10.7859 18.1331 10.7903 18.1507 10.7913C18.1648 10.7919 18.1775 10.7898 18.1886 10.7847C18.1998 10.7795 18.2089 10.7704 18.2159 10.7569C18.2229 10.7435 18.2271 10.7252 18.2283 10.7019L18.233 10.609L18.0101 10.5977L18.0069 10.6599H18.007ZM18.1701 10.7239C18.1656 10.7282 18.1594 10.7302 18.1518 10.7298C18.1448 10.7294 18.1388 10.7269 18.1341 10.7225C18.1294 10.7181 18.1274 10.7088 18.1281 10.6947L18.1296 10.6661L18.1792 10.6687L18.1779 10.694C18.1771 10.7095 18.1745 10.7194 18.1699 10.7237L18.1701 10.7239Z" fill="white"/>
<path d="M17.6797 11.3493C17.6573 11.3275 17.6488 11.295 17.6544 11.2516C17.6573 11.2299 17.6628 11.2119 17.671 11.1978C17.6792 11.1835 17.6897 11.1722 17.7025 11.164C17.7152 11.1557 17.7305 11.1499 17.7479 11.1464C17.7654 11.1429 17.7848 11.1419 17.8059 11.1432L17.8272 10.9774C17.7898 10.9754 17.7555 10.977 17.7241 10.9822C17.6929 10.9875 17.6652 10.9966 17.6411 11.01C17.617 11.0231 17.5962 11.0406 17.5784 11.0622C17.5607 11.0837 17.5463 11.1087 17.5352 11.1371C17.5241 11.1655 17.5163 11.1979 17.5116 11.2342C17.5 11.3245 17.5152 11.3977 17.5574 11.4539C17.5997 11.5102 17.6675 11.5443 17.7613 11.5565L18.2428 11.6183L18.264 11.4526L17.7814 11.3906C17.736 11.3848 17.7021 11.3709 17.6796 11.3493H17.6797Z" fill="white"/>
<path d="M18.1096 11.8692C18.0834 11.8306 18.0482 11.7974 18.0039 11.7695C17.9596 11.7417 17.9066 11.7207 17.8447 11.7064C17.7959 11.6953 17.7499 11.6903 17.7066 11.6916C17.6632 11.6928 17.6238 11.7 17.5883 11.7129C17.5528 11.7258 17.521 11.7444 17.4931 11.7687C17.4651 11.7931 17.4415 11.8221 17.4226 11.8562C17.4036 11.8902 17.3891 11.9288 17.3792 11.9721C17.3666 12.0272 17.3639 12.0784 17.3712 12.126C17.3783 12.1737 17.3951 12.2167 17.4213 12.2553C17.4476 12.2939 17.4831 12.3269 17.5278 12.3546C17.5724 12.3822 17.6257 12.4031 17.6876 12.4173C17.7364 12.4285 17.7823 12.4333 17.8252 12.432C17.8683 12.4306 17.9074 12.4235 17.9429 12.4107C17.9785 12.3978 18.0101 12.3795 18.0381 12.3554C18.0659 12.3315 18.0895 12.3024 18.1084 12.2685C18.1274 12.2345 18.1419 12.1959 18.1517 12.1525C18.1641 12.0982 18.1668 12.0471 18.1597 11.9992C18.1526 11.9513 18.1359 11.908 18.1096 11.8695V11.8692ZM18.012 12.1181C18.0063 12.1429 17.9977 12.1642 17.9864 12.1823C17.9751 12.2003 17.9606 12.2151 17.9431 12.2267C17.9256 12.2382 17.9057 12.2469 17.8835 12.2526C17.8611 12.2584 17.8367 12.2607 17.8098 12.2596C17.7828 12.2586 17.7539 12.2545 17.7231 12.2474C17.6846 12.2385 17.651 12.2267 17.6222 12.2117C17.5934 12.1968 17.5703 12.1792 17.5529 12.159C17.5354 12.1387 17.5237 12.1158 17.5177 12.0901C17.5116 12.0644 17.5122 12.0362 17.5192 12.0052C17.5248 11.9805 17.5334 11.9589 17.5449 11.9405C17.5563 11.9221 17.5707 11.9071 17.5882 11.8957C17.6057 11.8841 17.6254 11.8757 17.6476 11.8703C17.6698 11.8649 17.6945 11.8628 17.7212 11.8638C17.7481 11.8649 17.7771 11.8689 17.8079 11.8761C17.8463 11.885 17.88 11.8965 17.9089 11.9112C17.9377 11.9257 17.961 11.9433 17.9787 11.9641C17.9964 11.9848 18.0081 12.0078 18.0138 12.0333C18.0195 12.0589 18.0188 12.0872 18.0118 12.1181H18.012Z" fill="white"/>
<path d="M17.2339 12.5918L17.4718 12.6724L17.5404 12.7952L17.1372 12.8773L17.0781 13.0517L17.6157 12.9388L17.8022 13.268L17.8599 13.0977L17.6519 12.7335L17.9493 12.8341L18.0028 12.6759L17.2876 12.4336L17.2339 12.5918Z" fill="white"/>
<path d="M16.8281 13.596L16.9441 13.6658L17.0981 13.3176L17.2664 13.392L17.1295 13.7016L17.2523 13.756L17.3893 13.4464L17.5432 13.5145L17.3976 13.8433L17.5205 13.8976L17.7323 13.4189L17.0418 13.1133L16.8281 13.596Z" fill="white"/>
<path d="M16.6746 13.8941L16.5938 14.0391L17.2533 14.4068L17.3342 14.2618L16.6746 13.8941Z" fill="white"/>
<path d="M16.4412 14.2873L16.8556 14.5577L16.2678 14.553L16.1875 14.6761L16.8198 15.089L16.9054 14.9578L16.4903 14.6869L17.0777 14.6939L17.1593 14.569L16.5268 14.1562L16.4412 14.2873Z" fill="white"/>
<path d="M15.9084 15.045L15.9985 15.1967L15.8145 15.4125L15.651 15.3467L15.5391 15.4779L16.2879 15.7637L16.4156 15.6141L16.0168 14.918L15.9084 15.0451V15.045ZM16.0748 15.3143L16.2436 15.5912L15.9431 15.4686L16.0747 15.3143H16.0748Z" fill="white"/>
<path d="M15.1037 15.8935C15.0553 15.9377 15.022 15.9807 15.0036 16.0224C14.9853 16.0639 14.9801 16.1036 14.9879 16.1414C14.9957 16.1792 15.0144 16.2142 15.0438 16.2465C15.0643 16.2688 15.0869 16.2857 15.1116 16.2971C15.1364 16.3084 15.1636 16.3131 15.1933 16.3112C15.2127 16.31 15.2335 16.3052 15.256 16.297C15.2443 16.3283 15.2399 16.3571 15.243 16.3835C15.2473 16.4201 15.2633 16.4536 15.291 16.4837C15.3176 16.5128 15.3471 16.5323 15.3794 16.5419C15.4117 16.5516 15.4473 16.5493 15.4863 16.5351C15.5253 16.5208 15.5691 16.4916 15.6175 16.4474L15.8391 16.2446L15.3292 15.6875L15.1037 15.8939V15.8935ZM15.272 16.1753C15.2525 16.1827 15.2342 16.1837 15.2173 16.1782C15.2003 16.1726 15.1839 16.1613 15.1683 16.1441C15.1531 16.1274 15.1433 16.1106 15.1387 16.0938C15.1343 16.0769 15.1367 16.0588 15.146 16.0399C15.1552 16.0207 15.1727 15.9996 15.1982 15.9764L15.2988 15.8842L15.4395 16.038L15.3365 16.1323C15.313 16.1537 15.2915 16.1681 15.272 16.1755V16.1753ZM15.5488 16.3407C15.5259 16.3617 15.5056 16.3761 15.4881 16.384C15.4705 16.3919 15.4543 16.3941 15.4395 16.3905C15.4247 16.3868 15.4102 16.3771 15.3959 16.3615C15.3821 16.3465 15.3737 16.3313 15.3706 16.3159C15.3675 16.3006 15.3701 16.2846 15.3783 16.268C15.3865 16.2513 15.401 16.2336 15.4219 16.2146L15.5194 16.1254L15.6401 16.2573L15.5489 16.3408L15.5488 16.3407Z" fill="white"/>
<path d="M15.0701 16.4337C15.0401 16.3936 15.0081 16.3601 14.9742 16.333C14.9403 16.306 14.9056 16.286 14.8702 16.2729C14.8348 16.2597 14.7985 16.2534 14.7615 16.2539C14.7243 16.2545 14.6876 16.2615 14.6511 16.2752C14.6147 16.2889 14.5786 16.309 14.5431 16.3357C14.498 16.3696 14.4628 16.407 14.4375 16.4479C14.4122 16.4888 14.3971 16.5326 14.3923 16.579C14.3875 16.6254 14.3931 16.6736 14.4094 16.7235C14.4257 16.7734 14.4528 16.8237 14.4909 16.8746C14.5209 16.9146 14.5528 16.948 14.5866 16.9748C14.6203 17.0016 14.6548 17.0215 14.6902 17.0345C14.7255 17.0476 14.7616 17.054 14.7985 17.0538C14.8352 17.0535 14.8719 17.0465 14.9084 17.0328C14.9448 17.0191 14.9809 16.999 15.0164 16.9722C15.0609 16.9389 15.0961 16.9015 15.1216 16.8603C15.1472 16.8191 15.1624 16.7754 15.1672 16.729C15.1721 16.6826 15.1667 16.6344 15.1508 16.5846C15.1351 16.5347 15.108 16.4844 15.0701 16.4337ZM14.9882 16.7925C14.9761 16.8156 14.9572 16.8368 14.9319 16.8559C14.9116 16.8711 14.8913 16.882 14.871 16.8883C14.8507 16.8947 14.8301 16.8966 14.8094 16.8942C14.7885 16.8918 14.7678 16.8855 14.7471 16.8755C14.7264 16.8654 14.706 16.8514 14.6863 16.8331C14.6665 16.815 14.647 16.7932 14.628 16.7677C14.6043 16.7361 14.5863 16.7053 14.5739 16.6754C14.5615 16.6454 14.5554 16.6171 14.5551 16.5904C14.5548 16.5636 14.5607 16.5386 14.5727 16.5151C14.5847 16.4915 14.6033 16.4704 14.6287 16.4513C14.649 16.4361 14.6694 16.4252 14.69 16.4185C14.7106 16.4119 14.7313 16.4097 14.7522 16.4123C14.773 16.4147 14.7936 16.421 14.8141 16.4314C14.8345 16.4416 14.8547 16.4559 14.8745 16.474C14.8943 16.4922 14.9138 16.514 14.9327 16.5394C14.9564 16.571 14.9746 16.6017 14.9872 16.6314C14.9999 16.6612 15.0062 16.6897 15.0063 16.7169C15.0065 16.7441 15.0004 16.7693 14.9883 16.7925H14.9882Z" fill="white"/>
<path d="M14.3603 17.2192L14.0408 16.6992L13.8984 16.7867L14.218 17.3067L14.0206 17.4279L14.0965 17.5514L14.6326 17.2219L14.5567 17.0984L14.3603 17.2192Z" fill="white"/>
<path d="M13.7182 17.5815L13.4466 17.0352L13.2969 17.1094L13.5686 17.6559L13.3612 17.7591L13.4258 17.8888L13.9892 17.6087L13.9248 17.4789L13.7182 17.5815Z" fill="white"/>
<path d="M12.5469 17.428L12.5836 17.5692L12.9139 17.4381L13.1391 18.0054L13.2934 17.9441L13.0148 17.2422L12.5469 17.428Z" fill="white"/>
<path d="M11.9531 17.6147L11.9761 17.7482L12.3403 17.6372L12.394 17.8133L12.0702 17.9119L12.1093 18.0404L12.4332 17.9418L12.4821 18.1027L12.1381 18.2075L12.1773 18.336L12.6781 18.1834L12.458 17.4609L11.9531 17.6147Z" fill="white"/>
<path d="M2.77005 7.17292C2.90194 7.17292 3.00886 7.066 3.00886 6.93412C3.00886 6.80223 2.90194 6.69531 2.77005 6.69531C2.63817 6.69531 2.53125 6.80223 2.53125 6.93412C2.53125 7.066 2.63817 7.17292 2.77005 7.17292Z" fill="white"/>
<path d="M16.7293 5.92973C16.7883 5.81178 16.7405 5.66833 16.6225 5.60934C16.5046 5.55034 16.3611 5.59815 16.3021 5.7161C16.2431 5.83406 16.2909 5.97751 16.4089 6.0365C16.5269 6.09549 16.6703 6.04769 16.7293 5.92973Z" fill="white"/>
<path d="M10.8279 18.4879C10.9581 18.4667 11.0465 18.3441 11.0253 18.2139C11.0042 18.0837 10.8815 17.9953 10.7513 18.0164C10.6212 18.0376 10.5328 18.1602 10.5539 18.2904C10.575 18.4206 10.6977 18.509 10.8279 18.4879Z" fill="white"/>
<path d="M10 0.269531C4.47712 0.269531 0 4.74665 0 10.2695C0 15.7924 4.47712 20.2695 10 20.2695C15.5229 20.2695 20 15.7924 20 10.2695C20 4.74665 15.5229 0.269531 10 0.269531ZM10 20.0867C4.57816 20.0867 0.182836 15.6914 0.182836 10.2695C0.182836 4.84769 4.57816 0.452367 10 0.452367C15.4218 0.452367 19.8172 4.84769 19.8172 10.2695C19.8172 15.6914 15.4218 20.0867 10 20.0867Z" fill="#11A64B"/>
<path d="M10.0018 1.22656C5.00862 1.22656 0.960938 5.27438 0.960938 10.2674C0.960938 15.2605 5.00875 19.3083 10.0018 19.3083C14.9949 19.3083 19.0427 15.2607 19.0427 10.2674C19.0427 5.27424 14.995 1.22656 10.0018 1.22656ZM10.0018 19.088C5.13037 19.088 1.18131 15.1389 1.18131 10.2674C1.18131 5.396 5.13037 1.44693 10.0018 1.44693C14.8733 1.44693 18.8223 5.396 18.8223 10.2674C18.8223 15.1389 14.8733 19.088 10.0018 19.088Z" fill="#11A64B"/>
</svg>
