<svg width="20" height="21" viewBox="0 0 20 21" fill="none" xmlns="http://www.w3.org/2000/svg">
<path d="M10.0002 19.0902C14.8716 19.0902 18.8207 15.1412 18.8207 10.2697C18.8207 5.3983 14.8716 1.44922 10.0002 1.44922C5.12877 1.44922 1.17969 5.3983 1.17969 10.2697C1.17969 15.1412 5.12877 19.0902 10.0002 19.0902Z" fill="#11A64B"/>
<path d="M10.0001 3.09766C6.04372 3.09766 2.8252 6.31632 2.8252 10.2725C2.8252 14.2287 6.04386 17.4474 10.0001 17.4474C13.9562 17.4474 17.1749 14.2287 17.1749 10.2725C17.1749 6.31632 13.9562 3.09766 10.0001 3.09766ZM10.0001 17.3957C6.07238 17.3957 2.87686 14.2003 2.87686 10.2725C2.87686 6.34471 6.07238 3.14932 10.0001 3.14932C13.9277 3.14932 17.1231 6.34471 17.1231 10.2725C17.1231 14.2003 13.9277 17.3957 10.0001 17.3957Z" fill="white"/>
<path d="M3.25124 11.2951C3.20119 10.9624 3.17509 10.6219 3.17509 10.2754C3.17509 6.51203 6.23688 3.45023 10.0003 3.45023C13.3976 3.45023 16.223 5.94536 16.7406 9.19913C16.7653 9.24622 16.7832 9.29035 16.7964 9.32533C16.8084 9.35695 16.8173 9.38829 16.8241 9.41924C16.4013 6.02985 13.5023 3.39844 10.0003 3.39844C6.20823 3.39844 3.12329 6.48351 3.12329 10.2754C3.12329 10.6591 3.15491 11.0356 3.21558 11.4023L3.2511 11.2951H3.25124Z" fill="white"/>
<path d="M16.8418 9.57422C16.8427 9.63046 16.8385 9.68279 16.8333 9.72867C16.829 9.76674 16.8212 9.80266 16.8116 9.83697C16.8209 9.9824 16.8256 10.1289 16.8256 10.2766C16.8256 14.04 13.7638 17.1018 10.0004 17.1018C6.74179 17.1018 4.00921 14.8062 3.33478 11.7474L3.27881 11.7338C3.94907 14.8283 6.70829 17.1536 10.0004 17.1536C13.7925 17.1536 16.8774 14.0686 16.8774 10.2766C16.8774 10.0396 16.8653 9.80522 16.8418 9.57422Z" fill="white"/>
<path d="M16.5791 10.2852C16.5701 10.2969 16.561 10.3084 16.5517 10.3196C16.5436 10.3293 16.5354 10.3388 16.5271 10.3484C16.526 10.4405 16.5229 10.5322 16.5181 10.6232L16.5684 10.6506C16.5752 10.5296 16.579 10.4077 16.5793 10.2852H16.5791Z" fill="white"/>
<path d="M3.4809 10.5971C3.47552 10.4889 3.47283 10.38 3.47283 10.2705C3.47283 6.6714 6.40103 3.7432 10.0002 3.7432C13.1043 3.7432 15.7094 5.92149 16.3671 8.82964C16.3751 8.83395 16.3829 8.83798 16.3908 8.84256C16.4017 8.84875 16.4127 8.85507 16.4239 8.86166C16.4252 8.86247 16.4266 8.86341 16.4278 8.86408C15.7819 5.90979 13.1452 3.69141 10 3.69141C6.37224 3.69141 3.4209 6.64288 3.4209 10.2705C3.4209 10.4248 3.42641 10.5778 3.43691 10.7294L3.48077 10.5971H3.4809Z" fill="white"/>
<path d="M3.77679 9.99402C3.92344 6.68831 6.65871 4.04398 9.99994 4.04398C12.8922 4.04398 15.3304 6.02531 16.0287 8.70206C16.0479 8.70623 16.0669 8.71107 16.0859 8.71618C15.3914 6.00338 12.9261 3.99219 9.99994 3.99219C6.6392 3.99219 3.88644 6.64526 3.72607 9.96711L3.77666 9.99402H3.77679Z" fill="white"/>
<path d="M4.33908 8.50155C5.09397 6.09307 7.34652 4.34086 10.0007 4.34086C12.6548 4.34086 15.0131 6.17662 15.7131 8.67268C15.7307 8.67268 15.7488 8.67295 15.7671 8.67335C15.0659 6.14796 12.7463 4.28906 10.0008 4.28906C7.25531 4.28906 4.93159 6.15132 4.23267 8.68008C4.26388 8.61846 4.2994 8.55886 4.33922 8.50155H4.33908Z" fill="white"/>
<path d="M4.01904 10.1216L4.03721 10.1312C4.04891 10.1374 4.05981 10.1442 4.0703 10.151C4.0742 9.95541 4.08766 9.76208 4.11026 9.57144C4.09667 9.51009 4.08739 9.44861 4.08268 9.38672C4.04676 9.62741 4.02523 9.87267 4.01904 10.1216Z" fill="white"/>
<path d="M15.7354 11.7904C15.0634 14.3285 12.7471 16.2048 10.0005 16.2048C7.25397 16.2048 5.12546 14.4771 4.35496 12.0947C4.33667 12.094 4.31837 12.0932 4.2998 12.0923C5.07137 14.5048 7.33523 16.2566 10.0004 16.2566C12.6656 16.2566 15.1377 14.3393 15.7983 11.7539C15.7774 11.7664 15.7564 11.7787 15.7352 11.7904H15.7354Z" fill="white"/>
<path d="M4.36636 10.2708C4.36636 10.2266 4.3669 10.1828 4.36797 10.1389C4.35143 10.1143 4.33474 10.0887 4.31846 10.0625C4.31591 10.1317 4.3147 10.2011 4.3147 10.2708C4.3147 10.3509 4.31645 10.4306 4.31981 10.51C4.33609 10.5355 4.35371 10.5612 4.37295 10.5869C4.37376 10.5877 4.3747 10.5887 4.37564 10.5895C4.36972 10.484 4.36663 10.3777 4.36663 10.2708H4.36636Z" fill="white"/>
<path d="M15.3806 11.9426C14.6666 14.2352 12.5247 15.9043 10.0002 15.9043C7.47575 15.9043 5.42635 14.3064 4.66796 12.09C4.6502 12.091 4.63218 12.0919 4.61401 12.0926C5.37522 14.3367 7.50212 15.9561 10.0002 15.9561C12.4983 15.9561 14.732 14.2541 15.4411 11.9219C15.4211 11.9291 15.4009 11.936 15.3807 11.9426H15.3806Z" fill="white"/>
<path d="M4.82205 8.05269C5.6851 6.0462 7.68123 4.63773 10.0002 4.63773C12.559 4.63773 14.7248 6.35241 15.4089 8.69308C15.4244 8.69079 15.4398 8.68851 15.4554 8.68662C15.4572 8.68636 15.4589 8.68622 15.4608 8.68609C14.7728 6.31998 12.5854 4.58594 10.0002 4.58594C7.63347 4.58594 5.60007 6.03961 4.74536 8.10085C4.77012 8.08417 4.79568 8.06816 4.82191 8.05269H4.82205Z" fill="white"/>
<path d="M4.67102 10.559C4.65272 10.5342 4.63429 10.5093 4.61572 10.4844C4.61976 10.5886 4.62675 10.6921 4.63658 10.7948C4.6546 10.7996 4.67223 10.8027 4.68945 10.8036C4.68151 10.7226 4.67532 10.6411 4.67102 10.559Z" fill="white"/>
<path d="M5.23138 7.88124C6.11004 6.13737 7.91755 4.93838 9.99991 4.93838C12.3002 4.93838 14.2651 6.40147 15.0132 8.44603L15.0301 8.43823L15.0204 8.46621C15.0553 8.56254 15.0874 8.66021 15.1168 8.7591C15.1333 8.75425 15.15 8.74968 15.1667 8.74537C14.5061 6.51704 12.4399 4.88672 10 4.88672C7.88015 4.88672 6.0425 6.11746 5.16357 7.90183C5.18564 7.89483 5.20824 7.88797 5.23152 7.88151L5.23138 7.88124Z" fill="white"/>
<path d="M15.0962 12.0159C15.0776 12.0191 15.0589 12.0219 15.0402 12.0246C14.314 14.1094 12.3286 15.6095 9.99955 15.6095C8.01983 15.6095 6.28848 14.5258 5.36757 12.9204H5.30811C6.23412 14.5554 7.9901 15.6613 9.99955 15.6613C12.3609 15.6613 14.3724 14.1342 15.0981 12.0156C15.0974 12.0156 15.0969 12.0159 15.0962 12.016V12.0159Z" fill="white"/>
<path d="M5.21764 12.6403C5.12427 12.4524 5.04167 12.2582 4.97063 12.0586C4.95341 12.0616 4.93619 12.0645 4.9187 12.0672C5.00158 12.3013 5.10033 12.528 5.21334 12.7461L5.21764 12.6403Z" fill="white"/>
<path d="M5.26291 11.9883C5.2465 11.9934 5.22995 11.9982 5.21313 12.0029C5.24367 12.0873 5.27637 12.1707 5.31135 12.253C5.31955 12.2326 5.32776 12.2122 5.33597 12.1916L5.33677 12.1897C5.33745 12.1879 5.33825 12.1861 5.33893 12.1843C5.31229 12.1196 5.287 12.0542 5.26305 11.9883H5.26291Z" fill="white"/>
<path d="M14.6592 8.22266L14.6328 8.29194C14.6717 8.38262 14.708 8.47464 14.7417 8.56801L14.7889 8.54635C14.7492 8.4367 14.706 8.32867 14.6592 8.22266Z" fill="white"/>
<path d="M5.6068 7.80949C6.47106 6.27442 8.11659 5.23526 10.0001 5.23526C11.8836 5.23526 13.6848 6.37532 14.5113 8.03134L14.6011 8.09793C13.784 6.37667 12.0288 5.18359 10.0001 5.18359C8.08403 5.18359 6.41187 6.24792 5.5437 7.81635C5.56429 7.81379 5.58527 7.8115 5.6068 7.80949Z" fill="white"/>
<path d="M14.7641 12.0435C14.7486 12.0435 14.733 12.0434 14.7173 12.043C13.9994 13.9507 12.1557 15.3117 10 15.3117C8.19223 15.3117 6.60375 14.3546 5.71486 12.9204H5.65405C6.54886 14.3843 8.16223 15.3635 10.0001 15.3635C12.1846 15.3635 14.052 13.9802 14.7724 12.0435C14.7697 12.0435 14.7669 12.0435 14.7642 12.0435H14.7641Z" fill="white"/>
<path d="M5.9566 7.8015C6.79073 6.44147 8.29135 5.5324 10.0002 5.5324C11.7091 5.5324 13.2824 6.48613 14.1034 7.90106C14.1085 7.90106 14.1136 7.90106 14.1187 7.90106V7.92783C14.1192 7.9285 14.1196 7.92918 14.12 7.92985V7.90106C14.1344 7.90106 14.1488 7.90133 14.1634 7.90146C13.3372 6.4564 11.7806 5.48047 10.0002 5.48047C8.21991 5.48047 6.73678 6.41093 5.89673 7.80002C5.91691 7.80042 5.93682 7.80083 5.9566 7.80137V7.8015Z" fill="white"/>
<path d="M14.4117 12.0078C13.7179 13.7659 12.002 15.0132 10.0002 15.0132C8.36603 15.0132 6.92218 14.1819 6.06961 12.9198H6.00732C6.86661 14.2118 8.33562 15.065 10.0001 15.065C12.0269 15.065 13.7638 13.8002 14.463 12.0184C14.4456 12.0152 14.4285 12.0117 14.4116 12.0078H14.4117Z" fill="white"/>
<path d="M14.1307 11.9062C13.4786 13.5499 11.8727 14.7152 9.99966 14.7152C8.54114 14.7152 7.24461 14.0087 6.43416 12.9197H6.37012C7.18837 14.0387 8.51047 14.767 9.99966 14.767C11.8931 14.767 13.5167 13.5898 14.1774 11.929C14.1617 11.9217 14.1461 11.9142 14.1307 11.9062Z" fill="white"/>
<path d="M6.28943 7.83159C7.08467 6.62614 8.4509 5.82901 9.99982 5.82901C11.5487 5.82901 12.983 6.6665 13.7687 7.92267C13.7858 7.91715 13.8033 7.91245 13.8212 7.90895C13.028 6.63058 11.6118 5.77734 9.99982 5.77734C8.3878 5.77734 7.03678 6.59183 6.23413 7.8215C6.25283 7.82446 6.27126 7.82796 6.28943 7.83172V7.83159Z" fill="white"/>
<path d="M6.58946 7.91886C7.33803 6.83664 8.58747 6.12602 10.0001 6.12602C11.4941 6.12602 12.806 6.92086 13.5353 8.10976C13.5449 8.09322 13.5555 8.07761 13.5671 8.06281C12.8262 6.87014 11.5045 6.07422 10.0001 6.07422C8.49572 6.07422 7.29659 6.79816 6.53955 7.89989C6.5557 7.9054 6.57238 7.91173 6.58946 7.91886Z" fill="white"/>
<path d="M13.8805 11.7266C13.2901 13.2961 11.7736 14.4157 10.0001 14.4157C8.69898 14.4157 7.53631 13.8128 6.77591 12.8721L6.77295 12.9182H6.74658C7.51667 13.863 8.68903 14.4675 10.0001 14.4675C11.7885 14.4675 13.3188 13.3428 13.9217 11.7637C13.9076 11.7516 13.8939 11.7392 13.8804 11.7266H13.8805Z" fill="white"/>
<path d="M6.85132 8.06626C7.54782 7.07553 8.69945 6.4268 9.99989 6.4268C11.4413 6.4268 12.6999 7.22393 13.3585 8.40032C13.37 8.38485 13.3812 8.36938 13.3918 8.3539C12.7212 7.17321 11.4521 6.375 9.99989 6.375C8.68129 6.375 7.51378 7.03315 6.80786 8.03815C6.82226 8.04729 6.83679 8.05658 6.85132 8.06626Z" fill="white"/>
<path d="M13.6665 11.4375C13.1724 12.9917 11.7156 14.121 10 14.121C8.70131 14.121 7.55102 13.474 6.85425 12.4854C6.85197 12.4915 6.84955 12.4975 6.84726 12.5036C6.84215 12.5168 6.8369 12.5299 6.83179 12.5431C7.53986 13.5291 8.6962 14.1726 10 14.1726C11.7211 14.1726 13.185 13.0514 13.7003 11.5011C13.6883 11.4804 13.6772 11.4592 13.6665 11.4375Z" fill="white"/>
<path d="M7.07587 8.26426C7.7164 7.3346 8.78812 6.72381 9.9999 6.72381C10.8987 6.72381 11.7204 7.05988 12.3464 7.61269L12.3793 7.64108L12.4193 7.67888C12.4287 7.68763 12.4381 7.69624 12.4474 7.70512C12.4595 7.7105 12.4727 7.71629 12.4863 7.72261C12.5248 7.74037 12.5601 7.75853 12.593 7.77723C11.9375 7.09634 11.0174 6.67188 9.99976 6.67188C8.77601 6.67188 7.69313 7.28577 7.04224 8.22147C7.05542 8.23694 7.06645 8.25134 7.07574 8.26412L7.07587 8.26426Z" fill="white"/>
<path d="M13.0134 8.30469C13.0278 8.35245 13.0376 8.40048 13.043 8.44905C13.0784 8.50797 13.112 8.56784 13.1441 8.62892C13.1575 8.61681 13.1707 8.60471 13.1835 8.5926C13.1311 8.49385 13.0744 8.39779 13.0134 8.30469Z" fill="white"/>
<path d="M13.1274 11.9468C12.5281 13.0609 11.3511 13.8201 9.99993 13.8201C8.7299 13.8201 7.61378 13.1493 6.98657 12.1435C6.98025 12.1595 6.97392 12.1755 6.9676 12.1915C6.96599 12.1954 6.96451 12.1995 6.96289 12.2034C7.60275 13.2058 8.72492 13.8719 9.99979 13.8719C11.4247 13.8719 12.6589 13.0398 13.2421 11.8359C13.2107 11.8824 13.1722 11.9194 13.1272 11.9468H13.1274Z" fill="white"/>
<path d="M7.14804 8.71329C7.70072 7.70547 8.77203 7.02055 10.0004 7.02055C10.7208 7.02055 11.387 7.25626 11.9265 7.65435C11.9525 7.64951 11.9768 7.64641 11.9992 7.64413C11.4439 7.2206 10.7511 6.96875 10.0004 6.96875C8.74244 6.96875 7.6465 7.67588 7.08911 8.71343H7.14804V8.71329Z" fill="white"/>
<path d="M12.7492 12.0035C12.1728 12.9147 11.1561 13.5211 10.0002 13.5211C8.84444 13.5211 7.82236 12.9115 7.24668 11.9961C7.22771 11.998 7.20847 11.9999 7.18896 12.0015C7.77124 12.9436 8.81363 13.5727 10.0002 13.5727C11.1869 13.5727 12.2278 12.9444 12.8103 12.0034H12.7492V12.0035Z" fill="white"/>
<path d="M7.46447 8.7158C7.47415 8.7158 7.4833 8.7158 7.49272 8.7158C8.01459 7.87925 8.94316 7.32133 9.99968 7.32133C10.5859 7.32133 11.1326 7.493 11.5925 7.78871C11.6008 7.7836 11.6091 7.77835 11.6176 7.77351C11.6194 7.77243 11.6211 7.77162 11.6227 7.77068C11.6293 7.76691 11.6361 7.76342 11.6426 7.75978C11.1702 7.44995 10.6056 7.26953 9.99968 7.26953C8.91303 7.26953 7.95943 7.84939 7.43164 8.7158C7.44254 8.7158 7.45344 8.7158 7.46447 8.7158Z" fill="white"/>
<path d="M12.3891 12.0072C11.8519 12.7458 10.981 13.2271 9.99984 13.2271C9.01866 13.2271 8.10273 12.7205 7.56943 11.9492C7.55167 11.9531 7.53378 11.9569 7.51562 11.9605C7.51521 11.9605 7.51481 11.9607 7.5144 11.9608C8.05551 12.7558 8.96767 13.2788 9.99984 13.2788C11.032 13.2788 11.9082 12.7761 12.453 12.0072C12.4317 12.0072 12.4103 12.0072 12.3891 12.0072Z" fill="white"/>
<path d="M7.8511 8.71616C8.33409 8.05141 9.1175 7.6182 10.0002 7.6182C10.4966 7.6182 10.9616 7.7553 11.3594 7.99343C11.3703 7.9797 11.3816 7.96625 11.3933 7.95333C10.9861 7.70794 10.5094 7.56641 10.0002 7.56641C9.08709 7.56641 8.27812 8.02101 7.7876 8.71562C7.80912 8.71576 7.83025 8.71589 7.8511 8.71602V8.71616Z" fill="white"/>
<path d="M12.0507 12.0023C12.0507 12.0023 12.045 12.0016 12.0433 12.0015L12.017 11.9992C11.5297 12.5681 10.8065 12.9294 10.0003 12.9294C9.13175 12.9294 8.35924 12.51 7.8745 11.8633C7.85768 11.8693 7.8406 11.8753 7.82324 11.8809C8.31672 12.5478 9.10874 12.9811 10.0003 12.9811C10.8351 12.9811 11.5827 12.6012 12.0797 12.0052C12.0684 12.0043 12.0585 12.0032 12.0507 12.0023Z" fill="white"/>
<path d="M8.2076 8.74329C8.64027 8.23676 9.28322 7.91508 10 7.91508C10.4437 7.91508 10.8592 8.03845 11.214 8.25236C11.2199 8.23595 11.2262 8.21967 11.2331 8.20353C10.8721 7.98759 10.4503 7.86328 10 7.86328C9.25591 7.86328 8.58968 8.20245 8.14746 8.73427C8.16778 8.73696 8.18782 8.74006 8.2076 8.74329Z" fill="white"/>
<path d="M11.7741 11.824C11.3417 12.3181 10.7068 12.6308 10.0001 12.6308C9.25341 12.6308 8.58678 12.2817 8.15451 11.7383C8.13904 11.7465 8.1233 11.7544 8.10742 11.7624C8.54884 12.3224 9.23323 12.6826 9.99995 12.6826C10.7134 12.6826 11.3553 12.3707 11.7967 11.8763L11.7738 11.8241L11.7741 11.824Z" fill="white"/>
<path d="M8.53162 8.82867C8.9055 8.4482 9.42549 8.21182 9.99982 8.21182C10.431 8.21182 10.8317 8.34514 11.1628 8.57265C11.1624 8.55179 11.1626 8.53121 11.1636 8.51076C10.8298 8.28931 10.4297 8.16016 9.99982 8.16016C9.40221 8.16016 8.86191 8.40972 8.47754 8.8101C8.4953 8.81589 8.51333 8.82208 8.53162 8.82881V8.82867Z" fill="white"/>
<path d="M11.1109 12.0039C10.7902 12.2103 10.4086 12.3302 9.99963 12.3302C9.59063 12.3302 9.20922 12.2103 8.88849 12.0039C8.85754 12.0039 8.8266 12.0039 8.79565 12.0039C9.13738 12.242 9.55242 12.382 9.99963 12.382C10.4468 12.382 10.862 12.242 11.2037 12.0039C11.1728 12.0039 11.1418 12.0039 11.1109 12.0039Z" fill="white"/>
<path d="M8.81151 8.9715C9.12498 8.68426 9.54245 8.50869 10.0003 8.50869C10.271 8.50869 10.5275 8.57018 10.7569 8.67969C10.7772 8.67686 10.7975 8.67485 10.818 8.6735C10.8293 8.67283 10.8418 8.67202 10.8547 8.67135C10.6 8.53466 10.309 8.45703 10.0003 8.45703C9.52429 8.45703 9.09068 8.64148 8.76685 8.94257C8.78178 8.95186 8.79671 8.96154 8.81165 8.97164L8.81151 8.9715Z" fill="white"/>
<path d="M10.514 12.0024C10.4713 12.0024 10.431 11.997 10.3936 11.9864C10.2671 12.0153 10.1354 12.0307 10.0002 12.0307C9.85638 12.0307 9.7166 12.0132 9.58273 11.9805C9.54533 11.9939 9.50618 12.0011 9.46582 12.002C9.6348 12.0542 9.81427 12.0824 10.0003 12.0824C10.1864 12.0824 10.3651 12.0543 10.5338 12.0023H10.514V12.0024Z" fill="white"/>
<path d="M9.27743 8.94638L9.27958 8.94141C9.1811 8.99482 9.08908 9.05899 9.00513 9.13218C9.00715 9.13433 9.00916 9.13662 9.01118 9.13891C9.02033 9.14886 9.03002 9.15936 9.03997 9.17052C9.10401 9.11469 9.17303 9.06451 9.24608 9.02038C9.25106 9.00814 9.25604 8.9963 9.26088 8.98486C9.26088 8.98486 9.27447 8.95338 9.2773 8.94665L9.27743 8.94638Z" fill="white"/>
<path d="M10.1413 11.7303C10.0947 11.7348 10.0475 11.7372 9.99975 11.7372C9.94002 11.7372 9.88109 11.7336 9.82324 11.7266C9.82189 11.7297 9.82055 11.7326 9.81907 11.7358C9.81234 11.7505 9.80561 11.764 9.79956 11.7758C9.86508 11.7845 9.93181 11.789 9.99975 11.789C10.053 11.789 10.1056 11.7862 10.1574 11.7808C10.1511 11.7653 10.1456 11.7485 10.1413 11.7303Z" fill="white"/>
<path d="M15.9613 12.0797C15.1836 14.634 12.8056 16.4978 10.0005 16.4978C7.19543 16.4978 4.80201 14.622 4.03219 12.0551C4.01282 12.0513 3.99371 12.0473 3.97461 12.043C4.74228 14.645 7.15318 16.5496 10.0005 16.5496C12.8479 16.5496 15.2175 14.6775 16.0064 12.1097C15.9906 12.1007 15.9757 12.0907 15.9615 12.0798L15.9613 12.0797Z" fill="white"/>
<path d="M16.4721 11.4561C16.5052 11.2753 16.5309 11.0919 16.5486 10.9062L16.5341 10.9482C16.5326 10.9532 16.5305 10.9603 16.5276 10.9687C16.5253 10.9755 16.5225 10.9835 16.519 10.9919L16.5182 10.9941C16.5173 10.9963 16.5135 11.0051 16.5124 11.0076L16.5111 11.0107C16.507 11.0194 16.5027 11.028 16.4982 11.0363C16.492 11.0476 16.4854 11.0591 16.4787 11.0705C16.4641 11.1885 16.4465 11.3054 16.4258 11.4213C16.4421 11.4318 16.4575 11.4435 16.4722 11.4561H16.4721Z" fill="white"/>
<path d="M16.2478 12.1642C15.4347 14.8434 12.9416 16.7989 10.0003 16.7989C7.05907 16.7989 4.43855 14.7419 3.69362 11.957C3.6729 11.9483 3.65259 11.9391 3.63281 11.9297C4.36967 14.7574 6.94511 16.8506 10.0003 16.8506C13.0555 16.8506 15.4931 14.8674 16.3047 12.1542C16.2862 12.1588 16.2672 12.1622 16.2477 12.1642H16.2478Z" fill="white"/>
<path d="M16.2053 11.457C16.2635 11.457 16.3163 11.4706 16.3634 11.4979C16.4113 11.5244 16.4489 11.5609 16.4761 11.6073C16.5034 11.6537 16.517 11.7042 16.517 11.7588C16.517 11.8134 16.5034 11.8649 16.4761 11.9114C16.4488 11.9571 16.4113 11.9936 16.3634 12.0207C16.3163 12.0472 16.2635 12.0606 16.2053 12.0606C16.147 12.0606 16.094 12.0472 16.0461 12.0207C15.999 11.9934 15.9618 11.957 15.9345 11.9114C15.9071 11.8649 15.8936 11.8141 15.8936 11.7588C15.8936 11.7035 15.9071 11.6537 15.9345 11.6073C15.9618 11.5609 15.9989 11.5244 16.0461 11.4979C16.094 11.4706 16.1472 11.457 16.2053 11.457ZM16.2053 12.002C16.2532 12.002 16.2956 11.9917 16.3324 11.9711C16.37 11.9497 16.3991 11.9206 16.4197 11.8838C16.4403 11.8469 16.4507 11.8053 16.4507 11.7589C16.4507 11.7125 16.4403 11.672 16.4197 11.6352C16.3991 11.5983 16.37 11.5695 16.3324 11.5489C16.2949 11.5275 16.2525 11.5169 16.2053 11.5169C16.1581 11.5169 16.1157 11.5275 16.0781 11.5489C16.0406 11.5695 16.0114 11.5983 15.9908 11.6352C15.9702 11.672 15.9599 11.7133 15.9599 11.7589C15.9599 11.8045 15.9702 11.8469 15.9908 11.8838C16.0114 11.9206 16.0402 11.9497 16.0771 11.9711C16.1146 11.9917 16.1574 12.002 16.2053 12.002ZM16.3358 11.7058C16.3358 11.7234 16.3313 11.7397 16.3225 11.7545C16.3136 11.7685 16.3011 11.7791 16.2849 11.7865L16.3568 11.8927H16.2771L16.2129 11.7931H16.1599V11.8927H16.0902V11.6196H16.2483C16.2748 11.6196 16.2958 11.628 16.3113 11.645C16.3276 11.6611 16.3356 11.6814 16.3356 11.7058H16.3358ZM16.1601 11.7323H16.2353C16.2442 11.7323 16.2512 11.7301 16.2563 11.7257C16.2614 11.7206 16.2641 11.7139 16.2641 11.7058C16.2641 11.6977 16.2615 11.6914 16.2563 11.687C16.2512 11.6818 16.2442 11.6792 16.2353 11.6792H16.1601V11.7322V11.7323Z" fill="white"/>
<path d="M16.2159 10.8391C16.2142 10.8382 16.2123 10.8372 16.2105 10.8361C16.2027 10.8437 16.1953 10.8517 16.187 10.8585C16.1803 10.864 16.1714 10.8729 16.1649 10.8718C16.1441 10.8683 16.1316 10.8816 16.1168 10.8909C16.0865 10.91 16.0566 10.9296 16.0264 10.9487C15.898 11.0295 15.7625 11.0951 15.6178 11.1411C15.5827 11.1523 15.5473 11.1645 15.5111 11.1709C15.422 11.1865 15.3328 11.2018 15.2413 11.1945C15.1825 11.1898 15.1258 11.1781 15.0733 11.1519C15.0156 11.123 14.9671 11.0823 14.9318 11.0268C14.9065 10.987 14.8809 10.9471 14.8688 10.9015C14.8436 10.8077 14.8357 10.7126 14.8513 10.6159C14.8714 10.4916 14.9088 10.3725 14.9602 10.258C15.0036 10.1613 15.0502 10.0659 15.0977 9.97106C15.1568 9.85281 15.2275 9.74154 15.3086 9.63701C15.3756 9.55077 15.4496 9.4722 15.5446 9.41543C15.584 9.39188 15.6258 9.37816 15.6715 9.37655C15.7288 9.37439 15.7721 9.40386 15.7882 9.45794C15.7941 9.47785 15.7974 9.49992 15.7955 9.5205C15.7881 9.60633 15.7574 9.68598 15.7197 9.76199C15.6654 9.87151 15.5954 9.97106 15.5155 10.064C15.404 10.1939 15.2798 10.3089 15.1346 10.4004C15.1053 10.4189 15.0753 10.4363 15.0461 10.455C15.025 10.4686 15.0099 10.4916 14.9817 10.4944C14.9779 10.4948 14.972 10.5048 14.9727 10.5096C14.9736 10.5162 14.9784 10.5247 14.9841 10.5274C14.9916 10.531 15.0016 10.531 15.0103 10.5307C15.0516 10.5297 15.0931 10.5272 15.1344 10.5264C15.3073 10.5232 15.4783 10.5036 15.6468 10.4648C15.796 10.4305 15.9396 10.381 16.0691 10.2976C16.1532 10.2435 16.2291 10.1799 16.2936 10.1024C16.36 10.0223 16.4109 9.93326 16.4512 9.83855C16.4725 9.7885 16.4935 9.73562 16.4995 9.68235C16.5088 9.60082 16.5126 9.51741 16.4823 9.43722C16.4617 9.3826 16.4378 9.32852 16.4016 9.28385C16.3597 9.23219 16.3127 9.18402 16.2536 9.14918C16.1976 9.11622 16.1406 9.08675 16.08 9.06281C15.9968 9.02984 15.9104 9.01195 15.8221 9.00778C15.7138 9.00253 15.6054 9.00428 15.497 9.0176C15.3506 9.03563 15.2089 9.07047 15.0714 9.12294C14.8553 9.20555 14.6712 9.33753 14.5088 9.49857C14.3464 9.65961 14.2201 9.84837 14.1162 10.0515C14.0822 10.1181 14.0519 10.1867 14.022 10.2553C13.9365 10.452 13.8839 10.6563 13.8844 10.8722C13.8848 11.003 13.9024 11.1306 13.9548 11.2519C14.0148 11.391 14.1122 11.4989 14.2404 11.5769C14.3772 11.6602 14.53 11.6942 14.6889 11.7004C14.8065 11.705 14.9237 11.6995 15.0402 11.6793C15.3044 11.6335 15.5435 11.5303 15.7588 11.3719C15.8738 11.2871 15.975 11.1878 16.0646 11.0766C16.1166 11.012 16.1643 10.9444 16.2042 10.8718C16.2097 10.8617 16.212 10.85 16.2159 10.839V10.8391ZM12.0727 11.6604C12.0893 11.6619 12.1078 11.6649 12.1265 11.6649C12.3863 11.6652 12.6461 11.6652 12.9058 11.6652C12.9522 11.6652 12.9634 11.6574 12.9803 11.6139C13.001 11.5609 13.0217 11.5079 13.0421 11.4547C13.0773 11.3631 13.1119 11.2712 13.1475 11.1797C13.1836 11.0872 13.221 10.9953 13.2572 10.9027C13.3109 10.7655 13.3637 10.6281 13.4171 10.4909C13.4712 10.3515 13.5255 10.2122 13.5797 10.0729C13.6266 9.95236 13.6738 9.83195 13.7211 9.71141C13.7251 9.70105 13.7304 9.69109 13.7343 9.6806C13.7433 9.65692 13.7598 9.64495 13.7856 9.64629C13.7979 9.64683 13.8103 9.64602 13.8226 9.64602C13.9369 9.64602 14.0511 9.64602 14.1653 9.64602C14.23 9.64602 14.2215 9.65262 14.2581 9.58575C14.2598 9.58279 14.2606 9.57956 14.2618 9.57633C14.3121 9.44745 14.3628 9.31869 14.4126 9.18967C14.4273 9.1516 14.4395 9.11272 14.4552 9.06725C14.4231 9.08204 14.4347 9.05352 14.4235 9.04841C14.283 9.04451 14.1426 9.04061 13.9973 9.0367C14.0005 9.01558 14.0004 8.99756 14.0062 8.98168C14.0289 8.91993 14.0534 8.85885 14.0773 8.79763C14.1255 8.67386 14.1738 8.55022 14.2217 8.42645C14.2417 8.37465 14.2612 8.32245 14.2799 8.27321C14.2649 8.26204 14.2544 8.25276 14.2424 8.2459C14.2331 8.24052 14.2224 8.23527 14.212 8.235C14.1629 8.23352 14.1138 8.23379 14.0647 8.23312C14.0468 8.23285 14.029 8.23056 14.0111 8.23069C13.9732 8.2311 13.935 8.22975 13.8974 8.23446C13.8689 8.23796 13.8422 8.24912 13.8261 8.27805C13.7914 8.34048 13.7555 8.40236 13.7189 8.46358C13.618 8.63229 13.486 8.77517 13.3386 8.90324C13.1609 9.05756 12.9562 9.16694 12.7325 9.23972C12.6518 9.26596 12.5696 9.28721 12.4883 9.31197C12.4679 9.31816 12.4447 9.32219 12.4349 9.34681C12.4044 9.4235 12.3729 9.49978 12.3421 9.57647C12.3204 9.63042 12.3305 9.64602 12.3873 9.64616C12.5127 9.64643 12.638 9.64616 12.7634 9.64616C12.7735 9.64616 12.7836 9.64575 12.7937 9.64629C12.8216 9.64791 12.8257 9.65369 12.8178 9.67925C12.8168 9.68248 12.8155 9.68558 12.8143 9.68867C12.7905 9.7511 12.7667 9.81366 12.7428 9.87608C12.7167 9.94483 12.6909 10.0137 12.6644 10.0823C12.6274 10.1781 12.5897 10.2736 12.5525 10.3693C12.5271 10.4348 12.502 10.5005 12.4765 10.5659C12.4477 10.6396 12.4185 10.7132 12.3898 10.7869C12.3644 10.8524 12.3399 10.9182 12.3143 10.9837C12.2873 11.0533 12.2591 11.1224 12.232 11.1921C12.2058 11.2597 12.1806 11.3276 12.1545 11.3953C12.1283 11.4629 12.1015 11.5303 12.075 11.598C12.0676 11.617 12.062 11.6362 12.0726 11.6604H12.0727ZM9.58796 9.07195C9.57746 9.09657 9.56656 9.12093 9.55674 9.14568C9.51248 9.25775 9.46849 9.36982 9.42463 9.48202C9.39611 9.55481 9.36785 9.62759 9.3396 9.70038C9.3057 9.78769 9.27206 9.87527 9.23789 9.96245C9.20089 10.057 9.16349 10.1513 9.12636 10.2458C9.08882 10.3413 9.05169 10.437 9.01429 10.5325C8.9894 10.5959 8.96384 10.6588 8.93935 10.7222C8.91245 10.7919 8.88688 10.8622 8.85971 10.9319C8.81114 11.0566 8.76136 11.1811 8.71279 11.3058C8.67714 11.3973 8.64256 11.4892 8.60785 11.5809C8.60234 11.5955 8.59749 11.6105 8.59427 11.6257C8.58956 11.6477 8.59817 11.6602 8.62023 11.6635C8.63234 11.6654 8.64485 11.6649 8.65709 11.6649C8.91581 11.6649 9.17452 11.6649 9.43324 11.6649C9.44104 11.6649 9.44898 11.6645 9.45678 11.6648C9.47037 11.6652 9.48033 11.6604 9.48638 11.6475C9.49849 11.6217 9.51288 11.5968 9.52338 11.5703C9.54988 11.5028 9.57437 11.4346 9.60033 11.3669C9.63679 11.2722 9.67406 11.1776 9.71079 11.083C9.75034 10.981 9.78922 10.8788 9.82891 10.7768C9.86577 10.6822 9.90304 10.5878 9.94017 10.4932C9.98255 10.3852 10.0229 10.2762 10.068 10.1692C10.1058 10.0796 10.1499 9.99272 10.209 9.91456C10.2628 9.84339 10.3258 9.78231 10.4046 9.73845C10.4589 9.70818 10.5179 9.69311 10.5788 9.69742C10.7212 9.70724 10.827 9.77841 10.9001 9.89976C10.9064 9.91012 10.9129 9.92048 10.9188 9.9299C10.9355 9.9299 10.9453 9.92492 10.9509 9.90945C10.9705 9.85711 10.9916 9.80558 11.0119 9.75352C11.0613 9.62665 11.1106 9.49978 11.1599 9.37278C11.1881 9.29999 11.2161 9.22707 11.2436 9.15389C11.2492 9.13895 11.2515 9.12281 11.2547 9.10989C11.245 9.10707 11.2385 9.10707 11.2347 9.10384C11.2223 9.09294 11.213 9.07626 11.1989 9.07007C11.155 9.05097 11.1102 9.03267 11.0642 9.01962C10.9912 8.99903 10.9153 9.00213 10.8406 9.00697C10.7816 9.01087 10.7232 9.0246 10.6683 9.04774C10.5943 9.07895 10.529 9.12402 10.472 9.18052C10.3925 9.25923 10.3329 9.35219 10.2818 9.45094C10.2614 9.4901 10.2446 9.53167 10.209 9.56786C10.2105 9.54391 10.2125 9.52521 10.2126 9.50651C10.2129 9.4048 10.213 9.30309 10.2125 9.20138C10.2122 9.1668 10.2092 9.13223 10.2083 9.09765C10.2079 9.08258 10.2023 9.07155 10.188 9.0663C10.1744 9.06133 10.1608 9.05487 10.1467 9.05339C10.1168 9.05016 10.0865 9.04854 10.0565 9.04827C9.9356 9.04706 9.81465 9.04639 9.6937 9.04626C9.67487 9.04626 9.65576 9.04868 9.63733 9.05298C9.62132 9.05662 9.60639 9.06442 9.58822 9.07155L9.58796 9.07195ZM11.3532 11.6613C11.3675 11.6339 11.3811 11.61 11.3925 11.5851C11.4018 11.5649 11.4082 11.5434 11.4164 11.5227C11.4543 11.4261 11.4925 11.3296 11.5301 11.233C11.5557 11.1675 11.5806 11.1018 11.6061 11.0363C11.6333 10.9666 11.6609 10.8972 11.6879 10.8275C11.7138 10.7609 11.7388 10.6941 11.7648 10.6276C11.8012 10.5341 11.8385 10.4409 11.875 10.3474C11.9115 10.2539 11.9476 10.1602 11.9839 10.0666C12.0194 9.9751 12.0547 9.88348 12.0905 9.792C12.1335 9.68181 12.1779 9.57216 12.2195 9.46157C12.2315 9.42955 12.251 9.39942 12.2507 9.3635C12.2507 9.36054 12.2487 9.35758 12.2472 9.35367C12.2414 9.35583 12.2365 9.35771 12.2291 9.3604C12.2173 9.3378 12.1946 9.33632 12.1721 9.3347C12.0673 9.32704 11.9623 9.32152 11.8591 9.30094C11.7813 9.28546 11.7025 9.27188 11.6271 9.2482C11.5573 9.22627 11.4898 9.19869 11.4148 9.19586C11.3961 9.24268 11.377 9.29031 11.3581 9.3378C11.3349 9.39565 11.3114 9.4535 11.2886 9.51149C11.2515 9.60593 11.215 9.70051 11.178 9.79496C11.1533 9.85832 11.1279 9.92142 11.1032 9.98479C11.0653 10.0825 11.028 10.1804 10.99 10.2781C10.9657 10.3404 10.9401 10.4021 10.9158 10.4645C10.8779 10.5622 10.8408 10.6602 10.803 10.758C10.7761 10.8277 10.7487 10.8971 10.7217 10.9668C10.7052 11.0094 10.6894 11.0523 10.6729 11.095C10.6462 11.1635 10.6189 11.2318 10.5921 11.3003C10.5722 11.3511 10.5527 11.4023 10.5331 11.4533C10.5133 11.5042 10.4907 11.5543 10.4747 11.6064C10.4598 11.6551 10.4717 11.665 10.516 11.6649C10.5183 11.6649 10.5204 11.6649 10.5227 11.6649C10.7857 11.6649 11.0489 11.6649 11.3119 11.6648C11.3262 11.6648 11.3404 11.6623 11.3532 11.6611V11.6613ZM12.1142 7.97346L12.1136 7.96875C12.066 7.974 12.0173 7.97467 11.9711 7.9857C11.8971 8.00346 11.8271 8.03292 11.7621 8.07396C11.6715 8.13114 11.6035 8.2089 11.5562 8.30321C11.5116 8.39254 11.495 8.48927 11.5009 8.58937C11.5074 8.70023 11.5393 8.80288 11.6059 8.89221C11.7107 9.0328 11.8526 9.11447 12.0263 9.13586C12.2004 9.15725 12.36 9.11635 12.4992 9.00751C12.5953 8.93244 12.6615 8.83638 12.6954 8.71853C12.713 8.65745 12.7134 8.59542 12.713 8.53273C12.7122 8.40922 12.6631 8.30321 12.5945 8.20473C12.5631 8.15966 12.5211 8.12562 12.4746 8.09454C12.4232 8.06024 12.3687 8.0336 12.3129 8.00911C12.2927 8.00023 12.2697 7.99768 12.2482 7.99203C12.2395 7.98987 12.2312 7.98691 12.2226 7.98476C12.2066 7.98086 12.1908 7.97548 12.1746 7.974C12.1547 7.97211 12.1343 7.97359 12.1142 7.97359V7.97346Z" fill="white"/>
<path d="M5.55762 12.5795C5.5595 12.5316 5.57901 12.4886 5.59609 12.445C5.63175 12.3535 5.66928 12.2628 5.7048 12.1714C5.75337 12.0466 5.80032 11.9212 5.84862 11.7964C5.884 11.7049 5.92073 11.6138 5.95639 11.5223C5.99204 11.4309 6.02688 11.3391 6.06267 11.2478C6.09846 11.1564 6.13518 11.0655 6.17124 10.9741C6.19626 10.9109 6.22075 10.8474 6.24537 10.7839C6.27322 10.7122 6.30107 10.6405 6.32878 10.5687C6.36686 10.4699 6.40453 10.3708 6.44314 10.2722C6.47893 10.1809 6.51619 10.0901 6.55185 9.99858C6.59571 9.88624 6.63808 9.7735 6.68194 9.66116C6.71719 9.57075 6.75406 9.48088 6.78971 9.39061C6.82159 9.30975 6.85254 9.22862 6.88442 9.14777C6.89303 9.12597 6.9003 9.1027 6.91388 9.0844C6.92344 9.07148 6.94173 9.0626 6.95788 9.05763C6.979 9.05117 7.00174 9.04754 7.0238 9.04754C7.30149 9.04713 7.57917 9.04592 7.85685 9.04834C8.00242 9.04955 8.14759 9.06247 8.28845 9.10202C8.35383 9.12032 8.41935 9.14064 8.48111 9.16848C8.55429 9.20158 8.6225 9.24517 8.68641 9.29441C8.70309 9.30733 8.72381 9.31634 8.73753 9.33168C8.78059 9.37984 8.82754 9.42505 8.85983 9.48209C8.91566 9.58071 8.95252 9.68605 8.96087 9.79879C8.96921 9.9114 8.96504 10.0241 8.94109 10.1357C8.91647 10.2507 8.8792 10.3614 8.83359 10.4697C8.76673 10.6289 8.68668 10.7805 8.58564 10.9211C8.52147 11.0104 8.44788 11.0913 8.36931 11.168C8.22589 11.308 8.05947 11.4139 7.87717 11.4952C7.74075 11.556 7.59774 11.5965 7.45123 11.6254C7.32799 11.6498 7.20354 11.6635 7.07842 11.6713C7.02838 11.6744 6.97792 11.6718 6.92694 11.6718C6.92317 11.6643 6.9194 11.6566 6.91456 11.6468C6.91994 11.6424 6.92519 11.635 6.93164 11.6335C6.94886 11.6297 6.96124 11.6228 6.97133 11.607C6.97846 11.5958 6.99407 11.5896 7.00645 11.5821C7.08905 11.5324 7.16816 11.4773 7.24041 11.4138C7.31252 11.3504 7.38127 11.2829 7.44948 11.2152C7.54594 11.1194 7.62572 11.01 7.69864 10.8961C7.76241 10.7964 7.82214 10.694 7.86627 10.5834C7.89237 10.5182 7.92305 10.4547 7.947 10.3886C7.99112 10.2667 8.02812 10.1429 8.04023 10.0126C8.04574 9.95284 8.04359 9.89445 8.0331 9.83592C8.00727 9.69264 7.89722 9.58353 7.75393 9.55891C7.73079 9.55488 7.70752 9.55165 7.68438 9.54801C7.66191 9.54452 7.64496 9.55245 7.63379 9.57223C7.62989 9.57909 7.62532 9.58555 7.62249 9.59268C7.58886 9.67771 7.55563 9.763 7.52213 9.84817C7.4854 9.94153 7.44813 10.0349 7.41154 10.1283C7.38638 10.1927 7.36203 10.2574 7.33687 10.3219C7.29866 10.4195 7.25991 10.5171 7.22184 10.6148C7.187 10.7041 7.15296 10.7938 7.11798 10.8832C7.08138 10.9767 7.04412 11.0699 7.00739 11.1634C6.9829 11.2257 6.95909 11.2882 6.93487 11.3507C6.89639 11.4494 6.85765 11.548 6.81917 11.6469C6.78392 11.7373 6.74921 11.828 6.71383 11.9184C6.67723 12.0119 6.63997 12.1052 6.60324 12.1987C6.57996 12.2579 6.5575 12.3173 6.53449 12.3765C6.50947 12.441 6.48417 12.5053 6.45915 12.5697C6.45794 12.5727 6.45861 12.5763 6.45834 12.5797H5.55789L5.55762 12.5795Z" fill="white"/>
<path d="M3.49476 11.3524C3.49988 11.3595 3.50485 11.3667 3.50849 11.3716C3.63159 11.0575 3.75536 10.7417 3.8794 10.4249C3.91519 10.4439 3.92501 10.4759 3.93779 10.5048C3.9834 10.6087 4.04193 10.7049 4.11014 10.7953C4.1248 10.8148 4.1439 10.8311 4.16126 10.8484C4.19207 10.8794 4.22422 10.909 4.25369 10.9411C4.30871 11.0007 4.37692 11.0434 4.44863 11.0758C4.57927 11.1348 4.71717 11.151 4.85789 11.1118C5.01611 11.0677 5.10557 10.9605 5.13827 10.8027C5.14876 10.7517 5.13625 10.7023 5.1201 10.6545C5.09226 10.5723 5.04813 10.4979 4.99795 10.428C4.91386 10.3108 4.82614 10.1962 4.74031 10.0803C4.67102 9.98684 4.60442 9.89146 4.5494 9.78867C4.45401 9.61054 4.4037 9.42179 4.41755 9.21837C4.42455 9.11477 4.45199 9.01643 4.49074 8.92037C4.53595 8.80843 4.59743 8.70605 4.67331 8.61322C4.74421 8.52631 4.82722 8.4511 4.91991 8.38706C4.99297 8.33661 5.07086 8.29477 5.15212 8.25992C5.26043 8.21338 5.37398 8.18432 5.48954 8.16144C5.667 8.12633 5.8462 8.1309 6.025 8.13709C6.11971 8.14046 6.21524 8.1523 6.30618 8.18028C6.36134 8.19723 6.41852 8.2092 6.47126 8.23288C6.51902 8.25427 6.56544 8.27943 6.6101 8.30661C6.65961 8.33688 6.70751 8.36984 6.75392 8.40469C6.77491 8.42029 6.79227 8.44168 6.8076 8.46321C6.81312 8.47101 6.81097 8.48743 6.8072 8.49819C6.79321 8.53936 6.7776 8.57999 6.76186 8.62048C6.73468 8.69017 6.70697 8.7596 6.67952 8.82915C6.63163 8.95064 6.58387 9.07226 6.53597 9.19375C6.51768 9.24043 6.49749 9.28631 6.48148 9.3338C6.47341 9.35788 6.46386 9.37578 6.43641 9.37793C6.41677 9.32694 6.39888 9.27528 6.37722 9.22523C6.30349 9.05477 6.19559 8.91243 6.032 8.81785C5.89531 8.73888 5.74907 8.71466 5.59489 8.75018C5.4882 8.77466 5.41057 8.8379 5.36227 8.93651C5.33429 8.99342 5.31559 9.05235 5.31949 9.11693C5.32258 9.16644 5.33294 9.21379 5.35205 9.2598C5.38568 9.34093 5.43546 9.41277 5.48161 9.4865C5.50986 9.5317 5.54605 9.57193 5.57834 9.61458C5.59919 9.64216 5.61951 9.67014 5.64022 9.69786C5.65018 9.71131 5.65946 9.72544 5.67063 9.73795C5.72646 9.80064 5.77597 9.86791 5.82091 9.93868C5.84364 9.97447 5.86853 10.0088 5.89127 10.0446C5.97293 10.1733 6.03079 10.3116 6.05716 10.4622C6.06065 10.4818 6.06038 10.5023 6.06079 10.5223C6.06146 10.5536 6.05985 10.585 6.06159 10.6162C6.06684 10.7098 6.04249 10.7977 6.00993 10.8839C5.94683 11.0514 5.85226 11.1998 5.72821 11.3284C5.62798 11.4324 5.51026 11.5133 5.3807 11.5775C5.21738 11.6583 5.04396 11.7043 4.86502 11.7314C4.68165 11.7591 4.49679 11.7623 4.31208 11.7526C4.18332 11.7459 4.05605 11.7244 3.93295 11.6851C3.8007 11.643 3.6776 11.5826 3.57279 11.4894C3.55356 11.4723 3.53486 11.4546 3.51494 11.4384C3.50997 11.4343 3.50149 11.4347 3.49463 11.433C3.49463 11.4062 3.49463 11.3793 3.49463 11.3525L3.49476 11.3524Z" fill="white"/>
<path d="M16.2158 10.8378C16.212 10.8488 16.2096 10.8605 16.2041 10.8706C16.1641 10.9433 16.1165 11.0107 16.0645 11.0754C15.9749 11.1866 15.8737 11.2859 15.7587 11.3707C15.5434 11.5292 15.3043 11.6325 15.0401 11.6781C14.9234 11.6983 14.8064 11.7038 14.6888 11.6992C14.5299 11.693 14.3771 11.659 14.2403 11.5757C14.1121 11.4977 14.0146 11.3898 13.9546 11.2507C13.9023 11.1295 13.8847 11.0018 13.8843 10.871C13.8837 10.6551 13.9363 10.4508 14.0219 10.2542C14.0518 10.1855 14.0819 10.1169 14.1161 10.0503C14.2201 9.84718 14.3464 9.65842 14.5087 9.49738C14.6711 9.33634 14.8552 9.20436 15.0713 9.12176C15.2088 9.06929 15.3505 9.03431 15.4968 9.01641C15.6051 9.00309 15.7137 9.00148 15.822 9.00659C15.9103 9.01076 15.9966 9.02879 16.0799 9.06162C16.1406 9.08557 16.1976 9.11489 16.2535 9.14799C16.3125 9.18284 16.3596 9.231 16.4015 9.28266C16.4377 9.32733 16.4615 9.38141 16.4822 9.43604C16.5125 9.51622 16.5087 9.59963 16.4994 9.68116C16.4934 9.73444 16.4724 9.78731 16.4511 9.83736C16.4108 9.93221 16.3599 10.0211 16.2934 10.1012C16.229 10.1788 16.1531 10.2423 16.069 10.2964C15.9395 10.3798 15.7959 10.4293 15.6467 10.4636C15.4781 10.5024 15.3071 10.522 15.1343 10.5252C15.093 10.5261 15.0515 10.5285 15.0102 10.5296C15.0013 10.5298 14.9915 10.5298 14.984 10.5262C14.9783 10.5235 14.9735 10.5149 14.9726 10.5084C14.9719 10.5036 14.9778 10.4936 14.9816 10.4932C15.0098 10.4904 15.0249 10.4674 15.046 10.4538C15.0752 10.4351 15.1052 10.4176 15.1345 10.3992C15.2797 10.3076 15.4039 10.1925 15.5154 10.0628C15.5953 9.96988 15.6653 9.87032 15.7196 9.76081C15.7573 9.68479 15.788 9.60515 15.7954 9.51931C15.7971 9.49873 15.794 9.47667 15.7881 9.45675C15.772 9.40267 15.7287 9.37321 15.6713 9.37536C15.6257 9.37711 15.5839 9.3907 15.5445 9.41424C15.4495 9.47101 15.3755 9.54958 15.3085 9.63582C15.2274 9.74036 15.1567 9.85175 15.0975 9.96988C15.05 10.0647 15.0035 10.1601 14.96 10.2568C14.9086 10.3713 14.8712 10.4904 14.8512 10.6147C14.8357 10.7113 14.8437 10.8066 14.8687 10.9003C14.8809 10.9459 14.9064 10.9858 14.9317 11.0256C14.967 11.0812 15.0153 11.1218 15.0732 11.1507C15.1255 11.1769 15.1823 11.1886 15.2412 11.1934C15.3327 11.2006 15.4219 11.1853 15.511 11.1697C15.5472 11.1634 15.5824 11.1511 15.6177 11.1399C15.7624 11.0939 15.8979 11.0281 16.0262 10.9476C16.0565 10.9285 16.0865 10.9088 16.1167 10.8897C16.1313 10.8804 16.1438 10.8671 16.1648 10.8706C16.1713 10.8717 16.1802 10.8628 16.1869 10.8573C16.1952 10.8504 16.2026 10.8425 16.2104 10.835C16.2122 10.8359 16.2141 10.8368 16.2158 10.8379V10.8378Z" fill="white"/>
<path d="M12.0725 11.6602C12.0619 11.6359 12.0675 11.6168 12.0749 11.5978C12.1014 11.5303 12.1282 11.4629 12.1545 11.3951C12.1806 11.3275 12.2057 11.2594 12.2319 11.1919C12.259 11.1223 12.2871 11.0532 12.3143 10.9835C12.3398 10.918 12.3643 10.8522 12.3898 10.7867C12.4184 10.713 12.4476 10.6394 12.4764 10.5656C12.502 10.5001 12.527 10.4345 12.5524 10.3691C12.5897 10.2734 12.6274 10.1779 12.6643 10.0821C12.6909 10.0135 12.7167 9.94461 12.7428 9.87586C12.7666 9.8133 12.7904 9.75088 12.8142 9.68845C12.8154 9.68536 12.8166 9.68226 12.8177 9.67903C12.8257 9.65361 12.8215 9.64769 12.7936 9.64607C12.7835 9.64553 12.7735 9.64594 12.7634 9.64594C12.638 9.64594 12.5126 9.64607 12.3872 9.64594C12.3303 9.64594 12.3202 9.6302 12.342 9.57625C12.3728 9.4997 12.4043 9.42328 12.4348 9.34659C12.4447 9.32197 12.4678 9.31794 12.4882 9.31175C12.5694 9.28699 12.6517 9.26574 12.7324 9.2395C12.9562 9.16672 13.1608 9.05734 13.3385 8.90302C13.486 8.77495 13.6179 8.63207 13.7188 8.46336C13.7554 8.40201 13.7914 8.34026 13.8261 8.27783C13.8421 8.24891 13.8689 8.23774 13.8974 8.23424C13.9349 8.22967 13.9731 8.23088 14.0111 8.23047C14.029 8.23034 14.0467 8.23263 14.0646 8.2329C14.1137 8.23357 14.1628 8.2333 14.2119 8.23478C14.2223 8.23505 14.2331 8.24043 14.2423 8.24568C14.2543 8.25254 14.2648 8.26182 14.2799 8.27299C14.2612 8.32223 14.2418 8.37429 14.2216 8.42623C14.1736 8.55 14.1254 8.67377 14.0773 8.79741C14.0534 8.85876 14.0288 8.91971 14.0061 8.98146C14.0003 8.99734 14.0004 9.01536 13.9972 9.03649C14.1425 9.04052 14.283 9.04442 14.4234 9.04819C14.4347 9.0533 14.4632 9.04469 14.4552 9.06703C14.4394 9.1125 14.4272 9.15151 14.4125 9.18945C14.3627 9.31847 14.312 9.44723 14.2617 9.57611C14.2605 9.57921 14.2597 9.58257 14.2581 9.58553C14.2215 9.6524 14.23 9.6458 14.1652 9.6458C14.051 9.64594 13.9368 9.6458 13.8226 9.6458C13.8102 9.6458 13.798 9.64675 13.7856 9.64607C13.7597 9.64486 13.7432 9.6567 13.7342 9.68038C13.7302 9.69074 13.725 9.70069 13.721 9.71119C13.6738 9.8316 13.6266 9.95214 13.5796 10.0727C13.5253 10.2119 13.4712 10.3513 13.4171 10.4907C13.3638 10.6279 13.3108 10.7654 13.2571 10.9025C13.2209 10.9949 13.1835 11.087 13.1475 11.1795C13.1118 11.271 13.0772 11.3629 13.042 11.4545C13.0215 11.5077 13.0008 11.5607 12.9802 11.6137C12.9633 11.6571 12.9521 11.6649 12.9057 11.6649C12.6459 11.6649 12.3861 11.6649 12.1265 11.6647C12.1079 11.6647 12.0892 11.6616 12.0727 11.6602H12.0725Z" fill="white"/>
<path d="M9.58774 9.07205C9.6059 9.06506 9.62083 9.05725 9.63684 9.05349C9.65514 9.04932 9.67438 9.04676 9.69321 9.04676C9.81416 9.04676 9.93511 9.04757 10.0561 9.04878C10.0862 9.04905 10.1163 9.05066 10.1462 9.05389C10.1603 9.05537 10.1739 9.06183 10.1875 9.06681C10.2018 9.07205 10.2074 9.08295 10.2078 9.09815C10.2088 9.13273 10.2117 9.16731 10.212 9.20188C10.2127 9.30359 10.2124 9.4053 10.2121 9.50701C10.2121 9.52571 10.21 9.54441 10.2085 9.56836C10.2443 9.53204 10.2611 9.4906 10.2813 9.45145C10.3324 9.35256 10.3919 9.25973 10.4715 9.18103C10.5286 9.12452 10.5937 9.07932 10.6678 9.04824C10.7227 9.0251 10.7811 9.01124 10.8401 9.00748C10.9148 9.00263 10.9907 8.99954 11.0637 9.02012C11.1098 9.03304 11.1544 9.05147 11.1984 9.07057C11.2125 9.07676 11.2218 9.09344 11.2342 9.10434C11.238 9.10757 11.2446 9.10771 11.2542 9.1104C11.251 9.12318 11.2487 9.13932 11.2431 9.15439C11.2156 9.22758 11.1877 9.30036 11.1594 9.37328C11.1103 9.50028 11.0609 9.62715 11.0114 9.75402C10.9911 9.80595 10.97 9.85762 10.9505 9.90995C10.9447 9.92542 10.935 9.93026 10.9183 9.9304C10.9124 9.92085 10.9059 9.91062 10.8996 9.90026C10.8266 9.77891 10.7207 9.70774 10.5783 9.69792C10.5174 9.69375 10.4586 9.70868 10.4041 9.73895C10.3253 9.78281 10.2623 9.84376 10.2085 9.91506C10.1494 9.99323 10.1053 10.0801 10.0675 10.1697C10.0224 10.2767 9.98206 10.3857 9.93969 10.4937C9.90255 10.5883 9.86515 10.6826 9.82842 10.7773C9.78873 10.8793 9.74985 10.9815 9.7103 11.0835C9.67357 11.1782 9.6363 11.2727 9.59985 11.3674C9.57374 11.4351 9.54939 11.5034 9.52289 11.5708C9.51253 11.5973 9.498 11.6222 9.48589 11.648C9.47984 11.6609 9.46988 11.6658 9.45629 11.6653C9.44849 11.665 9.44055 11.6654 9.43275 11.6654C9.17404 11.6654 8.91532 11.6654 8.65661 11.6654C8.64436 11.6654 8.63185 11.6658 8.61974 11.664C8.59768 11.6607 8.58907 11.6482 8.59378 11.6262C8.59701 11.611 8.60185 11.5961 8.60737 11.5814C8.64208 11.4897 8.67665 11.3978 8.7123 11.3063C8.76087 11.1815 8.81065 11.0571 8.85922 10.9324C8.8864 10.8627 8.91196 10.7924 8.93886 10.7227C8.96335 10.6593 8.98905 10.5962 9.0138 10.533C9.05134 10.4375 9.08847 10.3418 9.12587 10.2463C9.163 10.1518 9.2004 10.0574 9.2374 9.96296C9.27157 9.87564 9.30521 9.78819 9.33911 9.70088C9.36737 9.62809 9.39575 9.55531 9.42414 9.48253C9.46813 9.37032 9.51199 9.25825 9.55626 9.14618C9.56608 9.12143 9.57697 9.09694 9.58747 9.07246L9.58774 9.07205Z" fill="white"/>
<path d="M11.3531 11.6606C11.3404 11.6618 11.3261 11.6642 11.3118 11.6642C11.0488 11.6645 10.7857 11.6643 10.5226 11.6643C10.5204 11.6643 10.5182 11.6643 10.5159 11.6643C10.4717 11.6646 10.4597 11.6545 10.4746 11.6058C10.4905 11.5537 10.5132 11.5036 10.533 11.4527C10.5528 11.4017 10.5722 11.3506 10.5921 11.2997C10.6188 11.2313 10.6461 11.1629 10.6728 11.0944C10.6893 11.0518 10.7052 11.0089 10.7216 10.9662C10.7485 10.8965 10.776 10.8271 10.8029 10.7574C10.8406 10.6596 10.8778 10.5617 10.9158 10.464C10.94 10.4017 10.9655 10.3398 10.9899 10.2775C11.028 10.1799 11.0652 10.0819 11.1032 9.98424C11.1278 9.92087 11.1531 9.85777 11.178 9.79441C11.215 9.69996 11.2514 9.60538 11.2886 9.51094C11.3113 9.45295 11.3348 9.3951 11.358 9.33725C11.3771 9.28962 11.3961 9.24213 11.4148 9.19531C11.4896 9.19814 11.5572 9.22585 11.6271 9.24765C11.7025 9.27133 11.7812 9.28491 11.859 9.30039C11.9623 9.32097 12.0674 9.32649 12.1721 9.33415C12.1945 9.33577 12.2173 9.33725 12.229 9.35985C12.2365 9.35703 12.2415 9.35514 12.2471 9.35312C12.2486 9.35716 12.2506 9.35999 12.2506 9.36295C12.2509 9.399 12.2314 9.42914 12.2194 9.46102C12.1778 9.57175 12.1335 9.68139 12.0904 9.79145C12.0547 9.88293 12.0194 9.97442 11.9838 10.066C11.9475 10.1597 11.9113 10.2533 11.8749 10.3468C11.8383 10.4403 11.8011 10.5336 11.7647 10.6271C11.7387 10.6935 11.7137 10.7604 11.6879 10.827C11.6608 10.8967 11.6332 10.9661 11.6061 11.0358C11.5806 11.1013 11.5556 11.167 11.5301 11.2325C11.4922 11.3291 11.4542 11.4255 11.4164 11.5221C11.4083 11.5428 11.4017 11.5644 11.3924 11.5846C11.381 11.6094 11.3674 11.6334 11.3531 11.6607V11.6606Z" fill="white"/>
<path d="M12.1139 7.97359C12.1341 7.97359 12.1542 7.97211 12.1743 7.974C12.1904 7.97548 12.2063 7.98086 12.2223 7.98476C12.2309 7.98691 12.2393 7.98974 12.2479 7.99203C12.2695 7.99768 12.2924 8.00023 12.3126 8.00911C12.3684 8.0336 12.4229 8.06024 12.4743 8.09454C12.5209 8.12549 12.5627 8.15966 12.5942 8.20473C12.6628 8.30321 12.7119 8.40922 12.7127 8.53273C12.7131 8.59542 12.7127 8.65745 12.6951 8.71853C12.6612 8.83638 12.595 8.93244 12.4989 9.00751C12.3597 9.11635 12.2001 9.15738 12.026 9.13586C11.8523 9.11447 11.7104 9.0328 11.6056 8.89221C11.539 8.80301 11.5073 8.70023 11.5007 8.58937C11.4947 8.48927 11.5113 8.39254 11.556 8.30321C11.6032 8.2089 11.6713 8.131 11.7618 8.07396C11.8268 8.03292 11.8969 8.00346 11.9709 7.9857C12.017 7.97467 12.0657 7.974 12.1134 7.96875L12.1139 7.97346V7.97359Z" fill="white"/>
<path d="M9.18271 17.982C9.1924 17.968 9.2072 17.9578 9.22684 17.9513C9.24648 17.9449 9.27258 17.9431 9.30487 17.946C9.35546 17.9504 9.39313 17.9632 9.41775 17.9846C9.44237 18.0058 9.45609 18.0372 9.45892 18.0785L9.62332 18.0929C9.62346 18.0504 9.61713 18.0127 9.60408 17.9797C9.59103 17.9468 9.57179 17.9188 9.5461 17.896C9.52053 17.8733 9.48919 17.8551 9.45219 17.8416C9.41519 17.8281 9.37241 17.8191 9.32398 17.8149C9.25657 17.809 9.19953 17.814 9.15285 17.8296C9.10616 17.8453 9.06984 17.8699 9.04387 17.9034C9.01791 17.9369 9.00284 17.9772 8.9988 18.0243C8.99315 18.0888 9.00755 18.1406 9.04199 18.1794C9.07643 18.2181 9.13509 18.2493 9.21796 18.2729L9.3194 18.3019C9.34496 18.3091 9.36501 18.3173 9.37941 18.3263C9.3938 18.3353 9.40389 18.3458 9.40954 18.3576C9.41519 18.3695 9.41734 18.3837 9.41586 18.4007C9.41439 18.4175 9.40847 18.432 9.39824 18.4443C9.38802 18.4565 9.37281 18.4654 9.3529 18.4711C9.33299 18.4767 9.30716 18.4782 9.27554 18.4754C9.24541 18.4727 9.22146 18.4669 9.20383 18.4579C9.18621 18.4489 9.17276 18.4363 9.16361 18.4203C9.15433 18.4043 9.1476 18.3844 9.14329 18.3607L8.98145 18.3667C8.98306 18.3972 8.98952 18.4263 9.00082 18.4538C9.01225 18.4814 9.02907 18.5056 9.05127 18.5268C9.07347 18.5479 9.10186 18.5652 9.13643 18.5788C9.17101 18.5924 9.21244 18.6014 9.26101 18.6056C9.32075 18.6108 9.37389 18.6068 9.4203 18.5936C9.46672 18.5803 9.50399 18.558 9.53184 18.5265C9.55968 18.495 9.57583 18.4546 9.58013 18.4054C9.58404 18.3611 9.57812 18.3235 9.56251 18.2924C9.5469 18.2613 9.52188 18.2352 9.48757 18.2141C9.45327 18.1931 9.41035 18.1753 9.35842 18.1608L9.26101 18.1331C9.23397 18.1265 9.21339 18.1179 9.19899 18.1075C9.18473 18.097 9.17531 18.0855 9.17074 18.0727C9.16616 18.0599 9.16455 18.0462 9.1659 18.0314C9.16751 18.0124 9.17329 17.9959 9.18298 17.9819L9.18271 17.982Z" fill="white"/>
<path d="M8.71499 18.0179L8.60467 17.9981C8.55193 17.9887 8.50606 17.9865 8.46718 17.9918C8.42829 17.997 8.39547 18.0083 8.36869 18.0258C8.34192 18.0432 8.32067 18.0663 8.30479 18.095C8.28891 18.1236 8.27761 18.1567 8.27089 18.1943C8.26429 18.2311 8.26362 18.2649 8.26887 18.296C8.27412 18.327 8.28622 18.3549 8.30546 18.3799C8.3247 18.4048 8.35161 18.4263 8.38632 18.4444C8.42103 18.4624 8.46516 18.4761 8.51857 18.4857L8.78616 18.5334L8.91895 17.79L8.76074 17.7617L8.71499 18.0179ZM8.47713 18.3365C8.46018 18.3292 8.44726 18.32 8.43852 18.3092C8.42977 18.2983 8.42426 18.2855 8.42224 18.2708C8.42022 18.2561 8.4209 18.2391 8.42439 18.2197C8.4287 18.1953 8.4365 18.1753 8.44753 18.1593C8.45857 18.1434 8.47485 18.1328 8.4961 18.1277C8.51749 18.1225 8.54575 18.1231 8.58126 18.1294L8.69158 18.1491L8.65136 18.374L8.54198 18.3545C8.51561 18.3498 8.49395 18.3437 8.477 18.3365H8.47713Z" fill="white"/>
<path d="M8.03772 17.896L7.92754 17.8658C7.91731 17.863 7.90642 17.8604 7.89458 17.8579C7.89444 17.8579 7.89417 17.8579 7.89404 17.8579L7.84063 17.5538L7.67232 17.5078L7.7412 17.853C7.72546 17.8564 7.71066 17.8607 7.69708 17.8666C7.66479 17.8805 7.63815 17.9005 7.61703 17.927C7.5959 17.9534 7.58016 17.9857 7.5698 18.0238C7.56092 18.0565 7.55796 18.0874 7.56092 18.1167C7.56388 18.1461 7.57371 18.1738 7.59025 18.1999C7.60694 18.226 7.63156 18.2495 7.66411 18.2705C7.69681 18.2915 7.73892 18.309 7.79058 18.3231L8.06503 18.398L8.26401 17.6695L8.11091 17.6277L8.03759 17.8961L8.03772 17.896ZM7.75641 18.1672C7.73878 18.154 7.72789 18.1385 7.72358 18.1209C7.71927 18.1033 7.72022 18.0832 7.72627 18.0608C7.73259 18.0376 7.74188 18.0189 7.75412 18.0048C7.76636 17.9907 7.78318 17.9819 7.80457 17.9786C7.82596 17.9752 7.85327 17.9782 7.88664 17.9873L8.00395 18.0193L7.94597 18.2315L7.83471 18.2011C7.8 18.1917 7.7739 18.1802 7.75627 18.167L7.75641 18.1672Z" fill="white"/>
<path d="M7.44143 17.4191L7.19482 18.1328L7.35174 18.187L7.59834 17.4733L7.44143 17.4191Z" fill="white"/>
<path d="M6.99252 17.2422L6.75667 17.8051L6.54303 17.7155L6.48706 17.8492L7.06745 18.0925L7.12342 17.9587L6.91085 17.8697L7.1467 17.3068L6.99252 17.2422Z" fill="white"/>
<path d="M6.23939 16.875L6.16217 16.9861L6.49945 17.1628L6.41402 17.3258L6.11427 17.1688L6.05184 17.2878L6.35173 17.4448L6.2737 17.5938L5.95511 17.427L5.89282 17.5459L6.35671 17.7889L6.70704 17.1199L6.23939 16.875Z" fill="white"/>
<path d="M5.93534 17.1783C5.93763 17.1386 5.92929 17.1014 5.91032 17.0666C5.89135 17.0319 5.86296 17.0027 5.82529 16.9792C5.78816 16.9561 5.74982 16.9435 5.71026 16.9417C5.67071 16.9398 5.63331 16.9485 5.59806 16.9676C5.56281 16.9867 5.53267 17.0163 5.50765 17.0564C5.48262 17.0965 5.46904 17.1362 5.46688 17.1756C5.46473 17.215 5.47307 17.252 5.49177 17.2865C5.51047 17.3211 5.53927 17.3505 5.57815 17.3747C5.61528 17.3979 5.65349 17.4103 5.69264 17.412C5.73192 17.4136 5.76905 17.405 5.80417 17.3862C5.83928 17.3673 5.86928 17.3379 5.89431 17.2978C5.91933 17.2577 5.93305 17.2179 5.93534 17.1782V17.1783ZM5.84144 17.2649C5.82166 17.2967 5.79919 17.32 5.77403 17.335C5.74887 17.3501 5.72224 17.357 5.69398 17.3555C5.66573 17.3541 5.63734 17.3445 5.60855 17.3266C5.56604 17.3001 5.54021 17.2659 5.53106 17.2239C5.52191 17.1821 5.532 17.1374 5.56146 17.0902C5.58124 17.0584 5.60371 17.0352 5.62887 17.0201C5.65403 17.005 5.6808 16.998 5.70919 16.9992C5.73757 17.0003 5.76609 17.0099 5.79489 17.0278C5.83794 17.0547 5.8639 17.0891 5.87251 17.1311C5.88126 17.1731 5.87076 17.2177 5.8413 17.2649H5.84144Z" fill="white"/>
<path d="M5.74568 17.1615L5.71729 17.1439L5.72684 17.0638L5.66845 17.0273L5.65917 17.1257C5.64922 17.1253 5.6402 17.1268 5.63213 17.1305C5.61989 17.1362 5.60912 17.1465 5.59971 17.1615C5.59231 17.1735 5.588 17.1856 5.58706 17.1978C5.58612 17.21 5.58975 17.2226 5.59796 17.2352C5.6063 17.2478 5.62029 17.2604 5.64007 17.2727L5.71904 17.322L5.83716 17.1327L5.78429 17.0996L5.74568 17.1615ZM5.64935 17.211C5.64774 17.2049 5.64895 17.1986 5.65298 17.192C5.65675 17.1861 5.66173 17.1821 5.66792 17.1802C5.6741 17.1783 5.68325 17.181 5.69523 17.1885L5.71944 17.2036L5.69307 17.2457L5.67155 17.2322C5.65836 17.224 5.65096 17.2169 5.64935 17.2109V17.211Z" fill="white"/>
<path d="M5.46369 16.6829L5.59822 16.782C5.61814 16.7503 5.63334 16.7195 5.64397 16.6896C5.6546 16.6597 5.65998 16.6311 5.66011 16.6036C5.66011 16.5762 5.65513 16.5494 5.64491 16.5235C5.63468 16.4975 5.61988 16.4727 5.60038 16.4492C5.58087 16.4256 5.55638 16.403 5.52692 16.3813C5.45373 16.3273 5.38229 16.3051 5.3126 16.3147C5.24291 16.3242 5.18008 16.367 5.12398 16.443L4.83594 16.8338L4.97047 16.933L5.25919 16.5414C5.28637 16.5045 5.31489 16.4815 5.34476 16.4725C5.37462 16.4635 5.40718 16.4718 5.44243 16.4978C5.46005 16.5107 5.4731 16.5243 5.48145 16.5384C5.48992 16.5525 5.49463 16.5672 5.49571 16.5824C5.49678 16.5976 5.4945 16.6137 5.48898 16.6307C5.48346 16.6476 5.47499 16.6651 5.46355 16.6829H5.46369Z" fill="white"/>
<path d="M4.95237 16.4464C4.98587 16.4091 5.01251 16.3712 5.03242 16.3327C5.05233 16.2942 5.06525 16.2563 5.0713 16.219C5.07722 16.1818 5.07642 16.145 5.06875 16.1087C5.06108 16.0724 5.04695 16.0377 5.0265 16.0046C5.00605 15.9715 4.97928 15.9401 4.94618 15.9104C4.90421 15.8727 4.86062 15.8456 4.81555 15.8287C4.77048 15.8119 4.72474 15.8056 4.67819 15.8099C4.63177 15.8141 4.58563 15.8291 4.53975 15.8548C4.49401 15.8805 4.44988 15.917 4.4075 15.9642C4.374 16.0015 4.34749 16.0392 4.32785 16.0775C4.30821 16.1157 4.29543 16.1535 4.28937 16.1908C4.28346 16.228 4.28413 16.2646 4.29153 16.3007C4.29893 16.3367 4.31292 16.3713 4.3335 16.4044C4.35395 16.4375 4.38073 16.4689 4.41382 16.4986C4.45526 16.5359 4.49871 16.5629 4.54405 16.58C4.58939 16.5971 4.63527 16.6034 4.68182 16.5992C4.72823 16.5949 4.77438 16.5803 4.82026 16.5551C4.86613 16.5299 4.91026 16.4938 4.95264 16.4465L4.95237 16.4464ZM4.90475 16.1947C4.89869 16.2167 4.88874 16.2392 4.87475 16.2622C4.86075 16.2852 4.84313 16.3085 4.82201 16.332C4.79564 16.3614 4.76913 16.3852 4.74236 16.4033C4.71559 16.4215 4.68895 16.4333 4.66231 16.4387C4.63567 16.4441 4.60971 16.4432 4.58468 16.4358C4.55952 16.4284 4.53517 16.4141 4.51163 16.3929C4.49279 16.3759 4.47813 16.3581 4.46791 16.3394C4.45768 16.3207 4.45176 16.301 4.45015 16.2801C4.44853 16.2593 4.45055 16.2376 4.45634 16.2154C4.46212 16.1931 4.47208 16.1705 4.48607 16.1475C4.50006 16.1244 4.51768 16.1012 4.53881 16.0776C4.56518 16.0483 4.59195 16.0246 4.61886 16.0066C4.6459 15.9887 4.6724 15.977 4.69864 15.9716C4.72487 15.9662 4.75057 15.967 4.77586 15.9742C4.80115 15.9813 4.82564 15.9954 4.84932 16.0167C4.86815 16.0336 4.88295 16.0515 4.89345 16.0705C4.90394 16.0895 4.90999 16.1092 4.91161 16.1302C4.91322 16.1511 4.91107 16.1726 4.90502 16.1947H4.90475Z" fill="white"/>
<path d="M4.47606 15.48L4.2904 15.6492L4.14968 15.6497L4.27291 15.2571L4.149 15.1211L3.98769 15.6462L3.60938 15.6501L3.73046 15.783L4.14981 15.7772L3.91787 15.9886L4.03034 16.1122L4.58854 15.6035L4.47606 15.48Z" fill="white"/>
<path d="M3.78863 14.6445L3.67145 14.7125L3.90191 15.0155L3.7554 15.1268L3.5505 14.8575L3.44354 14.9388L3.64844 15.2082L3.51458 15.31L3.2969 15.0238L3.18994 15.1051L3.50691 15.5218L4.10802 15.0647L3.78863 14.6445Z" fill="white"/>
<path d="M3.51705 14.2208L2.87671 14.6211L2.96471 14.7619L3.60505 14.3616L3.51705 14.2208Z" fill="white"/>
<path d="M3.36947 13.9724L2.93276 14.2048L3.2204 13.6923L3.15138 13.5625L2.48462 13.9173L2.55821 14.0554L2.99573 13.8227L2.7062 14.3337L2.7763 14.4654L3.44293 14.1106L3.36947 13.9724Z" fill="white"/>
<path d="M2.9669 13.1341L2.79039 13.1396L2.69056 12.8741L2.82725 12.7629L2.76657 12.6016L2.1543 13.119L2.22358 13.3032L3.02569 13.2907L2.9669 13.1342V13.1341ZM2.6506 13.1495L2.32664 13.1635L2.5793 12.9597L2.65074 13.1495H2.6506Z" fill="white"/>
<path d="M2.6137 12.0198C2.5985 11.956 2.57711 11.9059 2.54953 11.8697C2.52208 11.8336 2.48979 11.8097 2.45307 11.7982C2.4162 11.7867 2.37651 11.7861 2.334 11.7962C2.30454 11.8032 2.27884 11.8149 2.25691 11.8309C2.23498 11.847 2.21776 11.8685 2.20498 11.8954C2.19664 11.9131 2.19099 11.9339 2.18722 11.9573C2.16543 11.9318 2.14228 11.9137 2.11766 11.9038C2.08349 11.8898 2.04649 11.8876 2.00681 11.8972C1.96846 11.9063 1.93712 11.9228 1.91303 11.9463C1.88895 11.9698 1.87361 12.0021 1.86716 12.0432C1.8607 12.0842 1.865 12.1367 1.88034 12.2004L1.9503 12.4925L2.68474 12.3168L2.61357 12.0195L2.6137 12.0198ZM2.28557 12.0303C2.28866 12.0095 2.2966 11.9931 2.30965 11.981C2.3227 11.9688 2.34046 11.96 2.36319 11.9546C2.38512 11.9494 2.40463 11.9489 2.42158 11.9532C2.43854 11.9575 2.45307 11.9682 2.46531 11.9857C2.47742 12.0031 2.48751 12.0286 2.49558 12.0623L2.52733 12.1949L2.32472 12.2434L2.29229 12.1076C2.28489 12.0768 2.28274 12.051 2.2857 12.0304L2.28557 12.0303ZM1.9982 12.118C1.99981 12.0987 2.00573 12.0835 2.01609 12.0724C2.02645 12.0612 2.04192 12.0531 2.0625 12.0481C2.08242 12.0434 2.09977 12.0434 2.1147 12.0481C2.12964 12.0529 2.14242 12.0629 2.15291 12.0781C2.16341 12.0933 2.17202 12.1147 2.17861 12.1422L2.20942 12.2708L2.0356 12.3124L2.00681 12.192C1.99954 12.1618 1.99672 12.1371 1.99833 12.1178L1.9982 12.118Z" fill="white"/>
<path d="M2.1605 11.7262C2.21014 11.7194 2.25494 11.7077 2.29503 11.6912C2.33512 11.6746 2.36943 11.6542 2.39809 11.6296C2.42674 11.6049 2.44988 11.5764 2.46751 11.5437C2.48513 11.511 2.49684 11.4755 2.50249 11.437C2.50827 11.3986 2.50814 11.3573 2.50208 11.3133C2.49442 11.2574 2.47881 11.2085 2.45527 11.1665C2.43172 11.1245 2.40091 11.0901 2.3627 11.0633C2.3245 11.0365 2.27969 11.0181 2.22803 11.0081C2.1765 10.998 2.11933 10.9974 2.05636 11.006C2.00672 11.0127 1.96205 11.0244 1.92236 11.0408C1.88268 11.0574 1.84837 11.0778 1.81971 11.1024C1.79106 11.1271 1.76792 11.1554 1.75029 11.1877C1.73267 11.22 1.72096 11.2554 1.71518 11.294C1.70939 11.3325 1.70953 11.3738 1.71558 11.4178C1.72312 11.473 1.73872 11.5218 1.76227 11.564C1.78581 11.6064 1.81675 11.6409 1.85496 11.6678C1.89317 11.6945 1.93784 11.7131 1.9891 11.7236C2.04035 11.7341 2.0974 11.7349 2.16023 11.7263L2.1605 11.7262ZM1.88658 11.4802C1.87218 11.4583 1.8629 11.4317 1.85859 11.4003C1.8551 11.3751 1.85563 11.3521 1.8598 11.3313C1.86411 11.3104 1.87232 11.2915 1.88456 11.2745C1.8968 11.2576 1.91241 11.2424 1.93124 11.2292C1.95008 11.2159 1.97228 11.2051 1.99771 11.1966C2.02327 11.1881 2.05165 11.1818 2.08314 11.1775C2.12229 11.1721 2.15794 11.1713 2.19009 11.1751C2.22225 11.1789 2.2501 11.1872 2.27351 11.2C2.29692 11.2128 2.31602 11.2301 2.33082 11.2519C2.34562 11.2737 2.35504 11.3003 2.35934 11.3318C2.36284 11.357 2.36244 11.3801 2.35813 11.4014C2.35396 11.4226 2.34575 11.4417 2.33338 11.4587C2.32113 11.4756 2.30553 11.4906 2.28669 11.5035C2.26786 11.5164 2.24566 11.5272 2.2201 11.5355C2.19453 11.544 2.16615 11.5503 2.13466 11.5548C2.09551 11.5601 2.05986 11.5611 2.02771 11.5577C1.99555 11.5542 1.96757 11.546 1.94376 11.533C1.91994 11.5199 1.90084 11.5024 1.88644 11.4805L1.88658 11.4802Z" fill="white"/>
<path d="M1.814 10.7265L2.42372 10.6996L2.41632 10.5326L1.8066 10.5595L1.79637 10.3281L1.65161 10.3346L1.67946 10.9633L1.82422 10.957L1.814 10.7265Z" fill="white"/>
<path d="M1.8066 9.99467L2.41619 10.0214L2.42358 9.85448L1.81386 9.82771L1.82409 9.5963L1.67933 9.58984L1.65161 10.2187L1.79637 10.225L1.8066 9.99467Z" fill="white"/>
<path d="M2.50743 9.044L2.36603 9.00781L2.32123 9.36043L1.71581 9.28334L1.69482 9.44815L2.44393 9.5434L2.50743 9.044Z" fill="white"/>
<path d="M2.63388 8.42924L2.50593 8.38497L2.42723 8.75751L2.24708 8.71943L2.31704 8.38834L2.1856 8.36062L2.11577 8.69172L1.9511 8.65701L2.0255 8.30506L1.89406 8.27734L1.78589 8.78953L2.52477 8.94572L2.63388 8.42924Z" fill="white"/>
<path d="M3.34555 5.58855C3.38094 5.61546 3.41592 5.63066 3.45049 5.63403C3.4852 5.63739 3.52059 5.63026 3.55664 5.61264C3.5927 5.59501 3.63077 5.56811 3.67073 5.53205L3.7462 5.46451C3.76625 5.44527 3.78455 5.43236 3.80096 5.42577C3.81751 5.41931 3.83231 5.41756 3.84549 5.42052C3.85868 5.42348 3.87119 5.42953 3.88303 5.43855C3.8981 5.45012 3.90899 5.4637 3.91572 5.47945C3.92231 5.49519 3.92312 5.51308 3.91801 5.53313C3.9129 5.55317 3.90052 5.57618 3.88088 5.60187C3.85007 5.64224 3.81912 5.66712 3.78791 5.67668C3.7567 5.68623 3.72293 5.68098 3.6866 5.6612L3.58651 5.79238C3.6223 5.81525 3.65754 5.82991 3.69239 5.83664C3.72723 5.84323 3.76114 5.84189 3.7941 5.83234C3.82706 5.82292 3.85908 5.8061 3.89029 5.78202C3.92151 5.75794 3.95191 5.72659 3.98138 5.68784C4.02241 5.63403 4.04878 5.58317 4.06048 5.53528C4.07219 5.48738 4.07084 5.44352 4.05631 5.40384C4.04192 5.36401 4.01595 5.32984 3.97828 5.30118C3.92675 5.2619 3.87536 5.24643 3.8241 5.25477C3.77298 5.26324 3.71526 5.29607 3.65095 5.35352L3.57211 5.42375C3.55234 5.44151 3.53485 5.45402 3.51951 5.46142C3.50417 5.46882 3.48991 5.47164 3.47686 5.47016C3.46381 5.46868 3.45063 5.46276 3.43717 5.45254C3.42372 5.44231 3.41457 5.42953 3.40973 5.41433C3.40488 5.39913 3.40542 5.38164 3.41134 5.36173C3.41726 5.34181 3.42977 5.31921 3.44901 5.29405C3.46744 5.26997 3.48507 5.25288 3.50215 5.24279C3.51911 5.2327 3.53686 5.228 3.5553 5.2288C3.57373 5.22961 3.59418 5.23445 3.61651 5.2436L3.69804 5.10355C3.6714 5.08848 3.64328 5.07839 3.61395 5.07341C3.58463 5.0683 3.55503 5.06951 3.52543 5.07704C3.4957 5.08458 3.46596 5.09924 3.43596 5.12117C3.40596 5.1431 3.37623 5.17337 3.34663 5.21199C3.3103 5.25961 3.28528 5.3067 3.27169 5.35298C3.2581 5.3994 3.25716 5.44272 3.26887 5.48321C3.28057 5.52371 3.30613 5.55882 3.34528 5.58882L3.34555 5.58855Z" fill="white"/>
<path d="M4.32563 5.23949L4.13351 5.06392L4.20912 4.98118C4.24531 4.94163 4.27154 4.90396 4.28782 4.86831C4.30423 4.83265 4.31217 4.79889 4.31177 4.76687C4.31137 4.73498 4.30329 4.70458 4.28742 4.67592C4.27168 4.64713 4.24975 4.61995 4.22163 4.59426C4.19405 4.5691 4.1658 4.5504 4.13674 4.53815C4.10768 4.52605 4.07754 4.52134 4.04633 4.5243C4.01498 4.52726 3.98242 4.53856 3.94865 4.5582C3.91488 4.57798 3.87964 4.60784 3.84304 4.64794L3.65967 4.84853L4.21719 5.35802L4.32563 5.23936V5.23949ZM3.94139 4.73794C3.95942 4.71816 3.9761 4.7031 3.99144 4.6926C4.00664 4.68224 4.0213 4.67619 4.03516 4.67457C4.04902 4.67296 4.06274 4.67525 4.07633 4.6813C4.08978 4.68749 4.10391 4.69718 4.11844 4.7105C4.1366 4.72718 4.14952 4.7444 4.15705 4.76229C4.16459 4.78019 4.16485 4.79956 4.15772 4.82028C4.15073 4.841 4.13499 4.86467 4.11077 4.89131L4.03516 4.97405L3.86645 4.81987L3.94139 4.73794Z" fill="white"/>
<path d="M4.78772 4.76137L4.59977 4.5562L4.68399 4.47911C4.6918 4.47198 4.69987 4.46404 4.70821 4.45543C4.70834 4.45529 4.70848 4.45516 4.70861 4.45502L4.99437 4.57207L5.12312 4.45422L4.79458 4.32843C4.8001 4.31322 4.80413 4.29842 4.80642 4.28389C4.81194 4.24918 4.80911 4.21595 4.79808 4.18393C4.78705 4.15205 4.76808 4.12151 4.74144 4.09231C4.71857 4.06742 4.69395 4.04832 4.66758 4.03513C4.64121 4.02195 4.61255 4.01549 4.58161 4.01563C4.55067 4.01576 4.51757 4.0241 4.48246 4.04052C4.44734 4.05693 4.40994 4.0833 4.37039 4.11949L4.16064 4.31161L4.67067 4.86846L4.78772 4.76137ZM4.44976 4.22174C4.47627 4.19739 4.49981 4.18138 4.5204 4.17357C4.54098 4.16577 4.55982 4.16469 4.57704 4.17048C4.59426 4.17626 4.61067 4.1877 4.62641 4.20479C4.64256 4.22241 4.65345 4.2403 4.65884 4.2582C4.66422 4.27623 4.66274 4.29506 4.65413 4.31484C4.64552 4.33475 4.62843 4.35627 4.603 4.37955L4.51327 4.46175L4.3646 4.2995L4.44963 4.2216L4.44976 4.22174Z" fill="white"/>
<path d="M4.84627 3.7164L4.7168 3.82031L5.18947 4.40925L5.31894 4.30533L4.84627 3.7164Z" fill="white"/>
<path d="M5.22003 3.61744L5.57104 4.11671L5.70773 4.02052L5.35672 3.52138L5.54615 3.38806L5.46287 3.26953L4.948 3.63157L5.03141 3.7501L5.22003 3.61744Z" fill="white"/>
<path d="M6.42271 3.58004L6.3697 3.45546L6.04076 3.64717L5.94806 3.48829L6.24041 3.31769L6.17274 3.20172L5.88039 3.37218L5.79577 3.22688L6.10641 3.04579L6.03874 2.92969L5.58643 3.19338L5.96676 3.84588L6.42271 3.58004Z" fill="white"/>
<path d="M6.47262 3.07355L6.44074 3.0079L6.47074 2.99337L6.53343 3.04409L6.59532 3.01409L6.51689 2.95382C6.52254 2.94561 6.52603 2.93713 6.52725 2.92839C6.52899 2.91507 6.52603 2.9004 6.51823 2.88453C6.51204 2.87188 6.50411 2.86179 6.49415 2.85439C6.48433 2.84699 6.47182 2.8435 6.45661 2.84376C6.44141 2.84403 6.42338 2.84928 6.40253 2.85951L6.31885 2.90014L6.41639 3.10086L6.47249 3.07355H6.47262ZM6.42015 2.9074C6.43415 2.90067 6.4441 2.89812 6.45002 2.9C6.45594 2.90175 6.46065 2.90619 6.46401 2.91319C6.46711 2.91951 6.46778 2.92583 6.46617 2.93216C6.46455 2.93848 6.45729 2.94467 6.44464 2.95086L6.41894 2.96337L6.39728 2.9187L6.42015 2.90767V2.9074Z" fill="white"/>
<path d="M6.32674 3.16034C6.35917 3.18348 6.39509 3.19612 6.43464 3.19854C6.4742 3.20097 6.51388 3.19235 6.55384 3.17298C6.59313 3.15388 6.62407 3.12805 6.64667 3.09549C6.66927 3.06293 6.68179 3.02661 6.68434 2.98665C6.6869 2.94669 6.67775 2.90539 6.65717 2.86287C6.63658 2.82036 6.61008 2.7878 6.57792 2.76493C6.54577 2.74219 6.50998 2.72955 6.4707 2.72699C6.43141 2.72444 6.39119 2.73331 6.35002 2.75323C6.31073 2.77233 6.27993 2.79803 6.25759 2.83045C6.23526 2.86287 6.22288 2.89893 6.22019 2.93862C6.2175 2.97831 6.22651 3.01948 6.2471 3.06185C6.26768 3.10437 6.29419 3.13719 6.32661 3.1602L6.32674 3.16034ZM6.30508 2.86153C6.32123 2.83839 6.34464 2.81942 6.37504 2.80462C6.42011 2.78269 6.46276 2.77906 6.50312 2.79359C6.54348 2.80812 6.57577 2.84041 6.60012 2.89045C6.6164 2.92409 6.62434 2.95557 6.62367 2.9849C6.62299 3.01423 6.61465 3.0406 6.59864 3.06414C6.58263 3.08769 6.55936 3.10679 6.52895 3.12145C6.48334 3.14365 6.44029 3.14729 6.4002 3.13222C6.35997 3.11728 6.32769 3.08473 6.30347 3.03454C6.28719 3.00091 6.27925 2.96943 6.27993 2.9401C6.2806 2.91077 6.28894 2.88453 6.30522 2.86139L6.30508 2.86153Z" fill="white"/>
<path d="M6.95859 3.23043C6.98187 3.24523 7.00716 3.25505 7.03447 3.2603C7.06191 3.26541 7.09071 3.26608 7.12098 3.26204C7.15125 3.25801 7.1834 3.2494 7.21757 3.23608C7.3022 3.20285 7.35911 3.15415 7.38803 3.09011C7.41709 3.02607 7.41427 2.95005 7.37969 2.86207L7.2021 2.41016L7.04658 2.47124L7.22443 2.92409C7.24125 2.96674 7.24542 3.0032 7.23722 3.03333C7.22901 3.06347 7.20452 3.08647 7.16376 3.10248C7.14344 3.11042 7.12501 3.11432 7.1086 3.11392C7.09218 3.11352 7.07725 3.10975 7.0638 3.10248C7.05034 3.09522 7.03797 3.08486 7.02653 3.07114C7.0151 3.05741 7.00487 3.041 6.99586 3.0219L6.84033 3.08298C6.85661 3.11674 6.87464 3.14607 6.89415 3.17096C6.91379 3.19585 6.93518 3.21563 6.95846 3.23043H6.95859Z" fill="white"/>
<path d="M7.52299 2.84435C7.54492 2.88175 7.57008 2.91283 7.59847 2.93785C7.62685 2.96274 7.65833 2.98171 7.69318 2.99449C7.72802 3.00728 7.76489 3.01387 7.80377 3.01427C7.84265 3.01454 7.88355 3.00862 7.92633 2.99651C7.98055 2.98104 8.02683 2.95884 8.06517 2.92965C8.10338 2.90045 8.13312 2.86507 8.15437 2.8235C8.1755 2.78193 8.18747 2.73497 8.19016 2.6825C8.19285 2.63003 8.18558 2.57326 8.16823 2.51231C8.15451 2.46415 8.13675 2.4215 8.11495 2.3845C8.09302 2.34751 8.068 2.31643 8.03961 2.29154C8.01122 2.26665 7.97988 2.24768 7.94544 2.23476C7.91099 2.22185 7.87427 2.21526 7.83539 2.21485C7.7965 2.21458 7.7556 2.2205 7.71282 2.23261C7.65928 2.24781 7.61313 2.27015 7.57452 2.29934C7.53591 2.32867 7.50604 2.36405 7.48492 2.40563C7.46379 2.4472 7.45155 2.49415 7.44846 2.54622C7.44536 2.59842 7.45249 2.65506 7.46971 2.71614C7.48344 2.7643 7.5012 2.80708 7.52326 2.84449L7.52299 2.84435ZM7.63075 2.47451C7.64044 2.44908 7.65497 2.42769 7.67461 2.41033C7.69426 2.39298 7.71928 2.38006 7.74982 2.37132C7.77417 2.36432 7.79704 2.36163 7.8183 2.36284C7.83956 2.36419 7.85947 2.3697 7.87803 2.37939C7.8966 2.38921 7.91369 2.4024 7.92943 2.41921C7.94517 2.43603 7.95902 2.45648 7.971 2.48056C7.98297 2.50465 7.99333 2.53196 8.00194 2.5625C8.01271 2.60044 8.01849 2.63568 8.0193 2.66811C8.0201 2.70053 8.0158 2.72919 8.00638 2.75421C7.99696 2.77924 7.98257 2.80063 7.96293 2.81825C7.94342 2.83588 7.91839 2.84906 7.88785 2.85767C7.86337 2.86467 7.84036 2.86749 7.81884 2.86628C7.79718 2.86507 7.77713 2.85955 7.7587 2.84987C7.74013 2.84018 7.72318 2.82686 7.70771 2.80991C7.69224 2.79309 7.67852 2.77251 7.66668 2.74843C7.6547 2.72434 7.64434 2.69703 7.63573 2.66649C7.62497 2.62855 7.61905 2.59344 7.61784 2.56102C7.61676 2.52873 7.62093 2.4998 7.63062 2.47437L7.63075 2.47451Z" fill="white"/>
<path d="M8.54039 2.82741L8.49653 2.58013L8.5712 2.46079L8.83718 2.7748L9.0184 2.74265L8.6608 2.32572L8.85965 2.00391L8.6826 2.03525L8.46344 2.39285L8.40868 2.08382L8.24414 2.11288L8.37585 2.8566L8.54039 2.82741Z" fill="white"/>
<path d="M9.6143 2.69347L9.61968 2.55812L9.24029 2.59082L9.22455 2.40758L9.5617 2.37838L9.55013 2.24465L9.21298 2.27371L9.19858 2.10608L9.55685 2.07527L9.54528 1.94141L9.02368 1.98634L9.08853 2.73881L9.6143 2.69347Z" fill="white"/>
<path d="M9.95928 1.93244L9.94702 2.6875L10.113 2.69019L10.1253 1.93514L9.95928 1.93244Z" fill="white"/>
<path d="M10.7241 2.72131L10.8707 2.73207L10.9259 1.97893L10.7698 1.9675L10.7335 2.46179L10.4554 1.94449L10.3068 1.93359L10.2515 2.68673L10.4077 2.69817L10.4439 2.20482L10.7241 2.72131Z" fill="white"/>
<path d="M11.5818 2.08594L11.1653 2.77167L11.329 2.80517L11.4183 2.65288L11.6962 2.70965L11.7176 2.88455L11.8864 2.91913L11.7745 2.12549L11.5817 2.08607L11.5818 2.08594ZM11.645 2.24738L11.683 2.56973L11.4843 2.5291L11.645 2.24738Z" fill="white"/>
<path d="M12.6228 3.12399C12.668 3.11996 12.7054 3.10543 12.7348 3.0804C12.7641 3.05538 12.7857 3.02215 12.7997 2.98071C12.8094 2.95206 12.8133 2.92407 12.8113 2.89703C12.8093 2.86999 12.8003 2.84375 12.7843 2.8186C12.7738 2.80218 12.7595 2.78617 12.7416 2.77057C12.7747 2.76572 12.8022 2.75577 12.8237 2.74029C12.8537 2.71877 12.8752 2.68877 12.8884 2.65002C12.901 2.61262 12.9039 2.57751 12.8967 2.54454C12.8896 2.51158 12.8705 2.48145 12.8392 2.45413C12.8078 2.42682 12.7611 2.40261 12.699 2.38148L12.4144 2.28516L12.1721 3.00049L12.4616 3.09857C12.5238 3.11955 12.5775 3.12817 12.6227 3.12413L12.6228 3.12399ZM12.6503 2.92111C12.643 2.9425 12.633 2.95919 12.6204 2.97129C12.6078 2.9834 12.5908 2.99 12.5697 2.99094C12.5484 2.99201 12.5215 2.9869 12.4888 2.97587L12.3597 2.93214L12.4265 2.73478L12.5588 2.77958C12.5888 2.7898 12.6118 2.80164 12.6277 2.81523C12.6435 2.82882 12.6531 2.84429 12.6566 2.86192C12.66 2.87941 12.6579 2.89918 12.6504 2.92125L12.6503 2.92111ZM12.7062 2.52517C12.7217 2.53674 12.7314 2.54993 12.7353 2.56459C12.7392 2.57939 12.7378 2.59674 12.731 2.61679C12.7244 2.63616 12.7151 2.65083 12.7031 2.66092C12.6912 2.67101 12.676 2.67639 12.6574 2.6772C12.6388 2.678 12.6162 2.67383 12.5896 2.66482L12.4643 2.62244L12.5216 2.45319L12.6388 2.49288C12.6682 2.50284 12.6906 2.5136 12.7061 2.52517H12.7062Z" fill="white"/>
<path d="M12.9417 3.22887C12.96 3.26116 12.9838 3.28995 13.0134 3.31538C13.0428 3.34081 13.078 3.3626 13.1183 3.3809C13.1697 3.40417 13.2193 3.41709 13.2675 3.41951C13.3155 3.42193 13.3612 3.41413 13.4041 3.3961C13.4471 3.37807 13.4865 3.34982 13.5225 3.31161C13.5584 3.27327 13.5895 3.22524 13.6157 3.16752C13.6364 3.12192 13.6503 3.07792 13.6575 3.03554C13.6648 2.99316 13.6656 2.95321 13.6601 2.91594C13.6546 2.87854 13.6429 2.84383 13.6248 2.81167C13.6069 2.77952 13.5831 2.75073 13.5537 2.72544C13.5241 2.70001 13.4891 2.67821 13.4487 2.65992C13.398 2.63691 13.3484 2.62413 13.3001 2.62157C13.2516 2.61902 13.206 2.62668 13.163 2.64485C13.1199 2.66288 13.0804 2.69086 13.0443 2.72866C13.0081 2.76647 12.977 2.81436 12.9508 2.87208C12.9301 2.91769 12.9161 2.96182 12.9087 3.0046C12.9013 3.04738 12.9004 3.08734 12.9059 3.12474C12.9114 3.16214 12.9232 3.19685 12.9415 3.22914L12.9417 3.22887ZM13.0804 3.02411C13.0868 2.99801 13.0965 2.97043 13.1097 2.94164C13.126 2.90571 13.1441 2.87504 13.1642 2.84961C13.1842 2.82419 13.2062 2.80495 13.2298 2.79176C13.2537 2.77858 13.2785 2.77172 13.3048 2.77118C13.3309 2.77064 13.3585 2.77696 13.3874 2.79001C13.4105 2.80051 13.4298 2.81315 13.4451 2.82782C13.4604 2.84248 13.4721 2.85957 13.4799 2.87908C13.4877 2.89845 13.4923 2.91971 13.4935 2.94271C13.4947 2.96572 13.4921 2.9902 13.4857 3.01644C13.4793 3.04254 13.4696 3.07012 13.4564 3.09891C13.4401 3.13483 13.4218 3.16551 13.4015 3.19066C13.3812 3.21596 13.3593 3.23506 13.336 3.24811C13.3127 3.26116 13.2878 3.26816 13.2615 3.26896C13.2351 3.26977 13.2075 3.26372 13.1786 3.25053C13.1554 3.24004 13.1361 3.22739 13.1203 3.21246C13.1046 3.19766 13.0929 3.18044 13.0849 3.16107C13.0771 3.14169 13.0727 3.12057 13.0719 3.0977C13.071 3.07483 13.0738 3.05034 13.0802 3.02424L13.0804 3.02411Z" fill="white"/>
<path d="M13.8244 3.72406L14.1267 3.19398L14.3279 3.30874L14.3996 3.18282L13.853 2.87109L13.7813 2.99689L13.9815 3.11111L13.6792 3.64132L13.8244 3.72406Z" fill="white"/>
<path d="M14.2568 3.99775L14.3939 4.09314L14.7425 3.59212L14.9326 3.72437L15.0154 3.60544L14.4987 3.24609L14.416 3.36502L14.6053 3.49674L14.2568 3.99775Z" fill="white"/>
<path d="M15.0349 4.59819L15.141 4.49796L14.8671 4.27153L15.2558 3.80106L15.1278 3.69531L14.6467 4.27745L15.0349 4.59819Z" fill="white"/>
<path d="M15.4862 5.03043L15.5921 4.94594L15.3191 4.6805L15.4475 4.54852L15.6901 4.7845L15.7837 4.68817L15.5411 4.45219L15.6584 4.33164L15.9162 4.58242L16.0098 4.48609L15.6345 4.12109L15.1079 4.66247L15.4862 5.03043Z" fill="white"/>
<path d="M16.9224 7.21786C16.9498 7.27974 16.9817 7.32737 17.018 7.3606C17.0544 7.39383 17.0935 7.41374 17.1354 7.4202C17.1772 7.42666 17.2197 7.42047 17.2629 7.40123C17.3222 7.37499 17.3604 7.33732 17.3778 7.28849C17.395 7.23952 17.3939 7.17319 17.3746 7.08924L17.3509 6.98632C17.3448 6.96049 17.3423 6.9391 17.3432 6.92201C17.3442 6.90506 17.3485 6.8912 17.356 6.88044C17.3635 6.86967 17.3751 6.86093 17.3906 6.85407C17.406 6.84721 17.4216 6.84532 17.4373 6.84842C17.4529 6.85151 17.4681 6.86039 17.4826 6.87519C17.4973 6.88985 17.511 6.91178 17.5238 6.94084C17.536 6.96856 17.5425 6.99224 17.5431 7.01201C17.5438 7.03179 17.5394 7.04955 17.5298 7.06543C17.5203 7.0813 17.5061 7.09677 17.4874 7.11198L17.571 7.25082C17.5969 7.23467 17.6193 7.2149 17.6378 7.19162C17.6564 7.16835 17.6696 7.14184 17.6773 7.11224C17.6849 7.08265 17.6864 7.04942 17.6817 7.01255C17.677 6.97569 17.6648 6.93506 17.645 6.89053C17.6206 6.83577 17.5916 6.79124 17.5574 6.75693C17.5234 6.72262 17.4857 6.70096 17.4447 6.69182C17.4036 6.68267 17.3604 6.68805 17.3154 6.70809C17.2747 6.72612 17.2446 6.74953 17.225 6.77819C17.2053 6.80698 17.1945 6.84142 17.1927 6.88151C17.1908 6.92174 17.196 6.96789 17.2085 7.02022L17.2314 7.11884C17.2387 7.14574 17.2412 7.16794 17.2389 7.18543C17.2367 7.20306 17.2311 7.21691 17.2221 7.227C17.2131 7.23709 17.2018 7.2453 17.1884 7.25122C17.171 7.25889 17.1538 7.26198 17.1368 7.26023C17.1199 7.25849 17.1037 7.25055 17.0887 7.23642C17.0736 7.2223 17.0593 7.20037 17.0463 7.17077C17.0257 7.12435 17.0187 7.0852 17.0254 7.05332C17.0322 7.02143 17.0529 6.99426 17.0877 6.97192L17.0209 6.82111C16.9836 6.84142 16.9537 6.86537 16.9311 6.89268C16.9085 6.91999 16.8935 6.9504 16.8859 6.9839C16.8784 7.0174 16.8776 7.05359 16.8838 7.09247C16.8898 7.13148 16.9027 7.17319 16.9225 7.21759L16.9224 7.21786Z" fill="white"/>
<path d="M17.1499 7.73484L17.3963 7.65116L17.4323 7.75731C17.4495 7.80803 17.4698 7.8492 17.4933 7.88068C17.5167 7.91216 17.5424 7.93544 17.5706 7.95051C17.5987 7.96558 17.6293 7.97297 17.6621 7.97311C17.6949 7.97311 17.7292 7.96705 17.7654 7.95481C17.8008 7.94284 17.8308 7.92696 17.8554 7.90746C17.88 7.88795 17.8986 7.86373 17.9113 7.83494C17.9238 7.80615 17.9296 7.77211 17.9286 7.73296C17.9277 7.69381 17.9184 7.64861 17.9009 7.59721L17.8135 7.33984L17.0984 7.58268L17.1501 7.73498L17.1499 7.73484ZM17.7848 7.75274C17.7795 7.76565 17.7709 7.77655 17.7591 7.78543C17.7473 7.79431 17.7319 7.80198 17.7132 7.8083C17.6898 7.81624 17.6686 7.8192 17.6492 7.81718C17.6299 7.81516 17.6129 7.80601 17.5981 7.78987C17.5833 7.77373 17.5701 7.74857 17.5585 7.71453L17.5224 7.60838L17.7388 7.53492L17.7744 7.64013C17.783 7.66556 17.7883 7.68735 17.79 7.70578C17.7918 7.72422 17.79 7.73982 17.7848 7.75287V7.75274Z" fill="white"/>
<path d="M17.3444 8.37083L17.6148 8.30545L17.6417 8.41644C17.6441 8.42666 17.6472 8.43756 17.6507 8.44913C17.6507 8.44927 17.6507 8.44954 17.6509 8.44967L17.4103 8.64327L17.4514 8.81292L17.7202 8.58609C17.7308 8.5982 17.7418 8.60896 17.7535 8.61798C17.7812 8.63964 17.8118 8.65322 17.845 8.65901C17.8782 8.66466 17.9142 8.66291 17.9525 8.65363C17.9855 8.64569 18.014 8.63331 18.0382 8.61663C18.0624 8.59995 18.0819 8.57788 18.0969 8.55071C18.1117 8.52353 18.1204 8.49057 18.123 8.45182C18.1255 8.41308 18.1205 8.36774 18.108 8.31567L18.0412 8.03906L17.3071 8.21665L17.3444 8.37083ZM17.9882 8.42074C17.9851 8.44254 17.9769 8.45949 17.9635 8.47187C17.9502 8.48411 17.9322 8.49299 17.9096 8.49851C17.8863 8.50416 17.8655 8.50496 17.8472 8.50106C17.8289 8.49716 17.813 8.48667 17.7998 8.46958C17.7866 8.45249 17.776 8.42707 17.7678 8.39357L17.7391 8.27531L17.9529 8.22365L17.9799 8.33572C17.9884 8.3707 17.9911 8.39908 17.988 8.42088L17.9882 8.42074Z" fill="white"/>
<path d="M18.2041 8.76183L17.46 8.89062L17.4883 9.05421L18.2324 8.92542L18.2041 8.76183Z" fill="white"/>
<path d="M18.1385 9.30332L17.5317 9.36897L17.5496 9.53512L18.1564 9.46947L18.1813 9.6998L18.3254 9.68419L18.2577 9.05859L18.1136 9.0742L18.1385 9.30332Z" fill="white"/>
<path d="M17.5895 10.3734L17.7242 10.3871L17.7153 10.0065L17.8994 10.0022L17.9072 10.3406L18.0414 10.3375L18.0336 9.99912L18.2017 9.99522L18.2101 10.3547L18.3444 10.3516L18.3322 9.82812L17.5771 9.84575L17.5895 10.3734Z" fill="white"/>
<path d="M18.3251 10.5899C18.3075 10.5548 18.2819 10.5264 18.2484 10.505C18.2149 10.4835 18.1746 10.4716 18.1274 10.4692C18.0801 10.4668 18.0387 10.4742 18.0028 10.4914C17.967 10.5086 17.9385 10.534 17.9173 10.5675C17.8962 10.601 17.8845 10.6401 17.8822 10.6843C17.8799 10.7279 17.8877 10.7676 17.9054 10.803C17.923 10.8385 17.9487 10.867 17.9826 10.8884C18.0165 10.9099 18.057 10.9219 18.1042 10.9242C18.1514 10.9266 18.1927 10.9192 18.2283 10.9019C18.2638 10.8846 18.292 10.8594 18.3131 10.8263C18.3343 10.793 18.346 10.7536 18.3483 10.7079C18.3505 10.6641 18.3427 10.6249 18.3251 10.5896V10.5899ZM18.2392 10.8228C18.207 10.8511 18.1631 10.8639 18.1074 10.8611C18.07 10.8592 18.0387 10.8509 18.0134 10.8362C17.988 10.8215 17.9689 10.8015 17.9561 10.7761C17.9433 10.7506 17.9377 10.7212 17.9394 10.6873C17.942 10.6366 17.9596 10.5973 17.992 10.5693C18.0246 10.5413 18.0686 10.5287 18.1243 10.5315C18.1615 10.5334 18.1929 10.5417 18.2183 10.5564C18.2437 10.571 18.2626 10.5911 18.2751 10.6165C18.2876 10.6418 18.293 10.6714 18.2912 10.7052C18.2887 10.7552 18.2713 10.7944 18.2392 10.8228Z" fill="white"/>
<path d="M18.0085 10.6599L18.0814 10.6637L18.0796 10.6971L18.005 10.7276L18.0015 10.7962L18.092 10.7565C18.0966 10.7654 18.1022 10.7727 18.1094 10.7779C18.1203 10.7859 18.1345 10.7903 18.1521 10.7913C18.1663 10.7919 18.1789 10.7898 18.1901 10.7847C18.2013 10.7795 18.2104 10.7704 18.2174 10.7569C18.2244 10.7435 18.2286 10.7252 18.2298 10.7019L18.2345 10.609L18.0116 10.5977L18.0083 10.6599H18.0085ZM18.1715 10.7239C18.1671 10.7282 18.1609 10.7302 18.1532 10.7298C18.1462 10.7294 18.1403 10.7269 18.1356 10.7225C18.1309 10.7181 18.1289 10.7088 18.1295 10.6947L18.131 10.6661L18.1807 10.6687L18.1793 10.694C18.1785 10.7095 18.176 10.7194 18.1714 10.7237L18.1715 10.7239Z" fill="white"/>
<path d="M17.6741 11.3493C17.6516 11.3275 17.6432 11.295 17.6488 11.2516C17.6516 11.2299 17.6572 11.2119 17.6654 11.1978C17.6736 11.1835 17.6841 11.1722 17.6969 11.164C17.7096 11.1557 17.7248 11.1499 17.7423 11.1464C17.7598 11.1429 17.7792 11.1419 17.8003 11.1432L17.8216 10.9774C17.7842 10.9754 17.7499 10.977 17.7185 10.9822C17.6873 10.9875 17.6596 10.9966 17.6355 11.01C17.6114 11.0231 17.5906 11.0406 17.5728 11.0622C17.5551 11.0837 17.5407 11.1087 17.5296 11.1371C17.5185 11.1655 17.5107 11.1979 17.5059 11.2342C17.4944 11.3245 17.5096 11.3977 17.5518 11.4539C17.5941 11.5102 17.6619 11.5443 17.7556 11.5565L18.2372 11.6183L18.2584 11.4526L17.7758 11.3906C17.7304 11.3848 17.6964 11.3709 17.674 11.3493H17.6741Z" fill="white"/>
<path d="M18.106 11.8692C18.0797 11.8306 18.0445 11.7974 18.0002 11.7695C17.956 11.7417 17.903 11.7207 17.8411 11.7064C17.7922 11.6953 17.7462 11.6903 17.7029 11.6916C17.6596 11.6928 17.6202 11.7 17.5846 11.7129C17.5491 11.7258 17.5174 11.7444 17.4894 11.7687C17.4614 11.7931 17.4379 11.8221 17.4189 11.8562C17.3999 11.8902 17.3854 11.9288 17.3756 11.9721C17.3629 12.0272 17.3602 12.0784 17.3675 12.126C17.3746 12.1737 17.3914 12.2167 17.4177 12.2553C17.4439 12.2939 17.4794 12.3269 17.5241 12.3546C17.5688 12.3822 17.622 12.4031 17.6839 12.4173C17.7328 12.4285 17.7786 12.4333 17.8216 12.432C17.8646 12.4306 17.9038 12.4235 17.9393 12.4107C17.9748 12.3978 18.0064 12.3795 18.0344 12.3554C18.0622 12.3315 18.0858 12.3024 18.1048 12.2685C18.1237 12.2345 18.1383 12.1959 18.1481 12.1525C18.1605 12.0982 18.1632 12.0471 18.156 11.9992C18.1489 11.9513 18.1322 11.908 18.106 11.8695V11.8692ZM18.0083 12.1181C18.0027 12.1429 17.994 12.1642 17.9827 12.1823C17.9714 12.2003 17.9569 12.2151 17.9394 12.2267C17.9219 12.2382 17.902 12.2469 17.8798 12.2526C17.8575 12.2584 17.833 12.2607 17.8061 12.2596C17.7792 12.2586 17.7503 12.2545 17.7195 12.2474C17.681 12.2385 17.6473 12.2267 17.6185 12.2117C17.5898 12.1968 17.5666 12.1792 17.5493 12.159C17.5318 12.1387 17.5201 12.1158 17.514 12.0901C17.508 12.0644 17.5085 12.0362 17.5155 12.0052C17.5211 11.9805 17.5298 11.9589 17.5412 11.9405C17.5526 11.9221 17.567 11.9071 17.5845 11.8957C17.602 11.8841 17.6218 11.8757 17.644 11.8703C17.6662 11.8649 17.6908 11.8628 17.7176 11.8638C17.7445 11.8649 17.7734 11.8689 17.8042 11.8761C17.8427 11.885 17.8763 11.8965 17.9052 11.9112C17.934 11.9257 17.9573 11.9433 17.9751 11.9641C17.9927 11.9848 18.0044 12.0078 18.0102 12.0333C18.0158 12.0589 18.0152 12.0872 18.0082 12.1181H18.0083Z" fill="white"/>
<path d="M17.2266 12.5918L17.4645 12.6724L17.5331 12.7952L17.1299 12.8773L17.0708 13.0517L17.6084 12.9388L17.7949 13.268L17.8526 13.0977L17.6446 12.7335L17.9419 12.8341L17.9955 12.6759L17.2803 12.4336L17.2266 12.5918Z" fill="white"/>
<path d="M16.8274 13.596L16.9434 13.6658L17.0974 13.3176L17.2657 13.392L17.1288 13.7016L17.2516 13.756L17.3885 13.4464L17.5425 13.5145L17.3969 13.8433L17.5197 13.8976L17.7316 13.4189L17.041 13.1133L16.8274 13.596Z" fill="white"/>
<path d="M16.6707 13.8941L16.5898 14.0391L17.2494 14.4068L17.3303 14.2618L16.6707 13.8941Z" fill="white"/>
<path d="M16.44 14.2873L16.8544 14.5577L16.2666 14.553L16.1863 14.6761L16.8186 15.089L16.9042 14.9578L16.4891 14.6869L17.0765 14.6939L17.158 14.569L16.5256 14.1562L16.44 14.2873Z" fill="white"/>
<path d="M15.9032 15.045L15.9934 15.1967L15.8093 15.4125L15.6459 15.3467L15.5339 15.4779L16.2828 15.7637L16.4104 15.6141L16.0117 14.918L15.9032 15.0451V15.045ZM16.0697 15.3143L16.2385 15.5912L15.938 15.4686L16.0695 15.3143H16.0697Z" fill="white"/>
<path d="M15.0974 15.8935C15.0489 15.9377 15.0157 15.9807 14.9973 16.0224C14.979 16.0639 14.9737 16.1036 14.9815 16.1414C14.9893 16.1792 15.008 16.2142 15.0375 16.2465C15.0579 16.2688 15.0805 16.2857 15.1053 16.2971C15.1301 16.3084 15.1572 16.3131 15.187 16.3112C15.2063 16.31 15.2272 16.3052 15.2497 16.297C15.238 16.3283 15.2335 16.3571 15.2366 16.3835C15.2409 16.4201 15.2569 16.4536 15.2846 16.4837C15.3113 16.5128 15.3407 16.5323 15.373 16.5419C15.4053 16.5516 15.441 16.5493 15.48 16.5351C15.519 16.5208 15.5627 16.4916 15.6112 16.4474L15.8327 16.2446L15.3228 15.6875L15.0974 15.8939V15.8935ZM15.2657 16.1753C15.2462 16.1827 15.2279 16.1837 15.2109 16.1782C15.194 16.1726 15.1775 16.1613 15.1619 16.1441C15.1467 16.1274 15.1369 16.1106 15.1323 16.0938C15.1279 16.0769 15.1303 16.0588 15.1396 16.0399C15.1489 16.0207 15.1664 15.9996 15.1918 15.9764L15.2924 15.8842L15.4332 16.038L15.3301 16.1323C15.3067 16.1537 15.2852 16.1681 15.2657 16.1755V16.1753ZM15.5424 16.3407C15.5195 16.3617 15.4992 16.3761 15.4817 16.384C15.4641 16.3919 15.448 16.3941 15.4332 16.3905C15.4184 16.3868 15.4038 16.3771 15.3896 16.3615C15.3757 16.3465 15.3674 16.3313 15.3643 16.3159C15.3612 16.3006 15.3637 16.2846 15.372 16.268C15.3802 16.2513 15.3947 16.2336 15.4155 16.2146L15.5131 16.1254L15.6338 16.2573L15.5425 16.3408L15.5424 16.3407Z" fill="white"/>
<path d="M15.0618 16.4337C15.0318 16.3936 14.9998 16.3601 14.9659 16.333C14.932 16.306 14.8973 16.286 14.8619 16.2729C14.8265 16.2597 14.7902 16.2534 14.7532 16.2539C14.716 16.2545 14.6793 16.2615 14.6428 16.2752C14.6064 16.2889 14.5703 16.309 14.5348 16.3357C14.4897 16.3696 14.4545 16.407 14.4292 16.4479C14.4039 16.4888 14.3888 16.5326 14.384 16.579C14.3792 16.6254 14.3848 16.6736 14.4011 16.7235C14.4174 16.7734 14.4445 16.8237 14.4826 16.8746C14.5126 16.9146 14.5445 16.948 14.5783 16.9748C14.612 17.0016 14.6465 17.0215 14.6819 17.0345C14.7172 17.0476 14.7533 17.054 14.7902 17.0538C14.8269 17.0535 14.8636 17.0465 14.9001 17.0328C14.9365 17.0191 14.9726 16.999 15.0081 16.9722C15.0526 16.9389 15.0878 16.9015 15.1133 16.8603C15.1389 16.8191 15.1541 16.7754 15.1589 16.729C15.1638 16.6826 15.1584 16.6344 15.1425 16.5846C15.1268 16.5347 15.0997 16.4844 15.0618 16.4337ZM14.9799 16.7925C14.9678 16.8156 14.9489 16.8368 14.9236 16.8559C14.9033 16.8711 14.883 16.882 14.8627 16.8883C14.8424 16.8947 14.8218 16.8966 14.8011 16.8942C14.7802 16.8918 14.7595 16.8855 14.7388 16.8755C14.7181 16.8654 14.6977 16.8514 14.678 16.8331C14.6582 16.815 14.6387 16.7932 14.6197 16.7677C14.596 16.7361 14.578 16.7053 14.5656 16.6754C14.5532 16.6454 14.5471 16.6171 14.5468 16.5904C14.5465 16.5636 14.5524 16.5386 14.5644 16.5151C14.5764 16.4915 14.595 16.4704 14.6204 16.4513C14.6407 16.4361 14.6611 16.4252 14.6817 16.4185C14.7023 16.4119 14.723 16.4097 14.7439 16.4123C14.7647 16.4147 14.7853 16.421 14.8058 16.4314C14.8262 16.4416 14.8464 16.4559 14.8662 16.474C14.886 16.4922 14.9055 16.514 14.9244 16.5394C14.9481 16.571 14.9663 16.6017 14.9789 16.6314C14.9916 16.6612 14.9979 16.6897 14.998 16.7169C14.9982 16.7441 14.9921 16.7693 14.98 16.7925H14.9799Z" fill="white"/>
<path d="M14.3562 17.2192L14.0366 16.6992L13.8943 16.7867L14.2138 17.3067L14.0164 17.4279L14.0923 17.5514L14.6285 17.2219L14.5526 17.0984L14.3562 17.2192Z" fill="white"/>
<path d="M13.7187 17.5815L13.4471 17.0352L13.2974 17.1094L13.5691 17.6559L13.3617 17.7591L13.4262 17.8888L13.9897 17.6087L13.9252 17.4789L13.7187 17.5815Z" fill="white"/>
<path d="M12.5459 17.428L12.5826 17.5692L12.9129 17.4381L13.1381 18.0054L13.2924 17.9441L13.0138 17.2422L12.5459 17.428Z" fill="white"/>
<path d="M11.9478 17.6147L11.9708 17.7482L12.335 17.6372L12.3886 17.8133L12.0648 17.9119L12.104 18.0404L12.4278 17.9418L12.4768 18.1027L12.1327 18.2075L12.1719 18.336L12.6728 18.1834L12.4527 17.4609L11.9478 17.6147Z" fill="white"/>
<path d="M2.76908 7.17292C2.90096 7.17292 3.00788 7.066 3.00788 6.93412C3.00788 6.80223 2.90096 6.69531 2.76908 6.69531C2.63719 6.69531 2.53027 6.80223 2.53027 6.93412C2.53027 7.066 2.63719 7.17292 2.76908 7.17292Z" fill="white"/>
<path d="M16.7244 5.92973C16.7834 5.81178 16.7356 5.66833 16.6176 5.60934C16.4997 5.55034 16.3562 5.59815 16.2972 5.7161C16.2383 5.83406 16.2861 5.97751 16.404 6.0365C16.522 6.09549 16.6654 6.04769 16.7244 5.92973Z" fill="white"/>
<path d="M10.8181 18.4879C10.9483 18.4667 11.0367 18.3441 11.0156 18.2139C10.9944 18.0837 10.8718 17.9953 10.7416 18.0164C10.6114 18.0376 10.523 18.1602 10.5441 18.2904C10.5653 18.4206 10.6879 18.509 10.8181 18.4879Z" fill="white"/>
<path d="M10 0.269531C4.47712 0.269531 0 4.74665 0 10.2695C0 15.7924 4.47712 20.2695 10 20.2695C15.5229 20.2695 20 15.7924 20 10.2695C20 4.74665 15.5229 0.269531 10 0.269531ZM10 20.0867C4.57816 20.0867 0.182836 15.6914 0.182836 10.2695C0.182836 4.84769 4.57816 0.452367 10 0.452367C15.4218 0.452367 19.8172 4.84769 19.8172 10.2695C19.8172 15.6914 15.4218 20.0867 10 20.0867Z" fill="#11A64B"/>
<path d="M10.0001 1.22656C5.00691 1.22656 0.959229 5.27438 0.959229 10.2674C0.959229 15.2605 5.00704 19.3083 10.0001 19.3083C14.9932 19.3083 19.041 15.2607 19.041 10.2674C19.041 5.27424 14.9933 1.22656 10.0001 1.22656ZM10.0001 19.088C5.12866 19.088 1.1796 15.1389 1.1796 10.2674C1.1796 5.396 5.12866 1.44693 10.0001 1.44693C14.8716 1.44693 18.8206 5.396 18.8206 10.2674C18.8206 15.1389 14.8716 19.088 10.0001 19.088Z" fill="#11A64B"/>
</svg>
