<svg width="16" height="17" viewBox="0 0 16 17" fill="none" xmlns="http://www.w3.org/2000/svg">
<path d="M8 3.7002C8.26397 3.7002 8.48882 3.86324 8.57031 4.11426L8.91211 5.16797H10.0205C10.2844 5.16797 10.5093 5.33102 10.5908 5.58203L10.6133 5.67676C10.6434 5.86572 10.5828 6.05338 10.4473 6.18848L10.373 6.25098L9.47559 6.90234L9.81836 7.95703L9.8418 8.05176C9.87197 8.24091 9.81041 8.42827 9.6748 8.56348L9.60156 8.62695C9.414 8.76284 9.1784 8.77946 8.97949 8.67773L8.89746 8.62695L8 7.97461L7.10352 8.62695C6.99725 8.70407 6.87482 8.74308 6.75195 8.74316C6.65974 8.74316 6.56744 8.72123 6.48242 8.67773L6.39941 8.62695C6.18588 8.47179 6.10004 8.2079 6.18164 7.95703L6.52344 6.90234L5.62793 6.25098C5.41453 6.09594 5.32868 5.83289 5.41016 5.58203L5.44727 5.49219C5.54839 5.29284 5.74857 5.16803 5.97949 5.16797H7.08887L7.43066 4.11426V4.11328L7.46777 4.02441C7.56882 3.82497 7.76898 3.7003 8 3.7002ZM7.66895 5.36816C7.58877 5.61554 7.35975 5.78203 7.09961 5.78223H6.02637L6.89453 6.41309L6.96777 6.47559C7.10198 6.61062 7.16341 6.80126 7.13379 6.98926L7.11133 7.08203L6.7793 8.10254L7.64844 7.47168L7.73047 7.42188C7.81521 7.37897 7.90755 7.35747 8 7.35742C8.12344 7.35742 8.24748 7.39535 8.35254 7.47168L9.21973 8.10156L8.88867 7.08203C8.80854 6.83423 8.89593 6.56486 9.10645 6.41211L9.97363 5.78223H8.90137C8.67368 5.78223 8.46942 5.65473 8.36816 5.45703L8.33203 5.36816L8 4.34668L7.66895 5.36816Z" fill="black" stroke="black" stroke-width="0.1"/>
<path d="M12.543 0.900391C12.7848 0.90047 13.0172 1.00217 13.1816 1.17969L13.2402 1.24902C13.3478 1.39316 13.4082 1.56819 13.4131 1.74805L13.4111 1.83887L13.3223 2.97363C13.8223 2.70697 14.2464 2.63027 14.582 2.80176L14.707 2.88086C14.9774 3.08902 15.0995 3.46273 15.0996 3.95508C15.0996 4.31698 15.0777 5.10809 14.9082 5.92969C14.7396 6.74662 14.4208 7.61809 13.8125 8.11621L13.8115 8.11523C13.4637 8.40235 13.0485 8.52927 12.6133 8.49805C11.8337 10.2896 10.0454 11.543 8 11.543C7.73944 11.543 7.48469 11.518 7.23535 11.4785C7.07408 12.0219 6.87468 12.4699 6.63184 12.8135H9.36816C9.28353 12.694 9.20438 12.5619 9.12988 12.418L9.02246 12.1963C8.94191 12.0162 9.02324 11.805 9.20312 11.7246L9.27246 11.7012C9.43499 11.6654 9.60473 11.7481 9.6748 11.9053L9.75684 12.0762C9.94615 12.4464 10.1592 12.688 10.3857 12.8135H10.8018C11.2821 12.8135 11.6728 13.2042 11.6729 13.6846V14.1572H12.1904C12.6708 14.1572 13.0615 14.5479 13.0615 15.0283V16.1631C13.0615 16.3601 12.9023 16.5204 12.7051 16.5205H3.29492C3.09785 16.5204 2.93851 16.3602 2.93848 16.1631V15.0283C2.93848 14.5481 3.32842 14.1575 3.80859 14.1572H4.32715V13.6846C4.32718 13.2043 4.71798 12.8136 5.19824 12.8135H5.61035C5.97146 12.6149 6.29316 12.1147 6.53613 11.3184C5.12782 10.8845 3.97189 9.84518 3.38574 8.49805C3.00157 8.52647 2.63334 8.43079 2.31348 8.21094L2.17188 8.10254C1.5712 7.59995 1.25643 6.73134 1.08984 5.91797C0.922334 5.09999 0.900391 4.31434 0.900391 3.95508C0.900472 3.39233 1.05995 2.98444 1.41797 2.80176L1.5625 2.74414C1.87247 2.65452 2.24625 2.74414 2.67676 2.97363L2.58887 1.83887C2.57015 1.5975 2.65401 1.35737 2.81836 1.17969L2.88281 1.11621C3.04069 0.977913 3.24539 0.900491 3.45703 0.900391H12.543ZM3.80859 14.8711C3.72236 14.8713 3.65234 14.942 3.65234 15.0283V15.8057H12.3477V15.0283C12.3477 14.9418 12.277 14.8711 12.1904 14.8711H3.80859ZM5.19824 13.5273C5.11192 13.5275 5.04105 13.5982 5.04102 13.6846V14.1572H10.959V13.6846C10.959 13.5982 10.8882 13.5274 10.8018 13.5273H5.19824ZM3.39453 1.62695L3.3418 1.66406C3.31152 1.69682 3.29731 1.73888 3.30078 1.7832L3.53125 4.75293L3.53027 4.8252C3.50951 4.98981 3.37495 5.12233 3.20312 5.13574L3.20117 5.13672C3.03087 5.14653 2.87772 5.03865 2.83203 4.87891L2.81934 4.80762L2.74414 3.85156C2.18591 3.4643 1.91286 3.41949 1.80273 3.42578L1.74219 3.4375C1.71927 3.44931 1.68521 3.48658 1.65723 3.5791C1.6301 3.66898 1.61429 3.79506 1.61426 3.95508C1.61426 4.62508 1.68215 5.37401 1.8457 6.0332C2.01024 6.69631 2.26711 7.25207 2.62988 7.55566L2.77637 7.65918C2.88817 7.72467 3.00703 7.76149 3.13379 7.77734C3.08063 7.57657 3.03791 7.37125 3.00977 7.16113L2.98242 6.89941L2.89453 5.77441C2.87958 5.57811 3.02642 5.40707 3.22266 5.3916L3.29492 5.39258C3.45988 5.41278 3.59305 5.54818 3.60645 5.71973L3.69434 6.84375L3.71484 7.05176C3.9855 9.18577 5.82918 10.8291 8 10.8291C10.2406 10.8291 12.132 9.07846 12.3057 6.84473L12.6992 1.7832L12.6914 1.71973L12.6582 1.66406C12.628 1.63142 12.5873 1.61433 12.543 1.61426H3.45703C3.43493 1.61431 3.41387 1.61852 3.39453 1.62695ZM14.2568 3.4375C14.238 3.42819 13.9996 3.33367 13.2539 3.85156L13.0176 6.89941C12.9941 7.20231 12.9397 7.49593 12.8643 7.78027C13.0444 7.75765 13.2083 7.68807 13.3604 7.56348L13.4922 7.43945C13.7894 7.12338 14.0059 6.62595 14.1514 6.04395C14.3166 5.38281 14.3857 4.62964 14.3857 3.95508C14.3857 3.79506 14.3699 3.66898 14.3428 3.5791C14.3148 3.48658 14.2807 3.44931 14.2578 3.4375H14.2568Z" fill="black" stroke="black" stroke-width="0.2"/>
</svg>
