<svg width="34" height="34" viewBox="0 0 34 34" fill="none" xmlns="http://www.w3.org/2000/svg">
<circle cx="17" cy="17" r="17" fill="#FFE200"/>
<path d="M24.7017 11H9.60938C8.72018 11 8 11.7246 8 12.6094V22.2656C8 23.1556 8.72547 23.875 9.60938 23.875H24.7017C25.5835 23.875 26.3111 23.1586 26.3111 22.2656V12.6094C26.3111 11.7262 25.5938 11 24.7017 11ZM24.4764 12.0729C24.1475 12.4 18.4889 18.0288 18.2936 18.2231C17.9896 18.5271 17.5854 18.6945 17.1556 18.6945C16.7257 18.6945 16.3215 18.5271 16.0165 18.2221C15.8852 18.0914 10.289 12.5248 9.83476 12.0729H24.4764ZM9.07292 22.0473V12.8284L13.7093 17.4404L9.07292 22.0473ZM9.83544 22.8021L14.47 18.197L15.2589 18.9818C15.7655 19.4884 16.4391 19.7674 17.1556 19.7674C17.872 19.7674 18.5456 19.4884 19.0512 18.9828L19.8411 18.197L24.4757 22.8021H9.83544ZM25.2382 22.0473L20.6018 17.4404L25.2382 12.8284V22.0473Z" fill="black"/>
</svg>
