<svg width="343" height="126" viewBox="0 0 343 126" fill="none" xmlns="http://www.w3.org/2000/svg">
<g clip-path="url(#clip0_496_3479)">
<mask id="mask0_496_3479" style="mask-type:alpha" maskUnits="userSpaceOnUse" x="0" y="-209" width="343" height="598">
<rect y="-208.277" width="343" height="597.277" fill="#00953B"/>
</mask>
<g mask="url(#mask0_496_3479)">
<rect y="-208.277" width="343" height="597.277" fill="#00953B"/>
<g style="mix-blend-mode:plus-lighter" opacity="0.03">
<path d="M45.0753 3.08789L38.2812 35.9384H50.2902L57.0842 3.08789H45.0753Z" fill="#11A64B"/>
<path d="M74.6247 3.08789L54.1934 35.9384H66.848L69.5993 31.1086H83.5033L84.2964 35.9384H96.0667L88.9498 3.08789H74.6177H74.6247ZM80.5344 11.9285L82.1627 22.4137H74.5404L80.5344 11.9285Z" fill="#11A64B"/>
<path d="M137.218 12.2894C137.716 10.1729 137.513 8.43807 136.614 7.09185C135.716 5.74563 134.298 4.73944 132.354 4.08021C130.417 3.42098 128.129 3.08789 125.49 3.08789H106.827L100.033 35.9384H119.068C122.17 35.9384 124.907 35.5775 127.28 34.8558C129.652 34.1342 131.582 33.121 133.07 31.8165C134.558 30.5119 135.505 28.9714 135.906 27.1949C136.306 25.5364 136.299 24.0792 135.885 22.8232C135.463 21.5672 134.705 20.5332 133.603 19.7144C132.874 19.1731 131.989 18.7706 130.992 18.4792C132.41 17.9726 133.617 17.2995 134.607 16.446C135.969 15.2663 136.839 13.8784 137.211 12.2824L137.218 12.2894ZM124.234 26.7161C123.826 27.2227 123.258 27.6043 122.514 27.868C121.77 28.1317 120.872 28.2566 119.812 28.2566H112.512L113.706 22.504H120.886C121.756 22.504 122.472 22.5942 123.047 22.7815C123.623 22.9689 124.065 23.2326 124.374 23.5865C124.683 23.9404 124.837 24.3776 124.837 24.898C124.837 25.6058 124.634 26.2095 124.234 26.7161ZM125.7 14.2948C125.378 14.7112 124.893 15.0234 124.262 15.2385C123.623 15.4537 122.844 15.5577 121.91 15.5577H115.144L116.134 10.7697H122.795C123.567 10.7697 124.205 10.8391 124.704 10.9778C125.202 11.1166 125.574 11.3387 125.82 11.644C126.065 11.9493 126.192 12.331 126.192 12.7959C126.192 13.3788 126.03 13.8785 125.7 14.2879V14.2948Z" fill="#11A64B"/>
<path d="M27.3343 3.08896L23.1933 23.0116C22.8845 24.4202 22.3581 25.4889 21.6141 26.2106C20.8701 26.9323 19.6909 27.2931 18.0767 27.2931C17.2976 27.2931 16.6168 27.189 16.0272 26.9739C15.4377 26.7588 14.9463 26.4535 14.5603 26.051C14.1743 25.6554 13.8865 25.1628 13.697 24.5799C13.5075 23.997 13.4163 23.3377 13.4163 22.6022H1.36523C1.36523 23.4279 1.44945 24.4411 1.6179 25.6416C1.78634 26.8351 2.15131 28.0772 2.7128 29.3679C3.2743 30.6587 4.13061 31.8592 5.29571 32.9764C6.4608 34.0936 8.01893 35.0096 9.97011 35.7104C11.9213 36.4113 14.4059 36.7652 17.4169 36.7652C22.6598 36.7652 26.6956 35.6549 29.5171 33.4274C32.3386 31.2069 34.1845 27.994 35.0548 23.7888L39.3362 3.08203H27.3272L27.3343 3.08896Z" fill="#11A64B"/>
<path d="M194.737 3.08789L187.943 35.9384H199.952L206.746 3.08789H194.737Z" fill="#11A64B"/>
<path d="M224.285 3.08789L203.854 35.9384H216.508L219.259 31.1086H233.163L233.957 35.9384H245.727L238.61 3.08789H224.278H224.285ZM230.195 11.9285L231.823 22.4137H224.201L230.195 11.9285Z" fill="#11A64B"/>
<path d="M286.878 12.2894C287.377 10.1729 287.173 8.43807 286.275 7.09185C285.376 5.74563 283.958 4.73944 282.014 4.08021C280.077 3.42098 277.789 3.08789 275.15 3.08789H256.487L249.693 35.9384H268.728C271.83 35.9384 274.567 35.5775 276.94 34.8558C279.312 34.1342 281.242 33.121 282.73 31.8165C284.218 30.5119 285.166 28.9714 285.566 27.1949C285.966 25.5364 285.959 24.0792 285.545 22.8232C285.124 21.5672 284.366 20.5332 283.264 19.7144C282.534 19.1731 281.649 18.7706 280.653 18.4792C282.07 17.9726 283.278 17.2995 284.267 16.446C285.629 15.2663 286.499 13.8784 286.871 12.2824L286.878 12.2894ZM273.894 26.7161C273.487 27.2227 272.918 27.6043 272.174 27.868C271.43 28.1317 270.532 28.2566 269.472 28.2566H262.173L263.366 22.504H270.546C271.416 22.504 272.132 22.5942 272.708 22.7815C273.283 22.9689 273.725 23.2326 274.034 23.5865C274.343 23.9404 274.497 24.3776 274.497 24.898C274.497 25.6058 274.294 26.2095 273.894 26.7161ZM275.361 14.2948C275.038 14.7112 274.553 15.0234 273.922 15.2385C273.283 15.4537 272.504 15.5577 271.57 15.5577H264.805L265.794 10.7697H272.455C273.227 10.7697 273.866 10.8391 274.364 10.9778C274.862 11.1166 275.234 11.3387 275.48 11.644C275.726 11.9493 275.852 12.331 275.852 12.7959C275.852 13.3788 275.69 13.8785 275.361 14.2879V14.2948Z" fill="#11A64B"/>
<path d="M176.994 3.08896L172.853 23.0116C172.545 24.4202 172.018 25.4889 171.274 26.2106C170.53 26.9323 169.351 27.2931 167.737 27.2931C166.958 27.2931 166.277 27.189 165.687 26.9739C165.098 26.7588 164.606 26.4535 164.22 26.051C163.834 25.6554 163.547 25.1628 163.357 24.5799C163.168 23.997 163.076 23.3377 163.076 22.6022H151.025C151.025 23.4279 151.11 24.4411 151.278 25.6416C151.446 26.8351 151.811 28.0772 152.373 29.3679C152.934 30.6587 153.791 31.8592 154.956 32.9764C156.121 34.0936 157.679 35.0096 159.63 35.7104C161.581 36.4113 164.066 36.7652 167.077 36.7652C172.32 36.7652 176.356 35.6549 179.177 33.4274C181.999 31.2069 183.845 27.994 184.715 23.7888L188.996 3.08203H176.987L176.994 3.08896Z" fill="#11A64B"/>
<path d="M344.392 3.08789L337.598 35.9384H349.607L356.401 3.08789H344.392Z" fill="#11A64B"/>
<path d="M326.649 3.08896L322.508 23.0116C322.199 24.4202 321.673 25.4889 320.929 26.2106C320.185 26.9323 319.005 27.2931 317.391 27.2931C316.612 27.2931 315.931 27.189 315.342 26.9739C314.752 26.7588 314.261 26.4535 313.875 26.051C313.489 25.6554 313.201 25.1628 313.011 24.5799C312.822 23.997 312.731 23.3377 312.731 22.6022H300.68C300.68 23.4279 300.764 24.4411 300.932 25.6416C301.101 26.8351 301.466 28.0772 302.027 29.3679C302.589 30.6587 303.445 31.8592 304.61 32.9764C305.775 34.0936 307.333 35.0096 309.285 35.7104C311.236 36.4113 313.72 36.7652 316.731 36.7652C321.974 36.7652 326.01 35.6549 328.832 33.4274C331.653 31.2069 333.499 27.994 334.369 23.7888L338.651 3.08203H326.642L326.649 3.08896Z" fill="#11A64B"/>
<path d="M11.3571 43.9922L-9.07422 76.8427H3.58042L6.33174 72.0129H20.2357L21.0288 76.8427H32.7991L25.6822 43.9922H11.3501H11.3571ZM17.2668 52.8328L18.8951 63.318H11.2729L17.2668 52.8328Z" fill="#11A64B"/>
<path d="M73.9485 53.1937C74.4468 51.0772 74.2433 49.3424 73.3449 47.9961C72.4465 46.6499 71.0287 45.6437 69.0846 44.9845C67.1474 44.3253 64.8594 43.9922 62.2203 43.9922H43.5577L36.7637 76.8427H55.7983C58.9005 76.8427 61.6378 76.4818 64.0101 75.7601C66.3824 75.0385 68.3125 74.0253 69.8005 72.7207C71.2884 71.4162 72.2359 69.8756 72.636 68.0992C73.0361 66.4407 73.0291 64.9835 72.615 63.7275C72.1939 62.4715 71.4358 61.4375 70.3339 60.6187C69.604 60.0774 68.7196 59.6749 67.723 59.3835C69.1407 58.8769 70.3479 58.2038 71.3376 57.3503C72.6992 56.1706 73.5695 54.7827 73.9415 53.1867L73.9485 53.1937ZM60.964 67.6204C60.5569 68.127 59.9884 68.5086 59.2444 68.7723C58.5005 69.036 57.6021 69.1609 56.5422 69.1609H49.2429L50.436 63.4083H57.6161C58.4864 63.4083 59.2023 63.4985 59.7778 63.6858C60.3534 63.8732 60.7955 64.1369 61.1044 64.4908C61.4132 64.8447 61.5676 65.2819 61.5676 65.8023C61.5676 66.5101 61.364 67.1138 60.964 67.6204ZM62.4309 55.1991C62.108 55.6155 61.6238 55.9277 60.9921 56.1428C60.3534 56.358 59.5743 56.462 58.6408 56.462H51.8749L52.8645 51.674H59.5252C60.2972 51.674 60.9359 51.7434 61.4343 51.8821C61.9326 52.0209 62.3046 52.243 62.5502 52.5483C62.7959 52.8536 62.9222 53.2353 62.9222 53.7002C62.9222 54.2831 62.7608 54.7828 62.4309 55.1922V55.1991Z" fill="#11A64B"/>
<path d="M131.466 43.9922L124.672 76.8427H136.681L143.475 43.9922H131.466Z" fill="#11A64B"/>
<path d="M161.015 43.9922L140.584 76.8427H153.239L155.99 72.0129H169.894L170.687 76.8427H182.457L175.34 43.9922H161.008H161.015ZM166.925 52.8328L168.553 63.318H160.931L166.925 52.8328Z" fill="#11A64B"/>
<path d="M223.607 53.1937C224.105 51.0772 223.901 49.3424 223.003 47.9961C222.105 46.6499 220.687 45.6437 218.743 44.9845C216.806 44.3253 214.518 43.9922 211.879 43.9922H193.216L186.422 76.8427H205.456C208.559 76.8427 211.296 76.4818 213.668 75.7601C216.041 75.0385 217.971 74.0253 219.459 72.7207C220.947 71.4162 221.894 69.8756 222.294 68.0992C222.694 66.4407 222.687 64.9835 222.273 63.7275C221.852 62.4715 221.094 61.4375 219.992 60.6187C219.262 60.0774 218.378 59.6749 217.381 59.3835C218.799 58.8769 220.006 58.2038 220.996 57.3503C222.357 56.1706 223.228 54.7827 223.6 53.1867L223.607 53.1937ZM210.622 67.6204C210.215 68.127 209.647 68.5086 208.903 68.7723C208.159 69.036 207.26 69.1609 206.2 69.1609H198.901L200.094 63.4083H207.274C208.145 63.4083 208.861 63.4985 209.436 63.6858C210.012 63.8732 210.454 64.1369 210.763 64.4908C211.071 64.8447 211.226 65.2819 211.226 65.8023C211.226 66.5101 211.022 67.1138 210.622 67.6204ZM212.089 55.1991C211.766 55.6155 211.282 55.9277 210.65 56.1428C210.012 56.358 209.232 56.462 208.299 56.462H201.533L202.523 51.674H209.183C209.955 51.674 210.594 51.7434 211.092 51.8821C211.591 52.0209 211.963 52.243 212.208 52.5483C212.454 52.8536 212.58 53.2353 212.58 53.7002C212.58 54.2831 212.419 54.7828 212.089 55.1922V55.1991Z" fill="#11A64B"/>
<path d="M113.723 43.9913L109.582 63.9139C109.273 65.3226 108.747 66.3913 108.003 67.1129C107.259 67.8346 106.08 68.1955 104.465 68.1955C103.686 68.1955 103.005 68.0914 102.416 67.8763C101.826 67.6611 101.335 67.3558 100.949 66.9533C100.563 66.5578 100.275 66.0651 100.086 65.4822C99.8962 64.8993 99.8049 64.2401 99.8049 63.5045H87.7539C87.7539 64.3303 87.8381 65.3434 88.0066 66.5439C88.175 67.7375 88.54 68.9796 89.1015 70.2703C89.663 71.561 90.5193 72.7615 91.6844 73.8787C92.8495 74.9959 94.4076 75.9119 96.3588 76.6128C98.31 77.3137 100.795 77.6675 103.806 77.6675C109.049 77.6675 113.084 76.5573 115.906 74.3298C118.727 72.1092 120.573 68.8963 121.443 64.6911L125.725 43.9844H113.716L113.723 43.9913Z" fill="#11A64B"/>
<path d="M281.124 43.9922L274.33 76.8427H286.339L293.133 43.9922H281.124Z" fill="#11A64B"/>
<path d="M310.674 43.9922L290.242 76.8427H302.897L305.648 72.0129H319.552L320.345 76.8427H332.116L324.999 43.9922H310.666H310.674ZM316.583 52.8328L318.212 63.318H310.589L316.583 52.8328Z" fill="#11A64B"/>
<path d="M373.267 53.1937C373.765 51.0772 373.562 49.3424 372.663 47.9961C371.765 46.6499 370.347 45.6437 368.403 44.9845C366.466 44.3253 364.178 43.9922 361.539 43.9922H342.876L336.082 76.8427H355.117C358.219 76.8427 360.956 76.4818 363.328 75.7601C365.701 75.0385 367.631 74.0253 369.119 72.7207C370.607 71.4162 371.554 69.8756 371.954 68.0992C372.354 66.4407 372.347 64.9835 371.933 63.7275C371.512 62.4715 370.754 61.4375 369.652 60.6187C368.922 60.0774 368.038 59.6749 367.041 59.3835C368.459 58.8769 369.666 58.2038 370.656 57.3503C372.018 56.1706 372.888 54.7827 373.26 53.1867L373.267 53.1937ZM360.282 67.6204C359.875 68.127 359.307 68.5086 358.563 68.7723C357.819 69.036 356.92 69.1609 355.861 69.1609H348.561L349.754 63.4083H356.934C357.805 63.4083 358.521 63.4985 359.096 63.6858C359.672 63.8732 360.114 64.1369 360.423 64.4908C360.732 64.8447 360.886 65.2819 360.886 65.8023C360.886 66.5101 360.682 67.1138 360.282 67.6204ZM361.749 55.1991C361.426 55.6155 360.942 55.9277 360.31 56.1428C359.672 56.358 358.893 56.462 357.959 56.462H351.193L352.183 51.674H358.844C359.616 51.674 360.254 51.7434 360.753 51.8821C361.251 52.0209 361.623 52.243 361.869 52.5483C362.114 52.8536 362.241 53.2353 362.241 53.7002C362.241 54.2831 362.079 54.7828 361.749 55.1922V55.1991Z" fill="#11A64B"/>
<path d="M263.383 43.9913L259.242 63.9139C258.933 65.3226 258.407 66.3913 257.663 67.1129C256.919 67.8346 255.74 68.1955 254.125 68.1955C253.346 68.1955 252.666 68.0914 252.076 67.8763C251.486 67.6611 250.995 67.3558 250.609 66.9533C250.223 66.5578 249.935 66.0651 249.746 65.4822C249.556 64.8993 249.465 64.2401 249.465 63.5045H237.414C237.414 64.3303 237.498 65.3434 237.667 66.5439C237.835 67.7375 238.2 68.9796 238.762 70.2703C239.323 71.561 240.179 72.7615 241.345 73.8787C242.51 74.9959 244.068 75.9119 246.019 76.6128C247.97 77.3137 250.455 77.6675 253.466 77.6675C258.709 77.6675 262.744 76.5573 265.566 74.3298C268.387 72.1092 270.233 68.8963 271.104 64.6911L275.385 43.9844H263.376L263.383 43.9913Z" fill="#11A64B"/>
<path d="M45.0753 86.0957L38.2812 118.946H50.2902L57.0842 86.0957H45.0753Z" fill="#11A64B"/>
<path d="M74.6247 86.0957L54.1934 118.946H66.848L69.5993 114.116H83.5033L84.2964 118.946H96.0667L88.9498 86.0957H74.6177H74.6247ZM80.5344 94.9363L82.1627 105.422H74.5404L80.5344 94.9363Z" fill="#11A64B"/>
<path d="M137.218 95.2972C137.716 93.1807 137.513 91.4459 136.614 90.0997C135.716 88.7534 134.298 87.7473 132.354 87.088C130.417 86.4288 128.129 86.0957 125.49 86.0957H106.827L100.033 118.946H119.068C122.17 118.946 124.907 118.585 127.28 117.864C129.652 117.142 131.582 116.129 133.07 114.824C134.558 113.52 135.505 111.979 135.906 110.203C136.306 108.544 136.299 107.087 135.885 105.831C135.463 104.575 134.705 103.541 133.603 102.722C132.874 102.181 131.989 101.778 130.992 101.487C132.41 100.98 133.617 100.307 134.607 99.4538C135.969 98.2741 136.839 96.8863 137.211 95.2902L137.218 95.2972ZM124.234 109.724C123.826 110.23 123.258 110.612 122.514 110.876C121.77 111.14 120.872 111.264 119.812 111.264H112.512L113.706 105.512H120.886C121.756 105.512 122.472 105.602 123.047 105.789C123.623 105.977 124.065 106.24 124.374 106.594C124.683 106.948 124.837 107.385 124.837 107.906C124.837 108.614 124.634 109.217 124.234 109.724ZM125.7 97.3026C125.378 97.719 124.893 98.0312 124.262 98.2464C123.623 98.4615 122.844 98.5656 121.91 98.5656H115.144L116.134 93.7775H122.795C123.567 93.7775 124.205 93.8469 124.704 93.9857C125.202 94.1244 125.574 94.3465 125.82 94.6518C126.065 94.9571 126.192 95.3388 126.192 95.8037C126.192 96.3866 126.03 96.8863 125.7 97.2957V97.3026Z" fill="#11A64B"/>
<path d="M27.3343 86.0948L23.1933 106.017C22.8845 107.426 22.3581 108.495 21.6141 109.216C20.8701 109.938 19.6909 110.299 18.0767 110.299C17.2976 110.299 16.6168 110.195 16.0272 109.98C15.4377 109.765 14.9463 109.459 14.5603 109.057C14.1743 108.661 13.8865 108.169 13.697 107.586C13.5075 107.003 13.4163 106.344 13.4163 105.608H1.36523C1.36523 106.434 1.44945 107.447 1.6179 108.647C1.78634 109.841 2.15131 111.083 2.7128 112.374C3.2743 113.665 4.13061 114.865 5.29571 115.982C6.4608 117.099 8.01893 118.015 9.97011 118.716C11.9213 119.417 14.4059 119.771 17.4169 119.771C22.6598 119.771 26.6956 118.661 29.5171 116.433C32.3386 114.213 34.1845 111 35.0548 106.795L39.3362 86.0879H27.3272L27.3343 86.0948Z" fill="#11A64B"/>
<path d="M194.737 86.0957L187.943 118.946H199.952L206.746 86.0957H194.737Z" fill="#11A64B"/>
<path d="M224.285 86.0957L203.854 118.946H216.508L219.259 114.116H233.163L233.957 118.946H245.727L238.61 86.0957H224.278H224.285ZM230.195 94.9363L231.823 105.422H224.201L230.195 94.9363Z" fill="#11A64B"/>
<path d="M286.878 95.2972C287.377 93.1807 287.173 91.4459 286.275 90.0997C285.376 88.7534 283.958 87.7473 282.014 87.088C280.077 86.4288 277.789 86.0957 275.15 86.0957H256.487L249.693 118.946H268.728C271.83 118.946 274.567 118.585 276.94 117.864C279.312 117.142 281.242 116.129 282.73 114.824C284.218 113.52 285.166 111.979 285.566 110.203C285.966 108.544 285.959 107.087 285.545 105.831C285.124 104.575 284.366 103.541 283.264 102.722C282.534 102.181 281.649 101.778 280.653 101.487C282.07 100.98 283.278 100.307 284.267 99.4538C285.629 98.2741 286.499 96.8863 286.871 95.2902L286.878 95.2972ZM273.894 109.724C273.487 110.23 272.918 110.612 272.174 110.876C271.43 111.14 270.532 111.264 269.472 111.264H262.173L263.366 105.512H270.546C271.416 105.512 272.132 105.602 272.708 105.789C273.283 105.977 273.725 106.24 274.034 106.594C274.343 106.948 274.497 107.385 274.497 107.906C274.497 108.614 274.294 109.217 273.894 109.724ZM275.361 97.3026C275.038 97.719 274.553 98.0312 273.922 98.2464C273.283 98.4615 272.504 98.5656 271.57 98.5656H264.805L265.794 93.7775H272.455C273.227 93.7775 273.866 93.8469 274.364 93.9857C274.862 94.1244 275.234 94.3465 275.48 94.6518C275.726 94.9571 275.852 95.3388 275.852 95.8037C275.852 96.3866 275.69 96.8863 275.361 97.2957V97.3026Z" fill="#11A64B"/>
<path d="M176.994 86.0948L172.853 106.017C172.545 107.426 172.018 108.495 171.274 109.216C170.53 109.938 169.351 110.299 167.737 110.299C166.958 110.299 166.277 110.195 165.687 109.98C165.098 109.765 164.606 109.459 164.22 109.057C163.834 108.661 163.547 108.169 163.357 107.586C163.168 107.003 163.076 106.344 163.076 105.608H151.025C151.025 106.434 151.11 107.447 151.278 108.647C151.446 109.841 151.811 111.083 152.373 112.374C152.934 113.665 153.791 114.865 154.956 115.982C156.121 117.099 157.679 118.015 159.63 118.716C161.581 119.417 164.066 119.771 167.077 119.771C172.32 119.771 176.356 118.661 179.177 116.433C181.999 114.213 183.845 111 184.715 106.795L188.996 86.0879H176.987L176.994 86.0948Z" fill="#11A64B"/>
<path d="M344.394 86.0957L337.6 118.946H349.609L356.403 86.0957H344.394Z" fill="#11A64B"/>
<path d="M326.651 86.0948L322.51 106.017C322.201 107.426 321.674 108.495 320.93 109.216C320.187 109.938 319.007 110.299 317.393 110.299C316.614 110.299 315.933 110.195 315.344 109.98C314.754 109.765 314.263 109.459 313.877 109.057C313.491 108.661 313.203 108.169 313.013 107.586C312.824 107.003 312.733 106.344 312.733 105.608H300.682C300.682 106.434 300.766 107.447 300.934 108.647C301.103 109.841 301.468 111.083 302.029 112.374C302.591 113.665 303.447 114.865 304.612 115.982C305.777 117.099 307.335 118.015 309.287 118.716C311.238 119.417 313.722 119.771 316.733 119.771C321.976 119.771 326.012 118.661 328.833 116.433C331.655 114.213 333.501 111 334.371 106.795L338.653 86.0879H326.644L326.651 86.0948Z" fill="#11A64B"/>
</g>
</g>
<path d="M46.7127 15.2771C39.6181 16.5771 34.9178 23.3642 36.2138 30.4372C37.5098 37.5101 44.3113 42.1897 51.4059 40.8896C58.5005 39.5896 63.2009 32.8025 61.9048 25.7295C60.6088 18.6566 53.8073 13.977 46.7127 15.2771ZM56.2733 35.3693C51.2034 39.6407 43.5668 37.9829 41.0667 33.0804C41.0667 33.0804 45.9149 33.3267 51.1266 30.6951C56.1794 28.1439 58.7929 24.3004 58.7929 24.3004C58.7929 24.3004 61.2037 31.2152 56.2733 35.3693Z" fill="#FFE200"/>
<path d="M22.41 38.4094C18.1341 35.9299 12.7718 37.1672 10.4326 41.1731C8.09341 45.1791 9.66335 50.4363 13.9393 52.9159C18.2152 55.3954 23.5775 54.1581 25.9167 50.1521C28.2559 46.1461 26.6859 40.8889 22.41 38.4094ZM18.8484 52.3675C14.3661 52.22 11.0684 48.0652 11.8496 44.5861C11.8496 44.5861 14.2874 46.832 18.1441 47.8386C21.8832 48.8146 24.8945 48.0927 24.8945 48.0927C24.8945 48.0927 23.2075 52.5107 18.8484 52.3675Z" fill="#FFE200"/>
<path d="M20.9824 13.9372C18.6891 12.6073 15.8059 13.2832 14.5425 15.4469C13.279 17.6106 14.1139 20.4425 16.4072 21.7724C18.7006 23.1023 21.5838 22.4264 22.8472 20.2627C24.1106 18.099 23.2758 15.2671 20.9824 13.9372ZM19.0458 21.4687C16.6377 21.3965 14.8727 19.1618 15.2982 17.2847C15.2982 17.2847 16.6043 18.4916 18.6748 19.028C20.6822 19.5481 22.3014 19.154 22.3014 19.154C22.3014 19.154 21.3877 21.5388 19.0458 21.4687Z" fill="#FFE200"/>
<g opacity="0.5">
<path opacity="0.6" d="M349.748 96.1295L342.152 102.874L321.312 101.129L327.689 95.4597L349.748 96.1295Z" fill="black"/>
<path opacity="0.6" d="M284.056 114.557C284.056 114.557 280.359 115.296 276.569 115.541C273.654 115.729 271.921 115.454 268.691 116.32C265.683 117.126 263.312 119.057 263.312 119.057C263.312 119.057 272.085 117.895 275.824 118.616C280.866 119.587 283.368 118.186 283.368 118.186L284.057 114.557L284.056 114.557Z" fill="black"/>
<path opacity="0.6" d="M306.246 105.835L333.797 106.916L307.651 123.03C307.651 123.03 301.411 123.047 299.049 123.174C296.686 123.302 289.535 124.201 288.204 127.481C286.533 131.597 276.187 138.095 276.187 138.095L270.049 137.387L279.869 131.625L282.535 124.395L282.196 115.544L306.246 105.835Z" fill="black"/>
<path opacity="0.6" d="M342.549 118.219C342.549 118.219 332.43 116.817 327.153 118.044C321.875 119.271 313.549 119.136 313.549 119.136L320.589 115.789C320.589 115.789 332.664 114.804 348.265 112.962L342.549 118.219L342.549 118.219Z" fill="black"/>
</g>
<path d="M277.191 106.553C277.191 106.553 271.848 107.298 268.834 112.003L263.107 111.483C263.107 111.483 265.762 106.346 269.388 105.879C273.014 105.412 277.191 106.553 277.191 106.553Z" fill="#BEA803"/>
<path d="M287.996 117.318L282.65 117.739C282.65 117.739 278.269 115.548 275.538 110.519C272.808 105.491 269.389 105.877 269.389 105.877C269.389 105.877 275.344 105.343 277.192 106.551C279.04 107.759 279.62 109.12 280.673 110.986C282.458 114.15 287.996 117.318 287.996 117.318L287.996 117.318Z" fill="#FFE200"/>
<path d="M319.031 79.3425L342.15 102.875L319.859 99.1027L305.312 88.7238L299.982 79.5645L307.151 78.3518L319.031 79.3425Z" fill="#8C8C8C"/>
<path d="M342.54 84.559C342.54 84.559 339.978 83.355 338.007 84.0933C336.036 84.8315 334.951 85.7441 334.951 85.7441L331.41 82.7107C331.41 82.7107 337.957 79.2061 340.598 81.2288C343.239 83.2515 342.54 84.559 342.54 84.559Z" fill="#BEA803"/>
<path d="M335.231 82.9501C335.231 82.9501 336.206 82.9892 336.919 83.5071C337.632 84.0253 339.086 85.0229 339.781 87.3833C340.475 89.7438 339.172 91.8321 338.096 92.6797L334.531 89.5975C334.531 89.5975 337.514 87.3328 337.262 86.0537C336.79 83.6658 335.231 82.9501 335.231 82.9501Z" fill="#FFE200"/>
<path d="M320.316 73.1997C320.316 73.1997 317.205 71.1868 314.762 71.9123C312.319 72.6375 312.005 74.1732 311.925 75.8438C311.846 77.5146 315.599 77.7435 315.599 77.7435L315.047 75.9308C315.047 75.9308 317.594 74.8527 318.689 74.7573C319.784 74.6616 320.316 73.1997 320.316 73.1997Z" fill="#BEA803"/>
<path d="M329.993 74.5508L330.651 71.784L322.361 68.2643C322.361 68.2643 320.546 68.5407 319.426 71.1511C318.306 73.7614 318.201 76.2403 318.201 76.2403L326.878 79.9008L329.993 74.5507L329.993 74.5508Z" fill="#FFE200"/>
<path d="M330.651 71.7829C330.651 71.7829 331.841 73.3541 331.135 76.2036C330.43 79.0533 330.116 81.2408 330.116 81.2408L326.78 78.4906C326.78 78.4906 327.219 71.512 330.651 71.7829Z" fill="#BEA803"/>
<path d="M317.616 82.4566L322.534 74.9389L304.772 72.9072L299.982 79.5653L317.616 82.4566Z" fill="#EFF0F2"/>
<path d="M273.553 95.9331L295.232 84.6632L320.727 81.8925L299.986 94.3111L273.553 95.9331Z" fill="#F0F0F0"/>
<path d="M277.819 94.79L295.608 85.5429L316.527 83.2695L299.508 93.4593L277.819 94.79Z" fill="#828282"/>
<path d="M291.097 123.018L294.954 121.354L297.312 122.412C297.312 122.412 296.33 123.156 294.428 123.665C292.526 124.175 291.097 123.018 291.097 123.018L291.097 123.018Z" fill="#FFE200"/>
<path d="M307.6 122.796L327.659 107.76L320.727 81.8923L299.986 94.3109L307.6 122.796Z" fill="#E8E8E8"/>
<path d="M317.616 82.4564L322.535 74.9387L347.069 95.3578L342.151 102.875L317.616 82.4564Z" fill="white"/>
<path d="M307.634 122.787L280.484 121.801L273.553 95.9336L299.986 94.3116L307.634 122.787Z" fill="#F7F7F7"/>
<path d="M293.965 123.758C293.965 123.758 293.271 123.029 292.695 121.924C292.119 120.818 291.742 119.413 290.628 119.432C289.513 119.45 286.196 121.04 286.196 121.04L287.457 123.362C287.457 123.362 290.982 124.378 293.965 123.758Z" fill="#BEA803"/>
<path d="M290.625 119.433C286.195 121.18 288.469 125.752 285.496 129.279C282.523 132.806 275.593 136.973 275.593 136.973L269.158 136.457C269.158 136.457 277.281 133.09 279.995 127.812C282.709 122.534 282.074 119.904 283.38 119.554L290.624 119.433L290.625 119.433Z" fill="#FFE200"/>
<path d="M313.505 85.0783L299.759 93.3918L281.923 94.538L282.4 95.3899L299.987 94.3106L313.661 86.1236L313.505 85.0783Z" fill="#EFF0F2"/>
<path d="M314.015 117.987C314.015 117.987 315.908 118.965 319.426 118.32C323.294 117.612 327.327 114.207 327.327 114.207C327.327 114.207 326.28 117.963 319.593 113.806L314.015 117.987Z" fill="#FFE200"/>
<path d="M326.717 105.461C323.929 106.007 324.591 116.331 319.427 118.321C323.729 117.804 328.764 114.722 330.227 113.208C331.69 111.694 334.882 103.776 334.882 103.776C333.245 103.071 328.706 105.072 326.717 105.461L326.717 105.461Z" fill="#BEA803"/>
<path d="M341.96 116.887C341.96 116.887 331.451 104.274 325.914 105.968C325.914 105.968 330.096 102.374 335.397 103.638C339.076 104.516 348.267 112.962 348.267 112.962L341.96 116.887L341.96 116.887Z" fill="#FFE200"/>
<path d="M306.244 63.8069L305.648 63.2109L303.862 64.9983L304.458 65.5943L306.244 63.8069Z" fill="white"/>
<path d="M269.645 65.177L269.629 66.0195L272.155 66.0676L272.171 65.225L269.645 65.177Z" fill="white"/>
<path d="M335.463 73.5969C335.822 73.5006 336.036 73.1309 335.939 72.7712C335.843 72.4115 335.473 72.198 335.114 72.2943C334.754 72.3907 334.541 72.7603 334.637 73.12C334.734 73.4797 335.103 73.6932 335.463 73.5969Z" fill="white"/>
<path d="M276.397 80.3991C276.386 80.0269 276.075 79.7342 275.703 79.7453C275.331 79.7564 275.039 80.0672 275.05 80.4394C275.061 80.8116 275.372 81.1043 275.744 81.0931C276.116 81.082 276.408 80.7713 276.397 80.3991Z" fill="white"/>
<path d="M317.231 66.6213L316.833 68.1074L318.318 67.7094L317.231 66.6213Z" fill="white"/>
<path d="M255.715 92.1126L255.155 90.6795L254.195 91.8809L255.715 92.1126Z" fill="white"/>
<path d="M252.688 69.0616L252.128 67.6287L251.168 68.8301L252.688 69.0616Z" fill="white"/>
<path d="M260.809 79.3826L261.465 78.8535L259.878 76.8857L259.222 77.4148L260.809 79.3826Z" fill="#FFD93B"/>
<path d="M317.61 53.6264L318.113 52.9512L316.088 51.4385L315.584 52.1138L317.61 53.6264Z" fill="#FFD93B"/>
<path d="M264.172 98.1985C264.531 98.1022 264.745 97.7325 264.648 97.3728C264.552 97.0131 264.182 96.7996 263.823 96.8959C263.463 96.9922 263.25 97.3619 263.346 97.7216C263.443 98.0813 263.812 98.2948 264.172 98.1985Z" fill="#FFD93B"/>
<path d="M300.721 53.4499C300.907 53.1275 300.796 52.7151 300.474 52.5289C300.152 52.3427 299.74 52.4531 299.554 52.7755C299.368 53.098 299.478 53.5103 299.8 53.6966C300.123 53.8828 300.535 53.7724 300.721 53.4499Z" fill="#FFD93B"/>
<path d="M294.786 71.5807C294.775 71.2085 294.464 70.9158 294.092 70.9269C293.72 70.9381 293.427 71.2488 293.439 71.621C293.45 71.9932 293.761 72.2859 294.133 72.2748C294.505 72.2637 294.797 71.9529 294.786 71.5807Z" fill="#FFD93B"/>
<path d="M282.453 68.9495L280.947 68.6387L281.431 70.0989L282.453 68.9495Z" fill="#FFD93B"/>
<path d="M341.963 63.969L341.367 63.373L339.581 65.1605L340.176 65.7564L341.963 63.969Z" fill="#FFD93B"/>
<path d="M269.309 91.226L269.812 90.5508L267.787 89.0382L267.284 89.7134L269.309 91.226Z" fill="#FFD93B"/>
<path d="M288.711 58.8664C289.07 58.7701 289.284 58.4005 289.187 58.0408C289.091 57.6811 288.721 57.4676 288.362 57.5639C288.002 57.6602 287.789 58.0299 287.885 58.3896C287.982 58.7493 288.351 58.9628 288.711 58.8664Z" fill="#FFD93B"/>
<path d="M328.799 62.591L328.239 61.158L327.279 62.3594" fill="#FFD93B"/>
<path d="M297.286 93.7227L294.952 85.0129L275.561 95.0556L297.286 93.7227Z" fill="#747474"/>
<path d="M96.5833 30.474H93.4193V29.004H101.427V30.474H98.2773V39H96.5833V30.474ZM104.19 29.004V32.728C104.498 32.308 104.848 32 105.254 31.804C105.66 31.608 106.094 31.496 106.556 31.496C108.18 31.496 108.992 32.392 108.992 34.184V39H107.396V34.436C107.396 33.848 107.284 33.442 107.074 33.204C106.85 32.966 106.542 32.84 106.122 32.84C105.828 32.84 105.562 32.896 105.324 32.994C105.086 33.106 104.89 33.232 104.722 33.4C104.554 33.568 104.414 33.764 104.33 33.988C104.232 34.212 104.19 34.436 104.19 34.66V39H102.608V29.004H104.19ZM117.211 36.844C117.071 37.6 116.749 38.188 116.245 38.608C115.727 39.028 114.985 39.224 114.033 39.224C112.871 39.224 111.989 38.902 111.387 38.23C110.785 37.558 110.491 36.62 110.491 35.402C110.491 34.786 110.575 34.226 110.743 33.736C110.911 33.26 111.163 32.854 111.471 32.518C111.779 32.182 112.157 31.93 112.591 31.762C113.025 31.594 113.501 31.496 114.033 31.496C114.593 31.496 115.069 31.594 115.489 31.762C115.895 31.93 116.231 32.182 116.511 32.49C116.777 32.798 116.973 33.176 117.113 33.61C117.239 34.044 117.309 34.52 117.309 35.052V35.752H112.087C112.101 36.424 112.269 36.956 112.591 37.362C112.899 37.782 113.389 37.978 114.033 37.978C114.537 37.978 114.915 37.88 115.167 37.684C115.419 37.488 115.587 37.208 115.671 36.844H117.211ZM115.755 34.646C115.755 34.058 115.615 33.582 115.335 33.232C115.055 32.896 114.607 32.714 113.991 32.714C113.403 32.714 112.955 32.896 112.647 33.246C112.339 33.596 112.157 34.058 112.115 34.646H115.755ZM128.393 36.452C128.295 37.32 127.987 38.006 127.455 38.496C126.923 38.986 126.181 39.224 125.201 39.224C124.613 39.224 124.095 39.14 123.661 38.958C123.227 38.776 122.863 38.51 122.583 38.174C122.289 37.838 122.079 37.446 121.939 36.97C121.799 36.494 121.729 35.976 121.729 35.388C121.729 34.814 121.799 34.282 121.967 33.806C122.121 33.33 122.345 32.91 122.653 32.574C122.961 32.238 123.325 31.972 123.773 31.776C124.207 31.594 124.711 31.496 125.271 31.496C125.775 31.496 126.209 31.566 126.573 31.706C126.923 31.846 127.217 32.028 127.455 32.252C127.679 32.476 127.861 32.742 128.001 33.036C128.127 33.344 128.225 33.652 128.281 33.974L126.699 34.212C126.615 33.806 126.475 33.47 126.265 33.19C126.055 32.924 125.705 32.784 125.215 32.784C124.851 32.784 124.557 32.868 124.333 33.008C124.095 33.162 123.913 33.358 123.773 33.596C123.633 33.834 123.521 34.1 123.465 34.408C123.409 34.716 123.381 35.038 123.381 35.346C123.381 35.71 123.409 36.06 123.479 36.368C123.535 36.69 123.647 36.97 123.787 37.194C123.927 37.418 124.109 37.6 124.347 37.74C124.571 37.88 124.865 37.936 125.201 37.936C125.677 37.936 126.055 37.81 126.307 37.558C126.559 37.306 126.713 36.928 126.783 36.452H128.393ZM133.23 37.936C133.902 37.936 134.392 37.712 134.7 37.25C135.008 36.788 135.176 36.158 135.176 35.346C135.176 34.562 135.008 33.932 134.7 33.47C134.392 33.022 133.902 32.784 133.23 32.784C132.558 32.784 132.054 33.022 131.746 33.484C131.438 33.946 131.284 34.562 131.284 35.346C131.284 36.144 131.424 36.774 131.732 37.236C132.04 37.712 132.53 37.936 133.23 37.936ZM133.216 39.224C132.068 39.224 131.186 38.888 130.57 38.216C129.94 37.544 129.632 36.592 129.632 35.36C129.632 34.786 129.702 34.254 129.87 33.778C130.038 33.302 130.276 32.896 130.584 32.56C130.892 32.224 131.27 31.972 131.718 31.776C132.166 31.594 132.67 31.496 133.244 31.496C133.818 31.496 134.336 31.594 134.784 31.79C135.232 31.986 135.596 32.238 135.904 32.574C136.212 32.91 136.436 33.316 136.59 33.792C136.744 34.268 136.828 34.772 136.828 35.332C136.828 35.976 136.73 36.536 136.562 37.012C136.38 37.488 136.128 37.894 135.806 38.23C135.484 38.566 135.106 38.804 134.672 38.972C134.224 39.14 133.748 39.224 133.216 39.224ZM139.955 31.72V32.784C140.277 32.336 140.641 32.014 141.047 31.804C141.453 31.608 141.887 31.496 142.363 31.496C143.987 31.496 144.799 32.392 144.799 34.184V39H143.203V34.436C143.203 33.848 143.091 33.442 142.881 33.204C142.657 32.966 142.349 32.84 141.929 32.84C141.649 32.84 141.383 32.896 141.145 32.994C140.907 33.092 140.711 33.218 140.543 33.386C140.375 33.554 140.235 33.75 140.137 33.974C140.039 34.198 139.997 34.422 139.997 34.66V39H138.415V31.72H139.955ZM145.836 32.98V31.72H146.984V29.76H148.566V31.72H150.372V32.98H148.566V36.788C148.566 37.166 148.636 37.432 148.79 37.6C148.944 37.768 149.168 37.852 149.476 37.852C149.63 37.852 149.784 37.852 149.924 37.824C150.064 37.81 150.218 37.782 150.358 37.726L150.596 38.916C150.148 39.07 149.658 39.14 149.14 39.14C148.328 39.14 147.768 38.944 147.46 38.524C147.138 38.104 146.984 37.488 146.984 36.648V32.98H145.836ZM157.953 36.844C157.813 37.6 157.491 38.188 156.987 38.608C156.469 39.028 155.727 39.224 154.775 39.224C153.613 39.224 152.731 38.902 152.129 38.23C151.527 37.558 151.233 36.62 151.233 35.402C151.233 34.786 151.317 34.226 151.485 33.736C151.653 33.26 151.905 32.854 152.213 32.518C152.521 32.182 152.899 31.93 153.333 31.762C153.767 31.594 154.243 31.496 154.775 31.496C155.335 31.496 155.811 31.594 156.231 31.762C156.637 31.93 156.973 32.182 157.253 32.49C157.519 32.798 157.715 33.176 157.855 33.61C157.981 34.044 158.051 34.52 158.051 35.052V35.752H152.829C152.843 36.424 153.011 36.956 153.333 37.362C153.641 37.782 154.131 37.978 154.775 37.978C155.279 37.978 155.657 37.88 155.909 37.684C156.161 37.488 156.329 37.208 156.413 36.844H157.953ZM156.497 34.646C156.497 34.058 156.357 33.582 156.077 33.232C155.797 32.896 155.349 32.714 154.733 32.714C154.145 32.714 153.697 32.896 153.389 33.246C153.081 33.596 152.899 34.058 152.857 34.646H156.497ZM160.698 36.774C160.726 37.026 160.782 37.222 160.894 37.376C160.992 37.53 161.118 37.656 161.272 37.74C161.426 37.838 161.608 37.908 161.818 37.936C162.014 37.964 162.238 37.978 162.476 37.978C163.008 37.978 163.386 37.908 163.624 37.74C163.848 37.586 163.974 37.348 163.974 37.04C163.974 36.802 163.89 36.592 163.75 36.424C163.61 36.256 163.316 36.144 162.868 36.06C162.28 35.962 161.776 35.864 161.342 35.766C160.894 35.682 160.53 35.556 160.236 35.388C159.928 35.22 159.704 35.01 159.564 34.758C159.41 34.506 159.34 34.156 159.34 33.708C159.34 33.372 159.41 33.078 159.564 32.798C159.704 32.518 159.914 32.294 160.18 32.098C160.446 31.902 160.768 31.762 161.132 31.65C161.496 31.552 161.902 31.496 162.35 31.496C162.91 31.496 163.372 31.552 163.75 31.664C164.114 31.776 164.422 31.93 164.66 32.126C164.884 32.322 165.066 32.546 165.192 32.798C165.304 33.05 165.402 33.316 165.472 33.596L164.044 33.792C163.932 33.428 163.75 33.162 163.526 32.98C163.302 32.812 162.924 32.714 162.392 32.714C162.084 32.714 161.832 32.742 161.636 32.798C161.44 32.854 161.272 32.924 161.16 33.008C161.048 33.092 160.964 33.19 160.922 33.288C160.88 33.4 160.866 33.498 160.866 33.596C160.866 33.764 160.88 33.89 160.922 33.988C160.95 34.1 161.02 34.184 161.118 34.24C161.216 34.31 161.356 34.366 161.524 34.408C161.692 34.464 161.902 34.506 162.154 34.548L163.064 34.702C163.54 34.786 163.946 34.898 164.268 35.024C164.59 35.164 164.842 35.318 165.038 35.514C165.234 35.71 165.36 35.92 165.444 36.172C165.514 36.424 165.556 36.704 165.556 37.012C165.556 37.684 165.304 38.216 164.8 38.622C164.296 39.028 163.526 39.224 162.504 39.224C162.084 39.224 161.678 39.196 161.286 39.112C160.894 39.028 160.558 38.902 160.25 38.706C159.942 38.524 159.69 38.272 159.494 37.964C159.298 37.656 159.2 37.25 159.172 36.774H160.698ZM166.316 32.98V31.72H167.464V29.76H169.046V31.72H170.852V32.98H169.046V36.788C169.046 37.166 169.116 37.432 169.27 37.6C169.424 37.768 169.648 37.852 169.956 37.852C170.11 37.852 170.264 37.852 170.404 37.824C170.544 37.81 170.698 37.782 170.838 37.726L171.076 38.916C170.628 39.07 170.138 39.14 169.62 39.14C168.808 39.14 168.248 38.944 167.94 38.524C167.618 38.104 167.464 37.488 167.464 36.648V32.98H166.316ZM176.871 29.004V30.586H175.219V29.004H176.871ZM176.843 31.72V39H175.247V31.72H176.843ZM179.771 36.774C179.799 37.026 179.855 37.222 179.967 37.376C180.065 37.53 180.191 37.656 180.345 37.74C180.499 37.838 180.681 37.908 180.891 37.936C181.087 37.964 181.311 37.978 181.549 37.978C182.081 37.978 182.459 37.908 182.697 37.74C182.921 37.586 183.047 37.348 183.047 37.04C183.047 36.802 182.963 36.592 182.823 36.424C182.683 36.256 182.389 36.144 181.941 36.06C181.353 35.962 180.849 35.864 180.415 35.766C179.967 35.682 179.603 35.556 179.309 35.388C179.001 35.22 178.777 35.01 178.637 34.758C178.483 34.506 178.413 34.156 178.413 33.708C178.413 33.372 178.483 33.078 178.637 32.798C178.777 32.518 178.987 32.294 179.253 32.098C179.519 31.902 179.841 31.762 180.205 31.65C180.569 31.552 180.975 31.496 181.423 31.496C181.983 31.496 182.445 31.552 182.823 31.664C183.187 31.776 183.495 31.93 183.733 32.126C183.957 32.322 184.139 32.546 184.265 32.798C184.377 33.05 184.475 33.316 184.545 33.596L183.117 33.792C183.005 33.428 182.823 33.162 182.599 32.98C182.375 32.812 181.997 32.714 181.465 32.714C181.157 32.714 180.905 32.742 180.709 32.798C180.513 32.854 180.345 32.924 180.233 33.008C180.121 33.092 180.037 33.19 179.995 33.288C179.953 33.4 179.939 33.498 179.939 33.596C179.939 33.764 179.953 33.89 179.995 33.988C180.023 34.1 180.093 34.184 180.191 34.24C180.289 34.31 180.429 34.366 180.597 34.408C180.765 34.464 180.975 34.506 181.227 34.548L182.137 34.702C182.613 34.786 183.019 34.898 183.341 35.024C183.663 35.164 183.915 35.318 184.111 35.514C184.307 35.71 184.433 35.92 184.517 36.172C184.587 36.424 184.629 36.704 184.629 37.012C184.629 37.684 184.377 38.216 183.873 38.622C183.369 39.028 182.599 39.224 181.577 39.224C181.157 39.224 180.751 39.196 180.359 39.112C179.967 39.028 179.631 38.902 179.323 38.706C179.015 38.524 178.763 38.272 178.567 37.964C178.371 37.656 178.273 37.25 178.245 36.774H179.771ZM192.566 37.936C193.238 37.936 193.728 37.712 194.036 37.25C194.344 36.788 194.512 36.158 194.512 35.346C194.512 34.562 194.344 33.932 194.036 33.47C193.728 33.022 193.238 32.784 192.566 32.784C191.894 32.784 191.39 33.022 191.082 33.484C190.774 33.946 190.62 34.562 190.62 35.346C190.62 36.144 190.76 36.774 191.068 37.236C191.376 37.712 191.866 37.936 192.566 37.936ZM192.552 39.224C191.404 39.224 190.522 38.888 189.906 38.216C189.276 37.544 188.968 36.592 188.968 35.36C188.968 34.786 189.038 34.254 189.206 33.778C189.374 33.302 189.612 32.896 189.92 32.56C190.228 32.224 190.606 31.972 191.054 31.776C191.502 31.594 192.006 31.496 192.58 31.496C193.154 31.496 193.672 31.594 194.12 31.79C194.568 31.986 194.932 32.238 195.24 32.574C195.548 32.91 195.772 33.316 195.926 33.792C196.08 34.268 196.164 34.772 196.164 35.332C196.164 35.976 196.066 36.536 195.898 37.012C195.716 37.488 195.464 37.894 195.142 38.23C194.82 38.566 194.442 38.804 194.008 38.972C193.56 39.14 193.084 39.224 192.552 39.224ZM198.363 31.72L200.253 37.208L202.171 31.72H203.935L201.037 39H199.399L196.515 31.72H198.363ZM210.986 36.844C210.846 37.6 210.524 38.188 210.02 38.608C209.502 39.028 208.76 39.224 207.808 39.224C206.646 39.224 205.764 38.902 205.162 38.23C204.56 37.558 204.266 36.62 204.266 35.402C204.266 34.786 204.35 34.226 204.518 33.736C204.686 33.26 204.938 32.854 205.246 32.518C205.554 32.182 205.932 31.93 206.366 31.762C206.8 31.594 207.276 31.496 207.808 31.496C208.368 31.496 208.844 31.594 209.264 31.762C209.67 31.93 210.006 32.182 210.286 32.49C210.552 32.798 210.748 33.176 210.888 33.61C211.014 34.044 211.084 34.52 211.084 35.052V35.752H205.862C205.876 36.424 206.044 36.956 206.366 37.362C206.674 37.782 207.164 37.978 207.808 37.978C208.312 37.978 208.69 37.88 208.942 37.684C209.194 37.488 209.362 37.208 209.446 36.844H210.986ZM209.53 34.646C209.53 34.058 209.39 33.582 209.11 33.232C208.83 32.896 208.382 32.714 207.766 32.714C207.178 32.714 206.73 32.896 206.422 33.246C206.114 33.596 205.932 34.058 205.89 34.646H209.53ZM214.179 31.72V32.798C214.431 32.42 214.725 32.126 215.089 31.916C215.439 31.72 215.817 31.608 216.223 31.608C216.377 31.608 216.503 31.622 216.615 31.622C216.727 31.636 216.825 31.65 216.937 31.664L216.755 33.12C216.643 33.092 216.531 33.078 216.419 33.064C216.293 33.064 216.167 33.05 216.041 33.05C215.733 33.05 215.481 33.106 215.257 33.204C215.033 33.302 214.837 33.428 214.683 33.582C214.529 33.75 214.417 33.932 214.333 34.128C214.249 34.324 214.221 34.534 214.221 34.73V39H212.639V31.72H214.179ZM222.793 31.72V32.784C223.115 32.336 223.479 32.014 223.885 31.804C224.291 31.608 224.725 31.496 225.201 31.496C226.825 31.496 227.637 32.392 227.637 34.184V39H226.041V34.436C226.041 33.848 225.929 33.442 225.719 33.204C225.495 32.966 225.187 32.84 224.767 32.84C224.487 32.84 224.221 32.896 223.983 32.994C223.745 33.092 223.549 33.218 223.381 33.386C223.213 33.554 223.073 33.75 222.975 33.974C222.877 34.198 222.835 34.422 222.835 34.66V39H221.253V31.72H222.793ZM232.734 37.936C233.406 37.936 233.896 37.712 234.204 37.25C234.512 36.788 234.68 36.158 234.68 35.346C234.68 34.562 234.512 33.932 234.204 33.47C233.896 33.022 233.406 32.784 232.734 32.784C232.062 32.784 231.558 33.022 231.25 33.484C230.942 33.946 230.788 34.562 230.788 35.346C230.788 36.144 230.928 36.774 231.236 37.236C231.544 37.712 232.034 37.936 232.734 37.936ZM232.72 39.224C231.572 39.224 230.69 38.888 230.074 38.216C229.444 37.544 229.136 36.592 229.136 35.36C229.136 34.786 229.206 34.254 229.374 33.778C229.542 33.302 229.78 32.896 230.088 32.56C230.396 32.224 230.774 31.972 231.222 31.776C231.67 31.594 232.174 31.496 232.748 31.496C233.322 31.496 233.84 31.594 234.288 31.79C234.736 31.986 235.1 32.238 235.408 32.574C235.716 32.91 235.94 33.316 236.094 33.792C236.248 34.268 236.332 34.772 236.332 35.332C236.332 35.976 236.234 36.536 236.066 37.012C235.884 37.488 235.632 37.894 235.31 38.23C234.988 38.566 234.61 38.804 234.176 38.972C233.728 39.14 233.252 39.224 232.72 39.224ZM238.665 31.72L239.897 37.04L241.437 31.776H242.893L244.377 37.04L245.609 31.72H247.275L245.147 39H243.565L242.095 33.708L240.611 39H239.043L236.929 31.72H238.665ZM249.07 37.054V39H247.376V37.054H249.07Z" fill="white"/>
<path d="M52.4668 52.864H64.1548V55.912H56.0428V59.656H63.6748V62.728H56.0428V66.952H64.6588L64.2988 70H52.4668V52.864ZM70.1616 63.568L66.0576 57.472H70.0176L72.1536 61.048L74.5536 57.472H78.0576L74.0016 63.376L78.3696 70H74.4816L71.9376 65.92L69.2736 70H65.6256L70.1616 63.568ZM90.4354 65.464C90.2914 66.976 89.7874 68.176 88.8754 69.064C87.9634 69.952 86.6194 70.384 84.8194 70.384C83.7634 70.384 82.8514 70.24 82.0834 69.904C81.3154 69.592 80.6674 69.136 80.1874 68.56C79.7074 67.984 79.3474 67.288 79.1074 66.472C78.8674 65.656 78.7474 64.768 78.7474 63.76C78.7474 62.776 78.8674 61.864 79.1554 61.048C79.4434 60.232 79.8514 59.512 80.3794 58.936C80.9074 58.36 81.5554 57.904 82.3234 57.568C83.0914 57.256 83.9554 57.088 84.9634 57.088C85.8034 57.088 86.5474 57.208 87.1714 57.424C87.7954 57.64 88.3474 57.928 88.7794 58.312C89.2114 58.696 89.5474 59.176 89.7874 59.704C90.0274 60.232 90.1714 60.832 90.2674 61.456L86.8834 61.912C86.7874 61.288 86.6194 60.76 86.3314 60.376C86.0434 59.992 85.5394 59.776 84.8434 59.776C84.3154 59.776 83.9074 59.896 83.5714 60.112C83.2354 60.328 82.9474 60.616 82.7554 60.976C82.5634 61.36 82.4194 61.768 82.3474 62.248C82.2514 62.728 82.2274 63.208 82.2274 63.712C82.2274 64.24 82.2514 64.744 82.3474 65.224C82.4194 65.704 82.5634 66.136 82.7554 66.496C82.9474 66.88 83.2114 67.168 83.5474 67.384C83.8834 67.6 84.2914 67.696 84.8194 67.696C85.4914 67.696 85.9954 67.504 86.3794 67.12C86.7394 66.736 86.9554 66.184 87.0274 65.464H90.4354ZM92.8675 57.472H96.2275V70H92.8675V57.472ZM92.8195 52.864H96.2755V55.888H92.8195V52.864ZM99.9865 60.088H98.0185V57.472H99.9865V54.136H103.346V57.472H106.226V60.088H103.346V65.872C103.346 66.544 103.466 66.976 103.754 67.216C104.018 67.456 104.378 67.552 104.81 67.552C105.026 67.552 105.242 67.552 105.482 67.528C105.722 67.504 105.938 67.456 106.178 67.384L106.658 69.856C106.178 70 105.722 70.12 105.29 70.168C104.858 70.216 104.426 70.24 104.042 70.24C102.65 70.24 101.642 69.928 100.97 69.256C100.298 68.608 99.9865 67.504 99.9865 65.944V60.088ZM108.336 57.472H111.696V70H108.336V57.472ZM108.288 52.864H111.744V55.888H108.288V52.864ZM114.687 57.472H117.951V59.2C118.431 58.48 119.031 57.928 119.703 57.592C120.375 57.256 121.095 57.088 121.839 57.088C123.255 57.088 124.311 57.472 125.007 58.216C125.679 58.96 126.039 60.136 126.039 61.72V70H122.679V62.176C122.679 61.312 122.511 60.712 122.175 60.376C121.839 60.064 121.383 59.896 120.831 59.896C120.399 59.896 120.015 59.968 119.703 60.088C119.391 60.232 119.103 60.4 118.839 60.64C118.599 60.88 118.407 61.144 118.263 61.456C118.119 61.768 118.047 62.104 118.047 62.464V70H114.687V57.472ZM132.394 70.792C132.442 71.128 132.538 71.368 132.658 71.56C132.778 71.752 132.946 71.92 133.138 72.016C133.33 72.136 133.57 72.208 133.858 72.256C134.146 72.304 134.482 72.304 134.89 72.304C135.514 72.304 135.994 72.208 136.354 71.968C136.69 71.728 136.954 71.416 137.122 71.032C137.29 70.648 137.386 70.216 137.434 69.712C137.482 69.232 137.506 68.704 137.506 68.176V67.792C137.074 68.416 136.546 68.872 135.898 69.184C135.25 69.496 134.53 69.64 133.714 69.64C131.938 69.64 130.618 69.088 129.754 67.936C128.89 66.808 128.458 65.272 128.458 63.352C128.458 62.44 128.578 61.6 128.818 60.832C129.058 60.064 129.418 59.416 129.898 58.864C130.354 58.312 130.93 57.88 131.602 57.568C132.274 57.256 133.042 57.088 133.906 57.088C134.578 57.088 135.226 57.232 135.85 57.472C136.474 57.736 137.074 58.216 137.602 58.888V57.472H140.866V68.248C140.866 69.304 140.746 70.264 140.53 71.08C140.314 71.896 139.978 72.592 139.498 73.168C139.018 73.744 138.418 74.2 137.65 74.488C136.882 74.776 135.97 74.92 134.89 74.92C133.882 74.92 133.018 74.848 132.298 74.68C131.578 74.512 131.002 74.248 130.546 73.912C130.066 73.576 129.706 73.144 129.466 72.616C129.226 72.088 129.058 71.488 128.986 70.792H132.394ZM137.53 63.304C137.53 62.56 137.434 61.96 137.266 61.48C137.098 61.024 136.882 60.664 136.618 60.424C136.33 60.184 136.042 60.016 135.706 59.92C135.37 59.848 135.034 59.8 134.698 59.8C134.314 59.8 133.978 59.872 133.642 59.992C133.306 60.136 133.018 60.328 132.778 60.616C132.538 60.904 132.346 61.288 132.202 61.72C132.058 62.176 131.986 62.704 131.986 63.328C131.986 64.672 132.226 65.608 132.73 66.16C133.234 66.712 133.858 66.976 134.626 66.976C135.034 66.976 135.418 66.928 135.778 66.808C136.138 66.688 136.45 66.496 136.714 66.232C136.954 65.968 137.17 65.632 137.314 65.2C137.458 64.768 137.53 64.264 137.53 63.64V63.304ZM149.164 57.472H152.428V59.2C152.908 58.48 153.508 57.928 154.18 57.592C154.852 57.256 155.572 57.088 156.316 57.088C157.732 57.088 158.788 57.472 159.484 58.216C160.156 58.96 160.516 60.136 160.516 61.72V70H157.156V62.176C157.156 61.312 156.988 60.712 156.652 60.376C156.316 60.064 155.86 59.896 155.308 59.896C154.876 59.896 154.492 59.968 154.18 60.088C153.868 60.232 153.58 60.4 153.316 60.64C153.076 60.88 152.884 61.144 152.74 61.456C152.596 61.768 152.524 62.104 152.524 62.464V70H149.164V57.472ZM174.839 66.088C174.599 67.504 174.047 68.584 173.135 69.304C172.223 70.024 170.927 70.384 169.199 70.384C167.111 70.384 165.551 69.808 164.495 68.656C163.439 67.504 162.935 65.872 162.935 63.76C162.935 62.704 163.079 61.768 163.391 60.952C163.679 60.136 164.111 59.416 164.663 58.84C165.215 58.264 165.887 57.832 166.655 57.544C167.423 57.256 168.263 57.088 169.199 57.088C171.119 57.088 172.559 57.64 173.519 58.744C174.479 59.848 174.983 61.336 174.983 63.208V64.552H166.295C166.319 65.56 166.583 66.352 167.063 66.928C167.543 67.504 168.263 67.768 169.223 67.768C170.543 67.768 171.335 67.216 171.575 66.088H174.839ZM171.743 62.344C171.743 61.48 171.527 60.808 171.095 60.328C170.663 59.848 170.015 59.608 169.127 59.608C168.671 59.608 168.287 59.68 167.951 59.824C167.615 59.968 167.327 60.184 167.087 60.424C166.847 60.664 166.679 60.952 166.559 61.288C166.415 61.624 166.343 61.96 166.343 62.344H171.743ZM175.921 57.472H179.569L181.321 65.776L183.721 57.568H186.649L188.929 65.776L190.681 57.472H194.185L190.537 70H187.273L185.041 61.744L182.785 70H179.569L175.921 57.472ZM201.148 57.472H204.412V59.224C204.82 58.576 205.324 58.096 205.924 57.76C206.5 57.424 207.124 57.256 207.796 57.256C208.108 57.256 208.372 57.28 208.588 57.304C208.78 57.328 208.972 57.352 209.14 57.376L208.732 60.424C208.348 60.328 207.868 60.28 207.316 60.28C206.932 60.28 206.596 60.328 206.26 60.424C205.924 60.52 205.612 60.664 205.348 60.904C205.06 61.168 204.844 61.456 204.7 61.768C204.556 62.104 204.508 62.416 204.508 62.752V70H201.148V57.472ZM222.065 66.088C221.825 67.504 221.273 68.584 220.361 69.304C219.449 70.024 218.153 70.384 216.425 70.384C214.337 70.384 212.777 69.808 211.721 68.656C210.665 67.504 210.161 65.872 210.161 63.76C210.161 62.704 210.305 61.768 210.617 60.952C210.905 60.136 211.337 59.416 211.889 58.84C212.441 58.264 213.113 57.832 213.881 57.544C214.649 57.256 215.489 57.088 216.425 57.088C218.345 57.088 219.785 57.64 220.745 58.744C221.705 59.848 222.209 61.336 222.209 63.208V64.552H213.521C213.545 65.56 213.809 66.352 214.289 66.928C214.769 67.504 215.489 67.768 216.449 67.768C217.769 67.768 218.561 67.216 218.801 66.088H222.065ZM218.969 62.344C218.969 61.48 218.753 60.808 218.321 60.328C217.889 59.848 217.241 59.608 216.353 59.608C215.897 59.608 215.513 59.68 215.177 59.824C214.841 59.968 214.553 60.184 214.313 60.424C214.073 60.664 213.905 60.952 213.785 61.288C213.641 61.624 213.569 61.96 213.569 62.344H218.969ZM223.148 57.472H226.796L228.548 65.776L230.948 57.568H233.876L236.156 65.776L237.908 57.472H241.412L237.764 70H234.5L232.268 61.744L230.012 70H226.796L223.148 57.472ZM250.494 68.416C249.99 68.992 249.438 69.448 248.814 69.784C248.19 70.144 247.398 70.312 246.438 70.312C245.862 70.312 245.334 70.24 244.83 70.096C244.326 69.952 243.894 69.736 243.51 69.424C243.126 69.136 242.838 68.752 242.622 68.272C242.382 67.792 242.286 67.24 242.286 66.568C242.286 65.704 242.478 65.008 242.862 64.456C243.246 63.928 243.75 63.496 244.374 63.184C244.998 62.896 245.694 62.68 246.462 62.536C247.23 62.416 248.022 62.344 248.838 62.296L250.446 62.224V61.6C250.446 60.832 250.23 60.304 249.798 60.016C249.366 59.728 248.886 59.584 248.31 59.584C246.966 59.584 246.222 60.088 246.03 61.096L242.958 60.808C243.174 59.512 243.75 58.552 244.686 57.976C245.598 57.4 246.846 57.088 248.43 57.088C249.39 57.088 250.206 57.208 250.878 57.448C251.55 57.688 252.078 58 252.486 58.432C252.894 58.864 253.182 59.392 253.374 60.016C253.566 60.64 253.662 61.312 253.662 62.08V70H250.494V68.416ZM250.422 64.408L248.934 64.48C248.214 64.528 247.662 64.6 247.23 64.696C246.798 64.816 246.462 64.96 246.222 65.128C245.982 65.296 245.838 65.488 245.766 65.704C245.67 65.944 245.646 66.184 245.646 66.448C245.646 66.88 245.79 67.192 246.078 67.432C246.366 67.672 246.75 67.792 247.278 67.792C248.142 67.792 248.838 67.6 249.39 67.192C249.678 66.976 249.942 66.688 250.134 66.352C250.326 66.016 250.422 65.584 250.422 65.056V64.408ZM256.508 57.472H259.772V59.224C260.18 58.576 260.684 58.096 261.284 57.76C261.86 57.424 262.484 57.256 263.156 57.256C263.468 57.256 263.732 57.28 263.948 57.304C264.14 57.328 264.332 57.352 264.5 57.376L264.092 60.424C263.708 60.328 263.228 60.28 262.676 60.28C262.292 60.28 261.956 60.328 261.62 60.424C261.284 60.52 260.972 60.664 260.708 60.904C260.42 61.168 260.204 61.456 260.06 61.768C259.916 62.104 259.868 62.416 259.868 62.752V70H256.508V57.472ZM274.641 68.344C273.681 69.712 272.385 70.384 270.753 70.384C268.977 70.384 267.681 69.808 266.817 68.608C265.953 67.432 265.521 65.8 265.521 63.688C265.521 62.728 265.641 61.84 265.881 61.024C266.121 60.208 266.481 59.512 266.961 58.936C267.417 58.36 267.993 57.904 268.665 57.568C269.337 57.256 270.081 57.088 270.945 57.088C271.569 57.088 272.169 57.208 272.793 57.424C273.417 57.664 273.993 58.096 274.545 58.72V52.864H277.905V70H274.641V68.344ZM274.569 63.592C274.569 62.8 274.497 62.152 274.353 61.672C274.209 61.192 273.993 60.808 273.705 60.496C273.417 60.208 273.081 60.04 272.745 59.944C272.409 59.848 272.073 59.8 271.737 59.8C271.353 59.8 271.017 59.872 270.681 60.016C270.345 60.16 270.057 60.4 269.817 60.688C269.577 61 269.385 61.408 269.241 61.888C269.097 62.392 269.025 62.992 269.025 63.664C269.025 64.432 269.073 65.056 269.217 65.56C269.361 66.064 269.553 66.472 269.793 66.784C270.033 67.096 270.297 67.312 270.633 67.456C270.945 67.6 271.281 67.648 271.665 67.648C272.457 67.648 273.105 67.432 273.633 66.952C273.945 66.64 274.185 66.256 274.329 65.8C274.473 65.344 274.569 64.744 274.569 64.024V63.592ZM283.307 66.016C283.403 66.76 283.715 67.24 284.195 67.456C284.675 67.696 285.251 67.792 285.923 67.792C286.715 67.792 287.291 67.696 287.627 67.504C287.963 67.312 288.155 66.976 288.155 66.52C288.155 66.208 288.035 65.92 287.819 65.68C287.603 65.44 287.195 65.272 286.595 65.176L284.867 64.888C283.331 64.648 282.203 64.24 281.459 63.664C280.715 63.088 280.355 62.2 280.355 61C280.355 60.4 280.475 59.848 280.739 59.368C281.003 58.888 281.387 58.48 281.867 58.144C282.347 57.808 282.899 57.568 283.571 57.376C284.243 57.184 284.963 57.088 285.779 57.088C286.763 57.088 287.603 57.208 288.275 57.4C288.947 57.592 289.475 57.856 289.907 58.192C290.339 58.528 290.651 58.936 290.867 59.392C291.083 59.872 291.251 60.352 291.347 60.88L288.347 61.264C288.203 60.688 287.939 60.28 287.579 59.992C287.219 59.728 286.643 59.584 285.851 59.584C285.395 59.584 285.011 59.632 284.723 59.704C284.435 59.776 284.195 59.872 284.027 59.968C283.859 60.088 283.739 60.208 283.667 60.352C283.595 60.496 283.571 60.64 283.571 60.76C283.571 61.168 283.691 61.456 283.931 61.648C284.171 61.84 284.675 61.984 285.395 62.104L286.979 62.368C287.843 62.512 288.587 62.704 289.163 62.92C289.739 63.16 290.195 63.424 290.531 63.76C290.867 64.096 291.107 64.48 291.251 64.912C291.395 65.368 291.467 65.896 291.467 66.472C291.467 67.672 291.011 68.608 290.123 69.328C289.211 70.048 287.843 70.384 285.971 70.384C285.203 70.384 284.483 70.336 283.811 70.192C283.139 70.048 282.515 69.808 281.987 69.472C281.459 69.136 281.003 68.704 280.667 68.128C280.331 67.576 280.139 66.88 280.091 66.016H283.307ZM101.615 91.464C101.471 92.976 100.967 94.176 100.055 95.064C99.1431 95.952 97.7991 96.384 95.9991 96.384C94.9431 96.384 94.0311 96.24 93.2631 95.904C92.4951 95.592 91.8471 95.136 91.3671 94.56C90.8871 93.984 90.5271 93.288 90.2871 92.472C90.0471 91.656 89.9271 90.768 89.9271 89.76C89.9271 88.776 90.0471 87.864 90.3351 87.048C90.6231 86.232 91.0311 85.512 91.5591 84.936C92.0871 84.36 92.7351 83.904 93.5031 83.568C94.2711 83.256 95.1351 83.088 96.1431 83.088C96.9831 83.088 97.7271 83.208 98.3511 83.424C98.9751 83.64 99.5271 83.928 99.9591 84.312C100.391 84.696 100.727 85.176 100.967 85.704C101.207 86.232 101.351 86.832 101.447 87.456L98.0631 87.912C97.9671 87.288 97.7991 86.76 97.5111 86.376C97.2231 85.992 96.7191 85.776 96.0231 85.776C95.4951 85.776 95.0871 85.896 94.7511 86.112C94.4151 86.328 94.1271 86.616 93.9351 86.976C93.7431 87.36 93.5991 87.768 93.5271 88.248C93.4311 88.728 93.4071 89.208 93.4071 89.712C93.4071 90.24 93.4311 90.744 93.5271 91.224C93.5991 91.704 93.7431 92.136 93.9351 92.496C94.1271 92.88 94.3911 93.168 94.7271 93.384C95.0631 93.6 95.4711 93.696 95.9991 93.696C96.6711 93.696 97.1751 93.504 97.5591 93.12C97.9191 92.736 98.1351 92.184 98.2071 91.464H101.615ZM109.927 96.384C107.911 96.384 106.351 95.808 105.247 94.656C104.143 93.504 103.591 91.872 103.591 89.712C103.591 88.704 103.735 87.768 104.023 86.952C104.311 86.136 104.743 85.44 105.295 84.864C105.847 84.288 106.519 83.856 107.311 83.544C108.079 83.256 108.967 83.088 109.927 83.088C110.887 83.088 111.775 83.256 112.567 83.544C113.335 83.856 114.007 84.288 114.559 84.864C115.111 85.44 115.543 86.136 115.831 86.952C116.119 87.768 116.263 88.704 116.263 89.712C116.263 90.768 116.095 91.704 115.807 92.52C115.519 93.336 115.087 94.032 114.535 94.608C113.983 95.184 113.311 95.64 112.543 95.928C111.751 96.24 110.887 96.384 109.927 96.384ZM109.927 93.696C110.887 93.696 111.583 93.36 112.063 92.664C112.543 91.992 112.783 91.008 112.783 89.712C112.783 88.44 112.543 87.456 112.063 86.784C111.583 86.112 110.887 85.776 109.927 85.776C108.967 85.776 108.247 86.112 107.767 86.784C107.287 87.456 107.071 88.44 107.071 89.712C107.071 91.008 107.287 92.016 107.767 92.688C108.223 93.36 108.943 93.696 109.927 93.696ZM118.812 83.472H122.076V85.152C122.532 84.456 123.084 83.928 123.708 83.592C124.332 83.256 124.98 83.088 125.676 83.088C126.588 83.088 127.332 83.28 127.908 83.64C128.484 84.024 128.892 84.552 129.132 85.248C129.708 84.48 130.308 83.928 130.956 83.592C131.58 83.256 132.3 83.088 133.068 83.088C134.364 83.088 135.324 83.448 135.972 84.168C136.62 84.888 136.956 86.04 136.956 87.624V96H133.596V88.08C133.596 87.648 133.548 87.288 133.476 87C133.38 86.712 133.284 86.496 133.14 86.328C132.996 86.184 132.852 86.064 132.66 85.992C132.468 85.944 132.252 85.896 132.06 85.896C131.724 85.896 131.412 85.968 131.124 86.064C130.836 86.184 130.572 86.376 130.308 86.64C130.068 86.88 129.9 87.12 129.756 87.408C129.612 87.696 129.564 88.008 129.564 88.32V96H126.204V88.08C126.204 87.648 126.156 87.288 126.084 87C125.988 86.712 125.892 86.496 125.748 86.328C125.604 86.184 125.46 86.064 125.268 85.992C125.076 85.944 124.86 85.896 124.668 85.896C124.332 85.896 124.02 85.968 123.732 86.064C123.444 86.184 123.18 86.376 122.916 86.64C122.676 86.88 122.508 87.144 122.364 87.456C122.22 87.768 122.172 88.104 122.172 88.464V96H118.812V83.472ZM139.836 83.472H143.196V96H139.836V83.472ZM139.788 78.864H143.244V81.888H139.788V78.864ZM146.187 83.472H149.451V85.2C149.931 84.48 150.531 83.928 151.203 83.592C151.875 83.256 152.595 83.088 153.339 83.088C154.755 83.088 155.811 83.472 156.507 84.216C157.179 84.96 157.539 86.136 157.539 87.72V96H154.179V88.176C154.179 87.312 154.011 86.712 153.675 86.376C153.339 86.064 152.883 85.896 152.331 85.896C151.899 85.896 151.515 85.968 151.203 86.088C150.891 86.232 150.603 86.4 150.339 86.64C150.099 86.88 149.907 87.144 149.763 87.456C149.619 87.768 149.547 88.104 149.547 88.464V96H146.187V83.472ZM163.894 96.792C163.942 97.128 164.038 97.368 164.158 97.56C164.278 97.752 164.446 97.92 164.638 98.016C164.83 98.136 165.07 98.208 165.358 98.256C165.646 98.304 165.982 98.304 166.39 98.304C167.014 98.304 167.494 98.208 167.854 97.968C168.19 97.728 168.454 97.416 168.622 97.032C168.79 96.648 168.886 96.216 168.934 95.712C168.982 95.232 169.006 94.704 169.006 94.176V93.792C168.574 94.416 168.046 94.872 167.398 95.184C166.75 95.496 166.03 95.64 165.214 95.64C163.438 95.64 162.118 95.088 161.254 93.936C160.39 92.808 159.958 91.272 159.958 89.352C159.958 88.44 160.078 87.6 160.318 86.832C160.558 86.064 160.918 85.416 161.398 84.864C161.854 84.312 162.43 83.88 163.102 83.568C163.774 83.256 164.542 83.088 165.406 83.088C166.078 83.088 166.726 83.232 167.35 83.472C167.974 83.736 168.574 84.216 169.102 84.888V83.472H172.366V94.248C172.366 95.304 172.246 96.264 172.03 97.08C171.814 97.896 171.478 98.592 170.998 99.168C170.518 99.744 169.918 100.2 169.15 100.488C168.382 100.776 167.47 100.92 166.39 100.92C165.382 100.92 164.518 100.848 163.798 100.68C163.078 100.512 162.502 100.248 162.046 99.912C161.566 99.576 161.206 99.144 160.966 98.616C160.726 98.088 160.558 97.488 160.486 96.792H163.894ZM169.03 89.304C169.03 88.56 168.934 87.96 168.766 87.48C168.598 87.024 168.382 86.664 168.118 86.424C167.83 86.184 167.542 86.016 167.206 85.92C166.87 85.848 166.534 85.8 166.198 85.8C165.814 85.8 165.478 85.872 165.142 85.992C164.806 86.136 164.518 86.328 164.278 86.616C164.038 86.904 163.846 87.288 163.702 87.72C163.558 88.176 163.486 88.704 163.486 89.328C163.486 90.672 163.726 91.608 164.23 92.16C164.734 92.712 165.358 92.976 166.126 92.976C166.534 92.976 166.918 92.928 167.278 92.808C167.638 92.688 167.95 92.496 168.214 92.232C168.454 91.968 168.67 91.632 168.814 91.2C168.958 90.768 169.03 90.264 169.03 89.64V89.304ZM183.088 92.016C183.184 92.76 183.496 93.24 183.976 93.456C184.456 93.696 185.032 93.792 185.704 93.792C186.496 93.792 187.072 93.696 187.408 93.504C187.744 93.312 187.936 92.976 187.936 92.52C187.936 92.208 187.816 91.92 187.6 91.68C187.384 91.44 186.976 91.272 186.376 91.176L184.648 90.888C183.112 90.648 181.984 90.24 181.24 89.664C180.496 89.088 180.136 88.2 180.136 87C180.136 86.4 180.256 85.848 180.52 85.368C180.784 84.888 181.168 84.48 181.648 84.144C182.128 83.808 182.68 83.568 183.352 83.376C184.024 83.184 184.744 83.088 185.56 83.088C186.544 83.088 187.384 83.208 188.056 83.4C188.728 83.592 189.256 83.856 189.688 84.192C190.12 84.528 190.432 84.936 190.648 85.392C190.864 85.872 191.032 86.352 191.128 86.88L188.128 87.264C187.984 86.688 187.72 86.28 187.36 85.992C187 85.728 186.424 85.584 185.632 85.584C185.176 85.584 184.792 85.632 184.504 85.704C184.216 85.776 183.976 85.872 183.808 85.968C183.64 86.088 183.52 86.208 183.448 86.352C183.376 86.496 183.352 86.64 183.352 86.76C183.352 87.168 183.472 87.456 183.712 87.648C183.952 87.84 184.456 87.984 185.176 88.104L186.76 88.368C187.624 88.512 188.368 88.704 188.944 88.92C189.52 89.16 189.976 89.424 190.312 89.76C190.648 90.096 190.888 90.48 191.032 90.912C191.176 91.368 191.248 91.896 191.248 92.472C191.248 93.672 190.792 94.608 189.904 95.328C188.992 96.048 187.624 96.384 185.752 96.384C184.984 96.384 184.264 96.336 183.592 96.192C182.92 96.048 182.296 95.808 181.768 95.472C181.24 95.136 180.784 94.704 180.448 94.128C180.112 93.576 179.92 92.88 179.872 92.016H183.088ZM199.458 96.384C197.442 96.384 195.882 95.808 194.778 94.656C193.674 93.504 193.122 91.872 193.122 89.712C193.122 88.704 193.266 87.768 193.554 86.952C193.842 86.136 194.274 85.44 194.826 84.864C195.378 84.288 196.05 83.856 196.842 83.544C197.61 83.256 198.498 83.088 199.458 83.088C200.418 83.088 201.306 83.256 202.098 83.544C202.866 83.856 203.538 84.288 204.09 84.864C204.642 85.44 205.074 86.136 205.362 86.952C205.65 87.768 205.794 88.704 205.794 89.712C205.794 90.768 205.626 91.704 205.338 92.52C205.05 93.336 204.618 94.032 204.066 94.608C203.514 95.184 202.842 95.64 202.074 95.928C201.282 96.24 200.418 96.384 199.458 96.384ZM199.458 93.696C200.418 93.696 201.114 93.36 201.594 92.664C202.074 91.992 202.314 91.008 202.314 89.712C202.314 88.44 202.074 87.456 201.594 86.784C201.114 86.112 200.418 85.776 199.458 85.776C198.498 85.776 197.778 86.112 197.298 86.784C196.818 87.456 196.602 88.44 196.602 89.712C196.602 91.008 196.818 92.016 197.298 92.688C197.754 93.36 198.474 93.696 199.458 93.696ZM214.247 96.384C212.231 96.384 210.671 95.808 209.567 94.656C208.463 93.504 207.911 91.872 207.911 89.712C207.911 88.704 208.055 87.768 208.343 86.952C208.631 86.136 209.063 85.44 209.615 84.864C210.167 84.288 210.839 83.856 211.631 83.544C212.399 83.256 213.287 83.088 214.247 83.088C215.207 83.088 216.095 83.256 216.887 83.544C217.655 83.856 218.327 84.288 218.879 84.864C219.431 85.44 219.863 86.136 220.151 86.952C220.439 87.768 220.583 88.704 220.583 89.712C220.583 90.768 220.415 91.704 220.127 92.52C219.839 93.336 219.407 94.032 218.855 94.608C218.303 95.184 217.631 95.64 216.863 95.928C216.071 96.24 215.207 96.384 214.247 96.384ZM214.247 93.696C215.207 93.696 215.903 93.36 216.383 92.664C216.863 91.992 217.103 91.008 217.103 89.712C217.103 88.44 216.863 87.456 216.383 86.784C215.903 86.112 215.207 85.776 214.247 85.776C213.287 85.776 212.567 86.112 212.087 86.784C211.607 87.456 211.391 88.44 211.391 89.712C211.391 91.008 211.607 92.016 212.087 92.688C212.543 93.36 213.263 93.696 214.247 93.696ZM223.133 83.472H226.397V85.2C226.877 84.48 227.477 83.928 228.149 83.592C228.821 83.256 229.541 83.088 230.285 83.088C231.701 83.088 232.757 83.472 233.453 84.216C234.125 84.96 234.485 86.136 234.485 87.72V96H231.125V88.176C231.125 87.312 230.957 86.712 230.621 86.376C230.285 86.064 229.829 85.896 229.277 85.896C228.845 85.896 228.461 85.968 228.149 86.088C227.837 86.232 227.549 86.4 227.285 86.64C227.045 86.88 226.853 87.144 226.709 87.456C226.565 87.768 226.493 88.104 226.493 88.464V96H223.133V83.472ZM237.096 92.136H240.528V96H237.096V92.136ZM243.283 92.136H246.715V96H243.283V92.136ZM249.471 92.136H252.903V96H249.471V92.136Z" fill="#FFE200"/>
</g>
<defs>
<clipPath id="clip0_496_3479">
<rect width="343" height="126" rx="5" fill="white"/>
</clipPath>
</defs>
</svg>
