<svg width="16" height="14" viewBox="0 0 16 14" fill="none" xmlns="http://www.w3.org/2000/svg">
<path d="M7.99953 10.8609C10.2378 10.8609 12.0587 8.9325 12.0587 6.56219C12.0575 5.42226 11.6294 4.32938 10.8685 3.52333C10.1075 2.71727 9.07572 2.26386 7.99953 2.26257C5.76177 2.26257 3.94124 4.19138 3.94124 6.56219C3.94298 7.64673 4.33018 8.69081 5.02577 9.48665L4.60599 11.1455C4.5812 11.2434 4.58439 11.3469 4.61516 11.4429C4.64593 11.5389 4.70289 11.6231 4.77884 11.6848C4.85478 11.7465 4.94631 11.783 5.04182 11.7896C5.13734 11.7962 5.23256 11.7727 5.31544 11.722L6.95723 10.7171C7.29729 10.8128 7.64768 10.8611 7.99953 10.8609ZM6.65284 9.71965L5.84345 10.2151L6.03274 9.46714C6.0555 9.37723 6.0547 9.28245 6.03045 9.19297C6.00619 9.1035 5.95939 9.02272 5.89506 8.95929C5.58262 8.65415 5.33358 8.28345 5.16381 7.87078C4.99405 7.45811 4.90726 7.01251 4.90899 6.56237C4.90922 5.87135 5.11595 5.19815 5.49955 4.63923C5.88315 4.0803 6.42393 3.66434 7.04441 3.45094C7.6649 3.23754 8.33323 3.23766 8.95364 3.45128C9.57405 3.6649 10.1147 4.08106 10.4981 4.64013C10.8815 5.19919 11.0881 5.87246 11.0881 6.56347C11.0881 7.25449 10.8816 7.92776 10.4982 8.48684C10.1148 9.04591 9.57412 9.46209 8.95372 9.67572C8.33331 9.88936 7.66498 9.8895 7.04449 9.67612C6.97998 9.65387 6.91178 9.64624 6.84431 9.65372C6.77683 9.66121 6.7116 9.68363 6.65284 9.71955V9.71965ZM15.9936 6.92825C15.9988 6.71852 16.0043 6.50165 15.9948 6.27586C15.9693 5.64503 15.7137 5.04931 15.2818 4.61414C14.8498 4.17898 14.2754 3.93831 13.6793 3.94283C12.7226 1.62443 10.5369 0 7.99953 0C5.46212 0 3.27737 1.62439 2.32065 3.9428C1.7247 3.93831 1.15036 4.17889 0.71849 4.6139C0.286621 5.0489 0.0309118 5.6444 0.00518007 6.27507C-0.00430387 6.50168 0.00114779 6.71859 0.00640589 6.92835C0.0119866 7.14997 0.0177285 7.37914 0.00698653 7.63667C-0.0186285 8.28231 0.198519 8.91236 0.610813 9.38865C1.02311 9.86495 1.5969 10.1486 2.20636 10.1775C2.24244 10.1793 2.27846 10.1801 2.31439 10.1801C2.61816 10.1803 2.91889 10.116 3.19875 9.99085C3.31569 9.93896 3.40867 9.84045 3.45764 9.71658C3.50661 9.59272 3.50763 9.45342 3.4605 9.32876C3.45464 9.30457 3.4457 9.28133 3.43392 9.2597C3.0004 8.43479 2.77288 7.5063 2.77291 6.56219C2.77291 3.50902 5.11757 1.02507 7.99953 1.02507C10.8815 1.02507 13.2271 3.50916 13.2271 6.56219C13.2304 7.85454 12.8056 9.10717 12.0265 10.1018C11.2475 11.0964 10.1636 11.7699 8.96389 12.0049C8.83751 11.7019 8.61516 11.4552 8.33528 11.3074C8.0554 11.1597 7.73558 11.1201 7.43109 11.1956C7.12661 11.2712 6.8566 11.457 6.66773 11.721C6.47887 11.985 6.38302 12.3106 6.39675 12.6415C6.41049 12.9724 6.53294 13.2879 6.74295 13.5333C6.95296 13.7787 7.23732 13.9388 7.54689 13.9857C7.85645 14.0326 8.17176 13.9635 8.43832 13.7903C8.70488 13.6171 8.90594 13.3506 9.00673 13.0371C9.85898 12.8878 10.6724 12.5516 11.395 12.0501C12.1175 11.5486 12.7332 10.8929 13.2027 10.1248C13.3612 10.1615 13.5229 10.1801 13.685 10.1802C13.7206 10.1802 13.7562 10.1793 13.792 10.1776C14.094 10.1638 14.3906 10.0871 14.6647 9.95195C14.9388 9.81676 15.1851 9.62571 15.3895 9.38969C15.5939 9.15368 15.7523 8.87733 15.8559 8.57642C15.9594 8.27552 16.006 7.95596 15.9929 7.63599C15.9822 7.37928 15.988 7.1499 15.9936 6.92825ZM2.24939 9.15344C1.89609 9.13691 1.56339 8.97265 1.32427 8.69667C1.08514 8.4207 0.959107 8.05553 0.9738 7.68126C0.986026 7.38813 0.979542 7.1294 0.9738 6.90108C0.968768 6.70034 0.964123 6.51077 0.972026 6.31973C0.984517 6.01535 1.08946 5.72339 1.27124 5.48728C1.45301 5.25117 1.70191 5.08355 1.98087 5.00935C1.67587 6.33764 1.76946 7.73361 2.24862 9.00292L2.24804 9.00316C2.26687 9.054 2.28633 9.10461 2.30639 9.15497C2.28753 9.15488 2.26853 9.15437 2.24939 9.15344ZM7.73711 12.9749C7.66317 12.9749 7.5909 12.9517 7.52942 12.9082C7.46794 12.8647 7.42002 12.8029 7.39171 12.7305C7.36341 12.6582 7.35599 12.5786 7.3704 12.5018C7.38481 12.425 7.4204 12.3544 7.47267 12.299C7.52494 12.2436 7.59154 12.2059 7.66405 12.1906C7.73656 12.1753 7.81173 12.1831 7.88004 12.2131C7.94836 12.243 8.00675 12.2937 8.04785 12.3588C8.08894 12.424 8.11089 12.5005 8.11092 12.5788V12.5796C8.11067 12.6844 8.07119 12.7849 8.00112 12.859C7.93106 12.9332 7.83612 12.9748 7.73711 12.9749ZM15.0261 7.68055C15.0337 7.86611 15.0066 8.05143 14.9465 8.2259C14.8864 8.40038 14.7944 8.5606 14.6758 8.6974C14.5572 8.83419 14.4143 8.94489 14.2552 9.02315C14.0962 9.10141 13.9242 9.14571 13.749 9.1535C13.7304 9.15444 13.7119 9.15494 13.6934 9.15501C13.6942 9.1531 13.6943 9.15096 13.6937 9.14896C14.222 7.84269 14.3362 6.3902 14.0191 5.00938C14.2982 5.08359 14.5472 5.25132 14.729 5.48757C14.9108 5.72383 15.0156 6.01597 15.028 6.32048C15.0359 6.51074 15.0312 6.7003 15.0262 6.90101C15.0204 7.12933 15.0139 7.38809 15.0261 7.68055ZM6.869 6.51197C6.87056 6.52866 6.87132 6.54542 6.87126 6.56219C6.87132 6.57908 6.87056 6.59596 6.869 6.61276C6.86739 6.62917 6.86481 6.64591 6.86191 6.66231C6.859 6.67871 6.85481 6.69511 6.85029 6.71117C6.84578 6.72723 6.84029 6.74295 6.83417 6.75832C6.82804 6.7737 6.82126 6.78908 6.81384 6.80377C6.80642 6.81846 6.79836 6.83281 6.78965 6.84682C6.78103 6.86082 6.77166 6.87428 6.76158 6.88714C6.75158 6.90047 6.74062 6.91277 6.72965 6.92473C6.71837 6.93663 6.70652 6.94792 6.69416 6.95855C6.68191 6.96915 6.669 6.97906 6.6561 6.98862C6.64287 6.99751 6.62933 7.00639 6.61513 7.01425C6.60132 7.02214 6.5871 7.02921 6.57255 7.03543C6.558 7.04194 6.54314 7.04764 6.52803 7.05252C6.51287 7.0573 6.49739 7.0614 6.4819 7.06482C6.46644 7.06816 6.45083 7.07067 6.43513 7.07234C6.40337 7.07553 6.3714 7.07553 6.33965 7.07234C6.32394 7.07067 6.30833 7.06816 6.29287 7.06482C6.27739 7.0614 6.2619 7.0573 6.24674 7.05252C6.23164 7.04764 6.21678 7.04194 6.20223 7.03543C6.18767 7.02921 6.17346 7.02214 6.15964 7.01425C6.14545 7.00639 6.1319 6.99751 6.11868 6.98862C6.10577 6.97906 6.09287 6.96915 6.08061 6.95855C6.06825 6.94792 6.05641 6.93663 6.04513 6.92473C6.03416 6.91277 6.02319 6.90047 6.01319 6.88714C6.00312 6.87428 5.99375 6.86082 5.98513 6.84682C5.97652 6.83281 5.96846 6.81846 5.96093 6.80377C5.95351 6.78908 5.94674 6.7737 5.94061 6.75832C5.93448 6.74295 5.92932 6.72723 5.92448 6.71117C5.91964 6.69511 5.91609 6.67871 5.91287 6.66231C5.90964 6.64591 5.90738 6.62951 5.90577 6.61276C5.90416 6.59602 5.90351 6.57894 5.90351 6.56219C5.90351 6.54545 5.90448 6.52871 5.90577 6.51197C5.90706 6.49522 5.90997 6.47848 5.91287 6.46208C5.91577 6.44568 5.91997 6.42962 5.92448 6.41356C5.929 6.3975 5.93448 6.38178 5.94061 6.36641C5.94674 6.35103 5.95351 6.33565 5.96093 6.32096C5.97583 6.29138 5.99332 6.26335 6.01319 6.23725C6.02319 6.22426 6.03416 6.21162 6.04513 6.2C6.05641 6.1881 6.06825 6.17681 6.08061 6.16618C6.09287 6.15558 6.10577 6.14533 6.11868 6.13611C6.13192 6.12684 6.14559 6.11829 6.15964 6.11048C6.17352 6.10262 6.18771 6.09545 6.20223 6.08895C6.21674 6.0828 6.2319 6.07699 6.24674 6.07221C6.26191 6.06727 6.2773 6.06316 6.29287 6.05991C6.35525 6.04649 6.41953 6.04649 6.4819 6.05991C6.49747 6.06316 6.51287 6.06727 6.52803 6.07221C6.54287 6.07699 6.55803 6.0828 6.57255 6.08895C6.58707 6.0951 6.60126 6.10262 6.61513 6.11048C6.62919 6.11829 6.64286 6.12684 6.6561 6.13611C6.669 6.14533 6.68191 6.15558 6.69416 6.16618C6.70652 6.17681 6.71837 6.1881 6.72965 6.2C6.74062 6.21162 6.75158 6.22426 6.76158 6.23725C6.78145 6.26335 6.79895 6.29138 6.81384 6.32096C6.82126 6.33565 6.82804 6.35103 6.83417 6.36641C6.84029 6.38178 6.84546 6.3975 6.85029 6.41356C6.85513 6.42962 6.85868 6.44602 6.86191 6.46208C6.86513 6.47814 6.86739 6.49509 6.869 6.51183V6.51197ZM7.51611 6.56219C7.51606 6.49491 7.52852 6.42828 7.55279 6.3661C7.57706 6.30393 7.61266 6.24742 7.65756 6.19983C7.70245 6.15223 7.75576 6.11447 7.81444 6.0887C7.87311 6.06293 7.93601 6.04967 7.99953 6.04966H8.00043C8.09611 6.04975 8.18962 6.07989 8.26914 6.13627C8.34865 6.19264 8.4106 6.27272 8.44715 6.36639C8.48371 6.46005 8.49323 6.56309 8.4745 6.66248C8.45578 6.76187 8.40966 6.85315 8.34197 6.92478C8.27428 6.99641 8.18806 7.04518 8.09421 7.06492C8.00036 7.08465 7.9031 7.07448 7.81471 7.03567C7.72632 6.99686 7.65077 6.93117 7.59762 6.84689C7.54447 6.76262 7.51611 6.66354 7.51611 6.56219ZM9.13096 6.61263C9.1294 6.59582 9.12865 6.57894 9.1287 6.56206C9.12865 6.54528 9.1294 6.52852 9.13096 6.51183C9.13257 6.49509 9.13515 6.47834 9.13805 6.46194C9.14096 6.44554 9.14515 6.42948 9.14967 6.41342C9.15422 6.3974 9.15961 6.38166 9.1658 6.36627C9.1716 6.35089 9.1787 6.33552 9.1858 6.32082C9.20096 6.29133 9.21855 6.26332 9.23838 6.23711C9.24838 6.22413 9.25935 6.21148 9.27031 6.19987C9.2816 6.18796 9.29344 6.17667 9.3058 6.16604C9.31794 6.15526 9.33064 6.14522 9.34386 6.13597C9.35709 6.12686 9.37064 6.11832 9.38451 6.11034C9.39838 6.10248 9.4129 6.09531 9.42741 6.08882C9.44193 6.08232 9.45709 6.07686 9.47193 6.07207C9.48709 6.06713 9.50249 6.06303 9.51806 6.05977C9.56474 6.04972 9.61259 6.04719 9.65999 6.05226C9.6758 6.0539 9.69152 6.05641 9.70709 6.05977C9.72256 6.06299 9.73785 6.06709 9.7529 6.07207C9.76806 6.07686 9.78322 6.08267 9.79774 6.08882C9.81225 6.09497 9.82645 6.10248 9.84032 6.11034C9.85437 6.11815 9.86805 6.1267 9.88129 6.13597C9.89419 6.1452 9.90709 6.15545 9.91935 6.16604C9.93167 6.17659 9.94341 6.18788 9.95451 6.19987C9.9658 6.21148 9.97645 6.22413 9.98677 6.23711C9.99645 6.25009 10.0061 6.26376 10.0148 6.27777C10.0236 6.29168 10.0317 6.30605 10.039 6.32082C10.0464 6.33552 10.0532 6.35089 10.0594 6.36627C10.0654 6.38167 10.0707 6.39741 10.0752 6.41342C10.08 6.42933 10.0839 6.44553 10.0868 6.46194C10.0901 6.4784 10.0925 6.49506 10.0939 6.51183C10.0955 6.52851 10.0964 6.54528 10.0964 6.56206C10.0964 6.57895 10.0955 6.59583 10.0939 6.61263C10.0925 6.62928 10.0901 6.64582 10.0868 6.66217C10.0839 6.6787 10.08 6.69502 10.0752 6.71103C10.0707 6.72703 10.0654 6.74277 10.0594 6.75819C10.0532 6.77356 10.0464 6.78894 10.039 6.80363C10.0316 6.81833 10.0235 6.83268 10.0148 6.84669C10.0061 6.86069 9.99645 6.87436 9.98677 6.887C9.97645 6.90033 9.9658 6.91263 9.95451 6.92459C9.94341 6.93657 9.93167 6.94787 9.91935 6.95842C9.90709 6.96901 9.89419 6.97892 9.88129 6.98814C9.86805 6.99752 9.85438 7.00619 9.84032 7.01411C9.8265 7.022 9.81229 7.02907 9.79774 7.0353C9.7831 7.04185 9.76813 7.04756 9.7529 7.05238C9.73806 7.05717 9.72258 7.06127 9.70709 7.06468C9.67599 7.07138 9.64431 7.07471 9.61257 7.07459C9.59663 7.07465 9.5807 7.07385 9.56483 7.0722C9.54913 7.07053 9.53352 7.06802 9.51806 7.06468C9.50257 7.06127 9.48709 7.05717 9.47193 7.05238C9.45682 7.0475 9.44196 7.0418 9.42741 7.0353C9.41275 7.02907 9.39843 7.022 9.38451 7.01411C9.37064 7.00625 9.35709 6.99737 9.34386 6.98814C9.33065 6.97901 9.31794 6.96909 9.3058 6.95842C9.29344 6.94778 9.2816 6.93649 9.27031 6.92459C9.25935 6.91263 9.24838 6.90033 9.23838 6.887C9.2283 6.87414 9.21893 6.86068 9.21031 6.84669C9.2016 6.83268 9.19322 6.81833 9.1858 6.80363C9.17838 6.78894 9.1716 6.77356 9.1658 6.75819C9.15966 6.74277 9.15428 6.72704 9.14967 6.71103C9.14515 6.69497 9.14128 6.67857 9.13805 6.66217C9.13483 6.64577 9.13257 6.62903 9.13096 6.61263Z" fill="black"/>
</svg>
