<svg width="34" height="34" viewBox="0 0 34 34" fill="none" xmlns="http://www.w3.org/2000/svg">
<circle cx="17" cy="17" r="17" fill="#FFE200"/>
<path d="M11.6476 19.9422C13.4297 22.0725 15.575 23.7498 18.0235 24.9366C18.9558 25.3784 20.2025 25.9025 21.5915 25.9924C21.6776 25.9961 21.76 25.9999 21.8461 25.9999C22.7783 25.9999 23.5271 25.6779 24.1374 25.0152C24.1411 25.0115 24.1486 25.004 24.1524 24.9965C24.3695 24.7344 24.6166 24.4986 24.8749 24.2477C25.0509 24.0792 25.2306 23.9033 25.4028 23.7236C26.2003 22.8924 26.2003 21.8366 25.3954 21.0317L23.1452 18.7816C22.7634 18.3847 22.3066 18.175 21.8274 18.175C21.3482 18.175 20.8877 18.3847 20.4945 18.7778L19.1542 20.1182C19.0307 20.047 18.9034 19.9834 18.7836 19.9235C18.6338 19.8486 18.4953 19.7775 18.3717 19.6988C17.1512 18.9238 16.043 17.913 14.9835 16.6138C14.4481 15.9362 14.0887 15.3671 13.8378 14.7868C14.1898 14.4686 14.5192 14.1353 14.8375 13.8096C14.9498 13.6936 15.0658 13.5775 15.1819 13.4614C15.5862 13.0571 15.8034 12.5891 15.8034 12.1136C15.8034 11.6381 15.59 11.1701 15.1819 10.7658L14.0662 9.65011C13.9352 9.51907 13.8116 9.39178 13.6843 9.26074C13.4372 9.00615 13.1789 8.74407 12.9243 8.50821C12.5387 8.13007 12.0857 7.93164 11.6064 7.93164C11.131 7.93164 10.6742 8.13007 10.2736 8.51195L8.87336 9.91218C8.36419 10.4214 8.0759 11.0391 8.016 11.7542C7.94487 12.649 8.1096 13.6 8.53641 14.7493C9.1916 16.5277 10.18 18.1788 11.6476 19.9422ZM8.92952 11.8328C8.97445 11.3349 9.16539 10.9193 9.52481 10.5599L10.9176 9.16714C11.1347 8.95748 11.3743 8.8489 11.6064 8.8489C11.8348 8.8489 12.0669 8.95748 12.2803 9.17463C12.5312 9.40675 12.7671 9.65011 13.0216 9.90844C13.1489 10.0395 13.28 10.1705 13.411 10.3053L14.5267 11.421C14.7588 11.6531 14.8786 11.889 14.8786 12.1211C14.8786 12.3532 14.7588 12.5891 14.5267 12.8212C14.4106 12.9373 14.2946 13.0571 14.1785 13.1732C13.8303 13.5251 13.5046 13.8583 13.1452 14.1765C13.1377 14.184 13.134 14.1878 13.1265 14.1952C12.8157 14.506 12.8644 14.8018 12.9393 15.0264C12.943 15.0376 12.9468 15.0451 12.9505 15.0564C13.2388 15.749 13.6394 16.4079 14.2646 17.1941C15.3878 18.5794 16.5709 19.6539 17.8738 20.4813C18.0348 20.5861 18.207 20.6685 18.368 20.7509C18.5177 20.8258 18.6563 20.8969 18.7798 20.9755C18.7948 20.983 18.806 20.9905 18.821 20.998C18.9445 21.0616 19.0644 21.0916 19.1842 21.0916C19.4837 21.0916 19.6784 20.9006 19.742 20.837L21.1422 19.4368C21.3594 19.2196 21.5953 19.1035 21.8274 19.1035C22.1119 19.1035 22.344 19.2795 22.4901 19.4368L24.7477 21.6906C25.1969 22.1399 25.1932 22.6266 24.7364 23.1021C24.5792 23.2705 24.4144 23.4315 24.2385 23.6C23.9764 23.8546 23.7031 24.1167 23.456 24.4124C23.0254 24.8767 22.5125 25.0938 21.8498 25.0938C21.7862 25.0938 21.7188 25.0901 21.6552 25.0864C20.4271 25.0077 19.2852 24.5285 18.4279 24.1204C16.0992 22.9935 14.055 21.3948 12.359 19.3656C10.9625 17.6846 10.0228 16.1196 9.40126 14.4423C9.01563 13.4128 8.86962 12.5854 8.92952 11.8328Z" fill="black"/>
</svg>
