<svg width="13" height="13" viewBox="0 0 13 13" fill="none" xmlns="http://www.w3.org/2000/svg">
<path d="M12.3893 9.69256L10.0674 7.54605C10.394 6.86279 10.5814 6.09488 10.5814 5.2907C10.5814 2.37628 8.21116 0 5.2907 0C2.37023 0 0 2.37628 0 5.2907C0 8.20512 2.37023 10.5814 5.2907 10.5814C6.10093 10.5814 6.86279 10.394 7.54605 10.0674L9.69256 12.3893C10.0493 12.7702 10.533 12.9879 11.053 13H11.0953C11.6033 13 12.0809 12.8065 12.4437 12.4437C12.8005 12.087 13 11.6033 13 11.0953C13 10.5874 12.7823 10.0614 12.3893 9.69256ZM0.906977 5.2907C0.906977 2.87209 2.87209 0.906977 5.2907 0.906977C7.7093 0.906977 9.67442 2.87209 9.67442 5.2907C9.67442 7.7093 7.7093 9.67442 5.2907 9.67442C2.87209 9.67442 0.906977 7.7093 0.906977 5.2907ZM11.8028 11.8028C11.6033 11.9963 11.3433 12.093 11.0712 12.093C10.7991 12.093 10.5391 11.9721 10.3577 11.7726L8.35023 9.60186C8.83395 9.25721 9.25721 8.83395 9.60186 8.35023L11.7726 10.3577C11.9781 10.5512 12.093 10.8172 12.093 11.0953C12.093 11.3735 11.9902 11.6153 11.8028 11.8028ZM8.16279 5.2907C8.16279 5.5386 7.95721 5.74419 7.7093 5.74419C7.4614 5.74419 7.25581 5.5386 7.25581 5.2907C7.25581 4.20837 6.37302 3.32558 5.2907 3.32558C5.04279 3.32558 4.83721 3.12 4.83721 2.87209C4.83721 2.62419 5.04279 2.4186 5.2907 2.4186C6.87488 2.4186 8.16279 3.70651 8.16279 5.2907Z" fill="black"/>
</svg>
