<svg width="17" height="15" viewBox="0 0 17 15" fill="none" xmlns="http://www.w3.org/2000/svg">
<path d="M13.0624 0H3.7838C1.69741 0 0 1.69765 0 3.78433V7.40412C0 9.3236 1.43613 10.9138 3.29026 11.1564V14.5064C3.29026 14.706 3.41049 14.886 3.59494 14.9624C3.65598 14.9877 3.72014 15 3.78371 15C3.91212 15 4.03837 14.9499 4.13277 14.8554L7.79924 11.1885H13.0624C15.1487 11.1885 16.8462 9.4908 16.8462 7.40412V3.78433C16.8462 1.69765 15.1487 0 13.0624 0ZM15.8591 7.40412C15.8591 8.94645 14.6045 10.2012 13.0624 10.2012H7.59482C7.4639 10.2012 7.33838 10.2532 7.24585 10.3458L4.27734 13.3147V10.6948C4.27734 10.4222 4.05637 10.2012 3.7838 10.2012C2.24169 10.2012 0.987079 8.94645 0.987079 7.40412V3.78433C0.987079 2.242 2.24169 0.987217 3.7838 0.987217H13.0624C14.6045 0.987217 15.8591 2.242 15.8591 3.78433V7.40412Z" fill="black"/>
<path d="M5.92527 4.13209C6.12008 4.13209 6.23047 3.91994 6.23047 3.67465C6.23047 3.4625 6.13953 3.23047 5.92527 3.23047H3.67204C3.45122 3.23047 3.23047 3.33654 3.23047 3.54869V7.7584C3.23047 7.97055 3.48369 8.07662 3.73697 8.07662C3.99019 8.07662 4.24348 7.97055 4.24348 7.7584V6.04797H5.22399C5.43828 6.04797 5.52919 5.83583 5.52919 5.65683C5.52919 5.44468 5.4188 5.25242 5.22399 5.25242H4.24348V4.13206H5.92527V4.13209Z" fill="black"/>
<path d="M8.72163 3.5724C8.65176 3.34225 8.36577 3.23047 8.0734 3.23047C7.78109 3.23047 7.4951 3.34225 7.42522 3.5724L6.24318 7.58345C6.23679 7.60976 6.23047 7.63606 6.23047 7.65578C6.23047 7.89908 6.59272 8.07662 6.86599 8.07662C7.02488 8.07662 7.15198 8.02402 7.19008 7.88593L7.40619 7.06398H8.74712L8.96316 7.88593C9.00133 8.02402 9.12843 8.07662 9.28725 8.07662C9.56059 8.07662 9.92278 7.89908 9.92278 7.65578C9.92278 7.63606 9.91645 7.60976 9.91013 7.58345L8.72163 3.5724ZM7.60946 6.27491L8.0734 4.51268L8.53733 6.27491H7.60946Z" fill="black"/>
<path d="M12.2273 3.23047C11.3192 3.23047 10.6152 3.64586 10.6152 4.7865V6.53374C10.6152 7.53595 11.1614 7.97768 11.9115 8.07002V8.45244C11.9115 8.66343 12.0694 8.76893 12.2273 8.76893C12.3853 8.76893 12.5431 8.66343 12.5431 8.45244V8.07002C13.2933 7.97771 13.846 7.53595 13.846 6.53374V4.7865C13.846 3.64586 13.1354 3.23047 12.2273 3.23047ZM12.8195 6.53374C12.8195 6.83704 12.7143 7.02825 12.5431 7.12715V6.83704C12.5431 6.61945 12.3853 6.52715 12.2273 6.52715C12.0694 6.52715 11.9115 6.61945 11.9115 6.83704V7.12715C11.7338 7.02825 11.6417 6.83704 11.6417 6.53374V4.7865C11.6417 4.33814 11.8588 4.12718 12.2273 4.12718C12.5958 4.12718 12.8195 4.33817 12.8195 4.7865V6.53374Z" fill="black"/>
</svg>
