<svg width="53" height="53" viewBox="0 0 53 53" fill="none" xmlns="http://www.w3.org/2000/svg">
<path d="M28.2713 9.5895C28.0124 8.96551 27.4061 8.55859 26.734 8.55859C26.0609 8.55859 25.4556 8.96459 25.1967 9.5895L20.9177 19.911C20.564 20.7657 20.9646 21.7476 21.8136 22.1045C22.6634 22.4614 23.6378 22.0564 23.9923 21.2025L24.2348 20.6176H29.2363L29.4794 21.2034C29.7455 21.8465 30.3644 22.2344 31.0167 22.2344C31.2304 22.2344 31.447 22.1926 31.6563 22.1045C32.5052 21.7475 32.9058 20.7657 32.5513 19.911L28.2713 9.5895ZM25.6252 17.2643L26.735 14.5877L27.8454 17.2643H25.6252Z" fill="white"/>
<path d="M10.2865 8.55859C9.36725 8.55859 8.62109 9.30887 8.62109 10.2353V20.5568C8.62109 21.4823 9.36634 22.2335 10.2865 22.2335C11.2067 22.2335 11.952 21.4833 11.952 20.5568V17.0736H16.1859V20.5567C16.1859 21.4822 16.9311 22.2334 17.8513 22.2334C18.7706 22.2334 19.5167 21.4831 19.5167 20.5567V10.2353C19.5167 9.30979 18.7707 8.55859 17.8513 8.55859C16.9319 8.55859 16.1859 9.30887 16.1859 10.2353V13.7203H11.952V10.2353C11.952 9.30979 11.2058 8.55859 10.2865 8.55859Z" fill="white"/>
<path d="M31.572 26.0092L27.9692 34.6998C27.9666 34.706 27.9641 34.7121 27.9616 34.7183L27.2931 36.3309C26.9385 37.1846 27.34 38.1665 28.1881 38.5235C28.3974 38.6125 28.6157 38.6534 28.8295 38.6534C29.4809 38.6534 30.0998 38.2664 30.3668 37.6224L30.6089 37.0385H35.6107L35.853 37.6224C36.2075 38.4762 37.1818 38.8822 38.0317 38.5235C38.8797 38.1665 39.2812 37.1838 38.9267 36.33L34.6459 26.0094C34.387 25.3854 33.7807 24.9785 33.1095 24.9785C32.4363 24.9783 31.8309 25.3843 31.572 26.0092ZM31.9995 33.6842L33.1093 31.0075L34.2194 33.6842H31.9995Z" fill="white"/>
<path d="M44.156 26.6552C44.156 25.7297 43.4108 24.9785 42.4906 24.9785C41.5704 24.9785 40.8242 25.7288 40.8242 26.6552V32.7797C40.8242 33.7061 41.5703 34.4573 42.4906 34.4573C43.4109 34.4573 44.156 33.7062 44.156 32.7797V26.6552Z" fill="white"/>
<path d="M18.327 26.6552C18.327 25.7297 17.5809 24.9785 16.6615 24.9785C15.7423 24.9785 14.9961 25.7288 14.9961 26.6552V36.9758C14.9961 37.9023 15.7413 38.6525 16.6615 38.6525C17.5808 38.6525 18.327 37.9023 18.327 36.9768V33.4927H22.5599V36.9758C22.5599 37.9023 23.3052 38.6525 24.2254 38.6525C25.1447 38.6525 25.8908 37.9023 25.8908 36.9768V26.6552C25.8908 25.7297 25.1448 24.9785 24.2254 24.9785C23.306 24.9785 22.5599 25.7288 22.5599 26.6552V30.1385H18.327V26.6552Z" fill="white"/>
<path d="M39.2707 13.7207H35.81C34.8898 13.7207 34.1445 14.4718 34.1445 15.3974C34.1445 16.323 34.8898 17.0741 35.81 17.0741H39.2707C40.1899 17.0741 40.9361 16.323 40.9361 15.3974C40.9361 14.4718 40.1909 13.7207 39.2707 13.7207Z" fill="white"/>
<path d="M41.3114 35.7874C40.9947 36.1053 40.8242 36.5331 40.8242 36.9772C40.8242 37.4223 40.9947 37.8492 41.3114 38.158C41.6271 38.4768 42.0421 38.6493 42.4842 38.6493C42.9352 38.6493 43.3503 38.4768 43.666 38.158C43.9818 37.8492 44.1522 37.4222 44.1522 36.9772C44.1522 36.5321 43.9727 36.1053 43.666 35.7874C43.0436 35.1698 41.9249 35.1698 41.3114 35.7874Z" fill="white"/>
<path d="M44.6861 0.369141H8.08856C3.82855 0.369141 0.363281 3.85691 0.363281 8.14479V39.0677C0.363281 43.3548 3.82855 46.8425 8.08856 46.8425H11.3869C12.3062 46.8425 13.0523 46.0914 13.0523 45.1649C13.0523 44.2385 12.3071 43.4882 11.3869 43.4882H8.08856C5.66527 43.4882 3.69405 41.5054 3.69405 39.0677V8.14479C3.69405 5.70605 5.66527 3.72243 8.08856 3.72243H44.6852C47.1075 3.72243 49.0797 5.70605 49.0797 8.14479V39.0677C49.0797 41.5046 47.1085 43.4882 44.6852 43.4882H25.2082C24.896 43.4882 24.5902 43.5763 24.3259 43.7435L17.4514 48.0669V45.1649C17.4514 44.2385 16.7054 43.4882 15.786 43.4882C14.8667 43.4882 14.1205 44.2385 14.1205 45.1649V51.0922C14.1205 51.7026 14.4489 52.263 14.9785 52.5591C15.2302 52.699 15.5081 52.7689 15.786 52.7689C16.0927 52.7689 16.3995 52.6845 16.6683 52.5146L25.6864 46.8424H44.6861C48.9461 46.8424 52.4114 43.3546 52.4114 39.0676V8.14479C52.4114 3.85691 48.947 0.369141 44.6861 0.369141Z" fill="white"/>
</svg>
