<svg width="16" height="16" viewBox="0 0 16 16" fill="none" xmlns="http://www.w3.org/2000/svg">
<path d="M8 0.849609C7.6162 0.849609 7.25391 0.999835 6.98242 1.27148L1.27051 6.98242H1.26953V6.9834L1.0127 7.23926H1.06836C0.747468 7.754 0.780924 8.42844 1.17188 8.9082L1.27051 9.01758C1.54241 9.28937 1.90428 9.43841 2.28809 9.43848H2.34961V13.4912C2.34961 14.4058 3.09319 15.1503 4.00781 15.1504H6.24219C6.55161 15.1504 6.80273 14.8993 6.80273 14.5898V11.2949C6.80285 10.9985 7.04433 10.757 7.34082 10.7568H8.65918C8.95575 10.7569 9.19715 10.9985 9.19727 11.2949V14.5898C9.19727 14.8989 9.44832 15.1504 9.75781 15.1504H11.9922C12.9069 15.1504 13.6504 14.4058 13.6504 13.4912V9.43848H13.7285C13.7455 9.43847 13.7641 9.4385 13.7832 9.43652V9.43555C14.1409 9.41796 14.4758 9.27052 14.7295 9.0166V9.01758C15.2893 8.45757 15.2906 7.54674 14.7324 6.98535H14.7314V6.98438H14.7305V6.9834H14.7295V6.98242H14.7285V6.98145H14.7275V6.98047H14.7266V6.97949H14.7256L9.01758 1.27148L8.91113 1.17578C8.65463 0.965108 8.33582 0.849715 8 0.849609ZM8 1.9707C8.06377 1.97079 8.12414 1.98889 8.17578 2.02344L8.22461 2.06348L13.9355 7.77441L13.9414 7.7793C14.0604 7.90377 14.0588 8.10216 13.9365 8.22461L13.8887 8.26367C13.8384 8.29752 13.7794 8.31626 13.7168 8.31738H13.7178C13.7119 8.31741 13.706 8.31806 13.7002 8.31836H13.0898C12.7804 8.31836 12.5293 8.56947 12.5293 8.87891V13.4912C12.5293 13.7875 12.2879 14.0293 11.9912 14.0293H10.3174V11.2949C10.3174 10.3803 9.57292 9.63574 8.6582 9.63574H7.33984C6.42532 9.63597 5.68164 10.3804 5.68164 11.2949V14.0293H4.00684C3.71024 14.0291 3.46875 13.7876 3.46875 13.4912V8.87891C3.46875 8.56947 3.21763 8.31836 2.9082 8.31836H2.28711C2.2021 8.31826 2.12279 8.28489 2.0625 8.22461L2.02148 8.1748C1.94184 8.0535 1.95348 7.88915 2.05664 7.78027H2.05566L2.05957 7.77734C2.06035 7.77654 2.06073 7.77521 2.06152 7.77441L2.0625 7.77539L2.06445 7.77344L1.95801 7.66699L2.06445 7.77246L7.77441 2.06348C7.83482 2.00314 7.91466 1.9707 8 1.9707Z" fill="black" stroke="black" stroke-width="0.3"/>
</svg>
