<svg width="27" height="20" viewBox="0 0 27 20" fill="none" xmlns="http://www.w3.org/2000/svg">
<path d="M6.84149 6.31641H3.68359V7.89535H5.26254V12.6322H3.68359V14.2111H8.42044V12.6322H6.84149V6.31641Z" fill="white"/>
<path d="M10 7.89535H12.2105V9.4743H10V14.2111H13.6842V12.6322H11.4737V11.0532H13.6842V6.31641H10V7.89535Z" fill="white"/>
<path d="M15.2617 6.31641V7.89535H17.788V9.4743H16.1038V11.0532H17.788L17.788 12.6322H15.2617V14.2111H19.4722V6.31641H15.2617Z" fill="white"/>
<path d="M26.3158 16.9231V3.07692H22.4458V1.53846H23.9938V0H19.3498V1.53846H20.8978V3.07692H0V16.9231H20.8978V18.4615H19.3498V20H23.9938V18.4615H22.4458V16.9231H26.3158ZM24.7678 4.61538V15.3846H22.4458V4.61538H24.7678ZM1.54799 15.3846V4.61538H20.8978V15.3846H1.54799Z" fill="white"/>
</svg>
