<svg width="20" height="20" viewBox="0 0 20 20" fill="none" xmlns="http://www.w3.org/2000/svg">
<path d="M10 3.12493V16.8749C10.0001 16.9961 9.96498 17.1147 9.8989 17.2162C9.83281 17.3178 9.73863 17.3979 9.62782 17.4469C9.51701 17.4959 9.39434 17.5117 9.27475 17.4922C9.15515 17.4728 9.04379 17.419 8.95421 17.3374L4.55004 13.3333H2.29171C1.90493 13.3333 1.534 13.1796 1.26051 12.9061C0.987019 12.6326 0.833374 12.2617 0.833374 11.8749V8.12493C0.833374 7.31993 1.48671 6.66659 2.29171 6.66659H4.55004L8.95421 2.66243C9.04379 2.58084 9.15515 2.52705 9.27475 2.50761C9.39434 2.48817 9.51701 2.50391 9.62782 2.55291C9.73863 2.60192 9.83281 2.68207 9.8989 2.78363C9.96498 2.88519 10.0001 3.00376 10 3.12493ZM5.21254 7.75409C5.09738 7.85876 4.94732 7.91671 4.79171 7.91659H2.29171C2.23645 7.91659 2.18346 7.93854 2.14439 7.97761C2.10532 8.01668 2.08337 8.06967 2.08337 8.12493V11.8749C2.08337 11.9899 2.17671 12.0833 2.29171 12.0833H4.79171C4.94754 12.0833 5.09754 12.1408 5.21254 12.2458L8.75004 15.4624V4.53743L5.21254 7.75409ZM13.5667 6.84993C13.5095 6.78852 13.4405 6.73927 13.3638 6.70511C13.2872 6.67095 13.2044 6.65258 13.1205 6.6511C13.0366 6.64962 12.9532 6.66506 12.8754 6.69649C12.7976 6.72792 12.7269 6.77471 12.6675 6.83406C12.6082 6.89341 12.5614 6.9641 12.5299 7.04193C12.4985 7.11975 12.4831 7.20311 12.4845 7.28703C12.486 7.37095 12.5044 7.45371 12.5386 7.53037C12.5727 7.60704 12.622 7.67604 12.6834 7.73326L14.95 9.99992L12.6834 12.2666C12.622 12.3238 12.5727 12.3928 12.5386 12.4695C12.5044 12.5461 12.486 12.6289 12.4845 12.7128C12.4831 12.7967 12.4985 12.8801 12.5299 12.9579C12.5614 13.0357 12.6082 13.1064 12.6675 13.1658C12.7269 13.2251 12.7976 13.2719 12.8754 13.3034C12.9532 13.3348 13.0366 13.3502 13.1205 13.3488C13.2044 13.3473 13.2872 13.3289 13.3638 13.2947C13.4405 13.2606 13.5095 13.2113 13.5667 13.1499L15.8334 10.8833L18.1 13.1499C18.1573 13.2113 18.2263 13.2606 18.3029 13.2947C18.3796 13.3289 18.4624 13.3473 18.5463 13.3488C18.6302 13.3502 18.7135 13.3348 18.7914 13.3034C18.8692 13.2719 18.9399 13.2251 18.9992 13.1658C19.0586 13.1064 19.1054 13.0357 19.1368 12.9579C19.1682 12.8801 19.1837 12.7967 19.1822 12.7128C19.1807 12.6289 19.1624 12.5461 19.1282 12.4695C19.094 12.3928 19.0448 12.3238 18.9834 12.2666L16.7167 9.99992L18.9834 7.73326C19.0938 7.61478 19.1539 7.45807 19.151 7.29616C19.1482 7.13424 19.0826 6.97975 18.9681 6.86524C18.8535 6.75073 18.6991 6.68514 18.5371 6.68228C18.3752 6.67942 18.2185 6.73953 18.1 6.84993L15.8334 9.11659L13.5667 6.84993Z" fill="white"/>
</svg>
