<svg width="8" height="8" viewBox="0 0 8 8" fill="none" xmlns="http://www.w3.org/2000/svg">
<path d="M4.80612 1.71582L1.03307 5.48914C1.01408 5.50818 1.00038 5.53222 0.993852 5.55805L0.575645 7.23665C0.563135 7.28717 0.577984 7.34091 0.61486 7.37779C0.642763 7.40569 0.680781 7.42114 0.71967 7.42114C0.731582 7.42114 0.743765 7.41967 0.755622 7.41668L2.43421 6.99842C2.46038 6.99189 2.48414 6.97824 2.50313 6.95926L6.2765 3.18621L4.80612 1.71582Z" fill="black"/>
<path d="M7.21235 1.20172L6.79235 0.781718C6.51164 0.50101 6.0224 0.501282 5.74202 0.781718L5.22754 1.2962L6.69787 2.76653L7.21235 2.25205C7.35257 2.11189 7.4298 1.92533 7.4298 1.72691C7.4298 1.5285 7.35257 1.34194 7.21235 1.20172Z" fill="black"/>
</svg>
