<svg width="319" height="121" viewBox="0 0 319 121" fill="none" xmlns="http://www.w3.org/2000/svg">
<mask id="mask0_30570_18756" style="mask-type:alpha" maskUnits="userSpaceOnUse" x="0" y="0" width="319" height="121">
<rect width="319" height="120.424" rx="6.25581" fill="#00953B"/>
</mask>
<g mask="url(#mask0_30570_18756)">
<rect width="319" height="120.424" rx="6.25581" fill="#11A64B"/>
<path d="M159.816 165.728C219.914 165.728 268.633 118.555 268.633 60.364C268.633 2.17314 219.914 -45 159.816 -45C99.7187 -45 51 2.17314 51 60.364C51 118.555 99.7187 165.728 159.816 165.728Z" fill="black" fill-opacity="0.15"/>
<path d="M150.307 112.604C188.247 112.604 219.004 109.884 219.004 106.527C219.004 103.171 188.247 100.45 150.307 100.45C112.366 100.45 81.6094 103.171 81.6094 106.527C81.6094 109.884 112.366 112.604 150.307 112.604Z" fill="#474747" fill-opacity="0.4"/>
<path d="M182.018 14.3416L182.491 13.95L180.832 12.1367C177.417 14.9624 172.5 14.4073 169.529 11.1601L99.0487 69.4846C102.02 72.7319 101.919 77.4396 98.5044 80.2654L100.164 82.0787L100.637 81.6872C101.232 81.1948 102.13 81.2541 102.648 81.8199C103.166 82.3857 103.103 83.2399 102.508 83.7323L102.035 84.1239L103.682 85.9236L104.155 85.5321C104.75 85.0397 105.649 85.099 106.166 85.6648C106.684 86.2306 106.622 87.0848 106.027 87.5772L105.554 87.9687L107.388 89.973C108.743 88.8518 110.794 88.9871 111.973 90.2756C113.152 91.564 113.009 93.5147 111.655 94.6359L113.526 96.681L113.999 96.2895C114.594 95.7971 115.492 95.8564 116.01 96.4222C116.528 96.988 116.466 97.8422 115.871 98.3346L115.398 98.7262L117.044 100.526L117.518 100.134C118.113 99.642 119.011 99.7013 119.529 100.267C120.046 100.833 119.984 101.687 119.389 102.179L118.916 102.571L120.538 104.343C123.952 101.518 128.869 102.073 131.841 105.32L202.323 46.9935C199.352 43.7463 199.453 39.0386 202.868 36.2128L201.246 34.4404L200.772 34.8319C200.177 35.3243 199.279 35.265 198.761 34.6992C198.244 34.1333 198.306 33.2791 198.901 32.7868L199.374 32.3952L197.727 30.5955L197.254 30.987C196.659 31.4794 195.761 31.4201 195.243 30.8543C194.725 30.2885 194.788 29.4343 195.383 28.9419L195.856 28.5504L193.984 26.5052C192.629 27.6264 190.578 27.491 189.399 26.2026C188.22 24.9142 188.363 22.9635 189.717 21.8423L187.883 19.8381L187.41 20.2296C186.815 20.722 184.944 18.6768 185.539 18.1844L186.012 17.7929L184.365 15.9932L183.892 16.3847C183.297 16.8771 182.399 16.8178 181.881 16.252C181.363 15.6862 181.425 14.832 182.02 14.3396L182.018 14.3416Z" fill="#FFE200"/>
<path d="M166.311 18.5684L107.206 67.4803C105.396 68.9776 105.206 71.5862 106.781 73.3068L128.926 97.5077C130.501 99.2283 133.244 99.4093 135.053 97.912L194.159 49.0001C195.968 47.5028 196.159 44.8942 194.584 43.1736L172.438 18.9728C170.864 17.2522 168.121 17.0711 166.311 18.5684Z" fill="white"/>
<path d="M123.114 56.6504L122.438 57.21L148.249 85.417L148.925 84.8575L123.114 56.6504Z" fill="#11A64B"/>
<path d="M135.962 89.5701L137.371 88.4034L136.184 87.1059L134.774 88.2726L134.055 87.4863L137.72 84.4529L138.44 85.2392L136.906 86.5087L138.093 87.8062L139.627 86.5367L140.351 87.3275L136.685 90.3609L135.962 89.5701Z" fill="#11A64B"/>
<path d="M132.696 86.0099L134.806 84.2639C135.437 83.7418 135.55 83.2496 135.179 82.8451C134.809 82.4406 134.29 82.4555 133.642 82.9913L131.532 84.7374L130.812 83.9512L132.87 82.2486C134.003 81.3113 135.037 81.4095 135.871 82.3207C136.705 83.2319 136.638 84.1414 135.47 85.1083L133.425 86.801L132.701 86.0102L132.696 86.0099Z" fill="#11A64B"/>
<path d="M130.234 83.2312C129.959 83.0123 129.58 82.6628 129.197 82.2447C128.723 81.7266 128.474 81.298 128.455 80.8783C128.44 80.5272 128.592 80.2019 128.929 79.9231C129.397 79.5356 130.006 79.5864 130.396 79.7915L130.412 79.7776C130.293 79.4495 130.416 79.1117 130.672 78.7443C130.985 78.2931 131.364 77.7885 131.447 77.604L132.185 78.4107C132.134 78.5525 131.912 78.8838 131.554 79.3598C131.183 79.8306 131.194 80.0854 131.482 80.4098L131.7 80.6484L133.141 79.456L133.857 80.2377L130.239 83.2315L130.234 83.2312ZM131.096 81.1444L130.811 80.8331C130.452 80.44 130.032 80.3802 129.711 80.6452C129.374 80.924 129.404 81.2826 129.73 81.6478C129.905 81.8387 130.021 81.9339 130.083 81.9828L131.094 81.1464L131.096 81.1444Z" fill="#11A64B"/>
<path d="M127.43 80.1629C127.154 79.944 126.775 79.5944 126.393 79.1763C125.918 78.6582 125.669 78.2297 125.65 77.8099C125.636 77.4588 125.787 77.1336 126.124 76.8548C126.593 76.4672 127.202 76.5181 127.591 76.7231L127.608 76.7093C127.488 76.3811 127.611 76.0433 127.867 75.6759C128.181 75.2247 128.559 74.7202 128.642 74.5356L129.38 75.3423C129.329 75.4842 129.108 75.8154 128.75 76.2914C128.378 76.7623 128.389 77.0171 128.677 77.3414L128.896 77.58L130.337 76.3876L131.052 77.1693L127.434 80.1632L127.43 80.1629ZM128.292 78.0761L128.007 77.7647C127.647 77.3716 127.227 77.3119 126.907 77.5769C126.57 77.8557 126.6 78.2142 126.926 78.5795C127.1 78.7704 127.217 78.8656 127.278 78.9145L128.289 78.078L128.292 78.0761Z" fill="#11A64B"/>
<path d="M127.591 73.3916L126.091 74.6334L124.934 77.5271L124.111 76.6272L124.666 75.5408C124.834 75.2103 124.963 74.9754 125.123 74.6913L125.113 74.6799C124.813 74.7925 124.526 74.8824 124.169 74.9977L122.965 75.3752L122.156 74.4912L125.345 73.869L126.874 72.6034L127.594 73.3896L127.591 73.3916Z" fill="#11A64B"/>
<path d="M120.134 72.2805L122.244 70.5344C122.875 70.0123 122.987 69.5201 122.617 69.1156C122.247 68.7112 121.727 68.726 121.079 69.2618L118.969 71.0079L118.25 70.2217L120.307 68.5191C121.44 67.5818 122.475 67.68 123.309 68.5912C124.142 69.5024 124.076 70.4119 122.908 71.3789L120.862 73.0715L120.138 72.2807L120.134 72.2805Z" fill="#11A64B"/>
<path d="M117.68 69.4995C117.415 69.2919 117.07 68.9788 116.629 68.497C116.188 68.0153 115.964 67.582 115.947 67.188C115.928 66.8131 116.096 66.41 116.455 66.1134C116.813 65.8168 117.223 65.6773 117.618 65.714C118.131 65.7607 118.616 66.0617 119.042 66.5276C119.138 66.6321 119.219 66.7292 119.271 66.8096L120.583 65.7239L121.298 66.5056L117.68 69.4995ZM118.631 67.3395C118.585 67.2575 118.515 67.1717 118.411 67.0581C118.028 66.64 117.569 66.5648 117.194 66.8753C116.857 67.1541 116.86 67.5429 117.22 67.936C117.367 68.0974 117.482 68.1903 117.551 68.2333L118.633 67.3375L118.631 67.3395Z" fill="#11A64B"/>
<path d="M117.289 64.4377L114.933 66.5946L114.181 65.772L116.748 63.8469L117.289 64.4377ZM118.212 63.9734C117.923 64.2126 117.543 64.1918 117.291 63.9169C117.039 63.6419 117.083 63.2903 117.363 63.0462C117.645 62.8129 118.024 62.8187 118.28 63.0982C118.536 63.3777 118.494 63.74 118.212 63.9734Z" fill="#11A64B"/>
<path d="M138.678 61.2433L138.765 61.4401L137.994 62.09L137.802 61.9813L138.678 61.2433ZM132.222 58.4615L134.792 60.0129C135.653 60.534 136.449 61.0281 137.25 61.6161L137.564 61.8476L131.956 58.6855L132.222 58.4615ZM136.018 55.265L138.199 60.1698C137.809 59.4922 137.447 58.8025 137.111 58.1161L135.805 55.4443L136.018 55.265Z" fill="#109D47" stroke="#0E9C45" stroke-width="1.56395"/>
<path d="M139.166 52.9128C139.103 53.1959 139.094 53.4901 139.135 53.7863C139.242 54.555 139.674 55.3055 140.278 55.9532C140.894 56.6135 141.634 57.097 142.427 57.2714C142.827 57.3594 143.23 57.3643 143.617 57.2814C143.17 57.4475 142.717 57.4946 142.278 57.4438C141.496 57.3533 140.692 56.9444 140.018 56.2214C139.308 55.4599 138.977 54.6167 138.986 53.8379C138.989 53.5264 139.048 53.2153 139.166 52.9128ZM141.16 51.0463C141.591 50.899 142.028 50.8594 142.451 50.9073C143.223 50.9946 143.998 51.3817 144.632 52.0372L144.687 52.0958C145.479 52.9459 145.794 53.7974 145.766 54.5503C145.754 54.8838 145.674 55.2171 145.522 55.5416C145.608 55.2241 145.627 54.8908 145.581 54.5559C145.476 53.7889 145.051 53.0336 144.443 52.3818C143.872 51.7694 143.148 51.2856 142.365 51.0922C141.97 50.9945 141.559 50.9732 141.16 51.0463Z" fill="#109D47" stroke="#0E9C45" stroke-width="1.56395"/>
<path d="M144.842 47.8251L147.475 50.6494C148.002 51.2152 148.598 51.6422 149.258 51.7883C149.621 51.8688 149.971 51.8557 150.298 51.7649C149.9 51.9642 149.538 52.0255 149.204 51.9901C148.654 51.9315 147.977 51.5908 147.166 50.721L144.631 48.0025L144.842 47.8251ZM148.506 44.7359L151.057 47.4722C151.821 48.292 152.078 48.9837 152.057 49.5416C152.048 49.792 151.978 50.0471 151.843 50.3081C151.911 50.083 151.937 49.8408 151.913 49.5841C151.851 48.9358 151.478 48.3128 150.936 47.7313L148.303 44.907L148.506 44.7359Z" fill="#109D47" stroke="#0E9C45" stroke-width="1.56395"/>
<path d="M152.561 41.3298C152.331 41.7085 152.181 42.1269 152.142 42.5776C152.067 43.4483 152.412 44.3183 153.14 45.0999C153.797 45.8041 154.613 46.2543 155.519 46.3187C156.144 46.3632 156.752 46.2194 157.315 45.9197C156.546 46.4342 155.815 46.6121 155.169 46.5693C154.383 46.5172 153.605 46.1328 152.933 45.4117C152.131 44.5514 151.867 43.66 151.957 42.8455C152.014 42.3295 152.217 41.8125 152.561 41.3298Z" fill="#109D47" stroke="#0E9C45" stroke-width="1.56395"/>
<path d="M156.602 37.9062L158.716 40.1738L162.222 37.2179L160.108 34.9504L160.311 34.7793L164.743 39.5337L164.54 39.7049L162.239 37.2365L158.733 40.1924L161.034 42.6607L160.822 42.84L156.389 38.0855L156.602 37.9062Z" fill="#109D47" stroke="#0E9C45" stroke-width="1.56395"/>
<path d="M162.946 32.5605L167.378 37.315L167.165 37.4943L162.733 32.7398L162.946 32.5605Z" fill="#109D47" stroke="#0E9C45" stroke-width="1.56395"/>
<path d="M173.066 29.5596C173.265 29.4926 173.537 29.507 174.006 29.7601L174.22 29.8836C174.612 30.1248 174.983 30.3636 175.357 30.597L175.149 30.7719C175.122 30.7559 175.091 30.7407 175.061 30.7228C174.925 30.6426 174.77 30.5468 174.595 30.4356L174.01 30.0563C173.708 29.8463 173.392 29.6661 173.057 29.5624L173.066 29.5596ZM170.281 31.0512L170.284 31.0487L172.281 33.1905L172.087 33.3541L167.662 28.6082C167.719 28.5506 167.777 28.491 167.838 28.4306L170.281 31.0512ZM172.317 29.4751C172.176 29.4875 172.044 29.5162 171.92 29.557C171.991 29.4588 172.055 29.3578 172.109 29.2521L172.317 29.4751ZM170.242 26.5862C170.461 26.4975 170.654 26.4537 170.83 26.4438L170.831 26.4445C171.185 26.4275 171.545 26.5485 171.91 26.94C172.176 27.2248 172.263 27.5778 172.232 27.9069C172.15 27.6568 172.01 27.4228 171.817 27.2162C171.432 26.803 170.922 26.5531 170.334 26.5776C170.303 26.5789 170.273 26.5834 170.242 26.5862Z" fill="#109D47" stroke="#0E9C45" stroke-width="1.56395"/>
<mask id="path-23-outside-1_30570_18756" maskUnits="userSpaceOnUse" x="140.111" y="30.6262" width="48.5398" height="49.7628" fill="black">
<rect fill="white" x="140.111" y="30.6262" width="48.5398" height="49.7628"/>
<path d="M142.851 65.6859L146.424 62.6461C147.215 61.9732 147.948 61.5097 148.624 61.2554C149.3 60.9842 149.918 60.8671 150.477 60.9041C151.028 60.9321 151.523 61.0719 151.962 61.3235C152.392 61.5661 152.762 61.8524 153.071 62.1822C153.648 62.7974 154.015 63.4146 154.172 64.0338C154.329 64.6531 154.264 65.3417 153.976 66.0995L159.821 68.4092L157.547 70.3436L152.493 68.2017L150.516 69.8838L153.875 73.4676L151.798 75.2339L142.851 65.6859ZM150.6 66.8318C150.93 66.5515 151.174 66.288 151.332 66.0413C151.482 65.7858 151.563 65.548 151.577 65.328C151.592 65.091 151.544 64.8678 151.432 64.6584C151.32 64.449 151.168 64.2417 150.976 64.0367C150.818 63.8673 150.639 63.7309 150.44 63.6274C150.234 63.515 150.005 63.4609 149.755 63.4651C149.507 63.4525 149.23 63.5191 148.927 63.6649C148.625 63.7939 148.29 64.0145 147.923 64.3269L146.468 65.5645L148.962 68.2256L150.6 66.8318Z"/>
<path d="M160.217 64.0828C160.667 64.4368 161.092 64.5561 161.491 64.4406C161.891 64.3251 162.288 64.0991 162.683 63.7627C163.154 63.3622 163.438 63.0243 163.536 62.7491C163.634 62.457 163.567 62.1862 163.333 61.9365C163.166 61.7582 162.954 61.6583 162.696 61.6367C162.449 61.6071 162.121 61.7178 161.713 61.9687L160.546 62.6733C159.526 63.3006 158.644 63.642 157.901 63.6975C157.159 63.7361 156.478 63.4256 155.86 62.7659C155.543 62.4271 155.334 62.0599 155.234 61.6643C155.143 61.2607 155.152 60.8451 155.259 60.4176C155.366 59.9901 155.566 59.5631 155.86 59.1366C156.156 58.6932 156.539 58.2712 157.009 57.8707C157.593 57.3741 158.137 57.0155 158.641 56.7949C159.137 56.5655 159.595 56.4402 160.015 56.4192C160.445 56.3901 160.842 56.4528 161.207 56.6072C161.581 56.7536 161.934 56.9499 162.266 57.196L160.701 58.9119C160.316 58.663 159.944 58.5549 159.585 58.5876C159.236 58.6123 158.826 58.8249 158.355 59.2254C158.092 59.4497 157.891 59.6602 157.754 59.857C157.618 60.0368 157.527 60.202 157.482 60.3525C157.447 60.495 157.443 60.6264 157.471 60.7467C157.508 60.859 157.561 60.9508 157.627 61.0221C157.836 61.245 158.062 61.3498 158.303 61.3366C158.546 61.3065 158.912 61.1469 159.403 60.8578L160.473 60.2119C161.066 59.8515 161.59 59.5896 162.046 59.426C162.502 59.2625 162.917 59.1902 163.29 59.2092C163.664 59.2113 164.006 59.3051 164.315 59.4906C164.634 59.6681 164.948 59.9218 165.257 60.2517C165.875 60.9114 166.108 61.6661 165.957 62.5159C165.797 63.3567 165.167 64.2457 164.065 65.1829C163.623 65.5594 163.161 65.8797 162.681 66.1439C162.219 66.409 161.74 66.5842 161.244 66.6693C160.758 66.7464 160.265 66.7171 159.766 66.5813C159.276 66.4375 158.795 66.1413 158.324 65.6929L160.217 64.0828Z"/>
<path d="M166.298 59.0298L168.317 57.3117L170.335 59.4646L168.315 61.1828L166.298 59.0298Z"/>
<path d="M168.286 48.5366L167.394 51.2419L165.227 50.6094L166.594 46.0819L168.275 44.6521L176.935 53.8924L174.915 55.6106L168.286 48.5366Z"/>
<path d="M183.767 48.5124C182.6 49.5057 181.323 49.8864 179.939 49.6546C178.563 49.4148 177.09 48.4569 175.519 46.7809C174.734 45.9429 174.142 45.1487 173.743 44.3983C173.346 43.6309 173.119 42.9105 173.063 42.237C173.017 41.5555 173.137 40.9248 173.423 40.3451C173.7 39.7565 174.126 39.2179 174.701 38.7292C175.868 37.736 177.144 37.3637 178.528 37.6125C179.913 37.8443 181.386 38.7937 182.948 40.4608C184.519 42.1368 185.342 43.6474 185.419 44.9927C185.504 46.3299 184.954 47.5031 183.767 48.5124ZM182.252 46.869C182.563 46.6046 182.755 46.313 182.829 45.9942C182.903 45.6584 182.877 45.2962 182.75 44.9077C182.614 44.5103 182.391 44.0914 182.08 43.6511C181.76 43.2019 181.363 42.7232 180.886 42.215C180.41 41.7069 179.96 41.2807 179.536 40.9365C179.103 40.5834 178.692 40.3247 178.301 40.1605C177.902 39.9874 177.527 39.9216 177.177 39.9632C176.828 39.9879 176.498 40.1324 176.187 40.3967C175.876 40.6611 175.688 40.9571 175.623 41.2849C175.55 41.6038 175.581 41.9619 175.716 42.3593C175.853 42.7398 176.081 43.1547 176.4 43.6039C176.712 44.0442 177.105 44.5185 177.581 45.0266C178.058 45.5348 178.512 45.9654 178.944 46.3185C179.368 46.6627 179.775 46.9254 180.165 47.1065C180.556 47.2708 180.926 47.3405 181.275 47.3159C181.616 47.2823 181.942 47.1333 182.252 46.869Z"/>
</mask>
<path d="M142.851 65.6859L146.424 62.6461C147.215 61.9732 147.948 61.5097 148.624 61.2554C149.3 60.9842 149.918 60.8671 150.477 60.9041C151.028 60.9321 151.523 61.0719 151.962 61.3235C152.392 61.5661 152.762 61.8524 153.071 62.1822C153.648 62.7974 154.015 63.4146 154.172 64.0338C154.329 64.6531 154.264 65.3417 153.976 66.0995L159.821 68.4092L157.547 70.3436L152.493 68.2017L150.516 69.8838L153.875 73.4676L151.798 75.2339L142.851 65.6859ZM150.6 66.8318C150.93 66.5515 151.174 66.288 151.332 66.0413C151.482 65.7858 151.563 65.548 151.577 65.328C151.592 65.091 151.544 64.8678 151.432 64.6584C151.32 64.449 151.168 64.2417 150.976 64.0367C150.818 63.8673 150.639 63.7309 150.44 63.6274C150.234 63.515 150.005 63.4609 149.755 63.4651C149.507 63.4525 149.23 63.5191 148.927 63.6649C148.625 63.7939 148.29 64.0145 147.923 64.3269L146.468 65.5645L148.962 68.2256L150.6 66.8318Z" fill="#109D47"/>
<path d="M160.217 64.0828C160.667 64.4368 161.092 64.5561 161.491 64.4406C161.891 64.3251 162.288 64.0991 162.683 63.7627C163.154 63.3622 163.438 63.0243 163.536 62.7491C163.634 62.457 163.567 62.1862 163.333 61.9365C163.166 61.7582 162.954 61.6583 162.696 61.6367C162.449 61.6071 162.121 61.7178 161.713 61.9687L160.546 62.6733C159.526 63.3006 158.644 63.642 157.901 63.6975C157.159 63.7361 156.478 63.4256 155.86 62.7659C155.543 62.4271 155.334 62.0599 155.234 61.6643C155.143 61.2607 155.152 60.8451 155.259 60.4176C155.366 59.9901 155.566 59.5631 155.86 59.1366C156.156 58.6932 156.539 58.2712 157.009 57.8707C157.593 57.3741 158.137 57.0155 158.641 56.7949C159.137 56.5655 159.595 56.4402 160.015 56.4192C160.445 56.3901 160.842 56.4528 161.207 56.6072C161.581 56.7536 161.934 56.9499 162.266 57.196L160.701 58.9119C160.316 58.663 159.944 58.5549 159.585 58.5876C159.236 58.6123 158.826 58.8249 158.355 59.2254C158.092 59.4497 157.891 59.6602 157.754 59.857C157.618 60.0368 157.527 60.202 157.482 60.3525C157.447 60.495 157.443 60.6264 157.471 60.7467C157.508 60.859 157.561 60.9508 157.627 61.0221C157.836 61.245 158.062 61.3498 158.303 61.3366C158.546 61.3065 158.912 61.1469 159.403 60.8578L160.473 60.2119C161.066 59.8515 161.59 59.5896 162.046 59.426C162.502 59.2625 162.917 59.1902 163.29 59.2092C163.664 59.2113 164.006 59.3051 164.315 59.4906C164.634 59.6681 164.948 59.9218 165.257 60.2517C165.875 60.9114 166.108 61.6661 165.957 62.5159C165.797 63.3567 165.167 64.2457 164.065 65.1829C163.623 65.5594 163.161 65.8797 162.681 66.1439C162.219 66.409 161.74 66.5842 161.244 66.6693C160.758 66.7464 160.265 66.7171 159.766 66.5813C159.276 66.4375 158.795 66.1413 158.324 65.6929L160.217 64.0828Z" fill="#109D47"/>
<path d="M166.298 59.0298L168.317 57.3117L170.335 59.4646L168.315 61.1828L166.298 59.0298Z" fill="#109D47"/>
<path d="M168.286 48.5366L167.394 51.2419L165.227 50.6094L166.594 46.0819L168.275 44.6521L176.935 53.8924L174.915 55.6106L168.286 48.5366Z" fill="#109D47"/>
<path d="M183.767 48.5124C182.6 49.5057 181.323 49.8864 179.939 49.6546C178.563 49.4148 177.09 48.4569 175.519 46.7809C174.734 45.9429 174.142 45.1487 173.743 44.3983C173.346 43.6309 173.119 42.9105 173.063 42.237C173.017 41.5555 173.137 40.9248 173.423 40.3451C173.7 39.7565 174.126 39.2179 174.701 38.7292C175.868 37.736 177.144 37.3637 178.528 37.6125C179.913 37.8443 181.386 38.7937 182.948 40.4608C184.519 42.1368 185.342 43.6474 185.419 44.9927C185.504 46.3299 184.954 47.5031 183.767 48.5124ZM182.252 46.869C182.563 46.6046 182.755 46.313 182.829 45.9942C182.903 45.6584 182.877 45.2962 182.75 44.9077C182.614 44.5103 182.391 44.0914 182.08 43.6511C181.76 43.2019 181.363 42.7232 180.886 42.215C180.41 41.7069 179.96 41.2807 179.536 40.9365C179.103 40.5834 178.692 40.3247 178.301 40.1605C177.902 39.9874 177.527 39.9216 177.177 39.9632C176.828 39.9879 176.498 40.1324 176.187 40.3967C175.876 40.6611 175.688 40.9571 175.623 41.2849C175.55 41.6038 175.581 41.9619 175.716 42.3593C175.853 42.7398 176.081 43.1547 176.4 43.6039C176.712 44.0442 177.105 44.5185 177.581 45.0266C178.058 45.5348 178.512 45.9654 178.944 46.3185C179.368 46.6627 179.775 46.9254 180.165 47.1065C180.556 47.2708 180.926 47.3405 181.275 47.3159C181.616 47.2823 181.942 47.1333 182.252 46.869Z" fill="#109D47"/>
<path d="M142.851 65.6859L146.424 62.6461C147.215 61.9732 147.948 61.5097 148.624 61.2554C149.3 60.9842 149.918 60.8671 150.477 60.9041C151.028 60.9321 151.523 61.0719 151.962 61.3235C152.392 61.5661 152.762 61.8524 153.071 62.1822C153.648 62.7974 154.015 63.4146 154.172 64.0338C154.329 64.6531 154.264 65.3417 153.976 66.0995L159.821 68.4092L157.547 70.3436L152.493 68.2017L150.516 69.8838L153.875 73.4676L151.798 75.2339L142.851 65.6859ZM150.6 66.8318C150.93 66.5515 151.174 66.288 151.332 66.0413C151.482 65.7858 151.563 65.548 151.577 65.328C151.592 65.091 151.544 64.8678 151.432 64.6584C151.32 64.449 151.168 64.2417 150.976 64.0367C150.818 63.8673 150.639 63.7309 150.44 63.6274C150.234 63.515 150.005 63.4609 149.755 63.4651C149.507 63.4525 149.23 63.5191 148.927 63.6649C148.625 63.7939 148.29 64.0145 147.923 64.3269L146.468 65.5645L148.962 68.2256L150.6 66.8318Z" stroke="#0E9C45" stroke-width="0.312791" mask="url(#path-23-outside-1_30570_18756)"/>
<path d="M160.217 64.0828C160.667 64.4368 161.092 64.5561 161.491 64.4406C161.891 64.3251 162.288 64.0991 162.683 63.7627C163.154 63.3622 163.438 63.0243 163.536 62.7491C163.634 62.457 163.567 62.1862 163.333 61.9365C163.166 61.7582 162.954 61.6583 162.696 61.6367C162.449 61.6071 162.121 61.7178 161.713 61.9687L160.546 62.6733C159.526 63.3006 158.644 63.642 157.901 63.6975C157.159 63.7361 156.478 63.4256 155.86 62.7659C155.543 62.4271 155.334 62.0599 155.234 61.6643C155.143 61.2607 155.152 60.8451 155.259 60.4176C155.366 59.9901 155.566 59.5631 155.86 59.1366C156.156 58.6932 156.539 58.2712 157.009 57.8707C157.593 57.3741 158.137 57.0155 158.641 56.7949C159.137 56.5655 159.595 56.4402 160.015 56.4192C160.445 56.3901 160.842 56.4528 161.207 56.6072C161.581 56.7536 161.934 56.9499 162.266 57.196L160.701 58.9119C160.316 58.663 159.944 58.5549 159.585 58.5876C159.236 58.6123 158.826 58.8249 158.355 59.2254C158.092 59.4497 157.891 59.6602 157.754 59.857C157.618 60.0368 157.527 60.202 157.482 60.3525C157.447 60.495 157.443 60.6264 157.471 60.7467C157.508 60.859 157.561 60.9508 157.627 61.0221C157.836 61.245 158.062 61.3498 158.303 61.3366C158.546 61.3065 158.912 61.1469 159.403 60.8578L160.473 60.2119C161.066 59.8515 161.59 59.5896 162.046 59.426C162.502 59.2625 162.917 59.1902 163.29 59.2092C163.664 59.2113 164.006 59.3051 164.315 59.4906C164.634 59.6681 164.948 59.9218 165.257 60.2517C165.875 60.9114 166.108 61.6661 165.957 62.5159C165.797 63.3567 165.167 64.2457 164.065 65.1829C163.623 65.5594 163.161 65.8797 162.681 66.1439C162.219 66.409 161.74 66.5842 161.244 66.6693C160.758 66.7464 160.265 66.7171 159.766 66.5813C159.276 66.4375 158.795 66.1413 158.324 65.6929L160.217 64.0828Z" stroke="#0E9C45" stroke-width="0.312791" mask="url(#path-23-outside-1_30570_18756)"/>
<path d="M166.298 59.0298L168.317 57.3117L170.335 59.4646L168.315 61.1828L166.298 59.0298Z" stroke="#0E9C45" stroke-width="0.312791" mask="url(#path-23-outside-1_30570_18756)"/>
<path d="M168.286 48.5366L167.394 51.2419L165.227 50.6094L166.594 46.0819L168.275 44.6521L176.935 53.8924L174.915 55.6106L168.286 48.5366Z" stroke="#0E9C45" stroke-width="0.312791" mask="url(#path-23-outside-1_30570_18756)"/>
<path d="M183.767 48.5124C182.6 49.5057 181.323 49.8864 179.939 49.6546C178.563 49.4148 177.09 48.4569 175.519 46.7809C174.734 45.9429 174.142 45.1487 173.743 44.3983C173.346 43.6309 173.119 42.9105 173.063 42.237C173.017 41.5555 173.137 40.9248 173.423 40.3451C173.7 39.7565 174.126 39.2179 174.701 38.7292C175.868 37.736 177.144 37.3637 178.528 37.6125C179.913 37.8443 181.386 38.7937 182.948 40.4608C184.519 42.1368 185.342 43.6474 185.419 44.9927C185.504 46.3299 184.954 47.5031 183.767 48.5124ZM182.252 46.869C182.563 46.6046 182.755 46.313 182.829 45.9942C182.903 45.6584 182.877 45.2962 182.75 44.9077C182.614 44.5103 182.391 44.0914 182.08 43.6511C181.76 43.2019 181.363 42.7232 180.886 42.215C180.41 41.7069 179.96 41.2807 179.536 40.9365C179.103 40.5834 178.692 40.3247 178.301 40.1605C177.902 39.9874 177.527 39.9216 177.177 39.9632C176.828 39.9879 176.498 40.1324 176.187 40.3967C175.876 40.6611 175.688 40.9571 175.623 41.2849C175.55 41.6038 175.581 41.9619 175.716 42.3593C175.853 42.7398 176.081 43.1547 176.4 43.6039C176.712 44.0442 177.105 44.5185 177.581 45.0266C178.058 45.5348 178.512 45.9654 178.944 46.3185C179.368 46.6627 179.775 46.9254 180.165 47.1065C180.556 47.2708 180.926 47.3405 181.275 47.3159C181.616 47.2823 181.942 47.1333 182.252 46.869Z" stroke="#0E9C45" stroke-width="0.312791" mask="url(#path-23-outside-1_30570_18756)"/>
<path d="M147.202 70.0163L147.352 70.1758L144.336 72.7415L144.186 72.5821L147.202 70.0163Z" fill="#109D47" stroke="#0E9C45" stroke-width="1.56395"/>
<g style="mix-blend-mode:multiply">
<path d="M190.097 57.1846H113.991L109.883 60.5111H185.994L190.097 57.1846Z" fill="#AAA9A9"/>
</g>
<path d="M206.789 70.2601H207.416V67.8563C202.889 67.8563 199.563 64.3681 199.563 60.0635H106.134C106.134 64.3681 102.808 67.8563 98.2812 67.8563V70.2601H98.9084C99.6972 70.2601 100.334 70.8656 100.334 71.6157C100.334 72.3657 99.6972 72.9712 98.9084 72.9712H98.2812V75.3569H98.9084C99.6972 75.3569 100.334 75.9624 100.334 76.7125C100.334 77.4625 99.6972 78.068 98.9084 78.068H98.2812V80.7249C100.077 80.7249 101.531 82.1075 101.531 83.8155C101.531 85.5235 100.077 86.9061 98.2812 86.9061V89.6172H98.9084C99.6972 89.6172 100.334 90.2226 100.334 90.9727C100.334 91.7228 99.6972 92.3283 98.9084 92.3283H98.2812V94.714H98.9084C99.6972 94.714 100.334 95.3195 100.334 96.0695C100.334 96.8196 99.6972 97.4251 98.9084 97.4251H98.2812V99.7747C102.808 99.7747 106.134 103.263 106.134 107.567H199.566C199.566 103.263 202.892 99.7747 207.419 99.7747V97.4251H206.792C206.003 97.4251 205.366 96.8196 205.366 96.0695C205.366 95.3195 206.003 94.714 206.792 94.714H207.419V92.3283H206.792C206.003 92.3283 205.366 91.7228 205.366 90.9727C205.366 90.2226 206.003 89.6172 206.792 89.6172H207.419V86.9061C205.623 86.9061 204.169 85.5235 204.169 83.8155C204.169 82.1075 205.623 80.7249 207.419 80.7249V78.068H206.792C206.003 78.068 206.003 75.3569 206.792 75.3569H207.419V72.9712H206.792C206.003 72.9712 205.366 72.3657 205.366 71.6157C205.366 70.8656 206.003 70.2601 206.792 70.2601H206.789Z" fill="#FFE200"/>
<path d="M192.022 63.6445H113.671C111.272 63.6445 109.328 65.4935 109.328 67.7744V99.8554C109.328 102.136 111.272 103.985 113.671 103.985H192.022C194.421 103.985 196.365 102.136 196.365 99.8554V67.7744C196.365 65.4935 194.421 63.6445 192.022 63.6445Z" fill="white"/>
<path d="M141.142 79.6703L138.484 71.7871H140.537L141.544 75.1217C141.826 76.0586 142.086 76.9592 142.282 77.9412H142.32C142.529 76.9924 142.789 76.0586 143.071 75.1579L144.129 71.7901H146.122L143.328 79.6733H141.139L141.142 79.6703Z" fill="#11A64B"/>
<path d="M154.501 75.6484C154.501 78.233 152.854 79.8024 150.431 79.8024C148.007 79.8024 146.531 78.0372 146.531 75.79C146.531 73.4284 148.118 71.6602 150.567 71.6602C153.015 71.6602 154.504 73.4736 154.504 75.6484H154.501ZM148.511 75.7539C148.511 77.2992 149.274 78.3866 150.529 78.3866C151.783 78.3866 152.521 77.2389 152.521 75.7087C152.521 74.2929 151.809 73.0759 150.516 73.0759C149.224 73.0759 148.511 74.2236 148.511 75.7539Z" fill="#11A64B"/>
<path d="M157.597 71.7871V76.3267C157.597 77.6822 158.139 78.375 159.099 78.375C160.058 78.375 160.625 77.7213 160.625 76.3267V71.7871H162.494V76.2092C162.494 78.6431 161.202 79.7998 159.038 79.7998C156.875 79.7998 155.719 78.7003 155.719 76.1851V71.7871H157.6H157.597Z" fill="#11A64B"/>
<path d="M170.206 79.45C169.861 79.6126 169.088 79.7904 168.077 79.7904C165.21 79.7904 163.734 78.0944 163.734 75.8473C163.734 73.1573 165.752 71.6602 168.261 71.6602C169.233 71.6602 169.971 71.8469 170.304 72.0126L169.924 73.4284C169.544 73.2778 169.015 73.1362 168.35 73.1362C166.861 73.1362 165.705 73.9887 165.705 75.7448C165.705 77.3233 166.69 78.3173 168.362 78.3173C168.929 78.3173 169.556 78.1999 169.924 78.0613L170.206 79.453V79.45Z" fill="#11A64B"/>
<path d="M173.319 71.7871V74.8175H176.408V71.7871H178.276V79.6703H176.408V76.3718H173.319V79.6703H171.438V71.7871H173.319Z" fill="#11A64B"/>
<path d="M184.838 76.3387H181.788V78.2093H185.196V79.6703H179.906V71.7871H185.022V73.2481H181.788V74.8868H184.838V76.3387Z" fill="#11A64B"/>
<path d="M186.477 71.8931C187.078 71.7998 187.978 71.7305 188.973 71.7305C190.202 71.7305 191.063 71.9052 191.656 72.351C192.147 72.7245 192.419 73.2758 192.419 74.0017C192.419 75.0079 191.668 75.6977 190.956 75.9447V75.9808C191.535 76.2037 191.852 76.7309 192.064 77.4538C192.324 78.3425 192.581 79.3727 192.742 79.6769H190.823C190.686 79.454 190.49 78.8124 190.243 77.8394C190.021 76.8574 189.663 76.5863 188.903 76.5773H188.336V79.6769H186.48V71.8992L186.477 71.8931ZM188.333 75.285H189.071C190.005 75.285 190.56 74.8392 190.56 74.1493C190.56 73.4234 190.043 73.0619 189.182 73.0499C188.726 73.0499 188.469 73.086 188.333 73.1071V75.282V75.285Z" fill="#11A64B"/>
<mask id="path-35-outside-2_30570_18756" maskUnits="userSpaceOnUse" x="138.357" y="77.9277" width="52.8524" height="28.0431" fill="black">
<rect fill="white" x="138.357" y="77.9277" width="52.8524" height="28.0431"/>
<path d="M141.545 85.7854L146.408 85.7647C147.484 85.7601 148.368 85.8774 149.061 86.1167C149.766 86.3438 150.318 86.6503 150.716 87.0361C151.115 87.4098 151.391 87.8325 151.546 88.3042C151.701 88.7638 151.779 89.2176 151.781 89.6657C151.783 90.5013 151.625 91.2044 151.306 91.775C150.987 92.3456 150.45 92.8263 149.695 93.217L152.497 98.7095L149.403 98.7227L147.083 93.864L144.393 93.8755L144.406 98.744L141.581 98.7561L141.545 85.7854ZM146.616 91.6134C147.064 91.6115 147.436 91.5675 147.73 91.4814C148.025 91.3833 148.255 91.2552 148.421 91.097C148.6 90.9267 148.721 90.7263 148.785 90.496C148.848 90.2656 148.879 90.0111 148.879 89.7326C148.878 89.5025 148.839 89.2846 148.762 89.0791C148.684 88.8614 148.549 88.6743 148.356 88.5177C148.177 88.3489 147.92 88.2228 147.587 88.1394C147.266 88.0439 146.856 87.9972 146.356 87.9994L144.377 88.0078L144.387 91.6229L146.616 91.6134Z"/>
<path d="M155.859 95.6795C155.95 96.2362 156.188 96.5986 156.573 96.7665C156.957 96.9344 157.419 97.0172 157.957 97.0149C158.598 97.0122 159.052 96.9376 159.321 96.7911C159.603 96.6324 159.743 96.3836 159.742 96.0445C159.741 95.8022 159.651 95.5907 159.471 95.4098C159.304 95.2288 158.977 95.1031 158.49 95.0325L157.105 94.8204C155.888 94.6439 154.977 94.339 154.374 93.9056C153.783 93.46 153.487 92.7891 153.484 91.8929C153.483 91.4327 153.584 91.0205 153.788 90.6563C154.005 90.292 154.305 89.9819 154.689 89.7259C155.073 89.47 155.527 89.2743 156.052 89.1388C156.59 88.9912 157.179 88.916 157.82 88.9133C158.614 88.9099 159.281 88.9858 159.819 89.1409C160.358 89.2839 160.794 89.4819 161.128 89.7348C161.474 89.9877 161.731 90.2893 161.899 90.6398C162.079 90.9903 162.208 91.3652 162.286 91.7645L159.885 92.0654C159.768 91.6299 159.562 91.3099 159.267 91.1052C158.985 90.9005 158.523 90.7996 157.882 90.8023C157.524 90.8038 157.223 90.8354 156.979 90.897C156.749 90.9464 156.563 91.0138 156.423 91.0992C156.295 91.1845 156.199 91.2818 156.135 91.3911C156.084 91.5003 156.059 91.6034 156.059 91.7002C156.06 92.003 156.157 92.2266 156.349 92.3712C156.555 92.5035 156.946 92.6169 157.523 92.7113L158.792 92.9057C159.497 93.0117 160.08 93.1485 160.542 93.3161C161.003 93.4837 161.369 93.6941 161.639 93.9472C161.921 94.1882 162.114 94.4781 162.218 94.8167C162.334 95.1554 162.393 95.5487 162.394 95.9968C162.396 96.893 162.04 97.6151 161.324 98.1632C160.608 98.6991 159.5 98.9703 158.001 98.9767C157.399 98.9792 156.822 98.9272 156.271 98.8206C155.732 98.726 155.245 98.5524 154.809 98.3C154.385 98.0474 154.032 97.7099 153.749 97.2872C153.479 96.8644 153.323 96.3322 153.283 95.6905L155.859 95.6795Z"/>
<path d="M164.048 95.7354L166.797 95.7237L166.805 98.6485L164.056 98.6602L164.048 95.7354Z"/>
<path d="M172.981 89.0441L170.39 90.5266L169.194 88.6606L173.434 86.0992L175.721 86.0894L175.755 98.6422L173.007 98.654L172.981 89.0441Z"/>
<path d="M184.747 98.9309C183.158 98.9376 181.92 98.4101 181.033 97.3481C180.159 96.286 179.719 94.6166 179.713 92.3398C179.71 91.2014 179.822 90.2199 180.051 89.3954C180.292 88.5587 180.629 87.8669 181.064 87.3201C181.51 86.7732 182.048 86.3713 182.675 86.1142C183.302 85.8451 184.006 85.7089 184.788 85.7056C186.376 85.6988 187.608 86.2325 188.482 87.3066C189.369 88.3686 189.816 90.0319 189.822 92.2967C189.828 94.5735 189.384 96.2467 188.49 97.3163C187.609 98.3858 186.361 98.924 184.747 98.9309ZM184.76 96.7145C185.183 96.7127 185.535 96.6143 185.816 96.4193C186.11 96.2122 186.347 95.9205 186.525 95.5443C186.703 95.156 186.83 94.6953 186.906 94.1621C186.981 93.6168 187.018 92.9989 187.016 92.3086C187.014 91.6183 186.974 91.0069 186.896 90.4743C186.817 89.9297 186.688 89.47 186.507 89.0953C186.327 88.7086 186.089 88.4189 185.794 88.2264C185.512 88.0217 185.159 87.9203 184.736 87.9221C184.313 87.9239 183.961 88.0283 183.68 88.2354C183.399 88.4304 183.169 88.722 182.99 89.1104C182.825 89.4865 182.704 89.9472 182.629 90.4925C182.554 91.0257 182.517 91.6375 182.519 92.3278C182.521 93.0181 182.561 93.6356 182.639 94.1803C182.717 94.7128 182.84 95.1725 183.008 95.5593C183.188 95.934 183.42 96.2237 183.702 96.4284C183.985 96.6209 184.337 96.7163 184.76 96.7145Z"/>
</mask>
<path d="M141.545 85.7854L146.408 85.7647C147.484 85.7601 148.368 85.8774 149.061 86.1167C149.766 86.3438 150.318 86.6503 150.716 87.0361C151.115 87.4098 151.391 87.8325 151.546 88.3042C151.701 88.7638 151.779 89.2176 151.781 89.6657C151.783 90.5013 151.625 91.2044 151.306 91.775C150.987 92.3456 150.45 92.8263 149.695 93.217L152.497 98.7095L149.403 98.7227L147.083 93.864L144.393 93.8755L144.406 98.744L141.581 98.7561L141.545 85.7854ZM146.616 91.6134C147.064 91.6115 147.436 91.5675 147.73 91.4814C148.025 91.3833 148.255 91.2552 148.421 91.097C148.6 90.9267 148.721 90.7263 148.785 90.496C148.848 90.2656 148.879 90.0111 148.879 89.7326C148.878 89.5025 148.839 89.2846 148.762 89.0791C148.684 88.8614 148.549 88.6743 148.356 88.5177C148.177 88.3489 147.92 88.2228 147.587 88.1394C147.266 88.0439 146.856 87.9972 146.356 87.9994L144.377 88.0078L144.387 91.6229L146.616 91.6134Z" fill="#11A64B"/>
<path d="M155.859 95.6795C155.95 96.2362 156.188 96.5986 156.573 96.7665C156.957 96.9344 157.419 97.0172 157.957 97.0149C158.598 97.0122 159.052 96.9376 159.321 96.7911C159.603 96.6324 159.743 96.3836 159.742 96.0445C159.741 95.8022 159.651 95.5907 159.471 95.4098C159.304 95.2288 158.977 95.1031 158.49 95.0325L157.105 94.8204C155.888 94.6439 154.977 94.339 154.374 93.9056C153.783 93.46 153.487 92.7891 153.484 91.8929C153.483 91.4327 153.584 91.0205 153.788 90.6563C154.005 90.292 154.305 89.9819 154.689 89.7259C155.073 89.47 155.527 89.2743 156.052 89.1388C156.59 88.9912 157.179 88.916 157.82 88.9133C158.614 88.9099 159.281 88.9858 159.819 89.1409C160.358 89.2839 160.794 89.4819 161.128 89.7348C161.474 89.9877 161.731 90.2893 161.899 90.6398C162.079 90.9903 162.208 91.3652 162.286 91.7645L159.885 92.0654C159.768 91.6299 159.562 91.3099 159.267 91.1052C158.985 90.9005 158.523 90.7996 157.882 90.8023C157.524 90.8038 157.223 90.8354 156.979 90.897C156.749 90.9464 156.563 91.0138 156.423 91.0992C156.295 91.1845 156.199 91.2818 156.135 91.3911C156.084 91.5003 156.059 91.6034 156.059 91.7002C156.06 92.003 156.157 92.2266 156.349 92.3712C156.555 92.5035 156.946 92.6169 157.523 92.7113L158.792 92.9057C159.497 93.0117 160.08 93.1485 160.542 93.3161C161.003 93.4837 161.369 93.6941 161.639 93.9472C161.921 94.1882 162.114 94.4781 162.218 94.8167C162.334 95.1554 162.393 95.5487 162.394 95.9968C162.396 96.893 162.04 97.6151 161.324 98.1632C160.608 98.6991 159.5 98.9703 158.001 98.9767C157.399 98.9792 156.822 98.9272 156.271 98.8206C155.732 98.726 155.245 98.5524 154.809 98.3C154.385 98.0474 154.032 97.7099 153.749 97.2872C153.479 96.8644 153.323 96.3322 153.283 95.6905L155.859 95.6795Z" fill="#11A64B"/>
<path d="M164.048 95.7354L166.797 95.7237L166.805 98.6485L164.056 98.6602L164.048 95.7354Z" fill="#11A64B"/>
<path d="M172.981 89.0441L170.39 90.5266L169.194 88.6606L173.434 86.0992L175.721 86.0894L175.755 98.6422L173.007 98.654L172.981 89.0441Z" fill="#11A64B"/>
<path d="M184.747 98.9309C183.158 98.9376 181.92 98.4101 181.033 97.3481C180.159 96.286 179.719 94.6166 179.713 92.3398C179.71 91.2014 179.822 90.2199 180.051 89.3954C180.292 88.5587 180.629 87.8669 181.064 87.3201C181.51 86.7732 182.048 86.3713 182.675 86.1142C183.302 85.8451 184.006 85.7089 184.788 85.7056C186.376 85.6988 187.608 86.2325 188.482 87.3066C189.369 88.3686 189.816 90.0319 189.822 92.2967C189.828 94.5735 189.384 96.2467 188.49 97.3163C187.609 98.3858 186.361 98.924 184.747 98.9309ZM184.76 96.7145C185.183 96.7127 185.535 96.6143 185.816 96.4193C186.11 96.2122 186.347 95.9205 186.525 95.5443C186.703 95.156 186.83 94.6953 186.906 94.1621C186.981 93.6168 187.018 92.9989 187.016 92.3086C187.014 91.6183 186.974 91.0069 186.896 90.4743C186.817 89.9297 186.688 89.47 186.507 89.0953C186.327 88.7086 186.089 88.4189 185.794 88.2264C185.512 88.0217 185.159 87.9203 184.736 87.9221C184.313 87.9239 183.961 88.0283 183.68 88.2354C183.399 88.4304 183.169 88.722 182.99 89.1104C182.825 89.4865 182.704 89.9472 182.629 90.4925C182.554 91.0257 182.517 91.6375 182.519 92.3278C182.521 93.0181 182.561 93.6356 182.639 94.1803C182.717 94.7128 182.84 95.1725 183.008 95.5593C183.188 95.934 183.42 96.2237 183.702 96.4284C183.985 96.6209 184.337 96.7163 184.76 96.7145Z" fill="#11A64B"/>
<path d="M141.545 85.7854L146.408 85.7647C147.484 85.7601 148.368 85.8774 149.061 86.1167C149.766 86.3438 150.318 86.6503 150.716 87.0361C151.115 87.4098 151.391 87.8325 151.546 88.3042C151.701 88.7638 151.779 89.2176 151.781 89.6657C151.783 90.5013 151.625 91.2044 151.306 91.775C150.987 92.3456 150.45 92.8263 149.695 93.217L152.497 98.7095L149.403 98.7227L147.083 93.864L144.393 93.8755L144.406 98.744L141.581 98.7561L141.545 85.7854ZM146.616 91.6134C147.064 91.6115 147.436 91.5675 147.73 91.4814C148.025 91.3833 148.255 91.2552 148.421 91.097C148.6 90.9267 148.721 90.7263 148.785 90.496C148.848 90.2656 148.879 90.0111 148.879 89.7326C148.878 89.5025 148.839 89.2846 148.762 89.0791C148.684 88.8614 148.549 88.6743 148.356 88.5177C148.177 88.3489 147.92 88.2228 147.587 88.1394C147.266 88.0439 146.856 87.9972 146.356 87.9994L144.377 88.0078L144.387 91.6229L146.616 91.6134Z" stroke="#11A64B" stroke-width="0.312791" mask="url(#path-35-outside-2_30570_18756)"/>
<path d="M155.859 95.6795C155.95 96.2362 156.188 96.5986 156.573 96.7665C156.957 96.9344 157.419 97.0172 157.957 97.0149C158.598 97.0122 159.052 96.9376 159.321 96.7911C159.603 96.6324 159.743 96.3836 159.742 96.0445C159.741 95.8022 159.651 95.5907 159.471 95.4098C159.304 95.2288 158.977 95.1031 158.49 95.0325L157.105 94.8204C155.888 94.6439 154.977 94.339 154.374 93.9056C153.783 93.46 153.487 92.7891 153.484 91.8929C153.483 91.4327 153.584 91.0205 153.788 90.6563C154.005 90.292 154.305 89.9819 154.689 89.7259C155.073 89.47 155.527 89.2743 156.052 89.1388C156.59 88.9912 157.179 88.916 157.82 88.9133C158.614 88.9099 159.281 88.9858 159.819 89.1409C160.358 89.2839 160.794 89.4819 161.128 89.7348C161.474 89.9877 161.731 90.2893 161.899 90.6398C162.079 90.9903 162.208 91.3652 162.286 91.7645L159.885 92.0654C159.768 91.6299 159.562 91.3099 159.267 91.1052C158.985 90.9005 158.523 90.7996 157.882 90.8023C157.524 90.8038 157.223 90.8354 156.979 90.897C156.749 90.9464 156.563 91.0138 156.423 91.0992C156.295 91.1845 156.199 91.2818 156.135 91.3911C156.084 91.5003 156.059 91.6034 156.059 91.7002C156.06 92.003 156.157 92.2266 156.349 92.3712C156.555 92.5035 156.946 92.6169 157.523 92.7113L158.792 92.9057C159.497 93.0117 160.08 93.1485 160.542 93.3161C161.003 93.4837 161.369 93.6941 161.639 93.9472C161.921 94.1882 162.114 94.4781 162.218 94.8167C162.334 95.1554 162.393 95.5487 162.394 95.9968C162.396 96.893 162.04 97.6151 161.324 98.1632C160.608 98.6991 159.5 98.9703 158.001 98.9767C157.399 98.9792 156.822 98.9272 156.271 98.8206C155.732 98.726 155.245 98.5524 154.809 98.3C154.385 98.0474 154.032 97.7099 153.749 97.2872C153.479 96.8644 153.323 96.3322 153.283 95.6905L155.859 95.6795Z" stroke="#11A64B" stroke-width="0.312791" mask="url(#path-35-outside-2_30570_18756)"/>
<path d="M164.048 95.7354L166.797 95.7237L166.805 98.6485L164.056 98.6602L164.048 95.7354Z" stroke="#11A64B" stroke-width="0.312791" mask="url(#path-35-outside-2_30570_18756)"/>
<path d="M172.981 89.0441L170.39 90.5266L169.194 88.6606L173.434 86.0992L175.721 86.0894L175.755 98.6422L173.007 98.654L172.981 89.0441Z" stroke="#11A64B" stroke-width="0.312791" mask="url(#path-35-outside-2_30570_18756)"/>
<path d="M184.747 98.9309C183.158 98.9376 181.92 98.4101 181.033 97.3481C180.159 96.286 179.719 94.6166 179.713 92.3398C179.71 91.2014 179.822 90.2199 180.051 89.3954C180.292 88.5587 180.629 87.8669 181.064 87.3201C181.51 86.7732 182.048 86.3713 182.675 86.1142C183.302 85.8451 184.006 85.7089 184.788 85.7056C186.376 85.6988 187.608 86.2325 188.482 87.3066C189.369 88.3686 189.816 90.0319 189.822 92.2967C189.828 94.5735 189.384 96.2467 188.49 97.3163C187.609 98.3858 186.361 98.924 184.747 98.9309ZM184.76 96.7145C185.183 96.7127 185.535 96.6143 185.816 96.4193C186.11 96.2122 186.347 95.9205 186.525 95.5443C186.703 95.156 186.83 94.6953 186.906 94.1621C186.981 93.6168 187.018 92.9989 187.016 92.3086C187.014 91.6183 186.974 91.0069 186.896 90.4743C186.817 89.9297 186.688 89.47 186.507 89.0953C186.327 88.7086 186.089 88.4189 185.794 88.2264C185.512 88.0217 185.159 87.9203 184.736 87.9221C184.313 87.9239 183.961 88.0283 183.68 88.2354C183.399 88.4304 183.169 88.722 182.99 89.1104C182.825 89.4865 182.704 89.9472 182.629 90.4925C182.554 91.0257 182.517 91.6375 182.519 92.3278C182.521 93.0181 182.561 93.6356 182.639 94.1803C182.717 94.7128 182.84 95.1725 183.008 95.5593C183.188 95.934 183.42 96.2237 183.702 96.4284C183.985 96.6209 184.337 96.7163 184.76 96.7145Z" stroke="#11A64B" stroke-width="0.312791" mask="url(#path-35-outside-2_30570_18756)"/>
<path d="M133.721 66.2959H132.594V101.679H133.721V66.2959Z" fill="#11A64B"/>
<path d="M125.518 77.0598L123.907 77.0582C123.511 77.0578 123.312 77.2035 123.312 77.5681C123.312 77.714 123.337 77.8841 123.361 77.9815L125.715 77.9838C125.79 77.9839 125.864 78.0569 125.864 78.1298L125.863 78.6891C125.863 78.762 125.789 78.8349 125.714 78.8348L122.964 78.8321C122.865 78.832 122.79 78.759 122.766 78.686C122.642 78.3211 122.568 77.9564 122.569 77.5675C122.57 76.6922 123.041 76.2064 123.908 76.2073L125.742 76.2091C125.816 76.2092 125.891 76.2822 125.891 76.3551L125.89 76.6955C125.89 76.9142 125.716 77.06 125.518 77.0598ZM124.554 74.8706L124.777 74.8952C125.075 74.8955 125.248 74.7011 125.248 74.3851C125.249 74.142 125.175 73.9231 125.051 73.6798C125.051 73.6554 125.026 73.6312 125.026 73.6068C125.026 73.5582 125.051 73.5339 125.076 73.5096C125.101 73.4852 125.175 73.4367 125.175 73.4367C125.25 73.3882 125.349 73.3396 125.423 73.3396C125.547 73.3398 125.671 73.4128 125.72 73.5101C125.869 73.7777 125.943 74.0938 125.942 74.4341C125.942 74.8231 125.842 75.1392 125.644 75.3821C125.421 75.6249 125.123 75.7705 124.751 75.7701L123.785 75.7692C123.017 75.7684 122.546 75.2817 122.547 74.455C122.548 73.6283 122.995 73.1912 123.788 73.192L124.382 73.1926C124.457 73.1927 124.531 73.2657 124.531 73.3386L124.529 74.8703L124.554 74.8706ZM124.009 74.8944L124.01 73.9706L123.762 73.9703C123.465 73.97 123.266 74.1399 123.266 74.4317C123.266 74.7235 123.439 74.8938 123.761 74.8942L124.009 74.8944ZM124.561 68.6949L124.784 68.7195C125.081 68.7198 125.255 68.5255 125.255 68.2095C125.256 67.9664 125.181 67.7475 125.058 67.5041C125.058 67.4798 125.033 67.4555 125.033 67.4312C125.033 67.3826 125.058 67.3582 125.083 67.3339C125.108 67.3096 125.182 67.261 125.182 67.261C125.256 67.2125 125.355 67.1639 125.43 67.164C125.554 67.1641 125.677 67.2372 125.727 67.3344C125.875 67.602 125.949 67.9181 125.949 68.2585C125.949 68.6475 125.849 68.9635 125.651 69.2064C125.427 69.4492 125.13 69.5948 124.758 69.5945L123.792 69.5935C123.023 69.5928 122.553 69.106 122.554 68.2793C122.555 67.4527 123.002 67.0155 123.794 67.0163L124.389 67.0169C124.464 67.017 124.538 67.09 124.538 67.163L124.536 68.6946L124.561 68.6947L124.561 68.6949ZM124.016 68.7187L124.017 67.7949L123.769 67.7946C123.472 67.7943 123.273 67.9643 123.273 68.2561C123.272 68.5479 123.446 68.7182 123.768 68.7185L124.016 68.7187ZM125.883 83.0169L125.884 82.6766C125.884 82.6036 125.809 82.5306 125.735 82.5305L123.901 82.5287C123.059 82.5279 122.563 82.9651 122.562 83.6944C122.562 83.9133 122.611 84.1564 122.66 84.3023L121.743 84.3014C121.545 84.3012 121.371 84.4712 121.371 84.6658L121.371 85.0062C121.371 85.0791 121.445 85.1522 121.519 85.1522L125.732 85.1564C125.807 85.1565 125.881 85.0836 125.881 85.0107L125.882 84.4514C125.882 84.3785 125.808 84.3055 125.733 84.3054L123.404 84.3031C123.354 84.1815 123.33 84.0112 123.33 83.8897C123.33 83.5249 123.504 83.3793 123.925 83.3797L125.536 83.3813C125.71 83.3572 125.883 83.2114 125.883 83.0169L125.883 83.0169ZM123.806 79.3435L124.723 79.3444C125.491 79.3451 125.961 79.8561 125.96 80.7071C125.959 81.5582 125.488 82.0682 124.72 82.0675L123.803 82.0665C123.034 82.0658 122.564 81.5548 122.565 80.7038C122.566 79.8527 123.038 79.3427 123.806 79.3435ZM123.805 80.1944C123.507 80.1941 123.309 80.364 123.309 80.6801C123.308 80.9963 123.481 81.1666 123.804 81.1669L124.721 81.1678C125.018 81.1681 125.192 80.9982 125.192 80.682C125.192 80.3659 125.019 80.1956 124.722 80.1953L123.805 80.1944ZM123.378 85.6159C124.171 85.6167 124.715 86.2007 124.714 86.9788C124.714 87.1732 124.689 87.3435 124.615 87.5135L125.73 87.5146C125.804 87.5147 125.878 87.5877 125.878 87.6607L125.878 88.2199C125.878 88.2929 125.803 88.3657 125.729 88.3657L121.788 88.3617C121.689 88.3616 121.615 88.2886 121.59 88.2157C121.467 87.8508 121.393 87.4861 121.393 87.0971C121.394 86.2219 121.94 85.6146 122.783 85.6154C122.783 85.6153 123.377 85.6159 123.377 85.6159L123.378 85.6159ZM122.732 86.4905C122.336 86.4901 122.137 86.7573 122.137 87.1221C122.137 87.3409 122.211 87.4869 122.211 87.4869L123.846 87.4885C123.921 87.3427 123.946 87.2698 123.946 87.0997C123.946 86.7349 123.724 86.4673 123.352 86.4669L122.732 86.4663L122.732 86.4905L122.732 86.4905ZM123.395 69.9093C124.188 69.9101 124.732 70.4941 124.732 71.2722C124.731 71.4666 124.706 71.6369 124.632 71.8069L125.747 71.808C125.821 71.8081 125.896 71.8811 125.895 71.9541L125.895 72.5133C125.895 72.5863 125.82 72.6591 125.746 72.6591L121.806 72.6552C121.707 72.6551 121.632 72.582 121.608 72.5091C121.484 72.1442 121.41 71.7795 121.411 71.3905C121.412 70.5153 121.957 69.908 122.8 69.9088C122.8 69.9087 123.395 69.9093 123.395 69.9093L123.395 69.9093ZM122.75 70.7839C122.353 70.7835 122.155 71.0507 122.154 71.4155C122.154 71.6343 122.228 71.7803 122.228 71.7803L123.864 71.7819C123.938 71.6361 123.963 71.5632 123.963 71.3931C123.964 71.0283 123.741 70.7607 123.369 70.7603L122.75 70.7597L122.75 70.7839L122.75 70.7839Z" fill="#5F259F"/>
<path d="M127.533 94.68C127.535 92.2724 125.485 90.3186 122.953 90.316C120.421 90.3135 118.367 92.2633 118.364 94.6709C118.362 97.0785 120.412 99.0323 122.944 99.0348C125.475 99.0373 127.53 97.0876 127.533 94.68Z" fill="#5F259F"/>
<path d="M121.75 92.7197C121.571 92.7196 121.417 92.8627 121.416 93.0297L121.416 93.6027L119.8 94.9142C119.646 95.0334 119.595 95.2243 119.646 95.4153L119.799 95.8691C119.825 95.9407 119.927 95.9648 119.978 95.917L121.44 94.486L121.438 96.6588C121.438 96.7305 121.489 96.7782 121.566 96.7783L121.822 96.7786C122.002 96.7787 122.156 96.6356 122.156 96.4685L122.156 96.1343L123.386 96.1355C124.309 96.1364 124.847 95.6834 124.848 94.9193C124.848 94.6806 124.823 94.4895 124.721 94.2507L125.541 94.2515C125.771 94.2517 125.951 94.0848 125.951 93.8699L125.952 93.5357C125.952 93.464 125.875 93.3923 125.798 93.3923L122.133 93.3886L122.134 92.8395C122.134 92.7678 122.083 92.7201 122.006 92.72L121.75 92.7197L121.75 92.7197ZM123.952 94.2499C124.029 94.3933 124.054 94.5843 124.054 94.7275C124.054 95.1095 123.848 95.3003 123.387 95.2998L122.157 95.2986L122.158 94.2481L123.952 94.2499Z" fill="white"/>
</g>
</svg>
