<svg width="14" height="14" viewBox="0 0 14 14" fill="none" xmlns="http://www.w3.org/2000/svg">
<path d="M9.76743 13.3333H1.08527C0.797546 13.333 0.521706 13.2185 0.318254 13.0151C0.114802 12.8116 0.000349564 12.5358 0 12.248V1.08527C0.000349564 0.797546 0.114802 0.521706 0.318254 0.318254C0.521706 0.114802 0.797546 0.000349564 1.08527 0H9.76743C10.0552 0.000349564 10.331 0.114802 10.5344 0.318254C10.7379 0.521706 10.8524 0.797546 10.8527 1.08527V7.90697C10.8527 8.03033 10.8037 8.14863 10.7165 8.23586C10.6292 8.32308 10.5109 8.37208 10.3876 8.37208C10.2642 8.37208 10.1459 8.32308 10.0587 8.23586C9.97147 8.14863 9.92247 8.03033 9.92247 7.90697V1.08527C9.92199 1.0443 9.9055 1.00515 9.87653 0.976175C9.84755 0.947204 9.8084 0.930715 9.76743 0.930232H1.08527C1.0443 0.930715 1.00515 0.947204 0.976175 0.976175C0.947204 1.00515 0.930715 1.0443 0.930232 1.08527V12.248C0.930715 12.289 0.947204 12.3282 0.976175 12.3571C1.00515 12.3861 1.0443 12.4026 1.08527 12.4031H9.76743C9.88397 12.3567 10.014 12.3577 10.1298 12.4057C10.2457 12.4537 10.3383 12.545 10.3879 12.6602C10.412 12.7156 10.4249 12.7753 10.4257 12.8358C10.4265 12.8963 10.4153 12.9564 10.3927 13.0125C10.37 13.0686 10.3365 13.1196 10.2939 13.1626C10.2513 13.2055 10.2006 13.2396 10.1447 13.2628C10.0247 13.3103 9.89656 13.3342 9.76743 13.3333Z" fill="black"/>
<path d="M8.21838 3.4107H2.63699C2.51363 3.4107 2.39533 3.3617 2.3081 3.27447C2.22088 3.18725 2.17188 3.06894 2.17188 2.94558C2.17188 2.82223 2.22088 2.70392 2.3081 2.6167C2.39533 2.52947 2.51363 2.48047 2.63699 2.48047H8.21838C8.34174 2.48047 8.46004 2.52947 8.54727 2.6167C8.63449 2.70392 8.6835 2.82223 8.6835 2.94558C8.6835 3.06894 8.63449 3.18725 8.54727 3.27447C8.46004 3.3617 8.34174 3.4107 8.21838 3.4107Z" fill="black"/>
<path d="M8.21838 5.89117H2.63699C2.51363 5.89117 2.39533 5.84217 2.3081 5.75494C2.22088 5.66771 2.17188 5.54941 2.17188 5.42605C2.17188 5.3027 2.22088 5.18439 2.3081 5.09717C2.39533 5.00994 2.51363 4.96094 2.63699 4.96094H8.21838C8.34174 4.96094 8.46004 5.00994 8.54727 5.09717C8.63449 5.18439 8.6835 5.3027 8.6835 5.42605C8.6835 5.54941 8.63449 5.66771 8.54727 5.75494C8.46004 5.84217 8.34174 5.89117 8.21838 5.89117Z" fill="black"/>
<path d="M6.66799 8.37164H2.63699C2.51363 8.37164 2.39533 8.32263 2.3081 8.23541C2.22088 8.14818 2.17188 8.02988 2.17188 7.90652C2.17188 7.78317 2.22088 7.66486 2.3081 7.57764C2.39533 7.49041 2.51363 7.44141 2.63699 7.44141H6.66799C6.79135 7.44141 6.90965 7.49041 6.99688 7.57764C7.08411 7.66486 7.13311 7.78317 7.13311 7.90652C7.13311 8.02988 7.08411 8.14818 6.99688 8.23541C6.90965 8.32263 6.79135 8.37164 6.66799 8.37164Z" fill="black"/>
<path d="M6.04784 10.8521H2.63699C2.51363 10.8521 2.39533 10.8031 2.3081 10.7159C2.22088 10.6287 2.17188 10.5103 2.17188 10.387C2.17188 10.2636 2.22088 10.1453 2.3081 10.0581C2.39533 9.97088 2.51363 9.92188 2.63699 9.92188H6.04784C6.1712 9.92188 6.2895 9.97088 6.37673 10.0581C6.46395 10.1453 6.51296 10.2636 6.51296 10.387C6.51296 10.5103 6.46395 10.6287 6.37673 10.7159C6.2895 10.8031 6.1712 10.8521 6.04784 10.8521Z" fill="black"/>
<path d="M10.3871 13.3329C9.80453 13.3329 9.235 13.1601 8.75058 12.8364C8.26616 12.5127 7.88859 12.0527 7.66564 11.5144C7.44268 10.9762 7.38435 10.3839 7.49801 9.81246C7.61167 9.24104 7.89222 8.71616 8.30419 8.30419C8.71616 7.89222 9.24104 7.61167 9.81246 7.49801C10.3839 7.38435 10.9762 7.44268 11.5144 7.66564C12.0527 7.88859 12.5127 8.26616 12.8364 8.75058C13.1601 9.235 13.3329 9.80453 13.3329 10.3871C13.332 11.1681 13.0213 11.9169 12.4691 12.4691C11.9169 13.0213 11.1681 13.332 10.3871 13.3329ZM10.3871 8.37164C9.98851 8.37164 9.59884 8.48985 9.26739 8.71131C8.93594 8.93278 8.67761 9.24756 8.52506 9.61584C8.37251 9.98413 8.3326 10.3894 8.41037 10.7803C8.48813 11.1713 8.68009 11.5304 8.96197 11.8123C9.24384 12.0942 9.60297 12.2861 9.99394 12.3639C10.3849 12.4417 10.7902 12.4018 11.1584 12.2492C11.5267 12.0967 11.8415 11.8383 12.063 11.5069C12.2844 11.1754 12.4026 10.7858 12.4026 10.3871C12.402 9.85279 12.1895 9.3405 11.8116 8.96265C11.4338 8.5848 10.9215 8.37226 10.3871 8.37164Z" fill="black"/>
<path d="M10.0767 11.474C10.0156 11.4741 9.95506 11.4621 9.89863 11.4387C9.84219 11.4153 9.79094 11.381 9.7478 11.3377L9.12765 10.7176C9.08421 10.6744 9.0497 10.6232 9.02612 10.5667C9.00254 10.5102 8.99035 10.4496 8.99024 10.3884C8.99012 10.3271 9.0021 10.2665 9.02547 10.2099C9.04885 10.1534 9.08316 10.1019 9.12645 10.0587C9.16974 10.0154 9.22114 9.98106 9.27772 9.95769C9.3343 9.93431 9.39493 9.92234 9.45615 9.92245C9.51736 9.92256 9.57795 9.93475 9.63445 9.95834C9.69094 9.98192 9.74222 10.0164 9.78535 10.0599L10.0767 10.3512L10.9881 9.43971C11.0754 9.35302 11.1936 9.30446 11.3166 9.30469C11.4397 9.30491 11.5576 9.35389 11.6446 9.4409C11.7316 9.52791 11.7806 9.64586 11.7808 9.76891C11.7811 9.89196 11.7325 10.0101 11.6458 10.0974L10.4055 11.3377C10.3624 11.381 10.3111 11.4153 10.2547 11.4387C10.1982 11.4621 10.1377 11.4741 10.0767 11.474Z" fill="black"/>
</svg>
