<svg width="22" height="23" viewBox="0 0 22 23" fill="none" xmlns="http://www.w3.org/2000/svg">
<path d="M20.2555 5.25718H22.002V0H16.7537V1.75538H20.2555V5.25718Z" fill="white"/>
<path d="M16.7537 22.0111H22.002V16.7539H20.2555V20.2557H16.7537V22.0111Z" fill="white"/>
<path d="M0.000637531 22.0111H5.25781V20.2557H1.75601V16.7539H0.000637531V22.0111Z" fill="white"/>
<path d="M0.000637531 5.25718H1.75601V1.75538H5.25781V0H0.000637531V5.25718Z" fill="white"/>
<path d="M11.1169 12.4643C9.33326 12.4643 7.88281 11.0139 7.88281 9.2302C7.88281 7.44654 9.33326 5.99609 11.1169 5.99609C12.9006 5.99609 14.351 7.44654 14.351 9.2302C14.351 11.0139 12.9006 12.4643 11.1169 12.4643ZM11.1169 6.78012C9.76447 6.78012 8.66684 7.87775 8.66684 9.2302C8.66684 10.5826 9.76447 11.6803 11.1169 11.6803C12.4694 11.6803 13.567 10.5826 13.567 9.2302C13.567 7.87775 12.4694 6.78012 11.1169 6.78012Z" fill="white" stroke="white" stroke-width="0.5"/>
<path d="M11.1147 18.6982C6.93981 18.6982 3.5293 15.3073 3.5293 11.1128C3.5293 6.91825 6.93981 3.52734 11.1147 3.52734C15.2897 3.52734 18.7002 6.93785 18.7002 11.1128C18.7002 15.2877 15.2897 18.6982 11.1147 18.6982ZM11.1147 4.31137C7.37102 4.31137 4.31332 7.36907 4.31332 11.1128C4.31332 14.8565 7.37102 17.9142 11.1147 17.9142C14.8585 17.9142 17.9162 14.8565 17.9162 11.1128C17.9162 7.36907 14.8585 4.31137 11.1147 4.31137Z" fill="white" stroke="white" stroke-width="0.5"/>
<path d="M6.34995 16.4083L5.70312 15.9771C6.89876 14.1543 8.93723 13.0566 11.1129 13.0566C13.269 13.0566 15.2878 14.1347 16.4835 15.9183L15.8366 16.3495C14.7782 14.7815 13.0142 13.8407 11.1129 13.8407C9.19204 13.8407 7.40838 14.8011 6.34995 16.4083Z" fill="white" stroke="white" stroke-width="0.5"/>
</svg>
