<svg width="67" height="63" viewBox="0 0 67 63" fill="none" xmlns="http://www.w3.org/2000/svg">
<path d="M44.1148 17.8123H44.1391M53.2398 17.8123H53.2641M63.9099 17.1523C63.9099 25.1884 57.0997 31.7036 48.7016 31.7036C47.7121 31.7036 46.7316 31.6124 45.7603 31.4299C45.0607 31.2991 44.711 31.2352 44.4676 31.2717C44.2243 31.3082 43.8775 31.4907 43.1901 31.8588C41.222 32.9078 38.957 33.2604 36.7631 32.8595C37.6017 31.8233 38.1702 30.5953 38.4177 29.2855C38.5698 28.4795 38.1927 27.6978 37.6269 27.1259C34.9873 24.4769 33.5015 20.892 33.4933 17.1523C33.4933 9.11925 40.3036 2.604 48.7016 2.604C57.0997 2.604 63.9099 9.11925 63.9099 17.1523ZM19.8119 60.3957H11.3439C10.3614 60.3957 9.37287 60.2557 8.46949 59.8695C5.53124 58.6072 4.03779 56.9373 3.34429 55.894C3.15607 55.605 3.0636 55.2641 3.07998 54.9196C3.09636 54.5751 3.22075 54.2445 3.43554 53.9747C6.8422 49.4487 14.7505 46.7173 19.8271 46.7173C24.9006 46.7173 32.7967 49.4487 36.2034 53.9747C36.6323 54.5435 36.6901 55.3009 36.2947 55.894C35.5981 56.9373 34.1047 58.6072 31.1664 59.8695C30.2535 60.2368 29.2758 60.4158 28.292 60.3957H19.8119ZM28.2799 30.858C28.2783 31.9669 28.0583 33.0645 27.6325 34.0884C27.2067 35.1122 26.5834 36.0421 25.7982 36.8251C25.013 37.608 24.0813 38.2286 23.0562 38.6515C22.0312 39.0743 20.9329 39.2911 19.824 39.2895C17.5857 39.2912 15.4383 38.4039 13.8538 36.8229C12.2694 35.2419 11.3775 33.0964 11.3743 30.858C11.3755 29.7492 11.5951 28.6515 12.0205 27.6275C12.446 26.6035 13.0689 25.6734 13.8538 24.8901C14.6387 24.1069 15.5702 23.486 16.5951 23.0627C17.62 22.6395 18.7182 22.4223 19.8271 22.4235C20.9359 22.4223 22.0341 22.6395 23.059 23.0627C24.0839 23.486 25.0154 24.1069 25.8003 24.8901C26.5852 25.6734 27.2082 26.6035 27.6336 27.6275C28.0591 28.6515 28.2787 29.7492 28.2799 30.858Z" stroke="white" stroke-width="4.5625" stroke-linecap="round" stroke-linejoin="round"/>
</svg>
