<svg width="24" height="23" viewBox="0 0 24 23" fill="none" xmlns="http://www.w3.org/2000/svg">
<path d="M10.4687 11.6252C10.4687 9.60136 9.31411 7.84223 7.62905 6.97162C8.54339 6.25753 9.13294 5.14594 9.13294 3.89855C9.13294 1.74886 7.38403 0 5.23439 0C3.08475 0 1.33584 1.74891 1.33584 3.89855C1.33584 5.14594 1.92539 6.25753 2.83973 6.97162C1.15463 7.84223 0 9.60136 0 11.6252V12.3284H10.4687V11.6252ZM1.47098 10.9221C1.80206 9.14597 3.3637 7.79714 5.23439 7.79714C7.10508 7.79714 8.66667 9.14602 8.9978 10.9221H1.47098ZM2.74205 3.89855C2.74205 2.52427 3.86011 1.40625 5.23434 1.40625C6.60858 1.40625 7.72664 2.52431 7.72664 3.89855C7.72664 5.27278 6.60858 6.39084 5.23434 6.39084C3.86011 6.39084 2.74205 5.27283 2.74205 3.89855Z" fill="white"/>
<path d="M19.8665 15.0653C21.2533 14.1582 22.1716 12.5916 22.1716 10.8144C22.1716 8.01542 19.8945 5.73828 17.0955 5.73828C14.2966 5.73828 12.0194 8.01542 12.0194 10.8144C12.0194 12.5916 12.9378 14.1582 14.3247 15.0653C11.8934 16.1349 10.1914 18.5664 10.1914 21.3883V22.0915H23.9997V21.3883C23.9997 18.5664 22.2977 16.1349 19.8665 15.0653ZM11.6424 20.6852C11.9886 17.9844 14.3021 15.8905 17.0955 15.8905C19.889 15.8905 22.2025 17.9845 22.5487 20.6852H11.6424ZM20.7654 10.8144C20.7654 12.8379 19.1191 14.4842 17.0955 14.4842C15.072 14.4842 13.4257 12.8379 13.4257 10.8144C13.4257 8.79083 15.072 7.14453 17.0955 7.14453C19.1191 7.14453 20.7654 8.79083 20.7654 10.8144Z" fill="white"/>
<path d="M5.68556 16.9275L6.58036 17.8223H1.40625V13.7773H0V19.2285H6.58036L5.68556 20.1234L6.67992 21.1177L9.27225 18.5254L6.67992 15.9331L5.68556 16.9275Z" fill="white"/>
</svg>
