<svg width="319" height="122" viewBox="0 0 319 122" fill="none" xmlns="http://www.w3.org/2000/svg">
<rect y="0.574219" width="319" height="121" rx="4" fill="#11A64B"/>
<mask id="mask0_31298_39512" style="mask-type:alpha" maskUnits="userSpaceOnUse" x="24" y="0" width="272" height="122">
<rect x="24.8594" y="0.574219" width="270.286" height="121" rx="4" fill="#11A64B"/>
</mask>
<g mask="url(#mask0_31298_39512)">
<path d="M157.51 171.629C220.929 171.629 272.341 122.38 272.341 61.629C272.341 0.877693 220.929 -48.3711 157.51 -48.3711C94.091 -48.3711 42.6797 0.877693 42.6797 61.629C42.6797 122.38 94.091 171.629 157.51 171.629Z" fill="black" fill-opacity="0.15"/>
<ellipse cx="153.76" cy="109.686" rx="71.7603" ry="4.74884" fill="#257142"/>
<path d="M184.097 12.1853L184.571 11.7706L182.91 9.85137C179.491 12.8445 174.569 12.2588 171.596 8.82201L101.018 70.6006C103.991 74.0373 103.888 79.0216 100.468 82.0147L102.129 83.9339L102.603 83.5192C103.198 82.9976 104.098 83.06 104.616 83.6589C105.134 84.2577 105.071 85.1621 104.475 85.6837L104.001 86.0984L105.649 88.0032L106.123 87.5884C106.719 87.0669 107.618 87.1293 108.136 87.7282C108.654 88.327 108.591 89.2314 107.996 89.753L107.522 90.1677L109.357 92.2889C110.714 91.1013 112.767 91.2438 113.947 92.6074C115.126 93.9711 114.983 96.0363 113.626 97.224L115.499 99.3885L115.973 98.9737C116.568 98.4522 117.468 98.5146 117.986 99.1134C118.504 99.7123 118.441 100.617 117.845 101.138L117.371 101.553L119.019 103.458L119.493 103.043C120.089 102.521 120.988 102.584 121.506 103.183C122.024 103.782 121.961 104.686 121.366 105.208L120.892 105.622L122.515 107.498C125.934 104.505 130.856 105.091 133.829 108.527L204.41 46.7468C201.436 43.3101 201.54 38.3258 204.959 35.3327L203.336 33.4568L202.862 33.8715C202.267 34.3931 201.367 34.3307 200.849 33.7318C200.331 33.133 200.394 32.2285 200.99 31.707L201.464 31.2923L199.816 29.3875L199.342 29.8022C198.746 30.3238 197.847 30.2614 197.329 29.6625C196.811 29.0637 196.874 28.1593 197.469 27.6377L197.943 27.223L196.071 25.0585C194.714 26.2461 192.661 26.1036 191.481 24.74C190.301 23.3763 190.445 21.3111 191.801 20.1235L189.966 18.0022L189.492 18.417C188.897 18.9385 187.024 16.774 187.62 16.2525L188.094 15.8377L186.446 13.933L185.972 14.3477C185.376 14.8692 184.477 14.8068 183.959 14.208C183.441 13.6091 183.504 12.7047 184.099 12.1832L184.097 12.1853Z" fill="#FFE200"/>
<path d="M168.375 16.6668L109.187 68.476C107.375 70.062 107.183 72.8239 108.759 74.645L130.918 100.259C132.493 102.08 135.239 102.27 137.051 100.684L196.239 48.875C198.051 47.289 198.243 44.5271 196.668 42.7061L174.509 17.0925C172.933 15.2714 170.187 15.0809 168.375 16.6668Z" fill="white"/>
<path d="M125.115 56.993L124.438 57.5859L150.279 87.4546L150.956 86.8617L125.115 56.993Z" fill="#11A64B"/>
<path d="M137.963 91.8541L139.375 90.6182L138.187 89.2447L136.775 90.4807L136.055 89.6484L139.726 86.435L140.446 87.2673L138.909 88.6121L140.097 89.9855L141.634 88.6407L142.358 89.4777L138.687 92.6911L137.963 91.8541Z" fill="#11A64B"/>
<path d="M134.698 88.0815L136.811 86.2318C137.443 85.6788 137.555 85.1576 137.185 84.7295C136.814 84.3013 136.294 84.3172 135.646 84.8849L133.532 86.7346L132.812 85.9023L134.873 84.0987C136.007 83.1058 137.043 83.2094 137.878 84.1739C138.712 85.1384 138.645 86.1014 137.475 87.1257L135.426 88.9189L134.702 88.0818L134.698 88.0815Z" fill="#11A64B"/>
<path d="M132.236 85.1362C131.96 84.9045 131.581 84.5346 131.198 84.092C130.724 83.5436 130.474 83.09 130.456 82.6456C130.441 82.2738 130.593 81.9294 130.931 81.634C131.4 81.2234 132.009 81.2771 132.399 81.494L132.416 81.4793C132.296 81.1319 132.42 80.7742 132.676 80.3851C132.99 79.9072 133.369 79.3728 133.452 79.1774L134.191 80.0313C134.14 80.1815 133.918 80.5323 133.559 81.0364C133.187 81.5352 133.198 81.8049 133.486 82.1483L133.705 82.4008L135.148 81.1377L135.864 81.9651L132.241 85.1365L132.236 85.1362ZM133.1 82.9263L132.815 82.5968C132.455 82.1806 132.034 82.1176 131.714 82.3983C131.376 82.6936 131.406 83.0732 131.732 83.4599C131.907 83.6619 132.024 83.7627 132.085 83.8144L133.097 82.9284L133.1 82.9263Z" fill="#11A64B"/>
<path d="M129.431 81.8901C129.155 81.6584 128.776 81.2885 128.394 80.8459C127.919 80.2975 127.67 79.8439 127.651 79.3995C127.636 79.0277 127.788 78.6833 128.126 78.3879C128.595 77.9773 129.205 78.031 129.594 78.2479L129.611 78.2333C129.491 77.8858 129.615 77.5281 129.871 77.139C130.185 76.6611 130.564 76.1267 130.647 75.9313L131.386 76.7852C131.335 76.9354 131.113 77.2862 130.754 77.7904C130.383 78.2891 130.393 78.5588 130.682 78.9022L130.9 79.1547L132.343 77.8916L133.059 78.719L129.436 81.8904L129.431 81.8901ZM130.295 79.6802L130.01 79.3507C129.65 78.9346 129.23 78.8715 128.909 79.1522C128.572 79.4475 128.601 79.8271 128.927 80.2138C129.102 80.4158 129.219 80.5166 129.28 80.5683L130.293 79.6823L130.295 79.6802Z" fill="#11A64B"/>
<path d="M129.59 74.7202L128.087 76.0357L126.928 79.1002L126.104 78.1477L126.661 76.9971C126.829 76.647 126.959 76.3983 127.119 76.0974L127.108 76.0854C126.808 76.2047 126.52 76.3 126.164 76.4222L124.958 76.8224L124.148 75.8867L127.341 75.2266L128.873 73.8859L129.593 74.7181L129.59 74.7202Z" fill="#11A64B"/>
<path d="M122.127 73.5425L124.241 71.6928C124.872 71.1398 124.985 70.6185 124.615 70.1904C124.244 69.7623 123.724 69.7781 123.075 70.3458L120.962 72.1955L120.242 71.3633L122.303 69.5597C123.437 68.5668 124.473 68.6703 125.307 69.6348C126.142 70.5993 126.075 71.5623 124.905 72.5867L122.856 74.3798L122.132 73.5428L122.127 73.5425Z" fill="#11A64B"/>
<path d="M119.659 70.5991C119.393 70.3795 119.047 70.048 118.606 69.5381C118.165 69.0282 117.941 68.5695 117.925 68.1524C117.905 67.7554 118.074 67.3286 118.433 67.0143C118.792 66.7001 119.202 66.5523 119.597 66.591C120.111 66.6402 120.597 66.9588 121.023 67.4519C121.119 67.5625 121.2 67.6653 121.252 67.7503L122.566 66.6003L123.282 67.4277L119.659 70.5991ZM120.611 68.3117C120.565 68.2249 120.495 68.1341 120.391 68.0139C120.008 67.5713 119.548 67.4919 119.173 67.8208C118.835 68.1161 118.838 68.5278 119.198 68.9439C119.346 69.1147 119.46 69.2131 119.529 69.2585L120.613 68.3096L120.611 68.3117Z" fill="#11A64B"/>
<path d="M119.277 65.2392L116.918 67.5235L116.165 66.653L118.736 64.6139L119.277 65.2392ZM120.201 64.7472C119.911 65.0007 119.531 64.9788 119.279 64.6878C119.027 64.3968 119.071 64.0246 119.352 63.7661C119.634 63.519 120.014 63.5249 120.27 63.8207C120.526 64.1165 120.483 64.5001 120.201 64.7472Z" fill="#11A64B"/>
<path d="M134.197 58.5312L136.963 60.2973C137.826 60.8496 138.634 61.3794 139.447 62.011L139.774 62.2645L140.414 61.6931L140.213 61.3397C139.84 60.6822 139.494 60.0109 139.169 59.3399L138.852 58.6701L137.45 55.6344L138.146 55.0137L141.146 62.1513L140.049 63.1295L133.452 59.1961L134.197 58.5312Z" fill="#109D47" stroke="#0E9C45"/>
<path d="M141.902 51.4791C142.715 50.7536 143.629 50.5024 144.499 50.6062C145.322 50.7046 146.136 51.1251 146.803 51.8214L146.93 51.9665C147.766 52.9141 148.119 53.8909 148.088 54.7821C148.057 55.6703 147.643 56.5378 146.823 57.2696C146.017 57.988 145.119 58.2397 144.259 58.1347C143.391 58.0287 142.52 57.5525 141.803 56.739C141.049 55.883 140.682 54.9171 140.693 54.0054C140.703 53.1 141.085 52.2078 141.902 51.4791ZM142.191 51.8843C141.572 52.4361 141.348 53.1685 141.447 53.9244C141.543 54.6589 141.938 55.3977 142.515 56.0526C143.102 56.7179 143.789 57.1849 144.503 57.3508C145.235 57.5207 145.97 57.3664 146.569 56.8325C147.177 56.2905 147.395 55.5581 147.298 54.8061C147.204 54.0723 146.815 53.3287 146.235 52.6712C145.694 52.0569 145.02 51.5877 144.31 51.4025C143.584 51.2129 142.818 51.3254 142.191 51.8843Z" fill="#109D47" stroke="#0E9C45"/>
<path d="M146.888 47.2145L149.727 50.4349C150.233 51.0098 150.777 51.4087 151.35 51.5426C151.955 51.6841 152.519 51.5129 152.986 51.0963C153.445 50.6869 153.7 50.1533 153.644 49.5283C153.591 48.935 153.264 48.3364 152.743 47.7453L149.904 44.5248L150.559 43.9411L153.315 47.0685C154.113 47.9736 154.419 48.7812 154.394 49.477C154.37 50.1671 154.016 50.8539 153.275 51.5154C152.528 52.1807 151.849 52.4301 151.206 52.3582C150.548 52.2847 149.804 51.8626 148.967 50.9124L146.227 47.804L146.888 47.2145Z" fill="#109D47" stroke="#0E9C45"/>
<path d="M155.16 39.6586C155.625 39.2442 156.055 38.9762 156.367 38.825L156.62 39.3211C156.298 39.4818 155.947 39.7052 155.597 40.0179C154.966 40.5807 154.538 41.304 154.471 42.1204C154.404 42.9431 154.709 43.7839 155.393 44.5603C156.009 45.259 156.755 45.6855 157.565 45.7461C158.379 45.807 159.178 45.4931 159.884 44.8635C160.178 44.6015 160.457 44.2813 160.676 43.9759L161.083 44.291C160.883 44.5967 160.54 45.023 160.038 45.4715C159.043 46.3583 158.06 46.6826 157.182 46.6216C156.3 46.5602 155.45 46.1046 154.734 45.2922C153.878 44.3218 153.581 43.2926 153.682 42.3366C153.783 41.3721 154.297 40.4287 155.16 39.6586Z" fill="#109D47" stroke="#0E9C45"/>
<path d="M158.665 36.7119L160.781 39.1126L163.841 36.3832L161.725 33.9826L162.38 33.3989L167.222 38.8933L166.568 39.477L164.265 36.8638L161.204 39.5931L163.507 42.2063L162.843 42.7984L158.001 37.304L158.665 36.7119Z" fill="#109D47" stroke="#0E9C45"/>
<path d="M167.432 28.8905L167.791 29.2978L165.367 31.459L167.173 33.5073L169.459 31.469L169.811 31.869L167.525 33.9073L169.492 36.1388L172.047 33.8606L172.406 34.2679L169.187 37.1383L164.344 31.6439L167.432 28.8905Z" fill="#109D47" stroke="#0E9C45"/>
<path d="M170.725 25.8745C171.622 25.0744 172.282 24.7327 172.862 24.6986L172.863 24.6994C173.321 24.6759 173.769 24.8518 174.19 25.3286C174.72 25.9307 174.672 26.74 174.384 27.2745L174.218 27.5823L174.698 28.1266L175.014 28.0131C175.333 27.8995 175.702 27.9602 176.21 28.2501L176.436 28.3886C176.849 28.6573 177.257 28.9349 177.645 29.1897C177.735 29.2492 177.828 29.3061 177.917 29.3628L177.246 29.9608C177.17 29.9175 177.074 29.8639 176.961 29.7931C176.682 29.6191 176.325 29.379 175.896 29.0783C175.452 28.7519 175.026 28.5275 174.582 28.5124C174.108 28.4963 173.73 28.7196 173.4 29.0068L172.597 29.7224L174.761 32.1773L174.116 32.7525L169.3 27.2889C169.663 26.8804 170.157 26.3815 170.725 25.8745ZM171.142 26.03C170.776 26.3561 170.59 26.5769 170.489 26.7012L170.222 27.0313L172.354 29.4504L173.28 28.6242C173.688 28.2601 173.968 27.8268 174.046 27.3541C174.125 26.8665 173.977 26.3993 173.645 26.0222C173.311 25.6431 172.887 25.4297 172.406 25.451C171.948 25.4714 171.521 25.7016 171.147 26.0255L171.142 26.03Z" fill="#109D47" stroke="#0E9C45"/>
<mask id="path-23-outside-1_31298_39512" maskUnits="userSpaceOnUse" x="146.393" y="35.2521" width="37.8408" height="40.9951" fill="black">
<rect fill="white" x="146.393" y="35.2521" width="37.8408" height="40.9951"/>
<path d="M148.786 64.0399L151.512 61.5866C152.116 61.0436 152.675 60.6694 153.19 60.4642C153.707 60.2454 154.178 60.1509 154.605 60.1807C155.025 60.2033 155.403 60.3161 155.737 60.519C156.066 60.7148 156.348 60.9458 156.584 61.212C157.024 61.7084 157.303 62.2064 157.423 62.7061C157.543 63.2059 157.493 63.7615 157.273 64.3731L161.733 66.2367L159.998 67.7979L156.143 66.0696L154.634 67.4271L157.196 70.3191L155.612 71.7445L148.786 64.0399ZM154.698 64.9642C154.95 64.738 155.136 64.5253 155.256 64.3263C155.371 64.1201 155.433 63.9282 155.444 63.7506C155.455 63.5594 155.418 63.3793 155.333 63.2103C155.248 63.0413 155.132 62.874 154.985 62.7086C154.864 62.5719 154.728 62.4618 154.576 62.3783C154.419 62.2876 154.244 62.244 154.054 62.2474C153.864 62.2372 153.653 62.291 153.422 62.4087C153.191 62.5127 152.936 62.6908 152.656 62.9429L151.546 63.9417L153.448 66.0891L154.698 64.9642Z"/>
<path d="M162.035 62.7454C162.379 63.0311 162.703 63.1273 163.008 63.0341C163.312 62.9409 163.616 62.7585 163.917 62.487C164.276 62.1638 164.493 61.8911 164.568 61.669C164.643 61.4333 164.591 61.2147 164.413 61.0133C164.285 60.8694 164.123 60.7888 163.927 60.7714C163.738 60.7475 163.488 60.8368 163.177 61.0393L162.286 61.608C161.508 62.1142 160.836 62.3897 160.268 62.4346C159.702 62.4658 159.183 62.2152 158.712 61.6828C158.469 61.4095 158.31 61.1132 158.234 60.7939C158.165 60.4682 158.171 60.1329 158.253 59.7878C158.334 59.4428 158.487 59.0982 158.712 58.7541C158.937 58.3962 159.229 58.0557 159.589 57.7325C160.034 57.3317 160.449 57.0423 160.834 56.8643C161.212 56.6791 161.561 56.578 161.882 56.561C162.21 56.5375 162.513 56.5881 162.791 56.7127C163.076 56.8308 163.346 56.9892 163.599 57.1878L162.405 58.5725C162.111 58.3717 161.827 58.2845 161.554 58.3109C161.287 58.3308 160.974 58.5024 160.615 58.8256C160.414 59.0066 160.261 59.1765 160.157 59.3353C160.053 59.4805 159.984 59.6138 159.949 59.7352C159.922 59.8502 159.919 59.9563 159.941 60.0533C159.969 60.1439 160.009 60.218 160.06 60.2756C160.219 60.4554 160.391 60.54 160.575 60.5294C160.76 60.5051 161.04 60.3763 161.414 60.1429L162.231 59.6216C162.683 59.3308 163.083 59.1194 163.431 58.9874C163.779 58.8554 164.095 58.797 164.38 58.8124C164.666 58.814 164.926 58.8897 165.162 59.0394C165.405 59.1827 165.645 59.3874 165.881 59.6536C166.352 60.1859 166.531 60.7949 166.415 61.4807C166.293 62.1592 165.812 62.8767 164.971 63.633C164.634 63.9368 164.282 64.1954 163.915 64.4086C163.563 64.6226 163.197 64.7639 162.819 64.8326C162.448 64.8949 162.072 64.8712 161.691 64.7617C161.317 64.6456 160.95 64.4067 160.591 64.0448L162.035 62.7454Z"/>
<path d="M166.675 58.6675L168.216 57.2809L169.755 59.0182L168.214 60.4048L166.675 58.6675Z"/>
<path d="M168.192 50.1996L167.512 52.3827L165.859 51.8724L166.902 48.2187L168.184 47.0648L174.791 54.5213L173.25 55.9079L168.192 50.1996Z"/>
<path d="M180.004 50.1794C179.113 50.981 178.139 51.2883 177.083 51.1013C176.033 50.9078 174.909 50.1348 173.711 48.7824C173.112 48.1062 172.66 47.4653 172.356 46.8597C172.053 46.2405 171.88 45.6592 171.838 45.1157C171.802 44.5657 171.894 44.0568 172.112 43.5889C172.324 43.1139 172.649 42.6792 173.087 42.2849C173.978 41.4833 174.951 41.1828 176.007 41.3835C177.063 41.5705 178.188 42.3366 179.38 43.6819C180.578 45.0343 181.206 46.2533 181.264 47.3389C181.329 48.418 180.909 49.3649 180.004 50.1794ZM178.848 48.8532C179.085 48.6399 179.232 48.4045 179.288 48.1472C179.345 47.8762 179.325 47.584 179.228 47.2705C179.124 46.9498 178.954 46.6118 178.717 46.2565C178.473 45.8939 178.17 45.5077 177.806 45.0976C177.443 44.6876 177.1 44.3437 176.776 44.0659C176.446 43.781 176.132 43.5723 175.834 43.4398C175.529 43.3001 175.243 43.247 174.976 43.2806C174.71 43.3005 174.458 43.4171 174.221 43.6305C173.984 43.8438 173.84 44.0827 173.791 44.3472C173.735 44.6045 173.758 44.8936 173.862 45.2143C173.966 45.5213 174.14 45.8561 174.384 46.2186C174.621 46.5739 174.921 46.9566 175.285 47.3667C175.648 47.7767 175.994 48.1242 176.324 48.4091C176.648 48.6869 176.958 48.8988 177.256 49.045C177.554 49.1775 177.836 49.2338 178.103 49.2139C178.363 49.1868 178.611 49.0665 178.848 48.8532Z"/>
</mask>
<path d="M148.786 64.0399L151.512 61.5866C152.116 61.0436 152.675 60.6694 153.19 60.4642C153.707 60.2454 154.178 60.1509 154.605 60.1807C155.025 60.2033 155.403 60.3161 155.737 60.519C156.066 60.7148 156.348 60.9458 156.584 61.212C157.024 61.7084 157.303 62.2064 157.423 62.7061C157.543 63.2059 157.493 63.7615 157.273 64.3731L161.733 66.2367L159.998 67.7979L156.143 66.0696L154.634 67.4271L157.196 70.3191L155.612 71.7445L148.786 64.0399ZM154.698 64.9642C154.95 64.738 155.136 64.5253 155.256 64.3263C155.371 64.1201 155.433 63.9282 155.444 63.7506C155.455 63.5594 155.418 63.3793 155.333 63.2103C155.248 63.0413 155.132 62.874 154.985 62.7086C154.864 62.5719 154.728 62.4618 154.576 62.3783C154.419 62.2876 154.244 62.244 154.054 62.2474C153.864 62.2372 153.653 62.291 153.422 62.4087C153.191 62.5127 152.936 62.6908 152.656 62.9429L151.546 63.9417L153.448 66.0891L154.698 64.9642Z" fill="#109D47"/>
<path d="M162.035 62.7454C162.379 63.0311 162.703 63.1273 163.008 63.0341C163.312 62.9409 163.616 62.7585 163.917 62.487C164.276 62.1638 164.493 61.8911 164.568 61.669C164.643 61.4333 164.591 61.2147 164.413 61.0133C164.285 60.8694 164.123 60.7888 163.927 60.7714C163.738 60.7475 163.488 60.8368 163.177 61.0393L162.286 61.608C161.508 62.1142 160.836 62.3897 160.268 62.4346C159.702 62.4658 159.183 62.2152 158.712 61.6828C158.469 61.4095 158.31 61.1132 158.234 60.7939C158.165 60.4682 158.171 60.1329 158.253 59.7878C158.334 59.4428 158.487 59.0982 158.712 58.7541C158.937 58.3962 159.229 58.0557 159.589 57.7325C160.034 57.3317 160.449 57.0423 160.834 56.8643C161.212 56.6791 161.561 56.578 161.882 56.561C162.21 56.5375 162.513 56.5881 162.791 56.7127C163.076 56.8308 163.346 56.9892 163.599 57.1878L162.405 58.5725C162.111 58.3717 161.827 58.2845 161.554 58.3109C161.287 58.3308 160.974 58.5024 160.615 58.8256C160.414 59.0066 160.261 59.1765 160.157 59.3353C160.053 59.4805 159.984 59.6138 159.949 59.7352C159.922 59.8502 159.919 59.9563 159.941 60.0533C159.969 60.1439 160.009 60.218 160.06 60.2756C160.219 60.4554 160.391 60.54 160.575 60.5294C160.76 60.5051 161.04 60.3763 161.414 60.1429L162.231 59.6216C162.683 59.3308 163.083 59.1194 163.431 58.9874C163.779 58.8554 164.095 58.797 164.38 58.8124C164.666 58.814 164.926 58.8897 165.162 59.0394C165.405 59.1827 165.645 59.3874 165.881 59.6536C166.352 60.1859 166.531 60.7949 166.415 61.4807C166.293 62.1592 165.812 62.8767 164.971 63.633C164.634 63.9368 164.282 64.1954 163.915 64.4086C163.563 64.6226 163.197 64.7639 162.819 64.8326C162.448 64.8949 162.072 64.8712 161.691 64.7617C161.317 64.6456 160.95 64.4067 160.591 64.0448L162.035 62.7454Z" fill="#109D47"/>
<path d="M166.675 58.6675L168.216 57.2809L169.755 59.0182L168.214 60.4048L166.675 58.6675Z" fill="#109D47"/>
<path d="M168.192 50.1996L167.512 52.3827L165.859 51.8724L166.902 48.2187L168.184 47.0648L174.791 54.5213L173.25 55.9079L168.192 50.1996Z" fill="#109D47"/>
<path d="M180.004 50.1794C179.113 50.981 178.139 51.2883 177.083 51.1013C176.033 50.9078 174.909 50.1348 173.711 48.7824C173.112 48.1062 172.66 47.4653 172.356 46.8597C172.053 46.2405 171.88 45.6592 171.838 45.1157C171.802 44.5657 171.894 44.0568 172.112 43.5889C172.324 43.1139 172.649 42.6792 173.087 42.2849C173.978 41.4833 174.951 41.1828 176.007 41.3835C177.063 41.5705 178.188 42.3366 179.38 43.6819C180.578 45.0343 181.206 46.2533 181.264 47.3389C181.329 48.418 180.909 49.3649 180.004 50.1794ZM178.848 48.8532C179.085 48.6399 179.232 48.4045 179.288 48.1472C179.345 47.8762 179.325 47.584 179.228 47.2705C179.124 46.9498 178.954 46.6118 178.717 46.2565C178.473 45.8939 178.17 45.5077 177.806 45.0976C177.443 44.6876 177.1 44.3437 176.776 44.0659C176.446 43.781 176.132 43.5723 175.834 43.4398C175.529 43.3001 175.243 43.247 174.976 43.2806C174.71 43.3005 174.458 43.4171 174.221 43.6305C173.984 43.8438 173.84 44.0827 173.791 44.3472C173.735 44.6045 173.758 44.8936 173.862 45.2143C173.966 45.5213 174.14 45.8561 174.384 46.2186C174.621 46.5739 174.921 46.9566 175.285 47.3667C175.648 47.7767 175.994 48.1242 176.324 48.4091C176.648 48.6869 176.958 48.8988 177.256 49.045C177.554 49.1775 177.836 49.2338 178.103 49.2139C178.363 49.1868 178.611 49.0665 178.848 48.8532Z" fill="#109D47"/>
<path d="M148.786 64.0399L151.512 61.5866C152.116 61.0436 152.675 60.6694 153.19 60.4642C153.707 60.2454 154.178 60.1509 154.605 60.1807C155.025 60.2033 155.403 60.3161 155.737 60.519C156.066 60.7148 156.348 60.9458 156.584 61.212C157.024 61.7084 157.303 62.2064 157.423 62.7061C157.543 63.2059 157.493 63.7615 157.273 64.3731L161.733 66.2367L159.998 67.7979L156.143 66.0696L154.634 67.4271L157.196 70.3191L155.612 71.7445L148.786 64.0399ZM154.698 64.9642C154.95 64.738 155.136 64.5253 155.256 64.3263C155.371 64.1201 155.433 63.9282 155.444 63.7506C155.455 63.5594 155.418 63.3793 155.333 63.2103C155.248 63.0413 155.132 62.874 154.985 62.7086C154.864 62.5719 154.728 62.4618 154.576 62.3783C154.419 62.2876 154.244 62.244 154.054 62.2474C153.864 62.2372 153.653 62.291 153.422 62.4087C153.191 62.5127 152.936 62.6908 152.656 62.9429L151.546 63.9417L153.448 66.0891L154.698 64.9642Z" stroke="#0E9C45" stroke-width="0.2" mask="url(#path-23-outside-1_31298_39512)"/>
<path d="M162.035 62.7454C162.379 63.0311 162.703 63.1273 163.008 63.0341C163.312 62.9409 163.616 62.7585 163.917 62.487C164.276 62.1638 164.493 61.8911 164.568 61.669C164.643 61.4333 164.591 61.2147 164.413 61.0133C164.285 60.8694 164.123 60.7888 163.927 60.7714C163.738 60.7475 163.488 60.8368 163.177 61.0393L162.286 61.608C161.508 62.1142 160.836 62.3897 160.268 62.4346C159.702 62.4658 159.183 62.2152 158.712 61.6828C158.469 61.4095 158.31 61.1132 158.234 60.7939C158.165 60.4682 158.171 60.1329 158.253 59.7878C158.334 59.4428 158.487 59.0982 158.712 58.7541C158.937 58.3962 159.229 58.0557 159.589 57.7325C160.034 57.3317 160.449 57.0423 160.834 56.8643C161.212 56.6791 161.561 56.578 161.882 56.561C162.21 56.5375 162.513 56.5881 162.791 56.7127C163.076 56.8308 163.346 56.9892 163.599 57.1878L162.405 58.5725C162.111 58.3717 161.827 58.2845 161.554 58.3109C161.287 58.3308 160.974 58.5024 160.615 58.8256C160.414 59.0066 160.261 59.1765 160.157 59.3353C160.053 59.4805 159.984 59.6138 159.949 59.7352C159.922 59.8502 159.919 59.9563 159.941 60.0533C159.969 60.1439 160.009 60.218 160.06 60.2756C160.219 60.4554 160.391 60.54 160.575 60.5294C160.76 60.5051 161.04 60.3763 161.414 60.1429L162.231 59.6216C162.683 59.3308 163.083 59.1194 163.431 58.9874C163.779 58.8554 164.095 58.797 164.38 58.8124C164.666 58.814 164.926 58.8897 165.162 59.0394C165.405 59.1827 165.645 59.3874 165.881 59.6536C166.352 60.1859 166.531 60.7949 166.415 61.4807C166.293 62.1592 165.812 62.8767 164.971 63.633C164.634 63.9368 164.282 64.1954 163.915 64.4086C163.563 64.6226 163.197 64.7639 162.819 64.8326C162.448 64.8949 162.072 64.8712 161.691 64.7617C161.317 64.6456 160.95 64.4067 160.591 64.0448L162.035 62.7454Z" stroke="#0E9C45" stroke-width="0.2" mask="url(#path-23-outside-1_31298_39512)"/>
<path d="M166.675 58.6675L168.216 57.2809L169.755 59.0182L168.214 60.4048L166.675 58.6675Z" stroke="#0E9C45" stroke-width="0.2" mask="url(#path-23-outside-1_31298_39512)"/>
<path d="M168.192 50.1996L167.512 52.3827L165.859 51.8724L166.902 48.2187L168.184 47.0648L174.791 54.5213L173.25 55.9079L168.192 50.1996Z" stroke="#0E9C45" stroke-width="0.2" mask="url(#path-23-outside-1_31298_39512)"/>
<path d="M180.004 50.1794C179.113 50.981 178.139 51.2883 177.083 51.1013C176.033 50.9078 174.909 50.1348 173.711 48.7824C173.112 48.1062 172.66 47.4653 172.356 46.8597C172.053 46.2405 171.88 45.6592 171.838 45.1157C171.802 44.5657 171.894 44.0568 172.112 43.5889C172.324 43.1139 172.649 42.6792 173.087 42.2849C173.978 41.4833 174.951 41.1828 176.007 41.3835C177.063 41.5705 178.188 42.3366 179.38 43.6819C180.578 45.0343 181.206 46.2533 181.264 47.3389C181.329 48.418 180.909 49.3649 180.004 50.1794ZM178.848 48.8532C179.085 48.6399 179.232 48.4045 179.288 48.1472C179.345 47.8762 179.325 47.584 179.228 47.2705C179.124 46.9498 178.954 46.6118 178.717 46.2565C178.473 45.8939 178.17 45.5077 177.806 45.0976C177.443 44.6876 177.1 44.3437 176.776 44.0659C176.446 43.781 176.132 43.5723 175.834 43.4398C175.529 43.3001 175.243 43.247 174.976 43.2806C174.71 43.3005 174.458 43.4171 174.221 43.6305C173.984 43.8438 173.84 44.0827 173.791 44.3472C173.735 44.6045 173.758 44.8936 173.862 45.2143C173.966 45.5213 174.14 45.8561 174.384 46.2186C174.621 46.5739 174.921 46.9566 175.285 47.3667C175.648 47.7767 175.994 48.1242 176.324 48.4091C176.648 48.6869 176.958 48.8988 177.256 49.045C177.554 49.1775 177.836 49.2338 178.103 49.2139C178.363 49.1868 178.611 49.0665 178.848 48.8532Z" stroke="#0E9C45" stroke-width="0.2" mask="url(#path-23-outside-1_31298_39512)"/>
<path d="M149.258 70.7151L149.817 71.344L146.349 74.4648L145.79 73.8359L149.258 70.7151Z" fill="#109D47" stroke="#0E9C45"/>
<path d="M185.578 38.3284L186.137 38.9573L182.67 42.0781L182.11 41.4492L185.578 38.3284Z" fill="#109D47" stroke="#0E9C45"/>
<g style="mix-blend-mode:multiply">
<path d="M193.362 57.5586H116.723L112.586 61.0812H189.23L193.362 57.5586Z" fill="#AAA9A9"/>
</g>
<path d="M208.876 71.4069H209.503V68.8614C204.972 68.8614 201.642 65.1676 201.642 60.6094H108.104C108.104 65.1676 104.774 68.8614 100.242 68.8614V71.4069H100.87C101.66 71.4069 102.297 72.048 102.297 72.8423C102.297 73.6365 101.66 74.2777 100.87 74.2777H100.242V76.804H100.87C101.66 76.804 102.297 77.4452 102.297 78.2394C102.297 79.0337 101.66 79.6748 100.87 79.6748H100.242V82.4882C102.04 82.4882 103.496 83.9524 103.496 85.761C103.496 87.5696 102.04 89.0337 100.242 89.0337V91.9045H100.87C101.66 91.9045 102.297 92.5457 102.297 93.34C102.297 94.1342 101.66 94.7754 100.87 94.7754H100.242V97.3017H100.87C101.66 97.3017 102.297 97.9428 102.297 98.7371C102.297 99.5314 101.66 100.173 100.87 100.173H100.242V102.661C104.774 102.661 108.104 106.354 108.104 110.913H201.645C201.645 106.354 204.975 102.661 209.507 102.661V100.173H208.879C208.089 100.173 207.452 99.5314 207.452 98.7371C207.452 97.9428 208.089 97.3017 208.879 97.3017H209.507V94.7754H208.879C208.089 94.7754 207.452 94.1342 207.452 93.34C207.452 92.5457 208.089 91.9045 208.879 91.9045H209.507V89.0337C207.708 89.0337 206.253 87.5696 206.253 85.761C206.253 83.9524 207.708 82.4882 209.507 82.4882V79.6748H208.879C208.089 79.6748 208.089 76.804 208.879 76.804H209.507V74.2777H208.879C208.089 74.2777 207.452 73.6365 207.452 72.8423C207.452 72.048 208.089 71.4069 208.879 71.4069H208.876Z" fill="#FFE200"/>
<path d="M194.095 64.4023H115.653C113.251 64.4023 111.305 66.3603 111.305 68.7756V102.747C111.305 105.162 113.251 107.12 115.653 107.12H194.095C196.496 107.12 198.443 105.162 198.443 102.747V68.7756C198.443 66.3603 196.496 64.4023 194.095 64.4023Z" fill="white"/>
<path d="M143.153 81.3673L140.492 73.0195H142.547L143.556 76.5506C143.838 77.5427 144.098 78.4964 144.295 79.5363H144.333C144.542 78.5315 144.802 77.5427 145.084 76.5889L146.143 73.0227H148.138L145.341 81.3704H143.15L143.153 81.3673Z" fill="#11A64B"/>
<path d="M156.526 77.11C156.526 79.8469 154.877 81.5088 152.451 81.5088C150.025 81.5088 148.547 79.6395 148.547 77.2599C148.547 74.7591 150.136 72.8867 152.587 72.8867C155.039 72.8867 156.529 74.807 156.529 77.11H156.526ZM150.529 77.2217C150.529 78.858 151.293 80.0096 152.549 80.0096C153.805 80.0096 154.544 78.7942 154.544 77.1738C154.544 75.6746 153.83 74.3859 152.536 74.3859C151.242 74.3859 150.529 75.6012 150.529 77.2217Z" fill="#11A64B"/>
<path d="M159.631 73.0195V77.8266C159.631 79.262 160.173 79.9956 161.134 79.9956C162.095 79.9956 162.662 79.3034 162.662 77.8266V73.0195H164.533V77.7022C164.533 80.2795 163.24 81.5044 161.074 81.5044C158.908 81.5044 157.75 80.3401 157.75 77.6766V73.0195H159.634H159.631Z" fill="#11A64B"/>
<path d="M172.252 81.1356C171.907 81.3078 171.133 81.496 170.121 81.496C167.251 81.496 165.773 79.7001 165.773 77.3205C165.773 74.4721 167.794 72.8867 170.305 72.8867C171.279 72.8867 172.018 73.0845 172.351 73.2599L171.97 74.7591C171.59 74.5996 171.06 74.4497 170.394 74.4497C168.904 74.4497 167.746 75.3524 167.746 77.2121C167.746 78.8836 168.732 79.9362 170.407 79.9362C170.974 79.9362 171.602 79.8118 171.97 79.6651L172.252 81.1387V81.1356Z" fill="#11A64B"/>
<path d="M175.368 73.0195V76.2285H178.46V73.0195H180.331V81.3673H178.46V77.8744H175.368V81.3673H173.484V73.0195H175.368Z" fill="#11A64B"/>
<path d="M186.906 77.8393H183.853V79.8202H187.265V81.3673H181.969V73.0195H187.09V74.5666H183.853V76.3018H186.906V77.8393Z" fill="#11A64B"/>
<path d="M188.539 73.1332C189.142 73.0343 190.042 72.9609 191.038 72.9609C192.269 72.9609 193.131 73.1459 193.724 73.618C194.216 74.0136 194.488 74.5973 194.488 75.3661C194.488 76.4314 193.737 77.1619 193.023 77.4235V77.4618C193.604 77.6978 193.921 78.256 194.133 79.0216C194.393 79.9626 194.65 81.0535 194.812 81.3756H192.89C192.754 81.1396 192.557 80.4602 192.31 79.4299C192.088 78.39 191.729 78.1029 190.968 78.0933H190.401V81.3756H188.542V73.1396L188.539 73.1332ZM190.397 76.7249H191.136C192.072 76.7249 192.627 76.2528 192.627 75.5224C192.627 74.7536 192.11 74.3708 191.247 74.3581C190.791 74.3581 190.534 74.3963 190.397 74.4187V76.7217V76.7249Z" fill="#11A64B"/>
<mask id="path-36-outside-2_31298_39512" maskUnits="userSpaceOnUse" x="146.781" y="80.9079" width="40.1419" height="22.6758" fill="black">
<rect fill="white" x="146.781" y="80.9079" width="40.1419" height="22.6758"/>
<path d="M149.455 87.3773L153.113 87.3608C153.922 87.3571 154.588 87.4505 155.109 87.6409C155.639 87.8216 156.055 88.0654 156.354 88.3725C156.654 88.6699 156.862 89.0062 156.978 89.3815C157.095 89.7472 157.154 90.1083 157.155 90.4649C157.156 91.1298 157.037 91.6892 156.798 92.1433C156.558 92.5973 156.154 92.9797 155.586 93.2907L157.694 97.6611L155.366 97.6716L153.621 93.8055L151.597 93.8146L151.607 97.6885L149.481 97.6981L149.455 87.3773ZM153.269 92.0146C153.607 92.0131 153.886 91.9781 154.108 91.9097C154.329 91.8316 154.502 91.7296 154.627 91.6038C154.762 91.4682 154.853 91.3088 154.901 91.1255C154.949 90.9422 154.972 90.7397 154.972 90.5181C154.971 90.335 154.942 90.1616 154.884 89.9981C154.825 89.8249 154.724 89.676 154.579 89.5513C154.443 89.417 154.25 89.3167 154 89.2504C153.758 89.1744 153.45 89.1372 153.074 89.1389L151.585 89.1457L151.592 92.0222L153.269 92.0146Z"/>
<path d="M160.223 95.2501C160.291 95.6931 160.47 95.9814 160.76 96.115C161.049 96.2486 161.396 96.3145 161.801 96.3127C162.283 96.3105 162.625 96.2511 162.827 96.1346C163.039 96.0083 163.145 95.8103 163.144 95.5405C163.143 95.3478 163.076 95.1794 162.94 95.0355C162.815 94.8915 162.569 94.7914 162.202 94.7352L161.161 94.5665C160.245 94.4261 159.56 94.1834 159.106 93.8385C158.661 93.484 158.438 92.9502 158.436 92.237C158.435 91.8709 158.512 91.5429 158.665 91.2531C158.828 90.9632 159.054 90.7165 159.343 90.5128C159.631 90.3091 159.973 90.1534 160.368 90.0456C160.773 89.9281 161.216 89.8683 161.698 89.8661C162.296 89.8634 162.797 89.9238 163.202 90.0473C163.607 90.1611 163.935 90.3186 164.187 90.5198C164.447 90.721 164.641 90.9611 164.767 91.24C164.902 91.5188 165 91.8171 165.058 92.1349L163.251 92.3743C163.164 92.0278 163.009 91.7731 162.787 91.6103C162.574 91.4474 162.227 91.3671 161.745 91.3693C161.475 91.3705 161.249 91.3956 161.066 91.4446C160.892 91.4839 160.753 91.5376 160.647 91.6055C160.551 91.6734 160.479 91.7508 160.431 91.8378C160.392 91.9247 160.373 92.0067 160.373 92.0838C160.374 92.3247 160.447 92.5026 160.592 92.6176C160.746 92.7229 161.04 92.8131 161.474 92.8883L162.429 93.043C162.959 93.1273 163.398 93.2362 163.746 93.3695C164.093 93.5028 164.368 93.6702 164.571 93.8717C164.784 94.0635 164.929 94.2941 165.007 94.5636C165.094 94.833 165.138 95.146 165.139 95.5026C165.141 96.2157 164.873 96.7903 164.334 97.2264C163.795 97.6528 162.962 97.8686 161.834 97.8737C161.381 97.8757 160.947 97.8343 160.533 97.7494C160.128 97.6742 159.761 97.5361 159.433 97.3352C159.114 97.1343 158.848 96.8657 158.635 96.5293C158.432 96.193 158.315 95.7695 158.285 95.2589L160.223 95.2501Z"/>
<path d="M166.384 95.2946L168.451 95.2853L168.457 97.6125L166.39 97.6218L166.384 95.2946Z"/>
<path d="M173.104 89.9702L171.155 91.1499L170.254 89.6651L173.445 87.6269L175.165 87.6192L175.191 97.6076L173.123 97.6169L173.104 89.9702Z"/>
<path d="M181.955 97.8372C180.76 97.8426 179.829 97.4228 179.162 96.5778C178.504 95.7327 178.173 94.4043 178.168 92.5926C178.166 91.6868 178.25 90.9058 178.422 90.2498C178.604 89.584 178.858 89.0336 179.184 88.5984C179.521 88.1633 179.925 87.8434 180.396 87.6389C180.868 87.4248 181.398 87.3164 181.986 87.3138C183.181 87.3084 184.108 87.733 184.765 88.5877C185.433 89.4327 185.769 90.7563 185.773 92.5583C185.778 94.37 185.444 95.7014 184.772 96.5525C184.109 97.4035 183.17 97.8317 181.955 97.8372ZM181.965 96.0737C182.283 96.0722 182.548 95.9939 182.76 95.8388C182.981 95.674 183.159 95.4419 183.293 95.1425C183.427 94.8336 183.523 94.4669 183.579 94.0427C183.636 93.6087 183.664 93.1171 183.662 92.5679C183.661 92.0186 183.631 91.532 183.572 91.1083C183.513 90.6749 183.416 90.3092 183.28 90.011C183.144 89.7033 182.965 89.4728 182.743 89.3196C182.531 89.1567 182.265 89.076 181.947 89.0775C181.629 89.0789 181.364 89.162 181.153 89.3268C180.941 89.4819 180.768 89.714 180.634 90.023C180.509 90.3223 180.419 90.6889 180.362 91.1228C180.305 91.5471 180.278 92.0338 180.279 92.5831C180.28 93.1324 180.311 93.6238 180.37 94.0571C180.429 94.4809 180.521 94.8467 180.647 95.1545C180.783 95.4526 180.957 95.6831 181.169 95.846C181.382 95.9992 181.647 96.0751 181.965 96.0737Z"/>
</mask>
<path d="M149.455 87.3773L153.113 87.3608C153.922 87.3571 154.588 87.4505 155.109 87.6409C155.639 87.8216 156.055 88.0654 156.354 88.3725C156.654 88.6699 156.862 89.0062 156.978 89.3815C157.095 89.7472 157.154 90.1083 157.155 90.4649C157.156 91.1298 157.037 91.6892 156.798 92.1433C156.558 92.5973 156.154 92.9797 155.586 93.2907L157.694 97.6611L155.366 97.6716L153.621 93.8055L151.597 93.8146L151.607 97.6885L149.481 97.6981L149.455 87.3773ZM153.269 92.0146C153.607 92.0131 153.886 91.9781 154.108 91.9097C154.329 91.8316 154.502 91.7296 154.627 91.6038C154.762 91.4682 154.853 91.3088 154.901 91.1255C154.949 90.9422 154.972 90.7397 154.972 90.5181C154.971 90.335 154.942 90.1616 154.884 89.9981C154.825 89.8249 154.724 89.676 154.579 89.5513C154.443 89.417 154.25 89.3167 154 89.2504C153.758 89.1744 153.45 89.1372 153.074 89.1389L151.585 89.1457L151.592 92.0222L153.269 92.0146Z" fill="#11A64B"/>
<path d="M160.223 95.2501C160.291 95.6931 160.47 95.9814 160.76 96.115C161.049 96.2486 161.396 96.3145 161.801 96.3127C162.283 96.3105 162.625 96.2511 162.827 96.1346C163.039 96.0083 163.145 95.8103 163.144 95.5405C163.143 95.3478 163.076 95.1794 162.94 95.0355C162.815 94.8915 162.569 94.7914 162.202 94.7352L161.161 94.5665C160.245 94.4261 159.56 94.1834 159.106 93.8385C158.661 93.484 158.438 92.9502 158.436 92.237C158.435 91.8709 158.512 91.5429 158.665 91.2531C158.828 90.9632 159.054 90.7165 159.343 90.5128C159.631 90.3091 159.973 90.1534 160.368 90.0456C160.773 89.9281 161.216 89.8683 161.698 89.8661C162.296 89.8634 162.797 89.9238 163.202 90.0473C163.607 90.1611 163.935 90.3186 164.187 90.5198C164.447 90.721 164.641 90.9611 164.767 91.24C164.902 91.5188 165 91.8171 165.058 92.1349L163.251 92.3743C163.164 92.0278 163.009 91.7731 162.787 91.6103C162.574 91.4474 162.227 91.3671 161.745 91.3693C161.475 91.3705 161.249 91.3956 161.066 91.4446C160.892 91.4839 160.753 91.5376 160.647 91.6055C160.551 91.6734 160.479 91.7508 160.431 91.8378C160.392 91.9247 160.373 92.0067 160.373 92.0838C160.374 92.3247 160.447 92.5026 160.592 92.6176C160.746 92.7229 161.04 92.8131 161.474 92.8883L162.429 93.043C162.959 93.1273 163.398 93.2362 163.746 93.3695C164.093 93.5028 164.368 93.6702 164.571 93.8717C164.784 94.0635 164.929 94.2941 165.007 94.5636C165.094 94.833 165.138 95.146 165.139 95.5026C165.141 96.2157 164.873 96.7903 164.334 97.2264C163.795 97.6528 162.962 97.8686 161.834 97.8737C161.381 97.8757 160.947 97.8343 160.533 97.7494C160.128 97.6742 159.761 97.5361 159.433 97.3352C159.114 97.1343 158.848 96.8657 158.635 96.5293C158.432 96.193 158.315 95.7695 158.285 95.2589L160.223 95.2501Z" fill="#11A64B"/>
<path d="M166.384 95.2946L168.451 95.2853L168.457 97.6125L166.39 97.6218L166.384 95.2946Z" fill="#11A64B"/>
<path d="M173.104 89.9702L171.155 91.1499L170.254 89.6651L173.445 87.6269L175.165 87.6192L175.191 97.6076L173.123 97.6169L173.104 89.9702Z" fill="#11A64B"/>
<path d="M181.955 97.8372C180.76 97.8426 179.829 97.4228 179.162 96.5778C178.504 95.7327 178.173 94.4043 178.168 92.5926C178.166 91.6868 178.25 90.9058 178.422 90.2498C178.604 89.584 178.858 89.0336 179.184 88.5984C179.521 88.1633 179.925 87.8434 180.396 87.6389C180.868 87.4248 181.398 87.3164 181.986 87.3138C183.181 87.3084 184.108 87.733 184.765 88.5877C185.433 89.4327 185.769 90.7563 185.773 92.5583C185.778 94.37 185.444 95.7014 184.772 96.5525C184.109 97.4035 183.17 97.8317 181.955 97.8372ZM181.965 96.0737C182.283 96.0722 182.548 95.9939 182.76 95.8388C182.981 95.674 183.159 95.4419 183.293 95.1425C183.427 94.8336 183.523 94.4669 183.579 94.0427C183.636 93.6087 183.664 93.1171 183.662 92.5679C183.661 92.0186 183.631 91.532 183.572 91.1083C183.513 90.6749 183.416 90.3092 183.28 90.011C183.144 89.7033 182.965 89.4728 182.743 89.3196C182.531 89.1567 182.265 89.076 181.947 89.0775C181.629 89.0789 181.364 89.162 181.153 89.3268C180.941 89.4819 180.768 89.714 180.634 90.023C180.509 90.3223 180.419 90.6889 180.362 91.1228C180.305 91.5471 180.278 92.0338 180.279 92.5831C180.28 93.1324 180.311 93.6238 180.37 94.0571C180.429 94.4809 180.521 94.8467 180.647 95.1545C180.783 95.4526 180.957 95.6831 181.169 95.846C181.382 95.9992 181.647 96.0751 181.965 96.0737Z" fill="#11A64B"/>
<path d="M149.455 87.3773L153.113 87.3608C153.922 87.3571 154.588 87.4505 155.109 87.6409C155.639 87.8216 156.055 88.0654 156.354 88.3725C156.654 88.6699 156.862 89.0062 156.978 89.3815C157.095 89.7472 157.154 90.1083 157.155 90.4649C157.156 91.1298 157.037 91.6892 156.798 92.1433C156.558 92.5973 156.154 92.9797 155.586 93.2907L157.694 97.6611L155.366 97.6716L153.621 93.8055L151.597 93.8146L151.607 97.6885L149.481 97.6981L149.455 87.3773ZM153.269 92.0146C153.607 92.0131 153.886 91.9781 154.108 91.9097C154.329 91.8316 154.502 91.7296 154.627 91.6038C154.762 91.4682 154.853 91.3088 154.901 91.1255C154.949 90.9422 154.972 90.7397 154.972 90.5181C154.971 90.335 154.942 90.1616 154.884 89.9981C154.825 89.8249 154.724 89.676 154.579 89.5513C154.443 89.417 154.25 89.3167 154 89.2504C153.758 89.1744 153.45 89.1372 153.074 89.1389L151.585 89.1457L151.592 92.0222L153.269 92.0146Z" stroke="#11A64B" stroke-width="0.2" mask="url(#path-36-outside-2_31298_39512)"/>
<path d="M160.223 95.2501C160.291 95.6931 160.47 95.9814 160.76 96.115C161.049 96.2486 161.396 96.3145 161.801 96.3127C162.283 96.3105 162.625 96.2511 162.827 96.1346C163.039 96.0083 163.145 95.8103 163.144 95.5405C163.143 95.3478 163.076 95.1794 162.94 95.0355C162.815 94.8915 162.569 94.7914 162.202 94.7352L161.161 94.5665C160.245 94.4261 159.56 94.1834 159.106 93.8385C158.661 93.484 158.438 92.9502 158.436 92.237C158.435 91.8709 158.512 91.5429 158.665 91.2531C158.828 90.9632 159.054 90.7165 159.343 90.5128C159.631 90.3091 159.973 90.1534 160.368 90.0456C160.773 89.9281 161.216 89.8683 161.698 89.8661C162.296 89.8634 162.797 89.9238 163.202 90.0473C163.607 90.1611 163.935 90.3186 164.187 90.5198C164.447 90.721 164.641 90.9611 164.767 91.24C164.902 91.5188 165 91.8171 165.058 92.1349L163.251 92.3743C163.164 92.0278 163.009 91.7731 162.787 91.6103C162.574 91.4474 162.227 91.3671 161.745 91.3693C161.475 91.3705 161.249 91.3956 161.066 91.4446C160.892 91.4839 160.753 91.5376 160.647 91.6055C160.551 91.6734 160.479 91.7508 160.431 91.8378C160.392 91.9247 160.373 92.0067 160.373 92.0838C160.374 92.3247 160.447 92.5026 160.592 92.6176C160.746 92.7229 161.04 92.8131 161.474 92.8883L162.429 93.043C162.959 93.1273 163.398 93.2362 163.746 93.3695C164.093 93.5028 164.368 93.6702 164.571 93.8717C164.784 94.0635 164.929 94.2941 165.007 94.5636C165.094 94.833 165.138 95.146 165.139 95.5026C165.141 96.2157 164.873 96.7903 164.334 97.2264C163.795 97.6528 162.962 97.8686 161.834 97.8737C161.381 97.8757 160.947 97.8343 160.533 97.7494C160.128 97.6742 159.761 97.5361 159.433 97.3352C159.114 97.1343 158.848 96.8657 158.635 96.5293C158.432 96.193 158.315 95.7695 158.285 95.2589L160.223 95.2501Z" stroke="#11A64B" stroke-width="0.2" mask="url(#path-36-outside-2_31298_39512)"/>
<path d="M166.384 95.2946L168.451 95.2853L168.457 97.6125L166.39 97.6218L166.384 95.2946Z" stroke="#11A64B" stroke-width="0.2" mask="url(#path-36-outside-2_31298_39512)"/>
<path d="M173.104 89.9702L171.155 91.1499L170.254 89.6651L173.445 87.6269L175.165 87.6192L175.191 97.6076L173.123 97.6169L173.104 89.9702Z" stroke="#11A64B" stroke-width="0.2" mask="url(#path-36-outside-2_31298_39512)"/>
<path d="M181.955 97.8372C180.76 97.8426 179.829 97.4228 179.162 96.5778C178.504 95.7327 178.173 94.4043 178.168 92.5926C178.166 91.6868 178.25 90.9058 178.422 90.2498C178.604 89.584 178.858 89.0336 179.184 88.5984C179.521 88.1633 179.925 87.8434 180.396 87.6389C180.868 87.4248 181.398 87.3164 181.986 87.3138C183.181 87.3084 184.108 87.733 184.765 88.5877C185.433 89.4327 185.769 90.7563 185.773 92.5583C185.778 94.37 185.444 95.7014 184.772 96.5525C184.109 97.4035 183.17 97.8317 181.955 97.8372ZM181.965 96.0737C182.283 96.0722 182.548 95.9939 182.76 95.8388C182.981 95.674 183.159 95.4419 183.293 95.1425C183.427 94.8336 183.523 94.4669 183.579 94.0427C183.636 93.6087 183.664 93.1171 183.662 92.5679C183.661 92.0186 183.631 91.532 183.572 91.1083C183.513 90.6749 183.416 90.3092 183.28 90.011C183.144 89.7033 182.965 89.4728 182.743 89.3196C182.531 89.1567 182.265 89.076 181.947 89.0775C181.629 89.0789 181.364 89.162 181.153 89.3268C180.941 89.4819 180.768 89.714 180.634 90.023C180.509 90.3223 180.419 90.6889 180.362 91.1228C180.305 91.5471 180.278 92.0338 180.279 92.5831C180.28 93.1324 180.311 93.6238 180.37 94.0571C180.429 94.4809 180.521 94.8467 180.647 95.1545C180.783 95.4526 180.957 95.6831 181.169 95.846C181.382 95.9992 181.647 96.0751 181.965 96.0737Z" stroke="#11A64B" stroke-width="0.2" mask="url(#path-36-outside-2_31298_39512)"/>
<path d="M145.9 92.1848L140.25 92.2109L140.258 94.0577L145.909 94.0316L145.9 92.1848Z" fill="#11A64B"/>
<path d="M194.439 92.1848L188.789 92.2109L188.797 94.0577L194.448 94.0316L194.439 92.1848Z" fill="#11A64B"/>
<path d="M135.73 67.2109H134.602V104.679H135.73V67.2109Z" fill="#11A64B"/>
<path d="M127.538 78.9852L125.862 78.9834C125.449 78.983 125.243 79.1424 125.243 79.5414C125.242 79.701 125.268 79.8872 125.294 79.9937L127.743 79.9963C127.821 79.9964 127.898 80.0763 127.898 80.1561L127.897 80.768C127.897 80.8478 127.82 80.9276 127.742 80.9275L124.88 80.9245C124.777 80.9244 124.7 80.8445 124.674 80.7646C124.545 80.3654 124.469 79.9664 124.469 79.5407C124.47 78.583 124.96 78.0514 125.863 78.0524L127.771 78.0544C127.848 78.0544 127.926 78.1343 127.926 78.2142L127.925 78.5866C127.925 78.8259 127.744 78.9854 127.538 78.9852ZM126.535 76.5897L126.767 76.6166C127.076 76.617 127.257 76.4043 127.257 76.0585C127.258 75.7926 127.181 75.553 127.052 75.2868C127.052 75.2601 127.026 75.2336 127.026 75.2069C127.026 75.1537 127.052 75.1271 127.078 75.1005C127.104 75.0739 127.181 75.0208 127.181 75.0208C127.259 74.9677 127.362 74.9145 127.439 74.9146C127.568 74.9147 127.697 74.9947 127.748 75.101C127.903 75.3938 127.98 75.7397 127.979 76.1122C127.979 76.5378 127.875 76.8836 127.669 77.1494C127.436 77.4151 127.127 77.5745 126.74 77.5741L125.734 77.573C124.935 77.5722 124.446 77.0396 124.447 76.135C124.448 75.2304 124.912 74.7521 125.737 74.753L126.356 74.7536C126.434 74.7537 126.511 74.8336 126.511 74.9135L126.509 76.5894L126.535 76.5897ZM125.968 76.6158L125.969 75.6049L125.711 75.6046C125.401 75.6043 125.195 75.7903 125.195 76.1096C125.194 76.4288 125.374 76.6152 125.71 76.6155L125.968 76.6158ZM126.542 69.8322L126.774 69.8591C127.084 69.8594 127.264 69.6468 127.265 69.301C127.265 69.035 127.188 68.7955 127.059 68.5292C127.059 68.5026 127.033 68.476 127.033 68.4494C127.033 68.3962 127.059 68.3696 127.085 68.343C127.111 68.3163 127.188 68.2633 127.188 68.2633C127.266 68.2102 127.369 68.157 127.446 68.157C127.575 68.1572 127.704 68.2371 127.755 68.3435C127.91 68.6363 127.987 68.9822 127.986 69.3547C127.986 69.7803 127.882 70.1261 127.676 70.3919C127.444 70.6576 127.134 70.8169 126.747 70.8165L125.742 70.8155C124.942 70.8147 124.453 70.282 124.454 69.3775C124.455 68.4729 124.919 67.9946 125.744 67.9955L126.363 67.9961C126.441 67.9962 126.518 68.0761 126.518 68.1559L126.516 69.8319L126.542 69.8319L126.542 69.8322ZM125.975 69.8583L125.976 68.8474L125.718 68.8471C125.408 68.8468 125.202 69.0327 125.202 69.352C125.201 69.6713 125.382 69.8577 125.717 69.858L125.975 69.8583ZM127.918 85.5036L127.918 85.1312C127.918 85.0514 127.841 84.9715 127.764 84.9714L125.856 84.9694C124.979 84.9685 124.463 85.4469 124.462 86.2449C124.462 86.4844 124.513 86.7504 124.564 86.9101L123.61 86.9091C123.404 86.9089 123.223 87.0949 123.223 87.3079L123.223 87.6803C123.223 87.7601 123.3 87.84 123.377 87.8401L127.761 87.8447C127.838 87.8448 127.916 87.765 127.916 87.6852L127.916 87.0733C127.917 86.9935 127.839 86.9136 127.762 86.9135L125.338 86.911C125.287 86.7779 125.261 86.5916 125.261 86.4586C125.262 86.0595 125.442 85.9002 125.881 85.9006L127.557 85.9024C127.737 85.8759 127.918 85.7165 127.918 85.5036L127.918 85.5036ZM125.756 81.484L126.71 81.485C127.51 81.4859 127.999 82.045 127.998 82.9762C127.997 83.9074 127.506 84.4655 126.707 84.4647L125.753 84.4637C124.954 84.4629 124.464 83.9037 124.465 82.9725C124.466 82.0413 124.957 81.4832 125.756 81.484ZM125.755 82.4151C125.446 82.4148 125.239 82.6007 125.239 82.9467C125.238 83.2926 125.419 83.479 125.754 83.4793L126.708 83.4803C127.018 83.4806 127.198 83.2947 127.199 82.9487C127.199 82.6028 127.019 82.4164 126.709 82.4161L125.755 82.4151ZM125.311 88.3474C126.136 88.3483 126.703 88.9873 126.702 89.8387C126.701 90.0515 126.675 90.2378 126.598 90.4239L127.758 90.4251C127.836 90.4252 127.913 90.5051 127.913 90.5849L127.912 91.1968C127.912 91.2766 127.835 91.3564 127.757 91.3563L123.657 91.352C123.554 91.3519 123.477 91.272 123.451 91.1922C123.323 90.7929 123.246 90.3939 123.246 89.9682C123.247 89.0105 123.815 88.346 124.692 88.3469C124.692 88.3468 125.311 88.3474 125.311 88.3474L125.311 88.3474ZM124.639 89.3045C124.227 89.304 124.02 89.5965 124.02 89.9956C124.019 90.235 124.097 90.3948 124.097 90.3948L125.798 90.3965C125.876 90.237 125.902 90.1572 125.902 89.971C125.903 89.5719 125.671 89.279 125.284 89.2786L124.639 89.278L124.639 89.3045L124.639 89.3045ZM125.329 71.161C126.154 71.1619 126.72 71.8009 126.72 72.6523C126.719 72.8651 126.693 73.0514 126.616 73.2374L127.776 73.2387C127.854 73.2387 127.931 73.3186 127.931 73.3985L127.93 74.0104C127.93 74.0902 127.853 74.1699 127.775 74.1699L123.675 74.1656C123.572 74.1655 123.495 74.0856 123.469 74.0057C123.34 73.6065 123.264 73.2074 123.264 72.7818C123.265 71.8241 123.833 71.1596 124.71 71.1605C124.71 71.1604 125.329 71.161 125.329 71.161L125.329 71.161ZM124.657 72.118C124.245 72.1176 124.038 72.41 124.038 72.8091C124.037 73.0486 124.115 73.2083 124.115 73.2083L125.816 73.2101C125.894 73.0505 125.92 72.9707 125.92 72.7846C125.92 72.3855 125.689 72.0926 125.302 72.0922L124.657 72.0915L124.657 72.118L124.657 72.118Z" fill="#5F259F"/>
<path d="M129.631 98.2672C129.634 95.6327 127.501 93.4948 124.866 93.4921C122.232 93.4893 120.094 95.6227 120.091 98.2572C120.088 100.892 122.222 103.03 124.856 103.032C127.491 103.035 129.628 100.902 129.631 98.2672Z" fill="#5F259F"/>
<path d="M123.617 96.1237C123.431 96.1235 123.271 96.2801 123.27 96.4629L123.27 97.0898L121.588 98.5248C121.428 98.6553 121.375 98.8642 121.428 99.0732L121.587 99.5697C121.614 99.6481 121.72 99.6744 121.774 99.6221L123.295 98.0563L123.293 100.434C123.293 100.512 123.346 100.565 123.426 100.565L123.693 100.565C123.879 100.565 124.039 100.408 124.04 100.226L124.04 99.8599L125.32 99.8613C126.28 99.8623 126.84 99.3665 126.841 98.5305C126.842 98.2693 126.815 98.0601 126.709 97.7988L127.562 97.7997C127.802 97.8 127.989 97.6174 127.989 97.3822L127.989 97.0165C127.99 96.9381 127.91 96.8596 127.83 96.8595L124.016 96.8556L124.017 96.2547C124.017 96.1763 123.964 96.124 123.884 96.1239L123.617 96.1237L123.617 96.1237ZM125.909 97.798C125.988 97.9549 126.015 98.1639 126.015 98.3206C126.014 98.7386 125.801 98.9473 125.321 98.9468L124.041 98.9455L124.042 97.7961L125.909 97.798Z" fill="white"/>
</g>
</svg>
