<svg width="55" height="45" viewBox="0 0 55 45" fill="none" xmlns="http://www.w3.org/2000/svg">
<path d="M20.5 0C9.17783 0 0 9.17783 0 20.5C0 31.8222 9.17783 41 20.5 41C31.8222 41 41 31.8222 41 20.5C41 9.17783 31.8222 0 20.5 0ZM29.5773 33.8316C20.5406 39.0082 9.21839 34.2734 6.74516 25.9711C6.74516 25.9711 14.1613 27.7283 22.9529 25.1317C31.4765 22.6144 36.5993 17.4034 36.5993 17.4034C36.5993 17.4034 38.3654 28.797 29.5773 33.8316Z" fill="#009639"/>
<path d="M46.7128 23.7469C42.4325 20.081 36.1727 20.3672 32.7305 24.3862C29.2884 28.4052 29.9678 34.6346 34.2481 38.3006C38.5284 41.9665 44.7883 41.6803 48.2304 37.6613C51.6725 33.6423 50.9931 27.4129 46.7128 23.7469ZM39.8591 38.6951C34.869 37.6067 32.0282 32.26 33.6172 28.5122C33.6172 28.5122 35.8866 31.5372 39.9997 33.4621C43.9873 35.3283 47.5082 35.1372 47.5082 35.1372C47.5082 35.1372 44.712 39.7534 39.8591 38.6951Z" fill="#009639"/>
</svg>
