<svg width="344" height="96" viewBox="0 0 344 96" fill="none" xmlns="http://www.w3.org/2000/svg">
<path d="M333.5 1.90234H10.5C4.97715 1.90234 0.5 6.3795 0.5 11.9023V85.0925C0.5 90.6154 4.97716 95.0925 10.5 95.0925H333.5C339.023 95.0925 343.5 90.6154 343.5 85.0925V11.9023C343.5 6.3795 339.023 1.90234 333.5 1.90234Z" fill="#FFE200"/>
<mask id="mask0_504_4274" style="mask-type:alpha" maskUnits="userSpaceOnUse" x="0" y="1" width="344" height="95">
<path d="M333.5 1.90234H10.5C4.97715 1.90234 0.5 6.3795 0.5 11.9023V85.0925C0.5 90.6154 4.97716 95.0925 10.5 95.0925H333.5C339.023 95.0925 343.5 90.6154 343.5 85.0925V11.9023C343.5 6.3795 339.023 1.90234 333.5 1.90234Z" fill="#FFE200"/>
</mask>
<g mask="url(#mask0_504_4274)">
<ellipse cx="113" cy="76.5471" rx="88.5" ry="84.1564" fill="white" fill-opacity="0.2"/>
<ellipse cx="113" cy="83.2031" rx="81.5" ry="77.5" fill="#E5C400" fill-opacity="0.4"/>
<path d="M137.605 28.3031C136.961 27.9321 136.099 27.7095 135.472 27.432C135.001 27.2224 134.377 27.0514 134.197 26.532C134.119 26.3126 134.112 26.0771 134.102 25.848C134.092 25.619 134.075 25.3835 133.983 25.1673C133.912 25.0028 133.797 24.8512 133.763 24.677C133.719 24.4576 133.807 24.2414 133.854 24.0317C133.905 23.8059 133.875 23.6382 133.797 23.4252C133.637 22.9897 133.756 22.4703 134.088 22.138C134.177 22.0477 134.282 21.9703 134.346 21.867C134.485 21.6476 134.427 21.3638 134.499 21.1153C134.811 20.0056 136.842 20.896 137.473 21.2444C137.653 21.3444 138.551 21.8154 138.952 22.0445C139.043 21.5347 139.169 21.0573 139.565 20.2475C140.111 19.1377 141.448 18.9377 141.356 19.6571C141.305 20.0701 141.088 20.9024 141.166 22.0509C141.197 22.5316 141.241 23.1671 141.451 23.9995C141.614 24.6479 141.878 25.89 142.492 27.1772C143.326 29.0451 147.433 34.5101 147.433 34.5101C149.478 33.4036 155.745 29.8678 158.241 28.4289C160.975 26.8514 164.176 27.3869 164.176 27.3869L159.059 34.8456C159.059 34.8456 151.221 38.8331 148.732 40.1203C146.691 41.1752 145.069 41.585 143.618 38.9299C141.37 34.8101 138.701 29.1451 137.598 28.3063L137.605 28.3031Z" fill="#FFA8A7"/>
<path d="M138.362 22.2773C138.989 22.5548 139.115 22.9871 138.979 23.8807C138.898 24.4098 138.935 25.4131 139.488 25.8777C139.488 25.8777 138.989 25.7712 138.742 25.4583C138.491 25.1421 138.416 25.1034 138.236 25.2421C138.057 25.3841 137.789 25.4228 137.789 25.4228C137.789 25.4228 138.101 25.8293 137.748 26.2519C137.395 26.6777 136.086 26.5293 135.086 25.8744C135.086 25.8744 136.758 26.5971 137.229 26.1196C137.701 25.6422 136.866 24.8711 136.205 24.613C136.205 24.613 137.833 25.1937 138.158 24.7001C138.484 24.2066 137.843 23.7259 136.887 23.3678C136.887 23.3678 138.243 23.7743 138.542 23.3549C138.905 22.8451 138.525 22.4774 138.365 22.2773H138.362Z" fill="#F28F8F"/>
<path d="M164.99 24.6403H167.377C171.779 24.6403 175.35 21.2368 175.35 17.0364C175.35 12.2101 171.247 8.29688 166.183 8.29688C163.697 8.29688 161.554 9.24212 160.021 10.7745L159.865 22.6853C159.865 22.6853 162.938 24.6403 164.993 24.6403H164.99Z" fill="black"/>
<path d="M170.453 9.46443L170.08 7.10938C169.382 7.1868 168.9 7.77718 169.002 8.42885C169.104 9.08052 169.755 9.54186 170.453 9.46443Z" fill="black"/>
<path d="M175.252 12.0449C173.919 13.1773 172.783 12.2901 171.596 11.019C170.406 9.74791 169.612 8.57038 170.948 7.43802C172.281 6.30565 174.329 6.41534 175.516 7.68965C176.707 8.96074 176.588 10.9125 175.252 12.0449Z" fill="black"/>
<path d="M159.46 102.736C160.375 101.791 160.552 100.881 160.43 99.1264C160.304 97.3746 158.856 82.0925 158.483 78.2664C157.856 71.84 158.534 53.5835 159.097 49.125L176.613 50.4477C177.915 53.5609 178.875 57.3903 178.668 63.4005C178.512 67.9848 178.617 80.4214 178.617 80.4214C178.617 80.4214 180.808 82.2506 182.375 85.8606C183.759 89.0512 185.346 100.065 185.346 100.065C185.59 100.797 185.787 101.352 185.871 101.462C186.248 101.952 186.519 102.475 186.519 103.069C186.519 104.972 186.306 106.875 185.882 108.734C185.665 109.698 185.034 110.318 184.027 110.698C183.803 110.782 183.562 110.827 183.321 110.808C183.199 110.798 183.067 110.769 182.982 110.689C182.813 110.527 182.969 110.14 182.999 109.947C183.05 109.634 183.08 109.321 183.091 109.005C183.111 108.385 183.091 107.63 183.046 107.014C182.935 105.398 182.687 104.088 182.351 102.907C182.351 102.907 182.212 102.591 182.002 102.114C182.002 102.114 174.209 87.1156 171.998 83.4572C170.237 80.5892 169.074 69.4527 167.826 63.365L166.002 77.9147C166.002 77.9147 166.636 80.5408 166.877 82.5506C167.202 85.2509 165.198 95.8293 164.598 99.5909C164.486 100.291 164.479 100.997 164.57 101.698C164.36 103.327 163.075 103.83 161.749 104.753C161.088 105.211 158.188 106.892 156.435 107.227C155.01 107.501 154.464 106.975 154.268 106.592C156.045 105.591 158.544 103.672 159.46 102.727V102.736Z" fill="#FFA8A7"/>
<path d="M173.257 44.3899C173.257 44.3899 174.838 46.2321 177.296 50.8647C178.948 53.9747 179.053 65.3919 179.053 65.3919C179.053 65.3919 177.615 68.5115 168.55 67.9921L167.875 64.1176L167.295 67.9018C167.072 67.8824 166.844 67.8598 166.614 67.8373C158.8 67.0372 157.342 65.3532 157.342 65.3532C157.342 65.3532 157.905 52.1003 159.604 44.5738C162.246 46.3482 170.086 46.7708 173.257 44.3867V44.3899Z" fill="black"/>
<path d="M167.88 64.1191L166.147 57.7024C166.147 57.7024 162.796 57.3605 160.191 55.5312C160.191 55.5312 160.727 57.8799 165.339 58.5702L167.323 64.8708L167.303 67.9033L167.883 64.1191H167.88Z" fill="#263238"/>
<path d="M174.446 65.8485C177.672 65.1162 178.954 63.8516 178.954 63.8516L179.055 65.3646C179.055 65.3646 177.617 68.4842 168.552 67.9648L168.254 66.2453C168.254 66.2453 171.221 66.5808 174.446 65.8485Z" fill="#37474F"/>
<path d="M157.342 65.3535C157.342 65.3535 157.369 64.7406 157.43 63.6953C157.6 63.7985 159.695 64.8277 162.358 65.4116C165.138 66.0213 167.573 66.1213 167.573 66.1213L167.299 67.9054C167.075 67.886 166.848 67.8634 166.617 67.8409C158.803 67.0408 157.345 65.3568 157.345 65.3568L157.342 65.3535Z" fill="#37474F"/>
<path d="M157.814 33.264C159.564 30.6863 163.051 28.2345 164.18 27.3828L170.138 27.428C170.959 27.4667 172.173 27.5635 172.614 27.6312C173.055 27.699 173.499 27.8635 173.743 27.9861C175.114 28.6829 175.256 29.9766 175.3 31.5122C175.354 33.1962 175.361 33.935 174.876 36.7127L173.991 40.255L173.855 40.8002C173.832 40.8937 173.811 40.9873 173.788 41.0841C173.479 42.3971 173.591 43.794 174.313 45.1102C175.819 47.8557 177.328 49.9881 177.833 52.2915C177.833 52.2915 176.945 51.998 175.833 50.9785C174.863 50.0913 174.276 49.6784 173.499 48.6331C171.617 52.1012 161.548 55.0434 158.384 49.701C158.384 49.701 159.351 45.0941 159.513 43.5456C159.266 42.2068 158.533 39.8904 158.516 39.3775C156.512 37.6579 156.546 35.1416 157.818 33.2672L157.814 33.264Z" fill="#11A64B"/>
<path opacity="0.1" d="M161.688 39.0955C161.688 39.0955 163.848 40.9183 166.503 40.2021C169.159 39.4827 169.684 37.3438 169.684 37.3438C169.684 37.3438 169.769 40.1924 166.429 40.9538C163.207 41.6893 161.688 39.0955 161.688 39.0955Z" fill="black"/>
<path d="M158.522 19.4955C158.821 23.7572 159.865 24.9218 161.012 25.2315C161.778 25.438 163.145 25.3509 164.511 25.1347V27.6995C164.511 27.6995 162.938 29.2738 163.053 30.4481C163.175 31.6257 165.529 31.7547 167.296 30.6062C168.588 29.7674 169.51 28.8093 169.91 28.3544C170.056 28.1899 170.138 27.9802 170.138 27.764V21.7312C170.138 21.7312 170.884 22.4861 172.21 21.6215C173.529 20.7601 173.644 19.1535 172.837 18.2406C172.261 17.5953 170.799 17.5502 170.094 18.5535C169.7 19.2923 169.646 20.031 169.202 19.7246C168.021 18.9148 168.764 16.521 167.34 15.6113C167.34 15.6113 165.739 14.6241 165.2 14.4467C162.656 13.6079 161.032 14.0176 160.499 12.3594C158.716 13.0143 158.193 14.7919 158.522 19.4955Z" fill="#FFA8A7"/>
<path d="M163.698 18.7553C163.681 19.0844 163.935 19.3651 164.268 19.378C164.6 19.3941 164.885 19.1392 164.902 18.807C164.919 18.4779 164.665 18.1972 164.332 18.1843C164 18.1682 163.715 18.4231 163.698 18.7553Z" fill="#263238"/>
<path d="M159.296 18.6063C159.279 18.9161 159.52 19.1806 159.835 19.1935C160.181 19.2096 160.415 18.9999 160.432 18.658C160.449 18.3483 160.208 18.0837 159.893 18.0708C159.581 18.0579 159.313 18.2966 159.296 18.6063Z" fill="#263238"/>
<path d="M162.104 18.0703L162.005 21.661L160.021 21.077L162.104 18.0703Z" fill="#F28F8F"/>
<path d="M164.512 25.1333C165.953 24.9526 168.917 24.1429 169.378 23.0234C169.378 23.0234 169.226 23.7267 168.341 24.4494C167.455 25.172 164.515 25.9882 164.515 25.9882V25.1333H164.512Z" fill="#F28F8F"/>
<path d="M164.168 16.8139L165.579 17.401C165.742 17.0171 165.555 16.5719 165.165 16.4106C164.775 16.2493 164.327 16.4299 164.168 16.8139Z" fill="#263238"/>
<path d="M165.286 21.5664L162.512 22.4858C162.807 23.2246 163.482 23.6214 164.35 23.3859C165.13 23.173 165.584 22.3052 165.286 21.5664Z" fill="#B16668"/>
<path d="M164.947 22.2578C164.258 22.2578 163.702 22.7869 163.695 23.4386C163.899 23.4612 164.116 23.4482 164.35 23.3837C164.869 23.2418 165.235 22.8127 165.34 22.3256C165.215 22.2868 165.086 22.2578 164.947 22.2578Z" fill="#F28F8F"/>
<path d="M161.554 9.61328C158.244 9.99396 156.342 12.3781 156.342 16.4204H159.397C160.818 16.4204 162.022 15.417 162.216 14.075L162.328 16.4204C163.501 16.4204 164.478 15.5654 164.579 14.4524L164.613 14.0685C164.725 15.3945 165.885 16.4204 167.282 16.4204H167.554L167.866 12.2135L161.554 9.61328Z" fill="black"/>
<path d="M137.364 47.5713C139.875 46.1396 143.268 46.2811 146.957 48.207L147.314 48.3994C151.485 50.6945 155.279 54.935 158.031 59.9502C160.783 64.9637 162.48 70.7268 162.48 76.0469V76.1543L162.481 76.1553C162.458 81.7901 160.522 85.726 157.534 87.5039L157.24 87.6699L157.237 87.6709L151.053 91.0781L149.423 87.8018L149.381 87.7168L149.293 87.6816L148.865 87.5C148.578 87.3739 148.29 87.237 147.998 87.0879L147.56 86.8555H147.559C143.388 84.5604 139.594 80.3198 136.842 75.3047C134.09 70.2911 132.394 64.5272 132.394 59.207C132.394 57.5494 132.562 56.0325 132.869 54.6748L132.889 54.5869L132.848 54.5068L131.104 51.0684L137.362 47.5723L137.364 47.5713Z" fill="#FFE200" stroke="white" stroke-width="0.5"/>
<path d="M130.135 51.667C132.808 49.7397 136.53 49.6433 140.705 51.9424C144.884 54.2439 148.686 58.4934 151.443 63.5186C154.2 68.5422 155.901 74.317 155.901 79.6484C155.901 84.984 154.2 88.8183 151.517 90.7539C148.844 92.6812 145.121 92.7775 140.946 90.4785C136.767 88.177 132.966 83.9276 130.208 78.9023C127.451 73.8786 125.75 68.104 125.75 62.7725C125.75 57.4368 127.451 53.6025 130.135 51.667Z" fill="#FFE200" stroke="white" stroke-width="0.5"/>
<path opacity="0.1" d="M162.558 78.8279C162.541 78.9505 162.527 79.0699 162.507 79.1925C162.47 79.4441 162.432 79.6925 162.388 79.9345C162.314 80.3345 162.229 80.7217 162.13 81.0959C162.073 81.3475 162.002 81.5927 161.92 81.8314C161.883 81.9508 161.846 82.0669 161.805 82.1831C161.764 82.3025 161.723 82.4186 161.683 82.5315C161.598 82.7606 161.506 82.9799 161.415 83.1993C161.371 83.3058 161.323 83.409 161.272 83.5155C161.167 83.7381 161.062 83.9574 160.943 84.1704C160.91 84.2349 160.872 84.3026 160.835 84.3672C160.659 84.6801 160.469 84.9769 160.269 85.2608C160.235 85.3092 160.201 85.3543 160.167 85.4027C160.14 85.435 160.116 85.4705 160.092 85.5027C159.594 86.1673 159.027 86.7383 158.407 87.2061C158.359 87.2448 158.312 87.2803 158.264 87.3126C158.173 87.3803 158.085 87.4416 157.993 87.4997C157.884 87.5739 157.773 87.6416 157.661 87.7094C157.562 87.7675 157.457 87.8288 157.355 87.8804V87.8868L151.064 91.3517C153.683 89.8031 155.483 86.6803 156.002 82.3218C156.104 81.4766 156.155 80.5862 156.155 79.6506C156.155 74.9147 154.825 69.8432 152.614 65.2493L159.18 61.6328C161.394 66.2268 162.731 71.3079 162.731 76.047C162.731 76.9794 162.673 77.8633 162.571 78.7021C162.564 78.7441 162.561 78.786 162.554 78.8279H162.558Z" fill="black"/>
<path opacity="0.1" d="M162.575 78.6992C162.524 79.1218 162.463 79.5348 162.388 79.9316C162.314 80.3316 162.229 80.7188 162.13 81.093C162.066 81.3446 161.995 81.5898 161.92 81.8285C161.883 81.9479 161.846 82.064 161.805 82.1802C161.764 82.2996 161.723 82.4157 161.683 82.5286C161.598 82.7577 161.506 82.977 161.415 83.1964C161.371 83.3029 161.323 83.4061 161.272 83.5126C161.167 83.7352 161.062 83.9545 160.943 84.1675C160.91 84.232 160.872 84.2997 160.835 84.3643C160.659 84.6772 160.469 84.974 160.269 85.2579C160.211 85.3418 160.153 85.4224 160.092 85.4998C159.594 86.1644 159.027 86.7354 158.407 87.2032C158.359 87.2419 158.312 87.2774 158.264 87.3097C158.173 87.3774 158.085 87.4387 157.993 87.4968C157.884 87.571 157.773 87.6388 157.661 87.7065C157.562 87.7646 157.457 87.8259 157.355 87.8775V87.8839L151.064 91.3488C153.683 89.8002 155.483 86.6774 156.002 82.3189L162.575 78.6992Z" fill="black"/>
<path opacity="0.4" d="M159.178 61.6331L152.613 65.2496C149.805 59.4071 145.566 54.3356 140.825 51.7257C136.989 49.6126 133.479 49.4739 130.793 50.9547L137.24 47.3544C139.933 45.8187 143.561 46.0478 147.434 48.1802C152.152 50.7773 156.37 55.8197 159.175 61.6331H159.178Z" fill="white"/>
<path d="M151.373 76.8068C151.373 79.8038 150.553 82.2298 149.172 83.7977C147.249 85.9947 144.265 86.5302 140.921 84.6752C137.557 82.8234 134.573 78.9844 132.65 74.6872C131.266 71.5934 130.445 68.2705 130.445 65.2734L151.373 76.81V76.8068Z" fill="black"/>
<path d="M153.234 53.2044C152.61 53.1689 151.993 53.2657 151.383 53.3722C150.121 53.5948 148.91 53.7464 147.669 53.3077C146.954 53.0528 146.109 52.5011 145.973 51.714C145.845 50.9526 146.743 50.6719 147.306 50.3848C148.079 49.9944 148.87 49.6299 149.701 49.3654C151.142 48.9008 152.546 48.8234 154.018 49.1557C154.754 49.3202 155.74 49.546 156.466 49.2202C156.958 48.9976 157.436 48.733 157.921 48.4943C159.183 47.8749 160.448 47.2523 161.709 46.6328C163.449 45.7779 165.189 44.923 166.925 44.0681L169.326 34.2253C169.326 34.2253 169.886 30.183 172.25 27.5859C174.047 27.7376 175.797 28.3279 176.2 29.3829C176.604 30.4378 176.323 31.8896 175.824 34.093C175.325 36.2996 172.738 43.4584 171.731 46.0038C171.269 47.1716 171.042 47.6652 169.418 48.3362C167.007 49.3363 164.588 50.3267 162.164 51.3042C160.909 51.8107 159.651 52.3172 158.393 52.8141C157.599 53.127 156.799 53.4883 155.924 53.527C155.015 53.569 154.136 53.2528 153.231 53.2012L153.234 53.2044Z" fill="#FFA8A7"/>
<path d="M76.9421 37.2929C76.9421 37.2929 84.9854 42.0301 85.7055 42.4093C86.4256 42.7886 87.9025 44.1393 89.4119 42.3629C90.6243 40.9387 98.9117 28.8172 98.9117 28.8172L94.5178 26.8047L86.7959 35.8184L75.1602 27.9425L76.9381 37.2929H76.9421Z" fill="#FFA8A7"/>
<path d="M77.1223 28.6534C79.7342 30.6078 84.1851 33.7659 84.1851 33.7659C83.7945 36.1306 82.7327 38.3096 80.8002 40.1518L76.2598 37.4891L70.625 26.6254C70.625 26.6254 73.5787 26.0062 77.1223 28.6534Z" fill="#11A64B"/>
<path d="M99.4072 22.9277C103.915 20.4517 108.096 20.1411 111.234 21.7607L111.535 21.9238L111.537 21.9248L119.175 26.1807L117.038 30.3857L116.997 30.4668L117.018 30.5547C117.391 32.2026 117.593 34.0415 117.593 36.0527C117.593 42.503 115.53 49.4873 112.188 55.5615C108.95 61.4473 104.524 66.4562 99.6406 69.2949L99.166 69.5625C98.4511 69.9561 97.7477 70.2845 97.0566 70.5635L96.9697 70.5996L96.9268 70.6836L94.9229 74.6963L87.498 70.6211V70.6104L87.3652 70.54C83.493 68.4762 80.9814 63.5577 80.9805 56.4375C80.9805 49.9873 83.0431 43.0029 86.3848 36.9287C89.6228 31.0429 94.049 26.034 98.9326 23.1953L99.4072 22.9277Z" fill="#FFE200" stroke="white" stroke-width="0.5"/>
<path d="M107.426 27.2158C112.502 24.4281 117.043 24.54 120.309 26.8877C123.585 29.2433 125.652 33.9023 125.652 40.3682C125.652 46.832 123.586 53.8312 120.237 59.918C116.992 65.8158 112.556 70.8351 107.661 73.6797L107.186 73.9482C102.109 76.7359 97.568 76.624 94.3027 74.2764C91.0264 71.9207 88.959 67.2609 88.959 60.7949C88.9591 54.3332 91.0253 47.3342 94.374 41.2471C97.619 35.3486 102.056 30.329 106.951 27.4844L107.426 27.2158Z" fill="#FFE200" stroke="white" stroke-width="0.5"/>
<path opacity="0.1" d="M80.9417 59.8023C80.962 59.9493 80.9783 60.0964 81.0027 60.2435C81.0475 60.5492 81.0922 60.8472 81.1492 61.1414C81.2387 61.6251 81.3404 62.0973 81.4625 62.5501C81.5357 62.852 81.6211 63.15 81.7147 63.4403C81.7595 63.5835 81.8083 63.7267 81.8571 63.866C81.9059 64.0092 81.9547 64.1485 82.0036 64.2878C82.1053 64.5665 82.2151 64.8335 82.329 65.0967C82.3819 65.2244 82.443 65.3521 82.4999 65.476C82.626 65.7469 82.7562 66.0101 82.8986 66.2694C82.9393 66.3468 82.9841 66.4281 83.0288 66.5055C83.2444 66.8847 83.4723 67.2447 83.7164 67.5853C83.7571 67.6433 83.7977 67.6975 83.8384 67.7594C83.871 67.7981 83.8995 67.8407 83.932 67.8794C84.5382 68.6844 85.2217 69.3733 85.9784 69.9422C86.0354 69.9886 86.0964 70.0312 86.1534 70.0738C86.2632 70.1551 86.3731 70.2286 86.4829 70.3021C86.6172 70.3912 86.7514 70.4763 86.8857 70.5576C87.0037 70.6311 87.1339 70.7008 87.2559 70.7666V70.7743L94.8883 74.9657C91.7149 73.0926 89.5261 69.3114 88.8996 64.0363C88.7775 63.0145 88.7165 61.9348 88.7165 60.8008C88.7165 55.069 90.3317 48.927 93.0127 43.3694L85.0468 38.9922C82.3575 44.5537 80.7383 50.6996 80.7383 56.4391C80.7383 57.5653 80.8074 58.6373 80.9295 59.6552C80.9376 59.7055 80.9458 59.7558 80.9498 59.8061L80.9417 59.8023Z" fill="black"/>
<path opacity="0.1" d="M80.9219 59.6484C80.9829 60.1593 81.0602 60.6586 81.1497 61.1423C81.2392 61.6261 81.3409 62.0983 81.463 62.5511C81.5403 62.853 81.6257 63.151 81.7152 63.4412C81.76 63.5844 81.8088 63.7276 81.8576 63.867C81.9064 64.0102 81.9553 64.1495 82.0041 64.2888C82.1058 64.5675 82.2156 64.8345 82.3295 65.0977C82.3824 65.2254 82.4435 65.3531 82.5004 65.477C82.6265 65.7479 82.7567 66.0111 82.8991 66.2704C82.9398 66.3478 82.9846 66.429 83.0293 66.5064C83.2449 66.8857 83.4728 67.2456 83.7169 67.5862C83.786 67.6868 83.8593 67.7836 83.9325 67.8804C84.5387 68.6854 85.2222 69.3743 85.9789 69.9432C86.0359 69.9896 86.0969 70.0322 86.1539 70.0748C86.2637 70.156 86.3736 70.2296 86.4834 70.3031C86.6177 70.3921 86.7519 70.4773 86.8862 70.5585C87.0042 70.6321 87.1344 70.7017 87.2564 70.7675V70.7753L94.8888 74.9667C91.7154 73.0935 89.5266 69.3123 88.9001 64.0372L80.9219 59.6562V59.6484Z" fill="black"/>
<path opacity="0.4" d="M85.0392 38.9896L93.0052 43.3668C96.4146 36.2921 101.557 30.1539 107.306 26.9997C111.96 24.4415 116.216 24.2712 119.479 26.067L111.655 21.7092C108.388 19.8476 103.986 20.1262 99.2828 22.7077C93.5585 25.8503 88.4404 31.9536 85.0352 38.9896H85.0392Z" fill="white"/>
<path d="M54.4369 56.2773C53.196 67.11 50.9868 88.9922 50.9868 88.9922C50.9868 88.9922 49.034 91.8252 48.3057 97.0499C47.4066 103.502 46.5156 116.97 46.5156 116.97C46.5156 116.97 48.7085 118.433 51.7965 117.485C51.7965 117.485 59.4085 97.7118 60.8162 91.3607C62.0448 85.8186 64.2214 74.4286 64.2214 74.4286L66.9432 89.9249C66.9432 89.9249 65.8732 93.141 66.0644 97.4757C66.1946 100.46 67.6674 111.753 67.6674 111.753C68.1068 112.987 72.1793 112.902 73.4893 112.105C73.4893 112.105 75.5764 93.1217 75.849 89.9868C76.2111 85.8651 76.8824 56.2773 76.8824 56.2773H54.4328H54.4369Z" fill="black"/>
<path d="M64.2246 74.4333L65.7421 67.7689C65.7421 67.7689 69.1393 67.0335 71.5641 65.1797C71.5641 65.1797 70.6731 67.3044 66.9545 68.9338L65.4045 75.1764L66.7389 88.8692L64.2246 74.4333Z" fill="#263238"/>
<path d="M63.1633 26.1875C59.8353 26.1875 57.4227 26.3617 55.2705 26.8029C53.5903 27.1473 53.0573 29.8371 52.9434 31.6251C52.5813 37.4498 55.299 48.2748 55.299 48.2748L54.0418 58.3179C56.8979 61.2206 69.6565 62.7377 76.9471 58.4805C76.9471 58.4805 77.1424 38.6883 76.9471 35.3483C76.6013 29.4772 73.9568 26.6635 71.6785 26.4971C71.6785 26.4971 66.4913 26.1875 63.1633 26.1875Z" fill="#11A64B"/>
<path d="M60.1223 8.36328C60.1223 8.36328 58.3769 8.59549 57.7382 9.84557C57.1808 10.9331 57.3842 13.5571 58.1247 16.421C58.8651 19.2811 59.5649 21.0072 60.0002 21.7968C60.4355 22.5902 61.3306 22.8108 61.3306 22.8108L61.2452 19.4166L61.115 17.0519C61.115 17.0519 62.7098 14.9775 62.8888 13.2784C63.1126 11.0918 62.6284 10.1939 62.6284 10.1939L60.1223 8.36328Z" fill="black"/>
<path d="M62.9375 11.6517C62.9497 15.1542 65.9441 17.9834 69.626 17.9718C73.308 17.9601 76.282 15.1117 76.2698 11.6091C76.2576 8.10661 73.2632 5.27749 69.5813 5.2891C65.8994 5.30071 62.9253 8.14918 62.9375 11.6517Z" fill="#37474F"/>
<path d="M61.2092 16.6748C60.6111 17.1702 60.1229 15.8892 59.6184 15.3899C59.114 14.8907 57.4703 14.2134 56.6566 15.8582C55.8267 17.534 57.4093 19.8097 58.6379 20.3515C60.4403 21.1449 61.2458 19.4188 61.2458 19.4188L61.437 26.5593C64.5168 30.9985 71.6773 30.1006 68.691 26.838L68.6748 24.512C68.6748 24.512 70.6927 24.7984 71.6773 24.6513C73.3169 24.4036 74.1712 23.231 74.6635 21.5397C75.4528 18.8267 75.4324 14.701 74.338 9.43368C72.5032 8.08297 66.4778 7.87398 62.6291 10.1961C62.9098 14.8674 61.8113 16.1794 61.2092 16.6748Z" fill="#FFA8A7"/>
<path d="M75.5905 5.27164C75.5417 5.18263 75.4563 5.09748 75.3505 5.09748C75.2691 5.09748 75.1918 5.14393 75.1267 5.19037C74.8867 5.35679 74.3496 5.78638 73.6661 6.12309C73.8004 5.49999 73.8085 4.85366 73.6906 4.23056C73.6173 3.84741 73.5034 2.95726 73.003 2.86051C72.706 2.80245 72.4456 3.03854 72.2259 3.23592C70.2243 5.02008 67.6082 4.19573 65.1957 4.26539C63.1777 4.32731 60.7448 5.10909 59.8335 6.97453C59.4185 7.82985 59.3453 8.72774 60.1671 9.31988C60.8709 9.823 61.77 10.0513 62.6285 10.1945C66.6481 10.8602 72.0591 12.1722 75.0331 8.60389C75.4725 8.07754 75.7736 7.50862 75.8428 6.83908C75.9038 6.27403 75.8468 5.79412 75.6027 5.29099C75.6027 5.28325 75.5946 5.27551 75.5905 5.26777V5.27164Z" fill="black"/>
<path d="M68.674 24.5112C68.674 24.5112 65.0124 23.8223 63.7309 23.1799C62.8724 22.7503 62.1645 22.0033 61.957 21.5234C61.957 21.5234 62.2011 22.5568 62.9701 23.4818C63.9099 24.6157 68.6781 25.4401 68.6781 25.4401V24.5151L68.674 24.5112Z" fill="#F28F8F"/>
<path d="M67.7265 15.8331C67.7265 16.2317 67.401 16.5568 66.9942 16.5568C66.5874 16.5568 66.2619 16.2317 66.2578 15.8331C66.2578 15.4345 66.5833 15.1094 66.9901 15.1094C67.3929 15.1094 67.7224 15.4345 67.7265 15.8331Z" fill="#263238"/>
<path d="M66.9415 13.2017L65.3752 14.0299C65.1433 13.6003 65.306 13.0701 65.7373 12.8418C66.1685 12.6134 66.7096 12.776 66.9415 13.2017Z" fill="#263238"/>
<path d="M67.3372 19.5859L71.0801 20.9095C70.714 21.9313 69.5789 22.4615 68.5455 22.0977C67.5121 21.7339 66.971 20.6077 67.3372 19.5859Z" fill="#B16668"/>
<path d="M74.2563 13.761L72.8242 12.7161C73.1131 12.3252 73.6705 12.2439 74.0651 12.5303C74.4597 12.8167 74.5452 13.3701 74.2563 13.7571V13.761Z" fill="#263238"/>
<path d="M73.8203 15.6183C73.8203 16.0169 73.4948 16.342 73.0879 16.342C72.6852 16.342 72.3556 16.0169 72.3516 15.6183C72.3516 15.2196 72.677 14.8945 73.0839 14.8945C73.4907 14.8945 73.8162 15.2196 73.8203 15.6183Z" fill="#263238"/>
<path d="M70.0859 14.9688L70.3422 19.1602L72.6409 18.4055L70.0859 14.9688Z" fill="#F28F8F"/>
<path d="M68.5444 22.1C68.9024 22.2278 69.2727 22.2394 69.6185 22.1658C69.5697 21.2834 68.7967 20.5945 67.8609 20.6178C67.6575 20.6216 67.4622 20.6681 67.2832 20.7339C67.4419 21.3454 67.8975 21.8678 68.5444 22.0962V22.1Z" fill="#F28F8F"/>
<path d="M58.78 54.7436C56.9777 54.1708 56.2738 53.8302 55.4154 51.2411C53.1289 44.356 51.0622 38.6784 50.6228 35.2262C49.7765 28.5501 52.596 27.9424 54.7238 27.2148L57.653 33.9838L61.9615 48.7409C65.4278 50.2232 71.1033 51.3223 75.1676 52.5221C75.7372 52.6885 77.2954 52.8279 77.8894 52.7737C79.3052 52.6421 80.1759 52.4834 80.9692 52.615C80.8878 53.1646 80.8594 53.687 80.8146 54.1824C80.8146 54.1824 82.7675 54.2095 84.9441 53.8225C87.8978 53.3 88.9556 54.2327 86.5267 57.0541C85.1556 58.6486 82.4623 59.2679 78.5363 58.8731C76.9333 58.7106 75.1636 58.3506 72.5313 57.6772C67.3969 56.3652 61.6075 55.6492 58.78 54.7475V54.7436Z" fill="#FFA8A7"/>
<path d="M55.2691 26.7968C50.9484 27.2497 49.1339 30.876 50.033 35.1178C50.6717 38.1211 51.9167 42.2699 52.9297 45.2925C52.9297 45.2925 58.1943 45.2422 60.7208 42.9433C59.7687 39.971 59.6141 39.3479 58.772 36.5304C58.4546 30.876 57.226 28.1359 55.2691 26.793V26.7968Z" fill="#11A64B"/>
<path d="M95.9147 24.9435C96.3948 24.5642 96.9359 24.1733 97.5543 23.7592C97.5543 23.7592 99.3078 23.914 101.44 25.524C102.79 26.5418 106.859 26.4683 106.277 24.6919C105.459 22.1879 102.62 21.2745 101.338 21.0113C99.2224 20.5779 95.4469 22.3233 95.9147 24.9473V24.9435Z" fill="#FFA8A7"/>
<path d="M95.1053 58.8927C93.9255 62.1204 93.775 64.996 94.5113 67.1285C95.5285 70.1163 98.238 71.6566 102.241 70.7433C106.261 69.8376 110.692 66.6718 114.264 62.6661C116.835 59.7828 118.942 56.4699 120.122 53.2422L95.1013 58.8888L95.1053 58.8927Z" fill="black"/>
<path d="M190.671 19.3259C188.527 17.5796 185.381 17.7269 183.645 19.6548C181.909 21.5827 182.239 24.5611 184.383 26.3073C186.527 28.0536 189.673 27.9063 191.409 25.9784C193.146 24.0505 192.815 21.0721 190.671 19.3259ZM187.202 26.4867C184.696 25.9744 183.278 23.4219 184.083 21.6268C184.083 21.6268 185.218 23.0698 187.281 23.9836C189.282 24.8696 191.051 24.7724 191.051 24.7724C191.051 24.7724 189.638 26.9849 187.202 26.4867Z" fill="#11A64B"/>
<path d="M40 19.0156C35.3054 19.0156 31.5 22.6343 31.5 27.0984C31.5 31.5626 35.3054 35.1813 40 35.1813C44.6946 35.1813 48.5 31.5626 48.5 27.0984C48.5 22.6343 44.6946 19.0156 40 19.0156ZM43.7638 32.3549C40.0168 34.3959 35.3223 32.5291 34.2968 29.2556C34.2968 29.2556 37.3718 29.9485 41.0171 28.9246C44.5512 27.9321 46.6753 25.8775 46.6753 25.8775C46.6753 25.8775 47.4076 30.3698 43.7638 32.3549Z" fill="#11A64B"/>
</g>
<path d="M230.194 21.9191C230.807 22.7457 230.967 23.8324 230.674 25.1791C230.42 26.3524 229.767 27.2657 228.714 27.9191C227.674 28.5724 226.38 28.8991 224.834 28.8991C223.74 28.8991 222.754 28.7391 221.874 28.4191C220.994 28.0857 220.294 27.5724 219.774 26.8791C219.267 26.1724 219 25.2657 218.974 24.1591H222.094C222.16 24.9324 222.42 25.4991 222.874 25.8591C223.34 26.2191 224.047 26.3991 224.994 26.3991C225.78 26.3991 226.38 26.2591 226.794 25.9791C227.22 25.6991 227.48 25.3257 227.574 24.8591C227.694 24.2857 227.62 23.8324 227.354 23.4991C227.087 23.1524 226.64 22.9124 226.014 22.7791L224.314 22.3791C222.874 22.0324 221.82 21.4657 221.154 20.6791C220.5 19.8791 220.32 18.7991 220.614 17.4391C220.854 16.2924 221.48 15.4191 222.494 14.8191C223.507 14.2057 224.78 13.8991 226.314 13.8991C227.994 13.8991 229.294 14.2724 230.214 15.0191C231.134 15.7657 231.647 16.7791 231.754 18.0591L228.714 18.4391C228.607 17.7324 228.347 17.2124 227.934 16.8791C227.534 16.5457 226.92 16.3791 226.094 16.3791C225.32 16.3791 224.74 16.5057 224.354 16.7591C223.98 17.0124 223.754 17.3257 223.674 17.6991C223.554 18.2991 223.64 18.7591 223.934 19.0791C224.227 19.3857 224.7 19.6124 225.354 19.7591L227.114 20.1791C228.554 20.5124 229.58 21.0924 230.194 21.9191ZM235.154 14.2591H238.314L237.154 19.7591H242.694L243.854 14.2591H247.014L243.994 28.5391H240.834L242.094 22.5791H236.554L235.294 28.5391H232.134L235.154 14.2591ZM253.822 14.2591H257.522L259.622 28.5391H256.422L256.022 25.3791H250.622L248.922 28.5391H245.702L253.822 14.2591ZM255.762 22.8391L255.082 16.9991L251.942 22.8391H255.762ZM264.334 14.2591H269.514C270.727 14.2591 271.727 14.4724 272.514 14.8991C273.3 15.3257 273.847 15.9257 274.154 16.6991C274.474 17.4724 274.514 18.3857 274.274 19.4391C274.087 20.2391 273.72 20.9191 273.174 21.4791C272.627 22.0391 271.94 22.4724 271.114 22.7791L272.934 28.5391H269.714L268.274 23.2791C268.167 23.2791 268.06 23.2791 267.954 23.2791H265.434L264.314 28.5391H261.314L264.334 14.2591ZM268.334 20.8591C269.12 20.8591 269.767 20.7324 270.274 20.4791C270.78 20.2124 271.1 19.7857 271.234 19.1991C271.434 18.3591 271.334 17.7324 270.934 17.3191C270.534 16.9057 269.88 16.6991 268.974 16.6991H266.814L265.934 20.8591H268.334ZM277.674 14.2591H287.594L287.054 16.7991H280.254L279.594 19.9791H285.974L285.434 22.5191H279.054L278.314 25.9991H285.474L284.694 28.5391H274.654L277.674 14.2591ZM298.295 14.2591H301.995L304.095 28.5391H300.895L300.495 25.3791H295.095L293.395 28.5391H290.175L298.295 14.2591ZM300.235 22.8391L299.555 16.9991L296.415 22.8391H300.235ZM230.681 34.2591H233.841L231.401 45.7991H238.081L237.221 48.5391H227.661L230.681 34.2591ZM246.634 34.2591H250.334L252.434 48.5391H249.234L248.834 45.3791H243.434L241.734 48.5391H238.514L246.634 34.2591ZM248.574 42.8391L247.894 36.9991L244.754 42.8391H248.574ZM265.947 43.0591C265.521 45.0724 264.781 46.5524 263.727 47.4991C262.674 48.4324 261.234 48.8991 259.407 48.8991C258.261 48.8991 257.314 48.7324 256.567 48.3991C255.834 48.0524 255.274 47.5857 254.887 46.9991C254.514 46.3991 254.294 45.7057 254.227 44.9191C254.161 44.1191 254.221 43.2724 254.407 42.3791L256.127 34.2591H259.287L257.487 42.7391C257.367 43.3257 257.327 43.8857 257.367 44.4191C257.421 44.9391 257.621 45.3657 257.967 45.6991C258.314 46.0191 258.867 46.1791 259.627 46.1791C260.574 46.1791 261.281 45.8991 261.747 45.3391C262.227 44.7791 262.594 43.9124 262.847 42.7391L264.647 34.2591H267.787L265.947 43.0591ZM280.147 47.1591C279.494 47.6524 278.674 48.0657 277.687 48.3991C276.714 48.7324 275.647 48.8991 274.487 48.8991C273.314 48.8991 272.3 48.6857 271.447 48.2591C270.607 47.8191 269.927 47.2124 269.407 46.4391C268.9 45.6524 268.574 44.7457 268.427 43.7191C268.294 42.6924 268.354 41.5857 268.607 40.3991C268.887 39.1057 269.387 37.9724 270.107 36.9991C270.827 36.0257 271.714 35.2657 272.767 34.7191C273.834 34.1724 275.007 33.8991 276.287 33.8991C277.834 33.8991 279.087 34.2924 280.047 35.0791C281.007 35.8657 281.554 36.9524 281.687 38.3391L278.547 38.7391C278.427 38.0057 278.147 37.4591 277.707 37.0991C277.267 36.7391 276.694 36.5591 275.987 36.5591C275.267 36.5591 274.62 36.7391 274.047 37.0991C273.487 37.4591 273.02 37.9391 272.647 38.5391C272.274 39.1391 272.007 39.8124 271.847 40.5591C271.634 41.5724 271.594 42.5124 271.727 43.3791C271.86 44.2324 272.18 44.9257 272.687 45.4591C273.207 45.9791 273.934 46.2391 274.867 46.2391C275.454 46.2391 275.967 46.1791 276.407 46.0591C276.847 45.9257 277.227 45.7591 277.547 45.5591L278.067 43.2191H275.267L275.807 40.7191H281.507L280.147 47.1591ZM285.291 34.2591H288.451L287.291 39.7591H292.831L293.991 34.2591H297.151L294.131 48.5391H290.971L292.231 42.5791H286.691L285.431 48.5391H282.271L285.291 34.2591Z" fill="black"/>
<rect x="214.5" y="57.5391" width="99" height="30" rx="15" fill="#11A64B"/>
<path d="M235.403 66.9711H238.439C239.111 66.9711 239.663 67.0551 240.095 67.2111C240.527 67.3671 240.875 67.5711 241.127 67.8231C241.367 68.0751 241.547 68.3511 241.643 68.6631C241.739 68.9751 241.787 69.2751 241.787 69.5631C241.787 70.1151 241.679 70.5831 241.487 70.9551C241.283 71.3391 240.947 71.6511 240.479 71.9031L242.219 75.5391H240.287L238.847 72.3231H237.167V75.5391H235.403V66.9711ZM238.559 70.8351C238.835 70.8351 239.063 70.8111 239.255 70.7511C239.435 70.6911 239.579 70.6071 239.687 70.4991C239.795 70.3911 239.867 70.2591 239.915 70.1031C239.951 69.9591 239.975 69.7911 239.975 69.5991C239.975 69.4551 239.951 69.3111 239.903 69.1671C239.855 69.0231 239.771 68.9031 239.651 68.7951C239.531 68.6871 239.375 68.6031 239.171 68.5431C238.967 68.4831 238.715 68.4471 238.403 68.4471H237.167V70.8351H238.559ZM248.613 73.5831C248.493 74.2911 248.217 74.8311 247.761 75.1911C247.305 75.5511 246.657 75.7311 245.793 75.7311C244.749 75.7311 243.969 75.4431 243.441 74.8671C242.913 74.2911 242.661 73.4751 242.661 72.4191C242.661 71.8911 242.733 71.4231 242.889 71.0151C243.033 70.6071 243.249 70.2471 243.525 69.9591C243.801 69.6711 244.137 69.4551 244.521 69.3111C244.905 69.1671 245.325 69.0831 245.793 69.0831C246.753 69.0831 247.473 69.3591 247.953 69.9111C248.433 70.4631 248.685 71.2071 248.685 72.1431V72.8151H244.341C244.353 73.3191 244.485 73.7151 244.725 74.0031C244.965 74.2911 245.325 74.4231 245.805 74.4231C246.465 74.4231 246.861 74.1471 246.981 73.5831H248.613ZM247.065 71.7111C247.065 71.2791 246.957 70.9431 246.741 70.7031C246.525 70.4631 246.201 70.3431 245.757 70.3431C245.529 70.3431 245.337 70.3791 245.169 70.4511C245.001 70.5231 244.857 70.6311 244.737 70.7511C244.617 70.8711 244.533 71.0151 244.473 71.1831C244.401 71.3511 244.365 71.5191 244.365 71.7111H247.065ZM250.351 70.5831H249.367V69.2751H250.351V69.0711C250.351 68.6871 250.399 68.3631 250.519 68.0751C250.627 67.7991 250.783 67.5711 250.975 67.3911C251.167 67.2231 251.407 67.0911 251.671 67.0071C251.935 66.9231 252.223 66.8751 252.535 66.8751C252.727 66.8751 252.943 66.8871 253.159 66.9111C253.375 66.9351 253.603 66.9831 253.843 67.0551L253.615 68.2791C253.351 68.2191 253.111 68.1831 252.883 68.1831C252.667 68.1831 252.463 68.2551 252.295 68.3751C252.115 68.4951 252.031 68.7231 252.031 69.0351V69.2751H253.483V70.5831H252.031V75.5391H250.351V70.5831ZM260.039 73.5831C259.919 74.2911 259.643 74.8311 259.187 75.1911C258.731 75.5511 258.083 75.7311 257.219 75.7311C256.175 75.7311 255.395 75.4431 254.867 74.8671C254.339 74.2911 254.087 73.4751 254.087 72.4191C254.087 71.8911 254.159 71.4231 254.315 71.0151C254.459 70.6071 254.675 70.2471 254.951 69.9591C255.227 69.6711 255.563 69.4551 255.947 69.3111C256.331 69.1671 256.751 69.0831 257.219 69.0831C258.179 69.0831 258.899 69.3591 259.379 69.9111C259.859 70.4631 260.111 71.2071 260.111 72.1431V72.8151H255.767C255.779 73.3191 255.911 73.7151 256.151 74.0031C256.391 74.2911 256.751 74.4231 257.231 74.4231C257.891 74.4231 258.287 74.1471 258.407 73.5831H260.039ZM258.491 71.7111C258.491 71.2791 258.383 70.9431 258.167 70.7031C257.951 70.4631 257.627 70.3431 257.183 70.3431C256.955 70.3431 256.763 70.3791 256.595 70.4511C256.427 70.5231 256.283 70.6311 256.163 70.7511C256.043 70.8711 255.959 71.0151 255.899 71.1831C255.827 71.3511 255.791 71.5191 255.791 71.7111H258.491ZM261.369 69.2751H263.001V70.1511C263.205 69.8271 263.457 69.5871 263.757 69.4191C264.045 69.2511 264.357 69.1671 264.693 69.1671C264.849 69.1671 264.981 69.1791 265.089 69.1911C265.185 69.2031 265.281 69.2151 265.365 69.2271L265.161 70.7511C264.969 70.7031 264.729 70.6791 264.453 70.6791C264.261 70.6791 264.093 70.7031 263.925 70.7511C263.757 70.7991 263.601 70.8711 263.469 70.9911C263.325 71.1231 263.217 71.2671 263.145 71.4231C263.073 71.5911 263.049 71.7471 263.049 71.9151V75.5391H261.369V69.2751ZM269.189 66.9711H270.797L274.325 72.5871V66.9711H276.065V75.5391H274.469L270.929 69.9711V75.5391H269.189V66.9711ZM280.634 75.7311C279.626 75.7311 278.846 75.4431 278.294 74.8671C277.742 74.2911 277.466 73.4751 277.466 72.3951C277.466 71.8911 277.538 71.4231 277.682 71.0151C277.826 70.6071 278.042 70.2591 278.318 69.9711C278.594 69.6831 278.93 69.4671 279.326 69.3111C279.71 69.1671 280.154 69.0831 280.634 69.0831C281.114 69.0831 281.558 69.1671 281.954 69.3111C282.338 69.4671 282.674 69.6831 282.95 69.9711C283.226 70.2591 283.442 70.6071 283.586 71.0151C283.73 71.4231 283.802 71.8911 283.802 72.3951C283.802 72.9231 283.717 73.3911 283.574 73.7991C283.43 74.2071 283.214 74.5551 282.938 74.8431C282.662 75.1311 282.326 75.3591 281.942 75.5031C281.546 75.6591 281.114 75.7311 280.634 75.7311ZM280.634 74.3871C281.114 74.3871 281.462 74.2191 281.702 73.8711C281.942 73.5351 282.062 73.0431 282.062 72.3951C282.062 71.7591 281.942 71.2671 281.702 70.9311C281.462 70.5951 281.114 70.4271 280.634 70.4271C280.154 70.4271 279.794 70.5951 279.554 70.9311C279.314 71.2671 279.206 71.7591 279.206 72.3951C279.206 73.0431 279.314 73.5471 279.554 73.8831C279.782 74.2191 280.142 74.3871 280.634 74.3871ZM284.263 69.2751H286.087L286.963 73.4271L288.163 69.3231H289.627L290.767 73.4271L291.643 69.2751H293.395L291.571 75.5391H289.939L288.823 71.4111L287.695 75.5391H286.087L284.263 69.2751Z" fill="white"/>
</svg>
