<svg width="57" height="56" viewBox="0 0 57 56" fill="none" xmlns="http://www.w3.org/2000/svg">
<circle opacity="0.9" cx="28.5" cy="28" r="28" fill="#FFE200"/>
<path d="M20.7398 33.5675C20.7398 33.5675 19.8603 32.8282 18.8231 33.1407C17.8707 33.4275 17.7375 34.5257 18.4265 34.9749C18.4265 34.9749 19.1026 35.2765 19.8525 35.5531C21.6576 36.2189 20.8801 37.9653 19.4269 37.9653C18.6991 37.9653 18.0884 37.6467 17.7188 37.2387" stroke="black" stroke-width="1.5" stroke-miterlimit="10"/>
<path d="M25.4296 36.774V34.2551C25.4296 33.5971 24.8962 33.0636 24.2383 33.0636C23.5803 33.0636 23.0469 33.5971 23.0469 34.2551V36.774C23.0469 37.432 23.5803 37.9653 24.2383 37.9653C24.8962 37.9653 25.4296 37.432 25.4296 36.774Z" stroke="black" stroke-width="1.5" stroke-miterlimit="10"/>
<path d="M36.6875 32.4513V34.3235C36.6875 34.9815 37.2209 35.5149 37.8789 35.5149C38.5368 35.5149 39.0703 34.9815 39.0703 34.3235V32.4513" stroke="black" stroke-width="1.5" stroke-miterlimit="10"/>
<path d="M37.8828 35.5146V38.5781" stroke="black" stroke-width="1.5" stroke-miterlimit="10"/>
<path d="M29.9907 34.6148V34.2701C29.9907 33.6039 29.4506 33.0639 28.7844 33.0639H27.5781V35.821H28.7844C29.4506 35.821 29.9907 35.281 29.9907 34.6148Z" stroke="black" stroke-width="1.5" stroke-miterlimit="10"/>
<path d="M27.5781 35.8209V38.5781" stroke="black" stroke-width="1.5" stroke-miterlimit="10"/>
<path d="M28.4375 35.8211L30.3122 38.2334" stroke="black" stroke-width="1.5" stroke-miterlimit="10"/>
<path d="M34.5454 34.6148V34.2701C34.5454 33.6039 34.0053 33.0639 33.3391 33.0639H32.1328V35.821H33.3391C34.0053 35.821 34.5454 35.281 34.5454 34.6148Z" stroke="black" stroke-width="1.5" stroke-miterlimit="10"/>
<path d="M32.1328 35.8209V38.5781" stroke="black" stroke-width="1.5" stroke-miterlimit="10"/>
<path d="M32.9922 35.8211L34.8668 38.2334" stroke="black" stroke-width="1.5" stroke-miterlimit="10"/>
<path d="M25.9475 21.4221H24.1094" stroke="black" stroke-width="1.5" stroke-miterlimit="10"/>
<path d="M33.2991 21.4221H31.4609" stroke="black" stroke-width="1.5" stroke-miterlimit="10"/>
<path d="M26.4688 25.6899C27.703 24.4557 29.7041 24.4557 30.9383 25.6899" stroke="black" stroke-width="1.5" stroke-miterlimit="10"/>
<path d="M22.2075 30.613H20.3694C19.3542 30.613 18.5312 29.7901 18.5312 28.7749C18.5312 27.7598 19.3542 26.9368 20.3694 26.9368H22.2075C23.2227 26.9368 24.0457 27.7598 24.0457 28.7749C24.0457 29.7901 23.2227 30.613 22.2075 30.613Z" stroke="black" stroke-width="1.5" stroke-miterlimit="10"/>
<path d="M37.0356 30.613H35.1975C34.1824 30.613 33.3594 29.7901 33.3594 28.7749C33.3594 27.7598 34.1824 26.9368 35.1975 26.9368H37.0356C38.0508 26.9368 38.8738 27.7598 38.8738 28.7749C38.8738 29.7901 38.0508 30.613 37.0356 30.613Z" stroke="black" stroke-width="1.5" stroke-miterlimit="10"/>
<path d="M21.5187 26.9368C20.8257 25.7271 20.4297 24.3256 20.4297 22.8316C20.4297 18.2633 24.133 14.56 28.7013 14.56C33.2696 14.56 36.9729 18.2633 36.9729 22.8316C36.9729 24.3256 36.5768 25.7271 35.884 26.9368" stroke="black" stroke-width="1.5" stroke-miterlimit="10"/>
<path d="M38.8749 28.775H43.4702V42.2546H13.9375V28.775H18.5328" stroke="black" stroke-width="1.5" stroke-miterlimit="10"/>
<path d="M24.0469 28.7749H33.3601" stroke="black" stroke-width="1.5" stroke-miterlimit="10"/>
</svg>
