<svg width="148" height="103" viewBox="0 0 148 103" fill="none" xmlns="http://www.w3.org/2000/svg">
<g filter="url(#filter0_d_28773_257986)">
<path d="M7.05451 75.221C5.57828 74.0572 4.80693 72.4005 4.74045 70.2509L10.7114 70.1412C10.7883 70.9041 11.0366 71.4595 11.4564 71.8073C11.8933 72.137 12.5294 72.2942 13.3646 72.2788C14.7862 72.2527 15.565 71.8474 15.7007 71.0628C15.7914 70.5456 15.6732 70.1745 15.3462 69.9494C15.037 69.724 14.5958 69.5455 14.0228 69.4138L12.0071 68.9176C10.6455 68.5871 9.50283 68.1459 8.57895 67.5941C7.67284 67.0419 7.02834 66.325 6.64546 65.4432C6.2798 64.5434 6.20992 63.4338 6.43583 62.1142C6.72457 60.5269 7.57465 59.2671 8.98605 58.3346C10.3975 57.4021 12.2049 56.9157 14.4085 56.8752C16.7898 56.8314 18.6802 57.3033 20.0799 58.2908C21.4795 59.2783 22.2709 60.7213 22.4541 62.6199L16.5821 63.341C16.3121 62.0839 15.4929 61.4679 14.1246 61.4931C13.5914 61.5029 13.1588 61.5997 12.8267 61.7835C12.5117 61.9493 12.332 62.1748 12.2875 62.46C12.1962 62.9594 12.2875 63.3221 12.5612 63.5482C12.8521 63.7561 13.3199 63.9342 13.9646 64.0823L16.2477 64.6003C18.2173 65.044 19.6722 65.8083 20.6126 66.8931C21.5702 67.9598 21.8748 69.474 21.5265 71.4357C21.2389 73.0585 20.3547 74.3634 18.8738 75.3505C17.393 76.3376 15.5064 76.8522 13.2139 76.8943C10.5839 76.9426 8.53074 76.3848 7.05451 75.221ZM40.8745 68.8673C39.9632 73.8966 36.993 76.4575 31.9639 76.5499C30.2935 76.5805 28.9177 76.3658 27.8366 75.9058C26.755 75.4279 25.9256 74.7677 25.3483 73.9251C24.7705 73.0647 24.411 72.0759 24.2698 70.9587C24.1463 69.8411 24.1986 68.6581 24.4267 67.4096L26.2694 57.1372L32.347 57.0256L30.3441 68.1541C30.2528 68.6535 30.2238 69.1518 30.2569 69.6489C30.3078 70.1456 30.4807 70.5602 30.7755 70.8925C31.0874 71.2067 31.5811 71.3576 32.2564 71.3452C33.0383 71.3309 33.6348 71.0711 34.0459 70.5658C34.4748 70.0602 34.7869 69.2279 34.9822 68.0689L36.9851 56.9404L43.036 56.8293L40.8745 68.8673ZM46.1089 56.7728L53.9191 56.6293C55.6429 56.5977 57.0739 56.8736 58.2121 57.457C59.3681 58.0402 60.1764 58.8785 60.6369 59.9721C61.1153 61.0654 61.1998 62.3614 60.8905 63.8602C60.6914 64.8949 60.249 65.8273 59.5635 66.6576C58.8779 67.4878 58.0006 68.1527 56.9314 68.6523L59.7321 75.5599L53.7345 75.67L51.6532 69.6025L49.4408 69.6431L48.35 75.7689L42.6723 75.8732L46.1089 56.7728ZM52.5035 65.1875C53.2499 65.1738 53.85 65.0294 54.3038 64.7545C54.757 64.4617 55.0381 64.0655 55.1471 63.5658C55.3179 62.7628 55.2101 62.1515 54.8237 61.732C54.4551 61.3122 53.8532 61.1099 53.018 61.1253L50.9921 61.1625L50.2378 65.2291L52.5035 65.1875ZM64.8774 56.4281L71.5148 56.3061C74.2515 56.2559 76.2368 56.9215 77.4708 58.3031C78.7221 59.6666 79.1277 61.57 78.6876 64.0133C78.4906 65.1189 78.0408 66.096 77.338 66.9443C76.6524 67.7746 75.7659 68.4307 74.6784 68.9129C73.5904 69.3772 72.3355 69.6225 70.9139 69.6486L68.2749 69.6971L67.2518 75.4217L61.4408 75.5285L64.8774 56.4281ZM70.7955 64.9581C71.5241 64.9447 72.1153 64.8006 72.5691 64.5256C73.0229 64.2506 73.2868 63.8725 73.3608 63.3912C73.4966 62.6066 73.3893 62.0131 73.039 61.6107C72.706 61.1902 72.1218 60.9876 71.2866 61.003L69.8472 61.0294L69.1428 64.9885L70.7955 64.9581ZM82.6307 56.1019L90.4409 55.9585C92.1647 55.9268 93.5957 56.2027 94.7339 56.7862C95.8899 57.3693 96.6982 58.2077 97.1587 59.3013C97.6371 60.3945 97.7216 61.6906 97.4123 63.1894C97.2132 64.224 96.7708 65.1564 96.0853 65.9867C95.3997 66.8169 94.5223 67.4819 93.4532 67.9814L96.2539 74.889L90.2563 74.9992L88.175 68.9316L85.9626 68.9722L84.8718 75.0981L79.1941 75.2024L82.6307 56.1019ZM89.0253 64.5166C89.7717 64.5029 90.3718 64.3586 90.8256 64.0836C91.2788 63.7909 91.5599 63.3946 91.6689 62.8949C91.8397 62.0919 91.7319 61.4806 91.3455 61.0611C90.9769 60.6413 90.375 60.4391 89.5398 60.4544L87.5139 60.4916L86.7595 64.5582L89.0253 64.5166ZM101.399 55.7572L107.45 55.646L104.013 74.7465L97.9626 74.8576L101.399 55.7572ZM109.696 73.3356C108.219 72.1718 107.448 70.5151 107.382 68.3655L113.352 68.2558C113.429 69.0187 113.678 69.5741 114.097 69.9219C114.534 70.2516 115.17 70.4088 116.006 70.3934C117.427 70.3673 118.206 69.962 118.342 69.1773C118.432 68.6602 118.314 68.2891 117.987 68.064C117.678 67.8386 117.237 67.6601 116.664 67.5284L114.648 67.0322C113.287 66.7017 112.144 66.2605 111.22 65.7087C110.314 65.1565 109.669 64.4396 109.287 63.5578C108.921 62.658 108.851 61.5484 109.077 60.2288C109.366 58.6415 110.216 57.3817 111.627 56.4492C113.039 55.5167 114.846 55.0303 117.05 54.9898C119.431 54.946 121.321 55.4179 122.721 56.4054C124.121 57.3929 124.912 58.8359 125.095 60.7345L119.223 61.4556C118.953 60.1985 118.134 59.5825 116.766 59.6077C116.233 59.6175 115.8 59.7143 115.468 59.8981C115.153 60.0639 114.973 60.2894 114.929 60.5746C114.837 61.074 114.929 61.4367 115.202 61.6628C115.493 61.8707 115.961 62.0488 116.606 62.1969L118.889 62.7149C120.858 63.1586 122.313 63.9229 123.254 65.0077C124.211 66.0744 124.516 67.5886 124.168 69.5503C123.88 71.1731 122.996 72.478 121.515 73.4651C120.034 74.4522 118.147 74.9668 115.855 75.0089C113.225 75.0572 111.172 74.4994 109.696 73.3356ZM129.07 55.2489L143.225 54.9889L142.383 59.6704L134.173 59.8212L133.741 62.2554L141.418 62.1144L140.576 66.7959L132.899 66.9369L132.42 69.5587L141.083 69.3995L139.948 74.0864L125.634 74.3493L129.07 55.2489Z" fill="#11A64B"/>
</g>
<g clip-path="url(#clip0_28773_257986)">
<path d="M83.15 21.1173C76.5855 16.0648 67.1693 17.287 62.1168 23.8472C57.0601 30.4117 58.2865 39.8279 64.851 44.8846C71.4154 49.9413 80.8316 48.7191 85.8883 42.1547C90.9408 35.5902 89.7187 26.174 83.1542 21.1173H83.15ZM66.1991 42.5621C62.6544 39.8321 61.1844 35.3928 61.9824 31.1635C62.4402 31.5709 62.9106 31.9657 63.402 32.3479C69.9371 37.3794 77.9925 38.7485 84.6452 36.6318C84.2168 37.8456 83.6036 39.0215 82.7678 40.1051C78.7065 45.3802 71.2852 46.4806 66.1949 42.5621H66.1991Z" fill="#FFCB29"/>
</g>
<g clip-path="url(#clip1_28773_257986)">
<path d="M66.88 1.66151C63.379 -1.03315 58.357 -0.381325 55.6623 3.11749C52.9654 6.61854 53.6195 11.6405 57.1205 14.3374C60.6216 17.0343 65.6435 16.3825 68.3405 12.8814C71.0351 9.3804 70.3833 4.35842 66.8822 1.66151H66.88ZM57.8395 13.0987C55.949 11.6428 55.165 9.27512 55.5906 7.01949C55.8348 7.23676 56.0857 7.44732 56.3477 7.65115C59.8331 10.3346 64.1293 11.0648 67.6774 9.93591C67.449 10.5833 67.1219 11.2104 66.6762 11.7884C64.5101 14.6017 60.5521 15.1886 57.8373 13.0987H57.8395Z" fill="#FFCB29"/>
</g>
<path d="M58.2162 83.5023L61.4733 83.4247L62.9787 92.9495L68.0774 83.2673L71.4245 83.1875L69.0135 96.1006L66.4222 96.1624L68.018 87.5719L63.4351 96.2336L61.3476 96.2833L59.9743 87.7636L58.3605 96.3545L55.8052 96.4154L58.2162 83.5023ZM73.9266 83.1279L82.8521 82.9151L82.4207 85.2121L76.3024 85.3579L75.7768 88.2332L81.5171 88.0964L81.0858 90.3934L75.3454 90.5302L74.7542 93.6771L81.1964 93.5236L80.549 95.8257L71.5156 96.041L73.9266 83.1279Z" fill="white"/>
<defs>
<filter id="filter0_d_28773_257986" x="0.33252" y="54.5092" width="147.495" height="30.5369" filterUnits="userSpaceOnUse" color-interpolation-filters="sRGB">
<feFlood flood-opacity="0" result="BackgroundImageFix"/>
<feColorMatrix in="SourceAlpha" type="matrix" values="0 0 0 0 0 0 0 0 0 0 0 0 0 0 0 0 0 0 127 0" result="hardAlpha"/>
<feOffset dy="4"/>
<feGaussianBlur stdDeviation="2"/>
<feComposite in2="hardAlpha" operator="out"/>
<feColorMatrix type="matrix" values="0 0 0 0 0 0 0 0 0 0 0 0 0 0 0 0 0 0 1 0"/>
<feBlend mode="normal" in2="BackgroundImageFix" result="effect1_dropShadow_28773_257986"/>
<feBlend mode="normal" in="SourceGraphic" in2="effect1_dropShadow_28773_257986" result="shape"/>
</filter>
<clipPath id="clip0_28773_257986">
<rect width="30" height="30" fill="white" transform="translate(59 18)"/>
</clipPath>
<clipPath id="clip1_28773_257986">
<rect width="16" height="16" fill="white" transform="translate(54)"/>
</clipPath>
</defs>
</svg>

