<svg width="28" height="25" viewBox="0 0 28 25" fill="none" xmlns="http://www.w3.org/2000/svg">
<path d="M25 5.5V1H2V5.5M25 20V24H2V20" stroke="white"/>
<path d="M1.43479 6.96555V8.83555C1.43479 9.10249 1.48172 9.30049 1.57559 9.42955C1.66946 9.55862 1.82639 9.62315 2.04639 9.62315C2.26639 9.62315 2.42186 9.55862 2.51279 9.42955C2.60666 9.30049 2.65359 9.10249 2.65359 8.83555V6.96555H3.30919V8.83555C3.30919 9.07315 3.27986 9.27702 3.22119 9.44715C3.16252 9.61729 3.07892 9.75809 2.97039 9.86955C2.86186 9.97809 2.72839 10.0573 2.56999 10.1072C2.41452 10.16 2.23852 10.1864 2.04199 10.1864C1.84252 10.1864 1.66359 10.16 1.50519 10.1072C1.34972 10.0544 1.21772 9.97369 1.10919 9.86515C1.00066 9.75369 0.918523 9.61142 0.86279 9.43835C0.807057 9.26529 0.77919 9.05995 0.77919 8.82235V6.96555H1.43479Z" fill="white"/>
<path d="M3.84317 7.81035H4.44157V8.12715C4.5325 7.99222 4.63957 7.89395 4.76277 7.83235C4.8889 7.77075 5.01944 7.73995 5.15437 7.73995C5.41544 7.73995 5.60904 7.80889 5.73517 7.94675C5.8613 8.08169 5.92437 8.29582 5.92437 8.58915V10.1072H5.30837V8.67275C5.30837 8.51142 5.27757 8.40142 5.21597 8.34275C5.15437 8.28409 5.07224 8.25475 4.96957 8.25475C4.89037 8.25475 4.82144 8.26649 4.76277 8.28995C4.70704 8.31342 4.65424 8.34715 4.60437 8.39115C4.5633 8.43222 4.5281 8.48209 4.49877 8.54075C4.47237 8.59649 4.45917 8.65809 4.45917 8.72555V10.1072H3.84317V7.81035Z" fill="white"/>
<path d="M6.45148 7.81035H7.06748V10.1072H6.45148V7.81035ZM6.44268 6.96555H7.07628V7.51995H6.44268V6.96555Z" fill="white"/>
<path d="M7.53663 8.94995C7.53663 8.77102 7.55863 8.60822 7.60263 8.46155C7.64956 8.31195 7.71556 8.18435 7.80063 8.07875C7.88569 7.97022 7.98983 7.88662 8.11303 7.82795C8.23916 7.76929 8.37996 7.73995 8.53543 7.73995C8.65863 7.73995 8.77743 7.76342 8.89183 7.81035C9.00916 7.85729 9.11623 7.94382 9.21303 8.06995V7.81035H9.81143V10.9608H9.19543V9.82115C9.11623 9.93849 9.01356 10.028 8.88743 10.0896C8.76129 10.1482 8.63223 10.1776 8.50023 10.1776C8.17463 10.1776 7.93263 10.069 7.77423 9.85195C7.61583 9.63489 7.53663 9.33422 7.53663 8.94995ZM8.22303 9.28875C8.24649 9.38262 8.28023 9.45889 8.32423 9.51755C8.36823 9.57329 8.41956 9.61435 8.47823 9.64075C8.53689 9.66422 8.59996 9.67595 8.66743 9.67595C8.81409 9.67595 8.93436 9.63342 9.02823 9.54835C9.08689 9.48969 9.12943 9.41929 9.15583 9.33715C9.18516 9.25209 9.19983 9.14355 9.19983 9.01155V8.93235C9.19983 8.78569 9.18663 8.66835 9.16023 8.58035C9.13676 8.49235 9.09716 8.42049 9.04143 8.36475C8.98863 8.31195 8.92996 8.27822 8.86543 8.26355C8.80383 8.24595 8.74223 8.23715 8.68063 8.23715C8.61316 8.23715 8.54863 8.25035 8.48703 8.27675C8.42836 8.30315 8.37556 8.34422 8.32863 8.39995C8.28463 8.45569 8.24943 8.52902 8.22303 8.61995C8.19663 8.71089 8.18343 8.81942 8.18343 8.94555C8.18343 9.08342 8.19663 9.19782 8.22303 9.28875Z" fill="white"/>
<path d="M10.3352 7.81035H10.9512V9.24475C10.9512 9.40902 10.9806 9.52049 11.0392 9.57915C11.0979 9.63489 11.1786 9.66275 11.2812 9.66275C11.3604 9.66275 11.425 9.65102 11.4748 9.62755C11.5276 9.60409 11.5775 9.57035 11.6244 9.52635C11.6714 9.48529 11.708 9.43689 11.7344 9.38115C11.7638 9.32249 11.7784 9.25942 11.7784 9.19195V7.81035H12.3944V10.1072H11.796V9.79035C11.7022 9.92529 11.5951 10.0236 11.4748 10.0852C11.3575 10.1468 11.2314 10.1776 11.0964 10.1776C10.8354 10.1776 10.6432 10.1101 10.52 9.97515C10.3968 9.83729 10.3352 9.62169 10.3352 9.32835V7.81035Z" fill="white"/>
<path d="M12.9441 8.44395C12.9998 8.29435 13.0775 8.16675 13.1773 8.06115C13.2799 7.95555 13.4017 7.87635 13.5425 7.82355C13.6833 7.76782 13.8387 7.73995 14.0089 7.73995C14.3609 7.73995 14.6249 7.84115 14.8009 8.04355C14.9798 8.24595 15.0693 8.51875 15.0693 8.86195V9.10835H13.4765C13.4823 9.29315 13.5293 9.43835 13.6173 9.54395C13.7053 9.64662 13.8373 9.69795 14.0133 9.69795C14.2567 9.69795 14.4005 9.59529 14.4445 9.38995H15.0429C15.0018 9.64809 14.8977 9.84462 14.7305 9.97955C14.5662 10.1116 14.3257 10.1776 14.0089 10.1776C13.6275 10.1776 13.3401 10.072 13.1465 9.86075C12.9558 9.64955 12.8605 9.35035 12.8605 8.96315C12.8605 8.76955 12.8883 8.59649 12.9441 8.44395ZM14.4753 8.70355C14.4753 8.54515 14.4357 8.42195 14.3565 8.33395C14.2802 8.24595 14.1599 8.20195 13.9957 8.20195C13.9135 8.20195 13.8417 8.21515 13.7801 8.24155C13.7185 8.26795 13.6657 8.30462 13.6217 8.35155C13.5806 8.39555 13.5483 8.44835 13.5249 8.50995C13.5014 8.56862 13.4882 8.63315 13.4853 8.70355H14.4753Z" fill="white"/>
<path d="M16.5545 7.84995C16.6219 7.64755 16.7187 7.47449 16.8449 7.33075C16.971 7.18702 17.1235 7.07702 17.3025 7.00075C17.4814 6.92449 17.6838 6.88635 17.9097 6.88635C18.1091 6.88635 18.2822 6.91129 18.4289 6.96115C18.5785 7.01102 18.7031 7.08289 18.8029 7.17675C18.9055 7.27062 18.9877 7.38355 19.0493 7.51555C19.1109 7.64755 19.1563 7.79569 19.1857 7.95995L18.5345 8.04355C18.5022 7.85875 18.4391 7.71355 18.3453 7.60795C18.2543 7.50235 18.1091 7.44955 17.9097 7.44955C17.6574 7.44955 17.4653 7.54489 17.3333 7.73555C17.2042 7.92329 17.1397 8.19022 17.1397 8.53635C17.1397 8.88542 17.2086 9.15382 17.3465 9.34155C17.4873 9.52929 17.675 9.62315 17.9097 9.62315C18.1121 9.62315 18.2602 9.57182 18.3541 9.46915C18.4509 9.36355 18.511 9.21395 18.5345 9.02035H19.2385C19.2238 9.18755 19.1842 9.34302 19.1197 9.48675C19.0581 9.62755 18.9715 9.75075 18.8601 9.85635C18.7515 9.95902 18.6166 10.0397 18.4553 10.0984C18.2969 10.157 18.1121 10.1864 17.9009 10.1864C17.6633 10.1864 17.4535 10.1468 17.2717 10.0676C17.0927 9.98835 16.9417 9.87689 16.8185 9.73315C16.6982 9.58942 16.6073 9.41635 16.5457 9.21395C16.4841 9.00862 16.4533 8.78275 16.4533 8.53635C16.4533 8.28115 16.487 8.05235 16.5545 7.84995Z" fill="white"/>
<path d="M19.6472 8.44395C19.7 8.29435 19.7762 8.16822 19.876 8.06555C19.9786 7.95995 20.1018 7.87929 20.2456 7.82355C20.3893 7.76782 20.5492 7.73995 20.7252 7.73995C20.9041 7.73995 21.0654 7.76782 21.2092 7.82355C21.3529 7.87929 21.4746 7.95995 21.5744 8.06555C21.677 8.16822 21.7548 8.29582 21.8076 8.44835C21.8604 8.59795 21.8868 8.76662 21.8868 8.95435C21.8868 9.14502 21.8589 9.31662 21.8032 9.46915C21.7504 9.61875 21.6726 9.74635 21.57 9.85195C21.4702 9.95755 21.3485 10.0382 21.2048 10.094C21.061 10.1497 20.9012 10.1776 20.7252 10.1776C20.3556 10.1776 20.0696 10.072 19.8672 9.86075C19.6648 9.64955 19.5636 9.34742 19.5636 8.95435C19.5636 8.76662 19.5914 8.59649 19.6472 8.44395ZM20.2016 8.95435C20.2016 9.19195 20.2441 9.37382 20.3292 9.49995C20.4142 9.62315 20.5462 9.68475 20.7252 9.68475C20.9012 9.68475 21.0317 9.62169 21.1168 9.49555C21.2048 9.36942 21.2488 9.18902 21.2488 8.95435C21.2488 8.71969 21.2048 8.54075 21.1168 8.41755C21.0317 8.29435 20.9012 8.23275 20.7252 8.23275C20.5492 8.23275 20.4172 8.29435 20.3292 8.41755C20.2441 8.54075 20.2016 8.71969 20.2016 8.95435Z" fill="white"/>
<path d="M23.9469 9.80355C23.7709 10.0529 23.5333 10.1776 23.2341 10.1776C22.9114 10.1776 22.6709 10.069 22.5125 9.85195C22.3541 9.63489 22.2749 9.33422 22.2749 8.94995C22.2749 8.77102 22.2969 8.60822 22.3409 8.46155C22.3878 8.31195 22.4538 8.18435 22.5389 8.07875C22.624 7.97022 22.7281 7.88662 22.8513 7.82795C22.9745 7.76929 23.1138 7.73995 23.2693 7.73995C23.3837 7.73995 23.4966 7.76049 23.6081 7.80155C23.7225 7.84262 23.8296 7.92182 23.9293 8.03915V6.96555H24.5453V10.1072H23.9469V9.80355ZM23.9337 8.93235C23.9337 8.78569 23.9205 8.66835 23.8941 8.58035C23.8706 8.49235 23.831 8.42049 23.7753 8.36475C23.7225 8.31195 23.6638 8.27822 23.5993 8.26355C23.5377 8.24595 23.4761 8.23715 23.4145 8.23715C23.347 8.23715 23.2825 8.25035 23.2209 8.27675C23.1622 8.30315 23.1094 8.34422 23.0625 8.39995C23.0185 8.45569 22.9833 8.52902 22.9569 8.61995C22.9305 8.71089 22.9173 8.81942 22.9173 8.94555C22.9173 9.08342 22.929 9.19929 22.9525 9.29315C22.9789 9.38409 23.0141 9.45889 23.0581 9.51755C23.1021 9.57329 23.1534 9.61435 23.2121 9.64075C23.2708 9.66422 23.3338 9.67595 23.4013 9.67595C23.548 9.67595 23.6682 9.63342 23.7621 9.54835C23.8208 9.48969 23.8633 9.41929 23.8897 9.33715C23.919 9.25209 23.9337 9.14355 23.9337 9.01155V8.93235Z" fill="white"/>
<path d="M25.0956 8.44395C25.1514 8.29435 25.2291 8.16675 25.3288 8.06115C25.4315 7.95555 25.5532 7.87635 25.694 7.82355C25.8348 7.76782 25.9903 7.73995 26.1604 7.73995C26.5124 7.73995 26.7764 7.84115 26.9524 8.04355C27.1314 8.24595 27.2208 8.51875 27.2208 8.86195V9.10835H25.628C25.6339 9.29315 25.6808 9.43835 25.7688 9.54395C25.8568 9.64662 25.9888 9.69795 26.1648 9.69795C26.4083 9.69795 26.552 9.59529 26.596 9.38995H27.1944C27.1534 9.64809 27.0492 9.84462 26.882 9.97955C26.7178 10.1116 26.4772 10.1776 26.1604 10.1776C25.7791 10.1776 25.4916 10.072 25.298 9.86075C25.1074 9.64955 25.012 9.35035 25.012 8.96315C25.012 8.76955 25.0399 8.59649 25.0956 8.44395ZM26.6268 8.70355C26.6268 8.54515 26.5872 8.42195 26.508 8.33395C26.4318 8.24595 26.3115 8.20195 26.1472 8.20195C26.0651 8.20195 25.9932 8.21515 25.9316 8.24155C25.87 8.26795 25.8172 8.30462 25.7732 8.35155C25.7322 8.39555 25.6999 8.44835 25.6764 8.50995C25.653 8.56862 25.6398 8.63315 25.6368 8.70355H26.6268Z" fill="white"/>
<path d="M2.86328 15.6369L1.04603 15.2265L1.72017 13.6291L3.22966 14.5084L2.86328 12.7058H4.73915L4.37277 14.5084L5.88225 13.6291L6.55639 15.2265L4.73915 15.6369L6.20467 17.0877L4.76846 18.1136L3.80121 16.4869L2.83397 18.1136L1.39776 17.0877L2.86328 15.6369Z" fill="white"/>
<path d="M9.27494 15.6369L7.45769 15.2265L8.13183 13.6291L9.64132 14.5084L9.27494 12.7058H11.1508L10.7844 14.5084L12.2939 13.6291L12.968 15.2265L11.1508 15.6369L12.6163 17.0877L11.1801 18.1136L10.2129 16.4869L9.24562 18.1136L7.80941 17.0877L9.27494 15.6369Z" fill="white"/>
<path d="M15.6866 15.6369L13.8693 15.2265L14.5435 13.6291L16.053 14.5084L15.6866 12.7058H17.5625L17.1961 14.5084L18.7056 13.6291L19.3797 15.2265L17.5625 15.6369L19.028 17.0877L17.5918 18.1136L16.6245 16.4869L15.6573 18.1136L14.2211 17.0877L15.6866 15.6369Z" fill="white"/>
<path d="M22.0982 15.6369L20.281 15.2265L20.9551 13.6291L22.4646 14.5084L22.0982 12.7058H23.9741L23.6077 14.5084L25.1172 13.6291L25.7914 15.2265L23.9741 15.6369L25.4396 17.0877L24.0034 18.1136L23.0362 16.4869L22.0689 18.1136L20.6327 17.0877L22.0982 15.6369Z" fill="white"/>
</svg>
