<svg width="25" height="25" viewBox="0 0 25 25" fill="none" xmlns="http://www.w3.org/2000/svg">
<path d="M3.64258 4.02246L5.15375 8.55632L6.66527 4.02246" stroke="white" stroke-width="1.2" stroke-linecap="round" stroke-linejoin="round"/>
<path d="M14.2227 4.02246H16.8676" stroke="white" stroke-width="1.2" stroke-linecap="round" stroke-linejoin="round"/>
<path d="M15.5449 4.02246V8.55632" stroke="white" stroke-width="1.2" stroke-linecap="round" stroke-linejoin="round"/>
<path d="M21.0241 4.02246H19.1348V8.55632H21.0241" stroke="white" stroke-width="1.2" stroke-linecap="round" stroke-linejoin="round"/>
<path d="M19.1348 6.29004H20.6463" stroke="white" stroke-width="1.2" stroke-linecap="round" stroke-linejoin="round"/>
<path d="M10.4456 4.02246C11.4883 4.02246 12.3349 5.03837 12.3349 6.28957C12.3349 7.54076 11.4887 8.55667 10.4456 8.55667C9.40253 8.55667 8.55664 7.54076 8.55664 6.28957C8.55664 5.03837 9.40288 4.02246 10.4456 4.02246Z" stroke="white" stroke-width="1.2" stroke-linecap="round" stroke-linejoin="round"/>
<path d="M23.67 2.51152C23.67 2.1108 23.5109 1.72631 23.2273 1.4427C22.944 1.15909 22.5595 1 22.1588 1H2.51152C2.11045 1 1.72631 1.15909 1.44305 1.4427C1.15909 1.72595 1 2.11045 1 2.51152V10.0681C1 10.9027 1.67657 11.5796 2.51152 11.5796H10.8236V10.0458C10.8236 9.64089 10.9863 9.25322 11.2745 8.96926C11.5627 8.6853 11.9531 8.52868 12.3577 8.53467C13.1835 8.54702 13.8463 9.22006 13.8463 10.0458V11.5796H22.1595C22.5599 11.5796 22.9444 11.4205 23.2276 11.1372C23.5109 10.854 23.67 10.4698 23.67 10.0691V2.51152Z" stroke="white" stroke-width="1.2" stroke-linecap="round" stroke-linejoin="round"/>
<path d="M10.8233 11.5795V14.6022H2.51117C2.11009 14.6022 1.72595 14.4431 1.4427 14.1595C1.15909 13.8763 1 13.4918 1 13.091V10.0684C1 10.903 1.67657 11.5799 2.51152 11.5799H10.8236L10.8233 11.5795Z" stroke="white" stroke-width="1.2" stroke-linecap="round" stroke-linejoin="round"/>
<path d="M13.8461 11.5795V14.6022H22.1582C22.5593 14.6022 22.9434 14.4431 23.2267 14.1595C23.5103 13.8763 23.6693 13.4918 23.6693 13.091V10.0684V10.0691C23.6693 10.4698 23.5103 10.8539 23.227 11.1372C22.9437 11.4204 22.5593 11.5795 22.1589 11.5795H13.8457H13.8461Z" stroke="white" stroke-width="1.2" stroke-linecap="round" stroke-linejoin="round"/>
<path d="M19.8916 21.4033C19.8916 22.6552 18.8767 23.6704 17.6244 23.6704H11.7625C11.1614 23.6704 10.5847 23.4316 10.1596 23.0066C9.51374 22.3607 8.48865 21.3356 7.5052 20.3521C7.04804 19.8953 6.91152 19.2082 7.1588 18.6113C7.40643 18.0145 7.98846 17.6251 8.63469 17.6251H8.63646C9.06892 17.6251 9.48411 17.7968 9.78958 18.1027C10.2323 18.5454 10.8231 19.1362 10.8231 19.1362V10.0682C10.8231 9.66744 10.9822 9.28295 11.2658 8.99934C11.5491 8.71608 11.9336 8.55664 12.3343 8.55664C13.1689 8.55664 13.8458 9.23321 13.8458 10.0678V14.6017H17.6241C18.8763 14.6017 19.8912 15.6165 19.8912 16.8688V21.4026L19.8916 21.4033Z" stroke="white" stroke-width="1.2" stroke-linecap="round" stroke-linejoin="round"/>
</svg>
