<svg width="343" height="126" viewBox="0 0 343 126" fill="none" xmlns="http://www.w3.org/2000/svg">
<g clip-path="url(#clip0_30193_15461)">
<mask id="mask0_30193_15461" style="mask-type:alpha" maskUnits="userSpaceOnUse" x="0" y="-209" width="343" height="598">
<rect y="-208.277" width="343" height="597.277" fill="#00953B"/>
</mask>
<g mask="url(#mask0_30193_15461)">
<rect y="-208.277" width="343" height="597.277" fill="#00953B"/>
<g style="mix-blend-mode:plus-lighter" opacity="0.03">
<path d="M45.0753 3.09082L38.2812 35.9413H50.2902L57.0842 3.09082H45.0753Z" fill="#11A64B"/>
<path d="M74.6247 3.09082L54.1934 35.9413H66.848L69.5993 31.1116H83.5033L84.2964 35.9413H96.0667L88.9498 3.09082H74.6177H74.6247ZM80.5344 11.9314L82.1627 22.4167H74.5404L80.5344 11.9314Z" fill="#11A64B"/>
<path d="M137.218 12.2923C137.716 10.1758 137.513 8.441 136.614 7.09478C135.716 5.74856 134.298 4.74237 132.354 4.08314C130.417 3.42391 128.129 3.09082 125.49 3.09082H106.827L100.033 35.9413H119.068C122.17 35.9413 124.907 35.5805 127.28 34.8588C129.652 34.1371 131.582 33.124 133.07 31.8194C134.558 30.5148 135.505 28.9743 135.906 27.1978C136.306 25.5393 136.299 24.0821 135.885 22.8261C135.463 21.5701 134.705 20.5361 133.603 19.7173C132.874 19.176 131.989 18.7736 130.992 18.4821C132.41 17.9755 133.617 17.3024 134.607 16.4489C135.969 15.2692 136.839 13.8814 137.211 12.2853L137.218 12.2923ZM124.234 26.719C123.826 27.2256 123.258 27.6072 122.514 27.8709C121.77 28.1346 120.872 28.2595 119.812 28.2595H112.512L113.706 22.5069H120.886C121.756 22.5069 122.472 22.5971 123.047 22.7845C123.623 22.9718 124.065 23.2355 124.374 23.5894C124.683 23.9433 124.837 24.3805 124.837 24.9009C124.837 25.6087 124.634 26.2125 124.234 26.719ZM125.7 14.2977C125.378 14.7141 124.893 15.0264 124.262 15.2415C123.623 15.4566 122.844 15.5607 121.91 15.5607H115.144L116.134 10.7726H122.795C123.567 10.7726 124.205 10.842 124.704 10.9808C125.202 11.1196 125.574 11.3416 125.82 11.6469C126.065 11.9523 126.192 12.3339 126.192 12.7989C126.192 13.3818 126.03 13.8814 125.7 14.2908V14.2977Z" fill="#11A64B"/>
<path d="M27.3343 3.09091L23.1933 23.0135C22.8845 24.4222 22.3581 25.4909 21.6141 26.2125C20.8701 26.9342 19.6909 27.2951 18.0767 27.2951C17.2976 27.2951 16.6168 27.191 16.0272 26.9759C15.4377 26.7607 14.9463 26.4554 14.5603 26.0529C14.1743 25.6574 13.8865 25.1647 13.697 24.5818C13.5075 23.9989 13.4163 23.3397 13.4163 22.6041H1.36523C1.36523 23.4299 1.44945 24.443 1.6179 25.6435C1.78634 26.8371 2.15131 28.0792 2.7128 29.3699C3.2743 30.6606 4.13061 31.8611 5.29571 32.9783C6.4608 34.0955 8.01893 35.0115 9.97011 35.7124C11.9213 36.4133 14.4059 36.7672 17.4169 36.7672C22.6598 36.7672 26.6956 35.6569 29.5171 33.4294C32.3386 31.2088 34.1845 27.9959 35.0548 23.7907L39.3362 3.08398H27.3272L27.3343 3.09091Z" fill="#11A64B"/>
<path d="M194.737 3.09082L187.943 35.9413H199.952L206.746 3.09082H194.737Z" fill="#11A64B"/>
<path d="M224.285 3.09082L203.854 35.9413H216.508L219.259 31.1116H233.163L233.957 35.9413H245.727L238.61 3.09082H224.278H224.285ZM230.195 11.9314L231.823 22.4167H224.201L230.195 11.9314Z" fill="#11A64B"/>
<path d="M286.878 12.2923C287.377 10.1758 287.173 8.441 286.275 7.09478C285.376 5.74856 283.958 4.74237 282.014 4.08314C280.077 3.42391 277.789 3.09082 275.15 3.09082H256.487L249.693 35.9413H268.728C271.83 35.9413 274.567 35.5805 276.94 34.8588C279.312 34.1371 281.242 33.124 282.73 31.8194C284.218 30.5148 285.166 28.9743 285.566 27.1978C285.966 25.5393 285.959 24.0821 285.545 22.8261C285.124 21.5701 284.366 20.5361 283.264 19.7173C282.534 19.176 281.649 18.7736 280.653 18.4821C282.07 17.9755 283.278 17.3024 284.267 16.4489C285.629 15.2692 286.499 13.8814 286.871 12.2853L286.878 12.2923ZM273.894 26.719C273.487 27.2256 272.918 27.6072 272.174 27.8709C271.43 28.1346 270.532 28.2595 269.472 28.2595H262.173L263.366 22.5069H270.546C271.416 22.5069 272.132 22.5971 272.708 22.7845C273.283 22.9718 273.725 23.2355 274.034 23.5894C274.343 23.9433 274.497 24.3805 274.497 24.9009C274.497 25.6087 274.294 26.2125 273.894 26.719ZM275.361 14.2977C275.038 14.7141 274.553 15.0264 273.922 15.2415C273.283 15.4566 272.504 15.5607 271.57 15.5607H264.805L265.794 10.7726H272.455C273.227 10.7726 273.866 10.842 274.364 10.9808C274.862 11.1196 275.234 11.3416 275.48 11.6469C275.726 11.9523 275.852 12.3339 275.852 12.7989C275.852 13.3818 275.69 13.8814 275.361 14.2908V14.2977Z" fill="#11A64B"/>
<path d="M176.994 3.09091L172.853 23.0135C172.545 24.4222 172.018 25.4909 171.274 26.2125C170.53 26.9342 169.351 27.2951 167.737 27.2951C166.958 27.2951 166.277 27.191 165.687 26.9759C165.098 26.7607 164.606 26.4554 164.22 26.0529C163.834 25.6574 163.547 25.1647 163.357 24.5818C163.168 23.9989 163.076 23.3397 163.076 22.6041H151.025C151.025 23.4299 151.11 24.443 151.278 25.6435C151.446 26.8371 151.811 28.0792 152.373 29.3699C152.934 30.6606 153.791 31.8611 154.956 32.9783C156.121 34.0955 157.679 35.0115 159.63 35.7124C161.581 36.4133 164.066 36.7672 167.077 36.7672C172.32 36.7672 176.356 35.6569 179.177 33.4294C181.999 31.2088 183.845 27.9959 184.715 23.7907L188.996 3.08398H176.987L176.994 3.09091Z" fill="#11A64B"/>
<path d="M344.392 3.09082L337.598 35.9413H349.607L356.401 3.09082H344.392Z" fill="#11A64B"/>
<path d="M326.649 3.09091L322.508 23.0135C322.199 24.4222 321.673 25.4909 320.929 26.2125C320.185 26.9342 319.005 27.2951 317.391 27.2951C316.612 27.2951 315.931 27.191 315.342 26.9759C314.752 26.7607 314.261 26.4554 313.875 26.0529C313.489 25.6574 313.201 25.1647 313.011 24.5818C312.822 23.9989 312.731 23.3397 312.731 22.6041H300.68C300.68 23.4299 300.764 24.443 300.932 25.6435C301.101 26.8371 301.466 28.0792 302.027 29.3699C302.589 30.6606 303.445 31.8611 304.61 32.9783C305.775 34.0955 307.333 35.0115 309.285 35.7124C311.236 36.4133 313.72 36.7672 316.731 36.7672C321.974 36.7672 326.01 35.6569 328.832 33.4294C331.653 31.2088 333.499 27.9959 334.369 23.7907L338.651 3.08398H326.642L326.649 3.09091Z" fill="#11A64B"/>
<path d="M11.3571 43.9934L-9.07422 76.8439H3.58042L6.33174 72.0142H20.2357L21.0288 76.8439H32.7991L25.6822 43.9934H11.3501H11.3571ZM17.2668 52.834L18.8951 63.3193H11.2729L17.2668 52.834Z" fill="#11A64B"/>
<path d="M73.9485 53.1949C74.4468 51.0784 74.2433 49.3436 73.3449 47.9974C72.4465 46.6511 71.0287 45.645 69.0846 44.9857C67.1474 44.3265 64.8594 43.9934 62.2203 43.9934H43.5577L36.7637 76.8439H55.7983C58.9005 76.8439 61.6378 76.483 64.0101 75.7614C66.3824 75.0397 68.3125 74.0266 69.8005 72.722C71.2884 71.4174 72.2359 69.8769 72.636 68.1004C73.0361 66.4419 73.0291 64.9847 72.615 63.7287C72.1939 62.4727 71.4358 61.4387 70.3339 60.6199C69.604 60.0786 68.7196 59.6762 67.723 59.3847C69.1407 58.8781 70.3479 58.205 71.3376 57.3515C72.6992 56.1718 73.5695 54.784 73.9415 53.1879L73.9485 53.1949ZM60.964 67.6216C60.5569 68.1282 59.9884 68.5098 59.2444 68.7735C58.5005 69.0372 57.6021 69.1621 56.5422 69.1621H49.2429L50.436 63.4095H57.6161C58.4864 63.4095 59.2023 63.4997 59.7778 63.687C60.3534 63.8744 60.7955 64.1381 61.1044 64.492C61.4132 64.8459 61.5676 65.2831 61.5676 65.8035C61.5676 66.5113 61.364 67.115 60.964 67.6216ZM62.4309 55.2003C62.108 55.6167 61.6238 55.929 60.9921 56.1441C60.3534 56.3592 59.5743 56.4633 58.6408 56.4633H51.8749L52.8645 51.6752H59.5252C60.2972 51.6752 60.9359 51.7446 61.4343 51.8834C61.9326 52.0221 62.3046 52.2442 62.5502 52.5495C62.7959 52.8548 62.9222 53.2365 62.9222 53.7014C62.9222 54.2843 62.7608 54.784 62.4309 55.1934V55.2003Z" fill="#11A64B"/>
<path d="M131.466 43.9934L124.672 76.8439H136.681L143.475 43.9934H131.466Z" fill="#11A64B"/>
<path d="M161.015 43.9934L140.584 76.8439H153.239L155.99 72.0142H169.894L170.687 76.8439H182.457L175.34 43.9934H161.008H161.015ZM166.925 52.834L168.553 63.3193H160.931L166.925 52.834Z" fill="#11A64B"/>
<path d="M223.607 53.1949C224.105 51.0784 223.901 49.3436 223.003 47.9974C222.105 46.6511 220.687 45.645 218.743 44.9857C216.806 44.3265 214.518 43.9934 211.879 43.9934H193.216L186.422 76.8439H205.456C208.559 76.8439 211.296 76.483 213.668 75.7614C216.041 75.0397 217.971 74.0266 219.459 72.722C220.947 71.4174 221.894 69.8769 222.294 68.1004C222.694 66.4419 222.687 64.9847 222.273 63.7287C221.852 62.4727 221.094 61.4387 219.992 60.6199C219.262 60.0786 218.378 59.6762 217.381 59.3847C218.799 58.8781 220.006 58.205 220.996 57.3515C222.357 56.1718 223.228 54.784 223.6 53.1879L223.607 53.1949ZM210.622 67.6216C210.215 68.1282 209.647 68.5098 208.903 68.7735C208.159 69.0372 207.26 69.1621 206.2 69.1621H198.901L200.094 63.4095H207.274C208.145 63.4095 208.861 63.4997 209.436 63.687C210.012 63.8744 210.454 64.1381 210.763 64.492C211.071 64.8459 211.226 65.2831 211.226 65.8035C211.226 66.5113 211.022 67.115 210.622 67.6216ZM212.089 55.2003C211.766 55.6167 211.282 55.929 210.65 56.1441C210.012 56.3592 209.232 56.4633 208.299 56.4633H201.533L202.523 51.6752H209.183C209.955 51.6752 210.594 51.7446 211.092 51.8834C211.591 52.0221 211.963 52.2442 212.208 52.5495C212.454 52.8548 212.58 53.2365 212.58 53.7014C212.58 54.2843 212.419 54.784 212.089 55.1934V55.2003Z" fill="#11A64B"/>
<path d="M113.723 43.9935L109.582 63.9161C109.273 65.3248 108.747 66.3934 108.003 67.1151C107.259 67.8368 106.08 68.1977 104.465 68.1977C103.686 68.1977 103.005 68.0936 102.416 67.8785C101.826 67.6633 101.335 67.358 100.949 66.9555C100.563 66.56 100.275 66.0673 100.086 65.4844C99.8962 64.9015 99.8049 64.2423 99.8049 63.5067H87.7539C87.7539 64.3325 87.8381 65.3456 88.0066 66.5461C88.175 67.7397 88.54 68.9818 89.1015 70.2725C89.663 71.5632 90.5193 72.7637 91.6844 73.8809C92.8495 74.9981 94.4076 75.9141 96.3588 76.615C98.31 77.3159 100.795 77.6697 103.806 77.6697C109.049 77.6697 113.084 76.5595 115.906 74.332C118.727 72.1114 120.573 68.8985 121.443 64.6933L125.725 43.9866H113.716L113.723 43.9935Z" fill="#11A64B"/>
<path d="M281.124 43.9934L274.33 76.8439H286.339L293.133 43.9934H281.124Z" fill="#11A64B"/>
<path d="M310.674 43.9934L290.242 76.8439H302.897L305.648 72.0142H319.552L320.345 76.8439H332.116L324.999 43.9934H310.666H310.674ZM316.583 52.834L318.212 63.3193H310.589L316.583 52.834Z" fill="#11A64B"/>
<path d="M373.267 53.1949C373.765 51.0784 373.562 49.3436 372.663 47.9974C371.765 46.6511 370.347 45.645 368.403 44.9857C366.466 44.3265 364.178 43.9934 361.539 43.9934H342.876L336.082 76.8439H355.117C358.219 76.8439 360.956 76.483 363.328 75.7614C365.701 75.0397 367.631 74.0266 369.119 72.722C370.607 71.4174 371.554 69.8769 371.954 68.1004C372.354 66.4419 372.347 64.9847 371.933 63.7287C371.512 62.4727 370.754 61.4387 369.652 60.6199C368.922 60.0786 368.038 59.6762 367.041 59.3847C368.459 58.8781 369.666 58.205 370.656 57.3515C372.018 56.1718 372.888 54.784 373.26 53.1879L373.267 53.1949ZM360.282 67.6216C359.875 68.1282 359.307 68.5098 358.563 68.7735C357.819 69.0372 356.92 69.1621 355.861 69.1621H348.561L349.754 63.4095H356.934C357.805 63.4095 358.521 63.4997 359.096 63.687C359.672 63.8744 360.114 64.1381 360.423 64.492C360.732 64.8459 360.886 65.2831 360.886 65.8035C360.886 66.5113 360.682 67.115 360.282 67.6216ZM361.749 55.2003C361.426 55.6167 360.942 55.929 360.31 56.1441C359.672 56.3592 358.893 56.4633 357.959 56.4633H351.193L352.183 51.6752H358.844C359.616 51.6752 360.254 51.7446 360.753 51.8834C361.251 52.0221 361.623 52.2442 361.869 52.5495C362.114 52.8548 362.241 53.2365 362.241 53.7014C362.241 54.2843 362.079 54.784 361.749 55.1934V55.2003Z" fill="#11A64B"/>
<path d="M263.383 43.9935L259.242 63.9161C258.933 65.3248 258.407 66.3934 257.663 67.1151C256.919 67.8368 255.74 68.1977 254.125 68.1977C253.346 68.1977 252.666 68.0936 252.076 67.8785C251.486 67.6633 250.995 67.358 250.609 66.9555C250.223 66.56 249.935 66.0673 249.746 65.4844C249.556 64.9015 249.465 64.2423 249.465 63.5067H237.414C237.414 64.3325 237.498 65.3456 237.667 66.5461C237.835 67.7397 238.2 68.9818 238.762 70.2725C239.323 71.5632 240.179 72.7637 241.345 73.8809C242.51 74.9981 244.068 75.9141 246.019 76.615C247.97 77.3159 250.455 77.6697 253.466 77.6697C258.709 77.6697 262.744 76.5595 265.566 74.332C268.387 72.1114 270.233 68.8985 271.104 64.6933L275.385 43.9866H263.376L263.383 43.9935Z" fill="#11A64B"/>
<path d="M45.0753 86.0969L38.2812 118.947H50.2902L57.0842 86.0969H45.0753Z" fill="#11A64B"/>
<path d="M74.6247 86.0969L54.1934 118.947H66.848L69.5993 114.118H83.5033L84.2964 118.947H96.0667L88.9498 86.0969H74.6177H74.6247ZM80.5344 94.9376L82.1627 105.423H74.5404L80.5344 94.9376Z" fill="#11A64B"/>
<path d="M137.218 95.2984C137.716 93.1819 137.513 91.4471 136.614 90.1009C135.716 88.7547 134.298 87.7485 132.354 87.0892C130.417 86.43 128.129 86.0969 125.49 86.0969H106.827L100.033 118.947H119.068C122.17 118.947 124.907 118.587 127.28 117.865C129.652 117.143 131.582 116.13 133.07 114.825C134.558 113.521 135.505 111.98 135.906 110.204C136.306 108.545 136.299 107.088 135.885 105.832C135.463 104.576 134.705 103.542 133.603 102.723C132.874 102.182 131.989 101.78 130.992 101.488C132.41 100.982 133.617 100.309 134.607 99.455C135.969 98.2753 136.839 96.8875 137.211 95.2914L137.218 95.2984ZM124.234 109.725C123.826 110.232 123.258 110.613 122.514 110.877C121.77 111.141 120.872 111.266 119.812 111.266H112.512L113.706 105.513H120.886C121.756 105.513 122.472 105.603 123.047 105.791C123.623 105.978 124.065 106.242 124.374 106.596C124.683 106.949 124.837 107.387 124.837 107.907C124.837 108.615 124.634 109.219 124.234 109.725ZM125.7 97.3038C125.378 97.7202 124.893 98.0325 124.262 98.2476C123.623 98.4627 122.844 98.5668 121.91 98.5668H115.144L116.134 93.7787H122.795C123.567 93.7787 124.205 93.8481 124.704 93.9869C125.202 94.1257 125.574 94.3477 125.82 94.653C126.065 94.9584 126.192 95.34 126.192 95.805C126.192 96.3879 126.03 96.8875 125.7 97.2969V97.3038Z" fill="#11A64B"/>
<path d="M27.3343 86.097L23.1933 106.02C22.8845 107.428 22.3581 108.497 21.6141 109.219C20.8701 109.94 19.6909 110.301 18.0767 110.301C17.2976 110.301 16.6168 110.197 16.0272 109.982C15.4377 109.767 14.9463 109.462 14.5603 109.059C14.1743 108.663 13.8865 108.171 13.697 107.588C13.5075 107.005 13.4163 106.346 13.4163 105.61H1.36523C1.36523 106.436 1.44945 107.449 1.6179 108.65C1.78634 109.843 2.15131 111.085 2.7128 112.376C3.2743 113.667 4.13061 114.867 5.29571 115.984C6.4608 117.102 8.01893 118.018 9.97011 118.719C11.9213 119.419 14.4059 119.773 17.4169 119.773C22.6598 119.773 26.6956 118.663 29.5171 116.435C32.3386 114.215 34.1845 111.002 35.0548 106.797L39.3362 86.0901H27.3272L27.3343 86.097Z" fill="#11A64B"/>
<path d="M194.737 86.0969L187.943 118.947H199.952L206.746 86.0969H194.737Z" fill="#11A64B"/>
<path d="M224.285 86.0969L203.854 118.947H216.508L219.259 114.118H233.163L233.957 118.947H245.727L238.61 86.0969H224.278H224.285ZM230.195 94.9376L231.823 105.423H224.201L230.195 94.9376Z" fill="#11A64B"/>
<path d="M286.878 95.2984C287.377 93.1819 287.173 91.4471 286.275 90.1009C285.376 88.7547 283.958 87.7485 282.014 87.0892C280.077 86.43 277.789 86.0969 275.15 86.0969H256.487L249.693 118.947H268.728C271.83 118.947 274.567 118.587 276.94 117.865C279.312 117.143 281.242 116.13 282.73 114.825C284.218 113.521 285.166 111.98 285.566 110.204C285.966 108.545 285.959 107.088 285.545 105.832C285.124 104.576 284.366 103.542 283.264 102.723C282.534 102.182 281.649 101.78 280.653 101.488C282.07 100.982 283.278 100.309 284.267 99.455C285.629 98.2753 286.499 96.8875 286.871 95.2914L286.878 95.2984ZM273.894 109.725C273.487 110.232 272.918 110.613 272.174 110.877C271.43 111.141 270.532 111.266 269.472 111.266H262.173L263.366 105.513H270.546C271.416 105.513 272.132 105.603 272.708 105.791C273.283 105.978 273.725 106.242 274.034 106.596C274.343 106.949 274.497 107.387 274.497 107.907C274.497 108.615 274.294 109.219 273.894 109.725ZM275.361 97.3038C275.038 97.7202 274.553 98.0325 273.922 98.2476C273.283 98.4627 272.504 98.5668 271.57 98.5668H264.805L265.794 93.7787H272.455C273.227 93.7787 273.866 93.8481 274.364 93.9869C274.862 94.1257 275.234 94.3477 275.48 94.653C275.726 94.9584 275.852 95.34 275.852 95.805C275.852 96.3879 275.69 96.8875 275.361 97.2969V97.3038Z" fill="#11A64B"/>
<path d="M176.994 86.097L172.853 106.02C172.545 107.428 172.018 108.497 171.274 109.219C170.53 109.94 169.351 110.301 167.737 110.301C166.958 110.301 166.277 110.197 165.687 109.982C165.098 109.767 164.606 109.462 164.22 109.059C163.834 108.663 163.547 108.171 163.357 107.588C163.168 107.005 163.076 106.346 163.076 105.61H151.025C151.025 106.436 151.11 107.449 151.278 108.65C151.446 109.843 151.811 111.085 152.373 112.376C152.934 113.667 153.791 114.867 154.956 115.984C156.121 117.102 157.679 118.018 159.63 118.719C161.581 119.419 164.066 119.773 167.077 119.773C172.32 119.773 176.356 118.663 179.177 116.435C181.999 114.215 183.845 111.002 184.715 106.797L188.996 86.0901H176.987L176.994 86.097Z" fill="#11A64B"/>
<path d="M344.394 86.0967L337.6 118.947H349.609L356.403 86.0967H344.394Z" fill="#11A64B"/>
<path d="M326.651 86.0968L322.51 106.019C322.201 107.428 321.674 108.497 320.93 109.218C320.187 109.94 319.007 110.301 317.393 110.301C316.614 110.301 315.933 110.197 315.344 109.982C314.754 109.767 314.263 109.461 313.877 109.059C313.491 108.663 313.203 108.171 313.013 107.588C312.824 107.005 312.733 106.346 312.733 105.61H300.682C300.682 106.436 300.766 107.449 300.934 108.649C301.103 109.843 301.468 111.085 302.029 112.376C302.591 113.666 303.447 114.867 304.612 115.984C305.777 117.101 307.335 118.017 309.287 118.718C311.238 119.419 313.722 119.773 316.733 119.773C321.976 119.773 326.012 118.663 328.833 116.435C331.655 114.215 333.501 111.002 334.371 106.797L338.653 86.0898H326.644L326.651 86.0968Z" fill="#11A64B"/>
</g>
</g>
<path d="M46.7108 15.2763C39.6162 16.5763 34.9158 23.3635 36.2119 30.4364C37.5079 37.5094 44.3094 42.1889 51.404 40.8889C58.4986 39.5889 63.1989 32.8017 61.9029 25.7288C60.6069 18.6559 53.8053 13.9763 46.7108 15.2763ZM56.2714 35.3686C51.2014 39.64 43.5648 37.9821 41.0647 33.0797C41.0647 33.0797 45.9129 33.326 51.1246 30.6944C56.1774 28.1431 58.7909 24.2997 58.7909 24.2997C58.7909 24.2997 61.2018 31.2144 56.2714 35.3686Z" fill="#FFE200"/>
<path d="M22.4081 38.4106C18.1321 35.9311 12.7698 37.1684 10.4307 41.1744C8.09146 45.1803 9.66139 50.4375 13.9373 52.9171C18.2133 55.3966 23.5755 54.1593 25.9147 50.1533C28.2539 46.1474 26.684 40.8902 22.4081 38.4106ZM18.8465 52.3687C14.3642 52.2212 11.0665 48.0664 11.8477 44.5873C11.8477 44.5873 14.2854 46.8332 18.1422 47.8398C21.8813 48.8158 24.8925 48.094 24.8925 48.094C24.8925 48.094 23.2056 52.512 18.8465 52.3687Z" fill="#FFE200"/>
<path d="M20.9824 13.9374C18.6891 12.6075 15.8059 13.2834 14.5425 15.4471C13.279 17.6108 14.1139 20.4428 16.4072 21.7726C18.7006 23.1025 21.5838 22.4266 22.8472 20.2629C24.1106 18.0992 23.2758 15.2673 20.9824 13.9374ZM19.0458 21.4689C16.6377 21.3968 14.8727 19.162 15.2982 17.285C15.2982 17.285 16.6043 18.4919 18.6748 19.0283C20.6822 19.5484 22.3014 19.1543 22.3014 19.1543C22.3014 19.1543 21.3877 21.539 19.0458 21.4689Z" fill="#FFE200"/>
<g opacity="0.5">
<path opacity="0.6" d="M349.748 96.1298L342.152 102.875L321.312 101.129L327.689 95.4599L349.748 96.1298Z" fill="black"/>
<path opacity="0.6" d="M284.056 114.557C284.056 114.557 280.359 115.296 276.569 115.541C273.654 115.729 271.921 115.454 268.691 116.319C265.683 117.125 263.312 119.057 263.312 119.057C263.312 119.057 272.085 117.895 275.824 118.615C280.866 119.587 283.368 118.186 283.368 118.186L284.057 114.557L284.056 114.557Z" fill="black"/>
<path opacity="0.6" d="M306.246 105.835L333.797 106.916L307.651 123.03C307.651 123.03 301.411 123.047 299.049 123.174C296.686 123.302 289.535 124.201 288.204 127.481C286.533 131.597 276.187 138.095 276.187 138.095L270.049 137.387L279.869 131.625L282.535 124.395L282.196 115.544L306.246 105.835Z" fill="black"/>
<path opacity="0.6" d="M342.547 118.22C342.547 118.22 332.428 116.817 327.151 118.044C321.873 119.271 313.547 119.136 313.547 119.136L320.587 115.79C320.587 115.79 332.662 114.805 348.263 112.962L342.547 118.219L342.547 118.22Z" fill="black"/>
</g>
<path d="M277.191 106.551C277.191 106.551 271.848 107.297 268.834 112.002L263.107 111.482C263.107 111.482 265.762 106.345 269.388 105.878C273.014 105.41 277.191 106.551 277.191 106.551Z" fill="#BEA803"/>
<path d="M287.996 117.318L282.65 117.739C282.65 117.739 278.269 115.548 275.538 110.52C272.808 105.491 269.389 105.877 269.389 105.877C269.389 105.877 275.344 105.343 277.192 106.551C279.04 107.759 279.62 109.121 280.673 110.986C282.458 114.15 287.996 117.319 287.996 117.319L287.996 117.318Z" fill="#FFE200"/>
<path d="M319.029 79.3423L342.148 102.875L319.857 99.1024L305.31 88.7235L299.98 79.5642L307.149 78.3516L319.029 79.3423Z" fill="#8C8C8C"/>
<path d="M342.538 84.5593C342.538 84.5593 339.976 83.3553 338.005 84.0935C336.034 84.8317 334.949 85.7444 334.949 85.7444L331.408 82.7109C331.408 82.7109 337.955 79.2063 340.596 81.2291C343.237 83.2518 342.538 84.5593 342.538 84.5593Z" fill="#BEA803"/>
<path d="M335.231 82.9489C335.231 82.9489 336.206 82.9879 336.919 83.5059C337.632 84.024 339.086 85.0216 339.781 87.3821C340.475 89.7426 339.172 91.8309 338.096 92.6785L334.531 89.5963C334.531 89.5963 337.514 87.3316 337.262 86.0524C336.79 83.6646 335.231 82.9489 335.231 82.9489Z" fill="#FFE200"/>
<path d="M320.316 73.1999C320.316 73.1999 317.205 71.1871 314.762 71.9125C312.319 72.6377 312.005 74.1735 311.925 75.844C311.846 77.5148 315.599 77.7437 315.599 77.7437L315.047 75.9311C315.047 75.9311 317.594 74.8529 318.689 74.7575C319.784 74.6618 320.316 73.1999 320.316 73.1999Z" fill="#BEA803"/>
<path d="M329.991 74.55L330.649 71.7833L322.359 68.2636C322.359 68.2636 320.544 68.54 319.424 71.1503C318.305 73.7607 318.199 76.2395 318.199 76.2395L326.876 79.9001L329.991 74.55L329.991 74.55Z" fill="#FFE200"/>
<path d="M330.649 71.7831C330.649 71.7831 331.839 73.3544 331.134 76.2038C330.428 79.0535 330.114 81.2411 330.114 81.2411L326.779 78.4909C326.779 78.4909 327.218 71.5122 330.649 71.7831Z" fill="#BEA803"/>
<path d="M317.614 82.4559L322.532 74.9382L304.771 72.9065L299.98 79.5646L317.614 82.4559Z" fill="#EFF0F2"/>
<path d="M273.553 95.9328L295.232 84.663L320.727 81.8922L299.986 94.3109L273.553 95.9328Z" fill="#F0F0F0"/>
<path d="M277.817 94.7898L295.606 85.5427L316.525 83.2692L299.506 93.459L277.817 94.7898Z" fill="#828282"/>
<path d="M291.097 123.017L294.954 121.353L297.312 122.411C297.312 122.411 296.33 123.155 294.428 123.665C292.526 124.174 291.097 123.017 291.097 123.017L291.097 123.017Z" fill="#FFE200"/>
<path d="M307.6 122.796L327.659 107.759L320.727 81.8921L299.986 94.3107L307.6 122.796Z" fill="#E8E8E8"/>
<path d="M317.616 82.4552L322.535 74.9375L347.069 95.3566L342.151 102.874L317.616 82.4552Z" fill="white"/>
<path d="M307.634 122.786L280.484 121.8L273.553 95.9324L299.986 94.3104L307.634 122.786Z" fill="#F7F7F7"/>
<path d="M293.963 123.758C293.963 123.758 293.269 123.03 292.693 121.924C292.117 120.818 291.74 119.414 290.626 119.432C289.511 119.451 286.194 121.04 286.194 121.04L287.455 123.362C287.455 123.362 290.981 124.378 293.963 123.758Z" fill="#BEA803"/>
<path d="M290.625 119.433C286.195 121.18 288.469 125.752 285.496 129.279C282.523 132.806 275.593 136.973 275.593 136.973L269.158 136.457C269.158 136.457 277.281 133.09 279.995 127.812C282.709 122.534 282.074 119.904 283.38 119.554L290.624 119.433L290.625 119.433Z" fill="#FFE200"/>
<path d="M313.503 85.078L299.757 93.3916L281.921 94.5377L282.398 95.3897L299.985 94.3104L313.659 86.1234L313.503 85.078Z" fill="#EFF0F2"/>
<path d="M314.013 117.987C314.013 117.987 315.906 118.965 319.424 118.321C323.292 117.612 327.325 114.208 327.325 114.208C327.325 114.208 326.278 117.963 319.591 113.806L314.013 117.987Z" fill="#FFE200"/>
<path d="M326.715 105.461C323.928 106.007 324.589 116.331 319.425 118.32C323.727 117.804 328.762 114.721 330.225 113.207C331.689 111.694 334.88 103.776 334.88 103.776C333.243 103.071 328.704 105.071 326.715 105.461L326.715 105.461Z" fill="#BEA803"/>
<path d="M341.958 116.888C341.958 116.888 331.45 104.274 325.912 105.968C325.912 105.968 330.094 102.374 335.395 103.638C339.074 104.516 348.265 112.962 348.265 112.962L341.958 116.887L341.958 116.888Z" fill="#FFE200"/>
<path d="M306.244 63.806L305.648 63.21L303.862 64.9974L304.458 65.5934L306.244 63.806Z" fill="white"/>
<path d="M269.645 65.176L269.629 66.0186L272.155 66.0666L272.171 65.224L269.645 65.176Z" fill="white"/>
<path d="M335.461 73.5974C335.82 73.5011 336.034 73.1314 335.937 72.7717C335.841 72.412 335.471 72.1985 335.112 72.2948C334.752 72.3912 334.539 72.7608 334.635 73.1205C334.732 73.4802 335.101 73.6937 335.461 73.5974Z" fill="white"/>
<path d="M276.397 80.3996C276.386 80.0274 276.075 79.7347 275.703 79.7458C275.331 79.7569 275.039 80.0676 275.05 80.4398C275.061 80.812 275.372 81.1048 275.744 81.0936C276.116 81.0825 276.408 80.7718 276.397 80.3996Z" fill="white"/>
<path d="M317.231 66.6213L316.833 68.1074L318.318 67.7094L317.231 66.6213Z" fill="white"/>
<path d="M255.715 92.1131L255.155 90.68L254.195 91.8814L255.715 92.1131Z" fill="white"/>
<path d="M252.688 69.0606L252.128 67.6277L251.168 68.8291L252.688 69.0606Z" fill="white"/>
<path d="M260.809 79.3807L261.465 78.8516L259.878 76.8838L259.222 77.4129L260.809 79.3807Z" fill="#FFD93B"/>
<path d="M317.61 53.6245L318.113 52.9492L316.088 51.4366L315.584 52.1118L317.61 53.6245Z" fill="#FFD93B"/>
<path d="M264.172 98.196C264.531 98.0997 264.745 97.73 264.648 97.3703C264.552 97.0107 264.182 96.7972 263.823 96.8935C263.463 96.9898 263.25 97.3595 263.346 97.7192C263.443 98.0788 263.812 98.2924 264.172 98.196Z" fill="#FFD93B"/>
<path d="M300.723 53.4485C300.909 53.126 300.798 52.7137 300.476 52.5274C300.154 52.3412 299.742 52.4516 299.556 52.7741C299.37 53.0965 299.48 53.5089 299.802 53.6951C300.125 53.8813 300.537 53.7709 300.723 53.4485Z" fill="#FFD93B"/>
<path d="M294.786 71.5785C294.775 71.2063 294.464 70.9136 294.092 70.9247C293.72 70.9359 293.427 71.2466 293.439 71.6188C293.45 71.991 293.761 72.2837 294.133 72.2726C294.505 72.2615 294.797 71.9507 294.786 71.5785Z" fill="#FFD93B"/>
<path d="M282.455 68.9476L280.949 68.6367L281.433 70.097L282.455 68.9476Z" fill="#FFD93B"/>
<path d="M341.963 63.97L341.367 63.374L339.581 65.1614L340.176 65.7574L341.963 63.97Z" fill="#FFD93B"/>
<path d="M269.309 91.2265L269.812 90.5513L267.787 89.0386L267.284 89.7139L269.309 91.2265Z" fill="#FFD93B"/>
<path d="M288.711 58.8674C289.07 58.7711 289.284 58.4014 289.187 58.0417C289.091 57.682 288.721 57.4685 288.362 57.5649C288.002 57.6612 287.789 58.0308 287.885 58.3905C287.982 58.7502 288.351 58.9637 288.711 58.8674Z" fill="#FFD93B"/>
<path d="M328.799 62.591L328.239 61.158L327.279 62.3594" fill="#FFD93B"/>
<path d="M297.286 93.7222L294.952 85.0124L275.561 95.0551L297.286 93.7222Z" fill="#747474"/>
</g>
<defs>
<clipPath id="clip0_30193_15461">
<rect width="343" height="126" rx="5" fill="white"/>
</clipPath>
</defs>
</svg>
