<?xml version="1.0" encoding="utf-8"?>
<!-- Generator: Adobe Illustrator 27.4.0, SVG Export Plug-In . SVG Version: 6.00 Build 0)  -->
<svg version="1.1" id="Layer_1" xmlns="http://www.w3.org/2000/svg" xmlns:xlink="http://www.w3.org/1999/xlink" x="0px" y="0px"
	 viewBox="0 0 375 653" style="enable-background:new 0 0 375 653;" xml:space="preserve">
<style type="text/css">
	.st0{fill:#00953B;}
	.st1{fill:#00953B;filter:url(#Adobe_OpacityMaskFilter);}
	.st2{mask:url(#mask0_6739_28403_00000010287992367277619120000010797044671390083990_);}
	.st3{fill:#11A64B;}
	.st4{fill:#FFE200;}
</style>
<g>
	<g>
		<rect x="0" class="st0" width="375" height="653"/>
		<defs>
			<filter id="Adobe_OpacityMaskFilter" filterUnits="userSpaceOnUse" x="0" y="3.5" width="375" height="649.5">
				<feColorMatrix  type="matrix" values="1 0 0 0 0  0 1 0 0 0  0 0 1 0 0  0 0 0 1 0"/>
			</filter>
		</defs>
		
			<mask maskUnits="userSpaceOnUse" x="0" y="3.5" width="375" height="649.5" id="mask0_6739_28403_00000010287992367277619120000010797044671390083990_">
			<rect x="0" class="st1" width="375" height="653"/>
		</mask>
		<g class="st2">
			<g>
				<path class="st3" d="M80.8,13.6c0.5-2.3,0.3-4.2-0.7-5.7c-1-1.5-2.5-2.6-4.7-3.3c-2.1-0.7-4.6-1.1-7.5-1.1H47.6l-7.4,35.9H61
					c3.4,0,6.4-0.4,9-1.2c2.6-0.8,4.7-1.9,6.3-3.3c1.6-1.4,2.7-3.1,3.1-5.1c0.4-1.8,0.4-3.4,0-4.8c-0.5-1.4-1.3-2.5-2.5-3.4
					c-0.8-0.6-1.8-1-2.9-1.4c1.6-0.6,2.9-1.3,4-2.2C79.5,16.9,80.4,15.4,80.8,13.6L80.8,13.6z M66.7,29.4c-0.4,0.6-1.1,1-1.9,1.3
					s-1.8,0.4-3,0.4h-8l1.3-6.3H63c1,0,1.7,0.1,2.4,0.3c0.6,0.2,1.1,0.5,1.5,0.9c0.3,0.4,0.5,0.9,0.5,1.4
					C67.3,28.2,67.1,28.8,66.7,29.4z M68.3,15.8c-0.4,0.5-0.9,0.8-1.6,1c-0.7,0.2-1.6,0.3-2.6,0.3h-7.4l1.1-5.2h7.3
					c0.8,0,1.5,0.1,2.1,0.2c0.5,0.2,1,0.4,1.2,0.7c0.3,0.3,0.4,0.8,0.4,1.3C68.8,14.8,68.6,15.4,68.3,15.8L68.3,15.8z"/>
				<path class="st3" d="M143.7,3.6l-7.4,35.9h13.1l7.4-35.9H143.7z"/>
				<path class="st3" d="M176,3.6l-22.3,35.9h13.8l3-5.3h15.2l0.9,5.3h12.9l-7.8-35.9H176L176,3.6z M182.5,13.2l1.8,11.5h-8.3
					L182.5,13.2z"/>
				<path class="st3" d="M244.5,13.6c0.5-2.3,0.3-4.2-0.7-5.7c-1-1.5-2.5-2.6-4.7-3.3c-2.1-0.7-4.6-1.1-7.5-1.1h-20.4l-7.4,35.9
					h20.8c3.4,0,6.4-0.4,9-1.2c2.6-0.8,4.7-1.9,6.3-3.3c1.6-1.4,2.7-3.1,3.1-5.1c0.4-1.8,0.4-3.4,0-4.8c-0.5-1.4-1.3-2.5-2.5-3.4
					c-0.8-0.6-1.8-1-2.9-1.4c1.6-0.6,2.9-1.3,4-2.2C243.1,16.9,244.1,15.4,244.5,13.6L244.5,13.6z M230.3,29.4
					c-0.4,0.6-1.1,1-1.9,1.3c-0.8,0.3-1.8,0.4-3,0.4h-8l1.3-6.3h7.9c1,0,1.7,0.1,2.4,0.3c0.6,0.2,1.1,0.5,1.4,0.9
					c0.3,0.4,0.5,0.9,0.5,1.4C230.9,28.2,230.7,28.8,230.3,29.4z M231.9,15.8c-0.4,0.5-0.9,0.8-1.6,1c-0.7,0.2-1.5,0.3-2.6,0.3h-7.4
					l1.1-5.2h7.3c0.8,0,1.5,0.1,2.1,0.2s1,0.4,1.2,0.7c0.3,0.3,0.4,0.8,0.4,1.3C232.4,14.8,232.2,15.4,231.9,15.8L231.9,15.8z"/>
				<path class="st3" d="M124.3,3.6l-4.5,21.8c-0.3,1.5-0.9,2.7-1.7,3.5c-0.8,0.8-2.1,1.2-3.9,1.2c-0.9,0-1.6-0.1-2.2-0.3
					c-0.6-0.2-1.2-0.6-1.6-1c-0.4-0.4-0.7-1-0.9-1.6c-0.2-0.6-0.3-1.4-0.3-2.2H95.9c0,0.9,0.1,2,0.3,3.3c0.2,1.3,0.6,2.7,1.2,4.1
					c0.6,1.4,1.6,2.7,2.8,3.9c1.3,1.2,3,2.2,5.1,3c2.1,0.8,4.8,1.2,8.1,1.2c5.7,0,10.1-1.2,13.2-3.6c3.1-2.4,5.1-5.9,6.1-10.5
					l4.7-22.6L124.3,3.6L124.3,3.6z"/>
				<path class="st3" d="M307.4,3.6l-7.4,35.9h13.1l7.4-35.9H307.4z"/>
				<path class="st3" d="M339.7,3.6l-22.3,35.9h13.8l3-5.3h15.2l0.9,5.3h12.9l-7.8-35.9H339.7L339.7,3.6z M346.1,13.2l1.8,11.5h-8.3
					L346.1,13.2z"/>
				<path class="st3" d="M288,3.6l-4.5,21.8c-0.3,1.5-0.9,2.7-1.7,3.5c-0.8,0.8-2.1,1.2-3.9,1.2c-0.9,0-1.6-0.1-2.2-0.3
					c-0.6-0.2-1.2-0.6-1.6-1c-0.4-0.4-0.7-1-0.9-1.6s-0.3-1.4-0.3-2.2h-13.2c0,0.9,0.1,2,0.3,3.3c0.2,1.3,0.6,2.7,1.2,4.1
					c0.6,1.4,1.5,2.7,2.8,3.9c1.3,1.2,3,2.2,5.1,3c2.1,0.8,4.9,1.2,8.1,1.2c5.7,0,10.1-1.2,13.2-3.6c3.1-2.4,5.1-5.9,6.1-10.5
					l4.7-22.6L288,3.6L288,3.6z"/>
				<path class="st3" d="M49.3,49.6l-7.4,35.9H55l7.4-35.9H49.3z"/>
				<path class="st3" d="M81.6,49.6L59.3,85.5h13.8l3-5.3h15.2l0.9,5.3H105l-7.8-35.9H81.6L81.6,49.6z M88.1,59.3l1.8,11.5h-8.3
					L88.1,59.3z"/>
				<path class="st3" d="M150,59.6c0.5-2.3,0.3-4.2-0.7-5.7c-1-1.5-2.5-2.6-4.7-3.3c-2.1-0.7-4.6-1.1-7.5-1.1h-20.4l-7.4,35.9h20.8
					c3.4,0,6.4-0.4,9-1.2c2.6-0.8,4.7-1.9,6.3-3.3c1.6-1.4,2.7-3.1,3.1-5.1c0.4-1.8,0.4-3.4,0-4.8c-0.5-1.4-1.3-2.5-2.5-3.4
					c-0.8-0.6-1.8-1-2.9-1.4c1.6-0.6,2.9-1.3,4-2.2C148.7,62.9,149.6,61.4,150,59.6L150,59.6z M135.8,75.4c-0.4,0.6-1.1,1-1.9,1.3
					c-0.8,0.3-1.8,0.4-3,0.4h-8l1.3-6.3h7.8c1,0,1.7,0.1,2.4,0.3c0.6,0.2,1.1,0.5,1.5,0.9c0.3,0.4,0.5,0.9,0.5,1.4
					C136.5,74.2,136.3,74.9,135.8,75.4z M137.4,61.8c-0.4,0.5-0.9,0.8-1.6,1c-0.7,0.2-1.6,0.3-2.6,0.3h-7.4L127,58h7.3
					c0.8,0,1.5,0.1,2.1,0.2c0.5,0.2,1,0.4,1.2,0.7c0.3,0.3,0.4,0.8,0.4,1.3C138,60.8,137.8,61.4,137.4,61.8L137.4,61.8z"/>
				<path class="st3" d="M29.9,49.6l-4.5,21.8c-0.3,1.5-0.9,2.7-1.7,3.5c-0.8,0.8-2.1,1.2-3.9,1.2c-0.9,0-1.6-0.1-2.2-0.3
					c-0.6-0.2-1.2-0.6-1.6-1c-0.4-0.4-0.7-1-0.9-1.6c-0.2-0.6-0.3-1.4-0.3-2.2H1.5c0,0.9,0.1,2,0.3,3.3C2,75.5,2.4,76.9,3,78.3
					c0.6,1.4,1.6,2.7,2.8,3.9c1.3,1.2,3,2.2,5.1,3c2.1,0.8,4.8,1.2,8.1,1.2c5.7,0,10.1-1.2,13.2-3.6c3.1-2.4,5.1-5.9,6.1-10.5
					L43,49.6L29.9,49.6L29.9,49.6z"/>
				<path class="st3" d="M212.9,49.6l-7.4,35.9h13.1l7.4-35.9H212.9z"/>
				<path class="st3" d="M245.2,49.6l-22.3,35.9h13.8l3-5.3h15.2l0.9,5.3h12.9l-7.8-35.9H245.2L245.2,49.6z M251.7,59.3l1.8,11.5
					h-8.3L251.7,59.3z"/>
				<path class="st3" d="M313.6,59.6c0.5-2.3,0.3-4.2-0.7-5.7c-1-1.5-2.5-2.6-4.7-3.3c-2.1-0.7-4.6-1.1-7.5-1.1h-20.4L273,85.5h20.8
					c3.4,0,6.4-0.4,9-1.2c2.6-0.8,4.7-1.9,6.3-3.3c1.6-1.4,2.7-3.1,3.1-5.1c0.4-1.8,0.4-3.4,0-4.8c-0.5-1.4-1.3-2.5-2.5-3.4
					c-0.8-0.6-1.8-1-2.9-1.4c1.5-0.6,2.9-1.3,4-2.2C312.3,62.9,313.2,61.4,313.6,59.6L313.6,59.6z M299.4,75.4
					c-0.4,0.6-1.1,1-1.9,1.3c-0.8,0.3-1.8,0.4-3,0.4h-8l1.3-6.3h7.9c1,0,1.7,0.1,2.4,0.3c0.6,0.2,1.1,0.5,1.5,0.9
					c0.3,0.4,0.5,0.9,0.5,1.4C300.1,74.2,299.9,74.9,299.4,75.4z M301.1,61.8c-0.4,0.5-0.9,0.8-1.6,1c-0.7,0.2-1.5,0.3-2.6,0.3h-7.4
					l1.1-5.2h7.3c0.8,0,1.5,0.1,2.1,0.2c0.5,0.2,1,0.4,1.2,0.7c0.3,0.3,0.4,0.8,0.4,1.3C301.6,60.8,301.4,61.4,301.1,61.8
					L301.1,61.8z"/>
				<path class="st3" d="M193.5,49.6L189,71.4c-0.3,1.5-0.9,2.7-1.7,3.5c-0.8,0.8-2.1,1.2-3.9,1.2c-0.9,0-1.6-0.1-2.2-0.3
					c-0.6-0.2-1.2-0.6-1.6-1c-0.4-0.4-0.7-1-0.9-1.6c-0.2-0.6-0.3-1.4-0.3-2.2h-13.2c0,0.9,0.1,2,0.3,3.3c0.2,1.3,0.6,2.7,1.2,4.1
					c0.6,1.4,1.6,2.7,2.8,3.9c1.3,1.2,3,2.2,5.1,3c2.1,0.8,4.9,1.2,8.1,1.2c5.7,0,10.1-1.2,13.2-3.6c3.1-2.4,5.1-5.9,6.1-10.5
					l4.7-22.6L193.5,49.6L193.5,49.6z"/>
				<path class="st3" d="M357.1,49.6l-4.5,21.8c-0.3,1.5-0.9,2.7-1.7,3.5c-0.8,0.8-2.1,1.2-3.9,1.2c-0.9,0-1.6-0.1-2.2-0.3
					c-0.6-0.2-1.2-0.6-1.6-1c-0.4-0.4-0.7-1-0.9-1.6c-0.2-0.6-0.3-1.4-0.3-2.2h-13.2c0,0.9,0.1,2,0.3,3.3c0.2,1.3,0.6,2.7,1.2,4.1
					c0.6,1.4,1.5,2.7,2.8,3.9c1.3,1.2,3,2.2,5.1,3c2.1,0.8,4.9,1.2,8.1,1.2c5.7,0,10.1-1.2,13.2-3.6c3.1-2.4,5.1-5.9,6.1-10.5
					l4.7-22.6L357.1,49.6L357.1,49.6z"/>
				<path class="st3" d="M80.8,104.4c0.5-2.3,0.3-4.2-0.7-5.7c-1-1.5-2.5-2.6-4.7-3.3c-2.1-0.7-4.6-1.1-7.5-1.1H47.6l-7.4,35.9H61
					c3.4,0,6.4-0.4,9-1.2c2.6-0.8,4.7-1.9,6.3-3.3c1.6-1.4,2.7-3.1,3.1-5.1c0.4-1.8,0.4-3.4,0-4.8c-0.5-1.4-1.3-2.5-2.5-3.4
					c-0.8-0.6-1.8-1-2.9-1.4c1.6-0.6,2.9-1.3,4-2.2C79.5,107.6,80.4,106.1,80.8,104.4L80.8,104.4z M66.7,120.1
					c-0.4,0.6-1.1,1-1.9,1.3c-0.8,0.3-1.8,0.4-3,0.4h-8l1.3-6.3H63c1,0,1.7,0.1,2.4,0.3c0.6,0.2,1.1,0.5,1.5,0.9
					c0.3,0.4,0.5,0.9,0.5,1.4C67.3,118.9,67.1,119.6,66.7,120.1z M68.3,106.6c-0.4,0.5-0.9,0.8-1.6,1c-0.7,0.2-1.6,0.3-2.6,0.3h-7.4
					l1.1-5.2h7.3c0.8,0,1.5,0.1,2.1,0.2c0.5,0.2,1,0.4,1.2,0.7c0.3,0.3,0.4,0.8,0.4,1.3C68.8,105.6,68.6,106.1,68.3,106.6
					L68.3,106.6z"/>
				<path class="st3" d="M143.7,94.3l-7.4,35.9h13.1l7.4-35.9H143.7z"/>
				<path class="st3" d="M176,94.3l-22.3,35.9h13.8l3-5.3h15.2l0.9,5.3h12.9l-7.8-35.9H176L176,94.3z M182.5,104l1.8,11.5h-8.3
					L182.5,104z"/>
				<path class="st3" d="M244.5,104.4c0.5-2.3,0.3-4.2-0.7-5.7c-1-1.5-2.5-2.6-4.7-3.3c-2.1-0.7-4.6-1.1-7.5-1.1h-20.4l-7.4,35.9
					h20.8c3.4,0,6.4-0.4,9-1.2c2.6-0.8,4.7-1.9,6.3-3.3c1.6-1.4,2.7-3.1,3.1-5.1c0.4-1.8,0.4-3.4,0-4.8c-0.5-1.4-1.3-2.5-2.5-3.4
					c-0.8-0.6-1.8-1-2.9-1.4c1.6-0.6,2.9-1.3,4-2.2C243.1,107.6,244.1,106.1,244.5,104.4L244.5,104.4z M230.3,120.1
					c-0.4,0.6-1.1,1-1.9,1.3c-0.8,0.3-1.8,0.4-3,0.4h-8l1.3-6.3h7.9c1,0,1.7,0.1,2.4,0.3s1.1,0.5,1.4,0.9c0.3,0.4,0.5,0.9,0.5,1.4
					C230.9,118.9,230.7,119.6,230.3,120.1z M231.9,106.6c-0.4,0.5-0.9,0.8-1.6,1c-0.7,0.2-1.5,0.3-2.6,0.3h-7.4l1.1-5.2h7.3
					c0.8,0,1.5,0.1,2.1,0.2s1,0.4,1.2,0.7c0.3,0.3,0.4,0.8,0.4,1.3C232.4,105.6,232.2,106.1,231.9,106.6L231.9,106.6z"/>
				<path class="st3" d="M124.3,94.3l-4.5,21.8c-0.3,1.5-0.9,2.7-1.7,3.5c-0.8,0.8-2.1,1.2-3.9,1.2c-0.9,0-1.6-0.1-2.2-0.3
					c-0.6-0.2-1.2-0.6-1.6-1c-0.4-0.4-0.7-1-0.9-1.6c-0.2-0.6-0.3-1.4-0.3-2.2H95.9c0,0.9,0.1,2,0.3,3.3c0.2,1.3,0.6,2.7,1.2,4.1
					c0.6,1.4,1.6,2.7,2.8,3.9c1.3,1.2,3,2.2,5.1,3c2.1,0.8,4.8,1.2,8.1,1.2c5.7,0,10.1-1.2,13.2-3.6c3.1-2.4,5.1-5.9,6.1-10.5
					l4.7-22.6L124.3,94.3L124.3,94.3z"/>
				<path class="st3" d="M307.4,94.3l-7.4,35.9h13.1l7.4-35.9H307.4z"/>
				<path class="st3" d="M339.7,94.3l-22.3,35.9h13.8l3-5.3h15.2l0.9,5.3h12.9l-7.8-35.9H339.7L339.7,94.3z M346.1,104l1.8,11.5
					h-8.3L346.1,104z"/>
				<path class="st3" d="M288,94.3l-4.5,21.8c-0.3,1.5-0.9,2.7-1.7,3.5c-0.8,0.8-2.1,1.2-3.9,1.2c-0.9,0-1.6-0.1-2.2-0.3
					c-0.6-0.2-1.2-0.6-1.6-1c-0.4-0.4-0.7-1-0.9-1.6s-0.3-1.4-0.3-2.2h-13.2c0,0.9,0.1,2,0.3,3.3c0.2,1.3,0.6,2.7,1.2,4.1
					c0.6,1.4,1.5,2.7,2.8,3.9c1.3,1.2,3,2.2,5.1,3c2.1,0.8,4.9,1.2,8.1,1.2c5.7,0,10.1-1.2,13.2-3.6c3.1-2.4,5.1-5.9,6.1-10.5
					l4.7-22.6L288,94.3L288,94.3z"/>
				<path class="st3" d="M49.3,140.3l-7.4,35.9H55l7.4-35.9H49.3z"/>
				<path class="st3" d="M81.6,140.3l-22.3,35.9h13.8l3-5.3h15.2l0.9,5.3H105l-7.8-35.9H81.6L81.6,140.3z M88.1,150l1.8,11.5h-8.3
					L88.1,150z"/>
				<path class="st3" d="M150,150.4c0.5-2.3,0.3-4.2-0.7-5.7c-1-1.5-2.5-2.6-4.7-3.3c-2.1-0.7-4.6-1.1-7.5-1.1h-20.4l-7.4,35.9h20.8
					c3.4,0,6.4-0.4,9-1.2c2.6-0.8,4.7-1.9,6.3-3.3c1.6-1.4,2.7-3.1,3.1-5.1c0.4-1.8,0.4-3.4,0-4.8c-0.5-1.4-1.3-2.5-2.5-3.4
					c-0.8-0.6-1.8-1-2.9-1.4c1.6-0.6,2.9-1.3,4-2.2C148.7,153.7,149.6,152.1,150,150.4L150,150.4z M135.8,166.2
					c-0.4,0.6-1.1,1-1.9,1.3c-0.8,0.3-1.8,0.4-3,0.4h-8l1.3-6.3h7.8c1,0,1.7,0.1,2.4,0.3c0.6,0.2,1.1,0.5,1.5,0.9
					c0.3,0.4,0.5,0.9,0.5,1.4C136.5,165,136.3,165.6,135.8,166.2z M137.4,152.6c-0.4,0.5-0.9,0.8-1.6,1c-0.7,0.2-1.6,0.3-2.6,0.3
					h-7.4l1.1-5.2h7.3c0.8,0,1.5,0.1,2.1,0.2c0.5,0.2,1,0.4,1.2,0.7c0.3,0.3,0.4,0.8,0.4,1.3C138,151.6,137.8,152.1,137.4,152.6
					L137.4,152.6z"/>
				<path class="st3" d="M29.9,140.3l-4.5,21.8c-0.3,1.5-0.9,2.7-1.7,3.5c-0.8,0.8-2.1,1.2-3.9,1.2c-0.9,0-1.6-0.1-2.2-0.3
					c-0.6-0.2-1.2-0.6-1.6-1c-0.4-0.4-0.7-1-0.9-1.6c-0.2-0.6-0.3-1.4-0.3-2.2H1.5c0,0.9,0.1,2,0.3,3.3c0.2,1.3,0.6,2.7,1.2,4.1
					c0.6,1.4,1.6,2.7,2.8,3.9c1.3,1.2,3,2.2,5.1,3c2.1,0.8,4.8,1.2,8.1,1.2c5.7,0,10.1-1.2,13.2-3.6c3.1-2.4,5.1-5.9,6.1-10.5
					l4.7-22.6L29.9,140.3L29.9,140.3z"/>
				<path class="st3" d="M212.9,140.3l-7.4,35.9h13.1l7.4-35.9H212.9z"/>
				<path class="st3" d="M245.2,140.3l-22.3,35.9h13.8l3-5.3h15.2l0.9,5.3h12.9l-7.8-35.9H245.2L245.2,140.3z M251.7,150l1.8,11.5
					h-8.3L251.7,150z"/>
				<path class="st3" d="M313.6,150.4c0.5-2.3,0.3-4.2-0.7-5.7c-1-1.5-2.5-2.6-4.7-3.3c-2.1-0.7-4.6-1.1-7.5-1.1h-20.4l-7.4,35.9
					h20.8c3.4,0,6.4-0.4,9-1.2c2.6-0.8,4.7-1.9,6.3-3.3c1.6-1.4,2.7-3.1,3.1-5.1c0.4-1.8,0.4-3.4,0-4.8c-0.5-1.4-1.3-2.5-2.5-3.4
					c-0.8-0.6-1.8-1-2.9-1.4c1.5-0.6,2.9-1.3,4-2.2C312.3,153.7,313.2,152.1,313.6,150.4L313.6,150.4z M299.4,166.2
					c-0.4,0.6-1.1,1-1.9,1.3c-0.8,0.3-1.8,0.4-3,0.4h-8l1.3-6.3h7.9c1,0,1.7,0.1,2.4,0.3c0.6,0.2,1.1,0.5,1.5,0.9
					c0.3,0.4,0.5,0.9,0.5,1.4C300.1,165,299.9,165.6,299.4,166.2z M301.1,152.6c-0.4,0.5-0.9,0.8-1.6,1c-0.7,0.2-1.5,0.3-2.6,0.3
					h-7.4l1.1-5.2h7.3c0.8,0,1.5,0.1,2.1,0.2c0.5,0.2,1,0.4,1.2,0.7c0.3,0.3,0.4,0.8,0.4,1.3C301.6,151.6,301.4,152.1,301.1,152.6
					L301.1,152.6z"/>
				<path class="st3" d="M193.5,140.3l-4.5,21.8c-0.3,1.5-0.9,2.7-1.7,3.5c-0.8,0.8-2.1,1.2-3.9,1.2c-0.9,0-1.6-0.1-2.2-0.3
					c-0.6-0.2-1.2-0.6-1.6-1c-0.4-0.4-0.7-1-0.9-1.6c-0.2-0.6-0.3-1.4-0.3-2.2h-13.2c0,0.9,0.1,2,0.3,3.3c0.2,1.3,0.6,2.7,1.2,4.1
					c0.6,1.4,1.6,2.7,2.8,3.9c1.3,1.2,3,2.2,5.1,3c2.1,0.8,4.9,1.2,8.1,1.2c5.7,0,10.1-1.2,13.2-3.6c3.1-2.4,5.1-5.9,6.1-10.5
					l4.7-22.6L193.5,140.3L193.5,140.3z"/>
				<path class="st3" d="M357.1,140.3l-4.5,21.8c-0.3,1.5-0.9,2.7-1.7,3.5c-0.8,0.8-2.1,1.2-3.9,1.2c-0.9,0-1.6-0.1-2.2-0.3
					c-0.6-0.2-1.2-0.6-1.6-1c-0.4-0.4-0.7-1-0.9-1.6c-0.2-0.6-0.3-1.4-0.3-2.2h-13.2c0,0.9,0.1,2,0.3,3.3c0.2,1.3,0.6,2.7,1.2,4.1
					c0.6,1.4,1.5,2.7,2.8,3.9c1.3,1.2,3,2.2,5.1,3s4.9,1.2,8.1,1.2c5.7,0,10.1-1.2,13.2-3.6c3.1-2.4,5.1-5.9,6.1-10.5l4.7-22.6
					L357.1,140.3L357.1,140.3z"/>
				<path class="st3" d="M80.8,195.1c0.5-2.3,0.3-4.2-0.7-5.7c-1-1.5-2.5-2.6-4.7-3.3c-2.1-0.7-4.6-1.1-7.5-1.1H47.6L40.2,221H61
					c3.4,0,6.4-0.4,9-1.2c2.6-0.8,4.7-1.9,6.3-3.3c1.6-1.4,2.7-3.1,3.1-5.1c0.4-1.8,0.4-3.4,0-4.8c-0.5-1.4-1.3-2.5-2.5-3.4
					c-0.8-0.6-1.8-1-2.9-1.4c1.6-0.6,2.9-1.3,4-2.2C79.5,198.4,80.4,196.9,80.8,195.1L80.8,195.1z M66.7,210.9
					c-0.4,0.6-1.1,1-1.9,1.3c-0.8,0.3-1.8,0.4-3,0.4h-8l1.3-6.3H63c1,0,1.7,0.1,2.4,0.3c0.6,0.2,1.1,0.5,1.5,0.9
					c0.3,0.4,0.5,0.9,0.5,1.4C67.3,209.7,67.1,210.3,66.7,210.9z M68.3,197.3c-0.4,0.5-0.9,0.8-1.6,1c-0.7,0.2-1.6,0.3-2.6,0.3h-7.4
					l1.1-5.2h7.3c0.8,0,1.5,0.1,2.1,0.2c0.5,0.2,1,0.4,1.2,0.7c0.3,0.3,0.4,0.8,0.4,1.3C68.8,196.3,68.6,196.9,68.3,197.3
					L68.3,197.3z"/>
				<path class="st3" d="M143.7,185.1l-7.4,35.9h13.1l7.4-35.9H143.7z"/>
				<path class="st3" d="M176,185.1L153.7,221h13.8l3-5.3h15.2l0.9,5.3h12.9l-7.8-35.9H176L176,185.1z M182.5,194.7l1.8,11.5h-8.3
					L182.5,194.7z"/>
				<path class="st3" d="M244.5,195.1c0.5-2.3,0.3-4.2-0.7-5.7c-1-1.5-2.5-2.6-4.7-3.3c-2.1-0.7-4.6-1.1-7.5-1.1h-20.4l-7.4,35.9
					h20.8c3.4,0,6.4-0.4,9-1.2c2.6-0.8,4.7-1.9,6.3-3.3c1.6-1.4,2.7-3.1,3.1-5.1c0.4-1.8,0.4-3.4,0-4.8c-0.5-1.4-1.3-2.5-2.5-3.4
					c-0.8-0.6-1.8-1-2.9-1.4c1.6-0.6,2.9-1.3,4-2.2C243.1,198.4,244.1,196.9,244.5,195.1L244.5,195.1z M230.3,210.9
					c-0.4,0.6-1.1,1-1.9,1.3c-0.8,0.3-1.8,0.4-3,0.4h-8l1.3-6.3h7.9c1,0,1.7,0.1,2.4,0.3s1.1,0.5,1.4,0.9c0.3,0.4,0.5,0.9,0.5,1.4
					C230.9,209.7,230.7,210.3,230.3,210.9z M231.9,197.3c-0.4,0.5-0.9,0.8-1.6,1c-0.7,0.2-1.5,0.3-2.6,0.3h-7.4l1.1-5.2h7.3
					c0.8,0,1.5,0.1,2.1,0.2c0.5,0.2,1,0.4,1.2,0.7c0.3,0.3,0.4,0.8,0.4,1.3C232.4,196.3,232.2,196.9,231.9,197.3L231.9,197.3z"/>
				<path class="st3" d="M124.3,185.1l-4.5,21.8c-0.3,1.5-0.9,2.7-1.7,3.5c-0.8,0.8-2.1,1.2-3.9,1.2c-0.9,0-1.6-0.1-2.2-0.3
					c-0.6-0.2-1.2-0.6-1.6-1c-0.4-0.4-0.7-1-0.9-1.6c-0.2-0.6-0.3-1.4-0.3-2.2H95.9c0,0.9,0.1,2,0.3,3.3c0.2,1.3,0.6,2.7,1.2,4.1
					c0.6,1.4,1.6,2.7,2.8,3.9c1.3,1.2,3,2.2,5.1,3c2.1,0.8,4.8,1.2,8.1,1.2c5.7,0,10.1-1.2,13.2-3.6c3.1-2.4,5.1-5.9,6.1-10.5
					l4.7-22.6L124.3,185.1L124.3,185.1z"/>
				<path class="st3" d="M307.4,185.1l-7.4,35.9h13.1l7.4-35.9H307.4z"/>
				<path class="st3" d="M339.7,185.1L317.3,221h13.8l3-5.3h15.2l0.9,5.3h12.9l-7.8-35.9H339.7L339.7,185.1z M346.1,194.7l1.8,11.5
					h-8.3L346.1,194.7z"/>
				<path class="st3" d="M288,185.1l-4.5,21.8c-0.3,1.5-0.9,2.7-1.7,3.5c-0.8,0.8-2.1,1.2-3.9,1.2c-0.9,0-1.6-0.1-2.2-0.3
					c-0.6-0.2-1.2-0.6-1.6-1c-0.4-0.4-0.7-1-0.9-1.6c-0.2-0.6-0.3-1.4-0.3-2.2h-13.2c0,0.9,0.1,2,0.3,3.3c0.2,1.3,0.6,2.7,1.2,4.1
					c0.6,1.4,1.5,2.7,2.8,3.9c1.3,1.2,3,2.2,5.1,3c2.1,0.8,4.9,1.2,8.1,1.2c5.7,0,10.1-1.2,13.2-3.6c3.1-2.4,5.1-5.9,6.1-10.5
					l4.7-22.6L288,185.1L288,185.1z"/>
				<path class="st3" d="M49.3,231.1L41.9,267H55l7.4-35.9H49.3z"/>
				<path class="st3" d="M81.6,231.1L59.3,267h13.8l3-5.3h15.2l0.9,5.3H105l-7.8-35.9H81.6L81.6,231.1z M88.1,240.8l1.8,11.5h-8.3
					L88.1,240.8z"/>
				<path class="st3" d="M150,241.1c0.5-2.3,0.3-4.2-0.7-5.7c-1-1.5-2.5-2.6-4.7-3.3c-2.1-0.7-4.6-1.1-7.5-1.1h-20.4l-7.4,35.9h20.8
					c3.4,0,6.4-0.4,9-1.2c2.6-0.8,4.7-1.9,6.3-3.3c1.6-1.4,2.7-3.1,3.1-5.1c0.4-1.8,0.4-3.4,0-4.8c-0.5-1.4-1.3-2.5-2.5-3.4
					c-0.8-0.6-1.8-1-2.9-1.4c1.6-0.6,2.9-1.3,4-2.2C148.7,244.4,149.6,242.9,150,241.1L150,241.1z M135.8,256.9
					c-0.4,0.6-1.1,1-1.9,1.3c-0.8,0.3-1.8,0.4-3,0.4h-8l1.3-6.3h7.8c1,0,1.7,0.1,2.4,0.3c0.6,0.2,1.1,0.5,1.5,0.9
					c0.3,0.4,0.5,0.9,0.5,1.4C136.5,255.7,136.3,256.4,135.8,256.9z M137.4,243.3c-0.4,0.5-0.9,0.8-1.6,1c-0.7,0.2-1.6,0.3-2.6,0.3
					h-7.4l1.1-5.2h7.3c0.8,0,1.5,0.1,2.1,0.2c0.5,0.2,1,0.4,1.2,0.7c0.3,0.3,0.4,0.8,0.4,1.3C138,242.3,137.8,242.9,137.4,243.3
					L137.4,243.3z"/>
				<path class="st3" d="M29.9,231.1l-4.5,21.8c-0.3,1.5-0.9,2.7-1.7,3.5c-0.8,0.8-2.1,1.2-3.9,1.2c-0.9,0-1.6-0.1-2.2-0.3
					c-0.6-0.2-1.2-0.6-1.6-1c-0.4-0.4-0.7-1-0.9-1.6s-0.3-1.4-0.3-2.2H1.5c0,0.9,0.1,2,0.3,3.3c0.2,1.3,0.6,2.7,1.2,4.1
					c0.6,1.4,1.6,2.7,2.8,3.9c1.3,1.2,3,2.2,5.1,3c2.1,0.8,4.8,1.2,8.1,1.2c5.7,0,10.1-1.2,13.2-3.6c3.1-2.4,5.1-5.9,6.1-10.5
					l4.7-22.6L29.9,231.1L29.9,231.1z"/>
				<path class="st3" d="M212.9,231.1l-7.4,35.9h13.1l7.4-35.9H212.9z"/>
				<path class="st3" d="M245.2,231.1L222.9,267h13.8l3-5.3h15.2l0.9,5.3h12.9l-7.8-35.9H245.2L245.2,231.1z M251.7,240.8l1.8,11.5
					h-8.3L251.7,240.8z"/>
				<path class="st3" d="M313.6,241.1c0.5-2.3,0.3-4.2-0.7-5.7c-1-1.5-2.5-2.6-4.7-3.3c-2.1-0.7-4.6-1.1-7.5-1.1h-20.4L273,267h20.8
					c3.4,0,6.4-0.4,9-1.2c2.6-0.8,4.7-1.9,6.3-3.3c1.6-1.4,2.7-3.1,3.1-5.1c0.4-1.8,0.4-3.4,0-4.8c-0.5-1.4-1.3-2.5-2.5-3.4
					c-0.8-0.6-1.8-1-2.9-1.4c1.5-0.6,2.9-1.3,4-2.2C312.3,244.4,313.2,242.9,313.6,241.1L313.6,241.1z M299.4,256.9
					c-0.4,0.6-1.1,1-1.9,1.3c-0.8,0.3-1.8,0.4-3,0.4h-8l1.3-6.3h7.9c1,0,1.7,0.1,2.4,0.3c0.6,0.2,1.1,0.5,1.5,0.9
					c0.3,0.4,0.5,0.9,0.5,1.4C300.1,255.7,299.9,256.4,299.4,256.9z M301.1,243.3c-0.4,0.5-0.9,0.8-1.6,1c-0.7,0.2-1.5,0.3-2.6,0.3
					h-7.4l1.1-5.2h7.3c0.8,0,1.5,0.1,2.1,0.2c0.5,0.2,1,0.4,1.2,0.7c0.3,0.3,0.4,0.8,0.4,1.3C301.6,242.3,301.4,242.9,301.1,243.3
					L301.1,243.3z"/>
				<path class="st3" d="M193.5,231.1l-4.5,21.8c-0.3,1.5-0.9,2.7-1.7,3.5c-0.8,0.8-2.1,1.2-3.9,1.2c-0.9,0-1.6-0.1-2.2-0.3
					c-0.6-0.2-1.2-0.6-1.6-1c-0.4-0.4-0.7-1-0.9-1.6c-0.2-0.6-0.3-1.4-0.3-2.2h-13.2c0,0.9,0.1,2,0.3,3.3c0.2,1.3,0.6,2.7,1.2,4.1
					c0.6,1.4,1.6,2.7,2.8,3.9c1.3,1.2,3,2.2,5.1,3c2.1,0.8,4.9,1.2,8.1,1.2c5.7,0,10.1-1.2,13.2-3.6c3.1-2.4,5.1-5.9,6.1-10.5
					l4.7-22.6L193.5,231.1L193.5,231.1z"/>
				<path class="st3" d="M357.1,231.1l-4.5,21.8c-0.3,1.5-0.9,2.7-1.7,3.5c-0.8,0.8-2.1,1.2-3.9,1.2c-0.9,0-1.6-0.1-2.2-0.3
					c-0.6-0.2-1.2-0.6-1.6-1c-0.4-0.4-0.7-1-0.9-1.6c-0.2-0.6-0.3-1.4-0.3-2.2h-13.2c0,0.9,0.1,2,0.3,3.3c0.2,1.3,0.6,2.7,1.2,4.1
					c0.6,1.4,1.5,2.7,2.8,3.9c1.3,1.2,3,2.2,5.1,3c2.1,0.8,4.9,1.2,8.1,1.2c5.7,0,10.1-1.2,13.2-3.6c3.1-2.4,5.1-5.9,6.1-10.5
					l4.7-22.6L357.1,231.1L357.1,231.1z"/>
				<path class="st3" d="M80.8,285.9c0.5-2.3,0.3-4.2-0.7-5.7c-1-1.5-2.5-2.6-4.7-3.3c-2.1-0.7-4.6-1.1-7.5-1.1H47.6l-7.4,35.9H61
					c3.4,0,6.4-0.4,9-1.2c2.6-0.8,4.7-1.9,6.3-3.3c1.6-1.4,2.7-3.1,3.1-5.1c0.4-1.8,0.4-3.4,0-4.8c-0.5-1.4-1.3-2.5-2.5-3.4
					c-0.8-0.6-1.8-1-2.9-1.4c1.6-0.6,2.9-1.3,4-2.2C79.5,289.1,80.4,287.6,80.8,285.9L80.8,285.9z M66.7,301.6
					c-0.4,0.6-1.1,1-1.9,1.3s-1.8,0.4-3,0.4h-8l1.3-6.3H63c1,0,1.7,0.1,2.4,0.3c0.6,0.2,1.1,0.5,1.5,0.9c0.3,0.4,0.5,0.9,0.5,1.4
					C67.3,300.4,67.1,301.1,66.7,301.6z M68.3,288.1c-0.4,0.5-0.9,0.8-1.6,1c-0.7,0.2-1.6,0.3-2.6,0.3h-7.4l1.1-5.2h7.3
					c0.8,0,1.5,0.1,2.1,0.2c0.5,0.2,1,0.4,1.2,0.7c0.3,0.3,0.4,0.8,0.4,1.3C68.8,287.1,68.6,287.6,68.3,288.1L68.3,288.1z"/>
				<path class="st3" d="M143.7,275.8l-7.4,35.9h13.1l7.4-35.9H143.7z"/>
				<path class="st3" d="M176,275.8l-22.3,35.9h13.8l3-5.3h15.2l0.9,5.3h12.9l-7.8-35.9H176L176,275.8z M182.5,285.5l1.8,11.5h-8.3
					L182.5,285.5z"/>
				<path class="st3" d="M244.5,285.9c0.5-2.3,0.3-4.2-0.7-5.7c-1-1.5-2.5-2.6-4.7-3.3c-2.1-0.7-4.6-1.1-7.5-1.1h-20.4l-7.4,35.9
					h20.8c3.4,0,6.4-0.4,9-1.2c2.6-0.8,4.7-1.9,6.3-3.3c1.6-1.4,2.7-3.1,3.1-5.1c0.4-1.8,0.4-3.4,0-4.8c-0.5-1.4-1.3-2.5-2.5-3.4
					c-0.8-0.6-1.8-1-2.9-1.4c1.6-0.6,2.9-1.3,4-2.2C243.1,289.1,244.1,287.6,244.5,285.9L244.5,285.9z M230.3,301.6
					c-0.4,0.6-1.1,1-1.9,1.3c-0.8,0.3-1.8,0.4-3,0.4h-8l1.3-6.3h7.9c1,0,1.7,0.1,2.4,0.3s1.1,0.5,1.4,0.9c0.3,0.4,0.5,0.9,0.5,1.4
					C230.9,300.4,230.7,301.1,230.3,301.6z M231.9,288.1c-0.4,0.5-0.9,0.8-1.6,1c-0.7,0.2-1.5,0.3-2.6,0.3h-7.4l1.1-5.2h7.3
					c0.8,0,1.5,0.1,2.1,0.2s1,0.4,1.2,0.7c0.3,0.3,0.4,0.8,0.4,1.3C232.4,287.1,232.2,287.6,231.9,288.1L231.9,288.1z"/>
				<path class="st3" d="M124.3,275.8l-4.5,21.8c-0.3,1.5-0.9,2.7-1.7,3.5c-0.8,0.8-2.1,1.2-3.9,1.2c-0.9,0-1.6-0.1-2.2-0.3
					c-0.6-0.2-1.2-0.6-1.6-1c-0.4-0.4-0.7-1-0.9-1.6c-0.2-0.6-0.3-1.4-0.3-2.2H95.9c0,0.9,0.1,2,0.3,3.3c0.2,1.3,0.6,2.7,1.2,4.1
					c0.6,1.4,1.6,2.7,2.8,3.9c1.3,1.2,3,2.2,5.1,3c2.1,0.8,4.8,1.2,8.1,1.2c5.7,0,10.1-1.2,13.2-3.6c3.1-2.4,5.1-5.9,6.1-10.5
					l4.7-22.6L124.3,275.8L124.3,275.8z"/>
				<path class="st3" d="M307.4,275.8l-7.4,35.9h13.1l7.4-35.9H307.4z"/>
				<path class="st3" d="M339.7,275.8l-22.3,35.9h13.8l3-5.3h15.2l0.9,5.3h12.9l-7.8-35.9H339.7L339.7,275.8z M346.1,285.5l1.8,11.5
					h-8.3L346.1,285.5z"/>
				<path class="st3" d="M288,275.8l-4.5,21.8c-0.3,1.5-0.9,2.7-1.7,3.5c-0.8,0.8-2.1,1.2-3.9,1.2c-0.9,0-1.6-0.1-2.2-0.3
					c-0.6-0.2-1.2-0.6-1.6-1c-0.4-0.4-0.7-1-0.9-1.6s-0.3-1.4-0.3-2.2h-13.2c0,0.9,0.1,2,0.3,3.3c0.2,1.3,0.6,2.7,1.2,4.1
					c0.6,1.4,1.5,2.7,2.8,3.9c1.3,1.2,3,2.2,5.1,3s4.9,1.2,8.1,1.2c5.7,0,10.1-1.2,13.2-3.6c3.1-2.4,5.1-5.9,6.1-10.5l4.7-22.6
					L288,275.8L288,275.8z"/>
				<path class="st3" d="M49.3,321.8l-7.4,35.9H55l7.4-35.9H49.3z"/>
				<path class="st3" d="M81.6,321.8l-22.3,35.9h13.8l3-5.3h15.2l0.9,5.3H105l-7.8-35.9H81.6L81.6,321.8z M88.1,331.5l1.8,11.5h-8.3
					L88.1,331.5z"/>
				<path class="st3" d="M150,331.9c0.5-2.3,0.3-4.2-0.7-5.7c-1-1.5-2.5-2.6-4.7-3.3c-2.1-0.7-4.6-1.1-7.5-1.1h-20.4l-7.4,35.9h20.8
					c3.4,0,6.4-0.4,9-1.2c2.6-0.8,4.7-1.9,6.3-3.3c1.6-1.4,2.7-3.1,3.1-5.1c0.4-1.8,0.4-3.4,0-4.8c-0.5-1.4-1.3-2.5-2.5-3.4
					c-0.8-0.6-1.8-1-2.9-1.4c1.6-0.6,2.9-1.3,4-2.2C148.7,335.2,149.6,333.6,150,331.9L150,331.9z M135.8,347.7
					c-0.4,0.6-1.1,1-1.9,1.3c-0.8,0.3-1.8,0.4-3,0.4h-8l1.3-6.3h7.8c1,0,1.7,0.1,2.4,0.3c0.6,0.2,1.1,0.5,1.5,0.9
					c0.3,0.4,0.5,0.9,0.5,1.4C136.5,346.5,136.3,347.1,135.8,347.7z M137.4,334.1c-0.4,0.5-0.9,0.8-1.6,1c-0.7,0.2-1.6,0.3-2.6,0.3
					h-7.4l1.1-5.2h7.3c0.8,0,1.5,0.1,2.1,0.2c0.5,0.2,1,0.4,1.2,0.7c0.3,0.3,0.4,0.8,0.4,1.3C138,333.1,137.8,333.6,137.4,334.1
					L137.4,334.1z"/>
				<path class="st3" d="M29.9,321.8l-4.5,21.8c-0.3,1.5-0.9,2.7-1.7,3.5c-0.8,0.8-2.1,1.2-3.9,1.2c-0.9,0-1.6-0.1-2.2-0.3
					c-0.6-0.2-1.2-0.6-1.6-1c-0.4-0.4-0.7-1-0.9-1.6s-0.3-1.4-0.3-2.2H1.5c0,0.9,0.1,2,0.3,3.3c0.2,1.3,0.6,2.7,1.2,4.1
					c0.6,1.4,1.6,2.7,2.8,3.9c1.3,1.2,3,2.2,5.1,3c2.1,0.8,4.8,1.2,8.1,1.2c5.7,0,10.1-1.2,13.2-3.6c3.1-2.4,5.1-5.9,6.1-10.5
					l4.7-22.6L29.9,321.8L29.9,321.8z"/>
				<path class="st3" d="M212.9,321.8l-7.4,35.9h13.1l7.4-35.9H212.9z"/>
				<path class="st3" d="M245.2,321.8l-22.3,35.9h13.8l3-5.3h15.2l0.9,5.3h12.9l-7.8-35.9H245.2L245.2,321.8z M251.7,331.5l1.8,11.5
					h-8.3L251.7,331.5z"/>
				<path class="st3" d="M313.6,331.9c0.5-2.3,0.3-4.2-0.7-5.7c-1-1.5-2.5-2.6-4.7-3.3c-2.1-0.7-4.6-1.1-7.5-1.1h-20.4l-7.4,35.9
					h20.8c3.4,0,6.4-0.4,9-1.2c2.6-0.8,4.7-1.9,6.3-3.3c1.6-1.4,2.7-3.1,3.1-5.1c0.4-1.8,0.4-3.4,0-4.8c-0.5-1.4-1.3-2.5-2.5-3.4
					c-0.8-0.6-1.8-1-2.9-1.4c1.5-0.6,2.9-1.3,4-2.2C312.3,335.2,313.2,333.6,313.6,331.9L313.6,331.9z M299.4,347.7
					c-0.4,0.6-1.1,1-1.9,1.3c-0.8,0.3-1.8,0.4-3,0.4h-8l1.3-6.3h7.9c1,0,1.7,0.1,2.4,0.3c0.6,0.2,1.1,0.5,1.5,0.9
					c0.3,0.4,0.5,0.9,0.5,1.4C300.1,346.5,299.9,347.1,299.4,347.7z M301.1,334.1c-0.4,0.5-0.9,0.8-1.6,1c-0.7,0.2-1.5,0.3-2.6,0.3
					h-7.4l1.1-5.2h7.3c0.8,0,1.5,0.1,2.1,0.2c0.5,0.2,1,0.4,1.2,0.7c0.3,0.3,0.4,0.8,0.4,1.3C301.6,333.1,301.4,333.6,301.1,334.1
					L301.1,334.1z"/>
				<path class="st3" d="M193.5,321.8l-4.5,21.8c-0.3,1.5-0.9,2.7-1.7,3.5c-0.8,0.8-2.1,1.2-3.9,1.2c-0.9,0-1.6-0.1-2.2-0.3
					c-0.6-0.2-1.2-0.6-1.6-1c-0.4-0.4-0.7-1-0.9-1.6c-0.2-0.6-0.3-1.4-0.3-2.2h-13.2c0,0.9,0.1,2,0.3,3.3c0.2,1.3,0.6,2.7,1.2,4.1
					c0.6,1.4,1.6,2.7,2.8,3.9c1.3,1.2,3,2.2,5.1,3c2.1,0.8,4.9,1.2,8.1,1.2c5.7,0,10.1-1.2,13.2-3.6c3.1-2.4,5.1-5.9,6.1-10.5
					l4.7-22.6L193.5,321.8L193.5,321.8z"/>
				<path class="st3" d="M357.1,321.8l-4.5,21.8c-0.3,1.5-0.9,2.7-1.7,3.5c-0.8,0.8-2.1,1.2-3.9,1.2c-0.9,0-1.6-0.1-2.2-0.3
					c-0.6-0.2-1.2-0.6-1.6-1c-0.4-0.4-0.7-1-0.9-1.6c-0.2-0.6-0.3-1.4-0.3-2.2h-13.2c0,0.9,0.1,2,0.3,3.3c0.2,1.3,0.6,2.7,1.2,4.1
					c0.6,1.4,1.5,2.7,2.8,3.9c1.3,1.2,3,2.2,5.1,3c2.1,0.8,4.9,1.2,8.1,1.2c5.7,0,10.1-1.2,13.2-3.6c3.1-2.4,5.1-5.9,6.1-10.5
					l4.7-22.6L357.1,321.8L357.1,321.8z"/>
				<path class="st3" d="M80.8,376.6c0.5-2.3,0.3-4.2-0.7-5.7c-1-1.5-2.5-2.6-4.7-3.3c-2.1-0.7-4.6-1.1-7.5-1.1H47.6l-7.4,35.9H61
					c3.4,0,6.4-0.4,9-1.2c2.6-0.8,4.7-1.9,6.3-3.3c1.6-1.4,2.7-3.1,3.1-5.1c0.4-1.8,0.4-3.4,0-4.8c-0.5-1.4-1.3-2.5-2.5-3.4
					c-0.8-0.6-1.8-1-2.9-1.3c1.6-0.6,2.9-1.3,4-2.2C79.5,379.9,80.4,378.4,80.8,376.6L80.8,376.6z M66.7,392.4
					c-0.4,0.6-1.1,1-1.9,1.3c-0.8,0.3-1.8,0.4-3,0.4h-8l1.3-6.3H63c1,0,1.7,0.1,2.4,0.3c0.6,0.2,1.1,0.5,1.5,0.9
					c0.3,0.4,0.5,0.9,0.5,1.4C67.3,391.2,67.1,391.8,66.7,392.4z M68.3,378.8c-0.4,0.5-0.9,0.8-1.6,1c-0.7,0.2-1.6,0.3-2.6,0.3h-7.4
					l1.1-5.2h7.3c0.8,0,1.5,0.1,2.1,0.2c0.5,0.2,1,0.4,1.2,0.7c0.3,0.3,0.4,0.8,0.4,1.3C68.8,377.8,68.6,378.4,68.3,378.8
					L68.3,378.8z"/>
				<path class="st3" d="M143.7,366.6l-7.4,35.9h13.1l7.4-35.9H143.7z"/>
				<path class="st3" d="M176,366.6l-22.3,35.9h13.8l3-5.3h15.2l0.9,5.3h12.9l-7.8-35.9H176L176,366.6z M182.5,376.2l1.8,11.5h-8.3
					L182.5,376.2z"/>
				<path class="st3" d="M244.5,376.6c0.5-2.3,0.3-4.2-0.7-5.7c-1-1.5-2.5-2.6-4.7-3.3c-2.1-0.7-4.6-1.1-7.5-1.1h-20.4l-7.4,35.9
					h20.8c3.4,0,6.4-0.4,9-1.2c2.6-0.8,4.7-1.9,6.3-3.3c1.6-1.4,2.7-3.1,3.1-5.1c0.4-1.8,0.4-3.4,0-4.8c-0.5-1.4-1.3-2.5-2.5-3.4
					c-0.8-0.6-1.8-1-2.9-1.3c1.6-0.6,2.9-1.3,4-2.2C243.1,379.9,244.1,378.4,244.5,376.6L244.5,376.6z M230.3,392.4
					c-0.4,0.6-1.1,1-1.9,1.3c-0.8,0.3-1.8,0.4-3,0.4h-8l1.3-6.3h7.9c1,0,1.7,0.1,2.4,0.3c0.6,0.2,1.1,0.5,1.4,0.9
					c0.3,0.4,0.5,0.9,0.5,1.4C230.9,391.2,230.7,391.8,230.3,392.4z M231.9,378.8c-0.4,0.5-0.9,0.8-1.6,1c-0.7,0.2-1.5,0.3-2.6,0.3
					h-7.4l1.1-5.2h7.3c0.8,0,1.5,0.1,2.1,0.2c0.5,0.2,1,0.4,1.2,0.7c0.3,0.3,0.4,0.8,0.4,1.3C232.4,377.8,232.2,378.4,231.9,378.8
					L231.9,378.8z"/>
				<path class="st3" d="M124.3,366.6l-4.5,21.8c-0.3,1.5-0.9,2.7-1.7,3.5c-0.8,0.8-2.1,1.2-3.9,1.2c-0.9,0-1.6-0.1-2.2-0.3
					c-0.6-0.2-1.2-0.6-1.6-1c-0.4-0.4-0.7-1-0.9-1.6c-0.2-0.6-0.3-1.4-0.3-2.2H95.9c0,0.9,0.1,2,0.3,3.3c0.2,1.3,0.6,2.7,1.2,4.1
					c0.6,1.4,1.6,2.7,2.8,3.9c1.3,1.2,3,2.2,5.1,3c2.1,0.8,4.8,1.2,8.1,1.2c5.7,0,10.1-1.2,13.2-3.7c3.1-2.4,5.1-5.9,6.1-10.5
					l4.7-22.6L124.3,366.6L124.3,366.6z"/>
				<path class="st3" d="M307.4,366.6l-7.4,35.9h13.1l7.4-35.9H307.4z"/>
				<path class="st3" d="M339.7,366.6l-22.3,35.9h13.8l3-5.3h15.2l0.9,5.3h12.9l-7.8-35.9H339.7L339.7,366.6z M346.1,376.2l1.8,11.5
					h-8.3L346.1,376.2z"/>
				<path class="st3" d="M288,366.6l-4.5,21.8c-0.3,1.5-0.9,2.7-1.7,3.5c-0.8,0.8-2.1,1.2-3.9,1.2c-0.9,0-1.6-0.1-2.2-0.3
					c-0.6-0.2-1.2-0.6-1.6-1c-0.4-0.4-0.7-1-0.9-1.6c-0.2-0.6-0.3-1.4-0.3-2.2h-13.2c0,0.9,0.1,2,0.3,3.3c0.2,1.3,0.6,2.7,1.2,4.1
					c0.6,1.4,1.5,2.7,2.8,3.9c1.3,1.2,3,2.2,5.1,3c2.1,0.8,4.9,1.2,8.1,1.2c5.7,0,10.1-1.2,13.2-3.7c3.1-2.4,5.1-5.9,6.1-10.5
					l4.7-22.6L288,366.6L288,366.6z"/>
				<path class="st3" d="M49.3,412.6l-7.4,35.9H55l7.4-35.9H49.3z"/>
				<path class="st3" d="M81.6,412.6l-22.3,35.9h13.8l3-5.3h15.2l0.9,5.3H105l-7.8-35.9H81.6L81.6,412.6z M88.1,422.3l1.8,11.5h-8.3
					L88.1,422.3z"/>
				<path class="st3" d="M150,422.6c0.5-2.3,0.3-4.2-0.7-5.7c-1-1.5-2.5-2.6-4.7-3.3c-2.1-0.7-4.6-1.1-7.5-1.1h-20.4l-7.4,35.9h20.8
					c3.4,0,6.4-0.4,9-1.2c2.6-0.8,4.7-1.9,6.3-3.3c1.6-1.4,2.7-3.1,3.1-5.1c0.4-1.8,0.4-3.4,0-4.8c-0.5-1.4-1.3-2.5-2.5-3.4
					c-0.8-0.6-1.8-1-2.9-1.4c1.6-0.6,2.9-1.3,4-2.2C148.7,425.9,149.6,424.4,150,422.6L150,422.6z M135.8,438.4
					c-0.4,0.6-1.1,1-1.9,1.3c-0.8,0.3-1.8,0.4-3,0.4h-8l1.3-6.3h7.8c1,0,1.7,0.1,2.4,0.3c0.6,0.2,1.1,0.5,1.5,0.9
					c0.3,0.4,0.5,0.9,0.5,1.4C136.5,437.2,136.3,437.9,135.8,438.4z M137.4,424.8c-0.4,0.5-0.9,0.8-1.6,1c-0.7,0.2-1.6,0.3-2.6,0.3
					h-7.4l1.1-5.2h7.3c0.8,0,1.5,0.1,2.1,0.2c0.5,0.2,1,0.4,1.2,0.7c0.3,0.3,0.4,0.8,0.4,1.3C138,423.8,137.8,424.4,137.4,424.8
					L137.4,424.8z"/>
				<path class="st3" d="M29.9,412.6l-4.5,21.8c-0.3,1.5-0.9,2.7-1.7,3.5c-0.8,0.8-2.1,1.2-3.9,1.2c-0.9,0-1.6-0.1-2.2-0.3
					c-0.6-0.2-1.2-0.6-1.6-1c-0.4-0.4-0.7-1-0.9-1.6c-0.2-0.6-0.3-1.4-0.3-2.2H1.5c0,0.9,0.1,2,0.3,3.3c0.2,1.3,0.6,2.7,1.2,4.1
					c0.6,1.4,1.6,2.7,2.8,3.9c1.3,1.2,3,2.2,5.1,3c2.1,0.8,4.8,1.2,8.1,1.2c5.7,0,10.1-1.2,13.2-3.6c3.1-2.4,5.1-5.9,6.1-10.5
					l4.7-22.6L29.9,412.6L29.9,412.6z"/>
				<path class="st3" d="M212.9,412.6l-7.4,35.9h13.1l7.4-35.9H212.9z"/>
				<path class="st3" d="M245.2,412.6l-22.3,35.9h13.8l3-5.3h15.2l0.9,5.3h12.9l-7.8-35.9H245.2L245.2,412.6z M251.7,422.3l1.8,11.5
					h-8.3L251.7,422.3z"/>
				<path class="st3" d="M313.6,422.6c0.5-2.3,0.3-4.2-0.7-5.7c-1-1.5-2.5-2.6-4.7-3.3c-2.1-0.7-4.6-1.1-7.5-1.1h-20.4l-7.4,35.9
					h20.8c3.4,0,6.4-0.4,9-1.2c2.6-0.8,4.7-1.9,6.3-3.3c1.6-1.4,2.7-3.1,3.1-5.1c0.4-1.8,0.4-3.4,0-4.8c-0.5-1.4-1.3-2.5-2.5-3.4
					c-0.8-0.6-1.8-1-2.9-1.4c1.5-0.6,2.9-1.3,4-2.2C312.3,425.9,313.2,424.4,313.6,422.6L313.6,422.6z M299.4,438.4
					c-0.4,0.6-1.1,1-1.9,1.3c-0.8,0.3-1.8,0.4-3,0.4h-8l1.3-6.3h7.9c1,0,1.7,0.1,2.4,0.3c0.6,0.2,1.1,0.5,1.5,0.9
					c0.3,0.4,0.5,0.9,0.5,1.4C300.1,437.2,299.9,437.9,299.4,438.4z M301.1,424.8c-0.4,0.5-0.9,0.8-1.6,1c-0.7,0.2-1.5,0.3-2.6,0.3
					h-7.4l1.1-5.2h7.3c0.8,0,1.5,0.1,2.1,0.2c0.5,0.2,1,0.4,1.2,0.7c0.3,0.3,0.4,0.8,0.4,1.3C301.6,423.8,301.4,424.4,301.1,424.8
					L301.1,424.8z"/>
				<path class="st3" d="M193.5,412.6l-4.5,21.8c-0.3,1.5-0.9,2.7-1.7,3.5c-0.8,0.8-2.1,1.2-3.9,1.2c-0.9,0-1.6-0.1-2.2-0.3
					c-0.6-0.2-1.2-0.6-1.6-1c-0.4-0.4-0.7-1-0.9-1.6c-0.2-0.6-0.3-1.4-0.3-2.2h-13.2c0,0.9,0.1,2,0.3,3.3c0.2,1.3,0.6,2.7,1.2,4.1
					c0.6,1.4,1.6,2.7,2.8,3.9c1.3,1.2,3,2.2,5.1,3c2.1,0.8,4.9,1.2,8.1,1.2c5.7,0,10.1-1.2,13.2-3.6c3.1-2.4,5.1-5.9,6.1-10.5
					l4.7-22.6L193.5,412.6L193.5,412.6z"/>
				<path class="st3" d="M357.1,412.6l-4.5,21.8c-0.3,1.5-0.9,2.7-1.7,3.5c-0.8,0.8-2.1,1.2-3.9,1.2c-0.9,0-1.6-0.1-2.2-0.3
					c-0.6-0.2-1.2-0.6-1.6-1c-0.4-0.4-0.7-1-0.9-1.6c-0.2-0.6-0.3-1.4-0.3-2.2h-13.2c0,0.9,0.1,2,0.3,3.3c0.2,1.3,0.6,2.7,1.2,4.1
					c0.6,1.4,1.5,2.7,2.8,3.9c1.3,1.2,3,2.2,5.1,3c2.1,0.8,4.9,1.2,8.1,1.2c5.7,0,10.1-1.2,13.2-3.6c3.1-2.4,5.1-5.9,6.1-10.5
					l4.7-22.6L357.1,412.6L357.1,412.6z"/>
				<path class="st3" d="M80.8,467.4c0.5-2.3,0.3-4.2-0.7-5.7c-1-1.5-2.5-2.6-4.7-3.3c-2.1-0.7-4.6-1.1-7.5-1.1H47.6l-7.4,35.9H61
					c3.4,0,6.4-0.4,9-1.2c2.6-0.8,4.7-1.9,6.3-3.3c1.6-1.4,2.7-3.1,3.1-5.1c0.4-1.8,0.4-3.4,0-4.8c-0.5-1.4-1.3-2.5-2.5-3.4
					c-0.8-0.6-1.8-1-2.9-1.4c1.6-0.6,2.9-1.3,4-2.2C79.5,470.6,80.4,469.1,80.8,467.4L80.8,467.4z M66.7,483.1
					c-0.4,0.6-1.1,1-1.9,1.3c-0.8,0.3-1.8,0.4-3,0.4h-8l1.3-6.3H63c1,0,1.7,0.1,2.4,0.3c0.6,0.2,1.1,0.5,1.5,0.9
					c0.3,0.4,0.5,0.9,0.5,1.4C67.3,481.9,67.1,482.6,66.7,483.1z M68.3,469.6c-0.4,0.5-0.9,0.8-1.6,1c-0.7,0.2-1.6,0.3-2.6,0.3h-7.4
					l1.1-5.2h7.3c0.8,0,1.5,0.1,2.1,0.2c0.5,0.2,1,0.4,1.2,0.7c0.3,0.3,0.4,0.8,0.4,1.3C68.8,468.6,68.6,469.1,68.3,469.6
					L68.3,469.6z"/>
				<path class="st3" d="M143.7,457.3l-7.4,35.9h13.1l7.4-35.9H143.7z"/>
				<path class="st3" d="M176,457.3l-22.3,35.9h13.8l3-5.3h15.2l0.9,5.3h12.9l-7.8-35.9H176L176,457.3z M182.5,467l1.8,11.5h-8.3
					L182.5,467z"/>
				<path class="st3" d="M244.5,467.4c0.5-2.3,0.3-4.2-0.7-5.7c-1-1.5-2.5-2.6-4.7-3.3c-2.1-0.7-4.6-1.1-7.5-1.1h-20.4l-7.4,35.9
					h20.8c3.4,0,6.4-0.4,9-1.2c2.6-0.8,4.7-1.9,6.3-3.3c1.6-1.4,2.7-3.1,3.1-5.1c0.4-1.8,0.4-3.4,0-4.8c-0.5-1.4-1.3-2.5-2.5-3.4
					c-0.8-0.6-1.8-1-2.9-1.4c1.6-0.6,2.9-1.3,4-2.2C243.1,470.6,244.1,469.1,244.5,467.4L244.5,467.4z M230.3,483.1
					c-0.4,0.6-1.1,1-1.9,1.3c-0.8,0.3-1.8,0.4-3,0.4h-8l1.3-6.3h7.9c1,0,1.7,0.1,2.4,0.3c0.6,0.2,1.1,0.5,1.4,0.9
					c0.3,0.4,0.5,0.9,0.5,1.4C230.9,481.9,230.7,482.6,230.3,483.1z M231.9,469.6c-0.4,0.5-0.9,0.8-1.6,1c-0.7,0.2-1.5,0.3-2.6,0.3
					h-7.4l1.1-5.2h7.3c0.8,0,1.5,0.1,2.1,0.2c0.5,0.2,1,0.4,1.2,0.7c0.3,0.3,0.4,0.8,0.4,1.3C232.4,468.6,232.2,469.1,231.9,469.6
					L231.9,469.6z"/>
				<path class="st3" d="M124.3,457.3l-4.5,21.8c-0.3,1.5-0.9,2.7-1.7,3.5c-0.8,0.8-2.1,1.2-3.9,1.2c-0.9,0-1.6-0.1-2.2-0.3
					c-0.6-0.2-1.2-0.6-1.6-1c-0.4-0.4-0.7-1-0.9-1.6c-0.2-0.6-0.3-1.4-0.3-2.2H95.9c0,0.9,0.1,2,0.3,3.3c0.2,1.3,0.6,2.7,1.2,4.1
					c0.6,1.4,1.6,2.7,2.8,3.9c1.3,1.2,3,2.2,5.1,3c2.1,0.8,4.8,1.2,8.1,1.2c5.7,0,10.1-1.2,13.2-3.6c3.1-2.4,5.1-5.9,6.1-10.5
					l4.7-22.6L124.3,457.3L124.3,457.3z"/>
				<path class="st3" d="M307.4,457.3l-7.4,35.9h13.1l7.4-35.9H307.4z"/>
				<path class="st3" d="M339.7,457.3l-22.3,35.9h13.8l3-5.3h15.2l0.9,5.3h12.9l-7.8-35.9H339.7L339.7,457.3z M346.1,467l1.8,11.5
					h-8.3L346.1,467z"/>
				<path class="st3" d="M288,457.3l-4.5,21.8c-0.3,1.5-0.9,2.7-1.7,3.5c-0.8,0.8-2.1,1.2-3.9,1.2c-0.9,0-1.6-0.1-2.2-0.3
					c-0.6-0.2-1.2-0.6-1.6-1c-0.4-0.4-0.7-1-0.9-1.6c-0.2-0.6-0.3-1.4-0.3-2.2h-13.2c0,0.9,0.1,2,0.3,3.3c0.2,1.3,0.6,2.7,1.2,4.1
					c0.6,1.4,1.5,2.7,2.8,3.9c1.3,1.2,3,2.2,5.1,3c2.1,0.8,4.9,1.2,8.1,1.2c5.7,0,10.1-1.2,13.2-3.6c3.1-2.4,5.1-5.9,6.1-10.5
					l4.7-22.6L288,457.3L288,457.3z"/>
				<path class="st3" d="M49.3,503.3l-7.4,35.9H55l7.4-35.9H49.3z"/>
				<path class="st3" d="M81.6,503.3l-22.3,35.9h13.8l3-5.3h15.2l0.9,5.3H105l-7.8-35.9H81.6L81.6,503.3z M88.1,513l1.8,11.5h-8.3
					L88.1,513z"/>
				<path class="st3" d="M150,513.4c0.5-2.3,0.3-4.2-0.7-5.7c-1-1.5-2.5-2.6-4.7-3.3c-2.1-0.7-4.6-1.1-7.5-1.1h-20.4l-7.4,35.9h20.8
					c3.4,0,6.4-0.4,9-1.2c2.6-0.8,4.7-1.9,6.3-3.3c1.6-1.4,2.7-3.1,3.1-5.1c0.4-1.8,0.4-3.4,0-4.8c-0.5-1.4-1.3-2.5-2.5-3.4
					c-0.8-0.6-1.8-1-2.9-1.4c1.6-0.6,2.9-1.3,4-2.2C148.7,516.7,149.6,515.1,150,513.4L150,513.4z M135.8,529.2
					c-0.4,0.6-1.1,1-1.9,1.3c-0.8,0.3-1.8,0.4-3,0.4h-8l1.3-6.3h7.8c1,0,1.7,0.1,2.4,0.3c0.6,0.2,1.1,0.5,1.5,0.9
					c0.3,0.4,0.5,0.9,0.5,1.4C136.5,528,136.3,528.6,135.8,529.2z M137.4,515.6c-0.4,0.5-0.9,0.8-1.6,1c-0.7,0.2-1.6,0.3-2.6,0.3
					h-7.4l1.1-5.2h7.3c0.8,0,1.5,0.1,2.1,0.2c0.5,0.2,1,0.4,1.2,0.7c0.3,0.3,0.4,0.8,0.4,1.3C138,514.6,137.8,515.1,137.4,515.6
					L137.4,515.6z"/>
				<path class="st3" d="M29.9,503.3l-4.5,21.8c-0.3,1.5-0.9,2.7-1.7,3.5c-0.8,0.8-2.1,1.2-3.9,1.2c-0.9,0-1.6-0.1-2.2-0.3
					s-1.2-0.6-1.6-1c-0.4-0.4-0.7-1-0.9-1.6c-0.2-0.6-0.3-1.4-0.3-2.2H1.5c0,0.9,0.1,2,0.3,3.3c0.2,1.3,0.6,2.7,1.2,4.1
					c0.6,1.4,1.6,2.7,2.8,3.9c1.3,1.2,3,2.2,5.1,3c2.1,0.8,4.8,1.2,8.1,1.2c5.7,0,10.1-1.2,13.2-3.6c3.1-2.4,5.1-5.9,6.1-10.5
					l4.7-22.6L29.9,503.3L29.9,503.3z"/>
				<path class="st3" d="M212.9,503.3l-7.4,35.9h13.1l7.4-35.9H212.9z"/>
				<path class="st3" d="M245.2,503.3l-22.3,35.9h13.8l3-5.3h15.2l0.9,5.3h12.9l-7.8-35.9H245.2L245.2,503.3z M251.7,513l1.8,11.5
					h-8.3L251.7,513z"/>
				<path class="st3" d="M313.6,513.4c0.5-2.3,0.3-4.2-0.7-5.7c-1-1.5-2.5-2.6-4.7-3.3c-2.1-0.7-4.6-1.1-7.5-1.1h-20.4l-7.4,35.9
					h20.8c3.4,0,6.4-0.4,9-1.2c2.6-0.8,4.7-1.9,6.3-3.3c1.6-1.4,2.7-3.1,3.1-5.1c0.4-1.8,0.4-3.4,0-4.8c-0.5-1.4-1.3-2.5-2.5-3.4
					c-0.8-0.6-1.8-1-2.9-1.4c1.5-0.6,2.9-1.3,4-2.2C312.3,516.7,313.2,515.1,313.6,513.4L313.6,513.4z M299.4,529.2
					c-0.4,0.6-1.1,1-1.9,1.3c-0.8,0.3-1.8,0.4-3,0.4h-8l1.3-6.3h7.9c1,0,1.7,0.1,2.4,0.3c0.6,0.2,1.1,0.5,1.5,0.9
					c0.3,0.4,0.5,0.9,0.5,1.4C300.1,528,299.9,528.6,299.4,529.2z M301.1,515.6c-0.4,0.5-0.9,0.8-1.6,1c-0.7,0.2-1.5,0.3-2.6,0.3
					h-7.4l1.1-5.2h7.3c0.8,0,1.5,0.1,2.1,0.2c0.5,0.2,1,0.4,1.2,0.7c0.3,0.3,0.4,0.8,0.4,1.3C301.6,514.6,301.4,515.1,301.1,515.6
					L301.1,515.6z"/>
				<path class="st3" d="M193.5,503.3l-4.5,21.8c-0.3,1.5-0.9,2.7-1.7,3.5c-0.8,0.8-2.1,1.2-3.9,1.2c-0.9,0-1.6-0.1-2.2-0.3
					c-0.6-0.2-1.2-0.6-1.6-1c-0.4-0.4-0.7-1-0.9-1.6c-0.2-0.6-0.3-1.4-0.3-2.2h-13.2c0,0.9,0.1,2,0.3,3.3c0.2,1.3,0.6,2.7,1.2,4.1
					c0.6,1.4,1.6,2.7,2.8,3.9c1.3,1.2,3,2.2,5.1,3c2.1,0.8,4.9,1.2,8.1,1.2c5.7,0,10.1-1.2,13.2-3.6c3.1-2.4,5.1-5.9,6.1-10.5
					l4.7-22.6L193.5,503.3L193.5,503.3z"/>
				<path class="st3" d="M357.1,503.3l-4.5,21.8c-0.3,1.5-0.9,2.7-1.7,3.5c-0.8,0.8-2.1,1.2-3.9,1.2c-0.9,0-1.6-0.1-2.2-0.3
					c-0.6-0.2-1.2-0.6-1.6-1c-0.4-0.4-0.7-1-0.9-1.6c-0.2-0.6-0.3-1.4-0.3-2.2h-13.2c0,0.9,0.1,2,0.3,3.3c0.2,1.3,0.6,2.7,1.2,4.1
					c0.6,1.4,1.5,2.7,2.8,3.9c1.3,1.2,3,2.2,5.1,3c2.1,0.8,4.9,1.2,8.1,1.2c5.7,0,10.1-1.2,13.2-3.6c3.1-2.4,5.1-5.9,6.1-10.5
					l4.7-22.6L357.1,503.3L357.1,503.3z"/>
				<path class="st3" d="M80.8,558.1c0.5-2.3,0.3-4.2-0.7-5.7c-1-1.5-2.5-2.6-4.7-3.3c-2.1-0.7-4.6-1.1-7.5-1.1H47.6L40.2,584H61
					c3.4,0,6.4-0.4,9-1.2c2.6-0.8,4.7-1.9,6.3-3.3c1.6-1.4,2.7-3.1,3.1-5.1c0.4-1.8,0.4-3.4,0-4.8c-0.5-1.4-1.3-2.5-2.5-3.4
					c-0.8-0.6-1.8-1-2.9-1.4c1.6-0.6,2.9-1.3,4-2.2C79.5,561.4,80.4,559.8,80.8,558.1L80.8,558.1z M66.7,573.9
					c-0.4,0.6-1.1,1-1.9,1.3c-0.8,0.3-1.8,0.4-3,0.4h-8l1.3-6.3H63c1,0,1.7,0.1,2.4,0.3c0.6,0.2,1.1,0.5,1.5,0.9
					c0.3,0.4,0.5,0.9,0.5,1.4C67.3,572.7,67.1,573.3,66.7,573.9z M68.3,560.3c-0.4,0.5-0.9,0.8-1.6,1c-0.7,0.2-1.6,0.3-2.6,0.3h-7.4
					l1.1-5.2h7.3c0.8,0,1.5,0.1,2.1,0.2c0.5,0.2,1,0.4,1.2,0.7c0.3,0.3,0.4,0.8,0.4,1.3C68.8,559.3,68.6,559.8,68.3,560.3
					L68.3,560.3z"/>
				<path class="st3" d="M143.7,548.1l-7.4,35.9h13.1l7.4-35.9H143.7z"/>
				<path class="st3" d="M176,548.1L153.7,584h13.8l3-5.3h15.2l0.9,5.3h12.9l-7.8-35.9H176L176,548.1z M182.5,557.7l1.8,11.5h-8.3
					L182.5,557.7z"/>
				<path class="st3" d="M244.5,558.1c0.5-2.3,0.3-4.2-0.7-5.7c-1-1.5-2.5-2.6-4.7-3.3c-2.1-0.7-4.6-1.1-7.5-1.1h-20.4l-7.4,35.9
					h20.8c3.4,0,6.4-0.4,9-1.2c2.6-0.8,4.7-1.9,6.3-3.3c1.6-1.4,2.7-3.1,3.1-5.1c0.4-1.8,0.4-3.4,0-4.8c-0.5-1.4-1.3-2.5-2.5-3.4
					c-0.8-0.6-1.8-1-2.9-1.4c1.6-0.6,2.9-1.3,4-2.2C243.1,561.4,244.1,559.8,244.5,558.1L244.5,558.1z M230.3,573.9
					c-0.4,0.6-1.1,1-1.9,1.3c-0.8,0.3-1.8,0.4-3,0.4h-8l1.3-6.3h7.9c1,0,1.7,0.1,2.4,0.3c0.6,0.2,1.1,0.5,1.4,0.9
					c0.3,0.4,0.5,0.9,0.5,1.4C230.9,572.7,230.7,573.3,230.3,573.9z M231.9,560.3c-0.4,0.5-0.9,0.8-1.6,1c-0.7,0.2-1.5,0.3-2.6,0.3
					h-7.4l1.1-5.2h7.3c0.8,0,1.5,0.1,2.1,0.2c0.5,0.2,1,0.4,1.2,0.7c0.3,0.3,0.4,0.8,0.4,1.3C232.4,559.3,232.2,559.8,231.9,560.3
					L231.9,560.3z"/>
				<path class="st3" d="M124.3,548.1l-4.5,21.8c-0.3,1.5-0.9,2.7-1.7,3.5c-0.8,0.8-2.1,1.2-3.9,1.2c-0.9,0-1.6-0.1-2.2-0.3
					c-0.6-0.2-1.2-0.6-1.6-1c-0.4-0.4-0.7-1-0.9-1.6c-0.2-0.6-0.3-1.4-0.3-2.2H95.9c0,0.9,0.1,2,0.3,3.3c0.2,1.3,0.6,2.7,1.2,4.1
					c0.6,1.4,1.6,2.7,2.8,3.9c1.3,1.2,3,2.2,5.1,3c2.1,0.8,4.8,1.2,8.1,1.2c5.7,0,10.1-1.2,13.2-3.6c3.1-2.4,5.1-5.9,6.1-10.5
					l4.7-22.6L124.3,548.1L124.3,548.1z"/>
				<path class="st3" d="M307.4,548.1l-7.4,35.9h13.1l7.4-35.9H307.4z"/>
				<path class="st3" d="M339.7,548.1L317.3,584h13.8l3-5.3h15.2l0.9,5.3h12.9l-7.8-35.9H339.7L339.7,548.1z M346.1,557.7l1.8,11.5
					h-8.3L346.1,557.7z"/>
				<path class="st3" d="M288,548.1l-4.5,21.8c-0.3,1.5-0.9,2.7-1.7,3.5c-0.8,0.8-2.1,1.2-3.9,1.2c-0.9,0-1.6-0.1-2.2-0.3
					c-0.6-0.2-1.2-0.6-1.6-1c-0.4-0.4-0.7-1-0.9-1.6s-0.3-1.4-0.3-2.2h-13.2c0,0.9,0.1,2,0.3,3.3c0.2,1.3,0.6,2.7,1.2,4.1
					c0.6,1.4,1.5,2.7,2.8,3.9c1.3,1.2,3,2.2,5.1,3s4.9,1.2,8.1,1.2c5.7,0,10.1-1.2,13.2-3.6c3.1-2.4,5.1-5.9,6.1-10.5l4.7-22.6
					L288,548.1L288,548.1z"/>
				<path class="st3" d="M49.3,594.1L41.9,630H55l7.4-35.9H49.3z"/>
				<path class="st3" d="M81.6,594.1L59.3,630h13.8l3-5.3h15.2l0.9,5.3H105l-7.8-35.9H81.6L81.6,594.1z M88.1,603.7l1.8,11.5h-8.3
					L88.1,603.7z"/>
				<path class="st3" d="M150,604.1c0.5-2.3,0.3-4.2-0.7-5.7c-1-1.5-2.5-2.6-4.7-3.3c-2.1-0.7-4.6-1.1-7.5-1.1h-20.4l-7.4,35.9h20.8
					c3.4,0,6.4-0.4,9-1.2c2.6-0.8,4.7-1.9,6.3-3.3c1.6-1.4,2.7-3.1,3.1-5.1c0.4-1.8,0.4-3.4,0-4.8c-0.5-1.4-1.3-2.5-2.5-3.4
					c-0.8-0.6-1.8-1-2.9-1.4c1.6-0.6,2.9-1.3,4-2.2C148.7,607.4,149.6,605.9,150,604.1L150,604.1z M135.8,619.9
					c-0.4,0.6-1.1,1-1.9,1.3c-0.8,0.3-1.8,0.4-3,0.4h-8l1.3-6.3h7.8c1,0,1.7,0.1,2.4,0.3c0.6,0.2,1.1,0.5,1.5,0.9
					c0.3,0.4,0.5,0.9,0.5,1.4C136.5,618.7,136.3,619.4,135.8,619.9z M137.4,606.3c-0.4,0.5-0.9,0.8-1.6,1c-0.7,0.2-1.6,0.3-2.6,0.3
					h-7.4l1.1-5.2h7.3c0.8,0,1.5,0.1,2.1,0.2c0.5,0.2,1,0.4,1.2,0.7c0.3,0.3,0.4,0.8,0.4,1.3C138,605.3,137.8,605.9,137.4,606.3
					L137.4,606.3z"/>
				<path class="st3" d="M29.9,594.1l-4.5,21.8c-0.3,1.5-0.9,2.7-1.7,3.5c-0.8,0.8-2.1,1.2-3.9,1.2c-0.9,0-1.6-0.1-2.2-0.3
					c-0.6-0.2-1.2-0.6-1.6-1c-0.4-0.4-0.7-1-0.9-1.6c-0.2-0.6-0.3-1.4-0.3-2.2H1.5c0,0.9,0.1,2,0.3,3.3c0.2,1.3,0.6,2.7,1.2,4.1
					c0.6,1.4,1.6,2.7,2.8,3.9c1.3,1.2,3,2.2,5.1,3c2.1,0.8,4.8,1.2,8.1,1.2c5.7,0,10.1-1.2,13.2-3.6c3.1-2.4,5.1-5.9,6.1-10.5
					l4.7-22.6L29.9,594.1L29.9,594.1z"/>
				<path class="st3" d="M212.9,594.1l-7.4,35.9h13.1l7.4-35.9H212.9z"/>
				<path class="st3" d="M245.2,594.1L222.9,630h13.8l3-5.3h15.2l0.9,5.3h12.9l-7.8-35.9H245.2L245.2,594.1z M251.7,603.7l1.8,11.5
					h-8.3L251.7,603.7z"/>
				<path class="st3" d="M313.6,604.1c0.5-2.3,0.3-4.2-0.7-5.7c-1-1.5-2.5-2.6-4.7-3.3c-2.1-0.7-4.6-1.1-7.5-1.1h-20.4L273,630h20.8
					c3.4,0,6.4-0.4,9-1.2c2.6-0.8,4.7-1.9,6.3-3.3c1.6-1.4,2.7-3.1,3.1-5.1c0.4-1.8,0.4-3.4,0-4.8c-0.5-1.4-1.3-2.5-2.5-3.4
					c-0.8-0.6-1.8-1-2.9-1.4c1.5-0.6,2.9-1.3,4-2.2C312.3,607.4,313.2,605.9,313.6,604.1L313.6,604.1z M299.4,619.9
					c-0.4,0.6-1.1,1-1.9,1.3c-0.8,0.3-1.8,0.4-3,0.4h-8l1.3-6.3h7.9c1,0,1.7,0.1,2.4,0.3c0.6,0.2,1.1,0.5,1.5,0.9
					c0.3,0.4,0.5,0.9,0.5,1.4C300.1,618.7,299.9,619.4,299.4,619.9z M301.1,606.3c-0.4,0.5-0.9,0.8-1.6,1c-0.7,0.2-1.5,0.3-2.6,0.3
					h-7.4l1.1-5.2h7.3c0.8,0,1.5,0.1,2.1,0.2c0.5,0.2,1,0.4,1.2,0.7c0.3,0.3,0.4,0.8,0.4,1.3C301.6,605.3,301.4,605.9,301.1,606.3
					L301.1,606.3z"/>
				<path class="st3" d="M193.5,594.1l-4.5,21.8c-0.3,1.5-0.9,2.7-1.7,3.5c-0.8,0.8-2.1,1.2-3.9,1.2c-0.9,0-1.6-0.1-2.2-0.3
					c-0.6-0.2-1.2-0.6-1.6-1c-0.4-0.4-0.7-1-0.9-1.6c-0.2-0.6-0.3-1.4-0.3-2.2h-13.2c0,0.9,0.1,2,0.3,3.3c0.2,1.3,0.6,2.7,1.2,4.1
					c0.6,1.4,1.6,2.7,2.8,3.9c1.3,1.2,3,2.2,5.1,3c2.1,0.8,4.9,1.2,8.1,1.2c5.7,0,10.1-1.2,13.2-3.6c3.1-2.4,5.1-5.9,6.1-10.5
					l4.7-22.6L193.5,594.1L193.5,594.1z"/>
				<path class="st3" d="M357.1,594.1l-4.5,21.8c-0.3,1.5-0.9,2.7-1.7,3.5c-0.8,0.8-2.1,1.2-3.9,1.2c-0.9,0-1.6-0.1-2.2-0.3
					c-0.6-0.2-1.2-0.6-1.6-1c-0.4-0.4-0.7-1-0.9-1.6c-0.2-0.6-0.3-1.4-0.3-2.2h-13.2c0,0.9,0.1,2,0.3,3.3c0.2,1.3,0.6,2.7,1.2,4.1
					c0.6,1.4,1.5,2.7,2.8,3.9c1.3,1.2,3,2.2,5.1,3c2.1,0.8,4.9,1.2,8.1,1.2c5.7,0,10.1-1.2,13.2-3.6c3.1-2.4,5.1-5.9,6.1-10.5
					l4.7-22.6L357.1,594.1L357.1,594.1z"/>
				<polygon class="st3" points="16.3,653 18.9,648.5 19.6,653 31.2,653 28.1,638.8 12.4,638.8 3.6,653 				"/>
				<path class="st3" d="M78.4,653c1.2-1.2,2.1-2.6,2.4-4.1l0,0c0.5-2.3,0.3-4.2-0.7-5.7c-1-1.5-2.5-2.6-4.7-3.3
					c-2.1-0.7-4.6-1.1-7.5-1.1H47.6L44.7,653H78.4z M57.8,647.2h7.3c0.8,0,1.5,0.1,2.1,0.2c0.5,0.2,1,0.4,1.2,0.7
					c0.3,0.3,0.4,0.8,0.4,1.3c0,0.6-0.2,1.2-0.5,1.6v0c-0.4,0.5-0.9,0.8-1.6,1c-0.7,0.2-1.6,0.3-2.6,0.3h-7.4L57.8,647.2z"/>
				<polygon class="st3" points="121.4,653 134.5,653 137.5,638.8 124.3,638.8 124.3,638.8 				"/>
				<polygon class="st3" points="153.9,653 156.9,638.8 143.7,638.8 140.8,653 				"/>
				<polygon class="st3" points="179.9,653 182.5,648.5 183.2,653 194.8,653 191.7,638.8 176,638.8 167.2,653 				"/>
				<path class="st3" d="M242,653c1.2-1.2,2.1-2.6,2.4-4.1l0,0c0.5-2.3,0.3-4.2-0.7-5.7c-1-1.5-2.5-2.6-4.7-3.3
					c-2.1-0.7-4.6-1.1-7.5-1.1h-20.4l-2.9,14.2H242z M221.4,647.2h7.3c0.8,0,1.5,0.1,2.1,0.2c0.5,0.2,1,0.4,1.2,0.7
					c0.3,0.3,0.4,0.8,0.4,1.3c0,0.6-0.2,1.2-0.5,1.6v0c-0.4,0.5-0.9,0.8-1.6,1c-0.7,0.2-1.5,0.3-2.6,0.3h-7.4L221.4,647.2z"/>
				<polygon class="st3" points="285,653 298.1,653 301.1,638.8 287.9,638.8 288,638.8 				"/>
				<polygon class="st3" points="317.5,653 320.5,638.8 307.4,638.8 304.4,653 				"/>
				<polygon class="st3" points="343.5,653 346.1,648.5 346.8,653 358.4,653 355.3,638.8 339.7,638.8 330.8,653 				"/>
				<polygon class="st3" points="375,638.8 374.9,638.8 371.9,653 375,653 				"/>
				<polygon class="st3" points="375,601.5 369.1,630 375,630 				"/>
				<polygon class="st3" points="375,548.1 374.9,548.1 367.4,584 375,584 				"/>
				<polygon class="st3" points="375,510.7 369.1,539.2 375,539.2 				"/>
				<polygon class="st3" points="375,457.3 374.9,457.3 367.4,493.2 375,493.2 				"/>
				<polygon class="st3" points="375,420 369.1,448.5 375,448.5 				"/>
				<polygon class="st3" points="375,366.6 374.9,366.6 367.4,402.5 375,402.5 				"/>
				<polygon class="st3" points="375,329.2 369.1,357.8 375,357.8 				"/>
				<polygon class="st3" points="375,275.8 374.9,275.8 367.4,311.7 375,311.7 				"/>
				<polygon class="st3" points="375,238.5 369.1,267 375,267 				"/>
				<polygon class="st3" points="375,185.1 374.9,185.1 367.4,221 375,221 				"/>
				<polygon class="st3" points="375,147.7 369.1,176.3 375,176.3 				"/>
				<polygon class="st3" points="375,94.3 374.9,94.3 367.4,130.2 375,130.2 				"/>
				<polygon class="st3" points="375,57 369.1,85.5 375,85.5 				"/>
				<polygon class="st3" points="375,3.6 374.9,3.6 367.4,39.5 375,39.5 				"/>
				<path class="st3" d="M28.1,3.6H12.4L0,23.5v16h3.9l3-5.3h15.2l0.9,5.3h12.9L28.1,3.6z M12.3,24.7l6.6-11.5l1.8,11.5H12.3z"/>
				<path class="st3" d="M28.1,94.3H12.4L0,114.3v16h3.9l3-5.3h15.2l0.9,5.3h12.9L28.1,94.3z M12.3,115.4l6.6-11.5l1.8,11.5H12.3z"
					/>
				<path class="st3" d="M28.1,185.1H12.4L0,205v16h3.9l3-5.3h15.2L23,221h12.9L28.1,185.1z M12.3,206.2l6.6-11.5l1.8,11.5H12.3z"/>
				<path class="st3" d="M28.1,275.8H12.4L0,295.8v16h3.9l3-5.3h15.2l0.9,5.3h12.9L28.1,275.8z M12.3,296.9l6.6-11.5l1.8,11.5H12.3z
					"/>
				<path class="st3" d="M28.1,366.6H12.4L0,386.5v16h3.9l3-5.3h15.2l0.9,5.3h12.9L28.1,366.6z M12.3,387.7l6.6-11.5l1.8,11.5H12.3z
					"/>
				<path class="st3" d="M28.1,457.3H12.4L0,477.3v16h3.9l3-5.3h15.2l0.9,5.3h12.9L28.1,457.3z M12.3,478.4l6.6-11.5l1.8,11.5H12.3z
					"/>
				<path class="st3" d="M28.1,548.1H12.4L0,568v16h3.9l3-5.3h15.2L23,584h12.9L28.1,548.1z M12.3,569.2l6.6-11.5l1.8,11.5H12.3z"/>
			</g>
		</g>
	</g>
	<path class="st4" d="M63.3,32C55.4,32,49,38.4,49,46.3s6.4,14.3,14.3,14.3c7.9,0,14.3-6.4,14.3-14.3S71.2,32,63.3,32z M69.7,55.6
		c-6.3,3.6-14.2,0.3-16-5.5c0,0,5.2,1.2,11.3-0.6c6-1.8,9.5-5.4,9.5-5.4S75.8,52.1,69.7,55.6z"/>
	<path class="st4" d="M32.5,52.2C28.4,48.7,22.3,49,19,52.8s-2.7,9.9,1.5,13.4s10.2,3.2,13.5-0.6S36.6,55.7,32.5,52.2z M25.9,66.6
		c-4.8-1-7.6-6.2-6-9.8c0,0,2.2,2.9,6.2,4.8c3.8,1.8,7.2,1.6,7.2,1.6S30.6,67.6,25.9,66.6z"/>
	<path class="st4" d="M35.8,25.5c-2.2-1.9-5.5-1.7-7.3,0.4s-1.5,5.3,0.8,7.2c2.2,1.9,5.5,1.7,7.3-0.4C38.3,30.6,38,27.4,35.8,25.5z
		 M32.2,33.3c-2.6-0.6-4.1-3.3-3.2-5.3c0,0,1.2,1.6,3.3,2.6c2.1,1,3.9,0.9,3.9,0.9S34.7,33.8,32.2,33.3z"/>
	<path class="st4" d="M331.3,23c-9,0-16.3,7.3-16.3,16.3s7.3,16.3,16.3,16.3c9,0,16.3-7.3,16.3-16.3S340.3,23,331.3,23z M338.5,49.9
		c-7.2,4.1-16.2,0.4-18.2-6.2c0,0,5.9,1.4,12.9-0.7c6.8-2,10.9-6.1,10.9-6.1S345.5,45.9,338.5,49.9z"/>
	<path class="st4" d="M351.8,62.3c-3.4-2.9-8.3-2.7-11,0.5c-2.7,3.2-2.2,8.1,1.2,10.9c3.4,2.9,8.3,2.7,11-0.5
		C355.8,70.1,355.2,65.2,351.8,62.3z M346.4,74.1c-3.9-0.9-6.2-5.1-4.9-8c0,0,1.8,2.4,5,3.9c3.1,1.5,5.9,1.3,5.9,1.3
		S350.3,74.9,346.4,74.1z"/>
</g>
</svg>
