<svg width="343" height="126" viewBox="0 0 343 126" fill="none" xmlns="http://www.w3.org/2000/svg">
<rect y="0.0927734" width="343" height="125" rx="10" fill="#00A23D"/>
<path d="M230.272 2.65094C230.975 2.65094 231.544 2.07828 231.544 1.37186C231.544 0.665439 230.975 0.0927734 230.272 0.0927734C229.57 0.0927734 229 0.665439 229 1.37186C229 2.07828 229.57 2.65094 230.272 2.65094Z" fill="#009233"/>
<path d="M239.318 3.05325C239.978 3.05325 240.512 2.51601 240.512 1.85329C240.512 1.19056 239.978 0.65332 239.318 0.65332C238.659 0.65332 238.125 1.19056 238.125 1.85329C238.125 2.51601 238.659 3.05325 239.318 3.05325Z" fill="#009233"/>
<path d="M249.094 3.26327C249.577 3.26327 249.968 2.87008 249.968 2.38505C249.968 1.90003 249.577 1.50684 249.094 1.50684C248.612 1.50684 248.221 1.90003 248.221 2.38505C248.221 2.87008 248.612 3.26327 249.094 3.26327Z" fill="#009233"/>
<path d="M244.031 6.51532C244.629 6.51532 245.114 6.02766 245.114 5.42611C245.114 4.82457 244.629 4.33691 244.031 4.33691C243.432 4.33691 242.947 4.82457 242.947 5.42611C242.947 6.02766 243.432 6.51532 244.031 6.51532Z" fill="#009233"/>
<path d="M262.486 7.39041C262.958 7.39041 263.341 7.00549 263.341 6.53065C263.341 6.05582 262.958 5.6709 262.486 5.6709C262.014 5.6709 261.631 6.05582 261.631 6.53065C261.631 7.00549 262.014 7.39041 262.486 7.39041Z" fill="#009233"/>
<path d="M271.953 8.1028C272.286 8.1028 272.556 7.83123 272.556 7.49622C272.556 7.16122 272.286 6.88965 271.953 6.88965C271.62 6.88965 271.35 7.16122 271.35 7.49622C271.35 7.83123 271.62 8.1028 271.953 8.1028Z" fill="#009233"/>
<path d="M276.31 11.8958C276.644 11.8958 276.914 11.6242 276.914 11.2892C276.914 10.9542 276.644 10.6826 276.31 10.6826C275.977 10.6826 275.707 10.9542 275.707 11.2892C275.707 11.6242 275.977 11.8958 276.31 11.8958Z" fill="#009233"/>
<path d="M280.627 15.6887C280.96 15.6887 281.23 15.4172 281.23 15.0822C281.23 14.7472 280.96 14.4756 280.627 14.4756C280.294 14.4756 280.023 14.7472 280.023 15.0822C280.023 15.4172 280.294 15.6887 280.627 15.6887Z" fill="#009233"/>
<path d="M285.256 20.0696C285.589 20.0696 285.859 19.798 285.859 19.463C285.859 19.128 285.589 18.8564 285.256 18.8564C284.922 18.8564 284.652 19.128 284.652 19.463C284.652 19.798 284.922 20.0696 285.256 20.0696Z" fill="#009233"/>
<path d="M289.201 23.4485C289.534 23.4485 289.804 23.1769 289.804 22.8419C289.804 22.5069 289.534 22.2354 289.201 22.2354C288.868 22.2354 288.598 22.5069 288.598 22.8419C288.598 23.1769 288.868 23.4485 289.201 23.4485Z" fill="#009233"/>
<path d="M293.558 27.2434C293.892 27.2434 294.162 26.9719 294.162 26.6369C294.162 26.3018 293.892 26.0303 293.558 26.0303C293.225 26.0303 292.955 26.3018 292.955 26.6369C292.955 26.9719 293.225 27.2434 293.558 27.2434Z" fill="#009233"/>
<path d="M266.6 11.5097C267.063 11.5097 267.437 11.1331 267.437 10.6684C267.437 10.2038 267.063 9.82715 266.6 9.82715C266.138 9.82715 265.764 10.2038 265.764 10.6684C265.764 11.1331 266.138 11.5097 266.6 11.5097Z" fill="#009233"/>
<path d="M271.296 15.1994C271.758 15.1994 272.132 14.8228 272.132 14.3581C272.132 13.8935 271.758 13.5168 271.296 13.5168C270.834 13.5168 270.459 13.8935 270.459 14.3581C270.459 14.8228 270.834 15.1994 271.296 15.1994Z" fill="#009233"/>
<path d="M265.705 18.6515C266.373 18.6515 266.915 18.1508 266.915 17.5332C266.915 16.9157 266.373 16.415 265.705 16.415C265.037 16.415 264.496 16.9157 264.496 17.5332C264.496 18.1508 265.037 18.6515 265.705 18.6515Z" fill="#009233"/>
<path d="M261.03 21.9015C261.697 21.9015 262.239 21.4008 262.239 20.7832C262.239 20.1657 261.697 19.665 261.03 19.665C260.362 19.665 259.82 20.1657 259.82 20.7832C259.82 21.4008 260.362 21.9015 261.03 21.9015Z" fill="#009233"/>
<path d="M265.571 25.7901C266.238 25.7901 266.78 25.2895 266.78 24.6719C266.78 24.0544 266.238 23.5537 265.571 23.5537C264.903 23.5537 264.361 24.0544 264.361 24.6719C264.361 25.2895 264.903 25.7901 265.571 25.7901Z" fill="#009233"/>
<path d="M257.403 11.4952C258.07 11.4952 258.612 10.9946 258.612 10.377C258.612 9.75943 258.07 9.25879 257.403 9.25879C256.735 9.25879 256.193 9.75943 256.193 10.377C256.193 10.9946 256.735 11.4952 257.403 11.4952Z" fill="#009233"/>
<path d="M261.52 14.7882C262.188 14.7882 262.729 14.2875 262.729 13.67C262.729 13.0524 262.188 12.5518 261.52 12.5518C260.852 12.5518 260.311 13.0524 260.311 13.67C260.311 14.2875 260.852 14.7882 261.52 14.7882Z" fill="#009233"/>
<path d="M270.473 22.7882C271.141 22.7882 271.682 22.2875 271.682 21.67C271.682 21.0524 271.141 20.5518 270.473 20.5518C269.805 20.5518 269.264 21.0524 269.264 21.67C269.264 22.2875 269.805 22.7882 270.473 22.7882Z" fill="#009233"/>
<path d="M274.35 26.1341C275.018 26.1341 275.559 25.6335 275.559 25.0159C275.559 24.3983 275.018 23.8977 274.35 23.8977C273.682 23.8977 273.141 24.3983 273.141 25.0159C273.141 25.6335 273.682 26.1341 274.35 26.1341Z" fill="#009233"/>
<path d="M278.946 30.0655C279.613 30.0655 280.155 29.5649 280.155 28.9473C280.155 28.3297 279.613 27.8291 278.946 27.8291C278.278 27.8291 277.736 28.3297 277.736 28.9473C277.736 29.5649 278.278 30.0655 278.946 30.0655Z" fill="#009233"/>
<path d="M286.82 44.8792C287.515 44.8792 288.079 44.3573 288.079 43.7135C288.079 43.0697 287.515 42.5479 286.82 42.5479C286.124 42.5479 285.561 43.0697 285.561 43.7135C285.561 44.3573 286.124 44.8792 286.82 44.8792Z" fill="#009233"/>
<path d="M290.966 48.6409C291.661 48.6409 292.225 48.119 292.225 47.4753C292.225 46.8315 291.661 46.3096 290.966 46.3096C290.271 46.3096 289.707 46.8315 289.707 47.4753C289.707 48.119 290.271 48.6409 290.966 48.6409Z" fill="#009233"/>
<path d="M296.167 45.1637C296.662 45.1637 297.064 44.7705 297.064 44.2854C297.064 43.8004 296.662 43.4072 296.167 43.4072C295.671 43.4072 295.27 43.8004 295.27 44.2854C295.27 44.7705 295.671 45.1637 296.167 45.1637Z" fill="#009233"/>
<path d="M291.84 41.357C292.336 41.357 292.738 40.9638 292.738 40.4788C292.738 39.9938 292.336 39.6006 291.84 39.6006C291.345 39.6006 290.943 39.9938 290.943 40.4788C290.943 40.9638 291.345 41.357 291.84 41.357Z" fill="#009233"/>
<path d="M296.759 37.9816C297.179 37.9816 297.519 37.6545 297.519 37.251C297.519 36.8476 297.179 36.5205 296.759 36.5205C296.339 36.5205 295.998 36.8476 295.998 37.251C295.998 37.6545 296.339 37.9816 296.759 37.9816Z" fill="#009233"/>
<path d="M300.983 41.9015C301.403 41.9015 301.744 41.5744 301.744 41.171C301.744 40.7675 301.403 40.4404 300.983 40.4404C300.563 40.4404 300.223 40.7675 300.223 41.171C300.223 41.5744 300.563 41.9015 300.983 41.9015Z" fill="#009233"/>
<path d="M305.134 45.1836C305.355 45.1836 305.535 44.9805 305.535 44.73C305.535 44.4795 305.355 44.2764 305.134 44.2764C304.912 44.2764 304.732 44.4795 304.732 44.73C304.732 44.9805 304.912 45.1836 305.134 45.1836Z" fill="#009233"/>
<path d="M295.154 52.4395C295.849 52.4395 296.413 51.9176 296.413 51.2738C296.413 50.6301 295.849 50.1082 295.154 50.1082C294.458 50.1082 293.895 50.6301 293.895 51.2738C293.895 51.9176 294.458 52.4395 295.154 52.4395Z" fill="#009233"/>
<path d="M299.745 56.2444C300.441 56.2444 301.004 55.7226 301.004 55.0788C301.004 54.435 300.441 53.9131 299.745 53.9131C299.05 53.9131 298.486 54.435 298.486 55.0788C298.486 55.7226 299.05 56.2444 299.745 56.2444Z" fill="#009233"/>
<path d="M303.649 59.6352C304.224 59.6352 304.69 59.2042 304.69 58.6726C304.69 58.1409 304.224 57.71 303.649 57.71C303.074 57.71 302.607 58.1409 302.607 58.6726C302.607 59.2042 303.074 59.6352 303.649 59.6352Z" fill="#009233"/>
<path d="M307.842 63.0048C308.278 62.9765 308.61 62.6413 308.585 62.2561C308.561 61.8709 308.188 61.5816 307.753 61.6099C307.318 61.6382 306.985 61.9734 307.01 62.3586C307.034 62.7437 307.407 63.033 307.842 63.0048Z" fill="#009233"/>
<path d="M308.85 56.2836C309.164 56.2633 309.402 55.9981 309.383 55.6914C309.363 55.3847 309.093 55.1526 308.779 55.173C308.465 55.1934 308.227 55.4586 308.247 55.7653C308.266 56.072 308.537 56.304 308.85 56.2836Z" fill="#009233"/>
<path d="M304.866 52.3579C305.18 52.3375 305.418 52.0723 305.398 51.7656C305.379 51.4589 305.108 51.2269 304.795 51.2472C304.481 51.2676 304.243 51.5328 304.262 51.8395C304.282 52.1462 304.552 52.3783 304.866 52.3579Z" fill="#009233"/>
<path d="M301.056 48.4866C301.252 48.2513 301.217 47.8957 300.976 47.6925C300.735 47.4892 300.381 47.5152 300.184 47.7506C299.987 47.986 300.023 48.3415 300.264 48.5448C300.505 48.748 300.859 48.722 301.056 48.4866Z" fill="#009233"/>
<path d="M294.421 59.2269C295.117 59.2269 295.68 58.705 295.68 58.0612C295.68 57.4174 295.117 56.8955 294.421 56.8955C293.726 56.8955 293.162 57.4174 293.162 58.0612C293.162 58.705 293.726 59.2269 294.421 59.2269Z" fill="#009233"/>
<path d="M298.851 63.1507C299.546 63.1507 300.11 62.6288 300.11 61.985C300.11 61.3412 299.546 60.8193 298.851 60.8193C298.155 60.8193 297.592 61.3412 297.592 61.985C297.592 62.6288 298.155 63.1507 298.851 63.1507Z" fill="#009233"/>
<path d="M302.917 66.8694C303.613 66.8694 304.176 66.3476 304.176 65.7038C304.176 65.06 303.613 64.5381 302.917 64.5381C302.222 64.5381 301.658 65.06 301.658 65.7038C301.658 66.3476 302.222 66.8694 302.917 66.8694Z" fill="#009233"/>
<path d="M290.317 55.8201C291.079 55.8201 291.697 55.2498 291.697 54.5463C291.697 53.8428 291.079 53.2725 290.317 53.2725C289.555 53.2725 288.938 53.8428 288.938 54.5463C288.938 55.2498 289.555 55.8201 290.317 55.8201Z" fill="#009233"/>
<path d="M285.723 51.9763C286.485 51.9763 287.103 51.406 287.103 50.7025C287.103 49.999 286.485 49.4287 285.723 49.4287C284.961 49.4287 284.344 49.999 284.344 50.7025C284.344 51.406 284.961 51.9763 285.723 51.9763Z" fill="#009233"/>
<path d="M286.412 58.1769C286.596 57.4289 286.089 56.6596 285.28 56.4587C284.472 56.2578 283.667 56.7013 283.483 57.4493C283.299 58.1973 283.806 58.9666 284.615 59.1675C285.423 59.3684 286.228 58.9249 286.412 58.1769Z" fill="#009233"/>
<path d="M290.642 61.9386C290.826 61.1906 290.319 60.4213 289.511 60.2204C288.702 60.0195 287.898 60.463 287.714 61.211C287.53 61.9591 288.036 62.7283 288.845 62.9292C289.654 63.1301 290.458 62.6866 290.642 61.9386Z" fill="#009233"/>
<path d="M295.195 65.7374C295.379 64.9894 294.872 64.2202 294.064 64.0193C293.255 63.8183 292.45 64.2619 292.266 65.0099C292.083 65.7579 292.589 66.5271 293.398 66.728C294.206 66.9289 295.011 66.4854 295.195 65.7374Z" fill="#009233"/>
<path d="M297.838 83.2715C297.997 82.6225 297.554 81.9542 296.848 81.7788C296.142 81.6034 295.441 81.9873 295.281 82.6364C295.121 83.2854 295.565 83.9537 296.271 84.1291C296.977 84.3045 297.678 83.9206 297.838 83.2715Z" fill="#009233"/>
<path d="M302.355 80.0454C302.493 79.4827 302.15 78.9134 301.589 78.774C301.028 78.6346 300.461 78.9778 300.323 79.5406C300.184 80.1033 300.527 80.6726 301.088 80.812C301.649 80.9514 302.216 80.6082 302.355 80.0454Z" fill="#009233"/>
<path d="M301.519 87.0103C301.657 86.4475 301.314 85.8783 300.753 85.7389C300.192 85.5994 299.625 85.9426 299.487 86.5054C299.348 87.0682 299.691 87.6374 300.252 87.7768C300.813 87.9163 301.381 87.5731 301.519 87.0103Z" fill="#009233"/>
<path d="M300.796 93.9417C300.934 93.3789 300.592 92.8097 300.031 92.6703C299.469 92.5308 298.902 92.874 298.764 93.4368C298.626 93.9996 298.969 94.5688 299.53 94.7082C300.091 94.8477 300.658 94.5044 300.796 93.9417Z" fill="#009233"/>
<path d="M304.912 98.1332C305.01 97.7373 304.751 97.3325 304.335 97.2291C303.918 97.1257 303.502 97.3628 303.405 97.7587C303.307 98.1546 303.566 98.5594 303.982 98.6629C304.399 98.7663 304.815 98.5292 304.912 98.1332Z" fill="#009233"/>
<path d="M305.602 90.8149C305.699 90.419 305.44 90.0142 305.024 89.9107C304.608 89.8073 304.191 90.0444 304.094 90.4403C303.997 90.8363 304.255 91.2411 304.672 91.3445C305.088 91.4479 305.504 91.2108 305.602 90.8149Z" fill="#009233"/>
<path d="M306.459 83.6743C306.556 83.2783 306.298 82.8735 305.882 82.7701C305.465 82.6667 305.049 82.9038 304.952 83.2997C304.854 83.6956 305.113 84.1004 305.529 84.2039C305.945 84.3073 306.362 84.0702 306.459 83.6743Z" fill="#009233"/>
<path d="M307.358 76.9399C307.455 76.544 307.196 76.1392 306.78 76.0357C306.364 75.9323 305.947 76.1694 305.85 76.5654C305.753 76.9613 306.011 77.3661 306.428 77.4695C306.844 77.5729 307.26 77.3358 307.358 76.9399Z" fill="#009233"/>
<path d="M311.279 80.46C311.351 80.1645 311.167 79.8646 310.868 79.7901C310.568 79.7157 310.267 79.895 310.194 80.1905C310.121 80.486 310.305 80.7859 310.605 80.8603C310.904 80.9348 311.206 80.7555 311.279 80.46Z" fill="#009233"/>
<path d="M312.312 73.5459C312.385 73.2504 312.201 72.9505 311.901 72.8761C311.602 72.8017 311.3 72.9809 311.227 73.2764C311.155 73.572 311.339 73.8719 311.638 73.9463C311.938 74.0207 312.239 73.8415 312.312 73.5459Z" fill="#009233"/>
<path d="M310.742 87.5518C310.814 87.2563 310.63 86.9564 310.331 86.8819C310.031 86.8075 309.73 86.9868 309.657 87.2823C309.584 87.5778 309.768 87.8777 310.068 87.9521C310.367 88.0266 310.669 87.8473 310.742 87.5518Z" fill="#009233"/>
<path d="M300.156 101.059C300.294 100.496 299.951 99.9271 299.39 99.7877C298.829 99.6483 298.262 99.9915 298.123 100.554C297.985 101.117 298.328 101.686 298.889 101.826C299.45 101.965 300.017 101.622 300.156 101.059Z" fill="#009233"/>
<path d="M303.856 104.418C303.93 104.117 303.73 103.808 303.409 103.728C303.089 103.649 302.769 103.828 302.695 104.129C302.621 104.431 302.82 104.739 303.141 104.819C303.462 104.899 303.782 104.719 303.856 104.418Z" fill="#009233"/>
<path d="M298.134 108.696C298.272 108.133 297.93 107.564 297.368 107.424C296.807 107.285 296.24 107.628 296.102 108.191C295.964 108.754 296.306 109.323 296.868 109.462C297.429 109.602 297.996 109.259 298.134 108.696Z" fill="#009233"/>
<path d="M296.715 90.2754C296.874 89.6264 296.431 88.9581 295.725 88.7827C295.019 88.6073 294.317 88.9912 294.158 89.6403C293.998 90.2893 294.441 90.9576 295.147 91.133C295.853 91.3084 296.555 90.9245 296.715 90.2754Z" fill="#009233"/>
<path d="M294.668 98.004C295.396 98.004 295.985 97.4621 295.985 96.7935C295.985 96.125 295.396 95.583 294.668 95.583C293.941 95.583 293.352 96.125 293.352 96.7935C293.352 97.4621 293.941 98.004 294.668 98.004Z" fill="#009233"/>
<path d="M288.034 115.448C288.648 115.448 289.146 114.982 289.146 114.406C289.146 113.831 288.648 113.365 288.034 113.365C287.42 113.365 286.922 113.831 286.922 114.406C286.922 114.982 287.42 115.448 288.034 115.448Z" fill="#009233"/>
<path d="M282.641 118.61C283.256 118.61 283.754 118.143 283.754 117.568C283.754 116.993 283.256 116.526 282.641 116.526C282.027 116.526 281.529 116.993 281.529 117.568C281.529 118.143 282.027 118.61 282.641 118.61Z" fill="#009233"/>
<path d="M277.862 121.563C278.476 121.563 278.974 121.097 278.974 120.521C278.974 119.946 278.476 119.48 277.862 119.48C277.248 119.48 276.75 119.946 276.75 120.521C276.75 121.097 277.248 121.563 277.862 121.563Z" fill="#009233"/>
<path d="M282.006 125.092C282.55 125.092 282.992 124.67 282.992 124.148C282.992 123.627 282.55 123.204 282.006 123.204C281.461 123.204 281.02 123.627 281.02 124.148C281.02 124.67 281.461 125.092 282.006 125.092Z" fill="#009233"/>
<path d="M287.131 122.288C287.675 122.288 288.117 121.865 288.117 121.344C288.117 120.822 287.675 120.399 287.131 120.399C286.586 120.399 286.145 120.822 286.145 121.344C286.145 121.865 286.586 122.288 287.131 122.288Z" fill="#009233"/>
<path d="M292.514 118.969C293.058 118.969 293.5 118.547 293.5 118.025C293.5 117.504 293.058 117.081 292.514 117.081C291.969 117.081 291.527 117.504 291.527 118.025C291.527 118.547 291.969 118.969 292.514 118.969Z" fill="#009233"/>
<path d="M297.007 115.488C297.429 115.488 297.771 115.165 297.771 114.768C297.771 114.37 297.429 114.048 297.007 114.048C296.586 114.048 296.244 114.37 296.244 114.768C296.244 115.165 296.586 115.488 297.007 115.488Z" fill="#009233"/>
<path d="M272.614 124.776C273.228 124.776 273.726 124.309 273.726 123.734C273.726 123.159 273.228 122.692 272.614 122.692C272 122.692 271.502 123.159 271.502 123.734C271.502 124.309 272 124.776 272.614 124.776Z" fill="#009233"/>
<path d="M290.127 94.3441C290.855 94.3441 291.444 93.8022 291.444 93.1336C291.444 92.4651 290.855 91.9231 290.127 91.9231C289.4 91.9231 288.811 92.4651 288.811 93.1336C288.811 93.8022 289.4 94.3441 290.127 94.3441Z" fill="#009233"/>
<path d="M291.205 87.1564C291.933 87.1564 292.522 86.6144 292.522 85.9459C292.522 85.2773 291.933 84.7354 291.205 84.7354C290.478 84.7354 289.889 85.2773 289.889 85.9459C289.889 86.6144 290.478 87.1564 291.205 87.1564Z" fill="#009233"/>
<path d="M293.723 105.598C294.45 105.598 295.04 105.056 295.04 104.388C295.04 103.719 294.45 103.177 293.723 103.177C292.996 103.177 292.406 103.719 292.406 104.388C292.406 105.056 292.996 105.598 293.723 105.598Z" fill="#009233"/>
<path d="M275.755 19.1311C276.217 19.1311 276.591 18.7544 276.591 18.2898C276.591 17.8251 276.217 17.4485 275.755 17.4485C275.293 17.4485 274.918 17.8251 274.918 18.2898C274.918 18.7544 275.293 19.1311 275.755 19.1311Z" fill="#009233"/>
<path d="M279.7 23.4084C280.162 23.4084 280.537 23.0318 280.537 22.5671C280.537 22.1025 280.162 21.7258 279.7 21.7258C279.238 21.7258 278.863 22.1025 278.863 22.5671C278.863 23.0318 279.238 23.4084 279.7 23.4084Z" fill="#009233"/>
<path d="M284.057 26.7873C284.52 26.7873 284.894 26.4107 284.894 25.946C284.894 25.4814 284.52 25.1047 284.057 25.1047C283.595 25.1047 283.221 25.4814 283.221 25.946C283.221 26.4107 283.595 26.7873 284.057 26.7873Z" fill="#009233"/>
<path d="M288.446 30.5468C288.908 30.5468 289.283 30.1702 289.283 29.7056C289.283 29.2409 288.908 28.8643 288.446 28.8643C287.984 28.8643 287.609 29.2409 287.609 29.7056C287.609 30.1702 287.984 30.5468 288.446 30.5468Z" fill="#009233"/>
<path d="M234.505 5.95867C235.103 5.95867 235.589 5.47102 235.589 4.86947C235.589 4.26793 235.103 3.78027 234.505 3.78027C233.907 3.78027 233.422 4.26793 233.422 4.86947C233.422 5.47102 233.907 5.95867 234.505 5.95867Z" fill="#009233"/>
<path d="M230.272 2.65094C230.975 2.65094 231.544 2.07828 231.544 1.37186C231.544 0.665439 230.975 0.0927734 230.272 0.0927734C229.57 0.0927734 229 0.665439 229 1.37186C229 2.07828 229.57 2.65094 230.272 2.65094Z" fill="#009233"/>
<path d="M239.318 3.05325C239.978 3.05325 240.512 2.51601 240.512 1.85329C240.512 1.19056 239.978 0.65332 239.318 0.65332C238.659 0.65332 238.125 1.19056 238.125 1.85329C238.125 2.51601 238.659 3.05325 239.318 3.05325Z" fill="#009233"/>
<path d="M249.094 3.26327C249.577 3.26327 249.968 2.87008 249.968 2.38505C249.968 1.90003 249.577 1.50684 249.094 1.50684C248.612 1.50684 248.221 1.90003 248.221 2.38505C248.221 2.87008 248.612 3.26327 249.094 3.26327Z" fill="#009233"/>
<path d="M244.031 6.51532C244.629 6.51532 245.114 6.02766 245.114 5.42611C245.114 4.82457 244.629 4.33691 244.031 4.33691C243.432 4.33691 242.947 4.82457 242.947 5.42611C242.947 6.02766 243.432 6.51532 244.031 6.51532Z" fill="#009233"/>
<path d="M262.486 7.39041C262.958 7.39041 263.341 7.00549 263.341 6.53065C263.341 6.05582 262.958 5.6709 262.486 5.6709C262.014 5.6709 261.631 6.05582 261.631 6.53065C261.631 7.00549 262.014 7.39041 262.486 7.39041Z" fill="#009233"/>
<path d="M271.953 8.1028C272.286 8.1028 272.556 7.83123 272.556 7.49622C272.556 7.16122 272.286 6.88965 271.953 6.88965C271.62 6.88965 271.35 7.16122 271.35 7.49622C271.35 7.83123 271.62 8.1028 271.953 8.1028Z" fill="#009233"/>
<path d="M276.31 11.8958C276.644 11.8958 276.914 11.6242 276.914 11.2892C276.914 10.9542 276.644 10.6826 276.31 10.6826C275.977 10.6826 275.707 10.9542 275.707 11.2892C275.707 11.6242 275.977 11.8958 276.31 11.8958Z" fill="#009233"/>
<path d="M280.627 15.6887C280.96 15.6887 281.23 15.4172 281.23 15.0822C281.23 14.7472 280.96 14.4756 280.627 14.4756C280.294 14.4756 280.023 14.7472 280.023 15.0822C280.023 15.4172 280.294 15.6887 280.627 15.6887Z" fill="#009233"/>
<path d="M285.256 20.0696C285.589 20.0696 285.859 19.798 285.859 19.463C285.859 19.128 285.589 18.8564 285.256 18.8564C284.922 18.8564 284.652 19.128 284.652 19.463C284.652 19.798 284.922 20.0696 285.256 20.0696Z" fill="#009233"/>
<path d="M289.201 23.4485C289.534 23.4485 289.804 23.1769 289.804 22.8419C289.804 22.5069 289.534 22.2354 289.201 22.2354C288.868 22.2354 288.598 22.5069 288.598 22.8419C288.598 23.1769 288.868 23.4485 289.201 23.4485Z" fill="#009233"/>
<path d="M293.558 27.2434C293.892 27.2434 294.162 26.9719 294.162 26.6369C294.162 26.3018 293.892 26.0303 293.558 26.0303C293.225 26.0303 292.955 26.3018 292.955 26.6369C292.955 26.9719 293.225 27.2434 293.558 27.2434Z" fill="#009233"/>
<path d="M266.6 11.5097C267.063 11.5097 267.437 11.1331 267.437 10.6684C267.437 10.2038 267.063 9.82715 266.6 9.82715C266.138 9.82715 265.764 10.2038 265.764 10.6684C265.764 11.1331 266.138 11.5097 266.6 11.5097Z" fill="#009233"/>
<path d="M271.296 15.1994C271.758 15.1994 272.132 14.8228 272.132 14.3581C272.132 13.8935 271.758 13.5168 271.296 13.5168C270.834 13.5168 270.459 13.8935 270.459 14.3581C270.459 14.8228 270.834 15.1994 271.296 15.1994Z" fill="#009233"/>
<path d="M265.705 18.6515C266.373 18.6515 266.915 18.1508 266.915 17.5332C266.915 16.9157 266.373 16.415 265.705 16.415C265.037 16.415 264.496 16.9157 264.496 17.5332C264.496 18.1508 265.037 18.6515 265.705 18.6515Z" fill="#009233"/>
<path d="M261.03 21.9015C261.697 21.9015 262.239 21.4008 262.239 20.7832C262.239 20.1657 261.697 19.665 261.03 19.665C260.362 19.665 259.82 20.1657 259.82 20.7832C259.82 21.4008 260.362 21.9015 261.03 21.9015Z" fill="#009233"/>
<path d="M265.571 25.7901C266.238 25.7901 266.78 25.2895 266.78 24.6719C266.78 24.0544 266.238 23.5537 265.571 23.5537C264.903 23.5537 264.361 24.0544 264.361 24.6719C264.361 25.2895 264.903 25.7901 265.571 25.7901Z" fill="#009233"/>
<path d="M257.403 11.4952C258.07 11.4952 258.612 10.9946 258.612 10.377C258.612 9.75943 258.07 9.25879 257.403 9.25879C256.735 9.25879 256.193 9.75943 256.193 10.377C256.193 10.9946 256.735 11.4952 257.403 11.4952Z" fill="#009233"/>
<path d="M261.52 14.7882C262.188 14.7882 262.729 14.2875 262.729 13.67C262.729 13.0524 262.188 12.5518 261.52 12.5518C260.852 12.5518 260.311 13.0524 260.311 13.67C260.311 14.2875 260.852 14.7882 261.52 14.7882Z" fill="#009233"/>
<path d="M270.473 22.7882C271.141 22.7882 271.682 22.2875 271.682 21.67C271.682 21.0524 271.141 20.5518 270.473 20.5518C269.805 20.5518 269.264 21.0524 269.264 21.67C269.264 22.2875 269.805 22.7882 270.473 22.7882Z" fill="#009233"/>
<path d="M274.35 26.1341C275.018 26.1341 275.559 25.6335 275.559 25.0159C275.559 24.3983 275.018 23.8977 274.35 23.8977C273.682 23.8977 273.141 24.3983 273.141 25.0159C273.141 25.6335 273.682 26.1341 274.35 26.1341Z" fill="#009233"/>
<path d="M278.946 30.0655C279.613 30.0655 280.155 29.5649 280.155 28.9473C280.155 28.3297 279.613 27.8291 278.946 27.8291C278.278 27.8291 277.736 28.3297 277.736 28.9473C277.736 29.5649 278.278 30.0655 278.946 30.0655Z" fill="#009233"/>
<path d="M286.82 44.8792C287.515 44.8792 288.079 44.3573 288.079 43.7135C288.079 43.0697 287.515 42.5479 286.82 42.5479C286.124 42.5479 285.561 43.0697 285.561 43.7135C285.561 44.3573 286.124 44.8792 286.82 44.8792Z" fill="#009233"/>
<path d="M290.966 48.6409C291.661 48.6409 292.225 48.119 292.225 47.4753C292.225 46.8315 291.661 46.3096 290.966 46.3096C290.271 46.3096 289.707 46.8315 289.707 47.4753C289.707 48.119 290.271 48.6409 290.966 48.6409Z" fill="#009233"/>
<path d="M296.167 45.1637C296.662 45.1637 297.064 44.7705 297.064 44.2854C297.064 43.8004 296.662 43.4072 296.167 43.4072C295.671 43.4072 295.27 43.8004 295.27 44.2854C295.27 44.7705 295.671 45.1637 296.167 45.1637Z" fill="#009233"/>
<path d="M291.84 41.357C292.336 41.357 292.738 40.9638 292.738 40.4788C292.738 39.9938 292.336 39.6006 291.84 39.6006C291.345 39.6006 290.943 39.9938 290.943 40.4788C290.943 40.9638 291.345 41.357 291.84 41.357Z" fill="#009233"/>
<path d="M296.759 37.9816C297.179 37.9816 297.519 37.6545 297.519 37.251C297.519 36.8476 297.179 36.5205 296.759 36.5205C296.339 36.5205 295.998 36.8476 295.998 37.251C295.998 37.6545 296.339 37.9816 296.759 37.9816Z" fill="#009233"/>
<path d="M300.983 41.9015C301.403 41.9015 301.744 41.5744 301.744 41.171C301.744 40.7675 301.403 40.4404 300.983 40.4404C300.563 40.4404 300.223 40.7675 300.223 41.171C300.223 41.5744 300.563 41.9015 300.983 41.9015Z" fill="#009233"/>
<path d="M305.134 45.1836C305.355 45.1836 305.535 44.9805 305.535 44.73C305.535 44.4795 305.355 44.2764 305.134 44.2764C304.912 44.2764 304.732 44.4795 304.732 44.73C304.732 44.9805 304.912 45.1836 305.134 45.1836Z" fill="#009233"/>
<path d="M295.154 52.4395C295.849 52.4395 296.413 51.9176 296.413 51.2738C296.413 50.6301 295.849 50.1082 295.154 50.1082C294.458 50.1082 293.895 50.6301 293.895 51.2738C293.895 51.9176 294.458 52.4395 295.154 52.4395Z" fill="#009233"/>
<path d="M299.745 56.2444C300.441 56.2444 301.004 55.7226 301.004 55.0788C301.004 54.435 300.441 53.9131 299.745 53.9131C299.05 53.9131 298.486 54.435 298.486 55.0788C298.486 55.7226 299.05 56.2444 299.745 56.2444Z" fill="#009233"/>
<path d="M303.649 59.6352C304.224 59.6352 304.69 59.2042 304.69 58.6726C304.69 58.1409 304.224 57.71 303.649 57.71C303.074 57.71 302.607 58.1409 302.607 58.6726C302.607 59.2042 303.074 59.6352 303.649 59.6352Z" fill="#009233"/>
<path d="M307.842 63.0048C308.278 62.9765 308.61 62.6413 308.585 62.2561C308.561 61.8709 308.188 61.5816 307.753 61.6099C307.318 61.6382 306.985 61.9734 307.01 62.3586C307.034 62.7437 307.407 63.033 307.842 63.0048Z" fill="#009233"/>
<path d="M308.85 56.2836C309.164 56.2633 309.402 55.9981 309.383 55.6914C309.363 55.3847 309.093 55.1526 308.779 55.173C308.465 55.1934 308.227 55.4586 308.247 55.7653C308.266 56.072 308.537 56.304 308.85 56.2836Z" fill="#009233"/>
<path d="M304.866 52.3579C305.18 52.3375 305.418 52.0723 305.398 51.7656C305.379 51.4589 305.108 51.2269 304.795 51.2472C304.481 51.2676 304.243 51.5328 304.262 51.8395C304.282 52.1462 304.552 52.3783 304.866 52.3579Z" fill="#009233"/>
<path d="M301.056 48.4866C301.252 48.2513 301.217 47.8957 300.976 47.6925C300.735 47.4892 300.381 47.5152 300.184 47.7506C299.987 47.986 300.023 48.3415 300.264 48.5448C300.505 48.748 300.859 48.722 301.056 48.4866Z" fill="#009233"/>
<path d="M294.421 59.2269C295.117 59.2269 295.68 58.705 295.68 58.0612C295.68 57.4174 295.117 56.8955 294.421 56.8955C293.726 56.8955 293.162 57.4174 293.162 58.0612C293.162 58.705 293.726 59.2269 294.421 59.2269Z" fill="#009233"/>
<path d="M298.851 63.1507C299.546 63.1507 300.11 62.6288 300.11 61.985C300.11 61.3412 299.546 60.8193 298.851 60.8193C298.155 60.8193 297.592 61.3412 297.592 61.985C297.592 62.6288 298.155 63.1507 298.851 63.1507Z" fill="#009233"/>
<path d="M302.917 66.8694C303.613 66.8694 304.176 66.3476 304.176 65.7038C304.176 65.06 303.613 64.5381 302.917 64.5381C302.222 64.5381 301.658 65.06 301.658 65.7038C301.658 66.3476 302.222 66.8694 302.917 66.8694Z" fill="#009233"/>
<path d="M290.317 55.8201C291.079 55.8201 291.697 55.2498 291.697 54.5463C291.697 53.8428 291.079 53.2725 290.317 53.2725C289.555 53.2725 288.938 53.8428 288.938 54.5463C288.938 55.2498 289.555 55.8201 290.317 55.8201Z" fill="#009233"/>
<path d="M285.723 51.9763C286.485 51.9763 287.103 51.406 287.103 50.7025C287.103 49.999 286.485 49.4287 285.723 49.4287C284.961 49.4287 284.344 49.999 284.344 50.7025C284.344 51.406 284.961 51.9763 285.723 51.9763Z" fill="#009233"/>
<path d="M286.412 58.1769C286.596 57.4289 286.089 56.6596 285.28 56.4587C284.472 56.2578 283.667 56.7013 283.483 57.4493C283.299 58.1973 283.806 58.9666 284.615 59.1675C285.423 59.3684 286.228 58.9249 286.412 58.1769Z" fill="#009233"/>
<path d="M290.642 61.9386C290.826 61.1906 290.319 60.4213 289.511 60.2204C288.702 60.0195 287.898 60.463 287.714 61.211C287.53 61.9591 288.036 62.7283 288.845 62.9292C289.654 63.1301 290.458 62.6866 290.642 61.9386Z" fill="#009233"/>
<path d="M295.195 65.7374C295.379 64.9894 294.872 64.2202 294.064 64.0193C293.255 63.8183 292.45 64.2619 292.266 65.0099C292.083 65.7579 292.589 66.5271 293.398 66.728C294.206 66.9289 295.011 66.4854 295.195 65.7374Z" fill="#009233"/>
<path d="M297.838 83.2715C297.997 82.6225 297.554 81.9542 296.848 81.7788C296.142 81.6034 295.441 81.9873 295.281 82.6364C295.121 83.2854 295.565 83.9537 296.271 84.1291C296.977 84.3045 297.678 83.9206 297.838 83.2715Z" fill="#009233"/>
<path d="M302.355 80.0454C302.493 79.4827 302.15 78.9134 301.589 78.774C301.028 78.6346 300.461 78.9778 300.323 79.5406C300.184 80.1033 300.527 80.6726 301.088 80.812C301.649 80.9514 302.216 80.6082 302.355 80.0454Z" fill="#009233"/>
<path d="M301.519 87.0103C301.657 86.4475 301.314 85.8783 300.753 85.7389C300.192 85.5994 299.625 85.9426 299.487 86.5054C299.348 87.0682 299.691 87.6374 300.252 87.7768C300.813 87.9163 301.381 87.5731 301.519 87.0103Z" fill="#009233"/>
<path d="M300.796 93.9417C300.934 93.3789 300.592 92.8097 300.031 92.6703C299.469 92.5308 298.902 92.874 298.764 93.4368C298.626 93.9996 298.969 94.5688 299.53 94.7082C300.091 94.8477 300.658 94.5044 300.796 93.9417Z" fill="#009233"/>
<path d="M304.912 98.1332C305.01 97.7373 304.751 97.3325 304.335 97.2291C303.918 97.1257 303.502 97.3628 303.405 97.7587C303.307 98.1546 303.566 98.5594 303.982 98.6629C304.399 98.7663 304.815 98.5292 304.912 98.1332Z" fill="#009233"/>
<path d="M305.602 90.8149C305.699 90.419 305.44 90.0142 305.024 89.9107C304.608 89.8073 304.191 90.0444 304.094 90.4403C303.997 90.8363 304.255 91.2411 304.672 91.3445C305.088 91.4479 305.504 91.2108 305.602 90.8149Z" fill="#009233"/>
<path d="M306.459 83.6743C306.556 83.2783 306.298 82.8735 305.882 82.7701C305.465 82.6667 305.049 82.9038 304.952 83.2997C304.854 83.6956 305.113 84.1004 305.529 84.2039C305.945 84.3073 306.362 84.0702 306.459 83.6743Z" fill="#009233"/>
<path d="M307.358 76.9399C307.455 76.544 307.196 76.1392 306.78 76.0357C306.364 75.9323 305.947 76.1694 305.85 76.5654C305.753 76.9613 306.011 77.3661 306.428 77.4695C306.844 77.5729 307.26 77.3358 307.358 76.9399Z" fill="#009233"/>
<path d="M311.279 80.46C311.351 80.1645 311.167 79.8646 310.868 79.7901C310.568 79.7157 310.267 79.895 310.194 80.1905C310.121 80.486 310.305 80.7859 310.605 80.8603C310.904 80.9348 311.206 80.7555 311.279 80.46Z" fill="#009233"/>
<path d="M312.312 73.5459C312.385 73.2504 312.201 72.9505 311.901 72.8761C311.602 72.8017 311.3 72.9809 311.227 73.2764C311.155 73.572 311.339 73.8719 311.638 73.9463C311.938 74.0207 312.239 73.8415 312.312 73.5459Z" fill="#009233"/>
<path d="M310.742 87.5518C310.814 87.2563 310.63 86.9564 310.331 86.8819C310.031 86.8075 309.73 86.9868 309.657 87.2823C309.584 87.5778 309.768 87.8777 310.068 87.9521C310.367 88.0266 310.669 87.8473 310.742 87.5518Z" fill="#009233"/>
<path d="M300.156 101.059C300.294 100.496 299.951 99.9271 299.39 99.7877C298.829 99.6483 298.262 99.9915 298.123 100.554C297.985 101.117 298.328 101.686 298.889 101.826C299.45 101.965 300.017 101.622 300.156 101.059Z" fill="#009233"/>
<path d="M303.856 104.418C303.93 104.117 303.73 103.808 303.409 103.728C303.089 103.649 302.769 103.828 302.695 104.129C302.621 104.431 302.82 104.739 303.141 104.819C303.462 104.899 303.782 104.719 303.856 104.418Z" fill="#009233"/>
<path d="M298.134 108.696C298.272 108.133 297.93 107.564 297.368 107.424C296.807 107.285 296.24 107.628 296.102 108.191C295.964 108.754 296.306 109.323 296.868 109.462C297.429 109.602 297.996 109.259 298.134 108.696Z" fill="#009233"/>
<path d="M296.715 90.2754C296.874 89.6264 296.431 88.9581 295.725 88.7827C295.019 88.6073 294.317 88.9912 294.158 89.6403C293.998 90.2893 294.441 90.9576 295.147 91.133C295.853 91.3084 296.555 90.9245 296.715 90.2754Z" fill="#009233"/>
<path d="M294.668 98.004C295.396 98.004 295.985 97.4621 295.985 96.7935C295.985 96.125 295.396 95.583 294.668 95.583C293.941 95.583 293.352 96.125 293.352 96.7935C293.352 97.4621 293.941 98.004 294.668 98.004Z" fill="#009233"/>
<path d="M288.034 115.448C288.648 115.448 289.146 114.982 289.146 114.406C289.146 113.831 288.648 113.365 288.034 113.365C287.42 113.365 286.922 113.831 286.922 114.406C286.922 114.982 287.42 115.448 288.034 115.448Z" fill="#009233"/>
<path d="M282.641 118.61C283.256 118.61 283.754 118.143 283.754 117.568C283.754 116.993 283.256 116.526 282.641 116.526C282.027 116.526 281.529 116.993 281.529 117.568C281.529 118.143 282.027 118.61 282.641 118.61Z" fill="#009233"/>
<path d="M277.862 121.563C278.476 121.563 278.974 121.097 278.974 120.521C278.974 119.946 278.476 119.48 277.862 119.48C277.248 119.48 276.75 119.946 276.75 120.521C276.75 121.097 277.248 121.563 277.862 121.563Z" fill="#009233"/>
<path d="M282.006 125.092C282.55 125.092 282.992 124.67 282.992 124.148C282.992 123.627 282.55 123.204 282.006 123.204C281.461 123.204 281.02 123.627 281.02 124.148C281.02 124.67 281.461 125.092 282.006 125.092Z" fill="#009233"/>
<path d="M287.131 122.288C287.675 122.288 288.117 121.865 288.117 121.344C288.117 120.822 287.675 120.399 287.131 120.399C286.586 120.399 286.145 120.822 286.145 121.344C286.145 121.865 286.586 122.288 287.131 122.288Z" fill="#009233"/>
<path d="M292.514 118.969C293.058 118.969 293.5 118.547 293.5 118.025C293.5 117.504 293.058 117.081 292.514 117.081C291.969 117.081 291.527 117.504 291.527 118.025C291.527 118.547 291.969 118.969 292.514 118.969Z" fill="#009233"/>
<path d="M297.007 115.488C297.429 115.488 297.771 115.165 297.771 114.768C297.771 114.37 297.429 114.048 297.007 114.048C296.586 114.048 296.244 114.37 296.244 114.768C296.244 115.165 296.586 115.488 297.007 115.488Z" fill="#009233"/>
<path d="M272.614 124.776C273.228 124.776 273.726 124.309 273.726 123.734C273.726 123.159 273.228 122.692 272.614 122.692C272 122.692 271.502 123.159 271.502 123.734C271.502 124.309 272 124.776 272.614 124.776Z" fill="#009233"/>
<path d="M290.127 94.3441C290.855 94.3441 291.444 93.8022 291.444 93.1336C291.444 92.4651 290.855 91.9231 290.127 91.9231C289.4 91.9231 288.811 92.4651 288.811 93.1336C288.811 93.8022 289.4 94.3441 290.127 94.3441Z" fill="#009233"/>
<path d="M291.205 87.1564C291.933 87.1564 292.522 86.6144 292.522 85.9459C292.522 85.2773 291.933 84.7354 291.205 84.7354C290.478 84.7354 289.889 85.2773 289.889 85.9459C289.889 86.6144 290.478 87.1564 291.205 87.1564Z" fill="#009233"/>
<path d="M293.723 105.598C294.45 105.598 295.04 105.056 295.04 104.388C295.04 103.719 294.45 103.177 293.723 103.177C292.996 103.177 292.406 103.719 292.406 104.388C292.406 105.056 292.996 105.598 293.723 105.598Z" fill="#009233"/>
<path d="M275.755 19.1311C276.217 19.1311 276.591 18.7544 276.591 18.2898C276.591 17.8251 276.217 17.4485 275.755 17.4485C275.293 17.4485 274.918 17.8251 274.918 18.2898C274.918 18.7544 275.293 19.1311 275.755 19.1311Z" fill="#009233"/>
<path d="M279.7 23.4084C280.162 23.4084 280.537 23.0318 280.537 22.5671C280.537 22.1025 280.162 21.7258 279.7 21.7258C279.238 21.7258 278.863 22.1025 278.863 22.5671C278.863 23.0318 279.238 23.4084 279.7 23.4084Z" fill="#009233"/>
<path d="M284.057 26.7873C284.52 26.7873 284.894 26.4107 284.894 25.946C284.894 25.4814 284.52 25.1047 284.057 25.1047C283.595 25.1047 283.221 25.4814 283.221 25.946C283.221 26.4107 283.595 26.7873 284.057 26.7873Z" fill="#009233"/>
<path d="M288.446 30.5468C288.908 30.5468 289.283 30.1702 289.283 29.7056C289.283 29.2409 288.908 28.8643 288.446 28.8643C287.984 28.8643 287.609 29.2409 287.609 29.7056C287.609 30.1702 287.984 30.5468 288.446 30.5468Z" fill="#009233"/>
<path d="M234.505 5.95867C235.103 5.95867 235.589 5.47102 235.589 4.86947C235.589 4.26793 235.103 3.78027 234.505 3.78027C233.907 3.78027 233.422 4.26793 233.422 4.86947C233.422 5.47102 233.907 5.95867 234.505 5.95867Z" fill="#009233"/>
<path d="M151.039 0.186183C151.039 0.186183 136.799 15.4975 110.742 0.186183C110.742 0.186183 112.002 24.8411 75.7707 27.825C75.7707 27.825 87.2989 36.3953 82.5514 48.7228C77.8039 61.0502 50 60.5702 50 60.5702C50 60.5702 65.2082 67.4072 67.7268 78.6761C70.2454 89.9449 54.5518 100.248 51.7435 101.211C51.7435 101.211 68.3089 102.752 74.993 108.819C81.6771 114.885 82.4683 123.072 81.5 125.093L266.217 125.093C266.217 125.093 270.868 110.453 298.087 111.515C298.087 111.515 286.948 101.691 288.981 90.7129C291.014 79.7347 307 70.5858 307 70.5858C307 70.5858 287.626 68.3699 282.782 58.1623C277.938 47.9547 286.755 37.3606 292.567 34.5686C292.567 34.5686 276.098 34.9527 264.377 26.2863C252.655 17.62 257.982 3.75131 257.982 3.75131C257.982 3.75131 235.218 13.5749 218.653 0.0927734L151.037 0.188778L151.039 0.186183Z" fill="#009233"/>
<path d="M155.302 0.191596C155.302 0.191596 141.333 17.4699 113.204 4.1497C113.204 4.1497 111.278 25.9635 78.8147 28.6655C78.8147 28.6655 92.3005 37.8351 85.9443 50.2868C79.5881 62.7384 64.75 63.9919 64.75 63.9919C64.75 63.9919 74.3842 69.8796 75.5392 80.4016C76.6942 90.9236 68.6042 97.8724 68.6042 97.8724C68.6042 97.8724 93.3621 102.988 91.5323 125.093H256.358C256.358 125.093 261.85 108.202 282.753 106.077C282.753 106.077 271.868 88.8951 290.75 72.9691C290.75 72.9691 260.887 61.7736 278.227 38.1238C278.227 38.1238 251.061 34.1657 249.714 10.6148C249.714 10.6148 225.919 15.9226 211.278 0.0927734L155.31 0.188995L155.302 0.191596Z" fill="#FFE200"/>
<path d="M283.398 3.09277L271 16.0928L288 6.0202L283.398 3.09277Z" fill="#009233"/>
<path d="M293.563 15.4268L274.5 25.4268L296.5 19.3361L293.563 15.4268Z" fill="#009233"/>
<path d="M322.999 93.5918L301.999 92.8759L321.499 97.0915L322.999 93.5918Z" fill="#009233"/>
<path d="M316.497 107.092L301.997 99.035L312.997 109.592L316.497 107.092Z" fill="#009233"/>
<path d="M44.5059 122.096L62.5064 116.097L42.5057 118.597L44.5059 122.096Z" fill="#009233"/>
<path d="M67.0984 123.093L74.0986 116.093L60.5978 123.091L67.0984 123.093Z" fill="#009233"/>
<path d="M18.5 125.093L23.5896 74.2728C21.8796 72.8828 20.9496 70.7328 21.1696 68.4828C21.2096 68.1028 22.0896 59.4928 22.1996 58.5428L22.3896 56.9428L22.6496 56.9228L22.7296 53.9028C21.3896 53.4028 19.7596 52.7028 18.5896 51.9328C15.9996 50.2228 14.4696 46.2928 15.1696 43.1728C15.3896 42.2128 15.8096 39.4428 15.9796 38.3328V38.2628L16.0796 37.7028L16.6496 33.8928C16.6496 33.7628 16.6596 33.6428 16.6796 33.5128C16.6996 33.3228 16.7196 33.0228 16.8196 32.6528L16.8396 32.5828C17.0596 31.0928 17.2596 29.7428 17.4196 28.7128L17.4396 28.5928C17.5496 27.9228 17.6396 27.3628 17.6996 27.0328C18.1096 24.9628 18.7596 22.7728 20.7896 20.7428C22.3796 19.1528 25.8496 18.0928 29.4496 18.0928C31.9196 18.0928 34.3496 18.5528 36.6796 19.4728C43.5996 22.1928 45.8296 26.8028 45.6196 30.2128C45.5896 30.7028 45.4996 31.6228 45.3396 32.9428C45.3396 33.1428 45.2996 33.4428 45.2096 34.0028C45.0896 35.0028 44.9396 36.2228 44.7696 37.4928C44.7496 37.7428 44.6896 38.1528 44.6396 38.4628C44.3796 40.4528 44.0896 42.5628 43.8196 44.3928C43.7696 44.7828 43.6396 45.6928 43.6396 45.6928L43.1596 48.9828L43.0796 48.9228C43.0296 49.1828 42.9796 49.3428 42.9496 49.4528C42.4296 51.2928 40.9596 52.8328 38.5796 54.0128C38.1396 54.2328 38.0296 54.3528 37.9896 54.4128C37.8496 54.7128 37.1096 56.4228 36.0496 58.9028V59.7328C36.0496 60.7028 35.9996 61.3828 35.9296 62.1028L35.1696 69.8428C34.9596 71.9628 33.7396 73.8328 31.9296 74.9128L27.5 125.093H18.5Z" fill="white"/>
<path d="M24.1797 58.7724C24.1797 58.7724 28.2797 58.3924 34.0597 59.7324C34.0597 59.7324 32.1597 60.7024 29.4997 60.5324C26.8397 60.3624 24.1897 58.7724 24.1897 58.7724H24.1797Z" fill="black"/>
<path d="M23.5 125.093H20.5L27.6299 53.8525L31.8099 54.2625L25.5 125.093H23.5Z" fill="#4D4D4D"/>
<path d="M23.5 125.093H21.5L28.3398 56.4229L30.4898 56.6329L24 125.093H23.5Z" fill="#10131C"/>
<path d="M33.4492 59.9425C33.4492 59.9425 35.8692 54.2325 36.1992 53.5425C36.5692 52.7825 37.3692 52.3825 37.6892 52.2225C38.3092 51.9125 40.4792 50.8125 41.0192 48.9025C41.5592 46.9925 43.4592 32.4725 43.6192 30.0725C43.7692 27.6725 42.2492 23.8025 35.9392 21.3225C29.6292 18.8425 23.7392 20.5925 22.2092 22.1225C20.6792 23.6525 20.0692 25.3225 19.6592 27.3925C19.2492 29.4625 17.6592 41.1625 17.1092 43.5825C16.5592 46.0025 17.8692 49.0325 19.6792 50.2325C20.9492 51.0725 22.9492 51.8425 24.0392 52.2325C24.4892 52.3925 24.7792 52.8425 24.7292 53.3225L24.5692 59.0325C24.5092 59.5925 24.8392 60.1725 25.3892 60.2925C27.0492 60.6525 29.6692 61.0625 31.4292 61.1825C32.2892 61.2425 33.0792 61.2325 33.4392 59.9225L33.4492 59.9425Z" fill="#FFE200"/>
<path d="M21.6583 34.5124L21.4883 35.4624C21.4483 35.6724 21.6183 35.8624 21.8283 35.8624C26.7783 35.8624 30.6283 36.7824 32.9083 37.5124C33.3383 37.6524 33.7983 37.3724 33.8783 36.9224C33.9483 36.5524 33.7283 36.1924 33.3683 36.0724C29.2283 34.6624 24.3783 34.3024 22.0083 34.2224C21.8383 34.2224 21.6883 34.3324 21.6583 34.5024V34.5124Z" fill="#0B993C"/>
<path d="M21.2089 37.0122L21.0589 37.8522C21.0189 38.0622 21.1789 38.2522 21.3989 38.2522C26.3789 38.2622 30.2489 39.2022 32.5089 39.9322C32.9389 40.0722 33.3789 39.7922 33.4589 39.3622C33.5189 39.0022 33.3089 38.6522 32.9589 38.5322C28.7189 37.1322 23.7989 36.8122 21.5689 36.7422C21.3989 36.7422 21.2589 36.8522 21.2289 37.0222L21.2089 37.0122Z" fill="#0B993C"/>
<path d="M35.5087 27.6024C35.5587 27.3024 35.3987 27.0124 35.1187 26.9024C33.7787 26.3624 29.6287 24.9324 23.5587 25.1924C23.4387 25.1924 23.3387 25.2824 23.3187 25.4024L23.1687 26.2424C23.1387 26.4024 23.2587 26.5424 23.4187 26.5424C28.5787 26.4824 32.5287 27.4224 34.6787 28.1024C35.0487 28.2224 35.4387 27.9824 35.4987 27.6024H35.5087Z" fill="#0B993C"/>
<path d="M33.0295 41.7321C33.0896 41.4021 32.8995 41.0721 32.5795 40.9621C28.3195 39.5221 23.3395 39.2021 21.0695 39.1221C20.9295 39.1221 20.8095 39.2121 20.7795 39.3521L20.6195 40.2221C20.5895 40.3921 20.7195 40.5521 20.8995 40.5521C25.9695 40.5621 29.8895 41.5321 32.1295 42.2721C32.5295 42.4021 32.9495 42.1521 33.0195 41.7321H33.0295Z" fill="#0B993C"/>
<path d="M20.3585 41.6829L20.1885 42.6429C20.1485 42.8329 20.2885 43.0029 20.4785 43.0129C21.8685 43.0829 27.0885 43.4229 31.7185 44.6529C32.1285 44.7629 32.5385 44.4929 32.6185 44.0729C32.6785 43.7129 32.4685 43.3729 32.1285 43.2629C27.9185 41.8329 22.9985 41.4929 20.6785 41.4229C20.5185 41.4229 20.3885 41.5229 20.3585 41.6829Z" fill="#0B993C"/>
<path d="M22.9099 27.6729L22.7599 28.4929C22.7299 28.6829 22.8699 28.8529 23.0599 28.8529C28.1599 28.8029 32.0699 29.7429 34.2099 30.4229C34.6099 30.5529 35.0299 30.2929 35.1099 29.8729C35.1699 29.5229 34.9599 29.1929 34.6299 29.0829C30.5099 27.7429 25.6699 27.4729 23.2099 27.4229C23.0599 27.4229 22.9299 27.5229 22.9099 27.6729Z" fill="#0B993C"/>
<path d="M22.4886 29.9522L22.3286 30.8322C22.2986 30.9922 22.4286 31.1422 22.5886 31.1422C27.6686 31.0722 31.5986 31.9822 33.8586 32.6822C34.2386 32.8022 34.6286 32.5622 34.6986 32.1722C34.7586 31.8522 34.5686 31.5422 34.2686 31.4422C30.1286 30.0722 25.2386 29.7922 22.7486 29.7422C22.6186 29.7422 22.5086 29.8322 22.4886 29.9622V29.9522Z" fill="#0B993C"/>
<path d="M22.0692 32.2929L21.9492 32.9529C21.9092 33.1629 22.0792 33.3529 22.2892 33.3629C27.2692 33.3929 31.1192 34.3529 33.3292 35.0729C33.7592 35.2129 34.2192 34.9329 34.2992 34.4929C34.3692 34.1229 34.1392 33.7629 33.7792 33.6429C29.5692 32.3029 24.7092 32.0429 22.4092 32.0029C22.2392 32.0029 22.0992 32.1229 22.0692 32.2829V32.2929Z" fill="#0B993C"/>
<path d="M24.1187 25.1721C24.0587 25.4621 23.9687 25.9321 23.8387 26.5321C23.6987 26.5321 23.5587 26.5321 23.4187 26.5321C23.2587 26.5321 23.1387 26.3921 23.1687 26.2321L23.3187 25.3921C23.3387 25.2721 23.4387 25.1821 23.5587 25.1821C23.7487 25.1821 23.9287 25.1621 24.1187 25.1621V25.1721Z" fill="#000202"/>
<path d="M23.6582 27.4329C23.5682 27.8629 23.4782 28.3329 23.3782 28.8429C23.2782 28.8429 23.1682 28.8429 23.0682 28.8429C22.8782 28.8429 22.7282 28.6729 22.7682 28.4929L22.9182 27.6729C22.9482 27.5229 23.0682 27.4229 23.2282 27.4229C23.3682 27.4229 23.5182 27.4229 23.6782 27.4329H23.6582Z" fill="#000202"/>
<path d="M23.1986 29.7424C23.1086 30.1824 23.0186 30.6424 22.9286 31.1224C22.8186 31.1224 22.7086 31.1224 22.5986 31.1224C22.4286 31.1224 22.3086 30.9724 22.3386 30.8124L22.4986 29.9324C22.5186 29.8024 22.6286 29.7124 22.7586 29.7224C22.8986 29.7224 23.0486 29.7224 23.1986 29.7324V29.7424Z" fill="#000202"/>
<path d="M22.7497 32.0125C22.6697 32.4525 22.5797 32.9025 22.4897 33.3625H22.2797C22.0597 33.3625 21.8997 33.1625 21.9397 32.9525L22.0597 32.2925C22.0897 32.1225 22.2397 32.0025 22.4097 32.0125C22.5197 32.0125 22.6297 32.0125 22.7497 32.0125Z" fill="#000202"/>
<path d="M22.3285 34.252C22.2285 34.782 22.1285 35.332 22.0285 35.872C21.9585 35.872 21.8885 35.872 21.8185 35.872C21.6085 35.872 21.4385 35.682 21.4785 35.472L21.6485 34.512C21.6785 34.342 21.8285 34.222 21.9985 34.232C22.0985 34.232 22.2085 34.232 22.3185 34.242L22.3285 34.252Z" fill="#000202"/>
<path d="M21.0588 37.8624L21.2088 37.0124C21.2388 36.8424 21.3788 36.7324 21.5488 36.7324C21.6488 36.7324 21.7588 36.7324 21.8688 36.7424C21.7788 37.2424 21.6888 37.7524 21.5988 38.2524H21.3788C21.1688 38.2524 21.0088 38.0624 21.0388 37.8524L21.0588 37.8624Z" fill="#000202"/>
<path d="M20.7793 39.3528C20.8093 39.2128 20.9293 39.1128 21.0693 39.1228C21.1893 39.1228 21.3193 39.1228 21.4593 39.1328C21.3793 39.6128 21.2993 40.0828 21.2193 40.5528C21.1193 40.5528 21.0093 40.5528 20.9093 40.5528C20.7293 40.5528 20.5993 40.3928 20.6293 40.2228L20.7893 39.3528H20.7793Z" fill="#000202"/>
<path d="M21.0785 41.4321C20.9885 41.9721 20.9085 42.5021 20.8285 43.0221C20.6885 43.0221 20.5785 43.0121 20.4785 43.0021C20.2885 43.0021 20.1485 42.8221 20.1885 42.6321L20.3585 41.6721C20.3885 41.5221 20.5185 41.4121 20.6785 41.4121C20.8085 41.4121 20.9385 41.4221 21.0785 41.4321Z" fill="#000202"/>
<path d="M42.2891 30.8126C42.0391 30.6926 39.5191 29.5326 38.4591 29.0426C38.1891 28.9126 38.0691 28.5926 38.1891 28.3226C38.3091 28.0526 38.6191 27.9326 38.8891 28.0426C40.0391 28.5126 42.9491 29.6926 43.1491 29.8026C43.4191 29.9426 43.5691 30.2926 43.5791 30.3426C43.5891 30.3926 43.4691 31.6426 43.4691 31.6426C43.4691 31.6426 42.8391 31.0726 42.2891 30.8126Z" fill="#0B993C"/>
<path d="M43.1992 33.9124C43.1992 33.9124 42.7092 33.4924 42.4692 33.3524C42.2792 33.2424 39.1792 31.8324 38.1292 31.3824C37.8992 31.2824 37.7692 31.0324 37.8192 30.7924C37.8792 30.4624 38.2292 30.2724 38.5392 30.3924C39.7292 30.8624 42.5992 32.0624 42.7892 32.1924C43.0392 32.3624 43.2892 32.5824 43.3392 32.7224C43.3792 32.8624 43.1992 33.9024 43.1992 33.9024V33.9124Z" fill="#0B993C"/>
<path d="M42.8792 36.2622C42.8792 36.2622 42.1892 35.7122 41.7992 35.4722C41.5492 35.3222 38.7792 34.0022 37.7692 33.5522C37.5192 33.4422 37.4092 33.1522 37.5192 32.9022C37.6192 32.6722 37.8892 32.5522 38.1292 32.6322C39.1492 32.9922 41.9292 34.1722 42.1792 34.2922C42.4892 34.4422 42.9892 34.8222 43.0392 34.9722C43.0892 35.1222 42.8792 36.2522 42.8792 36.2522V36.2622Z" fill="#0B993C"/>
<path d="M42.62 38.5024C42.62 38.5024 41.62 37.7924 41.26 37.5824C40.82 37.3324 38.45 36.3924 37.43 35.9624C37.2 35.8624 37.07 35.6224 37.12 35.3724C37.19 35.0724 37.5 34.8924 37.79 34.9924C38.98 35.4024 41.56 36.3324 41.79 36.4624C41.99 36.5724 42.77 36.9924 42.79 37.1924C42.8 37.3924 42.62 38.4924 42.62 38.4924V38.5024Z" fill="#0B993C"/>
<path d="M42.3087 40.6722C42.3087 40.6722 41.6787 40.1622 41.1787 39.9122C40.9287 39.7822 38.1587 38.6622 37.0887 38.2222C36.8487 38.1222 36.7287 37.8722 36.7887 37.6222C36.8587 37.3322 37.1687 37.1622 37.4487 37.2622C38.5887 37.6622 41.1587 38.5722 41.4887 38.7822C41.9087 39.0322 42.4587 39.4022 42.4787 39.5322C42.4987 39.6622 42.3087 40.6922 42.3087 40.6922V40.6722Z" fill="#0B993C"/>
<path d="M41.9985 43.0028C41.9985 43.0028 41.2085 42.4128 41.0385 42.3028C40.8985 42.2128 37.9085 41.0928 36.7585 40.6528C36.4985 40.5528 36.3585 40.2728 36.4385 40.0128C36.5285 39.7328 36.8185 39.5728 37.0985 39.6628C38.2385 40.0228 41.0685 40.9928 41.3585 41.1428C41.6385 41.2928 42.1485 41.6128 42.1685 41.6928C42.1885 41.7728 42.0085 43.0128 42.0085 43.0128L41.9985 43.0028Z" fill="#0B993C"/>
<path d="M40.5699 44.6126C40.3799 44.5126 37.4499 43.3626 36.3599 42.9426C36.1399 42.8526 36.0199 42.6226 36.0699 42.3926C36.1299 42.1326 36.4099 41.9826 36.6599 42.0526C37.8399 42.4126 40.7599 43.4226 40.9499 43.5226C41.1899 43.6426 41.8399 44.0126 41.8499 44.0726C41.8599 44.1326 41.6699 45.4026 41.6699 45.4026C41.6699 45.4026 40.7999 44.7526 40.5699 44.6226V44.6126Z" fill="#0B993C"/>
<path d="M41.2991 47.5121C41.2991 47.5121 40.3791 46.8821 40.2391 46.8121C40.0991 46.7421 37.1591 45.7521 36.0491 45.3721C35.8191 45.2921 35.6791 45.0621 35.7091 44.8121C35.7591 44.5121 36.0591 44.3221 36.3491 44.4121C37.5491 44.7721 40.4191 45.6321 40.6291 45.7221C40.8991 45.8321 41.4291 46.0921 41.4591 46.2821C41.4891 46.4721 41.2791 47.5121 41.2791 47.5121H41.2991Z" fill="#0B993C"/>
<path d="M41.4681 46.283C41.4981 46.473 41.2881 47.513 41.2881 47.513C41.2881 47.513 40.9481 47.283 40.6481 47.083L40.7081 46.123L40.0781 45.543C40.3781 45.643 40.5781 45.703 40.6381 45.723C40.9081 45.833 41.4381 46.093 41.4681 46.283Z" fill="#000202"/>
<path d="M41.0098 43.9425L40.5098 43.3525C40.7498 43.4325 40.9098 43.4925 40.9498 43.5125C41.1898 43.6325 41.8398 44.0025 41.8498 44.0625C41.8598 44.1225 41.6698 45.3925 41.6698 45.3925C41.6698 45.3925 41.2398 45.0725 40.9098 44.8325L41.0198 43.9425H41.0098Z" fill="#000202"/>
<path d="M41.2995 41.5228L40.6895 40.8828C41.0395 41.0128 41.2795 41.1028 41.3595 41.1428C41.6395 41.2928 42.1495 41.6128 42.1695 41.6928C42.1895 41.7728 42.0095 43.0128 42.0095 43.0128C42.0095 43.0128 41.4995 42.6328 41.1995 42.4228L41.2995 41.5328V41.5228Z" fill="#000202"/>
<path d="M41.6 39.2727L41 38.5527C41.24 38.6527 41.42 38.7327 41.49 38.7727C41.91 39.0327 42.46 39.3927 42.48 39.5227C42.5 39.6527 42.31 40.6827 42.31 40.6827C42.31 40.6827 41.93 40.3727 41.53 40.1227L41.61 39.2927L41.6 39.2727Z" fill="#000202"/>
<path d="M41.7888 36.4629C41.9888 36.5729 42.7688 36.9929 42.7888 37.2029C42.7988 37.4029 42.6188 38.5029 42.6188 38.5029C42.6188 38.5029 42.1888 38.1929 41.7888 37.9229L41.9088 37.0329L41.0488 36.1729C41.4388 36.3229 41.7288 36.4329 41.7988 36.4729L41.7888 36.4629Z" fill="#000202"/>
<path d="M42.1784 34.3021C42.4884 34.4521 42.9884 34.8321 43.0384 34.9821C43.0884 35.1321 42.8784 36.2621 42.8784 36.2621C42.8784 36.2621 42.4184 35.8921 42.0384 35.6221L42.1684 34.7621L41.3984 33.9521C41.8084 34.1321 42.1084 34.2621 42.1884 34.2921L42.1784 34.3021Z" fill="#000202"/>
<path d="M43.3283 32.7224C43.3683 32.8624 43.1883 33.9024 43.1883 33.9024C43.1883 33.9024 42.6883 33.4824 42.4583 33.3424C42.4483 33.3424 42.4183 33.3224 42.3683 33.3024L42.4383 32.5024L41.7383 31.7224C42.2883 31.9624 42.7083 32.1524 42.7783 32.1924C43.0383 32.3624 43.2783 32.5824 43.3283 32.7224Z" fill="#000202"/>
<path d="M43.1599 29.8026C43.4199 29.9426 43.5799 30.2926 43.5899 30.3426C43.5999 30.3926 43.4799 31.6426 43.4799 31.6426C43.4799 31.6426 43.1099 31.3026 42.6799 31.0326L42.7899 30.2126L42.1699 29.3926C42.6899 29.6126 43.0899 29.7726 43.1599 29.8126V29.8026Z" fill="#000202"/>
<path d="M29.5587 50.8821C29.4887 51.0521 29.2987 51.1421 29.1287 51.0921C28.5487 50.9421 27.2787 50.5821 26.2487 49.8921C24.9087 48.9821 24.1787 47.7421 23.9687 46.7021C23.7487 45.6521 24.3587 45.4121 24.6587 45.4121C24.9587 45.4121 25.2487 45.7621 25.3587 46.1721C25.4587 46.5821 25.9087 48.2321 26.7587 48.9221C27.3887 49.4421 28.7487 50.0921 29.3787 50.3821C29.5687 50.4721 29.6487 50.6921 29.5687 50.8721L29.5587 50.8821Z" fill="white"/>
<path d="M27.2797 51.6021C27.2197 51.6721 27.1197 51.7021 27.0397 51.6721C26.6497 51.5221 25.5597 51.0821 24.4897 50.4421C23.2497 49.7021 22.1197 48.3521 21.9497 47.9321C21.8097 47.5921 21.5997 45.8821 21.6897 45.3821C21.7797 44.8821 22.4797 44.8921 22.5397 45.2221C22.5997 45.5421 22.6697 46.9821 22.8497 47.5921C23.0397 48.2021 23.8297 49.1721 25.0197 50.0121C25.8797 50.6221 26.7897 51.0721 27.2197 51.2721C27.3497 51.3321 27.3797 51.4921 27.2897 51.6021H27.2797Z" fill="white"/>
<path d="M23.9387 51.1825C23.4187 50.9825 22.2387 50.2525 21.6387 49.7425C20.8887 49.1025 20.2487 48.1425 20.1587 47.8725C20.0687 47.6025 19.7487 45.7325 19.8587 45.2425C19.9687 44.7525 20.5387 45.0125 20.5587 45.1625C20.5787 45.3125 20.6287 47.2725 20.7487 47.6325C20.8287 47.9025 20.8987 48.5025 22.0587 49.5025C22.8987 50.2225 23.5387 50.6325 24.0487 50.9425C24.1587 51.0125 24.0887 51.2425 23.9387 51.1925V51.1825Z" fill="white"/>
<path d="M20.8088 50.1626C20.0588 49.5626 18.9088 48.1426 18.8188 47.8026C18.7288 47.4626 18.3388 45.6326 18.4088 45.2726C18.4688 44.9126 18.8888 45.0126 18.9388 45.1426C18.9888 45.2726 19.1988 47.2626 19.2688 47.5626C19.3388 47.8526 19.9288 48.7826 20.3488 49.3326C20.7688 49.8826 20.9188 49.9426 20.9288 50.0326C20.9288 50.1226 20.8388 50.1926 20.8188 50.1726L20.8088 50.1626Z" fill="white"/>
<path d="M32.5894 53.9021C31.6194 53.5221 30.4894 54.3221 30.0494 55.6921C29.6194 57.0621 30.0494 58.4821 31.0194 58.8721C31.9894 59.2521 33.1194 58.4521 33.5594 57.0821C33.9894 55.7121 33.5594 54.2921 32.5894 53.9021ZM33.1094 56.9021C32.8094 57.8321 32.0494 58.3821 31.3894 58.1221C30.7394 57.8621 30.4394 56.9021 30.7394 55.9621C31.0394 55.0321 31.7994 54.4821 32.4594 54.7421C33.1094 55.0021 33.4094 55.9621 33.1094 56.9021Z" fill="white"/>
<path d="M20.0482 25.9325C20.0482 25.9325 19.8182 26.8225 19.7482 27.0825C19.6982 27.2725 19.7482 27.4125 19.9682 27.3825C20.1882 27.3525 21.2882 27.2425 21.4782 27.2125C21.7782 27.1725 21.9182 26.9425 21.9882 26.5525C22.0782 26.0825 22.1382 25.8325 22.1582 25.5425C22.1882 25.2625 22.2882 25.1425 21.7382 25.1925C20.4782 25.3125 20.2082 25.2625 20.0382 25.9125L20.0482 25.9325Z" fill="white"/>
<path d="M21.3993 27.6924C21.3993 27.6924 20.2293 27.8924 19.9293 28.0024C19.6293 28.1024 19.5493 28.1924 19.4693 28.6024C19.3593 29.1724 19.2593 29.5024 19.6993 29.4724C20.1393 29.4424 20.9493 29.3524 21.0893 29.3424C21.3493 29.3124 21.5693 29.2124 21.6193 28.8824C21.6893 28.4324 21.7293 28.1324 21.7693 27.9524C21.8093 27.7724 21.6393 27.6724 21.3993 27.7024V27.6924Z" fill="white"/>
<path d="M21.0085 29.8025C21.0085 29.8025 19.9685 30.0025 19.5785 30.2025C19.1985 30.4025 19.1785 30.6025 19.1285 31.0125C19.0785 31.3525 18.9185 31.8225 19.2185 31.7625C19.5085 31.7125 20.6385 31.5325 20.8385 31.4825C21.0385 31.4325 21.2085 31.2825 21.2685 31.0325C21.3285 30.7825 21.3885 30.2025 21.4385 30.0225C21.4685 29.8925 21.3985 29.6925 21.0085 29.8125V29.8025Z" fill="white"/>
<path d="M20.7299 32.1324C20.7299 32.1324 19.4199 32.4724 19.1799 32.5824C18.9399 32.6924 18.8299 32.8824 18.7499 33.1524C18.6699 33.4324 18.6799 33.6524 18.6499 33.7924C18.6299 33.9324 18.6499 34.1424 18.9999 34.0724C19.3399 34.0024 20.1499 33.8224 20.4899 33.7024C20.7699 33.6124 20.8499 33.5924 20.9199 33.0724C20.9799 32.6224 21.2699 31.9424 20.7399 32.1124L20.7299 32.1324Z" fill="white"/>
<path d="M20.3997 34.3126C20.0697 34.4126 18.9097 34.7826 18.7097 34.9126C18.5097 35.0426 18.4797 35.2126 18.4197 35.6426C18.3597 36.0726 18.2297 36.4426 18.7097 36.3226C19.0397 36.2426 19.9397 35.9526 20.0897 35.9126C20.2397 35.8626 20.4497 35.8326 20.5297 35.4526C20.6097 35.0726 20.8097 34.1926 20.3997 34.3226V34.3126Z" fill="white"/>
<path d="M19.8889 36.7026C19.8889 36.7026 18.8689 36.9825 18.6589 37.0625C18.4489 37.1425 18.2789 37.2625 18.1789 37.4925C18.0789 37.7225 18.0089 38.2725 17.9789 38.3925C17.9489 38.5125 17.9789 38.7625 18.4589 38.6425C18.9389 38.5225 19.5989 38.3525 19.7489 38.3225C19.8989 38.2925 20.0589 38.2126 20.1089 37.8726C20.1589 37.5426 20.2789 36.8925 20.2589 36.7625C20.2389 36.6325 20.1089 36.6125 19.8789 36.6825L19.8889 36.7026Z" fill="white"/>
<path d="M19.5887 38.9129C19.5887 38.9129 18.4587 39.2629 18.2387 39.3229C18.0187 39.3829 17.8587 39.4929 17.7987 39.8029C17.7387 40.1129 17.6387 40.4529 17.6387 40.6929C17.6387 40.8429 17.7687 41.0229 18.0887 40.9229C18.3987 40.8229 19.2087 40.6429 19.3287 40.6229C19.4487 40.5929 19.6687 40.5329 19.7287 40.2429C19.7887 39.9529 19.8787 39.3529 19.8987 39.0929C19.9187 38.8629 19.7487 38.8629 19.5887 38.9029V38.9129Z" fill="white"/>
<path d="M19.2191 41.2629C19.2191 41.2629 17.8891 41.5929 17.6791 41.6629C17.4691 41.7329 17.4491 42.0129 17.3991 42.2629C17.3491 42.5029 17.2991 42.7829 17.2891 42.8329C17.2891 42.8829 17.2891 43.1429 17.5991 43.0629C17.9191 42.9829 18.8791 42.7929 19.0191 42.7629C19.1591 42.7229 19.3191 42.6829 19.3791 42.4329C19.4391 42.1829 19.5091 41.5029 19.5391 41.3829C19.5591 41.2729 19.3991 41.2129 19.2191 41.2629Z" fill="white"/>
<path d="M21.7586 25.2128C22.2986 25.1628 22.1986 25.2728 22.1786 25.5628C22.1786 25.5828 22.1786 25.6028 22.1786 25.6228C21.9186 25.6428 21.4286 25.6828 21.1886 25.7428C20.6986 25.8628 20.5886 26.5128 20.3886 27.3528C20.2086 27.3728 20.0486 27.3928 19.9886 27.4028C19.7786 27.4328 19.7186 27.2828 19.7686 27.1028C19.8386 26.8328 20.0686 25.9528 20.0686 25.9528C20.2386 25.3028 20.5086 25.3528 21.7686 25.2328L21.7586 25.2128Z" fill="#000202"/>
<path d="M21.4085 27.6924C21.6385 27.6624 21.8185 27.7624 21.7785 27.9424C21.7785 27.9524 21.7785 27.9624 21.7785 27.9824C21.4385 28.0524 20.5785 28.2324 20.3885 28.3024C20.1785 28.3924 20.0585 28.6824 19.9085 29.4524C19.8485 29.4524 19.7885 29.4524 19.7285 29.4624C19.2885 29.4924 19.3885 29.1624 19.4985 28.5924C19.5785 28.1824 19.6585 28.0924 19.9585 27.9924C20.2585 27.8924 21.3785 27.6924 21.4285 27.6824L21.4085 27.6924Z" fill="#000202"/>
<path d="M21.0091 29.7929C21.3891 29.6729 21.4691 29.8629 21.4391 30.0029C21.4391 30.0329 21.4191 30.0929 21.4091 30.1529C21.1091 30.2329 20.4791 30.4029 20.1091 30.5929C19.9091 30.7029 19.8191 30.9929 19.6591 31.6829C19.4691 31.7129 19.2991 31.7429 19.2091 31.7629C18.9191 31.8129 19.0791 31.3429 19.1191 31.0029C19.1791 30.5929 19.1891 30.4029 19.5691 30.1929C19.9491 29.9929 20.9991 29.7929 20.9991 29.7929H21.0091Z" fill="#000202"/>
<path d="M20.7291 32.1322C20.9591 32.0522 21.0391 32.1422 21.0391 32.3022C20.8391 32.3622 19.8491 32.6622 19.6591 32.7922C19.4591 32.9322 19.3591 33.4122 19.2291 34.0322C19.1391 34.0522 19.0691 34.0722 19.0091 34.0822C18.6691 34.1522 18.6391 33.9522 18.6691 33.8022C18.6891 33.6622 18.6891 33.4322 18.7691 33.1622C18.8491 32.8922 18.9591 32.7022 19.1991 32.5922C19.4391 32.4722 20.7491 32.1322 20.7491 32.1322H20.7291Z" fill="#000202"/>
<path d="M20.3899 34.3122C20.5699 34.2522 20.6399 34.4022 20.6399 34.6122C20.3099 34.7222 19.4499 35.0222 19.2999 35.1122C19.1299 35.2122 19.0399 35.6522 18.9299 36.2622C18.8399 36.2822 18.7599 36.3022 18.6999 36.3222C18.2199 36.4422 18.3499 36.0622 18.4099 35.6422C18.4699 35.2222 18.4999 35.0422 18.6999 34.9122C18.8999 34.7822 20.0599 34.4222 20.3899 34.3122Z" fill="#000202"/>
<path d="M20.2796 36.7721C20.2796 36.7721 20.2796 36.9021 20.2596 37.0121C19.9296 37.1021 19.0296 37.3721 18.8896 37.4221C18.7296 37.4821 18.6296 37.8621 18.4796 38.6321H18.4596C17.9696 38.7521 17.9496 38.5021 17.9796 38.3821C18.0096 38.2621 18.0796 37.7121 18.1796 37.4821C18.2796 37.2521 18.4496 37.1321 18.6596 37.0521C18.8696 36.9721 19.8896 36.6921 19.8896 36.6921C20.1196 36.6221 20.2596 36.6421 20.2696 36.7721H20.2796Z" fill="#000202"/>
<path d="M19.6002 38.9124C19.7602 38.8724 19.9202 38.8724 19.9102 39.1024C19.9102 39.1424 19.9102 39.1824 19.9002 39.2324C19.5002 39.3324 18.7402 39.5424 18.5302 39.6724C18.3102 39.8124 18.2202 40.5524 18.2002 40.9024C18.1702 40.9024 18.1402 40.9224 18.1102 40.9224C17.8002 41.0224 17.6602 40.8324 17.6602 40.6924C17.6602 40.4524 17.7702 40.1124 17.8202 39.8024C17.8802 39.4924 18.0402 39.3824 18.2602 39.3224C18.4802 39.2624 19.6102 38.9124 19.6102 38.9124H19.6002Z" fill="#000202"/>
<path d="M19.2197 41.2629C19.3997 41.2129 19.5597 41.2729 19.5497 41.3829C19.5497 41.4129 19.5297 41.4829 19.5197 41.5629C19.1397 41.6729 18.4197 41.8929 18.2397 41.9629C18.0197 42.0529 17.9697 42.5829 17.9497 42.9829C17.8097 43.0129 17.6897 43.0329 17.6097 43.0529C17.2897 43.1329 17.2897 42.8629 17.2997 42.8229C17.2997 42.7829 17.3597 42.4929 17.4097 42.2529C17.4597 42.0029 17.4797 41.7229 17.6897 41.6529C17.8997 41.5829 19.2297 41.2529 19.2297 41.2529L19.2197 41.2629Z" fill="#000202"/>
<path d="M32.1594 21.0326C32.1594 21.0326 30.9194 21.1826 30.3894 21.4726C29.8594 21.7726 28.7994 23.1326 28.3094 23.4626C27.7294 23.8426 26.9794 23.5726 27.0794 23.0126C27.1794 22.4526 28.0494 21.3926 28.9294 20.9726C29.8094 20.5426 31.5494 20.7226 32.1594 21.0326Z" fill="white"/>
<path d="M27.5199 20.543C27.5199 20.543 26.3299 20.973 25.9299 21.273C25.5299 21.563 24.8199 22.663 24.7299 23.003C24.6399 23.333 25.1099 23.583 25.5699 23.243C26.0299 22.903 26.3999 21.803 26.6699 21.483C26.9299 21.153 27.5599 20.633 27.5199 20.543Z" fill="white"/>
<path d="M25.1797 21.112C25.1797 21.112 24.0897 21.562 23.8297 21.822C23.5697 22.082 23.1397 23.112 23.0697 23.422C22.9997 23.742 23.4597 23.682 23.5597 23.552C23.6597 23.432 23.9997 22.462 24.2097 22.092C24.4197 21.722 25.1097 21.082 25.1797 21.102V21.112Z" fill="white"/>
<path d="M24.1793 58.7725C24.0693 59.7225 23.1493 68.6725 23.1493 68.6725C22.8993 71.2225 24.7793 73.5125 27.3393 73.7625L27.7193 73.8025L29.0593 60.1625C27.4693 60.0025 24.1793 58.7825 24.1793 58.7825V58.7725Z" fill="#4D4D4D"/>
<path d="M29.1087 60.1624C29.1087 60.1624 29.0788 60.1624 29.0588 60.1624L27.7188 73.8024L28.0988 73.8424C30.6488 74.0924 32.9388 72.2124 33.1888 69.6524L33.9488 61.9124C34.0188 61.2024 34.0587 60.5824 34.0587 59.7324C34.0587 59.7324 30.6787 60.3124 29.1087 60.1524V60.1624Z" fill="#10131C"/>
<path d="M30.0099 66.0025C29.9299 66.8425 29.1799 67.4525 28.3399 67.3725C27.4999 67.2925 26.8899 66.5425 26.9699 65.7025C27.0499 64.8625 27.7999 64.2525 28.6399 64.3325C29.4799 64.4125 30.0899 65.1625 30.0099 66.0025Z" fill="#C8C8C9"/>
<path d="M29.3886 65.9429C29.3386 66.4429 28.8986 66.8029 28.3986 66.7529C27.8986 66.7029 27.5386 66.2629 27.5886 65.7629C27.6386 65.2629 28.0786 64.9029 28.5786 64.9529C29.0786 65.0029 29.4386 65.4429 29.3886 65.9429Z" fill="#FFE200"/>
<path d="M29.5998 70.1829C29.5198 71.0229 28.7698 71.6329 27.9298 71.5529C27.0898 71.4729 26.4798 70.7229 26.5598 69.8829C26.6398 69.0429 27.3898 68.4329 28.2298 68.5129C29.0698 68.5929 29.6798 69.3429 29.5998 70.1829Z" fill="#C8C8C9"/>
<path d="M28.9804 70.1128C28.9304 70.6128 28.4904 70.9728 27.9904 70.9228C27.4904 70.8728 27.1304 70.4328 27.1804 69.9328C27.2304 69.4328 27.6704 69.0728 28.1704 69.1228C28.6704 69.1728 29.0304 69.6128 28.9804 70.1128Z" fill="#FFE200"/>
<path d="M30.4201 61.8226C30.3401 62.6626 29.5901 63.2726 28.7501 63.1926C27.9101 63.1126 27.3001 62.3626 27.3801 61.5226C27.4601 60.6826 28.2101 60.0726 29.0501 60.1526C29.8901 60.2326 30.5001 60.9826 30.4201 61.8226Z" fill="#C8C8C9"/>
<path d="M29.7988 61.7622C29.7488 62.2622 29.3088 62.6222 28.8088 62.5722C28.3088 62.5222 27.9488 62.0822 27.9988 61.5822C28.0488 61.0822 28.4888 60.7222 28.9888 60.7722C29.4888 60.8222 29.8488 61.2622 29.7988 61.7622Z" fill="#FFE200"/>
<path d="M60.5 28.0928C55.8054 28.0928 52 31.8982 52 36.5928C52 41.2873 55.8054 45.0928 60.5 45.0928C65.1946 45.0928 69 41.2873 69 36.5928C69 31.8982 65.1946 28.0928 60.5 28.0928ZM64.2638 42.1205C60.5168 44.2669 55.8223 42.3037 54.7968 38.8613C54.7968 38.8613 57.8718 39.5899 61.5171 38.5132C65.0512 37.4695 67.1753 35.3088 67.1753 35.3088C67.1753 35.3088 67.9076 40.033 64.2638 42.1205Z" fill="#FFE200"/>
<path d="M52 6.09277C49.7908 6.09277 48 7.88357 48 10.0928C48 12.302 49.7908 14.0928 52 14.0928C54.2092 14.0928 56 12.302 56 10.0928C56 7.88357 54.2092 6.09277 52 6.09277ZM53.7712 12.6941C52.0079 13.7041 49.7987 12.7803 49.3161 11.1603C49.3161 11.1603 50.7632 11.5032 52.4786 10.9965C54.1418 10.5053 55.1413 9.48856 55.1413 9.48856C55.1413 9.48856 55.4859 11.7117 53.7712 12.6941Z" fill="#FFE200"/>
<path d="M12.5 7.09277C10.0146 7.09277 8 9.10742 8 11.5928C8 14.0781 10.0146 16.0928 12.5 16.0928C14.9854 16.0928 17 14.0781 17 11.5928C17 9.10742 14.9854 7.09277 12.5 7.09277ZM14.4926 14.5192C12.5089 15.6555 10.0235 14.6162 9.48065 12.7937C9.48065 12.7937 11.1086 13.1795 13.0385 12.6095C14.9095 12.0569 16.034 10.913 16.034 10.913C16.034 10.913 16.4217 13.4141 14.4926 14.5192Z" fill="#FFE200"/>
</svg>
