<svg width="1073" height="249" viewBox="0 0 1073 249" fill="none" xmlns="http://www.w3.org/2000/svg">
<rect y="0.185242" width="1073" height="248" rx="4" fill="#11A64B"/>
<path opacity="0.15" d="M690.594 0.184265C723.193 32.9975 743 76.2397 743 123.629C743 171.555 722.741 215.24 689.48 248.185H382.02C348.759 215.24 328.5 171.555 328.5 123.629C328.5 76.2397 348.307 32.9975 380.906 0.184265H690.594Z" fill="black"/>
<path d="M532.817 217.185C602.028 217.185 658.135 212.222 658.135 206.099C658.135 199.977 602.028 195.013 532.817 195.013C463.606 195.013 407.5 199.977 407.5 206.099C407.5 212.222 463.606 217.185 532.817 217.185Z" fill="#474747" fill-opacity="0.4"/>
<path d="M590.656 37.9352L591.519 37.221L588.492 33.913C582.263 39.0678 573.294 38.0552 567.873 32.1316L439.304 138.527C444.725 144.451 444.54 153.038 438.311 158.193L441.338 161.501L442.201 160.787C443.287 159.889 444.925 159.997 445.87 161.029C446.814 162.061 446.701 163.619 445.615 164.518L444.752 165.232L447.756 168.515L448.619 167.801C449.705 166.902 451.343 167.011 452.288 168.043C453.232 169.075 453.119 170.633 452.033 171.531L451.17 172.246L454.516 175.902C456.987 173.856 460.729 174.103 462.88 176.454C465.031 178.804 464.771 182.363 462.3 184.408L465.714 188.139L466.577 187.424C467.662 186.526 469.301 186.634 470.245 187.666C471.19 188.699 471.076 190.257 469.991 191.155L469.127 191.869L472.132 195.152L472.995 194.438C474.08 193.54 475.719 193.648 476.663 194.68C477.608 195.712 477.494 197.271 476.409 198.169L475.546 198.883L478.504 202.116C484.733 196.962 493.703 197.974 499.124 203.898L627.697 97.4988C622.277 91.5752 622.461 82.9874 628.69 77.8327L625.731 74.5993L624.868 75.3136C623.783 76.2118 622.144 76.1036 621.2 75.0715C620.255 74.0393 620.369 72.481 621.454 71.5828L622.317 70.8686L619.313 67.5856L618.45 68.2998C617.365 69.198 615.726 69.0899 614.781 68.0577C613.837 67.0255 613.951 65.4673 615.036 64.5691L615.899 63.8548L612.485 60.1241C610.014 62.1694 606.272 61.9224 604.121 59.5721C601.97 57.2217 602.23 53.6633 604.702 51.618L601.356 47.9619L600.493 48.6761C599.407 49.5743 595.993 45.8436 597.079 44.9454L597.942 44.2311L594.938 40.9481L594.075 41.6623C592.989 42.5605 591.351 42.4524 590.406 41.4202C589.462 40.388 589.575 38.8298 590.661 37.9316L590.656 37.9352Z" fill="#FFE200"/>
<path d="M562.002 45.6455L454.181 134.871C450.881 137.602 450.533 142.36 453.406 145.499L493.804 189.646C496.676 192.785 501.68 193.115 504.98 190.384L612.801 101.159C616.101 98.4276 616.449 93.669 613.576 90.5302L573.178 46.3832C570.306 43.2445 565.302 42.9142 562.002 45.6455Z" fill="white"/>
<path d="M483.2 115.115L481.967 116.135L529.052 167.591L530.286 166.57L483.2 115.115Z" fill="#11A64B"/>
<path d="M506.631 175.167L509.203 173.039L507.037 170.672L504.465 172.8L503.152 171.366L509.839 165.832L511.152 167.267L508.353 169.582L510.519 171.949L513.317 169.634L514.638 171.076L507.951 176.61L506.631 175.167Z" fill="#11A64B"/>
<path d="M500.687 168.672L504.536 165.487C505.686 164.535 505.891 163.637 505.216 162.899C504.541 162.161 503.593 162.188 502.411 163.166L498.562 166.351L497.25 164.917L501.003 161.811C503.069 160.101 504.957 160.28 506.478 161.942C507.999 163.605 507.878 165.264 505.746 167.028L502.015 170.115L500.695 168.673L500.687 168.672Z" fill="#11A64B"/>
<path d="M496.194 163.603C495.691 163.204 495 162.566 494.302 161.804C493.437 160.859 492.982 160.077 492.948 159.311C492.921 158.671 493.198 158.077 493.813 157.569C494.667 156.862 495.778 156.955 496.488 157.329L496.519 157.303C496.3 156.705 496.526 156.089 496.992 155.418C497.564 154.595 498.254 153.675 498.406 153.338L499.752 154.81C499.66 155.068 499.255 155.673 498.602 156.541C497.925 157.4 497.944 157.865 498.47 158.456L498.869 158.892L501.497 156.717L502.802 158.143L496.202 163.604L496.194 163.603ZM497.766 159.797L497.247 159.229C496.59 158.512 495.824 158.403 495.24 158.886C494.625 159.395 494.68 160.049 495.275 160.715C495.593 161.063 495.806 161.237 495.918 161.326L497.762 159.8L497.766 159.797Z" fill="#11A64B"/>
<path d="M491.075 158.006C490.572 157.606 489.881 156.969 489.183 156.206C488.318 155.261 487.863 154.479 487.829 153.714C487.802 153.073 488.079 152.48 488.693 151.971C489.548 151.264 490.659 151.357 491.369 151.731L491.4 151.706C491.181 151.107 491.406 150.491 491.873 149.821C492.445 148.998 493.135 148.077 493.286 147.741L494.633 149.212C494.54 149.471 494.136 150.075 493.483 150.943C492.806 151.802 492.825 152.267 493.351 152.859L493.749 153.294L496.378 151.119L497.683 152.545L491.083 158.006L491.075 158.006ZM492.647 154.199L492.127 153.631C491.471 152.914 490.705 152.805 490.121 153.288C489.506 153.797 489.561 154.451 490.155 155.117C490.474 155.466 490.687 155.639 490.799 155.728L492.643 154.203L492.647 154.199Z" fill="#11A64B"/>
<path d="M491.372 145.654L488.634 147.919L486.525 153.198L485.023 151.556L486.036 149.574C486.342 148.971 486.578 148.543 486.87 148.025L486.851 148.004C486.303 148.209 485.779 148.373 485.129 148.584L482.933 149.272L481.457 147.66L487.274 146.525L490.064 144.216L491.376 145.65L491.372 145.654Z" fill="#11A64B"/>
<path d="M477.761 143.626L481.61 140.441C482.761 139.489 482.965 138.591 482.29 137.853C481.615 137.115 480.667 137.142 479.486 138.12L475.637 141.305L474.324 139.871L478.077 136.765C480.144 135.055 482.031 135.234 483.552 136.896C485.073 138.559 484.952 140.218 482.82 141.982L479.089 145.069L477.769 143.627L477.761 143.626Z" fill="#11A64B"/>
<path d="M473.283 138.554C472.798 138.175 472.168 137.604 471.364 136.725C470.56 135.846 470.151 135.056 470.121 134.337C470.085 133.653 470.393 132.918 471.047 132.377C471.7 131.836 472.448 131.581 473.168 131.648C474.104 131.734 474.989 132.283 475.767 133.133C475.942 133.323 476.088 133.5 476.184 133.647L478.577 131.667L479.882 133.092L473.283 138.554ZM475.016 134.614C474.933 134.464 474.805 134.308 474.615 134.1C473.917 133.338 473.079 133.2 472.395 133.767C471.78 134.275 471.786 134.985 472.442 135.702C472.711 135.996 472.92 136.166 473.046 136.244L475.02 134.61L475.016 134.614Z" fill="#11A64B"/>
<path d="M472.57 129.32L468.273 133.255L466.9 131.754L471.584 128.242L472.57 129.32ZM474.254 128.473C473.726 128.91 473.033 128.872 472.574 128.37C472.115 127.868 472.194 127.227 472.706 126.782C473.22 126.356 473.912 126.367 474.378 126.877C474.845 127.386 474.768 128.047 474.254 128.473Z" fill="#11A64B"/>
<path d="M511.6 123.491L511.76 123.85L510.352 125.037L510.001 124.839L511.6 123.491ZM499.823 118.417L504.509 121.246L504.509 121.247C506.081 122.198 507.534 123.1 508.995 124.173L509.571 124.596L499.338 118.826L499.823 118.417ZM506.748 112.585L510.742 121.564C510.024 120.318 509.36 119.049 508.742 117.786L508.74 117.786L506.359 112.913L506.748 112.585Z" fill="#109D47" stroke="#0E9C45" stroke-width="2.85296"/>
<path d="M512.489 108.297C512.375 108.813 512.359 109.349 512.433 109.889C512.628 111.291 513.417 112.661 514.518 113.842C515.641 115.047 516.991 115.929 518.437 116.247C519.165 116.407 519.9 116.417 520.604 116.267C519.79 116.568 518.965 116.653 518.166 116.561C516.739 116.396 515.272 115.65 514.043 114.331C512.748 112.942 512.143 111.404 512.16 109.983C512.167 109.415 512.274 108.848 512.489 108.297ZM516.132 104.891C516.917 104.623 517.713 104.55 518.484 104.637C519.856 104.793 521.238 105.466 522.379 106.609L522.562 106.805C524.007 108.356 524.579 109.91 524.53 111.283C524.508 111.892 524.361 112.499 524.083 113.091C524.241 112.512 524.274 111.904 524.191 111.293C524 109.894 523.224 108.516 522.116 107.327C521.074 106.21 519.754 105.328 518.326 104.975C517.605 104.797 516.859 104.758 516.132 104.891Z" fill="#109D47" stroke="#0E9C45" stroke-width="2.85296"/>
<path d="M522.842 99.0147L527.645 104.167C528.608 105.199 529.694 105.978 530.897 106.245C531.558 106.391 532.195 106.369 532.789 106.205C532.065 106.566 531.409 106.677 530.802 106.612C529.797 106.506 528.561 105.884 527.081 104.297L522.458 99.3381L522.842 99.0147ZM529.526 93.3792L534.181 98.3716C535.574 99.8669 536.042 101.128 536.005 102.146C535.988 102.611 535.86 103.087 535.604 103.573C535.735 103.154 535.788 102.703 535.743 102.224C535.63 101.041 534.948 99.9054 533.959 98.8444L529.155 93.6919L529.526 93.3792Z" fill="#109D47" stroke="#0E9C45" stroke-width="2.85296"/>
<path d="M545.598 95.5396C544.195 96.4777 542.861 96.8015 541.682 96.7234C540.249 96.6284 538.83 95.9274 537.604 94.6122C536.141 93.0428 535.659 91.4162 535.824 89.9305C535.927 89.0091 536.286 88.0873 536.888 87.2227C536.489 87.8982 536.231 88.6428 536.162 89.4418C536.025 91.0302 536.654 92.6172 537.983 94.043C539.18 95.3275 540.669 96.1497 542.322 96.2672C543.462 96.3482 544.571 96.0859 545.598 95.5396Z" fill="#109D47" stroke="#0E9C45" stroke-width="2.85296"/>
<path d="M544.307 80.9211L548.163 85.0574L554.559 79.6654L550.703 75.5291L551.074 75.2164L559.159 83.8892L558.788 84.2019L554.59 79.699L548.195 85.091L552.392 89.5939L552.004 89.9211L543.919 81.2482L544.307 80.9211Z" fill="#109D47" stroke="#0E9C45" stroke-width="2.85296"/>
<path d="M555.876 71.1691L563.961 79.8419L563.573 80.1691L555.488 71.4963L555.876 71.1691Z" fill="#109D47" stroke="#0E9C45" stroke-width="2.85296"/>
<path d="M574.332 65.6952C574.695 65.5728 575.19 65.599 576.047 66.0606L576.437 66.2858C577.152 66.7262 577.83 67.1614 578.512 67.5874L578.13 67.9096C578.08 67.8805 578.026 67.8503 577.971 67.8177C577.724 67.6713 577.44 67.4964 577.12 67.2935L576.056 66.6013C575.506 66.219 574.931 65.8882 574.322 65.6986L574.332 65.6952ZM569.252 68.4156L569.257 68.4118L572.9 72.3194L572.547 72.617L564.473 63.9571C564.576 63.8522 564.684 63.7447 564.795 63.6347L569.252 68.4156ZM572.967 65.5412C572.714 65.5635 572.476 65.615 572.251 65.688C572.379 65.5106 572.492 65.3261 572.589 65.1353L572.967 65.5412ZM569.196 60.2656C569.524 60.1333 569.822 60.0578 570.097 60.0262L570.263 60.0126C570.906 59.9837 571.56 60.2058 572.224 60.9175C572.707 61.4359 572.868 62.0774 572.812 62.6767C572.662 62.2217 572.405 61.7963 572.054 61.4204C571.351 60.6667 570.422 60.2106 569.35 60.2554C569.298 60.2576 569.247 60.2612 569.196 60.2656Z" fill="#109D47" stroke="#0E9C45" stroke-width="2.85296"/>
<mask id="path-22-outside-1_42_84" maskUnits="userSpaceOnUse" x="515.422" y="68.5776" width="86.6075" height="88.9248" fill="black">
<rect fill="white" x="515.422" y="68.5776" width="86.6075" height="88.9248"/>
<path d="M519.229 131.6L525.748 126.054C527.191 124.827 528.528 123.981 529.76 123.517C530.995 123.023 532.122 122.809 533.142 122.876C534.147 122.928 535.05 123.183 535.85 123.642C536.635 124.084 537.31 124.606 537.874 125.208C538.926 126.33 539.595 127.456 539.882 128.586C540.169 129.715 540.049 130.971 539.523 132.354L550.186 136.567L546.038 140.096L536.82 136.189L533.212 139.257L539.339 145.795L535.552 149.017L519.229 131.6ZM533.366 133.69C533.968 133.178 534.412 132.698 534.701 132.248C534.974 131.782 535.123 131.348 535.148 130.946C535.175 130.514 535.087 130.107 534.883 129.725C534.68 129.343 534.403 128.965 534.052 128.591C533.762 128.282 533.437 128.033 533.074 127.844C532.697 127.639 532.281 127.541 531.825 127.548C531.371 127.525 530.867 127.647 530.314 127.913C529.763 128.148 529.152 128.551 528.482 129.12L525.829 131.378L530.378 136.232L533.366 133.69Z"/>
<path d="M550.908 128.675C551.729 129.321 552.504 129.538 553.233 129.328C553.962 129.117 554.687 128.705 555.408 128.091C556.267 127.361 556.785 126.744 556.963 126.242C557.143 125.709 557.019 125.215 556.593 124.76C556.288 124.435 555.901 124.252 555.432 124.213C554.98 124.159 554.382 124.361 553.638 124.818L551.508 126.104C549.648 127.248 548.04 127.871 546.684 127.972C545.33 128.043 544.089 127.476 542.961 126.273C542.382 125.655 542.001 124.985 541.819 124.263C541.654 123.527 541.669 122.769 541.864 121.989C542.059 121.209 542.425 120.43 542.962 119.652C543.5 118.843 544.199 118.074 545.058 117.343C546.123 116.437 547.115 115.783 548.035 115.381C548.939 114.962 549.774 114.734 550.541 114.695C551.325 114.642 552.049 114.756 552.715 115.038C553.397 115.305 554.041 115.663 554.647 116.112L551.792 119.242C551.089 118.788 550.41 118.591 549.756 118.651C549.119 118.696 548.371 119.084 547.513 119.814C547.032 120.223 546.666 120.607 546.416 120.966C546.168 121.294 546.003 121.596 545.92 121.87C545.855 122.13 545.848 122.37 545.9 122.589C545.968 122.794 546.063 122.962 546.185 123.092C546.566 123.498 546.977 123.69 547.417 123.666C547.86 123.611 548.529 123.319 549.423 122.792L551.375 121.614C552.457 120.956 553.414 120.479 554.246 120.18C555.077 119.882 555.834 119.75 556.514 119.785C557.197 119.788 557.821 119.96 558.385 120.298C558.966 120.622 559.539 121.085 560.102 121.686C561.23 122.89 561.656 124.267 561.38 125.817C561.089 127.35 559.938 128.972 557.929 130.682C557.121 131.369 556.28 131.953 555.404 132.435C554.561 132.919 553.687 133.238 552.783 133.393C551.896 133.534 550.997 133.48 550.086 133.233C549.192 132.97 548.315 132.43 547.456 131.612L550.908 128.675Z"/>
<path d="M562.001 119.457L565.685 116.323L569.366 120.251L565.682 123.385L562.001 119.457Z"/>
<path d="M565.628 100.316L564.001 105.251L560.049 104.097L562.543 95.8379L565.609 93.2296L581.405 110.086L577.721 113.22L565.628 100.316Z"/>
<path d="M593.869 100.272C591.739 102.084 589.411 102.778 586.885 102.355C584.376 101.918 581.689 100.17 578.823 97.1129C577.391 95.5842 576.311 94.1355 575.584 92.7666C574.859 91.3668 574.445 90.0526 574.343 88.824C574.259 87.5808 574.477 86.4304 574.999 85.3729C575.505 84.2991 576.282 83.3165 577.33 82.4252C579.46 80.6133 581.787 79.9342 584.311 80.3879C586.838 80.8108 589.526 82.5428 592.376 85.5839C595.241 88.6413 596.743 91.3969 596.882 93.8509C597.038 96.2903 596.033 98.4305 593.869 100.272ZM591.106 97.2737C591.673 96.7915 592.023 96.2595 592.157 95.6778C592.293 95.0653 592.245 94.4047 592.013 93.696C591.766 92.971 591.359 92.2069 590.791 91.4037C590.208 90.5842 589.483 89.7109 588.614 88.784C587.745 87.857 586.924 87.0796 586.15 86.4517C585.362 85.8075 584.611 85.3357 583.898 85.0361C583.17 84.7203 582.486 84.6003 581.847 84.6762C581.21 84.7212 580.608 84.9848 580.041 85.467C579.475 85.9492 579.132 86.4893 579.013 87.0872C578.879 87.6689 578.936 88.3222 579.183 89.0472C579.432 89.7413 579.848 90.4981 580.431 91.3176C580.998 92.1208 581.716 92.9859 582.585 93.9129C583.454 94.8398 584.283 95.6254 585.071 96.2695C585.845 96.8974 586.587 97.3766 587.298 97.707C588.011 98.0066 588.686 98.1339 589.323 98.0889C589.945 98.0276 590.539 97.7559 591.106 97.2737Z"/>
</mask>
<path d="M519.229 131.6L525.748 126.054C527.191 124.827 528.528 123.981 529.76 123.517C530.995 123.023 532.122 122.809 533.142 122.876C534.147 122.928 535.05 123.183 535.85 123.642C536.635 124.084 537.31 124.606 537.874 125.208C538.926 126.33 539.595 127.456 539.882 128.586C540.169 129.715 540.049 130.971 539.523 132.354L550.186 136.567L546.038 140.096L536.82 136.189L533.212 139.257L539.339 145.795L535.552 149.017L519.229 131.6ZM533.366 133.69C533.968 133.178 534.412 132.698 534.701 132.248C534.974 131.782 535.123 131.348 535.148 130.946C535.175 130.514 535.087 130.107 534.883 129.725C534.68 129.343 534.403 128.965 534.052 128.591C533.762 128.282 533.437 128.033 533.074 127.844C532.697 127.639 532.281 127.541 531.825 127.548C531.371 127.525 530.867 127.647 530.314 127.913C529.763 128.148 529.152 128.551 528.482 129.12L525.829 131.378L530.378 136.232L533.366 133.69Z" fill="#109D47"/>
<path d="M550.908 128.675C551.729 129.321 552.504 129.538 553.233 129.328C553.962 129.117 554.687 128.705 555.408 128.091C556.267 127.361 556.785 126.744 556.963 126.242C557.143 125.709 557.019 125.215 556.593 124.76C556.288 124.435 555.901 124.252 555.432 124.213C554.98 124.159 554.382 124.361 553.638 124.818L551.508 126.104C549.648 127.248 548.04 127.871 546.684 127.972C545.33 128.043 544.089 127.476 542.961 126.273C542.382 125.655 542.001 124.985 541.819 124.263C541.654 123.527 541.669 122.769 541.864 121.989C542.059 121.209 542.425 120.43 542.962 119.652C543.5 118.843 544.199 118.074 545.058 117.343C546.123 116.437 547.115 115.783 548.035 115.381C548.939 114.962 549.774 114.734 550.541 114.695C551.325 114.642 552.049 114.756 552.715 115.038C553.397 115.305 554.041 115.663 554.647 116.112L551.792 119.242C551.089 118.788 550.41 118.591 549.756 118.651C549.119 118.696 548.371 119.084 547.513 119.814C547.032 120.223 546.666 120.607 546.416 120.966C546.168 121.294 546.003 121.596 545.92 121.87C545.855 122.13 545.848 122.37 545.9 122.589C545.968 122.794 546.063 122.962 546.185 123.092C546.566 123.498 546.977 123.69 547.417 123.666C547.86 123.611 548.529 123.319 549.423 122.792L551.375 121.614C552.457 120.956 553.414 120.479 554.246 120.18C555.077 119.882 555.834 119.75 556.514 119.785C557.197 119.788 557.821 119.96 558.385 120.298C558.966 120.622 559.539 121.085 560.102 121.686C561.23 122.89 561.656 124.267 561.38 125.817C561.089 127.35 559.938 128.972 557.929 130.682C557.121 131.369 556.28 131.953 555.404 132.435C554.561 132.919 553.687 133.238 552.783 133.393C551.896 133.534 550.997 133.48 550.086 133.233C549.192 132.97 548.315 132.43 547.456 131.612L550.908 128.675Z" fill="#109D47"/>
<path d="M562.001 119.457L565.685 116.323L569.366 120.251L565.682 123.385L562.001 119.457Z" fill="#109D47"/>
<path d="M565.628 100.316L564.001 105.251L560.049 104.097L562.543 95.8379L565.609 93.2296L581.405 110.086L577.721 113.22L565.628 100.316Z" fill="#109D47"/>
<path d="M593.869 100.272C591.739 102.084 589.411 102.778 586.885 102.355C584.376 101.918 581.689 100.17 578.823 97.1129C577.391 95.5842 576.311 94.1355 575.584 92.7666C574.859 91.3668 574.445 90.0526 574.343 88.824C574.259 87.5808 574.477 86.4304 574.999 85.3729C575.505 84.2991 576.282 83.3165 577.33 82.4252C579.46 80.6133 581.787 79.9342 584.311 80.3879C586.838 80.8108 589.526 82.5428 592.376 85.5839C595.241 88.6413 596.743 91.3969 596.882 93.8509C597.038 96.2903 596.033 98.4305 593.869 100.272ZM591.106 97.2737C591.673 96.7915 592.023 96.2595 592.157 95.6778C592.293 95.0653 592.245 94.4047 592.013 93.696C591.766 92.971 591.359 92.2069 590.791 91.4037C590.208 90.5842 589.483 89.7109 588.614 88.784C587.745 87.857 586.924 87.0796 586.15 86.4517C585.362 85.8075 584.611 85.3357 583.898 85.0361C583.17 84.7203 582.486 84.6003 581.847 84.6762C581.21 84.7212 580.608 84.9848 580.041 85.467C579.475 85.9492 579.132 86.4893 579.013 87.0872C578.879 87.6689 578.936 88.3222 579.183 89.0472C579.432 89.7413 579.848 90.4981 580.431 91.3176C580.998 92.1208 581.716 92.9859 582.585 93.9129C583.454 94.8398 584.283 95.6254 585.071 96.2695C585.845 96.8974 586.587 97.3766 587.298 97.707C588.011 98.0066 588.686 98.1339 589.323 98.0889C589.945 98.0276 590.539 97.7559 591.106 97.2737Z" fill="#109D47"/>
<path d="M519.229 131.6L525.748 126.054C527.191 124.827 528.528 123.981 529.76 123.517C530.995 123.023 532.122 122.809 533.142 122.876C534.147 122.928 535.05 123.183 535.85 123.642C536.635 124.084 537.31 124.606 537.874 125.208C538.926 126.33 539.595 127.456 539.882 128.586C540.169 129.715 540.049 130.971 539.523 132.354L550.186 136.567L546.038 140.096L536.82 136.189L533.212 139.257L539.339 145.795L535.552 149.017L519.229 131.6ZM533.366 133.69C533.968 133.178 534.412 132.698 534.701 132.248C534.974 131.782 535.123 131.348 535.148 130.946C535.175 130.514 535.087 130.107 534.883 129.725C534.68 129.343 534.403 128.965 534.052 128.591C533.762 128.282 533.437 128.033 533.074 127.844C532.697 127.639 532.281 127.541 531.825 127.548C531.371 127.525 530.867 127.647 530.314 127.913C529.763 128.148 529.152 128.551 528.482 129.12L525.829 131.378L530.378 136.232L533.366 133.69Z" stroke="#0E9C45" stroke-width="0.570592" mask="url(#path-22-outside-1_42_84)"/>
<path d="M550.908 128.675C551.729 129.321 552.504 129.538 553.233 129.328C553.962 129.117 554.687 128.705 555.408 128.091C556.267 127.361 556.785 126.744 556.963 126.242C557.143 125.709 557.019 125.215 556.593 124.76C556.288 124.435 555.901 124.252 555.432 124.213C554.98 124.159 554.382 124.361 553.638 124.818L551.508 126.104C549.648 127.248 548.04 127.871 546.684 127.972C545.33 128.043 544.089 127.476 542.961 126.273C542.382 125.655 542.001 124.985 541.819 124.263C541.654 123.527 541.669 122.769 541.864 121.989C542.059 121.209 542.425 120.43 542.962 119.652C543.5 118.843 544.199 118.074 545.058 117.343C546.123 116.437 547.115 115.783 548.035 115.381C548.939 114.962 549.774 114.734 550.541 114.695C551.325 114.642 552.049 114.756 552.715 115.038C553.397 115.305 554.041 115.663 554.647 116.112L551.792 119.242C551.089 118.788 550.41 118.591 549.756 118.651C549.119 118.696 548.371 119.084 547.513 119.814C547.032 120.223 546.666 120.607 546.416 120.966C546.168 121.294 546.003 121.596 545.92 121.87C545.855 122.13 545.848 122.37 545.9 122.589C545.968 122.794 546.063 122.962 546.185 123.092C546.566 123.498 546.977 123.69 547.417 123.666C547.86 123.611 548.529 123.319 549.423 122.792L551.375 121.614C552.457 120.956 553.414 120.479 554.246 120.18C555.077 119.882 555.834 119.75 556.514 119.785C557.197 119.788 557.821 119.96 558.385 120.298C558.966 120.622 559.539 121.085 560.102 121.686C561.23 122.89 561.656 124.267 561.38 125.817C561.089 127.35 559.938 128.972 557.929 130.682C557.121 131.369 556.28 131.953 555.404 132.435C554.561 132.919 553.687 133.238 552.783 133.393C551.896 133.534 550.997 133.48 550.086 133.233C549.192 132.97 548.315 132.43 547.456 131.612L550.908 128.675Z" stroke="#0E9C45" stroke-width="0.570592" mask="url(#path-22-outside-1_42_84)"/>
<path d="M562.001 119.457L565.685 116.323L569.366 120.251L565.682 123.385L562.001 119.457Z" stroke="#0E9C45" stroke-width="0.570592" mask="url(#path-22-outside-1_42_84)"/>
<path d="M565.628 100.316L564.001 105.251L560.049 104.097L562.543 95.8379L565.609 93.2296L581.405 110.086L577.721 113.22L565.628 100.316Z" stroke="#0E9C45" stroke-width="0.570592" mask="url(#path-22-outside-1_42_84)"/>
<path d="M593.869 100.272C591.739 102.084 589.411 102.778 586.885 102.355C584.376 101.918 581.689 100.17 578.823 97.1129C577.391 95.5842 576.311 94.1355 575.584 92.7666C574.859 91.3668 574.445 90.0526 574.343 88.824C574.259 87.5808 574.477 86.4304 574.999 85.3729C575.505 84.2991 576.282 83.3165 577.33 82.4252C579.46 80.6133 581.787 79.9342 584.311 80.3879C586.838 80.8108 589.526 82.5428 592.376 85.5839C595.241 88.6413 596.743 91.3969 596.882 93.8509C597.038 96.2903 596.033 98.4305 593.869 100.272ZM591.106 97.2737C591.673 96.7915 592.023 96.2595 592.157 95.6778C592.293 95.0653 592.245 94.4047 592.013 93.696C591.766 92.971 591.359 92.2069 590.791 91.4037C590.208 90.5842 589.483 89.7109 588.614 88.784C587.745 87.857 586.924 87.0796 586.15 86.4517C585.362 85.8075 584.611 85.3357 583.898 85.0361C583.17 84.7203 582.486 84.6003 581.847 84.6762C581.21 84.7212 580.608 84.9848 580.041 85.467C579.475 85.9492 579.132 86.4893 579.013 87.0872C578.879 87.6689 578.936 88.3222 579.183 89.0472C579.432 89.7413 579.848 90.4981 580.431 91.3176C580.998 92.1208 581.716 92.9859 582.585 93.9129C583.454 94.8398 584.283 95.6254 585.071 96.2695C585.845 96.8974 586.587 97.3766 587.298 97.707C588.011 98.0066 588.686 98.1339 589.323 98.0889C589.945 98.0276 590.539 97.7559 591.106 97.2737Z" stroke="#0E9C45" stroke-width="0.570592" mask="url(#path-22-outside-1_42_84)"/>
<path d="M527.153 139.499L527.427 139.79L521.926 144.47L521.652 144.179L527.153 139.499Z" fill="#109D47" stroke="#0E9C45" stroke-width="2.85296"/>
<g style="mix-blend-mode:multiply">
<path d="M605.392 116.089H466.558L459.064 122.157H597.906L605.392 116.089Z" fill="#AAA9A9"/>
</g>
<path d="M635.837 139.941H636.981V135.556C628.724 135.556 622.657 129.193 622.657 121.341H452.223C452.223 129.193 446.156 135.556 437.898 135.556V139.941H439.043C440.481 139.941 441.643 141.046 441.643 142.414C441.643 143.782 440.481 144.887 439.043 144.887H437.898V149.239H439.043C440.481 149.239 441.643 150.343 441.643 151.712C441.643 153.08 440.481 154.184 439.043 154.184H437.898V159.031C441.175 159.031 443.827 161.553 443.827 164.669C443.827 167.785 441.175 170.307 437.898 170.307V175.252H439.043C440.481 175.252 441.643 176.357 441.643 177.725C441.643 179.093 440.481 180.198 439.043 180.198H437.898V184.55H439.043C440.481 184.55 441.643 185.654 441.643 187.023C441.643 188.391 440.481 189.495 439.043 189.495H437.898V193.782C446.156 193.782 452.223 200.145 452.223 207.997H622.662C622.662 200.145 628.73 193.782 636.987 193.782V189.495H635.843C634.404 189.495 633.243 188.391 633.243 187.023C633.243 185.654 634.404 184.55 635.843 184.55H636.987V180.198H635.843C634.404 180.198 633.243 179.093 633.243 177.725C633.243 176.357 634.404 175.252 635.843 175.252H636.987V170.307C633.711 170.307 631.058 167.785 631.058 164.669C631.058 161.553 633.711 159.031 636.987 159.031V154.184H635.843C634.404 154.184 634.404 149.239 635.843 149.239H636.987V144.887H635.843C634.404 144.887 633.243 143.782 633.243 142.414C633.243 141.046 634.404 139.941 635.843 139.941H635.837Z" fill="#FFE200"/>
<path d="M608.899 127.873H465.971C461.596 127.873 458.049 131.246 458.049 135.406V193.929C458.049 198.089 461.596 201.462 465.971 201.462H608.899C613.275 201.462 616.822 198.089 616.822 193.929V135.406C616.822 131.246 613.275 127.873 608.899 127.873Z" fill="white"/>
<path d="M516.079 157.107L511.231 142.727H514.975L516.813 148.81C517.327 150.519 517.801 152.162 518.159 153.953H518.228C518.61 152.222 519.084 150.519 519.598 148.876L521.528 142.732H525.162L520.066 157.113H516.073L516.079 157.107Z" fill="#11A64B"/>
<path d="M540.445 149.771C540.445 154.485 537.44 157.348 533.02 157.348C528.599 157.348 525.906 154.128 525.906 150.029C525.906 145.721 528.801 142.495 533.268 142.495C537.735 142.495 540.451 145.803 540.451 149.771H540.445ZM529.518 149.963C529.518 152.782 530.91 154.766 533.199 154.766C535.487 154.766 536.833 152.672 536.833 149.881C536.833 147.298 535.533 145.078 533.176 145.078C530.818 145.078 529.518 147.172 529.518 149.963Z" fill="#11A64B"/>
<path d="M546.095 142.727V151.008C546.095 153.48 547.083 154.744 548.834 154.744C550.584 154.744 551.619 153.552 551.619 151.008V142.727H555.028V150.793C555.028 155.233 552.67 157.343 548.724 157.343C544.777 157.343 542.668 155.338 542.668 150.749V142.727H546.1H546.095Z" fill="#11A64B"/>
<path d="M569.098 156.705C568.468 157.002 567.059 157.326 565.215 157.326C559.986 157.326 557.293 154.233 557.293 150.133C557.293 145.226 560.974 142.495 565.55 142.495C567.324 142.495 568.671 142.836 569.277 143.138L568.584 145.721C567.891 145.446 566.926 145.188 565.712 145.188C562.996 145.188 560.887 146.743 560.887 149.947C560.887 152.826 562.684 154.639 565.735 154.639C566.77 154.639 567.914 154.425 568.584 154.172L569.098 156.711V156.705Z" fill="#11A64B"/>
<path d="M574.776 142.727V148.255H580.41V142.727H583.819V157.107H580.41V151.09H574.776V157.107H571.344V142.727H574.776Z" fill="#11A64B"/>
<path d="M595.796 151.03H590.231V154.442H596.449V157.107H586.799V142.727H596.131V145.392H590.231V148.381H595.796V151.03Z" fill="#11A64B"/>
<path d="M598.774 142.921C599.871 142.751 601.513 142.624 603.327 142.624C605.569 142.624 607.141 142.943 608.221 143.756C609.117 144.438 609.614 145.443 609.614 146.767C609.614 148.603 608.244 149.861 606.944 150.312V150.378C608.002 150.784 608.579 151.746 608.967 153.065C609.44 154.686 609.909 156.565 610.203 157.12H606.702C606.453 156.713 606.095 155.543 605.644 153.768C605.24 151.977 604.587 151.482 603.2 151.466H602.165V157.12H598.779V142.932L598.774 142.921ZM602.16 149.108H603.506C605.211 149.108 606.222 148.295 606.222 147.037C606.222 145.712 605.28 145.053 603.708 145.031C602.876 145.031 602.408 145.097 602.16 145.135V149.103V149.108Z" fill="#11A64B"/>
<mask id="path-34-outside-2_42_84" maskUnits="userSpaceOnUse" x="511.951" y="154.652" width="95.9944" height="49.8345" fill="black">
<rect fill="white" x="511.951" y="154.652" width="95.9944" height="49.8345"/>
<path d="M516.818 168.262L525.688 168.225C527.652 168.216 529.265 168.43 530.529 168.867C531.815 169.281 532.822 169.84 533.548 170.544C534.275 171.226 534.779 171.997 535.062 172.857C535.345 173.695 535.487 174.523 535.49 175.341C535.494 176.865 535.205 178.148 534.624 179.189C534.042 180.229 533.063 181.106 531.686 181.819L536.797 191.838L531.152 191.863L526.921 182.999L522.013 183.02L522.037 191.901L516.883 191.923L516.818 168.262ZM526.068 178.894C526.886 178.89 527.564 178.81 528.101 178.653C528.638 178.474 529.058 178.24 529.361 177.952C529.688 177.641 529.909 177.276 530.024 176.855C530.14 176.435 530.197 175.971 530.196 175.463C530.195 175.043 530.124 174.646 529.982 174.271C529.841 173.874 529.595 173.532 529.243 173.247C528.915 172.939 528.447 172.709 527.839 172.557C527.254 172.382 526.506 172.297 525.594 172.301L521.983 172.316L522.001 178.911L526.068 178.894Z"/>
<path d="M542.929 186.311C543.095 187.327 543.529 187.988 544.231 188.294C544.933 188.6 545.775 188.751 546.757 188.747C547.925 188.742 548.755 188.606 549.245 188.339C549.758 188.049 550.014 187.595 550.012 186.977C550.011 186.535 549.847 186.149 549.518 185.819C549.214 185.489 548.617 185.26 547.728 185.131L545.203 184.744C542.982 184.422 541.321 183.866 540.22 183.075C539.143 182.262 538.602 181.038 538.597 179.404C538.595 178.564 538.78 177.812 539.152 177.148C539.548 176.483 540.095 175.918 540.795 175.451C541.495 174.984 542.324 174.627 543.282 174.38C544.263 174.11 545.337 173.973 546.506 173.968C547.955 173.962 549.171 174.1 550.153 174.383C551.136 174.644 551.931 175.006 552.54 175.467C553.173 175.928 553.642 176.478 553.947 177.118C554.276 177.757 554.512 178.441 554.654 179.169L550.273 179.718C550.061 178.924 549.685 178.34 549.146 177.967C548.631 177.593 547.789 177.409 546.621 177.414C545.966 177.417 545.417 177.475 544.973 177.587C544.553 177.677 544.214 177.8 543.957 177.956C543.724 178.111 543.549 178.289 543.433 178.488C543.34 178.687 543.294 178.875 543.294 179.052C543.296 179.604 543.472 180.012 543.824 180.276C544.198 180.517 544.912 180.724 545.964 180.897L548.279 181.251C549.565 181.445 550.629 181.694 551.471 182C552.314 182.306 552.981 182.689 553.473 183.151C553.988 183.591 554.34 184.12 554.529 184.737C554.741 185.355 554.848 186.073 554.85 186.89C554.855 188.525 554.204 189.842 552.898 190.842C551.592 191.82 549.571 192.314 546.837 192.326C545.738 192.331 544.686 192.236 543.68 192.041C542.698 191.868 541.809 191.552 541.013 191.091C540.241 190.631 539.596 190.015 539.08 189.244C538.587 188.473 538.304 187.502 538.231 186.331L542.929 186.311Z"/>
<path d="M557.868 186.413L562.882 186.392L562.896 191.727L557.883 191.748L557.868 186.413Z"/>
<path d="M574.163 174.207L569.437 176.911L567.254 173.507L574.99 168.835L579.162 168.817L579.224 191.716L574.211 191.737L574.163 174.207Z"/>
<path d="M595.627 192.242C592.728 192.255 590.47 191.292 588.852 189.355C587.257 187.418 586.454 184.372 586.443 180.219C586.437 178.142 586.643 176.352 587.06 174.848C587.499 173.321 588.115 172.06 588.907 171.062C589.723 170.064 590.702 169.331 591.846 168.862C592.99 168.371 594.275 168.123 595.701 168.117C598.599 168.104 600.846 169.078 602.44 171.037C604.059 172.975 604.873 176.009 604.884 180.14C604.896 184.294 604.086 187.346 602.455 189.297C600.848 191.248 598.572 192.23 595.627 192.242ZM595.651 188.199C596.422 188.196 597.064 188.016 597.577 187.661C598.114 187.283 598.545 186.751 598.87 186.065C599.196 185.356 599.427 184.516 599.565 183.543C599.702 182.548 599.769 181.421 599.766 180.162C599.762 178.903 599.689 177.787 599.546 176.816C599.403 175.822 599.167 174.984 598.838 174.3C598.509 173.595 598.075 173.066 597.537 172.715C597.021 172.342 596.378 172.157 595.607 172.16C594.836 172.163 594.193 172.354 593.68 172.732C593.167 173.087 592.748 173.619 592.422 174.328C592.12 175.014 591.901 175.854 591.763 176.849C591.625 177.822 591.558 178.938 591.562 180.197C591.565 181.456 591.638 182.583 591.781 183.576C591.924 184.548 592.149 185.386 592.454 186.092C592.783 186.775 593.206 187.304 593.721 187.677C594.236 188.029 594.879 188.203 595.651 188.199Z"/>
</mask>
<path d="M516.818 168.262L525.688 168.225C527.652 168.216 529.265 168.43 530.529 168.867C531.815 169.281 532.822 169.84 533.548 170.544C534.275 171.226 534.779 171.997 535.062 172.857C535.345 173.695 535.487 174.523 535.49 175.341C535.494 176.865 535.205 178.148 534.624 179.189C534.042 180.229 533.063 181.106 531.686 181.819L536.797 191.838L531.152 191.863L526.921 182.999L522.013 183.02L522.037 191.901L516.883 191.923L516.818 168.262ZM526.068 178.894C526.886 178.89 527.564 178.81 528.101 178.653C528.638 178.474 529.058 178.24 529.361 177.952C529.688 177.641 529.909 177.276 530.024 176.855C530.14 176.435 530.197 175.971 530.196 175.463C530.195 175.043 530.124 174.646 529.982 174.271C529.841 173.874 529.595 173.532 529.243 173.247C528.915 172.939 528.447 172.709 527.839 172.557C527.254 172.382 526.506 172.297 525.594 172.301L521.983 172.316L522.001 178.911L526.068 178.894Z" fill="#11A64B"/>
<path d="M542.929 186.311C543.095 187.327 543.529 187.988 544.231 188.294C544.933 188.6 545.775 188.751 546.757 188.747C547.925 188.742 548.755 188.606 549.245 188.339C549.758 188.049 550.014 187.595 550.012 186.977C550.011 186.535 549.847 186.149 549.518 185.819C549.214 185.489 548.617 185.26 547.728 185.131L545.203 184.744C542.982 184.422 541.321 183.866 540.22 183.075C539.143 182.262 538.602 181.038 538.597 179.404C538.595 178.564 538.78 177.812 539.152 177.148C539.548 176.483 540.095 175.918 540.795 175.451C541.495 174.984 542.324 174.627 543.282 174.38C544.263 174.11 545.337 173.973 546.506 173.968C547.955 173.962 549.171 174.1 550.153 174.383C551.136 174.644 551.931 175.006 552.54 175.467C553.173 175.928 553.642 176.478 553.947 177.118C554.276 177.757 554.512 178.441 554.654 179.169L550.273 179.718C550.061 178.924 549.685 178.34 549.146 177.967C548.631 177.593 547.789 177.409 546.621 177.414C545.966 177.417 545.417 177.475 544.973 177.587C544.553 177.677 544.214 177.8 543.957 177.956C543.724 178.111 543.549 178.289 543.433 178.488C543.34 178.687 543.294 178.875 543.294 179.052C543.296 179.604 543.472 180.012 543.824 180.276C544.198 180.517 544.912 180.724 545.964 180.897L548.279 181.251C549.565 181.445 550.629 181.694 551.471 182C552.314 182.306 552.981 182.689 553.473 183.151C553.988 183.591 554.34 184.12 554.529 184.737C554.741 185.355 554.848 186.073 554.85 186.89C554.855 188.525 554.204 189.842 552.898 190.842C551.592 191.82 549.571 192.314 546.837 192.326C545.738 192.331 544.686 192.236 543.68 192.041C542.698 191.868 541.809 191.552 541.013 191.091C540.241 190.631 539.596 190.015 539.08 189.244C538.587 188.473 538.304 187.502 538.231 186.331L542.929 186.311Z" fill="#11A64B"/>
<path d="M557.868 186.413L562.882 186.392L562.896 191.727L557.883 191.748L557.868 186.413Z" fill="#11A64B"/>
<path d="M574.163 174.207L569.437 176.911L567.254 173.507L574.99 168.835L579.162 168.817L579.224 191.716L574.211 191.737L574.163 174.207Z" fill="#11A64B"/>
<path d="M595.627 192.242C592.728 192.255 590.47 191.292 588.852 189.355C587.257 187.418 586.454 184.372 586.443 180.219C586.437 178.142 586.643 176.352 587.06 174.848C587.499 173.321 588.115 172.06 588.907 171.062C589.723 170.064 590.702 169.331 591.846 168.862C592.99 168.371 594.275 168.123 595.701 168.117C598.599 168.104 600.846 169.078 602.44 171.037C604.059 172.975 604.873 176.009 604.884 180.14C604.896 184.294 604.086 187.346 602.455 189.297C600.848 191.248 598.572 192.23 595.627 192.242ZM595.651 188.199C596.422 188.196 597.064 188.016 597.577 187.661C598.114 187.283 598.545 186.751 598.87 186.065C599.196 185.356 599.427 184.516 599.565 183.543C599.702 182.548 599.769 181.421 599.766 180.162C599.762 178.903 599.689 177.787 599.546 176.816C599.403 175.822 599.167 174.984 598.838 174.3C598.509 173.595 598.075 173.066 597.537 172.715C597.021 172.342 596.378 172.157 595.607 172.16C594.836 172.163 594.193 172.354 593.68 172.732C593.167 173.087 592.748 173.619 592.422 174.328C592.12 175.014 591.901 175.854 591.763 176.849C591.625 177.822 591.558 178.938 591.562 180.197C591.565 181.456 591.638 182.583 591.781 183.576C591.924 184.548 592.149 185.386 592.454 186.092C592.783 186.775 593.206 187.304 593.721 187.677C594.236 188.029 594.879 188.203 595.651 188.199Z" fill="#11A64B"/>
<path d="M516.818 168.262L525.688 168.225C527.652 168.216 529.265 168.43 530.529 168.867C531.815 169.281 532.822 169.84 533.548 170.544C534.275 171.226 534.779 171.997 535.062 172.857C535.345 173.695 535.487 174.523 535.49 175.341C535.494 176.865 535.205 178.148 534.624 179.189C534.042 180.229 533.063 181.106 531.686 181.819L536.797 191.838L531.152 191.863L526.921 182.999L522.013 183.02L522.037 191.901L516.883 191.923L516.818 168.262ZM526.068 178.894C526.886 178.89 527.564 178.81 528.101 178.653C528.638 178.474 529.058 178.24 529.361 177.952C529.688 177.641 529.909 177.276 530.024 176.855C530.14 176.435 530.197 175.971 530.196 175.463C530.195 175.043 530.124 174.646 529.982 174.271C529.841 173.874 529.595 173.532 529.243 173.247C528.915 172.939 528.447 172.709 527.839 172.557C527.254 172.382 526.506 172.297 525.594 172.301L521.983 172.316L522.001 178.911L526.068 178.894Z" stroke="#11A64B" stroke-width="0.570592" mask="url(#path-34-outside-2_42_84)"/>
<path d="M542.929 186.311C543.095 187.327 543.529 187.988 544.231 188.294C544.933 188.6 545.775 188.751 546.757 188.747C547.925 188.742 548.755 188.606 549.245 188.339C549.758 188.049 550.014 187.595 550.012 186.977C550.011 186.535 549.847 186.149 549.518 185.819C549.214 185.489 548.617 185.26 547.728 185.131L545.203 184.744C542.982 184.422 541.321 183.866 540.22 183.075C539.143 182.262 538.602 181.038 538.597 179.404C538.595 178.564 538.78 177.812 539.152 177.148C539.548 176.483 540.095 175.918 540.795 175.451C541.495 174.984 542.324 174.627 543.282 174.38C544.263 174.11 545.337 173.973 546.506 173.968C547.955 173.962 549.171 174.1 550.153 174.383C551.136 174.644 551.931 175.006 552.54 175.467C553.173 175.928 553.642 176.478 553.947 177.118C554.276 177.757 554.512 178.441 554.654 179.169L550.273 179.718C550.061 178.924 549.685 178.34 549.146 177.967C548.631 177.593 547.789 177.409 546.621 177.414C545.966 177.417 545.417 177.475 544.973 177.587C544.553 177.677 544.214 177.8 543.957 177.956C543.724 178.111 543.549 178.289 543.433 178.488C543.34 178.687 543.294 178.875 543.294 179.052C543.296 179.604 543.472 180.012 543.824 180.276C544.198 180.517 544.912 180.724 545.964 180.897L548.279 181.251C549.565 181.445 550.629 181.694 551.471 182C552.314 182.306 552.981 182.689 553.473 183.151C553.988 183.591 554.34 184.12 554.529 184.737C554.741 185.355 554.848 186.073 554.85 186.89C554.855 188.525 554.204 189.842 552.898 190.842C551.592 191.82 549.571 192.314 546.837 192.326C545.738 192.331 544.686 192.236 543.68 192.041C542.698 191.868 541.809 191.552 541.013 191.091C540.241 190.631 539.596 190.015 539.08 189.244C538.587 188.473 538.304 187.502 538.231 186.331L542.929 186.311Z" stroke="#11A64B" stroke-width="0.570592" mask="url(#path-34-outside-2_42_84)"/>
<path d="M557.868 186.413L562.882 186.392L562.896 191.727L557.883 191.748L557.868 186.413Z" stroke="#11A64B" stroke-width="0.570592" mask="url(#path-34-outside-2_42_84)"/>
<path d="M574.163 174.207L569.437 176.911L567.254 173.507L574.99 168.835L579.162 168.817L579.224 191.716L574.211 191.737L574.163 174.207Z" stroke="#11A64B" stroke-width="0.570592" mask="url(#path-34-outside-2_42_84)"/>
<path d="M595.627 192.242C592.728 192.255 590.47 191.292 588.852 189.355C587.257 187.418 586.454 184.372 586.443 180.219C586.437 178.142 586.643 176.352 587.06 174.848C587.499 173.321 588.115 172.06 588.907 171.062C589.723 170.064 590.702 169.331 591.846 168.862C592.99 168.371 594.275 168.123 595.701 168.117C598.599 168.104 600.846 169.078 602.44 171.037C604.059 172.975 604.873 176.009 604.884 180.14C604.896 184.294 604.086 187.346 602.455 189.297C600.848 191.248 598.572 192.23 595.627 192.242ZM595.651 188.199C596.422 188.196 597.064 188.016 597.577 187.661C598.114 187.283 598.545 186.751 598.87 186.065C599.196 185.356 599.427 184.516 599.565 183.543C599.702 182.548 599.769 181.421 599.766 180.162C599.762 178.903 599.689 177.787 599.546 176.816C599.403 175.822 599.167 174.984 598.838 174.3C598.509 173.595 598.075 173.066 597.537 172.715C597.021 172.342 596.378 172.157 595.607 172.16C594.836 172.163 594.193 172.354 593.68 172.732C593.167 173.087 592.748 173.619 592.422 174.328C592.12 175.014 591.901 175.854 591.763 176.849C591.625 177.822 591.558 178.938 591.562 180.197C591.565 181.456 591.638 182.583 591.781 183.576C591.924 184.548 592.149 185.386 592.454 186.092C592.783 186.775 593.206 187.304 593.721 187.677C594.236 188.029 594.879 188.203 595.651 188.199Z" stroke="#11A64B" stroke-width="0.570592" mask="url(#path-34-outside-2_42_84)"/>
<path d="M502.549 132.71H500.492V197.255H502.549V132.71Z" fill="#11A64B"/>
<path d="M487.586 152.345L484.648 152.342C483.924 152.342 483.563 152.607 483.562 153.273C483.561 153.539 483.606 153.849 483.651 154.027L487.946 154.031C488.081 154.031 488.217 154.164 488.217 154.297L488.216 155.317C488.215 155.451 488.08 155.583 487.944 155.583L482.926 155.578C482.745 155.578 482.61 155.445 482.565 155.312C482.34 154.646 482.205 153.981 482.206 153.271C482.207 151.675 483.067 150.789 484.65 150.79L487.995 150.793C488.13 150.794 488.266 150.927 488.266 151.06L488.265 151.681C488.264 152.08 487.948 152.346 487.586 152.345ZM485.827 148.352L486.234 148.397C486.777 148.397 487.094 148.043 487.094 147.466C487.095 147.023 486.959 146.623 486.734 146.18C486.734 146.135 486.689 146.091 486.689 146.046C486.689 145.958 486.734 145.913 486.779 145.869C486.825 145.825 486.96 145.736 486.96 145.736C487.096 145.648 487.277 145.559 487.413 145.559C487.639 145.559 487.864 145.693 487.955 145.87C488.225 146.358 488.36 146.935 488.36 147.556C488.359 148.265 488.177 148.842 487.815 149.285C487.408 149.728 486.865 149.993 486.187 149.993L484.424 149.991C483.023 149.99 482.165 149.102 482.167 147.594C482.168 146.086 482.983 145.288 484.429 145.29L485.514 145.291C485.65 145.291 485.785 145.424 485.785 145.557L485.782 148.351L485.827 148.352ZM484.833 148.395L484.835 146.71L484.383 146.709C483.84 146.709 483.478 147.019 483.478 147.551C483.477 148.084 483.793 148.394 484.381 148.395L484.833 148.395ZM485.84 137.086L486.247 137.131C486.789 137.132 487.106 136.777 487.107 136.201C487.107 135.757 486.972 135.358 486.746 134.914C486.746 134.869 486.701 134.825 486.701 134.781C486.701 134.692 486.747 134.648 486.792 134.603C486.837 134.559 486.973 134.47 486.973 134.47C487.109 134.382 487.289 134.293 487.425 134.293C487.651 134.294 487.877 134.427 487.967 134.604C488.238 135.092 488.373 135.669 488.372 136.29C488.371 137 488.19 137.576 487.828 138.019C487.42 138.462 486.878 138.728 486.2 138.727L484.437 138.725C483.035 138.724 482.177 137.836 482.179 136.328C482.181 134.82 482.995 134.023 484.442 134.024L485.527 134.025C485.662 134.025 485.798 134.158 485.798 134.292L485.795 137.086L485.84 137.086L485.84 137.086ZM484.845 137.13L484.847 135.444L484.395 135.444C483.853 135.443 483.491 135.753 483.49 136.286C483.49 136.818 483.805 137.129 484.393 137.129L484.845 137.13ZM488.252 163.212L488.253 162.591C488.253 162.458 488.117 162.325 487.982 162.325L484.637 162.322C483.1 162.32 482.195 163.118 482.193 164.448C482.193 164.847 482.283 165.291 482.373 165.557L480.7 165.555C480.339 165.555 480.022 165.865 480.021 166.22L480.021 166.841C480.02 166.974 480.156 167.107 480.292 167.108L487.977 167.115C488.112 167.115 488.248 166.982 488.248 166.849L488.249 165.829C488.25 165.696 488.114 165.563 487.978 165.563L483.729 165.558C483.639 165.337 483.594 165.026 483.594 164.804C483.595 164.139 483.912 163.873 484.68 163.874L487.619 163.877C487.935 163.833 488.252 163.567 488.252 163.212L488.252 163.212ZM484.462 156.511L486.135 156.513C487.536 156.514 488.394 157.446 488.392 158.999C488.391 160.551 487.531 161.482 486.129 161.48L484.457 161.479C483.055 161.477 482.197 160.545 482.199 158.993C482.201 157.44 483.061 156.51 484.462 156.511ZM484.46 158.063C483.918 158.063 483.556 158.373 483.555 158.95C483.555 159.526 483.871 159.837 484.458 159.838L486.131 159.839C486.674 159.84 486.99 159.53 486.991 158.953C486.992 158.376 486.676 158.066 486.133 158.065L484.46 158.063ZM483.681 167.953C485.128 167.955 486.121 169.02 486.12 170.439C486.119 170.794 486.074 171.105 485.938 171.415L487.972 171.417C488.108 171.417 488.243 171.55 488.243 171.683L488.242 172.704C488.242 172.837 488.106 172.97 487.97 172.969L480.782 172.962C480.601 172.962 480.466 172.829 480.421 172.696C480.196 172.03 480.061 171.365 480.062 170.655C480.063 169.059 481.059 167.951 482.596 167.952C482.596 167.952 483.681 167.953 483.681 167.953L483.681 167.953ZM482.504 169.549C481.781 169.548 481.419 170.036 481.418 170.701C481.418 171.1 481.553 171.366 481.553 171.366L484.536 171.369C484.672 171.103 484.718 170.97 484.718 170.66C484.719 169.995 484.312 169.506 483.635 169.506L482.504 169.505L482.504 169.549L482.504 169.549ZM483.713 139.301C485.159 139.303 486.153 140.368 486.151 141.788C486.151 142.142 486.105 142.453 485.969 142.763L488.003 142.765C488.139 142.765 488.275 142.898 488.274 143.032L488.273 144.052C488.273 144.185 488.137 144.318 488.002 144.318L480.814 144.31C480.633 144.31 480.498 144.177 480.453 144.044C480.227 143.378 480.092 142.713 480.093 142.003C480.095 140.407 481.091 139.299 482.628 139.301C482.627 139.3 483.713 139.301 483.713 139.301L483.713 139.301ZM482.536 140.897C481.812 140.896 481.45 141.384 481.45 142.049C481.449 142.448 481.584 142.715 481.584 142.715L484.568 142.717C484.704 142.451 484.749 142.318 484.75 142.008C484.75 141.343 484.344 140.854 483.666 140.854L482.536 140.853L482.536 140.897L482.536 140.897Z" fill="#5F259F"/>
<path d="M491.252 184.488C491.256 180.096 487.516 176.531 482.898 176.527C478.279 176.522 474.532 180.079 474.527 184.471C474.522 188.863 478.262 192.427 482.88 192.432C487.499 192.436 491.247 188.88 491.252 184.488Z" fill="#5F259F"/>
<path d="M480.701 180.912C480.373 180.912 480.093 181.173 480.092 181.478L480.091 182.523L477.144 184.915C476.863 185.133 476.769 185.481 476.862 185.829L477.142 186.657C477.189 186.788 477.375 186.832 477.469 186.744L480.136 184.134L480.132 188.098C480.132 188.228 480.225 188.316 480.365 188.316L480.833 188.316C481.16 188.316 481.441 188.055 481.441 187.751L481.442 187.141L483.685 187.143C485.368 187.145 486.351 186.318 486.352 184.924C486.353 184.489 486.306 184.14 486.12 183.705L487.616 183.706C488.037 183.707 488.364 183.402 488.365 183.01L488.365 182.4C488.366 182.27 488.225 182.139 488.085 182.139L481.4 182.132L481.401 181.13C481.402 181 481.308 180.913 481.168 180.912L480.7 180.912L480.701 180.912ZM484.718 183.703C484.858 183.965 484.904 184.313 484.904 184.575C484.903 185.271 484.529 185.619 483.687 185.619L481.443 185.616L481.445 183.7L484.718 183.703Z" fill="white"/>
</svg>
