<svg width="343" height="96" viewBox="0 0 343 96" fill="none" xmlns="http://www.w3.org/2000/svg">
<path d="M333 1.90234H10C4.47715 1.90234 0 6.3795 0 11.9023V85.0925C0 90.6154 4.47716 95.0925 10 95.0925H333C338.523 95.0925 343 90.6154 343 85.0925V11.9023C343 6.3795 338.523 1.90234 333 1.90234Z" fill="#FFE200"/>
<mask id="mask0_30193_15351" style="mask-type:alpha" maskUnits="userSpaceOnUse" x="0" y="1" width="343" height="95">
<path d="M333 1.90234H10C4.47715 1.90234 0 6.3795 0 11.9023V85.0925C0 90.6154 4.47716 95.0925 10 95.0925H333C338.523 95.0925 343 90.6154 343 85.0925V11.9023C343 6.3795 338.523 1.90234 333 1.90234Z" fill="#FFE200"/>
</mask>
<g mask="url(#mask0_30193_15351)">
<ellipse cx="112.5" cy="76.5471" rx="88.5" ry="84.1564" fill="white" fill-opacity="0.2"/>
<ellipse cx="112.5" cy="83.2031" rx="81.5" ry="77.5" fill="#E5C400" fill-opacity="0.4"/>
<path d="M137.105 28.3031C136.461 27.9321 135.599 27.7095 134.972 27.432C134.501 27.2224 133.877 27.0514 133.697 26.532C133.619 26.3126 133.612 26.0771 133.602 25.848C133.592 25.619 133.575 25.3835 133.483 25.1673C133.412 25.0028 133.297 24.8512 133.263 24.677C133.219 24.4576 133.307 24.2414 133.354 24.0317C133.405 23.8059 133.375 23.6382 133.297 23.4252C133.137 22.9897 133.256 22.4703 133.588 22.138C133.677 22.0477 133.782 21.9703 133.846 21.867C133.985 21.6476 133.927 21.3638 133.999 21.1153C134.311 20.0056 136.342 20.896 136.973 21.2444C137.153 21.3444 138.051 21.8154 138.452 22.0445C138.543 21.5347 138.669 21.0573 139.065 20.2475C139.611 19.1377 140.948 18.9377 140.856 19.6571C140.805 20.0701 140.588 20.9024 140.666 22.0509C140.697 22.5316 140.741 23.1671 140.951 23.9995C141.114 24.6479 141.378 25.89 141.992 27.1772C142.826 29.0451 146.933 34.5101 146.933 34.5101C148.978 33.4036 155.245 29.8678 157.741 28.4289C160.475 26.8514 163.676 27.3869 163.676 27.3869L158.559 34.8456C158.559 34.8456 150.721 38.8331 148.232 40.1203C146.191 41.1752 144.569 41.585 143.118 38.9299C140.87 34.8101 138.201 29.1451 137.098 28.3063L137.105 28.3031Z" fill="#FFA8A7"/>
<path d="M137.862 22.2773C138.489 22.5548 138.615 22.9871 138.479 23.8807C138.398 24.4098 138.435 25.4131 138.988 25.8777C138.988 25.8777 138.489 25.7712 138.242 25.4583C137.991 25.1421 137.916 25.1034 137.736 25.2421C137.557 25.3841 137.289 25.4228 137.289 25.4228C137.289 25.4228 137.601 25.8293 137.248 26.2519C136.895 26.6777 135.586 26.5293 134.586 25.8744C134.586 25.8744 136.258 26.5971 136.729 26.1196C137.201 25.6422 136.366 24.8711 135.705 24.613C135.705 24.613 137.333 25.1937 137.658 24.7001C137.984 24.2066 137.343 23.7259 136.387 23.3678C136.387 23.3678 137.743 23.7743 138.042 23.3549C138.405 22.8451 138.025 22.4774 137.865 22.2773H137.862Z" fill="#F28F8F"/>
<path d="M164.49 24.6403H166.877C171.279 24.6403 174.85 21.2368 174.85 17.0364C174.85 12.2101 170.747 8.29688 165.683 8.29688C163.197 8.29688 161.054 9.24212 159.521 10.7745L159.365 22.6853C159.365 22.6853 162.438 24.6403 164.493 24.6403H164.49Z" fill="black"/>
<path d="M169.953 9.46443L169.58 7.10938C168.882 7.1868 168.4 7.77718 168.502 8.42885C168.604 9.08052 169.255 9.54186 169.953 9.46443Z" fill="black"/>
<path d="M174.752 12.0449C173.419 13.1773 172.283 12.2901 171.096 11.019C169.906 9.74791 169.112 8.57038 170.448 7.43802C171.781 6.30565 173.829 6.41534 175.016 7.68965C176.207 8.96074 176.088 10.9125 174.752 12.0449Z" fill="black"/>
<path d="M158.96 102.736C159.875 101.791 160.052 100.881 159.93 99.1264C159.804 97.3746 158.356 82.0925 157.983 78.2664C157.356 71.84 158.034 53.5835 158.597 49.125L176.113 50.4477C177.415 53.5609 178.375 57.3903 178.168 63.4005C178.012 67.9848 178.117 80.4214 178.117 80.4214C178.117 80.4214 180.308 82.2506 181.875 85.8606C183.259 89.0512 184.846 100.065 184.846 100.065C185.09 100.797 185.287 101.352 185.371 101.462C185.748 101.952 186.019 102.475 186.019 103.069C186.019 104.972 185.806 106.875 185.382 108.734C185.165 109.698 184.534 110.318 183.527 110.698C183.303 110.782 183.062 110.827 182.821 110.808C182.699 110.798 182.567 110.769 182.482 110.689C182.313 110.527 182.469 110.14 182.499 109.947C182.55 109.634 182.58 109.321 182.591 109.005C182.611 108.385 182.591 107.63 182.546 107.014C182.435 105.398 182.187 104.088 181.851 102.907C181.851 102.907 181.712 102.591 181.502 102.114C181.502 102.114 173.709 87.1156 171.498 83.4572C169.737 80.5892 168.574 69.4527 167.326 63.365L165.502 77.9147C165.502 77.9147 166.136 80.5408 166.377 82.5506C166.702 85.2509 164.698 95.8293 164.098 99.5909C163.986 100.291 163.979 100.997 164.07 101.698C163.86 103.327 162.575 103.83 161.249 104.753C160.588 105.211 157.688 106.892 155.935 107.227C154.51 107.501 153.964 106.975 153.768 106.592C155.545 105.591 158.044 103.672 158.96 102.727V102.736Z" fill="#FFA8A7"/>
<path d="M172.757 44.3899C172.757 44.3899 174.338 46.2321 176.796 50.8647C178.448 53.9747 178.553 65.3919 178.553 65.3919C178.553 65.3919 177.115 68.5115 168.05 67.9921L167.375 64.1176L166.795 67.9018C166.572 67.8824 166.344 67.8598 166.114 67.8373C158.3 67.0372 156.842 65.3532 156.842 65.3532C156.842 65.3532 157.405 52.1003 159.104 44.5738C161.746 46.3482 169.586 46.7708 172.757 44.3867V44.3899Z" fill="black"/>
<path d="M167.38 64.1191L165.647 57.7024C165.647 57.7024 162.296 57.3605 159.691 55.5312C159.691 55.5312 160.227 57.8799 164.839 58.5702L166.823 64.8708L166.803 67.9033L167.383 64.1191H167.38Z" fill="#263238"/>
<path d="M173.946 65.8485C177.172 65.1162 178.454 63.8516 178.454 63.8516L178.555 65.3646C178.555 65.3646 177.117 68.4842 168.052 67.9648L167.754 66.2453C167.754 66.2453 170.721 66.5808 173.946 65.8485Z" fill="#37474F"/>
<path d="M156.842 65.3535C156.842 65.3535 156.869 64.7406 156.93 63.6953C157.1 63.7985 159.195 64.8277 161.858 65.4116C164.638 66.0213 167.073 66.1213 167.073 66.1213L166.799 67.9054C166.575 67.886 166.348 67.8634 166.117 67.8409C158.303 67.0408 156.845 65.3568 156.845 65.3568L156.842 65.3535Z" fill="#37474F"/>
<path d="M157.314 33.264C159.064 30.6863 162.551 28.2345 163.68 27.3828L169.638 27.428C170.459 27.4667 171.673 27.5635 172.114 27.6312C172.555 27.699 172.999 27.8635 173.243 27.9861C174.614 28.6829 174.756 29.9766 174.8 31.5122C174.854 33.1962 174.861 33.935 174.376 36.7127L173.491 40.255L173.355 40.8002C173.332 40.8937 173.311 40.9873 173.288 41.0841C172.979 42.3971 173.091 43.794 173.813 45.1102C175.319 47.8557 176.828 49.9881 177.333 52.2915C177.333 52.2915 176.445 51.998 175.333 50.9785C174.363 50.0913 173.776 49.6784 172.999 48.6331C171.117 52.1012 161.048 55.0434 157.884 49.701C157.884 49.701 158.851 45.0941 159.013 43.5456C158.766 42.2068 158.033 39.8904 158.016 39.3775C156.012 37.6579 156.046 35.1416 157.318 33.2672L157.314 33.264Z" fill="#11A64B"/>
<path opacity="0.1" d="M161.188 39.0955C161.188 39.0955 163.348 40.9183 166.003 40.2021C168.659 39.4827 169.184 37.3438 169.184 37.3438C169.184 37.3438 169.269 40.1924 165.929 40.9538C162.707 41.6893 161.188 39.0955 161.188 39.0955Z" fill="black"/>
<path d="M158.022 19.4955C158.321 23.7572 159.365 24.9218 160.512 25.2315C161.278 25.438 162.645 25.3509 164.011 25.1347V27.6995C164.011 27.6995 162.438 29.2738 162.553 30.4481C162.675 31.6257 165.029 31.7547 166.796 30.6062C168.088 29.7674 169.01 28.8093 169.41 28.3544C169.556 28.1899 169.638 27.9802 169.638 27.764V21.7312C169.638 21.7312 170.384 22.4861 171.71 21.6215C173.029 20.7601 173.144 19.1535 172.337 18.2406C171.761 17.5953 170.299 17.5502 169.594 18.5535C169.2 19.2923 169.146 20.031 168.702 19.7246C167.521 18.9148 168.264 16.521 166.84 15.6113C166.84 15.6113 165.239 14.6241 164.7 14.4467C162.156 13.6079 160.532 14.0176 159.999 12.3594C158.216 13.0143 157.693 14.7919 158.022 19.4955Z" fill="#FFA8A7"/>
<path d="M163.198 18.7553C163.181 19.0844 163.435 19.3651 163.768 19.378C164.1 19.3941 164.385 19.1392 164.402 18.807C164.419 18.4779 164.165 18.1972 163.832 18.1843C163.5 18.1682 163.215 18.4231 163.198 18.7553Z" fill="#263238"/>
<path d="M158.796 18.6063C158.779 18.9161 159.02 19.1806 159.335 19.1935C159.681 19.2096 159.915 18.9999 159.932 18.658C159.949 18.3483 159.708 18.0837 159.393 18.0708C159.081 18.0579 158.813 18.2966 158.796 18.6063Z" fill="#263238"/>
<path d="M161.604 18.0703L161.505 21.661L159.521 21.077L161.604 18.0703Z" fill="#F28F8F"/>
<path d="M164.012 25.1333C165.453 24.9526 168.417 24.1429 168.878 23.0234C168.878 23.0234 168.726 23.7267 167.841 24.4494C166.955 25.172 164.015 25.9882 164.015 25.9882V25.1333H164.012Z" fill="#F28F8F"/>
<path d="M163.668 16.8139L165.079 17.401C165.242 17.0171 165.055 16.5719 164.665 16.4106C164.275 16.2493 163.827 16.4299 163.668 16.8139Z" fill="#263238"/>
<path d="M164.786 21.5667L162.012 22.4861C162.307 23.2249 162.982 23.6217 163.85 23.3862C164.63 23.1733 165.084 22.3054 164.786 21.5667Z" fill="#B16668"/>
<path d="M164.447 22.2578C163.758 22.2578 163.202 22.7869 163.195 23.4386C163.399 23.4612 163.616 23.4482 163.85 23.3837C164.369 23.2418 164.735 22.8127 164.84 22.3256C164.715 22.2868 164.586 22.2578 164.447 22.2578Z" fill="#F28F8F"/>
<path d="M161.054 9.61328C157.744 9.99396 155.842 12.3781 155.842 16.4204H158.897C160.318 16.4204 161.522 15.417 161.716 14.075L161.828 16.4204C163.001 16.4204 163.978 15.5654 164.079 14.4524L164.113 14.0685C164.225 15.3945 165.385 16.4204 166.782 16.4204H167.054L167.366 12.2135L161.054 9.61328Z" fill="black"/>
<path d="M136.864 47.5713C139.375 46.1396 142.768 46.2811 146.457 48.207L146.814 48.3994C150.985 50.6945 154.779 54.935 157.531 59.9502C160.283 64.9637 161.98 70.7268 161.98 76.0469V76.1543L161.981 76.1553C161.958 81.7901 160.022 85.726 157.034 87.5039L156.74 87.6699L156.737 87.6709L150.553 91.0781L148.923 87.8018L148.881 87.7168L148.793 87.6816L148.365 87.5C148.078 87.3739 147.79 87.237 147.498 87.0879L147.06 86.8555H147.059C142.888 84.5604 139.094 80.3198 136.342 75.3047C133.59 70.2911 131.894 64.5272 131.894 59.207C131.894 57.5494 132.062 56.0325 132.369 54.6748L132.389 54.5869L132.348 54.5068L130.604 51.0684L136.862 47.5723L136.864 47.5713Z" fill="#FFE200" stroke="white" stroke-width="0.5"/>
<path d="M129.635 51.667C132.224 49.7999 135.798 49.6509 139.814 51.7334L140.205 51.9424C144.384 54.2439 148.186 58.4934 150.943 63.5186C153.7 68.5422 155.401 74.317 155.401 79.6484C155.401 84.984 153.7 88.8183 151.017 90.7539C148.427 92.621 144.852 92.7702 140.836 90.6875L140.446 90.4785C136.267 88.177 132.466 83.9276 129.708 78.9023C126.951 73.8786 125.25 68.104 125.25 62.7725C125.25 57.4368 126.951 53.6025 129.635 51.667Z" fill="#FFE200" stroke="white" stroke-width="0.5"/>
<path opacity="0.1" d="M162.058 78.8279C162.041 78.9505 162.027 79.0699 162.007 79.1925C161.97 79.4441 161.932 79.6925 161.888 79.9345C161.814 80.3345 161.729 80.7217 161.63 81.0959C161.573 81.3475 161.502 81.5927 161.42 81.8314C161.383 81.9508 161.346 82.0669 161.305 82.1831C161.264 82.3025 161.223 82.4186 161.183 82.5315C161.098 82.7606 161.006 82.9799 160.915 83.1993C160.871 83.3058 160.823 83.409 160.772 83.5155C160.667 83.7381 160.562 83.9574 160.443 84.1704C160.41 84.2349 160.372 84.3026 160.335 84.3672C160.159 84.6801 159.969 84.9769 159.769 85.2608C159.735 85.3092 159.701 85.3543 159.667 85.4027C159.64 85.435 159.616 85.4705 159.592 85.5027C159.094 86.1673 158.527 86.7383 157.907 87.2061C157.859 87.2448 157.812 87.2803 157.764 87.3126C157.673 87.3803 157.585 87.4416 157.493 87.4997C157.384 87.5739 157.273 87.6416 157.161 87.7094C157.062 87.7675 156.957 87.8288 156.855 87.8804V87.8868L150.564 91.3517C153.183 89.8031 154.983 86.6803 155.502 82.3218C155.604 81.4766 155.655 80.5862 155.655 79.6506C155.655 74.9147 154.325 69.8432 152.114 65.2493L158.68 61.6328C160.894 66.2268 162.231 71.3079 162.231 76.047C162.231 76.9794 162.173 77.8633 162.071 78.7021C162.064 78.7441 162.061 78.786 162.054 78.8279H162.058Z" fill="black"/>
<path opacity="0.1" d="M162.075 78.6992C162.024 79.1218 161.963 79.5348 161.888 79.9316C161.814 80.3316 161.729 80.7188 161.63 81.093C161.566 81.3446 161.495 81.5898 161.42 81.8285C161.383 81.9479 161.346 82.064 161.305 82.1802C161.264 82.2996 161.223 82.4157 161.183 82.5286C161.098 82.7577 161.006 82.977 160.915 83.1964C160.871 83.3029 160.823 83.4061 160.772 83.5126C160.667 83.7352 160.562 83.9545 160.443 84.1675C160.41 84.232 160.372 84.2997 160.335 84.3643C160.159 84.6772 159.969 84.974 159.769 85.2579C159.711 85.3418 159.653 85.4224 159.592 85.4998C159.094 86.1644 158.527 86.7354 157.907 87.2032C157.859 87.2419 157.812 87.2774 157.764 87.3097C157.673 87.3774 157.585 87.4387 157.493 87.4968C157.384 87.571 157.273 87.6388 157.161 87.7065C157.062 87.7646 156.957 87.8259 156.855 87.8775V87.8839L150.564 91.3488C153.183 89.8002 154.983 86.6774 155.502 82.3189L162.075 78.6992Z" fill="black"/>
<path opacity="0.4" d="M158.678 61.6331L152.113 65.2496C149.305 59.4071 145.066 54.3356 140.325 51.7257C136.489 49.6126 132.979 49.4739 130.293 50.9547L136.74 47.3544C139.433 45.8187 143.061 46.0478 146.934 48.1802C151.652 50.7773 155.87 55.8197 158.675 61.6331H158.678Z" fill="white"/>
<path d="M150.873 76.8068C150.873 79.8038 150.053 82.2298 148.672 83.7977C146.749 85.9947 143.765 86.5302 140.421 84.6752C137.057 82.8234 134.073 78.9844 132.15 74.6872C130.766 71.5934 129.945 68.2705 129.945 65.2734L150.873 76.81V76.8068Z" fill="black"/>
<path d="M152.734 53.2044C152.11 53.1689 151.493 53.2657 150.883 53.3722C149.621 53.5948 148.41 53.7464 147.169 53.3077C146.454 53.0528 145.609 52.5011 145.473 51.714C145.345 50.9526 146.243 50.6719 146.806 50.3848C147.579 49.9944 148.37 49.6299 149.201 49.3654C150.642 48.9008 152.046 48.8234 153.518 49.1557C154.254 49.3202 155.24 49.546 155.966 49.2202C156.458 48.9976 156.936 48.733 157.421 48.4943C158.683 47.8749 159.948 47.2523 161.209 46.6328C162.949 45.7779 164.689 44.923 166.425 44.0681L168.826 34.2253C168.826 34.2253 169.386 30.183 171.75 27.5859C173.547 27.7376 175.297 28.3279 175.7 29.3829C176.104 30.4378 175.823 31.8896 175.324 34.093C174.825 36.2996 172.238 43.4584 171.231 46.0038C170.769 47.1716 170.542 47.6652 168.918 48.3362C166.507 49.3363 164.088 50.3267 161.664 51.3042C160.409 51.8107 159.151 52.3172 157.893 52.8141C157.099 53.127 156.299 53.4883 155.424 53.527C154.515 53.569 153.636 53.2528 152.731 53.2012L152.734 53.2044Z" fill="#FFA8A7"/>
<path d="M76.4421 37.2929C76.4421 37.2929 84.4854 42.0301 85.2055 42.4093C85.9256 42.7886 87.4025 44.1393 88.9119 42.3629C90.1243 40.9387 98.4117 28.8172 98.4117 28.8172L94.0178 26.8047L86.2959 35.8184L74.6602 27.9425L76.4381 37.2929H76.4421Z" fill="#FFA8A7"/>
<path d="M76.6223 28.6534C79.2342 30.6078 83.6851 33.7659 83.6851 33.7659C83.2945 36.1306 82.2327 38.3096 80.3002 40.1518L75.7598 37.4891L70.125 26.6254C70.125 26.6254 73.0787 26.0062 76.6223 28.6534Z" fill="#11A64B"/>
<path d="M98.9072 22.9277C103.415 20.4517 107.596 20.1411 110.734 21.7607L111.035 21.9238L111.037 21.9248L118.675 26.1807L116.538 30.3857L116.497 30.4668L116.518 30.5547C116.891 32.2026 117.093 34.0415 117.093 36.0527C117.093 42.503 115.03 49.4873 111.688 55.5615C108.45 61.4473 104.024 66.4562 99.1406 69.2949L98.666 69.5625C97.9511 69.9561 97.2477 70.2845 96.5566 70.5635L96.4697 70.5996L96.4268 70.6836L94.4229 74.6963L86.998 70.6211V70.6104L86.8652 70.54C82.993 68.4762 80.4814 63.5577 80.4805 56.4375C80.4805 49.9873 82.5431 43.0029 85.8848 36.9287C89.1228 31.0429 93.549 26.034 98.4326 23.1953L98.9072 22.9277Z" fill="#FFE200" stroke="white" stroke-width="0.5"/>
<path d="M106.926 27.2158C112.002 24.4281 116.543 24.54 119.809 26.8877C123.085 29.2433 125.152 33.9023 125.152 40.3682C125.152 46.832 123.086 53.8312 119.737 59.918C116.492 65.8158 112.056 70.8351 107.161 73.6797L106.686 73.9482C101.609 76.7359 97.068 76.624 93.8027 74.2764C90.5264 71.9207 88.459 67.2609 88.459 60.7949C88.4591 54.3332 90.5253 47.3342 93.874 41.2471C97.119 35.3486 101.556 30.329 106.451 27.4844L106.926 27.2158Z" fill="#FFE200" stroke="white" stroke-width="0.5"/>
<path opacity="0.1" d="M80.4417 59.8023C80.462 59.9493 80.4783 60.0964 80.5027 60.2435C80.5475 60.5492 80.5922 60.8472 80.6492 61.1414C80.7387 61.6251 80.8404 62.0973 80.9625 62.5501C81.0357 62.852 81.1211 63.15 81.2147 63.4403C81.2595 63.5835 81.3083 63.7267 81.3571 63.866C81.4059 64.0092 81.4547 64.1485 81.5036 64.2878C81.6053 64.5665 81.7151 64.8335 81.829 65.0967C81.8819 65.2244 81.943 65.3521 81.9999 65.476C82.126 65.7469 82.2562 66.0101 82.3986 66.2694C82.4393 66.3468 82.4841 66.4281 82.5288 66.5055C82.7444 66.8848 82.9723 67.2447 83.2164 67.5853C83.2571 67.6433 83.2977 67.6975 83.3384 67.7594C83.371 67.7981 83.3995 67.8407 83.432 67.8794C84.0382 68.6844 84.7217 69.3733 85.4784 69.9422C85.5354 69.9886 85.5964 70.0312 85.6534 70.0738C85.7632 70.1551 85.8731 70.2286 85.9829 70.3021C86.1172 70.3912 86.2514 70.4763 86.3857 70.5576C86.5037 70.6311 86.6339 70.7008 86.7559 70.7666V70.7743L94.3883 74.9657C91.2149 73.0926 89.0261 69.3114 88.3996 64.0363C88.2775 63.0145 88.2165 61.9348 88.2165 60.8008C88.2165 55.069 89.8317 48.927 92.5127 43.3694L84.5468 38.9922C81.8575 44.5537 80.2383 50.6996 80.2383 56.4391C80.2383 57.5653 80.3074 58.6373 80.4295 59.6552C80.4376 59.7055 80.4458 59.7558 80.4498 59.8061L80.4417 59.8023Z" fill="black"/>
<path opacity="0.1" d="M80.4219 59.6484C80.4829 60.1593 80.5602 60.6586 80.6497 61.1423C80.7392 61.6261 80.8409 62.0983 80.963 62.5511C81.0403 62.853 81.1257 63.151 81.2152 63.4412C81.26 63.5844 81.3088 63.7276 81.3576 63.867C81.4064 64.0102 81.4553 64.1495 81.5041 64.2888C81.6058 64.5675 81.7156 64.8345 81.8295 65.0977C81.8824 65.2254 81.9435 65.3531 82.0004 65.477C82.1265 65.7479 82.2567 66.0111 82.3991 66.2704C82.4398 66.3478 82.4846 66.429 82.5293 66.5064C82.7449 66.8857 82.9728 67.2456 83.2169 67.5862C83.286 67.6868 83.3593 67.7836 83.4325 67.8804C84.0387 68.6854 84.7222 69.3743 85.4789 69.9432C85.5359 69.9896 85.5969 70.0322 85.6539 70.0748C85.7637 70.156 85.8736 70.2296 85.9834 70.3031C86.1177 70.3921 86.2519 70.4773 86.3862 70.5585C86.5042 70.6321 86.6344 70.7017 86.7564 70.7675V70.7753L94.3888 74.9667C91.2154 73.0935 89.0266 69.3123 88.4001 64.0372L80.4219 59.6562V59.6484Z" fill="black"/>
<path opacity="0.4" d="M84.5392 38.9896L92.5052 43.3668C95.9146 36.2921 101.057 30.1539 106.806 26.9997C111.46 24.4415 115.716 24.2712 118.979 26.067L111.155 21.7092C107.888 19.8476 103.486 20.1262 98.7828 22.7077C93.0585 25.8503 87.9404 31.9536 84.5352 38.9896H84.5392Z" fill="white"/>
<path d="M53.9369 56.2773C52.696 67.11 50.4868 88.9922 50.4868 88.9922C50.4868 88.9922 48.534 91.8252 47.8057 97.0499C46.9066 103.502 46.0156 116.97 46.0156 116.97C46.0156 116.97 48.2085 118.433 51.2965 117.485C51.2965 117.485 58.9085 97.7118 60.3162 91.3607C61.5448 85.8186 63.7214 74.4286 63.7214 74.4286L66.4432 89.9249C66.4432 89.9249 65.3732 93.141 65.5644 97.4757C65.6946 100.46 67.1674 111.753 67.1674 111.753C67.6068 112.987 71.6793 112.902 72.9893 112.105C72.9893 112.105 75.0764 93.1217 75.349 89.9868C75.7111 85.8651 76.3824 56.2773 76.3824 56.2773H53.9328H53.9369Z" fill="black"/>
<path d="M63.7246 74.4333L65.2421 67.7689C65.2421 67.7689 68.6393 67.0335 71.0641 65.1797C71.0641 65.1797 70.1731 67.3044 66.4545 68.9338L64.9045 75.1764L66.2389 88.8692L63.7246 74.4333Z" fill="#263238"/>
<path d="M62.6633 26.1875C59.3353 26.1875 56.9227 26.3617 54.7705 26.8029C53.0903 27.1473 52.5573 29.8371 52.4434 31.6251C52.0813 37.4498 54.799 48.2748 54.799 48.2748L53.5418 58.3179C56.3979 61.2206 69.1565 62.7377 76.4471 58.4805C76.4471 58.4805 76.6424 38.6883 76.4471 35.3483C76.1013 29.4772 73.4568 26.6635 71.1785 26.4971C71.1785 26.4971 65.9913 26.1875 62.6633 26.1875Z" fill="#11A64B"/>
<path d="M59.6223 8.36328C59.6223 8.36328 57.8769 8.59549 57.2382 9.84557C56.6808 10.9331 56.8842 13.5571 57.6247 16.421C58.3651 19.2811 59.0649 21.0072 59.5002 21.7968C59.9355 22.5902 60.8306 22.8108 60.8306 22.8108L60.7452 19.4166L60.615 17.0519C60.615 17.0519 62.2098 14.9775 62.3888 13.2784C62.6126 11.0918 62.1284 10.1939 62.1284 10.1939L59.6223 8.36328Z" fill="black"/>
<path d="M62.4375 11.6517C62.4497 15.1542 65.4441 17.9834 69.126 17.9718C72.808 17.9601 75.782 15.1117 75.7698 11.6091C75.7576 8.10661 72.7632 5.27749 69.0813 5.2891C65.3994 5.30071 62.4253 8.14918 62.4375 11.6517Z" fill="#37474F"/>
<path d="M60.7092 16.6748C60.1111 17.1702 59.6229 15.8892 59.1184 15.3899C58.614 14.8907 56.9703 14.2134 56.1566 15.8582C55.3267 17.534 56.9093 19.8097 58.1379 20.3515C59.9403 21.1449 60.7458 19.4188 60.7458 19.4188L60.937 26.5593C64.0168 30.9985 71.1773 30.1006 68.191 26.838L68.1748 24.512C68.1748 24.512 70.1927 24.7984 71.1773 24.6513C72.8169 24.4036 73.6712 23.231 74.1635 21.5397C74.9528 18.8267 74.9324 14.701 73.838 9.43368C72.0032 8.08297 65.9778 7.87398 62.1291 10.1961C62.4098 14.8674 61.3113 16.1794 60.7092 16.6748Z" fill="#FFA8A7"/>
<path d="M75.0905 5.27164C75.0417 5.18263 74.9563 5.09748 74.8505 5.09748C74.7691 5.09748 74.6918 5.14393 74.6267 5.19037C74.3867 5.35679 73.8496 5.78638 73.1661 6.12309C73.3004 5.49999 73.3085 4.85366 73.1906 4.23056C73.1173 3.84741 73.0034 2.95726 72.503 2.86051C72.206 2.80245 71.9456 3.03854 71.7259 3.23592C69.7242 5.02008 67.1082 4.19573 64.6957 4.26539C62.6777 4.32731 60.2448 5.10909 59.3335 6.97453C58.9185 7.82985 58.8453 8.72774 59.6671 9.31988C60.3709 9.823 61.27 10.0513 62.1285 10.1945C66.1481 10.8602 71.5591 12.1722 74.5331 8.60389C74.9725 8.07754 75.2736 7.50862 75.3428 6.83908C75.4038 6.27403 75.3468 5.79412 75.1027 5.29099C75.1027 5.28325 75.0946 5.27551 75.0905 5.26777V5.27164Z" fill="black"/>
<path d="M68.174 24.5112C68.174 24.5112 64.5124 23.8223 63.2309 23.1799C62.3724 22.7503 61.6645 22.0033 61.457 21.5234C61.457 21.5234 61.7011 22.5568 62.4701 23.4818C63.4099 24.6157 68.1781 25.4401 68.1781 25.4401V24.5151L68.174 24.5112Z" fill="#F28F8F"/>
<path d="M67.2265 15.8331C67.2265 16.2317 66.901 16.5568 66.4942 16.5568C66.0874 16.5568 65.7619 16.2317 65.7578 15.8331C65.7578 15.4345 66.0833 15.1094 66.4901 15.1094C66.8929 15.1094 67.2224 15.4345 67.2265 15.8331Z" fill="#263238"/>
<path d="M66.4415 13.2017L64.8752 14.0299C64.6433 13.6003 64.806 13.0701 65.2373 12.8418C65.6685 12.6134 66.2096 12.776 66.4415 13.2017Z" fill="#263238"/>
<path d="M66.8372 19.5859L70.5801 20.9095C70.214 21.9313 69.0789 22.4615 68.0455 22.0977C67.0121 21.7339 66.471 20.6077 66.8372 19.5859Z" fill="#B16668"/>
<path d="M73.7563 13.761L72.3242 12.7161C72.6131 12.3252 73.1705 12.2439 73.5651 12.5303C73.9597 12.8167 74.0452 13.3701 73.7563 13.7571V13.761Z" fill="#263238"/>
<path d="M73.3203 15.6183C73.3203 16.0169 72.9948 16.342 72.5879 16.342C72.1852 16.342 71.8556 16.0169 71.8516 15.6183C71.8516 15.2196 72.177 14.8945 72.5839 14.8945C72.9907 14.8945 73.3162 15.2196 73.3203 15.6183Z" fill="#263238"/>
<path d="M69.5859 14.9688L69.8422 19.1602L72.1409 18.4055L69.5859 14.9688Z" fill="#F28F8F"/>
<path d="M68.0444 22.1C68.4024 22.2278 68.7727 22.2394 69.1185 22.1658C69.0697 21.2834 68.2967 20.5945 67.3609 20.6178C67.1575 20.6216 66.9622 20.6681 66.7832 20.7339C66.9419 21.3454 67.3975 21.8678 68.0444 22.0962V22.1Z" fill="#F28F8F"/>
<path d="M58.28 54.7436C56.4777 54.1708 55.7738 53.8302 54.9154 51.2411C52.6289 44.356 50.5622 38.6784 50.1228 35.2262C49.2765 28.5501 52.096 27.9424 54.2238 27.2148L57.153 33.9838L61.4615 48.7409C64.9278 50.2232 70.6033 51.3223 74.6676 52.5221C75.2372 52.6885 76.7954 52.8279 77.3894 52.7737C78.8052 52.6421 79.6759 52.4834 80.4692 52.615C80.3878 53.1646 80.3594 53.687 80.3146 54.1824C80.3146 54.1824 82.2675 54.2095 84.4441 53.8225C87.3978 53.3 88.4556 54.2327 86.0267 57.0541C84.6556 58.6486 81.9623 59.2679 78.0363 58.8731C76.4333 58.7106 74.6636 58.3506 72.0313 57.6772C66.8969 56.3652 61.1075 55.6492 58.28 54.7475V54.7436Z" fill="#FFA8A7"/>
<path d="M54.7691 26.7968C50.4484 27.2497 48.6339 30.876 49.533 35.1178C50.1717 38.1211 51.4167 42.2699 52.4297 45.2925C52.4297 45.2925 57.6943 45.2422 60.2208 42.9433C59.2687 39.971 59.1141 39.3479 58.272 36.5304C57.9546 30.876 56.726 28.1359 54.7691 26.793V26.7968Z" fill="#11A64B"/>
<path d="M95.4147 24.9435C95.8948 24.5642 96.4359 24.1733 97.0543 23.7592C97.0543 23.7592 98.8078 23.914 100.94 25.524C102.29 26.5418 106.359 26.4683 105.777 24.6919C104.959 22.1879 102.12 21.2745 100.838 21.0113C98.7224 20.5779 94.9469 22.3233 95.4147 24.9473V24.9435Z" fill="#FFA8A7"/>
<path d="M94.6053 58.8927C93.4255 62.1204 93.275 64.996 94.0113 67.1285C95.0285 70.1163 97.738 71.6566 101.741 70.7433C105.761 69.8376 110.192 66.6718 113.764 62.6661C116.335 59.7828 118.442 56.4699 119.622 53.2422L94.6013 58.8888L94.6053 58.8927Z" fill="black"/>
<path d="M190.171 19.3259C188.027 17.5796 184.881 17.7269 183.145 19.6548C181.409 21.5827 181.739 24.5611 183.883 26.3073C186.027 28.0536 189.173 27.9063 190.909 25.9784C192.646 24.0505 192.315 21.0721 190.171 19.3259ZM186.702 26.4867C184.196 25.9744 182.778 23.4219 183.583 21.6268C183.583 21.6268 184.718 23.0698 186.781 23.9836C188.782 24.8696 190.551 24.7724 190.551 24.7724C190.551 24.7724 189.138 26.9849 186.702 26.4867Z" fill="#11A64B"/>
<path d="M39.5 19.0156C34.8054 19.0156 31 22.6343 31 27.0984C31 31.5626 34.8054 35.1813 39.5 35.1813C44.1946 35.1813 48 31.5626 48 27.0984C48 22.6343 44.1946 19.0156 39.5 19.0156ZM43.2638 32.3549C39.5168 34.3959 34.8223 32.5291 33.7968 29.2556C33.7968 29.2556 36.8718 29.9485 40.5171 28.9246C44.0512 27.9321 46.1753 25.8775 46.1753 25.8775C46.1753 25.8775 46.9076 30.3698 43.2638 32.3549Z" fill="#11A64B"/>
</g>
</svg>
