<svg width="31" height="39" viewBox="0 0 31 39" fill="none" xmlns="http://www.w3.org/2000/svg">
<path d="M5.10391 4.54114C8.63631 -0.580969 15.9928 -1.17143 20.8568 1.77357C22.8393 2.97452 24.06 4.63835 24.7279 6.54798C26.4835 11.5641 24.4533 18.274 22.5522 22.7384C21.8287 24.4272 21.0496 26.4637 19.56 27.5968C19.0839 27.9591 18.5992 28.2452 18.1117 28.464C18.1925 28.6294 18.2859 28.7645 18.3998 28.8536C19.1069 29.405 21.9449 29.4009 22.891 29.4943C25.3959 29.7446 29.5493 30.2159 30.9965 32.5499C24.06 39.7939 13.3898 40.1329 4.14981 37.4806C1.88904 36.8313 -1.75075 36.0588 0.968171 33.7247C2.33832 32.5493 4.07273 31.9595 5.68692 31.2423C7.98845 30.2191 11.0626 29.8712 12.2572 28.2179C9.26882 26.7688 6.74475 23.5862 5.69962 20.548C4.16252 16.0964 2.24834 8.68302 5.10391 4.54114Z" fill="white"/>
</svg>
